<?xml version="1.0" encoding="utf-8"?>
<!-- Generator: Adobe Illustrator 27.8.1, SVG Export Plug-In . SVG Version: 6.00 Build 0)  -->
<svg version="1.1" id="Слой_1" xmlns="http://www.w3.org/2000/svg" xmlns:xlink="http://www.w3.org/1999/xlink" x="0px" y="0px"
	 viewBox="0 0 290 269.62" style="enable-background:new 0 0 290 269.62;" xml:space="preserve">
<style type="text/css">
	.st0{stroke:#000000;stroke-linecap:round;stroke-linejoin:round;stroke-miterlimit:10;}
	.st1{fill:#222846;stroke:#000000;stroke-linecap:round;stroke-linejoin:round;stroke-miterlimit:10;}
	.st2{fill-rule:evenodd;clip-rule:evenodd;stroke:#000000;stroke-linecap:round;stroke-linejoin:round;stroke-miterlimit:10;}
	
		.st3{fill-rule:evenodd;clip-rule:evenodd;fill:#222846;stroke:#000000;stroke-linecap:round;stroke-linejoin:round;stroke-miterlimit:10;}
	
		.st4{fill-rule:evenodd;clip-rule:evenodd;fill:#4A5479;stroke:#000000;stroke-linecap:round;stroke-linejoin:round;stroke-miterlimit:10;}
	.st5{fill-rule:evenodd;clip-rule:evenodd;fill:#5C6A91;}
	.st6{fill:#6D75A2;}
	.st7{stroke:#1A213A;stroke-linecap:round;stroke-linejoin:round;stroke-miterlimit:10;}
	.st8{stroke:#4A5479;stroke-linecap:round;stroke-linejoin:round;stroke-miterlimit:10;}
	.st9{fill:url(#SVGID_1_);}
	.st10{fill:url(#SVGID_00000054972338961072103680000017105651045560038795_);}
	.st11{fill:url(#SVGID_00000135648619680470466330000009828554752933606079_);}
	
		.st12{fill:none;stroke:url(#SVGID_00000088825241723648290360000012089503772912670088_);stroke-width:5;stroke-linecap:round;stroke-linejoin:round;stroke-miterlimit:10;}
	.st13{fill:url(#SVGID_00000074440715889256759420000009077034085546869646_);}
	.st14{fill-rule:evenodd;clip-rule:evenodd;fill:#1AD4B3;}
	.st15{fill-rule:evenodd;clip-rule:evenodd;fill:#FC4F83;}
	.st16{fill:#4A5479;stroke:#000000;stroke-linecap:round;stroke-linejoin:round;stroke-miterlimit:10;}
	
		.st17{fill:url(#SVGID_00000003075611421227837960000006611287792064190628_);stroke:#1D1D1B;stroke-width:0.2115;stroke-linecap:round;stroke-linejoin:round;stroke-miterlimit:10;}
	.st18{fill-rule:evenodd;clip-rule:evenodd;}
	
		.st19{fill:url(#SVGID_00000093166145277142076030000011250303642968977834_);stroke:#1D1D1B;stroke-width:0.2115;stroke-linecap:round;stroke-linejoin:round;stroke-miterlimit:10;}
	
		.st20{fill:url(#SVGID_00000082347479521608127860000014901663838849359500_);stroke:#1D1D1B;stroke-width:0.2115;stroke-linecap:round;stroke-linejoin:round;stroke-miterlimit:10;}
	
		.st21{fill:url(#SVGID_00000116922595759469625430000000838351128089518269_);stroke:#1D1D1B;stroke-width:0.2115;stroke-linecap:round;stroke-linejoin:round;stroke-miterlimit:10;}
	.st22{fill-rule:evenodd;clip-rule:evenodd;fill:url(#SVGID_00000042701049309272591030000003198383743421381760_);}
	.st23{fill-rule:evenodd;clip-rule:evenodd;fill:url(#SVGID_00000019663612414878648960000003347885697141446590_);}
	.st24{fill:url(#SVGID_00000003799417794592049200000002662216097025633982_);}
	.st25{fill:url(#SVGID_00000052810683590299575990000016601810797871018902_);}
	.st26{fill:url(#SVGID_00000137843979119884689750000008456274577277081998_);}
	
		.st27{fill-rule:evenodd;clip-rule:evenodd;fill:#4AA089;stroke:url(#SVGID_00000139274275086936408830000013313370173779564930_);stroke-linecap:round;stroke-linejoin:round;stroke-miterlimit:10;}
	
		.st28{fill-rule:evenodd;clip-rule:evenodd;fill:#4AA089;stroke:url(#SVGID_00000077310340699498390380000006970802671681945481_);stroke-linecap:round;stroke-linejoin:round;stroke-miterlimit:10;}
	
		.st29{fill:none;stroke:url(#SVGID_00000103235210123435701780000006232480146247254677_);stroke-width:5;stroke-linecap:round;stroke-linejoin:round;stroke-miterlimit:10;}
	.st30{fill:url(#SVGID_00000003790957769028299450000005214621195354560401_);}
	
		.st31{fill:none;stroke:url(#SVGID_00000055692512401106169210000001714462933942656138_);stroke-width:5;stroke-linecap:round;stroke-linejoin:round;stroke-miterlimit:10;}
	.st32{fill:url(#SVGID_00000081611869095544386770000002505192424946504103_);}
	
		.st33{fill:none;stroke:url(#SVGID_00000157996744563503889310000008967887377551771570_);stroke-width:5;stroke-linecap:round;stroke-linejoin:round;stroke-miterlimit:10;}
	.st34{fill:url(#SVGID_00000153672175708183513260000017335963244838094777_);}
	.st35{fill:#4A5479;}
	
		.st36{fill-rule:evenodd;clip-rule:evenodd;fill:#1AD4B3;stroke:#111422;stroke-linecap:round;stroke-linejoin:round;stroke-miterlimit:10;}
	
		.st37{fill-rule:evenodd;clip-rule:evenodd;fill:#4AA089;stroke:url(#SVGID_00000136389096792769382190000006286738055187626642_);stroke-linecap:round;stroke-linejoin:round;stroke-miterlimit:10;}
	.st38{fill:#FFFFFF;}
	
		.st39{fill-rule:evenodd;clip-rule:evenodd;fill:#FC4F83;stroke:#111422;stroke-linecap:round;stroke-linejoin:round;stroke-miterlimit:10;}
	
		.st40{fill-rule:evenodd;clip-rule:evenodd;fill:#CB3D61;stroke:#000000;stroke-linecap:round;stroke-linejoin:round;stroke-miterlimit:10;}
	.st41{fill:url(#SVGID_00000075125182587348514040000007053606233772242089_);}
	.st42{fill:url(#SVGID_00000007430658401896962300000007864201993697150122_);}
	.st43{fill:url(#SVGID_00000142143517167761339540000018116370856820807322_);}
	
		.st44{fill:none;stroke:url(#SVGID_00000026136649798949297310000011584721569516502180_);stroke-width:5;stroke-linecap:round;stroke-linejoin:round;stroke-miterlimit:10;}
	.st45{fill:url(#SVGID_00000134943120831504866560000014761863577547322270_);}
	
		.st46{fill:none;stroke:url(#SVGID_00000123431462336700571200000009008562406936138686_);stroke-width:5;stroke-linecap:round;stroke-linejoin:round;stroke-miterlimit:10;}
	.st47{fill:url(#SVGID_00000170240480217458702400000011048374711463121033_);}
	.st48{fill:url(#SVGID_00000138575647143060833150000003880180470666671265_);}
	.st49{fill:#222846;}
	.st50{fill:url(#SVGID_00000093148922181531737250000003879041117111349657_);}
	.st51{fill:url(#SVGID_00000092423373770050586810000009925953246158045320_);}
	.st52{fill:url(#SVGID_00000044867886843408474480000013460580197418743947_);}
	.st53{fill:url(#SVGID_00000102538384051795988180000003953084389213795002_);}
	.st54{fill:url(#SVGID_00000032643110864804385820000012776719074885802153_);}
	.st55{fill:url(#SVGID_00000154419490844951607510000011772667667308022956_);}
	.st56{fill-rule:evenodd;clip-rule:evenodd;fill:#6D75A2;}
	.st57{fill-rule:evenodd;clip-rule:evenodd;fill:#4A5479;}
	.st58{opacity:0.29;fill:url(#SVGID_00000064320648075375645820000014600046371445941406_);enable-background:new    ;}
	.st59{fill:url(#SVGID_00000083090559225487871910000005639198767855408785_);}
	.st60{fill:url(#SVGID_00000074402567059020302870000003774975782003251119_);}
	.st61{fill:url(#SVGID_00000048474394661622361930000013277334745264568224_);}
	.st62{fill-rule:evenodd;clip-rule:evenodd;fill:url(#SVGID_00000101102945667284793400000007224001983476109956_);}
	.st63{fill:url(#SVGID_00000106127700001976038910000007525943874775267487_);}
	.st64{fill:url(#SVGID_00000088846145039333746490000002613849512204065443_);}
	.st65{fill:url(#SVGID_00000003803464944557833050000013012032649346020275_);}
	.st66{fill:url(#SVGID_00000175321473222610598040000015252574381649746098_);}
	.st67{opacity:0.29;fill:url(#SVGID_00000140728987358370850890000014282449191947865504_);enable-background:new    ;}
	.st68{fill-rule:evenodd;clip-rule:evenodd;fill:#222846;}
	
		.st69{fill:none;stroke:url(#SVGID_00000047025077067943834150000000048825025452354475_);stroke-width:5;stroke-linecap:round;stroke-linejoin:round;stroke-miterlimit:10;}
	.st70{fill:url(#SVGID_00000124858470046647557820000000556506653947813042_);}
	
		.st71{fill:none;stroke:url(#SVGID_00000027584666249684105530000008296876351104636327_);stroke-width:5;stroke-linecap:round;stroke-linejoin:round;stroke-miterlimit:10;}
	.st72{fill:url(#SVGID_00000037691333948257307400000000060986346087125381_);}
	
		.st73{fill:none;stroke:url(#SVGID_00000080185855587224672440000007980359394253858236_);stroke-width:5;stroke-linecap:round;stroke-linejoin:round;stroke-miterlimit:10;}
	.st74{fill:url(#SVGID_00000036239126600722038480000004922714944027096468_);}
	
		.st75{fill-rule:evenodd;clip-rule:evenodd;fill:#4AA089;stroke:url(#SVGID_00000093149095682214770530000004493420806620922540_);stroke-linecap:round;stroke-linejoin:round;stroke-miterlimit:10;}
	.st76{fill-rule:evenodd;clip-rule:evenodd;fill:url(#SVGID_00000004523064703892020890000004672743739818804398_);}
	.st77{fill:url(#SVGID_00000142871869333911966930000008825960694382542982_);}
	.st78{fill:url(#SVGID_00000042735286601617212710000001383511181762357125_);}
	.st79{fill:url(#SVGID_00000022544425433077292800000001012650716532280454_);}
	.st80{opacity:0.29;fill:url(#SVGID_00000183945097644347409520000017152309439349986699_);}
	.st81{opacity:0.29;fill:url(#SVGID_00000122679570677247472850000008740953880886653337_);}
	.st82{opacity:0.2563;fill-rule:evenodd;clip-rule:evenodd;fill:#FFFFFF;enable-background:new    ;}
	.st83{opacity:0.67;fill:url(#SVGID_00000098924340691245139190000006138088448620855739_);}
	.st84{fill:#3FA9BD;}
	.st85{fill:url(#SVGID_00000062170699231228762640000016658031047544536729_);}
	.st86{fill-rule:evenodd;clip-rule:evenodd;fill:#555069;}
	.st87{fill-rule:evenodd;clip-rule:evenodd;fill:#FFFFFF;}
	.st88{fill-rule:evenodd;clip-rule:evenodd;fill:#AFAFB1;}
	.st89{fill-rule:evenodd;clip-rule:evenodd;fill:#D3D3D3;}
	.st90{opacity:0.67;fill:url(#SVGID_00000065758469012316014630000007887733900824145039_);}
	.st91{fill:url(#SVGID_00000047765139376076238390000014649027557082975110_);}
	.st92{opacity:0.67;fill:url(#SVGID_00000088090863939911304760000011212801299766851480_);}
	.st93{fill:url(#SVGID_00000135690232006363877590000017298963998898904751_);}
	.st94{opacity:0.67;fill:url(#SVGID_00000035512532102855244920000009368795559744638081_);}
	.st95{fill:url(#SVGID_00000067942769485509006010000001867094986436014239_);}
	.st96{opacity:0.67;fill:url(#SVGID_00000007416604569293122160000005543398785474836918_);}
	.st97{fill:url(#SVGID_00000182523295568457020790000014675442442294549396_);}
	.st98{opacity:0.67;fill:url(#SVGID_00000114790483295204845790000008560332740812770432_);}
	.st99{fill:url(#SVGID_00000005241717325060886060000009680644717206829732_);}
	.st100{fill:#1AD4B3;}
	.st101{opacity:0.67;fill:url(#SVGID_00000165940285982017386880000010292937687385069759_);}
	.st102{fill:url(#SVGID_00000079445442369097187310000008862344610837434497_);}
	.st103{opacity:0.67;fill:url(#SVGID_00000057111878452731705910000016974568855901897370_);}
	.st104{fill:url(#SVGID_00000031929357114199986000000001813031566401402557_);}
	.st105{opacity:0.67;fill:url(#SVGID_00000094592351658199018280000003422276909471273910_);}
	.st106{fill:url(#SVGID_00000173147870517467098980000009597898299254801849_);}
	.st107{opacity:0.67;fill:url(#SVGID_00000143600462644752798420000001796493401908049284_);}
	.st108{fill:url(#SVGID_00000089554857369775985570000015833248542626926779_);}
	.st109{opacity:0.67;fill:url(#SVGID_00000145023396002741937510000005380212358885818805_);}
	.st110{fill:url(#SVGID_00000174568824583677035320000014123204076033579178_);}
	.st111{opacity:0.67;fill:url(#SVGID_00000046305063098748328550000015550919466685475973_);}
	.st112{fill:url(#SVGID_00000160178713464034821010000006305661841028980901_);}
	
		.st113{fill-rule:evenodd;clip-rule:evenodd;fill:none;stroke:#FFFFFF;stroke-width:0.7384;stroke-linecap:round;stroke-linejoin:round;stroke-miterlimit:10;}
	.st114{opacity:0.67;fill:url(#SVGID_00000166676602024209613350000006748902829954046889_);}
	.st115{fill:url(#SVGID_00000052082168796718021550000012869259885780063904_);}
	.st116{opacity:0.67;fill:url(#SVGID_00000170994347248132587410000008018533220801823155_);}
	.st117{fill:url(#SVGID_00000063618730951822571200000002295909358964294305_);}
	.st118{opacity:0.67;fill:url(#SVGID_00000119095309592647578770000005741203118296313534_);}
	.st119{fill:url(#SVGID_00000166672904074235636690000007817615978037493132_);}
	.st120{opacity:0.67;fill:url(#SVGID_00000103247561056181122490000010184299741160356779_);}
	.st121{fill:url(#SVGID_00000043449081553117978470000010265757471631707014_);}
	.st122{opacity:0.67;fill:url(#SVGID_00000047756766664795437810000016810606700978292150_);}
	.st123{fill:url(#SVGID_00000153685162306141717620000015164877953683131542_);}
	.st124{opacity:0.67;fill:url(#SVGID_00000061439183954671655080000008102652507011621270_);}
	.st125{fill:url(#SVGID_00000152229015016977829600000001808883599021898128_);}
	.st126{opacity:0.67;fill:url(#SVGID_00000018938193902398552050000008670436059898479283_);}
	.st127{fill:url(#SVGID_00000057855389882882243040000013680589151346678935_);}
	.st128{opacity:0.67;fill:url(#SVGID_00000064339170568559912150000008914105285078115994_);}
	.st129{fill:url(#SVGID_00000012453823525545208030000007219218010679623837_);}
	.st130{opacity:0.67;fill:url(#SVGID_00000176743972437074706700000016098986451867011229_);enable-background:new    ;}
	.st131{fill:#5EA6B9;}
	.st132{fill:url(#SVGID_00000150079705679882019920000009217105254345557399_);}
	.st133{fill-rule:evenodd;clip-rule:evenodd;fill:#545067;}
	.st134{fill-rule:evenodd;clip-rule:evenodd;fill:#AEAEB0;}
	.st135{fill-rule:evenodd;clip-rule:evenodd;fill:#D2D2D2;}
	.st136{opacity:0.67;fill:url(#SVGID_00000171696802420401311410000009195126853493818002_);enable-background:new    ;}
	.st137{fill:url(#SVGID_00000023971048989845681200000008833945142170371480_);}
	.st138{fill-rule:evenodd;clip-rule:evenodd;fill:#63D0B3;}
	
		.st139{fill-rule:evenodd;clip-rule:evenodd;fill:none;stroke:#000000;stroke-linecap:round;stroke-linejoin:round;stroke-miterlimit:10;}
	.st140{fill-rule:evenodd;clip-rule:evenodd;fill:#E85C83;}
	
		.st141{fill-rule:evenodd;clip-rule:evenodd;fill:#4AA089;stroke:url(#SVGID_00000163790107676309107830000001329267635517787796_);stroke-linecap:round;stroke-linejoin:round;stroke-miterlimit:10;}
	.st142{fill:#5DC29D;}
	.st143{fill:url(#SVGID_00000118370827873606467780000003245868792417808036_);}
	.st144{fill:url(#SVGID_00000096046425758280369710000014591376999164576896_);}
	.st145{fill:#E85C83;}
	.st146{opacity:0.67;fill:url(#SVGID_00000086689618692703545440000005101019658020719273_);enable-background:new    ;}
	.st147{fill:url(#SVGID_00000142135153904377335160000014894094659959660692_);}
	
		.st148{fill:none;stroke:url(#SVGID_00000014624857953034647660000004399166737650067635_);stroke-width:5;stroke-linecap:round;stroke-linejoin:round;stroke-miterlimit:10;}
	.st149{fill:url(#SVGID_00000126320680538422809080000014374126241350765966_);}
	.st150{opacity:0.67;fill:url(#SVGID_00000012471340419577274900000003501214026987747215_);enable-background:new    ;}
	.st151{fill:url(#SVGID_00000075131547019793053370000011106321479582029493_);}
	.st152{opacity:0.67;fill:url(#SVGID_00000026133012959572538860000000128966960318752938_);}
	.st153{fill:url(#SVGID_00000120528164812163672040000012470517183550080928_);}
	.st154{opacity:0.67;fill:url(#SVGID_00000006677823566041378580000018195863915095659910_);}
	.st155{fill:url(#SVGID_00000078019784667580313140000005811028155680544409_);}
	.st156{opacity:0.67;fill:url(#SVGID_00000093870473700857594550000007567940320252027285_);}
	.st157{fill:url(#SVGID_00000176017291065237636920000010201476376781282189_);}
	.st158{opacity:0.67;fill:url(#SVGID_00000120532363055608254230000017275811089672212650_);}
	.st159{fill:url(#SVGID_00000085937604469226805940000007733080744399443853_);}
	.st160{opacity:0.67;fill:url(#SVGID_00000154383880188014192480000008121887172241544358_);}
	.st161{fill:url(#SVGID_00000096777462855180756220000014128169940619985557_);}
	.st162{fill:none;stroke:#000000;stroke-width:22;stroke-linecap:round;stroke-linejoin:round;stroke-miterlimit:10;}
	.st163{fill:url(#SVGID_00000021817434096641916590000005195120674835597247_);}
	.st164{fill:url(#SVGID_00000152946016202585560680000004844352772282614688_);}
	.st165{fill:none;stroke:url(#SVGID_00000111159161931518885370000004141792413476426122_);stroke-width:5;stroke-miterlimit:10;}
	.st166{fill:url(#SVGID_00000171714949169216348330000008831067554827576756_);}
	.st167{fill:none;}
	.st168{opacity:0.67;fill:url(#SVGID_00000174564005183789370090000018366182002953042366_);}
	.st169{fill:url(#SVGID_00000072273043647294141700000003973569418328779924_);}
	.st170{fill:none;stroke:url(#SVGID_00000054251306798393899530000012002160108676142741_);stroke-width:5;stroke-miterlimit:10;}
	.st171{fill:url(#SVGID_00000105425358140603839010000003152628464780372375_);}
	.st172{opacity:0.67;fill:url(#SVGID_00000139254123652457909230000011080876992049018295_);}
	.st173{fill:url(#SVGID_00000061448193688799152260000006858399970115114165_);}
	.st174{opacity:0.67;fill:url(#SVGID_00000151534114616645559070000016824936630218878125_);}
	.st175{fill:url(#SVGID_00000091702894770374296240000015662540050865038476_);}
	.st176{opacity:0.67;fill:url(#SVGID_00000036963107010102171310000001698880452367162558_);}
	.st177{fill:url(#SVGID_00000179614995355015973530000013793691919711203999_);}
</style>
<g>
	<g>
		<polygon class="st0" points="34.29,137.98 15.04,127.5 15.04,98.4 123.93,40.48 143.03,48.35 140.32,67.1 146.29,74.4 
			139.85,78.06 133.5,74.13 128.04,84.76 123.83,82.24 109.36,95.37 101.8,90.69 95.32,103.33 87.59,98.79 82.06,110.86 
			73.45,104.05 68.28,114.6 56.81,121.33 49.08,116.06 38.33,124.04 40.22,134.62 		"/>
		<path class="st1" d="M75.15,99.57c0,3.39-0.47,6.51-1.42,9.37c-0.95,2.86-2.22,5.34-3.83,7.45c-1.61,2.11-3.4,3.72-5.38,4.84
			c-1.99,1.13-3.79,1.55-5.39,1.25c-1.6-0.29-2.87-1.33-3.82-3.12c-0.94-1.79-1.41-4.37-1.41-7.74c0-3.39,0.47-6.51,1.41-9.37
			c0.94-2.86,2.21-5.34,3.82-7.44c1.6-2.1,3.4-3.72,5.39-4.85c1.98-1.12,3.77-1.54,5.38-1.26c1.61,0.28,2.88,1.32,3.83,3.1
			C74.68,93.59,75.15,96.18,75.15,99.57z M69.05,103.03c0-1.82-0.17-3.26-0.52-4.32c-0.35-1.06-0.85-1.72-1.52-1.99
			c-0.67-0.27-1.5-0.12-2.48,0.44c-0.98,0.56-1.81,1.35-2.48,2.38c-0.67,1.03-1.18,2.27-1.52,3.72c-0.34,1.45-0.52,3.09-0.52,4.91
			c0,1.82,0.17,3.26,0.52,4.32c0.35,1.06,0.85,1.72,1.52,1.99c0.67,0.27,1.5,0.12,2.48-0.44c0.98-0.56,1.81-1.35,2.48-2.38
			c0.67-1.03,1.18-2.27,1.52-3.72C68.88,106.49,69.05,104.85,69.05,103.03z"/>
		<path class="st1" d="M82.06,110.86l-6.44-26.78l6.61-3.75l2.99,17.03l0.17-0.1l3.54-20.74l5.2-2.95l3.54,16.77l0.17-0.1
			l2.99-20.48l6.61-3.75L101,100.11l-5.67,3.22l-3.71-14.9l-0.17,0.1l-3.71,19.11L82.06,110.86z"/>
		<path class="st1" d="M109.36,95.37V64.93L125.09,56v6.66l-9.81,5.57v5.23l9-5.11V75l-9,5.11v5.23l9.77-5.54v6.66L109.36,95.37z"/>
		<path class="st1" d="M47.97,101.12c-1.22-0.2-2.63,0.16-4.25,1.08l-9.43,5.35v30.44l5.93-3.37v-9.04l3.28-1.86
			c1.66-0.95,3.12-2.2,4.37-3.77c1.25-1.57,2.22-3.35,2.91-5.34c0.69-1.99,1.04-4.07,1.04-6.25c0-2.16-0.34-3.85-1.01-5.09
			C50.13,102.04,49.19,101.32,47.97,101.12z M45.24,114.33c-0.27,0.78-0.65,1.49-1.14,2.11c-0.49,0.62-1.09,1.13-1.79,1.53
			l-2.09,1.19v-8.38l2.09-1.19c0.7-0.4,1.29-0.57,1.79-0.51c0.49,0.05,0.87,0.31,1.14,0.78c0.27,0.47,0.4,1.14,0.4,2.01
			C45.63,112.72,45.5,113.55,45.24,114.33z"/>
		<path class="st1" d="M139.85,78.06l6.44-3.66l-4.44-8.84c1.13-1.4,2.03-2.97,2.68-4.73c0.69-1.89,1.04-3.93,1.04-6.1
			c0-2.16-0.34-3.82-1.01-4.98c-0.68-1.16-1.62-1.81-2.84-1.94c-1.22-0.13-2.63,0.26-4.25,1.18l-9.43,5.35v30.44l5.93-3.37V71.35
			l2.05-1.17L139.85,78.06z M133.96,57.56l2.09-1.19c0.7-0.4,1.29-0.6,1.79-0.62c0.49-0.02,0.87,0.17,1.14,0.57
			c0.27,0.4,0.4,1.03,0.4,1.91c0,0.86-0.13,1.64-0.4,2.32c-0.27,0.69-0.65,1.29-1.14,1.81c-0.49,0.52-1.09,0.99-1.79,1.38
			l-2.09,1.19V57.56z"/>
	</g>
	<polygon class="st16" points="15.04,98.4 34.29,107.54 139.38,48.1 141.72,47.79 123.93,40.48 	"/>
</g>
<g>
	<g>
		<polygon class="st2" points="196.86,185.72 162.47,165.86 162.47,131.47 196.86,151.33 		"/>
		<polygon class="st3" points="196.86,185.72 231.26,165.86 231.26,131.47 196.86,151.33 		"/>
		<polygon class="st4" points="196.99,151.43 162.47,131.5 196.74,111.54 231.26,131.47 		"/>
		<path id="矩形_00000137117200955426548680000013108629234316996238_" class="st3" d="M185.46,123.5L185.46,123.5
			c0.68,0.38,0.56,1.12-0.24,1.6l-7.14,4.22c-0.81,0.48-2.08,0.56-2.75,0.17l0,0c-0.68-0.38-0.56-1.12,0.24-1.6l7.14-4.22
			C183.52,123.19,184.79,123.11,185.46,123.5z"/>
		<path id="矩形_00000169553069112555143310000006278186160044640942_" class="st3" d="M173.58,130.4L173.58,130.4
			c0.68,0.38,0.56,1.12-0.24,1.6l-1.38,0.82c-0.81,0.48-2.08,0.56-2.75,0.17l0,0c-0.68-0.38-0.56-1.12,0.24-1.6l1.38-0.82
			C171.69,130.06,172.9,130.01,173.58,130.4z"/>
	</g>
</g>
<g>
	<g>
		<polygon class="st2" points="192.82,138.71 168.19,124.49 168.19,99.86 192.82,114.08 		"/>
		<polygon class="st3" points="192.82,138.71 217.45,124.49 217.45,99.86 192.82,114.08 		"/>
		<polygon class="st4" points="192.91,114.16 168.19,99.89 192.73,85.59 217.45,99.86 		"/>
		<path id="矩形_00000098189406808173739120000011512460220465586313_" class="st5" d="M184.97,93.75L184.97,93.75
			c0.48,0.28,0.4,0.8-0.17,1.15l-5.11,3.03c-0.58,0.34-1.49,0.4-1.97,0.12l0,0c-0.48-0.28-0.4-0.8,0.17-1.15l5.11-3.03
			C183.58,93.53,184.49,93.47,184.97,93.75z"/>
		<path id="矩形_00000157275151695673733980000001888444963621641387_" class="st5" d="M176.46,98.69L176.46,98.69
			c0.48,0.28,0.4,0.8-0.17,1.15l-0.99,0.59c-0.58,0.34-1.49,0.4-1.97,0.12l0,0c-0.48-0.28-0.4-0.8,0.17-1.15l0.99-0.59
			C175.11,98.44,175.98,98.41,176.46,98.69z"/>
	</g>
</g>
<g>
	<g>
		<polygon class="st2" points="82.59,80.06 68.83,72.11 68.83,19.49 82.59,27.44 		"/>
		<polygon class="st3" points="82.59,80.06 96.35,72.11 96.35,19.49 82.59,27.44 		"/>
		<polygon class="st4" points="82.64,27.48 68.83,19.51 82.54,11.52 96.35,19.49 		"/>
		<path id="矩形_00000122694011154732022000000005445591957078414223_" class="st5" d="M78.34,15.9L78.34,15.9
			c0.27,0.15,0.23,0.45-0.1,0.64l-2.86,1.69c-0.32,0.19-0.83,0.22-1.1,0.07l0,0c-0.27-0.15-0.23-0.45,0.1-0.64l2.86-1.69
			C77.56,15.78,78.07,15.74,78.34,15.9z"/>
		<path id="矩形_00000168813939253894730090000003749328577403602106_" class="st5" d="M73.59,18.66L73.59,18.66
			c0.27,0.15,0.23,0.45-0.1,0.64l-0.55,0.33c-0.32,0.19-0.83,0.22-1.1,0.07l0,0c-0.27-0.15-0.23-0.45,0.1-0.64l0.55-0.33
			C72.83,18.52,73.32,18.5,73.59,18.66z"/>
	</g>
</g>
<g>
	<g>
		<polygon class="st2" points="68.9,88.04 55.14,80.09 55.14,38.83 68.9,46.77 		"/>
		<polygon class="st3" points="68.9,88.04 82.66,80.09 82.66,38.83 68.9,46.77 		"/>
		<polygon class="st4" points="68.95,46.82 55.14,38.84 68.85,30.85 82.66,38.83 		"/>
		<path id="矩形_00000060712384329144759220000010597096200675168910_" class="st5" d="M64.65,35.23L64.65,35.23
			c0.27,0.15,0.23,0.45-0.1,0.64l-2.86,1.69c-0.32,0.19-0.83,0.22-1.1,0.07l0,0c-0.27-0.15-0.23-0.45,0.1-0.64l2.86-1.69
			C63.87,35.11,64.38,35.08,64.65,35.23z"/>
		<path id="矩形_00000103979601520637086100000015979036520014002874_" class="st5" d="M59.9,37.99L59.9,37.99
			c0.27,0.15,0.23,0.45-0.1,0.64l-0.55,0.33c-0.32,0.19-0.83,0.22-1.1,0.07l0,0c-0.27-0.15-0.23-0.45,0.1-0.64l0.55-0.33
			C59.14,37.86,59.63,37.84,59.9,37.99z"/>
	</g>
</g>
<g>
	<g>
		<polygon class="st2" points="55.14,96.02 41.38,88.08 41.38,59.37 55.14,67.31 		"/>
		<polygon class="st3" points="55.14,96.02 68.9,88.08 68.9,59.37 55.14,67.31 		"/>
		<polygon class="st4" points="55.19,67.36 41.38,59.38 55.09,51.39 68.9,59.37 		"/>
		<path id="矩形_00000074438447225999477790000017572539516493140364_" class="st5" d="M50.89,55.77L50.89,55.77
			c0.27,0.15,0.23,0.45-0.1,0.64l-2.86,1.69c-0.32,0.19-0.83,0.22-1.1,0.07l0,0c-0.27-0.15-0.23-0.45,0.1-0.64l2.86-1.69
			C50.11,55.65,50.62,55.62,50.89,55.77z"/>
		<path id="矩形_00000022538750193101211660000001025185107531595401_" class="st5" d="M46.14,58.53L46.14,58.53
			c0.27,0.15,0.23,0.45-0.1,0.64l-0.55,0.33c-0.32,0.19-0.83,0.22-1.1,0.07l0,0c-0.27-0.15-0.23-0.45,0.1-0.64l0.55-0.33
			C45.38,58.4,45.87,58.38,46.14,58.53z"/>
	</g>
</g>
<g>
	<g>
		<g>
			<g>
				<polygon class="st3" points="266.04,127.31 171.81,72.99 171.81,38.6 266.04,92.92 				"/>
				<polygon class="st2" points="266.04,127.31 283.3,118.27 283.3,83.88 266.04,92.92 				"/>
				<polygon class="st4" points="266.17,93.02 171.81,38.63 188.95,29.48 283.3,83.87 				"/>
			</g>
		</g>
	</g>
	<g>
		<g>
			<path class="st6" d="M178.34,67.06V49.75l5.4,3.05c1.04,0.59,1.92,1.34,2.65,2.25c0.73,0.91,1.29,1.92,1.68,3.02
				c0.39,1.1,0.58,2.22,0.58,3.37c0,1.15-0.2,2.05-0.59,2.71c-0.39,0.66-0.96,1.02-1.7,1.09c-0.74,0.07-1.64-0.19-2.69-0.78
				l-3.44-1.95v-2.93l2.98,1.68c0.56,0.31,1.02,0.45,1.38,0.41c0.36-0.04,0.64-0.23,0.82-0.56c0.18-0.34,0.27-0.79,0.27-1.35
				c0-0.58-0.09-1.13-0.27-1.66c-0.18-0.53-0.45-1.02-0.82-1.47c-0.37-0.45-0.83-0.83-1.39-1.15l-1.95-1.1V68.7L178.34,67.06z"/>
			<path class="st6" d="M190.49,73.92V60.94l2.76,1.56v2.26l0.11,0.06c0.19-0.7,0.5-1.13,0.94-1.3c0.44-0.16,0.95-0.09,1.52,0.24
				c0.14,0.08,0.3,0.18,0.46,0.29c0.17,0.12,0.31,0.23,0.44,0.34v3.19c-0.13-0.13-0.32-0.28-0.56-0.45
				c-0.24-0.17-0.45-0.32-0.65-0.43c-0.42-0.24-0.79-0.33-1.12-0.29c-0.33,0.04-0.59,0.21-0.78,0.51s-0.28,0.71-0.28,1.24v7.34
				L190.49,73.92z"/>
			<path class="st6" d="M202.34,80.87c-1.04-0.59-1.94-1.37-2.69-2.36c-0.76-0.99-1.34-2.1-1.75-3.34
				c-0.41-1.24-0.61-2.52-0.61-3.85c0-1.34,0.2-2.4,0.61-3.17c0.41-0.77,0.99-1.23,1.75-1.36c0.76-0.13,1.65,0.09,2.69,0.68
				c1.04,0.59,1.94,1.38,2.69,2.36c0.76,0.99,1.34,2.1,1.75,3.34c0.41,1.24,0.62,2.53,0.62,3.87c0,1.33-0.2,2.38-0.62,3.15
				c-0.41,0.77-0.99,1.23-1.75,1.36C204.28,81.69,203.38,81.46,202.34,80.87z M202.36,78.09c0.47,0.27,0.87,0.32,1.18,0.16
				c0.32-0.16,0.56-0.49,0.72-0.99c0.16-0.5,0.24-1.13,0.24-1.88s-0.08-1.47-0.24-2.16s-0.4-1.29-0.72-1.81
				c-0.32-0.52-0.71-0.92-1.18-1.18c-0.48-0.27-0.88-0.32-1.2-0.16c-0.32,0.16-0.57,0.49-0.73,0.99s-0.24,1.13-0.24,1.88
				s0.08,1.47,0.24,2.16c0.16,0.68,0.41,1.29,0.73,1.81C201.48,77.43,201.88,77.82,202.36,78.09z"/>
			<path class="st6" d="M209.26,89.39V71.55l2.81,1.59v2.18l0.13,0.07c0.12-0.28,0.31-0.53,0.54-0.76c0.24-0.23,0.55-0.36,0.94-0.38
				c0.39-0.03,0.87,0.12,1.44,0.45c0.75,0.42,1.44,1.06,2.07,1.91c0.63,0.85,1.14,1.88,1.52,3.08c0.38,1.2,0.57,2.55,0.57,4.04
				c0,1.45-0.18,2.56-0.55,3.35c-0.37,0.79-0.87,1.26-1.5,1.41c-0.63,0.15-1.34,0.01-2.12-0.43c-0.55-0.31-1.02-0.69-1.41-1.14
				c-0.39-0.45-0.7-0.92-0.95-1.41c-0.24-0.49-0.43-0.95-0.56-1.39l-0.09-0.05V91L209.26,89.39z M212.05,79.61
				c0,0.77,0.08,1.49,0.25,2.16c0.17,0.67,0.41,1.26,0.74,1.75c0.32,0.5,0.71,0.88,1.17,1.14c0.46,0.26,0.86,0.32,1.18,0.18
				c0.32-0.14,0.56-0.46,0.73-0.94c0.17-0.48,0.25-1.1,0.25-1.86c0-0.75-0.08-1.45-0.25-2.12c-0.17-0.66-0.41-1.25-0.73-1.75
				c-0.32-0.5-0.72-0.89-1.18-1.15c-0.46-0.26-0.86-0.33-1.17-0.2c-0.32,0.13-0.56,0.43-0.73,0.9
				C212.13,78.22,212.05,78.84,212.05,79.61z"/>
			<path class="st6" d="M225.81,94.13c-1.04-0.59-1.94-1.37-2.69-2.36c-0.76-0.99-1.34-2.1-1.75-3.34
				c-0.41-1.24-0.61-2.52-0.61-3.85c0-1.34,0.2-2.4,0.61-3.17c0.41-0.77,0.99-1.23,1.75-1.36c0.76-0.13,1.65,0.09,2.69,0.68
				c1.04,0.59,1.94,1.38,2.69,2.36s1.34,2.1,1.75,3.34c0.41,1.24,0.62,2.53,0.62,3.87c0,1.33-0.2,2.38-0.62,3.15
				c-0.41,0.77-0.99,1.23-1.75,1.36C227.75,94.95,226.85,94.72,225.81,94.13z M225.83,91.35c0.47,0.27,0.87,0.32,1.18,0.16
				c0.32-0.16,0.56-0.49,0.72-0.99s0.24-1.13,0.24-1.88c0-0.75-0.08-1.47-0.24-2.16c-0.16-0.68-0.4-1.29-0.72-1.81
				s-0.71-0.92-1.18-1.18c-0.48-0.27-0.88-0.32-1.2-0.16c-0.32,0.16-0.57,0.49-0.73,0.99c-0.16,0.5-0.24,1.13-0.24,1.88
				c0,0.76,0.08,1.47,0.24,2.16c0.16,0.68,0.41,1.29,0.73,1.81C224.95,90.69,225.35,91.08,225.83,91.35z"/>
			<path class="st6" d="M241.28,93.34l-2.61-1.27c-0.04-0.31-0.14-0.62-0.29-0.93c-0.15-0.31-0.34-0.6-0.58-0.88
				c-0.24-0.27-0.52-0.5-0.85-0.69c-0.44-0.25-0.81-0.34-1.12-0.28c-0.3,0.06-0.45,0.29-0.45,0.68c0,0.31,0.1,0.63,0.29,0.95
				c0.2,0.33,0.53,0.69,1.01,1.08l1.86,1.52c1,0.82,1.74,1.66,2.23,2.51c0.49,0.85,0.74,1.75,0.74,2.68c0,0.85-0.2,1.48-0.59,1.9
				c-0.39,0.42-0.93,0.61-1.62,0.59c-0.68-0.03-1.47-0.3-2.36-0.8c-1.36-0.77-2.44-1.74-3.25-2.91c-0.8-1.17-1.28-2.42-1.41-3.74
				l2.8,1.4c0.08,0.57,0.29,1.09,0.61,1.54c0.33,0.46,0.74,0.83,1.25,1.12c0.5,0.28,0.9,0.39,1.21,0.31c0.3-0.07,0.46-0.3,0.46-0.69
				c0-0.33-0.11-0.66-0.33-0.99c-0.21-0.33-0.54-0.68-0.99-1.04l-1.78-1.45c-1-0.82-1.75-1.68-2.24-2.58
				c-0.49-0.9-0.73-1.84-0.73-2.8c0-0.83,0.18-1.45,0.54-1.85c0.36-0.4,0.86-0.58,1.52-0.54c0.65,0.04,1.42,0.31,2.3,0.81
				c1.3,0.73,2.32,1.66,3.07,2.77C240.72,90.88,241.15,92.07,241.28,93.34z"/>
			<path class="st6" d="M246.24,105.66c-0.66-0.37-1.24-0.85-1.75-1.43c-0.51-0.58-0.92-1.24-1.21-1.98
				c-0.3-0.74-0.44-1.54-0.44-2.39c0-0.72,0.1-1.27,0.31-1.64c0.21-0.37,0.49-0.6,0.86-0.7c0.36-0.09,0.77-0.09,1.24,0.02
				c0.46,0.11,0.95,0.28,1.45,0.5c0.6,0.26,1.08,0.46,1.44,0.59c0.36,0.14,0.63,0.18,0.8,0.13c0.17-0.05,0.25-0.21,0.25-0.49v-0.05
				c0-0.53-0.13-1.02-0.4-1.47c-0.27-0.44-0.64-0.8-1.13-1.08c-0.51-0.29-0.92-0.38-1.22-0.26c-0.3,0.11-0.5,0.36-0.6,0.73
				l-2.64-1.76c0.13-0.71,0.4-1.25,0.79-1.6c0.39-0.36,0.9-0.51,1.52-0.48c0.62,0.04,1.34,0.29,2.16,0.75
				c0.57,0.32,1.12,0.72,1.64,1.18c0.52,0.46,0.99,0.99,1.4,1.57c0.41,0.59,0.73,1.22,0.97,1.91c0.24,0.69,0.35,1.42,0.35,2.19v8.75
				l-2.7-1.53v-1.8l-0.08-0.05c-0.17,0.31-0.39,0.54-0.66,0.69c-0.28,0.15-0.61,0.2-1,0.16
				C247.2,106.12,246.75,105.95,246.24,105.66z M247.06,103.64c0.42,0.24,0.79,0.34,1.11,0.31c0.32-0.03,0.57-0.17,0.76-0.43
				c0.18-0.26,0.27-0.61,0.27-1.07v-1.38c-0.09,0.02-0.21,0.02-0.36-0.01c-0.15-0.03-0.33-0.07-0.52-0.13
				c-0.19-0.06-0.38-0.13-0.58-0.2c-0.19-0.07-0.37-0.14-0.52-0.2c-0.33-0.13-0.63-0.19-0.88-0.2c-0.25-0.01-0.44,0.07-0.58,0.22
				c-0.14,0.15-0.21,0.39-0.21,0.73c0,0.49,0.14,0.94,0.43,1.36C246.26,103.06,246.62,103.39,247.06,103.64z"/>
			<path class="st6" d="M257.09,94.24v17.31l-2.85-1.61V92.63L257.09,94.24z"/>
		</g>
	</g>
</g>
<g>
	<g>
		
			<linearGradient id="SVGID_1_" gradientUnits="userSpaceOnUse" x1="392.4355" y1="808.7689" x2="442.1728" y2="808.7689" gradientTransform="matrix(0.7491 -0.4602 0 1 -247.6384 -454.2186)">
			<stop  offset="0" style="stop-color:#B4509C"/>
			<stop  offset="1" style="stop-color:#54B8C5"/>
		</linearGradient>
		
			<polygon style="fill:none;stroke:url(#SVGID_1_);stroke-width:5;stroke-linecap:round;stroke-linejoin:round;stroke-miterlimit:10;" points="
			81.72,184.72 48.2,205.31 48.2,140.28 81.72,119.69 		"/>
	</g>
	<g>
		<polygon class="st1" points="81.72,184.35 48.2,204.94 48.2,139.91 81.72,119.32 		"/>
	</g>
	<g>
		<g>
			<path class="st6" d="M56.21,149.29l-1.6,0.98l-1.55-4.66l1.44-0.89l0.91,3.22l0.91-4.33l1.44-0.89L56.21,149.29z"/>
			<path class="st6" d="M61.7,145.21c-0.44,0.81-0.99,1.42-1.64,1.82s-1.2,0.47-1.64,0.2c-0.44-0.27-0.66-0.83-0.66-1.68
				c0-0.85,0.22-1.68,0.66-2.49c0.44-0.81,0.99-1.42,1.64-1.82s1.2-0.47,1.64-0.2c0.44,0.27,0.66,0.83,0.66,1.68
				C62.36,143.57,62.14,144.4,61.7,145.21z M59.33,145.57c0.19,0.15,0.43,0.14,0.73-0.04c0.3-0.18,0.54-0.47,0.73-0.85
				c0.19-0.38,0.28-0.77,0.28-1.17c0-0.4-0.09-0.67-0.28-0.83c-0.19-0.15-0.43-0.14-0.73,0.04c-0.3,0.18-0.54,0.47-0.73,0.85
				c-0.19,0.38-0.28,0.77-0.28,1.17C59.05,145.14,59.15,145.42,59.33,145.57z"/>
			<path class="st6" d="M64.99,143.9l-1.27,0.78v-4.13l-1.13,0.69v-1.48l3.52-2.16v1.48l-1.12,0.69V143.9z"/>
			<path class="st6" d="M67.83,142.15l-1.27,0.78v-5.61l1.27-0.78V142.15z"/>
			<path class="st6" d="M72.56,139.25L71.34,140l-1.55-1.89v2.84l-1.27,0.78v-5.61l1.31-0.8l1.46,1.76v-2.66l1.27-0.78V139.25z"/>
			<path class="st6" d="M75.32,137.65c-0.66,0.4-1.2,0.47-1.65,0.22c-0.44-0.26-0.66-0.82-0.66-1.7c0-0.87,0.22-1.71,0.66-2.51
				c0.44-0.8,0.99-1.4,1.65-1.81c0.46-0.28,0.85-0.38,1.16-0.29c0.31,0.09,0.54,0.3,0.69,0.62l-1.07,1.39
				c-0.07-0.15-0.17-0.25-0.31-0.3c-0.14-0.05-0.29-0.03-0.47,0.08c-0.3,0.19-0.55,0.47-0.74,0.86c-0.19,0.39-0.28,0.78-0.28,1.17
				c0,0.4,0.09,0.67,0.28,0.83c0.19,0.15,0.43,0.14,0.74-0.05c0.12-0.07,0.24-0.17,0.37-0.3c0.13-0.13,0.22-0.25,0.29-0.35v-0.2
				l-0.78,0.48v-1.48l2.05-1.26v2.3C76.73,136.41,76.09,137.18,75.32,137.65z"/>
			<path class="st6" d="M54.91,158.1l-1.34,0.82v-5.9l2.36-1.45c0.5-0.31,0.89-0.35,1.17-0.14c0.28,0.21,0.42,0.61,0.42,1.19
				c0,0.57-0.14,1.14-0.42,1.69c-0.28,0.56-0.67,0.99-1.17,1.3l-1.02,0.63V158.1z M55.76,154.17c0.12-0.07,0.22-0.17,0.29-0.3
				c0.08-0.13,0.11-0.26,0.11-0.41c0-0.15-0.04-0.25-0.11-0.28c-0.08-0.03-0.17-0.01-0.29,0.06l-0.85,0.52v0.93L55.76,154.17z"/>
			<path class="st6" d="M61.86,153.09c-0.46,0.85-1.04,1.49-1.72,1.91c-0.69,0.42-1.26,0.49-1.72,0.21
				c-0.46-0.29-0.69-0.88-0.69-1.77c0-0.9,0.23-1.77,0.69-2.62c0.46-0.85,1.04-1.49,1.72-1.91c0.69-0.42,1.26-0.49,1.72-0.21
				c0.46,0.29,0.69,0.88,0.69,1.77C62.55,151.36,62.32,152.24,61.86,153.09z M59.37,153.47c0.2,0.16,0.45,0.15,0.76-0.05
				c0.31-0.19,0.57-0.49,0.76-0.89c0.2-0.4,0.29-0.81,0.29-1.23c0-0.42-0.1-0.71-0.29-0.87c-0.2-0.16-0.45-0.15-0.76,0.05
				c-0.31,0.19-0.57,0.49-0.76,0.89c-0.2,0.4-0.29,0.81-0.29,1.23C59.08,153.02,59.17,153.31,59.37,153.47z"/>
			<path class="st6" d="M67.8,150.19l-1.4,0.86l-0.57-2.99l-0.57,3.69l-1.4,0.86l-1.26-5.12l1.5-0.92l0.57,3.26l0.67-4.02l1.01-0.62
				l0.67,3.2l0.56-3.95l1.5-0.92L67.8,150.19z"/>
			<path class="st6" d="M72.7,147.18l-3.35,2.06v-5.9l3.35-2.06v1.56l-2.01,1.24v0.58l1.97-1.21v1.56l-1.97,1.21v0.65l2.01-1.24
				V147.18z"/>
			<path class="st6" d="M77.24,144.38l-1.52,0.94l-0.61-1.48l-0.48,0.3v1.86l-1.34,0.82v-5.9l2.36-1.45
				c0.5-0.31,0.89-0.35,1.17-0.14c0.28,0.21,0.42,0.61,0.42,1.19c0,0.46-0.08,0.88-0.23,1.28c-0.16,0.39-0.34,0.72-0.56,1
				L77.24,144.38z M75.44,142.08c0.12-0.08,0.23-0.18,0.31-0.31c0.08-0.13,0.13-0.27,0.13-0.43c0-0.15-0.04-0.23-0.13-0.26
				c-0.08-0.03-0.19,0-0.31,0.07l-0.81,0.5v0.93L75.44,142.08z"/>
		</g>
	</g>
	
		<linearGradient id="SVGID_00000011743414858011871830000005072907824764756663_" gradientUnits="userSpaceOnUse" x1="427.425" y1="827.6522" x2="407.226" y2="810.6569" gradientTransform="matrix(0.7491 -0.4602 0 1 -247.6384 -454.2186)">
		<stop  offset="0" style="stop-color:#C1489F"/>
		<stop  offset="1" style="stop-color:#55BAC7"/>
	</linearGradient>
	<path style="fill:url(#SVGID_00000011743414858011871830000005072907824764756663_);" d="M64.96,159.29
		c-5.61,3.45-10.17,12.33-10.17,19.82s4.55,10.78,10.17,7.33c5.61-3.45,10.17-12.32,10.17-19.82
		C75.13,159.12,70.57,155.84,64.96,159.29z M69.28,176.55c-0.11,0.23-0.26,0.4-0.46,0.52c-0.13,0.08-0.25,0.1-0.36,0.06
		c-0.11-0.03-0.18-0.13-0.25-0.27l-3.27-8.85l-1.2,4.73l0.58-0.36c0.34-0.21,0.62-0.01,0.62,0.44v0.02c0,0.45-0.28,0.99-0.62,1.2
		l-1.09,0.67l-1.57,6.17c-0.06,0.21-0.14,0.4-0.25,0.57c-0.1,0.16-0.23,0.29-0.36,0.38c-0.19,0.12-0.35,0.14-0.46,0.05
		s-0.17-0.26-0.17-0.51c0-0.11,0.01-0.22,0.04-0.34l1.43-5.49l-0.61,0.37c-0.34,0.21-0.62,0.01-0.62-0.44v-0.01
		c0-0.45,0.28-0.99,0.62-1.2l1.13-0.7l1.49-5.75c0.19-0.69,0.48-1.15,0.86-1.39l0.3-0.19c0.38-0.23,0.67-0.13,0.86,0.33l3.44,8.99
		c0.03,0.08,0.04,0.18,0.04,0.29C69.45,176.09,69.39,176.33,69.28,176.55z"/>
</g>
<g>
	<g>
		<polygon class="st2" points="231.92,195.57 207.28,181.35 207.28,156.72 231.92,170.94 		"/>
		<polygon class="st3" points="231.92,195.57 256.55,181.35 256.55,156.72 231.92,170.94 		"/>
		<polygon class="st4" points="232,171.01 207.28,156.74 231.83,142.44 256.55,156.72 		"/>
		<path id="矩形_00000098204372111107834770000015646015447272258184_" class="st5" d="M224.07,150.6L224.07,150.6
			c0.48,0.28,0.4,0.8-0.17,1.15l-5.11,3.03c-0.58,0.34-1.49,0.4-1.97,0.12l0,0c-0.48-0.28-0.4-0.8,0.17-1.15l5.11-3.03
			C222.67,150.39,223.58,150.33,224.07,150.6z"/>
		<path id="矩形_00000025403605312783784040000016904699431647022218_" class="st5" d="M215.56,155.54L215.56,155.54
			c0.48,0.28,0.4,0.8-0.17,1.15l-0.99,0.59c-0.58,0.34-1.49,0.4-1.97,0.12l0,0c-0.48-0.28-0.4-0.8,0.17-1.15l0.99-0.59
			C214.2,155.3,215.07,155.27,215.56,155.54z"/>
	</g>
</g>
<g>
	<g>
		<polygon class="st2" points="52.65,260.57 28.01,246.35 28.01,221.72 52.65,235.94 		"/>
		<polygon class="st3" points="52.65,260.57 77.28,246.35 77.28,221.72 52.65,235.94 		"/>
		<polygon class="st4" points="52.73,236.02 28.01,221.75 52.56,207.45 77.28,221.72 		"/>
		<path id="矩形_00000117649330528318197960000013226699253584129702_" class="st5" d="M44.8,215.61L44.8,215.61
			c0.48,0.28,0.4,0.8-0.17,1.15l-5.11,3.03c-0.58,0.34-1.49,0.4-1.97,0.12l0,0c-0.48-0.28-0.4-0.8,0.17-1.15l5.11-3.03
			C43.41,215.39,44.32,215.33,44.8,215.61z"/>
		<path id="矩形_00000005965904495616196920000016444588211959717797_" class="st5" d="M36.29,220.55L36.29,220.55
			c0.48,0.28,0.4,0.8-0.17,1.15l-0.99,0.59c-0.58,0.34-1.49,0.4-1.97,0.12l0,0c-0.48-0.28-0.4-0.8,0.17-1.15l0.99-0.59
			C34.94,220.3,35.8,220.27,36.29,220.55z"/>
	</g>
</g>
<g>
	<g>
		<polygon class="st2" points="96.73,263.07 72.1,248.85 72.1,224.22 96.73,238.44 		"/>
		<polygon class="st3" points="96.73,263.07 121.36,248.85 121.36,224.22 96.73,238.44 		"/>
		<polygon class="st4" points="96.82,238.51 72.1,224.24 96.64,209.94 121.36,224.21 		"/>
		<path id="矩形_00000140722521983819098230000018417858482779818929_" class="st5" d="M88.89,218.1L88.89,218.1
			c0.48,0.28,0.4,0.8-0.17,1.15l-5.11,3.03c-0.58,0.34-1.49,0.4-1.97,0.12l0,0c-0.48-0.28-0.4-0.8,0.17-1.15l5.11-3.03
			C87.49,217.88,88.4,217.83,88.89,218.1z"/>
		<path id="矩形_00000114792118797483258940000016253436519173136525_" class="st5" d="M80.38,223.04L80.38,223.04
			c0.48,0.28,0.4,0.8-0.17,1.15l-0.99,0.59c-0.58,0.34-1.49,0.4-1.97,0.12l0,0c-0.48-0.28-0.4-0.8,0.17-1.15l0.99-0.59
			C79.02,222.8,79.89,222.77,80.38,223.04z"/>
	</g>
</g>
<g>
	<g>
		<path id="矩形_00000011716901837464827050000006859658932143539359_" class="st82" d="M176.79,209.17L176.79,209.17
			c0.62,0,1.15,0.76,1.15,1.64v1.52c0,0.88-0.53,1.64-1.15,1.64l0,0c-0.62,0-1.15-0.76-1.15-1.64v-1.52
			C175.64,209.87,176.17,209.17,176.79,209.17z"/>
		
			<radialGradient id="SVGID_00000155845129746744528170000018028891799646634664_" cx="142.5014" cy="236.5507" r="29.1582" gradientTransform="matrix(1 0 0 0.5898 0 97.0347)" gradientUnits="userSpaceOnUse">
			<stop  offset="0" style="stop-color:#06070C"/>
			<stop  offset="1" style="stop-color:#0D101D;stop-opacity:0"/>
		</radialGradient>
		<path style="opacity:0.67;fill:url(#SVGID_00000155845129746744528170000018028891799646634664_);" d="M167.5,222.48
			c-13.68-7.9-35.96-8-49.77-0.23s-13.91,20.48-0.23,28.37s35.96,8,49.77,0.23C181.07,243.08,181.18,230.37,167.5,222.48z"/>
		<g>
			<path class="st84" d="M183.75,193.2v-49.28c0-0.23,0.02-0.45,0.02-0.68c0-22.91-18.57-41.48-41.48-41.48
				c-22.91,0-41.48,18.57-41.48,41.48c0,0.36,0.02,0.72,0.03,1.07v44.66h-0.03v22.67c0,2.84,2.3,5.15,5.15,5.15
				c2.84,0,5.15-2.31,5.15-5.15v-0.83c0.56,0.36,1.13,0.72,1.74,1.07c1.83,1.06,3.79,1.99,5.85,2.81v8.2c0,2.84,2.3,5.15,5.15,5.15
				c2.84,0,5.15-2.31,5.15-5.15v-5.23c2.95,0.57,5.99,0.96,9.06,1.14v12.59c0,2.84,2.3,5.15,5.15,5.15s5.15-2.31,5.15-5.15v-12.7
				c3.39-0.28,6.73-0.8,9.93-1.55v6.36c0,2.84,2.3,5.15,5.15,5.15s5.15-2.31,5.15-5.15v-9.87c1-0.47,1.97-0.96,2.91-1.49
				c0.7-0.39,1.35-0.8,1.99-1.21v0.71c0,2.84,2.3,5.15,5.15,5.15c2.84,0,5.15-2.31,5.15-5.15V193.2H183.75z"/>
			
				<radialGradient id="SVGID_00000152942950372321739610000000672605360282692525_" cx="166.9669" cy="119.1763" r="106.6854" gradientUnits="userSpaceOnUse">
				<stop  offset="0.0124" style="stop-color:#DD78CE"/>
				<stop  offset="0.4936" style="stop-color:#A7589A"/>
				<stop  offset="0.5829" style="stop-color:#A0619E"/>
				<stop  offset="0.7273" style="stop-color:#8E79A8"/>
				<stop  offset="0.9078" style="stop-color:#709FB9"/>
				<stop  offset="1" style="stop-color:#5EB6C3"/>
			</radialGradient>
			<path style="fill:url(#SVGID_00000152942950372321739610000000672605360282692525_);" d="M183.75,193.2v-49.28
				c0-0.23,0.02-0.45,0.02-0.68c0-22.91-18.57-41.48-41.48-41.48c-22.91,0-41.48,18.57-41.48,41.48c0,0.36,0.02,0.72,0.03,1.07
				v44.66h-0.03v22.67c0,2.84,2.3,5.15,5.15,5.15c2.84,0,5.15-2.31,5.15-5.15v-0.83c0.56,0.36,1.13,0.72,1.74,1.07
				c1.83,1.06,3.79,1.99,5.85,2.81v8.2c0,2.84,2.3,5.15,5.15,5.15c2.84,0,5.15-2.31,5.15-5.15v-5.23c2.95,0.57,5.99,0.96,9.06,1.14
				v12.59c0,2.84,2.3,5.15,5.15,5.15s5.15-2.31,5.15-5.15v-12.7c3.39-0.28,6.73-0.8,9.93-1.55v6.36c0,2.84,2.3,5.15,5.15,5.15
				s5.15-2.31,5.15-5.15v-9.87c1-0.47,1.97-0.96,2.91-1.49c0.7-0.39,1.35-0.8,1.99-1.21v0.71c0,2.84,2.3,5.15,5.15,5.15
				c2.84,0,5.15-2.31,5.15-5.15V193.2H183.75z"/>
		</g>
		<path id="矩形_00000054232182572150679940000012834789542538914464_" class="st82" d="M104.69,179.35L104.69,179.35
			c1.12,0,2.09,1.38,2.09,2.99v14.25c0,1.61-0.96,2.99-2.09,2.99l0,0c-1.12,0-2.09-1.38-2.09-2.99v-14.25
			C102.61,180.73,103.57,179.35,104.69,179.35z"/>
		<path id="矩形_00000181788578954468165210000015297769014124527039_" class="st82" d="M166,116.26L166,116.26
			c1.37-1.02,3.68-0.37,5.02,1.41l2.29,3.06c1.34,1.78,1.31,4.19-0.06,5.22l0,0c-1.37,1.02-3.68,0.37-5.02-1.41l-2.29-3.06
			C164.51,119.57,164.63,117.29,166,116.26z"/>
		<path id="矩形_00000151530879621131070400000002743566583721137314_" class="st82" d="M122.09,215.94L122.09,215.94
			c1.12,0,2.09,1.38,2.09,2.99v2.76c0,1.61-0.96,2.99-2.09,2.99l0,0c-1.12,0-2.09-1.38-2.09-2.99v-2.76
			C120.01,217.2,120.97,215.94,122.09,215.94z"/>
		<path id="矩形_00000067228135334221919590000006155008346019231414_" class="st82" d="M104.69,204.8L104.69,204.8
			c1.12,0,2.09,1.38,2.09,2.99v2.76c0,1.61-0.96,2.99-2.09,2.99l0,0c-1.12,0-2.09-1.38-2.09-2.99v-2.76
			C102.61,206.07,103.57,204.8,104.69,204.8z"/>
		<path id="矩形_00000175285314692798393540000017654158573411484034_" class="st82" d="M142.28,224.68L142.28,224.68
			c1.12,0,2.09,1.38,2.09,2.99v2.76c0,1.61-0.96,2.99-2.09,2.99l0,0c-1.12,0-2.09-1.38-2.09-2.99v-2.76
			C140.2,225.94,141.16,224.68,142.28,224.68z"/>
		<path id="矩形_00000148650757968472093780000001307814519242463396_" class="st82" d="M161.98,219.34L161.98,219.34
			c0.89,0,1.66,1.1,1.66,2.37v2.19c0,1.28-0.76,2.37-1.66,2.37l0,0c-0.89,0-1.66-1.1-1.66-2.37v-2.19
			C160.33,220.34,161.09,219.34,161.98,219.34z"/>
		<g>
			
				<ellipse transform="matrix(0.8237 -0.5671 0.5671 0.8237 -52.786 108.3964)" class="st87" cx="147.91" cy="139.08" rx="9.1" ry="9.5"/>
			<path id="形状结合_00000145766146941575165550000004663671156432750256_" class="st88" d="M146.71,129.11
				c-4.24-0.18-7.66,3.98-7.66,9.22c0,0.19,0,0.37,0,0.56l0,0.56c0-5.33,3.33-9.59,7.48-9.42s7.46,4.61,7.46,10.04
				c0,1.03-0.09,2.05-0.37,2.98c0.46-1.2,0.74-2.59,0.74-3.99C154.36,133.74,150.96,129.29,146.71,129.11z"/>
			<path id="形状结合_00000127004983659257810400000009229662138967035788_" class="st89" d="M155.28,139.01
				c-0.01,5.89-3.88,10.5-8.58,10.31c-4.7-0.2-8.57-5.13-8.57-11.02c0.01-5.89,3.88-10.5,8.58-10.31
				C151.51,128.19,155.29,133.12,155.28,139.01z M139.05,138.34c0,5.24,3.4,9.68,7.64,9.86c4.24,0.18,7.66-3.98,7.66-9.22
				c0-5.24-3.4-9.68-7.64-9.86C142.57,128.94,139.06,133.1,139.05,138.34z"/>
		</g>
		<g>
			
				<ellipse transform="matrix(0.8237 -0.5671 0.5671 0.8237 -57.4194 90.7352)" class="st87" cx="117.2" cy="137.7" rx="9.1" ry="9.5"/>
			<path id="形状结合_00000140730271010608947800000012837063814691421335_" class="st88" d="M116.2,127.74
				c-4.24-0.18-7.66,3.98-7.66,9.22c0,0.19,0,0.37,0,0.56l0,0.56c0-5.33,3.33-9.59,7.48-9.42c4.15,0.17,7.46,4.61,7.46,10.04
				c0,1.03-0.09,2.05-0.37,2.98c0.46-1.2,0.74-2.59,0.74-3.99C123.85,132.36,120.44,127.92,116.2,127.74z"/>
			<path id="形状结合_00000062169215708138514720000004042921246138038920_" class="st89" d="M124.77,137.64
				c-0.01,5.89-3.88,10.5-8.58,10.31s-8.57-5.13-8.57-11.02c0.01-5.89,3.88-10.5,8.58-10.31C121,126.82,124.77,131.75,124.77,137.64
				z M108.54,136.97c0,5.24,3.4,9.68,7.64,9.86c4.24,0.18,7.66-3.98,7.66-9.22c0-5.24-3.4-9.68-7.64-9.86
				C112.05,127.57,108.54,131.73,108.54,136.97z"/>
		</g>
		<g>
			
				<ellipse transform="matrix(0.8237 -0.5671 0.5671 0.8237 -66.989 102.8139)" class="st86" cx="131.83" cy="159.13" rx="3.94" ry="4.12"/>
		</g>
		<g>
			
				<ellipse transform="matrix(0.8237 -0.5671 0.5671 0.8237 -66.3038 101.4958)" class="st87" cx="130.06" cy="157.37" rx="3.23" ry="3.37"/>
		</g>
		<circle class="st86" cx="142.5" cy="134.36" r="3.77"/>
		<circle class="st86" cx="113.6" cy="132.48" r="3.77"/>
	</g>
</g>
</svg>
