<?xml version="1.0" encoding="utf-8"?>
<!-- Generator: Adobe Illustrator 27.8.1, SVG Export Plug-In . SVG Version: 6.00 Build 0)  -->
<svg version="1.1" id="Слой_1" xmlns="http://www.w3.org/2000/svg" xmlns:xlink="http://www.w3.org/1999/xlink" x="0px" y="0px"
	 viewBox="0 0 290 269.62" style="enable-background:new 0 0 290 269.62;" xml:space="preserve">
<style type="text/css">
	.st0{fill:#101422;}
	.st1{fill:#FFFFFF;stroke:#111422;stroke-linecap:round;stroke-linejoin:round;stroke-miterlimit:10;}
	
		.st2{fill-rule:evenodd;clip-rule:evenodd;fill:#C6C3D1;stroke:#101320;stroke-linecap:round;stroke-linejoin:round;stroke-miterlimit:10;}
	
		.st3{fill-rule:evenodd;clip-rule:evenodd;fill:#FFFFFF;stroke:#111422;stroke-linecap:round;stroke-linejoin:round;stroke-miterlimit:10;}
	
		.st4{fill-rule:evenodd;clip-rule:evenodd;fill:#ECF0FC;stroke:#111422;stroke-linecap:round;stroke-linejoin:round;stroke-miterlimit:10;}
	.st5{opacity:0.92;fill-rule:evenodd;clip-rule:evenodd;fill:#FFFFFF;enable-background:new    ;}
	.st6{fill:none;stroke:#FFFFFF;stroke-linecap:round;stroke-linejoin:round;stroke-miterlimit:10;}
	.st7{fill-rule:evenodd;clip-rule:evenodd;fill:#101422;}
	.st8{fill:url(#SVGID_1_);}
	.st9{fill:url(#SVGID_00000089571782620913151220000006850116860936288387_);}
	.st10{fill:url(#SVGID_00000124839911561285811300000001697958044187315080_);}
	.st11{opacity:0.67;fill:url(#SVGID_00000159468278668701607850000013460793578288642235_);enable-background:new    ;}
	.st12{fill:#6FA3B6;}
	.st13{fill:url(#SVGID_00000064318360444767876790000011879093285346524835_);}
	.st14{opacity:0.2563;fill-rule:evenodd;clip-rule:evenodd;fill:#FFFFFF;enable-background:new    ;}
	.st15{fill:none;stroke:#FFFFFF;stroke-width:0.7384;stroke-linecap:round;stroke-linejoin:round;stroke-miterlimit:10;}
	
		.st16{fill:none;stroke:url(#SVGID_00000014600392172832676880000014132788355645391764_);stroke-width:5;stroke-linecap:round;stroke-linejoin:round;stroke-miterlimit:10;}
	.st17{fill:url(#SVGID_00000167381816229080416910000007035078298124209805_);}
	.st18{fill-rule:evenodd;clip-rule:evenodd;fill:#1AD4B3;}
	.st19{fill-rule:evenodd;clip-rule:evenodd;fill:#FC4F83;}
	.st20{fill:#C6C3D1;stroke:#101320;stroke-linecap:round;stroke-linejoin:round;stroke-miterlimit:10;}
	.st21{fill:#ECF0FC;stroke:#111422;stroke-linecap:round;stroke-linejoin:round;stroke-miterlimit:10;}
	
		.st22{fill:url(#SVGID_00000109723787304740867600000015206828655416127117_);stroke:#1D1D1B;stroke-width:0.2115;stroke-linecap:round;stroke-linejoin:round;stroke-miterlimit:10;}
	
		.st23{fill:url(#SVGID_00000099657389877276555150000010048685524092490627_);stroke:#1D1D1B;stroke-width:0.2115;stroke-linecap:round;stroke-linejoin:round;stroke-miterlimit:10;}
	
		.st24{fill:url(#SVGID_00000065769813132922679100000010186063493173052818_);stroke:#1D1D1B;stroke-width:0.2115;stroke-linecap:round;stroke-linejoin:round;stroke-miterlimit:10;}
	
		.st25{fill:url(#SVGID_00000102510676241103359380000008582872825896657073_);stroke:#1D1D1B;stroke-width:0.2115;stroke-linecap:round;stroke-linejoin:round;stroke-miterlimit:10;}
	
		.st26{fill-rule:evenodd;clip-rule:evenodd;fill:#101422;stroke:#101423;stroke-linecap:round;stroke-linejoin:round;stroke-miterlimit:10;}
	.st27{fill:#FFFFFF;}
	.st28{fill-rule:evenodd;clip-rule:evenodd;fill:url(#SVGID_00000057129867096999063600000013563232008635196836_);}
	.st29{fill-rule:evenodd;clip-rule:evenodd;fill:url(#SVGID_00000101808802454176056260000001210560276297565333_);}
	.st30{fill:url(#SVGID_00000042698672923081458470000005328371789946093229_);}
	.st31{fill:url(#SVGID_00000136380677246410714530000012921892204874614949_);}
	.st32{fill:url(#SVGID_00000127738818636274866260000017997214312000041857_);}
	
		.st33{fill-rule:evenodd;clip-rule:evenodd;fill:#C7FFF1;stroke:#101320;stroke-linecap:round;stroke-linejoin:round;stroke-miterlimit:10;}
	
		.st34{fill:none;stroke:url(#SVGID_00000048487445381288943250000002516716117111354252_);stroke-width:5;stroke-linecap:round;stroke-linejoin:round;stroke-miterlimit:10;}
	.st35{fill:url(#SVGID_00000005976130421964318570000017268240849562217863_);}
	
		.st36{fill:none;stroke:url(#SVGID_00000044866312076360254740000001044819852334017196_);stroke-width:5;stroke-linecap:round;stroke-linejoin:round;stroke-miterlimit:10;}
	.st37{fill:url(#SVGID_00000124147911556372876650000002838331857799973014_);}
	
		.st38{fill:none;stroke:url(#SVGID_00000072239808191020424350000003492234922889884552_);stroke-width:5;stroke-linecap:round;stroke-linejoin:round;stroke-miterlimit:10;}
	.st39{fill:url(#SVGID_00000141449219125853809170000007406097266147071378_);}
	
		.st40{fill-rule:evenodd;clip-rule:evenodd;fill:#1AD4B3;stroke:#111422;stroke-linecap:round;stroke-linejoin:round;stroke-miterlimit:10;}
	
		.st41{fill-rule:evenodd;clip-rule:evenodd;fill:#FC4F83;stroke:#111422;stroke-linecap:round;stroke-linejoin:round;stroke-miterlimit:10;}
	
		.st42{fill-rule:evenodd;clip-rule:evenodd;fill:#FFCAD7;stroke:#111422;stroke-linecap:round;stroke-linejoin:round;stroke-miterlimit:10;}
	.st43{fill:url(#SVGID_00000093149316250292920890000018413269621803202972_);}
	.st44{fill:url(#SVGID_00000180347280374917569990000005391266812702399152_);}
	.st45{fill:url(#SVGID_00000057863633930874256460000017009915981834957456_);}
	
		.st46{fill:none;stroke:url(#SVGID_00000135658209849767782820000012786502514089033887_);stroke-width:5;stroke-linecap:round;stroke-linejoin:round;stroke-miterlimit:10;}
	.st47{fill:url(#SVGID_00000093880926984372986210000006106575173957264567_);}
	
		.st48{fill:none;stroke:url(#SVGID_00000054957292491193093050000007946236065631778445_);stroke-width:5;stroke-linecap:round;stroke-linejoin:round;stroke-miterlimit:10;}
	.st49{fill:url(#SVGID_00000067958172119412647700000016310802480142179490_);}
	.st50{fill:url(#SVGID_00000070829453442872968350000005685497471358223292_);}
	.st51{fill:#101320;}
	.st52{fill:url(#SVGID_00000065757421266327267440000000848574513980523412_);}
	.st53{fill:url(#SVGID_00000171678071625982523310000018445954465093444751_);}
	.st54{fill:url(#SVGID_00000115482343758058738360000003594233538746293655_);}
	.st55{fill:url(#SVGID_00000088838202109459838280000005265969238863656639_);}
	.st56{fill:url(#SVGID_00000088832405247570498000000017904883909636704917_);}
	.st57{fill:url(#SVGID_00000152949494774355580430000003848088987534581651_);}
	.st58{opacity:0.29;fill:url(#SVGID_00000157275122166206773320000011716645031894045362_);enable-background:new    ;}
	.st59{fill:url(#SVGID_00000042700502854471854500000018241941549748081804_);}
	.st60{fill:url(#SVGID_00000160872594634206596820000008328875450607612310_);}
	.st61{fill:url(#SVGID_00000131347367513638066000000014431146339024095157_);}
	.st62{fill-rule:evenodd;clip-rule:evenodd;fill:url(#SVGID_00000065070812961238589880000010709007787539557264_);}
	.st63{fill:url(#SVGID_00000056418938331632073840000017203308404909321092_);}
	.st64{fill:url(#SVGID_00000161629767219573023290000011097571439653808784_);}
	.st65{fill:url(#SVGID_00000080924273842001919890000004188415585335339908_);}
	.st66{fill:url(#SVGID_00000086654449903497637800000003689484422203021986_);}
	.st67{opacity:0.29;fill:url(#SVGID_00000076597072922272464280000006385619714460004508_);enable-background:new    ;}
	
		.st68{fill:none;stroke:url(#SVGID_00000122689567770867465320000004063481418307350667_);stroke-width:5;stroke-linecap:round;stroke-linejoin:round;stroke-miterlimit:10;}
	.st69{fill:url(#SVGID_00000127724299931153396440000000127822899146956453_);}
	
		.st70{fill:none;stroke:url(#SVGID_00000049212053482863671070000011157487238310549948_);stroke-width:5;stroke-linecap:round;stroke-linejoin:round;stroke-miterlimit:10;}
	.st71{fill:url(#SVGID_00000113349490798568204210000003786716788088160394_);}
	
		.st72{fill:none;stroke:url(#SVGID_00000049180428752671770880000009125751134117280129_);stroke-width:5;stroke-linecap:round;stroke-linejoin:round;stroke-miterlimit:10;}
	.st73{fill:url(#SVGID_00000173839404290214528280000000842956450095648142_);}
	.st74{fill-rule:evenodd;clip-rule:evenodd;fill:url(#SVGID_00000057129289178829997550000000489474818917737909_);}
	.st75{fill:url(#SVGID_00000147220554959020136400000013648009575708488893_);}
	.st76{fill:url(#SVGID_00000183940517630192994140000010755945784774453125_);}
	.st77{fill:url(#SVGID_00000130606184391448681810000002242215295451316866_);}
	.st78{opacity:0.29;fill:url(#SVGID_00000154412794790198228460000009488109214590213799_);}
	.st79{opacity:0.29;fill:url(#SVGID_00000071526331652134325590000016752372497707112635_);}
	.st80{opacity:0.67;fill:url(#SVGID_00000174576764991812886750000007092872701624276359_);}
	.st81{fill:#3FA9BD;}
	.st82{fill:url(#SVGID_00000183216243077515654270000015123865982248871313_);}
	.st83{fill-rule:evenodd;clip-rule:evenodd;fill:#555069;}
	.st84{fill-rule:evenodd;clip-rule:evenodd;fill:#FFFFFF;}
	.st85{fill-rule:evenodd;clip-rule:evenodd;fill:#AFAFB1;}
	.st86{fill-rule:evenodd;clip-rule:evenodd;fill:#D3D3D3;}
	.st87{opacity:0.67;fill:url(#SVGID_00000062878814353599787580000016631288932148327343_);}
	.st88{fill:url(#SVGID_00000009573037955705062500000018391990343271639446_);}
	.st89{opacity:0.67;fill:url(#SVGID_00000067210178073935794040000003857962170931719055_);}
	.st90{fill:url(#SVGID_00000126301131262438896590000018245380754633788861_);}
	.st91{opacity:0.67;fill:url(#SVGID_00000031166439400198738410000004944313679198698894_);}
	.st92{fill:url(#SVGID_00000058547764149641007740000011738821197965471896_);}
	.st93{opacity:0.67;fill:url(#SVGID_00000078736379972913272760000006427328791459818378_);}
	.st94{fill:url(#SVGID_00000001645309330957783830000012625173428915417766_);}
	.st95{opacity:0.67;fill:url(#SVGID_00000144325263769873767310000017350448331592343957_);}
	.st96{fill:url(#SVGID_00000136376181434820257810000003732359456175510193_);}
	.st97{fill:#1AD4B3;}
	.st98{opacity:0.67;fill:url(#SVGID_00000000187893228515819560000004682190978710413472_);}
	.st99{fill:url(#SVGID_00000058576797544352137990000006988876030091412409_);}
	.st100{opacity:0.67;fill:url(#SVGID_00000089541707488707934890000006586341920601323707_);}
	.st101{fill:url(#SVGID_00000114038287063171626120000006654404104145654662_);}
	.st102{opacity:0.67;fill:url(#SVGID_00000058577546141425243080000000536828135599749267_);}
	.st103{fill:url(#SVGID_00000130623744084183497460000003538346078758448520_);}
	
		.st104{fill-rule:evenodd;clip-rule:evenodd;fill:none;stroke:#FFFFFF;stroke-width:0.7384;stroke-linecap:round;stroke-linejoin:round;stroke-miterlimit:10;}
	.st105{opacity:0.67;fill:url(#SVGID_00000080203802391274605170000014620852890862092213_);}
	.st106{fill:url(#SVGID_00000119835308193867241420000002780231510144352401_);}
	.st107{opacity:0.67;fill:url(#SVGID_00000021831200675717534780000014532886932478670470_);}
	.st108{fill:url(#SVGID_00000154425408762899774670000004814140673456606615_);}
	.st109{opacity:0.67;fill:url(#SVGID_00000139992677030742781790000018394210283100015005_);}
	.st110{fill:url(#SVGID_00000083802335872404240280000011710961265290315396_);}
	.st111{opacity:0.67;fill:url(#SVGID_00000031186168128309205170000001572958168978731454_);}
	.st112{fill:url(#SVGID_00000090266404597225055730000009515776188734715281_);}
	.st113{opacity:0.67;fill:url(#SVGID_00000179611223542798115350000014028642825343528371_);}
	.st114{fill:url(#SVGID_00000138546656102589435190000011919546219722312351_);}
	.st115{opacity:0.67;fill:url(#SVGID_00000053525044865848935280000018410425370973010572_);}
	.st116{fill:url(#SVGID_00000092449427037416361560000008626488374571155885_);}
	.st117{opacity:0.67;fill:url(#SVGID_00000177483951149566621530000005878625749777036431_);}
	.st118{fill:url(#SVGID_00000004538776087523328270000003328694806494663871_);}
	.st119{opacity:0.67;fill:url(#SVGID_00000026123035130338727640000017215657078686027171_);}
	.st120{fill:url(#SVGID_00000036225436276325432400000009271203372164735928_);}
	.st121{opacity:0.67;fill:url(#SVGID_00000023278431310010199910000008248393551053320583_);}
	.st122{fill:url(#SVGID_00000168819995386898538630000007639040739316479872_);}
	.st123{opacity:0.67;fill:url(#SVGID_00000042738171110361535520000017015558178117447324_);}
	.st124{fill:url(#SVGID_00000108287468504665558570000003625395300866999703_);}
	.st125{opacity:0.67;fill:url(#SVGID_00000027600856472179915140000007429046589174271381_);}
	.st126{fill:url(#SVGID_00000090268952883518844650000001276965241884394115_);}
	.st127{opacity:0.67;fill:url(#SVGID_00000141417564446591775870000017617483011115695551_);}
	.st128{fill:#5EA6B9;}
	.st129{fill:url(#SVGID_00000106125809279577773690000011646096918016471210_);}
	.st130{fill-rule:evenodd;clip-rule:evenodd;fill:#545067;}
	.st131{fill-rule:evenodd;clip-rule:evenodd;fill:#AEAEB0;}
	.st132{fill-rule:evenodd;clip-rule:evenodd;fill:#D2D2D2;}
	.st133{opacity:0.67;fill:url(#SVGID_00000003790811945159580170000006135577849415181754_);}
	.st134{fill:url(#SVGID_00000085971005564006965710000009476997803798183330_);}
	.st135{fill-rule:evenodd;clip-rule:evenodd;fill:#63D0B3;}
	
		.st136{fill-rule:evenodd;clip-rule:evenodd;fill:none;stroke:#111422;stroke-linecap:round;stroke-linejoin:round;stroke-miterlimit:10;}
	.st137{fill-rule:evenodd;clip-rule:evenodd;fill:#E85C83;}
	.st138{fill:#5DC29D;}
	.st139{fill:url(#SVGID_00000129906035078070722600000005526273360588111272_);}
	.st140{fill:url(#SVGID_00000122712859317462091250000016487454486985568431_);}
	.st141{fill:#E85C83;}
	.st142{opacity:0.67;fill:url(#SVGID_00000162343674465957879370000016957002386839592381_);}
	.st143{fill:url(#SVGID_00000029730563774553926710000004831726145175483277_);}
	
		.st144{fill:none;stroke:url(#SVGID_00000125574190764735297210000008982767204022363009_);stroke-width:5;stroke-linecap:round;stroke-linejoin:round;stroke-miterlimit:10;}
	.st145{fill:url(#SVGID_00000141423254976515383530000013343336541056894339_);}
	.st146{opacity:0.67;fill:url(#SVGID_00000021109358509995837160000007962397145124898206_);}
	.st147{fill:url(#SVGID_00000048491268477231560410000007277056468985642119_);}
	.st148{opacity:0.67;fill:url(#SVGID_00000171694781503348865620000009664662276162549682_);}
	.st149{fill:url(#SVGID_00000108994304435842091290000004850470805225958579_);}
	.st150{opacity:0.67;fill:url(#SVGID_00000114040947985375546720000005525896431777181066_);}
	.st151{fill:url(#SVGID_00000163031279254923423500000006782539890287087771_);}
	.st152{opacity:0.67;fill:url(#SVGID_00000119832006126822998780000002100320199429315490_);}
	.st153{fill:url(#SVGID_00000173130611743257247930000018137489853028923290_);}
	.st154{opacity:0.67;fill:url(#SVGID_00000072995680053259390140000004930295437313934513_);}
	.st155{fill:url(#SVGID_00000083053082446457068890000006306061461477879730_);}
	.st156{opacity:0.67;fill:url(#SVGID_00000154389732105404434540000013858798355364365225_);}
	.st157{fill:url(#SVGID_00000098927440138811411900000012911719621502390665_);}
	.st158{fill:none;stroke:#000000;stroke-width:22;stroke-linecap:round;stroke-linejoin:round;stroke-miterlimit:10;}
	.st159{fill:#ECF0FC;}
	.st160{fill:url(#SVGID_00000129191451753735199650000009955358422188973736_);}
	.st161{fill:url(#SVGID_00000052817293049317053410000012066101606715407252_);}
	.st162{fill:none;stroke:url(#SVGID_00000000907334378000806980000015151623230788298163_);stroke-width:5;stroke-miterlimit:10;}
	.st163{fill:#111422;}
	.st164{fill:url(#SVGID_00000087381494735596985730000003480757066514455970_);}
	.st165{fill:none;}
	.st166{opacity:0.67;fill:url(#SVGID_00000101782999810069181550000008836953055168651925_);}
	.st167{fill:url(#SVGID_00000011731766219376235730000004770908453873491100_);}
	.st168{fill:none;stroke:url(#SVGID_00000111183199709720979420000007402284923322010534_);stroke-width:5;stroke-miterlimit:10;}
	.st169{fill:url(#SVGID_00000101805604857832238770000008339691629225531794_);}
	.st170{opacity:0.67;fill:url(#SVGID_00000075849800203259698310000011537224349108707738_);}
	.st171{fill:url(#SVGID_00000019679167240409584140000015553447082352544150_);}
	.st172{opacity:0.67;fill:url(#SVGID_00000143605362493755644510000012288970553565553328_);}
	.st173{fill:url(#SVGID_00000108283508138054284660000010172823431976760972_);}
</style>
<g>
	<g>
		<polygon class="st20" points="35.08,119.62 12.51,107.33 12.51,73.21 140.19,5.29 162.59,14.52 159.41,36.51 166.42,45.07 
			158.86,49.35 151.41,44.76 145.01,57.22 140.08,54.25 123.11,69.65 114.25,64.17 106.65,78.99 97.58,73.67 91.1,87.82 81,79.84 
			74.94,92.21 61.49,100.1 52.42,93.92 39.82,103.28 42.03,115.68 		"/>
		<path class="st1" d="M82.99,74.58c0,3.97-0.56,7.64-1.66,10.99c-1.11,3.35-2.61,6.27-4.49,8.74c-1.88,2.47-3.98,4.36-6.3,5.68
			c-2.33,1.32-4.44,1.82-6.32,1.47s-3.37-1.56-4.48-3.66c-1.1-2.1-1.66-5.12-1.66-9.07c0-3.97,0.55-7.63,1.66-10.99
			c1.1-3.35,2.6-6.26,4.48-8.73c1.88-2.47,3.99-4.36,6.32-5.69c2.32-1.32,4.42-1.81,6.3-1.48c1.88,0.33,3.38,1.54,4.49,3.64
			C82.44,67.57,82.99,70.6,82.99,74.58z M75.84,78.64c0-2.14-0.2-3.83-0.61-5.07c-0.4-1.24-1-2.01-1.79-2.33
			c-0.79-0.31-1.76-0.14-2.91,0.51c-1.15,0.65-2.12,1.58-2.91,2.79c-0.79,1.21-1.38,2.66-1.79,4.36c-0.4,1.7-0.61,3.62-0.61,5.76
			c0,2.14,0.2,3.83,0.61,5.07c0.4,1.24,1,2.02,1.79,2.33c0.79,0.31,1.76,0.14,2.91-0.51c1.15-0.65,2.12-1.58,2.91-2.79
			c0.79-1.21,1.38-2.66,1.79-4.36C75.64,82.7,75.84,80.78,75.84,78.64z"/>
		<path class="st1" d="M91.1,87.82l-7.55-31.4l7.75-4.4l3.5,19.97l0.2-0.11l4.15-24.32l6.1-3.46l4.15,19.67l0.2-0.11l3.5-24.01
			l7.75-4.4l-7.55,39.98l-6.65,3.78l-4.35-17.47l-0.2,0.11l-4.35,22.41L91.1,87.82z"/>
		<path class="st1" d="M123.11,69.65V33.96l18.45-10.48v7.81l-11.5,6.53v6.14l10.55-5.99v7.81l-10.55,5.99v6.13l11.45-6.5v7.81
			L123.11,69.65z"/>
		<path class="st1" d="M51.12,76.39c-1.43-0.24-3.09,0.19-4.99,1.26l-11.05,6.28v35.69l6.95-3.95v-10.6l3.85-2.18
			c1.95-1.11,3.66-2.58,5.12-4.42c1.46-1.84,2.6-3.93,3.41-6.26c0.81-2.33,1.22-4.78,1.22-7.33c0-2.53-0.4-4.52-1.19-5.97
			C53.66,77.47,52.55,76.63,51.12,76.39z M47.92,91.89c-0.31,0.92-0.76,1.75-1.34,2.48C46,95.1,45.3,95.7,44.48,96.16l-2.45,1.39
			v-9.83l2.45-1.39c0.82-0.46,1.52-0.67,2.09-0.6c0.58,0.06,1.03,0.36,1.34,0.91c0.31,0.55,0.47,1.33,0.47,2.36
			C48.38,90.01,48.23,90.97,47.92,91.89z"/>
		<path class="st1" d="M158.86,49.35l7.55-4.29l-5.21-10.37c1.33-1.64,2.38-3.48,3.14-5.55c0.81-2.22,1.22-4.6,1.22-7.16
			c0-2.53-0.4-4.48-1.19-5.84c-0.79-1.36-1.9-2.12-3.33-2.28s-3.09,0.31-4.99,1.39l-11.05,6.27v35.69l6.95-3.95V41.49l2.41-1.37
			L158.86,49.35z M151.96,25.32l2.45-1.39c0.82-0.46,1.52-0.71,2.09-0.73c0.58-0.02,1.03,0.2,1.34,0.67
			c0.31,0.47,0.47,1.21,0.47,2.24c0,1.01-0.16,1.92-0.47,2.72c-0.31,0.81-0.76,1.51-1.34,2.13c-0.58,0.61-1.28,1.16-2.09,1.62
			l-2.45,1.39V25.32z"/>
	</g>
	<polygon class="st21" points="12.51,73.21 35.08,83.93 158.31,14.23 161.05,13.87 140.19,5.29 	"/>
</g>
<g>
	<g>
		<g>
			<g>
				<polygon class="st3" points="259.79,144.67 165.56,90.35 165.56,55.96 259.79,110.28 				"/>
				<polygon class="st2" points="259.79,144.67 277.04,135.63 277.04,101.24 259.79,110.28 				"/>
				<polygon class="st4" points="259.91,110.38 165.56,55.99 182.69,46.84 277.05,101.23 				"/>
			</g>
		</g>
	</g>
	<g>
		<g>
			<path class="st0" d="M172.08,84.42V67.11l5.4,3.05c1.04,0.59,1.92,1.34,2.65,2.25c0.73,0.91,1.29,1.92,1.68,3.02
				c0.39,1.1,0.58,2.22,0.58,3.37c0,1.15-0.2,2.05-0.59,2.71c-0.39,0.66-0.96,1.02-1.7,1.09c-0.74,0.07-1.64-0.19-2.69-0.78
				l-3.44-1.95v-2.93l2.98,1.68c0.56,0.31,1.02,0.45,1.38,0.41c0.36-0.04,0.64-0.23,0.82-0.56c0.18-0.34,0.27-0.79,0.27-1.35
				c0-0.58-0.09-1.13-0.27-1.66c-0.18-0.53-0.45-1.02-0.82-1.47c-0.37-0.45-0.83-0.83-1.39-1.15l-1.95-1.1v14.32L172.08,84.42z"/>
			<path class="st0" d="M184.23,91.28V78.3l2.76,1.56v2.26l0.11,0.06c0.19-0.7,0.5-1.13,0.94-1.3c0.44-0.16,0.95-0.09,1.52,0.24
				c0.14,0.08,0.3,0.18,0.46,0.29c0.17,0.12,0.31,0.23,0.44,0.34v3.19c-0.13-0.13-0.32-0.28-0.56-0.45
				c-0.24-0.17-0.45-0.32-0.65-0.43c-0.42-0.24-0.79-0.33-1.12-0.29c-0.33,0.04-0.59,0.21-0.78,0.51c-0.19,0.3-0.28,0.71-0.28,1.24
				v7.34L184.23,91.28z"/>
			<path class="st0" d="M196.09,98.23c-1.04-0.59-1.94-1.37-2.69-2.36c-0.76-0.99-1.34-2.1-1.75-3.34
				c-0.41-1.24-0.61-2.52-0.61-3.85c0-1.34,0.2-2.4,0.61-3.17c0.41-0.77,0.99-1.23,1.75-1.36c0.76-0.13,1.65,0.09,2.69,0.68
				c1.04,0.59,1.94,1.38,2.69,2.36c0.76,0.99,1.34,2.1,1.75,3.34c0.41,1.24,0.62,2.53,0.62,3.87c0,1.33-0.2,2.38-0.62,3.15
				c-0.41,0.77-0.99,1.23-1.75,1.36C198.03,99.05,197.13,98.82,196.09,98.23z M196.1,95.45c0.47,0.27,0.87,0.32,1.18,0.16
				c0.32-0.16,0.56-0.49,0.72-0.99c0.16-0.5,0.24-1.13,0.24-1.88s-0.08-1.47-0.24-2.16c-0.16-0.68-0.4-1.29-0.72-1.81
				c-0.32-0.52-0.71-0.92-1.18-1.18c-0.48-0.27-0.88-0.32-1.2-0.16c-0.32,0.16-0.57,0.49-0.73,0.99s-0.24,1.13-0.24,1.88
				c0,0.76,0.08,1.47,0.24,2.16c0.16,0.68,0.41,1.29,0.73,1.81C195.23,94.79,195.63,95.18,196.1,95.45z"/>
			<path class="st0" d="M203.01,106.76V88.91l2.81,1.59v2.18l0.13,0.07c0.12-0.28,0.31-0.53,0.54-0.76
				c0.24-0.23,0.55-0.36,0.94-0.38c0.39-0.03,0.87,0.12,1.44,0.45c0.75,0.42,1.44,1.06,2.07,1.91c0.63,0.85,1.14,1.88,1.52,3.08
				c0.38,1.2,0.57,2.55,0.57,4.04c0,1.45-0.18,2.56-0.55,3.35c-0.37,0.79-0.87,1.26-1.5,1.41c-0.63,0.15-1.34,0.01-2.12-0.43
				c-0.55-0.31-1.02-0.69-1.41-1.14c-0.39-0.45-0.7-0.92-0.95-1.41c-0.24-0.49-0.43-0.95-0.56-1.39l-0.09-0.05v6.95L203.01,106.76z
				 M205.79,96.97c0,0.77,0.08,1.49,0.25,2.16c0.17,0.67,0.41,1.26,0.74,1.75c0.32,0.5,0.71,0.88,1.17,1.14
				c0.46,0.26,0.86,0.32,1.18,0.18c0.32-0.14,0.56-0.46,0.73-0.94c0.17-0.48,0.25-1.1,0.25-1.86c0-0.75-0.08-1.45-0.25-2.12
				c-0.17-0.66-0.41-1.25-0.73-1.75c-0.32-0.5-0.72-0.89-1.18-1.15c-0.46-0.26-0.86-0.33-1.17-0.2c-0.32,0.13-0.56,0.43-0.73,0.9
				C205.88,95.58,205.79,96.2,205.79,96.97z"/>
			<path class="st0" d="M219.56,111.49c-1.04-0.59-1.94-1.37-2.69-2.36c-0.76-0.99-1.34-2.1-1.75-3.34
				c-0.41-1.24-0.61-2.52-0.61-3.85c0-1.34,0.2-2.4,0.61-3.17s0.99-1.23,1.75-1.36c0.76-0.13,1.65,0.09,2.69,0.68
				c1.04,0.59,1.94,1.38,2.69,2.36c0.76,0.99,1.34,2.1,1.75,3.34c0.41,1.24,0.62,2.53,0.62,3.87c0,1.33-0.2,2.38-0.62,3.15
				c-0.41,0.77-0.99,1.23-1.75,1.36C221.5,112.31,220.6,112.08,219.56,111.49z M219.57,108.71c0.47,0.27,0.87,0.32,1.18,0.16
				c0.32-0.16,0.56-0.49,0.72-0.99s0.24-1.13,0.24-1.88s-0.08-1.47-0.24-2.16c-0.16-0.68-0.4-1.29-0.72-1.81
				c-0.32-0.52-0.71-0.92-1.18-1.18c-0.48-0.27-0.88-0.32-1.2-0.16c-0.32,0.16-0.57,0.49-0.73,0.99c-0.16,0.5-0.24,1.13-0.24,1.88
				c0,0.76,0.08,1.47,0.24,2.16c0.16,0.68,0.41,1.29,0.73,1.81C218.69,108.05,219.09,108.44,219.57,108.71z"/>
			<path class="st0" d="M235.02,110.7l-2.61-1.27c-0.04-0.31-0.14-0.62-0.29-0.93c-0.15-0.31-0.34-0.6-0.58-0.88
				c-0.24-0.27-0.52-0.5-0.85-0.69c-0.44-0.25-0.81-0.34-1.12-0.28c-0.3,0.06-0.45,0.29-0.45,0.68c0,0.31,0.1,0.63,0.29,0.95
				c0.2,0.33,0.53,0.69,1.01,1.08l1.86,1.52c1,0.82,1.74,1.66,2.23,2.51c0.49,0.85,0.74,1.75,0.74,2.68c0,0.85-0.2,1.48-0.59,1.9
				c-0.39,0.42-0.93,0.61-1.62,0.59c-0.69-0.03-1.47-0.3-2.36-0.8c-1.36-0.77-2.44-1.74-3.25-2.91c-0.8-1.17-1.28-2.42-1.41-3.74
				l2.8,1.4c0.08,0.57,0.29,1.09,0.61,1.54c0.33,0.46,0.74,0.83,1.25,1.12c0.5,0.28,0.9,0.39,1.21,0.31c0.3-0.07,0.46-0.3,0.46-0.69
				c0-0.33-0.11-0.66-0.33-0.99c-0.21-0.33-0.54-0.68-0.99-1.04l-1.78-1.45c-1-0.82-1.75-1.68-2.24-2.58
				c-0.49-0.9-0.73-1.84-0.73-2.8c0-0.83,0.18-1.45,0.54-1.85c0.36-0.4,0.86-0.58,1.52-0.54c0.65,0.04,1.42,0.31,2.3,0.81
				c1.3,0.73,2.32,1.66,3.07,2.77C234.46,108.24,234.9,109.43,235.02,110.7z"/>
			<path class="st0" d="M239.99,123.03c-0.66-0.37-1.24-0.85-1.75-1.43c-0.51-0.58-0.92-1.24-1.21-1.98
				c-0.3-0.74-0.44-1.54-0.44-2.39c0-0.72,0.1-1.27,0.31-1.64c0.21-0.37,0.49-0.6,0.86-0.7c0.36-0.09,0.77-0.09,1.24,0.02
				c0.46,0.11,0.95,0.28,1.45,0.5c0.6,0.26,1.08,0.46,1.44,0.59c0.36,0.14,0.63,0.18,0.8,0.13c0.17-0.05,0.25-0.21,0.25-0.49v-0.05
				c0-0.53-0.13-1.02-0.4-1.47c-0.27-0.44-0.64-0.8-1.13-1.08c-0.51-0.29-0.92-0.38-1.22-0.26c-0.3,0.11-0.5,0.36-0.6,0.73
				l-2.64-1.76c0.13-0.71,0.4-1.25,0.79-1.6c0.39-0.36,0.9-0.51,1.52-0.48c0.62,0.04,1.34,0.29,2.16,0.75
				c0.57,0.32,1.12,0.72,1.64,1.18c0.52,0.46,0.99,0.99,1.4,1.57c0.41,0.59,0.73,1.22,0.97,1.91c0.24,0.69,0.35,1.42,0.35,2.19v8.75
				l-2.7-1.53v-1.8l-0.08-0.05c-0.17,0.31-0.39,0.54-0.66,0.69c-0.28,0.15-0.61,0.2-1,0.16
				C240.94,123.48,240.49,123.31,239.99,123.03z M240.8,121c0.42,0.24,0.79,0.34,1.11,0.31c0.32-0.03,0.57-0.17,0.76-0.43
				c0.18-0.26,0.27-0.61,0.27-1.07v-1.38c-0.09,0.02-0.21,0.02-0.36-0.01c-0.15-0.03-0.33-0.07-0.52-0.13
				c-0.19-0.06-0.38-0.13-0.58-0.2c-0.19-0.07-0.37-0.14-0.52-0.2c-0.33-0.13-0.63-0.19-0.88-0.2c-0.25-0.01-0.44,0.07-0.58,0.22
				c-0.14,0.15-0.21,0.39-0.21,0.73c0,0.49,0.14,0.94,0.43,1.36C240,120.42,240.36,120.75,240.8,121z"/>
			<path class="st0" d="M250.83,111.6v17.31l-2.85-1.61v-17.31L250.83,111.6z"/>
		</g>
	</g>
</g>
<g>
	<g>
		<polygon class="st2" points="52.37,254.59 17.97,234.73 17.97,200.34 52.37,220.2 		"/>
		<polygon class="st3" points="52.37,254.59 86.76,234.73 86.76,200.34 52.37,220.2 		"/>
		<polygon class="st4" points="52.49,220.3 17.97,200.38 52.24,180.41 86.76,200.34 		"/>
		<path id="矩形_00000062193488453707849460000011629249250642820777_" class="st5" d="M41.28,191.96L41.28,191.96
			c0.68,0.38,0.56,1.12-0.24,1.6l-7.14,4.22c-0.81,0.48-2.08,0.56-2.75,0.17l0,0c-0.68-0.38-0.56-1.12,0.24-1.6l7.14-4.22
			C39.34,191.66,40.61,191.58,41.28,191.96z"/>
		<path id="矩形_00000168831383005071935920000010126382125523481513_" class="st5" d="M29.4,198.86L29.4,198.86
			c0.68,0.38,0.56,1.12-0.24,1.6l-1.38,0.82c-0.81,0.48-2.08,0.56-2.75,0.17l0,0c-0.68-0.38-0.56-1.12,0.24-1.6l1.38-0.82
			C27.51,198.52,28.72,198.48,29.4,198.86z"/>
	</g>
</g>
<g>
	<g>
		<polygon class="st2" points="48.32,207.58 23.69,193.36 23.69,168.73 48.32,182.95 		"/>
		<polygon class="st3" points="48.32,207.58 72.95,193.36 72.95,168.73 48.32,182.95 		"/>
		<polygon class="st4" points="48.41,183.03 23.69,168.76 48.23,154.46 72.95,168.73 		"/>
		<path id="矩形_00000029737896903738328960000011706632617235280803_" class="st5" d="M40.48,162.62L40.48,162.62
			c0.48,0.28,0.4,0.8-0.17,1.15l-5.11,3.03c-0.58,0.34-1.49,0.4-1.97,0.12l0,0c-0.48-0.28-0.4-0.8,0.17-1.15l5.11-3.03
			C39.08,162.4,39.99,162.34,40.48,162.62z"/>
		<path id="矩形_00000044892328560733399200000011841837859248882821_" class="st5" d="M31.96,167.56L31.96,167.56
			c0.48,0.28,0.4,0.8-0.17,1.15l-0.99,0.59c-0.58,0.34-1.49,0.4-1.97,0.12l0,0c-0.48-0.28-0.4-0.8,0.17-1.15l0.99-0.59
			C30.61,167.31,31.48,167.28,31.96,167.56z"/>
	</g>
</g>
<g>
	<g>
		<polygon class="st2" points="101.78,259.96 77.15,245.74 77.15,221.11 101.78,235.33 		"/>
		<polygon class="st3" points="101.78,259.96 126.41,245.74 126.41,221.11 101.78,235.33 		"/>
		<polygon class="st4" points="101.87,235.4 77.15,221.13 101.69,206.83 126.41,221.1 		"/>
		<path id="矩形_00000088855608494952398400000002311391179745583034_" class="st5" d="M93.93,214.99L93.93,214.99
			c0.48,0.28,0.4,0.8-0.17,1.15l-5.11,3.03c-0.58,0.34-1.49,0.4-1.97,0.12l0,0c-0.48-0.28-0.4-0.8,0.17-1.15l5.11-3.03
			C92.54,214.77,93.45,214.72,93.93,214.99z"/>
		<path id="矩形_00000026872475116352295180000014355490184569024951_" class="st5" d="M85.42,219.93L85.42,219.93
			c0.48,0.28,0.4,0.8-0.17,1.15l-0.99,0.59c-0.58,0.34-1.49,0.4-1.97,0.12l0,0c-0.48-0.28-0.4-0.8,0.17-1.15l0.99-0.59
			C84.07,219.69,84.94,219.66,85.42,219.93z"/>
	</g>
</g>
<g>
	<g>
		<polygon class="st2" points="216.96,206.97 192.33,192.75 192.33,168.12 216.96,182.34 		"/>
		<polygon class="st3" points="216.96,206.97 241.59,192.75 241.59,168.12 216.96,182.34 		"/>
		<polygon class="st4" points="217.05,182.42 192.33,168.14 216.87,153.85 241.59,168.12 		"/>
		<path id="矩形_00000016793934877494626370000010979423684722922918_" class="st3" d="M208.8,162.41L208.8,162.41
			c0.48,0.28,0.4,0.8-0.17,1.15l-5.11,3.03c-0.58,0.34-1.49,0.4-1.97,0.12l0,0c-0.48-0.28-0.4-0.8,0.17-1.15l5.11-3.03
			C207.4,162.19,208.31,162.14,208.8,162.41z"/>
		<path id="矩形_00000002377005516393720360000012452935165688563900_" class="st3" d="M200.29,167.35L200.29,167.35
			c0.48,0.28,0.4,0.8-0.17,1.15l-0.99,0.59c-0.58,0.34-1.49,0.4-1.97,0.12l0,0c-0.48-0.28-0.4-0.8,0.17-1.15l0.99-0.59
			C198.93,167.11,199.8,167.08,200.29,167.35z"/>
	</g>
</g>
<g>
	<g>
		<polygon class="st2" points="208.99,178.96 184.36,164.74 184.36,140.11 208.99,154.33 		"/>
		<polygon class="st3" points="208.99,178.96 233.62,164.74 233.62,140.11 208.99,154.33 		"/>
		<polygon class="st4" points="209.08,154.4 184.36,140.13 208.9,125.83 233.62,140.11 		"/>
		<path id="矩形_00000056408653773368098780000010049657871872445071_" class="st5" d="M201.14,133.99L201.14,133.99
			c0.48,0.28,0.4,0.8-0.17,1.15l-5.11,3.03c-0.58,0.34-1.49,0.4-1.97,0.12l0,0c-0.48-0.28-0.4-0.8,0.17-1.15l5.11-3.03
			C199.75,133.78,200.66,133.72,201.14,133.99z"/>
		<path id="矩形_00000174590037673770117120000007064794268084279994_" class="st5" d="M192.63,138.93L192.63,138.93
			c0.48,0.28,0.4,0.8-0.17,1.15l-0.99,0.59c-0.58,0.34-1.49,0.4-1.97,0.12l0,0c-0.48-0.28-0.4-0.8,0.17-1.15l0.99-0.59
			C191.28,138.69,192.14,138.66,192.63,138.93z"/>
	</g>
</g>
<g>
	<path id="矩形_00000111165066186619097810000014031179276451376801_" class="st14" d="M171.78,193.2L171.78,193.2
		c0.62,0,1.15,0.76,1.15,1.64v1.52c0,0.88-0.53,1.64-1.15,1.64l0,0c-0.62,0-1.15-0.76-1.15-1.64v-1.52
		C170.64,193.89,171.17,193.2,171.78,193.2z"/>
	
		<radialGradient id="SVGID_1_" cx="140.2418" cy="227.3224" r="29.1582" gradientTransform="matrix(1 0 0 0.5898 0 93.2492)" gradientUnits="userSpaceOnUse">
		<stop  offset="0" style="stop-color:#B8B3D4"/>
		<stop  offset="0.3457" style="stop-color:#BAB6D6;stop-opacity:0.6543"/>
		<stop  offset="0.6064" style="stop-color:#C2C0DA;stop-opacity:0.3936"/>
		<stop  offset="0.8384" style="stop-color:#D0D0E3;stop-opacity:0.1616"/>
		<stop  offset="1" style="stop-color:#DDE0EB;stop-opacity:0"/>
	</radialGradient>
	<path style="opacity:0.67;fill:url(#SVGID_1_);" d="M165.24,213.25c-13.68-7.9-35.96-8-49.77-0.23
		c-13.81,7.77-13.91,20.48-0.23,28.37c13.68,7.9,35.96,8,49.77,0.23C178.82,233.85,178.92,221.15,165.24,213.25z"/>
	<g>
		<path class="st81" d="M178.74,177.22v-49.28c0-0.23,0.02-0.45,0.02-0.68c0-22.91-18.57-41.48-41.48-41.48
			c-22.91,0-41.48,18.57-41.48,41.48c0,0.36,0.02,0.72,0.03,1.07V173H95.8v22.67c0,2.84,2.3,5.15,5.15,5.15
			c2.84,0,5.15-2.31,5.15-5.15v-0.83c0.56,0.36,1.13,0.72,1.74,1.07c1.83,1.06,3.79,1.99,5.85,2.81v8.2c0,2.84,2.3,5.15,5.15,5.15
			s5.15-2.31,5.15-5.15v-5.23c2.95,0.57,5.99,0.96,9.06,1.14v12.59c0,2.84,2.3,5.15,5.15,5.15c2.84,0,5.15-2.31,5.15-5.15v-12.7
			c3.39-0.28,6.73-0.8,9.93-1.55v6.36c0,2.84,2.3,5.15,5.15,5.15c2.84,0,5.15-2.31,5.15-5.15v-9.87c1-0.47,1.97-0.96,2.91-1.49
			c0.7-0.39,1.35-0.8,1.99-1.21v0.71c0,2.84,2.3,5.15,5.15,5.15s5.15-2.31,5.15-5.15v-18.45H178.74z"/>
		
			<radialGradient id="SVGID_00000109001337481614585620000004453093516716738974_" cx="161.9645" cy="103.2018" r="106.6854" gradientUnits="userSpaceOnUse">
			<stop  offset="0.0124" style="stop-color:#DD78CE"/>
			<stop  offset="0.4936" style="stop-color:#A7589A"/>
			<stop  offset="0.5829" style="stop-color:#A0619E"/>
			<stop  offset="0.7273" style="stop-color:#8E79A8"/>
			<stop  offset="0.9078" style="stop-color:#709FB9"/>
			<stop  offset="1" style="stop-color:#5EB6C3"/>
		</radialGradient>
		<path style="fill:url(#SVGID_00000109001337481614585620000004453093516716738974_);" d="M178.74,177.22v-49.28
			c0-0.23,0.02-0.45,0.02-0.68c0-22.91-18.57-41.48-41.48-41.48c-22.91,0-41.48,18.57-41.48,41.48c0,0.36,0.02,0.72,0.03,1.07V173
			H95.8v22.67c0,2.84,2.3,5.15,5.15,5.15c2.84,0,5.15-2.31,5.15-5.15v-0.83c0.56,0.36,1.13,0.72,1.74,1.07
			c1.83,1.06,3.79,1.99,5.85,2.81v8.2c0,2.84,2.3,5.15,5.15,5.15s5.15-2.31,5.15-5.15v-5.23c2.95,0.57,5.99,0.96,9.06,1.14v12.59
			c0,2.84,2.3,5.15,5.15,5.15c2.84,0,5.15-2.31,5.15-5.15v-12.7c3.39-0.28,6.73-0.8,9.93-1.55v6.36c0,2.84,2.3,5.15,5.15,5.15
			c2.84,0,5.15-2.31,5.15-5.15v-9.87c1-0.47,1.97-0.96,2.91-1.49c0.7-0.39,1.35-0.8,1.99-1.21v0.71c0,2.84,2.3,5.15,5.15,5.15
			s5.15-2.31,5.15-5.15v-18.45H178.74z"/>
	</g>
	<path id="矩形_00000018199816337412311470000010228926270541777058_" class="st14" d="M99.69,163.38L99.69,163.38
		c1.12,0,2.09,1.38,2.09,2.99v14.25c0,1.61-0.96,2.99-2.09,2.99l0,0c-1.12,0-2.09-1.38-2.09-2.99v-14.25
		C97.61,164.76,98.57,163.38,99.69,163.38z"/>
	<path id="矩形_00000182490506715016386110000013570562431077265281_" class="st14" d="M160.99,100.29L160.99,100.29
		c1.37-1.02,3.68-0.37,5.02,1.41l2.29,3.06c1.34,1.78,1.31,4.19-0.06,5.22l0,0c-1.37,1.02-3.68,0.37-5.02-1.41l-2.29-3.06
		C159.5,103.59,159.63,101.31,160.99,100.29z"/>
	<path id="矩形_00000042714760272338562390000001468755523795091616_" class="st14" d="M117.09,199.96L117.09,199.96
		c1.12,0,2.09,1.38,2.09,2.99v2.76c0,1.61-0.96,2.99-2.09,2.99l0,0c-1.12,0-2.09-1.38-2.09-2.99v-2.76
		C115,201.23,115.97,199.96,117.09,199.96z"/>
	<path id="矩形_00000041261529432725137960000014277379438218197635_" class="st14" d="M99.69,188.83L99.69,188.83
		c1.12,0,2.09,1.38,2.09,2.99v2.76c0,1.61-0.96,2.99-2.09,2.99l0,0c-1.12,0-2.09-1.38-2.09-2.99v-2.76
		C97.61,190.09,98.57,188.83,99.69,188.83z"/>
	<path id="矩形_00000060030739916720626050000001491127627643860864_" class="st14" d="M137.28,208.7L137.28,208.7
		c1.12,0,2.09,1.38,2.09,2.99v2.76c0,1.61-0.96,2.99-2.09,2.99l0,0c-1.12,0-2.09-1.38-2.09-2.99v-2.76
		C135.19,209.97,136.16,208.7,137.28,208.7z"/>
	<path id="矩形_00000100363497331252533760000001511731097028983992_" class="st14" d="M156.98,203.36L156.98,203.36
		c0.89,0,1.66,1.1,1.66,2.37v2.19c0,1.28-0.76,2.37-1.66,2.37l0,0c-0.89,0-1.66-1.1-1.66-2.37v-2.19
		C155.32,204.37,156.09,203.36,156.98,203.36z"/>
	
		<ellipse transform="matrix(0.4179 -0.9085 0.9085 0.4179 -43.9456 213.9847)" class="st84" cx="145" cy="141.28" rx="11.56" ry="6.81"/>
	
		<ellipse transform="matrix(0.4179 -0.9085 0.9085 0.4179 -23.6722 229.3353)" class="st84" cx="167.12" cy="133.14" rx="11.56" ry="6.81"/>
	<g>
		<path id="形状结合_00000172434754980247320320000016621056142883029674_" class="st85" d="M147.91,130.08
			c3.6-1.88,6.46,1.24,6.4,6.88c0,0.2,0,0.4-0.01,0.6l-0.01,0.6c0.06-5.74-2.71-9-6.24-7.16c-3.53,1.84-6.4,7.94-6.46,13.78
			c-0.01,1.11,0.06,2.17,0.28,3.06c-0.38-1.1-0.6-2.49-0.58-4C141.36,138.1,144.31,131.96,147.91,130.08z"/>
		<path id="形状结合_00000150065953949367950270000005978581259847636108_" class="st86" d="M147.92,128.87
			c4-2.08,7.23,1.34,7.17,7.68c-0.07,6.34-3.41,13.2-7.41,15.28c-4,2.08-7.23-1.34-7.17-7.68
			C140.58,137.81,143.85,131,147.92,128.87z M147.91,130.08c-3.6,1.88-6.55,8.02-6.61,13.66c-0.06,5.64,2.79,8.76,6.4,6.88
			c3.6-1.88,6.55-8.02,6.61-13.66C154.37,131.32,151.44,128.24,147.91,130.08z"/>
		<path id="形状结合_00000016796317965012599370000015568424096639935935_" class="st85" d="M169.64,121.93
			c3.6-1.88,6.46,1.24,6.4,6.88c0,0.2,0,0.4-0.01,0.6l-0.01,0.6c0.06-5.74-2.71-9-6.24-7.16c-3.53,1.84-6.4,7.94-6.46,13.78
			c-0.01,1.11,0.06,2.17,0.28,3.06c-0.38-1.1-0.6-2.49-0.58-4C163.09,129.96,166.04,123.81,169.64,121.93z"/>
		<path id="形状结合_00000173860080260846260080000002816401464700022678_" class="st86" d="M169.66,120.73
			c4-2.08,7.23,1.34,7.17,7.68c-0.07,6.34-3.41,13.2-7.41,15.28c-4,2.08-7.23-1.34-7.17-7.68
			C162.31,129.66,165.58,122.85,169.66,120.73z M169.64,121.93c-3.6,1.88-6.55,8.02-6.61,13.66c-0.06,5.64,2.79,8.76,6.4,6.88
			c3.6-1.88,6.55-8.02,6.61-13.66C176.1,123.18,173.17,120.1,169.64,121.93z"/>
	</g>
	<path id="椭圆形_00000127761826024119752700000010687660588963473538_" class="st83" d="M158.46,159.12
		c2.56-1.41,4.5-5.07,4.5-6.88c0-0.72-0.35-1.18-0.87-0.97c-0.82,0.3-2.04,1.56-3.61,2.42c-1.46,0.8-2.39,0.81-3.5,1.42
		c-1.17,0.64-1.11,2.27-0.94,2.83C154.44,159.52,155.83,160.56,158.46,159.12z"/>
	<path id="椭圆形_00000053530679036469360350000005338087101569648058_" class="st84" d="M160.16,159.9
		c2.62-1.44,4.55-4.89,4.56-6.63c0-0.65-0.35-1.04-0.87-0.82c-0.82,0.3-2.1,1.59-3.67,2.45c-1.52,0.83-2.39,0.81-3.55,1.45
		c-1.17,0.64-1.11,2.2-0.94,2.68C156.08,160.48,157.53,161.35,160.16,159.9z"/>
	
		<ellipse transform="matrix(0.4179 -0.9085 0.9085 0.4179 -37.2265 216.6132)" class="st83" cx="150.41" cy="137.36" rx="4.69" ry="2.76"/>
	
		<ellipse transform="matrix(0.4179 -0.9085 0.9085 0.4179 -17.1318 231.1111)" class="st83" cx="171.78" cy="128.92" rx="4.69" ry="2.76"/>
</g>
</svg>
