<?xml version="1.0" encoding="utf-8"?>
<!-- Generator: Adobe Illustrator 27.8.1, SVG Export Plug-In . SVG Version: 6.00 Build 0)  -->
<svg version="1.1" id="Слой_1" xmlns="http://www.w3.org/2000/svg" xmlns:xlink="http://www.w3.org/1999/xlink" x="0px" y="0px"
	 viewBox="0 0 290 269.62" style="enable-background:new 0 0 290 269.62;" xml:space="preserve">
<style type="text/css">
	.st0{stroke:#000000;stroke-linecap:round;stroke-linejoin:round;stroke-miterlimit:10;}
	.st1{fill:#222846;stroke:#000000;stroke-linecap:round;stroke-linejoin:round;stroke-miterlimit:10;}
	.st2{fill-rule:evenodd;clip-rule:evenodd;stroke:#000000;stroke-linecap:round;stroke-linejoin:round;stroke-miterlimit:10;}
	
		.st3{fill-rule:evenodd;clip-rule:evenodd;fill:#222846;stroke:#000000;stroke-linecap:round;stroke-linejoin:round;stroke-miterlimit:10;}
	
		.st4{fill-rule:evenodd;clip-rule:evenodd;fill:#4A5479;stroke:#000000;stroke-linecap:round;stroke-linejoin:round;stroke-miterlimit:10;}
	.st5{fill-rule:evenodd;clip-rule:evenodd;fill:#5C6A91;}
	.st6{fill:#6D75A2;}
	.st7{stroke:#1A213A;stroke-linecap:round;stroke-linejoin:round;stroke-miterlimit:10;}
	.st8{stroke:#4A5479;stroke-linecap:round;stroke-linejoin:round;stroke-miterlimit:10;}
	.st9{fill:url(#SVGID_1_);}
	.st10{fill:url(#SVGID_00000034797870642256540970000015407092502429217416_);}
	.st11{fill:url(#SVGID_00000166677186572786530780000017727123377658377633_);}
	
		.st12{fill:none;stroke:url(#SVGID_00000169520655788005110310000013411206568411785662_);stroke-width:5;stroke-linecap:round;stroke-linejoin:round;stroke-miterlimit:10;}
	.st13{fill:url(#SVGID_00000030466814265088426080000003037741092154825887_);}
	.st14{fill-rule:evenodd;clip-rule:evenodd;fill:#1AD4B3;}
	.st15{fill-rule:evenodd;clip-rule:evenodd;fill:#FC4F83;}
	.st16{fill:#4A5479;stroke:#000000;stroke-linecap:round;stroke-linejoin:round;stroke-miterlimit:10;}
	
		.st17{fill:url(#SVGID_00000029034379355772961500000000938903519630949250_);stroke:#1D1D1B;stroke-width:0.2115;stroke-linecap:round;stroke-linejoin:round;stroke-miterlimit:10;}
	.st18{fill-rule:evenodd;clip-rule:evenodd;}
	
		.st19{fill:url(#SVGID_00000075153403947203343560000009415668741060477878_);stroke:#1D1D1B;stroke-width:0.2115;stroke-linecap:round;stroke-linejoin:round;stroke-miterlimit:10;}
	
		.st20{fill:url(#SVGID_00000103250835837763590590000007853566119534023867_);stroke:#1D1D1B;stroke-width:0.2115;stroke-linecap:round;stroke-linejoin:round;stroke-miterlimit:10;}
	
		.st21{fill:url(#SVGID_00000078732192341934817720000008363431161218738835_);stroke:#1D1D1B;stroke-width:0.2115;stroke-linecap:round;stroke-linejoin:round;stroke-miterlimit:10;}
	.st22{fill-rule:evenodd;clip-rule:evenodd;fill:url(#SVGID_00000001659081270602517780000006508634306473741484_);}
	.st23{fill-rule:evenodd;clip-rule:evenodd;fill:url(#SVGID_00000060747303826971255930000007710885322421111692_);}
	.st24{fill:url(#SVGID_00000181048913506555509540000012838118468852058787_);}
	.st25{fill:url(#SVGID_00000151540708499557503730000000146960782755332537_);}
	.st26{fill:url(#SVGID_00000127751284599278118790000016719706866039187641_);}
	
		.st27{fill-rule:evenodd;clip-rule:evenodd;fill:#4AA089;stroke:url(#SVGID_00000106848040902450674040000013194564140444406706_);stroke-linecap:round;stroke-linejoin:round;stroke-miterlimit:10;}
	
		.st28{fill-rule:evenodd;clip-rule:evenodd;fill:#4AA089;stroke:url(#SVGID_00000005965589879668775570000016845882419177403579_);stroke-linecap:round;stroke-linejoin:round;stroke-miterlimit:10;}
	
		.st29{fill:none;stroke:url(#SVGID_00000057854127674267837030000006943084346977468292_);stroke-width:5;stroke-linecap:round;stroke-linejoin:round;stroke-miterlimit:10;}
	.st30{fill:url(#SVGID_00000064348497075108360840000014032690145879416462_);}
	
		.st31{fill:none;stroke:url(#SVGID_00000026854677261135679530000010486932179809133470_);stroke-width:5;stroke-linecap:round;stroke-linejoin:round;stroke-miterlimit:10;}
	.st32{fill:url(#SVGID_00000080889088179454445540000007484044308097008545_);}
	
		.st33{fill:none;stroke:url(#SVGID_00000064322305865746685390000018063692251095699351_);stroke-width:5;stroke-linecap:round;stroke-linejoin:round;stroke-miterlimit:10;}
	.st34{fill:url(#SVGID_00000109029932266238182800000000159722203110814888_);}
	.st35{fill:#4A5479;}
	
		.st36{fill-rule:evenodd;clip-rule:evenodd;fill:#1AD4B3;stroke:#111422;stroke-linecap:round;stroke-linejoin:round;stroke-miterlimit:10;}
	
		.st37{fill-rule:evenodd;clip-rule:evenodd;fill:#4AA089;stroke:url(#SVGID_00000090293335690891182670000014343788879850333339_);stroke-linecap:round;stroke-linejoin:round;stroke-miterlimit:10;}
	.st38{fill:#FFFFFF;}
	
		.st39{fill-rule:evenodd;clip-rule:evenodd;fill:#FC4F83;stroke:#111422;stroke-linecap:round;stroke-linejoin:round;stroke-miterlimit:10;}
	
		.st40{fill-rule:evenodd;clip-rule:evenodd;fill:#CB3D61;stroke:#000000;stroke-linecap:round;stroke-linejoin:round;stroke-miterlimit:10;}
	.st41{fill:url(#SVGID_00000039826783480675362460000004610779241324631432_);}
	.st42{fill:url(#SVGID_00000144316753220924548150000000847706359990324632_);}
	.st43{fill:url(#SVGID_00000015316568011244543330000017355100372680426121_);}
	
		.st44{fill:none;stroke:url(#SVGID_00000167377026345103609140000002229928243938188934_);stroke-width:5;stroke-linecap:round;stroke-linejoin:round;stroke-miterlimit:10;}
	.st45{fill:url(#SVGID_00000011734891376324463080000011039970222950309535_);}
	
		.st46{fill:none;stroke:url(#SVGID_00000091699430810821626980000000297252425050111149_);stroke-width:5;stroke-linecap:round;stroke-linejoin:round;stroke-miterlimit:10;}
	.st47{fill:url(#SVGID_00000127011989490566654410000014660352676227952544_);}
	.st48{fill:url(#SVGID_00000111884627328976911600000010114842931803483814_);}
	.st49{fill:#222846;}
	.st50{fill:url(#SVGID_00000008114320761851495750000012128900352783910289_);}
	.st51{fill:url(#SVGID_00000182506397796883537180000017670719073241895352_);}
	.st52{fill:url(#SVGID_00000009592567842432134830000009838409121935350422_);}
	.st53{fill:url(#SVGID_00000003793800592771481080000018279960782998042781_);}
	.st54{fill:url(#SVGID_00000169519404884885724730000008620382060437496962_);}
	.st55{fill:url(#SVGID_00000015333839319168590410000003929105260953983383_);}
	.st56{fill-rule:evenodd;clip-rule:evenodd;fill:#6D75A2;}
	.st57{fill-rule:evenodd;clip-rule:evenodd;fill:#4A5479;}
	.st58{opacity:0.29;fill:url(#SVGID_00000096771726363502781380000003700874618204825502_);enable-background:new    ;}
	.st59{fill:url(#SVGID_00000183940984903782762290000015381963648226659461_);}
	.st60{fill:url(#SVGID_00000015317896303423353510000008818219226459936641_);}
	.st61{fill:url(#SVGID_00000039822061966795419340000015668184562353842822_);}
	.st62{fill-rule:evenodd;clip-rule:evenodd;fill:url(#SVGID_00000096771014795780192800000007601632789461076100_);}
	.st63{fill:url(#SVGID_00000048461612678862925570000015776676882267456444_);}
	.st64{fill:url(#SVGID_00000119114944039558889440000007843769708062496947_);}
	.st65{fill:url(#SVGID_00000023960909357181741560000014269854878640638850_);}
	.st66{fill:url(#SVGID_00000110438867946195410160000006799131994973550221_);}
	.st67{opacity:0.29;fill:url(#SVGID_00000000903028899320725370000017707585338082807467_);enable-background:new    ;}
	.st68{fill-rule:evenodd;clip-rule:evenodd;fill:#222846;}
	
		.st69{fill:none;stroke:url(#SVGID_00000084500521049501420690000016365714985292214706_);stroke-width:5;stroke-linecap:round;stroke-linejoin:round;stroke-miterlimit:10;}
	.st70{fill:url(#SVGID_00000000207057794632864220000013671057190905210007_);}
	
		.st71{fill:none;stroke:url(#SVGID_00000096750954458053271010000004728071975134776226_);stroke-width:5;stroke-linecap:round;stroke-linejoin:round;stroke-miterlimit:10;}
	.st72{fill:url(#SVGID_00000093886831026898576280000013972390461634785688_);}
	
		.st73{fill:none;stroke:url(#SVGID_00000077316565332809098740000015035342475601329808_);stroke-width:5;stroke-linecap:round;stroke-linejoin:round;stroke-miterlimit:10;}
	.st74{fill:url(#SVGID_00000083770759419186897840000011216143149557699244_);}
	
		.st75{fill-rule:evenodd;clip-rule:evenodd;fill:#4AA089;stroke:url(#SVGID_00000072983247528133029250000008995671331845992870_);stroke-linecap:round;stroke-linejoin:round;stroke-miterlimit:10;}
	.st76{fill-rule:evenodd;clip-rule:evenodd;fill:url(#SVGID_00000085969816871933144460000013739124468012272046_);}
	.st77{fill:url(#SVGID_00000183937881202397034020000003307404161815586212_);}
	.st78{fill:url(#SVGID_00000152252051346728766580000011991146274832321675_);}
	.st79{fill:url(#SVGID_00000168095356615205546470000000237142938917446794_);}
	.st80{opacity:0.29;fill:url(#SVGID_00000091722837626151793930000007620019579368853948_);}
	.st81{opacity:0.29;fill:url(#SVGID_00000109740742609034014520000003777559780442014394_);}
	.st82{opacity:0.2563;fill-rule:evenodd;clip-rule:evenodd;fill:#FFFFFF;enable-background:new    ;}
	.st83{opacity:0.67;fill:url(#SVGID_00000008867792338428807280000005707727755779108492_);}
	.st84{fill:#3FA9BD;}
	.st85{fill:url(#SVGID_00000036971546025168019290000001424757581419411086_);}
	.st86{fill-rule:evenodd;clip-rule:evenodd;fill:#555069;}
	.st87{fill-rule:evenodd;clip-rule:evenodd;fill:#FFFFFF;}
	.st88{fill-rule:evenodd;clip-rule:evenodd;fill:#AFAFB1;}
	.st89{fill-rule:evenodd;clip-rule:evenodd;fill:#D3D3D3;}
	.st90{opacity:0.67;fill:url(#SVGID_00000065760484659348128520000008347824371048704128_);}
	.st91{fill:url(#SVGID_00000007396049700679981150000005621231341392054683_);}
	.st92{opacity:0.67;fill:url(#SVGID_00000098206337077061701940000014680063107727254951_);}
	.st93{fill:url(#SVGID_00000162339762760128690250000017015838873019691394_);}
	.st94{opacity:0.67;fill:url(#SVGID_00000124840017407619697170000011453340863086878350_);}
	.st95{fill:url(#SVGID_00000062192931831422014310000009421663275828875178_);}
	.st96{opacity:0.67;fill:url(#SVGID_00000135672882855019915410000017533820388069951885_);}
	.st97{fill:url(#SVGID_00000041978914683606788730000005839569569674125698_);}
	.st98{opacity:0.67;fill:url(#SVGID_00000013153115495481565310000001715586804454410398_);}
	.st99{fill:url(#SVGID_00000124158187223380252000000003606580736564895899_);}
	.st100{fill:#1AD4B3;}
	.st101{opacity:0.67;fill:url(#SVGID_00000132795424008967214480000003091109578150634153_);}
	.st102{fill:url(#SVGID_00000039848470760535013830000017332818961652853948_);}
	.st103{opacity:0.67;fill:url(#SVGID_00000031923934758448381660000000731037828016679045_);}
	.st104{fill:url(#SVGID_00000134233581471857998370000009486662006211200907_);}
	.st105{opacity:0.67;fill:url(#SVGID_00000137825493395444409970000003925231979968136338_);}
	.st106{fill:url(#SVGID_00000164480871707758656230000006967332046205841804_);}
	.st107{opacity:0.67;fill:url(#SVGID_00000043453932728901211830000011605994962393094305_);}
	.st108{fill:url(#SVGID_00000049209376397038267150000005769664483681198485_);}
	.st109{opacity:0.67;fill:url(#SVGID_00000064318350701595651310000005045509203356448139_);}
	.st110{fill:url(#SVGID_00000168087286405719232860000003658925970274658229_);}
	.st111{opacity:0.67;fill:url(#SVGID_00000082346889242210173260000013227843105326955955_);}
	.st112{fill:url(#SVGID_00000114779649618212298020000006631704011325425325_);}
	
		.st113{fill-rule:evenodd;clip-rule:evenodd;fill:none;stroke:#FFFFFF;stroke-width:0.7384;stroke-linecap:round;stroke-linejoin:round;stroke-miterlimit:10;}
	.st114{opacity:0.67;fill:url(#SVGID_00000098931764530183453130000009058680586811461261_);}
	.st115{fill:url(#SVGID_00000155843387581378346770000001498357986999872179_);}
	.st116{opacity:0.67;fill:url(#SVGID_00000041269702513514979130000006608882074667954621_);}
	.st117{fill:url(#SVGID_00000097484862888470123440000003163572067884438462_);}
	.st118{opacity:0.67;fill:url(#SVGID_00000005989472683838542100000007690977048358569857_);}
	.st119{fill:url(#SVGID_00000075156824598506974590000003090130790734685057_);}
	.st120{opacity:0.67;fill:url(#SVGID_00000180328304578193435590000011443742074040039307_);}
	.st121{fill:url(#SVGID_00000080929259051828187750000010028142110549576604_);}
	.st122{opacity:0.67;fill:url(#SVGID_00000013877583579290885790000010027924503816765073_);}
	.st123{fill:url(#SVGID_00000028297799597580175990000008434130658325713280_);}
	.st124{opacity:0.67;fill:url(#SVGID_00000066518117993579840460000006782245334338558649_);}
	.st125{fill:url(#SVGID_00000097470113946846234740000015275521797337204894_);}
	.st126{opacity:0.67;fill:url(#SVGID_00000061468039291566513160000007502921362264042123_);}
	.st127{fill:url(#SVGID_00000103235134987248322080000008396808550999448996_);}
	.st128{opacity:0.67;fill:url(#SVGID_00000171714839765475823730000006111025435850251432_);}
	.st129{fill:url(#SVGID_00000078022464499597762460000000137192785335084190_);}
	.st130{opacity:0.67;fill:url(#SVGID_00000055708559213645634100000009142271915125259161_);enable-background:new    ;}
	.st131{fill:#5EA6B9;}
	.st132{fill:url(#SVGID_00000080196957846929813090000013873295310933553551_);}
	.st133{fill-rule:evenodd;clip-rule:evenodd;fill:#545067;}
	.st134{fill-rule:evenodd;clip-rule:evenodd;fill:#AEAEB0;}
	.st135{fill-rule:evenodd;clip-rule:evenodd;fill:#D2D2D2;}
	.st136{opacity:0.67;fill:url(#SVGID_00000079471060693848738930000004220804433043494585_);enable-background:new    ;}
	.st137{fill:url(#SVGID_00000169545926196065914160000013447311757138887071_);}
	.st138{fill-rule:evenodd;clip-rule:evenodd;fill:#63D0B3;}
	
		.st139{fill-rule:evenodd;clip-rule:evenodd;fill:none;stroke:#000000;stroke-linecap:round;stroke-linejoin:round;stroke-miterlimit:10;}
	.st140{fill-rule:evenodd;clip-rule:evenodd;fill:#E85C83;}
	
		.st141{fill-rule:evenodd;clip-rule:evenodd;fill:#4AA089;stroke:url(#SVGID_00000168811409569209472010000014245868915360454540_);stroke-linecap:round;stroke-linejoin:round;stroke-miterlimit:10;}
	.st142{fill:#5DC29D;}
	.st143{fill:url(#SVGID_00000003791655948934929420000012494294375846441407_);}
	.st144{fill:url(#SVGID_00000145056651108919251870000004912987732525957557_);}
	.st145{fill:#E85C83;}
	.st146{opacity:0.67;fill:url(#SVGID_00000142141090365800138910000008506655088856265106_);enable-background:new    ;}
	.st147{fill:url(#SVGID_00000016782700703456708390000002569774061551620006_);}
	
		.st148{fill:none;stroke:url(#SVGID_00000034055816702283322460000008560144481398836668_);stroke-width:5;stroke-linecap:round;stroke-linejoin:round;stroke-miterlimit:10;}
	.st149{fill:url(#SVGID_00000004508607084149373790000008573264665252398768_);}
	.st150{opacity:0.67;fill:url(#SVGID_00000170981219495806839890000001351103819577179528_);enable-background:new    ;}
	.st151{fill:url(#SVGID_00000079465305127304887380000016477019605385020574_);}
	.st152{opacity:0.67;fill:url(#SVGID_00000099627392006682191740000000162498397923348630_);}
	.st153{fill:url(#SVGID_00000092425693837352346910000001440543043494969496_);}
	.st154{opacity:0.67;fill:url(#SVGID_00000160880587897144461870000003733126865290149040_);}
	.st155{fill:url(#SVGID_00000005975251573029846890000014292074764015724703_);}
	.st156{opacity:0.67;fill:url(#SVGID_00000123408315347267651300000002524220308696351140_);}
	.st157{fill:url(#SVGID_00000121277025956552145950000015720374533115467449_);}
	.st158{opacity:0.67;fill:url(#SVGID_00000148621905032048294280000009432429205061145001_);}
	.st159{fill:url(#SVGID_00000111871057812046289710000007643164952024348350_);}
	.st160{opacity:0.67;fill:url(#SVGID_00000112616052625656056500000005191326649983890323_);}
	.st161{fill:url(#SVGID_00000170992543360383551250000013111651796760366471_);}
	.st162{fill:none;stroke:#000000;stroke-width:22;stroke-linecap:round;stroke-linejoin:round;stroke-miterlimit:10;}
	.st163{fill:url(#SVGID_00000038393965317311597390000011265359059910116498_);}
	.st164{fill:url(#SVGID_00000117668705180839894380000012184128048607588002_);}
	.st165{fill:none;stroke:url(#SVGID_00000031194476267739690470000015735511878122535569_);stroke-width:5;stroke-miterlimit:10;}
	.st166{fill:url(#SVGID_00000057150590754106573580000010596368611275140737_);}
	.st167{fill:none;}
	.st168{opacity:0.67;fill:url(#SVGID_00000173128777753070572770000003000156265028171144_);}
	.st169{fill:url(#SVGID_00000176015115047464915890000016640790206102331025_);}
	.st170{fill:none;stroke:url(#SVGID_00000127752054059953301020000013204813975541503142_);stroke-width:5;stroke-miterlimit:10;}
	.st171{fill:url(#SVGID_00000031206363326004017280000004590375417266013316_);}
	.st172{opacity:0.67;fill:url(#SVGID_00000005978258697345321460000015188061377131055779_);}
	.st173{fill:url(#SVGID_00000051365525180753035770000000758871542783397556_);}
	.st174{opacity:0.67;fill:url(#SVGID_00000151519380336576325640000001755986229977029037_);}
	.st175{fill:url(#SVGID_00000116221034933466719200000008823687327653584782_);}
	.st176{opacity:0.67;fill:url(#SVGID_00000165216735049483684040000000035193905984692134_);}
	.st177{fill:url(#SVGID_00000101784470708437424700000002670991400054407564_);}
</style>
<g>
	<g>
		
			<linearGradient id="SVGID_1_" gradientUnits="userSpaceOnUse" x1="475.5419" y1="-384.5466" x2="521.7158" y2="-384.5466" gradientTransform="matrix(0.763 0.4367 0 1 -128.224 236.2805)">
			<stop  offset="0" style="stop-color:#B4509C"/>
			<stop  offset="1" style="stop-color:#54B8C5"/>
		</linearGradient>
		
			<polygon style="fill:none;stroke:url(#SVGID_1_);stroke-width:5;stroke-linecap:round;stroke-linejoin:round;stroke-miterlimit:10;" points="
			267.96,108.37 236.54,90.39 236.54,30.55 267.96,48.53 		"/>
	</g>
	<g>
		<polygon class="st1" points="267.96,108.03 236.54,90.05 236.54,30.21 267.96,48.19 		"/>
	</g>
	<g>
		<g>
			<path class="st6" d="M244.05,47.67l-1.5-0.86l-1.45-5.99l1.35,0.77l0.85,3.96l0.85-2.99l1.35,0.77L244.05,47.67z"/>
			<path class="st6" d="M249.2,49.96c-0.41,0.26-0.92,0.22-1.54-0.13c-0.61-0.35-1.13-0.89-1.54-1.63
				c-0.41-0.73-0.62-1.49-0.62-2.28c0-0.78,0.21-1.31,0.62-1.57c0.41-0.26,0.92-0.22,1.54,0.13c0.61,0.35,1.13,0.89,1.54,1.63
				c0.41,0.73,0.62,1.49,0.62,2.28C249.81,49.17,249.61,49.69,249.2,49.96z M246.98,47.68c0.18,0.35,0.4,0.6,0.68,0.76
				c0.28,0.16,0.51,0.17,0.68,0.02c0.18-0.15,0.26-0.4,0.26-0.77c0-0.37-0.09-0.72-0.26-1.07c-0.18-0.35-0.4-0.6-0.68-0.76
				c-0.28-0.16-0.51-0.17-0.68-0.02c-0.18,0.15-0.26,0.4-0.26,0.77C246.71,46.98,246.8,47.34,246.98,47.68z"/>
			<path class="st6" d="M252.27,52.37l-1.19-0.68v-3.8l-1.06-0.6v-1.36l3.3,1.89v1.36l-1.05-0.6V52.37z"/>
			<path class="st6" d="M254.94,53.9l-1.19-0.68v-5.16l1.19,0.68V53.9z"/>
			<path class="st6" d="M259.37,56.43l-1.15-0.66l-1.45-3.45v2.62l-1.19-0.68V49.1l1.23,0.7l1.37,3.23v-2.45l1.19,0.68V56.43z"/>
			<path class="st6" d="M261.96,58.01c-0.61-0.35-1.13-0.89-1.54-1.61c-0.42-0.73-0.62-1.49-0.62-2.29s0.21-1.33,0.62-1.58
				c0.42-0.25,0.93-0.2,1.54,0.15c0.43,0.25,0.79,0.58,1.08,1.01c0.29,0.42,0.5,0.87,0.65,1.33l-1,0.1
				c-0.06-0.21-0.16-0.42-0.29-0.62c-0.13-0.2-0.27-0.35-0.44-0.44c-0.28-0.16-0.51-0.17-0.69-0.02c-0.18,0.15-0.27,0.4-0.27,0.77
				c0,0.37,0.09,0.72,0.27,1.07c0.18,0.35,0.41,0.6,0.69,0.77c0.11,0.06,0.22,0.11,0.34,0.13c0.12,0.02,0.21,0.02,0.27-0.01v-0.19
				l-0.73-0.42v-1.36l1.92,1.1V58C263.28,58.42,262.68,58.42,261.96,58.01z"/>
			<path class="st6" d="M242.83,54.34l-1.25-0.72V48.2l2.21,1.26c0.47,0.27,0.83,0.65,1.1,1.16c0.26,0.51,0.39,1.02,0.39,1.56
				c0,0.53-0.13,0.89-0.39,1.1c-0.26,0.2-0.63,0.17-1.1-0.09l-0.96-0.55V54.34z M243.62,51.66c0.11,0.06,0.2,0.08,0.27,0.05
				c0.07-0.03,0.11-0.12,0.11-0.25c0-0.14-0.04-0.27-0.11-0.38c-0.07-0.11-0.16-0.2-0.27-0.27l-0.79-0.45v0.85L243.62,51.66z"/>
			<path class="st6" d="M249.34,57.38c-0.43,0.28-0.97,0.23-1.62-0.14c-0.65-0.37-1.18-0.94-1.62-1.71
				c-0.43-0.77-0.65-1.57-0.65-2.39c0-0.82,0.22-1.37,0.65-1.65c0.43-0.28,0.97-0.23,1.62,0.14s1.18,0.94,1.62,1.71
				c0.43,0.77,0.65,1.57,0.65,2.39C249.99,56.56,249.78,57.11,249.34,57.38z M247.01,54.99c0.18,0.37,0.42,0.63,0.72,0.8
				c0.29,0.17,0.53,0.17,0.72,0.02c0.18-0.16,0.28-0.42,0.28-0.81c0-0.39-0.09-0.76-0.28-1.13c-0.18-0.37-0.42-0.63-0.72-0.8
				c-0.29-0.17-0.53-0.17-0.72-0.02c-0.18,0.15-0.28,0.42-0.28,0.81C246.73,54.25,246.83,54.63,247.01,54.99z"/>
			<path class="st6" d="M254.91,61.26l-1.32-0.75l-0.53-3.38l-0.53,2.77l-1.32-0.75l-1.19-6.1l1.4,0.8l0.53,3.62l0.63-2.96
				l0.94,0.54l0.63,3.68l0.53-3.02l1.41,0.81L254.91,61.26z"/>
			<path class="st6" d="M259.5,63.88l-3.14-1.8v-5.43l3.14,1.8v1.43l-1.89-1.08v0.54l1.84,1.05v1.43l-1.84-1.05v0.59l1.89,1.08
				V63.88z"/>
			<path class="st6" d="M263.76,66.32l-1.43-0.82l-0.57-2.03l-0.45-0.26v1.71l-1.25-0.72v-5.43l2.21,1.26
				c0.47,0.27,0.83,0.65,1.1,1.16c0.26,0.51,0.39,1.02,0.39,1.56c0,0.42-0.07,0.73-0.22,0.92c-0.15,0.19-0.32,0.29-0.52,0.3
				L263.76,66.32z M262.08,62.22c0.12,0.07,0.21,0.09,0.29,0.06c0.08-0.03,0.12-0.11,0.12-0.25c0-0.14-0.04-0.26-0.12-0.38
				c-0.08-0.12-0.18-0.21-0.29-0.28l-0.76-0.44v0.85L262.08,62.22z"/>
		</g>
	</g>
	
		<linearGradient id="SVGID_00000083783454718275503850000005416090574192383409_" gradientUnits="userSpaceOnUse" x1="507.9435" y1="-367.1674" x2="489.3534" y2="-382.8091" gradientTransform="matrix(0.763 0.4367 0 1 -128.224 236.2805)">
		<stop  offset="0" style="stop-color:#C1489F"/>
		<stop  offset="1" style="stop-color:#55BAC7"/>
	</linearGradient>
	<path style="fill:url(#SVGID_00000083783454718275503850000005416090574192383409_);" d="M252.25,66.51
		c-5.26-3.01-9.53,0.14-9.53,7.04s4.27,14.94,9.53,17.95c5.26,3.01,9.53-0.14,9.53-7.04S257.51,69.52,252.25,66.51z M256.3,87.16
		c-0.1,0.09-0.25,0.07-0.43-0.03c-0.12-0.07-0.23-0.19-0.33-0.34c-0.1-0.15-0.17-0.33-0.23-0.52l-3.07-11.75l-1.13,3.03l0.55,0.31
		c0.32,0.18,0.58,0.67,0.58,1.09v0.02c0,0.41-0.26,0.61-0.58,0.43l-1.02-0.58l-1.47,3.95c-0.05,0.13-0.13,0.22-0.23,0.25
		c-0.09,0.04-0.21,0.02-0.33-0.05c-0.18-0.1-0.33-0.26-0.43-0.46c-0.1-0.2-0.16-0.42-0.16-0.66c0-0.1,0.01-0.19,0.04-0.27l1.34-3.47
		l-0.57-0.33c-0.32-0.18-0.58-0.67-0.58-1.09v-0.01c0-0.41,0.26-0.61,0.58-0.43l1.06,0.61l1.4-3.65c0.18-0.43,0.45-0.53,0.81-0.33
		l0.28,0.16c0.35,0.2,0.63,0.62,0.81,1.25l3.22,12.06c0.03,0.11,0.04,0.21,0.04,0.32C256.46,86.92,256.4,87.07,256.3,87.16z"/>
</g>
<g>
	<g>
		<polygon class="st0" points="44.88,129.31 22.3,117.02 22.3,82.9 149.99,14.97 172.39,24.2 169.21,46.19 176.21,54.75 
			168.66,59.04 161.21,54.44 154.81,66.9 149.88,63.94 132.9,79.34 124.05,73.85 116.45,88.68 107.38,83.35 100.89,97.51 
			90.8,89.52 84.73,101.89 71.29,109.78 62.22,103.6 49.62,112.96 51.83,125.36 		"/>
		<path class="st1" d="M92.79,84.26c0,3.97-0.56,7.64-1.66,10.99c-1.11,3.35-2.61,6.27-4.49,8.74c-1.88,2.47-3.98,4.36-6.3,5.68
			c-2.33,1.32-4.44,1.82-6.32,1.47s-3.37-1.56-4.48-3.66c-1.1-2.1-1.66-5.12-1.66-9.07c0-3.97,0.55-7.63,1.66-10.99
			c1.1-3.35,2.6-6.26,4.48-8.73C75.9,76.22,78,74.32,80.34,73c2.32-1.32,4.42-1.81,6.3-1.48c1.88,0.33,3.38,1.54,4.49,3.64
			C92.24,77.25,92.79,80.29,92.79,84.26z M85.64,88.32c0-2.14-0.2-3.83-0.61-5.07c-0.4-1.24-1-2.01-1.79-2.33
			c-0.79-0.31-1.76-0.14-2.91,0.51c-1.15,0.65-2.12,1.58-2.91,2.79c-0.79,1.21-1.38,2.66-1.79,4.36c-0.4,1.7-0.61,3.62-0.61,5.76
			c0,2.14,0.2,3.83,0.61,5.07c0.4,1.24,1,2.02,1.79,2.33c0.79,0.31,1.76,0.14,2.91-0.51c1.15-0.65,2.12-1.58,2.91-2.79
			c0.79-1.21,1.38-2.66,1.79-4.36C85.44,92.38,85.64,90.46,85.64,88.32z"/>
		<path class="st1" d="M100.89,97.51l-7.55-31.4l7.75-4.4l3.5,19.97l0.2-0.11l4.15-24.32l6.1-3.46l4.15,19.67l0.2-0.11l3.5-24.01
			l7.75-4.4L123.1,84.9l-6.65,3.78l-4.35-17.47l-0.2,0.11l-4.35,22.41L100.89,97.51z"/>
		<path class="st1" d="M132.9,79.34V43.65l18.45-10.48v7.81l-11.5,6.53v6.14l10.55-5.99v7.81l-10.55,5.99v6.13l11.45-6.5v7.81
			L132.9,79.34z"/>
		<path class="st1" d="M60.92,86.08c-1.43-0.24-3.09,0.19-4.99,1.26l-11.05,6.28v35.69l6.95-3.95v-10.6l3.85-2.18
			c1.95-1.11,3.66-2.58,5.12-4.42c1.46-1.84,2.6-3.93,3.41-6.26c0.81-2.33,1.22-4.78,1.22-7.33c0-2.53-0.4-4.52-1.19-5.97
			C63.45,87.16,62.35,86.32,60.92,86.08z M57.71,101.58c-0.31,0.92-0.76,1.75-1.34,2.48c-0.58,0.73-1.28,1.33-2.09,1.79l-2.45,1.39
			v-9.83l2.45-1.39c0.82-0.46,1.52-0.67,2.09-0.6c0.58,0.06,1.03,0.36,1.34,0.91c0.31,0.55,0.47,1.33,0.47,2.36
			C58.18,99.69,58.03,100.66,57.71,101.58z"/>
		<path class="st1" d="M168.66,59.04l7.55-4.29l-5.21-10.37c1.33-1.64,2.38-3.48,3.14-5.55c0.81-2.22,1.22-4.6,1.22-7.16
			c0-2.53-0.4-4.48-1.19-5.84c-0.79-1.36-1.9-2.12-3.33-2.28c-1.43-0.16-3.09,0.31-4.99,1.39l-11.05,6.27V66.9l6.95-3.95V51.18
			l2.41-1.37L168.66,59.04z M161.76,35l2.45-1.39c0.82-0.46,1.52-0.71,2.09-0.73c0.58-0.02,1.03,0.2,1.34,0.67
			c0.31,0.47,0.47,1.21,0.47,2.24c0,1.01-0.16,1.92-0.47,2.72c-0.31,0.81-0.76,1.51-1.34,2.13c-0.58,0.61-1.28,1.16-2.09,1.62
			l-2.45,1.39V35z"/>
	</g>
	<polygon class="st16" points="22.3,82.9 44.88,93.62 168.11,23.91 170.85,23.55 149.99,14.97 	"/>
</g>
<g>
	<g>
		<polygon class="st2" points="203.34,155 168.95,135.14 168.95,100.74 203.34,120.6 		"/>
		<polygon class="st3" points="203.34,155 237.74,135.14 237.74,100.74 203.34,120.6 		"/>
		<polygon class="st4" points="203.47,120.71 168.95,100.78 203.22,80.81 237.74,100.74 		"/>
		<path id="矩形_00000071533566136864949720000017614019122046767779_" class="st5" d="M192.26,92.37L192.26,92.37
			c0.68,0.38,0.56,1.12-0.24,1.6l-7.14,4.22c-0.81,0.48-2.08,0.56-2.75,0.17l0,0c-0.68-0.38-0.56-1.12,0.24-1.6l7.14-4.22
			C190.32,92.06,191.59,91.98,192.26,92.37z"/>
		<path id="矩形_00000148655270495133407650000016292293133908033928_" class="st5" d="M180.38,99.27L180.38,99.27
			c0.68,0.38,0.56,1.12-0.24,1.6l-1.38,0.82c-0.81,0.48-2.08,0.56-2.75,0.17l0,0c-0.68-0.38-0.56-1.12,0.24-1.6l1.38-0.82
			C178.49,98.93,179.7,98.88,180.38,99.27z"/>
	</g>
</g>
<g>
	<g>
		<polygon class="st2" points="199.3,107.99 174.67,93.77 174.67,69.14 199.3,83.36 		"/>
		<polygon class="st3" points="199.3,107.99 223.93,93.77 223.93,69.14 199.3,83.36 		"/>
		<polygon class="st4" points="199.39,83.43 174.67,69.16 199.21,54.86 223.93,69.13 		"/>
		<path id="矩形_00000067237531403813401990000007161575344428374456_" class="st5" d="M191.45,63.02L191.45,63.02
			c0.48,0.28,0.4,0.8-0.17,1.15l-5.11,3.03c-0.58,0.34-1.49,0.4-1.97,0.12l0,0c-0.48-0.28-0.4-0.8,0.17-1.15l5.11-3.03
			C190.06,62.8,190.97,62.75,191.45,63.02z"/>
		<path id="矩形_00000172439455273169900730000003788602527012485021_" class="st5" d="M182.94,67.96L182.94,67.96
			c0.48,0.28,0.4,0.8-0.17,1.15l-0.99,0.59c-0.58,0.34-1.49,0.4-1.97,0.12l0,0c-0.48-0.28-0.4-0.8,0.17-1.15l0.99-0.59
			C181.59,67.72,182.46,67.69,182.94,67.96z"/>
	</g>
</g>
<g>
	<g>
		<polygon class="st2" points="245.17,159.61 220.54,145.39 220.54,120.76 245.17,134.98 		"/>
		<polygon class="st3" points="245.17,159.61 269.8,145.39 269.8,120.76 245.17,134.98 		"/>
		<polygon class="st4" points="245.26,135.05 220.54,120.78 245.08,106.48 269.8,120.75 		"/>
		<path id="矩形_00000116923982106843508210000010645689925394138284_" class="st5" d="M237.33,114.64L237.33,114.64
			c0.48,0.28,0.4,0.8-0.17,1.15l-5.11,3.03c-0.58,0.34-1.49,0.4-1.97,0.12l0,0c-0.48-0.28-0.4-0.8,0.17-1.15l5.11-3.03
			C235.93,114.42,236.84,114.37,237.33,114.64z"/>
		<path id="矩形_00000116227473572927087900000008942256424761030057_" class="st5" d="M228.81,119.58L228.81,119.58
			c0.48,0.28,0.4,0.8-0.17,1.15l-0.99,0.59c-0.58,0.34-1.49,0.4-1.97,0.12l0,0c-0.48-0.28-0.4-0.8,0.17-1.15l0.99-0.59
			C227.46,119.34,228.33,119.31,228.81,119.58z"/>
	</g>
</g>
<g>
	<g>
		<polygon class="st2" points="56.08,234.01 31.45,219.79 31.45,195.16 56.08,209.38 		"/>
		<polygon class="st3" points="56.08,234.01 80.71,219.79 80.71,195.16 56.08,209.38 		"/>
		<polygon class="st4" points="56.17,209.46 31.45,195.18 56,180.88 80.72,195.16 		"/>
		<path id="矩形_00000170982840724012628400000017603476856356239242_" class="st5" d="M48.24,189.04L48.24,189.04
			c0.48,0.28,0.4,0.8-0.17,1.15l-5.11,3.03c-0.58,0.34-1.49,0.4-1.97,0.12l0,0c-0.48-0.28-0.4-0.8,0.17-1.15l5.11-3.03
			C46.84,188.83,47.75,188.77,48.24,189.04z"/>
		<path id="矩形_00000034789922945337747170000004786810676651890076_" class="st5" d="M39.73,193.98L39.73,193.98
			c0.48,0.28,0.4,0.8-0.17,1.15l-0.99,0.59c-0.58,0.34-1.49,0.4-1.97,0.12l0,0c-0.48-0.28-0.4-0.8,0.17-1.15l0.99-0.59
			C38.37,193.74,39.24,193.71,39.73,193.98z"/>
	</g>
</g>
<g>
	<g>
		<polygon class="st2" points="58.18,202.25 33.55,188.03 33.55,163.4 58.18,177.62 		"/>
		<polygon class="st3" points="58.18,202.25 82.81,188.03 82.81,163.4 58.18,177.62 		"/>
		<polygon class="st4" points="58.27,177.7 33.55,163.43 58.09,149.13 82.81,163.4 		"/>
		<path id="矩形_00000103233851201207027030000016206408251759671182_" class="st5" d="M50.33,157.29L50.33,157.29
			c0.48,0.28,0.4,0.8-0.17,1.15l-5.11,3.03c-0.58,0.34-1.49,0.4-1.97,0.12l0,0c-0.48-0.28-0.4-0.8,0.17-1.15l5.11-3.03
			C48.94,157.07,49.85,157.01,50.33,157.29z"/>
		<path id="矩形_00000119098720750697630430000017452137009090544825_" class="st5" d="M41.82,162.23L41.82,162.23
			c0.48,0.28,0.4,0.8-0.17,1.15l-0.99,0.59c-0.58,0.34-1.49,0.4-1.97,0.12l0,0c-0.48-0.28-0.4-0.8,0.17-1.15l0.99-0.59
			C40.47,161.99,41.34,161.95,41.82,162.23z"/>
	</g>
</g>
<g>
	<g>
		<path id="矩形_00000009591785655471828430000014275214618500428440_" class="st82" d="M175.9,186.22L175.9,186.22
			c0.62,0,1.15,0.76,1.15,1.64v1.52c0,0.88-0.53,1.64-1.15,1.64l0,0c-0.62,0-1.15-0.76-1.15-1.64v-1.52
			C174.75,186.92,175.28,186.22,175.9,186.22z"/>
		
			<radialGradient id="SVGID_00000106869181190560715800000011394329997602251450_" cx="144.3555" cy="220.3475" r="29.1582" gradientTransform="matrix(1 0 0 0.5898 0 90.388)" gradientUnits="userSpaceOnUse">
			<stop  offset="0" style="stop-color:#06070C"/>
			<stop  offset="1" style="stop-color:#0D101D;stop-opacity:0"/>
		</radialGradient>
		<path style="opacity:0.67;fill:url(#SVGID_00000106869181190560715800000011394329997602251450_);" d="M169.35,206.27
			c-13.68-7.9-35.96-8-49.77-0.23s-13.91,20.48-0.23,28.37c13.68,7.9,35.96,8,49.77,0.23C182.93,226.87,183.03,214.17,169.35,206.27
			z"/>
		<g>
			<path class="st84" d="M182.86,170.25v-49.28c0-0.23,0.02-0.45,0.02-0.68c0-22.91-18.57-41.48-41.48-41.48
				c-22.91,0-41.48,18.57-41.48,41.48c0,0.36,0.02,0.72,0.03,1.07v44.66h-0.03v22.67c0,2.84,2.3,5.15,5.15,5.15
				c2.84,0,5.15-2.31,5.15-5.15v-0.83c0.56,0.36,1.13,0.72,1.74,1.07c1.83,1.06,3.79,1.99,5.85,2.81v8.2c0,2.84,2.3,5.15,5.15,5.15
				c2.84,0,5.15-2.31,5.15-5.15v-5.23c2.95,0.57,5.99,0.96,9.06,1.14v12.59c0,2.84,2.3,5.15,5.15,5.15s5.15-2.31,5.15-5.15v-12.7
				c3.39-0.28,6.73-0.8,9.93-1.55v6.36c0,2.84,2.3,5.15,5.15,5.15s5.15-2.31,5.15-5.15v-9.87c1-0.47,1.97-0.96,2.91-1.49
				c0.7-0.39,1.35-0.8,1.99-1.21v0.71c0,2.84,2.3,5.15,5.15,5.15c2.84,0,5.15-2.31,5.15-5.15v-18.45H182.86z"/>
			
				<radialGradient id="SVGID_00000002344586588972725020000001724298552061018760_" cx="166.0782" cy="96.2268" r="106.6854" gradientUnits="userSpaceOnUse">
				<stop  offset="0.0124" style="stop-color:#DD78CE"/>
				<stop  offset="0.4936" style="stop-color:#A7589A"/>
				<stop  offset="0.5829" style="stop-color:#A0619E"/>
				<stop  offset="0.7273" style="stop-color:#8E79A8"/>
				<stop  offset="0.9078" style="stop-color:#709FB9"/>
				<stop  offset="1" style="stop-color:#5EB6C3"/>
			</radialGradient>
			<path style="fill:url(#SVGID_00000002344586588972725020000001724298552061018760_);" d="M182.86,170.25v-49.28
				c0-0.23,0.02-0.45,0.02-0.68c0-22.91-18.57-41.48-41.48-41.48c-22.91,0-41.48,18.57-41.48,41.48c0,0.36,0.02,0.72,0.03,1.07
				v44.66h-0.03v22.67c0,2.84,2.3,5.15,5.15,5.15c2.84,0,5.15-2.31,5.15-5.15v-0.83c0.56,0.36,1.13,0.72,1.74,1.07
				c1.83,1.06,3.79,1.99,5.85,2.81v8.2c0,2.84,2.3,5.15,5.15,5.15c2.84,0,5.15-2.31,5.15-5.15v-5.23c2.95,0.57,5.99,0.96,9.06,1.14
				v12.59c0,2.84,2.3,5.15,5.15,5.15s5.15-2.31,5.15-5.15v-12.7c3.39-0.28,6.73-0.8,9.93-1.55v6.36c0,2.84,2.3,5.15,5.15,5.15
				s5.15-2.31,5.15-5.15v-9.87c1-0.47,1.97-0.96,2.91-1.49c0.7-0.39,1.35-0.8,1.99-1.21v0.71c0,2.84,2.3,5.15,5.15,5.15
				c2.84,0,5.15-2.31,5.15-5.15v-18.45H182.86z"/>
		</g>
		<path id="矩形_00000087397578957614146820000003355207264758135954_" class="st82" d="M103.81,156.4L103.81,156.4
			c1.12,0,2.09,1.38,2.09,2.99v14.25c0,1.61-0.96,2.99-2.09,2.99l0,0c-1.12,0-2.09-1.38-2.09-2.99v-14.25
			C101.72,157.78,102.68,156.4,103.81,156.4z"/>
		<path id="矩形_00000047754894176421212220000012458375927516645053_" class="st82" d="M165.11,93.31L165.11,93.31
			c1.37-1.02,3.68-0.37,5.02,1.41l2.29,3.06c1.34,1.78,1.31,4.19-0.06,5.22l0,0c-1.37,1.02-3.68,0.37-5.02-1.41l-2.29-3.06
			C163.62,96.62,163.74,94.34,165.11,93.31z"/>
		<path id="矩形_00000157990403674674158700000006686390421407291574_" class="st82" d="M121.2,192.99L121.2,192.99
			c1.12,0,2.09,1.38,2.09,2.99v2.76c0,1.61-0.96,2.99-2.09,2.99l0,0c-1.12,0-2.09-1.38-2.09-2.99v-2.76
			C119.12,194.25,120.08,192.99,121.2,192.99z"/>
		<path id="矩形_00000044871261895847708770000002735913274861412226_" class="st82" d="M103.81,181.85L103.81,181.85
			c1.12,0,2.09,1.38,2.09,2.99v2.76c0,1.61-0.96,2.99-2.09,2.99l0,0c-1.12,0-2.09-1.38-2.09-2.99v-2.76
			C101.72,183.12,102.68,181.85,103.81,181.85z"/>
		<path id="矩形_00000043416485415560851790000010022625893806274693_" class="st82" d="M141.39,201.73L141.39,201.73
			c1.12,0,2.09,1.38,2.09,2.99v2.76c0,1.61-0.96,2.99-2.09,2.99l0,0c-1.12,0-2.09-1.38-2.09-2.99v-2.76
			C139.31,202.99,140.27,201.73,141.39,201.73z"/>
		<path id="矩形_00000049191009262218111110000014936761869242403253_" class="st82" d="M161.09,196.39L161.09,196.39
			c0.89,0,1.66,1.1,1.66,2.37v2.19c0,1.28-0.76,2.37-1.66,2.37l0,0c-0.89,0-1.66-1.1-1.66-2.37v-2.19
			C159.44,197.39,160.2,196.39,161.09,196.39z"/>
		
			<ellipse transform="matrix(0.4179 -0.9085 0.9085 0.4179 -35.214 213.6616)" class="st87" cx="149.12" cy="134.31" rx="11.56" ry="6.81"/>
		
			<ellipse transform="matrix(0.4179 -0.9085 0.9085 0.4179 -14.9406 229.0122)" class="st87" cx="171.23" cy="126.16" rx="11.56" ry="6.81"/>
		<g>
			<path id="形状结合_00000052800771220668392550000012347782312995224733_" class="st88" d="M152.02,123.11
				c3.6-1.88,6.46,1.24,6.4,6.88c0,0.2,0,0.4-0.01,0.6l-0.01,0.6c0.06-5.74-2.71-9-6.24-7.16s-6.4,7.94-6.46,13.78
				c-0.01,1.11,0.06,2.17,0.28,3.06c-0.38-1.1-0.6-2.49-0.58-4C145.47,131.13,148.42,124.98,152.02,123.11z"/>
			<path id="形状结合_00000167383969439905033100000013440319992287430529_" class="st89" d="M152.04,121.9
				c4-2.08,7.23,1.34,7.17,7.68c-0.07,6.34-3.41,13.2-7.41,15.28c-4,2.08-7.23-1.34-7.17-7.68
				C144.7,130.83,147.96,124.02,152.04,121.9z M152.02,123.11c-3.6,1.88-6.55,8.02-6.61,13.66c-0.06,5.64,2.79,8.76,6.4,6.88
				c3.6-1.88,6.55-8.02,6.61-13.66C158.48,124.35,155.55,121.27,152.02,123.11z"/>
			<path id="形状结合_00000091012564269628090270000016207065571347968438_" class="st88" d="M173.76,114.96
				c3.6-1.88,6.46,1.24,6.4,6.88c0,0.2,0,0.4-0.01,0.6l-0.01,0.6c0.06-5.74-2.71-9-6.24-7.16c-3.53,1.84-6.4,7.94-6.46,13.78
				c-0.01,1.11,0.06,2.17,0.28,3.06c-0.38-1.1-0.6-2.49-0.58-4C167.2,122.98,170.15,116.84,173.76,114.96z"/>
			<path id="形状结合_00000089533955622365780390000008932183258459172017_" class="st89" d="M173.77,113.75
				c4-2.08,7.23,1.34,7.17,7.68c-0.07,6.34-3.41,13.2-7.41,15.28c-4,2.08-7.23-1.34-7.17-7.68
				C166.43,122.69,169.69,115.87,173.77,113.75z M173.76,114.96c-3.6,1.88-6.55,8.02-6.61,13.66c-0.06,5.64,2.79,8.76,6.4,6.88
				c3.6-1.88,6.55-8.02,6.61-13.66C180.21,116.2,177.28,113.12,173.76,114.96z"/>
		</g>
		<path id="椭圆形_00000124162552881930764260000009442055162140381825_" class="st86" d="M162.57,152.15
			c2.56-1.41,4.5-5.07,4.5-6.88c0-0.72-0.35-1.18-0.87-0.97c-0.82,0.3-2.04,1.56-3.61,2.42c-1.46,0.8-2.39,0.81-3.5,1.42
			c-1.17,0.64-1.11,2.27-0.94,2.83C158.55,152.55,159.95,153.59,162.57,152.15z"/>
		<path id="椭圆形_00000134223282835839614540000012754417125015225990_" class="st87" d="M164.27,152.93
			c2.62-1.44,4.55-4.89,4.56-6.63c0-0.65-0.35-1.04-0.87-0.82c-0.82,0.3-2.1,1.59-3.67,2.45c-1.52,0.83-2.39,0.81-3.55,1.45
			c-1.17,0.64-1.11,2.2-0.94,2.68C160.19,153.51,161.65,154.37,164.27,152.93z"/>
		
			<ellipse transform="matrix(0.4179 -0.9085 0.9085 0.4179 -28.4949 216.2902)" class="st86" cx="154.53" cy="130.38" rx="4.69" ry="2.76"/>
		
			<ellipse transform="matrix(0.4179 -0.9085 0.9085 0.4179 -8.4002 230.788)" class="st86" cx="175.89" cy="121.95" rx="4.69" ry="2.76"/>
	</g>
</g>
</svg>
