<?xml version="1.0" encoding="utf-8"?>
<!-- Generator: Adobe Illustrator 27.8.1, SVG Export Plug-In . SVG Version: 6.00 Build 0)  -->
<svg version="1.1" id="Слой_1" xmlns="http://www.w3.org/2000/svg" xmlns:xlink="http://www.w3.org/1999/xlink" x="0px" y="0px"
	 viewBox="0 0 290 269.62" style="enable-background:new 0 0 290 269.62;" xml:space="preserve">
<style type="text/css">
	.st0{stroke:#000000;stroke-linecap:round;stroke-linejoin:round;stroke-miterlimit:10;}
	.st1{fill:#222846;stroke:#000000;stroke-linecap:round;stroke-linejoin:round;stroke-miterlimit:10;}
	.st2{fill-rule:evenodd;clip-rule:evenodd;stroke:#000000;stroke-linecap:round;stroke-linejoin:round;stroke-miterlimit:10;}
	
		.st3{fill-rule:evenodd;clip-rule:evenodd;fill:#222846;stroke:#000000;stroke-linecap:round;stroke-linejoin:round;stroke-miterlimit:10;}
	
		.st4{fill-rule:evenodd;clip-rule:evenodd;fill:#4A5479;stroke:#000000;stroke-linecap:round;stroke-linejoin:round;stroke-miterlimit:10;}
	.st5{fill-rule:evenodd;clip-rule:evenodd;fill:#5C6A91;}
	.st6{fill:#6D75A2;}
	.st7{stroke:#1A213A;stroke-linecap:round;stroke-linejoin:round;stroke-miterlimit:10;}
	.st8{stroke:#4A5479;stroke-linecap:round;stroke-linejoin:round;stroke-miterlimit:10;}
	.st9{fill:url(#SVGID_1_);}
	.st10{fill:url(#SVGID_00000118384873054412489840000014589501064991881601_);}
	.st11{fill:url(#SVGID_00000120526807588416465880000017070039252064860066_);}
	
		.st12{fill:none;stroke:url(#SVGID_00000012431295036210386150000016335005111598952607_);stroke-width:5;stroke-linecap:round;stroke-linejoin:round;stroke-miterlimit:10;}
	.st13{fill:url(#SVGID_00000120556236633848789440000001853009015854279812_);}
	.st14{fill-rule:evenodd;clip-rule:evenodd;fill:#1AD4B3;}
	.st15{fill-rule:evenodd;clip-rule:evenodd;fill:#FC4F83;}
	.st16{fill:#4A5479;stroke:#000000;stroke-linecap:round;stroke-linejoin:round;stroke-miterlimit:10;}
	
		.st17{fill:url(#SVGID_00000077307992175668954290000005879598199795770779_);stroke:#1D1D1B;stroke-width:0.2115;stroke-linecap:round;stroke-linejoin:round;stroke-miterlimit:10;}
	.st18{fill-rule:evenodd;clip-rule:evenodd;}
	
		.st19{fill:url(#SVGID_00000023999973230202533390000017565406247923801003_);stroke:#1D1D1B;stroke-width:0.2115;stroke-linecap:round;stroke-linejoin:round;stroke-miterlimit:10;}
	
		.st20{fill:url(#SVGID_00000182493217454017198650000013049219044870886287_);stroke:#1D1D1B;stroke-width:0.2115;stroke-linecap:round;stroke-linejoin:round;stroke-miterlimit:10;}
	
		.st21{fill:url(#SVGID_00000008847797082178738120000017157212264860237246_);stroke:#1D1D1B;stroke-width:0.2115;stroke-linecap:round;stroke-linejoin:round;stroke-miterlimit:10;}
	.st22{fill-rule:evenodd;clip-rule:evenodd;fill:url(#SVGID_00000010295551479295755080000008267734116115420063_);}
	.st23{fill-rule:evenodd;clip-rule:evenodd;fill:url(#SVGID_00000163067709709465133680000000528223906033711777_);}
	.st24{fill:url(#SVGID_00000139268335665866441970000016485440980605836962_);}
	.st25{fill:url(#SVGID_00000160161449149436250870000003188924157086099101_);}
	.st26{fill:url(#SVGID_00000040560790394343180450000013069521698475053459_);}
	
		.st27{fill-rule:evenodd;clip-rule:evenodd;fill:#4AA089;stroke:url(#SVGID_00000146471225725714540800000013558090949507456698_);stroke-linecap:round;stroke-linejoin:round;stroke-miterlimit:10;}
	
		.st28{fill-rule:evenodd;clip-rule:evenodd;fill:#4AA089;stroke:url(#SVGID_00000005974061364240614600000007229921054007648909_);stroke-linecap:round;stroke-linejoin:round;stroke-miterlimit:10;}
	
		.st29{fill:none;stroke:url(#SVGID_00000159441267374496134750000010663219770501388208_);stroke-width:5;stroke-linecap:round;stroke-linejoin:round;stroke-miterlimit:10;}
	.st30{fill:url(#SVGID_00000118381782719004194210000007458310938378312587_);}
	
		.st31{fill:none;stroke:url(#SVGID_00000099634059059250069890000012217954460730069439_);stroke-width:5;stroke-linecap:round;stroke-linejoin:round;stroke-miterlimit:10;}
	.st32{fill:url(#SVGID_00000105407382237141081990000015568426277690604932_);}
	
		.st33{fill:none;stroke:url(#SVGID_00000115508711346404717020000013561732982913419674_);stroke-width:5;stroke-linecap:round;stroke-linejoin:round;stroke-miterlimit:10;}
	.st34{fill:url(#SVGID_00000163064889079054377750000013215397361977867694_);}
	.st35{fill:#4A5479;}
	
		.st36{fill-rule:evenodd;clip-rule:evenodd;fill:#1AD4B3;stroke:#111422;stroke-linecap:round;stroke-linejoin:round;stroke-miterlimit:10;}
	
		.st37{fill-rule:evenodd;clip-rule:evenodd;fill:#4AA089;stroke:url(#SVGID_00000062915113473586560310000016139094322179009409_);stroke-linecap:round;stroke-linejoin:round;stroke-miterlimit:10;}
	.st38{fill:#FFFFFF;}
	
		.st39{fill-rule:evenodd;clip-rule:evenodd;fill:#FC4F83;stroke:#111422;stroke-linecap:round;stroke-linejoin:round;stroke-miterlimit:10;}
	
		.st40{fill-rule:evenodd;clip-rule:evenodd;fill:#CB3D61;stroke:#000000;stroke-linecap:round;stroke-linejoin:round;stroke-miterlimit:10;}
	.st41{fill:url(#SVGID_00000009573272345859467290000008622457643026254992_);}
	.st42{fill:url(#SVGID_00000149342505472524079660000014699959828285854133_);}
	.st43{fill:url(#SVGID_00000013893064730934039820000008197617971316150421_);}
	
		.st44{fill:none;stroke:url(#SVGID_00000126309914778542250730000006096881712969070744_);stroke-width:5;stroke-linecap:round;stroke-linejoin:round;stroke-miterlimit:10;}
	.st45{fill:url(#SVGID_00000044873670112832859080000003514046592943742384_);}
	
		.st46{fill:none;stroke:url(#SVGID_00000158714745376431615250000004401966221332946325_);stroke-width:5;stroke-linecap:round;stroke-linejoin:round;stroke-miterlimit:10;}
	.st47{fill:url(#SVGID_00000062183618490200652380000008084746001107976880_);}
	.st48{fill:url(#SVGID_00000132063129417950599370000009765318043369725624_);}
	.st49{fill:#222846;}
	.st50{fill:url(#SVGID_00000173844549466989647910000005166165901788458401_);}
	.st51{fill:url(#SVGID_00000117656110407815109110000015935956699494901411_);}
	.st52{fill:url(#SVGID_00000181074095965169940720000004955211741596075946_);}
	.st53{fill:url(#SVGID_00000160177146153369612710000016576508389594904471_);}
	.st54{fill:url(#SVGID_00000031176765570781225460000011346859454373771141_);}
	.st55{fill:url(#SVGID_00000112593052508006774420000010366521500988145832_);}
	.st56{fill-rule:evenodd;clip-rule:evenodd;fill:#6D75A2;}
	.st57{fill-rule:evenodd;clip-rule:evenodd;fill:#4A5479;}
	.st58{opacity:0.29;fill:url(#SVGID_00000039828604300689454830000009176954674664509318_);enable-background:new    ;}
	.st59{fill:url(#SVGID_00000005953742774523066940000004009261437555559058_);}
	.st60{fill:url(#SVGID_00000006693427730496436710000001252301275673866626_);}
	.st61{fill:url(#SVGID_00000009581000940696553870000011477663992081240986_);}
	.st62{fill-rule:evenodd;clip-rule:evenodd;fill:url(#SVGID_00000065792603994290749720000009804561436776514985_);}
	.st63{fill:url(#SVGID_00000002383632480321505170000007861532350512551811_);}
	.st64{fill:url(#SVGID_00000178907851114483041640000000122235209305556406_);}
	.st65{fill:url(#SVGID_00000147900775085541911130000012984376532168289667_);}
	.st66{fill:url(#SVGID_00000093154171935983379400000005151714712712681879_);}
	.st67{opacity:0.29;fill:url(#SVGID_00000052782745870700258620000005757907291437775007_);enable-background:new    ;}
	.st68{fill-rule:evenodd;clip-rule:evenodd;fill:#222846;}
	
		.st69{fill:none;stroke:url(#SVGID_00000021842058969779979990000000686744100719869572_);stroke-width:5;stroke-linecap:round;stroke-linejoin:round;stroke-miterlimit:10;}
	.st70{fill:url(#SVGID_00000118354958133767421420000015530752914387105442_);}
	
		.st71{fill:none;stroke:url(#SVGID_00000038414523593637455920000013320867669148898947_);stroke-width:5;stroke-linecap:round;stroke-linejoin:round;stroke-miterlimit:10;}
	.st72{fill:url(#SVGID_00000000213854577981860780000008361994236931585418_);}
	
		.st73{fill:none;stroke:url(#SVGID_00000089563816315201642240000003335049150501897915_);stroke-width:5;stroke-linecap:round;stroke-linejoin:round;stroke-miterlimit:10;}
	.st74{fill:url(#SVGID_00000042694292491701620350000008713064244489015993_);}
	
		.st75{fill-rule:evenodd;clip-rule:evenodd;fill:#4AA089;stroke:url(#SVGID_00000106858360885110664760000010176256532057861771_);stroke-linecap:round;stroke-linejoin:round;stroke-miterlimit:10;}
	.st76{fill-rule:evenodd;clip-rule:evenodd;fill:url(#SVGID_00000063613710301928874780000000850043384605476018_);}
	.st77{fill:url(#SVGID_00000072991454371603544010000000763589648466477499_);}
	.st78{fill:url(#SVGID_00000056401835822463998720000012103414226886116285_);}
	.st79{fill:url(#SVGID_00000054963386009469026660000017993580812829426862_);}
	.st80{opacity:0.29;fill:url(#SVGID_00000139986679993602610190000006324011443889455242_);}
	.st81{opacity:0.29;fill:url(#SVGID_00000071551163487348823370000008396764634534007969_);}
	.st82{opacity:0.2563;fill-rule:evenodd;clip-rule:evenodd;fill:#FFFFFF;enable-background:new    ;}
	.st83{opacity:0.67;fill:url(#SVGID_00000087412755097116302090000015424267538347532674_);}
	.st84{fill:#3FA9BD;}
	.st85{fill:url(#SVGID_00000016062511471184618650000013256370697186154663_);}
	.st86{fill-rule:evenodd;clip-rule:evenodd;fill:#555069;}
	.st87{fill-rule:evenodd;clip-rule:evenodd;fill:#FFFFFF;}
	.st88{fill-rule:evenodd;clip-rule:evenodd;fill:#AFAFB1;}
	.st89{fill-rule:evenodd;clip-rule:evenodd;fill:#D3D3D3;}
	.st90{opacity:0.67;fill:url(#SVGID_00000042695385754947149670000013680337546455746712_);}
	.st91{fill:url(#SVGID_00000124855381169930218660000011679863657900567959_);}
	.st92{opacity:0.67;fill:url(#SVGID_00000009576170129065702260000010559875996379967401_);}
	.st93{fill:url(#SVGID_00000122700446519631493700000002364592061729586819_);}
	.st94{opacity:0.67;fill:url(#SVGID_00000036244411481161650230000014427152091155897740_);}
	.st95{fill:url(#SVGID_00000139251308831788397580000005681655186436870800_);}
	.st96{opacity:0.67;fill:url(#SVGID_00000130624123607100773100000001579880063036106916_);}
	.st97{fill:url(#SVGID_00000157280580063377776510000014870485897595996298_);}
	.st98{opacity:0.67;fill:url(#SVGID_00000078020608168449481780000013423928635952359324_);}
	.st99{fill:url(#SVGID_00000108308322417432804300000000515268293500741814_);}
	.st100{fill:#1AD4B3;}
	.st101{opacity:0.67;fill:url(#SVGID_00000145027190370346316580000016985331018325135512_);}
	.st102{fill:url(#SVGID_00000116932961700143878210000000156165988987998130_);}
	.st103{opacity:0.67;fill:url(#SVGID_00000036965351814909652290000011293088728897079456_);}
	.st104{fill:url(#SVGID_00000155104357803097173640000015332317369599416224_);}
	.st105{opacity:0.67;fill:url(#SVGID_00000147208894592291516400000009448449000616577977_);}
	.st106{fill:url(#SVGID_00000122678281218928453750000002520422464326856106_);}
	.st107{opacity:0.67;fill:url(#SVGID_00000076590945530883396290000011212488869152184746_);}
	.st108{fill:url(#SVGID_00000003802693735290375140000010850579097431761578_);}
	.st109{opacity:0.67;fill:url(#SVGID_00000123434212140661419210000005828278350776796582_);}
	.st110{fill:url(#SVGID_00000157281163620929007490000017045727211808558008_);}
	.st111{opacity:0.67;fill:url(#SVGID_00000103237078236710994790000006052378799416264585_);}
	.st112{fill:url(#SVGID_00000066493680902460174200000014554723774829652892_);}
	
		.st113{fill-rule:evenodd;clip-rule:evenodd;fill:none;stroke:#FFFFFF;stroke-width:0.7384;stroke-linecap:round;stroke-linejoin:round;stroke-miterlimit:10;}
	.st114{opacity:0.67;fill:url(#SVGID_00000001640388178652172560000001602936752684437695_);}
	.st115{fill:url(#SVGID_00000057855444224021241550000015842906793786542756_);}
	.st116{opacity:0.67;fill:url(#SVGID_00000155848823645490363720000007050970751214541737_);}
	.st117{fill:url(#SVGID_00000128481174314518809720000006536295943038859928_);}
	.st118{opacity:0.67;fill:url(#SVGID_00000123420930412889657720000007518645970450320028_);}
	.st119{fill:url(#SVGID_00000115478477829129925740000015621883205865654164_);}
	.st120{opacity:0.67;fill:url(#SVGID_00000047020629177613721830000010836324787770359202_);}
	.st121{fill:url(#SVGID_00000006671014954548904870000002394098666251646858_);}
	.st122{opacity:0.67;fill:url(#SVGID_00000083773361640083901200000017844873189247360396_);}
	.st123{fill:url(#SVGID_00000047040299816637327070000005100630864303461031_);}
	.st124{opacity:0.67;fill:url(#SVGID_00000156559769780841007540000009988834935374422681_);}
	.st125{fill:url(#SVGID_00000126317080736743156330000004774244911866173375_);}
	.st126{opacity:0.67;fill:url(#SVGID_00000147922224367431945770000012238531460830835595_);}
	.st127{fill:url(#SVGID_00000056419468394943820690000008360792960855649213_);}
	.st128{opacity:0.67;fill:url(#SVGID_00000117670893485785093920000003219798471445014697_);}
	.st129{fill:url(#SVGID_00000165919428009713645230000012684665185455179949_);}
	.st130{opacity:0.67;fill:url(#SVGID_00000071551283606350010700000011092389077414804368_);enable-background:new    ;}
	.st131{fill:#5EA6B9;}
	.st132{fill:url(#SVGID_00000010994634086632504600000011412812127230481575_);}
	.st133{fill-rule:evenodd;clip-rule:evenodd;fill:#545067;}
	.st134{fill-rule:evenodd;clip-rule:evenodd;fill:#AEAEB0;}
	.st135{fill-rule:evenodd;clip-rule:evenodd;fill:#D2D2D2;}
	.st136{opacity:0.67;fill:url(#SVGID_00000000933209257979201180000014844748958878044859_);enable-background:new    ;}
	.st137{fill:url(#SVGID_00000183948943807992050320000011964739601646302375_);}
	.st138{fill-rule:evenodd;clip-rule:evenodd;fill:#63D0B3;}
	
		.st139{fill-rule:evenodd;clip-rule:evenodd;fill:none;stroke:#000000;stroke-linecap:round;stroke-linejoin:round;stroke-miterlimit:10;}
	.st140{fill-rule:evenodd;clip-rule:evenodd;fill:#E85C83;}
	
		.st141{fill-rule:evenodd;clip-rule:evenodd;fill:#4AA089;stroke:url(#SVGID_00000091693700788829255990000011105070769627381427_);stroke-linecap:round;stroke-linejoin:round;stroke-miterlimit:10;}
	.st142{fill:#5DC29D;}
	.st143{fill:url(#SVGID_00000092418839097650157880000006801070318074872970_);}
	.st144{fill:url(#SVGID_00000050658837361621178970000004164116630200114318_);}
	.st145{fill:#E85C83;}
	.st146{opacity:0.67;fill:url(#SVGID_00000128443767642948457060000005670859720472905607_);enable-background:new    ;}
	.st147{fill:url(#SVGID_00000036226648163050983220000013997166877603440538_);}
	
		.st148{fill:none;stroke:url(#SVGID_00000117674943408670863100000000670755100065441211_);stroke-width:5;stroke-linecap:round;stroke-linejoin:round;stroke-miterlimit:10;}
	.st149{fill:url(#SVGID_00000005972690844514555050000004407184834665457024_);}
	.st150{opacity:0.67;fill:url(#SVGID_00000067927285575314720510000008081951582492267452_);enable-background:new    ;}
	.st151{fill:url(#SVGID_00000070105664201177651430000017906731269676369591_);}
	.st152{opacity:0.67;fill:url(#SVGID_00000164478689222198178490000004635450640538961334_);}
	.st153{fill:url(#SVGID_00000052804978546624621900000009010889315172601010_);}
	.st154{opacity:0.67;fill:url(#SVGID_00000149359378534674586490000012968667023337985166_);}
	.st155{fill:url(#SVGID_00000026854133284150607600000014516728418326571650_);}
	.st156{opacity:0.67;fill:url(#SVGID_00000103974754527704032390000017075057567205722548_);}
	.st157{fill:url(#SVGID_00000010308568245912873880000016609812090719131796_);}
	.st158{opacity:0.67;fill:url(#SVGID_00000095332956439753148480000001827968549698654349_);}
	.st159{fill:url(#SVGID_00000079487218878429990920000011882897928702618240_);}
	.st160{opacity:0.67;fill:url(#SVGID_00000161633299599481256050000004912689875689478801_);}
	.st161{fill:url(#SVGID_00000075863965139989150760000004382000197937698980_);}
	.st162{fill:none;stroke:#000000;stroke-width:22;stroke-linecap:round;stroke-linejoin:round;stroke-miterlimit:10;}
	.st163{fill:url(#SVGID_00000055700993350392550550000005682147824601082784_);}
	.st164{fill:url(#SVGID_00000073718158443531657240000013866290683808013192_);}
	.st165{fill:none;stroke:url(#SVGID_00000036220781632196433940000007958850902366925699_);stroke-width:5;stroke-miterlimit:10;}
	.st166{fill:url(#SVGID_00000074408078107385505000000005827930585159807407_);}
	.st167{fill:none;}
	.st168{opacity:0.67;fill:url(#SVGID_00000038411547607636347640000017841866793217149104_);}
	.st169{fill:url(#SVGID_00000147909260625975355340000016934283818382842283_);}
	.st170{fill:none;stroke:url(#SVGID_00000181787855114640646340000016568521361738670467_);stroke-width:5;stroke-miterlimit:10;}
	.st171{fill:url(#SVGID_00000124121744312001722130000012866483386577055412_);}
	.st172{opacity:0.67;fill:url(#SVGID_00000160186624050285640860000015057406389590557083_);}
	.st173{fill:url(#SVGID_00000005946286897759886030000015117485386396060572_);}
	.st174{opacity:0.67;fill:url(#SVGID_00000116923198807740672790000011125680406279362731_);}
	.st175{fill:url(#SVGID_00000126310472684426463300000001622096046811738268_);}
	.st176{opacity:0.67;fill:url(#SVGID_00000161623231215696177080000018119289821784686221_);}
	.st177{fill:url(#SVGID_00000029747086697603137810000017740233746623203260_);}
</style>
<g>
	<circle class="st7" cx="144.67" cy="70.24" r="26.03"/>
	<g>
		<g>
			<path class="st1" d="M138.21,43.43l-0.01,10.81c-0.33,1.38,0.28,2.85,1.82,3.91c2.54,1.76,6.66,1.76,9.2,0
				c1.08-0.75,1.7-1.69,1.86-2.67l0.04,0l0-0.45c0-0.04,0-0.09,0-0.13l0.01-11.18L138.21,43.43z"/>
			<path class="st1" d="M138.26,51.16c0,2.45,2.87,4.43,6.41,4.43s6.41-1.98,6.41-4.43"/>
			<path class="st1" d="M138.26,47.77c0,2.45,2.87,4.43,6.41,4.43s6.41-1.98,6.41-4.43"/>
			<path class="st1" d="M138.26,44.21c0,2.45,2.87,4.43,6.41,4.43s6.41-1.98,6.41-4.43"/>
		</g>
		<g>
			<path class="st1" d="M138.21,32.75l-0.01,10.81c-0.33,1.38,0.28,2.85,1.82,3.91c2.54,1.76,6.66,1.76,9.2,0
				c1.08-0.75,1.7-1.69,1.86-2.67l0.04,0l0-0.45c0-0.04,0-0.09,0-0.13l0.01-11.18L138.21,32.75z"/>
			<path class="st1" d="M138.26,40.49c0,2.45,2.87,4.43,6.41,4.43s6.41-1.98,6.41-4.43"/>
			<path class="st1" d="M138.26,37.1c0,2.45,2.87,4.43,6.41,4.43s6.41-1.98,6.41-4.43"/>
			<path class="st1" d="M138.26,33.54c0,2.45,2.87,4.43,6.41,4.43s6.41-1.98,6.41-4.43"/>
		</g>
	</g>
	<g>
		<g>
			<g>
				<polygon class="st2" points="144.27,48.55 126.46,38.27 126.46,20.45 144.27,30.74 				"/>
				<polygon class="st3" points="144.27,48.55 162.09,38.27 162.09,20.45 144.27,30.74 				"/>
				<polygon class="st4" points="144.34,30.79 126.46,20.47 144.21,10.13 162.09,20.45 				"/>
			</g>
			<path id="矩形_00000079443592894900880680000006652819142888995477_" class="st5" d="M138.69,15.45L138.69,15.45
				c0.35,0.2,0.29,0.58-0.12,0.83l-3.7,2.19c-0.42,0.25-1.08,0.29-1.43,0.09l0,0c-0.35-0.2-0.29-0.58,0.12-0.83l3.7-2.19
				C137.68,15.29,138.34,15.25,138.69,15.45z"/>
			<path id="矩形_00000114755741022696549230000009597631825070058393_" class="st5" d="M131.99,19.41L131.99,19.41
				c0.35,0.2,0.29,0.58-0.12,0.83l-0.72,0.42c-0.42,0.25-1.08,0.29-1.43,0.09l0,0c-0.35-0.2-0.29-0.58,0.12-0.83l0.72-0.42
				C131.02,19.24,131.64,19.21,131.99,19.41z"/>
		</g>
	</g>
</g>
<g>
	<circle class="st7" cx="263.33" cy="58.37" r="17.42"/>
	<g>
		<g>
			<path class="st1" d="M259,40.43l0,7.23c-0.22,0.92,0.19,1.91,1.22,2.62c1.7,1.18,4.46,1.18,6.16,0c0.72-0.5,1.14-1.13,1.25-1.79
				l0.03,0l0-0.3c0-0.03,0-0.06,0-0.09l0-7.49L259,40.43z"/>
			<path class="st1" d="M259.04,45.6c0,1.64,1.92,2.97,4.29,2.97c2.37,0,4.29-1.33,4.29-2.97"/>
			<path class="st1" d="M259.04,43.33c0,1.64,1.92,2.97,4.29,2.97c2.37,0,4.29-1.33,4.29-2.97"/>
			<path class="st1" d="M259.04,40.95c0,1.64,1.92,2.97,4.29,2.97c2.37,0,4.29-1.33,4.29-2.97"/>
		</g>
		<g>
			<path class="st1" d="M259,33.28l0,7.23c-0.22,0.92,0.19,1.91,1.22,2.62c1.7,1.18,4.46,1.18,6.16,0c0.72-0.5,1.14-1.13,1.25-1.79
				l0.03,0l0-0.3c0-0.03,0-0.06,0-0.09l0-7.49L259,33.28z"/>
			<path class="st1" d="M259.04,38.46c0,1.64,1.92,2.97,4.29,2.97c2.37,0,4.29-1.33,4.29-2.97"/>
			<path class="st1" d="M259.04,36.19c0,1.64,1.92,2.97,4.29,2.97c2.37,0,4.29-1.33,4.29-2.97"/>
			<path class="st1" d="M259.04,33.8c0,1.64,1.92,2.97,4.29,2.97c2.37,0,4.29-1.33,4.29-2.97"/>
		</g>
	</g>
	<g>
		<g>
			<g>
				<polygon class="st2" points="263.06,43.86 251.14,36.97 251.14,25.05 263.06,31.93 				"/>
				<polygon class="st3" points="263.06,43.86 274.99,36.97 274.99,25.05 263.06,31.93 				"/>
				<polygon class="st4" points="263.11,31.97 251.14,25.06 263.02,18.13 274.99,25.05 				"/>
			</g>
			<path id="矩形_00000051345786366756252190000006540976897904845215_" class="st5" d="M259.43,21.56L259.43,21.56
				c0.23,0.13,0.2,0.39-0.08,0.55l-2.47,1.46c-0.28,0.17-0.72,0.19-0.95,0.06l0,0c-0.23-0.13-0.2-0.39,0.08-0.55l2.47-1.46
				C258.75,21.46,259.19,21.43,259.43,21.56z"/>
			<path id="矩形_00000155113696485370069590000008057874936706924938_" class="st5" d="M254.95,24.22L254.95,24.22
				c0.23,0.13,0.2,0.39-0.08,0.55l-0.48,0.28c-0.28,0.17-0.72,0.19-0.95,0.06l0,0c-0.23-0.13-0.2-0.39,0.08-0.55l0.48-0.28
				C254.29,24.1,254.71,24.08,254.95,24.22z"/>
		</g>
	</g>
</g>
<g>
	<g>
		<polygon class="st3" points="263.04,158.88 209.25,189.61 209.5,210.42 263.16,179.88 		"/>
		<polygon class="st2" points="168.54,166.93 209.25,189.55 209.5,210.42 168.79,187.8 		"/>
		<polygon class="st4" points="263.04,159.21 221.8,136.19 168.54,166.93 209.25,189.75 		"/>
	</g>
	<g>
		<polygon class="st3" points="263.04,134.34 209.25,165.07 209.5,185.88 263.16,155.34 		"/>
		<polygon class="st2" points="168.54,142.39 209.25,165.01 209.5,185.88 168.79,163.26 		"/>
		<polygon class="st4" points="263.05,134.3 221.81,111.28 168.54,142.39 209.25,165.21 		"/>
	</g>
	<circle class="st7" cx="213.14" cy="111.23" r="41.04"/>
	<g>
		<g>
			<path class="st1" d="M202.96,68.95l-0.01,17.04c-0.52,2.18,0.44,4.49,2.87,6.17c4.01,2.77,10.5,2.77,14.51,0
				c1.7-1.18,2.68-2.67,2.94-4.21l0.07,0l0-0.71c0-0.07,0-0.14,0-0.21l0.01-17.63L202.96,68.95z"/>
			<path class="st1" d="M203.04,81.14c0,3.86,4.52,6.99,10.11,6.99s10.11-3.13,10.11-6.99"/>
			<path class="st1" d="M203.04,75.8c0,3.86,4.52,6.99,10.11,6.99s10.11-3.13,10.11-6.99"/>
			<path class="st1" d="M203.04,70.19c0,3.86,4.52,6.99,10.11,6.99s10.11-3.13,10.11-6.99"/>
		</g>
		<g>
			<path class="st1" d="M202.96,52.12l-0.01,17.04c-0.52,2.18,0.44,4.49,2.87,6.17c4.01,2.77,10.5,2.77,14.51,0
				c1.7-1.18,2.68-2.67,2.94-4.21l0.07,0l0-0.71c0-0.07,0-0.14,0-0.21l0.01-17.63L202.96,52.12z"/>
			<path class="st1" d="M203.04,64.31c0,3.86,4.52,6.99,10.11,6.99s10.11-3.13,10.11-6.99"/>
			<path class="st1" d="M203.04,58.97c0,3.86,4.52,6.99,10.11,6.99s10.11-3.13,10.11-6.99"/>
			<path class="st1" d="M203.04,53.36c0,3.86,4.52,6.99,10.11,6.99s10.11-3.13,10.11-6.99"/>
		</g>
	</g>
	<g>
		<g>
			<g>
				<polygon class="st2" points="212.52,77.03 184.43,60.82 184.43,32.73 212.52,48.94 				"/>
				<polygon class="st3" points="212.52,77.03 240.61,60.82 240.61,32.73 212.52,48.94 				"/>
				<polygon class="st4" points="212.62,49.03 184.43,32.75 212.42,16.45 240.62,32.72 				"/>
				<polygon class="st3" points="204.48,39.81 200.91,37.79 221.67,25.54 225.25,27.56 				"/>
			</g>
			<path id="矩形_00000170266666954363694930000004065331233235621794_" class="st5" d="M203.53,25.07L203.53,25.07
				c0.55,0.31,0.46,0.92-0.2,1.31l-5.83,3.45c-0.66,0.39-1.7,0.45-2.25,0.14l0,0c-0.55-0.31-0.46-0.92,0.2-1.31l5.83-3.45
				C201.94,24.82,202.98,24.76,203.53,25.07z"/>
			<path id="矩形_00000089539658386455953200000014543093902128682381_" class="st5" d="M192.98,31.32L192.98,31.32
				c0.55,0.31,0.46,0.92-0.2,1.31l-1.13,0.67c-0.66,0.39-1.7,0.45-2.25,0.14l0,0c-0.55-0.31-0.46-0.92,0.2-1.31l1.13-0.67
				C191.43,31.04,192.42,31,192.98,31.32z"/>
		</g>
	</g>
	<g>
		<g>
			<path class="st6" d="M217.3,175.33v-8.95l2.53-1.5c0.49-0.29,0.9-0.41,1.24-0.35c0.34,0.05,0.6,0.26,0.79,0.61
				c0.18,0.35,0.27,0.82,0.27,1.41s-0.09,1.17-0.28,1.74c-0.18,0.56-0.45,1.07-0.8,1.53c-0.35,0.46-0.77,0.84-1.26,1.13l-1.61,0.96
				v-1.52l1.39-0.83c0.26-0.15,0.48-0.35,0.65-0.57c0.17-0.23,0.3-0.48,0.38-0.76c0.08-0.28,0.13-0.56,0.13-0.85
				c0-0.3-0.04-0.53-0.13-0.71c-0.08-0.17-0.21-0.27-0.38-0.29c-0.17-0.02-0.39,0.04-0.65,0.2l-0.91,0.54v7.4L217.3,175.33z"/>
			<path class="st6" d="M222.99,171.96v-6.71l1.29-0.77v1.17l0.05-0.03c0.09-0.47,0.23-0.87,0.44-1.21
				c0.21-0.34,0.44-0.58,0.71-0.74c0.07-0.04,0.14-0.08,0.22-0.11c0.08-0.03,0.15-0.06,0.2-0.07v1.65
				c-0.06,0.01-0.15,0.04-0.26,0.08c-0.11,0.04-0.21,0.09-0.3,0.15c-0.2,0.12-0.37,0.28-0.53,0.49c-0.15,0.21-0.27,0.44-0.36,0.71
				c-0.09,0.26-0.13,0.53-0.13,0.8v3.8L222.99,171.96z"/>
			<path class="st6" d="M228.54,168.8c-0.49,0.29-0.91,0.39-1.26,0.31c-0.35-0.08-0.63-0.32-0.82-0.73
				c-0.19-0.41-0.29-0.95-0.29-1.64c0-0.69,0.1-1.36,0.29-1.99c0.19-0.63,0.47-1.2,0.82-1.7c0.35-0.5,0.77-0.89,1.26-1.18
				c0.49-0.29,0.91-0.39,1.26-0.31c0.35,0.08,0.63,0.32,0.82,0.73c0.19,0.41,0.29,0.96,0.29,1.65c0,0.69-0.1,1.35-0.29,1.98
				c-0.19,0.63-0.47,1.2-0.82,1.7C229.45,168.12,229.03,168.51,228.54,168.8z M228.55,167.35c0.22-0.13,0.41-0.33,0.55-0.59
				c0.15-0.26,0.26-0.57,0.34-0.92c0.08-0.35,0.11-0.72,0.11-1.11s-0.04-0.72-0.11-0.98c-0.08-0.26-0.19-0.44-0.34-0.53
				c-0.15-0.09-0.33-0.07-0.55,0.06c-0.22,0.13-0.41,0.33-0.56,0.6c-0.15,0.27-0.27,0.58-0.34,0.93c-0.08,0.35-0.11,0.72-0.11,1.11
				s0.04,0.72,0.11,0.98c0.08,0.26,0.19,0.43,0.34,0.52C228.14,167.51,228.32,167.49,228.55,167.35z"/>
			<path class="st6" d="M231.78,169.27v-9.23l1.32-0.78v1.13l0.06-0.04c0.06-0.22,0.14-0.45,0.26-0.7c0.11-0.25,0.26-0.5,0.44-0.73
				c0.18-0.23,0.41-0.43,0.68-0.59c0.35-0.21,0.67-0.27,0.97-0.19c0.3,0.08,0.53,0.32,0.71,0.73c0.18,0.41,0.27,0.99,0.27,1.76
				c0,0.75-0.09,1.43-0.26,2.05c-0.17,0.62-0.41,1.14-0.7,1.58c-0.3,0.44-0.63,0.77-0.99,0.98c-0.26,0.15-0.48,0.22-0.66,0.21
				c-0.18-0.01-0.33-0.07-0.44-0.19c-0.11-0.11-0.2-0.25-0.26-0.4l-0.04,0.02v3.59L231.78,169.27z M233.09,162.62
				c0,0.4,0.04,0.72,0.12,0.97c0.08,0.25,0.19,0.41,0.34,0.49c0.15,0.07,0.33,0.05,0.55-0.08c0.22-0.13,0.4-0.32,0.55-0.58
				c0.15-0.26,0.26-0.56,0.34-0.9c0.08-0.35,0.12-0.71,0.12-1.1c0-0.39-0.04-0.71-0.12-0.95c-0.08-0.25-0.19-0.41-0.34-0.49
				c-0.15-0.08-0.33-0.05-0.55,0.08c-0.22,0.13-0.4,0.32-0.55,0.57c-0.15,0.25-0.26,0.54-0.34,0.89
				C233.13,161.85,233.09,162.22,233.09,162.62z"/>
			<path class="st6" d="M239.53,162.29c-0.49,0.29-0.91,0.39-1.26,0.31c-0.35-0.08-0.63-0.32-0.82-0.73
				c-0.19-0.41-0.29-0.95-0.29-1.64c0-0.69,0.1-1.36,0.29-1.99s0.47-1.2,0.82-1.7c0.35-0.5,0.77-0.89,1.26-1.18
				c0.49-0.29,0.91-0.39,1.26-0.31c0.35,0.08,0.63,0.32,0.82,0.73c0.19,0.41,0.29,0.96,0.29,1.65c0,0.69-0.1,1.35-0.29,1.98
				c-0.19,0.63-0.47,1.2-0.82,1.7C240.44,161.6,240.02,162,239.53,162.29z M239.54,160.84c0.22-0.13,0.41-0.33,0.55-0.59
				c0.15-0.26,0.26-0.57,0.34-0.92s0.11-0.72,0.11-1.11s-0.04-0.72-0.11-0.98c-0.08-0.26-0.19-0.44-0.34-0.53
				c-0.15-0.09-0.33-0.07-0.55,0.06c-0.22,0.13-0.41,0.33-0.56,0.6c-0.15,0.27-0.27,0.58-0.34,0.93c-0.08,0.35-0.11,0.72-0.11,1.11
				c0,0.39,0.04,0.72,0.11,0.98c0.08,0.26,0.19,0.43,0.34,0.52C239.13,161,239.32,160.97,239.54,160.84z"/>
			<path class="st6" d="M246.78,153.06l-1.22,0.83c-0.02-0.13-0.07-0.24-0.13-0.32c-0.07-0.08-0.16-0.12-0.27-0.12
				c-0.11-0.01-0.24,0.04-0.4,0.13c-0.21,0.12-0.38,0.29-0.52,0.49c-0.14,0.21-0.21,0.41-0.21,0.61c0,0.16,0.05,0.27,0.14,0.32
				c0.09,0.06,0.25,0.05,0.47-0.01l0.87-0.27c0.47-0.14,0.82-0.13,1.05,0.03c0.23,0.16,0.34,0.48,0.34,0.97
				c0,0.44-0.09,0.88-0.28,1.32c-0.18,0.44-0.44,0.85-0.76,1.22c-0.32,0.38-0.69,0.69-1.11,0.93c-0.64,0.38-1.14,0.49-1.52,0.34
				c-0.38-0.15-0.6-0.52-0.66-1.13l1.31-0.87c0.04,0.25,0.14,0.4,0.29,0.45c0.15,0.05,0.35,0.01,0.59-0.14
				c0.23-0.14,0.42-0.31,0.57-0.53c0.14-0.21,0.22-0.42,0.22-0.62c0-0.17-0.05-0.28-0.15-0.33c-0.1-0.05-0.25-0.04-0.46,0.02
				l-0.83,0.26c-0.47,0.15-0.82,0.13-1.05-0.06c-0.23-0.19-0.34-0.53-0.34-1.03c0-0.43,0.08-0.85,0.25-1.26
				c0.17-0.41,0.4-0.79,0.71-1.14c0.31-0.35,0.66-0.65,1.08-0.89c0.61-0.36,1.09-0.46,1.44-0.31
				C246.51,152.12,246.72,152.48,246.78,153.06z"/>
			<path class="st6" d="M249.1,156.61c-0.31,0.18-0.58,0.27-0.82,0.26c-0.24-0.01-0.43-0.12-0.57-0.33
				c-0.14-0.21-0.21-0.54-0.21-0.98c0-0.37,0.05-0.72,0.15-1.03c0.1-0.31,0.23-0.59,0.4-0.85c0.17-0.25,0.36-0.49,0.58-0.69
				c0.22-0.21,0.44-0.4,0.68-0.57c0.28-0.21,0.51-0.38,0.68-0.52c0.17-0.14,0.3-0.27,0.37-0.38c0.08-0.12,0.12-0.25,0.12-0.39v-0.03
				c0-0.28-0.06-0.45-0.19-0.53c-0.12-0.08-0.3-0.05-0.53,0.09c-0.24,0.14-0.43,0.33-0.57,0.56c-0.14,0.23-0.24,0.47-0.28,0.72
				l-1.23,0.59c0.06-0.44,0.19-0.87,0.37-1.28c0.18-0.41,0.42-0.78,0.71-1.11c0.29-0.33,0.63-0.62,1.01-0.84
				c0.27-0.16,0.52-0.27,0.77-0.32c0.25-0.06,0.46-0.05,0.65,0.02c0.19,0.07,0.34,0.22,0.45,0.44c0.11,0.22,0.17,0.53,0.17,0.93
				v4.53l-1.27,0.75v-0.93l-0.04,0.02c-0.08,0.26-0.18,0.5-0.31,0.74c-0.13,0.24-0.29,0.45-0.47,0.65
				C249.55,156.3,249.34,156.47,249.1,156.61z M249.48,155.1c0.2-0.12,0.37-0.27,0.52-0.47c0.15-0.2,0.27-0.42,0.35-0.65
				c0.09-0.24,0.13-0.47,0.13-0.71v-0.71c-0.04,0.06-0.1,0.13-0.17,0.2c-0.07,0.07-0.15,0.15-0.24,0.23
				c-0.09,0.08-0.18,0.15-0.27,0.23c-0.09,0.07-0.17,0.14-0.24,0.2c-0.16,0.12-0.29,0.26-0.41,0.4c-0.12,0.14-0.21,0.29-0.27,0.44
				c-0.06,0.16-0.1,0.32-0.1,0.5c0,0.25,0.07,0.41,0.2,0.46S249.28,155.22,249.48,155.1z"/>
			<path class="st6" d="M254.18,144.53v8.95l-1.33,0.79v-8.95L254.18,144.53z"/>
		</g>
	</g>
</g>
<g>
	<polygon class="st3" points="132.63,74 22.49,136.92 22.49,195.82 132.63,132.9 	"/>
	<polygon class="st2" points="8.05,128.76 22.49,136.56 22.49,195.82 8.05,188.02 	"/>
	<polygon class="st4" points="132.63,74 117.12,65.8 8.05,128.76 22.49,136.56 	"/>
</g>
<g>
	<path class="st6" d="M37.79,156.45c0,1.76-0.21,3.37-0.64,4.83c-0.42,1.46-1,2.72-1.72,3.77c-0.72,1.05-1.52,1.84-2.41,2.37
		c-0.89,0.53-1.7,0.7-2.42,0.5c-0.72-0.2-1.29-0.77-1.71-1.73c-0.42-0.96-0.63-2.31-0.63-4.06c0-1.76,0.21-3.37,0.63-4.83
		s0.99-2.71,1.71-3.76c0.72-1.05,1.53-1.84,2.42-2.37c0.89-0.53,1.69-0.7,2.41-0.51c0.72,0.19,1.3,0.76,1.72,1.72
		C37.58,153.33,37.79,154.69,37.79,156.45z M35.05,158.08c0-0.95-0.08-1.7-0.23-2.26c-0.16-0.56-0.38-0.92-0.69-1.08
		c-0.3-0.16-0.67-0.1-1.11,0.16c-0.44,0.26-0.81,0.65-1.11,1.17c-0.3,0.52-0.53,1.15-0.68,1.89s-0.23,1.59-0.23,2.54
		s0.08,1.7,0.23,2.26s0.38,0.92,0.68,1.07c0.3,0.16,0.67,0.11,1.11-0.16c0.44-0.26,0.81-0.65,1.11-1.17
		c0.3-0.52,0.53-1.15,0.69-1.89C34.98,159.87,35.05,159.03,35.05,158.08z"/>
	<path class="st6" d="M39.02,163.63v-15.82l4.23-2.52c0.73-0.43,1.36-0.58,1.91-0.44c0.55,0.14,0.97,0.54,1.27,1.2
		c0.3,0.66,0.45,1.55,0.45,2.67c0,1.13-0.16,2.21-0.47,3.22c-0.31,1.02-0.75,1.91-1.31,2.69c-0.56,0.78-1.21,1.39-1.96,1.84
		l-2.53,1.51v-3.34l1.99-1.19c0.31-0.19,0.58-0.43,0.8-0.74c0.22-0.31,0.39-0.67,0.51-1.07c0.12-0.4,0.18-0.83,0.18-1.27
		c0-0.45-0.06-0.8-0.18-1.06c-0.12-0.25-0.29-0.4-0.51-0.44c-0.22-0.04-0.49,0.03-0.8,0.22l-0.94,0.56v12.39L39.02,163.63z"/>
	<path class="st6" d="M47.86,158.36v-15.82l7.07-4.21v3.46l-4.4,2.62v2.72l4.04-2.41v3.46l-4.04,2.41v2.72l4.39-2.61v3.46
		L47.86,158.36z"/>
	<path class="st6" d="M64.74,132.49v15.82l-2.22,1.32l-3.54-6.2l-0.06,0.04v8.31l-2.66,1.58v-15.82l2.26-1.35L62,142.4l0.08-0.04
		v-8.28L64.74,132.49z"/>
	<path class="st6" d="M68.41,133.76v-3.46l8.52-5.07v3.46l-2.95,1.76v12.36l-2.62,1.56v-12.36L68.41,133.76z"/>
	<path class="st6" d="M86.97,127.16c0,1.76-0.21,3.37-0.64,4.83c-0.42,1.46-1,2.72-1.72,3.77c-0.72,1.05-1.53,1.84-2.41,2.37
		c-0.89,0.53-1.7,0.7-2.42,0.5c-0.72-0.2-1.29-0.77-1.71-1.73c-0.42-0.96-0.63-2.31-0.63-4.06c0-1.76,0.21-3.37,0.63-4.83
		c0.42-1.46,0.99-2.71,1.71-3.76c0.72-1.05,1.53-1.84,2.42-2.37c0.89-0.53,1.69-0.7,2.41-0.51c0.72,0.19,1.29,0.76,1.72,1.72
		C86.76,124.04,86.97,125.4,86.97,127.16z M84.23,128.79c0-0.95-0.08-1.7-0.23-2.26c-0.16-0.56-0.38-0.92-0.68-1.07
		c-0.3-0.16-0.67-0.11-1.11,0.16c-0.44,0.26-0.81,0.65-1.11,1.17c-0.3,0.52-0.53,1.15-0.69,1.89c-0.15,0.74-0.23,1.59-0.23,2.54
		s0.08,1.7,0.23,2.26c0.16,0.56,0.38,0.92,0.69,1.08c0.3,0.16,0.67,0.11,1.11-0.16c0.44-0.26,0.81-0.65,1.11-1.17
		c0.3-0.52,0.53-1.15,0.68-1.89C84.15,130.59,84.23,129.74,84.23,128.79z"/>
	<path class="st6" d="M93.56,115.33l2.01,9.96l0.08-0.05l2.01-12.35l3.01-1.79l-3.24,17.75l-3.64,2.17l-3.24-13.89L93.56,115.33z"/>
	<path class="st6" d="M110.49,113.15c0,1.76-0.21,3.37-0.64,4.83c-0.42,1.46-1,2.72-1.72,3.76c-0.72,1.05-1.53,1.84-2.41,2.37
		c-0.89,0.53-1.7,0.7-2.42,0.5c-0.72-0.2-1.29-0.77-1.71-1.73c-0.42-0.96-0.63-2.31-0.63-4.06c0-1.76,0.21-3.37,0.63-4.83
		c0.42-1.46,0.99-2.71,1.71-3.76c0.72-1.05,1.53-1.84,2.42-2.37c0.89-0.53,1.69-0.7,2.41-0.51c0.72,0.19,1.29,0.76,1.72,1.72
		C110.28,110.04,110.49,111.4,110.49,113.15z M107.75,114.79c0-0.95-0.08-1.7-0.23-2.26c-0.16-0.56-0.38-0.92-0.68-1.07
		c-0.3-0.16-0.67-0.11-1.11,0.16c-0.44,0.26-0.81,0.65-1.11,1.17c-0.3,0.52-0.53,1.15-0.68,1.89c-0.15,0.74-0.23,1.59-0.23,2.54
		s0.08,1.7,0.23,2.26c0.16,0.56,0.38,0.92,0.68,1.07c0.3,0.16,0.67,0.11,1.11-0.16c0.44-0.26,0.81-0.65,1.11-1.17
		c0.3-0.52,0.53-1.15,0.68-1.89C107.67,116.58,107.75,115.73,107.75,114.79z"/>
	<path class="st6" d="M110.99,108.41v-3.46l8.52-5.08v3.46l-2.95,1.76v12.36l-2.62,1.56v-12.36L110.99,108.41z"/>
	<path class="st6" d="M120.5,115.1V99.28l7.07-4.21v3.46l-4.4,2.62v2.72l4.04-2.41v3.46l-4.04,2.41v2.72l4.39-2.61v3.46L120.5,115.1
		z"/>
</g>
<g>
	<g>
		<polygon class="st2" points="259.56,170.03 215.5,195.7 215.5,192.25 259.56,166.58 		"/>
		<polygon class="st3" points="259.18,169.73 215.77,195.08 215.77,192.23 259.18,166.87 		"/>
		<polygon class="st14" points="246.98,176.56 215.6,194.94 215.6,192.59 246.98,174.28 		"/>
	</g>
	<g>
		<polygon class="st2" points="259.56,177.05 215.5,202.73 215.5,199.27 259.56,173.6 		"/>
		<polygon class="st3" points="259.19,176.8 215.5,202.27 215.49,199.41 259.18,173.94 		"/>
		<polygon class="st15" points="233.43,191.51 215.6,201.94 215.59,199.63 233.42,189.2 		"/>
	</g>
</g>
<g>
	<g>
		
			<linearGradient id="SVGID_1_" gradientUnits="userSpaceOnUse" x1="890.9293" y1="1551.9294" x2="928.5181" y2="1551.9294" gradientTransform="matrix(0.7491 -0.4602 0 1 -594.4943 -1090.4218)">
			<stop  offset="0" style="stop-color:#B4509C"/>
			<stop  offset="1" style="stop-color:#54B8C5"/>
		</linearGradient>
		
			<polygon style="fill:none;stroke:url(#SVGID_1_);stroke-width:5;stroke-linecap:round;stroke-linejoin:round;stroke-miterlimit:10;" points="
			99.18,59.02 74.77,74.02 74.77,26.65 99.18,11.65 		"/>
	</g>
	<g>
		<polygon class="st1" points="99.18,58.75 74.77,73.75 74.77,26.38 99.18,11.39 		"/>
	</g>
	<g>
		<g>
			<path class="st6" d="M80.6,33.21l-1.17,0.72l-1.13-3.39l1.05-0.65l0.66,2.34l0.66-3.16l1.05-0.65L80.6,33.21z"/>
			<path class="st6" d="M84.6,30.24c-0.32,0.59-0.72,1.03-1.2,1.33s-0.88,0.34-1.2,0.14c-0.32-0.2-0.48-0.61-0.48-1.23
				c0-0.62,0.16-1.23,0.48-1.82c0.32-0.59,0.72-1.03,1.2-1.33c0.48-0.29,0.88-0.34,1.2-0.14c0.32,0.2,0.48,0.61,0.48,1.23
				C85.08,29.04,84.92,29.65,84.6,30.24z M82.87,30.51c0.14,0.11,0.31,0.1,0.53-0.03c0.22-0.13,0.39-0.34,0.53-0.62
				c0.14-0.28,0.2-0.56,0.2-0.85c0-0.29-0.07-0.49-0.2-0.6c-0.14-0.11-0.31-0.1-0.53,0.03c-0.22,0.13-0.39,0.34-0.53,0.62
				c-0.14,0.28-0.2,0.56-0.2,0.85C82.67,30.19,82.74,30.39,82.87,30.51z"/>
			<path class="st6" d="M86.99,29.29l-0.93,0.57v-3.01l-0.82,0.5v-1.08l2.56-1.58v1.08l-0.82,0.5V29.29z"/>
			<path class="st6" d="M89.06,28.01l-0.93,0.57V24.5l0.93-0.57V28.01z"/>
			<path class="st6" d="M92.51,25.9l-0.89,0.55l-1.13-1.38v2.07l-0.93,0.57v-4.09l0.95-0.59l1.06,1.28v-1.94l0.93-0.57V25.9z"/>
			<path class="st6" d="M94.52,24.74c-0.48,0.29-0.88,0.35-1.2,0.16c-0.32-0.19-0.48-0.6-0.48-1.24c0-0.64,0.16-1.25,0.48-1.83
				c0.32-0.58,0.72-1.02,1.2-1.32c0.34-0.21,0.62-0.28,0.84-0.21c0.22,0.07,0.39,0.22,0.5,0.45l-0.78,1.01
				c-0.05-0.11-0.12-0.18-0.22-0.22c-0.1-0.04-0.21-0.02-0.34,0.06c-0.22,0.14-0.4,0.34-0.54,0.62c-0.14,0.28-0.21,0.57-0.21,0.86
				c0,0.29,0.07,0.49,0.21,0.6c0.14,0.11,0.32,0.1,0.54-0.04c0.09-0.05,0.17-0.13,0.27-0.22c0.09-0.09,0.16-0.18,0.21-0.26v-0.15
				l-0.57,0.35v-1.08l1.49-0.92v1.67C95.55,23.83,95.08,24.39,94.52,24.74z"/>
			<path class="st6" d="M79.65,39.64l-0.97,0.6v-4.29l1.72-1.05c0.36-0.22,0.65-0.26,0.85-0.1c0.2,0.16,0.31,0.44,0.31,0.86
				c0,0.42-0.1,0.83-0.31,1.23c-0.2,0.41-0.49,0.72-0.85,0.94l-0.74,0.46V39.64z M80.27,36.77c0.09-0.05,0.16-0.13,0.21-0.22
				c0.05-0.09,0.08-0.19,0.08-0.3c0-0.11-0.03-0.18-0.08-0.2c-0.05-0.02-0.13-0.01-0.21,0.04l-0.62,0.38v0.68L80.27,36.77z"/>
			<path class="st6" d="M84.71,35.98c-0.34,0.62-0.75,1.08-1.26,1.39s-0.92,0.36-1.26,0.15c-0.34-0.21-0.5-0.64-0.5-1.29
				c0-0.65,0.17-1.29,0.5-1.91c0.34-0.62,0.75-1.08,1.26-1.39c0.5-0.31,0.92-0.36,1.26-0.15c0.34,0.21,0.5,0.64,0.5,1.29
				C85.22,34.72,85.05,35.36,84.71,35.98z M82.9,36.26c0.14,0.12,0.33,0.11,0.56-0.03c0.23-0.14,0.41-0.36,0.56-0.65
				c0.14-0.29,0.21-0.59,0.21-0.9c0-0.3-0.07-0.52-0.21-0.63c-0.14-0.12-0.33-0.11-0.56,0.03c-0.23,0.14-0.41,0.36-0.56,0.65
				c-0.14,0.29-0.21,0.59-0.21,0.9C82.69,35.93,82.76,36.14,82.9,36.26z"/>
			<path class="st6" d="M89.04,33.87l-1.02,0.63l-0.41-2.18L87.19,35l-1.02,0.63l-0.92-3.73l1.09-0.67l0.41,2.37l0.49-2.93
				l0.73-0.45l0.49,2.33l0.41-2.88l1.09-0.67L89.04,33.87z"/>
			<path class="st6" d="M92.61,31.68l-2.44,1.5v-4.29l2.44-1.5v1.13l-1.47,0.9v0.42l1.43-0.88v1.13l-1.43,0.88v0.47l1.47-0.9V31.68z
				"/>
			<path class="st6" d="M95.92,29.64l-1.11,0.68l-0.44-1.08l-0.35,0.22v1.35l-0.97,0.6v-4.29l1.72-1.05
				c0.36-0.22,0.65-0.26,0.85-0.1c0.2,0.16,0.31,0.44,0.31,0.86c0,0.33-0.06,0.64-0.17,0.93c-0.11,0.28-0.25,0.53-0.41,0.73
				L95.92,29.64z M94.61,27.96c0.09-0.06,0.17-0.13,0.23-0.23c0.06-0.1,0.09-0.2,0.09-0.31c0-0.11-0.03-0.17-0.09-0.19
				c-0.06-0.02-0.14,0-0.23,0.05l-0.59,0.36v0.68L94.61,27.96z"/>
		</g>
	</g>
	
		<linearGradient id="SVGID_00000059287185364547261120000009788645249170232237_" gradientUnits="userSpaceOnUse" x1="917.0962" y1="1565.6849" x2="902.3823" y2="1553.3047" gradientTransform="matrix(0.7491 -0.4602 0 1 -594.4943 -1090.4218)">
		<stop  offset="0" style="stop-color:#C1489F"/>
		<stop  offset="1" style="stop-color:#55BAC7"/>
	</linearGradient>
	<path style="fill:url(#SVGID_00000059287185364547261120000009788645249170232237_);" d="M86.97,40.5
		c-4.09,2.51-7.41,8.98-7.41,14.44s3.32,7.85,7.41,5.34c4.09-2.51,7.41-8.98,7.41-14.44S91.06,37.99,86.97,40.5z M90.12,53.07
		c-0.08,0.16-0.19,0.29-0.33,0.38c-0.09,0.06-0.18,0.07-0.26,0.04c-0.08-0.02-0.13-0.1-0.18-0.19l-2.38-6.45l-0.87,3.44l0.43-0.26
		c0.25-0.15,0.45-0.01,0.45,0.32v0.02c0,0.33-0.2,0.72-0.45,0.87l-0.79,0.49l-1.14,4.49c-0.04,0.15-0.1,0.29-0.18,0.41
		c-0.07,0.12-0.17,0.21-0.26,0.27c-0.14,0.09-0.25,0.1-0.33,0.03c-0.08-0.07-0.12-0.19-0.12-0.37c0-0.08,0.01-0.16,0.03-0.25l1.04-4
		l-0.44,0.27c-0.25,0.15-0.45,0.01-0.45-0.32v-0.01c0-0.33,0.2-0.72,0.45-0.87l0.83-0.51l1.09-4.19c0.14-0.51,0.35-0.84,0.63-1.01
		l0.22-0.14c0.28-0.17,0.49-0.09,0.63,0.24l2.5,6.55c0.02,0.06,0.03,0.13,0.03,0.21C90.24,52.74,90.2,52.91,90.12,53.07z"/>
</g>
<g>
	<g>
		
			<linearGradient id="SVGID_00000105410776399261461650000017263522207718345131_" gradientUnits="userSpaceOnUse" x1="846.7343" y1="1689.6556" x2="896.709" y2="1689.6556" gradientTransform="matrix(0.7491 -0.4602 0 1 -594.4943 -1090.4218)">
			<stop  offset="0" style="stop-color:#B4509C"/>
			<stop  offset="1" style="stop-color:#54B8C5"/>
		</linearGradient>
		
			<polygon style="fill:none;stroke:url(#SVGID_00000105410776399261461650000017263522207718345131_);stroke-width:5;stroke-linecap:round;stroke-linejoin:round;stroke-miterlimit:10;" points="
			75.35,220.39 41.66,241.09 41.66,175.72 75.35,155.02 		"/>
	</g>
	<g>
		<polygon class="st1" points="75.35,220.02 41.66,240.72 41.66,175.34 75.35,154.65 		"/>
	</g>
	<g>
		<g>
			<path class="st6" d="M49.71,184.77l-1.61,0.99l-1.56-4.68l1.45-0.89l0.91,3.23l0.91-4.36l1.45-0.89L49.71,184.77z"/>
			<path class="st6" d="M55.23,180.67c-0.44,0.81-0.99,1.42-1.65,1.83c-0.66,0.4-1.21,0.47-1.65,0.2c-0.44-0.27-0.66-0.84-0.66-1.69
				c0-0.86,0.22-1.69,0.66-2.51c0.44-0.81,0.99-1.42,1.65-1.83c0.66-0.4,1.21-0.47,1.65-0.2c0.44,0.27,0.66,0.84,0.66,1.69
				C55.89,179.02,55.67,179.85,55.23,180.67z M52.85,181.04c0.19,0.16,0.43,0.14,0.73-0.04c0.3-0.18,0.54-0.47,0.73-0.85
				c0.19-0.39,0.28-0.78,0.28-1.18c0-0.4-0.09-0.68-0.28-0.83c-0.19-0.15-0.43-0.14-0.73,0.04c-0.3,0.18-0.54,0.47-0.73,0.85
				c-0.19,0.39-0.28,0.78-0.28,1.18C52.57,180.6,52.66,180.88,52.85,181.04z"/>
			<path class="st6" d="M58.53,179.35l-1.28,0.79v-4.15l-1.13,0.7v-1.49l3.54-2.17v1.49l-1.13,0.69V179.35z"/>
			<path class="st6" d="M61.39,177.6l-1.28,0.79v-5.64l1.28-0.79V177.6z"/>
			<path class="st6" d="M66.14,174.68l-1.23,0.75l-1.56-1.9v2.86l-1.28,0.79v-5.64l1.32-0.81l1.47,1.77v-2.67l1.28-0.79V174.68z"/>
			<path class="st6" d="M68.92,173.07c-0.66,0.4-1.21,0.48-1.66,0.22c-0.45-0.26-0.67-0.83-0.67-1.71c0-0.88,0.22-1.72,0.67-2.53
				c0.45-0.81,1-1.41,1.66-1.82c0.46-0.29,0.85-0.38,1.16-0.29c0.31,0.09,0.54,0.3,0.69,0.62l-1.08,1.4
				c-0.07-0.15-0.17-0.25-0.31-0.31c-0.14-0.05-0.29-0.03-0.47,0.08c-0.3,0.19-0.55,0.47-0.74,0.86c-0.19,0.39-0.28,0.78-0.28,1.18
				c0,0.4,0.1,0.68,0.28,0.83c0.19,0.15,0.44,0.14,0.74-0.05c0.12-0.07,0.24-0.17,0.37-0.3c0.13-0.13,0.22-0.25,0.29-0.36v-0.2
				l-0.79,0.48v-1.49l2.06-1.26v2.31C70.34,171.82,69.69,172.6,68.92,173.07z"/>
			<path class="st6" d="M48.4,193.63l-1.34,0.83v-5.93l2.37-1.46c0.5-0.31,0.89-0.35,1.17-0.14c0.28,0.21,0.42,0.61,0.42,1.19
				c0,0.57-0.14,1.14-0.42,1.7c-0.28,0.56-0.67,1-1.17,1.3l-1.02,0.63V193.63z M49.26,189.68c0.12-0.07,0.22-0.17,0.29-0.3
				c0.08-0.13,0.11-0.26,0.11-0.41c0-0.15-0.04-0.25-0.11-0.28c-0.08-0.03-0.17-0.01-0.29,0.06l-0.85,0.52v0.93L49.26,189.68z"/>
			<path class="st6" d="M55.39,188.59c-0.46,0.86-1.04,1.5-1.73,1.92s-1.27,0.49-1.73,0.21c-0.46-0.29-0.7-0.88-0.7-1.78
				c0-0.9,0.23-1.78,0.7-2.64c0.46-0.86,1.04-1.5,1.73-1.92s1.27-0.49,1.73-0.21c0.46,0.29,0.7,0.88,0.7,1.78
				C56.08,186.86,55.85,187.74,55.39,188.59z M52.89,188.98c0.2,0.16,0.45,0.15,0.77-0.05c0.31-0.19,0.57-0.49,0.77-0.9
				c0.2-0.41,0.3-0.82,0.3-1.24c0-0.42-0.1-0.71-0.3-0.88c-0.2-0.16-0.45-0.15-0.77,0.05c-0.32,0.19-0.57,0.49-0.77,0.9
				c-0.2,0.41-0.3,0.82-0.3,1.24C52.59,188.52,52.69,188.82,52.89,188.98z"/>
			<path class="st6" d="M61.36,185.67l-1.41,0.87l-0.57-3.01l-0.57,3.71l-1.41,0.87l-1.27-5.15l1.5-0.92l0.57,3.27l0.67-4.04
				l1.01-0.62l0.67,3.21l0.57-3.97l1.51-0.93L61.36,185.67z"/>
			<path class="st6" d="M66.28,182.65l-3.37,2.07v-5.93l3.37-2.07v1.56l-2.02,1.24v0.59l1.98-1.21v1.56l-1.98,1.21v0.65l2.02-1.24
				V182.65z"/>
			<path class="st6" d="M70.85,179.84l-1.53,0.94l-0.61-1.49l-0.49,0.3v1.87l-1.34,0.83v-5.93l2.37-1.46
				c0.5-0.31,0.89-0.35,1.17-0.14c0.28,0.21,0.42,0.61,0.42,1.19c0,0.46-0.08,0.89-0.24,1.28c-0.16,0.39-0.35,0.73-0.56,1
				L70.85,179.84z M69.04,177.52c0.12-0.08,0.23-0.18,0.31-0.31c0.08-0.13,0.13-0.27,0.13-0.43c0-0.15-0.04-0.24-0.13-0.26
				c-0.08-0.03-0.19,0-0.31,0.07l-0.82,0.5v0.93L69.04,177.52z"/>
		</g>
	</g>
	
		<linearGradient id="SVGID_00000133504409285151552970000015955791662922190468_" gradientUnits="userSpaceOnUse" x1="881.8962" y1="1708.6392" x2="861.59" y2="1691.5535" gradientTransform="matrix(0.7491 -0.4602 0 1 -594.4943 -1090.4218)">
		<stop  offset="0" style="stop-color:#C1489F"/>
		<stop  offset="1" style="stop-color:#55BAC7"/>
	</linearGradient>
	<path style="fill:url(#SVGID_00000133504409285151552970000015955791662922190468_);" d="M58.5,194.83
		c-5.64,3.47-10.22,12.39-10.22,19.93s4.58,10.83,10.22,7.37s10.22-12.39,10.22-19.93C68.73,194.65,64.15,191.36,58.5,194.83z
		 M62.85,212.18c-0.11,0.23-0.27,0.4-0.46,0.52c-0.13,0.08-0.25,0.1-0.36,0.06c-0.11-0.03-0.19-0.13-0.25-0.27l-3.29-8.9l-1.21,4.75
		l0.59-0.36c0.34-0.21,0.62-0.01,0.62,0.45v0.02c0,0.46-0.28,1-0.62,1.21l-1.1,0.67l-1.58,6.2c-0.06,0.21-0.14,0.4-0.25,0.57
		c-0.1,0.16-0.23,0.29-0.36,0.38c-0.19,0.12-0.35,0.14-0.46,0.05c-0.11-0.09-0.17-0.26-0.17-0.52c0-0.11,0.01-0.22,0.04-0.35
		l1.44-5.51l-0.61,0.37c-0.34,0.21-0.62,0.01-0.62-0.45v-0.01c0-0.46,0.28-1,0.62-1.21l1.14-0.7l1.5-5.79
		c0.19-0.7,0.49-1.16,0.87-1.39l0.3-0.19c0.38-0.23,0.67-0.13,0.87,0.33l3.46,9.03c0.03,0.08,0.04,0.18,0.04,0.29
		C63.02,211.71,62.96,211.96,62.85,212.18z"/>
</g>
<g>
	
		<linearGradient id="SVGID_00000029724672785170299000000018262007374401016763_" gradientUnits="userSpaceOnUse" x1="203.5193" y1="21.5501" x2="223.3187" y2="21.5501">
		<stop  offset="0" style="stop-color:#B4509C"/>
		<stop  offset="1" style="stop-color:#54B8C5"/>
	</linearGradient>
	<path style="fill:url(#SVGID_00000029724672785170299000000018262007374401016763_);" d="M223.32,26.8V6.6
		c0-1.45-1.59-2.34-2.83-1.58l-16.08,9.88c-0.55,0.34-0.89,0.94-0.89,1.58v21.88L223.32,26.8z M208.25,18.09l10.33-6.35v16.66
		c-0.71,0.48-1.42,0.96-2.13,1.44c-2.68,1.81-5.42,3.66-8.2,5.41V18.09z"/>
	<polygon class="st49" points="220.95,28.18 220.95,7.35 205.89,16.6 205.89,36.98 	"/>
	<g>
		<g>
			<path class="st6" d="M209.49,20.82l-0.72,0.44l-0.7-2.09l0.65-0.4l0.41,1.45l0.41-1.95l0.65-0.4L209.49,20.82z"/>
			<path class="st6" d="M211.95,18.98c-0.2,0.36-0.44,0.64-0.74,0.82s-0.54,0.21-0.74,0.09c-0.2-0.12-0.3-0.37-0.3-0.76
				c0-0.38,0.1-0.76,0.3-1.12c0.2-0.36,0.44-0.64,0.74-0.82c0.29-0.18,0.54-0.21,0.74-0.09c0.2,0.12,0.3,0.37,0.3,0.76
				C212.25,18.24,212.15,18.62,211.95,18.98z M210.89,19.15c0.08,0.07,0.19,0.06,0.33-0.02c0.13-0.08,0.24-0.21,0.33-0.38
				c0.08-0.17,0.13-0.35,0.13-0.53c0-0.18-0.04-0.3-0.13-0.37c-0.08-0.07-0.19-0.06-0.33,0.02c-0.13,0.08-0.24,0.21-0.33,0.38
				c-0.08,0.17-0.13,0.35-0.13,0.53C210.76,18.95,210.81,19.08,210.89,19.15z"/>
			<path class="st6" d="M213.43,18.39l-0.57,0.35v-1.86l-0.51,0.31v-0.67l1.58-0.97v0.67l-0.5,0.31V18.39z"/>
			<path class="st6" d="M214.71,17.61l-0.57,0.35v-2.52l0.57-0.35V17.61z"/>
			<path class="st6" d="M216.83,16.3l-0.55,0.34l-0.7-0.85v1.28l-0.57,0.35V14.9l0.59-0.36l0.66,0.79v-1.19l0.57-0.35V16.3z"/>
			<path class="st6" d="M218.08,15.59c-0.29,0.18-0.54,0.21-0.74,0.1c-0.2-0.12-0.3-0.37-0.3-0.76s0.1-0.77,0.3-1.13
				c0.2-0.36,0.45-0.63,0.74-0.81c0.21-0.13,0.38-0.17,0.52-0.13c0.14,0.04,0.24,0.13,0.31,0.28l-0.48,0.62
				c-0.03-0.07-0.08-0.11-0.14-0.14c-0.06-0.02-0.13-0.01-0.21,0.04c-0.14,0.08-0.25,0.21-0.33,0.38c-0.08,0.17-0.13,0.35-0.13,0.53
				c0,0.18,0.04,0.3,0.13,0.37c0.08,0.07,0.2,0.06,0.33-0.02c0.05-0.03,0.11-0.08,0.16-0.13c0.06-0.06,0.1-0.11,0.13-0.16v-0.09
				l-0.35,0.22v-0.67l0.92-0.57v1.03C218.71,15.03,218.42,15.37,218.08,15.59z"/>
			<path class="st6" d="M208.9,24.78l-0.6,0.37V22.5l1.06-0.65c0.22-0.14,0.4-0.16,0.53-0.06c0.13,0.1,0.19,0.27,0.19,0.53
				c0,0.26-0.06,0.51-0.19,0.76c-0.13,0.25-0.3,0.45-0.53,0.58l-0.46,0.28V24.78z M209.28,23.01c0.05-0.03,0.1-0.08,0.13-0.13
				c0.03-0.06,0.05-0.12,0.05-0.18c0-0.07-0.02-0.11-0.05-0.13c-0.03-0.02-0.08-0.01-0.13,0.03l-0.38,0.23v0.42L209.28,23.01z"/>
			<path class="st6" d="M212.03,22.53c-0.21,0.38-0.47,0.67-0.78,0.86c-0.31,0.19-0.57,0.22-0.78,0.09
				c-0.21-0.13-0.31-0.39-0.31-0.8c0-0.4,0.1-0.8,0.31-1.18c0.21-0.38,0.47-0.67,0.78-0.86c0.31-0.19,0.57-0.22,0.78-0.09
				c0.21,0.13,0.31,0.39,0.31,0.8C212.34,21.75,212.23,22.14,212.03,22.53z M210.91,22.7c0.09,0.07,0.2,0.07,0.34-0.02
				c0.14-0.09,0.26-0.22,0.34-0.4c0.09-0.18,0.13-0.37,0.13-0.55c0-0.19-0.04-0.32-0.13-0.39c-0.09-0.07-0.2-0.07-0.34,0.02
				c-0.14,0.09-0.26,0.22-0.34,0.4c-0.09,0.18-0.13,0.37-0.13,0.55C210.77,22.5,210.82,22.63,210.91,22.7z"/>
			<path class="st6" d="M214.7,21.22l-0.63,0.39l-0.26-1.34l-0.26,1.66l-0.63,0.39l-0.57-2.3l0.67-0.41l0.26,1.46l0.3-1.81
				l0.45-0.28l0.3,1.44l0.25-1.78l0.68-0.42L214.7,21.22z"/>
			<path class="st6" d="M216.9,19.87l-1.51,0.93v-2.65l1.51-0.93v0.7l-0.9,0.56v0.26l0.88-0.54v0.7l-0.88,0.54v0.29l0.9-0.56V19.87z
				"/>
			<path class="st6" d="M218.94,18.61l-0.68,0.42l-0.27-0.67l-0.22,0.13v0.83l-0.6,0.37v-2.65l1.06-0.65
				c0.22-0.14,0.4-0.16,0.53-0.06c0.13,0.1,0.19,0.27,0.19,0.53c0,0.21-0.04,0.4-0.11,0.57c-0.07,0.18-0.15,0.33-0.25,0.45
				L218.94,18.61z M218.13,17.58c0.06-0.03,0.1-0.08,0.14-0.14c0.04-0.06,0.06-0.12,0.06-0.19c0-0.07-0.02-0.11-0.06-0.12
				c-0.04-0.01-0.08,0-0.14,0.03l-0.37,0.22v0.42L218.13,17.58z"/>
		</g>
	</g>
	<path d="M206.36,36.7V16.87l14.12-8.67v20.27l0.95-0.55V7.35c0-0.17-0.09-0.33-0.24-0.41c-0.15-0.08-0.33-0.08-0.48,0.01
		l-15.06,9.26c-0.14,0.09-0.23,0.24-0.23,0.4v20.65L206.36,36.7z"/>
	<g>
		
			<linearGradient id="SVGID_00000128444930092449985850000007295796302504794278_" gradientUnits="userSpaceOnUse" x1="215.6483" y1="32.5676" x2="210.5804" y2="28.3035">
			<stop  offset="0" style="stop-color:#C1489F"/>
			<stop  offset="1" style="stop-color:#55BAC7"/>
		</linearGradient>
		<path style="fill:url(#SVGID_00000128444930092449985850000007295796302504794278_);" d="M211.82,33.51l0.23-0.9l-0.27,0.17
			c-0.15,0.09-0.28,0-0.28-0.2v-0.01c0-0.2,0.12-0.45,0.28-0.54l0.51-0.31l0.67-2.59c0.09-0.31,0.22-0.52,0.39-0.62l0.14-0.08
			c0.17-0.1,0.3-0.06,0.39,0.15l1.17,3.05l2.83-1.65c0.07-0.46,0.12-0.92,0.12-1.37c0-3.37-2.05-4.84-4.57-3.29
			c-2.52,1.55-4.57,5.54-4.57,8.91c0,0.35,0.03,0.67,0.07,0.98L211.82,33.51z"/>
		
			<linearGradient id="SVGID_00000012453816654746373520000006587177238316057008_" gradientUnits="userSpaceOnUse" x1="214.181" y1="32.2654" x2="212.2689" y2="30.6565">
			<stop  offset="0" style="stop-color:#C1489F"/>
			<stop  offset="1" style="stop-color:#55BAC7"/>
		</linearGradient>
		<path style="fill:url(#SVGID_00000012453816654746373520000006587177238316057008_);" d="M213.14,31.95l-0.49,0.3l-0.23,0.92
			l2.02-1.18l-1.02-2.75l-0.54,2.13l0.26-0.16c0.15-0.09,0.28,0,0.28,0.2v0.01C213.41,31.61,213.29,31.85,213.14,31.95z"/>
	</g>
</g>
<polygon class="st3" points="259.82,27.52 258.47,26.76 266.31,22.14 267.66,22.9 "/>
<polygon class="st3" points="139.38,24.63 137.2,23.4 149.87,15.92 152.05,17.15 "/>
<g>
	<path id="矩形_00000023265548685974492650000012939252271848885664_" class="st82" d="M172.16,217.11L172.16,217.11
		c0.62,0,1.15,0.76,1.15,1.64v1.52c0,0.88-0.53,1.64-1.15,1.64l0,0c-0.62,0-1.15-0.76-1.15-1.64v-1.52
		C171.02,217.8,171.55,217.11,172.16,217.11z"/>
	
		<radialGradient id="SVGID_00000150076257857779396000000010361964264047699077_" cx="140.6214" cy="251.2355" r="29.1582" gradientTransform="matrix(1 0 0 0.5898 0 103.0585)" gradientUnits="userSpaceOnUse">
		<stop  offset="0" style="stop-color:#06070C"/>
		<stop  offset="1" style="stop-color:#0D101D;stop-opacity:0"/>
	</radialGradient>
	<path style="opacity:0.67;fill:url(#SVGID_00000150076257857779396000000010361964264047699077_);" d="M165.62,237.16
		c-13.68-7.9-35.96-8-49.77-0.23s-13.91,20.48-0.23,28.37s35.96,8,49.77,0.23C179.19,257.76,179.3,245.06,165.62,237.16z"/>
	<g>
		<path class="st84" d="M179.12,201.13v-49.28c0-0.23,0.02-0.45,0.02-0.68c0-22.91-18.57-41.48-41.48-41.48
			c-22.91,0-41.48,18.57-41.48,41.48c0,0.36,0.02,0.72,0.03,1.07v44.66h-0.03v22.67c0,2.84,2.3,5.15,5.15,5.15
			c2.84,0,5.15-2.31,5.15-5.15v-0.83c0.56,0.36,1.13,0.72,1.74,1.07c1.83,1.06,3.79,1.99,5.85,2.81v8.2c0,2.84,2.3,5.15,5.15,5.15
			c2.84,0,5.15-2.31,5.15-5.15v-5.23c2.95,0.57,5.99,0.96,9.06,1.14v12.59c0,2.84,2.3,5.15,5.15,5.15s5.15-2.31,5.15-5.15v-12.7
			c3.39-0.28,6.73-0.8,9.93-1.55v6.36c0,2.84,2.3,5.15,5.15,5.15s5.15-2.31,5.15-5.15v-9.87c1-0.47,1.97-0.96,2.91-1.49
			c0.7-0.39,1.35-0.8,1.99-1.21v0.71c0,2.84,2.3,5.15,5.15,5.15c2.84,0,5.15-2.31,5.15-5.15v-18.45H179.12z"/>
		
			<radialGradient id="SVGID_00000068672296352968676930000012173595686671730574_" cx="162.3441" cy="127.1149" r="106.6854" gradientUnits="userSpaceOnUse">
			<stop  offset="0.0124" style="stop-color:#DD78CE"/>
			<stop  offset="0.4936" style="stop-color:#A7589A"/>
			<stop  offset="0.5829" style="stop-color:#A0619E"/>
			<stop  offset="0.7273" style="stop-color:#8E79A8"/>
			<stop  offset="0.9078" style="stop-color:#709FB9"/>
			<stop  offset="1" style="stop-color:#5EB6C3"/>
		</radialGradient>
		<path style="fill:url(#SVGID_00000068672296352968676930000012173595686671730574_);" d="M179.12,201.13v-49.28
			c0-0.23,0.02-0.45,0.02-0.68c0-22.91-18.57-41.48-41.48-41.48c-22.91,0-41.48,18.57-41.48,41.48c0,0.36,0.02,0.72,0.03,1.07v44.66
			h-0.03v22.67c0,2.84,2.3,5.15,5.15,5.15c2.84,0,5.15-2.31,5.15-5.15v-0.83c0.56,0.36,1.13,0.72,1.74,1.07
			c1.83,1.06,3.79,1.99,5.85,2.81v8.2c0,2.84,2.3,5.15,5.15,5.15c2.84,0,5.15-2.31,5.15-5.15v-5.23c2.95,0.57,5.99,0.96,9.06,1.14
			v12.59c0,2.84,2.3,5.15,5.15,5.15s5.15-2.31,5.15-5.15v-12.7c3.39-0.28,6.73-0.8,9.93-1.55v6.36c0,2.84,2.3,5.15,5.15,5.15
			s5.15-2.31,5.15-5.15v-9.87c1-0.47,1.97-0.96,2.91-1.49c0.7-0.39,1.35-0.8,1.99-1.21v0.71c0,2.84,2.3,5.15,5.15,5.15
			c2.84,0,5.15-2.31,5.15-5.15v-18.45H179.12z"/>
	</g>
	<path id="矩形_00000157274327544546760850000005986341179244808861_" class="st82" d="M100.07,187.29L100.07,187.29
		c1.12,0,2.09,1.38,2.09,2.99v14.25c0,1.61-0.96,2.99-2.09,2.99l0,0c-1.12,0-2.09-1.38-2.09-2.99v-14.25
		C97.99,188.67,98.95,187.29,100.07,187.29z"/>
	<path id="矩形_00000023269522807934098110000015755908045546535095_" class="st82" d="M161.37,124.2L161.37,124.2
		c1.37-1.02,3.68-0.37,5.02,1.41l2.29,3.06c1.34,1.78,1.31,4.19-0.06,5.22l0,0c-1.37,1.02-3.68,0.37-5.02-1.41l-2.29-3.06
		C159.88,127.5,160.01,125.23,161.37,124.2z"/>
	<path id="矩形_00000121994917870820220140000009013383381852214175_" class="st82" d="M117.47,223.88L117.47,223.88
		c1.12,0,2.09,1.38,2.09,2.99v2.76c0,1.61-0.96,2.99-2.09,2.99l0,0c-1.12,0-2.09-1.38-2.09-2.99v-2.76
		C115.38,225.14,116.35,223.88,117.47,223.88z"/>
	<path id="矩形_00000142874391440305036330000006669835717772360067_" class="st82" d="M99.82,213.08L99.82,213.08
		c1.12,0,2.09,1.38,2.09,2.99v2.76c0,1.61-0.96,2.99-2.09,2.99l0,0c-1.12,0-2.09-1.38-2.09-2.99v-2.76
		C97.74,214.34,98.7,213.08,99.82,213.08z"/>
	<path id="矩形_00000034803884158828925040000006312913904657730977_" class="st82" d="M137.66,232.62L137.66,232.62
		c1.12,0,2.09,1.38,2.09,2.99v2.76c0,1.61-0.96,2.99-2.09,2.99l0,0c-1.12,0-2.09-1.38-2.09-2.99v-2.76
		C135.57,233.88,136.54,232.62,137.66,232.62z"/>
	<path id="矩形_00000183962904679116055400000014016392506755116982_" class="st82" d="M157.36,227.27L157.36,227.27
		c0.89,0,1.66,1.1,1.66,2.37v2.19c0,1.28-0.76,2.37-1.66,2.37l0,0c-0.89,0-1.66-1.1-1.66-2.37v-2.19
		C155.7,228.28,156.47,227.27,157.36,227.27z"/>
	<g>
		<path id="椭圆形_00000137837967559389343030000015358377626584497803_" class="st86" d="M147.67,182.16
			c4.06-0.17,7.1-3.66,7.09-6c0-0.94-0.55-1.75-1.38-1.81c-1.29-0.13-3.23,0.7-5.72,0.8c-2.31,0.1-3.78-0.5-5.53-0.42
			c-1.84,0.08-1.75,2.22-1.47,3.06C141.3,180.09,143.52,182.33,147.67,182.16z"/>
		<path id="椭圆形_00000095337929613898024040000008905464957124237232_" class="st87" d="M147.76,180.19
			c4.15-0.17,7.19-3.38,7.19-5.63c0-0.84-0.55-1.57-1.38-1.63c-1.29-0.13-3.32,0.7-5.81,0.8c-2.4,0.1-3.78-0.5-5.62-0.43
			s-1.75,2.13-1.48,2.87C141.3,178.3,143.61,180.36,147.76,180.19z"/>
	</g>
	<g>
		
			<ellipse transform="matrix(0.5671 -0.8237 0.8237 0.5671 -74.1156 176.3792)" class="st87" cx="130.72" cy="158.69" rx="9.5" ry="9.1"/>
		<path id="形状结合_00000153672998867488876740000017650498821324272023_" class="st88" d="M131.92,148.73
			c4.24-0.18,7.66,3.98,7.66,9.22c0,0.19,0,0.37,0,0.56l0,0.56c0-5.33-3.33-9.59-7.48-9.42c-4.15,0.17-7.46,4.61-7.46,10.04
			c0,1.03,0.09,2.05,0.37,2.98c-0.46-1.2-0.74-2.59-0.74-3.99C124.27,153.35,127.68,148.9,131.92,148.73z"/>
		<path id="形状结合_00000085955223974186114990000002304969850617821353_" class="st89" d="M131.92,147.6
			c4.7-0.2,8.58,4.41,8.58,10.31c0.01,5.89-3.86,10.83-8.57,11.02c-4.7,0.2-8.58-4.41-8.58-10.31
			C123.35,152.73,127.12,147.8,131.92,147.6z M131.92,148.73c-4.24,0.18-7.65,4.62-7.64,9.86c0,5.24,3.42,9.4,7.66,9.22
			c4.24-0.18,7.65-4.62,7.64-9.86C139.58,152.71,136.07,148.55,131.92,148.73z"/>
	</g>
	<g>
		
			<ellipse transform="matrix(0.5671 -0.8237 0.8237 0.5671 -59.6804 201.0825)" class="st87" cx="161.44" cy="157.31" rx="9.5" ry="9.1"/>
		<path id="形状结合_00000150817725586915542540000007765414565157247658_" class="st88" d="M162.43,147.35
			c4.24-0.18,7.66,3.98,7.66,9.22c0,0.19,0,0.37,0,0.56l0,0.56c0-5.33-3.33-9.59-7.48-9.42c-4.15,0.17-7.46,4.61-7.46,10.04
			c0,1.03,0.09,2.05,0.37,2.98c-0.46-1.2-0.74-2.59-0.74-3.99C154.78,151.98,158.19,147.53,162.43,147.35z"/>
		<path id="形状结合_00000126317089401196512530000008566344633865675666_" class="st89" d="M162.43,146.23
			c4.7-0.2,8.58,4.41,8.58,10.31s-3.86,10.83-8.57,11.02s-8.58-4.41-8.58-10.31C153.86,151.36,157.64,146.43,162.43,146.23z
			 M162.43,147.35c-4.24,0.18-7.65,4.62-7.64,9.86s3.42,9.4,7.66,9.22c4.24-0.18,7.65-4.62,7.64-9.86
			C170.09,151.34,166.58,147.18,162.43,147.35z"/>
	</g>
	<circle class="st86" cx="134.31" cy="153.78" r="3.77"/>
	<circle class="st86" cx="164.85" cy="152.66" r="3.77"/>
</g>
</svg>
