<?xml version="1.0" encoding="utf-8"?>
<!-- Generator: Adobe Illustrator 27.8.1, SVG Export Plug-In . SVG Version: 6.00 Build 0)  -->
<svg version="1.1" id="Слой_1" xmlns="http://www.w3.org/2000/svg" xmlns:xlink="http://www.w3.org/1999/xlink" x="0px" y="0px"
	 viewBox="0 0 290 269.62" style="enable-background:new 0 0 290 269.62;" xml:space="preserve">
<style type="text/css">
	.st0{stroke:#000000;stroke-linecap:round;stroke-linejoin:round;stroke-miterlimit:10;}
	.st1{fill:#222846;stroke:#000000;stroke-linecap:round;stroke-linejoin:round;stroke-miterlimit:10;}
	.st2{fill-rule:evenodd;clip-rule:evenodd;stroke:#000000;stroke-linecap:round;stroke-linejoin:round;stroke-miterlimit:10;}
	
		.st3{fill-rule:evenodd;clip-rule:evenodd;fill:#222846;stroke:#000000;stroke-linecap:round;stroke-linejoin:round;stroke-miterlimit:10;}
	
		.st4{fill-rule:evenodd;clip-rule:evenodd;fill:#4A5479;stroke:#000000;stroke-linecap:round;stroke-linejoin:round;stroke-miterlimit:10;}
	.st5{fill-rule:evenodd;clip-rule:evenodd;fill:#5C6A91;}
	.st6{fill:#6D75A2;}
	.st7{stroke:#1A213A;stroke-linecap:round;stroke-linejoin:round;stroke-miterlimit:10;}
	.st8{stroke:#4A5479;stroke-linecap:round;stroke-linejoin:round;stroke-miterlimit:10;}
	.st9{fill:url(#SVGID_1_);}
	.st10{fill:url(#SVGID_00000141435863032798639770000017756572941198176388_);}
	.st11{fill:url(#SVGID_00000039856606543438561220000008890701097929093787_);}
	
		.st12{fill:none;stroke:url(#SVGID_00000087399024992503827640000006441369149352548227_);stroke-width:5;stroke-linecap:round;stroke-linejoin:round;stroke-miterlimit:10;}
	.st13{fill:url(#SVGID_00000166645957060901353070000006133261375243215794_);}
	.st14{fill-rule:evenodd;clip-rule:evenodd;fill:#1AD4B3;}
	.st15{fill-rule:evenodd;clip-rule:evenodd;fill:#FC4F83;}
	.st16{fill:#4A5479;stroke:#000000;stroke-linecap:round;stroke-linejoin:round;stroke-miterlimit:10;}
	
		.st17{fill:url(#SVGID_00000183950594942425028290000003317801521498903681_);stroke:#1D1D1B;stroke-width:0.2115;stroke-linecap:round;stroke-linejoin:round;stroke-miterlimit:10;}
	.st18{fill-rule:evenodd;clip-rule:evenodd;}
	
		.st19{fill:url(#SVGID_00000115489990767784106720000010213270389700506282_);stroke:#1D1D1B;stroke-width:0.2115;stroke-linecap:round;stroke-linejoin:round;stroke-miterlimit:10;}
	
		.st20{fill:url(#SVGID_00000155128941326730693990000005557591412055441078_);stroke:#1D1D1B;stroke-width:0.2115;stroke-linecap:round;stroke-linejoin:round;stroke-miterlimit:10;}
	
		.st21{fill:url(#SVGID_00000040545242302029913800000000246739737789821076_);stroke:#1D1D1B;stroke-width:0.2115;stroke-linecap:round;stroke-linejoin:round;stroke-miterlimit:10;}
	.st22{fill-rule:evenodd;clip-rule:evenodd;fill:url(#SVGID_00000082361210093311746820000005910921536951178134_);}
	.st23{fill-rule:evenodd;clip-rule:evenodd;fill:url(#SVGID_00000066490380876298777050000004141822511441898428_);}
	.st24{fill:url(#SVGID_00000004533791218767888570000011825808069512371361_);}
	.st25{fill:url(#SVGID_00000060022116852326788420000005620119486889716896_);}
	.st26{fill:url(#SVGID_00000136372331748778069000000008654185046302295726_);}
	
		.st27{fill-rule:evenodd;clip-rule:evenodd;fill:#4AA089;stroke:url(#SVGID_00000148648389113595770580000007481161981720495288_);stroke-linecap:round;stroke-linejoin:round;stroke-miterlimit:10;}
	
		.st28{fill-rule:evenodd;clip-rule:evenodd;fill:#4AA089;stroke:url(#SVGID_00000134963457592124642210000013847525243752694715_);stroke-linecap:round;stroke-linejoin:round;stroke-miterlimit:10;}
	
		.st29{fill:none;stroke:url(#SVGID_00000085220501588255284470000004863431564183638671_);stroke-width:5;stroke-linecap:round;stroke-linejoin:round;stroke-miterlimit:10;}
	.st30{fill:url(#SVGID_00000102519594300093191190000002031014296207518642_);}
	
		.st31{fill:none;stroke:url(#SVGID_00000054954223499323150780000014758281681358648469_);stroke-width:5;stroke-linecap:round;stroke-linejoin:round;stroke-miterlimit:10;}
	.st32{fill:url(#SVGID_00000041253039530852033010000018177428236578486938_);}
	
		.st33{fill:none;stroke:url(#SVGID_00000032631718601064812480000005741081077451033486_);stroke-width:5;stroke-linecap:round;stroke-linejoin:round;stroke-miterlimit:10;}
	.st34{fill:url(#SVGID_00000103256207744798231030000001564531983247555763_);}
	.st35{fill:#4A5479;}
	
		.st36{fill-rule:evenodd;clip-rule:evenodd;fill:#1AD4B3;stroke:#111422;stroke-linecap:round;stroke-linejoin:round;stroke-miterlimit:10;}
	
		.st37{fill-rule:evenodd;clip-rule:evenodd;fill:#4AA089;stroke:url(#SVGID_00000009570636385227453520000009198565506039248011_);stroke-linecap:round;stroke-linejoin:round;stroke-miterlimit:10;}
	.st38{fill:#FFFFFF;}
	
		.st39{fill-rule:evenodd;clip-rule:evenodd;fill:#FC4F83;stroke:#111422;stroke-linecap:round;stroke-linejoin:round;stroke-miterlimit:10;}
	
		.st40{fill-rule:evenodd;clip-rule:evenodd;fill:#CB3D61;stroke:#000000;stroke-linecap:round;stroke-linejoin:round;stroke-miterlimit:10;}
	.st41{fill:url(#SVGID_00000057109807924206936030000001391547717016055484_);}
	.st42{fill:url(#SVGID_00000032626554584688708010000011454241590736285826_);}
	.st43{fill:url(#SVGID_00000017499708864595569390000015026262205173958571_);}
	
		.st44{fill:none;stroke:url(#SVGID_00000038375915903826600740000002526757212001183668_);stroke-width:5;stroke-linecap:round;stroke-linejoin:round;stroke-miterlimit:10;}
	.st45{fill:url(#SVGID_00000130612192860668853170000012069775062280152748_);}
	
		.st46{fill:none;stroke:url(#SVGID_00000090279038779885773120000014470686142040245410_);stroke-width:5;stroke-linecap:round;stroke-linejoin:round;stroke-miterlimit:10;}
	.st47{fill:url(#SVGID_00000123425644088059781110000005617353913434974386_);}
	.st48{fill:url(#SVGID_00000091005407352495238840000005820773361632260523_);}
	.st49{fill:#222846;}
	.st50{fill:url(#SVGID_00000132049377511636667830000017466955997863069577_);}
	.st51{fill:url(#SVGID_00000040556399811968192620000005712264749406007227_);}
	.st52{fill:url(#SVGID_00000178890850540258858010000005968010949897158273_);}
	.st53{fill:url(#SVGID_00000029027291133613785650000000824963176196880801_);}
	.st54{fill:url(#SVGID_00000110457724777123405110000016205030522800095400_);}
	.st55{fill:url(#SVGID_00000183964636401677964370000015361481068832218022_);}
	.st56{fill-rule:evenodd;clip-rule:evenodd;fill:#6D75A2;}
	.st57{fill-rule:evenodd;clip-rule:evenodd;fill:#4A5479;}
	.st58{opacity:0.29;fill:url(#SVGID_00000144315074732543835910000012242062995798927255_);enable-background:new    ;}
	.st59{fill:url(#SVGID_00000050662358907182170770000012263910038996229534_);}
	.st60{fill:url(#SVGID_00000146466261619623417520000012473050689828768920_);}
	.st61{fill:url(#SVGID_00000026129437397040278480000016065931928628278939_);}
	.st62{fill-rule:evenodd;clip-rule:evenodd;fill:url(#SVGID_00000134930963373569677100000003899746961434504840_);}
	.st63{fill:url(#SVGID_00000121980889000680949280000005616126388141520530_);}
	.st64{fill:url(#SVGID_00000095307049398230417620000014196258885569277346_);}
	.st65{fill:url(#SVGID_00000013180511279377445410000008582620274912822932_);}
	.st66{fill:url(#SVGID_00000041986651933947072950000005336685303662625193_);}
	.st67{opacity:0.29;fill:url(#SVGID_00000103964475995054716120000009927977963851696266_);enable-background:new    ;}
	.st68{fill-rule:evenodd;clip-rule:evenodd;fill:#222846;}
	
		.st69{fill:none;stroke:url(#SVGID_00000176038944641529428470000002942253858861467798_);stroke-width:5;stroke-linecap:round;stroke-linejoin:round;stroke-miterlimit:10;}
	.st70{fill:url(#SVGID_00000092440552529062029490000001524648657562562492_);}
	
		.st71{fill:none;stroke:url(#SVGID_00000038370930903646719140000004081555638051154053_);stroke-width:5;stroke-linecap:round;stroke-linejoin:round;stroke-miterlimit:10;}
	.st72{fill:url(#SVGID_00000134236776946934707610000002515703361282190208_);}
	
		.st73{fill:none;stroke:url(#SVGID_00000099645450523337077010000004326423415405133757_);stroke-width:5;stroke-linecap:round;stroke-linejoin:round;stroke-miterlimit:10;}
	.st74{fill:url(#SVGID_00000179644959837257715580000001840801349349583269_);}
	
		.st75{fill-rule:evenodd;clip-rule:evenodd;fill:#4AA089;stroke:url(#SVGID_00000003068563472703353290000009952785415326835075_);stroke-linecap:round;stroke-linejoin:round;stroke-miterlimit:10;}
	.st76{fill-rule:evenodd;clip-rule:evenodd;fill:url(#SVGID_00000112619847412269007670000005647039587668691848_);}
	.st77{fill:url(#SVGID_00000042011786011801098150000004961028910028337305_);}
	.st78{fill:url(#SVGID_00000180353118866480383600000004919170983092468914_);}
	.st79{fill:url(#SVGID_00000120551192635549264960000014599763669619055246_);}
	.st80{opacity:0.29;fill:url(#SVGID_00000006686110612060662500000002084291940913801601_);}
	.st81{opacity:0.29;fill:url(#SVGID_00000161616334319693510460000016538061254939733680_);}
	.st82{opacity:0.2563;fill-rule:evenodd;clip-rule:evenodd;fill:#FFFFFF;enable-background:new    ;}
	.st83{opacity:0.67;fill:url(#SVGID_00000174580491501715987650000005260344714352328358_);}
	.st84{fill:#3FA9BD;}
	.st85{fill:url(#SVGID_00000097491396238670566770000009361579127788903825_);}
	.st86{fill-rule:evenodd;clip-rule:evenodd;fill:#555069;}
	.st87{fill-rule:evenodd;clip-rule:evenodd;fill:#FFFFFF;}
	.st88{fill-rule:evenodd;clip-rule:evenodd;fill:#AFAFB1;}
	.st89{fill-rule:evenodd;clip-rule:evenodd;fill:#D3D3D3;}
	.st90{opacity:0.67;fill:url(#SVGID_00000103265127940312343270000008695968189529824143_);}
	.st91{fill:url(#SVGID_00000139292920028951158340000016134255295805419944_);}
	.st92{opacity:0.67;fill:url(#SVGID_00000085251226928747065520000005014031264674139535_);}
	.st93{fill:url(#SVGID_00000163048229021189619630000010587845293191951550_);}
	.st94{opacity:0.67;fill:url(#SVGID_00000008846507550492328320000017442503966922304688_);}
	.st95{fill:url(#SVGID_00000078749567492868282200000000525432272386751386_);}
	.st96{opacity:0.67;fill:url(#SVGID_00000041995646001341487220000016237099415637168003_);}
	.st97{fill:url(#SVGID_00000047032116639345198950000013309626162676857253_);}
	.st98{opacity:0.67;fill:url(#SVGID_00000074418447641325441360000002643427473084636836_);}
	.st99{fill:url(#SVGID_00000065793748428944864960000012739732471254569394_);}
	.st100{fill:#1AD4B3;}
	.st101{opacity:0.67;fill:url(#SVGID_00000100376424935932619010000003074037507371745198_);}
	.st102{fill:url(#SVGID_00000021820090749374342300000004710983267209510038_);}
	.st103{opacity:0.67;fill:url(#SVGID_00000129179274657784275170000002981558475608948876_);}
	.st104{fill:url(#SVGID_00000063598104597649717090000005088852705735977130_);}
	.st105{opacity:0.67;fill:url(#SVGID_00000047773330285006100590000009040721094840409002_);}
	.st106{fill:url(#SVGID_00000165917519505497371590000012008424293301839282_);}
	.st107{opacity:0.67;fill:url(#SVGID_00000132801252299897536430000008843657375451825052_);}
	.st108{fill:url(#SVGID_00000129900081577286738410000011307626761934442134_);}
	.st109{opacity:0.67;fill:url(#SVGID_00000072238391137632285030000008555466393897099420_);}
	.st110{fill:url(#SVGID_00000060737546404953478100000010220113275891421109_);}
	.st111{opacity:0.67;fill:url(#SVGID_00000101789081769559260910000003263760136769217467_);}
	.st112{fill:url(#SVGID_00000174581245006726261610000010377520515318563213_);}
	
		.st113{fill-rule:evenodd;clip-rule:evenodd;fill:none;stroke:#FFFFFF;stroke-width:0.7384;stroke-linecap:round;stroke-linejoin:round;stroke-miterlimit:10;}
	.st114{opacity:0.67;fill:url(#SVGID_00000058558957602872452110000011679544353549998237_);}
	.st115{fill:url(#SVGID_00000157295721490959495410000011997102216985519758_);}
	.st116{opacity:0.67;fill:url(#SVGID_00000162351587588304742600000003665539304788109230_);}
	.st117{fill:url(#SVGID_00000181081172393022401570000007895153102256586127_);}
	.st118{opacity:0.67;fill:url(#SVGID_00000150066170671979897970000000175986047980802195_);}
	.st119{fill:url(#SVGID_00000044153569742963114370000017140594038743637674_);}
	.st120{opacity:0.67;fill:url(#SVGID_00000006708359670879073430000003539224492224892295_);}
	.st121{fill:url(#SVGID_00000039819339172045307630000016496821013167353012_);}
	.st122{opacity:0.67;fill:url(#SVGID_00000159442787822825427040000006425059893025153436_);}
	.st123{fill:url(#SVGID_00000018238791619186883000000002798804250616278162_);}
	.st124{opacity:0.67;fill:url(#SVGID_00000125562917154521576850000010479825695497565830_);}
	.st125{fill:url(#SVGID_00000142882101140122066750000004432961806343611060_);}
	.st126{opacity:0.67;fill:url(#SVGID_00000000191902205817596060000008770357989582694792_);}
	.st127{fill:url(#SVGID_00000138538378251724559650000016238007019035814290_);}
	.st128{opacity:0.67;fill:url(#SVGID_00000046341100439329158150000013942842913946062783_);}
	.st129{fill:url(#SVGID_00000038415317244354098790000012709997274582461860_);}
	.st130{opacity:0.67;fill:url(#SVGID_00000102537086535753730390000009989496389765755265_);enable-background:new    ;}
	.st131{fill:#5EA6B9;}
	.st132{fill:url(#SVGID_00000092449917985109253860000006238384276527781509_);}
	.st133{fill-rule:evenodd;clip-rule:evenodd;fill:#545067;}
	.st134{fill-rule:evenodd;clip-rule:evenodd;fill:#AEAEB0;}
	.st135{fill-rule:evenodd;clip-rule:evenodd;fill:#D2D2D2;}
	.st136{opacity:0.67;fill:url(#SVGID_00000112633263711878695000000005921236314420059785_);enable-background:new    ;}
	.st137{fill:url(#SVGID_00000119116575900450427490000011417206517741666452_);}
	.st138{fill-rule:evenodd;clip-rule:evenodd;fill:#63D0B3;}
	
		.st139{fill-rule:evenodd;clip-rule:evenodd;fill:none;stroke:#000000;stroke-linecap:round;stroke-linejoin:round;stroke-miterlimit:10;}
	.st140{fill-rule:evenodd;clip-rule:evenodd;fill:#E85C83;}
	
		.st141{fill-rule:evenodd;clip-rule:evenodd;fill:#4AA089;stroke:url(#SVGID_00000112593764422447119950000004755030317208920501_);stroke-linecap:round;stroke-linejoin:round;stroke-miterlimit:10;}
	.st142{fill:#5DC29D;}
	.st143{fill:url(#SVGID_00000090275007487470221170000011904534618566516634_);}
	.st144{fill:url(#SVGID_00000073716365003294940230000007179506630788316324_);}
	.st145{fill:#E85C83;}
	.st146{opacity:0.67;fill:url(#SVGID_00000060736501280826643870000010496269797118165650_);enable-background:new    ;}
	.st147{fill:url(#SVGID_00000146470853084900959270000014196742672591279509_);}
	
		.st148{fill:none;stroke:url(#SVGID_00000149375279828665658730000016801112854171422131_);stroke-width:5;stroke-linecap:round;stroke-linejoin:round;stroke-miterlimit:10;}
	.st149{fill:url(#SVGID_00000148662461010080053190000016547508571963985813_);}
	.st150{opacity:0.67;fill:url(#SVGID_00000084515159705605655770000004178340227793396133_);enable-background:new    ;}
	.st151{fill:url(#SVGID_00000103241706458736447430000006351774249047209655_);}
	.st152{opacity:0.67;fill:url(#SVGID_00000038391735064073771820000008237374093042379711_);}
	.st153{fill:url(#SVGID_00000172441320536936849690000017297549939617289653_);}
	.st154{opacity:0.67;fill:url(#SVGID_00000044168692316541033300000002453466307549065113_);}
	.st155{fill:url(#SVGID_00000001624673372932225170000000677644376939042455_);}
	.st156{opacity:0.67;fill:url(#SVGID_00000068641873987699001140000002020681973423834803_);}
	.st157{fill:url(#SVGID_00000125604510098798816420000016989832671669700540_);}
	.st158{opacity:0.67;fill:url(#SVGID_00000013898717555282133140000005731468516712703125_);}
	.st159{fill:url(#SVGID_00000078752737019020205950000017602666580001610915_);}
	.st160{opacity:0.67;fill:url(#SVGID_00000090977469399908475010000014468480000910312585_);}
	.st161{fill:url(#SVGID_00000047751003233870451220000005234953278727020673_);}
	.st162{fill:none;stroke:#000000;stroke-width:22;stroke-linecap:round;stroke-linejoin:round;stroke-miterlimit:10;}
	.st163{fill:url(#SVGID_00000044177424226829448850000012319425780737808039_);}
	.st164{fill:url(#SVGID_00000113336267644710003910000013480327957287558530_);}
	.st165{fill:none;stroke:url(#SVGID_00000011715696623475117440000003726998485773846426_);stroke-width:5;stroke-miterlimit:10;}
	.st166{fill:url(#SVGID_00000101815116524015831770000012718590986942532283_);}
	.st167{fill:none;}
	.st168{opacity:0.67;fill:url(#SVGID_00000183968273751025123190000016305320928927814308_);}
	.st169{fill:url(#SVGID_00000076592727600609466890000007407123781376394894_);}
	.st170{fill:none;stroke:url(#SVGID_00000088836766821063248450000016638684349615617965_);stroke-width:5;stroke-miterlimit:10;}
	.st171{fill:url(#SVGID_00000029006285259476009850000012120949773310309791_);}
	.st172{opacity:0.67;fill:url(#SVGID_00000079481688958729740860000009961590159478913197_);}
	.st173{fill:url(#SVGID_00000164475980304170798080000004936602001938437304_);}
	.st174{opacity:0.67;fill:url(#SVGID_00000147939887142698086340000005467938896688955046_);}
	.st175{fill:url(#SVGID_00000181077543949171074830000011692163827827579574_);}
	.st176{opacity:0.67;fill:url(#SVGID_00000005947994691572024670000012272233292053630896_);}
	.st177{fill:url(#SVGID_00000085244675133609502650000012281700756873716389_);}
</style>
<g>
	<circle class="st7" cx="144.67" cy="70.24" r="26.03"/>
	<g>
		<g>
			<path class="st1" d="M138.21,43.43l-0.01,10.81c-0.33,1.38,0.28,2.85,1.82,3.91c2.54,1.76,6.66,1.76,9.2,0
				c1.08-0.75,1.7-1.69,1.86-2.67l0.04,0l0-0.45c0-0.04,0-0.09,0-0.13l0.01-11.18L138.21,43.43z"/>
			<path class="st1" d="M138.26,51.16c0,2.45,2.87,4.43,6.41,4.43s6.41-1.98,6.41-4.43"/>
			<path class="st1" d="M138.26,47.77c0,2.45,2.87,4.43,6.41,4.43s6.41-1.98,6.41-4.43"/>
			<path class="st1" d="M138.26,44.21c0,2.45,2.87,4.43,6.41,4.43s6.41-1.98,6.41-4.43"/>
		</g>
		<g>
			<path class="st1" d="M138.21,32.75l-0.01,10.81c-0.33,1.38,0.28,2.85,1.82,3.91c2.54,1.76,6.66,1.76,9.2,0
				c1.08-0.75,1.7-1.69,1.86-2.67l0.04,0l0-0.45c0-0.04,0-0.09,0-0.13l0.01-11.18L138.21,32.75z"/>
			<path class="st1" d="M138.26,40.49c0,2.45,2.87,4.43,6.41,4.43s6.41-1.98,6.41-4.43"/>
			<path class="st1" d="M138.26,37.1c0,2.45,2.87,4.43,6.41,4.43s6.41-1.98,6.41-4.43"/>
			<path class="st1" d="M138.26,33.54c0,2.45,2.87,4.43,6.41,4.43s6.41-1.98,6.41-4.43"/>
		</g>
	</g>
	<g>
		<g>
			<g>
				<polygon class="st2" points="144.27,48.55 126.46,38.27 126.46,20.45 144.27,30.74 				"/>
				<polygon class="st3" points="144.27,48.55 162.09,38.27 162.09,20.45 144.27,30.74 				"/>
				<polygon class="st4" points="144.34,30.79 126.46,20.47 144.21,10.13 162.09,20.45 				"/>
			</g>
			<path id="矩形_00000046321944318333643550000015620058666620774805_" class="st5" d="M138.69,15.45L138.69,15.45
				c0.35,0.2,0.29,0.58-0.12,0.83l-3.7,2.19c-0.42,0.25-1.08,0.29-1.43,0.09l0,0c-0.35-0.2-0.29-0.58,0.12-0.83l3.7-2.19
				C137.68,15.29,138.34,15.25,138.69,15.45z"/>
			<path id="矩形_00000164481072756091394730000004190331143475335815_" class="st5" d="M131.99,19.41L131.99,19.41
				c0.35,0.2,0.29,0.58-0.12,0.83l-0.72,0.42c-0.42,0.25-1.08,0.29-1.43,0.09l0,0c-0.35-0.2-0.29-0.58,0.12-0.83l0.72-0.42
				C131.02,19.24,131.64,19.21,131.99,19.41z"/>
		</g>
	</g>
</g>
<g>
	<circle class="st7" cx="263.33" cy="58.37" r="17.42"/>
	<g>
		<g>
			<path class="st1" d="M259,40.43l0,7.23c-0.22,0.92,0.19,1.91,1.22,2.62c1.7,1.18,4.46,1.18,6.16,0c0.72-0.5,1.14-1.13,1.25-1.79
				l0.03,0l0-0.3c0-0.03,0-0.06,0-0.09l0-7.49L259,40.43z"/>
			<path class="st1" d="M259.04,45.6c0,1.64,1.92,2.97,4.29,2.97c2.37,0,4.29-1.33,4.29-2.97"/>
			<path class="st1" d="M259.04,43.33c0,1.64,1.92,2.97,4.29,2.97c2.37,0,4.29-1.33,4.29-2.97"/>
			<path class="st1" d="M259.04,40.95c0,1.64,1.92,2.97,4.29,2.97c2.37,0,4.29-1.33,4.29-2.97"/>
		</g>
		<g>
			<path class="st1" d="M259,33.28l0,7.23c-0.22,0.92,0.19,1.91,1.22,2.62c1.7,1.18,4.46,1.18,6.16,0c0.72-0.5,1.14-1.13,1.25-1.79
				l0.03,0l0-0.3c0-0.03,0-0.06,0-0.09l0-7.49L259,33.28z"/>
			<path class="st1" d="M259.04,38.46c0,1.64,1.92,2.97,4.29,2.97c2.37,0,4.29-1.33,4.29-2.97"/>
			<path class="st1" d="M259.04,36.19c0,1.64,1.92,2.97,4.29,2.97c2.37,0,4.29-1.33,4.29-2.97"/>
			<path class="st1" d="M259.04,33.8c0,1.64,1.92,2.97,4.29,2.97c2.37,0,4.29-1.33,4.29-2.97"/>
		</g>
	</g>
	<g>
		<g>
			<g>
				<polygon class="st2" points="263.06,43.86 251.14,36.97 251.14,25.05 263.06,31.93 				"/>
				<polygon class="st3" points="263.06,43.86 274.99,36.97 274.99,25.05 263.06,31.93 				"/>
				<polygon class="st4" points="263.11,31.97 251.14,25.06 263.02,18.13 274.99,25.05 				"/>
			</g>
			<path id="矩形_00000072992793209382502270000016897197155632325563_" class="st5" d="M259.43,21.56L259.43,21.56
				c0.23,0.13,0.2,0.39-0.08,0.55l-2.47,1.46c-0.28,0.17-0.72,0.19-0.95,0.06l0,0c-0.23-0.13-0.2-0.39,0.08-0.55l2.47-1.46
				C258.75,21.46,259.19,21.43,259.43,21.56z"/>
			<path id="矩形_00000116233264532264675760000000231183610510303902_" class="st5" d="M254.95,24.22L254.95,24.22
				c0.23,0.13,0.2,0.39-0.08,0.55l-0.48,0.28c-0.28,0.17-0.72,0.19-0.95,0.06l0,0c-0.23-0.13-0.2-0.39,0.08-0.55l0.48-0.28
				C254.29,24.1,254.71,24.08,254.95,24.22z"/>
		</g>
	</g>
</g>
<g>
	<g>
		<polygon class="st3" points="263.04,158.85 209.25,189.57 209.5,210.38 263.16,179.85 		"/>
		<polygon class="st2" points="168.54,166.9 209.25,189.52 209.5,210.38 168.79,187.76 		"/>
		<polygon class="st4" points="262.79,158.83 221.55,135.82 168.54,166.9 209.25,189.72 		"/>
	</g>
	<g>
		<polygon class="st3" points="263.04,134.31 209.25,165.03 209.5,185.84 263.16,155.31 		"/>
		<polygon class="st2" points="168.54,142.36 209.25,164.97 209.5,185.84 168.79,163.22 		"/>
		<polygon class="st4" points="263.04,134.24 221.8,111.23 168.54,141.97 209.25,164.79 		"/>
	</g>
	<circle class="st7" cx="213.14" cy="111.19" r="41.04"/>
	<g>
		<g>
			<path class="st6" d="M217.3,175.29v-8.95l2.53-1.5c0.49-0.29,0.9-0.41,1.24-0.35c0.34,0.05,0.6,0.26,0.79,0.61
				c0.18,0.35,0.27,0.82,0.27,1.41c0,0.59-0.09,1.17-0.28,1.74c-0.18,0.56-0.45,1.07-0.8,1.53c-0.35,0.46-0.77,0.84-1.26,1.13
				l-1.61,0.96v-1.52l1.39-0.83c0.26-0.15,0.48-0.35,0.65-0.57c0.17-0.23,0.3-0.48,0.38-0.76c0.08-0.28,0.13-0.56,0.13-0.85
				c0-0.3-0.04-0.53-0.13-0.71c-0.08-0.17-0.21-0.27-0.38-0.29c-0.17-0.02-0.39,0.04-0.65,0.2l-0.91,0.54v7.4L217.3,175.29z"/>
			<path class="st6" d="M222.99,171.92v-6.71l1.29-0.77v1.17l0.05-0.03c0.09-0.47,0.23-0.87,0.44-1.21
				c0.21-0.34,0.44-0.58,0.71-0.74c0.07-0.04,0.14-0.08,0.22-0.11c0.08-0.03,0.15-0.06,0.2-0.07v1.65
				c-0.06,0.01-0.15,0.04-0.26,0.08c-0.11,0.04-0.21,0.09-0.3,0.15c-0.2,0.12-0.37,0.28-0.53,0.49c-0.15,0.21-0.27,0.44-0.36,0.71
				c-0.09,0.26-0.13,0.53-0.13,0.8v3.8L222.99,171.92z"/>
			<path class="st6" d="M228.54,168.76c-0.49,0.29-0.91,0.39-1.26,0.31c-0.35-0.08-0.63-0.32-0.82-0.73
				c-0.19-0.41-0.29-0.95-0.29-1.64c0-0.69,0.1-1.36,0.29-1.99c0.19-0.63,0.47-1.2,0.82-1.7c0.35-0.5,0.77-0.89,1.26-1.18
				c0.49-0.29,0.91-0.39,1.26-0.31c0.35,0.08,0.63,0.32,0.82,0.73c0.19,0.41,0.29,0.96,0.29,1.65c0,0.69-0.1,1.35-0.29,1.98
				c-0.19,0.63-0.47,1.2-0.82,1.7C229.45,168.08,229.03,168.47,228.54,168.76z M228.55,167.32c0.22-0.13,0.41-0.33,0.55-0.59
				s0.26-0.57,0.34-0.92s0.11-0.72,0.11-1.11c0-0.39-0.04-0.72-0.11-0.98s-0.19-0.44-0.34-0.53c-0.15-0.09-0.33-0.07-0.55,0.06
				c-0.22,0.13-0.41,0.33-0.56,0.6c-0.15,0.27-0.27,0.58-0.34,0.93c-0.08,0.35-0.11,0.72-0.11,1.11c0,0.39,0.04,0.72,0.11,0.98
				c0.08,0.26,0.19,0.43,0.34,0.52C228.14,167.47,228.32,167.45,228.55,167.32z"/>
			<path class="st6" d="M231.78,169.23V160l1.32-0.78v1.13l0.06-0.04c0.06-0.22,0.14-0.45,0.26-0.7c0.11-0.25,0.26-0.5,0.44-0.73
				c0.18-0.23,0.41-0.43,0.68-0.59c0.35-0.21,0.67-0.27,0.97-0.19c0.3,0.08,0.53,0.32,0.71,0.73c0.18,0.41,0.27,0.99,0.27,1.76
				c0,0.75-0.09,1.43-0.26,2.05c-0.17,0.62-0.41,1.14-0.7,1.58c-0.3,0.44-0.63,0.77-0.99,0.98c-0.26,0.15-0.48,0.22-0.66,0.21
				c-0.18-0.01-0.33-0.07-0.44-0.19c-0.11-0.11-0.2-0.25-0.26-0.4l-0.04,0.02v3.59L231.78,169.23z M233.09,162.58
				c0,0.4,0.04,0.72,0.12,0.97c0.08,0.25,0.19,0.41,0.34,0.49c0.15,0.07,0.33,0.05,0.55-0.08c0.22-0.13,0.4-0.32,0.55-0.58
				c0.15-0.26,0.26-0.56,0.34-0.9c0.08-0.35,0.12-0.71,0.12-1.1c0-0.39-0.04-0.71-0.12-0.95c-0.08-0.25-0.19-0.41-0.34-0.49
				c-0.15-0.08-0.33-0.05-0.55,0.08c-0.22,0.13-0.4,0.32-0.55,0.57s-0.26,0.54-0.34,0.89C233.13,161.81,233.09,162.18,233.09,162.58
				z"/>
			<path class="st6" d="M239.53,162.25c-0.49,0.29-0.91,0.39-1.26,0.31c-0.35-0.08-0.63-0.32-0.82-0.73
				c-0.19-0.41-0.29-0.95-0.29-1.64c0-0.69,0.1-1.36,0.29-1.99c0.19-0.63,0.47-1.2,0.82-1.7c0.35-0.5,0.77-0.89,1.26-1.18
				c0.49-0.29,0.91-0.39,1.26-0.31c0.35,0.08,0.63,0.32,0.82,0.73c0.19,0.41,0.29,0.96,0.29,1.65c0,0.69-0.1,1.35-0.29,1.98
				c-0.19,0.63-0.47,1.2-0.82,1.7C240.44,161.57,240.02,161.96,239.53,162.25z M239.54,160.8c0.22-0.13,0.41-0.33,0.55-0.59
				s0.26-0.57,0.34-0.92c0.08-0.35,0.11-0.72,0.11-1.11s-0.04-0.72-0.11-0.98c-0.08-0.26-0.19-0.44-0.34-0.53
				c-0.15-0.09-0.33-0.07-0.55,0.06c-0.22,0.13-0.41,0.33-0.56,0.6c-0.15,0.27-0.27,0.58-0.34,0.93s-0.11,0.72-0.11,1.11
				c0,0.39,0.04,0.72,0.11,0.98c0.08,0.26,0.19,0.43,0.34,0.52C239.13,160.96,239.32,160.94,239.54,160.8z"/>
			<path class="st6" d="M246.78,153.03l-1.22,0.83c-0.02-0.13-0.07-0.24-0.13-0.32c-0.07-0.08-0.16-0.12-0.27-0.12
				c-0.11-0.01-0.24,0.04-0.4,0.13c-0.21,0.12-0.38,0.29-0.52,0.49c-0.14,0.21-0.21,0.41-0.21,0.61c0,0.16,0.05,0.27,0.14,0.32
				c0.09,0.06,0.25,0.05,0.47-0.01l0.87-0.27c0.47-0.14,0.82-0.13,1.05,0.03c0.23,0.16,0.34,0.48,0.34,0.97
				c0,0.44-0.09,0.88-0.28,1.32c-0.18,0.44-0.44,0.85-0.76,1.22c-0.32,0.38-0.69,0.69-1.11,0.93c-0.64,0.38-1.14,0.49-1.52,0.34
				c-0.38-0.15-0.6-0.52-0.66-1.13l1.31-0.87c0.04,0.25,0.14,0.4,0.29,0.45c0.15,0.05,0.35,0.01,0.59-0.14
				c0.23-0.14,0.42-0.31,0.57-0.53c0.14-0.21,0.22-0.42,0.22-0.62c0-0.17-0.05-0.28-0.15-0.33c-0.1-0.05-0.25-0.04-0.46,0.02
				l-0.83,0.26c-0.47,0.15-0.82,0.13-1.05-0.06c-0.23-0.19-0.34-0.53-0.34-1.03c0-0.43,0.08-0.85,0.25-1.26
				c0.17-0.41,0.4-0.79,0.71-1.14c0.31-0.35,0.66-0.65,1.08-0.89c0.61-0.36,1.09-0.46,1.44-0.31
				C246.51,152.08,246.72,152.45,246.78,153.03z"/>
			<path class="st6" d="M249.1,156.58c-0.31,0.18-0.58,0.27-0.82,0.26c-0.24-0.01-0.43-0.12-0.57-0.33
				c-0.14-0.21-0.21-0.54-0.21-0.98c0-0.37,0.05-0.72,0.15-1.03c0.1-0.31,0.23-0.59,0.4-0.85c0.17-0.25,0.36-0.49,0.58-0.69
				c0.22-0.21,0.44-0.4,0.68-0.57c0.28-0.21,0.51-0.38,0.68-0.52c0.17-0.14,0.3-0.27,0.37-0.38c0.08-0.12,0.12-0.25,0.12-0.39v-0.03
				c0-0.28-0.06-0.45-0.19-0.53c-0.12-0.08-0.3-0.05-0.53,0.09c-0.24,0.14-0.43,0.33-0.57,0.56c-0.14,0.23-0.24,0.47-0.28,0.72
				l-1.23,0.59c0.06-0.44,0.19-0.87,0.37-1.28c0.18-0.41,0.42-0.78,0.71-1.11c0.29-0.33,0.63-0.62,1.01-0.84
				c0.27-0.16,0.52-0.27,0.77-0.32c0.25-0.06,0.46-0.05,0.65,0.02c0.19,0.07,0.34,0.22,0.45,0.44c0.11,0.22,0.17,0.53,0.17,0.93
				v4.53l-1.27,0.75v-0.93l-0.04,0.02c-0.08,0.26-0.18,0.5-0.31,0.74c-0.13,0.24-0.29,0.45-0.47,0.65
				C249.55,156.27,249.34,156.43,249.1,156.58z M249.48,155.06c0.2-0.12,0.37-0.27,0.52-0.47c0.15-0.2,0.27-0.42,0.35-0.65
				c0.09-0.24,0.13-0.47,0.13-0.71v-0.71c-0.04,0.06-0.1,0.13-0.17,0.2c-0.07,0.07-0.15,0.15-0.24,0.23
				c-0.09,0.08-0.18,0.15-0.27,0.23c-0.09,0.07-0.17,0.14-0.24,0.2c-0.16,0.12-0.29,0.26-0.41,0.4c-0.12,0.14-0.21,0.29-0.27,0.44
				c-0.06,0.16-0.1,0.32-0.1,0.5c0,0.25,0.07,0.41,0.2,0.46C249.11,155.22,249.28,155.19,249.48,155.06z"/>
			<path class="st6" d="M254.18,144.49v8.95l-1.33,0.79v-8.95L254.18,144.49z"/>
		</g>
	</g>
</g>
<g>
	<polygon class="st3" points="132.63,74 22.49,136.92 22.49,195.82 132.63,132.9 	"/>
	<polygon class="st2" points="8.05,128.76 22.49,136.56 22.49,195.82 8.05,188.02 	"/>
	<polygon class="st4" points="132.63,74 117.12,65.8 8.05,128.76 22.49,136.56 	"/>
</g>
<circle class="st8" cx="213.14" cy="111.19" r="28.4"/>
<circle class="st8" cx="213.14" cy="111.19" r="11.86"/>
<polygon class="st3" points="259.82,27.52 258.47,26.76 266.31,22.14 267.66,22.9 "/>
<polygon class="st3" points="139.38,24.63 137.2,23.4 149.87,15.92 152.05,17.15 "/>
<g>
	<path class="st6" d="M32.04,158.1v-20.16l5.39-3.21c0.93-0.55,1.74-0.74,2.43-0.56c0.7,0.18,1.24,0.69,1.62,1.52
		c0.39,0.84,0.58,1.97,0.58,3.4c0,1.44-0.2,2.81-0.59,4.11c-0.4,1.29-0.95,2.44-1.67,3.43c-0.71,0.99-1.55,1.78-2.5,2.34l-3.22,1.92
		v-4.25l2.54-1.51c0.4-0.24,0.74-0.55,1.02-0.95c0.28-0.39,0.5-0.85,0.65-1.36c0.15-0.51,0.23-1.05,0.23-1.62
		c0-0.58-0.08-1.02-0.23-1.34c-0.15-0.32-0.37-0.5-0.65-0.56c-0.28-0.05-0.62,0.04-1.02,0.28l-1.2,0.71v15.79L32.04,158.1z"/>
	<path class="st6" d="M43.32,151.38v-20.16l5.39-3.21c0.93-0.55,1.74-0.76,2.43-0.63s1.24,0.59,1.62,1.38
		c0.39,0.79,0.58,1.91,0.58,3.34c0,1.44-0.2,2.78-0.6,4.01c-0.4,1.23-0.95,2.3-1.67,3.23c-0.71,0.93-1.55,1.68-2.5,2.25l-3.22,1.92
		v-4.25l2.54-1.51c0.4-0.24,0.74-0.52,1.02-0.85c0.28-0.33,0.5-0.71,0.65-1.16s0.23-0.95,0.23-1.52c0-0.58-0.08-1-0.23-1.28
		s-0.37-0.41-0.65-0.42c-0.28,0-0.62,0.11-1.02,0.35l-1.2,0.71v15.79L43.32,151.38z M50.64,137.77l3.12,7.39l-3.69,2.2l-3.05-7.44
		L50.64,137.77z"/>
	<path class="st6" d="M66.89,127.26c0,2.24-0.27,4.29-0.81,6.16s-1.27,3.46-2.19,4.8c-0.92,1.34-1.94,2.34-3.08,3.02
		c-1.14,0.68-2.17,0.89-3.08,0.64c-0.92-0.25-1.65-0.98-2.18-2.2c-0.54-1.22-0.81-2.94-0.81-5.17c0-2.24,0.27-4.29,0.81-6.15
		c0.54-1.86,1.27-3.46,2.18-4.79c0.92-1.34,1.95-2.34,3.08-3.02c1.13-0.67,2.16-0.89,3.08-0.65c0.92,0.24,1.65,0.97,2.19,2.19
		S66.89,125.02,66.89,127.26z M63.4,129.34c0-1.21-0.1-2.17-0.3-2.88s-0.49-1.17-0.87-1.37c-0.38-0.2-0.86-0.13-1.42,0.2
		c-0.56,0.33-1.03,0.83-1.42,1.49c-0.38,0.66-0.68,1.46-0.87,2.41c-0.2,0.95-0.29,2.03-0.29,3.23s0.1,2.17,0.29,2.88
		c0.2,0.71,0.49,1.17,0.87,1.37c0.38,0.2,0.86,0.13,1.42-0.2c0.56-0.33,1.03-0.83,1.42-1.49c0.38-0.66,0.67-1.46,0.87-2.41
		S63.4,130.55,63.4,129.34z"/>
	<path class="st6" d="M68.45,136.41v-20.16l5.39-3.21c0.93-0.55,1.74-0.74,2.43-0.56c0.7,0.18,1.24,0.69,1.62,1.52
		c0.39,0.84,0.58,1.97,0.58,3.4c0,1.44-0.2,2.81-0.59,4.11s-0.95,2.44-1.67,3.43c-0.71,1-1.55,1.78-2.5,2.34l-3.22,1.92v-4.25
		l2.54-1.51c0.4-0.24,0.74-0.55,1.02-0.95c0.28-0.39,0.5-0.85,0.65-1.36c0.15-0.51,0.23-1.05,0.23-1.62c0-0.58-0.08-1.03-0.23-1.34
		c-0.15-0.32-0.37-0.5-0.65-0.56c-0.28-0.05-0.62,0.04-1.02,0.28l-1.2,0.71v15.79L68.45,136.41z"/>
	<path class="st6" d="M91.83,112.41c0,2.24-0.27,4.29-0.81,6.16c-0.54,1.86-1.27,3.46-2.19,4.8c-0.92,1.34-1.94,2.34-3.07,3.02
		c-1.14,0.68-2.17,0.89-3.08,0.64c-0.92-0.25-1.65-0.98-2.18-2.2c-0.54-1.22-0.81-2.94-0.81-5.17c0-2.24,0.27-4.29,0.81-6.16
		c0.54-1.86,1.27-3.46,2.18-4.79c0.92-1.34,1.95-2.34,3.08-3.02c1.13-0.67,2.15-0.89,3.07-0.65c0.92,0.24,1.65,0.97,2.19,2.19
		C91.56,108.44,91.83,110.17,91.83,112.41z M88.34,114.49c0-1.21-0.1-2.17-0.3-2.88c-0.2-0.71-0.49-1.17-0.87-1.37
		c-0.38-0.2-0.86-0.13-1.42,0.2c-0.56,0.33-1.04,0.83-1.42,1.49c-0.38,0.66-0.67,1.46-0.87,2.41c-0.2,0.95-0.3,2.03-0.3,3.23
		s0.1,2.17,0.3,2.88c0.2,0.71,0.49,1.17,0.87,1.37c0.38,0.2,0.86,0.13,1.42-0.2c0.56-0.33,1.03-0.83,1.42-1.49
		c0.38-0.66,0.67-1.46,0.87-2.41C88.24,116.77,88.34,115.69,88.34,114.49z"/>
	<path class="st6" d="M100.13,103.69c-0.03-0.64-0.18-1.06-0.45-1.27c-0.27-0.21-0.68-0.14-1.23,0.18
		c-0.35,0.21-0.64,0.45-0.86,0.71c-0.22,0.27-0.38,0.54-0.49,0.84c-0.11,0.29-0.16,0.59-0.17,0.89c-0.01,0.25,0.02,0.45,0.08,0.61
		c0.06,0.16,0.16,0.27,0.3,0.34c0.14,0.07,0.32,0.1,0.53,0.1c0.21,0,0.47-0.04,0.77-0.12l1.03-0.25c0.69-0.18,1.28-0.22,1.78-0.12
		c0.49,0.1,0.89,0.31,1.21,0.64c0.31,0.34,0.54,0.78,0.69,1.35c0.15,0.56,0.22,1.22,0.23,1.99c0,1.33-0.21,2.57-0.62,3.73
		c-0.41,1.16-0.99,2.21-1.74,3.13s-1.66,1.71-2.72,2.34c-1.09,0.65-2.03,0.95-2.84,0.91c-0.81-0.04-1.43-0.46-1.88-1.28
		c-0.45-0.81-0.67-2.06-0.67-3.75l3.22-1.92c0.02,0.61,0.12,1.07,0.29,1.38c0.17,0.32,0.41,0.49,0.72,0.52
		c0.31,0.03,0.68-0.08,1.11-0.34c0.36-0.22,0.67-0.47,0.91-0.76c0.24-0.29,0.43-0.6,0.56-0.93c0.13-0.33,0.19-0.66,0.19-0.99
		c0-0.31-0.07-0.54-0.19-0.7c-0.12-0.16-0.32-0.26-0.59-0.28s-0.64,0.02-1.1,0.13l-1.24,0.31c-1.11,0.27-1.98,0.14-2.61-0.39
		c-0.64-0.53-0.95-1.58-0.95-3.16c0-1.28,0.21-2.53,0.64-3.74c0.43-1.21,1.03-2.32,1.79-3.31c0.76-0.99,1.64-1.78,2.63-2.37
		c1.01-0.6,1.88-0.85,2.62-0.74c0.74,0.11,1.3,0.53,1.71,1.28c0.4,0.75,0.6,1.78,0.61,3.1L100.13,103.69z"/>
	<path class="st6" d="M107.59,113.1l-3.66,2.18l4.12-22.61l4.64-2.76l4.12,17.7l-3.66,2.18l-2.73-12.98l-0.1,0.06L107.59,113.1z
		 M106.91,105.55l6.88-4.1v4.1l-6.88,4.1V105.55z"/>
	<path class="st6" d="M118.02,106.89V86.74l3.39-2.02v15.75l5.05-3.01v4.41L118.02,106.89z"/>
	<path class="st6" d="M32.36,184.9v-20.16l9-5.36v4.41l-5.61,3.34v3.46l5.15-3.07v4.41l-5.15,3.07v3.46l5.59-3.33v4.41L32.36,184.9z
		"/>
	<path class="st6" d="M46.68,156.22l2.05,4.64l0.1-0.06l2.07-7.1l3.78-2.25l-3.73,12.3l3.88,7.77l-3.88,2.31l-2.12-4.72l-0.1,0.06
		l-2.12,7.25l-3.86,2.3l3.83-12.36l-3.71-7.87L46.68,156.22z"/>
	<path class="st6" d="M56.15,170.73v-20.16l9-5.36v4.41l-5.61,3.34v3.46l5.15-3.07v4.41l-5.15,3.07v3.46l5.59-3.33v4.41
		L56.15,170.73z"/>
	<path class="st6" d="M78.51,144.82l-3.44,2.05c-0.02-0.45-0.09-0.82-0.19-1.14s-0.25-0.55-0.43-0.71c-0.18-0.16-0.4-0.24-0.66-0.24
		c-0.26,0-0.55,0.1-0.87,0.3c-0.57,0.34-1.05,0.85-1.44,1.53s-0.69,1.5-0.89,2.45c-0.2,0.96-0.3,2.01-0.3,3.18
		c0,1.23,0.1,2.21,0.31,2.91c0.21,0.71,0.5,1.15,0.89,1.34c0.39,0.19,0.86,0.11,1.41-0.21c0.31-0.19,0.59-0.42,0.84-0.69
		c0.25-0.28,0.46-0.59,0.65-0.94s0.33-0.73,0.45-1.15c0.12-0.41,0.19-0.85,0.24-1.3l3.44-2.01c-0.04,0.88-0.19,1.83-0.45,2.87
		c-0.26,1.04-0.62,2.06-1.09,3.09s-1.05,1.97-1.74,2.83s-1.5,1.57-2.41,2.11c-1.15,0.68-2.17,0.9-3.08,0.65
		c-0.91-0.25-1.63-0.99-2.15-2.22s-0.79-2.96-0.79-5.19c0-2.24,0.27-4.29,0.8-6.15c0.54-1.86,1.26-3.46,2.17-4.79
		c0.91-1.33,1.93-2.33,3.05-3c0.79-0.47,1.51-0.73,2.18-0.78c0.66-0.05,1.24,0.11,1.74,0.48c0.5,0.37,0.9,0.95,1.21,1.74
		C78.26,142.61,78.44,143.61,78.51,144.82z"/>
	<path class="st6" d="M87.44,131.94l3.39-2.02v12.91c0,1.54-0.23,3-0.68,4.39c-0.46,1.39-1.09,2.63-1.89,3.72
		c-0.81,1.09-1.75,1.95-2.82,2.59c-1.08,0.64-2.02,0.9-2.83,0.78c-0.81-0.13-1.44-0.62-1.89-1.46c-0.45-0.85-0.67-2.04-0.67-3.58
		v-12.91l3.39-2.02v12.44c0,0.62,0.08,1.13,0.26,1.52c0.17,0.39,0.41,0.63,0.71,0.72s0.65,0.03,1.04-0.2
		c0.39-0.23,0.74-0.57,1.04-1.03c0.3-0.46,0.54-0.98,0.71-1.57c0.17-0.59,0.26-1.2,0.26-1.82V131.94z"/>
	<path class="st6" d="M92.1,133.58v-4.41l10.86-6.47v4.41l-3.76,2.24v15.75l-3.34,1.99v-15.75L92.1,133.58z"/>
	<path class="st6" d="M104.23,142.1v-20.16l9-5.36v4.41l-5.61,3.34v3.46l5.15-3.07v4.41l-5.15,3.07v3.46l5.59-3.33v4.41
		L104.23,142.1z"/>
	<path class="st6" d="M119.72,132.87l-4.81,2.86v-20.16l4.76-2.83c1.29-0.76,2.4-1.02,3.33-0.78c0.94,0.25,1.66,0.97,2.17,2.17
		c0.51,1.2,0.77,2.85,0.77,4.95s-0.25,4.05-0.76,5.86c-0.51,1.81-1.23,3.39-2.16,4.75C122.09,131.06,120.99,132.12,119.72,132.87z
		 M118.31,129.07l1.29-0.77c0.62-0.37,1.15-0.85,1.58-1.43c0.44-0.58,0.77-1.34,1-2.26c0.23-0.92,0.34-2.09,0.34-3.49
		s-0.12-2.43-0.35-3.08c-0.23-0.65-0.58-1-1.02-1.05c-0.45-0.05-1,0.11-1.65,0.5l-1.2,0.71V129.07z"/>
</g>
<g>
	<path id="矩形_00000165232100200323309430000000775072771935686790_" class="st82" d="M172.16,217.11L172.16,217.11
		c0.62,0,1.15,0.76,1.15,1.64v1.52c0,0.88-0.53,1.64-1.15,1.64l0,0c-0.62,0-1.15-0.76-1.15-1.64v-1.52
		C171.02,217.8,171.55,217.11,172.16,217.11z"/>
	
		<radialGradient id="SVGID_1_" cx="140.6214" cy="251.2355" r="29.1582" gradientTransform="matrix(1 0 0 0.5898 0 103.0585)" gradientUnits="userSpaceOnUse">
		<stop  offset="0" style="stop-color:#06070C"/>
		<stop  offset="1" style="stop-color:#0D101D;stop-opacity:0"/>
	</radialGradient>
	<path style="opacity:0.67;fill:url(#SVGID_1_);" d="M165.62,237.16c-13.68-7.9-35.96-8-49.77-0.23s-13.91,20.48-0.23,28.37
		s35.96,8,49.77,0.23C179.19,257.76,179.3,245.06,165.62,237.16z"/>
	<g>
		<path class="st84" d="M179.12,201.13v-49.28c0-0.23,0.02-0.45,0.02-0.68c0-22.91-18.57-41.48-41.48-41.48
			c-22.91,0-41.48,18.57-41.48,41.48c0,0.36,0.02,0.72,0.03,1.07v44.66h-0.03v22.67c0,2.84,2.3,5.15,5.15,5.15
			c2.84,0,5.15-2.31,5.15-5.15v-0.83c0.56,0.36,1.13,0.72,1.74,1.07c1.83,1.06,3.79,1.99,5.85,2.81v8.2c0,2.84,2.3,5.15,5.15,5.15
			c2.84,0,5.15-2.31,5.15-5.15v-5.23c2.95,0.57,5.99,0.96,9.06,1.14v12.59c0,2.84,2.3,5.15,5.15,5.15s5.15-2.31,5.15-5.15v-12.7
			c3.39-0.28,6.73-0.8,9.93-1.55v6.36c0,2.84,2.3,5.15,5.15,5.15s5.15-2.31,5.15-5.15v-9.87c1-0.47,1.97-0.96,2.91-1.49
			c0.7-0.39,1.35-0.8,1.99-1.21v0.71c0,2.84,2.3,5.15,5.15,5.15c2.84,0,5.15-2.31,5.15-5.15v-18.45H179.12z"/>
		
			<radialGradient id="SVGID_00000179629653061841690350000010866215585665534848_" cx="162.3441" cy="127.1149" r="106.6854" gradientUnits="userSpaceOnUse">
			<stop  offset="0.0124" style="stop-color:#DD78CE"/>
			<stop  offset="0.4936" style="stop-color:#A7589A"/>
			<stop  offset="0.5829" style="stop-color:#A0619E"/>
			<stop  offset="0.7273" style="stop-color:#8E79A8"/>
			<stop  offset="0.9078" style="stop-color:#709FB9"/>
			<stop  offset="1" style="stop-color:#5EB6C3"/>
		</radialGradient>
		<path style="fill:url(#SVGID_00000179629653061841690350000010866215585665534848_);" d="M179.12,201.13v-49.28
			c0-0.23,0.02-0.45,0.02-0.68c0-22.91-18.57-41.48-41.48-41.48c-22.91,0-41.48,18.57-41.48,41.48c0,0.36,0.02,0.72,0.03,1.07v44.66
			h-0.03v22.67c0,2.84,2.3,5.15,5.15,5.15c2.84,0,5.15-2.31,5.15-5.15v-0.83c0.56,0.36,1.13,0.72,1.74,1.07
			c1.83,1.06,3.79,1.99,5.85,2.81v8.2c0,2.84,2.3,5.15,5.15,5.15c2.84,0,5.15-2.31,5.15-5.15v-5.23c2.95,0.57,5.99,0.96,9.06,1.14
			v12.59c0,2.84,2.3,5.15,5.15,5.15s5.15-2.31,5.15-5.15v-12.7c3.39-0.28,6.73-0.8,9.93-1.55v6.36c0,2.84,2.3,5.15,5.15,5.15
			s5.15-2.31,5.15-5.15v-9.87c1-0.47,1.97-0.96,2.91-1.49c0.7-0.39,1.35-0.8,1.99-1.21v0.71c0,2.84,2.3,5.15,5.15,5.15
			c2.84,0,5.15-2.31,5.15-5.15v-18.45H179.12z"/>
	</g>
	<path id="矩形_00000065757932598662302410000011775430742638441392_" class="st82" d="M100.07,187.29L100.07,187.29
		c1.12,0,2.09,1.38,2.09,2.99v14.25c0,1.61-0.96,2.99-2.09,2.99l0,0c-1.12,0-2.09-1.38-2.09-2.99v-14.25
		C97.99,188.67,98.95,187.29,100.07,187.29z"/>
	<path id="矩形_00000007424107714670725480000002418638479004172165_" class="st82" d="M161.37,124.2L161.37,124.2
		c1.37-1.02,3.68-0.37,5.02,1.41l2.29,3.06c1.34,1.78,1.31,4.19-0.06,5.22l0,0c-1.37,1.02-3.68,0.37-5.02-1.41l-2.29-3.06
		C159.88,127.5,160.01,125.23,161.37,124.2z"/>
	<path id="矩形_00000181801681440210888730000008699229493696003494_" class="st82" d="M117.47,223.88L117.47,223.88
		c1.12,0,2.09,1.38,2.09,2.99v2.76c0,1.61-0.96,2.99-2.09,2.99l0,0c-1.12,0-2.09-1.38-2.09-2.99v-2.76
		C115.38,225.14,116.35,223.88,117.47,223.88z"/>
	<path id="矩形_00000177462588684165861770000000961233519690568104_" class="st82" d="M99.82,213.08L99.82,213.08
		c1.12,0,2.09,1.38,2.09,2.99v2.76c0,1.61-0.96,2.99-2.09,2.99l0,0c-1.12,0-2.09-1.38-2.09-2.99v-2.76
		C97.74,214.34,98.7,213.08,99.82,213.08z"/>
	<path id="矩形_00000089534902643478688490000010762918496049191046_" class="st82" d="M137.66,232.62L137.66,232.62
		c1.12,0,2.09,1.38,2.09,2.99v2.76c0,1.61-0.96,2.99-2.09,2.99l0,0c-1.12,0-2.09-1.38-2.09-2.99v-2.76
		C135.57,233.88,136.54,232.62,137.66,232.62z"/>
	<path id="矩形_00000174565284965162249560000017810970876452956325_" class="st82" d="M157.36,227.27L157.36,227.27
		c0.89,0,1.66,1.1,1.66,2.37v2.19c0,1.28-0.76,2.37-1.66,2.37l0,0c-0.89,0-1.66-1.1-1.66-2.37v-2.19
		C155.7,228.28,156.47,227.27,157.36,227.27z"/>
	<g>
		<path id="椭圆形_00000174579992699727052130000016119239500602837694_" class="st86" d="M147.67,182.16
			c4.06-0.17,7.1-3.66,7.09-6c0-0.94-0.55-1.75-1.38-1.81c-1.29-0.13-3.23,0.7-5.72,0.8c-2.31,0.1-3.78-0.5-5.53-0.42
			c-1.84,0.08-1.75,2.22-1.47,3.06C141.3,180.09,143.52,182.33,147.67,182.16z"/>
		<path id="椭圆形_00000140697556867139245850000001712274068755180697_" class="st87" d="M147.76,180.19
			c4.15-0.17,7.19-3.38,7.19-5.63c0-0.84-0.55-1.57-1.38-1.63c-1.29-0.13-3.32,0.7-5.81,0.8c-2.4,0.1-3.78-0.5-5.62-0.43
			s-1.75,2.13-1.48,2.87C141.3,178.3,143.61,180.36,147.76,180.19z"/>
	</g>
	<g>
		
			<ellipse transform="matrix(0.5671 -0.8237 0.8237 0.5671 -74.1156 176.3792)" class="st87" cx="130.72" cy="158.69" rx="9.5" ry="9.1"/>
		<path id="形状结合_00000173138657503240237830000009925187417073637052_" class="st88" d="M131.92,148.73
			c4.24-0.18,7.66,3.98,7.66,9.22c0,0.19,0,0.37,0,0.56l0,0.56c0-5.33-3.33-9.59-7.48-9.42c-4.15,0.17-7.46,4.61-7.46,10.04
			c0,1.03,0.09,2.05,0.37,2.98c-0.46-1.2-0.74-2.59-0.74-3.99C124.27,153.35,127.68,148.9,131.92,148.73z"/>
		<path id="形状结合_00000155144169974918831560000002517709321053756825_" class="st89" d="M131.92,147.6
			c4.7-0.2,8.58,4.41,8.58,10.31c0.01,5.89-3.86,10.83-8.57,11.02c-4.7,0.2-8.58-4.41-8.58-10.31
			C123.35,152.73,127.12,147.8,131.92,147.6z M131.92,148.73c-4.24,0.18-7.65,4.62-7.64,9.86c0,5.24,3.42,9.4,7.66,9.22
			c4.24-0.18,7.65-4.62,7.64-9.86C139.58,152.71,136.07,148.55,131.92,148.73z"/>
	</g>
	<g>
		
			<ellipse transform="matrix(0.5671 -0.8237 0.8237 0.5671 -59.6804 201.0825)" class="st87" cx="161.44" cy="157.31" rx="9.5" ry="9.1"/>
		<path id="形状结合_00000017479858995676195450000005515037118025934013_" class="st88" d="M162.43,147.35
			c4.24-0.18,7.66,3.98,7.66,9.22c0,0.19,0,0.37,0,0.56l0,0.56c0-5.33-3.33-9.59-7.48-9.42c-4.15,0.17-7.46,4.61-7.46,10.04
			c0,1.03,0.09,2.05,0.37,2.98c-0.46-1.2-0.74-2.59-0.74-3.99C154.78,151.98,158.19,147.53,162.43,147.35z"/>
		<path id="形状结合_00000016040986866193347410000018275466435789978547_" class="st89" d="M162.43,146.23
			c4.7-0.2,8.58,4.41,8.58,10.31s-3.86,10.83-8.57,11.02s-8.58-4.41-8.58-10.31C153.86,151.36,157.64,146.43,162.43,146.23z
			 M162.43,147.35c-4.24,0.18-7.65,4.62-7.64,9.86s3.42,9.4,7.66,9.22c4.24-0.18,7.65-4.62,7.64-9.86
			C170.09,151.34,166.58,147.18,162.43,147.35z"/>
	</g>
	<circle class="st86" cx="128.04" cy="156.26" r="3.77"/>
	<circle class="st86" cx="158.59" cy="155.13" r="3.77"/>
</g>
</svg>
