<?xml version="1.0" encoding="utf-8"?>
<!-- Generator: Adobe Illustrator 27.8.1, SVG Export Plug-In . SVG Version: 6.00 Build 0)  -->
<svg version="1.1" id="Слой_1" xmlns="http://www.w3.org/2000/svg" xmlns:xlink="http://www.w3.org/1999/xlink" x="0px" y="0px"
	 viewBox="0 0 290 269.62" style="enable-background:new 0 0 290 269.62;" xml:space="preserve">
<style type="text/css">
	.st0{stroke:#000000;stroke-linecap:round;stroke-linejoin:round;stroke-miterlimit:10;}
	.st1{fill:#222846;stroke:#000000;stroke-linecap:round;stroke-linejoin:round;stroke-miterlimit:10;}
	.st2{fill-rule:evenodd;clip-rule:evenodd;stroke:#000000;stroke-linecap:round;stroke-linejoin:round;stroke-miterlimit:10;}
	
		.st3{fill-rule:evenodd;clip-rule:evenodd;fill:#222846;stroke:#000000;stroke-linecap:round;stroke-linejoin:round;stroke-miterlimit:10;}
	
		.st4{fill-rule:evenodd;clip-rule:evenodd;fill:#4A5479;stroke:#000000;stroke-linecap:round;stroke-linejoin:round;stroke-miterlimit:10;}
	.st5{fill-rule:evenodd;clip-rule:evenodd;fill:#5C6A91;}
	.st6{fill:#6D75A2;}
	.st7{stroke:#1A213A;stroke-linecap:round;stroke-linejoin:round;stroke-miterlimit:10;}
	.st8{stroke:#4A5479;stroke-linecap:round;stroke-linejoin:round;stroke-miterlimit:10;}
	.st9{fill:url(#SVGID_1_);}
	.st10{fill:url(#SVGID_00000107562905299145314810000009852942691428382084_);}
	.st11{fill:url(#SVGID_00000013888649430016397640000015637258380632219579_);}
	
		.st12{fill:none;stroke:url(#SVGID_00000084489782120643760830000014619551834313132191_);stroke-width:5;stroke-linecap:round;stroke-linejoin:round;stroke-miterlimit:10;}
	.st13{fill:url(#SVGID_00000149358943472384731150000006388662616422447285_);}
	.st14{fill-rule:evenodd;clip-rule:evenodd;fill:#1AD4B3;}
	.st15{fill-rule:evenodd;clip-rule:evenodd;fill:#FC4F83;}
	.st16{fill:#4A5479;stroke:#000000;stroke-linecap:round;stroke-linejoin:round;stroke-miterlimit:10;}
	
		.st17{fill:url(#SVGID_00000093887599599840287700000012701954375037566852_);stroke:#1D1D1B;stroke-width:0.2115;stroke-linecap:round;stroke-linejoin:round;stroke-miterlimit:10;}
	.st18{fill-rule:evenodd;clip-rule:evenodd;}
	
		.st19{fill:url(#SVGID_00000013163109144961180340000016626483629690820752_);stroke:#1D1D1B;stroke-width:0.2115;stroke-linecap:round;stroke-linejoin:round;stroke-miterlimit:10;}
	
		.st20{fill:url(#SVGID_00000027580100910216381240000011328054550824025999_);stroke:#1D1D1B;stroke-width:0.2115;stroke-linecap:round;stroke-linejoin:round;stroke-miterlimit:10;}
	
		.st21{fill:url(#SVGID_00000163782159541377909010000001614832047729303465_);stroke:#1D1D1B;stroke-width:0.2115;stroke-linecap:round;stroke-linejoin:round;stroke-miterlimit:10;}
	.st22{fill-rule:evenodd;clip-rule:evenodd;fill:url(#SVGID_00000096024099648703938920000017572932732550903948_);}
	.st23{fill-rule:evenodd;clip-rule:evenodd;fill:url(#SVGID_00000174594354253310585210000016065351377095186072_);}
	.st24{fill:url(#SVGID_00000053504012683682099620000011176317838097667519_);}
	.st25{fill:url(#SVGID_00000155126730432320771820000002052767847153609629_);}
	.st26{fill:url(#SVGID_00000152972084029815744230000017736054353389632438_);}
	
		.st27{fill-rule:evenodd;clip-rule:evenodd;fill:#4AA089;stroke:url(#SVGID_00000137126201985503203070000002197798197230158767_);stroke-linecap:round;stroke-linejoin:round;stroke-miterlimit:10;}
	
		.st28{fill-rule:evenodd;clip-rule:evenodd;fill:#4AA089;stroke:url(#SVGID_00000067941250371949250120000009454217889887733694_);stroke-linecap:round;stroke-linejoin:round;stroke-miterlimit:10;}
	
		.st29{fill:none;stroke:url(#SVGID_00000110467007187444087320000016023705503324117427_);stroke-width:5;stroke-linecap:round;stroke-linejoin:round;stroke-miterlimit:10;}
	.st30{fill:url(#SVGID_00000170257560593281295980000010175538251285104302_);}
	
		.st31{fill:none;stroke:url(#SVGID_00000130611200448627587310000001614154857141829300_);stroke-width:5;stroke-linecap:round;stroke-linejoin:round;stroke-miterlimit:10;}
	.st32{fill:url(#SVGID_00000176010357008327858810000002614187582994613639_);}
	
		.st33{fill:none;stroke:url(#SVGID_00000122685650560640304070000001217926257786761867_);stroke-width:5;stroke-linecap:round;stroke-linejoin:round;stroke-miterlimit:10;}
	.st34{fill:url(#SVGID_00000181073385988647727480000012945832926663825293_);}
	.st35{fill:#4A5479;}
	
		.st36{fill-rule:evenodd;clip-rule:evenodd;fill:#1AD4B3;stroke:#111422;stroke-linecap:round;stroke-linejoin:round;stroke-miterlimit:10;}
	
		.st37{fill-rule:evenodd;clip-rule:evenodd;fill:#4AA089;stroke:url(#SVGID_00000090259992320748969370000006318111983592246658_);stroke-linecap:round;stroke-linejoin:round;stroke-miterlimit:10;}
	.st38{fill:#FFFFFF;}
	
		.st39{fill-rule:evenodd;clip-rule:evenodd;fill:#FC4F83;stroke:#111422;stroke-linecap:round;stroke-linejoin:round;stroke-miterlimit:10;}
	
		.st40{fill-rule:evenodd;clip-rule:evenodd;fill:#CB3D61;stroke:#000000;stroke-linecap:round;stroke-linejoin:round;stroke-miterlimit:10;}
	.st41{fill:url(#SVGID_00000096043967761137837730000015497926734770496162_);}
	.st42{fill:url(#SVGID_00000125602074043110875250000000289198988537189256_);}
	.st43{fill:url(#SVGID_00000158729185812493281280000012355951631292943037_);}
	
		.st44{fill:none;stroke:url(#SVGID_00000005244419556407338750000001749547124463665578_);stroke-width:5;stroke-linecap:round;stroke-linejoin:round;stroke-miterlimit:10;}
	.st45{fill:url(#SVGID_00000160882454866681299890000000842315995073231799_);}
	
		.st46{fill:none;stroke:url(#SVGID_00000181071959751209171920000007954895120962348419_);stroke-width:5;stroke-linecap:round;stroke-linejoin:round;stroke-miterlimit:10;}
	.st47{fill:url(#SVGID_00000083048521762769909370000002268065082874979981_);}
	.st48{fill:url(#SVGID_00000034800364463544698100000016060893645013808565_);}
	.st49{fill:#222846;}
	.st50{fill:url(#SVGID_00000154404131991663227660000015407641124125948863_);}
	.st51{fill:url(#SVGID_00000167398046402656342300000001605976096619331204_);}
	.st52{fill:url(#SVGID_00000181808250878719595070000007606942224296348606_);}
	.st53{fill:url(#SVGID_00000123420535333486098550000002440111039619246260_);}
	.st54{fill:url(#SVGID_00000101073055181858777020000002933754308044084917_);}
	.st55{fill:url(#SVGID_00000121256731038634257060000000937559929434117048_);}
	.st56{fill-rule:evenodd;clip-rule:evenodd;fill:#6D75A2;}
	.st57{fill-rule:evenodd;clip-rule:evenodd;fill:#4A5479;}
	.st58{opacity:0.29;fill:url(#SVGID_00000158005649788893920560000007954591973538626737_);enable-background:new    ;}
	.st59{fill:url(#SVGID_00000142134918251761549110000013004496935691019954_);}
	.st60{fill:url(#SVGID_00000109029247256867284780000017665505530165797819_);}
	.st61{fill:url(#SVGID_00000029763761586439825830000005228738723783665039_);}
	.st62{fill-rule:evenodd;clip-rule:evenodd;fill:url(#SVGID_00000005971810821949162830000008628255350751694758_);}
	.st63{fill:url(#SVGID_00000096747811140074089070000012874814342708296372_);}
	.st64{fill:url(#SVGID_00000106134734194520462220000015085104090905129357_);}
	.st65{fill:url(#SVGID_00000150815463100073103940000005176771070025835187_);}
	.st66{fill:url(#SVGID_00000076598342740471750760000004554784703011365803_);}
	.st67{opacity:0.29;fill:url(#SVGID_00000169559827877646679850000003507643985258623413_);enable-background:new    ;}
	.st68{fill-rule:evenodd;clip-rule:evenodd;fill:#222846;}
	
		.st69{fill:none;stroke:url(#SVGID_00000047057092295595224350000012486489916612225690_);stroke-width:5;stroke-linecap:round;stroke-linejoin:round;stroke-miterlimit:10;}
	.st70{fill:url(#SVGID_00000037675199356324893900000006361798081921055672_);}
	
		.st71{fill:none;stroke:url(#SVGID_00000143603069033625027410000002492857466334086573_);stroke-width:5;stroke-linecap:round;stroke-linejoin:round;stroke-miterlimit:10;}
	.st72{fill:url(#SVGID_00000004543112897418642550000007577948242395696519_);}
	
		.st73{fill:none;stroke:url(#SVGID_00000009557297138861330430000007788954528086343867_);stroke-width:5;stroke-linecap:round;stroke-linejoin:round;stroke-miterlimit:10;}
	.st74{fill:url(#SVGID_00000008852136067568594060000003067878511479243930_);}
	
		.st75{fill-rule:evenodd;clip-rule:evenodd;fill:#4AA089;stroke:url(#SVGID_00000036243684301167578060000001744538144531483546_);stroke-linecap:round;stroke-linejoin:round;stroke-miterlimit:10;}
	.st76{fill-rule:evenodd;clip-rule:evenodd;fill:url(#SVGID_00000083061840312241923730000013497218596647618451_);}
	.st77{fill:url(#SVGID_00000057125010644835431690000004558065338861026211_);}
	.st78{fill:url(#SVGID_00000054224885788911949430000004313149993355556260_);}
	.st79{fill:url(#SVGID_00000173130253990688319810000010633728812677422248_);}
	.st80{opacity:0.29;fill:url(#SVGID_00000132773299541189475320000010322568104520472736_);}
	.st81{opacity:0.29;fill:url(#SVGID_00000109743832012877908360000003464365750003700870_);}
	.st82{opacity:0.2563;fill-rule:evenodd;clip-rule:evenodd;fill:#FFFFFF;enable-background:new    ;}
	.st83{opacity:0.67;fill:url(#SVGID_00000150804784265115711070000000750833170527116693_);}
	.st84{fill:#3FA9BD;}
	.st85{fill:url(#SVGID_00000099626570627469007790000010356136692065078925_);}
	.st86{fill-rule:evenodd;clip-rule:evenodd;fill:#555069;}
	.st87{fill-rule:evenodd;clip-rule:evenodd;fill:#FFFFFF;}
	.st88{fill-rule:evenodd;clip-rule:evenodd;fill:#AFAFB1;}
	.st89{fill-rule:evenodd;clip-rule:evenodd;fill:#D3D3D3;}
	.st90{opacity:0.67;fill:url(#SVGID_00000173142630088636084080000017377648651082302867_);}
	.st91{fill:url(#SVGID_00000033340860609417346060000005979774254398126221_);}
	.st92{opacity:0.67;fill:url(#SVGID_00000148649038357317721490000001633228818828405418_);}
	.st93{fill:url(#SVGID_00000099646125772270993400000011323456645977692067_);}
	.st94{opacity:0.67;fill:url(#SVGID_00000013179233163295457320000005504680011748904860_);}
	.st95{fill:url(#SVGID_00000152950341829782085240000005051200067696190111_);}
	.st96{opacity:0.67;fill:url(#SVGID_00000019675824309749820430000002864616159165623992_);}
	.st97{fill:url(#SVGID_00000137123773497424144560000005615607757872288144_);}
	.st98{opacity:0.67;fill:url(#SVGID_00000086679800116448888570000018391420149298947200_);}
	.st99{fill:url(#SVGID_00000028302693207532736100000016244126965624196511_);}
	.st100{fill:#1AD4B3;}
	.st101{opacity:0.67;fill:url(#SVGID_00000149354282852938407640000006768887483489311149_);}
	.st102{fill:url(#SVGID_00000148624548016211543960000006001633276711115453_);}
	.st103{opacity:0.67;fill:url(#SVGID_00000021833700257084043080000000258429142386257598_);}
	.st104{fill:url(#SVGID_00000174580467179234107930000011950867023418108573_);}
	.st105{opacity:0.67;fill:url(#SVGID_00000064340159476564986680000008666958685219669919_);}
	.st106{fill:url(#SVGID_00000093150129513906716940000004350449716932521660_);}
	.st107{opacity:0.67;fill:url(#SVGID_00000065757515271129111740000014863566641798008489_);}
	.st108{fill:url(#SVGID_00000053515316406667445730000017112480841798181266_);}
	.st109{opacity:0.67;fill:url(#SVGID_00000014616673502716578000000011064156652195921547_);}
	.st110{fill:url(#SVGID_00000049903935964433481180000006565614203850038920_);}
	.st111{opacity:0.67;fill:url(#SVGID_00000020389704436746824930000010480456187218687907_);}
	.st112{fill:url(#SVGID_00000140698396873119013100000011107799293759098247_);}
	
		.st113{fill-rule:evenodd;clip-rule:evenodd;fill:none;stroke:#FFFFFF;stroke-width:0.7384;stroke-linecap:round;stroke-linejoin:round;stroke-miterlimit:10;}
	.st114{opacity:0.67;fill:url(#SVGID_00000146476956750549685840000007673114780435844522_);}
	.st115{fill:url(#SVGID_00000139293169017281961690000014712439039983588522_);}
	.st116{opacity:0.67;fill:url(#SVGID_00000132806937718578626090000001120140016434003112_);}
	.st117{fill:url(#SVGID_00000088107890949768413360000000186765453103514036_);}
	.st118{opacity:0.67;fill:url(#SVGID_00000096740577285848718010000017138398971675808410_);}
	.st119{fill:url(#SVGID_00000110462859297864000420000002118356300030623371_);}
	.st120{opacity:0.67;fill:url(#SVGID_00000123424257634600744630000004311513825655360956_);}
	.st121{fill:url(#SVGID_00000180360816841780521520000010832589193384825770_);}
	.st122{opacity:0.67;fill:url(#SVGID_00000173846015854509636960000011209660465048034235_);}
	.st123{fill:url(#SVGID_00000029015378653380082090000004237627963452929209_);}
	.st124{opacity:0.67;fill:url(#SVGID_00000025419202885628667990000014481540930988677773_);}
	.st125{fill:url(#SVGID_00000116933569817759151030000000010990623993035697_);}
	.st126{opacity:0.67;fill:url(#SVGID_00000003087616042603663620000012051577691770371975_);}
	.st127{fill:url(#SVGID_00000049219077738072639530000010279365388006222241_);}
	.st128{opacity:0.67;fill:url(#SVGID_00000173132661847139686940000000869220570696341409_);}
	.st129{fill:url(#SVGID_00000042701366671329240970000009040036593203144869_);}
	.st130{opacity:0.67;fill:url(#SVGID_00000019653275187199213290000001957140834811696273_);enable-background:new    ;}
	.st131{fill:#5EA6B9;}
	.st132{fill:url(#SVGID_00000154388458167434589450000005943169026464667797_);}
	.st133{fill-rule:evenodd;clip-rule:evenodd;fill:#545067;}
	.st134{fill-rule:evenodd;clip-rule:evenodd;fill:#AEAEB0;}
	.st135{fill-rule:evenodd;clip-rule:evenodd;fill:#D2D2D2;}
	.st136{opacity:0.67;fill:url(#SVGID_00000100354489595357548170000004543152641843607942_);enable-background:new    ;}
	.st137{fill:url(#SVGID_00000106145094387607256550000013439664633533724036_);}
	.st138{fill-rule:evenodd;clip-rule:evenodd;fill:#63D0B3;}
	
		.st139{fill-rule:evenodd;clip-rule:evenodd;fill:none;stroke:#000000;stroke-linecap:round;stroke-linejoin:round;stroke-miterlimit:10;}
	.st140{fill-rule:evenodd;clip-rule:evenodd;fill:#E85C83;}
	
		.st141{fill-rule:evenodd;clip-rule:evenodd;fill:#4AA089;stroke:url(#SVGID_00000054951837825414893350000007469967077036318908_);stroke-linecap:round;stroke-linejoin:round;stroke-miterlimit:10;}
	.st142{fill:#5DC29D;}
	.st143{fill:url(#SVGID_00000183237585471349232660000008821974507400391556_);}
	.st144{fill:url(#SVGID_00000047764977056171575200000016933741046353924001_);}
	.st145{fill:#E85C83;}
	.st146{opacity:0.67;fill:url(#SVGID_00000180326629403383913350000002882071279048703111_);enable-background:new    ;}
	.st147{fill:url(#SVGID_00000165919481374746413770000004850168008336445833_);}
	
		.st148{fill:none;stroke:url(#SVGID_00000047053055856732436860000000068512108121908360_);stroke-width:5;stroke-linecap:round;stroke-linejoin:round;stroke-miterlimit:10;}
	.st149{fill:url(#SVGID_00000102516821338108560910000006568332783146597259_);}
	.st150{opacity:0.67;fill:url(#SVGID_00000103959917269806887500000004344646401973048764_);enable-background:new    ;}
	.st151{fill:url(#SVGID_00000111875096449120858870000007066417339297202102_);}
	.st152{opacity:0.67;fill:url(#SVGID_00000086671658050454532710000010245731694868942782_);}
	.st153{fill:url(#SVGID_00000032639578002624271170000017152073682393439894_);}
	.st154{opacity:0.67;fill:url(#SVGID_00000000208320397547515140000004785794237710290824_);}
	.st155{fill:url(#SVGID_00000011028789184644679620000004051614849988412847_);}
	.st156{opacity:0.67;fill:url(#SVGID_00000173860869949931385900000014962931093047767476_);}
	.st157{fill:url(#SVGID_00000096057886590787808380000007917875992239512744_);}
	.st158{opacity:0.67;fill:url(#SVGID_00000139269636481514532550000008562299886497666459_);}
	.st159{fill:url(#SVGID_00000002385955071423553980000007360532250296975771_);}
	.st160{opacity:0.67;fill:url(#SVGID_00000021119863025530567930000000926677349362570669_);}
	.st161{fill:url(#SVGID_00000043420504352453119160000018148445469191496615_);}
	.st162{fill:none;stroke:#000000;stroke-width:22;stroke-linecap:round;stroke-linejoin:round;stroke-miterlimit:10;}
	.st163{fill:url(#SVGID_00000039109866516756524670000000823870521471441040_);}
	.st164{fill:url(#SVGID_00000083049405709820330040000012764701189656369561_);}
	.st165{fill:none;stroke:url(#SVGID_00000156556067292701689320000017769167715862993554_);stroke-width:5;stroke-miterlimit:10;}
	.st166{fill:url(#SVGID_00000146479708056932815740000014707269465869769650_);}
	.st167{fill:none;}
	.st168{opacity:0.67;fill:url(#SVGID_00000158020052311810271040000009275841298871712926_);}
	.st169{fill:url(#SVGID_00000067222422102778111780000017035518760052358029_);}
	.st170{fill:none;stroke:url(#SVGID_00000167376955224808032230000007974745648816251814_);stroke-width:5;stroke-miterlimit:10;}
	.st171{fill:url(#SVGID_00000136369548791167284170000014720234958167745189_);}
	.st172{opacity:0.67;fill:url(#SVGID_00000150784480902379933940000001431325019730521776_);}
	.st173{fill:url(#SVGID_00000183224034949112434770000014301479886713197721_);}
	.st174{opacity:0.67;fill:url(#SVGID_00000044888166983646032880000003739542277633463200_);}
	.st175{fill:url(#SVGID_00000170262570488583217630000007745485056538508683_);}
	.st176{opacity:0.67;fill:url(#SVGID_00000121958667768789283750000016876388281250106272_);}
	.st177{fill:url(#SVGID_00000062178423877951483770000006577647382393515923_);}
</style>
<g>
	<polygon class="st3" points="150.63,31.27 33.28,98.3 33.28,161.05 150.63,94.01 	"/>
	<polygon class="st2" points="17.9,89.6 33.28,97.92 33.28,161.05 17.9,152.73 	"/>
	<polygon class="st4" points="150.63,31.27 134.1,22.53 17.9,89.6 33.28,97.92 	"/>
</g>
<g>
	<g>
		<polygon class="st2" points="142.34,62.01 44.25,119.17 44.25,111.49 142.34,54.33 		"/>
		<polygon class="st3" points="141.51,61.35 44.86,117.79 44.85,111.43 141.5,54.99 		"/>
		<polygon class="st14" points="114.34,76.55 44.49,117.47 44.49,112.24 114.33,71.49 		"/>
	</g>
	<g>
		<polygon class="st2" points="142.34,77.64 44.25,134.8 44.25,127.12 142.34,69.96 		"/>
		<polygon class="st3" points="141.51,77.08 44.25,133.79 44.24,127.43 141.5,70.72 		"/>
		<polygon class="st15" points="84.17,109.83 44.47,133.05 44.46,127.91 84.16,104.68 		"/>
	</g>
</g>
<g>
	<path class="st1" d="M177.37,73.82c0-16.69-5.94-22.53,2.49-27.94c12.9-8.28,26.89-12.64,39.52-8.14
		c27.31,9.73,52.1,50.32,52.16,83.71c0.05,28.15-4.78,32.1-28.51,45.5c-4.69,2.65-17.34-4.66-23.65-8.32
		C196.18,145.17,177.37,107.2,177.37,73.82z"/>
	
		<ellipse transform="matrix(0.8947 -0.4466 0.4466 0.8947 -24.3037 106.4445)" class="st0" cx="213.63" cy="104.77" rx="40.13" ry="68.8"/>
	<path class="st16" d="M213.63,104.77l5.95-54.11c-1.87-1.35-3.77-2.59-5.71-3.69c-25.73-14.63-46.7-0.61-46.84,31.31
		s20.62,69.66,46.35,84.29c25.73,14.63,46.7,0.61,46.84-31.31c0.02-3.94-0.29-7.98-0.88-12.05L213.63,104.77z"/>
</g>
<g>
	<g>
		<path id="矩形_00000174576588283323481590000011612067494284038837_" class="st82" d="M177.82,200.04L177.82,200.04
			c0.62,0,1.15,0.76,1.15,1.64v1.52c0,0.88-0.53,1.64-1.15,1.64l0,0c-0.62,0-1.15-0.76-1.15-1.64v-1.52
			C176.68,200.74,177.2,200.04,177.82,200.04z"/>
		
			<radialGradient id="SVGID_1_" cx="146.2793" cy="234.1682" r="29.1582" gradientTransform="matrix(1 0 0 0.5898 0 96.0574)" gradientUnits="userSpaceOnUse">
			<stop  offset="0" style="stop-color:#06070C"/>
			<stop  offset="1" style="stop-color:#0D101D;stop-opacity:0"/>
		</radialGradient>
		<path style="opacity:0.67;fill:url(#SVGID_1_);" d="M171.28,220.09c-13.68-7.9-35.96-8-49.77-0.23s-13.91,20.48-0.23,28.37
			c13.68,7.9,35.96,8,49.77,0.23C184.85,240.69,184.96,227.99,171.28,220.09z"/>
		<g>
			<path class="st84" d="M184.78,184.07v-49.28c0-0.23,0.02-0.45,0.02-0.68c0-22.91-18.57-41.48-41.48-41.48
				c-22.91,0-41.48,18.57-41.48,41.48c0,0.36,0.02,0.72,0.03,1.07v44.66h-0.03v22.67c0,2.84,2.3,5.15,5.15,5.15
				c2.84,0,5.15-2.31,5.15-5.15v-0.83c0.56,0.36,1.13,0.72,1.74,1.07c1.83,1.06,3.79,1.99,5.85,2.81v8.2c0,2.84,2.3,5.15,5.15,5.15
				c2.84,0,5.15-2.31,5.15-5.15v-5.23c2.95,0.57,5.99,0.96,9.06,1.14v12.59c0,2.84,2.3,5.15,5.15,5.15c2.84,0,5.15-2.31,5.15-5.15
				v-12.7c3.39-0.28,6.73-0.8,9.93-1.55v6.36c0,2.84,2.3,5.15,5.15,5.15c2.84,0,5.15-2.31,5.15-5.15v-9.87
				c1-0.47,1.97-0.96,2.91-1.49c0.7-0.39,1.35-0.8,1.99-1.21v0.71c0,2.84,2.3,5.15,5.15,5.15s5.15-2.31,5.15-5.15v-18.45H184.78z"/>
			
				<radialGradient id="SVGID_00000180352060071544816260000001431346894970607522_" cx="168.002" cy="110.0475" r="106.6854" gradientUnits="userSpaceOnUse">
				<stop  offset="0.0124" style="stop-color:#DD78CE"/>
				<stop  offset="0.4936" style="stop-color:#A7589A"/>
				<stop  offset="0.5829" style="stop-color:#A0619E"/>
				<stop  offset="0.7273" style="stop-color:#8E79A8"/>
				<stop  offset="0.9078" style="stop-color:#709FB9"/>
				<stop  offset="1" style="stop-color:#5EB6C3"/>
			</radialGradient>
			<path style="fill:url(#SVGID_00000180352060071544816260000001431346894970607522_);" d="M184.78,184.07v-49.28
				c0-0.23,0.02-0.45,0.02-0.68c0-22.91-18.57-41.48-41.48-41.48c-22.91,0-41.48,18.57-41.48,41.48c0,0.36,0.02,0.72,0.03,1.07
				v44.66h-0.03v22.67c0,2.84,2.3,5.15,5.15,5.15c2.84,0,5.15-2.31,5.15-5.15v-0.83c0.56,0.36,1.13,0.72,1.74,1.07
				c1.83,1.06,3.79,1.99,5.85,2.81v8.2c0,2.84,2.3,5.15,5.15,5.15c2.84,0,5.15-2.31,5.15-5.15v-5.23c2.95,0.57,5.99,0.96,9.06,1.14
				v12.59c0,2.84,2.3,5.15,5.15,5.15c2.84,0,5.15-2.31,5.15-5.15v-12.7c3.39-0.28,6.73-0.8,9.93-1.55v6.36
				c0,2.84,2.3,5.15,5.15,5.15c2.84,0,5.15-2.31,5.15-5.15v-9.87c1-0.47,1.97-0.96,2.91-1.49c0.7-0.39,1.35-0.8,1.99-1.21v0.71
				c0,2.84,2.3,5.15,5.15,5.15s5.15-2.31,5.15-5.15v-18.45H184.78z"/>
		</g>
		<path id="矩形_00000007417107686637507580000014205103695477996929_" class="st82" d="M105.73,170.22L105.73,170.22
			c1.12,0,2.09,1.38,2.09,2.99v14.25c0,1.61-0.96,2.99-2.09,2.99l0,0c-1.12,0-2.09-1.38-2.09-2.99v-14.25
			C103.64,171.6,104.61,170.22,105.73,170.22z"/>
		<path id="矩形_00000101809494190856234910000002345618731239334571_" class="st82" d="M167.03,107.13L167.03,107.13
			c1.37-1.02,3.68-0.37,5.02,1.41l2.29,3.06c1.34,1.78,1.31,4.19-0.06,5.22l0,0c-1.37,1.02-3.68,0.37-5.02-1.41l-2.29-3.06
			C165.54,110.44,165.66,108.16,167.03,107.13z"/>
		<path id="矩形_00000161604928908795527600000008605890212235698820_" class="st82" d="M123.13,206.81L123.13,206.81
			c1.12,0,2.09,1.38,2.09,2.99v2.76c0,1.61-0.96,2.99-2.09,2.99l0,0c-1.12,0-2.09-1.38-2.09-2.99v-2.76
			C121.04,208.08,122,206.81,123.13,206.81z"/>
		<path id="矩形_00000175321853410306879980000001170281700059483016_" class="st82" d="M105.73,196.1L105.73,196.1
			c1.12,0,2.09,1.38,2.09,2.99v2.76c0,1.61-0.96,2.99-2.09,2.99l0,0c-1.12,0-2.09-1.38-2.09-2.99v-2.76
			C103.64,197.37,104.61,196.1,105.73,196.1z"/>
		<path id="矩形_00000145768048235864275040000012115126387051226515_" class="st82" d="M143.32,215.55L143.32,215.55
			c1.12,0,2.09,1.38,2.09,2.99v2.76c0,1.61-0.96,2.99-2.09,2.99l0,0c-1.12,0-2.09-1.38-2.09-2.99v-2.76
			C141.23,216.82,142.19,215.55,143.32,215.55z"/>
		<path id="矩形_00000076565711984352682370000003144567158406498946_" class="st82" d="M163.02,210.21L163.02,210.21
			c0.89,0,1.66,1.1,1.66,2.37v2.19c0,1.28-0.76,2.37-1.66,2.37l0,0c-0.89,0-1.66-1.1-1.66-2.37v-2.19
			C161.36,211.21,162.13,210.21,163.02,210.21z"/>
		<g>
			<path id="椭圆形_00000155129080565217219960000011225319890852127894_" class="st86" d="M155.19,156.59
				c4.06-0.17,7.1-3.66,7.09-6c0-0.94-0.55-1.75-1.38-1.81c-1.29-0.13-3.23,0.7-5.72,0.8c-2.31,0.1-3.78-0.5-5.53-0.42
				c-1.84,0.08-1.75,2.22-1.47,3.06C148.83,154.52,151.04,156.76,155.19,156.59z"/>
			<path id="椭圆形_00000078025562520743858880000008416374861513232017_" class="st87" d="M155.28,154.62
				c4.15-0.17,7.19-3.38,7.19-5.63c0-0.84-0.55-1.57-1.38-1.63c-1.29-0.13-3.32,0.7-5.81,0.8c-2.4,0.1-3.78-0.5-5.62-0.43
				c-1.84,0.08-1.75,2.13-1.48,2.87C148.82,152.73,151.13,154.79,155.28,154.62z"/>
		</g>
		<g>
			
				<ellipse transform="matrix(0.5671 -0.8237 0.8237 0.5671 -49.7988 171.5042)" class="st87" cx="138.24" cy="133.12" rx="9.5" ry="9.1"/>
			<path id="形状结合_00000067234309611863648520000001352696298397152951_" class="st88" d="M139.44,123.16
				c4.24-0.18,7.66,3.98,7.66,9.22c0,0.19,0,0.37,0,0.56l0,0.56c0-5.33-3.33-9.59-7.48-9.42c-4.15,0.17-7.46,4.61-7.46,10.04
				c0,1.03,0.09,2.05,0.37,2.98c-0.46-1.2-0.74-2.59-0.74-3.99C131.79,127.78,135.2,123.33,139.44,123.16z"/>
			<path id="形状结合_00000162341696767027055490000002275206768602789016_" class="st89" d="M139.44,122.03
				c4.7-0.2,8.58,4.41,8.58,10.31c0.01,5.89-3.86,10.83-8.57,11.02c-4.7,0.2-8.58-4.41-8.58-10.31
				C130.87,127.16,134.65,122.23,139.44,122.03z M139.44,123.16c-4.24,0.18-7.65,4.62-7.64,9.86c0,5.24,3.42,9.4,7.66,9.22
				c4.24-0.18,7.65-4.62,7.64-9.86C147.1,127.14,143.59,122.98,139.44,123.16z"/>
		</g>
		<g>
			
				<ellipse transform="matrix(0.5671 -0.8237 0.8237 0.5671 -35.3635 196.2075)" class="st87" cx="168.96" cy="131.74" rx="9.5" ry="9.1"/>
			<path id="形状结合_00000017505610530539898230000015726695416026389156_" class="st88" d="M169.95,121.79
				c4.24-0.18,7.66,3.98,7.66,9.22c0,0.19,0,0.37,0,0.56l0,0.56c0-5.33-3.33-9.59-7.48-9.42s-7.46,4.61-7.46,10.04
				c0,1.03,0.09,2.05,0.37,2.98c-0.46-1.2-0.74-2.59-0.74-3.99C162.31,126.41,165.71,121.96,169.95,121.79z"/>
			<path id="形状结合_00000021101072276550753200000011519581052717660332_" class="st89" d="M169.95,120.66
				c4.7-0.2,8.58,4.41,8.58,10.31c0.01,5.89-3.86,10.83-8.57,11.02s-8.58-4.41-8.58-10.31
				C161.38,125.79,165.16,120.86,169.95,120.66z M169.95,121.79c-4.24,0.18-7.65,4.62-7.64,9.86c0,5.24,3.42,9.4,7.66,9.22
				c4.24-0.18,7.65-4.62,7.64-9.86C177.61,125.77,174.1,121.61,169.95,121.79z"/>
		</g>
		<circle class="st86" cx="143.22" cy="130.98" r="3.77"/>
		<circle class="st86" cx="173.76" cy="129.86" r="3.77"/>
	</g>
</g>
</svg>
