<?xml version="1.0" encoding="utf-8"?>
<!-- Generator: Adobe Illustrator 27.8.1, SVG Export Plug-In . SVG Version: 6.00 Build 0)  -->
<svg version="1.1" id="Слой_1" xmlns="http://www.w3.org/2000/svg" xmlns:xlink="http://www.w3.org/1999/xlink" x="0px" y="0px"
	 viewBox="0 0 290 269" style="enable-background:new 0 0 290 269;" xml:space="preserve">
<style type="text/css">
	.st0{fill:#101422;}
	.st1{fill:#FFFFFF;stroke:#111422;stroke-linecap:round;stroke-linejoin:round;stroke-miterlimit:10;}
	
		.st2{fill-rule:evenodd;clip-rule:evenodd;fill:#C6C3D1;stroke:#101320;stroke-linecap:round;stroke-linejoin:round;stroke-miterlimit:10;}
	
		.st3{fill-rule:evenodd;clip-rule:evenodd;fill:#FFFFFF;stroke:#111422;stroke-linecap:round;stroke-linejoin:round;stroke-miterlimit:10;}
	
		.st4{fill-rule:evenodd;clip-rule:evenodd;fill:#ECF0FC;stroke:#111422;stroke-linecap:round;stroke-linejoin:round;stroke-miterlimit:10;}
	.st5{opacity:0.92;fill-rule:evenodd;clip-rule:evenodd;fill:#FFFFFF;enable-background:new    ;}
	.st6{fill:none;stroke:#FFFFFF;stroke-linecap:round;stroke-linejoin:round;stroke-miterlimit:10;}
	.st7{fill-rule:evenodd;clip-rule:evenodd;fill:#101422;}
	.st8{fill:url(#SVGID_1_);}
	.st9{fill:url(#SVGID_00000144330731728833751880000015903428968652511160_);}
	.st10{fill:url(#SVGID_00000155126784657523401200000005692284900117838224_);}
	.st11{opacity:0.67;fill:url(#SVGID_00000088104658174594757460000014051116468899736504_);enable-background:new    ;}
	.st12{fill:#6FA3B6;}
	.st13{fill:url(#SVGID_00000183229220894153706140000012192529849891235488_);}
	.st14{opacity:0.2563;fill-rule:evenodd;clip-rule:evenodd;fill:#FFFFFF;enable-background:new    ;}
	.st15{fill:none;stroke:#FFFFFF;stroke-width:0.7384;stroke-linecap:round;stroke-linejoin:round;stroke-miterlimit:10;}
	
		.st16{fill:none;stroke:url(#SVGID_00000006668487392573334520000013186445503655515056_);stroke-width:5;stroke-linecap:round;stroke-linejoin:round;stroke-miterlimit:10;}
	.st17{fill:url(#SVGID_00000067204041545037005360000004223112110796580234_);}
	.st18{fill-rule:evenodd;clip-rule:evenodd;fill:#1AD4B3;}
	.st19{fill-rule:evenodd;clip-rule:evenodd;fill:#FC4F83;}
	.st20{fill:#C6C3D1;stroke:#101320;stroke-linecap:round;stroke-linejoin:round;stroke-miterlimit:10;}
	.st21{fill:#ECF0FC;stroke:#111422;stroke-linecap:round;stroke-linejoin:round;stroke-miterlimit:10;}
	
		.st22{fill:url(#SVGID_00000013150802755602551920000001623300537471876225_);stroke:#1D1D1B;stroke-width:0.2115;stroke-linecap:round;stroke-linejoin:round;stroke-miterlimit:10;}
	
		.st23{fill:url(#SVGID_00000106833976619898280950000011036772192385568646_);stroke:#1D1D1B;stroke-width:0.2115;stroke-linecap:round;stroke-linejoin:round;stroke-miterlimit:10;}
	
		.st24{fill:url(#SVGID_00000028289526667015641970000002317269612320291217_);stroke:#1D1D1B;stroke-width:0.2115;stroke-linecap:round;stroke-linejoin:round;stroke-miterlimit:10;}
	
		.st25{fill:url(#SVGID_00000171714713399789824590000003513265207750539702_);stroke:#1D1D1B;stroke-width:0.2115;stroke-linecap:round;stroke-linejoin:round;stroke-miterlimit:10;}
	
		.st26{fill-rule:evenodd;clip-rule:evenodd;fill:#101422;stroke:#101423;stroke-linecap:round;stroke-linejoin:round;stroke-miterlimit:10;}
	.st27{fill:#FFFFFF;}
	.st28{fill-rule:evenodd;clip-rule:evenodd;fill:url(#SVGID_00000021101051381395171090000012267706636518286779_);}
	.st29{fill-rule:evenodd;clip-rule:evenodd;fill:url(#SVGID_00000036240349310818840130000010326744963008648127_);}
	.st30{fill:url(#SVGID_00000057128958315646678410000016391614308857205395_);}
	.st31{fill:url(#SVGID_00000002373275572259306050000006938369568730864790_);}
	.st32{fill:url(#SVGID_00000006683104392421480190000018179944445791537326_);}
	
		.st33{fill-rule:evenodd;clip-rule:evenodd;fill:#C7FFF1;stroke:#101320;stroke-linecap:round;stroke-linejoin:round;stroke-miterlimit:10;}
	
		.st34{fill:none;stroke:url(#SVGID_00000047769963537600109060000012207651049240575140_);stroke-width:5;stroke-linecap:round;stroke-linejoin:round;stroke-miterlimit:10;}
	.st35{fill:url(#SVGID_00000047036317829328123690000000600982433954879638_);}
	
		.st36{fill:none;stroke:url(#SVGID_00000054234108980394468380000013648339700228812171_);stroke-width:5;stroke-linecap:round;stroke-linejoin:round;stroke-miterlimit:10;}
	.st37{fill:url(#SVGID_00000098220723570007309530000008860938385780539063_);}
	
		.st38{fill:none;stroke:url(#SVGID_00000176028118231108780740000005627891112914481581_);stroke-width:5;stroke-linecap:round;stroke-linejoin:round;stroke-miterlimit:10;}
	.st39{fill:url(#SVGID_00000073691972089671485310000013061567645694257331_);}
	
		.st40{fill-rule:evenodd;clip-rule:evenodd;fill:#1AD4B3;stroke:#111422;stroke-linecap:round;stroke-linejoin:round;stroke-miterlimit:10;}
	
		.st41{fill-rule:evenodd;clip-rule:evenodd;fill:#FC4F83;stroke:#111422;stroke-linecap:round;stroke-linejoin:round;stroke-miterlimit:10;}
	
		.st42{fill-rule:evenodd;clip-rule:evenodd;fill:#FFCAD7;stroke:#111422;stroke-linecap:round;stroke-linejoin:round;stroke-miterlimit:10;}
	.st43{fill:url(#SVGID_00000145035859412485398200000000462881960530712493_);}
	.st44{fill:url(#SVGID_00000034793946476240820380000010005314139804244096_);}
	.st45{fill:url(#SVGID_00000067937148119288978960000012194792474163795096_);}
	
		.st46{fill:none;stroke:url(#SVGID_00000074412531463226901020000010962897306139075487_);stroke-width:5;stroke-linecap:round;stroke-linejoin:round;stroke-miterlimit:10;}
	.st47{fill:url(#SVGID_00000121267204597692636750000009668074418109958319_);}
	
		.st48{fill:none;stroke:url(#SVGID_00000158012190947350430810000002932670082266424989_);stroke-width:5;stroke-linecap:round;stroke-linejoin:round;stroke-miterlimit:10;}
	.st49{fill:url(#SVGID_00000167370883239747512250000007395871540146676611_);}
	.st50{fill:url(#SVGID_00000147207245123209773730000012163703792206185638_);}
	.st51{fill:#101320;}
	.st52{fill:url(#SVGID_00000022535467529237387210000000578660252258935717_);}
	.st53{fill:url(#SVGID_00000150060542670379804470000013733666419896140454_);}
	.st54{fill:url(#SVGID_00000168804739140495907770000001579756797310215040_);}
	.st55{fill:url(#SVGID_00000060025476216757917790000013973203034397326771_);}
	.st56{fill:url(#SVGID_00000098204197588453992810000004001028371650479769_);}
	.st57{fill:url(#SVGID_00000109711779698753796780000014868308396565529767_);}
	.st58{opacity:0.29;fill:url(#SVGID_00000172429614126779157150000007946779864168082328_);enable-background:new    ;}
	.st59{fill:url(#SVGID_00000086676561192359527620000006931182043856328628_);}
	.st60{fill:url(#SVGID_00000183952199167873786000000012289840107473554082_);}
	.st61{fill:url(#SVGID_00000152221679072092632710000012047059646115180165_);}
	.st62{fill-rule:evenodd;clip-rule:evenodd;fill:url(#SVGID_00000065757581400043362460000017907473108232587687_);}
	.st63{fill:url(#SVGID_00000029766506172758235650000001561552432480948616_);}
	.st64{fill:url(#SVGID_00000040547725873420599350000017888014838257779891_);}
	.st65{fill:url(#SVGID_00000070805854686230370200000015201718791803929479_);}
	.st66{fill:url(#SVGID_00000062152453886420743620000008462087440069167772_);}
	.st67{opacity:0.29;fill:url(#SVGID_00000014608722810374936700000011625314444188268453_);enable-background:new    ;}
	
		.st68{fill:none;stroke:url(#SVGID_00000022533421981210930790000002776540683393936557_);stroke-width:5;stroke-linecap:round;stroke-linejoin:round;stroke-miterlimit:10;}
	.st69{fill:url(#SVGID_00000162336695879050237060000002466411152379998390_);}
	
		.st70{fill:none;stroke:url(#SVGID_00000029759934818027067400000004225538540511916200_);stroke-width:5;stroke-linecap:round;stroke-linejoin:round;stroke-miterlimit:10;}
	.st71{fill:url(#SVGID_00000168080295317854410370000016087883397731178172_);}
	
		.st72{fill:none;stroke:url(#SVGID_00000178911533730681488720000013416055612914103225_);stroke-width:5;stroke-linecap:round;stroke-linejoin:round;stroke-miterlimit:10;}
	.st73{fill:url(#SVGID_00000113311749023992964060000013446306369963149442_);}
	.st74{fill-rule:evenodd;clip-rule:evenodd;fill:url(#SVGID_00000156555132437470066630000013306578587244412577_);}
	.st75{fill:url(#SVGID_00000118398070038061798050000010418860945274994313_);}
	.st76{fill:url(#SVGID_00000011010568818447761350000008498899268049030275_);}
	.st77{fill:url(#SVGID_00000069387020470218948960000011227209849358760109_);}
	.st78{opacity:0.29;fill:url(#SVGID_00000093168976071988633760000008772022523804777654_);}
	.st79{opacity:0.29;fill:url(#SVGID_00000172437161076401263810000003901815767465466539_);}
	.st80{opacity:0.67;fill:url(#SVGID_00000088102945426459660200000003687943727971811735_);}
	.st81{fill:#3FA9BD;}
	.st82{fill:url(#SVGID_00000052787324253245929090000016547679884213658011_);}
	.st83{fill-rule:evenodd;clip-rule:evenodd;fill:#555069;}
	.st84{fill-rule:evenodd;clip-rule:evenodd;fill:#FFFFFF;}
	.st85{fill-rule:evenodd;clip-rule:evenodd;fill:#AFAFB1;}
	.st86{fill-rule:evenodd;clip-rule:evenodd;fill:#D3D3D3;}
	.st87{opacity:0.67;fill:url(#SVGID_00000128464793518547454470000003376948161551442601_);}
	.st88{fill:url(#SVGID_00000034779231355103423970000016874125286376918457_);}
	.st89{opacity:0.67;fill:url(#SVGID_00000072993698719465430310000008292970038397294997_);}
	.st90{fill:url(#SVGID_00000178203793885338155870000003016846586877127051_);}
	.st91{opacity:0.67;fill:url(#SVGID_00000000197561759058766030000006665625985824093879_);}
	.st92{fill:url(#SVGID_00000128486357108655911740000010851455100342023074_);}
	.st93{opacity:0.67;fill:url(#SVGID_00000143578237612920328450000004809116116938310272_);}
	.st94{fill:url(#SVGID_00000057131672909991172670000017723974961839679632_);}
	.st95{opacity:0.67;fill:url(#SVGID_00000025403614535104613130000009517470524753471893_);}
	.st96{fill:url(#SVGID_00000039131857372100846630000009353120697652623550_);}
	.st97{fill:#1AD4B3;}
	.st98{opacity:0.67;fill:url(#SVGID_00000026859637749303982320000002237228017748427167_);}
	.st99{fill:url(#SVGID_00000044878449059014383150000002108986613038476687_);}
	.st100{opacity:0.67;fill:url(#SVGID_00000119093269015023833940000016685279419915249836_);}
	.st101{fill:url(#SVGID_00000173844116969822362750000006531265859786783167_);}
	.st102{opacity:0.67;fill:url(#SVGID_00000158008239300324523810000005847604024803693720_);}
	.st103{fill:url(#SVGID_00000145054477979498325950000010884194291716419484_);}
	
		.st104{fill-rule:evenodd;clip-rule:evenodd;fill:none;stroke:#FFFFFF;stroke-width:0.7384;stroke-linecap:round;stroke-linejoin:round;stroke-miterlimit:10;}
	.st105{opacity:0.67;fill:url(#SVGID_00000093161953520713181030000009261022303632311939_);}
	.st106{fill:url(#SVGID_00000147206098536521256870000000372283095672104600_);}
	.st107{opacity:0.67;fill:url(#SVGID_00000138549269119917231360000008252644290745815953_);}
	.st108{fill:url(#SVGID_00000078759456251941818380000007884142664054494347_);}
	.st109{opacity:0.67;fill:url(#SVGID_00000096770104861767963820000014465770935839752109_);}
	.st110{fill:url(#SVGID_00000165942255407213188260000018317178829511398025_);}
	.st111{opacity:0.67;fill:url(#SVGID_00000147187924970968044700000012887384879574156456_);}
	.st112{fill:url(#SVGID_00000074432738150343447600000010732433331173841542_);}
	.st113{opacity:0.67;fill:url(#SVGID_00000010301290837129556420000007211844655074125977_);}
	.st114{fill:url(#SVGID_00000180337509031732453130000010227809082274081957_);}
	.st115{opacity:0.67;fill:url(#SVGID_00000050661296474400565280000008004577504949860030_);}
	.st116{fill:url(#SVGID_00000067932092223564988350000001302129082060181163_);}
	.st117{opacity:0.67;fill:url(#SVGID_00000168082714307808736370000002587163576801274012_);}
	.st118{fill:url(#SVGID_00000016789311712762023140000016925202432082117000_);}
	.st119{opacity:0.67;fill:url(#SVGID_00000034055868517985646780000015544581294941042579_);}
	.st120{fill:url(#SVGID_00000034811444241455305390000002271451533357652918_);}
	.st121{opacity:0.67;fill:url(#SVGID_00000048469474768175743180000012553235857449216401_);}
	.st122{fill:url(#SVGID_00000014623805698863485630000001085621494240956573_);}
	.st123{opacity:0.67;fill:url(#SVGID_00000006700641011318191370000016556969215261449376_);}
	.st124{fill:url(#SVGID_00000070818617175248007210000008963601366506433163_);}
	.st125{opacity:0.67;fill:url(#SVGID_00000136397242602343921390000000441415846715532186_);}
	.st126{fill:url(#SVGID_00000109724746770668069490000003550440496586272934_);}
	.st127{opacity:0.67;fill:url(#SVGID_00000137841937576954153970000015948361606811865783_);}
	.st128{fill:#5EA6B9;}
	.st129{fill:url(#SVGID_00000156575645499770713430000008622791955857013654_);}
	.st130{fill-rule:evenodd;clip-rule:evenodd;fill:#545067;}
	.st131{fill-rule:evenodd;clip-rule:evenodd;fill:#AEAEB0;}
	.st132{fill-rule:evenodd;clip-rule:evenodd;fill:#D2D2D2;}
	.st133{opacity:0.67;fill:url(#SVGID_00000060733155335276178180000004762455980416221605_);}
	.st134{fill:url(#SVGID_00000155143057166489624170000011134855128683347088_);}
	.st135{fill-rule:evenodd;clip-rule:evenodd;fill:#63D0B3;}
	
		.st136{fill-rule:evenodd;clip-rule:evenodd;fill:none;stroke:#111422;stroke-linecap:round;stroke-linejoin:round;stroke-miterlimit:10;}
	.st137{fill-rule:evenodd;clip-rule:evenodd;fill:#E85C83;}
	.st138{fill:#5DC29D;}
	.st139{fill:url(#SVGID_00000048469229749613889390000013514268071788907139_);}
	.st140{fill:url(#SVGID_00000130614753989191574260000016180920604255941772_);}
	.st141{fill:#E85C83;}
	.st142{opacity:0.67;fill:url(#SVGID_00000151508962533580690430000010728791710152749758_);}
	.st143{fill:url(#SVGID_00000082351791604585050420000000085421256489209777_);}
	
		.st144{fill:none;stroke:url(#SVGID_00000141428132237164022600000018041191345679207061_);stroke-width:5;stroke-linecap:round;stroke-linejoin:round;stroke-miterlimit:10;}
	.st145{fill:url(#SVGID_00000032621640413186225030000008732668478436712376_);}
	.st146{opacity:0.67;fill:url(#SVGID_00000101098317271848160880000011012146050870940325_);}
	.st147{fill:url(#SVGID_00000134939992265115613280000012532240121226162107_);}
	.st148{opacity:0.67;fill:url(#SVGID_00000065794483474901748950000002577165682510357164_);}
	.st149{fill:url(#SVGID_00000093142266160940161300000017154088117436416144_);}
	.st150{opacity:0.67;fill:url(#SVGID_00000065051405585755404710000013283149647624549252_);}
	.st151{fill:url(#SVGID_00000008847447508018596290000012449992461388463509_);}
	.st152{opacity:0.67;fill:url(#SVGID_00000042730902405764171570000000209624423442079423_);}
	.st153{fill:url(#SVGID_00000039134777769603715950000006264596355614408122_);}
	.st154{opacity:0.67;fill:url(#SVGID_00000109715025080322009310000014464927097858212999_);}
	.st155{fill:url(#SVGID_00000016036402898209403250000015351688590653402040_);}
	.st156{opacity:0.67;fill:url(#SVGID_00000018227820402699641780000008775621477830105737_);}
	.st157{fill:url(#SVGID_00000127008095567106428820000001248084887483242921_);}
	.st158{fill:none;stroke:#000000;stroke-width:22;stroke-linecap:round;stroke-linejoin:round;stroke-miterlimit:10;}
	.st159{fill:#ECF0FC;}
	.st160{fill:url(#SVGID_00000176014002099138259390000011392444836144446596_);}
	.st161{fill:url(#SVGID_00000060018683481372419750000016165274311114099110_);}
	.st162{fill:none;stroke:url(#SVGID_00000002376575903110487980000005708681822082763955_);stroke-width:5;stroke-miterlimit:10;}
	.st163{fill:#111422;}
	.st164{fill:url(#SVGID_00000109720984418348349870000013277769445278756505_);}
	.st165{fill:none;}
	.st166{opacity:0.67;fill:url(#SVGID_00000134215709115714766090000007675672317856031126_);}
	.st167{fill:url(#SVGID_00000071522047268126993490000008344930284698770623_);}
	.st168{fill:none;stroke:url(#SVGID_00000069380454240288725080000012864413214578094990_);stroke-width:5;stroke-miterlimit:10;}
	.st169{fill:url(#SVGID_00000066478052256679967920000014689048350704382105_);}
	.st170{opacity:0.67;fill:url(#SVGID_00000098222492911530655040000008067878337462266266_);}
	.st171{fill:url(#SVGID_00000020359838332264424200000017853479124806053304_);}
	.st172{opacity:0.67;fill:url(#SVGID_00000046327764182038050150000014368951158191250844_);}
	.st173{fill:url(#SVGID_00000173122906878966908400000005107521054717782713_);}
</style>
<g>
	<g>
		<polygon class="st20" points="35.13,148.28 12.56,135.99 12.56,101.87 140.24,33.94 162.64,43.17 159.46,65.16 166.46,73.72 
			158.91,78.01 151.46,73.41 145.06,85.87 140.13,82.91 123.15,98.31 114.3,92.82 106.7,107.65 97.63,102.32 91.14,116.48 
			81.05,108.49 74.99,120.86 61.54,128.75 52.47,122.57 39.87,131.93 42.08,144.33 		"/>
		<path class="st1" d="M83.04,103.23c0,3.97-0.56,7.64-1.66,10.99c-1.11,3.35-2.61,6.27-4.49,8.74c-1.88,2.47-3.98,4.36-6.3,5.68
			c-2.33,1.32-4.44,1.82-6.32,1.47c-1.88-0.34-3.37-1.56-4.48-3.66c-1.1-2.1-1.66-5.12-1.66-9.07c0-3.97,0.55-7.63,1.66-10.99
			c1.1-3.35,2.6-6.26,4.48-8.73c1.88-2.47,3.99-4.36,6.32-5.69c2.32-1.32,4.42-1.81,6.3-1.48c1.88,0.33,3.38,1.54,4.49,3.64
			C82.49,96.22,83.04,99.26,83.04,103.23z M75.89,107.29c0-2.14-0.2-3.83-0.61-5.07c-0.4-1.24-1-2.01-1.79-2.33
			c-0.79-0.31-1.76-0.14-2.91,0.51c-1.15,0.65-2.12,1.58-2.91,2.79c-0.79,1.21-1.38,2.66-1.79,4.36c-0.4,1.7-0.61,3.62-0.61,5.76
			c0,2.14,0.2,3.83,0.61,5.07c0.4,1.24,1,2.02,1.79,2.33c0.79,0.31,1.76,0.14,2.91-0.51c1.15-0.65,2.12-1.58,2.91-2.79
			c0.79-1.21,1.38-2.66,1.79-4.36C75.69,111.35,75.89,109.43,75.89,107.29z"/>
		<path class="st1" d="M91.14,116.48l-7.55-31.4l7.75-4.4l3.5,19.97l0.2-0.11l4.15-24.32l6.1-3.46l4.15,19.67l0.2-0.11l3.5-24.01
			l7.75-4.4l-7.55,39.98l-6.65,3.78l-4.35-17.47l-0.2,0.11L97.8,112.7L91.14,116.48z"/>
		<path class="st1" d="M123.15,98.31V62.62l18.45-10.48v7.81l-11.5,6.53v6.14l10.55-5.99v7.81l-10.55,5.99v6.13l11.45-6.5v7.81
			L123.15,98.31z"/>
		<path class="st1" d="M51.17,105.05c-1.43-0.24-3.09,0.19-4.99,1.26l-11.05,6.28v35.69l6.95-3.95v-10.6l3.85-2.18
			c1.95-1.11,3.66-2.58,5.12-4.42c1.46-1.84,2.6-3.93,3.41-6.26c0.81-2.33,1.22-4.78,1.22-7.33c0-2.53-0.4-4.52-1.19-5.97
			C53.7,106.13,52.6,105.29,51.17,105.05z M47.96,120.55c-0.31,0.92-0.76,1.75-1.34,2.48c-0.58,0.73-1.28,1.33-2.09,1.79l-2.45,1.39
			v-9.83l2.45-1.39c0.82-0.46,1.52-0.67,2.09-0.6c0.58,0.06,1.03,0.36,1.34,0.91c0.31,0.55,0.47,1.33,0.47,2.36
			C48.43,118.66,48.28,119.63,47.96,120.55z"/>
		<path class="st1" d="M158.91,78.01l7.55-4.29l-5.21-10.37c1.33-1.64,2.38-3.48,3.14-5.55c0.81-2.22,1.22-4.6,1.22-7.16
			c0-2.53-0.4-4.48-1.19-5.84c-0.79-1.36-1.9-2.12-3.33-2.28s-3.09,0.31-4.99,1.39l-11.05,6.27v35.69l6.95-3.95V70.15l2.41-1.37
			L158.91,78.01z M152.01,53.97l2.45-1.39c0.82-0.46,1.52-0.71,2.09-0.73c0.58-0.02,1.03,0.2,1.34,0.67
			c0.31,0.47,0.47,1.21,0.47,2.24c0,1.01-0.16,1.92-0.47,2.72c-0.31,0.81-0.76,1.51-1.34,2.13c-0.58,0.61-1.28,1.16-2.09,1.62
			l-2.45,1.39V53.97z"/>
	</g>
	<polygon class="st21" points="12.56,101.87 35.13,112.59 158.36,42.88 161.1,42.52 140.24,33.94 	"/>
</g>
<g>
	<polygon class="st2" points="194.55,116.27 176.92,106.09 176.92,88.46 194.55,98.64 	"/>
	<polygon class="st3" points="194.55,116.27 212.18,106.09 212.18,88.46 194.55,98.64 	"/>
	<polygon class="st4" points="194.61,98.69 176.92,88.48 194.49,78.24 212.18,88.46 	"/>
	<path id="矩形_00000168096173058728348400000008393161079694972567_" class="st5" d="M189.02,83.97L189.02,83.97
		c0.35,0.2,0.29,0.58-0.12,0.82l-3.66,2.17c-0.41,0.24-1.06,0.29-1.41,0.09l0,0c-0.35-0.2-0.29-0.58,0.12-0.82l3.66-2.17
		C188.03,83.81,188.68,83.77,189.02,83.97z"/>
	<path id="矩形_00000015322760142251274460000014125919517719488400_" class="st5" d="M182.93,87.51L182.93,87.51
		c0.35,0.2,0.29,0.58-0.12,0.82l-0.71,0.42c-0.41,0.24-1.06,0.29-1.41,0.09l0,0c-0.35-0.2-0.29-0.58,0.12-0.82l0.71-0.42
		C181.96,87.33,182.59,87.31,182.93,87.51z"/>
</g>
<path id="矩形_00000047766867571961950990000000092191794978858686_" class="st3" d="M221.41,86.27L221.41,86.27
	c0.47-0.34,1.28-0.05,1.76,0.63l0.82,1.15c0.48,0.67,0.49,1.54,0.02,1.87l0,0c-0.47,0.34-1.28,0.05-1.77-0.63l-0.82-1.15
	C220.92,87.42,220.94,86.61,221.41,86.27z"/>
<g>
	<g>
		<polygon class="st3" points="207.02,131.18 189.39,121 189.39,103.37 207.02,113.55 		"/>
		<polygon class="st3" points="207.02,131.18 224.65,121 224.65,103.37 207.02,113.55 		"/>
		<linearGradient id="SVGID_1_" gradientUnits="userSpaceOnUse" x1="189.3869" y1="103.3753" x2="224.6482" y2="103.3753">
			<stop  offset="0" style="stop-color:#F229D2"/>
			<stop  offset="1" style="stop-color:#2F37EE"/>
		</linearGradient>
		<polygon style="fill-rule:evenodd;clip-rule:evenodd;fill:url(#SVGID_1_);" points="207.08,113.6 189.39,103.38 206.95,93.15 
			224.65,103.37 		"/>
	</g>
	<path id="矩形_00000129926597329440253450000017083748007015277496_" class="st3" d="M201.17,98.82L201.17,98.82
		c0.35,0.2,0.29,0.58-0.12,0.82l-3.66,2.17c-0.41,0.24-1.06,0.29-1.41,0.09l0,0c-0.35-0.2-0.29-0.58,0.12-0.82l3.66-2.17
		C200.18,98.66,200.83,98.62,201.17,98.82z"/>
	<path id="矩形_00000015318522907407480120000011151816126325086651_" class="st3" d="M194.55,102.74L194.55,102.74
		c0.35,0.2,0.29,0.58-0.12,0.82l-0.71,0.42c-0.41,0.24-1.06,0.29-1.41,0.09l0,0c-0.35-0.2-0.29-0.58,0.12-0.82l0.71-0.42
		C193.58,102.57,194.2,102.54,194.55,102.74z"/>
</g>
<g>
	<g>
		<polygon class="st2" points="240.93,137.75 223.3,127.57 223.3,109.94 240.93,120.12 		"/>
		<polygon class="st3" points="240.93,137.75 258.56,127.57 258.56,109.94 240.93,120.12 		"/>
		<polygon class="st4" points="240.99,120.18 223.3,109.96 240.86,99.73 258.56,109.94 		"/>
	</g>
	<path id="矩形_00000046333154930791073270000016342656615955889281_" class="st3" d="M235.08,105.4L235.08,105.4
		c0.35,0.2,0.29,0.58-0.12,0.82l-3.66,2.17c-0.41,0.24-1.06,0.29-1.41,0.09l0,0c-0.35-0.2-0.29-0.58,0.12-0.82l3.66-2.17
		C234.09,105.24,234.74,105.2,235.08,105.4z"/>
	<path id="矩形_00000180327338854094796450000010414534095311377295_" class="st3" d="M228.46,109.32L228.46,109.32
		c0.35,0.2,0.29,0.58-0.12,0.82l-0.71,0.42c-0.41,0.24-1.06,0.29-1.41,0.09l0,0c-0.35-0.2-0.29-0.58,0.12-0.82l0.71-0.42
		C227.49,109.14,228.11,109.12,228.46,109.32z"/>
</g>
<g>
	<polygon class="st2" points="182.59,147.89 164.96,137.72 164.96,120.09 182.59,130.26 	"/>
	<polygon class="st3" points="182.59,147.89 200.22,137.72 200.22,120.09 182.59,130.26 	"/>
	<polygon class="st4" points="182.65,130.32 164.96,120.1 182.53,109.87 200.22,120.08 	"/>
	<path id="矩形_00000178895630703305498600000005498806744934736552_" class="st3" d="M176.75,116L176.75,116
		c0.35,0.2,0.29,0.58-0.12,0.82l-3.66,2.17c-0.41,0.24-1.06,0.29-1.41,0.09l0,0c-0.35-0.2-0.29-0.58,0.12-0.82l3.66-2.17
		C175.75,115.84,176.4,115.8,176.75,116z"/>
	<path id="矩形_00000168839030697849619710000001091191443053778099_" class="st3" d="M170.65,119.54L170.65,119.54
		c0.35,0.2,0.29,0.58-0.12,0.82l-0.71,0.42c-0.41,0.24-1.06,0.29-1.41,0.09l0,0c-0.35-0.2-0.29-0.58,0.12-0.82l0.71-0.42
		C169.68,119.36,170.31,119.34,170.65,119.54z"/>
</g>
<g>
	<polygon class="st3" points="234.73,113.3 217.1,103.12 217.1,85.49 234.73,95.67 	"/>
	<polygon class="st3" points="234.73,113.3 252.36,103.12 252.36,85.49 234.73,95.67 	"/>
	<polygon class="st4" points="234.79,95.72 217.1,85.51 234.66,75.27 252.36,85.49 	"/>
	<path id="矩形_00000095310150847482674580000005050136062192619928_" class="st3" d="M228.88,81.4L228.88,81.4
		c0.35,0.2,0.29,0.58-0.12,0.82l-3.66,2.17c-0.41,0.24-1.06,0.29-1.41,0.09l0,0c-0.35-0.2-0.29-0.58,0.12-0.82l3.66-2.17
		C227.88,81.25,228.54,81.21,228.88,81.4z"/>
	<path id="矩形_00000062165822874858363650000006544137377871353271_" class="st3" d="M222.79,84.94L222.79,84.94
		c0.35,0.2,0.29,0.58-0.12,0.82l-0.71,0.42c-0.41,0.24-1.06,0.29-1.41,0.09l0,0c-0.35-0.2-0.29-0.58,0.12-0.82l0.71-0.42
		C221.82,84.77,222.44,84.74,222.79,84.94z"/>
</g>
<g>
	<polygon class="st2" points="209.31,151.95 191.68,141.77 191.68,124.14 209.31,134.32 	"/>
	<polygon class="st3" points="209.31,151.95 226.94,141.77 226.94,124.14 209.31,134.32 	"/>
	<polygon class="st4" points="209.37,134.37 191.68,124.16 209.24,113.92 226.94,124.14 	"/>
	<path id="矩形_00000114064472668619937870000010261657344245570180_" class="st5" d="M203.78,119.65L203.78,119.65
		c0.35,0.2,0.29,0.58-0.12,0.82l-3.66,2.17c-0.41,0.24-1.06,0.29-1.41,0.09l0,0c-0.35-0.2-0.29-0.58,0.12-0.82l3.66-2.17
		C202.78,119.49,203.43,119.45,203.78,119.65z"/>
	<path id="矩形_00000110456506474459948050000013221382311011794876_" class="st5" d="M197.69,123.18L197.69,123.18
		c0.35,0.2,0.29,0.58-0.12,0.82l-0.71,0.42c-0.41,0.24-1.06,0.29-1.41,0.09l0,0c-0.35-0.2-0.29-0.58,0.12-0.82l0.71-0.42
		C196.72,123.01,197.34,122.98,197.69,123.18z"/>
</g>
<g>
	<polygon class="st2" points="249.74,158.7 232.11,148.52 232.11,130.89 249.74,141.07 	"/>
	<polygon class="st3" points="249.74,158.7 267.37,148.52 267.37,130.89 249.74,141.07 	"/>
	<polygon class="st4" points="249.81,141.13 232.11,130.91 249.68,120.68 267.37,130.89 	"/>
	<path id="矩形_00000054229630968054050380000006332201604103595166_" class="st5" d="M244.22,126.4L244.22,126.4
		c0.35,0.2,0.29,0.58-0.12,0.82l-3.66,2.17c-0.41,0.24-1.06,0.29-1.41,0.09l0,0c-0.35-0.2-0.29-0.58,0.12-0.82l3.66-2.17
		C243.22,126.24,243.87,126.2,244.22,126.4z"/>
	<path id="矩形_00000104680910498249282420000015838726989369358744_" class="st5" d="M238.12,129.94L238.12,129.94
		c0.35,0.2,0.29,0.58-0.12,0.82l-0.71,0.42c-0.41,0.24-1.06,0.29-1.41,0.09l0,0c-0.35-0.2-0.29-0.58,0.12-0.82l0.71-0.42
		C237.16,129.76,237.78,129.74,238.12,129.94z"/>
</g>
<g>
	<polygon class="st2" points="196.6,121.38 178.97,111.2 178.97,93.57 196.6,103.75 	"/>
	<polygon class="st3" points="196.6,121.38 214.23,111.2 214.23,93.57 196.6,103.75 	"/>
	<polygon class="st4" points="196.66,103.8 178.97,93.59 196.53,83.35 214.23,93.57 	"/>
	<path id="矩形_00000097469982792354526320000018312197910911799455_" class="st5" d="M191.07,89.08L191.07,89.08
		c0.35,0.2,0.29,0.58-0.12,0.82l-3.66,2.17c-0.41,0.24-1.06,0.29-1.41,0.09l0,0c-0.35-0.2-0.29-0.58,0.12-0.82l3.66-2.17
		C190.07,88.92,190.72,88.88,191.07,89.08z"/>
	<path id="矩形_00000076598322146262473980000016436098909811142027_" class="st5" d="M184.98,92.61L184.98,92.61
		c0.35,0.2,0.29,0.58-0.12,0.82l-0.71,0.42c-0.41,0.24-1.06,0.29-1.41,0.09l0,0c-0.35-0.2-0.29-0.58,0.12-0.82l0.71-0.42
		C184.01,92.44,184.63,92.42,184.98,92.61z"/>
</g>
<g>
	<polygon class="st2" points="223.02,127.34 205.39,117.17 205.39,99.54 223.02,109.71 	"/>
	<polygon class="st3" points="223.02,127.34 240.65,117.17 240.65,99.54 223.02,109.71 	"/>
	<polygon class="st4" points="223.08,109.77 205.39,99.55 222.95,89.32 240.65,99.53 	"/>
	<path id="矩形_00000042729510672669604590000014937369181818080436_" class="st3" d="M217.17,95.45L217.17,95.45
		c0.35,0.2,0.29,0.58-0.12,0.82l-3.66,2.17c-0.41,0.24-1.06,0.29-1.41,0.09l0,0c-0.35-0.2-0.29-0.58,0.12-0.82l3.66-2.17
		C216.18,95.29,216.83,95.25,217.17,95.45z"/>
	<path id="矩形_00000028297677305322944280000012291987503365248701_" class="st5" d="M211.4,98.58L211.4,98.58
		c0.35,0.2,0.29,0.58-0.12,0.82l-0.71,0.42c-0.41,0.24-1.06,0.29-1.41,0.09l0,0c-0.35-0.2-0.29-0.58,0.12-0.82l0.71-0.42
		C210.43,98.41,211.05,98.38,211.4,98.58z"/>
</g>
<g>
	<polygon class="st2" points="71.86,240.99 54.23,230.81 54.23,213.18 71.86,223.36 	"/>
	<polygon class="st3" points="71.86,240.99 89.49,230.81 89.49,213.18 71.86,223.36 	"/>
	<polygon class="st4" points="71.92,223.42 54.23,213.2 71.8,202.97 89.49,213.18 	"/>
	<path id="矩形_00000000912794377055134100000009356254034308276923_" class="st3" d="M66.01,209.1L66.01,209.1
		c0.35,0.2,0.29,0.58-0.12,0.82l-3.66,2.17c-0.41,0.24-1.06,0.29-1.41,0.09l0,0c-0.35-0.2-0.29-0.58,0.12-0.82l3.66-2.17
		C65.02,208.94,65.67,208.9,66.01,209.1z"/>
	<path id="矩形_00000031173026802198561770000002828748652428899987_" class="st5" d="M60.24,212.23L60.24,212.23
		c0.35,0.2,0.29,0.58-0.12,0.82l-0.71,0.42c-0.41,0.24-1.06,0.29-1.41,0.09l0,0c-0.35-0.2-0.29-0.58,0.12-0.82l0.71-0.42
		C59.27,212.05,59.89,212.03,60.24,212.23z"/>
</g>
<g>
	<polygon class="st2" points="98.76,246.1 81.13,235.92 81.13,218.29 98.76,228.47 	"/>
	<polygon class="st3" points="98.76,246.1 116.39,235.92 116.39,218.29 98.76,228.47 	"/>
	<polygon class="st4" points="98.82,228.53 81.13,218.31 98.7,208.07 116.39,218.29 	"/>
	<path id="矩形_00000004507335568346129230000011268984789073243288_" class="st5" d="M93.23,213.8L93.23,213.8
		c0.35,0.2,0.29,0.58-0.12,0.82l-3.66,2.17c-0.41,0.24-1.06,0.29-1.41,0.09l0,0c-0.35-0.2-0.29-0.58,0.12-0.82l3.66-2.17
		C92.23,213.64,92.89,213.6,93.23,213.8z"/>
	<path id="矩形_00000031908097052907498180000009224453959203179144_" class="st5" d="M87.14,217.34L87.14,217.34
		c0.35,0.2,0.29,0.58-0.12,0.82l-0.71,0.42c-0.41,0.24-1.06,0.29-1.41,0.09l0,0c-0.35-0.2-0.29-0.58,0.12-0.82l0.71-0.42
		C86.17,217.16,86.79,217.14,87.14,217.34z"/>
</g>
<g>
	<polygon class="st2" points="75.08,221.98 57.45,211.8 57.45,194.17 75.08,204.35 	"/>
	<polygon class="st3" points="75.08,221.98 92.71,211.8 92.71,194.17 75.08,204.35 	"/>
	<polygon class="st4" points="75.15,204.4 57.45,194.19 75.02,183.95 92.71,194.17 	"/>
	<path id="矩形_00000021806749413101013990000013106553630260862390_" class="st3" d="M69.24,190.08L69.24,190.08
		c0.35,0.2,0.29,0.58-0.12,0.82l-3.66,2.17c-0.41,0.24-1.06,0.29-1.41,0.09l0,0c-0.35-0.2-0.29-0.58,0.12-0.82l3.66-2.17
		C68.24,189.93,68.89,189.89,69.24,190.08z"/>
	<path id="矩形_00000023972798556653114290000012532623390427454625_" class="st3" d="M63.15,193.62L63.15,193.62
		c0.35,0.2,0.29,0.58-0.12,0.82l-0.71,0.42c-0.41,0.24-1.06,0.29-1.41,0.09l0,0c-0.35-0.2-0.29-0.58,0.12-0.82l0.71-0.42
		C62.18,193.45,62.8,193.42,63.15,193.62z"/>
</g>
<g>
	<polygon class="st2" points="70.4,202.53 52.77,192.35 52.77,174.72 70.4,184.9 	"/>
	<polygon class="st3" points="70.4,202.53 88.03,192.35 88.03,174.72 70.4,184.9 	"/>
	<polygon class="st4" points="70.47,184.95 52.77,174.74 70.34,164.5 88.04,174.72 	"/>
	<path id="矩形_00000004548267277618401040000013676148104469192591_" class="st5" d="M64.88,170.23L64.88,170.23
		c0.35,0.2,0.29,0.58-0.12,0.82l-3.66,2.17c-0.41,0.24-1.06,0.29-1.41,0.09l0,0c-0.35-0.2-0.29-0.58,0.12-0.82l3.66-2.17
		C63.88,170.07,64.53,170.03,64.88,170.23z"/>
	<path id="矩形_00000094579095506339523610000013540496725505024430_" class="st5" d="M58.79,173.77L58.79,173.77
		c0.35,0.2,0.29,0.58-0.12,0.82L57.95,175c-0.41,0.24-1.06,0.29-1.41,0.09l0,0c-0.35-0.2-0.29-0.58,0.12-0.82l0.71-0.42
		C57.82,173.59,58.44,173.57,58.79,173.77z"/>
</g>
<g>
	<polygon class="st2" points="217.4,101.95 199.77,91.78 199.77,74.15 217.4,84.32 	"/>
	<polygon class="st3" points="217.4,101.95 235.03,91.78 235.03,74.15 217.4,84.32 	"/>
	<polygon class="st4" points="217.46,84.38 199.77,74.16 217.34,63.93 235.03,74.14 	"/>
	<path id="矩形_00000007397138978959309260000014115394028610698384_" class="st5" d="M211.87,69.65L211.87,69.65
		c0.35,0.2,0.29,0.58-0.12,0.82l-3.66,2.17c-0.41,0.24-1.06,0.29-1.41,0.09l0,0c-0.35-0.2-0.29-0.58,0.12-0.82l3.66-2.17
		C210.88,69.5,211.53,69.46,211.87,69.65z"/>
	<path id="矩形_00000108987685589295418780000015913938888853039533_" class="st5" d="M205.78,73.19L205.78,73.19
		c0.35,0.2,0.29,0.58-0.12,0.82l-0.71,0.42c-0.41,0.24-1.06,0.29-1.41,0.09l0,0c-0.35-0.2-0.29-0.58,0.12-0.82l0.71-0.42
		C204.81,73.02,205.44,72.99,205.78,73.19z"/>
</g>
<g>
	<path class="st20" d="M250.34,229.84v-9.35h-33.39v9.63c0,0.02,0,0.03,0,0.05v0.05h0c0.01,2.41,1.62,4.83,4.84,6.68
		c6.49,3.75,17.07,3.8,23.62,0.11C248.89,235.05,250.54,232.43,250.34,229.84z"/>
	
		<ellipse transform="matrix(2.787208e-03 -1 1 2.787208e-03 12.2036 453.8384)" class="st21" cx="233.65" cy="220.8" rx="9.52" ry="16.7"/>
	<path id="矩形_00000138531455840197448440000010002364364104219054_" class="st5" d="M224.16,214.25L224.16,214.25
		c0.37,0.21,0.31,0.61-0.13,0.87l-0.75,0.45c-0.44,0.26-1.13,0.3-1.5,0.09l0,0c-0.37-0.21-0.31-0.61,0.13-0.87l0.75-0.45
		C223.13,214.07,223.79,214.04,224.16,214.25z"/>
</g>
<g>
	<path class="st20" d="M263.47,216.72v-9.35h-33.39V217c0,0.02,0,0.03,0,0.05v0.05h0c0.01,2.41,1.62,4.83,4.84,6.68
		c6.49,3.75,17.07,3.8,23.62,0.11C262.02,221.92,263.66,219.3,263.47,216.72z"/>
	
		<ellipse transform="matrix(2.787208e-03 -1 1 2.787208e-03 38.4174 453.875)" class="st21" cx="246.78" cy="207.68" rx="9.52" ry="16.7"/>
	<path id="矩形_00000023968857271452289670000014313252101016298901_" class="st3" d="M236.97,201.53L236.97,201.53
		c0.37,0.21,0.31,0.61-0.13,0.87l-0.75,0.45c-0.44,0.26-1.13,0.3-1.5,0.09l0,0c-0.37-0.21-0.31-0.61,0.13-0.87l0.75-0.45
		C235.94,201.35,236.6,201.32,236.97,201.53z"/>
</g>
<g>
	<path class="st20" d="M252.89,206.14v-9.35H219.5v9.63c0,0.02,0,0.03,0,0.05v0.05h0c0.01,2.41,1.62,4.83,4.84,6.68
		c6.49,3.75,17.07,3.8,23.62,0.11C251.44,211.34,253.09,208.73,252.89,206.14z"/>
	
		<ellipse transform="matrix(2.787208e-03 -1 1 2.787208e-03 38.4468 432.7515)" class="st21" cx="236.2" cy="197.1" rx="9.52" ry="16.7"/>
	<path id="矩形_00000160192798983169398010000009552095002580747674_" class="st3" d="M226.39,190.96L226.39,190.96
		c0.37,0.21,0.31,0.61-0.13,0.87l-0.75,0.45c-0.44,0.26-1.13,0.3-1.5,0.09l0,0c-0.37-0.21-0.31-0.61,0.13-0.87l0.75-0.45
		C225.36,190.77,226.02,190.75,226.39,190.96z"/>
</g>
<g>
	<path class="st20" d="M252.89,195.15v-9.35H219.5v9.63c0,0.02,0,0.03,0,0.05v0.05h0c0.01,2.41,1.62,4.83,4.84,6.68
		c6.49,3.75,17.07,3.8,23.62,0.11C251.44,200.36,253.09,197.74,252.89,195.15z"/>
	
		<ellipse transform="matrix(2.787208e-03 -1 1 2.787208e-03 49.4351 421.7937)" class="st21" cx="236.2" cy="186.11" rx="9.52" ry="16.7"/>
	<path id="矩形_00000160910207005250087590000003605965237668100535_" class="st5" d="M226.71,179.56L226.71,179.56
		c0.37,0.21,0.31,0.61-0.13,0.87l-0.75,0.45c-0.44,0.26-1.13,0.3-1.5,0.09l0,0c-0.37-0.21-0.31-0.61,0.13-0.87l0.75-0.45
		C225.68,179.38,226.34,179.35,226.71,179.56z"/>
</g>
<g>
	<path class="st20" d="M199.47,240.21v-9.35h-33.39v9.63c0,0.02,0,0.03,0,0.05v0.05h0c0.01,2.41,1.62,4.83,4.84,6.68
		c6.49,3.75,17.07,3.8,23.62,0.11C198.02,245.41,199.66,242.79,199.47,240.21z"/>
	
		<ellipse transform="matrix(2.787208e-03 -1 1 2.787208e-03 -48.8916 413.3036)" class="st21" cx="182.78" cy="231.17" rx="9.52" ry="16.7"/>
	<path id="矩形_00000145780029451649693700000006344502273819292604_" class="st5" d="M173.29,224.62L173.29,224.62
		c0.37,0.21,0.31,0.61-0.13,0.87l-0.75,0.45c-0.44,0.26-1.13,0.3-1.5,0.09l0,0c-0.37-0.21-0.31-0.61,0.13-0.87l0.75-0.45
		C172.26,224.43,172.92,224.41,173.29,224.62z"/>
</g>
<g>
	<path class="st20" d="M208.31,231.26v-9.35h-33.39v9.63c0,0.02,0,0.03,0,0.05v0.05h0c0.01,2.41,1.62,4.83,4.84,6.68
		c6.49,3.75,17.07,3.8,23.62,0.11C206.85,236.46,208.5,233.85,208.31,231.26z"/>
	
		<ellipse transform="matrix(2.787208e-03 -1 1 2.787208e-03 -31.1363 413.2144)" class="st21" cx="191.62" cy="222.22" rx="9.52" ry="16.7"/>
	<path id="矩形_00000080896392502908293660000002527429619867370392_" class="st5" d="M182.12,215.67L182.12,215.67
		c0.37,0.21,0.31,0.61-0.13,0.87l-0.75,0.45c-0.44,0.26-1.13,0.3-1.5,0.09l0,0c-0.37-0.21-0.31-0.61,0.13-0.87l0.75-0.45
		C181.09,215.49,181.75,215.46,182.12,215.67z"/>
</g>
<g>
	<path class="st20" d="M278.28,250.35V241h-33.39v9.63c0,0.02,0,0.03,0,0.05v0.05h0c0.01,2.41,1.62,4.83,4.84,6.68
		c6.49,3.75,17.07,3.8,23.62,0.11C276.83,255.56,278.47,252.94,278.28,250.35z"/>
	
		<ellipse transform="matrix(2.787208e-03 -1 1 2.787208e-03 19.5494 502.2301)" class="st21" cx="261.59" cy="241.31" rx="9.52" ry="16.7"/>
	<path id="矩形_00000135657460400710286420000001295257190125672358_" class="st3" d="M251.78,235.17L251.78,235.17
		c0.37,0.21,0.31,0.61-0.13,0.87l-0.75,0.45c-0.44,0.26-1.13,0.3-1.5,0.09l0,0c-0.37-0.21-0.31-0.61,0.13-0.87l0.75-0.45
		C250.75,234.99,251.41,234.96,251.78,235.17z"/>
</g>
<g>
	<path class="st20" d="M275.36,240.21v-9.35h-33.39v9.63c0,0.02,0,0.03,0,0.05v0.05h0c0.01,2.41,1.62,4.83,4.84,6.68
		c6.49,3.75,17.07,3.8,23.62,0.11C273.91,245.41,275.55,242.79,275.36,240.21z"/>
	
		<ellipse transform="matrix(2.787208e-03 -1 1 2.787208e-03 26.7838 489.1902)" class="st21" cx="258.67" cy="231.17" rx="9.52" ry="16.7"/>
	<path id="矩形_00000094588487777428393690000006351493076985296060_" class="st3" d="M248.86,225.02L248.86,225.02
		c0.37,0.21,0.31,0.61-0.13,0.87l-0.75,0.45c-0.44,0.26-1.13,0.3-1.5,0.09l0,0c-0.37-0.21-0.31-0.61,0.13-0.87l0.75-0.45
		C247.83,224.84,248.49,224.82,248.86,225.02z"/>
</g>
<g>
	<path class="st20" d="M280.83,226.65v-9.35h-33.39v9.63c0,0.02,0,0.03,0,0.05v0.05h0c0.01,2.41,1.62,4.83,4.84,6.68
		c6.49,3.75,17.07,3.8,23.62,0.11C279.38,231.86,281.02,229.24,280.83,226.65z"/>
	
		<ellipse transform="matrix(2.787208e-03 -1 1 2.787208e-03 45.7927 481.1431)" class="st21" cx="264.14" cy="217.61" rx="9.52" ry="16.7"/>
	<path id="矩形_00000090272444425543853390000005812232664490720694_" class="st5" d="M254.64,211.06L254.64,211.06
		c0.37,0.21,0.31,0.61-0.13,0.87l-0.75,0.45c-0.44,0.26-1.13,0.3-1.5,0.09l0,0c-0.37-0.21-0.31-0.61,0.13-0.87l0.75-0.45
		C253.61,210.88,254.27,210.85,254.64,211.06z"/>
</g>
<g>
	<g>
		<polygon class="st2" points="89.42,81.51 73.55,72.34 73.55,11.63 89.42,20.8 		"/>
		<polygon class="st3" points="89.42,81.51 105.3,72.34 105.3,11.63 89.42,20.8 		"/>
		<polygon class="st4" points="89.48,20.85 73.55,11.65 89.37,2.43 105.3,11.63 		"/>
		<path id="矩形_00000050628284492764010560000010803000334009356987_" class="st5" d="M84.48,7.55L84.48,7.55
			c0.31,0.18,0.26,0.52-0.11,0.74l-3.29,1.95c-0.37,0.22-0.96,0.26-1.27,0.08l0,0c-0.31-0.18-0.26-0.52,0.11-0.74l3.29-1.95
			C83.58,7.41,84.17,7.37,84.48,7.55z"/>
		<path id="矩形_00000093884800307578625410000017633317718614226316_" class="st5" d="M78.99,10.73L78.99,10.73
			c0.31,0.18,0.26,0.52-0.11,0.74l-0.64,0.38c-0.37,0.22-0.96,0.26-1.27,0.08l0,0c-0.31-0.18-0.26-0.52,0.11-0.74l0.64-0.38
			C78.12,10.57,78.68,10.55,78.99,10.73z"/>
	</g>
</g>
<g>
	<g>
		<polygon class="st2" points="73.63,90.72 57.75,81.55 57.75,33.94 73.63,43.11 		"/>
		<polygon class="st3" points="73.63,90.72 89.51,81.55 89.51,33.94 73.63,43.11 		"/>
		<polygon class="st4" points="73.69,43.16 57.75,33.96 73.57,24.74 89.51,33.94 		"/>
		<path id="矩形_00000052106225607542375510000004468983143643987073_" class="st5" d="M68.68,29.86L68.68,29.86
			c0.31,0.18,0.26,0.52-0.11,0.74l-3.29,1.95c-0.37,0.22-0.96,0.26-1.27,0.08l0,0c-0.31-0.18-0.26-0.52,0.11-0.74l3.29-1.95
			C67.78,29.72,68.37,29.68,68.68,29.86z"/>
		<path id="矩形_00000114047054216946386800000013572051727938155434_" class="st5" d="M63.2,33.04L63.2,33.04
			c0.31,0.18,0.26,0.52-0.11,0.74l-0.64,0.38c-0.37,0.22-0.96,0.26-1.27,0.08l0,0c-0.31-0.18-0.26-0.52,0.11-0.74l0.64-0.38
			C62.32,32.88,62.88,32.86,63.2,33.04z"/>
	</g>
</g>
<g>
	<g>
		<polygon class="st2" points="57.75,99.93 41.87,90.77 41.87,57.64 57.75,66.81 		"/>
		<polygon class="st3" points="57.75,99.93 73.63,90.77 73.63,57.64 57.75,66.81 		"/>
		<polygon class="st4" points="57.81,66.86 41.87,57.66 57.69,48.44 73.63,57.64 		"/>
		<path id="矩形_00000080181077419638140790000010326659316572517802_" class="st5" d="M52.81,53.56L52.81,53.56
			c0.31,0.18,0.26,0.52-0.11,0.74l-3.29,1.95c-0.37,0.22-0.96,0.26-1.27,0.08l0,0c-0.31-0.18-0.26-0.52,0.11-0.74l3.29-1.95
			C51.91,53.42,52.49,53.38,52.81,53.56z"/>
		<path id="矩形_00000121249377832625801260000006419465891439233698_" class="st5" d="M47.32,56.74L47.32,56.74
			c0.31,0.18,0.26,0.52-0.11,0.74l-0.64,0.38c-0.37,0.22-0.96,0.26-1.27,0.08l0,0c-0.31-0.18-0.26-0.52,0.11-0.74l0.64-0.38
			C46.45,56.59,47.01,56.56,47.32,56.74z"/>
	</g>
</g>
<g>
	<path id="矩形_00000080198672911070731500000009144962691396734142_" class="st14" d="M175.08,178.72L175.08,178.72
		c0.62,0,1.15,0.76,1.15,1.64v1.52c0,0.88-0.53,1.64-1.15,1.64l0,0c-0.62,0-1.15-0.76-1.15-1.64v-1.52
		C173.94,179.41,174.46,178.72,175.08,178.72z"/>
	
		<radialGradient id="SVGID_00000004535084123501451570000004319153946027905198_" cx="143.5403" cy="212.8438" r="29.1582" gradientTransform="matrix(1 0 0 0.5898 0 87.31)" gradientUnits="userSpaceOnUse">
		<stop  offset="0" style="stop-color:#B8B3D4"/>
		<stop  offset="0.3457" style="stop-color:#BAB6D6;stop-opacity:0.6543"/>
		<stop  offset="0.6064" style="stop-color:#C2C0DA;stop-opacity:0.3936"/>
		<stop  offset="0.8384" style="stop-color:#D0D0E3;stop-opacity:0.1616"/>
		<stop  offset="1" style="stop-color:#DDE0EB;stop-opacity:0"/>
	</radialGradient>
	<path style="opacity:0.67;fill:url(#SVGID_00000004535084123501451570000004319153946027905198_);" d="M168.54,198.77
		c-13.68-7.9-35.96-8-49.77-0.23c-13.81,7.77-13.91,20.48-0.23,28.37s35.96,8,49.77,0.23C182.11,219.37,182.22,206.67,168.54,198.77
		z"/>
	<g>
		<path class="st81" d="M182.04,162.74v-49.28c0-0.23,0.02-0.45,0.02-0.68c0-22.91-18.57-41.48-41.48-41.48
			c-22.91,0-41.48,18.57-41.48,41.48c0,0.36,0.02,0.72,0.03,1.07v44.66h-0.03v22.67c0,2.84,2.3,5.15,5.15,5.15
			c2.84,0,5.15-2.31,5.15-5.15v-0.83c0.56,0.36,1.13,0.72,1.74,1.07c1.83,1.06,3.79,1.99,5.85,2.81v8.2c0,2.84,2.3,5.15,5.15,5.15
			c2.84,0,5.15-2.31,5.15-5.15v-5.23c2.95,0.57,5.99,0.96,9.06,1.14v12.59c0,2.84,2.3,5.15,5.15,5.15s5.15-2.31,5.15-5.15v-12.7
			c3.39-0.28,6.73-0.8,9.93-1.55v6.36c0,2.84,2.3,5.15,5.15,5.15s5.15-2.31,5.15-5.15v-9.87c1-0.47,1.97-0.96,2.91-1.49
			c0.7-0.39,1.35-0.8,1.99-1.21v0.71c0,2.84,2.3,5.15,5.15,5.15c2.84,0,5.15-2.31,5.15-5.15v-18.45H182.04z"/>
		
			<radialGradient id="SVGID_00000146494880826786927840000005806466173962080680_" cx="165.263" cy="88.7232" r="106.6854" gradientUnits="userSpaceOnUse">
			<stop  offset="0.0124" style="stop-color:#DD78CE"/>
			<stop  offset="0.4936" style="stop-color:#A7589A"/>
			<stop  offset="0.5829" style="stop-color:#A0619E"/>
			<stop  offset="0.7273" style="stop-color:#8E79A8"/>
			<stop  offset="0.9078" style="stop-color:#709FB9"/>
			<stop  offset="1" style="stop-color:#5EB6C3"/>
		</radialGradient>
		<path style="fill:url(#SVGID_00000146494880826786927840000005806466173962080680_);" d="M182.04,162.74v-49.28
			c0-0.23,0.02-0.45,0.02-0.68c0-22.91-18.57-41.48-41.48-41.48c-22.91,0-41.48,18.57-41.48,41.48c0,0.36,0.02,0.72,0.03,1.07v44.66
			h-0.03v22.67c0,2.84,2.3,5.15,5.15,5.15c2.84,0,5.15-2.31,5.15-5.15v-0.83c0.56,0.36,1.13,0.72,1.74,1.07
			c1.83,1.06,3.79,1.99,5.85,2.81v8.2c0,2.84,2.3,5.15,5.15,5.15c2.84,0,5.15-2.31,5.15-5.15v-5.23c2.95,0.57,5.99,0.96,9.06,1.14
			v12.59c0,2.84,2.3,5.15,5.15,5.15s5.15-2.31,5.15-5.15v-12.7c3.39-0.28,6.73-0.8,9.93-1.55v6.36c0,2.84,2.3,5.15,5.15,5.15
			s5.15-2.31,5.15-5.15v-9.87c1-0.47,1.97-0.96,2.91-1.49c0.7-0.39,1.35-0.8,1.99-1.21v0.71c0,2.84,2.3,5.15,5.15,5.15
			c2.84,0,5.15-2.31,5.15-5.15v-18.45H182.04z"/>
	</g>
	<path id="矩形_00000009577993832786520410000004741999804265594267_" class="st14" d="M102.99,148.9L102.99,148.9
		c1.12,0,2.09,1.38,2.09,2.99v14.25c0,1.61-0.96,2.99-2.09,2.99l0,0c-1.12,0-2.09-1.38-2.09-2.99v-14.25
		C100.9,150.28,101.87,148.9,102.99,148.9z"/>
	<path id="矩形_00000117653864975583597590000013147735453262451348_" class="st14" d="M164.29,85.81L164.29,85.81
		c1.37-1.02,3.68-0.37,5.02,1.41l2.29,3.06c1.34,1.78,1.31,4.19-0.06,5.22l0,0c-1.37,1.02-3.68,0.37-5.02-1.41l-2.29-3.06
		C162.8,89.11,162.92,86.83,164.29,85.81z"/>
	<path id="矩形_00000161593271424074686630000008767343484909863097_" class="st14" d="M120.39,185.49L120.39,185.49
		c1.12,0,2.09,1.38,2.09,2.99v2.76c0,1.61-0.96,2.99-2.09,2.99l0,0c-1.12,0-2.09-1.38-2.09-2.99v-2.76
		C118.3,186.75,119.27,185.49,120.39,185.49z"/>
	<path id="矩形_00000131339354839889590310000007399289035914426520_" class="st14" d="M102.99,174.35L102.99,174.35
		c1.12,0,2.09,1.38,2.09,2.99v2.76c0,1.61-0.96,2.99-2.09,2.99l0,0c-1.12,0-2.09-1.38-2.09-2.99v-2.76
		C100.9,175.61,101.87,174.35,102.99,174.35z"/>
	<path id="矩形_00000066490283200005494220000000739476895474575782_" class="st14" d="M140.58,194.23L140.58,194.23
		c1.12,0,2.09,1.38,2.09,2.99v2.76c0,1.61-0.96,2.99-2.09,2.99l0,0c-1.12,0-2.09-1.38-2.09-2.99v-2.76
		C138.49,195.49,139.45,194.23,140.58,194.23z"/>
	<path id="矩形_00000064337756793364592000000009955471326268657087_" class="st14" d="M160.28,188.88L160.28,188.88
		c0.89,0,1.66,1.1,1.66,2.37v2.19c0,1.28-0.76,2.37-1.66,2.37l0,0c-0.89,0-1.66-1.1-1.66-2.37v-2.19
		C158.62,189.89,159.39,188.88,160.28,188.88z"/>
	
		<ellipse transform="matrix(0.4179 -0.9085 0.9085 0.4179 -28.8714 208.5528)" class="st84" cx="148.3" cy="126.81" rx="11.56" ry="6.81"/>
	
		<ellipse transform="matrix(0.4179 -0.9085 0.9085 0.4179 -8.598 223.9034)" class="st84" cx="170.42" cy="118.66" rx="11.56" ry="6.81"/>
	<g>
		<path id="形状结合_00000140721729316747476390000006428742976885935248_" class="st85" d="M151.21,115.6
			c3.6-1.88,6.46,1.24,6.4,6.88c0,0.2,0,0.4-0.01,0.6l-0.01,0.6c0.06-5.74-2.71-9-6.24-7.16c-3.53,1.84-6.4,7.94-6.46,13.78
			c-0.01,1.11,0.06,2.17,0.28,3.06c-0.38-1.1-0.6-2.49-0.58-4C144.66,123.62,147.6,117.48,151.21,115.6z"/>
		<path id="形状结合_00000171001406955460267760000003418534647951158200_" class="st86" d="M151.22,114.39
			c4-2.08,7.23,1.34,7.17,7.68s-3.41,13.2-7.41,15.28c-4,2.08-7.23-1.34-7.17-7.68C143.88,123.33,147.15,116.52,151.22,114.39z
			 M151.21,115.6c-3.6,1.88-6.55,8.02-6.61,13.66c-0.06,5.64,2.79,8.76,6.4,6.88c3.6-1.88,6.55-8.02,6.61-13.66
			C157.66,116.84,154.73,113.76,151.21,115.6z"/>
		<path id="形状结合_00000082363877333608645560000011415008816906905481_" class="st85" d="M172.94,107.46
			c3.6-1.88,6.46,1.24,6.4,6.88c0,0.2,0,0.4-0.01,0.6l-0.01,0.6c0.06-5.74-2.71-9-6.24-7.16s-6.4,7.94-6.46,13.78
			c-0.01,1.11,0.06,2.17,0.28,3.06c-0.38-1.1-0.6-2.49-0.58-4C166.39,115.48,169.34,109.33,172.94,107.46z"/>
		<path id="形状结合_00000116236492540247572780000004197451041463274683_" class="st86" d="M172.95,106.25
			c4-2.08,7.23,1.34,7.17,7.68c-0.07,6.34-3.41,13.2-7.41,15.28c-4,2.08-7.23-1.34-7.17-7.68S168.88,108.37,172.95,106.25z
			 M172.94,107.46c-3.6,1.88-6.55,8.02-6.61,13.66c-0.06,5.64,2.79,8.76,6.4,6.88c3.6-1.88,6.55-8.02,6.61-13.66
			C179.4,108.7,176.47,105.62,172.94,107.46z"/>
	</g>
	<path id="椭圆形_00000173149670958167321110000000611312061857433482_" class="st83" d="M161.76,144.64
		c2.56-1.41,4.5-5.07,4.5-6.88c0-0.72-0.35-1.18-0.87-0.97c-0.82,0.3-2.04,1.56-3.61,2.42c-1.46,0.8-2.39,0.81-3.5,1.42
		c-1.17,0.64-1.11,2.27-0.94,2.83C157.74,145.04,159.13,146.08,161.76,144.64z"/>
	<path id="椭圆形_00000132788080646300460110000005904832380562797739_" class="st84" d="M163.45,145.43
		c2.62-1.44,4.55-4.89,4.56-6.63c0-0.65-0.35-1.04-0.87-0.82c-0.82,0.3-2.1,1.59-3.67,2.45c-1.52,0.83-2.39,0.81-3.55,1.45
		c-1.17,0.64-1.11,2.2-0.94,2.68C159.38,146,160.83,146.87,163.45,145.43z"/>
	
		<ellipse transform="matrix(0.4179 -0.9085 0.9085 0.4179 -22.1523 211.1814)" class="st83" cx="153.71" cy="122.88" rx="4.69" ry="2.76"/>
	
		<ellipse transform="matrix(0.4179 -0.9085 0.9085 0.4179 -2.0577 225.6792)" class="st83" cx="175.07" cy="114.45" rx="4.69" ry="2.76"/>
</g>
</svg>
