<svg xmlns="http://www.w3.org/2000/svg" xml:space="preserve" width="1300.08" height="1466.64">
  <defs>
    <clipPath id="a" clipPathUnits="userSpaceOnUse">
      <path d="M0 1462.667h1921.333V0H0Z"/>
    </clipPath>
  </defs>
  <g clip-path="url(#a)" transform="matrix(1.33333 0 0 -1.33333 -630.85 1708.445)">
    <path fill="#213147" d="M510.137 946.983V515.774c0-27.53 14.71-52.99 38.54-66.71l373.44-215.65a77.169 77.169 0 0 1 77 0l373.439 215.65c23.83 13.72 38.54 39.18 38.54 66.71v431.21c0 27.53-14.71 52.99-38.54 66.71l-373.44 215.65a77.169 77.169 0 0 1-77 0l-373.53-215.65c-23.83-13.72-38.45-39.18-38.45-66.71Z"/>
    <path fill="#12aaff" d="m1042.086 647.744-53.26-146.05a18.772 18.772 0 0 1 0-12.551l91.62-251.3 105.97 61.2-127.19 348.7c-2.89 8.03-14.26 8.03-17.15 0ZM1148.877 893.364c-2.89 8.03-14.26 8.03-17.15 0l-53.26-146.05a18.77 18.77 0 0 1 0-12.55l150.11-411.44 105.97 61.199-185.68 508.84Z"/>
    <path fill="#9dcced" d="M960.577 1281.333c-14.35 0-28.8-3.7-41.7-11.19l-404.04-233.25c-25.82-14.89-41.7-42.43-41.7-72.21v-466.59c0-29.79 15.89-57.32 41.7-72.21l404.13-233.34c12.91-7.4 27.26-11.19 41.7-11.19 14.439 0 28.8 3.7 41.7 11.19l404.13 233.34c25.82 14.89 41.7 42.43 41.7 72.21v466.59a83.36 83.36 0 0 1-41.7 72.21l-404.22 233.25c-12.91 7.49-27.35 11.19-41.7 11.19m0-68.15c2.62 0 5.24-.72 7.58-1.99l404.13-233.34c4.689-2.71 7.58-7.76 7.58-13.09v-466.59c0-5.42-2.891-10.38-7.58-13.09l-404.13-233.34c-2.26-1.35-4.96-1.99-7.58-1.99s-5.24.72-7.58 1.99l-404.13 233.16c-4.69 2.71-7.58 7.76-7.58 13.09v466.68c0 5.42 2.89 10.38 7.58 13.09l404.13 233.34c2.35 1.35 4.96 2.08 7.58 2.08"/>
    <path fill="#213147" d="m693.297 322.784 37.19 101.819 74.83-62.19-69.96-63.91Z"/>
    <path fill="#fff" d="M926.547 998.073h-102.45c-7.67 0-14.53-4.78-17.15-12.01l-219.62-602.08 105.97-61.2 241.83 663.01c2.26 5.96-2.17 12.28-8.58 12.28ZM1105.817 998.073h-102.45c-7.67 0-14.53-4.78-17.151-12.01l-250.759-687.48 105.969-61.2 272.971 748.41c2.17 5.96-2.261 12.28-8.58 12.28"/>
  </g>
</svg>