<svg xmlns="http://www.w3.org/2000/svg" width="1000" height="1000" fill="none">
  <path fill="#FFEEDA" d="M2.5 2.5h995v995H2.5z"/>
  <path stroke="#101010" stroke-width="5" d="M2.5 2.5h995v995H2.5z"/>
  <path fill="#FFEEDA" d="M750.937 590.197V249.128c-.464-28.539-23.202-51.509-51.741-51.509H343.278c-76.799 1.16-138.516 64.038-138.516 141.068 0 25.987 6.961 48.261 17.633 67.75 9.049 16.242 23.202 31.555 37.124 42.924 3.944 3.248 2.088 1.856 14.153 9.281 16.705 10.209 35.731 15.313 35.731 15.313l-.232 203.946c.464 9.744 1.392 19.025 3.944 27.61 7.889 28.77 27.843 50.812 54.989 61.485 11.369 4.409 24.13 7.425 37.819 7.657l284.225.928c56.613 0 102.553-45.94 102.553-102.785.232-33.643-16.474-63.805-41.764-82.599Z"/>
  <path fill="#EBC28E" d="M757.897 675.348c-1.16 36.427-31.09 65.662-67.75 65.662l-195.592-.696c15.545-18.098 25.058-41.532 25.058-67.054 0-40.139-23.898-67.75-23.898-67.75h194.664c37.356 0 67.75 30.395 67.75 67.75l-.232 2.088Z"/>
  <path fill="#190602" d="M278.08 420.59c-22.506-21.345-38.283-48.956-38.283-81.671v-3.48c1.856-55.917 47.796-100.929 103.713-102.553h355.919c9.28.464 16.705 6.961 16.705 16.474v301.161c8.121 1.393 12.065 2.553 19.954 5.337 6.264 2.32 14.849 7.193 14.849 7.193V249.36c-.464-28.539-23.202-51.509-51.74-51.509H343.278c-76.799 1.16-138.516 64.038-138.516 141.068 0 44.78 20.418 83.063 53.829 109.978 2.32 1.856 4.408 4.176 10.441 4.176 10.44 0 17.865-8.353 17.401-17.401-.232-7.657-3.48-10.441-8.353-15.082Z"/>
  <path fill="#190602" d="M690.148 570.243h-279.12c-18.794.232-33.875 15.313-33.875 34.107v40.139c.464 18.562 16.241 34.34 35.035 34.34h20.65v-34.34h-20.65v-39.211h11.369c35.267 0 61.253 32.715 61.253 67.75 0 31.091-28.306 70.766-75.639 67.518-41.995-2.784-64.733-40.14-64.733-67.518V332.887c0-15.314-12.529-27.843-27.842-27.843h-27.843v34.803h20.65V673.26c-1.16 67.75 48.26 101.857 99.768 101.857l281.209.928c56.613 0 102.553-45.94 102.553-102.785s-46.172-103.017-102.785-103.017Zm67.749 105.105c-1.16 36.427-31.09 65.662-67.75 65.662l-195.592-.696c15.545-18.098 25.058-41.532 25.058-67.054 0-40.139-23.898-67.75-23.898-67.75h194.664c37.356 0 67.75 30.395 67.75 67.75l-.232 2.088ZM614.974 346.112H404.532v-34.803h210.442c9.513 0 17.401 7.657 17.401 17.402 0 9.513-7.656 17.401-17.401 17.401Z"/>
  <path fill="#190602" d="M614.974 509.918H404.532v-34.803h210.442c9.513 0 17.401 7.657 17.401 17.401 0 9.513-7.656 17.402-17.401 17.402ZM652.097 428.015H404.532v-34.803h247.333c9.513 0 17.402 7.657 17.402 17.402.232 9.512-7.657 17.401-17.17 17.401Z"/>
</svg>