<?xml version="1.0" encoding="utf-8"?>
<!-- Generator: Adobe Illustrator 27.8.1, SVG Export Plug-In . SVG Version: 6.00 Build 0)  -->
<svg version="1.1" id="Слой_1" xmlns="http://www.w3.org/2000/svg" xmlns:xlink="http://www.w3.org/1999/xlink" x="0px" y="0px"
	 viewBox="0 0 290 269.62" style="enable-background:new 0 0 290 269.62;" xml:space="preserve">
<style type="text/css">
	.st0{stroke:#000000;stroke-linecap:round;stroke-linejoin:round;stroke-miterlimit:10;}
	.st1{fill:#222846;stroke:#000000;stroke-linecap:round;stroke-linejoin:round;stroke-miterlimit:10;}
	.st2{fill-rule:evenodd;clip-rule:evenodd;stroke:#000000;stroke-linecap:round;stroke-linejoin:round;stroke-miterlimit:10;}
	
		.st3{fill-rule:evenodd;clip-rule:evenodd;fill:#222846;stroke:#000000;stroke-linecap:round;stroke-linejoin:round;stroke-miterlimit:10;}
	
		.st4{fill-rule:evenodd;clip-rule:evenodd;fill:#4A5479;stroke:#000000;stroke-linecap:round;stroke-linejoin:round;stroke-miterlimit:10;}
	.st5{fill-rule:evenodd;clip-rule:evenodd;fill:#5C6A91;}
	.st6{fill:#6D75A2;}
	.st7{stroke:#1A213A;stroke-linecap:round;stroke-linejoin:round;stroke-miterlimit:10;}
	.st8{stroke:#4A5479;stroke-linecap:round;stroke-linejoin:round;stroke-miterlimit:10;}
	.st9{fill:url(#SVGID_1_);}
	.st10{fill:url(#SVGID_00000041996188272874800550000006160867092097817272_);}
	.st11{fill:url(#SVGID_00000065778762046752277510000017293768073924813474_);}
	
		.st12{fill:none;stroke:url(#SVGID_00000023985635532281893370000006128244939488262057_);stroke-width:5;stroke-linecap:round;stroke-linejoin:round;stroke-miterlimit:10;}
	.st13{fill:url(#SVGID_00000056417088296562438760000002305704573843383476_);}
	.st14{fill-rule:evenodd;clip-rule:evenodd;fill:#1AD4B3;}
	.st15{fill-rule:evenodd;clip-rule:evenodd;fill:#FC4F83;}
	.st16{fill:#4A5479;stroke:#000000;stroke-linecap:round;stroke-linejoin:round;stroke-miterlimit:10;}
	
		.st17{fill:url(#SVGID_00000123423393392398800380000012202974840707723423_);stroke:#1D1D1B;stroke-width:0.2115;stroke-linecap:round;stroke-linejoin:round;stroke-miterlimit:10;}
	.st18{fill-rule:evenodd;clip-rule:evenodd;}
	
		.st19{fill:url(#SVGID_00000062886186324644140360000009646011428590848930_);stroke:#1D1D1B;stroke-width:0.2115;stroke-linecap:round;stroke-linejoin:round;stroke-miterlimit:10;}
	
		.st20{fill:url(#SVGID_00000163777465463111575540000002397928347395901362_);stroke:#1D1D1B;stroke-width:0.2115;stroke-linecap:round;stroke-linejoin:round;stroke-miterlimit:10;}
	
		.st21{fill:url(#SVGID_00000134238180890774329510000006111974031460632980_);stroke:#1D1D1B;stroke-width:0.2115;stroke-linecap:round;stroke-linejoin:round;stroke-miterlimit:10;}
	.st22{fill-rule:evenodd;clip-rule:evenodd;fill:url(#SVGID_00000141457737713062637120000008431006617964023212_);}
	.st23{fill-rule:evenodd;clip-rule:evenodd;fill:url(#SVGID_00000018194917224420530280000009181694748694294174_);}
	.st24{fill:url(#SVGID_00000169519887868057301440000005536049626620450448_);}
	.st25{fill:url(#SVGID_00000053511415871251332620000001755416899600604598_);}
	.st26{fill:url(#SVGID_00000088099666656276465240000005905431726961748875_);}
	
		.st27{fill-rule:evenodd;clip-rule:evenodd;fill:#4AA089;stroke:url(#SVGID_00000155136499200670549700000017227944514733536427_);stroke-linecap:round;stroke-linejoin:round;stroke-miterlimit:10;}
	
		.st28{fill-rule:evenodd;clip-rule:evenodd;fill:#4AA089;stroke:url(#SVGID_00000129884065660432540240000000874702970223914390_);stroke-linecap:round;stroke-linejoin:round;stroke-miterlimit:10;}
	
		.st29{fill:none;stroke:url(#SVGID_00000060715300231707490980000009918718847820954045_);stroke-width:5;stroke-linecap:round;stroke-linejoin:round;stroke-miterlimit:10;}
	.st30{fill:url(#SVGID_00000063623610487358004380000014703642846396777382_);}
	
		.st31{fill:none;stroke:url(#SVGID_00000102539469773887986690000006727421485746186426_);stroke-width:5;stroke-linecap:round;stroke-linejoin:round;stroke-miterlimit:10;}
	.st32{fill:url(#SVGID_00000032610539728210091530000011892264671833724048_);}
	
		.st33{fill:none;stroke:url(#SVGID_00000125574996388897029130000013997735293377354145_);stroke-width:5;stroke-linecap:round;stroke-linejoin:round;stroke-miterlimit:10;}
	.st34{fill:url(#SVGID_00000069399419091819544980000000040769608688186275_);}
	.st35{fill:#4A5479;}
	
		.st36{fill-rule:evenodd;clip-rule:evenodd;fill:#1AD4B3;stroke:#111422;stroke-linecap:round;stroke-linejoin:round;stroke-miterlimit:10;}
	
		.st37{fill-rule:evenodd;clip-rule:evenodd;fill:#4AA089;stroke:url(#SVGID_00000025419105932943091610000015091195241299950209_);stroke-linecap:round;stroke-linejoin:round;stroke-miterlimit:10;}
	.st38{fill:#FFFFFF;}
	
		.st39{fill-rule:evenodd;clip-rule:evenodd;fill:#FC4F83;stroke:#111422;stroke-linecap:round;stroke-linejoin:round;stroke-miterlimit:10;}
	
		.st40{fill-rule:evenodd;clip-rule:evenodd;fill:#CB3D61;stroke:#000000;stroke-linecap:round;stroke-linejoin:round;stroke-miterlimit:10;}
	.st41{fill:url(#SVGID_00000088844343985861608550000013586147137124711828_);}
	.st42{fill:url(#SVGID_00000011720815239103059060000001501945834741696899_);}
	.st43{fill:url(#SVGID_00000114758527959427429660000013853389576553869487_);}
	
		.st44{fill:none;stroke:url(#SVGID_00000011000738439335500360000007084139576651793291_);stroke-width:5;stroke-linecap:round;stroke-linejoin:round;stroke-miterlimit:10;}
	.st45{fill:url(#SVGID_00000020366574237417844000000006718944582664106407_);}
	
		.st46{fill:none;stroke:url(#SVGID_00000177456762896527692780000009540681970893177011_);stroke-width:5;stroke-linecap:round;stroke-linejoin:round;stroke-miterlimit:10;}
	.st47{fill:url(#SVGID_00000174560308281701343860000002577082657699497876_);}
	.st48{fill:url(#SVGID_00000088811127852277018030000004131605894336786097_);}
	.st49{fill:#222846;}
	.st50{fill:url(#SVGID_00000134952956233810747820000012207176440691524526_);}
	.st51{fill:url(#SVGID_00000072240463061972788220000010965489865841248190_);}
	.st52{fill:url(#SVGID_00000002382384033124104260000018370430553674278316_);}
	.st53{fill:url(#SVGID_00000049901202519180818330000002816377399715762601_);}
	.st54{fill:url(#SVGID_00000079456726892294943410000005095665970158747553_);}
	.st55{fill:url(#SVGID_00000149356602360190964460000012140286972321004428_);}
	.st56{fill-rule:evenodd;clip-rule:evenodd;fill:#6D75A2;}
	.st57{fill-rule:evenodd;clip-rule:evenodd;fill:#4A5479;}
	.st58{opacity:0.29;fill:url(#SVGID_00000116935097135423896670000009683611915859602323_);enable-background:new    ;}
	.st59{fill:url(#SVGID_00000023263912236147604380000013068688346853046165_);}
	.st60{fill:url(#SVGID_00000175319643296436193620000008780714146455140767_);}
	.st61{fill:url(#SVGID_00000015337307797614564100000004194020266431891352_);}
	.st62{fill-rule:evenodd;clip-rule:evenodd;fill:url(#SVGID_00000149354895829159746540000014266222001615461556_);}
	.st63{fill:url(#SVGID_00000033346840080018734730000001760289756069557922_);}
	.st64{fill:url(#SVGID_00000072243888128025601400000007033701243379062165_);}
	.st65{fill:url(#SVGID_00000109711960137220447580000007223781045902536581_);}
	.st66{fill:url(#SVGID_00000078767049187720055240000013841578114346657453_);}
	.st67{opacity:0.29;fill:url(#SVGID_00000125565435845913317780000013317601107186115207_);enable-background:new    ;}
	.st68{fill-rule:evenodd;clip-rule:evenodd;fill:#222846;}
	
		.st69{fill:none;stroke:url(#SVGID_00000036943410250812519750000007758873168214855337_);stroke-width:5;stroke-linecap:round;stroke-linejoin:round;stroke-miterlimit:10;}
	.st70{fill:url(#SVGID_00000048466224182127045660000000214081148366436002_);}
	
		.st71{fill:none;stroke:url(#SVGID_00000021109048806862583590000003041971302554813599_);stroke-width:5;stroke-linecap:round;stroke-linejoin:round;stroke-miterlimit:10;}
	.st72{fill:url(#SVGID_00000106850680662801888340000006632399201863867550_);}
	
		.st73{fill:none;stroke:url(#SVGID_00000074410232069730807040000017964953662574791349_);stroke-width:5;stroke-linecap:round;stroke-linejoin:round;stroke-miterlimit:10;}
	.st74{fill:url(#SVGID_00000012432388280129343850000013510630631209729426_);}
	
		.st75{fill-rule:evenodd;clip-rule:evenodd;fill:#4AA089;stroke:url(#SVGID_00000158740674164505691840000001265902621435889589_);stroke-linecap:round;stroke-linejoin:round;stroke-miterlimit:10;}
	.st76{fill-rule:evenodd;clip-rule:evenodd;fill:url(#SVGID_00000142156381736549918990000008261342539559999647_);}
	.st77{fill:url(#SVGID_00000154408586878256634250000004057381904293815464_);}
	.st78{fill:url(#SVGID_00000094612803843317145350000010725452356880006067_);}
	.st79{fill:url(#SVGID_00000121251779022912732360000017476580642137968031_);}
	.st80{opacity:0.29;fill:url(#SVGID_00000020387030146647618940000005630274379050800024_);}
	.st81{opacity:0.29;fill:url(#SVGID_00000034064505939451564400000009540997431147186878_);}
	.st82{opacity:0.2563;fill-rule:evenodd;clip-rule:evenodd;fill:#FFFFFF;enable-background:new    ;}
	.st83{opacity:0.67;fill:url(#SVGID_00000073712991064213767680000000565048108447221391_);}
	.st84{fill:#3FA9BD;}
	.st85{fill:url(#SVGID_00000165923929066511293930000017127189898304947589_);}
	.st86{fill-rule:evenodd;clip-rule:evenodd;fill:#555069;}
	.st87{fill-rule:evenodd;clip-rule:evenodd;fill:#FFFFFF;}
	.st88{fill-rule:evenodd;clip-rule:evenodd;fill:#AFAFB1;}
	.st89{fill-rule:evenodd;clip-rule:evenodd;fill:#D3D3D3;}
	.st90{opacity:0.67;fill:url(#SVGID_00000024688076772328568610000004707925248652719272_);}
	.st91{fill:url(#SVGID_00000161601798873197989060000003524690930798865050_);}
	.st92{opacity:0.67;fill:url(#SVGID_00000181080698891989585850000012240222604235724686_);}
	.st93{fill:url(#SVGID_00000052071407614234691810000010499569176303787654_);}
	.st94{opacity:0.67;fill:url(#SVGID_00000093138417747678724260000008451564091945124248_);}
	.st95{fill:url(#SVGID_00000073693689171569228160000001654919653041990532_);}
	.st96{opacity:0.67;fill:url(#SVGID_00000028291409610916368490000016090298281609160114_);}
	.st97{fill:url(#SVGID_00000078750640944447879490000014609161141572888471_);}
	.st98{opacity:0.67;fill:url(#SVGID_00000106828300084676085040000015957415833583368114_);}
	.st99{fill:url(#SVGID_00000008841105086416064410000009007260351813410180_);}
	.st100{fill:#1AD4B3;}
	.st101{opacity:0.67;fill:url(#SVGID_00000024720269394954235900000018236951321542564228_);}
	.st102{fill:url(#SVGID_00000033353028488463758520000000918285295359738754_);}
	.st103{opacity:0.67;fill:url(#SVGID_00000113330472342124112230000011063397512000781493_);}
	.st104{fill:url(#SVGID_00000075846631012556282250000002114351695816066226_);}
	.st105{opacity:0.67;fill:url(#SVGID_00000088854572930752448030000000530157782302330025_);}
	.st106{fill:url(#SVGID_00000145769551663035393930000006490827324125131393_);}
	.st107{opacity:0.67;fill:url(#SVGID_00000157271480672358369950000004678813096925932463_);}
	.st108{fill:url(#SVGID_00000064313406205627728300000006963262763036850329_);}
	.st109{opacity:0.67;fill:url(#SVGID_00000037654212253985896780000002430845380420871046_);}
	.st110{fill:url(#SVGID_00000169541921055140078230000002836566724587376001_);}
	.st111{opacity:0.67;fill:url(#SVGID_00000171001215450060418010000009266167673768237744_);}
	.st112{fill:url(#SVGID_00000008839667662796394280000009334092147670389664_);}
	
		.st113{fill-rule:evenodd;clip-rule:evenodd;fill:none;stroke:#FFFFFF;stroke-width:0.7384;stroke-linecap:round;stroke-linejoin:round;stroke-miterlimit:10;}
	.st114{opacity:0.67;fill:url(#SVGID_00000141451887749716289150000007932132559761755327_);}
	.st115{fill:url(#SVGID_00000157268991310400887060000001173558756032613007_);}
	.st116{opacity:0.67;fill:url(#SVGID_00000154393137677016229900000016622966185235033238_);}
	.st117{fill:url(#SVGID_00000126282185664882177860000007003715775081313665_);}
	.st118{opacity:0.67;fill:url(#SVGID_00000104695025908846114350000006849078603206223510_);}
	.st119{fill:url(#SVGID_00000025405388504627804450000017392626885343883927_);}
	.st120{opacity:0.67;fill:url(#SVGID_00000016063866842406289380000004270540256361746078_);}
	.st121{fill:url(#SVGID_00000072254340001015718000000003897458838424944013_);}
	.st122{opacity:0.67;fill:url(#SVGID_00000127038491361452150080000005561831082856980877_);}
	.st123{fill:url(#SVGID_00000013156898555950797110000003221624881342128541_);}
	.st124{opacity:0.67;fill:url(#SVGID_00000168079421632256319650000013095746079188814526_);}
	.st125{fill:url(#SVGID_00000135678824599321236460000002079545194003903131_);}
	.st126{opacity:0.67;fill:url(#SVGID_00000070105884092363692160000007808860669647369383_);}
	.st127{fill:url(#SVGID_00000178883242432509943940000010533576412254588547_);}
	.st128{opacity:0.67;fill:url(#SVGID_00000006672731158965739960000003671296864679515778_);}
	.st129{fill:url(#SVGID_00000108306243366489104690000006700305835389176460_);}
	.st130{opacity:0.67;fill:url(#SVGID_00000014625631080413784150000003146901788011463848_);enable-background:new    ;}
	.st131{fill:#5EA6B9;}
	.st132{fill:url(#SVGID_00000103239290903212444360000007345640063628683147_);}
	.st133{fill-rule:evenodd;clip-rule:evenodd;fill:#545067;}
	.st134{fill-rule:evenodd;clip-rule:evenodd;fill:#AEAEB0;}
	.st135{fill-rule:evenodd;clip-rule:evenodd;fill:#D2D2D2;}
	.st136{opacity:0.67;fill:url(#SVGID_00000039847591794543619670000017109996880840089518_);enable-background:new    ;}
	.st137{fill:url(#SVGID_00000025422279101872792780000007242075332592610183_);}
	.st138{fill-rule:evenodd;clip-rule:evenodd;fill:#63D0B3;}
	
		.st139{fill-rule:evenodd;clip-rule:evenodd;fill:none;stroke:#000000;stroke-linecap:round;stroke-linejoin:round;stroke-miterlimit:10;}
	.st140{fill-rule:evenodd;clip-rule:evenodd;fill:#E85C83;}
	
		.st141{fill-rule:evenodd;clip-rule:evenodd;fill:#4AA089;stroke:url(#SVGID_00000000908370895073907550000006646669373495548819_);stroke-linecap:round;stroke-linejoin:round;stroke-miterlimit:10;}
	.st142{fill:#5DC29D;}
	.st143{fill:url(#SVGID_00000050649171813303382660000003006671591197238152_);}
	.st144{fill:url(#SVGID_00000181793335877542090870000013198970924241333412_);}
	.st145{fill:#E85C83;}
	.st146{opacity:0.67;fill:url(#SVGID_00000183217670788371992810000017920506319868799650_);enable-background:new    ;}
	.st147{fill:url(#SVGID_00000133528302066840373870000008889396086007714227_);}
	
		.st148{fill:none;stroke:url(#SVGID_00000026879730321509330340000000781215596414451381_);stroke-width:5;stroke-linecap:round;stroke-linejoin:round;stroke-miterlimit:10;}
	.st149{fill:url(#SVGID_00000030469566624283240940000000253083809450051766_);}
	.st150{opacity:0.67;fill:url(#SVGID_00000106105102528914747350000017688914702885942445_);enable-background:new    ;}
	.st151{fill:url(#SVGID_00000118397654384688802270000003571673812502794143_);}
	.st152{opacity:0.67;fill:url(#SVGID_00000098919137686876703700000015272520247699716238_);}
	.st153{fill:url(#SVGID_00000128485885188765899220000002375113023806629274_);}
	.st154{opacity:0.67;fill:url(#SVGID_00000113347457829371205940000005008644995827803796_);}
	.st155{fill:url(#SVGID_00000155848474014682348670000007676760532832243891_);}
	.st156{opacity:0.67;fill:url(#SVGID_00000135675451693640380290000003314905471076593853_);}
	.st157{fill:url(#SVGID_00000089533093010216434210000011523518202147901073_);}
	.st158{opacity:0.67;fill:url(#SVGID_00000016073280168969859650000016133376905288981667_);}
	.st159{fill:url(#SVGID_00000034074752115451109700000010375852771380534926_);}
	.st160{opacity:0.67;fill:url(#SVGID_00000001630730410302008640000001960649333848491668_);}
	.st161{fill:url(#SVGID_00000055703803604664480860000015586665387540875651_);}
	.st162{fill:none;stroke:#000000;stroke-width:22;stroke-linecap:round;stroke-linejoin:round;stroke-miterlimit:10;}
	.st163{fill:url(#SVGID_00000096031404224899068440000006405309307048378498_);}
	.st164{fill:url(#SVGID_00000111183891187487570960000009734440959374999741_);}
	.st165{fill:none;stroke:url(#SVGID_00000013193814441103151830000018032188262027004317_);stroke-width:5;stroke-miterlimit:10;}
	.st166{fill:url(#SVGID_00000181076321485410991020000007622957087601555345_);}
	.st167{fill:none;}
	.st168{opacity:0.67;fill:url(#SVGID_00000019641315150960565390000005353071948162695571_);}
	.st169{fill:url(#SVGID_00000101091846245167228920000012511191045874113926_);}
	.st170{fill:none;stroke:url(#SVGID_00000085971763675973996230000006423410140953983149_);stroke-width:5;stroke-miterlimit:10;}
	.st171{fill:url(#SVGID_00000107582187201826458460000009888712359621632956_);}
	.st172{opacity:0.67;fill:url(#SVGID_00000127761980628165616770000004761884612717968000_);}
	.st173{fill:url(#SVGID_00000136376911879210074350000015373425645768660106_);}
	.st174{opacity:0.67;fill:url(#SVGID_00000038376927553538811690000010712777458111133090_);}
	.st175{fill:url(#SVGID_00000134946493204848684180000001220924779682840710_);}
	.st176{opacity:0.67;fill:url(#SVGID_00000070813957826335376820000003861022803682359687_);}
	.st177{fill:url(#SVGID_00000168802341406800485910000014378068610427347615_);}
</style>
<g>
	<g>
		<polygon class="st0" points="35.08,119.62 12.51,107.33 12.51,73.21 140.19,5.29 162.59,14.52 159.41,36.51 166.42,45.07 
			158.86,49.35 151.41,44.76 145.01,57.22 140.08,54.25 123.11,69.65 114.25,64.17 106.65,78.99 97.58,73.67 91.1,87.82 81,79.84 
			74.94,92.21 61.49,100.1 52.42,93.92 39.82,103.28 42.03,115.68 		"/>
		<path class="st1" d="M82.99,74.58c0,3.97-0.56,7.64-1.66,10.99c-1.11,3.35-2.61,6.27-4.49,8.74c-1.88,2.47-3.98,4.36-6.3,5.68
			c-2.33,1.32-4.44,1.82-6.32,1.47s-3.37-1.56-4.48-3.66c-1.1-2.1-1.66-5.12-1.66-9.07c0-3.97,0.55-7.63,1.66-10.99
			c1.1-3.35,2.6-6.26,4.48-8.73c1.88-2.47,3.99-4.36,6.32-5.69c2.32-1.32,4.42-1.81,6.3-1.48c1.88,0.33,3.38,1.54,4.49,3.64
			C82.44,67.57,82.99,70.6,82.99,74.58z M75.84,78.64c0-2.14-0.2-3.83-0.61-5.07c-0.4-1.24-1-2.01-1.79-2.33
			c-0.79-0.31-1.76-0.14-2.91,0.51c-1.15,0.65-2.12,1.58-2.91,2.79c-0.79,1.21-1.38,2.66-1.79,4.36c-0.4,1.7-0.61,3.62-0.61,5.76
			c0,2.14,0.2,3.83,0.61,5.07c0.4,1.24,1,2.02,1.79,2.33c0.79,0.31,1.76,0.14,2.91-0.51c1.15-0.65,2.12-1.58,2.91-2.79
			c0.79-1.21,1.38-2.66,1.79-4.36C75.64,82.7,75.84,80.78,75.84,78.64z"/>
		<path class="st1" d="M91.1,87.82l-7.55-31.4l7.75-4.4l3.5,19.97l0.2-0.11l4.15-24.32l6.1-3.46l4.15,19.67l0.2-0.11l3.5-24.01
			l7.75-4.4l-7.55,39.98l-6.65,3.78l-4.35-17.47l-0.2,0.11l-4.35,22.41L91.1,87.82z"/>
		<path class="st1" d="M123.11,69.65V33.96l18.45-10.48v7.81l-11.5,6.53v6.14l10.55-5.99v7.81l-10.55,5.99v6.13l11.45-6.5v7.81
			L123.11,69.65z"/>
		<path class="st1" d="M51.12,76.39c-1.43-0.24-3.09,0.19-4.99,1.26l-11.05,6.28v35.69l6.95-3.95v-10.6l3.85-2.18
			c1.95-1.11,3.66-2.58,5.12-4.42c1.46-1.84,2.6-3.93,3.41-6.26c0.81-2.33,1.22-4.78,1.22-7.33c0-2.53-0.4-4.52-1.19-5.97
			C53.66,77.47,52.55,76.63,51.12,76.39z M47.92,91.89c-0.31,0.92-0.76,1.75-1.34,2.48C46,95.1,45.3,95.7,44.48,96.16l-2.45,1.39
			v-9.83l2.45-1.39c0.82-0.46,1.52-0.67,2.09-0.6c0.58,0.06,1.03,0.36,1.34,0.91c0.31,0.55,0.47,1.33,0.47,2.36
			C48.38,90.01,48.23,90.97,47.92,91.89z"/>
		<path class="st1" d="M158.86,49.35l7.55-4.29l-5.21-10.37c1.33-1.64,2.38-3.48,3.14-5.55c0.81-2.22,1.22-4.6,1.22-7.16
			c0-2.53-0.4-4.48-1.19-5.84c-0.79-1.36-1.9-2.12-3.33-2.28s-3.09,0.31-4.99,1.39l-11.05,6.27v35.69l6.95-3.95V41.49l2.41-1.37
			L158.86,49.35z M151.96,25.32l2.45-1.39c0.82-0.46,1.52-0.71,2.09-0.73c0.58-0.02,1.03,0.2,1.34,0.67
			c0.31,0.47,0.47,1.21,0.47,2.24c0,1.01-0.16,1.92-0.47,2.72c-0.31,0.81-0.76,1.51-1.34,2.13c-0.58,0.61-1.28,1.16-2.09,1.62
			l-2.45,1.39V25.32z"/>
	</g>
	<polygon class="st16" points="12.51,73.21 35.08,83.93 158.31,14.23 161.05,13.87 140.19,5.29 	"/>
</g>
<g>
	<g>
		<g>
			<g>
				<polygon class="st3" points="259.79,144.67 165.56,90.35 165.56,55.96 259.79,110.28 				"/>
				<polygon class="st2" points="259.79,144.67 277.04,135.63 277.04,101.24 259.79,110.28 				"/>
				<polygon class="st4" points="259.91,110.38 165.56,55.99 182.69,46.84 277.05,101.23 				"/>
			</g>
		</g>
	</g>
	<g>
		<g>
			<path class="st6" d="M172.08,84.42V67.11l5.4,3.05c1.04,0.59,1.92,1.34,2.65,2.25c0.73,0.91,1.29,1.92,1.68,3.02
				c0.39,1.1,0.58,2.22,0.58,3.37c0,1.15-0.2,2.05-0.59,2.71c-0.39,0.66-0.96,1.02-1.7,1.09c-0.74,0.07-1.64-0.19-2.69-0.78
				l-3.44-1.95v-2.93l2.98,1.68c0.56,0.31,1.02,0.45,1.38,0.41c0.36-0.04,0.64-0.23,0.82-0.56c0.18-0.34,0.27-0.79,0.27-1.35
				c0-0.58-0.09-1.13-0.27-1.66c-0.18-0.53-0.45-1.02-0.82-1.47c-0.37-0.45-0.83-0.83-1.39-1.15l-1.95-1.1v14.32L172.08,84.42z"/>
			<path class="st6" d="M184.23,91.28V78.3l2.76,1.56v2.26l0.11,0.06c0.19-0.7,0.5-1.13,0.94-1.3c0.44-0.16,0.95-0.09,1.52,0.24
				c0.14,0.08,0.3,0.18,0.46,0.29c0.17,0.12,0.31,0.23,0.44,0.34v3.19c-0.13-0.13-0.32-0.28-0.56-0.45
				c-0.24-0.17-0.45-0.32-0.65-0.43c-0.42-0.24-0.79-0.33-1.12-0.29c-0.33,0.04-0.59,0.21-0.78,0.51c-0.19,0.3-0.28,0.71-0.28,1.24
				v7.34L184.23,91.28z"/>
			<path class="st6" d="M196.09,98.23c-1.04-0.59-1.94-1.37-2.69-2.36c-0.76-0.99-1.34-2.1-1.75-3.34
				c-0.41-1.24-0.61-2.52-0.61-3.85c0-1.34,0.2-2.4,0.61-3.17c0.41-0.77,0.99-1.23,1.75-1.36c0.76-0.13,1.65,0.09,2.69,0.68
				c1.04,0.59,1.94,1.38,2.69,2.36c0.76,0.99,1.34,2.1,1.75,3.34c0.41,1.24,0.62,2.53,0.62,3.87c0,1.33-0.2,2.38-0.62,3.15
				c-0.41,0.77-0.99,1.23-1.75,1.36C198.03,99.05,197.13,98.82,196.09,98.23z M196.1,95.45c0.47,0.27,0.87,0.32,1.18,0.16
				c0.32-0.16,0.56-0.49,0.72-0.99c0.16-0.5,0.24-1.13,0.24-1.88s-0.08-1.47-0.24-2.16c-0.16-0.68-0.4-1.29-0.72-1.81
				c-0.32-0.52-0.71-0.92-1.18-1.18c-0.48-0.27-0.88-0.32-1.2-0.16c-0.32,0.16-0.57,0.49-0.73,0.99s-0.24,1.13-0.24,1.88
				c0,0.76,0.08,1.47,0.24,2.16c0.16,0.68,0.41,1.29,0.73,1.81C195.23,94.79,195.63,95.18,196.1,95.45z"/>
			<path class="st6" d="M203.01,106.76V88.91l2.81,1.59v2.18l0.13,0.07c0.12-0.28,0.31-0.53,0.54-0.76
				c0.24-0.23,0.55-0.36,0.94-0.38c0.39-0.03,0.87,0.12,1.44,0.45c0.75,0.42,1.44,1.06,2.07,1.91c0.63,0.85,1.14,1.88,1.52,3.08
				c0.38,1.2,0.57,2.55,0.57,4.04c0,1.45-0.18,2.56-0.55,3.35c-0.37,0.79-0.87,1.26-1.5,1.41c-0.63,0.15-1.34,0.01-2.12-0.43
				c-0.55-0.31-1.02-0.69-1.41-1.14c-0.39-0.45-0.7-0.92-0.95-1.41c-0.24-0.49-0.43-0.95-0.56-1.39l-0.09-0.05v6.95L203.01,106.76z
				 M205.79,96.97c0,0.77,0.08,1.49,0.25,2.16c0.17,0.67,0.41,1.26,0.74,1.75c0.32,0.5,0.71,0.88,1.17,1.14
				c0.46,0.26,0.86,0.32,1.18,0.18c0.32-0.14,0.56-0.46,0.73-0.94c0.17-0.48,0.25-1.1,0.25-1.86c0-0.75-0.08-1.45-0.25-2.12
				c-0.17-0.66-0.41-1.25-0.73-1.75c-0.32-0.5-0.72-0.89-1.18-1.15c-0.46-0.26-0.86-0.33-1.17-0.2c-0.32,0.13-0.56,0.43-0.73,0.9
				C205.88,95.58,205.79,96.2,205.79,96.97z"/>
			<path class="st6" d="M219.56,111.49c-1.04-0.59-1.94-1.37-2.69-2.36c-0.76-0.99-1.34-2.1-1.75-3.34
				c-0.41-1.24-0.61-2.52-0.61-3.85c0-1.34,0.2-2.4,0.61-3.17s0.99-1.23,1.75-1.36c0.76-0.13,1.65,0.09,2.69,0.68
				c1.04,0.59,1.94,1.38,2.69,2.36c0.76,0.99,1.34,2.1,1.75,3.34c0.41,1.24,0.62,2.53,0.62,3.87c0,1.33-0.2,2.38-0.62,3.15
				c-0.41,0.77-0.99,1.23-1.75,1.36C221.5,112.31,220.6,112.08,219.56,111.49z M219.57,108.71c0.47,0.27,0.87,0.32,1.18,0.16
				c0.32-0.16,0.56-0.49,0.72-0.99s0.24-1.13,0.24-1.88s-0.08-1.47-0.24-2.16c-0.16-0.68-0.4-1.29-0.72-1.81
				c-0.32-0.52-0.71-0.92-1.18-1.18c-0.48-0.27-0.88-0.32-1.2-0.16c-0.32,0.16-0.57,0.49-0.73,0.99c-0.16,0.5-0.24,1.13-0.24,1.88
				c0,0.76,0.08,1.47,0.24,2.16c0.16,0.68,0.41,1.29,0.73,1.81C218.69,108.05,219.09,108.44,219.57,108.71z"/>
			<path class="st6" d="M235.02,110.7l-2.61-1.27c-0.04-0.31-0.14-0.62-0.29-0.93c-0.15-0.31-0.34-0.6-0.58-0.88
				c-0.24-0.27-0.52-0.5-0.85-0.69c-0.44-0.25-0.81-0.34-1.12-0.28c-0.3,0.06-0.45,0.29-0.45,0.68c0,0.31,0.1,0.63,0.29,0.95
				c0.2,0.33,0.53,0.69,1.01,1.08l1.86,1.52c1,0.82,1.74,1.66,2.23,2.51c0.49,0.85,0.74,1.75,0.74,2.68c0,0.85-0.2,1.48-0.59,1.9
				c-0.39,0.42-0.93,0.61-1.62,0.59c-0.69-0.03-1.47-0.3-2.36-0.8c-1.36-0.77-2.44-1.74-3.25-2.91c-0.8-1.17-1.28-2.42-1.41-3.74
				l2.8,1.4c0.08,0.57,0.29,1.09,0.61,1.54c0.33,0.46,0.74,0.83,1.25,1.12c0.5,0.28,0.9,0.39,1.21,0.31c0.3-0.07,0.46-0.3,0.46-0.69
				c0-0.33-0.11-0.66-0.33-0.99c-0.21-0.33-0.54-0.68-0.99-1.04l-1.78-1.45c-1-0.82-1.75-1.68-2.24-2.58
				c-0.49-0.9-0.73-1.84-0.73-2.8c0-0.83,0.18-1.45,0.54-1.85c0.36-0.4,0.86-0.58,1.52-0.54c0.65,0.04,1.42,0.31,2.3,0.81
				c1.3,0.73,2.32,1.66,3.07,2.77C234.46,108.24,234.9,109.43,235.02,110.7z"/>
			<path class="st6" d="M239.99,123.03c-0.66-0.37-1.24-0.85-1.75-1.43c-0.51-0.58-0.92-1.24-1.21-1.98
				c-0.3-0.74-0.44-1.54-0.44-2.39c0-0.72,0.1-1.27,0.31-1.64c0.21-0.37,0.49-0.6,0.86-0.7c0.36-0.09,0.77-0.09,1.24,0.02
				c0.46,0.11,0.95,0.28,1.45,0.5c0.6,0.26,1.08,0.46,1.44,0.59c0.36,0.14,0.63,0.18,0.8,0.13c0.17-0.05,0.25-0.21,0.25-0.49v-0.05
				c0-0.53-0.13-1.02-0.4-1.47c-0.27-0.44-0.64-0.8-1.13-1.08c-0.51-0.29-0.92-0.38-1.22-0.26c-0.3,0.11-0.5,0.36-0.6,0.73
				l-2.64-1.76c0.13-0.71,0.4-1.25,0.79-1.6c0.39-0.36,0.9-0.51,1.52-0.48c0.62,0.04,1.34,0.29,2.16,0.75
				c0.57,0.32,1.12,0.72,1.64,1.18c0.52,0.46,0.99,0.99,1.4,1.57c0.41,0.59,0.73,1.22,0.97,1.91c0.24,0.69,0.35,1.42,0.35,2.19v8.75
				l-2.7-1.53v-1.8l-0.08-0.05c-0.17,0.31-0.39,0.54-0.66,0.69c-0.28,0.15-0.61,0.2-1,0.16
				C240.94,123.48,240.49,123.31,239.99,123.03z M240.8,121c0.42,0.24,0.79,0.34,1.11,0.31c0.32-0.03,0.57-0.17,0.76-0.43
				c0.18-0.26,0.27-0.61,0.27-1.07v-1.38c-0.09,0.02-0.21,0.02-0.36-0.01c-0.15-0.03-0.33-0.07-0.52-0.13
				c-0.19-0.06-0.38-0.13-0.58-0.2c-0.19-0.07-0.37-0.14-0.52-0.2c-0.33-0.13-0.63-0.19-0.88-0.2c-0.25-0.01-0.44,0.07-0.58,0.22
				c-0.14,0.15-0.21,0.39-0.21,0.73c0,0.49,0.14,0.94,0.43,1.36C240,120.42,240.36,120.75,240.8,121z"/>
			<path class="st6" d="M250.83,111.6v17.31l-2.85-1.61v-17.31L250.83,111.6z"/>
		</g>
	</g>
</g>
<g>
	<g>
		<polygon class="st2" points="52.37,254.59 17.97,234.73 17.97,200.34 52.37,220.2 		"/>
		<polygon class="st3" points="52.37,254.59 86.76,234.73 86.76,200.34 52.37,220.2 		"/>
		<polygon class="st4" points="52.49,220.3 17.97,200.38 52.24,180.41 86.76,200.34 		"/>
		<path id="矩形_00000062193488453707849460000011629249250642820777_" class="st5" d="M41.28,191.96L41.28,191.96
			c0.68,0.38,0.56,1.12-0.24,1.6l-7.14,4.22c-0.81,0.48-2.08,0.56-2.75,0.17l0,0c-0.68-0.38-0.56-1.12,0.24-1.6l7.14-4.22
			C39.34,191.66,40.61,191.58,41.28,191.96z"/>
		<path id="矩形_00000168831383005071935920000010126382125523481513_" class="st5" d="M29.4,198.86L29.4,198.86
			c0.68,0.38,0.56,1.12-0.24,1.6l-1.38,0.82c-0.81,0.48-2.08,0.56-2.75,0.17l0,0c-0.68-0.38-0.56-1.12,0.24-1.6l1.38-0.82
			C27.51,198.52,28.72,198.48,29.4,198.86z"/>
	</g>
</g>
<g>
	<g>
		<polygon class="st2" points="48.32,207.58 23.69,193.36 23.69,168.73 48.32,182.95 		"/>
		<polygon class="st3" points="48.32,207.58 72.95,193.36 72.95,168.73 48.32,182.95 		"/>
		<polygon class="st4" points="48.41,183.03 23.69,168.76 48.23,154.46 72.95,168.73 		"/>
		<path id="矩形_00000029737896903738328960000011706632617235280803_" class="st5" d="M40.48,162.62L40.48,162.62
			c0.48,0.28,0.4,0.8-0.17,1.15l-5.11,3.03c-0.58,0.34-1.49,0.4-1.97,0.12l0,0c-0.48-0.28-0.4-0.8,0.17-1.15l5.11-3.03
			C39.08,162.4,39.99,162.34,40.48,162.62z"/>
		<path id="矩形_00000044892328560733399200000011841837859248882821_" class="st5" d="M31.96,167.56L31.96,167.56
			c0.48,0.28,0.4,0.8-0.17,1.15l-0.99,0.59c-0.58,0.34-1.49,0.4-1.97,0.12l0,0c-0.48-0.28-0.4-0.8,0.17-1.15l0.99-0.59
			C30.61,167.31,31.48,167.28,31.96,167.56z"/>
	</g>
</g>
<g>
	<g>
		<polygon class="st2" points="101.78,259.96 77.15,245.74 77.15,221.11 101.78,235.33 		"/>
		<polygon class="st3" points="101.78,259.96 126.41,245.74 126.41,221.11 101.78,235.33 		"/>
		<polygon class="st4" points="101.87,235.4 77.15,221.13 101.69,206.83 126.41,221.1 		"/>
		<path id="矩形_00000088855608494952398400000002311391179745583034_" class="st5" d="M93.93,214.99L93.93,214.99
			c0.48,0.28,0.4,0.8-0.17,1.15l-5.11,3.03c-0.58,0.34-1.49,0.4-1.97,0.12l0,0c-0.48-0.28-0.4-0.8,0.17-1.15l5.11-3.03
			C92.54,214.77,93.45,214.72,93.93,214.99z"/>
		<path id="矩形_00000026872475116352295180000014355490184569024951_" class="st5" d="M85.42,219.93L85.42,219.93
			c0.48,0.28,0.4,0.8-0.17,1.15l-0.99,0.59c-0.58,0.34-1.49,0.4-1.97,0.12l0,0c-0.48-0.28-0.4-0.8,0.17-1.15l0.99-0.59
			C84.07,219.69,84.94,219.66,85.42,219.93z"/>
	</g>
</g>
<g>
	<g>
		<polygon class="st2" points="216.96,206.97 192.33,192.75 192.33,168.12 216.96,182.34 		"/>
		<polygon class="st3" points="216.96,206.97 241.59,192.75 241.59,168.12 216.96,182.34 		"/>
		<polygon class="st4" points="217.05,182.42 192.33,168.14 216.87,153.85 241.59,168.12 		"/>
		<path id="矩形_00000016793934877494626370000010979423684722922918_" class="st3" d="M208.8,162.41L208.8,162.41
			c0.48,0.28,0.4,0.8-0.17,1.15l-5.11,3.03c-0.58,0.34-1.49,0.4-1.97,0.12l0,0c-0.48-0.28-0.4-0.8,0.17-1.15l5.11-3.03
			C207.4,162.19,208.31,162.14,208.8,162.41z"/>
		<path id="矩形_00000002377005516393720360000012452935165688563900_" class="st3" d="M200.29,167.35L200.29,167.35
			c0.48,0.28,0.4,0.8-0.17,1.15l-0.99,0.59c-0.58,0.34-1.49,0.4-1.97,0.12l0,0c-0.48-0.28-0.4-0.8,0.17-1.15l0.99-0.59
			C198.93,167.11,199.8,167.08,200.29,167.35z"/>
	</g>
</g>
<g>
	<g>
		<polygon class="st2" points="208.99,178.96 184.36,164.74 184.36,140.11 208.99,154.33 		"/>
		<polygon class="st3" points="208.99,178.96 233.62,164.74 233.62,140.11 208.99,154.33 		"/>
		<polygon class="st4" points="209.08,154.4 184.36,140.13 208.9,125.83 233.62,140.11 		"/>
		<path id="矩形_00000056408653773368098780000010049657871872445071_" class="st5" d="M201.14,133.99L201.14,133.99
			c0.48,0.28,0.4,0.8-0.17,1.15l-5.11,3.03c-0.58,0.34-1.49,0.4-1.97,0.12l0,0c-0.48-0.28-0.4-0.8,0.17-1.15l5.11-3.03
			C199.75,133.78,200.66,133.72,201.14,133.99z"/>
		<path id="矩形_00000174590037673770117120000007064794268084279994_" class="st5" d="M192.63,138.93L192.63,138.93
			c0.48,0.28,0.4,0.8-0.17,1.15l-0.99,0.59c-0.58,0.34-1.49,0.4-1.97,0.12l0,0c-0.48-0.28-0.4-0.8,0.17-1.15l0.99-0.59
			C191.28,138.69,192.14,138.66,192.63,138.93z"/>
	</g>
</g>
<g>
	<g>
		<path id="矩形_00000111165066186619097810000014031179276451376801_" class="st82" d="M171.78,193.2L171.78,193.2
			c0.62,0,1.15,0.76,1.15,1.64v1.52c0,0.88-0.53,1.64-1.15,1.64l0,0c-0.62,0-1.15-0.76-1.15-1.64v-1.52
			C170.64,193.89,171.17,193.2,171.78,193.2z"/>
		
			<radialGradient id="SVGID_1_" cx="140.2418" cy="227.3224" r="29.1582" gradientTransform="matrix(1 0 0 0.5898 0 93.2492)" gradientUnits="userSpaceOnUse">
			<stop  offset="0" style="stop-color:#06070C"/>
			<stop  offset="1" style="stop-color:#0D101D;stop-opacity:0"/>
		</radialGradient>
		<path style="opacity:0.67;fill:url(#SVGID_1_);" d="M165.24,213.25c-13.68-7.9-35.96-8-49.77-0.23
			c-13.81,7.77-13.91,20.48-0.23,28.37c13.68,7.9,35.96,8,49.77,0.23C178.82,233.85,178.92,221.15,165.24,213.25z"/>
		<g>
			<path class="st84" d="M178.74,177.22v-49.28c0-0.23,0.02-0.45,0.02-0.68c0-22.91-18.57-41.48-41.48-41.48
				c-22.91,0-41.48,18.57-41.48,41.48c0,0.36,0.02,0.72,0.03,1.07V173H95.8v22.67c0,2.84,2.3,5.15,5.15,5.15
				c2.84,0,5.15-2.31,5.15-5.15v-0.83c0.56,0.36,1.13,0.72,1.74,1.07c1.83,1.06,3.79,1.99,5.85,2.81v8.2c0,2.84,2.3,5.15,5.15,5.15
				s5.15-2.31,5.15-5.15v-5.23c2.95,0.57,5.99,0.96,9.06,1.14v12.59c0,2.84,2.3,5.15,5.15,5.15c2.84,0,5.15-2.31,5.15-5.15v-12.7
				c3.39-0.28,6.73-0.8,9.93-1.55v6.36c0,2.84,2.3,5.15,5.15,5.15c2.84,0,5.15-2.31,5.15-5.15v-9.87c1-0.47,1.97-0.96,2.91-1.49
				c0.7-0.39,1.35-0.8,1.99-1.21v0.71c0,2.84,2.3,5.15,5.15,5.15s5.15-2.31,5.15-5.15v-18.45H178.74z"/>
			
				<radialGradient id="SVGID_00000173152964905546385690000018030729149741465742_" cx="161.9645" cy="103.2018" r="106.6854" gradientUnits="userSpaceOnUse">
				<stop  offset="0.0124" style="stop-color:#DD78CE"/>
				<stop  offset="0.4936" style="stop-color:#A7589A"/>
				<stop  offset="0.5829" style="stop-color:#A0619E"/>
				<stop  offset="0.7273" style="stop-color:#8E79A8"/>
				<stop  offset="0.9078" style="stop-color:#709FB9"/>
				<stop  offset="1" style="stop-color:#5EB6C3"/>
			</radialGradient>
			<path style="fill:url(#SVGID_00000173152964905546385690000018030729149741465742_);" d="M178.74,177.22v-49.28
				c0-0.23,0.02-0.45,0.02-0.68c0-22.91-18.57-41.48-41.48-41.48c-22.91,0-41.48,18.57-41.48,41.48c0,0.36,0.02,0.72,0.03,1.07V173
				H95.8v22.67c0,2.84,2.3,5.15,5.15,5.15c2.84,0,5.15-2.31,5.15-5.15v-0.83c0.56,0.36,1.13,0.72,1.74,1.07
				c1.83,1.06,3.79,1.99,5.85,2.81v8.2c0,2.84,2.3,5.15,5.15,5.15s5.15-2.31,5.15-5.15v-5.23c2.95,0.57,5.99,0.96,9.06,1.14v12.59
				c0,2.84,2.3,5.15,5.15,5.15c2.84,0,5.15-2.31,5.15-5.15v-12.7c3.39-0.28,6.73-0.8,9.93-1.55v6.36c0,2.84,2.3,5.15,5.15,5.15
				c2.84,0,5.15-2.31,5.15-5.15v-9.87c1-0.47,1.97-0.96,2.91-1.49c0.7-0.39,1.35-0.8,1.99-1.21v0.71c0,2.84,2.3,5.15,5.15,5.15
				s5.15-2.31,5.15-5.15v-18.45H178.74z"/>
		</g>
		<path id="矩形_00000018199816337412311470000010228926270541777058_" class="st82" d="M99.69,163.38L99.69,163.38
			c1.12,0,2.09,1.38,2.09,2.99v14.25c0,1.61-0.96,2.99-2.09,2.99l0,0c-1.12,0-2.09-1.38-2.09-2.99v-14.25
			C97.61,164.76,98.57,163.38,99.69,163.38z"/>
		<path id="矩形_00000182490506715016386110000013570562431077265281_" class="st82" d="M160.99,100.29L160.99,100.29
			c1.37-1.02,3.68-0.37,5.02,1.41l2.29,3.06c1.34,1.78,1.31,4.19-0.06,5.22l0,0c-1.37,1.02-3.68,0.37-5.02-1.41l-2.29-3.06
			C159.5,103.59,159.63,101.31,160.99,100.29z"/>
		<path id="矩形_00000042714760272338562390000001468755523795091616_" class="st82" d="M117.09,199.96L117.09,199.96
			c1.12,0,2.09,1.38,2.09,2.99v2.76c0,1.61-0.96,2.99-2.09,2.99l0,0c-1.12,0-2.09-1.38-2.09-2.99v-2.76
			C115,201.23,115.97,199.96,117.09,199.96z"/>
		<path id="矩形_00000041261529432725137960000014277379438218197635_" class="st82" d="M99.69,188.83L99.69,188.83
			c1.12,0,2.09,1.38,2.09,2.99v2.76c0,1.61-0.96,2.99-2.09,2.99l0,0c-1.12,0-2.09-1.38-2.09-2.99v-2.76
			C97.61,190.09,98.57,188.83,99.69,188.83z"/>
		<path id="矩形_00000060030739916720626050000001491127627643860864_" class="st82" d="M137.28,208.7L137.28,208.7
			c1.12,0,2.09,1.38,2.09,2.99v2.76c0,1.61-0.96,2.99-2.09,2.99l0,0c-1.12,0-2.09-1.38-2.09-2.99v-2.76
			C135.19,209.97,136.16,208.7,137.28,208.7z"/>
		<path id="矩形_00000100363497331252533760000001511731097028983992_" class="st82" d="M156.98,203.36L156.98,203.36
			c0.89,0,1.66,1.1,1.66,2.37v2.19c0,1.28-0.76,2.37-1.66,2.37l0,0c-0.89,0-1.66-1.1-1.66-2.37v-2.19
			C155.32,204.37,156.09,203.36,156.98,203.36z"/>
		
			<ellipse transform="matrix(0.4179 -0.9085 0.9085 0.4179 -43.9456 213.9847)" class="st87" cx="145" cy="141.28" rx="11.56" ry="6.81"/>
		
			<ellipse transform="matrix(0.4179 -0.9085 0.9085 0.4179 -23.6722 229.3353)" class="st87" cx="167.12" cy="133.14" rx="11.56" ry="6.81"/>
		<g>
			<path id="形状结合_00000172434754980247320320000016621056142883029674_" class="st88" d="M147.91,130.08
				c3.6-1.88,6.46,1.24,6.4,6.88c0,0.2,0,0.4-0.01,0.6l-0.01,0.6c0.06-5.74-2.71-9-6.24-7.16c-3.53,1.84-6.4,7.94-6.46,13.78
				c-0.01,1.11,0.06,2.17,0.28,3.06c-0.38-1.1-0.6-2.49-0.58-4C141.36,138.1,144.31,131.96,147.91,130.08z"/>
			<path id="形状结合_00000150065953949367950270000005978581259847636108_" class="st89" d="M147.92,128.87
				c4-2.08,7.23,1.34,7.17,7.68c-0.07,6.34-3.41,13.2-7.41,15.28c-4,2.08-7.23-1.34-7.17-7.68
				C140.58,137.81,143.85,131,147.92,128.87z M147.91,130.08c-3.6,1.88-6.55,8.02-6.61,13.66c-0.06,5.64,2.79,8.76,6.4,6.88
				c3.6-1.88,6.55-8.02,6.61-13.66C154.37,131.32,151.44,128.24,147.91,130.08z"/>
			<path id="形状结合_00000016796317965012599370000015568424096639935935_" class="st88" d="M169.64,121.93
				c3.6-1.88,6.46,1.24,6.4,6.88c0,0.2,0,0.4-0.01,0.6l-0.01,0.6c0.06-5.74-2.71-9-6.24-7.16c-3.53,1.84-6.4,7.94-6.46,13.78
				c-0.01,1.11,0.06,2.17,0.28,3.06c-0.38-1.1-0.6-2.49-0.58-4C163.09,129.96,166.04,123.81,169.64,121.93z"/>
			<path id="形状结合_00000173860080260846260080000002816401464700022678_" class="st89" d="M169.66,120.73
				c4-2.08,7.23,1.34,7.17,7.68c-0.07,6.34-3.41,13.2-7.41,15.28c-4,2.08-7.23-1.34-7.17-7.68
				C162.31,129.66,165.58,122.85,169.66,120.73z M169.64,121.93c-3.6,1.88-6.55,8.02-6.61,13.66c-0.06,5.64,2.79,8.76,6.4,6.88
				c3.6-1.88,6.55-8.02,6.61-13.66C176.1,123.18,173.17,120.1,169.64,121.93z"/>
		</g>
		<path id="椭圆形_00000127761826024119752700000010687660588963473538_" class="st86" d="M158.46,159.12
			c2.56-1.41,4.5-5.07,4.5-6.88c0-0.72-0.35-1.18-0.87-0.97c-0.82,0.3-2.04,1.56-3.61,2.42c-1.46,0.8-2.39,0.81-3.5,1.42
			c-1.17,0.64-1.11,2.27-0.94,2.83C154.44,159.52,155.83,160.56,158.46,159.12z"/>
		<path id="椭圆形_00000053530679036469360350000005338087101569648058_" class="st87" d="M160.16,159.9
			c2.62-1.44,4.55-4.89,4.56-6.63c0-0.65-0.35-1.04-0.87-0.82c-0.82,0.3-2.1,1.59-3.67,2.45c-1.52,0.83-2.39,0.81-3.55,1.45
			c-1.17,0.64-1.11,2.2-0.94,2.68C156.08,160.48,157.53,161.35,160.16,159.9z"/>
		
			<ellipse transform="matrix(0.4179 -0.9085 0.9085 0.4179 -37.2265 216.6132)" class="st86" cx="150.41" cy="137.36" rx="4.69" ry="2.76"/>
		
			<ellipse transform="matrix(0.4179 -0.9085 0.9085 0.4179 -17.1318 231.1111)" class="st86" cx="171.78" cy="128.92" rx="4.69" ry="2.76"/>
	</g>
</g>
</svg>
