<?xml version="1.0" encoding="utf-8"?>
<!-- Generator: Adobe Illustrator 27.8.1, SVG Export Plug-In . SVG Version: 6.00 Build 0)  -->
<svg version="1.1" id="Слой_1" xmlns="http://www.w3.org/2000/svg" xmlns:xlink="http://www.w3.org/1999/xlink" x="0px" y="0px"
	 viewBox="0 0 290 269.62" style="enable-background:new 0 0 290 269.62;" xml:space="preserve">
<style type="text/css">
	.st0{stroke:#000000;stroke-linecap:round;stroke-linejoin:round;stroke-miterlimit:10;}
	.st1{fill:#222846;stroke:#000000;stroke-linecap:round;stroke-linejoin:round;stroke-miterlimit:10;}
	.st2{fill-rule:evenodd;clip-rule:evenodd;stroke:#000000;stroke-linecap:round;stroke-linejoin:round;stroke-miterlimit:10;}
	
		.st3{fill-rule:evenodd;clip-rule:evenodd;fill:#222846;stroke:#000000;stroke-linecap:round;stroke-linejoin:round;stroke-miterlimit:10;}
	
		.st4{fill-rule:evenodd;clip-rule:evenodd;fill:#4A5479;stroke:#000000;stroke-linecap:round;stroke-linejoin:round;stroke-miterlimit:10;}
	.st5{fill-rule:evenodd;clip-rule:evenodd;fill:#5C6A91;}
	.st6{fill:#6D75A2;}
	.st7{stroke:#1A213A;stroke-linecap:round;stroke-linejoin:round;stroke-miterlimit:10;}
	.st8{stroke:#4A5479;stroke-linecap:round;stroke-linejoin:round;stroke-miterlimit:10;}
	.st9{fill:url(#SVGID_1_);}
	.st10{fill:url(#SVGID_00000168088232052685961910000017130854758787627699_);}
	.st11{fill:url(#SVGID_00000134967008116813163860000004002602612727176599_);}
	
		.st12{fill:none;stroke:url(#SVGID_00000095327009292217825050000000456771153818587544_);stroke-width:5;stroke-linecap:round;stroke-linejoin:round;stroke-miterlimit:10;}
	.st13{fill:url(#SVGID_00000094578690636808219570000013567094965945973408_);}
	.st14{fill-rule:evenodd;clip-rule:evenodd;fill:#1AD4B3;}
	.st15{fill-rule:evenodd;clip-rule:evenodd;fill:#FC4F83;}
	.st16{fill:#4A5479;stroke:#000000;stroke-linecap:round;stroke-linejoin:round;stroke-miterlimit:10;}
	
		.st17{fill:url(#SVGID_00000122707208083857574180000006538314396819634616_);stroke:#1D1D1B;stroke-width:0.2115;stroke-linecap:round;stroke-linejoin:round;stroke-miterlimit:10;}
	.st18{fill-rule:evenodd;clip-rule:evenodd;}
	
		.st19{fill:url(#SVGID_00000098215608455505931690000017132626905162193589_);stroke:#1D1D1B;stroke-width:0.2115;stroke-linecap:round;stroke-linejoin:round;stroke-miterlimit:10;}
	
		.st20{fill:url(#SVGID_00000116215568022298761190000002671302668462041481_);stroke:#1D1D1B;stroke-width:0.2115;stroke-linecap:round;stroke-linejoin:round;stroke-miterlimit:10;}
	
		.st21{fill:url(#SVGID_00000105385744243198971450000000644117805827185584_);stroke:#1D1D1B;stroke-width:0.2115;stroke-linecap:round;stroke-linejoin:round;stroke-miterlimit:10;}
	.st22{fill-rule:evenodd;clip-rule:evenodd;fill:url(#SVGID_00000145054250990407604440000005777330757476669837_);}
	.st23{fill-rule:evenodd;clip-rule:evenodd;fill:url(#SVGID_00000021816997243384161870000014441119136375281818_);}
	.st24{fill:url(#SVGID_00000180361843988063903120000010137193873522870661_);}
	.st25{fill:url(#SVGID_00000072251294246969004760000004291798630446625205_);}
	.st26{fill:url(#SVGID_00000099629503656851119090000008977646050292674955_);}
	
		.st27{fill-rule:evenodd;clip-rule:evenodd;fill:#4AA089;stroke:url(#SVGID_00000178886120605684684930000005017653690993648050_);stroke-linecap:round;stroke-linejoin:round;stroke-miterlimit:10;}
	
		.st28{fill-rule:evenodd;clip-rule:evenodd;fill:#4AA089;stroke:url(#SVGID_00000152232871524313718060000007147842630176297886_);stroke-linecap:round;stroke-linejoin:round;stroke-miterlimit:10;}
	
		.st29{fill:none;stroke:url(#SVGID_00000170240797167244989690000004498299994554319274_);stroke-width:5;stroke-linecap:round;stroke-linejoin:round;stroke-miterlimit:10;}
	.st30{fill:url(#SVGID_00000165944181417330984210000001153458663513609366_);}
	
		.st31{fill:none;stroke:url(#SVGID_00000074442570106413057920000012129037034158383001_);stroke-width:5;stroke-linecap:round;stroke-linejoin:round;stroke-miterlimit:10;}
	.st32{fill:url(#SVGID_00000140703496698728640170000002386992327324717983_);}
	
		.st33{fill:none;stroke:url(#SVGID_00000033359381909669841610000012493189694871684521_);stroke-width:5;stroke-linecap:round;stroke-linejoin:round;stroke-miterlimit:10;}
	.st34{fill:url(#SVGID_00000102543217176173496160000002185301337653802167_);}
	.st35{fill:#4A5479;}
	
		.st36{fill-rule:evenodd;clip-rule:evenodd;fill:#1AD4B3;stroke:#111422;stroke-linecap:round;stroke-linejoin:round;stroke-miterlimit:10;}
	
		.st37{fill-rule:evenodd;clip-rule:evenodd;fill:#4AA089;stroke:url(#SVGID_00000074419073818939192250000008420577074922852760_);stroke-linecap:round;stroke-linejoin:round;stroke-miterlimit:10;}
	.st38{fill:#FFFFFF;}
	
		.st39{fill-rule:evenodd;clip-rule:evenodd;fill:#FC4F83;stroke:#111422;stroke-linecap:round;stroke-linejoin:round;stroke-miterlimit:10;}
	
		.st40{fill-rule:evenodd;clip-rule:evenodd;fill:#CB3D61;stroke:#000000;stroke-linecap:round;stroke-linejoin:round;stroke-miterlimit:10;}
	.st41{fill:url(#SVGID_00000126290675889004703730000011294211374395337856_);}
	.st42{fill:url(#SVGID_00000041280854206002553440000018118322568765141933_);}
	.st43{fill:url(#SVGID_00000161630472715990212680000000356527907100338312_);}
	
		.st44{fill:none;stroke:url(#SVGID_00000168809688876106517440000003586168921098697907_);stroke-width:5;stroke-linecap:round;stroke-linejoin:round;stroke-miterlimit:10;}
	.st45{fill:url(#SVGID_00000053512715266175325770000011860182704787451547_);}
	
		.st46{fill:none;stroke:url(#SVGID_00000067930138734423919570000011352740714408514984_);stroke-width:5;stroke-linecap:round;stroke-linejoin:round;stroke-miterlimit:10;}
	.st47{fill:url(#SVGID_00000129173620612097820850000017410963326813117325_);}
	.st48{fill:url(#SVGID_00000073695889933636373990000017612428618105598118_);}
	.st49{fill:#222846;}
	.st50{fill:url(#SVGID_00000005232513786974268270000010559499295712858519_);}
	.st51{fill:url(#SVGID_00000126322302534410019530000012261608560132613781_);}
	.st52{fill:url(#SVGID_00000155836018984858918640000015861441338572755598_);}
	.st53{fill:url(#SVGID_00000112590356270564064070000008327551036103948429_);}
	.st54{fill:url(#SVGID_00000159437716644398897820000010599979964132142994_);}
	.st55{fill:url(#SVGID_00000012474331747598438890000004325015551222781581_);}
	.st56{fill-rule:evenodd;clip-rule:evenodd;fill:#6D75A2;}
	.st57{fill-rule:evenodd;clip-rule:evenodd;fill:#4A5479;}
	.st58{opacity:0.29;fill:url(#SVGID_00000146476327145935100100000001005123472545024185_);enable-background:new    ;}
	.st59{fill:url(#SVGID_00000127744237858362211400000001016385117899819921_);}
	.st60{fill:url(#SVGID_00000098221478094222739460000014917528794627377809_);}
	.st61{fill:url(#SVGID_00000064320045253147922440000012472150416668993926_);}
	.st62{fill-rule:evenodd;clip-rule:evenodd;fill:url(#SVGID_00000034795357659759614590000006776912657857432961_);}
	.st63{fill:url(#SVGID_00000121958011657595443310000002360247646328602274_);}
	.st64{fill:url(#SVGID_00000019663957430630021000000001989755642269415562_);}
	.st65{fill:url(#SVGID_00000074443072915856557860000014383386153731108015_);}
	.st66{fill:url(#SVGID_00000119114947843563013130000008412756113428712840_);}
	.st67{opacity:0.29;fill:url(#SVGID_00000038396058106248204360000000426237953671473595_);enable-background:new    ;}
	.st68{fill-rule:evenodd;clip-rule:evenodd;fill:#222846;}
	
		.st69{fill:none;stroke:url(#SVGID_00000119823161251241890240000009038732479152405422_);stroke-width:5;stroke-linecap:round;stroke-linejoin:round;stroke-miterlimit:10;}
	.st70{fill:url(#SVGID_00000032619350720174058340000009742055803390671026_);}
	
		.st71{fill:none;stroke:url(#SVGID_00000090995573288161032410000001742892632352331448_);stroke-width:5;stroke-linecap:round;stroke-linejoin:round;stroke-miterlimit:10;}
	.st72{fill:url(#SVGID_00000179648244150972326060000006105187598777796789_);}
	
		.st73{fill:none;stroke:url(#SVGID_00000042697011579891789300000011239507402238570154_);stroke-width:5;stroke-linecap:round;stroke-linejoin:round;stroke-miterlimit:10;}
	.st74{fill:url(#SVGID_00000132059790872300217140000006330236093351749770_);}
	
		.st75{fill-rule:evenodd;clip-rule:evenodd;fill:#4AA089;stroke:url(#SVGID_00000085209022796742974110000017556671231245364384_);stroke-linecap:round;stroke-linejoin:round;stroke-miterlimit:10;}
	.st76{fill-rule:evenodd;clip-rule:evenodd;fill:url(#SVGID_00000061450280364191804800000002337765060374627763_);}
	.st77{fill:url(#SVGID_00000039114124664833839760000016954966899839609013_);}
	.st78{fill:url(#SVGID_00000137820432798498641340000002762210640944633752_);}
	.st79{fill:url(#SVGID_00000029023090923911291800000013258402194986318221_);}
	.st80{opacity:0.29;fill:url(#SVGID_00000062912002020537301570000011608623308671131793_);}
	.st81{opacity:0.29;fill:url(#SVGID_00000170960205464920929300000016458733050153681802_);}
	.st82{opacity:0.2563;fill-rule:evenodd;clip-rule:evenodd;fill:#FFFFFF;enable-background:new    ;}
	.st83{opacity:0.67;fill:url(#SVGID_00000174593793598988383550000003563599337611816840_);}
	.st84{fill:#3FA9BD;}
	.st85{fill:url(#SVGID_00000088127546273462262830000005147081084780427144_);}
	.st86{fill-rule:evenodd;clip-rule:evenodd;fill:#555069;}
	.st87{fill-rule:evenodd;clip-rule:evenodd;fill:#FFFFFF;}
	.st88{fill-rule:evenodd;clip-rule:evenodd;fill:#AFAFB1;}
	.st89{fill-rule:evenodd;clip-rule:evenodd;fill:#D3D3D3;}
	.st90{opacity:0.67;fill:url(#SVGID_00000147911394648687901980000014735134222683895999_);}
	.st91{fill:url(#SVGID_00000148630786585067102310000008835102569142338750_);}
	.st92{opacity:0.67;fill:url(#SVGID_00000029010154573695035790000017758090534412933767_);}
	.st93{fill:url(#SVGID_00000049204466457822052200000002066391531989366917_);}
	.st94{opacity:0.67;fill:url(#SVGID_00000067950213530487027950000010824011642486722953_);}
	.st95{fill:url(#SVGID_00000104681103095508623410000017900024911296080814_);}
	.st96{opacity:0.67;fill:url(#SVGID_00000182503601728185732450000014260155568569680821_);}
	.st97{fill:url(#SVGID_00000103982783961042514910000005602367276408416174_);}
	.st98{opacity:0.67;fill:url(#SVGID_00000017495844948105159040000013309578989363016125_);}
	.st99{fill:url(#SVGID_00000098931922868777269220000005972635374086917281_);}
	.st100{fill:#1AD4B3;}
	.st101{opacity:0.67;fill:url(#SVGID_00000036220181879084607060000004746111669919544497_);}
	.st102{fill:url(#SVGID_00000173119002897470430590000010377107316589836439_);}
	.st103{opacity:0.67;fill:url(#SVGID_00000032637548636406770270000008598309650333610419_);}
	.st104{fill:url(#SVGID_00000126282194148594913890000017854327538880514712_);}
	.st105{opacity:0.67;fill:url(#SVGID_00000037654487723132826600000007694565999102164621_);}
	.st106{fill:url(#SVGID_00000010306757482069757830000017827614342215797398_);}
	.st107{opacity:0.67;fill:url(#SVGID_00000105398031752651655730000003743777375775790008_);}
	.st108{fill:url(#SVGID_00000105400411958493823770000008410064259756780432_);}
	.st109{opacity:0.67;fill:url(#SVGID_00000129172722774441686060000008317302431718712745_);}
	.st110{fill:url(#SVGID_00000135670199214443523510000003358727486791109541_);}
	.st111{opacity:0.67;fill:url(#SVGID_00000177456203237560029310000010870483091441494925_);}
	.st112{fill:url(#SVGID_00000095302695433950812570000015499547617168220826_);}
	
		.st113{fill-rule:evenodd;clip-rule:evenodd;fill:none;stroke:#FFFFFF;stroke-width:0.7384;stroke-linecap:round;stroke-linejoin:round;stroke-miterlimit:10;}
	.st114{opacity:0.67;fill:url(#SVGID_00000027566219414142177730000004046483329679767954_);}
	.st115{fill:url(#SVGID_00000060747580158981422880000012616710289539827345_);}
	.st116{opacity:0.67;fill:url(#SVGID_00000068677345563762472110000007409832271233736615_);}
	.st117{fill:url(#SVGID_00000019664812643408222190000018421616816633987996_);}
	.st118{opacity:0.67;fill:url(#SVGID_00000020370933655806048110000011715419527520409497_);}
	.st119{fill:url(#SVGID_00000011739664175979519660000000902372971979282359_);}
	.st120{opacity:0.67;fill:url(#SVGID_00000095311435933444410220000010847726379891404946_);}
	.st121{fill:url(#SVGID_00000032616896127664435080000005567138500836596630_);}
	.st122{opacity:0.67;fill:url(#SVGID_00000050631715250259841330000001953423179468004269_);}
	.st123{fill:url(#SVGID_00000090258349920068328090000008769496096248657853_);}
	.st124{opacity:0.67;fill:url(#SVGID_00000127738288723508024090000002137280936924502913_);}
	.st125{fill:url(#SVGID_00000119811863879085074430000011190873239199526065_);}
	.st126{opacity:0.67;fill:url(#SVGID_00000055669599659469388790000010774808319734692250_);}
	.st127{fill:url(#SVGID_00000125599771340895474610000003160828345398135697_);}
	.st128{opacity:0.67;fill:url(#SVGID_00000050657853464339649420000010951766655049411760_);}
	.st129{fill:url(#SVGID_00000112612919719703480040000013826239526935259538_);}
	.st130{opacity:0.67;fill:url(#SVGID_00000148622582654138060600000009201084776479759294_);enable-background:new    ;}
	.st131{fill:#5EA6B9;}
	.st132{fill:url(#SVGID_00000080182998426022037250000017040208970920626872_);}
	.st133{fill-rule:evenodd;clip-rule:evenodd;fill:#545067;}
	.st134{fill-rule:evenodd;clip-rule:evenodd;fill:#AEAEB0;}
	.st135{fill-rule:evenodd;clip-rule:evenodd;fill:#D2D2D2;}
	.st136{opacity:0.67;fill:url(#SVGID_00000170963759581293394920000004044632609495489211_);enable-background:new    ;}
	.st137{fill:url(#SVGID_00000122678382500311288790000010311234322027485833_);}
	.st138{fill-rule:evenodd;clip-rule:evenodd;fill:#63D0B3;}
	
		.st139{fill-rule:evenodd;clip-rule:evenodd;fill:none;stroke:#000000;stroke-linecap:round;stroke-linejoin:round;stroke-miterlimit:10;}
	.st140{fill-rule:evenodd;clip-rule:evenodd;fill:#E85C83;}
	
		.st141{fill-rule:evenodd;clip-rule:evenodd;fill:#4AA089;stroke:url(#SVGID_00000060744206384284057040000007018733939093508513_);stroke-linecap:round;stroke-linejoin:round;stroke-miterlimit:10;}
	.st142{fill:#5DC29D;}
	.st143{fill:url(#SVGID_00000059288576205970765110000013721308032405264530_);}
	.st144{fill:url(#SVGID_00000088096490925600605850000011407711103018841785_);}
	.st145{fill:#E85C83;}
	.st146{opacity:0.67;fill:url(#SVGID_00000077324257109151660330000004360253319997062552_);enable-background:new    ;}
	.st147{fill:url(#SVGID_00000141426397006997139820000007837881326179773351_);}
	
		.st148{fill:none;stroke:url(#SVGID_00000146476577410256570030000008517757110873541250_);stroke-width:5;stroke-linecap:round;stroke-linejoin:round;stroke-miterlimit:10;}
	.st149{fill:url(#SVGID_00000039112085948919852680000003870442126646114975_);}
	.st150{opacity:0.67;fill:url(#SVGID_00000121270139358298107010000015873803706160721588_);enable-background:new    ;}
	.st151{fill:url(#SVGID_00000058562076521855163760000008552644398330609087_);}
	.st152{opacity:0.67;fill:url(#SVGID_00000127757632495482038820000016909284797737413524_);}
	.st153{fill:url(#SVGID_00000034058526627370635200000013189912789710645950_);}
	.st154{opacity:0.67;fill:url(#SVGID_00000153685518814955646360000000618649868432552633_);}
	.st155{fill:url(#SVGID_00000111894179701295824680000013696947167789588651_);}
	.st156{opacity:0.67;fill:url(#SVGID_00000114767040972880243860000012113066429143773860_);}
	.st157{fill:url(#SVGID_00000057113418974651278970000002316180043935409538_);}
	.st158{opacity:0.67;fill:url(#SVGID_00000136413443410878138820000006992856096968086406_);}
	.st159{fill:url(#SVGID_00000072992076131377988450000001917605829989806524_);}
	.st160{opacity:0.67;fill:url(#SVGID_00000101823118213281764420000003921315668051549614_);}
	.st161{fill:url(#SVGID_00000125567182443507974830000006940765267306440369_);}
	.st162{fill:none;stroke:#000000;stroke-width:22;stroke-linecap:round;stroke-linejoin:round;stroke-miterlimit:10;}
	.st163{fill:url(#SVGID_00000127729752228825816070000004957906546563637694_);}
	.st164{fill:url(#SVGID_00000114060832441021362020000007986523763976247986_);}
	.st165{fill:none;stroke:url(#SVGID_00000127013661425803717240000000660999731803737510_);stroke-width:5;stroke-miterlimit:10;}
	.st166{fill:url(#SVGID_00000179619840646068207750000002280807906899892895_);}
	.st167{fill:none;}
	.st168{opacity:0.67;fill:url(#SVGID_00000065056006297252472000000017074996154346729881_);}
	.st169{fill:url(#SVGID_00000178165709608644061620000017370495037284564131_);}
	.st170{fill:none;stroke:url(#SVGID_00000009558524568454662210000014278315368821579684_);stroke-width:5;stroke-miterlimit:10;}
	.st171{fill:url(#SVGID_00000024695729446148504130000004872309106712340133_);}
	.st172{opacity:0.67;fill:url(#SVGID_00000180358784056816910090000011511384385826755485_);}
	.st173{fill:url(#SVGID_00000021812885608220016850000006172196707326603906_);}
	.st174{opacity:0.67;fill:url(#SVGID_00000136404999703975435290000017485161314030618251_);}
	.st175{fill:url(#SVGID_00000132776616496363646020000006150852911880034959_);}
	.st176{opacity:0.67;fill:url(#SVGID_00000180354689778525292880000008342691590070017946_);}
	.st177{fill:url(#SVGID_00000081628733470200083460000009141027140083053443_);}
</style>
<g>
	<polygon class="st2" points="227.28,155.34 194.56,136.45 194.56,103.73 227.28,122.62 	"/>
	<polygon class="st3" points="227.28,155.34 260,136.45 260,103.73 227.28,122.62 	"/>
	<polygon class="st4" points="227.4,122.72 194.56,103.76 227.16,84.77 260,103.73 	"/>
	<path id="矩形_00000173142302042498591340000002509436359324880808_" class="st3" d="M216.43,96.15L216.43,96.15
		c0.64,0.37,0.54,1.07-0.23,1.52l-6.79,4.02c-0.77,0.45-1.98,0.53-2.62,0.16l0,0c-0.64-0.37-0.54-1.07,0.23-1.52l6.79-4.02
		C214.58,95.86,215.79,95.78,216.43,96.15z"/>
	<path id="矩形_00000011019301423703815910000010677439638491895713_" class="st3" d="M205.13,102.71L205.13,102.71
		c0.64,0.37,0.54,1.07-0.23,1.52l-1.31,0.78c-0.77,0.45-1.98,0.53-2.62,0.16l0,0c-0.64-0.37-0.54-1.07,0.23-1.52l1.31-0.78
		C203.33,102.39,204.48,102.34,205.13,102.71z"/>
	<g>
		
			<linearGradient id="SVGID_1_" gradientUnits="userSpaceOnUse" x1="148.7697" y1="722.099" x2="161.8258" y2="745.6" gradientTransform="matrix(1.0913 -0.6143 0 1 75.771 -509.8985)">
			<stop  offset="0" style="stop-color:#A85699"/>
			<stop  offset="1" style="stop-color:#5DB6C3"/>
		</linearGradient>
		<path class="st9" d="M241.64,134.64v-0.5c0-1.14,0.07-2.09,0.22-2.84c0.14-0.76,0.36-1.42,0.64-1.99c0.28-0.57,0.63-1.13,1.04-1.7
			c0.35-0.49,0.67-0.95,0.95-1.37c0.28-0.43,0.5-0.84,0.66-1.23c0.16-0.4,0.24-0.79,0.24-1.17c0-0.35-0.07-0.61-0.2-0.8
			c-0.13-0.19-0.31-0.29-0.54-0.31c-0.23-0.02-0.48,0.05-0.75,0.21c-0.3,0.17-0.57,0.41-0.82,0.72c-0.25,0.31-0.45,0.67-0.61,1.05
			c-0.15,0.39-0.23,0.78-0.23,1.18l-4.24,2.39c0.01-1.52,0.29-2.91,0.83-4.17c0.54-1.25,1.26-2.35,2.15-3.3
			c0.89-0.95,1.88-1.72,2.95-2.33c1.18-0.67,2.24-1.04,3.17-1.14c0.93-0.09,1.66,0.15,2.2,0.71c0.54,0.56,0.8,1.5,0.8,2.79
			c0,0.83-0.11,1.63-0.34,2.39c-0.23,0.76-0.55,1.49-0.95,2.2c-0.41,0.71-0.88,1.41-1.42,2.11c-0.4,0.51-0.73,1-1,1.46
			c-0.27,0.46-0.48,0.92-0.61,1.39c-0.14,0.47-0.21,0.98-0.21,1.53v0.5L241.64,134.64z M243.77,140.17
			c-0.56,0.31-1.04,0.34-1.43,0.07c-0.4-0.27-0.59-0.75-0.59-1.46c0-0.68,0.19-1.38,0.59-2.09c0.4-0.71,0.88-1.22,1.43-1.54
			c0.53-0.3,1-0.32,1.41-0.06c0.41,0.26,0.61,0.73,0.62,1.41c0,0.47-0.1,0.95-0.29,1.44c-0.19,0.49-0.44,0.93-0.74,1.33
			C244.46,139.67,244.13,139.97,243.77,140.17z"/>
	</g>
</g>
<g>
	<polygon class="st2" points="65.48,163.63 20.87,137.88 20.87,93.27 65.48,119.03 	"/>
	<polygon class="st3" points="65.48,163.63 110.08,137.88 110.08,93.27 65.48,119.03 	"/>
	<polygon class="st4" points="65.64,119.16 20.87,93.32 65.32,67.42 110.09,93.27 	"/>
	<path id="矩形_00000055686028866258400310000003571620655678377364_" class="st5" d="M51.01,82.53L51.01,82.53
		c0.88,0.5,0.73,1.46-0.31,2.08l-9.26,5.48c-1.05,0.62-2.69,0.72-3.57,0.22l0,0c-0.88-0.5-0.73-1.46,0.31-2.08l9.26-5.48
		C48.49,82.13,50.14,82.03,51.01,82.53z"/>
	<path id="矩形_00000106148848693082746100000002695710948074532005_" class="st5" d="M35.6,91.47L35.6,91.47
		c0.88,0.5,0.73,1.46-0.31,2.08l-1.79,1.06c-1.05,0.62-2.69,0.72-3.57,0.22l0,0c-0.88-0.5-0.73-1.46,0.31-2.08l1.79-1.06
		C33.15,91.03,34.72,90.98,35.6,91.47z"/>
	<g>
		
			<linearGradient id="SVGID_00000154408275434933121420000007742237928897080219_" gradientUnits="userSpaceOnUse" x1="4.1133" y1="628.9907" x2="21.9126" y2="661.0296" gradientTransform="matrix(1.0913 -0.6143 0 1 75.771 -509.8985)">
			<stop  offset="0" style="stop-color:#A85699"/>
			<stop  offset="1" style="stop-color:#5DB6C3"/>
		</linearGradient>
		<path style="fill:url(#SVGID_00000154408275434933121420000007742237928897080219_);" d="M85.06,135.41v-0.68
			c0-1.55,0.1-2.84,0.29-3.88c0.2-1.03,0.49-1.94,0.87-2.71s0.85-1.55,1.41-2.31c0.48-0.67,0.91-1.29,1.29-1.87
			c0.38-0.58,0.68-1.14,0.9-1.68c0.22-0.54,0.33-1.07,0.33-1.6c0-0.47-0.09-0.83-0.27-1.09c-0.18-0.26-0.43-0.4-0.73-0.42
			c-0.31-0.02-0.65,0.07-1.03,0.28c-0.41,0.23-0.78,0.56-1.12,0.99c-0.34,0.43-0.62,0.91-0.82,1.44c-0.21,0.53-0.31,1.07-0.31,1.61
			l-5.78,3.26c0.01-2.08,0.39-3.97,1.13-5.68c0.74-1.71,1.72-3.21,2.94-4.5c1.22-1.29,2.56-2.35,4.02-3.17
			c1.61-0.91,3.05-1.42,4.31-1.55c1.26-0.12,2.26,0.2,2.99,0.97c0.73,0.77,1.1,2.04,1.1,3.81c0,1.14-0.16,2.23-0.47,3.26
			c-0.31,1.04-0.75,2.04-1.3,3c-0.55,0.97-1.2,1.92-1.94,2.88c-0.54,0.7-1,1.36-1.37,1.99c-0.37,0.63-0.65,1.26-0.84,1.9
			c-0.19,0.64-0.28,1.33-0.28,2.08v0.68L85.06,135.41z M87.97,142.95c-0.76,0.43-1.41,0.46-1.95,0.1c-0.54-0.36-0.81-1.03-0.8-1.99
			c-0.01-0.93,0.26-1.88,0.8-2.85c0.54-0.97,1.19-1.67,1.95-2.1c0.72-0.41,1.36-0.43,1.92-0.08c0.55,0.35,0.84,0.99,0.84,1.93
			c-0.01,0.64-0.14,1.3-0.4,1.97c-0.26,0.67-0.6,1.27-1.01,1.81C88.9,142.27,88.45,142.67,87.97,142.95z"/>
	</g>
</g>
<g>
	<g>
		<polygon class="st2" points="200.15,111.33 158.78,87.45 158.78,46.08 200.15,69.96 		"/>
		<polygon class="st3" points="200.15,111.33 241.52,87.45 241.52,46.08 200.15,69.96 		"/>
		<polygon class="st4" points="200.3,70.09 158.78,46.12 200,22.1 241.52,46.07 		"/>
		<path id="矩形_00000068659436656497742720000015302935922789669523_" class="st5" d="M186.75,36.08L186.75,36.08
			c0.81,0.46,0.68,1.35-0.29,1.93l-8.59,5.08c-0.97,0.57-2.5,0.67-3.31,0.21l0,0c-0.81-0.46-0.68-1.35,0.29-1.93l8.59-5.08
			C184.41,35.71,185.94,35.62,186.75,36.08z"/>
		<path id="矩形_00000084493643815463823480000015693075378324080045_" class="st5" d="M172.46,44.38L172.46,44.38
			c0.81,0.46,0.68,1.35-0.29,1.93l-1.66,0.98c-0.97,0.57-2.5,0.67-3.31,0.21l0,0c-0.81-0.46-0.68-1.35,0.29-1.93l1.66-0.98
			C170.18,43.97,171.64,43.92,172.46,44.38z"/>
	</g>
	<g>
		
			<linearGradient id="SVGID_00000162331076380768465560000001353451478611035012_" gradientUnits="userSpaceOnUse" x1="173.7152" y1="-656.7699" x2="187.6972" y2="-631.6024" gradientTransform="matrix(1 0.5484 0 1 0 624.884)">
			<stop  offset="0" style="stop-color:#A85699"/>
			<stop  offset="1" style="stop-color:#5DB6C3"/>
		</linearGradient>
		<path style="fill:url(#SVGID_00000162331076380768465560000001353451478611035012_);" d="M176.7,81.91v-0.52
			c0-1.18,0.08-2.07,0.25-2.67c0.16-0.6,0.41-1.01,0.73-1.24c0.32-0.23,0.72-0.37,1.19-0.42c0.41-0.05,0.77-0.11,1.09-0.2
			c0.32-0.08,0.58-0.22,0.76-0.42c0.19-0.2,0.28-0.5,0.28-0.9c0-0.36-0.08-0.72-0.23-1.09s-0.36-0.7-0.62-1.02
			c-0.26-0.31-0.55-0.57-0.87-0.76c-0.34-0.21-0.66-0.32-0.95-0.32c-0.29,0-0.52,0.1-0.7,0.31c-0.17,0.21-0.26,0.52-0.26,0.93
			l-4.88-3.02c0.01-1.57,0.33-2.65,0.95-3.25c0.62-0.6,1.45-0.81,2.48-0.64c1.03,0.17,2.16,0.64,3.39,1.4
			c1.36,0.84,2.57,1.81,3.64,2.92c1.07,1.11,1.91,2.3,2.53,3.58c0.62,1.28,0.92,2.59,0.92,3.94c0,0.87-0.13,1.55-0.4,2.04
			c-0.26,0.49-0.63,0.84-1.1,1.05c-0.47,0.21-1.01,0.33-1.63,0.35c-0.46,0.02-0.84,0.09-1.15,0.22c-0.31,0.13-0.55,0.34-0.71,0.65
			c-0.16,0.31-0.24,0.75-0.24,1.32v0.52L176.7,81.91z M179.15,90.4c-0.64-0.4-1.19-0.99-1.65-1.78c-0.46-0.79-0.68-1.55-0.68-2.28
			c-0.01-0.71,0.22-1.18,0.68-1.41c0.46-0.22,1.01-0.14,1.65,0.26c0.61,0.38,1.15,0.96,1.62,1.76c0.47,0.79,0.7,1.55,0.71,2.26
			c-0.01,0.48-0.12,0.86-0.34,1.12c-0.22,0.26-0.5,0.4-0.85,0.42C179.94,90.77,179.56,90.66,179.15,90.4z"/>
	</g>
</g>
<g>
	<g>
		<path id="矩形_00000173147354944887975950000002223834969705142672_" class="st82" d="M180.34,201.11L180.34,201.11
			c0.62,0,1.15,0.76,1.15,1.64v1.52c0,0.88-0.53,1.64-1.15,1.64l0,0c-0.62,0-1.15-0.76-1.15-1.64v-1.52
			C179.2,201.81,179.73,201.11,180.34,201.11z"/>
		
			<radialGradient id="SVGID_00000021102729294301243400000003212263387633193121_" cx="148.8011" cy="235.2371" r="29.1582" gradientTransform="matrix(1 0 0 0.5898 0 96.4959)" gradientUnits="userSpaceOnUse">
			<stop  offset="0" style="stop-color:#06070C"/>
			<stop  offset="1" style="stop-color:#0D101D;stop-opacity:0"/>
		</radialGradient>
		<path style="opacity:0.67;fill:url(#SVGID_00000021102729294301243400000003212263387633193121_);" d="M173.8,221.16
			c-13.68-7.9-35.96-8-49.77-0.23c-13.81,7.77-13.91,20.48-0.23,28.37c13.68,7.9,35.96,8,49.77,0.23
			C187.37,241.76,187.48,229.06,173.8,221.16z"/>
		<g>
			<path class="st84" d="M187.3,185.14v-49.28c0-0.23,0.02-0.45,0.02-0.68c0-22.91-18.57-41.48-41.48-41.48
				c-22.91,0-41.48,18.57-41.48,41.48c0,0.36,0.02,0.72,0.03,1.07v44.66h-0.03v22.67c0,2.84,2.3,5.15,5.15,5.15
				c2.84,0,5.15-2.31,5.15-5.15v-0.83c0.56,0.36,1.13,0.72,1.74,1.07c1.83,1.06,3.79,1.99,5.85,2.81v8.2c0,2.84,2.3,5.15,5.15,5.15
				s5.15-2.31,5.15-5.15v-5.23c2.95,0.57,5.99,0.96,9.06,1.14v12.59c0,2.84,2.3,5.15,5.15,5.15c2.84,0,5.15-2.31,5.15-5.15v-12.7
				c3.39-0.28,6.73-0.8,9.93-1.55v6.36c0,2.84,2.3,5.15,5.15,5.15c2.84,0,5.15-2.31,5.15-5.15v-9.87c1-0.47,1.97-0.96,2.91-1.49
				c0.7-0.39,1.35-0.8,1.99-1.21v0.71c0,2.84,2.3,5.15,5.15,5.15s5.15-2.31,5.15-5.15v-18.45H187.3z"/>
			
				<radialGradient id="SVGID_00000033334182467428097260000008153914035480642233_" cx="170.5238" cy="111.1164" r="106.6854" gradientUnits="userSpaceOnUse">
				<stop  offset="0.0124" style="stop-color:#DD78CE"/>
				<stop  offset="0.4936" style="stop-color:#A7589A"/>
				<stop  offset="0.5829" style="stop-color:#A0619E"/>
				<stop  offset="0.7273" style="stop-color:#8E79A8"/>
				<stop  offset="0.9078" style="stop-color:#709FB9"/>
				<stop  offset="1" style="stop-color:#5EB6C3"/>
			</radialGradient>
			<path style="fill:url(#SVGID_00000033334182467428097260000008153914035480642233_);" d="M187.3,185.14v-49.28
				c0-0.23,0.02-0.45,0.02-0.68c0-22.91-18.57-41.48-41.48-41.48c-22.91,0-41.48,18.57-41.48,41.48c0,0.36,0.02,0.72,0.03,1.07
				v44.66h-0.03v22.67c0,2.84,2.3,5.15,5.15,5.15c2.84,0,5.15-2.31,5.15-5.15v-0.83c0.56,0.36,1.13,0.72,1.74,1.07
				c1.83,1.06,3.79,1.99,5.85,2.81v8.2c0,2.84,2.3,5.15,5.15,5.15s5.15-2.31,5.15-5.15v-5.23c2.95,0.57,5.99,0.96,9.06,1.14v12.59
				c0,2.84,2.3,5.15,5.15,5.15c2.84,0,5.15-2.31,5.15-5.15v-12.7c3.39-0.28,6.73-0.8,9.93-1.55v6.36c0,2.84,2.3,5.15,5.15,5.15
				c2.84,0,5.15-2.31,5.15-5.15v-9.87c1-0.47,1.97-0.96,2.91-1.49c0.7-0.39,1.35-0.8,1.99-1.21v0.71c0,2.84,2.3,5.15,5.15,5.15
				s5.15-2.31,5.15-5.15v-18.45H187.3z"/>
		</g>
		<path id="矩形_00000136395278592949185650000008499221514747198138_" class="st82" d="M108.25,171.29L108.25,171.29
			c1.12,0,2.09,1.38,2.09,2.99v14.25c0,1.61-0.96,2.99-2.09,2.99l0,0c-1.12,0-2.09-1.38-2.09-2.99v-14.25
			C106.16,172.67,107.13,171.29,108.25,171.29z"/>
		<path id="矩形_00000156586595579281373330000005542629483788272025_" class="st82" d="M169.55,108.2L169.55,108.2
			c1.37-1.02,3.68-0.37,5.02,1.41l2.29,3.06c1.34,1.78,1.31,4.19-0.06,5.22l0,0c-1.37,1.02-3.68,0.37-5.02-1.41l-2.29-3.06
			C168.06,111.51,168.19,109.23,169.55,108.2z"/>
		<path id="矩形_00000116950538700235826320000011458775821938664091_" class="st82" d="M125.65,207.88L125.65,207.88
			c1.12,0,2.09,1.38,2.09,2.99v2.76c0,1.61-0.96,2.99-2.09,2.99l0,0c-1.12,0-2.09-1.38-2.09-2.99v-2.76
			C123.56,209.14,124.53,207.88,125.65,207.88z"/>
		<path id="矩形_00000085215862346074228140000000492155504781656454_" class="st82" d="M108,197.08L108,197.08
			c1.12,0,2.09,1.38,2.09,2.99v2.76c0,1.61-0.96,2.99-2.09,2.99l0,0c-1.12,0-2.09-1.38-2.09-2.99v-2.76
			C105.92,198.34,106.88,197.08,108,197.08z"/>
		<path id="矩形_00000123399562552534201720000017867423796698741909_" class="st82" d="M145.84,216.62L145.84,216.62
			c1.12,0,2.09,1.38,2.09,2.99v2.76c0,1.61-0.96,2.99-2.09,2.99l0,0c-1.12,0-2.09-1.38-2.09-2.99v-2.76
			C143.75,217.88,144.71,216.62,145.84,216.62z"/>
		<path id="矩形_00000073719983026583272140000000722224039571209869_" class="st82" d="M165.54,211.28L165.54,211.28
			c0.89,0,1.66,1.1,1.66,2.37v2.19c0,1.28-0.76,2.37-1.66,2.37l0,0c-0.89,0-1.66-1.1-1.66-2.37v-2.19
			C163.88,212.28,164.65,211.28,165.54,211.28z"/>
		<g>
			<path id="椭圆形_00000125590360586592859510000005436633152144954294_" class="st86" d="M155.85,166.16
				c4.06-0.17,7.1-3.66,7.09-6c0-0.94-0.55-1.75-1.38-1.81c-1.29-0.13-3.23,0.7-5.72,0.8c-2.31,0.1-3.78-0.5-5.53-0.42
				c-1.84,0.08-1.75,2.22-1.47,3.06C149.48,164.09,151.7,166.33,155.85,166.16z"/>
			<path id="椭圆形_00000156567901410790993280000007831377007008321679_" class="st87" d="M155.94,164.19
				c4.15-0.17,7.19-3.38,7.19-5.63c0-0.84-0.55-1.57-1.38-1.63c-1.29-0.13-3.32,0.7-5.81,0.8c-2.4,0.1-3.78-0.5-5.62-0.43
				c-1.84,0.08-1.75,2.13-1.48,2.87C149.48,162.3,151.79,164.36,155.94,164.19z"/>
		</g>
		<g>
			
				<ellipse transform="matrix(0.5671 -0.8237 0.8237 0.5671 -57.3966 176.1902)" class="st87" cx="138.9" cy="142.69" rx="9.5" ry="9.1"/>
			<path id="形状结合_00000078011490706883037260000007128297795283098044_" class="st88" d="M140.1,132.73
				c4.24-0.18,7.66,3.98,7.66,9.22c0,0.19,0,0.37,0,0.56l0,0.56c0-5.33-3.33-9.59-7.48-9.42s-7.46,4.61-7.46,10.04
				c0,1.03,0.09,2.05,0.37,2.98c-0.46-1.2-0.74-2.59-0.74-3.99C132.45,137.35,135.86,132.9,140.1,132.73z"/>
			<path id="形状结合_00000120533629710724120620000011986902801548415377_" class="st89" d="M140.1,131.6
				c4.7-0.2,8.58,4.41,8.58,10.31c0.01,5.89-3.86,10.83-8.57,11.02c-4.7,0.2-8.58-4.41-8.58-10.31S135.3,131.8,140.1,131.6z
				 M140.1,132.73c-4.24,0.18-7.65,4.62-7.64,9.86c0,5.24,3.42,9.4,7.66,9.22c4.24-0.18,7.65-4.62,7.64-9.86
				C147.76,136.71,144.25,132.55,140.1,132.73z"/>
		</g>
		<g>
			
				<ellipse transform="matrix(0.5671 -0.8237 0.8237 0.5671 -42.9614 200.8935)" class="st87" cx="169.62" cy="141.31" rx="9.5" ry="9.1"/>
			<path id="形状结合_00000147919871952595652860000001221443169029176504_" class="st88" d="M170.61,131.36
				c4.24-0.18,7.66,3.98,7.66,9.22c0,0.19,0,0.37,0,0.56l0,0.56c0-5.33-3.33-9.59-7.48-9.42c-4.15,0.17-7.46,4.61-7.46,10.04
				c0,1.03,0.09,2.05,0.37,2.98c-0.46-1.2-0.74-2.59-0.74-3.99C162.96,135.98,166.37,131.53,170.61,131.36z"/>
			<path id="形状结合_00000002350716088040571940000009750341150204652970_" class="st89" d="M170.61,130.23
				c4.7-0.2,8.58,4.41,8.58,10.31c0.01,5.89-3.86,10.83-8.57,11.02c-4.7,0.2-8.58-4.41-8.58-10.31
				C162.04,135.36,165.82,130.43,170.61,130.23z M170.61,131.36c-4.24,0.18-7.65,4.62-7.64,9.86c0,5.24,3.42,9.4,7.66,9.22
				c4.24-0.18,7.65-4.62,7.64-9.86C178.27,135.34,174.76,131.18,170.61,131.36z"/>
		</g>
		<circle class="st86" cx="138.9" cy="142.69" r="3.77"/>
		<circle class="st86" cx="169.45" cy="141.57" r="3.77"/>
	</g>
</g>
</svg>
