<?xml version="1.0" encoding="utf-8"?>
<!-- Generator: Adobe Illustrator 27.8.1, SVG Export Plug-In . SVG Version: 6.00 Build 0)  -->
<svg version="1.1" id="Слой_1" xmlns="http://www.w3.org/2000/svg" xmlns:xlink="http://www.w3.org/1999/xlink" x="0px" y="0px"
	 viewBox="0 0 290 269.62" style="enable-background:new 0 0 290 269.62;" xml:space="preserve">
<style type="text/css">
	.st0{stroke:#000000;stroke-linecap:round;stroke-linejoin:round;stroke-miterlimit:10;}
	.st1{fill:#222846;stroke:#000000;stroke-linecap:round;stroke-linejoin:round;stroke-miterlimit:10;}
	.st2{fill-rule:evenodd;clip-rule:evenodd;stroke:#000000;stroke-linecap:round;stroke-linejoin:round;stroke-miterlimit:10;}
	
		.st3{fill-rule:evenodd;clip-rule:evenodd;fill:#222846;stroke:#000000;stroke-linecap:round;stroke-linejoin:round;stroke-miterlimit:10;}
	
		.st4{fill-rule:evenodd;clip-rule:evenodd;fill:#4A5479;stroke:#000000;stroke-linecap:round;stroke-linejoin:round;stroke-miterlimit:10;}
	.st5{fill-rule:evenodd;clip-rule:evenodd;fill:#5C6A91;}
	.st6{fill:#6D75A2;}
	.st7{stroke:#1A213A;stroke-linecap:round;stroke-linejoin:round;stroke-miterlimit:10;}
	.st8{stroke:#4A5479;stroke-linecap:round;stroke-linejoin:round;stroke-miterlimit:10;}
	.st9{fill:url(#SVGID_1_);}
	.st10{fill:url(#SVGID_00000096777835106865630440000005705881043357007232_);}
	.st11{fill:url(#SVGID_00000069376758363980172450000007290410708751626646_);}
	
		.st12{fill:none;stroke:url(#SVGID_00000102525486357167353710000000318303651113920133_);stroke-width:5;stroke-linecap:round;stroke-linejoin:round;stroke-miterlimit:10;}
	.st13{fill:url(#SVGID_00000026860326107693511790000003859233244772619695_);}
	.st14{fill-rule:evenodd;clip-rule:evenodd;fill:#1AD4B3;}
	.st15{fill-rule:evenodd;clip-rule:evenodd;fill:#FC4F83;}
	.st16{fill:#4A5479;stroke:#000000;stroke-linecap:round;stroke-linejoin:round;stroke-miterlimit:10;}
	
		.st17{fill:url(#SVGID_00000136384397220212281680000012582869442059491998_);stroke:#1D1D1B;stroke-width:0.2115;stroke-linecap:round;stroke-linejoin:round;stroke-miterlimit:10;}
	.st18{fill-rule:evenodd;clip-rule:evenodd;}
	
		.st19{fill:url(#SVGID_00000042698207998594535180000015501348489751681979_);stroke:#1D1D1B;stroke-width:0.2115;stroke-linecap:round;stroke-linejoin:round;stroke-miterlimit:10;}
	
		.st20{fill:url(#SVGID_00000124122661413212868000000004754946099873812620_);stroke:#1D1D1B;stroke-width:0.2115;stroke-linecap:round;stroke-linejoin:round;stroke-miterlimit:10;}
	
		.st21{fill:url(#SVGID_00000121268907830986753130000007243920225055095481_);stroke:#1D1D1B;stroke-width:0.2115;stroke-linecap:round;stroke-linejoin:round;stroke-miterlimit:10;}
	.st22{fill-rule:evenodd;clip-rule:evenodd;fill:url(#SVGID_00000121977529677028654910000000902613031658448305_);}
	.st23{fill-rule:evenodd;clip-rule:evenodd;fill:url(#SVGID_00000138546592730258594210000016066839570792630451_);}
	.st24{fill:url(#SVGID_00000033352865802435002370000013531791155873375362_);}
	.st25{fill:url(#SVGID_00000098215896212560619800000015338702999267084933_);}
	.st26{fill:url(#SVGID_00000142173604946801148160000011881681511850953103_);}
	
		.st27{fill-rule:evenodd;clip-rule:evenodd;fill:#4AA089;stroke:url(#SVGID_00000087392751458368294140000005125319527957910955_);stroke-linecap:round;stroke-linejoin:round;stroke-miterlimit:10;}
	
		.st28{fill-rule:evenodd;clip-rule:evenodd;fill:#4AA089;stroke:url(#SVGID_00000152238604915937550860000017591397790949882039_);stroke-linecap:round;stroke-linejoin:round;stroke-miterlimit:10;}
	
		.st29{fill:none;stroke:url(#SVGID_00000015314710553671921170000000995022050920018084_);stroke-width:5;stroke-linecap:round;stroke-linejoin:round;stroke-miterlimit:10;}
	.st30{fill:url(#SVGID_00000070113280854457563620000012401407244239046302_);}
	
		.st31{fill:none;stroke:url(#SVGID_00000105388010895398442850000008156078702480239273_);stroke-width:5;stroke-linecap:round;stroke-linejoin:round;stroke-miterlimit:10;}
	.st32{fill:url(#SVGID_00000098206414975298278000000001957781152830593706_);}
	
		.st33{fill:none;stroke:url(#SVGID_00000052082591705337824480000009392020586157542044_);stroke-width:5;stroke-linecap:round;stroke-linejoin:round;stroke-miterlimit:10;}
	.st34{fill:url(#SVGID_00000005975119632860911090000017030283885692087965_);}
	.st35{fill:#4A5479;}
	
		.st36{fill-rule:evenodd;clip-rule:evenodd;fill:#1AD4B3;stroke:#111422;stroke-linecap:round;stroke-linejoin:round;stroke-miterlimit:10;}
	
		.st37{fill-rule:evenodd;clip-rule:evenodd;fill:#4AA089;stroke:url(#SVGID_00000103237830888426984480000011765427010443885468_);stroke-linecap:round;stroke-linejoin:round;stroke-miterlimit:10;}
	.st38{fill:#FFFFFF;}
	
		.st39{fill-rule:evenodd;clip-rule:evenodd;fill:#FC4F83;stroke:#111422;stroke-linecap:round;stroke-linejoin:round;stroke-miterlimit:10;}
	
		.st40{fill-rule:evenodd;clip-rule:evenodd;fill:#CB3D61;stroke:#000000;stroke-linecap:round;stroke-linejoin:round;stroke-miterlimit:10;}
	.st41{fill:url(#SVGID_00000150822857432695136310000016842897194332236212_);}
	.st42{fill:url(#SVGID_00000152970218468027490200000004029411143473605291_);}
	.st43{fill:url(#SVGID_00000063609005883120673980000009938176110567909297_);}
	
		.st44{fill:none;stroke:url(#SVGID_00000150075980691473954890000011261091042870239422_);stroke-width:5;stroke-linecap:round;stroke-linejoin:round;stroke-miterlimit:10;}
	.st45{fill:url(#SVGID_00000059275011580401258880000012076650611854075579_);}
	
		.st46{fill:none;stroke:url(#SVGID_00000083785717553818567010000006019123499692942763_);stroke-width:5;stroke-linecap:round;stroke-linejoin:round;stroke-miterlimit:10;}
	.st47{fill:url(#SVGID_00000045592042511127535800000017511198396819673265_);}
	.st48{fill:url(#SVGID_00000085230688014859015590000002011774187509450665_);}
	.st49{fill:#222846;}
	.st50{fill:url(#SVGID_00000129190837462237340120000004160765365834869652_);}
	.st51{fill:url(#SVGID_00000137099556287497830520000012207246470726018209_);}
	.st52{fill:url(#SVGID_00000059287153635270397250000000541302063427303829_);}
	.st53{fill:url(#SVGID_00000064345815763091812820000002440078747740952764_);}
	.st54{fill:url(#SVGID_00000121961731348316603590000016076798229440145331_);}
	.st55{fill:url(#SVGID_00000087399150120696911950000015975850135089424786_);}
	.st56{fill-rule:evenodd;clip-rule:evenodd;fill:#6D75A2;}
	.st57{fill-rule:evenodd;clip-rule:evenodd;fill:#4A5479;}
	.st58{opacity:0.29;fill:url(#SVGID_00000027591972062805826000000009455156287200678796_);enable-background:new    ;}
	.st59{fill:url(#SVGID_00000069364773560804372130000007723289626693068691_);}
	.st60{fill:url(#SVGID_00000105386945701536838910000013916909695699208338_);}
	.st61{fill:url(#SVGID_00000176011576784295075830000006494575904759081660_);}
	.st62{fill-rule:evenodd;clip-rule:evenodd;fill:url(#SVGID_00000175281615222775201790000018289582614483092618_);}
	.st63{fill:url(#SVGID_00000072992307158624436760000007398444864510794889_);}
	.st64{fill:url(#SVGID_00000026131996258589060170000004283750938130652858_);}
	.st65{fill:url(#SVGID_00000053516511701171865920000004426826874206814851_);}
	.st66{fill:url(#SVGID_00000160180271825339681510000004945145197283856573_);}
	.st67{opacity:0.29;fill:url(#SVGID_00000142144188584618800790000014839452143151222961_);enable-background:new    ;}
	.st68{fill-rule:evenodd;clip-rule:evenodd;fill:#222846;}
	
		.st69{fill:none;stroke:url(#SVGID_00000035513733478893930520000005581692223842027141_);stroke-width:5;stroke-linecap:round;stroke-linejoin:round;stroke-miterlimit:10;}
	.st70{fill:url(#SVGID_00000090267755620212298810000012650095084240978102_);}
	
		.st71{fill:none;stroke:url(#SVGID_00000162340813012915124770000006932123038221008294_);stroke-width:5;stroke-linecap:round;stroke-linejoin:round;stroke-miterlimit:10;}
	.st72{fill:url(#SVGID_00000042012717555710582040000002611882055873829789_);}
	
		.st73{fill:none;stroke:url(#SVGID_00000036938274608835519120000003927283369753405074_);stroke-width:5;stroke-linecap:round;stroke-linejoin:round;stroke-miterlimit:10;}
	.st74{fill:url(#SVGID_00000000932074580304748160000006208044273336823711_);}
	
		.st75{fill-rule:evenodd;clip-rule:evenodd;fill:#4AA089;stroke:url(#SVGID_00000025403554776742174210000015571653507558235799_);stroke-linecap:round;stroke-linejoin:round;stroke-miterlimit:10;}
	.st76{fill-rule:evenodd;clip-rule:evenodd;fill:url(#SVGID_00000114038600891174288080000003890752489889451695_);}
	.st77{fill:url(#SVGID_00000088134895816469081970000009309952969238814894_);}
	.st78{fill:url(#SVGID_00000025421164316106684740000011439863203514753200_);}
	.st79{fill:url(#SVGID_00000149371061550568595980000013922547387703508658_);}
	.st80{opacity:0.29;fill:url(#SVGID_00000123427612177116426750000000540339050037843369_);}
	.st81{opacity:0.29;fill:url(#SVGID_00000000181655898554852900000000107194416540869796_);}
	.st82{opacity:0.2563;fill-rule:evenodd;clip-rule:evenodd;fill:#FFFFFF;enable-background:new    ;}
	.st83{opacity:0.67;fill:url(#SVGID_00000073709609836924593640000004100432462567831696_);}
	.st84{fill:#3FA9BD;}
	.st85{fill:url(#SVGID_00000135691488397338729280000009587147204540747930_);}
	.st86{fill-rule:evenodd;clip-rule:evenodd;fill:#555069;}
	.st87{fill-rule:evenodd;clip-rule:evenodd;fill:#FFFFFF;}
	.st88{fill-rule:evenodd;clip-rule:evenodd;fill:#AFAFB1;}
	.st89{fill-rule:evenodd;clip-rule:evenodd;fill:#D3D3D3;}
	.st90{opacity:0.67;fill:url(#SVGID_00000056385913192715013840000003000621765664945320_);}
	.st91{fill:url(#SVGID_00000008843617158547544980000011870790184105860007_);}
	.st92{opacity:0.67;fill:url(#SVGID_00000059992499374895090440000007614037215692074627_);}
	.st93{fill:url(#SVGID_00000147911174026940806440000014799445555133931701_);}
	.st94{opacity:0.67;fill:url(#SVGID_00000110467288118055535420000001666333367950037150_);}
	.st95{fill:url(#SVGID_00000076591121366028738250000006288384090670038162_);}
	.st96{opacity:0.67;fill:url(#SVGID_00000052782480453802991180000005829580624035805616_);}
	.st97{fill:url(#SVGID_00000044142865541346415430000016359089364815175300_);}
	.st98{opacity:0.67;fill:url(#SVGID_00000032637514781537383820000014323210706203640505_);}
	.st99{fill:url(#SVGID_00000106119191868657983110000017776732039273078429_);}
	.st100{fill:#1AD4B3;}
	.st101{opacity:0.67;fill:url(#SVGID_00000037671666786078208490000004714979247819256755_);}
	.st102{fill:url(#SVGID_00000105393880417658039100000008848472953344468410_);}
	.st103{opacity:0.67;fill:url(#SVGID_00000078726324774121335240000014565051096388559750_);}
	.st104{fill:url(#SVGID_00000150793132787171737550000000226799937667415209_);}
	.st105{opacity:0.67;fill:url(#SVGID_00000044164167858822894970000011046384997502010297_);}
	.st106{fill:url(#SVGID_00000016040152635885031540000005817038432661579400_);}
	.st107{opacity:0.67;fill:url(#SVGID_00000111181779541551441940000007725974122382302085_);}
	.st108{fill:url(#SVGID_00000154388019010610271370000018431759896634007216_);}
	.st109{opacity:0.67;fill:url(#SVGID_00000070799929413598925710000005922357216845737102_);}
	.st110{fill:url(#SVGID_00000142148942605578057210000010412693020503979689_);}
	.st111{opacity:0.67;fill:url(#SVGID_00000176018272552535216660000002221431825655342983_);}
	.st112{fill:url(#SVGID_00000133496739067552413570000007255572795611296690_);}
	
		.st113{fill-rule:evenodd;clip-rule:evenodd;fill:none;stroke:#FFFFFF;stroke-width:0.7384;stroke-linecap:round;stroke-linejoin:round;stroke-miterlimit:10;}
	.st114{opacity:0.67;fill:url(#SVGID_00000064341087691962016550000012790584569190415491_);}
	.st115{fill:url(#SVGID_00000094604334734118092650000013192014906639056045_);}
	.st116{opacity:0.67;fill:url(#SVGID_00000085239889633171780750000002342171491333497518_);}
	.st117{fill:url(#SVGID_00000174568248261880589010000015653489690786427313_);}
	.st118{opacity:0.67;fill:url(#SVGID_00000178903500345313108950000014808773939539671191_);}
	.st119{fill:url(#SVGID_00000165210223809382012970000003717124744244075426_);}
	.st120{opacity:0.67;fill:url(#SVGID_00000052075338704665856510000012912510502321433506_);}
	.st121{fill:url(#SVGID_00000067206271108637202510000002575628641686423999_);}
	.st122{opacity:0.67;fill:url(#SVGID_00000023279417640022454390000006448512048507334573_);}
	.st123{fill:url(#SVGID_00000001651090597169352730000004520243695718729650_);}
	.st124{opacity:0.67;fill:url(#SVGID_00000016757453623812645800000005506316016685642884_);}
	.st125{fill:url(#SVGID_00000166677732440396343770000016449818762155465131_);}
	.st126{opacity:0.67;fill:url(#SVGID_00000142153696408293956780000008602792242137624508_);}
	.st127{fill:url(#SVGID_00000131326838610689221980000015596329571520526722_);}
	.st128{opacity:0.67;fill:url(#SVGID_00000021833036804599799290000009738295332404518813_);}
	.st129{fill:url(#SVGID_00000076574582922908442480000013370592396337129116_);}
	.st130{opacity:0.67;fill:url(#SVGID_00000062170851919427485420000010374290347116458935_);enable-background:new    ;}
	.st131{fill:#5EA6B9;}
	.st132{fill:url(#SVGID_00000004520816657801110250000011748430456879008659_);}
	.st133{fill-rule:evenodd;clip-rule:evenodd;fill:#545067;}
	.st134{fill-rule:evenodd;clip-rule:evenodd;fill:#AEAEB0;}
	.st135{fill-rule:evenodd;clip-rule:evenodd;fill:#D2D2D2;}
	.st136{opacity:0.67;fill:url(#SVGID_00000150801614192381036750000001720572477644543133_);enable-background:new    ;}
	.st137{fill:url(#SVGID_00000170975330521126175650000004221989810859871642_);}
	.st138{fill-rule:evenodd;clip-rule:evenodd;fill:#63D0B3;}
	
		.st139{fill-rule:evenodd;clip-rule:evenodd;fill:none;stroke:#000000;stroke-linecap:round;stroke-linejoin:round;stroke-miterlimit:10;}
	.st140{fill-rule:evenodd;clip-rule:evenodd;fill:#E85C83;}
	
		.st141{fill-rule:evenodd;clip-rule:evenodd;fill:#4AA089;stroke:url(#SVGID_00000170254268357746611110000009327531137638960796_);stroke-linecap:round;stroke-linejoin:round;stroke-miterlimit:10;}
	.st142{fill:#5DC29D;}
	.st143{fill:url(#SVGID_00000103250858211960286500000008280866305422642864_);}
	.st144{fill:url(#SVGID_00000071523804584885982370000005108657941978740872_);}
	.st145{fill:#E85C83;}
	.st146{opacity:0.67;fill:url(#SVGID_00000084493146835167134960000001483780435597387437_);enable-background:new    ;}
	.st147{fill:url(#SVGID_00000101793367997944674170000004354304357763047846_);}
	
		.st148{fill:none;stroke:url(#SVGID_00000121968983417767656420000009555300919238294409_);stroke-width:5;stroke-linecap:round;stroke-linejoin:round;stroke-miterlimit:10;}
	.st149{fill:url(#SVGID_00000087381194076437105010000004969041589724769708_);}
	.st150{opacity:0.67;fill:url(#SVGID_00000098932212903467224350000002665359174176353681_);enable-background:new    ;}
	.st151{fill:url(#SVGID_00000145760656779690837450000001838450917904594335_);}
	.st152{opacity:0.67;fill:url(#SVGID_00000065794567179497263600000017223854509299198092_);}
	.st153{fill:url(#SVGID_00000039841621412237058460000003692904099298354830_);}
	.st154{opacity:0.67;fill:url(#SVGID_00000116930350841033305350000003604981179301660833_);}
	.st155{fill:url(#SVGID_00000069383121637348903500000012951470636710571933_);}
	.st156{opacity:0.67;fill:url(#SVGID_00000177466252140882725890000000763503814779741087_);}
	.st157{fill:url(#SVGID_00000114041403309606431190000011725364644818126769_);}
	.st158{opacity:0.67;fill:url(#SVGID_00000063601833528059317240000011498317551431010199_);}
	.st159{fill:url(#SVGID_00000008848148813375402990000017029587771286237841_);}
	.st160{opacity:0.67;fill:url(#SVGID_00000026156301444854190870000016139644995120028302_);}
	.st161{fill:url(#SVGID_00000105423847832218403280000012699728047418248114_);}
	.st162{fill:none;stroke:#000000;stroke-width:22;stroke-linecap:round;stroke-linejoin:round;stroke-miterlimit:10;}
	.st163{fill:url(#SVGID_00000075879200852842523180000000476699793735490449_);}
	.st164{fill:url(#SVGID_00000107560938642938869430000009790271077588770710_);}
	.st165{fill:none;stroke:url(#SVGID_00000145755833293788870030000016066120838295366060_);stroke-width:5;stroke-miterlimit:10;}
	.st166{fill:url(#SVGID_00000162337240153209493270000002426244125901340832_);}
	.st167{fill:none;}
	.st168{opacity:0.67;fill:url(#SVGID_00000010276998885964764680000006619295328801592221_);}
	.st169{fill:url(#SVGID_00000110448959104090217990000018152701392572741803_);}
	.st170{fill:none;stroke:url(#SVGID_00000163062108294373385930000006402296457364742806_);stroke-width:5;stroke-miterlimit:10;}
	.st171{fill:url(#SVGID_00000082346542829713384640000013281445624775476151_);}
	.st172{opacity:0.67;fill:url(#SVGID_00000124862400262678791460000017489791797790709934_);}
	.st173{fill:url(#SVGID_00000069390608071271279390000001143128742624197264_);}
	.st174{opacity:0.67;fill:url(#SVGID_00000090981042296677759070000015948456646182191764_);}
	.st175{fill:url(#SVGID_00000098899567634950893330000017275614654184052633_);}
	.st176{opacity:0.67;fill:url(#SVGID_00000063604815950035775920000011020695994616250531_);}
	.st177{fill:url(#SVGID_00000044891986662689993560000010104118618907241603_);}
</style>
<g>
	<g>
		<polygon class="st2" points="98.29,163.62 72.74,148.87 72.74,51.16 98.29,65.92 		"/>
		<polygon class="st3" points="98.29,163.62 123.84,148.87 123.84,51.16 98.29,65.92 		"/>
		<polygon class="st4" points="98.39,66 72.74,51.19 98.2,36.36 123.85,51.16 		"/>
		<path id="矩形_00000135684255553260245100000007799416483557558946_" class="st5" d="M90.14,44.84L90.14,44.84
			c0.5,0.29,0.42,0.83-0.18,1.19l-5.3,3.14c-0.6,0.35-1.54,0.41-2.05,0.13l0,0c-0.5-0.29-0.42-0.83,0.18-1.19l5.3-3.14
			C88.69,44.61,89.64,44.55,90.14,44.84z"/>
		<path id="矩形_00000129166958292710552940000004817986884540491704_" class="st5" d="M81.31,49.96L81.31,49.96
			c0.5,0.29,0.42,0.83-0.18,1.19l-1.03,0.61c-0.6,0.35-1.54,0.41-2.05,0.13l0,0c-0.5-0.29-0.42-0.83,0.18-1.19l1.03-0.61
			C79.91,49.71,80.81,49.68,81.31,49.96z"/>
	</g>
</g>
<g>
	<g>
		<polygon class="st2" points="72.87,178.44 47.32,163.69 47.32,87.07 72.87,101.82 		"/>
		<polygon class="st3" points="72.87,178.44 98.42,163.69 98.42,87.07 72.87,101.82 		"/>
		<polygon class="st4" points="72.96,101.9 47.32,87.09 72.78,72.26 98.42,87.07 		"/>
		<path id="矩形_00000029732825578914589390000000080272467066573484_" class="st5" d="M64.72,80.74L64.72,80.74
			c0.5,0.29,0.42,0.83-0.18,1.19l-5.3,3.14c-0.6,0.35-1.54,0.41-2.05,0.13l0,0c-0.5-0.29-0.42-0.83,0.18-1.19l5.3-3.14
			C63.27,80.51,64.22,80.45,64.72,80.74z"/>
		<path id="矩形_00000105426397052427768210000011930082619161638831_" class="st5" d="M55.89,85.87L55.89,85.87
			c0.5,0.29,0.42,0.83-0.18,1.19l-1.03,0.61c-0.6,0.35-1.54,0.41-2.05,0.13l0,0c-0.5-0.29-0.42-0.83,0.18-1.19l1.03-0.61
			C54.49,85.61,55.39,85.58,55.89,85.87z"/>
	</g>
</g>
<g>
	<g>
		<polygon class="st2" points="47.32,193.27 21.77,178.52 21.77,125.21 47.32,139.96 		"/>
		<polygon class="st3" points="47.32,193.27 72.87,178.52 72.87,125.21 47.32,139.96 		"/>
		<polygon class="st4" points="47.41,140.04 21.77,125.24 47.23,110.4 72.87,125.21 		"/>
		<path id="矩形_00000145762902414888965140000014638790890561244600_" class="st5" d="M39.17,118.88L39.17,118.88
			c0.5,0.29,0.42,0.83-0.18,1.19l-5.3,3.14c-0.6,0.35-1.54,0.41-2.05,0.13l0,0c-0.5-0.29-0.42-0.83,0.18-1.19l5.3-3.14
			C37.72,118.66,38.67,118.6,39.17,118.88z"/>
		<path id="矩形_00000137094634975788012990000002818266949773472406_" class="st5" d="M30.34,124.01L30.34,124.01
			c0.5,0.29,0.42,0.83-0.18,1.19l-1.03,0.61c-0.6,0.35-1.54,0.41-2.05,0.13l0,0c-0.5-0.29-0.42-0.83,0.18-1.19l1.03-0.61
			C28.93,123.76,29.84,123.72,30.34,124.01z"/>
	</g>
</g>
<g>
	<g>
		<g>
			<polygon class="st3" points="194.34,174.96 149.81,149.21 149.81,114.81 194.34,140.57 			"/>
			<polygon class="st2" points="194.34,174.96 211.6,165.92 211.6,131.53 194.34,140.57 			"/>
			<polygon class="st4" points="194.46,140.68 149.81,114.85 166.94,105.7 211.6,131.53 			"/>
		</g>
	</g>
</g>
<g>
	<g>
		<g>
			<polygon class="st39" points="244.04,203.76 199.51,178.01 199.51,143.61 244.04,169.37 			"/>
			<polygon class="st40" points="244.04,203.76 261.29,194.72 261.29,160.33 244.04,169.37 			"/>
			<polygon class="st4" points="244.16,169.48 199.51,143.65 216.64,134.5 261.3,160.33 			"/>
		</g>
	</g>
</g>
<g>
	<g>
		<g>
			<polygon class="st3" points="244.04,160.67 149.81,106.35 149.81,71.96 244.04,126.27 			"/>
			<polygon class="st2" points="244.04,160.67 261.29,151.63 261.29,117.23 244.04,126.27 			"/>
			<polygon class="st4" points="244.16,126.38 149.81,71.99 166.94,62.84 261.3,117.23 			"/>
		</g>
	</g>
</g>
<g>
	<g>
		<g>
			<polygon class="st3" points="244.04,116.91 149.81,62.59 149.81,28.2 244.04,82.51 			"/>
			<polygon class="st2" points="244.04,116.91 261.29,107.87 261.29,73.47 244.04,82.51 			"/>
			<polygon class="st4" points="244.16,82.62 149.81,28.23 166.94,19.08 261.3,73.47 			"/>
		</g>
	</g>
</g>
<g>
	<polygon class="st2" points="238.56,136.12 157.18,89.33 157.18,83.75 238.56,130.54 	"/>
	<polygon class="st4" points="238.43,135.19 158.07,88.86 158.06,84.23 238.42,130.56 	"/>
	<polygon class="st14" points="215.33,121.29 158.55,88.7 158.54,85.08 215.32,117.79 	"/>
</g>
<g>
	<polygon class="st2" points="238.56,147.48 157.18,100.69 157.18,95.11 238.56,141.89 	"/>
	<polygon class="st4" points="238.43,146.55 158.07,100.22 158.06,95.59 238.42,141.92 	"/>
	<polygon class="st15" points="237.95,145.63 158.55,100.05 158.54,96.44 237.94,142.13 	"/>
</g>
<g>
	<g>
		<path class="st6" d="M156.34,56.66V39.35l5.4,3.05c1.04,0.59,1.92,1.34,2.65,2.25c0.73,0.91,1.29,1.92,1.68,3.02
			c0.39,1.1,0.58,2.22,0.58,3.37c0,1.15-0.2,2.05-0.59,2.71c-0.39,0.66-0.96,1.02-1.7,1.09c-0.74,0.07-1.64-0.19-2.69-0.78
			l-3.44-1.95v-2.93l2.98,1.68c0.56,0.31,1.02,0.45,1.38,0.41c0.36-0.04,0.64-0.23,0.82-0.56c0.18-0.34,0.27-0.79,0.27-1.35
			c0-0.58-0.09-1.13-0.27-1.66c-0.18-0.53-0.45-1.02-0.82-1.47c-0.37-0.45-0.83-0.83-1.39-1.15l-1.95-1.1v14.32L156.34,56.66z"/>
		<path class="st6" d="M168.48,63.52V50.54l2.76,1.56v2.26l0.11,0.06c0.19-0.7,0.5-1.13,0.94-1.3c0.44-0.16,0.95-0.09,1.52,0.24
			c0.14,0.08,0.3,0.18,0.46,0.29c0.17,0.12,0.31,0.23,0.44,0.34v3.19c-0.13-0.13-0.32-0.28-0.56-0.45
			c-0.24-0.17-0.45-0.32-0.65-0.43c-0.42-0.24-0.79-0.33-1.12-0.29c-0.33,0.04-0.59,0.21-0.78,0.51c-0.19,0.3-0.28,0.71-0.28,1.24
			v7.34L168.48,63.52z"/>
		<path class="st6" d="M180.34,70.47c-1.04-0.59-1.94-1.37-2.69-2.36c-0.76-0.99-1.34-2.1-1.75-3.34c-0.41-1.24-0.61-2.52-0.61-3.85
			c0-1.34,0.2-2.4,0.61-3.17c0.41-0.77,0.99-1.23,1.75-1.36c0.76-0.13,1.65,0.09,2.69,0.68c1.04,0.59,1.94,1.38,2.69,2.36
			c0.76,0.99,1.34,2.1,1.75,3.34c0.41,1.24,0.62,2.53,0.62,3.87c0,1.33-0.2,2.38-0.62,3.15c-0.41,0.77-0.99,1.23-1.75,1.36
			C182.28,71.28,181.38,71.06,180.34,70.47z M180.35,67.69c0.47,0.27,0.87,0.32,1.18,0.16c0.32-0.16,0.56-0.49,0.72-0.99
			c0.16-0.5,0.24-1.13,0.24-1.88s-0.08-1.47-0.24-2.16c-0.16-0.68-0.4-1.29-0.72-1.81c-0.32-0.52-0.71-0.92-1.18-1.18
			c-0.48-0.27-0.88-0.32-1.2-0.16c-0.32,0.16-0.57,0.49-0.73,0.99s-0.24,1.13-0.24,1.88c0,0.76,0.08,1.47,0.24,2.16
			c0.16,0.68,0.41,1.29,0.73,1.81C179.48,67.02,179.88,67.42,180.35,67.69z"/>
		<path class="st6" d="M187.26,78.99V61.15l2.81,1.59v2.18l0.13,0.07c0.12-0.28,0.31-0.53,0.54-0.76c0.24-0.23,0.55-0.36,0.94-0.38
			c0.39-0.03,0.87,0.12,1.44,0.45c0.75,0.42,1.44,1.06,2.07,1.91c0.63,0.85,1.14,1.88,1.52,3.08c0.38,1.2,0.57,2.55,0.57,4.04
			c0,1.45-0.18,2.56-0.55,3.35c-0.37,0.79-0.87,1.26-1.5,1.41c-0.63,0.15-1.34,0.01-2.12-0.43c-0.55-0.31-1.02-0.69-1.41-1.14
			c-0.39-0.45-0.7-0.92-0.95-1.41c-0.24-0.49-0.43-0.95-0.56-1.39l-0.09-0.05v6.95L187.26,78.99z M190.04,69.21
			c0,0.77,0.08,1.49,0.25,2.16c0.17,0.67,0.41,1.26,0.74,1.75c0.32,0.5,0.71,0.88,1.17,1.14c0.46,0.26,0.86,0.32,1.18,0.18
			c0.32-0.14,0.56-0.46,0.73-0.94c0.17-0.48,0.25-1.1,0.25-1.86c0-0.75-0.08-1.45-0.25-2.12c-0.17-0.66-0.41-1.25-0.73-1.75
			c-0.32-0.5-0.72-0.89-1.18-1.15c-0.46-0.26-0.86-0.33-1.17-0.2c-0.32,0.13-0.56,0.43-0.73,0.9
			C190.13,67.82,190.04,68.44,190.04,69.21z"/>
		<path class="st6" d="M203.81,83.73c-1.04-0.59-1.94-1.37-2.69-2.36c-0.76-0.99-1.34-2.1-1.75-3.34c-0.41-1.24-0.61-2.52-0.61-3.85
			c0-1.34,0.2-2.4,0.61-3.17c0.41-0.77,0.99-1.23,1.75-1.36c0.76-0.13,1.65,0.09,2.69,0.68c1.04,0.59,1.94,1.38,2.69,2.36
			c0.76,0.99,1.34,2.1,1.75,3.34c0.41,1.24,0.62,2.53,0.62,3.87c0,1.33-0.2,2.38-0.62,3.15c-0.41,0.77-0.99,1.23-1.75,1.36
			C205.75,84.54,204.85,84.32,203.81,83.73z M203.82,80.95c0.47,0.27,0.87,0.32,1.18,0.16c0.32-0.16,0.56-0.49,0.72-0.99
			s0.24-1.13,0.24-1.88s-0.08-1.47-0.24-2.16c-0.16-0.68-0.4-1.29-0.72-1.81c-0.32-0.52-0.71-0.92-1.18-1.18
			c-0.48-0.27-0.88-0.32-1.2-0.16c-0.32,0.16-0.57,0.49-0.73,0.99c-0.16,0.5-0.24,1.13-0.24,1.88c0,0.76,0.08,1.47,0.24,2.16
			c0.16,0.68,0.41,1.29,0.73,1.81C202.95,80.28,203.35,80.68,203.82,80.95z"/>
		<path class="st6" d="M219.27,82.93l-2.61-1.27c-0.04-0.31-0.14-0.62-0.29-0.93c-0.15-0.31-0.34-0.6-0.58-0.88
			c-0.24-0.27-0.52-0.5-0.85-0.69c-0.44-0.25-0.81-0.34-1.12-0.28c-0.3,0.06-0.45,0.29-0.45,0.68c0,0.31,0.1,0.63,0.29,0.95
			c0.2,0.33,0.53,0.69,1.01,1.08l1.86,1.52c1,0.82,1.74,1.66,2.23,2.51c0.49,0.85,0.74,1.75,0.74,2.68c0,0.85-0.2,1.48-0.59,1.9
			c-0.39,0.42-0.93,0.61-1.62,0.59c-0.69-0.03-1.47-0.3-2.36-0.8c-1.36-0.77-2.44-1.74-3.25-2.91c-0.8-1.17-1.28-2.42-1.41-3.74
			l2.8,1.4c0.08,0.57,0.29,1.09,0.61,1.54c0.33,0.46,0.74,0.83,1.25,1.12c0.5,0.28,0.9,0.39,1.21,0.31c0.3-0.07,0.46-0.3,0.46-0.69
			c0-0.33-0.11-0.66-0.33-0.99c-0.21-0.33-0.54-0.68-0.99-1.04l-1.78-1.45c-1-0.82-1.75-1.68-2.24-2.58
			c-0.49-0.9-0.73-1.84-0.73-2.8c0-0.83,0.18-1.45,0.54-1.85c0.36-0.4,0.86-0.58,1.52-0.54c0.65,0.04,1.42,0.31,2.3,0.81
			c1.3,0.73,2.32,1.66,3.07,2.77C218.71,80.48,219.15,81.67,219.27,82.93z"/>
		<path class="st6" d="M224.24,95.26c-0.66-0.37-1.24-0.85-1.75-1.43c-0.51-0.58-0.92-1.24-1.21-1.98c-0.3-0.74-0.44-1.54-0.44-2.39
			c0-0.72,0.1-1.27,0.31-1.64c0.21-0.37,0.49-0.6,0.86-0.7c0.36-0.09,0.77-0.09,1.24,0.02c0.46,0.11,0.95,0.28,1.45,0.5
			c0.6,0.26,1.08,0.46,1.44,0.59c0.36,0.14,0.63,0.18,0.8,0.13c0.17-0.05,0.25-0.21,0.25-0.49v-0.05c0-0.53-0.13-1.02-0.4-1.47
			c-0.27-0.44-0.64-0.8-1.13-1.08c-0.51-0.29-0.92-0.38-1.22-0.26c-0.3,0.11-0.5,0.36-0.6,0.73L221.19,84
			c0.13-0.71,0.4-1.25,0.79-1.6c0.39-0.36,0.9-0.51,1.52-0.48c0.62,0.04,1.34,0.29,2.16,0.75c0.57,0.32,1.12,0.72,1.64,1.18
			c0.52,0.46,0.99,0.99,1.4,1.57c0.41,0.59,0.73,1.22,0.97,1.91c0.24,0.69,0.35,1.42,0.35,2.19v8.75l-2.7-1.53v-1.8l-0.08-0.05
			c-0.17,0.31-0.39,0.54-0.66,0.69c-0.28,0.15-0.61,0.2-1,0.16C225.19,95.72,224.74,95.55,224.24,95.26z M225.05,93.24
			c0.42,0.24,0.79,0.34,1.11,0.31c0.32-0.03,0.57-0.17,0.76-0.43c0.18-0.26,0.27-0.61,0.27-1.07v-1.38
			c-0.09,0.02-0.21,0.02-0.36-0.01c-0.15-0.03-0.33-0.07-0.52-0.13c-0.19-0.06-0.38-0.13-0.58-0.2c-0.19-0.07-0.37-0.14-0.52-0.2
			c-0.33-0.13-0.63-0.19-0.88-0.2c-0.25-0.01-0.44,0.07-0.58,0.22c-0.14,0.15-0.21,0.39-0.21,0.73c0,0.49,0.14,0.94,0.43,1.36
			C224.26,92.66,224.62,92.99,225.05,93.24z"/>
		<path class="st6" d="M235.08,83.84v17.31l-2.85-1.61V82.23L235.08,83.84z"/>
	</g>
</g>
<g>
	<path class="st6" d="M157.64,127.01l1.69,6.99l0.07,0.04l1.69-5.09l0.72,0.41l-2.09,6l-0.71-0.4l-2.09-8.36L157.64,127.01z"/>
	<path class="st6" d="M167.22,136.01c0,0.76-0.11,1.35-0.32,1.78s-0.51,0.69-0.89,0.77c-0.38,0.09-0.81-0.01-1.29-0.28
		c-0.48-0.27-0.92-0.67-1.29-1.18c-0.38-0.51-0.67-1.1-0.89-1.78c-0.22-0.67-0.32-1.39-0.32-2.15s0.11-1.35,0.32-1.78
		c0.22-0.43,0.51-0.69,0.89-0.77c0.38-0.09,0.81,0.01,1.29,0.28c0.48,0.27,0.92,0.67,1.29,1.18c0.38,0.51,0.67,1.11,0.89,1.78
		S167.22,135.25,167.22,136.01z M166.55,135.63c0-0.62-0.08-1.19-0.25-1.71c-0.16-0.52-0.38-0.97-0.66-1.35s-0.59-0.66-0.93-0.86
		c-0.34-0.19-0.65-0.26-0.93-0.2s-0.5,0.26-0.66,0.6c-0.16,0.33-0.25,0.81-0.25,1.43c0,0.62,0.08,1.19,0.25,1.71
		s0.38,0.97,0.66,1.35s0.59,0.66,0.93,0.86c0.34,0.19,0.66,0.26,0.93,0.2c0.28-0.06,0.5-0.26,0.66-0.6S166.55,136.25,166.55,135.63z
		"/>
	<path class="st6" d="M167.83,133.53v-0.77l4.26,2.41v0.77l-1.79-1.01v6.41l-0.69-0.39v-6.41L167.83,133.53z"/>
	<path class="st6" d="M173.84,136.16v7.18l-0.69-0.39v-7.18L173.84,136.16z"/>
	<path class="st6" d="M179.72,139.48v7.18l-0.67-0.38l-3.1-7.38l-0.06-0.03v5.63l-0.69-0.39v-7.18l0.67,0.38l3.11,7.4l0.06,0.03
		v-5.65L179.72,139.48z"/>
	<path class="st6" d="M184.98,144.69c-0.06-0.27-0.14-0.53-0.24-0.77c-0.1-0.24-0.22-0.47-0.35-0.68c-0.14-0.21-0.29-0.4-0.46-0.57
		c-0.17-0.17-0.36-0.31-0.57-0.42c-0.34-0.19-0.64-0.25-0.92-0.19c-0.28,0.06-0.49,0.26-0.66,0.6c-0.16,0.33-0.24,0.81-0.24,1.44
		s0.08,1.19,0.25,1.71c0.16,0.52,0.39,0.97,0.67,1.35c0.28,0.38,0.6,0.67,0.95,0.87c0.33,0.18,0.61,0.26,0.86,0.22
		c0.25-0.04,0.44-0.18,0.58-0.42c0.14-0.25,0.21-0.59,0.21-1.03l0.21,0.18l-1.71-0.97v-0.77l2.16,1.22v0.77
		c0,0.59-0.1,1.05-0.3,1.37s-0.47,0.51-0.82,0.55s-0.75-0.06-1.2-0.32c-0.5-0.28-0.94-0.68-1.32-1.2c-0.38-0.51-0.68-1.11-0.89-1.78
		c-0.21-0.67-0.32-1.39-0.32-2.14c0-0.57,0.06-1.04,0.18-1.43c0.12-0.38,0.29-0.68,0.51-0.87s0.48-0.29,0.79-0.29s0.64,0.1,1,0.31
		c0.3,0.17,0.58,0.38,0.84,0.64c0.26,0.26,0.49,0.55,0.7,0.87s0.38,0.67,0.51,1.03c0.14,0.36,0.23,0.73,0.28,1.11L184.98,144.69z"/>
	<path class="st6" d="M157.41,145.89v-7.18l1.92,1.08c0.45,0.25,0.81,0.56,1.09,0.92s0.49,0.75,0.63,1.17
		c0.14,0.42,0.21,0.84,0.21,1.27s-0.07,0.77-0.2,1.04c-0.14,0.27-0.35,0.43-0.63,0.47c-0.28,0.04-0.65-0.06-1.09-0.31l-1.38-0.78
		v-0.77l1.35,0.77c0.3,0.17,0.55,0.24,0.73,0.21c0.19-0.03,0.32-0.13,0.4-0.31c0.08-0.18,0.13-0.41,0.13-0.7s-0.04-0.57-0.13-0.84
		c-0.08-0.27-0.22-0.53-0.41-0.76c-0.19-0.23-0.43-0.44-0.74-0.61l-1.21-0.68v6.41L157.41,145.89z"/>
	<path class="st6" d="M167.16,147.81c0,0.76-0.11,1.35-0.32,1.78s-0.51,0.69-0.89,0.77c-0.38,0.09-0.81-0.01-1.29-0.28
		c-0.48-0.27-0.92-0.67-1.29-1.18c-0.38-0.51-0.67-1.11-0.89-1.78c-0.22-0.67-0.32-1.39-0.32-2.15s0.11-1.35,0.32-1.78
		c0.22-0.43,0.51-0.69,0.89-0.77c0.38-0.08,0.81,0.01,1.29,0.28c0.48,0.27,0.92,0.67,1.29,1.18c0.38,0.51,0.67,1.1,0.89,1.78
		S167.16,147.06,167.16,147.81z M166.5,147.44c0-0.62-0.08-1.19-0.25-1.71c-0.16-0.52-0.38-0.97-0.66-1.35
		c-0.28-0.38-0.59-0.66-0.93-0.86c-0.34-0.19-0.65-0.26-0.93-0.2s-0.5,0.26-0.66,0.6s-0.25,0.81-0.25,1.43
		c0,0.62,0.08,1.19,0.25,1.71c0.16,0.52,0.38,0.97,0.66,1.35s0.59,0.66,0.93,0.86c0.34,0.19,0.66,0.26,0.93,0.2
		c0.28-0.06,0.5-0.26,0.66-0.6C166.42,148.54,166.5,148.06,166.5,147.44z"/>
	<path class="st6" d="M169.35,152.64l-1.55-8.05l0.7,0.39l1.19,6.52l0.06,0.03l1.21-5.16l0.78,0.44l1.21,6.53l0.06,0.03l1.19-5.17
		l0.7,0.39l-1.55,6.3l-0.71-0.4l-1.25-6.43l-0.04-0.03l-1.25,5.01L169.35,152.64z"/>
	<path class="st6" d="M175.73,156.24v-7.18l3.43,1.94v0.77l-2.74-1.55v2.42l2.56,1.45v0.77l-2.56-1.45v2.44l2.78,1.57v0.77
		L175.73,156.24z"/>
	<path class="st6" d="M180.4,158.88v-7.18l1.92,1.08c0.44,0.25,0.81,0.55,1.09,0.9c0.28,0.35,0.5,0.73,0.63,1.14
		c0.14,0.41,0.21,0.82,0.21,1.25s-0.07,0.76-0.21,1.01c-0.14,0.25-0.35,0.39-0.63,0.41c-0.28,0.03-0.64-0.09-1.08-0.33l-1.55-0.88
		v-0.79l1.53,0.87c0.3,0.17,0.55,0.25,0.73,0.25c0.19-0.01,0.32-0.09,0.41-0.25c0.08-0.16,0.13-0.38,0.13-0.67s-0.04-0.56-0.13-0.83
		c-0.08-0.26-0.22-0.51-0.41-0.73c-0.19-0.22-0.43-0.42-0.74-0.6l-1.21-0.68v6.41L180.4,158.88z M183.07,157.17l1.4,4.01l-0.8-0.45
		l-1.38-4L183.07,157.17z"/>
</g>
<g>
	<path class="st38" d="M207.88,159.38l1.61,7.91l0.06,0.04l1.61-6.09l2.41,1.36l-2.59,8.46l-2.91-1.65l-2.59-11.39L207.88,159.38z"
		/>
	<path class="st38" d="M216.44,174.27c-0.64-0.36-1.19-0.83-1.64-1.41c-0.46-0.58-0.8-1.22-1.05-1.94
		c-0.24-0.71-0.36-1.45-0.36-2.21c0-0.76,0.12-1.36,0.36-1.8c0.24-0.44,0.59-0.69,1.05-0.76c0.45-0.06,1,0.08,1.64,0.45
		s1.19,0.83,1.64,1.41c0.46,0.58,0.8,1.23,1.05,1.94c0.24,0.71,0.36,1.45,0.36,2.21s-0.12,1.36-0.36,1.8
		c-0.24,0.44-0.59,0.69-1.05,0.75C217.62,174.78,217.08,174.63,216.44,174.27z M216.45,172.31c0.18,0.1,0.33,0.11,0.46,0.03
		c0.13-0.08,0.23-0.24,0.3-0.48s0.11-0.56,0.11-0.94c0-0.39-0.04-0.75-0.11-1.07c-0.07-0.32-0.17-0.59-0.3-0.82
		c-0.13-0.23-0.29-0.39-0.46-0.49c-0.19-0.11-0.35-0.12-0.49-0.05c-0.14,0.08-0.24,0.23-0.31,0.47c-0.07,0.24-0.11,0.55-0.11,0.94
		c0,0.39,0.04,0.74,0.11,1.06s0.17,0.6,0.31,0.82S216.26,172.2,216.45,172.31z"/>
	<path class="st38" d="M223.86,170.89v1.94l-3.88-2.19v-1.94L223.86,170.89z M220.73,167.34l2.12,1.2v6.83c0,0.1,0.01,0.2,0.04,0.28
		c0.03,0.08,0.07,0.16,0.13,0.23c0.06,0.07,0.13,0.13,0.23,0.18c0.06,0.04,0.14,0.07,0.22,0.1s0.15,0.05,0.19,0.06l0.31,2.05
		c-0.09-0.02-0.23-0.05-0.4-0.1c-0.17-0.05-0.38-0.13-0.62-0.25c-0.49-0.24-0.89-0.54-1.22-0.88c-0.33-0.35-0.58-0.74-0.74-1.18
		c-0.17-0.44-0.25-0.92-0.24-1.44V167.34z"/>
	<path class="st38" d="M227.48,180.51c-0.63-0.36-1.17-0.81-1.62-1.38s-0.8-1.2-1.05-1.91c-0.24-0.71-0.37-1.47-0.37-2.27
		c0-0.77,0.12-1.37,0.37-1.81c0.25-0.44,0.59-0.69,1.04-0.75s0.98,0.07,1.58,0.42c0.45,0.25,0.85,0.57,1.21,0.95
		c0.36,0.38,0.67,0.8,0.92,1.28c0.25,0.47,0.45,0.99,0.59,1.54c0.14,0.55,0.21,1.12,0.21,1.71v0.62l-5.26-2.97v-1.47l3.31,1.87
		c0-0.21-0.04-0.43-0.13-0.64c-0.08-0.21-0.19-0.4-0.33-0.57s-0.3-0.31-0.47-0.41c-0.17-0.1-0.33-0.14-0.47-0.13
		c-0.14,0.01-0.26,0.07-0.34,0.19c-0.09,0.11-0.13,0.28-0.14,0.49v1.59c0,0.24,0.04,0.47,0.12,0.71s0.19,0.44,0.34,0.63
		c0.15,0.19,0.33,0.34,0.54,0.46c0.15,0.08,0.28,0.13,0.4,0.15c0.12,0.02,0.23,0,0.31-0.05c0.09-0.05,0.15-0.13,0.19-0.25l1.93,1.09
		c-0.07,0.48-0.22,0.84-0.47,1.08c-0.25,0.24-0.58,0.35-0.98,0.33C228.5,180.98,228.02,180.82,227.48,180.51z"/>
	<path class="st38" d="M233.36,183.79c-0.42-0.24-0.8-0.59-1.16-1.07c-0.35-0.48-0.63-1.06-0.84-1.74
		c-0.21-0.68-0.32-1.46-0.32-2.31c0-0.9,0.11-1.57,0.33-2c0.22-0.44,0.51-0.69,0.86-0.75c0.35-0.06,0.72,0.02,1.11,0.24
		c0.29,0.17,0.55,0.37,0.77,0.62c0.22,0.25,0.4,0.53,0.55,0.82s0.26,0.59,0.34,0.89l0.03,0.02v-3.78l2.12,1.2v9.92l-2.1-1.19v-1.22
		L235,183.4c-0.08,0.21-0.2,0.36-0.35,0.48s-0.34,0.17-0.55,0.16C233.88,184.03,233.63,183.95,233.36,183.79z M234.14,182.18
		c0.19,0.11,0.36,0.13,0.5,0.07c0.14-0.06,0.25-0.21,0.32-0.43s0.11-0.51,0.11-0.87c0-0.37-0.04-0.71-0.11-1.01
		s-0.18-0.57-0.32-0.79c-0.14-0.22-0.31-0.38-0.5-0.49s-0.36-0.13-0.5-0.07c-0.14,0.06-0.24,0.21-0.31,0.43
		c-0.07,0.22-0.11,0.52-0.11,0.89c0,0.37,0.04,0.7,0.11,1.01c0.07,0.3,0.18,0.57,0.31,0.78
		C233.78,181.91,233.94,182.07,234.14,182.18z"/>
</g>
<g>
	<g>
		<path id="矩形_00000176015622428639894160000006502327354008476334_" class="st82" d="M175.33,199.24L175.33,199.24
			c0.62,0,1.15,0.76,1.15,1.64v1.52c0,0.88-0.53,1.64-1.15,1.64l0,0c-0.62,0-1.15-0.76-1.15-1.64v-1.52
			C174.19,199.94,174.71,199.24,175.33,199.24z"/>
		
			<radialGradient id="SVGID_1_" cx="143.7905" cy="233.3696" r="29.1582" gradientTransform="matrix(1 0 0 0.5898 0 95.7298)" gradientUnits="userSpaceOnUse">
			<stop  offset="0" style="stop-color:#06070C"/>
			<stop  offset="1" style="stop-color:#0D101D;stop-opacity:0"/>
		</radialGradient>
		<path style="opacity:0.67;fill:url(#SVGID_1_);" d="M168.79,219.3c-13.68-7.9-35.96-8-49.77-0.23s-13.91,20.48-0.23,28.37
			c13.68,7.9,35.96,8,49.77,0.23C182.36,239.9,182.47,227.19,168.79,219.3z"/>
		<g>
			<path class="st84" d="M182.29,183.27v-49.28c0-0.23,0.02-0.45,0.02-0.68c0-22.91-18.57-41.48-41.48-41.48
				c-22.91,0-41.48,18.57-41.48,41.48c0,0.36,0.02,0.72,0.03,1.07v44.66h-0.03v22.67c0,2.84,2.3,5.15,5.15,5.15s5.15-2.31,5.15-5.15
				v-0.83c0.56,0.36,1.13,0.72,1.74,1.07c1.83,1.06,3.79,1.99,5.85,2.81v8.2c0,2.84,2.3,5.15,5.15,5.15c2.84,0,5.15-2.31,5.15-5.15
				v-5.23c2.95,0.57,5.99,0.96,9.06,1.14v12.59c0,2.84,2.3,5.15,5.15,5.15s5.15-2.31,5.15-5.15v-12.7c3.39-0.28,6.73-0.8,9.93-1.55
				v6.36c0,2.84,2.3,5.15,5.15,5.15c2.84,0,5.15-2.31,5.15-5.15v-9.87c1-0.47,1.97-0.96,2.91-1.49c0.7-0.39,1.35-0.8,1.99-1.21v0.71
				c0,2.84,2.3,5.15,5.15,5.15c2.84,0,5.15-2.31,5.15-5.15v-18.45H182.29z"/>
			
				<radialGradient id="SVGID_00000124873017345117769100000000261144315682755476_" cx="165.5132" cy="109.249" r="106.6854" gradientUnits="userSpaceOnUse">
				<stop  offset="0.0124" style="stop-color:#DD78CE"/>
				<stop  offset="0.4936" style="stop-color:#A7589A"/>
				<stop  offset="0.5829" style="stop-color:#A0619E"/>
				<stop  offset="0.7273" style="stop-color:#8E79A8"/>
				<stop  offset="0.9078" style="stop-color:#709FB9"/>
				<stop  offset="1" style="stop-color:#5EB6C3"/>
			</radialGradient>
			<path style="fill:url(#SVGID_00000124873017345117769100000000261144315682755476_);" d="M182.29,183.27v-49.28
				c0-0.23,0.02-0.45,0.02-0.68c0-22.91-18.57-41.48-41.48-41.48c-22.91,0-41.48,18.57-41.48,41.48c0,0.36,0.02,0.72,0.03,1.07
				v44.66h-0.03v22.67c0,2.84,2.3,5.15,5.15,5.15s5.15-2.31,5.15-5.15v-0.83c0.56,0.36,1.13,0.72,1.74,1.07
				c1.83,1.06,3.79,1.99,5.85,2.81v8.2c0,2.84,2.3,5.15,5.15,5.15c2.84,0,5.15-2.31,5.15-5.15v-5.23c2.95,0.57,5.99,0.96,9.06,1.14
				v12.59c0,2.84,2.3,5.15,5.15,5.15s5.15-2.31,5.15-5.15v-12.7c3.39-0.28,6.73-0.8,9.93-1.55v6.36c0,2.84,2.3,5.15,5.15,5.15
				c2.84,0,5.15-2.31,5.15-5.15v-9.87c1-0.47,1.97-0.96,2.91-1.49c0.7-0.39,1.35-0.8,1.99-1.21v0.71c0,2.84,2.3,5.15,5.15,5.15
				c2.84,0,5.15-2.31,5.15-5.15v-18.45H182.29z"/>
		</g>
		<path id="矩形_00000106843073780536600260000013177199447876571784_" class="st82" d="M103.24,169.42L103.24,169.42
			c1.12,0,2.09,1.38,2.09,2.99v14.25c0,1.61-0.96,2.99-2.09,2.99l0,0c-1.12,0-2.09-1.38-2.09-2.99v-14.25
			C101.15,170.8,102.12,169.42,103.24,169.42z"/>
		<path id="矩形_00000131337088514832624150000015413571320249446065_" class="st82" d="M164.54,106.34L164.54,106.34
			c1.37-1.02,3.68-0.37,5.02,1.41l2.29,3.06c1.34,1.78,1.31,4.19-0.06,5.22l0,0c-1.37,1.02-3.68,0.37-5.02-1.41l-2.29-3.06
			C163.05,109.64,163.17,107.36,164.54,106.34z"/>
		<path id="矩形_00000091005063265200754590000003486111380269151671_" class="st82" d="M120.64,206.01L120.64,206.01
			c1.12,0,2.09,1.38,2.09,2.99v2.76c0,1.61-0.96,2.99-2.09,2.99l0,0c-1.12,0-2.09-1.38-2.09-2.99V209
			C118.55,207.28,119.52,206.01,120.64,206.01z"/>
		<path id="矩形_00000044887164023376017000000016155779521522362018_" class="st82" d="M102.99,195.21L102.99,195.21
			c1.12,0,2.09,1.38,2.09,2.99v2.76c0,1.61-0.96,2.99-2.09,2.99l0,0c-1.12,0-2.09-1.38-2.09-2.99v-2.76
			C100.91,196.48,101.87,195.21,102.99,195.21z"/>
		<path id="矩形_00000067220809982097671420000015988343050173184166_" class="st82" d="M140.83,214.75L140.83,214.75
			c1.12,0,2.09,1.38,2.09,2.99v2.76c0,1.61-0.96,2.99-2.09,2.99l0,0c-1.12,0-2.09-1.38-2.09-2.99v-2.76
			C138.74,216.02,139.7,214.75,140.83,214.75z"/>
		<path id="矩形_00000098193893202484194200000016982678868156840360_" class="st82" d="M160.53,209.41L160.53,209.41
			c0.89,0,1.66,1.1,1.66,2.37v2.19c0,1.28-0.76,2.37-1.66,2.37l0,0c-0.89,0-1.66-1.1-1.66-2.37v-2.19
			C158.87,210.41,159.64,209.41,160.53,209.41z"/>
		<g>
			<path id="椭圆形_00000132811070233307917190000010782105766217127057_" class="st86" d="M150.84,164.29
				c4.06-0.17,7.1-3.66,7.09-6c0-0.94-0.55-1.75-1.38-1.81c-1.29-0.13-3.23,0.7-5.72,0.8c-2.31,0.1-3.78-0.5-5.53-0.42
				c-1.84,0.08-1.75,2.22-1.47,3.06C144.47,162.22,146.69,164.47,150.84,164.29z"/>
			<path id="椭圆形_00000062164265224928503420000009908604550647129746_" class="st87" d="M150.93,162.33
				c4.15-0.17,7.19-3.38,7.19-5.63c0-0.84-0.55-1.57-1.38-1.63c-1.29-0.13-3.32,0.7-5.81,0.8c-2.4,0.1-3.78-0.5-5.62-0.43
				s-1.75,2.13-1.48,2.87C144.47,160.44,146.78,162.49,150.93,162.33z"/>
		</g>
		<g>
			
				<ellipse transform="matrix(0.5671 -0.8237 0.8237 0.5671 -58.0277 171.2546)" class="st87" cx="133.89" cy="140.83" rx="9.5" ry="9.1"/>
			<path id="形状结合_00000028285567017467324610000006280170779610533538_" class="st88" d="M135.09,130.86
				c4.24-0.18,7.66,3.98,7.66,9.22c0,0.19,0,0.37,0,0.56l0,0.56c0-5.33-3.33-9.59-7.48-9.42s-7.46,4.61-7.46,10.04
				c0,1.03,0.09,2.05,0.37,2.98c-0.46-1.2-0.74-2.59-0.74-3.99C127.44,135.48,130.85,131.04,135.09,130.86z"/>
			<path id="形状结合_00000137129842720458385860000007002646852710845318_" class="st89" d="M135.09,129.74
				c4.7-0.2,8.58,4.41,8.58,10.31c0.01,5.89-3.86,10.83-8.57,11.02s-8.58-4.41-8.58-10.31
				C126.52,134.87,130.29,129.94,135.09,129.74z M135.09,130.86c-4.24,0.18-7.65,4.62-7.64,9.86c0,5.24,3.42,9.4,7.66,9.22
				c4.24-0.18,7.65-4.62,7.64-9.86C142.75,134.84,139.24,130.69,135.09,130.86z"/>
		</g>
		<g>
			
				<ellipse transform="matrix(0.5671 -0.8237 0.8237 0.5671 -43.5925 195.9579)" class="st87" cx="164.61" cy="139.45" rx="9.5" ry="9.1"/>
			<path id="形状结合_00000019679785821530317580000016134863794055689605_" class="st88" d="M165.6,129.49
				c4.24-0.18,7.66,3.98,7.66,9.22c0,0.19,0,0.37,0,0.56l0,0.56c0-5.33-3.33-9.59-7.48-9.42c-4.15,0.17-7.46,4.61-7.46,10.04
				c0,1.03,0.09,2.05,0.37,2.98c-0.46-1.2-0.74-2.59-0.74-3.99C157.95,134.11,161.36,129.67,165.6,129.49z"/>
			<path id="形状结合_00000118392953506006545060000012723198378613632666_" class="st89" d="M165.6,128.37
				c4.7-0.2,8.58,4.41,8.58,10.31c0.01,5.89-3.86,10.83-8.57,11.02s-8.58-4.41-8.58-10.31C157.03,133.49,160.81,128.57,165.6,128.37
				z M165.6,129.49c-4.24,0.18-7.65,4.62-7.64,9.86c0,5.24,3.42,9.4,7.66,9.22c4.24-0.18,7.65-4.62,7.64-9.86
				C173.26,133.47,169.75,129.32,165.6,129.49z"/>
		</g>
		<circle class="st86" cx="133.89" cy="140.83" r="3.77"/>
		<circle class="st86" cx="164.43" cy="139.7" r="3.77"/>
	</g>
</g>
</svg>
