<?xml version="1.0" encoding="utf-8"?>
<!-- Generator: Adobe Illustrator 27.8.1, SVG Export Plug-In . SVG Version: 6.00 Build 0)  -->
<svg version="1.1" id="Слой_1" xmlns="http://www.w3.org/2000/svg" xmlns:xlink="http://www.w3.org/1999/xlink" x="0px" y="0px"
	 viewBox="0 0 290 269.62" style="enable-background:new 0 0 290 269.62;" xml:space="preserve">
<style type="text/css">
	.st0{stroke:#000000;stroke-linecap:round;stroke-linejoin:round;stroke-miterlimit:10;}
	.st1{fill:#222846;stroke:#000000;stroke-linecap:round;stroke-linejoin:round;stroke-miterlimit:10;}
	.st2{fill-rule:evenodd;clip-rule:evenodd;stroke:#000000;stroke-linecap:round;stroke-linejoin:round;stroke-miterlimit:10;}
	
		.st3{fill-rule:evenodd;clip-rule:evenodd;fill:#222846;stroke:#000000;stroke-linecap:round;stroke-linejoin:round;stroke-miterlimit:10;}
	
		.st4{fill-rule:evenodd;clip-rule:evenodd;fill:#4A5479;stroke:#000000;stroke-linecap:round;stroke-linejoin:round;stroke-miterlimit:10;}
	.st5{fill-rule:evenodd;clip-rule:evenodd;fill:#5C6A91;}
	.st6{fill:#6D75A2;}
	.st7{stroke:#1A213A;stroke-linecap:round;stroke-linejoin:round;stroke-miterlimit:10;}
	.st8{stroke:#4A5479;stroke-linecap:round;stroke-linejoin:round;stroke-miterlimit:10;}
	.st9{fill:url(#SVGID_1_);}
	.st10{fill:url(#SVGID_00000054969952226043284370000011030622599150944919_);}
	.st11{fill:url(#SVGID_00000082335989862761035830000008249089838699892908_);}
	
		.st12{fill:none;stroke:url(#SVGID_00000047057357569489473630000014562357305714001290_);stroke-width:5;stroke-linecap:round;stroke-linejoin:round;stroke-miterlimit:10;}
	.st13{fill:url(#SVGID_00000134210009039196669090000004368851005100541827_);}
	.st14{fill-rule:evenodd;clip-rule:evenodd;fill:#1AD4B3;}
	.st15{fill-rule:evenodd;clip-rule:evenodd;fill:#FC4F83;}
	.st16{fill:#4A5479;stroke:#000000;stroke-linecap:round;stroke-linejoin:round;stroke-miterlimit:10;}
	
		.st17{fill:url(#SVGID_00000150090228972663757370000004440038449772919714_);stroke:#1D1D1B;stroke-width:0.2115;stroke-linecap:round;stroke-linejoin:round;stroke-miterlimit:10;}
	.st18{fill-rule:evenodd;clip-rule:evenodd;}
	
		.st19{fill:url(#SVGID_00000096028001993121214700000015764341811700970913_);stroke:#1D1D1B;stroke-width:0.2115;stroke-linecap:round;stroke-linejoin:round;stroke-miterlimit:10;}
	
		.st20{fill:url(#SVGID_00000078029645321304341460000002049427456325578385_);stroke:#1D1D1B;stroke-width:0.2115;stroke-linecap:round;stroke-linejoin:round;stroke-miterlimit:10;}
	
		.st21{fill:url(#SVGID_00000116938603585916440400000011708572057770254228_);stroke:#1D1D1B;stroke-width:0.2115;stroke-linecap:round;stroke-linejoin:round;stroke-miterlimit:10;}
	.st22{fill-rule:evenodd;clip-rule:evenodd;fill:url(#SVGID_00000086690746213230503370000004748834527336985514_);}
	.st23{fill-rule:evenodd;clip-rule:evenodd;fill:url(#SVGID_00000167357373539286751590000010131712223344241538_);}
	.st24{fill:url(#SVGID_00000020387441760882535890000000934920155959977382_);}
	.st25{fill:url(#SVGID_00000000182832171006750400000013570866780181433011_);}
	.st26{fill:url(#SVGID_00000085217172136436459560000008826902533287253924_);}
	
		.st27{fill-rule:evenodd;clip-rule:evenodd;fill:#4AA089;stroke:url(#SVGID_00000048470501660787074850000011476690423527500451_);stroke-linecap:round;stroke-linejoin:round;stroke-miterlimit:10;}
	
		.st28{fill-rule:evenodd;clip-rule:evenodd;fill:#4AA089;stroke:url(#SVGID_00000052805932806975868520000000795606410752428439_);stroke-linecap:round;stroke-linejoin:round;stroke-miterlimit:10;}
	
		.st29{fill:none;stroke:url(#SVGID_00000077318743811967919460000014824195134542435240_);stroke-width:5;stroke-linecap:round;stroke-linejoin:round;stroke-miterlimit:10;}
	.st30{fill:url(#SVGID_00000047021946655817435570000005831051647090585475_);}
	
		.st31{fill:none;stroke:url(#SVGID_00000094592566662522904890000007187052293167274929_);stroke-width:5;stroke-linecap:round;stroke-linejoin:round;stroke-miterlimit:10;}
	.st32{fill:url(#SVGID_00000027568245623776592060000004782513812415006365_);}
	
		.st33{fill:none;stroke:url(#SVGID_00000055705130801083256200000015128998054604035212_);stroke-width:5;stroke-linecap:round;stroke-linejoin:round;stroke-miterlimit:10;}
	.st34{fill:url(#SVGID_00000131331287735455549820000013535681893372356516_);}
	.st35{fill:#4A5479;}
	
		.st36{fill-rule:evenodd;clip-rule:evenodd;fill:#1AD4B3;stroke:#111422;stroke-linecap:round;stroke-linejoin:round;stroke-miterlimit:10;}
	
		.st37{fill-rule:evenodd;clip-rule:evenodd;fill:#4AA089;stroke:url(#SVGID_00000018918205626068120170000000391402389823339411_);stroke-linecap:round;stroke-linejoin:round;stroke-miterlimit:10;}
	.st38{fill:#FFFFFF;}
	
		.st39{fill-rule:evenodd;clip-rule:evenodd;fill:#FC4F83;stroke:#111422;stroke-linecap:round;stroke-linejoin:round;stroke-miterlimit:10;}
	
		.st40{fill-rule:evenodd;clip-rule:evenodd;fill:#CB3D61;stroke:#000000;stroke-linecap:round;stroke-linejoin:round;stroke-miterlimit:10;}
	.st41{fill:url(#SVGID_00000112611500407648927000000014655539612248269493_);}
	.st42{fill:url(#SVGID_00000016047470780134336550000001785967310278852782_);}
	.st43{fill:url(#SVGID_00000051371291312256396100000017911089133479697310_);}
	
		.st44{fill:none;stroke:url(#SVGID_00000003820483780853464770000002635908761729277861_);stroke-width:5;stroke-linecap:round;stroke-linejoin:round;stroke-miterlimit:10;}
	.st45{fill:url(#SVGID_00000100365374436208083170000009712661230110862228_);}
	
		.st46{fill:none;stroke:url(#SVGID_00000093859385263209382660000010164993462993513376_);stroke-width:5;stroke-linecap:round;stroke-linejoin:round;stroke-miterlimit:10;}
	.st47{fill:url(#SVGID_00000088850564356212581130000005507577742004280972_);}
	.st48{fill:url(#SVGID_00000090291809073770134850000007557767902572779661_);}
	.st49{fill:#222846;}
	.st50{fill:url(#SVGID_00000104684348763813396620000013443314126892085675_);}
	.st51{fill:url(#SVGID_00000020385862706298170850000007774548521599971734_);}
	.st52{fill:url(#SVGID_00000134931233276943313700000003252590656205648575_);}
	.st53{fill:url(#SVGID_00000161591772741264387710000009399577986809686657_);}
	.st54{fill:url(#SVGID_00000074422551264182967150000005354069680303831726_);}
	.st55{fill:url(#SVGID_00000069373539712335704580000001498365066310169496_);}
	.st56{fill-rule:evenodd;clip-rule:evenodd;fill:#6D75A2;}
	.st57{fill-rule:evenodd;clip-rule:evenodd;fill:#4A5479;}
	.st58{opacity:0.29;fill:url(#SVGID_00000176004697697192445550000008592942786239583914_);enable-background:new    ;}
	.st59{fill:url(#SVGID_00000070817832890431640140000009906263444593184928_);}
	.st60{fill:url(#SVGID_00000159431827464078418920000003040414887640405644_);}
	.st61{fill:url(#SVGID_00000181053864814864640550000007785344103360272532_);}
	.st62{fill-rule:evenodd;clip-rule:evenodd;fill:url(#SVGID_00000044169339479849944400000004110469295261993635_);}
	.st63{fill:url(#SVGID_00000138542842857503995820000011032117377789223568_);}
	.st64{fill:url(#SVGID_00000175286706820342012830000017329171657196264109_);}
	.st65{fill:url(#SVGID_00000022533919917547668480000013265685616085868471_);}
	.st66{fill:url(#SVGID_00000073721891031168367580000006350780625460670651_);}
	.st67{opacity:0.29;fill:url(#SVGID_00000178915237742508199270000002440544371645593988_);enable-background:new    ;}
	.st68{fill-rule:evenodd;clip-rule:evenodd;fill:#222846;}
	
		.st69{fill:none;stroke:url(#SVGID_00000134947773550352135270000013491190109318394531_);stroke-width:5;stroke-linecap:round;stroke-linejoin:round;stroke-miterlimit:10;}
	.st70{fill:url(#SVGID_00000049219719356349876190000000742940086882324382_);}
	
		.st71{fill:none;stroke:url(#SVGID_00000092437967450530145300000014007508163504503708_);stroke-width:5;stroke-linecap:round;stroke-linejoin:round;stroke-miterlimit:10;}
	.st72{fill:url(#SVGID_00000065058717389021972940000012540365917494857405_);}
	
		.st73{fill:none;stroke:url(#SVGID_00000033340098996542706400000006782542014907015855_);stroke-width:5;stroke-linecap:round;stroke-linejoin:round;stroke-miterlimit:10;}
	.st74{fill:url(#SVGID_00000044899871910056102710000001688762033005055928_);}
	
		.st75{fill-rule:evenodd;clip-rule:evenodd;fill:#4AA089;stroke:url(#SVGID_00000065759094689713261460000003757859077846056074_);stroke-linecap:round;stroke-linejoin:round;stroke-miterlimit:10;}
	.st76{fill-rule:evenodd;clip-rule:evenodd;fill:url(#SVGID_00000048503201154159404910000009623303331838602939_);}
	.st77{fill:url(#SVGID_00000028289630239855197100000003289238028173432501_);}
	.st78{fill:url(#SVGID_00000011009226322761115710000010156805742849650051_);}
	.st79{fill:url(#SVGID_00000057847028881425972650000001802264866080607878_);}
	.st80{opacity:0.29;fill:url(#SVGID_00000037657010976695297500000005685297403053654187_);}
	.st81{opacity:0.29;fill:url(#SVGID_00000165945820583059583960000010115301378751456910_);}
	.st82{opacity:0.2563;fill-rule:evenodd;clip-rule:evenodd;fill:#FFFFFF;enable-background:new    ;}
	.st83{opacity:0.67;fill:url(#SVGID_00000052067811504120803420000002363095091511389606_);}
	.st84{fill:#3FA9BD;}
	.st85{fill:url(#SVGID_00000147199869530886844670000004804354486847279775_);}
	.st86{fill-rule:evenodd;clip-rule:evenodd;fill:#555069;}
	.st87{fill-rule:evenodd;clip-rule:evenodd;fill:#FFFFFF;}
	.st88{fill-rule:evenodd;clip-rule:evenodd;fill:#AFAFB1;}
	.st89{fill-rule:evenodd;clip-rule:evenodd;fill:#D3D3D3;}
	.st90{opacity:0.67;fill:url(#SVGID_00000097497795906059104760000011741559262135530128_);}
	.st91{fill:url(#SVGID_00000178907724798130674890000006251303055075714701_);}
	.st92{opacity:0.67;fill:url(#SVGID_00000067922314413455539200000016096819415066195623_);}
	.st93{fill:url(#SVGID_00000146478761950572595370000011915164713672703390_);}
	.st94{opacity:0.67;fill:url(#SVGID_00000134248126666283959460000010923912921636801945_);}
	.st95{fill:url(#SVGID_00000027569227823425386910000006808840637707165337_);}
	.st96{opacity:0.67;fill:url(#SVGID_00000006681978559157419940000003276069496677711019_);}
	.st97{fill:url(#SVGID_00000047050745337655239040000007952935015032474766_);}
	.st98{opacity:0.67;fill:url(#SVGID_00000090253703139568597610000002153193088153789323_);}
	.st99{fill:url(#SVGID_00000088838513965535723890000009851491313942034602_);}
	.st100{fill:#1AD4B3;}
	.st101{opacity:0.67;fill:url(#SVGID_00000152949525787722186080000005975322200072724906_);}
	.st102{fill:url(#SVGID_00000090984108456713326530000008869667002880425620_);}
	.st103{opacity:0.67;fill:url(#SVGID_00000169545831944623110340000007799299857184875921_);}
	.st104{fill:url(#SVGID_00000005958213603626467570000000688188976617911194_);}
	.st105{opacity:0.67;fill:url(#SVGID_00000132792224915414576360000001079425492943327416_);}
	.st106{fill:url(#SVGID_00000070808720349864290080000014611172173081802924_);}
	.st107{opacity:0.67;fill:url(#SVGID_00000101812215385370469610000010538722175029465472_);}
	.st108{fill:url(#SVGID_00000009554269045688762100000016742983220387379635_);}
	.st109{opacity:0.67;fill:url(#SVGID_00000117644523676844801010000012316131560767287205_);}
	.st110{fill:url(#SVGID_00000036931882739085626050000011984689943662017965_);}
	.st111{opacity:0.67;fill:url(#SVGID_00000053523701859386636480000009515607534712665995_);}
	.st112{fill:url(#SVGID_00000123423162193504411480000004675880178835927219_);}
	
		.st113{fill-rule:evenodd;clip-rule:evenodd;fill:none;stroke:#FFFFFF;stroke-width:0.7384;stroke-linecap:round;stroke-linejoin:round;stroke-miterlimit:10;}
	.st114{opacity:0.67;fill:url(#SVGID_00000100354777999593194300000017590846948806231425_);}
	.st115{fill:url(#SVGID_00000124123043628844149080000016258668526930499985_);}
	.st116{opacity:0.67;fill:url(#SVGID_00000176025235103581182320000016777449284374192275_);}
	.st117{fill:url(#SVGID_00000000215843132820951340000010594424102718149521_);}
	.st118{opacity:0.67;fill:url(#SVGID_00000118387822674915121770000004130270653909114797_);}
	.st119{fill:url(#SVGID_00000140002306485358196860000012437079483845500341_);}
	.st120{opacity:0.67;fill:url(#SVGID_00000176738509243531712240000002207478420061093563_);}
	.st121{fill:url(#SVGID_00000060733176206854709480000007824015459309885365_);}
	.st122{opacity:0.67;fill:url(#SVGID_00000098207327364104160090000006756963018240803751_);}
	.st123{fill:url(#SVGID_00000160892001429869397070000003945903878386462337_);}
	.st124{opacity:0.67;fill:url(#SVGID_00000122694093530656175550000014668578027667291029_);}
	.st125{fill:url(#SVGID_00000131366687359862530820000018269662945573984393_);}
	.st126{opacity:0.67;fill:url(#SVGID_00000172439037058764853220000001054876828126454195_);}
	.st127{fill:url(#SVGID_00000146497071184497482660000008914861376499528868_);}
	.st128{opacity:0.67;fill:url(#SVGID_00000029006717048611727610000012628686102650856334_);}
	.st129{fill:url(#SVGID_00000005985685255182963760000006856321985641531784_);}
	.st130{opacity:0.67;fill:url(#SVGID_00000134248313100044390790000009929673451278922409_);enable-background:new    ;}
	.st131{fill:#5EA6B9;}
	.st132{fill:url(#SVGID_00000026127577292535278100000010560138029962186118_);}
	.st133{fill-rule:evenodd;clip-rule:evenodd;fill:#545067;}
	.st134{fill-rule:evenodd;clip-rule:evenodd;fill:#AEAEB0;}
	.st135{fill-rule:evenodd;clip-rule:evenodd;fill:#D2D2D2;}
	.st136{opacity:0.67;fill:url(#SVGID_00000032628525681557712850000008050032655315011238_);enable-background:new    ;}
	.st137{fill:url(#SVGID_00000070086567059468019210000011624428091579506853_);}
	.st138{fill-rule:evenodd;clip-rule:evenodd;fill:#63D0B3;}
	
		.st139{fill-rule:evenodd;clip-rule:evenodd;fill:none;stroke:#000000;stroke-linecap:round;stroke-linejoin:round;stroke-miterlimit:10;}
	.st140{fill-rule:evenodd;clip-rule:evenodd;fill:#E85C83;}
	
		.st141{fill-rule:evenodd;clip-rule:evenodd;fill:#4AA089;stroke:url(#SVGID_00000048488647304904535930000014639225298141050542_);stroke-linecap:round;stroke-linejoin:round;stroke-miterlimit:10;}
	.st142{fill:#5DC29D;}
	.st143{fill:url(#SVGID_00000045597821300649496710000016642274522046738574_);}
	.st144{fill:url(#SVGID_00000104703413946999254140000010938404380346486971_);}
	.st145{fill:#E85C83;}
	.st146{opacity:0.67;fill:url(#SVGID_00000151505250587966396080000010834665173818056866_);enable-background:new    ;}
	.st147{fill:url(#SVGID_00000116202653109964578930000007421049298696572045_);}
	
		.st148{fill:none;stroke:url(#SVGID_00000138546104666914536760000014116488248020425351_);stroke-width:5;stroke-linecap:round;stroke-linejoin:round;stroke-miterlimit:10;}
	.st149{fill:url(#SVGID_00000155838792668946773390000005522544530296526238_);}
	.st150{opacity:0.67;fill:url(#SVGID_00000131347753895956921250000007659559020209348739_);enable-background:new    ;}
	.st151{fill:url(#SVGID_00000137124193671138361300000002974786782455825046_);}
	.st152{opacity:0.67;fill:url(#SVGID_00000128457973086832546290000006659409602897307818_);}
	.st153{fill:url(#SVGID_00000101809491267426752180000004939113300985619335_);}
	.st154{opacity:0.67;fill:url(#SVGID_00000080919534928276390980000014150792238772834209_);}
	.st155{fill:url(#SVGID_00000000943265480921067070000013706527257127588774_);}
	.st156{opacity:0.67;fill:url(#SVGID_00000151508903008829621330000016125031467782071713_);}
	.st157{fill:url(#SVGID_00000091729687383669448920000011927470198385232295_);}
	.st158{opacity:0.67;fill:url(#SVGID_00000054226065784754846410000001478343086511700155_);}
	.st159{fill:url(#SVGID_00000165205227476388009940000006124177660360652676_);}
	.st160{opacity:0.67;fill:url(#SVGID_00000030445372377022162640000003319819713168990635_);}
	.st161{fill:url(#SVGID_00000060731486676369781620000000662921345875243420_);}
	.st162{fill:none;stroke:#000000;stroke-width:22;stroke-linecap:round;stroke-linejoin:round;stroke-miterlimit:10;}
	.st163{fill:url(#SVGID_00000146481328048795646360000015874333081697324964_);}
	.st164{fill:url(#SVGID_00000010296583892865248870000016244553180554678938_);}
	.st165{fill:none;stroke:url(#SVGID_00000032630800945796563320000010070555305566581665_);stroke-width:5;stroke-miterlimit:10;}
	.st166{fill:url(#SVGID_00000005259297532171099530000016436390505299300767_);}
	.st167{fill:none;}
	.st168{opacity:0.67;fill:url(#SVGID_00000138560791418274784680000009261557590958447533_);}
	.st169{fill:url(#SVGID_00000084530983983943621480000005432006643861261965_);}
	.st170{fill:none;stroke:url(#SVGID_00000140713145727009115840000006596717931129310110_);stroke-width:5;stroke-miterlimit:10;}
	.st171{fill:url(#SVGID_00000110469610678901621590000008897766422005212307_);}
	.st172{opacity:0.67;fill:url(#SVGID_00000142177523853578727640000015019529599916176795_);}
	.st173{fill:url(#SVGID_00000075860151665912645270000005274764595180534460_);}
	.st174{opacity:0.67;fill:url(#SVGID_00000160911311019358157520000006652659887268034460_);}
	.st175{fill:url(#SVGID_00000176758411505950104570000015631385138855894664_);}
	.st176{opacity:0.67;fill:url(#SVGID_00000019672063206668788200000008095793347984806031_);}
	.st177{fill:url(#SVGID_00000155115615873008384240000011632394503309177750_);}
</style>
<g>
	<g>
		<g>
			<polygon class="st3" points="180.82,174 136.29,148.24 136.29,113.85 180.82,139.6 			"/>
			<polygon class="st2" points="180.82,174 198.08,164.96 198.08,130.56 180.82,139.6 			"/>
			<polygon class="st4" points="180.94,139.71 136.29,113.88 153.42,104.73 198.08,130.56 			"/>
		</g>
	</g>
</g>
<g>
	<g>
		<g>
			<polygon class="st3" points="230.52,202.8 185.99,177.04 185.99,142.65 230.52,168.4 			"/>
			<polygon class="st2" points="230.52,202.8 247.78,193.76 247.78,159.36 230.52,168.4 			"/>
			<polygon class="st4" points="230.64,168.51 185.99,142.68 203.12,133.53 247.78,159.36 			"/>
		</g>
	</g>
</g>
<g>
	<g>
		<g>
			<polygon class="st3" points="230.52,159.7 136.29,105.38 136.29,70.99 230.52,125.31 			"/>
			<linearGradient id="SVGID_1_" gradientUnits="userSpaceOnUse" x1="230.0174" y1="137.9848" x2="248.2753" y2="137.9848">
				<stop  offset="0" style="stop-color:#111422"/>
				<stop  offset="1" style="stop-color:#111422"/>
			</linearGradient>
			
				<polygon style="fill-rule:evenodd;clip-rule:evenodd;fill:#4AA089;stroke:url(#SVGID_1_);stroke-linecap:round;stroke-linejoin:round;stroke-miterlimit:10;" points="
				230.52,159.7 247.78,150.66 247.78,116.27 230.52,125.31 			"/>
			<polygon class="st4" points="230.64,125.41 136.29,71.02 153.42,61.87 247.78,116.26 			"/>
		</g>
	</g>
</g>
<g>
	<g>
		<g>
			<polygon class="st3" points="230.52,115.94 136.29,61.62 136.29,27.23 230.52,81.55 			"/>
			<polygon class="st2" points="230.52,115.94 247.78,106.9 247.78,72.51 230.52,81.55 			"/>
			<polygon class="st4" points="230.64,81.65 136.29,27.26 153.42,18.11 247.78,72.5 			"/>
		</g>
	</g>
</g>
<g>
	<polygon class="st2" points="225.04,135.16 143.66,88.37 143.66,82.78 225.04,129.57 	"/>
	<polygon class="st4" points="224.91,134.23 144.55,87.9 144.54,83.27 224.9,129.6 	"/>
	<polygon class="st14" points="201.81,120.33 145.03,87.73 145.02,84.11 201.8,116.82 	"/>
</g>
<g>
	<polygon class="st2" points="225.04,146.51 143.66,99.72 143.66,94.14 225.04,140.93 	"/>
	<polygon class="st4" points="224.91,145.58 144.55,99.25 144.54,94.62 224.9,140.95 	"/>
	<polygon class="st15" points="176.77,117.28 145.03,99.09 145.02,95.47 176.77,113.77 	"/>
</g>
<g>
	<g>
		<path class="st6" d="M142.82,55.69V38.38l5.4,3.05c1.04,0.59,1.92,1.34,2.65,2.25c0.73,0.91,1.29,1.92,1.68,3.02
			c0.39,1.1,0.58,2.22,0.58,3.37c0,1.15-0.2,2.05-0.59,2.71c-0.39,0.66-0.96,1.02-1.7,1.09c-0.74,0.07-1.64-0.19-2.69-0.78
			l-3.44-1.95v-2.93l2.98,1.68c0.56,0.31,1.02,0.45,1.38,0.41c0.36-0.04,0.64-0.23,0.82-0.56c0.18-0.34,0.27-0.79,0.27-1.35
			c0-0.58-0.09-1.13-0.27-1.66c-0.18-0.53-0.45-1.02-0.82-1.47c-0.37-0.45-0.83-0.83-1.39-1.15l-1.95-1.1v14.32L142.82,55.69z"/>
		<path class="st6" d="M154.96,62.55V49.57l2.76,1.56v2.26l0.11,0.06c0.19-0.7,0.5-1.13,0.94-1.3c0.44-0.16,0.95-0.09,1.52,0.24
			c0.14,0.08,0.3,0.18,0.46,0.29c0.17,0.12,0.31,0.23,0.44,0.34v3.19c-0.13-0.13-0.32-0.28-0.56-0.45
			c-0.24-0.17-0.45-0.32-0.65-0.43c-0.42-0.24-0.79-0.33-1.12-0.29c-0.33,0.04-0.59,0.21-0.78,0.51c-0.19,0.3-0.28,0.71-0.28,1.24
			v7.34L154.96,62.55z"/>
		<path class="st6" d="M166.82,69.5c-1.04-0.59-1.94-1.37-2.69-2.36c-0.76-0.99-1.34-2.1-1.75-3.34c-0.41-1.24-0.61-2.52-0.61-3.85
			c0-1.34,0.2-2.4,0.61-3.17c0.41-0.77,0.99-1.23,1.75-1.36c0.76-0.13,1.65,0.09,2.69,0.68s1.94,1.38,2.69,2.36
			c0.76,0.99,1.34,2.1,1.75,3.34c0.41,1.24,0.62,2.53,0.62,3.87c0,1.33-0.2,2.38-0.62,3.15c-0.41,0.77-0.99,1.23-1.75,1.36
			C168.76,70.32,167.86,70.09,166.82,69.5z M166.84,66.72c0.47,0.27,0.87,0.32,1.18,0.16c0.32-0.16,0.56-0.49,0.72-0.99
			c0.16-0.5,0.24-1.13,0.24-1.88s-0.08-1.47-0.24-2.16c-0.16-0.68-0.4-1.29-0.72-1.81c-0.32-0.52-0.71-0.92-1.18-1.18
			c-0.48-0.27-0.88-0.32-1.2-0.16c-0.32,0.16-0.57,0.49-0.73,0.99c-0.16,0.5-0.24,1.13-0.24,1.88s0.08,1.47,0.24,2.16
			s0.41,1.29,0.73,1.81C165.96,66.06,166.36,66.45,166.84,66.72z"/>
		<path class="st6" d="M173.74,78.03V60.18l2.81,1.59v2.18l0.13,0.07c0.12-0.28,0.31-0.53,0.54-0.76c0.24-0.23,0.55-0.36,0.94-0.38
			c0.39-0.03,0.87,0.12,1.44,0.45c0.75,0.42,1.44,1.06,2.07,1.91c0.63,0.85,1.14,1.88,1.52,3.08c0.38,1.2,0.57,2.55,0.57,4.04
			c0,1.45-0.18,2.56-0.55,3.35c-0.37,0.79-0.87,1.26-1.5,1.41c-0.63,0.15-1.34,0.01-2.12-0.43c-0.55-0.31-1.02-0.69-1.41-1.14
			c-0.39-0.45-0.7-0.92-0.95-1.41c-0.24-0.49-0.43-0.95-0.56-1.39l-0.09-0.05v6.95L173.74,78.03z M176.53,68.24
			c0,0.77,0.08,1.49,0.25,2.16c0.17,0.67,0.41,1.26,0.74,1.75c0.32,0.5,0.71,0.88,1.17,1.14c0.46,0.26,0.86,0.32,1.18,0.18
			c0.32-0.14,0.56-0.46,0.73-0.94c0.17-0.48,0.25-1.1,0.25-1.86c0-0.75-0.08-1.45-0.25-2.12c-0.17-0.66-0.41-1.25-0.73-1.75
			c-0.32-0.5-0.72-0.89-1.18-1.15c-0.46-0.26-0.86-0.33-1.17-0.2s-0.56,0.43-0.73,0.9C176.61,66.85,176.53,67.47,176.53,68.24z"/>
		<path class="st6" d="M190.29,82.76c-1.04-0.59-1.94-1.37-2.69-2.36c-0.76-0.99-1.34-2.1-1.75-3.34c-0.41-1.24-0.61-2.52-0.61-3.85
			c0-1.34,0.2-2.4,0.61-3.17c0.41-0.77,0.99-1.23,1.75-1.36c0.76-0.13,1.65,0.09,2.69,0.68c1.04,0.59,1.94,1.38,2.69,2.36
			s1.34,2.1,1.75,3.34c0.41,1.24,0.62,2.53,0.62,3.87c0,1.33-0.2,2.38-0.62,3.15c-0.41,0.77-0.99,1.23-1.75,1.36
			C192.23,83.58,191.33,83.35,190.29,82.76z M190.3,79.98c0.47,0.27,0.87,0.32,1.18,0.16c0.32-0.16,0.56-0.49,0.72-0.99
			c0.16-0.5,0.24-1.13,0.24-1.88s-0.08-1.47-0.24-2.16c-0.16-0.68-0.4-1.29-0.72-1.81c-0.32-0.52-0.71-0.92-1.18-1.18
			c-0.48-0.27-0.88-0.32-1.2-0.16c-0.32,0.16-0.57,0.49-0.73,0.99s-0.24,1.13-0.24,1.88c0,0.76,0.08,1.47,0.24,2.16
			c0.16,0.68,0.41,1.29,0.73,1.81C189.43,79.32,189.83,79.71,190.3,79.98z"/>
		<path class="st6" d="M205.75,81.97l-2.61-1.27c-0.04-0.31-0.14-0.62-0.29-0.93c-0.15-0.31-0.34-0.6-0.58-0.88
			c-0.24-0.27-0.52-0.5-0.85-0.69c-0.44-0.25-0.81-0.34-1.12-0.28c-0.3,0.06-0.45,0.29-0.45,0.68c0,0.31,0.1,0.63,0.29,0.95
			c0.2,0.33,0.53,0.69,1.01,1.08l1.86,1.52c1,0.82,1.74,1.66,2.23,2.51c0.49,0.85,0.74,1.75,0.74,2.68c0,0.85-0.2,1.48-0.59,1.9
			c-0.39,0.42-0.93,0.61-1.62,0.59c-0.69-0.03-1.47-0.3-2.36-0.8c-1.36-0.77-2.44-1.74-3.25-2.91c-0.8-1.17-1.28-2.42-1.41-3.74
			l2.8,1.4c0.08,0.57,0.29,1.09,0.61,1.54c0.33,0.46,0.74,0.83,1.25,1.12c0.5,0.28,0.9,0.39,1.21,0.31c0.3-0.07,0.46-0.3,0.46-0.69
			c0-0.33-0.11-0.66-0.33-0.99c-0.21-0.33-0.54-0.68-0.99-1.04L200,82.59c-1-0.82-1.75-1.68-2.24-2.58c-0.49-0.9-0.73-1.84-0.73-2.8
			c0-0.83,0.18-1.45,0.54-1.85c0.36-0.4,0.86-0.58,1.52-0.54c0.65,0.04,1.42,0.31,2.3,0.81c1.3,0.73,2.32,1.66,3.07,2.77
			C205.19,79.51,205.63,80.7,205.75,81.97z"/>
		<path class="st6" d="M210.72,94.29c-0.66-0.37-1.24-0.85-1.75-1.43c-0.51-0.58-0.92-1.24-1.21-1.98c-0.3-0.74-0.44-1.54-0.44-2.39
			c0-0.72,0.1-1.27,0.31-1.64c0.21-0.37,0.49-0.6,0.86-0.7c0.36-0.09,0.77-0.09,1.24,0.02c0.46,0.11,0.95,0.28,1.45,0.5
			c0.6,0.26,1.08,0.46,1.44,0.59c0.36,0.14,0.63,0.18,0.8,0.13c0.17-0.05,0.25-0.21,0.25-0.49v-0.05c0-0.53-0.13-1.02-0.4-1.47
			c-0.27-0.44-0.64-0.8-1.13-1.08c-0.51-0.29-0.92-0.38-1.22-0.26c-0.3,0.11-0.5,0.36-0.6,0.73l-2.64-1.76
			c0.13-0.71,0.4-1.25,0.79-1.6c0.39-0.36,0.9-0.51,1.52-0.48c0.62,0.04,1.34,0.29,2.16,0.75c0.57,0.32,1.12,0.72,1.64,1.18
			c0.52,0.46,0.99,0.99,1.4,1.57c0.41,0.59,0.73,1.22,0.97,1.91c0.24,0.69,0.35,1.42,0.35,2.19v8.75l-2.7-1.53v-1.8l-0.08-0.05
			c-0.17,0.31-0.39,0.54-0.66,0.69c-0.28,0.15-0.61,0.2-1,0.16C211.67,94.75,211.23,94.58,210.72,94.29z M211.53,92.27
			c0.42,0.24,0.79,0.34,1.11,0.31c0.32-0.03,0.57-0.17,0.76-0.43c0.18-0.26,0.27-0.61,0.27-1.07V89.7
			c-0.09,0.02-0.21,0.02-0.36-0.01c-0.15-0.03-0.33-0.07-0.52-0.13c-0.19-0.06-0.38-0.13-0.58-0.2c-0.19-0.07-0.37-0.14-0.52-0.2
			c-0.33-0.13-0.63-0.19-0.88-0.2c-0.25-0.01-0.44,0.07-0.58,0.22c-0.14,0.15-0.21,0.39-0.21,0.73c0,0.49,0.14,0.94,0.43,1.36
			C210.74,91.69,211.1,92.02,211.53,92.27z"/>
		<path class="st6" d="M221.56,82.87v17.31l-2.85-1.61V81.26L221.56,82.87z"/>
	</g>
</g>
<g>
	<path class="st6" d="M197.65,160.9l1.83,8.29l0.07,0.04l1.83-6.22l1.77,1l-2.6,8.08l-2.06-1.16l-2.61-11.02L197.65,160.9z"/>
	<path class="st6" d="M205.94,175.27c-0.57-0.32-1.07-0.76-1.49-1.3s-0.74-1.16-0.96-1.84c-0.23-0.68-0.34-1.39-0.34-2.12
		c0-0.74,0.11-1.32,0.34-1.75c0.23-0.43,0.55-0.68,0.96-0.75c0.42-0.07,0.91,0.05,1.49,0.38c0.57,0.32,1.07,0.76,1.48,1.3
		c0.42,0.55,0.74,1.16,0.97,1.84c0.23,0.68,0.34,1.39,0.34,2.13c0,0.73-0.11,1.31-0.34,1.74s-0.55,0.68-0.97,0.75
		C207.01,175.72,206.52,175.59,205.94,175.27z M205.95,173.73c0.26,0.15,0.48,0.18,0.65,0.09s0.31-0.27,0.4-0.55
		c0.09-0.28,0.13-0.62,0.13-1.04c0-0.42-0.04-0.81-0.13-1.19s-0.22-0.71-0.4-1c-0.17-0.29-0.39-0.51-0.65-0.65
		c-0.26-0.15-0.48-0.18-0.66-0.09c-0.18,0.09-0.31,0.27-0.4,0.55c-0.09,0.28-0.13,0.62-0.13,1.04c0,0.42,0.04,0.81,0.13,1.19
		c0.09,0.38,0.22,0.71,0.4,1C205.47,173.37,205.69,173.59,205.95,173.73z"/>
	<path class="st6" d="M212.77,171.83v1.49l-3.41-1.93v-1.49L212.77,171.83z M210.13,168.62l1.57,0.89v6.68
		c0,0.18,0.02,0.34,0.07,0.46c0.04,0.13,0.11,0.23,0.19,0.32c0.08,0.09,0.17,0.16,0.28,0.22c0.07,0.04,0.15,0.07,0.22,0.1
		s0.13,0.04,0.17,0.06l0.25,1.62c-0.08-0.01-0.19-0.04-0.33-0.08c-0.14-0.04-0.32-0.11-0.52-0.22c-0.38-0.2-0.71-0.45-0.99-0.75
		c-0.28-0.31-0.51-0.66-0.66-1.05c-0.16-0.4-0.23-0.83-0.23-1.3V168.62z"/>
	<path class="st6" d="M216.32,181.13c-0.58-0.33-1.08-0.76-1.5-1.3c-0.42-0.54-0.74-1.14-0.97-1.82c-0.23-0.68-0.34-1.4-0.34-2.15
		c0-0.74,0.11-1.32,0.34-1.75c0.23-0.43,0.55-0.68,0.96-0.76c0.41-0.08,0.9,0.04,1.45,0.35c0.37,0.21,0.72,0.48,1.05,0.82
		c0.32,0.33,0.61,0.72,0.85,1.16c0.24,0.44,0.43,0.92,0.57,1.46c0.14,0.53,0.2,1.1,0.2,1.71v0.55l-4.79-2.7v-1.23l3.31,1.87
		c0-0.29-0.05-0.57-0.15-0.84c-0.1-0.28-0.23-0.53-0.41-0.75c-0.17-0.22-0.37-0.4-0.6-0.53c-0.24-0.13-0.45-0.18-0.63-0.15
		c-0.18,0.03-0.33,0.14-0.43,0.31s-0.16,0.4-0.16,0.68v1.17c0,0.35,0.05,0.69,0.16,1.01c0.1,0.32,0.25,0.6,0.44,0.85
		s0.42,0.45,0.68,0.6c0.17,0.1,0.33,0.16,0.48,0.18c0.15,0.02,0.27,0,0.37-0.07c0.1-0.07,0.18-0.17,0.24-0.32l1.45,0.94
		c-0.07,0.4-0.22,0.7-0.45,0.9c-0.23,0.2-0.52,0.29-0.88,0.27S216.79,181.39,216.32,181.13z"/>
</g>
<g>
	<path class="st6" d="M144.12,126.04l1.69,6.99l0.07,0.04l1.69-5.09l0.72,0.41l-2.09,6l-0.71-0.4l-2.09-8.36L144.12,126.04z"/>
	<path class="st6" d="M153.7,135.04c0,0.76-0.11,1.35-0.32,1.78s-0.51,0.69-0.89,0.77c-0.38,0.09-0.81-0.01-1.29-0.28
		c-0.48-0.27-0.92-0.67-1.29-1.18c-0.38-0.51-0.67-1.1-0.89-1.78c-0.22-0.67-0.32-1.39-0.32-2.15s0.11-1.35,0.32-1.78
		c0.22-0.43,0.51-0.69,0.89-0.77c0.38-0.09,0.81,0.01,1.29,0.28c0.48,0.27,0.92,0.67,1.29,1.18c0.38,0.51,0.67,1.11,0.89,1.78
		S153.7,134.28,153.7,135.04z M153.03,134.66c0-0.62-0.08-1.19-0.25-1.71c-0.16-0.52-0.38-0.97-0.66-1.35s-0.59-0.66-0.93-0.86
		c-0.34-0.19-0.65-0.26-0.93-0.2s-0.5,0.26-0.66,0.6c-0.16,0.33-0.25,0.81-0.25,1.43c0,0.62,0.08,1.19,0.25,1.71
		s0.38,0.97,0.66,1.35s0.59,0.66,0.93,0.86c0.34,0.19,0.66,0.26,0.93,0.2c0.28-0.06,0.5-0.26,0.66-0.6S153.03,135.28,153.03,134.66z
		"/>
	<path class="st6" d="M154.31,132.57v-0.77l4.26,2.41v0.77l-1.79-1.01v6.41l-0.69-0.39v-6.41L154.31,132.57z"/>
	<path class="st6" d="M160.32,135.19v7.18l-0.69-0.39v-7.18L160.32,135.19z"/>
	<path class="st6" d="M166.2,138.51v7.18l-0.67-0.38l-3.1-7.38l-0.06-0.03v5.63l-0.69-0.39v-7.18l0.67,0.38l3.11,7.4l0.06,0.03
		v-5.65L166.2,138.51z"/>
	<path class="st6" d="M171.46,143.73c-0.06-0.27-0.14-0.53-0.24-0.77c-0.1-0.24-0.22-0.47-0.35-0.68c-0.14-0.21-0.29-0.4-0.46-0.57
		c-0.17-0.17-0.36-0.31-0.57-0.42c-0.34-0.19-0.64-0.25-0.92-0.19c-0.28,0.06-0.49,0.26-0.66,0.6c-0.16,0.33-0.24,0.81-0.24,1.44
		s0.08,1.19,0.25,1.71c0.16,0.52,0.39,0.97,0.67,1.35c0.28,0.38,0.6,0.67,0.95,0.87c0.33,0.18,0.61,0.26,0.86,0.22
		c0.25-0.04,0.44-0.18,0.58-0.42c0.14-0.25,0.21-0.59,0.21-1.03l0.21,0.18l-1.71-0.97v-0.77l2.16,1.22v0.77
		c0,0.59-0.1,1.05-0.3,1.37s-0.47,0.51-0.82,0.55s-0.75-0.06-1.2-0.32c-0.5-0.28-0.94-0.68-1.32-1.2c-0.38-0.51-0.68-1.11-0.89-1.78
		c-0.21-0.67-0.32-1.39-0.32-2.14c0-0.57,0.06-1.04,0.18-1.43c0.12-0.38,0.29-0.68,0.51-0.87s0.48-0.29,0.79-0.29s0.64,0.1,1,0.31
		c0.3,0.17,0.58,0.38,0.84,0.64c0.26,0.26,0.49,0.55,0.7,0.87s0.38,0.67,0.51,1.03c0.14,0.36,0.23,0.73,0.28,1.11L171.46,143.73z"/>
	<path class="st6" d="M143.89,144.93v-7.18l1.92,1.08c0.45,0.25,0.81,0.56,1.09,0.92s0.49,0.75,0.63,1.17
		c0.14,0.42,0.21,0.84,0.21,1.27s-0.07,0.77-0.2,1.04c-0.14,0.27-0.35,0.43-0.63,0.47c-0.28,0.04-0.65-0.06-1.09-0.31l-1.38-0.78
		v-0.77l1.35,0.77c0.3,0.17,0.55,0.24,0.73,0.21c0.19-0.03,0.32-0.13,0.4-0.31c0.08-0.18,0.13-0.41,0.13-0.7s-0.04-0.57-0.13-0.84
		c-0.08-0.27-0.22-0.53-0.41-0.76c-0.19-0.23-0.43-0.44-0.74-0.61l-1.21-0.68v6.41L143.89,144.93z"/>
	<path class="st6" d="M153.64,146.85c0,0.76-0.11,1.35-0.32,1.78s-0.51,0.69-0.89,0.77c-0.38,0.09-0.81-0.01-1.29-0.28
		c-0.48-0.27-0.92-0.67-1.29-1.18c-0.38-0.51-0.67-1.11-0.89-1.78c-0.22-0.67-0.32-1.39-0.32-2.15s0.11-1.35,0.32-1.78
		c0.22-0.43,0.51-0.69,0.89-0.77c0.38-0.08,0.81,0.01,1.29,0.28c0.48,0.27,0.92,0.67,1.29,1.18c0.38,0.51,0.67,1.1,0.89,1.78
		S153.64,146.09,153.64,146.85z M152.98,146.47c0-0.62-0.08-1.19-0.25-1.71c-0.16-0.52-0.38-0.97-0.66-1.35
		c-0.28-0.38-0.59-0.66-0.93-0.86c-0.34-0.19-0.65-0.26-0.93-0.2s-0.5,0.26-0.66,0.6s-0.25,0.81-0.25,1.43
		c0,0.62,0.08,1.19,0.25,1.71c0.16,0.52,0.38,0.97,0.66,1.35s0.59,0.66,0.93,0.86c0.34,0.19,0.66,0.26,0.93,0.2
		c0.28-0.06,0.5-0.26,0.66-0.6C152.9,147.57,152.98,147.09,152.98,146.47z"/>
	<path class="st6" d="M155.83,151.67l-1.55-8.05l0.7,0.39l1.19,6.52l0.06,0.03l1.21-5.16l0.78,0.44l1.21,6.53l0.06,0.03l1.19-5.17
		l0.7,0.39l-1.55,6.3l-0.71-0.4l-1.25-6.43l-0.04-0.03l-1.25,5.01L155.83,151.67z"/>
	<path class="st6" d="M162.21,155.28v-7.18l3.43,1.94v0.77l-2.74-1.55v2.42l2.56,1.45v0.77l-2.56-1.45v2.44l2.78,1.57v0.77
		L162.21,155.28z"/>
	<path class="st6" d="M166.88,157.91v-7.18l1.92,1.08c0.44,0.25,0.81,0.55,1.09,0.9c0.28,0.35,0.5,0.73,0.63,1.14
		c0.14,0.41,0.21,0.82,0.21,1.25s-0.07,0.76-0.21,1.01c-0.14,0.25-0.35,0.39-0.63,0.41c-0.28,0.03-0.64-0.09-1.08-0.33l-1.55-0.88
		v-0.79l1.53,0.87c0.3,0.17,0.55,0.25,0.73,0.25c0.19-0.01,0.32-0.09,0.41-0.25c0.08-0.16,0.13-0.38,0.13-0.67s-0.04-0.56-0.13-0.83
		c-0.08-0.26-0.22-0.51-0.41-0.73c-0.19-0.22-0.43-0.42-0.74-0.6l-1.21-0.68v6.41L166.88,157.91z M169.55,156.2l1.4,4.01l-0.8-0.45
		l-1.38-4L169.55,156.2z"/>
</g>
<g>
	<g>
		<path id="矩形_00000169527028069309256470000001918891734398171815_" class="st82" d="M137.17,192.37L137.17,192.37
			c0.62,0,1.15,0.76,1.15,1.64v1.52c0,0.88-0.53,1.64-1.15,1.64l0,0c-0.62,0-1.15-0.76-1.15-1.64v-1.52
			C136.02,193.07,136.55,192.37,137.17,192.37z"/>
		
			<radialGradient id="SVGID_00000075132736103064647070000006347864964798412973_" cx="105.6287" cy="226.4999" r="29.1582" gradientTransform="matrix(1 0 0 0.5898 0 92.9118)" gradientUnits="userSpaceOnUse">
			<stop  offset="0" style="stop-color:#06070C"/>
			<stop  offset="1" style="stop-color:#0D101D;stop-opacity:0"/>
		</radialGradient>
		<path style="opacity:0.67;fill:url(#SVGID_00000075132736103064647070000006347864964798412973_);" d="M130.63,212.43
			c-13.68-7.9-35.96-8-49.77-0.23c-13.81,7.77-13.91,20.48-0.23,28.37s35.96,8,49.77,0.23C144.2,233.03,144.31,220.32,130.63,212.43
			z"/>
		<g>
			<path class="st84" d="M144.13,176.4v-49.28c0-0.23,0.02-0.45,0.02-0.68c0-22.91-18.57-41.48-41.48-41.48
				c-22.91,0-41.48,18.57-41.48,41.48c0,0.36,0.02,0.72,0.03,1.07v44.66h-0.03v22.67c0,2.84,2.3,5.15,5.15,5.15
				c2.84,0,5.15-2.31,5.15-5.15v-0.83c0.56,0.36,1.13,0.72,1.74,1.07c1.83,1.06,3.79,1.99,5.85,2.81v8.2c0,2.84,2.3,5.15,5.15,5.15
				c2.84,0,5.15-2.31,5.15-5.15v-5.23c2.95,0.57,5.99,0.96,9.06,1.14v12.59c0,2.84,2.3,5.15,5.15,5.15c2.84,0,5.15-2.31,5.15-5.15
				v-12.7c3.39-0.28,6.73-0.8,9.93-1.55v6.36c0,2.84,2.3,5.15,5.15,5.15c2.84,0,5.15-2.31,5.15-5.15v-9.87
				c1-0.47,1.97-0.96,2.91-1.49c0.7-0.39,1.35-0.8,1.99-1.21v0.71c0,2.84,2.3,5.15,5.15,5.15c2.84,0,5.15-2.31,5.15-5.15V176.4
				H144.13z"/>
			
				<radialGradient id="SVGID_00000098909208127994704020000003437347142972844193_" cx="127.3514" cy="102.3792" r="106.6854" gradientUnits="userSpaceOnUse">
				<stop  offset="0.0124" style="stop-color:#DD78CE"/>
				<stop  offset="0.4936" style="stop-color:#A7589A"/>
				<stop  offset="0.5829" style="stop-color:#A0619E"/>
				<stop  offset="0.7273" style="stop-color:#8E79A8"/>
				<stop  offset="0.9078" style="stop-color:#709FB9"/>
				<stop  offset="1" style="stop-color:#5EB6C3"/>
			</radialGradient>
			<path style="fill:url(#SVGID_00000098909208127994704020000003437347142972844193_);" d="M144.13,176.4v-49.28
				c0-0.23,0.02-0.45,0.02-0.68c0-22.91-18.57-41.48-41.48-41.48c-22.91,0-41.48,18.57-41.48,41.48c0,0.36,0.02,0.72,0.03,1.07
				v44.66h-0.03v22.67c0,2.84,2.3,5.15,5.15,5.15c2.84,0,5.15-2.31,5.15-5.15v-0.83c0.56,0.36,1.13,0.72,1.74,1.07
				c1.83,1.06,3.79,1.99,5.85,2.81v8.2c0,2.84,2.3,5.15,5.15,5.15c2.84,0,5.15-2.31,5.15-5.15v-5.23c2.95,0.57,5.99,0.96,9.06,1.14
				v12.59c0,2.84,2.3,5.15,5.15,5.15c2.84,0,5.15-2.31,5.15-5.15v-12.7c3.39-0.28,6.73-0.8,9.93-1.55v6.36
				c0,2.84,2.3,5.15,5.15,5.15c2.84,0,5.15-2.31,5.15-5.15v-9.87c1-0.47,1.97-0.96,2.91-1.49c0.7-0.39,1.35-0.8,1.99-1.21v0.71
				c0,2.84,2.3,5.15,5.15,5.15c2.84,0,5.15-2.31,5.15-5.15V176.4H144.13z"/>
		</g>
		<path id="矩形_00000056392486459201434140000004309812413417487002_" class="st82" d="M65.08,162.55L65.08,162.55
			c1.12,0,2.09,1.38,2.09,2.99v14.25c0,1.61-0.96,2.99-2.09,2.99l0,0c-1.12,0-2.09-1.38-2.09-2.99v-14.25
			C62.99,163.93,63.96,162.55,65.08,162.55z"/>
		<path id="矩形_00000047747777044377615860000013395766816638228397_" class="st82" d="M126.38,99.47L126.38,99.47
			c1.37-1.02,3.68-0.37,5.02,1.41l2.29,3.06c1.34,1.78,1.31,4.19-0.06,5.22l0,0c-1.37,1.02-3.68,0.37-5.02-1.41l-2.29-3.06
			C124.89,102.77,125.01,100.49,126.38,99.47z"/>
		<path id="矩形_00000030450932265954866670000009175473427830551991_" class="st82" d="M82.48,199.14L82.48,199.14
			c1.12,0,2.09,1.38,2.09,2.99v2.76c0,1.61-0.96,2.99-2.09,2.99l0,0c-1.12,0-2.09-1.38-2.09-2.99v-2.76
			C80.39,200.41,81.35,199.14,82.48,199.14z"/>
		<path id="矩形_00000155824922256934778980000015744956832866406788_" class="st82" d="M65.08,187.42L65.08,187.42
			c1.12,0,2.09,1.38,2.09,2.99v2.76c0,1.61-0.96,2.99-2.09,2.99l0,0c-1.12,0-2.09-1.38-2.09-2.99v-2.76
			C62.99,188.69,63.96,187.42,65.08,187.42z"/>
		<path id="矩形_00000046334811197028129200000005292998605554792117_" class="st82" d="M102.67,207.88L102.67,207.88
			c1.12,0,2.09,1.38,2.09,2.99v2.76c0,1.61-0.96,2.99-2.09,2.99l0,0c-1.12,0-2.09-1.38-2.09-2.99v-2.76
			C100.58,209.15,101.54,207.88,102.67,207.88z"/>
		<path id="矩形_00000175313800328074635670000005835987111743203992_" class="st82" d="M122.37,202.54L122.37,202.54
			c0.89,0,1.66,1.1,1.66,2.37v2.19c0,1.28-0.76,2.37-1.66,2.37l0,0c-0.89,0-1.66-1.1-1.66-2.37v-2.19
			C120.71,203.54,121.48,202.54,122.37,202.54z"/>
		<g>
			<path id="椭圆形_00000047059214400394731210000002573708868156606615_" class="st86" d="M114.54,148.92
				c4.06-0.17,7.1-3.66,7.09-6c0-0.94-0.55-1.75-1.38-1.81c-1.29-0.13-3.23,0.7-5.72,0.8c-2.31,0.1-3.78-0.5-5.53-0.42
				c-1.84,0.08-1.75,2.22-1.47,3.06C108.18,146.85,110.39,149.1,114.54,148.92z"/>
			<path id="椭圆形_00000139974931408218708560000010494312685410277540_" class="st87" d="M114.63,146.95
				c4.15-0.17,7.19-3.38,7.19-5.63c0-0.84-0.55-1.57-1.38-1.63c-1.29-0.13-3.32,0.7-5.81,0.8c-2.4,0.1-3.78-0.5-5.62-0.43
				s-1.75,2.13-1.48,2.87C108.17,145.07,110.48,147.12,114.63,146.95z"/>
		</g>
		<g>
			
				<ellipse transform="matrix(0.5671 -0.8237 0.8237 0.5671 -61.0821 134.7011)" class="st87" cx="97.59" cy="125.45" rx="9.5" ry="9.1"/>
			<path id="形状结合_00000158728764820681574220000015796503697865619883_" class="st88" d="M98.79,115.49
				c4.24-0.18,7.66,3.98,7.66,9.22c0,0.19,0,0.37,0,0.56l0,0.56c0-5.33-3.33-9.59-7.48-9.42c-4.15,0.17-7.46,4.61-7.46,10.04
				c0,1.03,0.09,2.05,0.37,2.98c-0.46-1.2-0.74-2.59-0.74-3.99C91.14,120.11,94.55,115.67,98.79,115.49z"/>
			<path id="形状结合_00000085213417394875148850000007585934158884386975_" class="st89" d="M98.79,114.37
				c4.7-0.2,8.58,4.41,8.58,10.31c0.01,5.89-3.86,10.83-8.57,11.02c-4.7,0.2-8.58-4.41-8.58-10.31
				C90.22,119.49,94,114.57,98.79,114.37z M98.79,115.49c-4.24,0.18-7.65,4.62-7.64,9.86c0,5.24,3.42,9.4,7.66,9.22
				c4.24-0.18,7.65-4.62,7.64-9.86C106.45,119.47,102.94,115.32,98.79,115.49z"/>
		</g>
		<g>
			
				<ellipse transform="matrix(0.5671 -0.8237 0.8237 0.5671 -46.6469 159.4043)" class="st87" cx="128.31" cy="124.07" rx="9.5" ry="9.1"/>
			<path id="形状结合_00000088852681981484420430000016684762649850791348_" class="st88" d="M129.3,114.12
				c4.24-0.18,7.66,3.98,7.66,9.22c0,0.19,0,0.37,0,0.56l0,0.56c0-5.33-3.33-9.59-7.48-9.42c-4.15,0.17-7.46,4.61-7.46,10.04
				c0,1.03,0.09,2.05,0.37,2.98c-0.46-1.2-0.74-2.59-0.74-3.99C121.65,118.74,125.06,114.29,129.3,114.12z"/>
			<path id="形状结合_00000139283552735497278200000002046098872691043508_" class="st89" d="M129.3,112.99
				c4.7-0.2,8.58,4.41,8.58,10.31s-3.86,10.83-8.57,11.02c-4.7,0.2-8.58-4.41-8.58-10.31C120.73,118.12,124.51,113.19,129.3,112.99z
				 M129.3,114.12c-4.24,0.18-7.65,4.62-7.64,9.86c0,5.24,3.42,9.4,7.66,9.22c4.24-0.18,7.65-4.62,7.64-9.86
				C136.96,118.1,133.45,113.94,129.3,114.12z"/>
		</g>
		<circle class="st86" cx="102.57" cy="123.32" r="3.77"/>
		<circle class="st86" cx="133.11" cy="122.19" r="3.77"/>
	</g>
</g>
</svg>
