<?xml version="1.0" encoding="utf-8"?>
<!-- Generator: Adobe Illustrator 27.8.1, SVG Export Plug-In . SVG Version: 6.00 Build 0)  -->
<svg version="1.1" id="Слой_1" xmlns="http://www.w3.org/2000/svg" xmlns:xlink="http://www.w3.org/1999/xlink" x="0px" y="0px"
	 viewBox="0 0 290 269.62" style="enable-background:new 0 0 290 269.62;" xml:space="preserve">
<style type="text/css">
	.st0{stroke:#000000;stroke-linecap:round;stroke-linejoin:round;stroke-miterlimit:10;}
	.st1{fill:#222846;stroke:#000000;stroke-linecap:round;stroke-linejoin:round;stroke-miterlimit:10;}
	.st2{fill-rule:evenodd;clip-rule:evenodd;stroke:#000000;stroke-linecap:round;stroke-linejoin:round;stroke-miterlimit:10;}
	
		.st3{fill-rule:evenodd;clip-rule:evenodd;fill:#222846;stroke:#000000;stroke-linecap:round;stroke-linejoin:round;stroke-miterlimit:10;}
	
		.st4{fill-rule:evenodd;clip-rule:evenodd;fill:#4A5479;stroke:#000000;stroke-linecap:round;stroke-linejoin:round;stroke-miterlimit:10;}
	.st5{fill-rule:evenodd;clip-rule:evenodd;fill:#5C6A91;}
	.st6{fill:#6D75A2;}
	.st7{stroke:#1A213A;stroke-linecap:round;stroke-linejoin:round;stroke-miterlimit:10;}
	.st8{stroke:#4A5479;stroke-linecap:round;stroke-linejoin:round;stroke-miterlimit:10;}
	.st9{fill:url(#SVGID_1_);}
	.st10{fill:url(#SVGID_00000155108139211318206550000015854726058089611168_);}
	.st11{fill:url(#SVGID_00000072271615442636328280000013694953756883755422_);}
	
		.st12{fill:none;stroke:url(#SVGID_00000054251100111571571100000004265413310893511066_);stroke-width:5;stroke-linecap:round;stroke-linejoin:round;stroke-miterlimit:10;}
	.st13{fill:url(#SVGID_00000147222049088149242430000013428370499273747855_);}
	.st14{fill-rule:evenodd;clip-rule:evenodd;fill:#1AD4B3;}
	.st15{fill-rule:evenodd;clip-rule:evenodd;fill:#FC4F83;}
	.st16{fill:#4A5479;stroke:#000000;stroke-linecap:round;stroke-linejoin:round;stroke-miterlimit:10;}
	
		.st17{fill:url(#SVGID_00000083061353280979400250000003156317013431152519_);stroke:#1D1D1B;stroke-width:0.2115;stroke-linecap:round;stroke-linejoin:round;stroke-miterlimit:10;}
	.st18{fill-rule:evenodd;clip-rule:evenodd;}
	
		.st19{fill:url(#SVGID_00000023959899552332152350000000413943165188207799_);stroke:#1D1D1B;stroke-width:0.2115;stroke-linecap:round;stroke-linejoin:round;stroke-miterlimit:10;}
	
		.st20{fill:url(#SVGID_00000161621277392778144400000004587944131118120370_);stroke:#1D1D1B;stroke-width:0.2115;stroke-linecap:round;stroke-linejoin:round;stroke-miterlimit:10;}
	
		.st21{fill:url(#SVGID_00000145755757954943365700000002374932920269939608_);stroke:#1D1D1B;stroke-width:0.2115;stroke-linecap:round;stroke-linejoin:round;stroke-miterlimit:10;}
	.st22{fill-rule:evenodd;clip-rule:evenodd;fill:url(#SVGID_00000013896154375770747880000004479368541541915032_);}
	.st23{fill-rule:evenodd;clip-rule:evenodd;fill:url(#SVGID_00000137838777187993513450000016360780224932336777_);}
	.st24{fill:url(#SVGID_00000139275979457868051270000007323131594211370907_);}
	.st25{fill:url(#SVGID_00000142856647425064665070000017337883938111084931_);}
	.st26{fill:url(#SVGID_00000130613055927730945980000016850244500651990938_);}
	
		.st27{fill-rule:evenodd;clip-rule:evenodd;fill:#4AA089;stroke:url(#SVGID_00000000194244220019607150000017859312029915433866_);stroke-linecap:round;stroke-linejoin:round;stroke-miterlimit:10;}
	
		.st28{fill-rule:evenodd;clip-rule:evenodd;fill:#4AA089;stroke:url(#SVGID_00000085243595753761774780000015698886212729382839_);stroke-linecap:round;stroke-linejoin:round;stroke-miterlimit:10;}
	
		.st29{fill:none;stroke:url(#SVGID_00000139279711818902336170000005604661268035804802_);stroke-width:5;stroke-linecap:round;stroke-linejoin:round;stroke-miterlimit:10;}
	.st30{fill:url(#SVGID_00000130631182949107620550000003763469082913287349_);}
	
		.st31{fill:none;stroke:url(#SVGID_00000026148953559672946090000001920057604871074197_);stroke-width:5;stroke-linecap:round;stroke-linejoin:round;stroke-miterlimit:10;}
	.st32{fill:url(#SVGID_00000137124281628394225260000018173659881545957802_);}
	
		.st33{fill:none;stroke:url(#SVGID_00000062872462273642812780000010209189742985913989_);stroke-width:5;stroke-linecap:round;stroke-linejoin:round;stroke-miterlimit:10;}
	.st34{fill:url(#SVGID_00000039094041218676830460000015343499350012311172_);}
	.st35{fill:#4A5479;}
	
		.st36{fill-rule:evenodd;clip-rule:evenodd;fill:#1AD4B3;stroke:#111422;stroke-linecap:round;stroke-linejoin:round;stroke-miterlimit:10;}
	
		.st37{fill-rule:evenodd;clip-rule:evenodd;fill:#4AA089;stroke:url(#SVGID_00000016075173116361542730000015298512767175528633_);stroke-linecap:round;stroke-linejoin:round;stroke-miterlimit:10;}
	.st38{fill:#FFFFFF;}
	
		.st39{fill-rule:evenodd;clip-rule:evenodd;fill:#FC4F83;stroke:#111422;stroke-linecap:round;stroke-linejoin:round;stroke-miterlimit:10;}
	
		.st40{fill-rule:evenodd;clip-rule:evenodd;fill:#CB3D61;stroke:#000000;stroke-linecap:round;stroke-linejoin:round;stroke-miterlimit:10;}
	.st41{fill:url(#SVGID_00000115508019225728813990000017244035300671495609_);}
	.st42{fill:url(#SVGID_00000002360036636222081450000009215979790001107639_);}
	.st43{fill:url(#SVGID_00000172439447549623320250000017093916223639414203_);}
	
		.st44{fill:none;stroke:url(#SVGID_00000012455913163281511510000010219042247933190302_);stroke-width:5;stroke-linecap:round;stroke-linejoin:round;stroke-miterlimit:10;}
	.st45{fill:url(#SVGID_00000049925927570012095340000014416333062664535453_);}
	
		.st46{fill:none;stroke:url(#SVGID_00000127018130166148503510000010875239407779069579_);stroke-width:5;stroke-linecap:round;stroke-linejoin:round;stroke-miterlimit:10;}
	.st47{fill:url(#SVGID_00000034793049361154284490000009644558864655466376_);}
	.st48{fill:url(#SVGID_00000049900839244960496580000000461743574401495980_);}
	.st49{fill:#222846;}
	.st50{fill:url(#SVGID_00000000218582811984094790000014978066852698571940_);}
	.st51{fill:url(#SVGID_00000093855756367623738750000016140054451069397673_);}
	.st52{fill:url(#SVGID_00000011009690706938436930000003920670110181457832_);}
	.st53{fill:url(#SVGID_00000055692261487861260000000015047112982973178246_);}
	.st54{fill:url(#SVGID_00000097481462284604066790000002036781785479910833_);}
	.st55{fill:url(#SVGID_00000002370673931892401430000009842008024984087742_);}
	.st56{fill-rule:evenodd;clip-rule:evenodd;fill:#6D75A2;}
	.st57{fill-rule:evenodd;clip-rule:evenodd;fill:#4A5479;}
	.st58{opacity:0.29;fill:url(#SVGID_00000134937794727504308670000006253885629874168194_);enable-background:new    ;}
	.st59{fill:url(#SVGID_00000100342764858277836210000001227187217421364362_);}
	.st60{fill:url(#SVGID_00000028317883392652761800000001933336882906911661_);}
	.st61{fill:url(#SVGID_00000142855548195677943920000009025011967156573619_);}
	.st62{fill-rule:evenodd;clip-rule:evenodd;fill:url(#SVGID_00000001622151085633593070000004320161632483512222_);}
	.st63{fill:url(#SVGID_00000065058611985230749860000007246757609935720366_);}
	.st64{fill:url(#SVGID_00000007413142795524720850000017234491632050162109_);}
	.st65{fill:url(#SVGID_00000054959549518268375310000001732540079398724269_);}
	.st66{fill:url(#SVGID_00000006689380608600037790000011622829041565387155_);}
	.st67{opacity:0.29;fill:url(#SVGID_00000167367344026688639960000017406473630546732713_);enable-background:new    ;}
	.st68{fill-rule:evenodd;clip-rule:evenodd;fill:#222846;}
	
		.st69{fill:none;stroke:url(#SVGID_00000159469583935347063280000003654815980284386980_);stroke-width:5;stroke-linecap:round;stroke-linejoin:round;stroke-miterlimit:10;}
	.st70{fill:url(#SVGID_00000169530014235699012960000011711342879532855230_);}
	
		.st71{fill:none;stroke:url(#SVGID_00000067958626339803156000000006506548761524880317_);stroke-width:5;stroke-linecap:round;stroke-linejoin:round;stroke-miterlimit:10;}
	.st72{fill:url(#SVGID_00000122717742397587831650000014225315910961654927_);}
	
		.st73{fill:none;stroke:url(#SVGID_00000148637933764023245860000016051103530456152492_);stroke-width:5;stroke-linecap:round;stroke-linejoin:round;stroke-miterlimit:10;}
	.st74{fill:url(#SVGID_00000014602518101378890570000014084316791162282650_);}
	
		.st75{fill-rule:evenodd;clip-rule:evenodd;fill:#4AA089;stroke:url(#SVGID_00000034084544174020935540000003022966966050189500_);stroke-linecap:round;stroke-linejoin:round;stroke-miterlimit:10;}
	.st76{fill-rule:evenodd;clip-rule:evenodd;fill:url(#SVGID_00000008121515384417622880000008793423394646956979_);}
	.st77{fill:url(#SVGID_00000091016560687015851020000007569857037542666917_);}
	.st78{fill:url(#SVGID_00000039107948153738402400000004621102170937641349_);}
	.st79{fill:url(#SVGID_00000175289005574000574570000006945306077220970147_);}
	.st80{opacity:0.29;fill:url(#SVGID_00000044887308395951332160000003472171761692250537_);}
	.st81{opacity:0.29;fill:url(#SVGID_00000050634237270444412250000009391014768588276374_);}
	.st82{opacity:0.2563;fill-rule:evenodd;clip-rule:evenodd;fill:#FFFFFF;enable-background:new    ;}
	.st83{opacity:0.67;fill:url(#SVGID_00000152960845631063559820000000649725268055441053_);}
	.st84{fill:#3FA9BD;}
	.st85{fill:url(#SVGID_00000008832077345192188060000011574065016220542096_);}
	.st86{fill-rule:evenodd;clip-rule:evenodd;fill:#555069;}
	.st87{fill-rule:evenodd;clip-rule:evenodd;fill:#FFFFFF;}
	.st88{fill-rule:evenodd;clip-rule:evenodd;fill:#AFAFB1;}
	.st89{fill-rule:evenodd;clip-rule:evenodd;fill:#D3D3D3;}
	.st90{opacity:0.67;fill:url(#SVGID_00000011717610424352546270000017019865011789774008_);}
	.st91{fill:url(#SVGID_00000118394220448427666940000006855876847994325145_);}
	.st92{opacity:0.67;fill:url(#SVGID_00000119100194791515642020000008684433184878377091_);}
	.st93{fill:url(#SVGID_00000154428204093261382540000007458368265356753579_);}
	.st94{opacity:0.67;fill:url(#SVGID_00000151515535004753964780000001641708812042020757_);}
	.st95{fill:url(#SVGID_00000057105771968346037900000009727519313939330484_);}
	.st96{opacity:0.67;fill:url(#SVGID_00000039102367643061989810000011234361774365852337_);}
	.st97{fill:url(#SVGID_00000043456332796690203000000003476150381587933581_);}
	.st98{opacity:0.67;fill:url(#SVGID_00000019671762690522132670000016893805123055261606_);}
	.st99{fill:url(#SVGID_00000142869168380993937330000007843943000421329061_);}
	.st100{fill:#1AD4B3;}
	.st101{opacity:0.67;fill:url(#SVGID_00000121246802503884605700000012555444132362247856_);}
	.st102{fill:url(#SVGID_00000176040513430439008250000004687319707169375652_);}
	.st103{opacity:0.67;fill:url(#SVGID_00000023283442452772346360000000091673976249515189_);}
	.st104{fill:url(#SVGID_00000036231982260167164450000007815064979761100189_);}
	.st105{opacity:0.67;fill:url(#SVGID_00000137810927996484317980000017079899127660344198_);}
	.st106{fill:url(#SVGID_00000008140901856221937570000001140233801847405728_);}
	.st107{opacity:0.67;fill:url(#SVGID_00000048468013188416770570000013069363684848286865_);}
	.st108{fill:url(#SVGID_00000173875711518692832490000014461558174759495818_);}
	.st109{opacity:0.67;fill:url(#SVGID_00000086663555433354503480000015293217246999649414_);}
	.st110{fill:url(#SVGID_00000164501500280821009570000004341563853570342536_);}
	.st111{opacity:0.67;fill:url(#SVGID_00000114766536551843765200000015099593810742070441_);}
	.st112{fill:url(#SVGID_00000046298861845145484120000015624012708533132461_);}
	
		.st113{fill-rule:evenodd;clip-rule:evenodd;fill:none;stroke:#FFFFFF;stroke-width:0.7384;stroke-linecap:round;stroke-linejoin:round;stroke-miterlimit:10;}
	.st114{opacity:0.67;fill:url(#SVGID_00000019660980760905233310000000948455125143699840_);}
	.st115{fill:url(#SVGID_00000179637909318672025860000009819762392794889870_);}
	.st116{opacity:0.67;fill:url(#SVGID_00000034797099426578853930000015834538791098656959_);}
	.st117{fill:url(#SVGID_00000034068762287258660630000011756912929789404076_);}
	.st118{opacity:0.67;fill:url(#SVGID_00000161625880386393381260000002578984212268974516_);}
	.st119{fill:url(#SVGID_00000162326747838567952230000003336233678109227198_);}
	.st120{opacity:0.67;fill:url(#SVGID_00000065046800064547524730000007746076102839475126_);}
	.st121{fill:url(#SVGID_00000116202918614897108030000014356789194197284758_);}
	.st122{opacity:0.67;fill:url(#SVGID_00000043431658293257565440000014321419847292776080_);}
	.st123{fill:url(#SVGID_00000036241615520210834850000000696052446937833109_);}
	.st124{opacity:0.67;fill:url(#SVGID_00000088114489146239458090000017889686132044358551_);}
	.st125{fill:url(#SVGID_00000075841276956210641440000004024641673474353026_);}
	.st126{opacity:0.67;fill:url(#SVGID_00000054957375011294045300000007882344746203490738_);}
	.st127{fill:url(#SVGID_00000104668161649413926700000004802963273766365317_);}
	.st128{opacity:0.67;fill:url(#SVGID_00000065058888249204179010000008264395585075659701_);}
	.st129{fill:url(#SVGID_00000049211662356119817840000003482990812843143064_);}
	.st130{opacity:0.67;fill:url(#SVGID_00000145046991883139608710000009872731822384064185_);enable-background:new    ;}
	.st131{fill:#5EA6B9;}
	.st132{fill:url(#SVGID_00000104673151646152369110000005101930111440226456_);}
	.st133{fill-rule:evenodd;clip-rule:evenodd;fill:#545067;}
	.st134{fill-rule:evenodd;clip-rule:evenodd;fill:#AEAEB0;}
	.st135{fill-rule:evenodd;clip-rule:evenodd;fill:#D2D2D2;}
	.st136{opacity:0.67;fill:url(#SVGID_00000154411761012629164280000017697220715214813576_);enable-background:new    ;}
	.st137{fill:url(#SVGID_00000100342994452626042500000006817873401734973835_);}
	.st138{fill-rule:evenodd;clip-rule:evenodd;fill:#63D0B3;}
	
		.st139{fill-rule:evenodd;clip-rule:evenodd;fill:none;stroke:#000000;stroke-linecap:round;stroke-linejoin:round;stroke-miterlimit:10;}
	.st140{fill-rule:evenodd;clip-rule:evenodd;fill:#E85C83;}
	
		.st141{fill-rule:evenodd;clip-rule:evenodd;fill:#4AA089;stroke:url(#SVGID_00000067943570484578322830000009661414542552194979_);stroke-linecap:round;stroke-linejoin:round;stroke-miterlimit:10;}
	.st142{fill:#5DC29D;}
	.st143{fill:url(#SVGID_00000150817480351476630900000012485339086833412268_);}
	.st144{fill:url(#SVGID_00000135665506640449853540000015807541279213414796_);}
	.st145{fill:#E85C83;}
	.st146{opacity:0.67;fill:url(#SVGID_00000181779603512533508620000004759423216133949846_);enable-background:new    ;}
	.st147{fill:url(#SVGID_00000069382488163473370780000017662368031325151149_);}
	
		.st148{fill:none;stroke:url(#SVGID_00000168102019711331610180000002143539248292325284_);stroke-width:5;stroke-linecap:round;stroke-linejoin:round;stroke-miterlimit:10;}
	.st149{fill:url(#SVGID_00000008129669095087043760000013572705553457861806_);}
	.st150{opacity:0.67;fill:url(#SVGID_00000181779807444216448690000002773605123197111459_);enable-background:new    ;}
	.st151{fill:url(#SVGID_00000059286154826614023090000007639121199766120093_);}
	.st152{opacity:0.67;fill:url(#SVGID_00000079480327042280491190000010036726377036748728_);}
	.st153{fill:url(#SVGID_00000158027715017583124870000003267696154579846055_);}
	.st154{opacity:0.67;fill:url(#SVGID_00000030457563768719981390000010149840324975754392_);}
	.st155{fill:url(#SVGID_00000026877153924519903460000008330923469288917889_);}
	.st156{opacity:0.67;fill:url(#SVGID_00000021082334851769969590000012927907589787401617_);}
	.st157{fill:url(#SVGID_00000078734326769702887600000018059846344785765015_);}
	.st158{opacity:0.67;fill:url(#SVGID_00000150101181142212856810000005277414835288580515_);}
	.st159{fill:url(#SVGID_00000054967722586906875950000001749898477276291983_);}
	.st160{opacity:0.67;fill:url(#SVGID_00000176734541685170261070000004196439309695809174_);}
	.st161{fill:url(#SVGID_00000072967106238782098670000004231057153690716340_);}
	.st162{fill:none;stroke:#000000;stroke-width:22;stroke-linecap:round;stroke-linejoin:round;stroke-miterlimit:10;}
	.st163{fill:url(#SVGID_00000072242713894513871590000014099412620785648567_);}
	.st164{fill:url(#SVGID_00000170255151882244275210000007775386883982246549_);}
	.st165{fill:none;stroke:url(#SVGID_00000060010030469633814220000012056104357532232833_);stroke-width:5;stroke-miterlimit:10;}
	.st166{fill:url(#SVGID_00000096780446523887036970000005567470452309486976_);}
	.st167{fill:none;}
	.st168{opacity:0.67;fill:url(#SVGID_00000178897145151623825580000002622145583539865267_);}
	.st169{fill:url(#SVGID_00000116918829017964083070000002808616172502322343_);}
	.st170{fill:none;stroke:url(#SVGID_00000119796058796555625990000016802930522079079358_);stroke-width:5;stroke-miterlimit:10;}
	.st171{fill:url(#SVGID_00000047021102758859157070000003401239521146169275_);}
	.st172{opacity:0.67;fill:url(#SVGID_00000029009392200868844380000010905287543952413837_);}
	.st173{fill:url(#SVGID_00000041270123673173904540000016161562182836310442_);}
	.st174{opacity:0.67;fill:url(#SVGID_00000132059050945632151290000016925819328581519021_);}
	.st175{fill:url(#SVGID_00000160873645070559830720000007781108536433938101_);}
	.st176{opacity:0.67;fill:url(#SVGID_00000183936358588187637620000018384860805841766027_);}
	.st177{fill:url(#SVGID_00000067916583842292308160000003136531492418615466_);}
</style>
<g>
	<g>
		<g>
			<g>
				<polygon class="st3" points="99.82,59.81 25.1,102.49 25.1,142.44 99.82,99.76 				"/>
				<polygon class="st40" points="15.31,96.95 25.1,102.25 25.1,142.44 15.31,137.15 				"/>
				<polygon class="st4" points="99.82,59.81 89.3,54.25 15.31,96.95 25.1,102.25 				"/>
			</g>
			<g>
				<g>
					<polygon class="st4" points="94.54,79.38 32.09,115.78 32.09,110.89 94.54,74.49 					"/>
					<polygon class="st138" points="76.72,88.64 32.24,114.69 32.24,111.36 76.71,85.42 					"/>
					<polygon class="st139" points="94.01,78.96 32.48,114.9 32.47,110.85 94.01,74.91 					"/>
				</g>
				<g>
					<polygon class="st3" points="94.54,89.34 32.09,125.73 32.09,120.84 94.54,84.44 					"/>
					<polygon class="st140" points="90.35,90.77 32.23,124.62 32.22,121.34 90.34,87.5 					"/>
					<polygon class="st139" points="94.02,88.98 32.09,125.08 32.09,121.04 94.01,84.93 					"/>
				</g>
			</g>
		</g>
		<g>
			<g>
				<polygon class="st3" points="99.82,12.27 25.1,54.95 25.1,94.9 99.82,52.22 				"/>
				<linearGradient id="SVGID_1_" gradientUnits="userSpaceOnUse" x1="14.81" y1="72.1598" x2="25.6" y2="72.1598">
					<stop  offset="0" style="stop-color:#111422"/>
					<stop  offset="1" style="stop-color:#111422"/>
				</linearGradient>
				
					<polygon style="fill-rule:evenodd;clip-rule:evenodd;fill:#4AA089;stroke:url(#SVGID_1_);stroke-linecap:round;stroke-linejoin:round;stroke-miterlimit:10;" points="
					15.31,49.42 25.1,54.71 25.1,94.9 15.31,89.61 				"/>
				<polygon class="st4" points="99.82,12.27 89.3,6.71 15.31,49.42 25.1,54.71 				"/>
			</g>
			<g>
				<g>
					<polygon class="st4" points="94.54,31.85 32.09,68.24 32.09,63.35 94.54,26.95 					"/>
					<polygon class="st138" points="76.72,41.1 32.24,67.16 32.24,63.83 76.71,37.88 					"/>
					<polygon class="st139" points="94.01,31.42 32.48,67.36 32.47,63.31 94.01,27.38 					"/>
				</g>
				<g>
					<polygon class="st3" points="94.54,41.8 32.09,78.2 32.09,73.3 94.54,36.91 					"/>
					<polygon class="st140" points="57.5,62.29 32.23,77.08 32.22,73.81 57.5,59.02 					"/>
					<polygon class="st139" points="94.02,41.44 32.09,77.55 32.09,73.5 94.01,37.4 					"/>
				</g>
			</g>
		</g>
		<g>
			<g>
				<polygon class="st3" points="200.31,260.52 185.26,251.84 185.26,236.79 200.31,245.48 				"/>
				<polygon class="st2" points="200.31,260.52 215.36,251.84 215.36,236.79 200.31,245.48 				"/>
				<polygon class="st4" points="200.37,245.52 185.26,236.8 200.26,228.06 215.36,236.78 				"/>
				<path id="矩形_00000042004051606574791380000008771440301722643088_" class="st5" d="M195.65,232.89L195.65,232.89
					c0.3,0.17,0.25,0.49-0.11,0.7l-3.12,1.85c-0.35,0.21-0.91,0.24-1.2,0.08l0,0c-0.3-0.17-0.25-0.49,0.11-0.7l3.12-1.85
					C194.79,232.75,195.35,232.72,195.65,232.89z"/>
				<path id="矩形_00000070100527487689838170000011831450539835919251_" class="st5" d="M190.44,235.91L190.44,235.91
					c0.3,0.17,0.25,0.49-0.11,0.7l-0.6,0.36c-0.35,0.21-0.91,0.24-1.2,0.08l0,0c-0.3-0.17-0.25-0.49,0.11-0.7l0.6-0.36
					C189.62,235.76,190.15,235.74,190.44,235.91z"/>
			</g>
			<g>
				<polygon class="st3" points="229.3,260.52 214.25,251.84 214.25,236.79 229.3,245.48 				"/>
				<polygon class="st2" points="229.3,260.52 244.35,251.84 244.35,236.79 229.3,245.48 				"/>
				<polygon class="st4" points="229.36,245.52 214.25,236.8 229.25,228.06 244.35,236.78 				"/>
				<path id="矩形_00000140711294385447934040000015095660068350400165_" class="st5" d="M224.64,232.89L224.64,232.89
					c0.3,0.17,0.25,0.49-0.11,0.7l-3.12,1.85c-0.35,0.21-0.91,0.24-1.2,0.08l0,0c-0.3-0.17-0.25-0.49,0.11-0.7l3.12-1.85
					C223.78,232.75,224.34,232.72,224.64,232.89z"/>
				<path id="矩形_00000098213039326914801500000002529698565098785440_" class="st5" d="M219.44,235.91L219.44,235.91
					c0.3,0.17,0.25,0.49-0.11,0.7l-0.6,0.36c-0.35,0.21-0.91,0.24-1.2,0.08l0,0c-0.3-0.17-0.25-0.49,0.11-0.7l0.6-0.36
					C218.61,235.76,219.14,235.74,219.44,235.91z"/>
			</g>
			<g>
				<polygon class="st3" points="214.25,237.14 199.2,228.45 199.2,213.41 214.25,222.09 				"/>
				<polygon class="st2" points="214.25,237.14 229.3,228.45 229.3,213.41 214.25,222.09 				"/>
				<polygon class="st4" points="214.31,222.14 199.2,213.42 214.2,204.68 229.3,213.4 				"/>
				<path id="矩形_00000092418080420685085240000004800107245259861929_" class="st5" d="M209.59,209.51L209.59,209.51
					c0.3,0.17,0.25,0.49-0.11,0.7l-3.12,1.85c-0.35,0.21-0.91,0.24-1.2,0.08l0,0c-0.3-0.17-0.25-0.49,0.11-0.7l3.12-1.85
					C208.73,209.37,209.29,209.34,209.59,209.51z"/>
				<path id="矩形_00000033369326025964444050000001328355637824015547_" class="st5" d="M204.39,212.53L204.39,212.53
					c0.3,0.17,0.25,0.49-0.11,0.7l-0.6,0.36c-0.35,0.21-0.91,0.24-1.2,0.08l0,0c-0.3-0.17-0.25-0.49,0.11-0.7l0.6-0.36
					C203.56,212.38,204.09,212.36,204.39,212.53z"/>
			</g>
		</g>
		<g>
			<g>
				<path class="st1" d="M38.44,190.6c-4.1,0-7.96-1.6-10.86-4.5s-4.5-6.76-4.5-10.86s1.6-7.96,4.5-10.86l0.18-0.17l15.99-16
					c1.03-1.04,2.53-1.6,4.34-1.6c0.96,0,2.01,0.16,3.11,0.46c6.7,1.87,13.6,8.84,15.4,15.54c0.84,3.13,0.43,5.72-1.13,7.31
					l-0.26,0.26L49.59,185.8l-0.28,0.3C46.4,189,42.54,190.6,38.44,190.6z"/>
				<path class="st142" d="M48.09,146.98c0.93,0,1.94,0.15,3.01,0.45c6.58,1.84,13.38,8.69,15.14,15.28c0.8,3,0.43,5.47-1.04,6.96
					l-0.19,0.2l-15.7,15.7l-0.09,0.1c-0.06,0.06-0.11,0.12-0.18,0.18c-2.83,2.83-6.6,4.39-10.6,4.39c-4.01,0-7.77-1.56-10.6-4.39
					s-4.39-6.6-4.39-10.6s1.56-7.77,4.39-10.6l0.09-0.09l0.09-0.09l15.99-15.99C44.97,147.5,46.38,146.98,48.09,146.98
					 M48.09,146.24c-1.95,0-3.52,0.61-4.6,1.7l-15.99,16c-0.06,0.06-0.12,0.11-0.18,0.18c-6.14,6.14-6.14,16.11,0,22.25
					c3.07,3.07,7.1,4.61,11.12,4.61c4.03,0,8.05-1.54,11.12-4.61c0.1-0.1,0.19-0.2,0.28-0.3l15.88-15.88l0,0
					c1.6-1.61,2.13-4.29,1.23-7.67c-1.83-6.82-8.84-13.89-15.65-15.8C50.14,146.4,49.07,146.24,48.09,146.24L48.09,146.24z"/>
			</g>
			
				<radialGradient id="SVGID_00000080917557414359999370000005717274237243398319_" cx="79.3582" cy="-6377.1812" r="36.0464" gradientTransform="matrix(1 0 0 -1 0 -6237.25)" gradientUnits="userSpaceOnUse">
				<stop  offset="0.1705" style="stop-color:#7CC7E6"/>
				<stop  offset="0.5421" style="stop-color:#5DC29D"/>
				<stop  offset="0.6647" style="stop-color:#5CBC9D"/>
				<stop  offset="0.8626" style="stop-color:#5EAD9C"/>
				<stop  offset="0.9997" style="stop-color:#649F9B"/>
			</radialGradient>
			<path style="fill:url(#SVGID_00000080917557414359999370000005717274237243398319_);" d="M81.46,154.45
				c0.06-0.06,0.12-0.11,0.18-0.18c6.14-6.14,6.14-16.11,0-22.25s-16.11-6.14-22.25,0c-0.1,0.1-0.19,0.2-0.28,0.3L43.23,148.2l0,0
				c-1.6,1.61-2.13,4.29-1.23,7.67c1.83,6.82,8.84,13.89,15.65,15.8c3.45,0.96,6.18,0.42,7.81-1.23L81.46,154.45z"/>
		</g>
		<g>
			
				<radialGradient id="SVGID_00000074412149923021354320000012907134353891909006_" cx="227.6087" cy="-6301.519" r="28.4593" gradientTransform="matrix(1 0 0 -1 0 -6237.25)" gradientUnits="userSpaceOnUse">
				<stop  offset="0" style="stop-color:#CEDAE8"/>
				<stop  offset="0.5421" style="stop-color:#E85C83"/>
				<stop  offset="0.6527" style="stop-color:#E05B82"/>
				<stop  offset="0.8312" style="stop-color:#CA5981"/>
				<stop  offset="0.9997" style="stop-color:#B05680"/>
			</radialGradient>
			<path style="fill:url(#SVGID_00000074412149923021354320000012907134353891909006_);" d="M199.02,76.81
				c0.05,0.07,0.09,0.14,0.14,0.21c4.94,7.15,14.74,8.94,21.89,4s8.94-14.74,4-21.89c-0.08-0.11-0.16-0.22-0.24-0.33l-12.76-18.48
				l0,0c-1.3-1.86-3.84-2.87-7.32-2.59c-7.04,0.57-15.25,6.19-18.36,12.56c-1.57,3.22-1.53,6-0.2,7.9L199.02,76.81z"/>
			<g>
				<path class="st1" d="M192.57,60.76c-2.68,0-4.77-0.88-5.89-2.48l-0.25-0.36l-12.51-18.11l-0.24-0.33
					c-4.81-6.97-3.06-16.56,3.91-21.37c2.58-1.78,5.59-2.72,8.72-2.72c5.06,0,9.79,2.48,12.66,6.63l0.13,0.21l12.86,18.61
					c1.31,1.87,1.23,4.55-0.23,7.53c-3.05,6.25-11.15,11.79-18.05,12.35C193.29,60.75,192.92,60.76,192.57,60.76L192.57,60.76z"/>
				<path class="st145" d="M186.3,15.75c4.93,0,9.55,2.42,12.35,6.47l0.07,0.1l0.07,0.11l12.85,18.61c1.23,1.76,1.14,4.3-0.26,7.16
					c-3,6.15-10.96,11.59-17.75,12.14c-0.36,0.03-0.72,0.04-1.07,0.04c-2.56,0-4.54-0.82-5.59-2.32l-0.16-0.23L174.2,39.59
					l-0.08-0.11c-0.05-0.07-0.1-0.13-0.15-0.2c-2.28-3.3-3.13-7.28-2.41-11.22s2.93-7.36,6.23-9.64
					C180.31,16.67,183.25,15.75,186.3,15.75 M186.3,15.01c-3.08,0-6.2,0.9-8.93,2.79c-7.15,4.94-8.94,14.74-4,21.89
					c0.08,0.11,0.16,0.22,0.24,0.33l12.76,18.48l0,0c1.16,1.65,3.29,2.63,6.19,2.63c0.36,0,0.74-0.02,1.13-0.05
					c7.04-0.57,15.25-6.19,18.36-12.56c1.57-3.22,1.53-6,0.2-7.9L199.4,22.01c-0.05-0.07-0.09-0.14-0.14-0.21
					C196.2,17.39,191.29,15.01,186.3,15.01L186.3,15.01z"/>
			</g>
		</g>
		<g>
			<g>
				<g>
					<g>
						<polygon class="st3" points="261.33,184.76 188.39,142.72 188.39,116.09 261.33,158.14 						"/>
						<polygon class="st2" points="261.33,184.76 274.69,177.77 274.69,151.14 261.33,158.14 						"/>
						<polygon class="st4" points="261.42,158.22 188.39,116.12 201.65,109.04 274.69,151.14 						"/>
					</g>
				</g>
			</g>
			<g>
				<g>
					<path class="st6" d="M193.44,138.12v-13.4l4.18,2.36c0.8,0.45,1.49,1.03,2.06,1.74c0.57,0.71,1,1.48,1.3,2.34
						c0.3,0.85,0.45,1.72,0.45,2.61s-0.15,1.59-0.46,2.1c-0.3,0.51-0.74,0.79-1.32,0.85c-0.57,0.06-1.27-0.15-2.08-0.61l-2.67-1.51
						v-2.27l2.3,1.3c0.43,0.24,0.79,0.35,1.07,0.32c0.28-0.03,0.49-0.18,0.63-0.43c0.14-0.26,0.21-0.61,0.21-1.05
						c0-0.45-0.07-0.87-0.21-1.29c-0.14-0.41-0.35-0.79-0.63-1.14s-0.64-0.64-1.08-0.89l-1.51-0.85v11.08L193.44,138.12z"/>
					<path class="st6" d="M202.84,143.44v-10.05l2.14,1.21v1.75l0.08,0.05c0.15-0.54,0.39-0.88,0.73-1
						c0.34-0.13,0.73-0.07,1.18,0.19c0.11,0.06,0.23,0.14,0.36,0.23s0.24,0.18,0.34,0.26v2.47c-0.1-0.1-0.25-0.21-0.43-0.35
						c-0.18-0.13-0.35-0.24-0.5-0.33c-0.33-0.18-0.61-0.26-0.87-0.23c-0.25,0.03-0.45,0.17-0.6,0.4c-0.15,0.23-0.22,0.55-0.22,0.96
						v5.68L202.84,143.44z"/>
					<path class="st6" d="M212.02,148.82c-0.8-0.45-1.5-1.06-2.08-1.83c-0.58-0.76-1.04-1.63-1.35-2.58
						c-0.32-0.96-0.48-1.95-0.48-2.98c0-1.04,0.16-1.86,0.48-2.46c0.32-0.6,0.77-0.95,1.35-1.05c0.59-0.1,1.28,0.07,2.08,0.53
						c0.8,0.45,1.5,1.06,2.08,1.83c0.58,0.76,1.04,1.63,1.35,2.58c0.32,0.96,0.48,1.96,0.48,2.99s-0.16,1.84-0.48,2.44
						c-0.32,0.6-0.77,0.95-1.35,1.05C213.52,149.45,212.82,149.27,212.02,148.82z M212.03,146.67c0.37,0.21,0.67,0.25,0.92,0.12
						s0.43-0.38,0.56-0.77s0.19-0.87,0.19-1.46s-0.06-1.14-0.19-1.67s-0.31-1-0.56-1.4s-0.55-0.71-0.92-0.92
						c-0.37-0.21-0.68-0.25-0.93-0.13s-0.44,0.38-0.56,0.77c-0.13,0.39-0.19,0.87-0.19,1.46c0,0.58,0.06,1.14,0.19,1.67
						s0.31,1,0.56,1.4C211.35,146.15,211.66,146.46,212.03,146.67z"/>
					<path class="st6" d="M217.37,155.41V141.6l2.17,1.23v1.69l0.1,0.06c0.1-0.22,0.24-0.41,0.42-0.59s0.43-0.28,0.72-0.3
						c0.3-0.02,0.67,0.09,1.12,0.35c0.58,0.33,1.12,0.82,1.61,1.48c0.49,0.66,0.88,1.45,1.18,2.38c0.29,0.93,0.44,1.97,0.44,3.12
						c0,1.12-0.14,1.99-0.43,2.59c-0.28,0.61-0.67,0.97-1.16,1.09s-1.03,0.01-1.64-0.33c-0.43-0.24-0.79-0.54-1.09-0.88
						c-0.3-0.35-0.54-0.71-0.73-1.09c-0.19-0.38-0.33-0.74-0.43-1.07l-0.07-0.04v5.38L217.37,155.41z M219.53,147.84
						c0,0.6,0.07,1.16,0.2,1.67c0.13,0.52,0.32,0.97,0.57,1.36s0.55,0.68,0.91,0.88c0.36,0.2,0.66,0.25,0.91,0.14
						s0.44-0.35,0.57-0.73c0.13-0.37,0.19-0.85,0.19-1.44c0-0.58-0.06-1.13-0.19-1.64s-0.32-0.96-0.56-1.35
						c-0.25-0.39-0.55-0.69-0.92-0.89c-0.36-0.2-0.66-0.25-0.91-0.15s-0.44,0.33-0.57,0.7S219.53,147.24,219.53,147.84z"/>
					<path class="st6" d="M230.19,159.08c-0.8-0.45-1.5-1.06-2.08-1.83c-0.58-0.76-1.04-1.63-1.35-2.58
						c-0.32-0.96-0.48-1.95-0.48-2.98c0-1.04,0.16-1.86,0.48-2.46c0.32-0.6,0.77-0.95,1.35-1.05c0.59-0.1,1.28,0.07,2.08,0.53
						c0.8,0.45,1.5,1.06,2.08,1.83c0.58,0.76,1.04,1.63,1.35,2.58c0.32,0.96,0.48,1.96,0.48,2.99s-0.16,1.84-0.48,2.44
						c-0.32,0.6-0.77,0.95-1.35,1.05C231.69,159.71,230.99,159.54,230.19,159.08z M230.2,156.93c0.37,0.21,0.67,0.25,0.92,0.12
						s0.43-0.38,0.56-0.77s0.19-0.87,0.19-1.46s-0.06-1.14-0.19-1.67s-0.31-1-0.56-1.4s-0.55-0.71-0.92-0.92
						c-0.37-0.21-0.68-0.25-0.93-0.13s-0.44,0.38-0.56,0.77c-0.13,0.39-0.19,0.87-0.19,1.46c0,0.58,0.06,1.14,0.19,1.67
						s0.31,1,0.56,1.4C229.52,156.41,229.83,156.72,230.2,156.93z"/>
					<path class="st6" d="M242.16,158.47l-2.02-0.98c-0.03-0.24-0.11-0.48-0.22-0.72s-0.26-0.47-0.45-0.68
						c-0.18-0.21-0.4-0.39-0.66-0.53c-0.34-0.19-0.63-0.27-0.86-0.22s-0.35,0.22-0.35,0.52c0,0.24,0.08,0.49,0.23,0.74
						s0.41,0.53,0.78,0.84l1.44,1.18c0.77,0.64,1.35,1.29,1.73,1.94c0.38,0.66,0.57,1.35,0.57,2.08c0,0.66-0.15,1.15-0.46,1.47
						c-0.31,0.32-0.72,0.48-1.25,0.45c-0.53-0.02-1.14-0.23-1.83-0.62c-1.05-0.6-1.89-1.35-2.51-2.25
						c-0.62-0.91-0.99-1.87-1.09-2.89l2.17,1.08c0.06,0.44,0.22,0.84,0.48,1.19c0.25,0.35,0.58,0.64,0.97,0.86s0.7,0.3,0.94,0.24
						s0.36-0.23,0.36-0.53c0-0.26-0.09-0.51-0.25-0.77c-0.17-0.26-0.42-0.53-0.77-0.81l-1.38-1.12c-0.78-0.64-1.35-1.3-1.73-2
						c-0.38-0.7-0.57-1.42-0.57-2.17c0-0.65,0.14-1.12,0.42-1.43s0.67-0.45,1.18-0.42c0.5,0.03,1.1,0.24,1.78,0.63
						c1,0.57,1.8,1.28,2.37,2.15C241.72,156.57,242.06,157.49,242.16,158.47z"/>
					<path class="st6" d="M246,168.01c-0.51-0.29-0.96-0.66-1.36-1.1c-0.4-0.45-0.71-0.96-0.94-1.53c-0.23-0.57-0.34-1.19-0.34-1.85
						c0-0.56,0.08-0.98,0.24-1.27c0.16-0.29,0.38-0.47,0.66-0.54c0.28-0.07,0.6-0.07,0.96,0.02c0.36,0.08,0.73,0.21,1.13,0.39
						c0.46,0.2,0.84,0.35,1.12,0.46s0.49,0.14,0.62,0.1c0.13-0.04,0.19-0.16,0.19-0.38v-0.04c0-0.41-0.1-0.79-0.31-1.14
						c-0.21-0.34-0.5-0.62-0.87-0.83c-0.4-0.22-0.71-0.29-0.95-0.2c-0.23,0.09-0.39,0.28-0.47,0.56l-2.04-1.36
						c0.1-0.55,0.31-0.97,0.61-1.24c0.3-0.28,0.7-0.4,1.18-0.37s1.04,0.22,1.68,0.58c0.44,0.25,0.87,0.55,1.27,0.91
						c0.4,0.36,0.77,0.77,1.08,1.22c0.32,0.45,0.57,0.95,0.75,1.48s0.27,1.1,0.27,1.7v6.78l-2.09-1.18v-1.39l-0.06-0.04
						c-0.13,0.24-0.3,0.42-0.51,0.54c-0.21,0.12-0.47,0.16-0.77,0.12C246.74,168.36,246.39,168.23,246,168.01z M246.63,166.44
						c0.32,0.18,0.61,0.26,0.86,0.24c0.25-0.02,0.44-0.13,0.59-0.33c0.14-0.2,0.21-0.48,0.21-0.83v-1.07
						c-0.07,0.02-0.16,0.02-0.28-0.01c-0.12-0.02-0.25-0.06-0.4-0.1c-0.15-0.05-0.3-0.1-0.45-0.15c-0.15-0.06-0.28-0.11-0.4-0.15
						c-0.26-0.1-0.48-0.15-0.68-0.15c-0.19,0-0.34,0.05-0.45,0.17s-0.16,0.31-0.16,0.57c0,0.38,0.11,0.73,0.33,1.05
						C246.01,165.99,246.29,166.25,246.63,166.44z"/>
					<path class="st6" d="M254.4,159.17v13.4l-2.21-1.25v-13.4L254.4,159.17z"/>
				</g>
			</g>
		</g>
		<g>
			<path id="矩形_00000031179434780768795990000018213924102911406484_" class="st82" d="M174,197.39L174,197.39
				c0.62,0,1.15,0.76,1.15,1.64v1.52c0,0.88-0.53,1.64-1.15,1.64l0,0c-0.62,0-1.15-0.76-1.15-1.64v-1.52
				C172.85,198.08,173.38,197.39,174,197.39z"/>
			
				<radialGradient id="SVGID_00000160882590557232339140000007367727487330343596_" cx="142.45" cy="-8930.5469" r="29.1578" gradientTransform="matrix(1 0 0 -0.5898 0 -5035.7266)" gradientUnits="userSpaceOnUse">
				<stop  offset="0" style="stop-color:#06070C"/>
				<stop  offset="1" style="stop-color:#0D101D;stop-opacity:0"/>
			</radialGradient>
			
				<path style="opacity:0.67;fill:url(#SVGID_00000160882590557232339140000007367727487330343596_);enable-background:new    ;" d="
				M167.45,217.44c-13.68-7.9-35.96-8-49.77-0.23s-13.91,20.48-0.23,28.37c13.68,7.9,35.96,8,49.77,0.23
				C181.03,238.04,181.13,225.34,167.45,217.44z"/>
			<g>
				<path class="st131" d="M180.96,181.41v-49.28c0-0.23,0.02-0.45,0.02-0.68c0-22.91-18.57-41.48-41.48-41.48
					s-41.48,18.57-41.48,41.48c0,0.36,0.02,0.72,0.03,1.07v44.66h-0.03v22.67c0,2.84,2.3,5.15,5.15,5.15c2.84,0,5.15-2.31,5.15-5.15
					v-0.83c0.56,0.36,1.13,0.72,1.74,1.07c1.83,1.06,3.79,1.99,5.85,2.81v8.2c0,2.84,2.3,5.15,5.15,5.15s5.15-2.31,5.15-5.15v-5.23
					c2.95,0.57,5.99,0.96,9.06,1.14v12.59c0,2.84,2.3,5.15,5.15,5.15s5.15-2.31,5.15-5.15v-12.7c3.39-0.28,6.73-0.8,9.93-1.55v6.36
					c0,2.84,2.3,5.15,5.15,5.15s5.15-2.31,5.15-5.15v-9.87c1-0.47,1.97-0.96,2.91-1.49c0.7-0.39,1.35-0.8,1.99-1.21v0.71
					c0,2.84,2.3,5.15,5.15,5.15c2.84,0,5.15-2.31,5.15-5.15V181.4L180.96,181.41L180.96,181.41z"/>
				
					<radialGradient id="SVGID_00000061449391418238840940000012804393431564289213_" cx="164.1782" cy="-6344.6416" r="106.6854" gradientTransform="matrix(1 0 0 -1 0 -6237.25)" gradientUnits="userSpaceOnUse">
					<stop  offset="0.0124" style="stop-color:#CF7DC9"/>
					<stop  offset="0.4936" style="stop-color:#9C5C96"/>
					<stop  offset="0.5829" style="stop-color:#96649A"/>
					<stop  offset="0.7273" style="stop-color:#8A7AA4"/>
					<stop  offset="0.9078" style="stop-color:#7A9DB5"/>
					<stop  offset="1" style="stop-color:#74B3C0"/>
				</radialGradient>
				<path style="fill:url(#SVGID_00000061449391418238840940000012804393431564289213_);" d="M180.96,181.41v-49.28
					c0-0.23,0.02-0.45,0.02-0.68c0-22.91-18.57-41.48-41.48-41.48s-41.48,18.57-41.48,41.48c0,0.36,0.02,0.72,0.03,1.07v44.66h-0.03
					v22.67c0,2.84,2.3,5.15,5.15,5.15c2.84,0,5.15-2.31,5.15-5.15v-0.83c0.56,0.36,1.13,0.72,1.74,1.07
					c1.83,1.06,3.79,1.99,5.85,2.81v8.2c0,2.84,2.3,5.15,5.15,5.15s5.15-2.31,5.15-5.15v-5.23c2.95,0.57,5.99,0.96,9.06,1.14v12.59
					c0,2.84,2.3,5.15,5.15,5.15s5.15-2.31,5.15-5.15v-12.7c3.39-0.28,6.73-0.8,9.93-1.55v6.36c0,2.84,2.3,5.15,5.15,5.15
					s5.15-2.31,5.15-5.15v-9.87c1-0.47,1.97-0.96,2.91-1.49c0.7-0.39,1.35-0.8,1.99-1.21v0.71c0,2.84,2.3,5.15,5.15,5.15
					c2.84,0,5.15-2.31,5.15-5.15V181.4L180.96,181.41L180.96,181.41z"/>
			</g>
			<path id="矩形_00000098204464062688485750000015013192302783954343_" class="st82" d="M101.91,167.57L101.91,167.57
				c1.12,0,2.09,1.38,2.09,2.99v14.25c0,1.61-0.96,2.99-2.09,2.99l0,0c-1.12,0-2.09-1.38-2.09-2.99v-14.25
				C99.82,168.95,100.78,167.57,101.91,167.57z"/>
			<path id="矩形_00000054982054549034475680000005697731505925596333_" class="st82" d="M163.21,104.48L163.21,104.48
				c1.37-1.02,3.68-0.37,5.02,1.41l2.29,3.06c1.34,1.78,1.31,4.19-0.06,5.22l0,0c-1.37,1.02-3.68,0.37-5.02-1.41l-2.29-3.06
				C161.72,107.78,161.84,105.5,163.21,104.48z"/>
			<path id="矩形_00000134239507903386921720000009956294065218697148_" class="st82" d="M119.3,204.15L119.3,204.15
				c1.12,0,2.09,1.38,2.09,2.99v2.76c0,1.61-0.96,2.99-2.09,2.99l0,0c-1.12,0-2.09-1.38-2.09-2.99v-2.76
				C117.22,205.42,118.18,204.15,119.3,204.15z"/>
			<path id="矩形_00000094586983563316370030000017519609598535160757_" class="st82" d="M101.91,192.44L101.91,192.44
				c1.12,0,2.09,1.38,2.09,2.99v2.76c0,1.61-0.96,2.99-2.09,2.99l0,0c-1.12,0-2.09-1.38-2.09-2.99v-2.76
				C99.82,193.7,100.78,192.44,101.91,192.44z"/>
			<path id="矩形_00000118392649868102102100000018003544543667304883_" class="st82" d="M139.49,212.89L139.49,212.89
				c1.12,0,2.09,1.38,2.09,2.99v2.76c0,1.61-0.96,2.99-2.09,2.99l0,0c-1.12,0-2.09-1.38-2.09-2.99v-2.76
				C137.41,214.16,138.37,212.89,139.49,212.89z"/>
			<path id="矩形_00000044175050395430329640000006210113453692143548_" class="st82" d="M159.19,207.55L159.19,207.55
				c0.89,0,1.66,1.1,1.66,2.37v2.19c0,1.28-0.76,2.37-1.66,2.37l0,0c-0.89,0-1.66-1.1-1.66-2.37v-2.19
				C157.54,208.56,158.3,207.55,159.19,207.55z"/>
			<g>
				<path id="椭圆形_00000005243532944909538100000015332032379051664545_" class="st57" d="M141.61,146.58
					c4-0.17,6.99-3.61,6.99-5.91c0-0.92-0.55-1.73-1.36-1.79c-1.27-0.13-3.18,0.69-5.63,0.79c-2.27,0.09-3.72-0.49-5.45-0.42
					c-1.82,0.08-1.72,2.19-1.45,3.01C135.35,144.54,137.53,146.75,141.61,146.58z"/>
				<path id="椭圆形_00000137118396536968795320000012465565861435071882_" class="st87" d="M141.7,144.64
					c4.09-0.17,7.08-3.33,7.08-5.54c0-0.83-0.54-1.54-1.36-1.6c-1.27-0.13-3.27,0.69-5.72,0.79c-2.36,0.1-3.72-0.49-5.54-0.42
					c-1.82,0.07-1.73,2.1-1.45,2.82C135.34,142.78,137.61,144.81,141.7,144.64z"/>
			</g>
			<g>
				
					<ellipse transform="matrix(0.5671 -0.8237 0.8237 0.5671 -47.6197 156.3559)" class="st87" cx="124.93" cy="123.48" rx="9.36" ry="8.96"/>
				<path id="形状结合_00000122692838259956133130000005389084541346568121_" class="st134" d="M126.1,113.66
					c4.18-0.17,7.54,3.92,7.55,9.08c0,0.18,0,0.37,0,0.55v0.55c0-5.25-3.28-9.44-7.36-9.27s-7.35,4.54-7.35,9.89
					c0,1.01,0.09,2.02,0.37,2.93c-0.46-1.18-0.73-2.55-0.73-3.93C118.57,118.21,121.93,113.83,126.1,113.66z"/>
				<path id="形状结合_00000074426230400218102780000011966512146023470218_" class="st135" d="M126.1,112.55
					c4.63-0.19,8.45,4.35,8.45,10.15c0.01,5.8-3.8,10.66-8.43,10.85c-4.63,0.19-8.45-4.35-8.45-10.15
					C117.66,117.6,121.38,112.75,126.1,112.55z M126.1,113.66c-4.18,0.17-7.53,4.55-7.53,9.71s3.37,9.26,7.55,9.08
					c4.18-0.17,7.53-4.55,7.53-9.71C133.64,117.58,130.19,113.49,126.1,113.66z"/>
			</g>
			<g>
				
					<ellipse transform="matrix(0.5671 -0.8237 0.8237 0.5671 -33.4031 180.6832)" class="st87" cx="155.18" cy="122.12" rx="9.36" ry="8.96"/>
				<path id="形状结合_00000037650997207525795140000017278747343643723648_" class="st134" d="M156.15,112.31
					c4.18-0.17,7.54,3.92,7.55,9.08c0,0.18,0,0.37,0,0.55v0.55c0-5.25-3.28-9.44-7.36-9.27c-4.09,0.17-7.35,4.54-7.35,9.89
					c0,1.01,0.09,2.02,0.37,2.93c-0.46-1.18-0.73-2.55-0.73-3.93C148.62,116.86,151.98,112.48,156.15,112.31z"/>
				<path id="形状结合_00000003821500672421883320000017777831567725899181_" class="st135" d="M156.15,111.2
					c4.63-0.19,8.45,4.35,8.45,10.15c0.01,5.8-3.8,10.66-8.43,10.85s-8.45-4.35-8.45-10.15C147.71,116.25,151.43,111.4,156.15,111.2
					z M156.15,112.31c-4.18,0.17-7.53,4.55-7.53,9.71c0,5.16,3.37,9.26,7.55,9.08c4.18-0.17,7.53-4.55,7.53-9.71
					C163.69,116.23,160.24,112.14,156.15,112.31z"/>
			</g>
			<circle class="st57" cx="123.13" cy="121.08" r="3.71"/>
			<circle class="st57" cx="153.2" cy="119.97" r="3.71"/>
		</g>
		<g>
			<g>
				
					<linearGradient id="SVGID_00000000222045144612438710000007321296430068408227_" gradientUnits="userSpaceOnUse" x1="1462.2394" y1="-4082.626" x2="1499.1136" y2="-4082.626" gradientTransform="matrix(0.763 0.4367 0 -1 -881.5222 -4612.8789)">
					<stop  offset="0" style="stop-color:#A75698"/>
					<stop  offset="1" style="stop-color:#6FB5C2"/>
				</linearGradient>
				
					<polygon style="fill:none;stroke:url(#SVGID_00000000222045144612438710000007321296430068408227_);stroke-width:5;stroke-linecap:round;stroke-linejoin:round;stroke-miterlimit:10;" points="
					260.44,146.51 236.12,132.59 236.12,86.27 260.44,100.18 				"/>
			</g>
			<g>
				<polygon class="st1" points="260.44,146.25 236.12,132.33 236.12,86 260.44,99.92 				"/>
			</g>
			<g>
				<g>
					<path class="st6" d="M241.93,99.52l-1.16-0.66l-1.12-4.64l1.05,0.6l0.66,3.07l0.66-2.31l1.05,0.6L241.93,99.52z"/>
					<path class="st6" d="M245.92,101.29c-0.32,0.2-0.72,0.17-1.19-0.1c-0.48-0.27-0.87-0.69-1.19-1.26s-0.48-1.15-0.48-1.76
						s0.16-1.01,0.48-1.22c0.32-0.2,0.72-0.17,1.19,0.1c0.48,0.27,0.87,0.69,1.19,1.26s0.48,1.15,0.48,1.76
						C246.39,100.68,246.23,101.09,245.92,101.29z M244.2,99.53c0.14,0.27,0.31,0.47,0.53,0.59c0.22,0.12,0.39,0.13,0.53,0.01
						c0.14-0.11,0.2-0.31,0.2-0.6c0-0.28-0.07-0.56-0.2-0.83c-0.14-0.27-0.31-0.47-0.53-0.59c-0.22-0.12-0.39-0.13-0.53-0.01
						c-0.14,0.11-0.2,0.31-0.2,0.6C243.99,98.99,244.06,99.26,244.2,99.53z"/>
					<path class="st6" d="M248.3,103.16l-0.92-0.53v-2.94l-0.82-0.47v-1.05l2.55,1.46v1.05l-0.81-0.47V103.16z"/>
					<path class="st6" d="M250.36,104.34l-0.92-0.53v-4l0.92,0.53V104.34z"/>
					<path class="st6" d="M253.79,106.3l-0.89-0.51l-1.12-2.67v2.02l-0.92-0.53v-4l0.95,0.54l1.06,2.5v-1.89l0.92,0.53V106.3z"/>
					<path class="st6" d="M255.8,107.52c-0.48-0.27-0.87-0.69-1.2-1.25c-0.32-0.56-0.48-1.15-0.48-1.78c0-0.62,0.16-1.03,0.48-1.22
						s0.72-0.15,1.2,0.12c0.34,0.19,0.61,0.45,0.84,0.78c0.22,0.33,0.39,0.67,0.5,1.03l-0.78,0.08c-0.05-0.16-0.12-0.32-0.22-0.48
						c-0.1-0.15-0.21-0.27-0.34-0.34c-0.22-0.13-0.4-0.13-0.53-0.02c-0.14,0.11-0.21,0.31-0.21,0.6c0,0.28,0.07,0.56,0.21,0.83
						c0.14,0.27,0.32,0.47,0.53,0.59c0.09,0.05,0.17,0.08,0.27,0.1c0.09,0.02,0.16,0.01,0.21-0.01v-0.14l-0.57-0.32v-1.05l1.49,0.85
						v1.64C256.82,107.84,256.36,107.84,255.8,107.52z"/>
					<path class="st6" d="M240.99,104.69l-0.97-0.56v-4.2l1.71,0.98c0.36,0.21,0.64,0.51,0.85,0.9c0.2,0.39,0.31,0.79,0.31,1.2
						c0,0.41-0.1,0.69-0.31,0.85c-0.2,0.16-0.49,0.13-0.85-0.07l-0.74-0.42V104.69z M241.6,102.61c0.09,0.05,0.16,0.06,0.21,0.04
						c0.05-0.03,0.08-0.09,0.08-0.2s-0.03-0.21-0.08-0.3c-0.05-0.09-0.12-0.16-0.21-0.21l-0.61-0.35v0.66L241.6,102.61z"/>
					<path class="st6" d="M246.03,107.04c-0.33,0.21-0.75,0.18-1.25-0.11s-0.92-0.73-1.25-1.32c-0.33-0.6-0.5-1.21-0.5-1.85
						s0.17-1.06,0.5-1.28c0.33-0.21,0.75-0.18,1.25,0.11s0.92,0.73,1.25,1.32c0.33,0.6,0.5,1.21,0.5,1.85
						S246.36,106.83,246.03,107.04z M244.22,105.19c0.14,0.28,0.33,0.49,0.55,0.62c0.23,0.13,0.41,0.14,0.55,0.02
						s0.21-0.33,0.21-0.63c0-0.3-0.07-0.59-0.21-0.87c-0.14-0.28-0.33-0.49-0.55-0.62c-0.23-0.13-0.41-0.14-0.55-0.02
						s-0.21,0.33-0.21,0.63C244.01,104.62,244.08,104.91,244.22,105.19z"/>
					<path class="st6" d="M250.34,110.04l-1.02-0.58l-0.41-2.62l-0.41,2.14l-1.02-0.58l-0.92-4.72l1.09,0.62l0.41,2.81l0.49-2.29
						l0.73,0.42l0.49,2.85l0.41-2.34l1.09,0.62L250.34,110.04z"/>
					<path class="st6" d="M253.89,112.07l-2.43-1.39v-4.2l2.43,1.39v1.11l-1.46-0.84v0.42l1.43,0.82v1.11l-1.43-0.82v0.46l1.46,0.84
						V112.07z"/>
					<path class="st6" d="M257.19,113.96l-1.11-0.63l-0.44-1.58l-0.35-0.2v1.32l-0.97-0.56v-4.2l1.71,0.98
						c0.36,0.21,0.64,0.51,0.85,0.9c0.2,0.39,0.31,0.79,0.31,1.2c0,0.33-0.06,0.56-0.17,0.71c-0.11,0.14-0.25,0.22-0.41,0.23
						L257.19,113.96z M255.89,110.78c0.09,0.05,0.16,0.07,0.23,0.04c0.06-0.02,0.09-0.09,0.09-0.2c0-0.1-0.03-0.2-0.09-0.29
						c-0.06-0.09-0.14-0.16-0.23-0.21l-0.59-0.34v0.66L255.89,110.78z"/>
				</g>
			</g>
			
				<linearGradient id="SVGID_00000123438179540501097980000011690782351154734267_" gradientUnits="userSpaceOnUse" x1="1487.9539" y1="-4096.0864" x2="1473.5634" y2="-4083.9785" gradientTransform="matrix(0.763 0.4367 0 -1 -881.5222 -4612.8789)">
				<stop  offset="0" style="stop-color:#B2509A"/>
				<stop  offset="1" style="stop-color:#70B7C4"/>
			</linearGradient>
			<path style="fill:url(#SVGID_00000123438179540501097980000011690782351154734267_);" d="M248.28,114.1
				c-4.07-2.33-7.38,0.11-7.38,5.45c0,5.34,3.31,11.56,7.38,13.9c4.07,2.33,7.38-0.1,7.38-5.45S252.35,116.44,248.28,114.1z
				 M251.42,130.09c-0.08,0.07-0.19,0.06-0.33-0.02c-0.09-0.05-0.18-0.15-0.26-0.26c-0.08-0.12-0.13-0.25-0.18-0.4l-2.37-9.09
				l-0.87,2.34l0.42,0.24c0.25,0.14,0.45,0.52,0.45,0.84v0.02c0,0.32-0.2,0.47-0.45,0.33l-0.79-0.45l-1.14,3.06
				c-0.04,0.1-0.1,0.17-0.18,0.19c-0.07,0.03-0.17,0.01-0.26-0.03c-0.14-0.08-0.25-0.2-0.33-0.36s-0.12-0.32-0.12-0.51
				c0-0.08,0.01-0.15,0.03-0.21l1.04-2.69l-0.44-0.25c-0.25-0.14-0.45-0.52-0.45-0.84v-0.01c0-0.32,0.2-0.47,0.45-0.33l0.82,0.47
				l1.08-2.82c0.14-0.33,0.35-0.41,0.63-0.25l0.22,0.13c0.27,0.16,0.48,0.48,0.63,0.97l2.5,9.34c0.02,0.08,0.03,0.16,0.03,0.24
				C251.54,129.9,251.5,130.02,251.42,130.09z"/>
		</g>
	</g>
</g>
</svg>
