<?xml version="1.0" encoding="utf-8"?>
<!-- Generator: Adobe Illustrator 27.8.1, SVG Export Plug-In . SVG Version: 6.00 Build 0)  -->
<svg version="1.1" id="Слой_1" xmlns="http://www.w3.org/2000/svg" xmlns:xlink="http://www.w3.org/1999/xlink" x="0px" y="0px"
	 viewBox="0 0 290 269.62" style="enable-background:new 0 0 290 269.62;" xml:space="preserve">
<style type="text/css">
	.st0{fill:#101422;}
	.st1{fill:#FFFFFF;stroke:#111422;stroke-linecap:round;stroke-linejoin:round;stroke-miterlimit:10;}
	
		.st2{fill-rule:evenodd;clip-rule:evenodd;fill:#C6C3D1;stroke:#101320;stroke-linecap:round;stroke-linejoin:round;stroke-miterlimit:10;}
	
		.st3{fill-rule:evenodd;clip-rule:evenodd;fill:#FFFFFF;stroke:#111422;stroke-linecap:round;stroke-linejoin:round;stroke-miterlimit:10;}
	
		.st4{fill-rule:evenodd;clip-rule:evenodd;fill:#ECF0FC;stroke:#111422;stroke-linecap:round;stroke-linejoin:round;stroke-miterlimit:10;}
	.st5{opacity:0.92;fill-rule:evenodd;clip-rule:evenodd;fill:#FFFFFF;enable-background:new    ;}
	.st6{fill:none;stroke:#FFFFFF;stroke-linecap:round;stroke-linejoin:round;stroke-miterlimit:10;}
	.st7{fill-rule:evenodd;clip-rule:evenodd;fill:#101422;}
	.st8{fill:url(#SVGID_1_);}
	.st9{fill:url(#SVGID_00000170982974939043450000000009539322116325404319_);}
	.st10{fill:url(#SVGID_00000095304020593833264080000011381944179895016083_);}
	.st11{opacity:0.67;fill:url(#SVGID_00000113348961688154030230000013845788342009063866_);enable-background:new    ;}
	.st12{fill:#6FA3B6;}
	.st13{fill:url(#SVGID_00000007424041395885418020000002558164780059592605_);}
	.st14{opacity:0.2563;fill-rule:evenodd;clip-rule:evenodd;fill:#FFFFFF;enable-background:new    ;}
	.st15{fill:none;stroke:#FFFFFF;stroke-width:0.7384;stroke-linecap:round;stroke-linejoin:round;stroke-miterlimit:10;}
	
		.st16{fill:none;stroke:url(#SVGID_00000070109364309313182760000001579072354726899887_);stroke-width:5;stroke-linecap:round;stroke-linejoin:round;stroke-miterlimit:10;}
	.st17{fill:url(#SVGID_00000023265910670737620590000014597982240601919391_);}
	.st18{fill-rule:evenodd;clip-rule:evenodd;fill:#1AD4B3;}
	.st19{fill-rule:evenodd;clip-rule:evenodd;fill:#FC4F83;}
	.st20{fill:#C6C3D1;stroke:#101320;stroke-linecap:round;stroke-linejoin:round;stroke-miterlimit:10;}
	.st21{fill:#ECF0FC;stroke:#111422;stroke-linecap:round;stroke-linejoin:round;stroke-miterlimit:10;}
	
		.st22{fill:url(#SVGID_00000108988960171245141960000014696809265665370273_);stroke:#1D1D1B;stroke-width:0.2115;stroke-linecap:round;stroke-linejoin:round;stroke-miterlimit:10;}
	
		.st23{fill:url(#SVGID_00000060008481419041172840000015276420048687596433_);stroke:#1D1D1B;stroke-width:0.2115;stroke-linecap:round;stroke-linejoin:round;stroke-miterlimit:10;}
	
		.st24{fill:url(#SVGID_00000090273218141223270690000012847855751499210386_);stroke:#1D1D1B;stroke-width:0.2115;stroke-linecap:round;stroke-linejoin:round;stroke-miterlimit:10;}
	
		.st25{fill:url(#SVGID_00000049219215579319387770000001978335130289588871_);stroke:#1D1D1B;stroke-width:0.2115;stroke-linecap:round;stroke-linejoin:round;stroke-miterlimit:10;}
	
		.st26{fill-rule:evenodd;clip-rule:evenodd;fill:#101422;stroke:#101423;stroke-linecap:round;stroke-linejoin:round;stroke-miterlimit:10;}
	.st27{fill:#FFFFFF;}
	.st28{fill-rule:evenodd;clip-rule:evenodd;fill:url(#SVGID_00000129897665859770787730000016241381431442180528_);}
	.st29{fill-rule:evenodd;clip-rule:evenodd;fill:url(#SVGID_00000103986220886215609380000010239623138117440668_);}
	.st30{fill:url(#SVGID_00000053537500634487448850000015841753061508610697_);}
	.st31{fill:url(#SVGID_00000054254556940683776790000016863181445062897311_);}
	.st32{fill:url(#SVGID_00000108267477921852632030000005571811403377969049_);}
	
		.st33{fill-rule:evenodd;clip-rule:evenodd;fill:#C7FFF1;stroke:#101320;stroke-linecap:round;stroke-linejoin:round;stroke-miterlimit:10;}
	
		.st34{fill:none;stroke:url(#SVGID_00000122703906815992672510000013523719194552565173_);stroke-width:5;stroke-linecap:round;stroke-linejoin:round;stroke-miterlimit:10;}
	.st35{fill:url(#SVGID_00000109015206192915820220000012904777729112249789_);}
	
		.st36{fill:none;stroke:url(#SVGID_00000127722831311911136940000000650239583399562937_);stroke-width:5;stroke-linecap:round;stroke-linejoin:round;stroke-miterlimit:10;}
	.st37{fill:url(#SVGID_00000183963610608251114020000012606756871894075528_);}
	
		.st38{fill:none;stroke:url(#SVGID_00000160180627288089490250000006968133458671773085_);stroke-width:5;stroke-linecap:round;stroke-linejoin:round;stroke-miterlimit:10;}
	.st39{fill:url(#SVGID_00000147184384520693544900000010540853056026557079_);}
	
		.st40{fill-rule:evenodd;clip-rule:evenodd;fill:#1AD4B3;stroke:#111422;stroke-linecap:round;stroke-linejoin:round;stroke-miterlimit:10;}
	
		.st41{fill-rule:evenodd;clip-rule:evenodd;fill:#FC4F83;stroke:#111422;stroke-linecap:round;stroke-linejoin:round;stroke-miterlimit:10;}
	
		.st42{fill-rule:evenodd;clip-rule:evenodd;fill:#FFCAD7;stroke:#111422;stroke-linecap:round;stroke-linejoin:round;stroke-miterlimit:10;}
	.st43{fill:url(#SVGID_00000107584111599197928640000001995377538357217926_);}
	.st44{fill:url(#SVGID_00000074438329409828926480000015171072591491248015_);}
	.st45{fill:url(#SVGID_00000181769823884098280320000007631099431099982772_);}
	
		.st46{fill:none;stroke:url(#SVGID_00000129897944002664758540000007941391359016083340_);stroke-width:5;stroke-linecap:round;stroke-linejoin:round;stroke-miterlimit:10;}
	.st47{fill:url(#SVGID_00000046336272368368428060000013916728635789118894_);}
	
		.st48{fill:none;stroke:url(#SVGID_00000159471921978447676000000004995286153949059737_);stroke-width:5;stroke-linecap:round;stroke-linejoin:round;stroke-miterlimit:10;}
	.st49{fill:url(#SVGID_00000090274733264026989330000014224376371987397527_);}
	.st50{fill:url(#SVGID_00000129915595940020616390000010409365108749337482_);}
	.st51{fill:#101320;}
	.st52{fill:url(#SVGID_00000136382043947356160480000018281636327742558127_);}
	.st53{fill:url(#SVGID_00000162328814822323964970000016409742632596882325_);}
	.st54{fill:url(#SVGID_00000089575791664743851610000013371919211544481724_);}
	.st55{fill:url(#SVGID_00000098199924201459975100000017966388112791296654_);}
	.st56{fill:url(#SVGID_00000167387805361827850760000000780935531739384219_);}
	.st57{fill:url(#SVGID_00000082364414476485620620000006591528298734395541_);}
	.st58{opacity:0.29;fill:url(#SVGID_00000018915417678183991230000016087614656348528060_);enable-background:new    ;}
	.st59{fill:url(#SVGID_00000063614035871852177080000007547952607896709516_);}
	.st60{fill:url(#SVGID_00000005986230234961852880000001141269460281221522_);}
	.st61{fill:url(#SVGID_00000040536260274535085990000009434234599767605904_);}
	.st62{fill-rule:evenodd;clip-rule:evenodd;fill:url(#SVGID_00000041980285192932499510000014326386546439599527_);}
	.st63{fill:url(#SVGID_00000009552679163918916900000014714229070053992348_);}
	.st64{fill:url(#SVGID_00000052097962026387517550000012775335743976202126_);}
	.st65{fill:url(#SVGID_00000005265186170402106880000009064811352099047847_);}
	.st66{fill:url(#SVGID_00000172399916867659440100000015843805729284770437_);}
	.st67{opacity:0.29;fill:url(#SVGID_00000012444525609288143510000001860771194314662551_);enable-background:new    ;}
	
		.st68{fill:none;stroke:url(#SVGID_00000049935840396675975530000008110429496878660000_);stroke-width:5;stroke-linecap:round;stroke-linejoin:round;stroke-miterlimit:10;}
	.st69{fill:url(#SVGID_00000119834545308299275430000009214944896786801588_);}
	
		.st70{fill:none;stroke:url(#SVGID_00000016073609028420409900000017504324604912690852_);stroke-width:5;stroke-linecap:round;stroke-linejoin:round;stroke-miterlimit:10;}
	.st71{fill:url(#SVGID_00000013190920074375983700000014758225463353446583_);}
	
		.st72{fill:none;stroke:url(#SVGID_00000129179881839461295110000013086556926594397843_);stroke-width:5;stroke-linecap:round;stroke-linejoin:round;stroke-miterlimit:10;}
	.st73{fill:url(#SVGID_00000015320615402553872420000015240162157358237092_);}
	.st74{fill-rule:evenodd;clip-rule:evenodd;fill:url(#SVGID_00000026877094626546214140000000400346153772824709_);}
	.st75{fill:url(#SVGID_00000020382220568573333590000001834597841996738740_);}
	.st76{fill:url(#SVGID_00000158739511463137146390000004850043349507170215_);}
	.st77{fill:url(#SVGID_00000166676677637869040660000000079459942816915626_);}
	.st78{opacity:0.29;fill:url(#SVGID_00000084492436881844226270000016777666450671792013_);}
	.st79{opacity:0.29;fill:url(#SVGID_00000135663403963299686490000011347424675933760946_);}
	.st80{opacity:0.67;fill:url(#SVGID_00000090288945586033809400000002449709405034350761_);}
	.st81{fill:#3FA9BD;}
	.st82{fill:url(#SVGID_00000018943797907626346020000005555390374685055925_);}
	.st83{fill-rule:evenodd;clip-rule:evenodd;fill:#555069;}
	.st84{fill-rule:evenodd;clip-rule:evenodd;fill:#FFFFFF;}
	.st85{fill-rule:evenodd;clip-rule:evenodd;fill:#AFAFB1;}
	.st86{fill-rule:evenodd;clip-rule:evenodd;fill:#D3D3D3;}
	.st87{opacity:0.67;fill:url(#SVGID_00000075843594658810750050000013432719139597087904_);}
	.st88{fill:url(#SVGID_00000178176539513121352480000007195734482831288971_);}
	.st89{opacity:0.67;fill:url(#SVGID_00000111877673661001459190000008122531133328017579_);}
	.st90{fill:url(#SVGID_00000021088283552739497420000011340807057112281521_);}
	.st91{opacity:0.67;fill:url(#SVGID_00000132781179885750815680000005901913741182984892_);}
	.st92{fill:url(#SVGID_00000110468418901606759810000011735212347490863002_);}
	.st93{opacity:0.67;fill:url(#SVGID_00000048479968349306591390000015793720343213842850_);}
	.st94{fill:url(#SVGID_00000019656455509991510670000016676070946913860238_);}
	.st95{opacity:0.67;fill:url(#SVGID_00000141421986355157975740000013147144767018491015_);}
	.st96{fill:url(#SVGID_00000038389805455967753140000006660290757978191547_);}
	.st97{fill:#1AD4B3;}
	.st98{opacity:0.67;fill:url(#SVGID_00000049213313019470444920000009833720161386654392_);}
	.st99{fill:url(#SVGID_00000157288390358270321160000002679535909521322401_);}
	.st100{opacity:0.67;fill:url(#SVGID_00000039112514419935859920000016704661213482147458_);}
	.st101{fill:url(#SVGID_00000013908957223732056400000002701259840563036044_);}
	.st102{opacity:0.67;fill:url(#SVGID_00000060723831274126773790000007137412105674888381_);}
	.st103{fill:url(#SVGID_00000121976948465035914360000018375354330047004069_);}
	
		.st104{fill-rule:evenodd;clip-rule:evenodd;fill:none;stroke:#FFFFFF;stroke-width:0.7384;stroke-linecap:round;stroke-linejoin:round;stroke-miterlimit:10;}
	.st105{opacity:0.67;fill:url(#SVGID_00000093170837985731562510000009149854239684379065_);}
	.st106{fill:url(#SVGID_00000065040915168875440800000017860245563292877442_);}
	.st107{opacity:0.67;fill:url(#SVGID_00000087386926784760293650000000643723962010475407_);}
	.st108{fill:url(#SVGID_00000145044149467282053270000016414684032587720370_);}
	.st109{opacity:0.67;fill:url(#SVGID_00000108272793859268164880000017388888759586129312_);}
	.st110{fill:url(#SVGID_00000041993759876279307480000013079775739062411962_);}
	.st111{opacity:0.67;fill:url(#SVGID_00000181073251202673603720000005273748249809914045_);}
	.st112{fill:url(#SVGID_00000151535665297721188270000007091822505660368533_);}
	.st113{opacity:0.67;fill:url(#SVGID_00000139262612027779852660000003085453723986809768_);}
	.st114{fill:url(#SVGID_00000135671608628610834880000012584759226018416571_);}
	.st115{opacity:0.67;fill:url(#SVGID_00000152248301989427668100000016707900997360592268_);}
	.st116{fill:url(#SVGID_00000031172844364492365440000010024348821817177766_);}
	.st117{opacity:0.67;fill:url(#SVGID_00000109030386360491858940000008949980254547338675_);}
	.st118{fill:url(#SVGID_00000005241447537842882110000015121685122139821232_);}
	.st119{opacity:0.67;fill:url(#SVGID_00000144324808413909503230000008563148291136329348_);}
	.st120{fill:url(#SVGID_00000137851172221943701960000003275557076034786455_);}
	.st121{opacity:0.67;fill:url(#SVGID_00000095337592326502292550000013327614691898538412_);}
	.st122{fill:url(#SVGID_00000026868583431049077890000016388754100123057341_);}
	.st123{opacity:0.67;fill:url(#SVGID_00000124157649394118929990000011048597454223040671_);}
	.st124{fill:url(#SVGID_00000137816621099928738360000016415619646023900802_);}
	.st125{opacity:0.67;fill:url(#SVGID_00000090978881430283251690000012909311386315978921_);}
	.st126{fill:url(#SVGID_00000085239434416170484230000009041059151068940195_);}
	.st127{opacity:0.67;fill:url(#SVGID_00000165943492297797922940000013617187903229839017_);}
	.st128{fill:#5EA6B9;}
	.st129{fill:url(#SVGID_00000155850413108360856530000015284328006883957918_);}
	.st130{fill-rule:evenodd;clip-rule:evenodd;fill:#545067;}
	.st131{fill-rule:evenodd;clip-rule:evenodd;fill:#AEAEB0;}
	.st132{fill-rule:evenodd;clip-rule:evenodd;fill:#D2D2D2;}
	.st133{opacity:0.67;fill:url(#SVGID_00000111885032127310118960000003357194266061302919_);}
	.st134{fill:url(#SVGID_00000134941793340838260940000004203972192154154430_);}
	.st135{fill-rule:evenodd;clip-rule:evenodd;fill:#63D0B3;}
	
		.st136{fill-rule:evenodd;clip-rule:evenodd;fill:none;stroke:#111422;stroke-linecap:round;stroke-linejoin:round;stroke-miterlimit:10;}
	.st137{fill-rule:evenodd;clip-rule:evenodd;fill:#E85C83;}
	.st138{fill:#5DC29D;}
	.st139{fill:url(#SVGID_00000101811597058225208150000000448006767555394490_);}
	.st140{fill:url(#SVGID_00000120560954725590365380000005259194227440172990_);}
	.st141{fill:#E85C83;}
	.st142{opacity:0.67;fill:url(#SVGID_00000039132714453117591300000008960409435700471427_);}
	.st143{fill:url(#SVGID_00000181089117820488155810000011331074161551535289_);}
	
		.st144{fill:none;stroke:url(#SVGID_00000020367415993797252860000002296898840309305490_);stroke-width:5;stroke-linecap:round;stroke-linejoin:round;stroke-miterlimit:10;}
	.st145{fill:url(#SVGID_00000135659103120811858620000015939493644764884649_);}
	.st146{opacity:0.67;fill:url(#SVGID_00000053533736358432888650000013050072635618792325_);}
	.st147{fill:url(#SVGID_00000098942820864464474700000015783844113807160736_);}
	.st148{opacity:0.67;fill:url(#SVGID_00000116922037118024476500000013693785680381679788_);}
	.st149{fill:url(#SVGID_00000097471664199024191370000011182563314191434141_);}
	.st150{opacity:0.67;fill:url(#SVGID_00000006677304723034307690000011616775280836851121_);}
	.st151{fill:url(#SVGID_00000127759301476901387710000009781086681965530047_);}
	.st152{opacity:0.67;fill:url(#SVGID_00000074413965853363491680000003970065408076485011_);}
	.st153{fill:url(#SVGID_00000010284151948375904390000002546635640961090693_);}
	.st154{opacity:0.67;fill:url(#SVGID_00000075163871168792666790000018063857063710683530_);}
	.st155{fill:url(#SVGID_00000155865945029008761020000005813779961091103118_);}
	.st156{opacity:0.67;fill:url(#SVGID_00000070114146125281422670000007552852985204437176_);}
	.st157{fill:url(#SVGID_00000126308711839672051270000014662647022541293722_);}
	.st158{fill:none;stroke:#000000;stroke-width:22;stroke-linecap:round;stroke-linejoin:round;stroke-miterlimit:10;}
	.st159{fill:#ECF0FC;}
	.st160{fill:url(#SVGID_00000039851963362614341430000003041035472528192685_);}
	.st161{fill:url(#SVGID_00000002383185381565681890000006724016783472636077_);}
	.st162{fill:none;stroke:url(#SVGID_00000019679947589458159180000017684250310642210960_);stroke-width:5;stroke-miterlimit:10;}
	.st163{fill:#111422;}
	.st164{fill:url(#SVGID_00000110465162273519096590000008971829217656974729_);}
	.st165{fill:none;}
	.st166{opacity:0.67;fill:url(#SVGID_00000014621130248604200420000016272861248563848891_);}
	.st167{fill:url(#SVGID_00000009552633171146498650000014775928664876844677_);}
	.st168{fill:none;stroke:url(#SVGID_00000068672047956227642950000014998635908722943400_);stroke-width:5;stroke-miterlimit:10;}
	.st169{fill:url(#SVGID_00000108288701335894540920000007700825519813189506_);}
	.st170{opacity:0.67;fill:url(#SVGID_00000116942111200021200670000007681599946755420581_);}
	.st171{fill:url(#SVGID_00000061441586095613450270000003636013958078938020_);}
	.st172{opacity:0.67;fill:url(#SVGID_00000074427470290725005860000005855118068741297024_);}
	.st173{fill:url(#SVGID_00000070812535401255910110000018390816110246966969_);}
</style>
<g>
	<circle class="st0" cx="144.67" cy="70.24" r="26.03"/>
	<g>
		<g>
			<path class="st1" d="M138.21,43.43l-0.01,10.81c-0.33,1.38,0.28,2.85,1.82,3.91c2.54,1.76,6.66,1.76,9.2,0
				c1.08-0.75,1.7-1.69,1.86-2.67l0.04,0l0-0.45c0-0.04,0-0.09,0-0.13l0.01-11.18L138.21,43.43z"/>
			<path class="st1" d="M138.26,51.16c0,2.45,2.87,4.43,6.41,4.43s6.41-1.98,6.41-4.43"/>
			<path class="st1" d="M138.26,47.77c0,2.45,2.87,4.43,6.41,4.43s6.41-1.98,6.41-4.43"/>
			<path class="st1" d="M138.26,44.21c0,2.45,2.87,4.43,6.41,4.43s6.41-1.98,6.41-4.43"/>
		</g>
		<g>
			<path class="st1" d="M138.21,32.75l-0.01,10.81c-0.33,1.38,0.28,2.85,1.82,3.91c2.54,1.76,6.66,1.76,9.2,0
				c1.08-0.75,1.7-1.69,1.86-2.67l0.04,0l0-0.45c0-0.04,0-0.09,0-0.13l0.01-11.18L138.21,32.75z"/>
			<path class="st1" d="M138.26,40.49c0,2.45,2.87,4.43,6.41,4.43s6.41-1.98,6.41-4.43"/>
			<path class="st1" d="M138.26,37.1c0,2.45,2.87,4.43,6.41,4.43s6.41-1.98,6.41-4.43"/>
			<path class="st1" d="M138.26,33.54c0,2.45,2.87,4.43,6.41,4.43s6.41-1.98,6.41-4.43"/>
		</g>
	</g>
	<g>
		<g>
			<g>
				<polygon class="st2" points="144.27,48.55 126.46,38.27 126.46,20.45 144.27,30.74 				"/>
				<polygon class="st3" points="144.27,48.55 162.09,38.27 162.09,20.45 144.27,30.74 				"/>
				<polygon class="st4" points="144.34,30.79 126.46,20.47 144.21,10.13 162.09,20.45 				"/>
			</g>
			<path id="矩形_00000084517944453059055510000015566031938585708951_" class="st5" d="M138.69,15.45L138.69,15.45
				c0.35,0.2,0.29,0.58-0.12,0.83l-3.7,2.19c-0.42,0.25-1.08,0.29-1.43,0.09l0,0c-0.35-0.2-0.29-0.58,0.12-0.83l3.7-2.19
				C137.68,15.29,138.34,15.25,138.69,15.45z"/>
			<path id="矩形_00000157288124635365377830000001084617626279501719_" class="st5" d="M131.99,19.41L131.99,19.41
				c0.35,0.2,0.29,0.58-0.12,0.83l-0.72,0.42c-0.42,0.25-1.08,0.29-1.43,0.09l0,0c-0.35-0.2-0.29-0.58,0.12-0.83l0.72-0.42
				C131.02,19.24,131.64,19.21,131.99,19.41z"/>
		</g>
	</g>
</g>
<g>
	<circle class="st0" cx="263.33" cy="58.37" r="17.42"/>
	<g>
		<g>
			<path class="st1" d="M259,40.43l0,7.23c-0.22,0.92,0.19,1.91,1.22,2.62c1.7,1.18,4.46,1.18,6.16,0c0.72-0.5,1.14-1.13,1.25-1.79
				l0.03,0l0-0.3c0-0.03,0-0.06,0-0.09l0-7.49L259,40.43z"/>
			<path class="st1" d="M259.04,45.6c0,1.64,1.92,2.97,4.29,2.97c2.37,0,4.29-1.33,4.29-2.97"/>
			<path class="st1" d="M259.04,43.33c0,1.64,1.92,2.97,4.29,2.97c2.37,0,4.29-1.33,4.29-2.97"/>
			<path class="st1" d="M259.04,40.95c0,1.64,1.92,2.97,4.29,2.97c2.37,0,4.29-1.33,4.29-2.97"/>
		</g>
		<g>
			<path class="st1" d="M259,33.28l0,7.23c-0.22,0.92,0.19,1.91,1.22,2.62c1.7,1.18,4.46,1.18,6.16,0c0.72-0.5,1.14-1.13,1.25-1.79
				l0.03,0l0-0.3c0-0.03,0-0.06,0-0.09l0-7.49L259,33.28z"/>
			<path class="st1" d="M259.04,38.46c0,1.64,1.92,2.97,4.29,2.97c2.37,0,4.29-1.33,4.29-2.97"/>
			<path class="st1" d="M259.04,36.19c0,1.64,1.92,2.97,4.29,2.97c2.37,0,4.29-1.33,4.29-2.97"/>
			<path class="st1" d="M259.04,33.8c0,1.64,1.92,2.97,4.29,2.97c2.37,0,4.29-1.33,4.29-2.97"/>
		</g>
	</g>
	<g>
		<g>
			<g>
				<polygon class="st2" points="263.06,43.86 251.14,36.97 251.14,25.05 263.06,31.93 				"/>
				<polygon class="st3" points="263.06,43.86 274.99,36.97 274.99,25.05 263.06,31.93 				"/>
				<polygon class="st4" points="263.11,31.97 251.14,25.06 263.02,18.13 274.99,25.05 				"/>
			</g>
			<path id="矩形_00000048460771651221645110000012887682916228189346_" class="st5" d="M259.43,21.56L259.43,21.56
				c0.23,0.13,0.2,0.39-0.08,0.55l-2.47,1.46c-0.28,0.17-0.72,0.19-0.95,0.06l0,0c-0.23-0.13-0.2-0.39,0.08-0.55l2.47-1.46
				C258.75,21.46,259.19,21.43,259.43,21.56z"/>
			<path id="矩形_00000006702334600983477650000016031321244672891297_" class="st5" d="M254.95,24.22L254.95,24.22
				c0.23,0.13,0.2,0.39-0.08,0.55l-0.48,0.28c-0.28,0.17-0.72,0.19-0.95,0.06l0,0c-0.23-0.13-0.2-0.39,0.08-0.55l0.48-0.28
				C254.29,24.1,254.71,24.08,254.95,24.22z"/>
		</g>
	</g>
</g>
<g>
	<g>
		<polygon class="st3" points="263.04,158.85 209.25,189.57 209.5,210.38 263.16,179.85 		"/>
		<polygon class="st2" points="168.54,166.9 209.25,189.52 209.5,210.38 168.79,187.76 		"/>
		<polygon class="st4" points="262.79,158.83 221.55,135.82 168.54,166.9 209.25,189.72 		"/>
	</g>
	<g>
		<polygon class="st3" points="263.04,134.31 209.25,165.03 209.5,185.84 263.16,155.31 		"/>
		<polygon class="st2" points="168.54,142.36 209.25,164.97 209.5,185.84 168.79,163.22 		"/>
		<polygon class="st4" points="263.04,134.24 221.8,111.23 168.54,141.97 209.25,164.79 		"/>
	</g>
	<circle class="st0" cx="213.14" cy="111.19" r="41.04"/>
	<g>
		<g>
			<path class="st0" d="M217.3,175.29v-8.95l2.53-1.5c0.49-0.29,0.9-0.41,1.24-0.35c0.34,0.05,0.6,0.26,0.79,0.61
				c0.18,0.35,0.27,0.82,0.27,1.41c0,0.59-0.09,1.17-0.28,1.74c-0.18,0.56-0.45,1.07-0.8,1.53c-0.35,0.46-0.77,0.84-1.26,1.13
				l-1.61,0.96v-1.52l1.39-0.83c0.26-0.15,0.48-0.35,0.65-0.57c0.17-0.23,0.3-0.48,0.38-0.76c0.08-0.28,0.13-0.56,0.13-0.85
				c0-0.3-0.04-0.53-0.13-0.71c-0.08-0.17-0.21-0.27-0.38-0.29c-0.17-0.02-0.39,0.04-0.65,0.2l-0.91,0.54v7.4L217.3,175.29z"/>
			<path class="st0" d="M222.99,171.92v-6.71l1.29-0.77v1.17l0.05-0.03c0.09-0.47,0.23-0.87,0.44-1.21
				c0.21-0.34,0.44-0.58,0.71-0.74c0.07-0.04,0.14-0.08,0.22-0.11c0.08-0.03,0.15-0.06,0.2-0.07v1.65
				c-0.06,0.01-0.15,0.04-0.26,0.08c-0.11,0.04-0.21,0.09-0.3,0.15c-0.2,0.12-0.37,0.28-0.53,0.49c-0.15,0.21-0.27,0.44-0.36,0.71
				c-0.09,0.26-0.13,0.53-0.13,0.8v3.8L222.99,171.92z"/>
			<path class="st0" d="M228.54,168.76c-0.49,0.29-0.91,0.39-1.26,0.31c-0.35-0.08-0.63-0.32-0.82-0.73
				c-0.19-0.41-0.29-0.95-0.29-1.64c0-0.69,0.1-1.36,0.29-1.99c0.19-0.63,0.47-1.2,0.82-1.7c0.35-0.5,0.77-0.89,1.26-1.18
				c0.49-0.29,0.91-0.39,1.26-0.31c0.35,0.08,0.63,0.32,0.82,0.73c0.19,0.41,0.29,0.96,0.29,1.65c0,0.69-0.1,1.35-0.29,1.98
				c-0.19,0.63-0.47,1.2-0.82,1.7C229.45,168.08,229.03,168.47,228.54,168.76z M228.55,167.32c0.22-0.13,0.41-0.33,0.55-0.59
				s0.26-0.57,0.34-0.92s0.11-0.72,0.11-1.11c0-0.39-0.04-0.72-0.11-0.98s-0.19-0.44-0.34-0.53c-0.15-0.09-0.33-0.07-0.55,0.06
				c-0.22,0.13-0.41,0.33-0.56,0.6c-0.15,0.27-0.27,0.58-0.34,0.93c-0.08,0.35-0.11,0.72-0.11,1.11c0,0.39,0.04,0.72,0.11,0.98
				c0.08,0.26,0.19,0.43,0.34,0.52C228.14,167.47,228.32,167.45,228.55,167.32z"/>
			<path class="st0" d="M231.78,169.23V160l1.32-0.78v1.13l0.06-0.04c0.06-0.22,0.14-0.45,0.26-0.7c0.11-0.25,0.26-0.5,0.44-0.73
				c0.18-0.23,0.41-0.43,0.68-0.59c0.35-0.21,0.67-0.27,0.97-0.19c0.3,0.08,0.53,0.32,0.71,0.73c0.18,0.41,0.27,0.99,0.27,1.76
				c0,0.75-0.09,1.43-0.26,2.05c-0.17,0.62-0.41,1.14-0.7,1.58c-0.3,0.44-0.63,0.77-0.99,0.98c-0.26,0.15-0.48,0.22-0.66,0.21
				c-0.18-0.01-0.33-0.07-0.44-0.19c-0.11-0.11-0.2-0.25-0.26-0.4l-0.04,0.02v3.59L231.78,169.23z M233.09,162.58
				c0,0.4,0.04,0.72,0.12,0.97c0.08,0.25,0.19,0.41,0.34,0.49c0.15,0.07,0.33,0.05,0.55-0.08c0.22-0.13,0.4-0.32,0.55-0.58
				c0.15-0.26,0.26-0.56,0.34-0.9c0.08-0.35,0.12-0.71,0.12-1.1c0-0.39-0.04-0.71-0.12-0.95c-0.08-0.25-0.19-0.41-0.34-0.49
				c-0.15-0.08-0.33-0.05-0.55,0.08c-0.22,0.13-0.4,0.32-0.55,0.57s-0.26,0.54-0.34,0.89C233.13,161.81,233.09,162.18,233.09,162.58
				z"/>
			<path class="st0" d="M239.53,162.25c-0.49,0.29-0.91,0.39-1.26,0.31c-0.35-0.08-0.63-0.32-0.82-0.73
				c-0.19-0.41-0.29-0.95-0.29-1.64c0-0.69,0.1-1.36,0.29-1.99c0.19-0.63,0.47-1.2,0.82-1.7c0.35-0.5,0.77-0.89,1.26-1.18
				c0.49-0.29,0.91-0.39,1.26-0.31c0.35,0.08,0.63,0.32,0.82,0.73c0.19,0.41,0.29,0.96,0.29,1.65c0,0.69-0.1,1.35-0.29,1.98
				c-0.19,0.63-0.47,1.2-0.82,1.7C240.44,161.57,240.02,161.96,239.53,162.25z M239.54,160.8c0.22-0.13,0.41-0.33,0.55-0.59
				s0.26-0.57,0.34-0.92c0.08-0.35,0.11-0.72,0.11-1.11s-0.04-0.72-0.11-0.98c-0.08-0.26-0.19-0.44-0.34-0.53
				c-0.15-0.09-0.33-0.07-0.55,0.06c-0.22,0.13-0.41,0.33-0.56,0.6c-0.15,0.27-0.27,0.58-0.34,0.93s-0.11,0.72-0.11,1.11
				c0,0.39,0.04,0.72,0.11,0.98c0.08,0.26,0.19,0.43,0.34,0.52C239.13,160.96,239.32,160.94,239.54,160.8z"/>
			<path class="st0" d="M246.78,153.03l-1.22,0.83c-0.02-0.13-0.07-0.24-0.13-0.32c-0.07-0.08-0.16-0.12-0.27-0.12
				c-0.11-0.01-0.24,0.04-0.4,0.13c-0.21,0.12-0.38,0.29-0.52,0.49c-0.14,0.21-0.21,0.41-0.21,0.61c0,0.16,0.05,0.27,0.14,0.32
				c0.09,0.06,0.25,0.05,0.47-0.01l0.87-0.27c0.47-0.14,0.82-0.13,1.05,0.03c0.23,0.16,0.34,0.48,0.34,0.97
				c0,0.44-0.09,0.88-0.28,1.32c-0.18,0.44-0.44,0.85-0.76,1.22c-0.32,0.38-0.69,0.69-1.11,0.93c-0.64,0.38-1.14,0.49-1.52,0.34
				c-0.38-0.15-0.6-0.52-0.66-1.13l1.31-0.87c0.04,0.25,0.14,0.4,0.29,0.45c0.15,0.05,0.35,0.01,0.59-0.14
				c0.23-0.14,0.42-0.31,0.57-0.53c0.14-0.21,0.22-0.42,0.22-0.62c0-0.17-0.05-0.28-0.15-0.33c-0.1-0.05-0.25-0.04-0.46,0.02
				l-0.83,0.26c-0.47,0.15-0.82,0.13-1.05-0.06c-0.23-0.19-0.34-0.53-0.34-1.03c0-0.43,0.08-0.85,0.25-1.26
				c0.17-0.41,0.4-0.79,0.71-1.14c0.31-0.35,0.66-0.65,1.08-0.89c0.61-0.36,1.09-0.46,1.44-0.31
				C246.51,152.08,246.72,152.45,246.78,153.03z"/>
			<path class="st0" d="M249.1,156.58c-0.31,0.18-0.58,0.27-0.82,0.26c-0.24-0.01-0.43-0.12-0.57-0.33
				c-0.14-0.21-0.21-0.54-0.21-0.98c0-0.37,0.05-0.72,0.15-1.03c0.1-0.31,0.23-0.59,0.4-0.85c0.17-0.25,0.36-0.49,0.58-0.69
				c0.22-0.21,0.44-0.4,0.68-0.57c0.28-0.21,0.51-0.38,0.68-0.52c0.17-0.14,0.3-0.27,0.37-0.38c0.08-0.12,0.12-0.25,0.12-0.39v-0.03
				c0-0.28-0.06-0.45-0.19-0.53c-0.12-0.08-0.3-0.05-0.53,0.09c-0.24,0.14-0.43,0.33-0.57,0.56c-0.14,0.23-0.24,0.47-0.28,0.72
				l-1.23,0.59c0.06-0.44,0.19-0.87,0.37-1.28c0.18-0.41,0.42-0.78,0.71-1.11c0.29-0.33,0.63-0.62,1.01-0.84
				c0.27-0.16,0.52-0.27,0.77-0.32c0.25-0.06,0.46-0.05,0.65,0.02c0.19,0.07,0.34,0.22,0.45,0.44c0.11,0.22,0.17,0.53,0.17,0.93
				v4.53l-1.27,0.75v-0.93l-0.04,0.02c-0.08,0.26-0.18,0.5-0.31,0.74c-0.13,0.24-0.29,0.45-0.47,0.65
				C249.55,156.27,249.34,156.43,249.1,156.58z M249.48,155.06c0.2-0.12,0.37-0.27,0.52-0.47c0.15-0.2,0.27-0.42,0.35-0.65
				c0.09-0.24,0.13-0.47,0.13-0.71v-0.71c-0.04,0.06-0.1,0.13-0.17,0.2c-0.07,0.07-0.15,0.15-0.24,0.23
				c-0.09,0.08-0.18,0.15-0.27,0.23c-0.09,0.07-0.17,0.14-0.24,0.2c-0.16,0.12-0.29,0.26-0.41,0.4c-0.12,0.14-0.21,0.29-0.27,0.44
				c-0.06,0.16-0.1,0.32-0.1,0.5c0,0.25,0.07,0.41,0.2,0.46C249.11,155.22,249.28,155.19,249.48,155.06z"/>
			<path class="st0" d="M254.18,144.49v8.95l-1.33,0.79v-8.95L254.18,144.49z"/>
		</g>
	</g>
</g>
<g>
	<polygon class="st3" points="132.63,74 22.49,136.92 22.49,195.82 132.63,132.9 	"/>
	<polygon class="st2" points="8.05,128.76 22.49,136.56 22.49,195.82 8.05,188.02 	"/>
	<polygon class="st4" points="132.63,74 117.12,65.8 8.05,128.76 22.49,136.56 	"/>
</g>
<g>
	<path class="st0" d="M34.88,159.72v-18.84l5.04-3c0.87-0.52,1.63-0.69,2.28-0.53c0.65,0.17,1.16,0.64,1.52,1.42
		c0.36,0.79,0.54,1.85,0.54,3.18c0,1.35-0.18,2.63-0.56,3.84c-0.37,1.21-0.89,2.28-1.56,3.21c-0.67,0.93-1.44,1.66-2.33,2.19
		l-3.01,1.79v-3.97l2.37-1.41c0.37-0.22,0.69-0.52,0.96-0.89c0.26-0.37,0.47-0.79,0.61-1.27c0.14-0.48,0.21-0.98,0.21-1.52
		c0-0.54-0.07-0.96-0.21-1.26c-0.14-0.3-0.35-0.47-0.61-0.52c-0.26-0.05-0.58,0.04-0.96,0.26l-1.12,0.66v14.75L34.88,159.72z"/>
	<path class="st0" d="M46.99,152.51l-3.42,2.04l3.85-21.13l4.33-2.58l3.85,16.54l-3.42,2.04l-2.55-12.13l-0.09,0.06L46.99,152.51z
		 M46.35,145.46l6.43-3.83v3.83l-6.43,3.83V145.46z"/>
	<path class="st0" d="M55.07,128.87l3.53-2.1l2.28,6.29l0.09-0.06l2.28-9.01l3.53-2.11l-4.29,15.47v5.92l-3.15,1.87v-5.92
		L55.07,128.87z"/>
	<path class="st0" d="M67.82,140.11v-18.84l3.17-1.89v14.72l4.72-2.81v4.12L67.82,140.11z"/>
	<path class="st0" d="M87.84,118.77c0,2.1-0.25,4.02-0.76,5.75c-0.51,1.74-1.19,3.23-2.05,4.48c-0.86,1.25-1.82,2.19-2.87,2.82
		c-1.06,0.64-2.03,0.83-2.88,0.6c-0.86-0.24-1.54-0.92-2.04-2.06c-0.5-1.14-0.76-2.75-0.76-4.83c0-2.1,0.25-4.01,0.76-5.75
		c0.5-1.74,1.18-3.23,2.04-4.48c0.86-1.25,1.82-2.19,2.88-2.82c1.06-0.63,2.01-0.83,2.87-0.6c0.86,0.23,1.54,0.91,2.05,2.05
		C87.58,115.06,87.84,116.67,87.84,118.77z M84.58,120.71c0-1.13-0.09-2.02-0.28-2.69c-0.18-0.67-0.46-1.09-0.82-1.28
		c-0.36-0.19-0.8-0.12-1.33,0.19c-0.52,0.31-0.97,0.78-1.33,1.39c-0.36,0.62-0.63,1.37-0.82,2.25c-0.18,0.89-0.28,1.89-0.28,3.02
		c0,1.13,0.09,2.03,0.28,2.69c0.18,0.67,0.46,1.09,0.82,1.28c0.36,0.19,0.8,0.13,1.33-0.19c0.52-0.31,0.97-0.78,1.33-1.39
		c0.36-0.62,0.63-1.37,0.82-2.25C84.48,122.85,84.58,121.84,84.58,120.71z"/>
	<path class="st0" d="M91.6,125.95l-3.42,2.04l3.85-21.13l4.33-2.58l3.85,16.54l-3.42,2.04l-2.55-12.13l-0.09,0.06L91.6,125.95z
		 M90.96,118.9l6.43-3.83v3.83l-6.43,3.83V118.9z"/>
	<path class="st0" d="M105.83,117.47l-4.49,2.68v-18.84l4.45-2.65c1.2-0.71,2.24-0.96,3.12-0.73c0.88,0.23,1.55,0.91,2.03,2.03
		c0.48,1.12,0.72,2.67,0.72,4.63c0,1.96-0.24,3.79-0.71,5.48c-0.47,1.69-1.15,3.17-2.02,4.44
		C108.04,115.78,107.02,116.77,105.83,117.47z M104.51,113.92l1.21-0.72c0.58-0.34,1.07-0.79,1.48-1.33
		c0.41-0.54,0.72-1.25,0.94-2.11c0.21-0.86,0.32-1.95,0.32-3.26s-0.11-2.27-0.33-2.88c-0.22-0.61-0.54-0.93-0.96-0.98
		c-0.42-0.05-0.93,0.1-1.54,0.47l-1.12,0.66V113.92z"/>
	<path class="st0" d="M119.4,96.44c-0.03-0.6-0.17-0.99-0.43-1.18c-0.25-0.19-0.64-0.14-1.15,0.17c-0.33,0.19-0.59,0.42-0.8,0.66
		c-0.21,0.25-0.36,0.51-0.46,0.78c-0.1,0.27-0.15,0.55-0.15,0.83c-0.01,0.23,0.02,0.42,0.08,0.57c0.06,0.15,0.15,0.25,0.28,0.32
		c0.13,0.07,0.29,0.1,0.5,0.1c0.2,0,0.44-0.04,0.72-0.11l0.96-0.24c0.65-0.16,1.2-0.2,1.66-0.12c0.46,0.09,0.84,0.29,1.13,0.6
		c0.29,0.31,0.51,0.73,0.65,1.26c0.14,0.53,0.21,1.14,0.21,1.86c0,1.24-0.2,2.4-0.58,3.49c-0.38,1.09-0.92,2.06-1.63,2.93
		c-0.71,0.87-1.55,1.6-2.54,2.18c-1.02,0.6-1.9,0.89-2.65,0.85c-0.75-0.03-1.34-0.43-1.76-1.19c-0.42-0.76-0.63-1.93-0.63-3.5
		l3.01-1.79c0.02,0.56,0.11,1,0.27,1.29c0.16,0.3,0.38,0.46,0.68,0.49c0.29,0.03,0.64-0.08,1.04-0.32c0.34-0.2,0.62-0.44,0.85-0.71
		c0.23-0.27,0.4-0.56,0.52-0.87c0.12-0.31,0.18-0.62,0.18-0.93c0-0.29-0.06-0.5-0.17-0.65c-0.11-0.15-0.3-0.24-0.55-0.26
		c-0.25-0.02-0.6,0.02-1.03,0.12l-1.16,0.29c-1.03,0.25-1.85,0.13-2.44-0.36c-0.6-0.49-0.89-1.48-0.89-2.95
		c0-1.19,0.19-2.36,0.6-3.5s0.96-2.17,1.67-3.1c0.71-0.93,1.53-1.67,2.45-2.22c0.94-0.56,1.76-0.79,2.45-0.69
		c0.69,0.1,1.22,0.5,1.59,1.2c0.37,0.7,0.56,1.66,0.57,2.89L119.4,96.44z"/>
	<path class="st0" d="M35.56,180.95v-17.37l7.76-4.62v3.8l-4.84,2.88v2.98l4.44-2.64v3.8l-4.44,2.64v2.99l4.82-2.87v3.8
		L35.56,180.95z"/>
	<path class="st0" d="M47.9,156.23l1.77,4l0.08-0.05l1.79-6.12l3.26-1.94l-3.22,10.6l3.34,6.69l-3.34,1.99l-1.83-4.07l-0.08,0.05
		l-1.83,6.25l-3.32,1.98l3.3-10.65l-3.2-6.78L47.9,156.23z"/>
	<path class="st0" d="M56.06,168.74v-17.37l7.76-4.62v3.8l-4.84,2.88v2.98l4.44-2.64v3.8l-4.44,2.64v2.99l4.82-2.87v3.8
		L56.06,168.74z"/>
	<path class="st0" d="M75.33,146.41l-2.97,1.77c-0.02-0.38-0.08-0.71-0.17-0.98c-0.09-0.27-0.21-0.47-0.37-0.62
		c-0.16-0.14-0.34-0.21-0.56-0.21c-0.22,0-0.47,0.09-0.75,0.26c-0.49,0.29-0.91,0.73-1.24,1.32c-0.34,0.59-0.59,1.29-0.77,2.11
		c-0.17,0.82-0.26,1.74-0.26,2.74c0,1.06,0.09,1.9,0.27,2.51c0.18,0.61,0.43,1,0.77,1.15c0.34,0.16,0.74,0.1,1.21-0.18
		c0.27-0.16,0.51-0.36,0.73-0.6c0.21-0.24,0.4-0.51,0.56-0.81s0.29-0.63,0.39-0.99c0.1-0.36,0.17-0.73,0.2-1.12l2.97-1.73
		c-0.04,0.76-0.16,1.58-0.38,2.47c-0.22,0.89-0.53,1.78-0.94,2.66c-0.41,0.88-0.91,1.7-1.5,2.44c-0.6,0.75-1.29,1.35-2.08,1.82
		c-0.99,0.59-1.87,0.78-2.66,0.56c-0.78-0.22-1.4-0.86-1.86-1.91s-0.68-2.55-0.68-4.47c0-1.93,0.23-3.7,0.69-5.3
		c0.46-1.6,1.09-2.98,1.87-4.13c0.79-1.15,1.66-2.01,2.63-2.59c0.68-0.4,1.31-0.63,1.88-0.67s1.07,0.1,1.5,0.41
		c0.43,0.32,0.78,0.82,1.04,1.5C75.12,144.5,75.28,145.36,75.33,146.41z"/>
	<path class="st0" d="M83.03,135.31l2.92-1.74v11.13c0,1.32-0.2,2.58-0.59,3.78c-0.39,1.2-0.94,2.27-1.63,3.21
		c-0.7,0.94-1.51,1.68-2.43,2.23c-0.93,0.55-1.74,0.78-2.44,0.67c-0.7-0.11-1.24-0.53-1.63-1.26c-0.39-0.73-0.58-1.76-0.58-3.08
		V139.1l2.92-1.74v10.72c0,0.54,0.07,0.97,0.22,1.31c0.15,0.33,0.35,0.54,0.61,0.62c0.26,0.08,0.56,0.02,0.89-0.17
		c0.34-0.2,0.64-0.5,0.89-0.89c0.26-0.39,0.46-0.84,0.61-1.35c0.15-0.51,0.22-1.03,0.22-1.57V135.31z"/>
	<path class="st0" d="M87.05,136.71v-3.8l9.36-5.57v3.8l-3.24,1.93v13.57l-2.88,1.71v-13.57L87.05,136.71z"/>
	<path class="st0" d="M100.43,124.95v17.37l-2.92,1.74v-17.37L100.43,124.95z"/>
	<path class="st0" d="M111.13,118.57v17.37l-2.44,1.45l-3.89-6.81l-0.06,0.04v9.13l-2.92,1.74v-17.37l2.48-1.48l3.83,6.81l0.08-0.05
		v-9.09L111.13,118.57z"/>
	<path class="st0" d="M119.51,119.31c-0.05-0.27-0.12-0.49-0.22-0.66c-0.1-0.17-0.22-0.29-0.37-0.37c-0.15-0.08-0.31-0.1-0.51-0.06
		c-0.19,0.03-0.4,0.12-0.63,0.25c-0.49,0.29-0.91,0.73-1.25,1.32c-0.35,0.58-0.61,1.29-0.79,2.11c-0.18,0.82-0.27,1.73-0.27,2.74
		c0,1.02,0.09,1.84,0.26,2.46s0.43,1.02,0.77,1.21s0.76,0.12,1.27-0.18c0.45-0.27,0.82-0.59,1.11-0.98c0.3-0.39,0.52-0.81,0.67-1.29
		c0.15-0.47,0.22-0.97,0.22-1.49l0.51-0.22l-2.46,1.47v-3.36l4.77-2.84v2.41c0,1.58-0.21,3.06-0.62,4.43
		c-0.42,1.37-0.99,2.57-1.71,3.6c-0.73,1.03-1.56,1.82-2.5,2.38c-1.05,0.62-1.97,0.81-2.76,0.57c-0.79-0.25-1.41-0.9-1.85-1.97
		c-0.44-1.06-0.67-2.51-0.67-4.35c0-1.44,0.14-2.79,0.41-4.06c0.27-1.27,0.65-2.43,1.13-3.49c0.48-1.05,1.04-1.97,1.68-2.74
		c0.63-0.77,1.31-1.37,2.04-1.8c0.64-0.38,1.23-0.59,1.78-0.62c0.55-0.03,1.03,0.09,1.46,0.37c0.42,0.28,0.76,0.71,1.02,1.29
		c0.26,0.58,0.42,1.28,0.47,2.12L119.51,119.31z"/>
</g>
<circle class="st6" cx="213.14" cy="111.19" r="28.4"/>
<circle class="st6" cx="213.14" cy="111.19" r="11.86"/>
<polygon class="st7" points="259.82,27.52 258.47,26.76 266.31,22.14 267.66,22.9 "/>
<polygon class="st7" points="139.38,24.63 137.2,23.4 149.87,15.92 152.05,17.15 "/>
<g>
	<path id="矩形_00000177475791441506383000000001490439725961011084_" class="st14" d="M172.16,217.11L172.16,217.11
		c0.62,0,1.15,0.76,1.15,1.64v1.52c0,0.88-0.53,1.64-1.15,1.64l0,0c-0.62,0-1.15-0.76-1.15-1.64v-1.52
		C171.02,217.8,171.55,217.11,172.16,217.11z"/>
	
		<radialGradient id="SVGID_1_" cx="140.6214" cy="251.2355" r="29.1582" gradientTransform="matrix(1 0 0 0.5898 0 103.0585)" gradientUnits="userSpaceOnUse">
		<stop  offset="0" style="stop-color:#B8B3D4"/>
		<stop  offset="0.3457" style="stop-color:#BAB6D6;stop-opacity:0.6543"/>
		<stop  offset="0.6064" style="stop-color:#C2C0DA;stop-opacity:0.3936"/>
		<stop  offset="0.8384" style="stop-color:#D0D0E3;stop-opacity:0.1616"/>
		<stop  offset="1" style="stop-color:#DDE0EB;stop-opacity:0"/>
	</radialGradient>
	<path style="opacity:0.67;fill:url(#SVGID_1_);" d="M165.62,237.16c-13.68-7.9-35.96-8-49.77-0.23s-13.91,20.48-0.23,28.37
		s35.96,8,49.77,0.23C179.19,257.76,179.3,245.06,165.62,237.16z"/>
	<g>
		<path class="st81" d="M179.12,201.13v-49.28c0-0.23,0.02-0.45,0.02-0.68c0-22.91-18.57-41.48-41.48-41.48
			c-22.91,0-41.48,18.57-41.48,41.48c0,0.36,0.02,0.72,0.03,1.07v44.66h-0.03v22.67c0,2.84,2.3,5.15,5.15,5.15
			c2.84,0,5.15-2.31,5.15-5.15v-0.83c0.56,0.36,1.13,0.72,1.74,1.07c1.83,1.06,3.79,1.99,5.85,2.81v8.2c0,2.84,2.3,5.15,5.15,5.15
			c2.84,0,5.15-2.31,5.15-5.15v-5.23c2.95,0.57,5.99,0.96,9.06,1.14v12.59c0,2.84,2.3,5.15,5.15,5.15s5.15-2.31,5.15-5.15v-12.7
			c3.39-0.28,6.73-0.8,9.93-1.55v6.36c0,2.84,2.3,5.15,5.15,5.15s5.15-2.31,5.15-5.15v-9.87c1-0.47,1.97-0.96,2.91-1.49
			c0.7-0.39,1.35-0.8,1.99-1.21v0.71c0,2.84,2.3,5.15,5.15,5.15c2.84,0,5.15-2.31,5.15-5.15v-18.45H179.12z"/>
		
			<radialGradient id="SVGID_00000150787826585224156100000017114114142484316335_" cx="162.3441" cy="127.1149" r="106.6854" gradientUnits="userSpaceOnUse">
			<stop  offset="0.0124" style="stop-color:#DD78CE"/>
			<stop  offset="0.4936" style="stop-color:#A7589A"/>
			<stop  offset="0.5829" style="stop-color:#A0619E"/>
			<stop  offset="0.7273" style="stop-color:#8E79A8"/>
			<stop  offset="0.9078" style="stop-color:#709FB9"/>
			<stop  offset="1" style="stop-color:#5EB6C3"/>
		</radialGradient>
		<path style="fill:url(#SVGID_00000150787826585224156100000017114114142484316335_);" d="M179.12,201.13v-49.28
			c0-0.23,0.02-0.45,0.02-0.68c0-22.91-18.57-41.48-41.48-41.48c-22.91,0-41.48,18.57-41.48,41.48c0,0.36,0.02,0.72,0.03,1.07v44.66
			h-0.03v22.67c0,2.84,2.3,5.15,5.15,5.15c2.84,0,5.15-2.31,5.15-5.15v-0.83c0.56,0.36,1.13,0.72,1.74,1.07
			c1.83,1.06,3.79,1.99,5.85,2.81v8.2c0,2.84,2.3,5.15,5.15,5.15c2.84,0,5.15-2.31,5.15-5.15v-5.23c2.95,0.57,5.99,0.96,9.06,1.14
			v12.59c0,2.84,2.3,5.15,5.15,5.15s5.15-2.31,5.15-5.15v-12.7c3.39-0.28,6.73-0.8,9.93-1.55v6.36c0,2.84,2.3,5.15,5.15,5.15
			s5.15-2.31,5.15-5.15v-9.87c1-0.47,1.97-0.96,2.91-1.49c0.7-0.39,1.35-0.8,1.99-1.21v0.71c0,2.84,2.3,5.15,5.15,5.15
			c2.84,0,5.15-2.31,5.15-5.15v-18.45H179.12z"/>
	</g>
	<path id="矩形_00000070106755442718185520000016237323888009081235_" class="st14" d="M100.07,187.29L100.07,187.29
		c1.12,0,2.09,1.38,2.09,2.99v14.25c0,1.61-0.96,2.99-2.09,2.99l0,0c-1.12,0-2.09-1.38-2.09-2.99v-14.25
		C97.99,188.67,98.95,187.29,100.07,187.29z"/>
	<path id="矩形_00000089541459541874871620000012990970060366502821_" class="st14" d="M161.37,124.2L161.37,124.2
		c1.37-1.02,3.68-0.37,5.02,1.41l2.29,3.06c1.34,1.78,1.31,4.19-0.06,5.22l0,0c-1.37,1.02-3.68,0.37-5.02-1.41l-2.29-3.06
		C159.88,127.5,160.01,125.23,161.37,124.2z"/>
	<path id="矩形_00000100378209881543376790000018412861955628674481_" class="st14" d="M117.47,223.88L117.47,223.88
		c1.12,0,2.09,1.38,2.09,2.99v2.76c0,1.61-0.96,2.99-2.09,2.99l0,0c-1.12,0-2.09-1.38-2.09-2.99v-2.76
		C115.38,225.14,116.35,223.88,117.47,223.88z"/>
	<path id="矩形_00000061473054331160137380000012729317109344378787_" class="st14" d="M99.82,213.08L99.82,213.08
		c1.12,0,2.09,1.38,2.09,2.99v2.76c0,1.61-0.96,2.99-2.09,2.99l0,0c-1.12,0-2.09-1.38-2.09-2.99v-2.76
		C97.74,214.34,98.7,213.08,99.82,213.08z"/>
	<path id="矩形_00000168807348715938532800000008745763656827665841_" class="st14" d="M137.66,232.62L137.66,232.62
		c1.12,0,2.09,1.38,2.09,2.99v2.76c0,1.61-0.96,2.99-2.09,2.99l0,0c-1.12,0-2.09-1.38-2.09-2.99v-2.76
		C135.57,233.88,136.54,232.62,137.66,232.62z"/>
	<path id="矩形_00000012445610517267280430000007607617594041538743_" class="st14" d="M157.36,227.27L157.36,227.27
		c0.89,0,1.66,1.1,1.66,2.37v2.19c0,1.28-0.76,2.37-1.66,2.37l0,0c-0.89,0-1.66-1.1-1.66-2.37v-2.19
		C155.7,228.28,156.47,227.27,157.36,227.27z"/>
	<g>
		<path id="椭圆形_00000007422716816904326620000014984628929913224583_" class="st83" d="M147.67,182.16
			c4.06-0.17,7.1-3.66,7.09-6c0-0.94-0.55-1.75-1.38-1.81c-1.29-0.13-3.23,0.7-5.72,0.8c-2.31,0.1-3.78-0.5-5.53-0.42
			c-1.84,0.08-1.75,2.22-1.47,3.06C141.3,180.09,143.52,182.33,147.67,182.16z"/>
		<path id="椭圆形_00000165233444825709455550000013542517233671072930_" class="st84" d="M147.76,180.19
			c4.15-0.17,7.19-3.38,7.19-5.63c0-0.84-0.55-1.57-1.38-1.63c-1.29-0.13-3.32,0.7-5.81,0.8c-2.4,0.1-3.78-0.5-5.62-0.43
			s-1.75,2.13-1.48,2.87C141.3,178.3,143.61,180.36,147.76,180.19z"/>
	</g>
	<g>
		
			<ellipse transform="matrix(0.5671 -0.8237 0.8237 0.5671 -74.1156 176.3792)" class="st84" cx="130.72" cy="158.69" rx="9.5" ry="9.1"/>
		<path id="形状结合_00000119818962879548548770000000774626233256057509_" class="st85" d="M131.92,148.73
			c4.24-0.18,7.66,3.98,7.66,9.22c0,0.19,0,0.37,0,0.56l0,0.56c0-5.33-3.33-9.59-7.48-9.42c-4.15,0.17-7.46,4.61-7.46,10.04
			c0,1.03,0.09,2.05,0.37,2.98c-0.46-1.2-0.74-2.59-0.74-3.99C124.27,153.35,127.68,148.9,131.92,148.73z"/>
		<path id="形状结合_00000121978011672479572700000012820974315623602599_" class="st86" d="M131.92,147.6
			c4.7-0.2,8.58,4.41,8.58,10.31c0.01,5.89-3.86,10.83-8.57,11.02c-4.7,0.2-8.58-4.41-8.58-10.31
			C123.35,152.73,127.12,147.8,131.92,147.6z M131.92,148.73c-4.24,0.18-7.65,4.62-7.64,9.86c0,5.24,3.42,9.4,7.66,9.22
			c4.24-0.18,7.65-4.62,7.64-9.86C139.58,152.71,136.07,148.55,131.92,148.73z"/>
	</g>
	<g>
		
			<ellipse transform="matrix(0.5671 -0.8237 0.8237 0.5671 -59.6804 201.0825)" class="st84" cx="161.44" cy="157.31" rx="9.5" ry="9.1"/>
		<path id="形状结合_00000093869785653967001150000002948921977205411206_" class="st85" d="M162.43,147.35
			c4.24-0.18,7.66,3.98,7.66,9.22c0,0.19,0,0.37,0,0.56l0,0.56c0-5.33-3.33-9.59-7.48-9.42c-4.15,0.17-7.46,4.61-7.46,10.04
			c0,1.03,0.09,2.05,0.37,2.98c-0.46-1.2-0.74-2.59-0.74-3.99C154.78,151.98,158.19,147.53,162.43,147.35z"/>
		<path id="形状结合_00000134962465265006679570000003394589694534836897_" class="st86" d="M162.43,146.23
			c4.7-0.2,8.58,4.41,8.58,10.31s-3.86,10.83-8.57,11.02s-8.58-4.41-8.58-10.31C153.86,151.36,157.64,146.43,162.43,146.23z
			 M162.43,147.35c-4.24,0.18-7.65,4.62-7.64,9.86s3.42,9.4,7.66,9.22c4.24-0.18,7.65-4.62,7.64-9.86
			C170.09,151.34,166.58,147.18,162.43,147.35z"/>
	</g>
	<circle class="st83" cx="128.04" cy="156.26" r="3.77"/>
	<circle class="st83" cx="158.59" cy="155.13" r="3.77"/>
</g>
</svg>
