<?xml version="1.0" encoding="utf-8"?>
<!-- Generator: Adobe Illustrator 27.8.1, SVG Export Plug-In . SVG Version: 6.00 Build 0)  -->
<svg version="1.1" id="Слой_1" xmlns="http://www.w3.org/2000/svg" xmlns:xlink="http://www.w3.org/1999/xlink" x="0px" y="0px"
	 viewBox="0 0 290 269.62" style="enable-background:new 0 0 290 269.62;" xml:space="preserve">
<style type="text/css">
	.st0{fill:#101422;}
	.st1{fill:#FFFFFF;stroke:#111422;stroke-linecap:round;stroke-linejoin:round;stroke-miterlimit:10;}
	
		.st2{fill-rule:evenodd;clip-rule:evenodd;fill:#C6C3D1;stroke:#101320;stroke-linecap:round;stroke-linejoin:round;stroke-miterlimit:10;}
	
		.st3{fill-rule:evenodd;clip-rule:evenodd;fill:#FFFFFF;stroke:#111422;stroke-linecap:round;stroke-linejoin:round;stroke-miterlimit:10;}
	
		.st4{fill-rule:evenodd;clip-rule:evenodd;fill:#ECF0FC;stroke:#111422;stroke-linecap:round;stroke-linejoin:round;stroke-miterlimit:10;}
	.st5{opacity:0.92;fill-rule:evenodd;clip-rule:evenodd;fill:#FFFFFF;enable-background:new    ;}
	.st6{fill:none;stroke:#FFFFFF;stroke-linecap:round;stroke-linejoin:round;stroke-miterlimit:10;}
	.st7{fill-rule:evenodd;clip-rule:evenodd;fill:#101422;}
	.st8{fill:url(#SVGID_1_);}
	.st9{fill:url(#SVGID_00000094587044852604755800000003516396606055037571_);}
	.st10{fill:url(#SVGID_00000015326968024379180010000012394996300831018654_);}
	.st11{opacity:0.67;fill:url(#SVGID_00000049186663675481673560000014869281147484604842_);enable-background:new    ;}
	.st12{fill:#6FA3B6;}
	.st13{fill:url(#SVGID_00000006688583468756488410000003935044629546823319_);}
	.st14{opacity:0.2563;fill-rule:evenodd;clip-rule:evenodd;fill:#FFFFFF;enable-background:new    ;}
	.st15{fill:none;stroke:#FFFFFF;stroke-width:0.7384;stroke-linecap:round;stroke-linejoin:round;stroke-miterlimit:10;}
	
		.st16{fill:none;stroke:url(#SVGID_00000163045841611930040890000017617919250309661356_);stroke-width:5;stroke-linecap:round;stroke-linejoin:round;stroke-miterlimit:10;}
	.st17{fill:url(#SVGID_00000088814639921898075580000017285980503648084352_);}
	.st18{fill-rule:evenodd;clip-rule:evenodd;fill:#1AD4B3;}
	.st19{fill-rule:evenodd;clip-rule:evenodd;fill:#FC4F83;}
	.st20{fill:#C6C3D1;stroke:#101320;stroke-linecap:round;stroke-linejoin:round;stroke-miterlimit:10;}
	.st21{fill:#ECF0FC;stroke:#111422;stroke-linecap:round;stroke-linejoin:round;stroke-miterlimit:10;}
	
		.st22{fill:url(#SVGID_00000098204327205789418530000018379703712401528480_);stroke:#1D1D1B;stroke-width:0.2115;stroke-linecap:round;stroke-linejoin:round;stroke-miterlimit:10;}
	
		.st23{fill:url(#SVGID_00000142140678397964183510000009634235571734672822_);stroke:#1D1D1B;stroke-width:0.2115;stroke-linecap:round;stroke-linejoin:round;stroke-miterlimit:10;}
	
		.st24{fill:url(#SVGID_00000046313498151559270610000012165671817375159961_);stroke:#1D1D1B;stroke-width:0.2115;stroke-linecap:round;stroke-linejoin:round;stroke-miterlimit:10;}
	
		.st25{fill:url(#SVGID_00000128464886202402049540000007986701361360725660_);stroke:#1D1D1B;stroke-width:0.2115;stroke-linecap:round;stroke-linejoin:round;stroke-miterlimit:10;}
	
		.st26{fill-rule:evenodd;clip-rule:evenodd;fill:#101422;stroke:#101423;stroke-linecap:round;stroke-linejoin:round;stroke-miterlimit:10;}
	.st27{fill:#FFFFFF;}
	.st28{fill-rule:evenodd;clip-rule:evenodd;fill:url(#SVGID_00000104701834816968427060000011794858795007375752_);}
	.st29{fill-rule:evenodd;clip-rule:evenodd;fill:url(#SVGID_00000092457416211208778370000006555721594717739157_);}
	.st30{fill:url(#SVGID_00000145779833099849006900000015325191656108442011_);}
	.st31{fill:url(#SVGID_00000008123074534346355640000014021735385115260601_);}
	.st32{fill:url(#SVGID_00000041984584916601732420000016069876081012643771_);}
	
		.st33{fill-rule:evenodd;clip-rule:evenodd;fill:#C7FFF1;stroke:#101320;stroke-linecap:round;stroke-linejoin:round;stroke-miterlimit:10;}
	
		.st34{fill:none;stroke:url(#SVGID_00000159462632080588285350000000926300594218721195_);stroke-width:5;stroke-linecap:round;stroke-linejoin:round;stroke-miterlimit:10;}
	.st35{fill:url(#SVGID_00000114049870017901424300000007933695938268385959_);}
	
		.st36{fill:none;stroke:url(#SVGID_00000052105690388314811380000008738250154172130750_);stroke-width:5;stroke-linecap:round;stroke-linejoin:round;stroke-miterlimit:10;}
	.st37{fill:url(#SVGID_00000092428668243149418320000008782105743474851489_);}
	
		.st38{fill:none;stroke:url(#SVGID_00000038384683845621487660000003744542114947383682_);stroke-width:5;stroke-linecap:round;stroke-linejoin:round;stroke-miterlimit:10;}
	.st39{fill:url(#SVGID_00000000200223236507032590000005026883479113429929_);}
	
		.st40{fill-rule:evenodd;clip-rule:evenodd;fill:#1AD4B3;stroke:#111422;stroke-linecap:round;stroke-linejoin:round;stroke-miterlimit:10;}
	
		.st41{fill-rule:evenodd;clip-rule:evenodd;fill:#FC4F83;stroke:#111422;stroke-linecap:round;stroke-linejoin:round;stroke-miterlimit:10;}
	
		.st42{fill-rule:evenodd;clip-rule:evenodd;fill:#FFCAD7;stroke:#111422;stroke-linecap:round;stroke-linejoin:round;stroke-miterlimit:10;}
	.st43{fill:url(#SVGID_00000119796186346283782400000015468541022647691905_);}
	.st44{fill:url(#SVGID_00000010299259159589161170000008641706450083603842_);}
	.st45{fill:url(#SVGID_00000079480877408745459460000000305838001300283011_);}
	
		.st46{fill:none;stroke:url(#SVGID_00000072255467546742967430000014873294259972172419_);stroke-width:5;stroke-linecap:round;stroke-linejoin:round;stroke-miterlimit:10;}
	.st47{fill:url(#SVGID_00000178202173649626995450000005762298627743773074_);}
	
		.st48{fill:none;stroke:url(#SVGID_00000155850104785995466440000007428833558251960723_);stroke-width:5;stroke-linecap:round;stroke-linejoin:round;stroke-miterlimit:10;}
	.st49{fill:url(#SVGID_00000157292558065301851740000009996948389695246014_);}
	.st50{fill:url(#SVGID_00000170995953813032270720000001904239311869524919_);}
	.st51{fill:#101320;}
	.st52{fill:url(#SVGID_00000021828151577709024080000012711100804710206393_);}
	.st53{fill:url(#SVGID_00000116955741509607023020000014927307540216502938_);}
	.st54{fill:url(#SVGID_00000135661459886812794780000017383831616019894925_);}
	.st55{fill:url(#SVGID_00000085252158111627104380000010319468446183818904_);}
	.st56{fill:url(#SVGID_00000170966806016494837690000000143778929127976323_);}
	.st57{fill:url(#SVGID_00000079445819946911387230000002073264785943758764_);}
	.st58{opacity:0.29;fill:url(#SVGID_00000154406192243612773710000010499135729879545249_);enable-background:new    ;}
	.st59{fill:url(#SVGID_00000110455495737443602180000010337020183293072316_);}
	.st60{fill:url(#SVGID_00000088123514309534044040000001981258886707837082_);}
	.st61{fill:url(#SVGID_00000014594735838562755520000003330214277018126229_);}
	.st62{fill-rule:evenodd;clip-rule:evenodd;fill:url(#SVGID_00000123427367812417878360000012434755344700190850_);}
	.st63{fill:url(#SVGID_00000095326190152230440430000013365932705832742072_);}
	.st64{fill:url(#SVGID_00000143586497233448959280000017762314148101821327_);}
	.st65{fill:url(#SVGID_00000105389816231369174790000011878829889473997974_);}
	.st66{fill:url(#SVGID_00000019666856224458956510000008013342573920985245_);}
	.st67{opacity:0.29;fill:url(#SVGID_00000024722893486085756300000014551754443447547059_);enable-background:new    ;}
	
		.st68{fill:none;stroke:url(#SVGID_00000136381109284864722370000001586640689988965763_);stroke-width:5;stroke-linecap:round;stroke-linejoin:round;stroke-miterlimit:10;}
	.st69{fill:url(#SVGID_00000034773049069748544010000008905595031949835144_);}
	
		.st70{fill:none;stroke:url(#SVGID_00000077304120210141342390000010597477006272210849_);stroke-width:5;stroke-linecap:round;stroke-linejoin:round;stroke-miterlimit:10;}
	.st71{fill:url(#SVGID_00000022519310545005108960000017921307078009575820_);}
	
		.st72{fill:none;stroke:url(#SVGID_00000032645436747209720610000014378858206762473361_);stroke-width:5;stroke-linecap:round;stroke-linejoin:round;stroke-miterlimit:10;}
	.st73{fill:url(#SVGID_00000090284857650545439660000003782155990343156670_);}
	.st74{fill-rule:evenodd;clip-rule:evenodd;fill:url(#SVGID_00000124862604361588594550000003414096159289162371_);}
	.st75{fill:url(#SVGID_00000122681924544178945690000008729152564792754868_);}
	.st76{fill:url(#SVGID_00000150104016014015741400000003296000125593796756_);}
	.st77{fill:url(#SVGID_00000007414531491497525610000004873598378151152277_);}
	.st78{opacity:0.29;fill:url(#SVGID_00000170965231173159900020000007205535854413362331_);}
	.st79{opacity:0.29;fill:url(#SVGID_00000118394328697537587460000017943176355142466963_);}
	.st80{opacity:0.67;fill:url(#SVGID_00000083783171898221767900000015491488087963179450_);}
	.st81{fill:#3FA9BD;}
	.st82{fill:url(#SVGID_00000147905339270605276720000005885239710641968770_);}
	.st83{fill-rule:evenodd;clip-rule:evenodd;fill:#555069;}
	.st84{fill-rule:evenodd;clip-rule:evenodd;fill:#FFFFFF;}
	.st85{fill-rule:evenodd;clip-rule:evenodd;fill:#AFAFB1;}
	.st86{fill-rule:evenodd;clip-rule:evenodd;fill:#D3D3D3;}
	.st87{opacity:0.67;fill:url(#SVGID_00000020387522315574486280000009595336021451482809_);}
	.st88{fill:url(#SVGID_00000062897609588237053640000005140989352134978194_);}
	.st89{opacity:0.67;fill:url(#SVGID_00000108307761151213273240000015182951398123468168_);}
	.st90{fill:url(#SVGID_00000029048139239770654680000008265949192796275633_);}
	.st91{opacity:0.67;fill:url(#SVGID_00000169536861684548851420000004537576790273175697_);}
	.st92{fill:url(#SVGID_00000113344395729958450980000007326396651211688084_);}
	.st93{opacity:0.67;fill:url(#SVGID_00000021824429237736859000000001251461307923412926_);}
	.st94{fill:url(#SVGID_00000136383581096874955150000005952576297844767131_);}
	.st95{opacity:0.67;fill:url(#SVGID_00000120554086916798433170000004968543599758655881_);}
	.st96{fill:url(#SVGID_00000080186942386494497450000015444358173095806608_);}
	.st97{fill:#1AD4B3;}
	.st98{opacity:0.67;fill:url(#SVGID_00000005250035827394682770000016846983200166730380_);}
	.st99{fill:url(#SVGID_00000178194525225245828200000014650238246990299305_);}
	.st100{opacity:0.67;fill:url(#SVGID_00000128462997555729645960000005770810717129316027_);}
	.st101{fill:url(#SVGID_00000009583666241322153350000014675429004933370496_);}
	.st102{opacity:0.67;fill:url(#SVGID_00000163072199968097676910000005205251189722720168_);}
	.st103{fill:url(#SVGID_00000149354063643362001990000005446261538055113624_);}
	
		.st104{fill-rule:evenodd;clip-rule:evenodd;fill:none;stroke:#FFFFFF;stroke-width:0.7384;stroke-linecap:round;stroke-linejoin:round;stroke-miterlimit:10;}
	.st105{opacity:0.67;fill:url(#SVGID_00000150074192585175577670000016513745861166723772_);}
	.st106{fill:url(#SVGID_00000097502129851513226540000000214185457887965873_);}
	.st107{opacity:0.67;fill:url(#SVGID_00000016055045409189266730000017832537925270158762_);}
	.st108{fill:url(#SVGID_00000101074267854973023260000006244240101023542206_);}
	.st109{opacity:0.67;fill:url(#SVGID_00000122690845892351066180000013104727748186419386_);}
	.st110{fill:url(#SVGID_00000041286632880423993020000001862026024901655190_);}
	.st111{opacity:0.67;fill:url(#SVGID_00000106110587681412980370000009457871822057782695_);}
	.st112{fill:url(#SVGID_00000000212245262221914680000011379292183941538489_);}
	.st113{opacity:0.67;fill:url(#SVGID_00000025433651286100949030000006447351526416369340_);}
	.st114{fill:url(#SVGID_00000046308023745913818520000008949859376897101995_);}
	.st115{opacity:0.67;fill:url(#SVGID_00000157999932351541948270000009743934056637923986_);}
	.st116{fill:url(#SVGID_00000169554066506022687850000005914326329947308217_);}
	.st117{opacity:0.67;fill:url(#SVGID_00000091714968574974186480000004010783126681721778_);}
	.st118{fill:url(#SVGID_00000157271364043045287540000017976119669897632925_);}
	.st119{opacity:0.67;fill:url(#SVGID_00000157284038748706519860000003698175661065659284_);}
	.st120{fill:url(#SVGID_00000164487796705638929290000009751205127826679211_);}
	.st121{opacity:0.67;fill:url(#SVGID_00000047758663061730067810000010484868572181832604_);}
	.st122{fill:url(#SVGID_00000128454487043819723260000003690190589051524522_);}
	.st123{opacity:0.67;fill:url(#SVGID_00000099660887792428276250000002250325142048211355_);}
	.st124{fill:url(#SVGID_00000029727698948184817290000015732203424397272236_);}
	.st125{opacity:0.67;fill:url(#SVGID_00000029740746768818848520000014330902549115762606_);}
	.st126{fill:url(#SVGID_00000097498051742257839940000015645549242703725463_);}
	.st127{opacity:0.67;fill:url(#SVGID_00000066496657085891910340000007920210250037810080_);}
	.st128{fill:#5EA6B9;}
	.st129{fill:url(#SVGID_00000103970791317940577010000004028481952160684932_);}
	.st130{fill-rule:evenodd;clip-rule:evenodd;fill:#545067;}
	.st131{fill-rule:evenodd;clip-rule:evenodd;fill:#AEAEB0;}
	.st132{fill-rule:evenodd;clip-rule:evenodd;fill:#D2D2D2;}
	.st133{opacity:0.67;fill:url(#SVGID_00000141445276845868646820000003239467375886605493_);}
	.st134{fill:url(#SVGID_00000030471361910273634330000014908417359573033347_);}
	.st135{fill-rule:evenodd;clip-rule:evenodd;fill:#63D0B3;}
	
		.st136{fill-rule:evenodd;clip-rule:evenodd;fill:none;stroke:#111422;stroke-linecap:round;stroke-linejoin:round;stroke-miterlimit:10;}
	.st137{fill-rule:evenodd;clip-rule:evenodd;fill:#E85C83;}
	.st138{fill:#5DC29D;}
	.st139{fill:url(#SVGID_00000026139374529824869510000000616367998888417937_);}
	.st140{fill:url(#SVGID_00000052079185136918373640000014377747615809692849_);}
	.st141{fill:#E85C83;}
	.st142{opacity:0.67;fill:url(#SVGID_00000034089483063183056690000007947121664719772344_);}
	.st143{fill:url(#SVGID_00000109713890408274826510000004000478877957140134_);}
	
		.st144{fill:none;stroke:url(#SVGID_00000044170334398871621110000000998669892664044930_);stroke-width:5;stroke-linecap:round;stroke-linejoin:round;stroke-miterlimit:10;}
	.st145{fill:url(#SVGID_00000149368225016115520180000003407236874897593273_);}
	.st146{opacity:0.67;fill:url(#SVGID_00000152232396410279988230000015558583595475027857_);}
	.st147{fill:url(#SVGID_00000134229987549678007370000001792610453497361566_);}
	.st148{opacity:0.67;fill:url(#SVGID_00000162341850561861897260000016927382591627057844_);}
	.st149{fill:url(#SVGID_00000032630533990840961720000001819381583962657189_);}
	.st150{opacity:0.67;fill:url(#SVGID_00000103959131655583676910000009531935982490329736_);}
	.st151{fill:url(#SVGID_00000054976355964145472840000011323125047930464668_);}
	.st152{opacity:0.67;fill:url(#SVGID_00000013179357469113022770000002444917267077602203_);}
	.st153{fill:url(#SVGID_00000035505316742840382260000015567628515022876586_);}
	.st154{opacity:0.67;fill:url(#SVGID_00000093160850925281334620000013808010738956349112_);}
	.st155{fill:url(#SVGID_00000026154845646354023550000013616507754534115494_);}
	.st156{opacity:0.67;fill:url(#SVGID_00000033353309778853675150000007302572743632775825_);}
	.st157{fill:url(#SVGID_00000132068163457506075210000004287513774296396729_);}
	.st158{fill:none;stroke:#000000;stroke-width:22;stroke-linecap:round;stroke-linejoin:round;stroke-miterlimit:10;}
	.st159{fill:#ECF0FC;}
	.st160{fill:url(#SVGID_00000052785351053113375200000013642133454156655804_);}
	.st161{fill:url(#SVGID_00000103963690446381398940000010183862156451057594_);}
	.st162{fill:none;stroke:url(#SVGID_00000100381466291737172660000006128352205584136363_);stroke-width:5;stroke-miterlimit:10;}
	.st163{fill:#111422;}
	.st164{fill:url(#SVGID_00000036231037444592093620000013498576396243465887_);}
	.st165{fill:none;}
	.st166{opacity:0.67;fill:url(#SVGID_00000053525403214099472900000016140063733158686856_);}
	.st167{fill:url(#SVGID_00000049220464809166729850000008267815432161241529_);}
	.st168{fill:none;stroke:url(#SVGID_00000003081377045829330550000015542564141152451988_);stroke-width:5;stroke-miterlimit:10;}
	.st169{fill:url(#SVGID_00000077298824059965764430000014428225300200760240_);}
	.st170{opacity:0.67;fill:url(#SVGID_00000125574706111286205930000010436677624600662912_);}
	.st171{fill:url(#SVGID_00000052099748611273650690000007980193608682786719_);}
	.st172{opacity:0.67;fill:url(#SVGID_00000061430081706841073700000004849918059191429034_);}
	.st173{fill:url(#SVGID_00000178172500431146822280000011958019826228392881_);}
</style>
<g>
	<g>
		<circle class="st0" cx="144.81" cy="70.28" r="26.03"/>
		<g>
			<g>
				<path class="st1" d="M138.35,43.47l-0.01,10.81c-0.33,1.38,0.28,2.85,1.82,3.91c2.54,1.76,6.66,1.76,9.2,0
					c1.08-0.75,1.7-1.69,1.86-2.67h0.04v-0.45c0-0.04,0-0.09,0-0.13l0.01-11.18L138.35,43.47z"/>
				<path class="st1" d="M138.4,51.2c0,2.45,2.87,4.43,6.41,4.43s6.41-1.98,6.41-4.43"/>
				<path class="st1" d="M138.4,47.81c0,2.45,2.87,4.43,6.41,4.43s6.41-1.98,6.41-4.43"/>
				<path class="st1" d="M138.4,44.25c0,2.45,2.87,4.43,6.41,4.43s6.41-1.98,6.41-4.43"/>
			</g>
			<g>
				<path class="st1" d="M138.35,32.79l-0.01,10.81c-0.33,1.38,0.28,2.85,1.82,3.91c2.54,1.76,6.66,1.76,9.2,0
					c1.08-0.75,1.7-1.69,1.86-2.67h0.04v-0.45c0-0.04,0-0.09,0-0.13l0.01-11.18L138.35,32.79z"/>
				<path class="st1" d="M138.4,40.53c0,2.45,2.87,4.43,6.41,4.43s6.41-1.98,6.41-4.43"/>
				<path class="st1" d="M138.4,37.14c0,2.45,2.87,4.43,6.41,4.43s6.41-1.98,6.41-4.43"/>
				<path class="st1" d="M138.4,33.58c0,2.45,2.87,4.43,6.41,4.43s6.41-1.98,6.41-4.43"/>
			</g>
		</g>
		<g>
			<g>
				<g>
					<polygon class="st2" points="144.41,48.59 126.6,38.31 126.6,20.49 144.41,30.78 					"/>
					<polygon class="st3" points="144.41,48.59 162.23,38.31 162.23,20.49 144.41,30.78 					"/>
					<polygon class="st4" points="144.48,30.83 126.6,20.51 144.35,10.17 162.23,20.49 					"/>
				</g>
				<path id="矩形_00000079473797964540096780000010075932986409177219_" class="st5" d="M138.51,15.9L138.51,15.9
					c0.35,0.2,0.29,0.58-0.12,0.83l-3.7,2.19c-0.42,0.25-1.08,0.29-1.43,0.09l0,0c-0.35-0.2-0.29-0.58,0.12-0.83l3.7-2.19
					C137.5,15.74,138.16,15.7,138.51,15.9z"/>
				<path id="矩形_00000142137669485219439060000000874352699067732376_" class="st5" d="M131.82,19.86L131.82,19.86
					c0.35,0.2,0.29,0.58-0.12,0.83l-0.72,0.42c-0.42,0.25-1.08,0.29-1.43,0.09l0,0c-0.35-0.2-0.29-0.58,0.12-0.83l0.72-0.42
					C130.84,19.68,131.47,19.66,131.82,19.86z"/>
			</g>
		</g>
	</g>
	<g>
		<polygon class="st3" points="132.77,74.04 22.63,136.96 22.63,195.86 132.77,132.94 		"/>
		<polygon class="st2" points="8.19,128.8 22.63,136.6 22.63,195.86 8.19,188.06 		"/>
		<polygon class="st4" points="132.77,74.04 117.26,65.84 8.19,128.8 22.63,136.6 		"/>
	</g>
	<g>
		<g>
			<path class="st0" d="M38.71,144.11l-2.95,1.76c-0.02-0.38-0.08-0.71-0.16-0.97c-0.09-0.27-0.21-0.47-0.37-0.61
				s-0.34-0.21-0.56-0.21s-0.47,0.09-0.75,0.26c-0.49,0.29-0.9,0.73-1.24,1.31s-0.59,1.28-0.76,2.1c-0.17,0.82-0.26,1.72-0.26,2.72
				c0,1.06,0.09,1.89,0.26,2.49c0.18,0.61,0.43,0.99,0.77,1.15c0.33,0.16,0.74,0.1,1.21-0.18c0.27-0.16,0.51-0.36,0.72-0.59
				c0.21-0.24,0.4-0.5,0.55-0.81c0.16-0.3,0.29-0.63,0.38-0.98c0.1-0.35,0.17-0.73,0.2-1.12l2.95-1.72
				c-0.04,0.75-0.16,1.57-0.38,2.46s-0.53,1.77-0.93,2.65c-0.4,0.88-0.9,1.69-1.49,2.43c-0.59,0.74-1.28,1.34-2.06,1.81
				c-0.98,0.58-1.86,0.77-2.64,0.55c-0.78-0.22-1.39-0.85-1.85-1.9c-0.45-1.05-0.68-2.53-0.68-4.44c0-1.92,0.23-3.68,0.69-5.27
				c0.46-1.59,1.08-2.96,1.86-4.1c0.78-1.14,1.65-2,2.61-2.57c0.68-0.4,1.3-0.62,1.87-0.66c0.57-0.04,1.07,0.1,1.5,0.41
				s0.77,0.81,1.04,1.49S38.66,143.07,38.71,144.11z"/>
			<path class="st0" d="M50.4,139.3c0,1.92-0.23,3.68-0.7,5.28s-1.09,2.96-1.88,4.11s-1.67,2.01-2.63,2.58
				c-0.98,0.58-1.86,0.76-2.64,0.55c-0.79-0.21-1.41-0.84-1.87-1.89s-0.69-2.52-0.69-4.43c0-1.92,0.23-3.68,0.69-5.27
				c0.46-1.59,1.08-2.96,1.87-4.11c0.79-1.14,1.67-2.01,2.64-2.59s1.85-0.76,2.63-0.55c0.79,0.21,1.41,0.83,1.88,1.88
				S50.4,137.38,50.4,139.3z M47.41,141.08c0-1.03-0.08-1.86-0.25-2.47s-0.42-1-0.75-1.17s-0.73-0.12-1.21,0.17
				s-0.89,0.71-1.22,1.28c-0.33,0.56-0.58,1.25-0.75,2.06s-0.25,1.74-0.25,2.77s0.08,1.86,0.25,2.47s0.42,1,0.75,1.17
				s0.73,0.11,1.22-0.17c0.48-0.29,0.88-0.71,1.21-1.28c0.33-0.56,0.58-1.25,0.75-2.06C47.32,143.04,47.41,142.12,47.41,141.08z"/>
			<path class="st0" d="M62.1,132.33c0,1.92-0.23,3.68-0.7,5.27c-0.46,1.59-1.09,2.96-1.88,4.11s-1.67,2.01-2.63,2.58
				c-0.98,0.58-1.86,0.76-2.64,0.55c-0.79-0.22-1.41-0.84-1.87-1.89c-0.46-1.04-0.69-2.52-0.69-4.43c0-1.92,0.23-3.68,0.69-5.27
				c0.46-1.59,1.08-2.96,1.87-4.11c0.79-1.15,1.67-2.01,2.64-2.59c0.97-0.58,1.85-0.76,2.63-0.55c0.79,0.21,1.41,0.83,1.88,1.88
				C61.87,128.93,62.1,130.41,62.1,132.33z M59.11,134.11c0-1.03-0.08-1.86-0.25-2.47s-0.42-1-0.75-1.17s-0.73-0.12-1.21,0.17
				s-0.89,0.71-1.22,1.28c-0.33,0.56-0.58,1.25-0.75,2.06s-0.25,1.74-0.25,2.77s0.08,1.86,0.25,2.47s0.42,1,0.75,1.17
				s0.73,0.12,1.22-0.17c0.48-0.29,0.88-0.71,1.21-1.28c0.33-0.56,0.58-1.25,0.75-2.06C59.03,136.07,59.11,135.15,59.11,134.11z"/>
			<path class="st0" d="M63.44,140.17V122.9l2.91-1.73v13.49l4.33-2.58v3.78L63.44,140.17z"/>
			<path class="st0" d="M77.16,121.61v3.51l-5.02,2.99v-3.51L77.16,121.61z"/>
			<path class="st0" d="M82.95,128.55L78.83,131v-17.26l4.08-2.43c1.1-0.66,2.05-0.88,2.86-0.67s1.42,0.83,1.86,1.86
				s0.66,2.44,0.66,4.24s-0.22,3.47-0.65,5.02c-0.44,1.55-1.05,2.91-1.85,4.07S84.03,127.91,82.95,128.55z M81.73,125.3l1.11-0.66
				c0.53-0.32,0.98-0.72,1.36-1.22c0.37-0.5,0.66-1.14,0.86-1.93s0.3-1.79,0.3-2.99s-0.1-2.08-0.3-2.64
				c-0.2-0.55-0.49-0.86-0.88-0.9s-0.86,0.1-1.41,0.43L81.75,116v9.3H81.73z"/>
			<path class="st0" d="M99.99,109.77c0,1.92-0.23,3.68-0.7,5.28c-0.46,1.59-1.09,2.96-1.88,4.11s-1.67,2.01-2.63,2.58
				c-0.98,0.58-1.86,0.76-2.64,0.55c-0.79-0.21-1.41-0.84-1.87-1.89c-0.46-1.04-0.69-2.52-0.69-4.43c0-1.92,0.23-3.68,0.69-5.27
				s1.08-2.96,1.87-4.11c0.79-1.14,1.67-2.01,2.64-2.59c0.97-0.58,1.85-0.76,2.63-0.55c0.79,0.21,1.41,0.83,1.88,1.88
				C99.75,106.37,99.99,107.85,99.99,109.77z M97,111.55c0-1.04-0.08-1.86-0.25-2.47s-0.42-1-0.75-1.17s-0.73-0.12-1.21,0.17
				c-0.48,0.29-0.89,0.71-1.22,1.28c-0.33,0.56-0.58,1.25-0.75,2.06s-0.25,1.74-0.25,2.77s0.08,1.86,0.25,2.47s0.42,1,0.75,1.18
				c0.33,0.17,0.73,0.11,1.22-0.17c0.48-0.29,0.89-0.71,1.21-1.28c0.33-0.56,0.58-1.25,0.75-2.06C96.91,113.51,97,112.59,97,111.55z
				"/>
			<path class="st0" d="M104.04,115.99l-3.16-15.39l3.24-1.93l1.46,9.75l0.08-0.05l1.74-11.66l2.55-1.52l1.74,9.62l0.08-0.05
				l1.46-11.53l3.24-1.93l-3.16,19.15l-2.78,1.66l-1.82-8.56l-0.08,0.05l-1.82,10.73L104.04,115.99z"/>
			<path class="st0" d="M126.68,85.24v17.27l-2.42,1.44l-3.87-6.77l-0.06,0.04v9.07l-2.91,1.73V90.76l2.47-1.47l3.81,6.77l0.08-0.05
				v-9.04L126.68,85.24z"/>
			<path class="st0" d="M50.68,176.26v-17.27l4.62-2.75c0.79-0.47,1.49-0.63,2.09-0.48s1.06,0.59,1.39,1.31
				c0.33,0.72,0.5,1.69,0.5,2.92c0,1.24-0.17,2.41-0.51,3.52s-0.81,2.09-1.43,2.94c-0.61,0.85-1.33,1.52-2.14,2.01l-2.76,1.64v-3.64
				l2.17-1.29c0.34-0.2,0.63-0.47,0.88-0.81s0.43-0.73,0.56-1.16s0.2-0.9,0.2-1.39s-0.07-0.88-0.2-1.15
				c-0.13-0.27-0.32-0.43-0.56-0.48c-0.24-0.04-0.53,0.04-0.88,0.24l-1.02,0.61v13.52L50.68,176.26z"/>
			<path class="st0" d="M60.34,170.51v-17.27l7.71-4.59v3.78l-4.81,2.86v2.97l4.41-2.63v3.78l-4.41,2.63v2.97l4.79-2.85v3.78
				L60.34,170.51z"/>
			<path class="st0" d="M69.49,165.06v-17.27l4.62-2.75c0.79-0.47,1.49-0.65,2.08-0.54s1.06,0.51,1.39,1.19
				c0.33,0.68,0.5,1.63,0.5,2.86c0,1.24-0.17,2.38-0.51,3.43c-0.34,1.05-0.82,1.98-1.43,2.77s-1.33,1.44-2.14,1.92l-2.76,1.64v-3.64
				l2.17-1.29c0.34-0.2,0.63-0.45,0.88-0.73c0.24-0.28,0.43-0.61,0.56-0.99s0.2-0.82,0.2-1.31c0-0.49-0.07-0.86-0.2-1.09
				s-0.32-0.35-0.56-0.36c-0.24,0-0.54,0.1-0.88,0.3l-1.02,0.61v13.52L69.49,165.06z M75.77,153.4l2.67,6.33l-3.16,1.88l-2.61-6.37
				L75.77,153.4z"/>
			<path class="st0" d="M82.23,140.21v17.27l-2.91,1.73v-17.27L82.23,140.21z"/>
			<path class="st0" d="M93.97,141.84c0,1.92-0.23,3.68-0.7,5.27c-0.46,1.59-1.09,2.96-1.88,4.11s-1.67,2.01-2.63,2.58
				c-0.98,0.58-1.86,0.76-2.64,0.55c-0.79-0.22-1.41-0.84-1.87-1.89c-0.46-1.04-0.69-2.52-0.69-4.43c0-1.92,0.23-3.68,0.69-5.27
				c0.46-1.59,1.08-2.96,1.87-4.11s1.67-2.01,2.64-2.59s1.85-0.76,2.63-0.55c0.79,0.21,1.41,0.83,1.88,1.88
				C93.74,138.44,93.97,139.92,93.97,141.84z M90.98,143.62c0-1.03-0.08-1.86-0.25-2.47s-0.42-1-0.75-1.17s-0.73-0.12-1.21,0.17
				c-0.48,0.29-0.89,0.71-1.22,1.28c-0.33,0.56-0.58,1.25-0.75,2.06s-0.25,1.73-0.25,2.77c0,1.03,0.08,1.86,0.25,2.47
				s0.42,1,0.75,1.17s0.73,0.12,1.22-0.17c0.48-0.29,0.88-0.71,1.21-1.28c0.33-0.56,0.58-1.25,0.75-2.06
				C90.9,145.58,90.98,144.66,90.98,143.62z"/>
			<path class="st0" d="M99.43,147.23l-4.12,2.45v-17.27l4.08-2.43c1.1-0.66,2.05-0.88,2.86-0.67c0.8,0.21,1.42,0.83,1.86,1.86
				s0.66,2.44,0.66,4.24s-0.22,3.47-0.65,5.02c-0.44,1.55-1.05,2.91-1.85,4.07C101.46,145.68,100.52,146.58,99.43,147.23z
				 M98.22,143.97l1.11-0.66c0.53-0.32,0.98-0.72,1.36-1.22s0.66-1.14,0.86-1.94c0.2-0.79,0.29-1.79,0.29-2.99s-0.1-2.08-0.3-2.64
				c-0.2-0.55-0.49-0.86-0.88-0.9c-0.38-0.05-0.86,0.1-1.41,0.43l-1.02,0.61v9.31L98.22,143.97L98.22,143.97z"/>
		</g>
	</g>
	<g>
		
			<ellipse transform="matrix(0.4473 -0.8944 0.8944 0.4473 93.3839 267.9495)" class="st0" cx="263.48" cy="58.42" rx="17.42" ry="17.42"/>
		<g>
			<g>
				<path class="st1" d="M259.14,40.47v7.23c-0.22,0.92,0.19,1.91,1.22,2.62c1.7,1.18,4.46,1.18,6.16,0
					c0.72-0.5,1.14-1.13,1.25-1.79h0.03v-0.3c0-0.03,0-0.06,0-0.09v-7.49L259.14,40.47z"/>
				<path class="st1" d="M259.18,45.64c0,1.64,1.92,2.97,4.29,2.97s4.29-1.33,4.29-2.97"/>
				<path class="st1" d="M259.18,43.37c0,1.64,1.92,2.97,4.29,2.97s4.29-1.33,4.29-2.97"/>
				<path class="st1" d="M259.18,40.99c0,1.64,1.92,2.97,4.29,2.97s4.29-1.33,4.29-2.97"/>
			</g>
			<g>
				<path class="st1" d="M259.14,33.32v7.23c-0.22,0.92,0.19,1.91,1.22,2.62c1.7,1.18,4.46,1.18,6.16,0
					c0.72-0.5,1.14-1.13,1.25-1.79h0.03v-0.3c0-0.03,0-0.06,0-0.09V33.5L259.14,33.32z"/>
				<path class="st1" d="M259.18,38.5c0,1.64,1.92,2.97,4.29,2.97s4.29-1.33,4.29-2.97"/>
				<path class="st1" d="M259.18,36.23c0,1.64,1.92,2.97,4.29,2.97s4.29-1.33,4.29-2.97"/>
				<path class="st1" d="M259.18,33.84c0,1.64,1.92,2.97,4.29,2.97s4.29-1.33,4.29-2.97"/>
			</g>
		</g>
		<g>
			<g>
				<g>
					<polygon class="st2" points="263.2,43.9 251.28,37.01 251.28,25.09 263.2,31.97 					"/>
					<polygon class="st3" points="263.2,43.9 275.13,37.01 275.13,25.09 263.2,31.97 					"/>
					<polygon class="st4" points="263.25,32.01 251.28,25.1 263.16,18.17 275.13,25.09 					"/>
				</g>
				<path id="矩形_00000057864619196667044930000009136339203454641547_" class="st5" d="M259.25,22.01L259.25,22.01
					c0.23,0.13,0.2,0.39-0.08,0.55l-2.47,1.46c-0.28,0.17-0.72,0.19-0.95,0.06l0,0c-0.23-0.13-0.2-0.39,0.08-0.55l2.47-1.46
					C258.58,21.9,259.02,21.88,259.25,22.01z"/>
				<path id="矩形_00000020398379395088368500000007571091934744443542_" class="st5" d="M254.77,24.66L254.77,24.66
					c0.23,0.13,0.2,0.39-0.08,0.55l-0.48,0.28c-0.28,0.17-0.72,0.19-0.95,0.06l0,0c-0.23-0.13-0.2-0.39,0.08-0.55l0.48-0.28
					C254.12,24.54,254.54,24.53,254.77,24.66z"/>
			</g>
		</g>
	</g>
	<g>
		<g>
			<polygon class="st3" points="263.18,158.89 209.39,189.61 209.64,210.42 263.3,179.89 			"/>
			<polygon class="st2" points="168.68,166.94 209.39,189.56 209.64,210.42 168.93,187.8 			"/>
			<polygon class="st4" points="262.93,158.87 221.69,135.86 168.68,166.94 209.39,189.76 			"/>
		</g>
		<g>
			<polygon class="st3" points="263.18,134.35 209.39,165.07 209.64,185.88 263.3,155.35 			"/>
			<polygon class="st2" points="168.68,142.4 209.39,165.01 209.64,185.88 168.93,163.26 			"/>
			<polygon class="st4" points="263.18,134.28 221.94,111.27 168.68,142.01 209.39,164.83 			"/>
		</g>
		<circle class="st0" cx="213.28" cy="111.23" r="41.04"/>
		<g>
			<g>
				<path class="st0" d="M217.44,175.33v-8.95l2.53-1.5c0.49-0.29,0.9-0.41,1.24-0.35c0.34,0.05,0.6,0.26,0.79,0.61
					c0.18,0.35,0.27,0.82,0.27,1.41s-0.09,1.17-0.28,1.74c-0.18,0.56-0.45,1.07-0.8,1.53c-0.35,0.46-0.77,0.84-1.26,1.13l-1.61,0.96
					v-1.52l1.39-0.83c0.26-0.15,0.48-0.35,0.65-0.57c0.17-0.23,0.3-0.48,0.38-0.76s0.13-0.56,0.13-0.85c0-0.3-0.04-0.53-0.13-0.71
					c-0.08-0.17-0.21-0.27-0.38-0.29c-0.17-0.02-0.39,0.04-0.65,0.2l-0.91,0.54v7.4L217.44,175.33z"/>
				<path class="st0" d="M223.13,171.96v-6.71l1.29-0.77v1.17l0.05-0.03c0.09-0.47,0.23-0.87,0.44-1.21
					c0.21-0.34,0.44-0.58,0.71-0.74c0.07-0.04,0.14-0.08,0.22-0.11s0.15-0.06,0.2-0.07v1.65c-0.06,0.01-0.15,0.04-0.26,0.08
					c-0.11,0.04-0.21,0.09-0.3,0.15c-0.2,0.12-0.37,0.28-0.53,0.49c-0.15,0.21-0.27,0.44-0.36,0.71c-0.09,0.26-0.13,0.53-0.13,0.8
					v3.8L223.13,171.96z"/>
				<path class="st0" d="M228.68,168.8c-0.49,0.29-0.91,0.39-1.26,0.31c-0.35-0.08-0.63-0.32-0.82-0.73
					c-0.19-0.41-0.29-0.95-0.29-1.64s0.1-1.36,0.29-1.99c0.19-0.63,0.47-1.2,0.82-1.7s0.77-0.89,1.26-1.18
					c0.49-0.29,0.91-0.39,1.26-0.31c0.35,0.08,0.63,0.32,0.82,0.73c0.19,0.41,0.29,0.96,0.29,1.65c0,0.69-0.1,1.35-0.29,1.98
					c-0.19,0.63-0.47,1.2-0.82,1.7C229.59,168.12,229.17,168.51,228.68,168.8z M228.69,167.36c0.22-0.13,0.41-0.33,0.55-0.59
					s0.26-0.57,0.34-0.92s0.11-0.72,0.11-1.11s-0.04-0.72-0.11-0.98s-0.19-0.44-0.34-0.53s-0.33-0.07-0.55,0.06s-0.41,0.33-0.56,0.6
					s-0.27,0.58-0.34,0.93c-0.08,0.35-0.11,0.72-0.11,1.11s0.04,0.72,0.11,0.98c0.08,0.26,0.19,0.43,0.34,0.52
					C228.28,167.51,228.46,167.49,228.69,167.36z"/>
				<path class="st0" d="M231.92,169.27v-9.23l1.32-0.78v1.13l0.06-0.04c0.06-0.22,0.14-0.45,0.26-0.7c0.11-0.25,0.26-0.5,0.44-0.73
					c0.18-0.23,0.41-0.43,0.68-0.59c0.35-0.21,0.67-0.27,0.97-0.19s0.53,0.32,0.71,0.73c0.18,0.41,0.27,0.99,0.27,1.76
					c0,0.75-0.09,1.43-0.26,2.05c-0.17,0.62-0.41,1.14-0.7,1.58c-0.3,0.44-0.63,0.77-0.99,0.98c-0.26,0.15-0.48,0.22-0.66,0.21
					c-0.18-0.01-0.33-0.07-0.44-0.19c-0.11-0.11-0.2-0.25-0.26-0.4l-0.04,0.02v3.59L231.92,169.27z M233.23,162.62
					c0,0.4,0.04,0.72,0.12,0.97s0.19,0.41,0.34,0.49c0.15,0.07,0.33,0.05,0.55-0.08s0.4-0.32,0.55-0.58
					c0.15-0.26,0.26-0.56,0.34-0.9c0.08-0.35,0.12-0.71,0.12-1.1s-0.04-0.71-0.12-0.95c-0.08-0.25-0.19-0.41-0.34-0.49
					s-0.33-0.05-0.55,0.08s-0.4,0.32-0.55,0.57s-0.26,0.54-0.34,0.89C233.27,161.85,233.23,162.22,233.23,162.62z"/>
				<path class="st0" d="M239.67,162.29c-0.49,0.29-0.91,0.39-1.26,0.31c-0.35-0.08-0.63-0.32-0.82-0.73
					c-0.19-0.41-0.29-0.95-0.29-1.64s0.1-1.36,0.29-1.99c0.19-0.63,0.47-1.2,0.82-1.7s0.77-0.89,1.26-1.18
					c0.49-0.29,0.91-0.39,1.26-0.31c0.35,0.08,0.63,0.32,0.82,0.73c0.19,0.41,0.29,0.96,0.29,1.65c0,0.69-0.1,1.35-0.29,1.98
					c-0.19,0.63-0.47,1.2-0.82,1.7C240.58,161.61,240.16,162,239.67,162.29z M239.68,160.84c0.22-0.13,0.41-0.33,0.55-0.59
					s0.26-0.57,0.34-0.92c0.08-0.35,0.11-0.72,0.11-1.11s-0.04-0.72-0.11-0.98c-0.08-0.26-0.19-0.44-0.34-0.53s-0.33-0.07-0.55,0.06
					s-0.41,0.33-0.56,0.6s-0.27,0.58-0.34,0.93s-0.11,0.72-0.11,1.11s0.04,0.72,0.11,0.98c0.08,0.26,0.19,0.43,0.34,0.52
					C239.27,161,239.46,160.98,239.68,160.84z"/>
				<path class="st0" d="M246.92,153.07l-1.22,0.83c-0.02-0.13-0.07-0.24-0.13-0.32c-0.07-0.08-0.16-0.12-0.27-0.12
					c-0.11-0.01-0.24,0.04-0.4,0.13c-0.21,0.12-0.38,0.29-0.52,0.49c-0.14,0.21-0.21,0.41-0.21,0.61c0,0.16,0.05,0.27,0.14,0.32
					c0.09,0.06,0.25,0.05,0.47-0.01l0.87-0.27c0.47-0.14,0.82-0.13,1.05,0.03s0.34,0.48,0.34,0.97c0,0.44-0.09,0.88-0.28,1.32
					c-0.18,0.44-0.44,0.85-0.76,1.22c-0.32,0.38-0.69,0.69-1.11,0.93c-0.64,0.38-1.14,0.49-1.52,0.34c-0.38-0.15-0.6-0.52-0.66-1.13
					l1.31-0.87c0.04,0.25,0.14,0.4,0.29,0.45s0.35,0.01,0.59-0.14c0.23-0.14,0.42-0.31,0.57-0.53c0.14-0.21,0.22-0.42,0.22-0.62
					c0-0.17-0.05-0.28-0.15-0.33c-0.1-0.05-0.25-0.04-0.46,0.02l-0.83,0.26c-0.47,0.15-0.82,0.13-1.05-0.06s-0.34-0.53-0.34-1.03
					c0-0.43,0.08-0.85,0.25-1.26c0.17-0.41,0.4-0.79,0.71-1.14c0.31-0.35,0.66-0.65,1.08-0.89c0.61-0.36,1.09-0.46,1.44-0.31
					C246.65,152.12,246.86,152.49,246.92,153.07z"/>
				<path class="st0" d="M249.24,156.62c-0.31,0.18-0.58,0.27-0.82,0.26c-0.24-0.01-0.43-0.12-0.57-0.33
					c-0.14-0.21-0.21-0.54-0.21-0.98c0-0.37,0.05-0.72,0.15-1.03c0.1-0.31,0.23-0.59,0.4-0.85c0.17-0.25,0.36-0.49,0.58-0.69
					c0.22-0.21,0.44-0.4,0.68-0.57c0.28-0.21,0.51-0.38,0.68-0.52s0.3-0.27,0.37-0.38c0.08-0.12,0.12-0.25,0.12-0.39v-0.03
					c0-0.28-0.06-0.45-0.19-0.53c-0.12-0.08-0.3-0.05-0.53,0.09c-0.24,0.14-0.43,0.33-0.57,0.56c-0.14,0.23-0.24,0.47-0.28,0.72
					l-1.23,0.59c0.06-0.44,0.19-0.87,0.37-1.28s0.42-0.78,0.71-1.11c0.29-0.33,0.63-0.62,1.01-0.84c0.27-0.16,0.52-0.27,0.77-0.32
					c0.25-0.06,0.46-0.05,0.65,0.02c0.19,0.07,0.34,0.22,0.45,0.44s0.17,0.53,0.17,0.93v4.53l-1.27,0.75v-0.93l-0.04,0.02
					c-0.08,0.26-0.18,0.5-0.31,0.74s-0.29,0.45-0.47,0.65C249.69,156.31,249.48,156.47,249.24,156.62z M249.62,155.1
					c0.2-0.12,0.37-0.27,0.52-0.47c0.15-0.2,0.27-0.42,0.35-0.65c0.09-0.24,0.13-0.47,0.13-0.71v-0.71c-0.04,0.06-0.1,0.13-0.17,0.2
					c-0.07,0.07-0.15,0.15-0.24,0.23c-0.09,0.08-0.18,0.15-0.27,0.23c-0.09,0.07-0.17,0.14-0.24,0.2c-0.16,0.12-0.29,0.26-0.41,0.4
					c-0.12,0.14-0.21,0.29-0.27,0.44c-0.06,0.16-0.1,0.32-0.1,0.5c0,0.25,0.07,0.41,0.2,0.46
					C249.25,155.26,249.42,155.23,249.62,155.1z"/>
				<path class="st0" d="M254.32,144.53v8.95l-1.33,0.79v-8.95L254.32,144.53z"/>
			</g>
		</g>
	</g>
	<circle class="st6" cx="213.28" cy="111.23" r="28.4"/>
	<circle class="st6" cx="213.28" cy="111.23" r="11.86"/>
	<polygon class="st7" points="259.96,27.56 258.61,26.8 266.45,22.18 267.8,22.94 	"/>
	<polygon class="st7" points="139.52,24.67 137.34,23.44 150.01,15.96 152.19,17.19 	"/>
	<g>
		
			<linearGradient id="SVGID_1_" gradientUnits="userSpaceOnUse" x1="155.642" y1="2975.7227" x2="165.482" y2="2975.7227" gradientTransform="matrix(1 0 0 1 0 -2873.5476)">
			<stop  offset="0" style="stop-color:#925D91"/>
			<stop  offset="1" style="stop-color:#81B0BD"/>
		</linearGradient>
		<path class="st8" d="M155.64,108.45v-1.47l7.13-9.15V97.7h-6.9v-1.8h9.38v1.54l-6.93,9.09v0.13h7.16v1.8h-9.84V108.45z"/>
	</g>
	<g>
		
			<linearGradient id="SVGID_00000008119791424724918410000003050854733941578630_" gradientUnits="userSpaceOnUse" x1="181.152" y1="2956.3677" x2="197.662" y2="2956.3677" gradientTransform="matrix(1 0 0 1 0 -2873.5476)">
			<stop  offset="0" style="stop-color:#925D91"/>
			<stop  offset="1" style="stop-color:#81B0BD"/>
		</linearGradient>
		<path style="fill:url(#SVGID_00000008119791424724918410000003050854733941578630_);" d="M181.15,93.36v-2.47l11.96-15.36v-0.22
			h-11.57v-3.02h15.74v2.58l-11.63,15.25v0.22h12.01v3.02H181.15z"/>
	</g>
	<g>
		
			<linearGradient id="SVGID_00000178188274434713077150000005531278374679205802_" gradientUnits="userSpaceOnUse" x1="179.092" y1="2911.2476" x2="201.032" y2="2911.2476" gradientTransform="matrix(1 0 0 1 0 -2873.5476)">
			<stop  offset="0" style="stop-color:#925D91"/>
			<stop  offset="1" style="stop-color:#81B0BD"/>
		</linearGradient>
		<path style="fill:url(#SVGID_00000178188274434713077150000005531278374679205802_);" d="M179.09,51.7v-3.28l15.89-20.41v-0.29
			H179.6v-4.01h20.92v3.43L185.07,47.4v0.29h15.96v4.01L179.09,51.7z"/>
	</g>
	<g>
		
			<radialGradient id="SVGID_00000132788820422811360830000015816820285190392494_" cx="143.117" cy="5208.7642" r="29.1405" gradientTransform="matrix(1 0 0 0.5898 0 -2821.2874)" gradientUnits="userSpaceOnUse">
			<stop  offset="0" style="stop-color:#06070C"/>
			<stop  offset="1" style="stop-color:#0E101C;stop-opacity:0"/>
		</radialGradient>
		<path style="opacity:0.67;fill:url(#SVGID_00000132788820422811360830000015816820285190392494_);enable-background:new    ;" d="
			M168.1,236.78c-13.67-7.89-35.94-7.99-49.74-0.23s-13.9,20.46-0.23,28.36s35.94,7.99,49.74,0.23
			C181.67,257.37,181.77,244.67,168.1,236.78z"/>
		<g>
			<path class="st12" d="M179.07,201.07v-49.28c0-0.23,0.02-0.45,0.02-0.68c0-22.91-18.57-41.48-41.48-41.48
				s-41.48,18.57-41.48,41.48c0,0.36,0.02,0.72,0.03,1.07v44.66h-0.03v22.67c0,2.84,2.3,5.15,5.15,5.15c2.84,0,5.15-2.31,5.15-5.15
				v-0.83c0.56,0.36,1.13,0.72,1.74,1.07c1.83,1.06,3.79,1.99,5.85,2.81v8.2c0,2.84,2.3,5.15,5.15,5.15s5.15-2.31,5.15-5.15v-5.23
				c2.95,0.57,5.99,0.96,9.06,1.14v12.59c0,2.84,2.3,5.15,5.15,5.15s5.15-2.31,5.15-5.15v-12.7c3.39-0.28,6.73-0.8,9.93-1.55v6.36
				c0,2.84,2.3,5.15,5.15,5.15s5.15-2.31,5.15-5.15v-9.87c1-0.47,1.97-0.96,2.91-1.49c0.7-0.39,1.35-0.8,1.99-1.21v0.71
				c0,2.84,2.3,5.15,5.15,5.15c2.84,0,5.15-2.31,5.15-5.15v-18.45L179.07,201.07L179.07,201.07z"/>
			
				<radialGradient id="SVGID_00000053547215641740560900000015536185142044325509_" cx="162.2923" cy="3000.5955" r="106.6854" gradientTransform="matrix(1 0 0 1 0 -2873.5476)" gradientUnits="userSpaceOnUse">
				<stop  offset="0.0124" style="stop-color:#C380C4"/>
				<stop  offset="0.4936" style="stop-color:#925F92"/>
				<stop  offset="0.5829" style="stop-color:#8E6696"/>
				<stop  offset="0.7273" style="stop-color:#867BA0"/>
				<stop  offset="0.9078" style="stop-color:#809BB2"/>
				<stop  offset="1" style="stop-color:#81B0BD"/>
			</radialGradient>
			<path style="fill:url(#SVGID_00000053547215641740560900000015536185142044325509_);" d="M179.07,201.07v-49.28
				c0-0.23,0.02-0.45,0.02-0.68c0-22.91-18.57-41.48-41.48-41.48s-41.48,18.57-41.48,41.48c0,0.36,0.02,0.72,0.03,1.07v44.66h-0.03
				v22.67c0,2.84,2.3,5.15,5.15,5.15c2.84,0,5.15-2.31,5.15-5.15v-0.83c0.56,0.36,1.13,0.72,1.74,1.07
				c1.83,1.06,3.79,1.99,5.85,2.81v8.2c0,2.84,2.3,5.15,5.15,5.15s5.15-2.31,5.15-5.15v-5.23c2.95,0.57,5.99,0.96,9.06,1.14v12.59
				c0,2.84,2.3,5.15,5.15,5.15s5.15-2.31,5.15-5.15v-12.7c3.39-0.28,6.73-0.8,9.93-1.55v6.36c0,2.84,2.3,5.15,5.15,5.15
				s5.15-2.31,5.15-5.15v-9.87c1-0.47,1.97-0.96,2.91-1.49c0.7-0.39,1.35-0.8,1.99-1.21v0.71c0,2.84,2.3,5.15,5.15,5.15
				c2.84,0,5.15-2.31,5.15-5.15v-18.45L179.07,201.07L179.07,201.07z"/>
		</g>
		<path id="矩形_00000013912370780101878490000007450984262361932426_" class="st14" d="M100.04,186.93L100.04,186.93
			c1.12,0,2.08,1.38,2.08,2.99v14.25c0,1.61-0.96,2.99-2.08,2.99l0,0c-1.12,0-2.08-1.38-2.08-2.99v-14.25
			C97.95,188.31,98.92,186.93,100.04,186.93z"/>
		<path id="矩形_00000105389235179328124280000017088382548664353155_" class="st14" d="M100.04,212.72L100.04,212.72
			c1.12,0,2.08,1.38,2.08,2.99v2.76c0,1.61-0.96,2.99-2.08,2.99l0,0c-1.12,0-2.08-1.38-2.08-2.99v-2.76
			C97.95,213.98,98.92,212.72,100.04,212.72z"/>
		<path id="矩形_00000066477818441699453690000016964919950218624943_" class="st14" d="M117.43,223.5L117.43,223.5
			c1.12,0,2.08,1.38,2.08,2.99v2.76c0,1.61-0.96,2.99-2.08,2.99l0,0c-1.12,0-2.08-1.38-2.08-2.99v-2.76
			C115.34,224.76,116.3,223.5,117.43,223.5z"/>
		<path id="矩形_00000101804678989535653920000005818440133909333142_" class="st14" d="M137.6,232.23L137.6,232.23
			c1.12,0,2.08,1.38,2.08,2.99v2.76c0,1.61-0.96,2.99-2.08,2.99l0,0c-1.12,0-2.08-1.38-2.08-2.99v-2.76
			C135.52,233.5,136.48,232.23,137.6,232.23z"/>
		<path id="矩形_00000029005240873666914550000002775891798328402068_" class="st14" d="M157.3,226.89L157.3,226.89
			c0.89,0,1.66,1.1,1.66,2.37v2.19c0,1.28-0.76,2.37-1.66,2.37l0,0c-0.89,0-1.66-1.1-1.66-2.37v-2.19
			C155.64,227.9,156.4,226.89,157.3,226.89z"/>
		<path id="矩形_00000166652132102504768740000002163194347797792703_" class="st14" d="M172.09,216.73L172.09,216.73
			c0.62,0,1.14,0.76,1.14,1.64v1.51c0,0.88-0.53,1.64-1.14,1.64l0,0c-0.62,0-1.14-0.76-1.14-1.64v-1.51
			C170.94,217.43,171.47,216.73,172.09,216.73z"/>
		<line class="st15" x1="138.18" y1="167.77" x2="149.87" y2="163.45"/>
		<line class="st15" x1="161.41" y1="160.04" x2="173.1" y2="155.72"/>
	</g>
</g>
</svg>
