<?xml version="1.0" encoding="utf-8"?>
<!-- Generator: Adobe Illustrator 27.8.1, SVG Export Plug-In . SVG Version: 6.00 Build 0)  -->
<svg version="1.1" id="Слой_1" xmlns="http://www.w3.org/2000/svg" xmlns:xlink="http://www.w3.org/1999/xlink" x="0px" y="0px"
	 viewBox="0 0 290 269.62" style="enable-background:new 0 0 290 269.62;" xml:space="preserve">
<style type="text/css">
	.st0{fill:#101422;}
	.st1{fill:#FFFFFF;stroke:#111422;stroke-linecap:round;stroke-linejoin:round;stroke-miterlimit:10;}
	
		.st2{fill-rule:evenodd;clip-rule:evenodd;fill:#C6C3D1;stroke:#101320;stroke-linecap:round;stroke-linejoin:round;stroke-miterlimit:10;}
	
		.st3{fill-rule:evenodd;clip-rule:evenodd;fill:#FFFFFF;stroke:#111422;stroke-linecap:round;stroke-linejoin:round;stroke-miterlimit:10;}
	
		.st4{fill-rule:evenodd;clip-rule:evenodd;fill:#ECF0FC;stroke:#111422;stroke-linecap:round;stroke-linejoin:round;stroke-miterlimit:10;}
	.st5{opacity:0.92;fill-rule:evenodd;clip-rule:evenodd;fill:#FFFFFF;enable-background:new    ;}
	.st6{fill:none;stroke:#FFFFFF;stroke-linecap:round;stroke-linejoin:round;stroke-miterlimit:10;}
	.st7{fill-rule:evenodd;clip-rule:evenodd;fill:#101422;}
	.st8{fill:url(#SVGID_1_);}
	.st9{fill:url(#SVGID_00000038389803850828993860000004158429443906510009_);}
	.st10{fill:url(#SVGID_00000029022721886867902990000016631197187586633607_);}
	.st11{opacity:0.67;fill:url(#SVGID_00000123412691690084094040000010588061953854073518_);enable-background:new    ;}
	.st12{fill:#6FA3B6;}
	.st13{fill:url(#SVGID_00000083795099166613843680000003287699030514292112_);}
	.st14{opacity:0.2563;fill-rule:evenodd;clip-rule:evenodd;fill:#FFFFFF;enable-background:new    ;}
	.st15{fill:none;stroke:#FFFFFF;stroke-width:0.7384;stroke-linecap:round;stroke-linejoin:round;stroke-miterlimit:10;}
	
		.st16{fill:none;stroke:url(#SVGID_00000056407429265931294320000001391133788378423192_);stroke-width:5;stroke-linecap:round;stroke-linejoin:round;stroke-miterlimit:10;}
	.st17{fill:url(#SVGID_00000133499407389103302380000006004195872220920475_);}
	.st18{fill-rule:evenodd;clip-rule:evenodd;fill:#1AD4B3;}
	.st19{fill-rule:evenodd;clip-rule:evenodd;fill:#FC4F83;}
	.st20{fill:#C6C3D1;stroke:#101320;stroke-linecap:round;stroke-linejoin:round;stroke-miterlimit:10;}
	.st21{fill:#ECF0FC;stroke:#111422;stroke-linecap:round;stroke-linejoin:round;stroke-miterlimit:10;}
	
		.st22{fill:url(#SVGID_00000104696944040774160710000015401892209737660591_);stroke:#1D1D1B;stroke-width:0.2115;stroke-linecap:round;stroke-linejoin:round;stroke-miterlimit:10;}
	
		.st23{fill:url(#SVGID_00000054245992455651013920000002252152051351818624_);stroke:#1D1D1B;stroke-width:0.2115;stroke-linecap:round;stroke-linejoin:round;stroke-miterlimit:10;}
	
		.st24{fill:url(#SVGID_00000116914959147375190940000004073715826282620807_);stroke:#1D1D1B;stroke-width:0.2115;stroke-linecap:round;stroke-linejoin:round;stroke-miterlimit:10;}
	
		.st25{fill:url(#SVGID_00000014616663011477393940000005747706216403828370_);stroke:#1D1D1B;stroke-width:0.2115;stroke-linecap:round;stroke-linejoin:round;stroke-miterlimit:10;}
	
		.st26{fill-rule:evenodd;clip-rule:evenodd;fill:#101422;stroke:#101423;stroke-linecap:round;stroke-linejoin:round;stroke-miterlimit:10;}
	.st27{fill:#FFFFFF;}
	.st28{fill-rule:evenodd;clip-rule:evenodd;fill:url(#SVGID_00000018927414597949435750000015105438825368069799_);}
	.st29{fill-rule:evenodd;clip-rule:evenodd;fill:url(#SVGID_00000155119578971930474240000007568420438466638249_);}
	.st30{fill:url(#SVGID_00000053512278602257793930000015268540897714591622_);}
	.st31{fill:url(#SVGID_00000132793831956745190520000008112087354818716569_);}
	.st32{fill:url(#SVGID_00000041271534881111295210000013375110035901410962_);}
	
		.st33{fill-rule:evenodd;clip-rule:evenodd;fill:#C7FFF1;stroke:#101320;stroke-linecap:round;stroke-linejoin:round;stroke-miterlimit:10;}
	
		.st34{fill:none;stroke:url(#SVGID_00000060735298424639290940000006676378436717619337_);stroke-width:5;stroke-linecap:round;stroke-linejoin:round;stroke-miterlimit:10;}
	.st35{fill:url(#SVGID_00000019662770231466273610000001415688366450022844_);}
	
		.st36{fill:none;stroke:url(#SVGID_00000150068204111408075100000007456734401264291470_);stroke-width:5;stroke-linecap:round;stroke-linejoin:round;stroke-miterlimit:10;}
	.st37{fill:url(#SVGID_00000138544921964330364220000014240215261529158552_);}
	
		.st38{fill:none;stroke:url(#SVGID_00000159445624451735390240000016151680409310738871_);stroke-width:5;stroke-linecap:round;stroke-linejoin:round;stroke-miterlimit:10;}
	.st39{fill:url(#SVGID_00000106146033046113886790000016353854841477697958_);}
	
		.st40{fill-rule:evenodd;clip-rule:evenodd;fill:#1AD4B3;stroke:#111422;stroke-linecap:round;stroke-linejoin:round;stroke-miterlimit:10;}
	
		.st41{fill-rule:evenodd;clip-rule:evenodd;fill:#FC4F83;stroke:#111422;stroke-linecap:round;stroke-linejoin:round;stroke-miterlimit:10;}
	
		.st42{fill-rule:evenodd;clip-rule:evenodd;fill:#FFCAD7;stroke:#111422;stroke-linecap:round;stroke-linejoin:round;stroke-miterlimit:10;}
	.st43{fill:url(#SVGID_00000029037763672803907420000000288002940097405859_);}
	.st44{fill:url(#SVGID_00000026141928309135350480000006477512211709637789_);}
	.st45{fill:url(#SVGID_00000117639609042051041240000007770233079537507751_);}
	
		.st46{fill:none;stroke:url(#SVGID_00000181061000878846850140000011605481063760811159_);stroke-width:5;stroke-linecap:round;stroke-linejoin:round;stroke-miterlimit:10;}
	.st47{fill:url(#SVGID_00000029034267260487946870000005603723993808108673_);}
	
		.st48{fill:none;stroke:url(#SVGID_00000098921455102217669810000013134112796949710749_);stroke-width:5;stroke-linecap:round;stroke-linejoin:round;stroke-miterlimit:10;}
	.st49{fill:url(#SVGID_00000099619961643283316140000001983063285790231967_);}
	.st50{fill:url(#SVGID_00000089571783156358393120000013564862163778854790_);}
	.st51{fill:#101320;}
	.st52{fill:url(#SVGID_00000092436436828313330450000006580605798220443055_);}
	.st53{fill:url(#SVGID_00000108280422763179899010000015990237613387020688_);}
	.st54{fill:url(#SVGID_00000103223733074846316180000015421860551842396308_);}
	.st55{fill:url(#SVGID_00000033357076175114804900000001449602360160318107_);}
	.st56{fill:url(#SVGID_00000029727821170460665890000002846823111936775824_);}
	.st57{fill:url(#SVGID_00000128465283016290977990000014181212686445412484_);}
	.st58{opacity:0.29;fill:url(#SVGID_00000098203350406404754620000005029323077904498863_);enable-background:new    ;}
	.st59{fill:url(#SVGID_00000077324181850378102670000012777996610108507058_);}
	.st60{fill:url(#SVGID_00000008848856766046455940000018208577320048748439_);}
	.st61{fill:url(#SVGID_00000005261809291287542400000018442054566887618967_);}
	.st62{fill-rule:evenodd;clip-rule:evenodd;fill:url(#SVGID_00000119836087544930700980000007449081785243762616_);}
	.st63{fill:url(#SVGID_00000005254022380854718810000003058205459097544628_);}
	.st64{fill:url(#SVGID_00000147909232264267366620000018236896222376850855_);}
	.st65{fill:url(#SVGID_00000142887046562076083320000004904417334739447196_);}
	.st66{fill:url(#SVGID_00000177481713797680838250000003273628283493993397_);}
	.st67{opacity:0.29;fill:url(#SVGID_00000016761667121776909850000006777970322856902276_);enable-background:new    ;}
	
		.st68{fill:none;stroke:url(#SVGID_00000181779884737997013170000003857528838372036004_);stroke-width:5;stroke-linecap:round;stroke-linejoin:round;stroke-miterlimit:10;}
	.st69{fill:url(#SVGID_00000159448942905524706090000015150714316591814301_);}
	
		.st70{fill:none;stroke:url(#SVGID_00000101092126802362987880000014649868613085066926_);stroke-width:5;stroke-linecap:round;stroke-linejoin:round;stroke-miterlimit:10;}
	.st71{fill:url(#SVGID_00000042711353859245271050000001292981630085487260_);}
	
		.st72{fill:none;stroke:url(#SVGID_00000145764537074168269870000014826161044759269786_);stroke-width:5;stroke-linecap:round;stroke-linejoin:round;stroke-miterlimit:10;}
	.st73{fill:url(#SVGID_00000135668157824664949980000002560142713695580341_);}
	.st74{fill-rule:evenodd;clip-rule:evenodd;fill:url(#SVGID_00000083800738265848821300000012501183187506389646_);}
	.st75{fill:url(#SVGID_00000119120101073815379580000004820188953781807796_);}
	.st76{fill:url(#SVGID_00000017492336420031633190000000479834487594021039_);}
	.st77{fill:url(#SVGID_00000093875551110132021110000004862061101798566823_);}
	.st78{opacity:0.29;fill:url(#SVGID_00000012459308764899585980000003000920546429816253_);}
	.st79{opacity:0.29;fill:url(#SVGID_00000036226759937331716340000009560490380909977021_);}
	.st80{opacity:0.67;fill:url(#SVGID_00000152250398789793760700000007801873580512558508_);}
	.st81{fill:#3FA9BD;}
	.st82{fill:url(#SVGID_00000020380863272461767140000007450230079999584657_);}
	.st83{fill-rule:evenodd;clip-rule:evenodd;fill:#555069;}
	.st84{fill-rule:evenodd;clip-rule:evenodd;fill:#FFFFFF;}
	.st85{fill-rule:evenodd;clip-rule:evenodd;fill:#AFAFB1;}
	.st86{fill-rule:evenodd;clip-rule:evenodd;fill:#D3D3D3;}
	.st87{opacity:0.67;fill:url(#SVGID_00000026123288663676127490000009534192413252641197_);}
	.st88{fill:url(#SVGID_00000170279509611904222210000003974509603119671690_);}
	.st89{opacity:0.67;fill:url(#SVGID_00000111172523362597001080000014451087233884653187_);}
	.st90{fill:url(#SVGID_00000037684891887044896250000017937689152592014501_);}
	.st91{opacity:0.67;fill:url(#SVGID_00000128449728284427288430000015798376282731697281_);}
	.st92{fill:url(#SVGID_00000144302542704317344880000000553934726104316837_);}
	.st93{opacity:0.67;fill:url(#SVGID_00000098937331778446390220000009385008848757782151_);}
	.st94{fill:url(#SVGID_00000110469903127834547830000003696320515698666403_);}
	.st95{opacity:0.67;fill:url(#SVGID_00000116235949264725107370000013955985786257173914_);}
	.st96{fill:url(#SVGID_00000165931888200331130940000001248837065087164057_);}
	.st97{fill:#1AD4B3;}
	.st98{opacity:0.67;fill:url(#SVGID_00000075850737926703054630000007524915777856179862_);}
	.st99{fill:url(#SVGID_00000098929761612473331420000014328265863124537515_);}
	.st100{opacity:0.67;fill:url(#SVGID_00000119076808948941143810000002842490345365231492_);}
	.st101{fill:url(#SVGID_00000107557327814549636110000009724900775885339295_);}
	.st102{opacity:0.67;fill:url(#SVGID_00000075884885538210367260000001323075165629046703_);}
	.st103{fill:url(#SVGID_00000005243603121122390170000011974836944188086174_);}
	
		.st104{fill-rule:evenodd;clip-rule:evenodd;fill:none;stroke:#FFFFFF;stroke-width:0.7384;stroke-linecap:round;stroke-linejoin:round;stroke-miterlimit:10;}
	.st105{opacity:0.67;fill:url(#SVGID_00000178184925228976091090000002333875758752514184_);}
	.st106{fill:url(#SVGID_00000123403277435538068390000000796040978700263604_);}
	.st107{opacity:0.67;fill:url(#SVGID_00000119796698284010657260000013734151602130147470_);}
	.st108{fill:url(#SVGID_00000066505042278045309680000005191899850304677790_);}
	.st109{opacity:0.67;fill:url(#SVGID_00000085236982261555390840000008426918400577970595_);}
	.st110{fill:url(#SVGID_00000050663808187722153660000014538614693907677621_);}
	.st111{opacity:0.67;fill:url(#SVGID_00000018238227556290618950000003514681553942648224_);}
	.st112{fill:url(#SVGID_00000020356442661610184370000014795612577712376505_);}
	.st113{opacity:0.67;fill:url(#SVGID_00000013171444293180047160000002631489750495225744_);}
	.st114{fill:url(#SVGID_00000163037367835437229860000003791130059436278922_);}
	.st115{opacity:0.67;fill:url(#SVGID_00000120516927082928600730000006248633154639596974_);}
	.st116{fill:url(#SVGID_00000038388736909007695010000012009568026748989076_);}
	.st117{opacity:0.67;fill:url(#SVGID_00000081643539153054207030000008951768437412563351_);}
	.st118{fill:url(#SVGID_00000080189235179677438920000000457445497048952507_);}
	.st119{opacity:0.67;fill:url(#SVGID_00000126281566177511983390000011622871909875400624_);}
	.st120{fill:url(#SVGID_00000065054780753744526180000003449742352502946710_);}
	.st121{opacity:0.67;fill:url(#SVGID_00000137850682970438021550000001926327096890376370_);}
	.st122{fill:url(#SVGID_00000027596326164242191450000009170350492436362938_);}
	.st123{opacity:0.67;fill:url(#SVGID_00000045593838664601756080000003541877439279873956_);}
	.st124{fill:url(#SVGID_00000176043265522212771600000013178104895858485947_);}
	.st125{opacity:0.67;fill:url(#SVGID_00000080182202742620715400000013392007751056365463_);}
	.st126{fill:url(#SVGID_00000067212270889254695690000009982417224950022308_);}
	.st127{opacity:0.67;fill:url(#SVGID_00000157289787588234485030000016321775573866776508_);}
	.st128{fill:#5EA6B9;}
	.st129{fill:url(#SVGID_00000078007534619958625440000004901845407036993933_);}
	.st130{fill-rule:evenodd;clip-rule:evenodd;fill:#545067;}
	.st131{fill-rule:evenodd;clip-rule:evenodd;fill:#AEAEB0;}
	.st132{fill-rule:evenodd;clip-rule:evenodd;fill:#D2D2D2;}
	.st133{opacity:0.67;fill:url(#SVGID_00000052820105503442979470000000419517894411498918_);}
	.st134{fill:url(#SVGID_00000034769348529673626930000008648762817482333108_);}
	.st135{fill-rule:evenodd;clip-rule:evenodd;fill:#63D0B3;}
	
		.st136{fill-rule:evenodd;clip-rule:evenodd;fill:none;stroke:#111422;stroke-linecap:round;stroke-linejoin:round;stroke-miterlimit:10;}
	.st137{fill-rule:evenodd;clip-rule:evenodd;fill:#E85C83;}
	.st138{fill:#5DC29D;}
	.st139{fill:url(#SVGID_00000181782987731304329380000000485693417862812547_);}
	.st140{fill:url(#SVGID_00000026141255884557253860000017254771514576429199_);}
	.st141{fill:#E85C83;}
	.st142{opacity:0.67;fill:url(#SVGID_00000028315098591135175790000014618612814655542957_);}
	.st143{fill:url(#SVGID_00000082363077072244364190000002117118709483581336_);}
	
		.st144{fill:none;stroke:url(#SVGID_00000029738911703329805280000000965231023456953488_);stroke-width:5;stroke-linecap:round;stroke-linejoin:round;stroke-miterlimit:10;}
	.st145{fill:url(#SVGID_00000130648525507584648250000005005054315526063253_);}
	.st146{opacity:0.67;fill:url(#SVGID_00000023982368231097396540000006992567008294827452_);}
	.st147{fill:url(#SVGID_00000150800133772440490010000013841755261484511417_);}
	.st148{opacity:0.67;fill:url(#SVGID_00000138569992051072811380000009421462013974298017_);}
	.st149{fill:url(#SVGID_00000057863115942954574860000007224766699541987998_);}
	.st150{opacity:0.67;fill:url(#SVGID_00000068651791889712843570000010039849072627229885_);}
	.st151{fill:url(#SVGID_00000080898251020385255470000012328475954375732129_);}
	.st152{opacity:0.67;fill:url(#SVGID_00000030466414063745501510000018431103363547070905_);}
	.st153{fill:url(#SVGID_00000004527004429430181470000011881115781511383938_);}
	.st154{opacity:0.67;fill:url(#SVGID_00000148620467665302391590000002768436837439559831_);}
	.st155{fill:url(#SVGID_00000018198781774588638660000005733444812765987765_);}
	.st156{opacity:0.67;fill:url(#SVGID_00000044170999527159508990000003114879306083863968_);}
	.st157{fill:url(#SVGID_00000025417497287057385680000012491156893432250291_);}
	.st158{fill:none;stroke:#000000;stroke-width:22;stroke-linecap:round;stroke-linejoin:round;stroke-miterlimit:10;}
	.st159{fill:#ECF0FC;}
	.st160{fill:url(#SVGID_00000064335281331591634690000016193710261557231759_);}
	.st161{fill:url(#SVGID_00000088841921179188452670000009550347383810910136_);}
	.st162{fill:none;stroke:url(#SVGID_00000108269145715339096790000006056023514105529484_);stroke-width:5;stroke-miterlimit:10;}
	.st163{fill:#111422;}
	.st164{fill:url(#SVGID_00000084490984737554699130000004457723499613567640_);}
	.st165{fill:none;}
	.st166{opacity:0.67;fill:url(#SVGID_00000108267386521496172210000003126450322865378998_);}
	.st167{fill:url(#SVGID_00000084529173652247231390000010346542283617993092_);}
	.st168{fill:none;stroke:url(#SVGID_00000164501384438227900820000002151845263974355633_);stroke-width:5;stroke-miterlimit:10;}
	.st169{fill:url(#SVGID_00000179607425914158756140000014628743036838740911_);}
	.st170{opacity:0.67;fill:url(#SVGID_00000011750727352036527900000013675211733310625412_);}
	.st171{fill:url(#SVGID_00000142886219186900504680000005416320891457301416_);}
	.st172{opacity:0.67;fill:url(#SVGID_00000077321020312867275850000007454728116096971439_);}
	.st173{fill:url(#SVGID_00000057118838702322799300000017148381535841364663_);}
</style>
<g>
	<circle class="st0" cx="144.67" cy="70.24" r="26.03"/>
	<g>
		<g>
			<path class="st1" d="M138.21,43.43l-0.01,10.81c-0.33,1.38,0.28,2.85,1.82,3.91c2.54,1.76,6.66,1.76,9.2,0
				c1.08-0.75,1.7-1.69,1.86-2.67l0.04,0l0-0.45c0-0.04,0-0.09,0-0.13l0.01-11.18L138.21,43.43z"/>
			<path class="st1" d="M138.26,51.16c0,2.45,2.87,4.43,6.41,4.43s6.41-1.98,6.41-4.43"/>
			<path class="st1" d="M138.26,47.77c0,2.45,2.87,4.43,6.41,4.43s6.41-1.98,6.41-4.43"/>
			<path class="st1" d="M138.26,44.21c0,2.45,2.87,4.43,6.41,4.43s6.41-1.98,6.41-4.43"/>
		</g>
		<g>
			<path class="st1" d="M138.21,32.75l-0.01,10.81c-0.33,1.38,0.28,2.85,1.82,3.91c2.54,1.76,6.66,1.76,9.2,0
				c1.08-0.75,1.7-1.69,1.86-2.67l0.04,0l0-0.45c0-0.04,0-0.09,0-0.13l0.01-11.18L138.21,32.75z"/>
			<path class="st1" d="M138.26,40.49c0,2.45,2.87,4.43,6.41,4.43s6.41-1.98,6.41-4.43"/>
			<path class="st1" d="M138.26,37.1c0,2.45,2.87,4.43,6.41,4.43s6.41-1.98,6.41-4.43"/>
			<path class="st1" d="M138.26,33.54c0,2.45,2.87,4.43,6.41,4.43s6.41-1.98,6.41-4.43"/>
		</g>
	</g>
	<g>
		<g>
			<g>
				<polygon class="st2" points="144.27,48.55 126.46,38.27 126.46,20.45 144.27,30.74 				"/>
				<polygon class="st3" points="144.27,48.55 162.09,38.27 162.09,20.45 144.27,30.74 				"/>
				<polygon class="st4" points="144.34,30.79 126.46,20.47 144.21,10.13 162.09,20.45 				"/>
			</g>
			<path id="矩形_00000046321944318333643550000015620058666620774805_" class="st5" d="M138.69,15.45L138.69,15.45
				c0.35,0.2,0.29,0.58-0.12,0.83l-3.7,2.19c-0.42,0.25-1.08,0.29-1.43,0.09l0,0c-0.35-0.2-0.29-0.58,0.12-0.83l3.7-2.19
				C137.68,15.29,138.34,15.25,138.69,15.45z"/>
			<path id="矩形_00000164481072756091394730000004190331143475335815_" class="st5" d="M131.99,19.41L131.99,19.41
				c0.35,0.2,0.29,0.58-0.12,0.83l-0.72,0.42c-0.42,0.25-1.08,0.29-1.43,0.09l0,0c-0.35-0.2-0.29-0.58,0.12-0.83l0.72-0.42
				C131.02,19.24,131.64,19.21,131.99,19.41z"/>
		</g>
	</g>
</g>
<g>
	<circle class="st0" cx="263.33" cy="58.37" r="17.42"/>
	<g>
		<g>
			<path class="st1" d="M259,40.43l0,7.23c-0.22,0.92,0.19,1.91,1.22,2.62c1.7,1.18,4.46,1.18,6.16,0c0.72-0.5,1.14-1.13,1.25-1.79
				l0.03,0l0-0.3c0-0.03,0-0.06,0-0.09l0-7.49L259,40.43z"/>
			<path class="st1" d="M259.04,45.6c0,1.64,1.92,2.97,4.29,2.97c2.37,0,4.29-1.33,4.29-2.97"/>
			<path class="st1" d="M259.04,43.33c0,1.64,1.92,2.97,4.29,2.97c2.37,0,4.29-1.33,4.29-2.97"/>
			<path class="st1" d="M259.04,40.95c0,1.64,1.92,2.97,4.29,2.97c2.37,0,4.29-1.33,4.29-2.97"/>
		</g>
		<g>
			<path class="st1" d="M259,33.28l0,7.23c-0.22,0.92,0.19,1.91,1.22,2.62c1.7,1.18,4.46,1.18,6.16,0c0.72-0.5,1.14-1.13,1.25-1.79
				l0.03,0l0-0.3c0-0.03,0-0.06,0-0.09l0-7.49L259,33.28z"/>
			<path class="st1" d="M259.04,38.46c0,1.64,1.92,2.97,4.29,2.97c2.37,0,4.29-1.33,4.29-2.97"/>
			<path class="st1" d="M259.04,36.19c0,1.64,1.92,2.97,4.29,2.97c2.37,0,4.29-1.33,4.29-2.97"/>
			<path class="st1" d="M259.04,33.8c0,1.64,1.92,2.97,4.29,2.97c2.37,0,4.29-1.33,4.29-2.97"/>
		</g>
	</g>
	<g>
		<g>
			<g>
				<polygon class="st2" points="263.06,43.86 251.14,36.97 251.14,25.05 263.06,31.93 				"/>
				<polygon class="st3" points="263.06,43.86 274.99,36.97 274.99,25.05 263.06,31.93 				"/>
				<polygon class="st4" points="263.11,31.97 251.14,25.06 263.02,18.13 274.99,25.05 				"/>
			</g>
			<path id="矩形_00000072992793209382502270000016897197155632325563_" class="st5" d="M259.43,21.56L259.43,21.56
				c0.23,0.13,0.2,0.39-0.08,0.55l-2.47,1.46c-0.28,0.17-0.72,0.19-0.95,0.06l0,0c-0.23-0.13-0.2-0.39,0.08-0.55l2.47-1.46
				C258.75,21.46,259.19,21.43,259.43,21.56z"/>
			<path id="矩形_00000116233264532264675760000000231183610510303902_" class="st5" d="M254.95,24.22L254.95,24.22
				c0.23,0.13,0.2,0.39-0.08,0.55l-0.48,0.28c-0.28,0.17-0.72,0.19-0.95,0.06l0,0c-0.23-0.13-0.2-0.39,0.08-0.55l0.48-0.28
				C254.29,24.1,254.71,24.08,254.95,24.22z"/>
		</g>
	</g>
</g>
<g>
	<g>
		<polygon class="st3" points="263.04,158.85 209.25,189.57 209.5,210.38 263.16,179.85 		"/>
		<polygon class="st2" points="168.54,166.9 209.25,189.52 209.5,210.38 168.79,187.76 		"/>
		<polygon class="st4" points="262.79,158.83 221.55,135.82 168.54,166.9 209.25,189.72 		"/>
	</g>
	<g>
		<polygon class="st3" points="263.04,134.31 209.25,165.03 209.5,185.84 263.16,155.31 		"/>
		<polygon class="st2" points="168.54,142.36 209.25,164.97 209.5,185.84 168.79,163.22 		"/>
		<polygon class="st4" points="263.04,134.24 221.8,111.23 168.54,141.97 209.25,164.79 		"/>
	</g>
	<circle class="st0" cx="213.14" cy="111.19" r="41.04"/>
	<g>
		<g>
			<path class="st0" d="M217.3,175.29v-8.95l2.53-1.5c0.49-0.29,0.9-0.41,1.24-0.35c0.34,0.05,0.6,0.26,0.79,0.61
				c0.18,0.35,0.27,0.82,0.27,1.41c0,0.59-0.09,1.17-0.28,1.74c-0.18,0.56-0.45,1.07-0.8,1.53c-0.35,0.46-0.77,0.84-1.26,1.13
				l-1.61,0.96v-1.52l1.39-0.83c0.26-0.15,0.48-0.35,0.65-0.57c0.17-0.23,0.3-0.48,0.38-0.76c0.08-0.28,0.13-0.56,0.13-0.85
				c0-0.3-0.04-0.53-0.13-0.71c-0.08-0.17-0.21-0.27-0.38-0.29c-0.17-0.02-0.39,0.04-0.65,0.2l-0.91,0.54v7.4L217.3,175.29z"/>
			<path class="st0" d="M222.99,171.92v-6.71l1.29-0.77v1.17l0.05-0.03c0.09-0.47,0.23-0.87,0.44-1.21
				c0.21-0.34,0.44-0.58,0.71-0.74c0.07-0.04,0.14-0.08,0.22-0.11c0.08-0.03,0.15-0.06,0.2-0.07v1.65
				c-0.06,0.01-0.15,0.04-0.26,0.08c-0.11,0.04-0.21,0.09-0.3,0.15c-0.2,0.12-0.37,0.28-0.53,0.49c-0.15,0.21-0.27,0.44-0.36,0.71
				c-0.09,0.26-0.13,0.53-0.13,0.8v3.8L222.99,171.92z"/>
			<path class="st0" d="M228.54,168.76c-0.49,0.29-0.91,0.39-1.26,0.31c-0.35-0.08-0.63-0.32-0.82-0.73
				c-0.19-0.41-0.29-0.95-0.29-1.64c0-0.69,0.1-1.36,0.29-1.99c0.19-0.63,0.47-1.2,0.82-1.7c0.35-0.5,0.77-0.89,1.26-1.18
				c0.49-0.29,0.91-0.39,1.26-0.31c0.35,0.08,0.63,0.32,0.82,0.73c0.19,0.41,0.29,0.96,0.29,1.65c0,0.69-0.1,1.35-0.29,1.98
				c-0.19,0.63-0.47,1.2-0.82,1.7C229.45,168.08,229.03,168.47,228.54,168.76z M228.55,167.32c0.22-0.13,0.41-0.33,0.55-0.59
				s0.26-0.57,0.34-0.92s0.11-0.72,0.11-1.11c0-0.39-0.04-0.72-0.11-0.98s-0.19-0.44-0.34-0.53c-0.15-0.09-0.33-0.07-0.55,0.06
				c-0.22,0.13-0.41,0.33-0.56,0.6c-0.15,0.27-0.27,0.58-0.34,0.93c-0.08,0.35-0.11,0.72-0.11,1.11c0,0.39,0.04,0.72,0.11,0.98
				c0.08,0.26,0.19,0.43,0.34,0.52C228.14,167.47,228.32,167.45,228.55,167.32z"/>
			<path class="st0" d="M231.78,169.23V160l1.32-0.78v1.13l0.06-0.04c0.06-0.22,0.14-0.45,0.26-0.7c0.11-0.25,0.26-0.5,0.44-0.73
				c0.18-0.23,0.41-0.43,0.68-0.59c0.35-0.21,0.67-0.27,0.97-0.19c0.3,0.08,0.53,0.32,0.71,0.73c0.18,0.41,0.27,0.99,0.27,1.76
				c0,0.75-0.09,1.43-0.26,2.05c-0.17,0.62-0.41,1.14-0.7,1.58c-0.3,0.44-0.63,0.77-0.99,0.98c-0.26,0.15-0.48,0.22-0.66,0.21
				c-0.18-0.01-0.33-0.07-0.44-0.19c-0.11-0.11-0.2-0.25-0.26-0.4l-0.04,0.02v3.59L231.78,169.23z M233.09,162.58
				c0,0.4,0.04,0.72,0.12,0.97c0.08,0.25,0.19,0.41,0.34,0.49c0.15,0.07,0.33,0.05,0.55-0.08c0.22-0.13,0.4-0.32,0.55-0.58
				c0.15-0.26,0.26-0.56,0.34-0.9c0.08-0.35,0.12-0.71,0.12-1.1c0-0.39-0.04-0.71-0.12-0.95c-0.08-0.25-0.19-0.41-0.34-0.49
				c-0.15-0.08-0.33-0.05-0.55,0.08c-0.22,0.13-0.4,0.32-0.55,0.57s-0.26,0.54-0.34,0.89C233.13,161.81,233.09,162.18,233.09,162.58
				z"/>
			<path class="st0" d="M239.53,162.25c-0.49,0.29-0.91,0.39-1.26,0.31c-0.35-0.08-0.63-0.32-0.82-0.73
				c-0.19-0.41-0.29-0.95-0.29-1.64c0-0.69,0.1-1.36,0.29-1.99c0.19-0.63,0.47-1.2,0.82-1.7c0.35-0.5,0.77-0.89,1.26-1.18
				c0.49-0.29,0.91-0.39,1.26-0.31c0.35,0.08,0.63,0.32,0.82,0.73c0.19,0.41,0.29,0.96,0.29,1.65c0,0.69-0.1,1.35-0.29,1.98
				c-0.19,0.63-0.47,1.2-0.82,1.7C240.44,161.57,240.02,161.96,239.53,162.25z M239.54,160.8c0.22-0.13,0.41-0.33,0.55-0.59
				s0.26-0.57,0.34-0.92c0.08-0.35,0.11-0.72,0.11-1.11s-0.04-0.72-0.11-0.98c-0.08-0.26-0.19-0.44-0.34-0.53
				c-0.15-0.09-0.33-0.07-0.55,0.06c-0.22,0.13-0.41,0.33-0.56,0.6c-0.15,0.27-0.27,0.58-0.34,0.93s-0.11,0.72-0.11,1.11
				c0,0.39,0.04,0.72,0.11,0.98c0.08,0.26,0.19,0.43,0.34,0.52C239.13,160.96,239.32,160.94,239.54,160.8z"/>
			<path class="st0" d="M246.78,153.03l-1.22,0.83c-0.02-0.13-0.07-0.24-0.13-0.32c-0.07-0.08-0.16-0.12-0.27-0.12
				c-0.11-0.01-0.24,0.04-0.4,0.13c-0.21,0.12-0.38,0.29-0.52,0.49c-0.14,0.21-0.21,0.41-0.21,0.61c0,0.16,0.05,0.27,0.14,0.32
				c0.09,0.06,0.25,0.05,0.47-0.01l0.87-0.27c0.47-0.14,0.82-0.13,1.05,0.03c0.23,0.16,0.34,0.48,0.34,0.97
				c0,0.44-0.09,0.88-0.28,1.32c-0.18,0.44-0.44,0.85-0.76,1.22c-0.32,0.38-0.69,0.69-1.11,0.93c-0.64,0.38-1.14,0.49-1.52,0.34
				c-0.38-0.15-0.6-0.52-0.66-1.13l1.31-0.87c0.04,0.25,0.14,0.4,0.29,0.45c0.15,0.05,0.35,0.01,0.59-0.14
				c0.23-0.14,0.42-0.31,0.57-0.53c0.14-0.21,0.22-0.42,0.22-0.62c0-0.17-0.05-0.28-0.15-0.33c-0.1-0.05-0.25-0.04-0.46,0.02
				l-0.83,0.26c-0.47,0.15-0.82,0.13-1.05-0.06c-0.23-0.19-0.34-0.53-0.34-1.03c0-0.43,0.08-0.85,0.25-1.26
				c0.17-0.41,0.4-0.79,0.71-1.14c0.31-0.35,0.66-0.65,1.08-0.89c0.61-0.36,1.09-0.46,1.44-0.31
				C246.51,152.08,246.72,152.45,246.78,153.03z"/>
			<path class="st0" d="M249.1,156.58c-0.31,0.18-0.58,0.27-0.82,0.26c-0.24-0.01-0.43-0.12-0.57-0.33
				c-0.14-0.21-0.21-0.54-0.21-0.98c0-0.37,0.05-0.72,0.15-1.03c0.1-0.31,0.23-0.59,0.4-0.85c0.17-0.25,0.36-0.49,0.58-0.69
				c0.22-0.21,0.44-0.4,0.68-0.57c0.28-0.21,0.51-0.38,0.68-0.52c0.17-0.14,0.3-0.27,0.37-0.38c0.08-0.12,0.12-0.25,0.12-0.39v-0.03
				c0-0.28-0.06-0.45-0.19-0.53c-0.12-0.08-0.3-0.05-0.53,0.09c-0.24,0.14-0.43,0.33-0.57,0.56c-0.14,0.23-0.24,0.47-0.28,0.72
				l-1.23,0.59c0.06-0.44,0.19-0.87,0.37-1.28c0.18-0.41,0.42-0.78,0.71-1.11c0.29-0.33,0.63-0.62,1.01-0.84
				c0.27-0.16,0.52-0.27,0.77-0.32c0.25-0.06,0.46-0.05,0.65,0.02c0.19,0.07,0.34,0.22,0.45,0.44c0.11,0.22,0.17,0.53,0.17,0.93
				v4.53l-1.27,0.75v-0.93l-0.04,0.02c-0.08,0.26-0.18,0.5-0.31,0.74c-0.13,0.24-0.29,0.45-0.47,0.65
				C249.55,156.27,249.34,156.43,249.1,156.58z M249.48,155.06c0.2-0.12,0.37-0.27,0.52-0.47c0.15-0.2,0.27-0.42,0.35-0.65
				c0.09-0.24,0.13-0.47,0.13-0.71v-0.71c-0.04,0.06-0.1,0.13-0.17,0.2c-0.07,0.07-0.15,0.15-0.24,0.23
				c-0.09,0.08-0.18,0.15-0.27,0.23c-0.09,0.07-0.17,0.14-0.24,0.2c-0.16,0.12-0.29,0.26-0.41,0.4c-0.12,0.14-0.21,0.29-0.27,0.44
				c-0.06,0.16-0.1,0.32-0.1,0.5c0,0.25,0.07,0.41,0.2,0.46C249.11,155.22,249.28,155.19,249.48,155.06z"/>
			<path class="st0" d="M254.18,144.49v8.95l-1.33,0.79v-8.95L254.18,144.49z"/>
		</g>
	</g>
</g>
<g>
	<polygon class="st3" points="132.63,74 22.49,136.92 22.49,195.82 132.63,132.9 	"/>
	<polygon class="st2" points="8.05,128.76 22.49,136.56 22.49,195.82 8.05,188.02 	"/>
	<polygon class="st4" points="132.63,74 117.12,65.8 8.05,128.76 22.49,136.56 	"/>
</g>
<circle class="st6" cx="213.14" cy="111.19" r="28.4"/>
<circle class="st6" cx="213.14" cy="111.19" r="11.86"/>
<polygon class="st7" points="259.82,27.52 258.47,26.76 266.31,22.14 267.66,22.9 "/>
<polygon class="st7" points="139.38,24.63 137.2,23.4 149.87,15.92 152.05,17.15 "/>
<g>
	<path class="st0" d="M32.04,158.1v-20.16l5.39-3.21c0.93-0.55,1.74-0.74,2.43-0.56c0.7,0.18,1.24,0.69,1.62,1.52
		c0.39,0.84,0.58,1.97,0.58,3.4c0,1.44-0.2,2.81-0.59,4.11c-0.4,1.29-0.95,2.44-1.67,3.43c-0.71,0.99-1.55,1.78-2.5,2.34l-3.22,1.92
		v-4.25l2.54-1.51c0.4-0.24,0.74-0.55,1.02-0.95c0.28-0.39,0.5-0.85,0.65-1.36c0.15-0.51,0.23-1.05,0.23-1.62
		c0-0.58-0.08-1.02-0.23-1.34c-0.15-0.32-0.37-0.5-0.65-0.56c-0.28-0.05-0.62,0.04-1.02,0.28l-1.2,0.71v15.79L32.04,158.1z"/>
	<path class="st0" d="M43.32,151.38v-20.16l5.39-3.21c0.93-0.55,1.74-0.76,2.43-0.63s1.24,0.59,1.62,1.38
		c0.39,0.79,0.58,1.91,0.58,3.34c0,1.44-0.2,2.78-0.6,4.01c-0.4,1.23-0.95,2.3-1.67,3.23c-0.71,0.93-1.55,1.68-2.5,2.25l-3.22,1.92
		v-4.25l2.54-1.51c0.4-0.24,0.74-0.52,1.02-0.85c0.28-0.33,0.5-0.71,0.65-1.16s0.23-0.95,0.23-1.52c0-0.58-0.08-1-0.23-1.28
		s-0.37-0.41-0.65-0.42c-0.28,0-0.62,0.11-1.02,0.35l-1.2,0.71v15.79L43.32,151.38z M50.64,137.77l3.12,7.39l-3.69,2.2l-3.05-7.44
		L50.64,137.77z"/>
	<path class="st0" d="M66.89,127.26c0,2.24-0.27,4.29-0.81,6.16s-1.27,3.46-2.19,4.8c-0.92,1.34-1.94,2.34-3.08,3.02
		c-1.14,0.68-2.17,0.89-3.08,0.64c-0.92-0.25-1.65-0.98-2.18-2.2c-0.54-1.22-0.81-2.94-0.81-5.17c0-2.24,0.27-4.29,0.81-6.15
		c0.54-1.86,1.27-3.46,2.18-4.79c0.92-1.34,1.95-2.34,3.08-3.02c1.13-0.67,2.16-0.89,3.08-0.65c0.92,0.24,1.65,0.97,2.19,2.19
		S66.89,125.02,66.89,127.26z M63.4,129.34c0-1.21-0.1-2.17-0.3-2.88s-0.49-1.17-0.87-1.37c-0.38-0.2-0.86-0.13-1.42,0.2
		c-0.56,0.33-1.03,0.83-1.42,1.49c-0.38,0.66-0.68,1.46-0.87,2.41c-0.2,0.95-0.29,2.03-0.29,3.23s0.1,2.17,0.29,2.88
		c0.2,0.71,0.49,1.17,0.87,1.37c0.38,0.2,0.86,0.13,1.42-0.2c0.56-0.33,1.03-0.83,1.42-1.49c0.38-0.66,0.67-1.46,0.87-2.41
		S63.4,130.55,63.4,129.34z"/>
	<path class="st0" d="M68.45,136.41v-20.16l5.39-3.21c0.93-0.55,1.74-0.74,2.43-0.56c0.7,0.18,1.24,0.69,1.62,1.52
		c0.39,0.84,0.58,1.97,0.58,3.4c0,1.44-0.2,2.81-0.59,4.11s-0.95,2.44-1.67,3.43c-0.71,1-1.55,1.78-2.5,2.34l-3.22,1.92v-4.25
		l2.54-1.51c0.4-0.24,0.74-0.55,1.02-0.95c0.28-0.39,0.5-0.85,0.65-1.36c0.15-0.51,0.23-1.05,0.23-1.62c0-0.58-0.08-1.03-0.23-1.34
		c-0.15-0.32-0.37-0.5-0.65-0.56c-0.28-0.05-0.62,0.04-1.02,0.28l-1.2,0.71v15.79L68.45,136.41z"/>
	<path class="st0" d="M91.83,112.41c0,2.24-0.27,4.29-0.81,6.16c-0.54,1.86-1.27,3.46-2.19,4.8c-0.92,1.34-1.94,2.34-3.07,3.02
		c-1.14,0.68-2.17,0.89-3.08,0.64c-0.92-0.25-1.65-0.98-2.18-2.2c-0.54-1.22-0.81-2.94-0.81-5.17c0-2.24,0.27-4.29,0.81-6.16
		c0.54-1.86,1.27-3.46,2.18-4.79c0.92-1.34,1.95-2.34,3.08-3.02c1.13-0.67,2.15-0.89,3.07-0.65c0.92,0.24,1.65,0.97,2.19,2.19
		C91.56,108.44,91.83,110.17,91.83,112.41z M88.34,114.49c0-1.21-0.1-2.17-0.3-2.88c-0.2-0.71-0.49-1.17-0.87-1.37
		c-0.38-0.2-0.86-0.13-1.42,0.2c-0.56,0.33-1.04,0.83-1.42,1.49c-0.38,0.66-0.67,1.46-0.87,2.41c-0.2,0.95-0.3,2.03-0.3,3.23
		s0.1,2.17,0.3,2.88c0.2,0.71,0.49,1.17,0.87,1.37c0.38,0.2,0.86,0.13,1.42-0.2c0.56-0.33,1.03-0.83,1.42-1.49
		c0.38-0.66,0.67-1.46,0.87-2.41C88.24,116.77,88.34,115.69,88.34,114.49z"/>
	<path class="st0" d="M100.13,103.69c-0.03-0.64-0.18-1.06-0.45-1.27c-0.27-0.21-0.68-0.14-1.23,0.18
		c-0.35,0.21-0.64,0.45-0.86,0.71c-0.22,0.27-0.38,0.54-0.49,0.84c-0.11,0.29-0.16,0.59-0.17,0.89c-0.01,0.25,0.02,0.45,0.08,0.61
		c0.06,0.16,0.16,0.27,0.3,0.34c0.14,0.07,0.32,0.1,0.53,0.1c0.21,0,0.47-0.04,0.77-0.12l1.03-0.25c0.69-0.18,1.28-0.22,1.78-0.12
		c0.49,0.1,0.89,0.31,1.21,0.64c0.31,0.34,0.54,0.78,0.69,1.35c0.15,0.56,0.22,1.22,0.23,1.99c0,1.33-0.21,2.57-0.62,3.73
		c-0.41,1.16-0.99,2.21-1.74,3.13s-1.66,1.71-2.72,2.34c-1.09,0.65-2.03,0.95-2.84,0.91c-0.81-0.04-1.43-0.46-1.88-1.28
		c-0.45-0.81-0.67-2.06-0.67-3.75l3.22-1.92c0.02,0.61,0.12,1.07,0.29,1.38c0.17,0.32,0.41,0.49,0.72,0.52
		c0.31,0.03,0.68-0.08,1.11-0.34c0.36-0.22,0.67-0.47,0.91-0.76c0.24-0.29,0.43-0.6,0.56-0.93c0.13-0.33,0.19-0.66,0.19-0.99
		c0-0.31-0.07-0.54-0.19-0.7c-0.12-0.16-0.32-0.26-0.59-0.28s-0.64,0.02-1.1,0.13l-1.24,0.31c-1.11,0.27-1.98,0.14-2.61-0.39
		c-0.64-0.53-0.95-1.58-0.95-3.16c0-1.28,0.21-2.53,0.64-3.74c0.43-1.21,1.03-2.32,1.79-3.31c0.76-0.99,1.64-1.78,2.63-2.37
		c1.01-0.6,1.88-0.85,2.62-0.74c0.74,0.11,1.3,0.53,1.71,1.28c0.4,0.75,0.6,1.78,0.61,3.1L100.13,103.69z"/>
	<path class="st0" d="M107.59,113.1l-3.66,2.18l4.12-22.61l4.64-2.76l4.12,17.7l-3.66,2.18l-2.73-12.98l-0.1,0.06L107.59,113.1z
		 M106.91,105.55l6.88-4.1v4.1l-6.88,4.1V105.55z"/>
	<path class="st0" d="M118.02,106.89V86.74l3.39-2.02v15.75l5.05-3.01v4.41L118.02,106.89z"/>
	<path class="st0" d="M32.36,184.9v-20.16l9-5.36v4.41l-5.61,3.34v3.46l5.15-3.07v4.41l-5.15,3.07v3.46l5.59-3.33v4.41L32.36,184.9z
		"/>
	<path class="st0" d="M46.68,156.22l2.05,4.64l0.1-0.06l2.07-7.1l3.78-2.25l-3.73,12.3l3.88,7.77l-3.88,2.31l-2.12-4.72l-0.1,0.06
		l-2.12,7.25l-3.86,2.3l3.83-12.36l-3.71-7.87L46.68,156.22z"/>
	<path class="st0" d="M56.15,170.73v-20.16l9-5.36v4.41l-5.61,3.34v3.46l5.15-3.07v4.41l-5.15,3.07v3.46l5.59-3.33v4.41
		L56.15,170.73z"/>
	<path class="st0" d="M78.51,144.82l-3.44,2.05c-0.02-0.45-0.09-0.82-0.19-1.14s-0.25-0.55-0.43-0.71c-0.18-0.16-0.4-0.24-0.66-0.24
		c-0.26,0-0.55,0.1-0.87,0.3c-0.57,0.34-1.05,0.85-1.44,1.53s-0.69,1.5-0.89,2.45c-0.2,0.96-0.3,2.01-0.3,3.18
		c0,1.23,0.1,2.21,0.31,2.91c0.21,0.71,0.5,1.15,0.89,1.34c0.39,0.19,0.86,0.11,1.41-0.21c0.31-0.19,0.59-0.42,0.84-0.69
		c0.25-0.28,0.46-0.59,0.65-0.94s0.33-0.73,0.45-1.15c0.12-0.41,0.19-0.85,0.24-1.3l3.44-2.01c-0.04,0.88-0.19,1.83-0.45,2.87
		c-0.26,1.04-0.62,2.06-1.09,3.09s-1.05,1.97-1.74,2.83s-1.5,1.57-2.41,2.11c-1.15,0.68-2.17,0.9-3.08,0.65
		c-0.91-0.25-1.63-0.99-2.15-2.22s-0.79-2.96-0.79-5.19c0-2.24,0.27-4.29,0.8-6.15c0.54-1.86,1.26-3.46,2.17-4.79
		c0.91-1.33,1.93-2.33,3.05-3c0.79-0.47,1.51-0.73,2.18-0.78c0.66-0.05,1.24,0.11,1.74,0.48c0.5,0.37,0.9,0.95,1.21,1.74
		C78.26,142.61,78.44,143.61,78.51,144.82z"/>
	<path class="st0" d="M87.44,131.94l3.39-2.02v12.91c0,1.54-0.23,3-0.68,4.39c-0.46,1.39-1.09,2.63-1.89,3.72
		c-0.81,1.09-1.75,1.95-2.82,2.59c-1.08,0.64-2.02,0.9-2.83,0.78c-0.81-0.13-1.44-0.62-1.89-1.46c-0.45-0.85-0.67-2.04-0.67-3.58
		v-12.91l3.39-2.02v12.44c0,0.62,0.08,1.13,0.26,1.52c0.17,0.39,0.41,0.63,0.71,0.72s0.65,0.03,1.04-0.2
		c0.39-0.23,0.74-0.57,1.04-1.03c0.3-0.46,0.54-0.98,0.71-1.57c0.17-0.59,0.26-1.2,0.26-1.82V131.94z"/>
	<path class="st0" d="M92.1,133.58v-4.41l10.86-6.47v4.41l-3.76,2.24v15.75l-3.34,1.99v-15.75L92.1,133.58z"/>
	<path class="st0" d="M104.23,142.1v-20.16l9-5.36v4.41l-5.61,3.34v3.46l5.15-3.07v4.41l-5.15,3.07v3.46l5.59-3.33v4.41
		L104.23,142.1z"/>
	<path class="st0" d="M119.72,132.87l-4.81,2.86v-20.16l4.76-2.83c1.29-0.76,2.4-1.02,3.33-0.78c0.94,0.25,1.66,0.97,2.17,2.17
		c0.51,1.2,0.77,2.85,0.77,4.95s-0.25,4.05-0.76,5.86c-0.51,1.81-1.23,3.39-2.16,4.75C122.09,131.06,120.99,132.12,119.72,132.87z
		 M118.31,129.07l1.29-0.77c0.62-0.37,1.15-0.85,1.58-1.43c0.44-0.58,0.77-1.34,1-2.26c0.23-0.92,0.34-2.09,0.34-3.49
		s-0.12-2.43-0.35-3.08c-0.23-0.65-0.58-1-1.02-1.05c-0.45-0.05-1,0.11-1.65,0.5l-1.2,0.71V129.07z"/>
</g>
<g>
	<path id="矩形_00000165232100200323309430000000775072771935686790_" class="st14" d="M172.16,217.11L172.16,217.11
		c0.62,0,1.15,0.76,1.15,1.64v1.52c0,0.88-0.53,1.64-1.15,1.64l0,0c-0.62,0-1.15-0.76-1.15-1.64v-1.52
		C171.02,217.8,171.55,217.11,172.16,217.11z"/>
	
		<radialGradient id="SVGID_1_" cx="140.6214" cy="251.2355" r="29.1582" gradientTransform="matrix(1 0 0 0.5898 0 103.0585)" gradientUnits="userSpaceOnUse">
		<stop  offset="0" style="stop-color:#B8B3D4"/>
		<stop  offset="0.3457" style="stop-color:#BAB6D6;stop-opacity:0.6543"/>
		<stop  offset="0.6064" style="stop-color:#C2C0DA;stop-opacity:0.3936"/>
		<stop  offset="0.8384" style="stop-color:#D0D0E3;stop-opacity:0.1616"/>
		<stop  offset="1" style="stop-color:#DDE0EB;stop-opacity:0"/>
	</radialGradient>
	<path style="opacity:0.67;fill:url(#SVGID_1_);" d="M165.62,237.16c-13.68-7.9-35.96-8-49.77-0.23s-13.91,20.48-0.23,28.37
		s35.96,8,49.77,0.23C179.19,257.76,179.3,245.06,165.62,237.16z"/>
	<g>
		<path class="st81" d="M179.12,201.13v-49.28c0-0.23,0.02-0.45,0.02-0.68c0-22.91-18.57-41.48-41.48-41.48
			c-22.91,0-41.48,18.57-41.48,41.48c0,0.36,0.02,0.72,0.03,1.07v44.66h-0.03v22.67c0,2.84,2.3,5.15,5.15,5.15
			c2.84,0,5.15-2.31,5.15-5.15v-0.83c0.56,0.36,1.13,0.72,1.74,1.07c1.83,1.06,3.79,1.99,5.85,2.81v8.2c0,2.84,2.3,5.15,5.15,5.15
			c2.84,0,5.15-2.31,5.15-5.15v-5.23c2.95,0.57,5.99,0.96,9.06,1.14v12.59c0,2.84,2.3,5.15,5.15,5.15s5.15-2.31,5.15-5.15v-12.7
			c3.39-0.28,6.73-0.8,9.93-1.55v6.36c0,2.84,2.3,5.15,5.15,5.15s5.15-2.31,5.15-5.15v-9.87c1-0.47,1.97-0.96,2.91-1.49
			c0.7-0.39,1.35-0.8,1.99-1.21v0.71c0,2.84,2.3,5.15,5.15,5.15c2.84,0,5.15-2.31,5.15-5.15v-18.45H179.12z"/>
		
			<radialGradient id="SVGID_00000106866612336852605830000002871685289021365642_" cx="162.3441" cy="127.1149" r="106.6854" gradientUnits="userSpaceOnUse">
			<stop  offset="0.0124" style="stop-color:#DD78CE"/>
			<stop  offset="0.4936" style="stop-color:#A7589A"/>
			<stop  offset="0.5829" style="stop-color:#A0619E"/>
			<stop  offset="0.7273" style="stop-color:#8E79A8"/>
			<stop  offset="0.9078" style="stop-color:#709FB9"/>
			<stop  offset="1" style="stop-color:#5EB6C3"/>
		</radialGradient>
		<path style="fill:url(#SVGID_00000106866612336852605830000002871685289021365642_);" d="M179.12,201.13v-49.28
			c0-0.23,0.02-0.45,0.02-0.68c0-22.91-18.57-41.48-41.48-41.48c-22.91,0-41.48,18.57-41.48,41.48c0,0.36,0.02,0.72,0.03,1.07v44.66
			h-0.03v22.67c0,2.84,2.3,5.15,5.15,5.15c2.84,0,5.15-2.31,5.15-5.15v-0.83c0.56,0.36,1.13,0.72,1.74,1.07
			c1.83,1.06,3.79,1.99,5.85,2.81v8.2c0,2.84,2.3,5.15,5.15,5.15c2.84,0,5.15-2.31,5.15-5.15v-5.23c2.95,0.57,5.99,0.96,9.06,1.14
			v12.59c0,2.84,2.3,5.15,5.15,5.15s5.15-2.31,5.15-5.15v-12.7c3.39-0.28,6.73-0.8,9.93-1.55v6.36c0,2.84,2.3,5.15,5.15,5.15
			s5.15-2.31,5.15-5.15v-9.87c1-0.47,1.97-0.96,2.91-1.49c0.7-0.39,1.35-0.8,1.99-1.21v0.71c0,2.84,2.3,5.15,5.15,5.15
			c2.84,0,5.15-2.31,5.15-5.15v-18.45H179.12z"/>
	</g>
	<path id="矩形_00000065757932598662302410000011775430742638441392_" class="st14" d="M100.07,187.29L100.07,187.29
		c1.12,0,2.09,1.38,2.09,2.99v14.25c0,1.61-0.96,2.99-2.09,2.99l0,0c-1.12,0-2.09-1.38-2.09-2.99v-14.25
		C97.99,188.67,98.95,187.29,100.07,187.29z"/>
	<path id="矩形_00000007424107714670725480000002418638479004172165_" class="st14" d="M161.37,124.2L161.37,124.2
		c1.37-1.02,3.68-0.37,5.02,1.41l2.29,3.06c1.34,1.78,1.31,4.19-0.06,5.22l0,0c-1.37,1.02-3.68,0.37-5.02-1.41l-2.29-3.06
		C159.88,127.5,160.01,125.23,161.37,124.2z"/>
	<path id="矩形_00000181801681440210888730000008699229493696003494_" class="st14" d="M117.47,223.88L117.47,223.88
		c1.12,0,2.09,1.38,2.09,2.99v2.76c0,1.61-0.96,2.99-2.09,2.99l0,0c-1.12,0-2.09-1.38-2.09-2.99v-2.76
		C115.38,225.14,116.35,223.88,117.47,223.88z"/>
	<path id="矩形_00000177462588684165861770000000961233519690568104_" class="st14" d="M99.82,213.08L99.82,213.08
		c1.12,0,2.09,1.38,2.09,2.99v2.76c0,1.61-0.96,2.99-2.09,2.99l0,0c-1.12,0-2.09-1.38-2.09-2.99v-2.76
		C97.74,214.34,98.7,213.08,99.82,213.08z"/>
	<path id="矩形_00000089534902643478688490000010762918496049191046_" class="st14" d="M137.66,232.62L137.66,232.62
		c1.12,0,2.09,1.38,2.09,2.99v2.76c0,1.61-0.96,2.99-2.09,2.99l0,0c-1.12,0-2.09-1.38-2.09-2.99v-2.76
		C135.57,233.88,136.54,232.62,137.66,232.62z"/>
	<path id="矩形_00000174565284965162249560000017810970876452956325_" class="st14" d="M157.36,227.27L157.36,227.27
		c0.89,0,1.66,1.1,1.66,2.37v2.19c0,1.28-0.76,2.37-1.66,2.37l0,0c-0.89,0-1.66-1.1-1.66-2.37v-2.19
		C155.7,228.28,156.47,227.27,157.36,227.27z"/>
	<g>
		<path id="椭圆形_00000174579992699727052130000016119239500602837694_" class="st83" d="M147.67,182.16
			c4.06-0.17,7.1-3.66,7.09-6c0-0.94-0.55-1.75-1.38-1.81c-1.29-0.13-3.23,0.7-5.72,0.8c-2.31,0.1-3.78-0.5-5.53-0.42
			c-1.84,0.08-1.75,2.22-1.47,3.06C141.3,180.09,143.52,182.33,147.67,182.16z"/>
		<path id="椭圆形_00000140697556867139245850000001712274068755180697_" class="st84" d="M147.76,180.19
			c4.15-0.17,7.19-3.38,7.19-5.63c0-0.84-0.55-1.57-1.38-1.63c-1.29-0.13-3.32,0.7-5.81,0.8c-2.4,0.1-3.78-0.5-5.62-0.43
			s-1.75,2.13-1.48,2.87C141.3,178.3,143.61,180.36,147.76,180.19z"/>
	</g>
	<g>
		
			<ellipse transform="matrix(0.5671 -0.8237 0.8237 0.5671 -74.1156 176.3792)" class="st84" cx="130.72" cy="158.69" rx="9.5" ry="9.1"/>
		<path id="形状结合_00000173138657503240237830000009925187417073637052_" class="st85" d="M131.92,148.73
			c4.24-0.18,7.66,3.98,7.66,9.22c0,0.19,0,0.37,0,0.56l0,0.56c0-5.33-3.33-9.59-7.48-9.42c-4.15,0.17-7.46,4.61-7.46,10.04
			c0,1.03,0.09,2.05,0.37,2.98c-0.46-1.2-0.74-2.59-0.74-3.99C124.27,153.35,127.68,148.9,131.92,148.73z"/>
		<path id="形状结合_00000155144169974918831560000002517709321053756825_" class="st86" d="M131.92,147.6
			c4.7-0.2,8.58,4.41,8.58,10.31c0.01,5.89-3.86,10.83-8.57,11.02c-4.7,0.2-8.58-4.41-8.58-10.31
			C123.35,152.73,127.12,147.8,131.92,147.6z M131.92,148.73c-4.24,0.18-7.65,4.62-7.64,9.86c0,5.24,3.42,9.4,7.66,9.22
			c4.24-0.18,7.65-4.62,7.64-9.86C139.58,152.71,136.07,148.55,131.92,148.73z"/>
	</g>
	<g>
		
			<ellipse transform="matrix(0.5671 -0.8237 0.8237 0.5671 -59.6804 201.0825)" class="st84" cx="161.44" cy="157.31" rx="9.5" ry="9.1"/>
		<path id="形状结合_00000017479858995676195450000005515037118025934013_" class="st85" d="M162.43,147.35
			c4.24-0.18,7.66,3.98,7.66,9.22c0,0.19,0,0.37,0,0.56l0,0.56c0-5.33-3.33-9.59-7.48-9.42c-4.15,0.17-7.46,4.61-7.46,10.04
			c0,1.03,0.09,2.05,0.37,2.98c-0.46-1.2-0.74-2.59-0.74-3.99C154.78,151.98,158.19,147.53,162.43,147.35z"/>
		<path id="形状结合_00000016040986866193347410000018275466435789978547_" class="st86" d="M162.43,146.23
			c4.7-0.2,8.58,4.41,8.58,10.31s-3.86,10.83-8.57,11.02s-8.58-4.41-8.58-10.31C153.86,151.36,157.64,146.43,162.43,146.23z
			 M162.43,147.35c-4.24,0.18-7.65,4.62-7.64,9.86s3.42,9.4,7.66,9.22c4.24-0.18,7.65-4.62,7.64-9.86
			C170.09,151.34,166.58,147.18,162.43,147.35z"/>
	</g>
	<circle class="st83" cx="128.04" cy="156.26" r="3.77"/>
	<circle class="st83" cx="158.59" cy="155.13" r="3.77"/>
</g>
</svg>
