<?xml version="1.0" encoding="utf-8"?>
<!-- Generator: Adobe Illustrator 27.8.1, SVG Export Plug-In . SVG Version: 6.00 Build 0)  -->
<svg version="1.1" id="Слой_1" xmlns="http://www.w3.org/2000/svg" xmlns:xlink="http://www.w3.org/1999/xlink" x="0px" y="0px"
	 viewBox="0 0 290 269.62" style="enable-background:new 0 0 290 269.62;" xml:space="preserve">
<style type="text/css">
	.st0{stroke:#000000;stroke-linecap:round;stroke-linejoin:round;stroke-miterlimit:10;}
	.st1{fill:#222846;stroke:#000000;stroke-linecap:round;stroke-linejoin:round;stroke-miterlimit:10;}
	.st2{fill-rule:evenodd;clip-rule:evenodd;stroke:#000000;stroke-linecap:round;stroke-linejoin:round;stroke-miterlimit:10;}
	
		.st3{fill-rule:evenodd;clip-rule:evenodd;fill:#222846;stroke:#000000;stroke-linecap:round;stroke-linejoin:round;stroke-miterlimit:10;}
	
		.st4{fill-rule:evenodd;clip-rule:evenodd;fill:#4A5479;stroke:#000000;stroke-linecap:round;stroke-linejoin:round;stroke-miterlimit:10;}
	.st5{fill-rule:evenodd;clip-rule:evenodd;fill:#5C6A91;}
	.st6{fill:#6D75A2;}
	.st7{stroke:#1A213A;stroke-linecap:round;stroke-linejoin:round;stroke-miterlimit:10;}
	.st8{stroke:#4A5479;stroke-linecap:round;stroke-linejoin:round;stroke-miterlimit:10;}
	.st9{fill:url(#SVGID_1_);}
	.st10{fill:url(#SVGID_00000002354468096517067210000018354154202833927829_);}
	.st11{fill:url(#SVGID_00000092441137320292544950000013123677499284445627_);}
	
		.st12{fill:none;stroke:url(#SVGID_00000051369592490847930100000016185448357120381328_);stroke-width:5;stroke-linecap:round;stroke-linejoin:round;stroke-miterlimit:10;}
	.st13{fill:url(#SVGID_00000078747167168487998410000011059974426159112840_);}
	.st14{fill-rule:evenodd;clip-rule:evenodd;fill:#1AD4B3;}
	.st15{fill-rule:evenodd;clip-rule:evenodd;fill:#FC4F83;}
	.st16{fill:#4A5479;stroke:#000000;stroke-linecap:round;stroke-linejoin:round;stroke-miterlimit:10;}
	
		.st17{fill:url(#SVGID_00000127759582579347340410000013031431312499250366_);stroke:#1D1D1B;stroke-width:0.2115;stroke-linecap:round;stroke-linejoin:round;stroke-miterlimit:10;}
	.st18{fill-rule:evenodd;clip-rule:evenodd;}
	
		.st19{fill:url(#SVGID_00000152265921905793576510000000954742026429424297_);stroke:#1D1D1B;stroke-width:0.2115;stroke-linecap:round;stroke-linejoin:round;stroke-miterlimit:10;}
	
		.st20{fill:url(#SVGID_00000164492892636691902080000000212008987865528227_);stroke:#1D1D1B;stroke-width:0.2115;stroke-linecap:round;stroke-linejoin:round;stroke-miterlimit:10;}
	
		.st21{fill:url(#SVGID_00000011001795410258455210000009832184337430382002_);stroke:#1D1D1B;stroke-width:0.2115;stroke-linecap:round;stroke-linejoin:round;stroke-miterlimit:10;}
	.st22{fill-rule:evenodd;clip-rule:evenodd;fill:url(#SVGID_00000171692295928570289970000014166367856264084151_);}
	.st23{fill-rule:evenodd;clip-rule:evenodd;fill:url(#SVGID_00000078005101445102464490000011592668005210076335_);}
	.st24{fill:url(#SVGID_00000064343392221701820400000007618650434885544333_);}
	.st25{fill:url(#SVGID_00000138542813872892640040000009769048186256776087_);}
	.st26{fill:url(#SVGID_00000126324501942374632400000017481786209756725909_);}
	
		.st27{fill-rule:evenodd;clip-rule:evenodd;fill:#4AA089;stroke:url(#SVGID_00000167372546314423475530000000296700340019564730_);stroke-linecap:round;stroke-linejoin:round;stroke-miterlimit:10;}
	
		.st28{fill-rule:evenodd;clip-rule:evenodd;fill:#4AA089;stroke:url(#SVGID_00000000197667373516423080000010588008804910251139_);stroke-linecap:round;stroke-linejoin:round;stroke-miterlimit:10;}
	
		.st29{fill:none;stroke:url(#SVGID_00000121960603312567393260000013448020179769627825_);stroke-width:5;stroke-linecap:round;stroke-linejoin:round;stroke-miterlimit:10;}
	.st30{fill:url(#SVGID_00000183213240135707239960000007666799796727509137_);}
	
		.st31{fill:none;stroke:url(#SVGID_00000056412536729797212990000012197357119814737331_);stroke-width:5;stroke-linecap:round;stroke-linejoin:round;stroke-miterlimit:10;}
	.st32{fill:url(#SVGID_00000182508334076588779820000005581838792988906680_);}
	
		.st33{fill:none;stroke:url(#SVGID_00000031899441581477675650000007871768449282060211_);stroke-width:5;stroke-linecap:round;stroke-linejoin:round;stroke-miterlimit:10;}
	.st34{fill:url(#SVGID_00000124880005771175537910000013849629170353623458_);}
	.st35{fill:#4A5479;}
	
		.st36{fill-rule:evenodd;clip-rule:evenodd;fill:#1AD4B3;stroke:#111422;stroke-linecap:round;stroke-linejoin:round;stroke-miterlimit:10;}
	
		.st37{fill-rule:evenodd;clip-rule:evenodd;fill:#4AA089;stroke:url(#SVGID_00000124866355691158138980000004189331175552660362_);stroke-linecap:round;stroke-linejoin:round;stroke-miterlimit:10;}
	.st38{fill:#FFFFFF;}
	
		.st39{fill-rule:evenodd;clip-rule:evenodd;fill:#FC4F83;stroke:#111422;stroke-linecap:round;stroke-linejoin:round;stroke-miterlimit:10;}
	
		.st40{fill-rule:evenodd;clip-rule:evenodd;fill:#CB3D61;stroke:#000000;stroke-linecap:round;stroke-linejoin:round;stroke-miterlimit:10;}
	.st41{fill:url(#SVGID_00000111879254573112602820000014446432127452064684_);}
	.st42{fill:url(#SVGID_00000001632319596644762470000011898501495782845595_);}
	.st43{fill:url(#SVGID_00000088097255317471968460000008908771318114914184_);}
	
		.st44{fill:none;stroke:url(#SVGID_00000033330766103198179290000006576511950806155149_);stroke-width:5;stroke-linecap:round;stroke-linejoin:round;stroke-miterlimit:10;}
	.st45{fill:url(#SVGID_00000087394032294501076940000004745498770795585948_);}
	
		.st46{fill:none;stroke:url(#SVGID_00000080165542455883701320000011377965180924465817_);stroke-width:5;stroke-linecap:round;stroke-linejoin:round;stroke-miterlimit:10;}
	.st47{fill:url(#SVGID_00000088095840351406126510000014443295784701264025_);}
	.st48{fill:url(#SVGID_00000009565545089441172380000000957137893131357099_);}
	.st49{fill:#222846;}
	.st50{fill:url(#SVGID_00000174578028905485250830000015414494068071249817_);}
	.st51{fill:url(#SVGID_00000065789208015853119660000004831233003086122934_);}
	.st52{fill:url(#SVGID_00000101091922154468621780000011746185201436797119_);}
	.st53{fill:url(#SVGID_00000011717016448970530650000002232069411543189663_);}
	.st54{fill:url(#SVGID_00000121262121166922009680000009308323651454294698_);}
	.st55{fill:url(#SVGID_00000159460929818337455890000014724904067909095042_);}
	.st56{fill-rule:evenodd;clip-rule:evenodd;fill:#6D75A2;}
	.st57{fill-rule:evenodd;clip-rule:evenodd;fill:#4A5479;}
	.st58{opacity:0.29;fill:url(#SVGID_00000135659924765564882420000001570788412019296134_);enable-background:new    ;}
	.st59{fill:url(#SVGID_00000070814036289647151320000018099660824853140149_);}
	.st60{fill:url(#SVGID_00000065061059581622826620000009963591670759690885_);}
	.st61{fill:url(#SVGID_00000027566059432994597280000015366372458114811313_);}
	.st62{fill-rule:evenodd;clip-rule:evenodd;fill:url(#SVGID_00000086693448487411078900000011522981239969042095_);}
	.st63{fill:url(#SVGID_00000022519538461695320360000008633304973476012966_);}
	.st64{fill:url(#SVGID_00000029763208243163080060000002818162148176184491_);}
	.st65{fill:url(#SVGID_00000040545899675820434090000010918291094487444107_);}
	.st66{fill:url(#SVGID_00000062886808954360776950000002966774598828544690_);}
	.st67{opacity:0.29;fill:url(#SVGID_00000019646428708156870820000009557220234876062387_);enable-background:new    ;}
	.st68{fill-rule:evenodd;clip-rule:evenodd;fill:#222846;}
	
		.st69{fill:none;stroke:url(#SVGID_00000085948991832888787180000005596271620584179632_);stroke-width:5;stroke-linecap:round;stroke-linejoin:round;stroke-miterlimit:10;}
	.st70{fill:url(#SVGID_00000168111843621497148660000009792830328399911819_);}
	
		.st71{fill:none;stroke:url(#SVGID_00000014608253633412738940000008995491318680758159_);stroke-width:5;stroke-linecap:round;stroke-linejoin:round;stroke-miterlimit:10;}
	.st72{fill:url(#SVGID_00000181087713004062078780000009030213847320402870_);}
	
		.st73{fill:none;stroke:url(#SVGID_00000000912741106853318290000002086047225767629993_);stroke-width:5;stroke-linecap:round;stroke-linejoin:round;stroke-miterlimit:10;}
	.st74{fill:url(#SVGID_00000167372108742862972200000013312483125026999723_);}
	
		.st75{fill-rule:evenodd;clip-rule:evenodd;fill:#4AA089;stroke:url(#SVGID_00000158738503958450642090000011017661511523417746_);stroke-linecap:round;stroke-linejoin:round;stroke-miterlimit:10;}
	.st76{fill-rule:evenodd;clip-rule:evenodd;fill:url(#SVGID_00000167398268269577740040000014826117111697898644_);}
	.st77{fill:url(#SVGID_00000048498250676809195070000000917830242847453059_);}
	.st78{fill:url(#SVGID_00000063607728687152469460000003283360347254228910_);}
	.st79{fill:url(#SVGID_00000034801585605135879570000010748959768016946873_);}
	.st80{opacity:0.29;fill:url(#SVGID_00000004507705642125051850000014499111730055511177_);}
	.st81{opacity:0.29;fill:url(#SVGID_00000002345212492264368910000003482135850838679444_);}
	.st82{opacity:0.2563;fill-rule:evenodd;clip-rule:evenodd;fill:#FFFFFF;enable-background:new    ;}
	.st83{opacity:0.67;fill:url(#SVGID_00000039851918798345729720000007531064708125068452_);}
	.st84{fill:#3FA9BD;}
	.st85{fill:url(#SVGID_00000108273133153917788210000008933738765557704611_);}
	.st86{fill-rule:evenodd;clip-rule:evenodd;fill:#555069;}
	.st87{fill-rule:evenodd;clip-rule:evenodd;fill:#FFFFFF;}
	.st88{fill-rule:evenodd;clip-rule:evenodd;fill:#AFAFB1;}
	.st89{fill-rule:evenodd;clip-rule:evenodd;fill:#D3D3D3;}
	.st90{opacity:0.67;fill:url(#SVGID_00000031189961687551823300000003275187923893005471_);}
	.st91{fill:url(#SVGID_00000158027691773889944910000013702062325319927231_);}
	.st92{opacity:0.67;fill:url(#SVGID_00000119088682563234681360000004942440296847092905_);}
	.st93{fill:url(#SVGID_00000031179117827411142170000015812023606412647325_);}
	.st94{opacity:0.67;fill:url(#SVGID_00000091712775592095453010000017438680776724160175_);}
	.st95{fill:url(#SVGID_00000137108167015991115690000003267842869082831034_);}
	.st96{opacity:0.67;fill:url(#SVGID_00000034781794827968440250000014260353832968320402_);}
	.st97{fill:url(#SVGID_00000140009519648422090020000009541702960280976563_);}
	.st98{opacity:0.67;fill:url(#SVGID_00000145768207119240903210000007523926313192682394_);}
	.st99{fill:url(#SVGID_00000008115719334863806340000012650775828543230383_);}
	.st100{fill:#1AD4B3;}
	.st101{opacity:0.67;fill:url(#SVGID_00000147209663890029577280000012739999988449123718_);}
	.st102{fill:url(#SVGID_00000080891019934978531350000003297205600329911718_);}
	.st103{opacity:0.67;fill:url(#SVGID_00000028283387511474253130000011283124042909169539_);}
	.st104{fill:url(#SVGID_00000068677696601231464970000001197028819398989736_);}
	.st105{opacity:0.67;fill:url(#SVGID_00000041260019123360435590000017629331776625323665_);}
	.st106{fill:url(#SVGID_00000124137607144776734130000006453483105753197491_);}
	.st107{opacity:0.67;fill:url(#SVGID_00000086652935378765872400000006489522705063228863_);}
	.st108{fill:url(#SVGID_00000021839372118349715940000015320455413677785783_);}
	.st109{opacity:0.67;fill:url(#SVGID_00000152946687042205526340000016199389900623402139_);}
	.st110{fill:url(#SVGID_00000144329723726956916690000001903507459306201265_);}
	.st111{opacity:0.67;fill:url(#SVGID_00000114060446422091776270000013251217958947664829_);}
	.st112{fill:url(#SVGID_00000151545783740691859580000000403344820625907366_);}
	
		.st113{fill-rule:evenodd;clip-rule:evenodd;fill:none;stroke:#FFFFFF;stroke-width:0.7384;stroke-linecap:round;stroke-linejoin:round;stroke-miterlimit:10;}
	.st114{opacity:0.67;fill:url(#SVGID_00000141417583987401606240000004755463021295527064_);}
	.st115{fill:url(#SVGID_00000068673430139406402440000016712841118293526441_);}
	.st116{opacity:0.67;fill:url(#SVGID_00000073000326057124971010000008308369641729799834_);}
	.st117{fill:url(#SVGID_00000027563552057414353960000000741856100645891457_);}
	.st118{opacity:0.67;fill:url(#SVGID_00000012448419035524241150000008561793320285143937_);}
	.st119{fill:url(#SVGID_00000164492191431407454360000002751910725349107637_);}
	.st120{opacity:0.67;fill:url(#SVGID_00000140726318213345224740000007418403293445609631_);}
	.st121{fill:url(#SVGID_00000114780499392459275650000008084173892968601532_);}
	.st122{opacity:0.67;fill:url(#SVGID_00000147913081764586175440000011573456158839528845_);}
	.st123{fill:url(#SVGID_00000114037737616013394440000010028379311867601815_);}
	.st124{opacity:0.67;fill:url(#SVGID_00000143594190900981995390000013936411172309120160_);}
	.st125{fill:url(#SVGID_00000063591140131014560240000017915899898404382129_);}
	.st126{opacity:0.67;fill:url(#SVGID_00000116931293566989231660000000795980627643540123_);}
	.st127{fill:url(#SVGID_00000039132817211838964940000015533337044670317488_);}
	.st128{opacity:0.67;fill:url(#SVGID_00000169557554968873131420000016675919089707263642_);}
	.st129{fill:url(#SVGID_00000058591181685807008510000013117521331886690703_);}
	.st130{opacity:0.67;fill:url(#SVGID_00000092449763812670331170000000334274687423243710_);enable-background:new    ;}
	.st131{fill:#5EA6B9;}
	.st132{fill:url(#SVGID_00000045614344038873052980000002349741482470259861_);}
	.st133{fill-rule:evenodd;clip-rule:evenodd;fill:#545067;}
	.st134{fill-rule:evenodd;clip-rule:evenodd;fill:#AEAEB0;}
	.st135{fill-rule:evenodd;clip-rule:evenodd;fill:#D2D2D2;}
	.st136{opacity:0.67;fill:url(#SVGID_00000142158051798144660330000010251818591467772291_);enable-background:new    ;}
	.st137{fill:url(#SVGID_00000006693852555440877590000017546597660499826069_);}
	.st138{fill-rule:evenodd;clip-rule:evenodd;fill:#63D0B3;}
	
		.st139{fill-rule:evenodd;clip-rule:evenodd;fill:none;stroke:#000000;stroke-linecap:round;stroke-linejoin:round;stroke-miterlimit:10;}
	.st140{fill-rule:evenodd;clip-rule:evenodd;fill:#E85C83;}
	
		.st141{fill-rule:evenodd;clip-rule:evenodd;fill:#4AA089;stroke:url(#SVGID_00000013170114157437252320000013613165122290185873_);stroke-linecap:round;stroke-linejoin:round;stroke-miterlimit:10;}
	.st142{fill:#5DC29D;}
	.st143{fill:url(#SVGID_00000036233255305099672110000014730163839043307402_);}
	.st144{fill:url(#SVGID_00000178180702250045267620000010071155891234667915_);}
	.st145{fill:#E85C83;}
	.st146{opacity:0.67;fill:url(#SVGID_00000096049029465143287500000012022865338928361099_);enable-background:new    ;}
	.st147{fill:url(#SVGID_00000155864064261090607990000015370089806499000495_);}
	
		.st148{fill:none;stroke:url(#SVGID_00000038382839285092718320000002151332148733970608_);stroke-width:5;stroke-linecap:round;stroke-linejoin:round;stroke-miterlimit:10;}
	.st149{fill:url(#SVGID_00000108310993920618185490000006431249138938310053_);}
	.st150{opacity:0.67;fill:url(#SVGID_00000132792661413125065190000015749078255610633344_);enable-background:new    ;}
	.st151{fill:url(#SVGID_00000008859823574655512190000014273470503393659061_);}
	.st152{opacity:0.67;fill:url(#SVGID_00000131353948267215693140000003181825046549650052_);}
	.st153{fill:url(#SVGID_00000075875225776899090730000014961511557673129125_);}
	.st154{opacity:0.67;fill:url(#SVGID_00000025419978526337820330000005337016899096170156_);}
	.st155{fill:url(#SVGID_00000049209747496394819810000010777412768170480300_);}
	.st156{opacity:0.67;fill:url(#SVGID_00000179638480283597316880000004496351372649598892_);}
	.st157{fill:url(#SVGID_00000045619969668039006860000012780437372693064625_);}
	.st158{opacity:0.67;fill:url(#SVGID_00000083780138079862973480000008465341516964625077_);}
	.st159{fill:url(#SVGID_00000101084757230152131630000007123167416621065130_);}
	.st160{opacity:0.67;fill:url(#SVGID_00000070078587970556358140000007646289635693654658_);}
	.st161{fill:url(#SVGID_00000118399307499738035610000014419792180704709308_);}
	.st162{fill:none;stroke:#000000;stroke-width:22;stroke-linecap:round;stroke-linejoin:round;stroke-miterlimit:10;}
	.st163{fill:url(#SVGID_00000007386697935230697620000006183659534923285180_);}
	.st164{fill:url(#SVGID_00000131332424819065251640000002647162567973123001_);}
	.st165{fill:none;stroke:url(#SVGID_00000021118340311530727590000009657347794514936720_);stroke-width:5;stroke-miterlimit:10;}
	.st166{fill:url(#SVGID_00000183961659170754013210000006323159352873406598_);}
	.st167{fill:none;}
	.st168{opacity:0.67;fill:url(#SVGID_00000051383513056547043870000003428096210222472627_);}
	.st169{fill:url(#SVGID_00000171706027767839428130000014906649122921637787_);}
	.st170{fill:none;stroke:url(#SVGID_00000096051047540235539750000007406774178392647830_);stroke-width:5;stroke-miterlimit:10;}
	.st171{fill:url(#SVGID_00000082348158411628389730000002167035967478564516_);}
	.st172{opacity:0.67;fill:url(#SVGID_00000171696601602661892880000010302368323130561152_);}
	.st173{fill:url(#SVGID_00000076598021192083477470000012467250949298505651_);}
	.st174{opacity:0.67;fill:url(#SVGID_00000145047841974220258580000012810035322476583811_);}
	.st175{fill:url(#SVGID_00000050642228827218150120000013958875441693451678_);}
	.st176{opacity:0.67;fill:url(#SVGID_00000072270804699958367640000004322597000536299930_);}
	.st177{fill:url(#SVGID_00000040552674764430487620000006856712079771028864_);}
</style>
<g>
	<circle class="st7" cx="144.67" cy="70.24" r="26.03"/>
	<g>
		<g>
			<path class="st1" d="M138.21,43.43l-0.01,10.81c-0.33,1.38,0.28,2.85,1.82,3.91c2.54,1.76,6.66,1.76,9.2,0
				c1.08-0.75,1.7-1.69,1.86-2.67l0.04,0l0-0.45c0-0.04,0-0.09,0-0.13l0.01-11.18L138.21,43.43z"/>
			<path class="st1" d="M138.26,51.16c0,2.45,2.87,4.43,6.41,4.43s6.41-1.98,6.41-4.43"/>
			<path class="st1" d="M138.26,47.77c0,2.45,2.87,4.43,6.41,4.43s6.41-1.98,6.41-4.43"/>
			<path class="st1" d="M138.26,44.21c0,2.45,2.87,4.43,6.41,4.43s6.41-1.98,6.41-4.43"/>
		</g>
		<g>
			<path class="st1" d="M138.21,32.75l-0.01,10.81c-0.33,1.38,0.28,2.85,1.82,3.91c2.54,1.76,6.66,1.76,9.2,0
				c1.08-0.75,1.7-1.69,1.86-2.67l0.04,0l0-0.45c0-0.04,0-0.09,0-0.13l0.01-11.18L138.21,32.75z"/>
			<path class="st1" d="M138.26,40.49c0,2.45,2.87,4.43,6.41,4.43s6.41-1.98,6.41-4.43"/>
			<path class="st1" d="M138.26,37.1c0,2.45,2.87,4.43,6.41,4.43s6.41-1.98,6.41-4.43"/>
			<path class="st1" d="M138.26,33.54c0,2.45,2.87,4.43,6.41,4.43s6.41-1.98,6.41-4.43"/>
		</g>
	</g>
	<g>
		<g>
			<g>
				<polygon class="st2" points="144.27,48.55 126.46,38.27 126.46,20.45 144.27,30.74 				"/>
				<polygon class="st3" points="144.27,48.55 162.09,38.27 162.09,20.45 144.27,30.74 				"/>
				<polygon class="st4" points="144.34,30.79 126.46,20.47 144.21,10.13 162.09,20.45 				"/>
			</g>
			<path id="矩形_00000114036194618410100220000004926397294803837621_" class="st5" d="M138.69,15.45L138.69,15.45
				c0.35,0.2,0.29,0.58-0.12,0.83l-3.7,2.19c-0.42,0.25-1.08,0.29-1.43,0.09l0,0c-0.35-0.2-0.29-0.58,0.12-0.83l3.7-2.19
				C137.68,15.29,138.34,15.25,138.69,15.45z"/>
			<path id="矩形_00000031918947985068467390000015751430776443972512_" class="st5" d="M131.99,19.41L131.99,19.41
				c0.35,0.2,0.29,0.58-0.12,0.83l-0.72,0.42c-0.42,0.25-1.08,0.29-1.43,0.09l0,0c-0.35-0.2-0.29-0.58,0.12-0.83l0.72-0.42
				C131.02,19.24,131.64,19.21,131.99,19.41z"/>
		</g>
	</g>
</g>
<g>
	<circle class="st7" cx="263.33" cy="58.37" r="17.42"/>
	<g>
		<g>
			<path class="st1" d="M259,40.43l0,7.23c-0.22,0.92,0.19,1.91,1.22,2.62c1.7,1.18,4.46,1.18,6.16,0c0.72-0.5,1.14-1.13,1.25-1.79
				l0.03,0l0-0.3c0-0.03,0-0.06,0-0.09l0-7.49L259,40.43z"/>
			<path class="st1" d="M259.04,45.6c0,1.64,1.92,2.97,4.29,2.97c2.37,0,4.29-1.33,4.29-2.97"/>
			<path class="st1" d="M259.04,43.33c0,1.64,1.92,2.97,4.29,2.97c2.37,0,4.29-1.33,4.29-2.97"/>
			<path class="st1" d="M259.04,40.95c0,1.64,1.92,2.97,4.29,2.97c2.37,0,4.29-1.33,4.29-2.97"/>
		</g>
		<g>
			<path class="st1" d="M259,33.28l0,7.23c-0.22,0.92,0.19,1.91,1.22,2.62c1.7,1.18,4.46,1.18,6.16,0c0.72-0.5,1.14-1.13,1.25-1.79
				l0.03,0l0-0.3c0-0.03,0-0.06,0-0.09l0-7.49L259,33.28z"/>
			<path class="st1" d="M259.04,38.46c0,1.64,1.92,2.97,4.29,2.97c2.37,0,4.29-1.33,4.29-2.97"/>
			<path class="st1" d="M259.04,36.19c0,1.64,1.92,2.97,4.29,2.97c2.37,0,4.29-1.33,4.29-2.97"/>
			<path class="st1" d="M259.04,33.8c0,1.64,1.92,2.97,4.29,2.97c2.37,0,4.29-1.33,4.29-2.97"/>
		</g>
	</g>
	<g>
		<g>
			<g>
				<polygon class="st2" points="263.06,43.86 251.14,36.97 251.14,25.05 263.06,31.93 				"/>
				<polygon class="st3" points="263.06,43.86 274.99,36.97 274.99,25.05 263.06,31.93 				"/>
				<polygon class="st4" points="263.11,31.97 251.14,25.06 263.02,18.13 274.99,25.05 				"/>
			</g>
			<path id="矩形_00000052795843850505151520000014020313630442394507_" class="st5" d="M259.43,21.56L259.43,21.56
				c0.23,0.13,0.2,0.39-0.08,0.55l-2.47,1.46c-0.28,0.17-0.72,0.19-0.95,0.06l0,0c-0.23-0.13-0.2-0.39,0.08-0.55l2.47-1.46
				C258.75,21.46,259.19,21.43,259.43,21.56z"/>
			<path id="矩形_00000054988249981362024610000011903712542188865723_" class="st5" d="M254.95,24.22L254.95,24.22
				c0.23,0.13,0.2,0.39-0.08,0.55l-0.48,0.28c-0.28,0.17-0.72,0.19-0.95,0.06l0,0c-0.23-0.13-0.2-0.39,0.08-0.55l0.48-0.28
				C254.29,24.1,254.71,24.08,254.95,24.22z"/>
		</g>
	</g>
</g>
<g>
	<g>
		<polygon class="st3" points="263.04,158.85 209.25,189.57 209.5,210.38 263.16,179.85 		"/>
		<polygon class="st2" points="168.54,166.9 209.25,189.52 209.5,210.38 168.79,187.76 		"/>
		<polygon class="st4" points="263.04,158.81 221.81,135.8 168.54,166.9 209.25,189.72 		"/>
	</g>
	<g>
		<polygon class="st3" points="263.04,134.31 209.25,165.03 209.5,185.84 263.16,155.31 		"/>
		<polygon class="st2" points="168.54,142.36 209.25,164.97 209.5,185.84 168.79,163.22 		"/>
		<polygon class="st4" points="263.04,134.33 221.8,111.32 168.54,142.06 209.25,164.88 		"/>
	</g>
	<circle class="st7" cx="213.14" cy="111.19" r="41.04"/>
	<g>
		<g>
			<path class="st6" d="M217.3,175.29v-8.95l2.53-1.5c0.49-0.29,0.9-0.41,1.24-0.35c0.34,0.05,0.6,0.26,0.79,0.61
				c0.18,0.35,0.27,0.82,0.27,1.41c0,0.59-0.09,1.17-0.28,1.74c-0.18,0.56-0.45,1.07-0.8,1.53c-0.35,0.46-0.77,0.84-1.26,1.13
				l-1.61,0.96v-1.52l1.39-0.83c0.26-0.15,0.48-0.35,0.65-0.57c0.17-0.23,0.3-0.48,0.38-0.76c0.08-0.28,0.13-0.56,0.13-0.85
				c0-0.3-0.04-0.53-0.13-0.71c-0.08-0.17-0.21-0.27-0.38-0.29c-0.17-0.02-0.39,0.04-0.65,0.2l-0.91,0.54v7.4L217.3,175.29z"/>
			<path class="st6" d="M222.99,171.92v-6.71l1.29-0.77v1.17l0.05-0.03c0.09-0.47,0.23-0.87,0.44-1.21
				c0.21-0.34,0.44-0.58,0.71-0.74c0.07-0.04,0.14-0.08,0.22-0.11c0.08-0.03,0.15-0.06,0.2-0.07v1.65
				c-0.06,0.01-0.15,0.04-0.26,0.08c-0.11,0.04-0.21,0.09-0.3,0.15c-0.2,0.12-0.37,0.28-0.53,0.49c-0.15,0.21-0.27,0.44-0.36,0.71
				c-0.09,0.26-0.13,0.53-0.13,0.8v3.8L222.99,171.92z"/>
			<path class="st6" d="M228.54,168.76c-0.49,0.29-0.91,0.39-1.26,0.31c-0.35-0.08-0.63-0.32-0.82-0.73
				c-0.19-0.41-0.29-0.95-0.29-1.64c0-0.69,0.1-1.36,0.29-1.99c0.19-0.63,0.47-1.2,0.82-1.7c0.35-0.5,0.77-0.89,1.26-1.18
				c0.49-0.29,0.91-0.39,1.26-0.31c0.35,0.08,0.63,0.32,0.82,0.73c0.19,0.41,0.29,0.96,0.29,1.65c0,0.69-0.1,1.35-0.29,1.98
				c-0.19,0.63-0.47,1.2-0.82,1.7C229.45,168.08,229.03,168.47,228.54,168.76z M228.55,167.32c0.22-0.13,0.41-0.33,0.55-0.59
				s0.26-0.57,0.34-0.92s0.11-0.72,0.11-1.11c0-0.39-0.04-0.72-0.11-0.98s-0.19-0.44-0.34-0.53c-0.15-0.09-0.33-0.07-0.55,0.06
				c-0.22,0.13-0.41,0.33-0.56,0.6c-0.15,0.27-0.27,0.58-0.34,0.93c-0.08,0.35-0.11,0.72-0.11,1.11c0,0.39,0.04,0.72,0.11,0.98
				c0.08,0.26,0.19,0.43,0.34,0.52C228.14,167.47,228.32,167.45,228.55,167.32z"/>
			<path class="st6" d="M231.78,169.23V160l1.32-0.78v1.13l0.06-0.04c0.06-0.22,0.14-0.45,0.26-0.7c0.11-0.25,0.26-0.5,0.44-0.73
				c0.18-0.23,0.41-0.43,0.68-0.59c0.35-0.21,0.67-0.27,0.97-0.19c0.3,0.08,0.53,0.32,0.71,0.73c0.18,0.41,0.27,0.99,0.27,1.76
				c0,0.75-0.09,1.43-0.26,2.05c-0.17,0.62-0.41,1.14-0.7,1.58c-0.3,0.44-0.63,0.77-0.99,0.98c-0.26,0.15-0.48,0.22-0.66,0.21
				c-0.18-0.01-0.33-0.07-0.44-0.19c-0.11-0.11-0.2-0.25-0.26-0.4l-0.04,0.02v3.59L231.78,169.23z M233.09,162.58
				c0,0.4,0.04,0.72,0.12,0.97c0.08,0.25,0.19,0.41,0.34,0.49c0.15,0.07,0.33,0.05,0.55-0.08c0.22-0.13,0.4-0.32,0.55-0.58
				c0.15-0.26,0.26-0.56,0.34-0.9c0.08-0.35,0.12-0.71,0.12-1.1c0-0.39-0.04-0.71-0.12-0.95c-0.08-0.25-0.19-0.41-0.34-0.49
				c-0.15-0.08-0.33-0.05-0.55,0.08c-0.22,0.13-0.4,0.32-0.55,0.57s-0.26,0.54-0.34,0.89C233.13,161.81,233.09,162.18,233.09,162.58
				z"/>
			<path class="st6" d="M239.53,162.25c-0.49,0.29-0.91,0.39-1.26,0.31c-0.35-0.08-0.63-0.32-0.82-0.73
				c-0.19-0.41-0.29-0.95-0.29-1.64c0-0.69,0.1-1.36,0.29-1.99c0.19-0.63,0.47-1.2,0.82-1.7c0.35-0.5,0.77-0.89,1.26-1.18
				c0.49-0.29,0.91-0.39,1.26-0.31c0.35,0.08,0.63,0.32,0.82,0.73c0.19,0.41,0.29,0.96,0.29,1.65c0,0.69-0.1,1.35-0.29,1.98
				c-0.19,0.63-0.47,1.2-0.82,1.7C240.44,161.57,240.02,161.96,239.53,162.25z M239.54,160.8c0.22-0.13,0.41-0.33,0.55-0.59
				s0.26-0.57,0.34-0.92c0.08-0.35,0.11-0.72,0.11-1.11s-0.04-0.72-0.11-0.98c-0.08-0.26-0.19-0.44-0.34-0.53
				c-0.15-0.09-0.33-0.07-0.55,0.06c-0.22,0.13-0.41,0.33-0.56,0.6c-0.15,0.27-0.27,0.58-0.34,0.93s-0.11,0.72-0.11,1.11
				c0,0.39,0.04,0.72,0.11,0.98c0.08,0.26,0.19,0.43,0.34,0.52C239.13,160.96,239.32,160.94,239.54,160.8z"/>
			<path class="st6" d="M246.78,153.03l-1.22,0.83c-0.02-0.13-0.07-0.24-0.13-0.32c-0.07-0.08-0.16-0.12-0.27-0.12
				c-0.11-0.01-0.24,0.04-0.4,0.13c-0.21,0.12-0.38,0.29-0.52,0.49c-0.14,0.21-0.21,0.41-0.21,0.61c0,0.16,0.05,0.27,0.14,0.32
				c0.09,0.06,0.25,0.05,0.47-0.01l0.87-0.27c0.47-0.14,0.82-0.13,1.05,0.03c0.23,0.16,0.34,0.48,0.34,0.97
				c0,0.44-0.09,0.88-0.28,1.32c-0.18,0.44-0.44,0.85-0.76,1.22c-0.32,0.38-0.69,0.69-1.11,0.93c-0.64,0.38-1.14,0.49-1.52,0.34
				c-0.38-0.15-0.6-0.52-0.66-1.13l1.31-0.87c0.04,0.25,0.14,0.4,0.29,0.45c0.15,0.05,0.35,0.01,0.59-0.14
				c0.23-0.14,0.42-0.31,0.57-0.53c0.14-0.21,0.22-0.42,0.22-0.62c0-0.17-0.05-0.28-0.15-0.33c-0.1-0.05-0.25-0.04-0.46,0.02
				l-0.83,0.26c-0.47,0.15-0.82,0.13-1.05-0.06c-0.23-0.19-0.34-0.53-0.34-1.03c0-0.43,0.08-0.85,0.25-1.26
				c0.17-0.41,0.4-0.79,0.71-1.14c0.31-0.35,0.66-0.65,1.08-0.89c0.61-0.36,1.09-0.46,1.44-0.31
				C246.51,152.08,246.72,152.45,246.78,153.03z"/>
			<path class="st6" d="M249.1,156.58c-0.31,0.18-0.58,0.27-0.82,0.26c-0.24-0.01-0.43-0.12-0.57-0.33
				c-0.14-0.21-0.21-0.54-0.21-0.98c0-0.37,0.05-0.72,0.15-1.03c0.1-0.31,0.23-0.59,0.4-0.85c0.17-0.25,0.36-0.49,0.58-0.69
				c0.22-0.21,0.44-0.4,0.68-0.57c0.28-0.21,0.51-0.38,0.68-0.52c0.17-0.14,0.3-0.27,0.37-0.38c0.08-0.12,0.12-0.25,0.12-0.39v-0.03
				c0-0.28-0.06-0.45-0.19-0.53c-0.12-0.08-0.3-0.05-0.53,0.09c-0.24,0.14-0.43,0.33-0.57,0.56c-0.14,0.23-0.24,0.47-0.28,0.72
				l-1.23,0.59c0.06-0.44,0.19-0.87,0.37-1.28c0.18-0.41,0.42-0.78,0.71-1.11c0.29-0.33,0.63-0.62,1.01-0.84
				c0.27-0.16,0.52-0.27,0.77-0.32c0.25-0.06,0.46-0.05,0.65,0.02c0.19,0.07,0.34,0.22,0.45,0.44c0.11,0.22,0.17,0.53,0.17,0.93
				v4.53l-1.27,0.75v-0.93l-0.04,0.02c-0.08,0.26-0.18,0.5-0.31,0.74c-0.13,0.24-0.29,0.45-0.47,0.65
				C249.55,156.27,249.34,156.43,249.1,156.58z M249.48,155.06c0.2-0.12,0.37-0.27,0.52-0.47c0.15-0.2,0.27-0.42,0.35-0.65
				c0.09-0.24,0.13-0.47,0.13-0.71v-0.71c-0.04,0.06-0.1,0.13-0.17,0.2c-0.07,0.07-0.15,0.15-0.24,0.23
				c-0.09,0.08-0.18,0.15-0.27,0.23c-0.09,0.07-0.17,0.14-0.24,0.2c-0.16,0.12-0.29,0.26-0.41,0.4c-0.12,0.14-0.21,0.29-0.27,0.44
				c-0.06,0.16-0.1,0.32-0.1,0.5c0,0.25,0.07,0.41,0.2,0.46C249.11,155.22,249.28,155.19,249.48,155.06z"/>
			<path class="st6" d="M254.18,144.49v8.95l-1.33,0.79v-8.95L254.18,144.49z"/>
		</g>
	</g>
</g>
<g>
	<polygon class="st3" points="132.63,74 22.49,136.92 22.49,195.82 132.63,132.9 	"/>
	<polygon class="st2" points="8.05,128.76 22.49,136.56 22.49,195.82 8.05,188.02 	"/>
	<polygon class="st4" points="132.63,74 117.12,65.8 8.05,128.76 22.49,136.56 	"/>
</g>
<g>
	<g>
		<polygon class="st2" points="259.56,169.11 215.5,194.78 215.5,191.33 259.56,165.66 		"/>
		<polygon class="st3" points="259.18,168.81 215.77,194.16 215.77,191.31 259.18,165.95 		"/>
		<polygon class="st14" points="258.78,168.97 215.6,194.02 215.6,191.67 258.77,166.69 		"/>
	</g>
	<g>
		<polygon class="st2" points="259.56,176.13 215.5,201.81 215.5,198.35 259.56,172.68 		"/>
		<polygon class="st3" points="259.19,175.77 215.5,201.24 215.49,198.73 259.18,173.25 		"/>
		<polygon class="st15" points="233.33,190.83 215.5,201.23 215.49,198.71 233.33,188.31 		"/>
	</g>
</g>
<g>
	<path class="st6" d="M32.06,153.42l1.74,8.62l0.07-0.04l1.74-10.69l2.6-1.55l-2.8,15.36l-3.15,1.88l-2.8-12.02L32.06,153.42z"/>
	<path class="st6" d="M46.72,151.54c0,1.52-0.18,2.92-0.55,4.18c-0.37,1.26-0.86,2.35-1.49,3.26c-0.62,0.91-1.32,1.59-2.09,2.05
		c-0.77,0.46-1.47,0.61-2.09,0.44c-0.62-0.17-1.12-0.67-1.48-1.5c-0.37-0.83-0.55-2-0.55-3.51c0-1.52,0.18-2.92,0.55-4.18
		c0.37-1.26,0.86-2.35,1.48-3.26c0.62-0.91,1.32-1.59,2.09-2.05c0.77-0.46,1.46-0.6,2.09-0.44s1.12,0.66,1.49,1.49
		C46.53,148.84,46.72,150.01,46.72,151.54z M44.34,152.95c0-0.82-0.07-1.47-0.2-1.96c-0.13-0.48-0.33-0.79-0.59-0.93
		c-0.26-0.14-0.58-0.09-0.96,0.14c-0.38,0.23-0.7,0.56-0.96,1.01c-0.26,0.45-0.46,0.99-0.59,1.64c-0.13,0.64-0.2,1.38-0.2,2.19
		c0,0.82,0.07,1.47,0.2,1.96c0.13,0.48,0.33,0.79,0.59,0.93c0.26,0.14,0.58,0.09,0.96-0.14c0.38-0.23,0.7-0.56,0.96-1.01
		c0.26-0.45,0.46-0.99,0.59-1.64C44.28,154.5,44.34,153.77,44.34,152.95z"/>
	<path class="st6" d="M47.15,147.43v-2.99l7.38-4.39v2.99l-2.55,1.52v10.69l-2.27,1.35v-10.69L47.15,147.43z"/>
	<path class="st6" d="M57.69,138.16v13.69l-2.3,1.37v-13.69L57.69,138.16z"/>
	<path class="st6" d="M66.12,133.13v13.69l-1.92,1.15l-3.07-5.37l-0.05,0.03v7.19l-2.3,1.37v-13.69l1.96-1.16l3.02,5.37l0.07-0.04
		v-7.17L66.12,133.13z"/>
	<path class="st6" d="M72.73,133.72c-0.04-0.22-0.09-0.39-0.17-0.52c-0.08-0.13-0.17-0.23-0.29-0.29c-0.11-0.06-0.25-0.07-0.4-0.05
		c-0.15,0.02-0.32,0.09-0.5,0.2c-0.39,0.23-0.72,0.58-0.99,1.04c-0.27,0.46-0.48,1.01-0.62,1.66c-0.14,0.65-0.21,1.37-0.21,2.16
		c0,0.8,0.07,1.45,0.2,1.94c0.14,0.49,0.34,0.81,0.61,0.95c0.27,0.14,0.6,0.1,1-0.14c0.35-0.21,0.64-0.47,0.88-0.77
		c0.23-0.3,0.41-0.64,0.52-1.01c0.12-0.37,0.17-0.76,0.17-1.17l0.4-0.17l-1.94,1.15v-2.65l3.76-2.24v1.9c0,1.25-0.16,2.41-0.49,3.49
		c-0.33,1.08-0.78,2.02-1.35,2.84c-0.57,0.81-1.23,1.44-1.97,1.88c-0.83,0.49-1.55,0.64-2.17,0.45s-1.11-0.71-1.46-1.55
		c-0.35-0.84-0.52-1.98-0.52-3.42c0-1.13,0.11-2.2,0.32-3.2c0.21-1,0.51-1.92,0.89-2.75c0.38-0.83,0.82-1.55,1.32-2.16
		c0.5-0.61,1.04-1.08,1.61-1.42c0.5-0.3,0.97-0.46,1.4-0.49c0.43-0.03,0.81,0.07,1.15,0.29c0.33,0.22,0.6,0.56,0.81,1.01
		c0.2,0.45,0.33,1.01,0.37,1.67L72.73,133.72z"/>
	<path class="st6" d="M86.48,126.15l-2.34,1.39c-0.02-0.3-0.06-0.56-0.13-0.77c-0.07-0.21-0.17-0.37-0.29-0.48
		c-0.12-0.11-0.27-0.17-0.44-0.16c-0.17,0-0.37,0.07-0.59,0.2c-0.39,0.23-0.71,0.58-0.98,1.04c-0.27,0.46-0.47,1.02-0.61,1.66
		c-0.14,0.65-0.2,1.37-0.2,2.16c0,0.84,0.07,1.5,0.21,1.98c0.14,0.48,0.34,0.78,0.61,0.91c0.27,0.12,0.58,0.08,0.96-0.15
		c0.21-0.13,0.4-0.28,0.57-0.47c0.17-0.19,0.31-0.4,0.44-0.64c0.12-0.24,0.23-0.5,0.31-0.78c0.08-0.28,0.13-0.58,0.16-0.89
		l2.34-1.36c-0.03,0.6-0.13,1.25-0.3,1.95c-0.17,0.7-0.42,1.4-0.74,2.1c-0.32,0.7-0.71,1.34-1.18,1.92
		c-0.47,0.59-1.02,1.07-1.64,1.44c-0.78,0.46-1.48,0.61-2.09,0.44c-0.62-0.17-1.1-0.67-1.46-1.51c-0.36-0.83-0.54-2.01-0.54-3.52
		c0-1.52,0.18-2.92,0.55-4.18c0.36-1.26,0.86-2.35,1.47-3.25c0.62-0.91,1.31-1.58,2.07-2.04c0.54-0.32,1.03-0.49,1.48-0.53
		c0.45-0.03,0.85,0.08,1.18,0.33c0.34,0.25,0.61,0.64,0.82,1.18C86.31,124.64,86.43,125.32,86.48,126.15z"/>
	<path class="st6" d="M87.52,134.08v-13.69l2.3-1.37v10.7l3.43-2.04v2.99L87.52,134.08z"/>
	<path class="st6" d="M102.07,118.57c0,1.52-0.18,2.92-0.55,4.18c-0.37,1.26-0.86,2.35-1.49,3.26c-0.62,0.91-1.32,1.59-2.09,2.05
		c-0.77,0.46-1.47,0.6-2.09,0.44c-0.62-0.17-1.12-0.67-1.48-1.5c-0.37-0.83-0.55-2-0.55-3.51c0-1.52,0.18-2.92,0.55-4.18
		c0.37-1.26,0.86-2.35,1.48-3.26c0.62-0.91,1.32-1.59,2.09-2.05c0.77-0.46,1.46-0.6,2.09-0.44c0.62,0.17,1.12,0.66,1.49,1.49
		C101.89,115.87,102.07,117.05,102.07,118.57z M99.7,119.98c0-0.82-0.07-1.47-0.2-1.96c-0.13-0.48-0.33-0.8-0.59-0.93
		c-0.26-0.14-0.58-0.09-0.96,0.14c-0.38,0.23-0.7,0.56-0.96,1.01c-0.26,0.45-0.46,0.99-0.59,1.64c-0.13,0.64-0.2,1.38-0.2,2.19
		c0,0.82,0.07,1.47,0.2,1.96c0.13,0.48,0.33,0.79,0.59,0.93c0.26,0.14,0.58,0.09,0.96-0.14c0.38-0.23,0.7-0.56,0.96-1.01
		c0.26-0.45,0.46-0.99,0.59-1.64C99.64,121.53,99.7,120.8,99.7,119.98z"/>
	<path class="st6" d="M107.71,112.65c-0.02-0.43-0.13-0.72-0.31-0.86c-0.18-0.14-0.46-0.1-0.83,0.12c-0.24,0.14-0.43,0.3-0.58,0.48
		c-0.15,0.18-0.26,0.37-0.33,0.57c-0.07,0.2-0.11,0.4-0.11,0.6c-0.01,0.17,0.01,0.31,0.06,0.41c0.04,0.11,0.11,0.18,0.21,0.23
		c0.09,0.05,0.21,0.07,0.36,0.07c0.15,0,0.32-0.03,0.52-0.08l0.7-0.17c0.47-0.12,0.87-0.15,1.21-0.08c0.33,0.06,0.61,0.21,0.82,0.44
		c0.21,0.23,0.37,0.53,0.47,0.91c0.1,0.38,0.15,0.83,0.16,1.35c0,0.9-0.14,1.75-0.42,2.54c-0.28,0.79-0.67,1.5-1.18,2.13
		c-0.51,0.63-1.13,1.16-1.85,1.59c-0.74,0.44-1.38,0.65-1.93,0.62c-0.55-0.03-0.97-0.32-1.28-0.87c-0.3-0.55-0.46-1.4-0.46-2.55
		l2.19-1.3c0.01,0.41,0.08,0.72,0.19,0.94c0.12,0.22,0.28,0.33,0.49,0.36c0.21,0.02,0.46-0.06,0.76-0.23
		c0.25-0.15,0.45-0.32,0.62-0.52c0.17-0.2,0.29-0.41,0.38-0.63c0.09-0.22,0.13-0.45,0.13-0.67c0-0.21-0.04-0.37-0.13-0.48
		c-0.08-0.11-0.21-0.17-0.4-0.19c-0.19-0.02-0.44,0.01-0.75,0.09l-0.85,0.21c-0.75,0.18-1.34,0.1-1.78-0.26
		c-0.43-0.36-0.65-1.07-0.64-2.15c0-0.87,0.14-1.71,0.43-2.54c0.29-0.83,0.7-1.58,1.21-2.25c0.52-0.67,1.11-1.21,1.78-1.61
		c0.69-0.41,1.28-0.58,1.78-0.5c0.5,0.07,0.89,0.36,1.16,0.87c0.27,0.51,0.41,1.21,0.41,2.1L107.71,112.65z"/>
	<path class="st6" d="M110.91,120.15v-13.69l6.12-3.64v2.99l-3.81,2.27v2.35l3.5-2.08v2.99l-3.5,2.08v2.35l3.8-2.26v2.99
		L110.91,120.15z"/>
	<path class="st6" d="M121.43,113.89l-3.27,1.94v-13.69l3.23-1.92c0.87-0.52,1.63-0.7,2.26-0.53c0.64,0.17,1.13,0.66,1.48,1.48
		c0.35,0.81,0.52,1.94,0.52,3.36c0,1.43-0.17,2.75-0.52,3.98c-0.34,1.23-0.83,2.3-1.47,3.23
		C123.04,112.65,122.29,113.37,121.43,113.89z M120.47,111.3l0.88-0.52c0.42-0.25,0.78-0.57,1.07-0.97c0.3-0.4,0.52-0.91,0.68-1.53
		c0.16-0.63,0.23-1.42,0.23-2.37c0-0.95-0.08-1.65-0.24-2.09c-0.16-0.44-0.39-0.68-0.7-0.72c-0.31-0.04-0.68,0.08-1.12,0.34
		l-0.81,0.48V111.3z"/>
</g>
<polygon class="st3" points="259.9,27.52 258.55,26.76 266.39,22.14 267.74,22.9 "/>
<polygon class="st3" points="139.46,24.63 137.28,23.4 149.95,15.92 152.13,17.15 "/>
<g>
	<path id="矩形_00000163062091070418879700000016295058188583462302_" class="st82" d="M172.16,217.11L172.16,217.11
		c0.62,0,1.15,0.76,1.15,1.64v1.52c0,0.88-0.53,1.64-1.15,1.64l0,0c-0.62,0-1.15-0.76-1.15-1.64v-1.52
		C171.02,217.8,171.55,217.11,172.16,217.11z"/>
	
		<radialGradient id="SVGID_1_" cx="140.6214" cy="251.2355" r="29.1582" gradientTransform="matrix(1 0 0 0.5898 0 103.0585)" gradientUnits="userSpaceOnUse">
		<stop  offset="0" style="stop-color:#06070C"/>
		<stop  offset="1" style="stop-color:#0D101D;stop-opacity:0"/>
	</radialGradient>
	<path style="opacity:0.67;fill:url(#SVGID_1_);" d="M165.62,237.16c-13.68-7.9-35.96-8-49.77-0.23s-13.91,20.48-0.23,28.37
		s35.96,8,49.77,0.23C179.19,257.76,179.3,245.06,165.62,237.16z"/>
	<g>
		<path class="st84" d="M179.12,201.13v-49.28c0-0.23,0.02-0.45,0.02-0.68c0-22.91-18.57-41.48-41.48-41.48
			c-22.91,0-41.48,18.57-41.48,41.48c0,0.36,0.02,0.72,0.03,1.07v44.66h-0.03v22.67c0,2.84,2.3,5.15,5.15,5.15
			c2.84,0,5.15-2.31,5.15-5.15v-0.83c0.56,0.36,1.13,0.72,1.74,1.07c1.83,1.06,3.79,1.99,5.85,2.81v8.2c0,2.84,2.3,5.15,5.15,5.15
			c2.84,0,5.15-2.31,5.15-5.15v-5.23c2.95,0.57,5.99,0.96,9.06,1.14v12.59c0,2.84,2.3,5.15,5.15,5.15s5.15-2.31,5.15-5.15v-12.7
			c3.39-0.28,6.73-0.8,9.93-1.55v6.36c0,2.84,2.3,5.15,5.15,5.15s5.15-2.31,5.15-5.15v-9.87c1-0.47,1.97-0.96,2.91-1.49
			c0.7-0.39,1.35-0.8,1.99-1.21v0.71c0,2.84,2.3,5.15,5.15,5.15c2.84,0,5.15-2.31,5.15-5.15v-18.45H179.12z"/>
		
			<radialGradient id="SVGID_00000151502538642904477390000011413640681207794365_" cx="162.3441" cy="127.1149" r="106.6854" gradientUnits="userSpaceOnUse">
			<stop  offset="0.0124" style="stop-color:#DD78CE"/>
			<stop  offset="0.4936" style="stop-color:#A7589A"/>
			<stop  offset="0.5829" style="stop-color:#A0619E"/>
			<stop  offset="0.7273" style="stop-color:#8E79A8"/>
			<stop  offset="0.9078" style="stop-color:#709FB9"/>
			<stop  offset="1" style="stop-color:#5EB6C3"/>
		</radialGradient>
		<path style="fill:url(#SVGID_00000151502538642904477390000011413640681207794365_);" d="M179.12,201.13v-49.28
			c0-0.23,0.02-0.45,0.02-0.68c0-22.91-18.57-41.48-41.48-41.48c-22.91,0-41.48,18.57-41.48,41.48c0,0.36,0.02,0.72,0.03,1.07v44.66
			h-0.03v22.67c0,2.84,2.3,5.15,5.15,5.15c2.84,0,5.15-2.31,5.15-5.15v-0.83c0.56,0.36,1.13,0.72,1.74,1.07
			c1.83,1.06,3.79,1.99,5.85,2.81v8.2c0,2.84,2.3,5.15,5.15,5.15c2.84,0,5.15-2.31,5.15-5.15v-5.23c2.95,0.57,5.99,0.96,9.06,1.14
			v12.59c0,2.84,2.3,5.15,5.15,5.15s5.15-2.31,5.15-5.15v-12.7c3.39-0.28,6.73-0.8,9.93-1.55v6.36c0,2.84,2.3,5.15,5.15,5.15
			s5.15-2.31,5.15-5.15v-9.87c1-0.47,1.97-0.96,2.91-1.49c0.7-0.39,1.35-0.8,1.99-1.21v0.71c0,2.84,2.3,5.15,5.15,5.15
			c2.84,0,5.15-2.31,5.15-5.15v-18.45H179.12z"/>
	</g>
	<path id="矩形_00000173135903763346973800000015831106477838459057_" class="st82" d="M100.07,187.29L100.07,187.29
		c1.12,0,2.09,1.38,2.09,2.99v14.25c0,1.61-0.96,2.99-2.09,2.99l0,0c-1.12,0-2.09-1.38-2.09-2.99v-14.25
		C97.99,188.67,98.95,187.29,100.07,187.29z"/>
	<path id="矩形_00000054978269590855627600000012108493999622009520_" class="st82" d="M161.37,124.2L161.37,124.2
		c1.37-1.02,3.68-0.37,5.02,1.41l2.29,3.06c1.34,1.78,1.31,4.19-0.06,5.22l0,0c-1.37,1.02-3.68,0.37-5.02-1.41l-2.29-3.06
		C159.88,127.5,160.01,125.23,161.37,124.2z"/>
	<path id="矩形_00000072263069514607179710000004282489215357946516_" class="st82" d="M117.47,223.88L117.47,223.88
		c1.12,0,2.09,1.38,2.09,2.99v2.76c0,1.61-0.96,2.99-2.09,2.99l0,0c-1.12,0-2.09-1.38-2.09-2.99v-2.76
		C115.38,225.14,116.35,223.88,117.47,223.88z"/>
	<path id="矩形_00000047037725267993693190000014628454790349692544_" class="st82" d="M99.82,213.08L99.82,213.08
		c1.12,0,2.09,1.38,2.09,2.99v2.76c0,1.61-0.96,2.99-2.09,2.99l0,0c-1.12,0-2.09-1.38-2.09-2.99v-2.76
		C97.74,214.34,98.7,213.08,99.82,213.08z"/>
	<path id="矩形_00000085229584556081974600000009637664943529078718_" class="st82" d="M137.66,232.62L137.66,232.62
		c1.12,0,2.09,1.38,2.09,2.99v2.76c0,1.61-0.96,2.99-2.09,2.99l0,0c-1.12,0-2.09-1.38-2.09-2.99v-2.76
		C135.57,233.88,136.54,232.62,137.66,232.62z"/>
	<path id="矩形_00000058581572436916576270000014895364320354125441_" class="st82" d="M157.36,227.27L157.36,227.27
		c0.89,0,1.66,1.1,1.66,2.37v2.19c0,1.28-0.76,2.37-1.66,2.37l0,0c-0.89,0-1.66-1.1-1.66-2.37v-2.19
		C155.7,228.28,156.47,227.27,157.36,227.27z"/>
	<g>
		<path id="椭圆形_00000133490726771064019850000008118465017405992628_" class="st86" d="M147.67,182.16
			c4.06-0.17,7.1-3.66,7.09-6c0-0.94-0.55-1.75-1.38-1.81c-1.29-0.13-3.23,0.7-5.72,0.8c-2.31,0.1-3.78-0.5-5.53-0.42
			c-1.84,0.08-1.75,2.22-1.47,3.06C141.3,180.09,143.52,182.33,147.67,182.16z"/>
		<path id="椭圆形_00000017504470163688221680000010904219083356730802_" class="st87" d="M147.76,180.19
			c4.15-0.17,7.19-3.38,7.19-5.63c0-0.84-0.55-1.57-1.38-1.63c-1.29-0.13-3.32,0.7-5.81,0.8c-2.4,0.1-3.78-0.5-5.62-0.43
			s-1.75,2.13-1.48,2.87C141.3,178.3,143.61,180.36,147.76,180.19z"/>
	</g>
	<g>
		
			<ellipse transform="matrix(0.5671 -0.8237 0.8237 0.5671 -74.1156 176.3792)" class="st87" cx="130.72" cy="158.69" rx="9.5" ry="9.1"/>
		<path id="形状结合_00000151505446559000836720000007263205246504988811_" class="st88" d="M131.92,148.73
			c4.24-0.18,7.66,3.98,7.66,9.22c0,0.19,0,0.37,0,0.56l0,0.56c0-5.33-3.33-9.59-7.48-9.42c-4.15,0.17-7.46,4.61-7.46,10.04
			c0,1.03,0.09,2.05,0.37,2.98c-0.46-1.2-0.74-2.59-0.74-3.99C124.27,153.35,127.68,148.9,131.92,148.73z"/>
		<path id="形状结合_00000003088500590330129910000011133844827987023762_" class="st89" d="M131.92,147.6
			c4.7-0.2,8.58,4.41,8.58,10.31c0.01,5.89-3.86,10.83-8.57,11.02c-4.7,0.2-8.58-4.41-8.58-10.31
			C123.35,152.73,127.12,147.8,131.92,147.6z M131.92,148.73c-4.24,0.18-7.65,4.62-7.64,9.86c0,5.24,3.42,9.4,7.66,9.22
			c4.24-0.18,7.65-4.62,7.64-9.86C139.58,152.71,136.07,148.55,131.92,148.73z"/>
	</g>
	<g>
		
			<ellipse transform="matrix(0.5671 -0.8237 0.8237 0.5671 -59.6804 201.0825)" class="st87" cx="161.44" cy="157.31" rx="9.5" ry="9.1"/>
		<path id="形状结合_00000106114519201138088990000017893804223516941731_" class="st88" d="M162.43,147.35
			c4.24-0.18,7.66,3.98,7.66,9.22c0,0.19,0,0.37,0,0.56l0,0.56c0-5.33-3.33-9.59-7.48-9.42c-4.15,0.17-7.46,4.61-7.46,10.04
			c0,1.03,0.09,2.05,0.37,2.98c-0.46-1.2-0.74-2.59-0.74-3.99C154.78,151.98,158.19,147.53,162.43,147.35z"/>
		<path id="形状结合_00000077316028877664558200000000427258874796596649_" class="st89" d="M162.43,146.23
			c4.7-0.2,8.58,4.41,8.58,10.31s-3.86,10.83-8.57,11.02s-8.58-4.41-8.58-10.31C153.86,151.36,157.64,146.43,162.43,146.23z
			 M162.43,147.35c-4.24,0.18-7.65,4.62-7.64,9.86s3.42,9.4,7.66,9.22c4.24-0.18,7.65-4.62,7.64-9.86
			C170.09,151.34,166.58,147.18,162.43,147.35z"/>
	</g>
	<circle class="st86" cx="135.7" cy="160.46" r="3.77"/>
	<circle class="st86" cx="166.24" cy="159.33" r="3.77"/>
</g>
</svg>
