<?xml version="1.0" encoding="utf-8"?>
<!-- Generator: Adobe Illustrator 27.8.1, SVG Export Plug-In . SVG Version: 6.00 Build 0)  -->
<svg version="1.1" id="Слой_1" xmlns="http://www.w3.org/2000/svg" xmlns:xlink="http://www.w3.org/1999/xlink" x="0px" y="0px"
	 viewBox="0 0 290 269.62" style="enable-background:new 0 0 290 269.62;" xml:space="preserve">
<style type="text/css">
	.st0{fill:#101422;}
	.st1{fill:#FFFFFF;stroke:#111422;stroke-linecap:round;stroke-linejoin:round;stroke-miterlimit:10;}
	
		.st2{fill-rule:evenodd;clip-rule:evenodd;fill:#C6C3D1;stroke:#101320;stroke-linecap:round;stroke-linejoin:round;stroke-miterlimit:10;}
	
		.st3{fill-rule:evenodd;clip-rule:evenodd;fill:#FFFFFF;stroke:#111422;stroke-linecap:round;stroke-linejoin:round;stroke-miterlimit:10;}
	
		.st4{fill-rule:evenodd;clip-rule:evenodd;fill:#ECF0FC;stroke:#111422;stroke-linecap:round;stroke-linejoin:round;stroke-miterlimit:10;}
	.st5{opacity:0.92;fill-rule:evenodd;clip-rule:evenodd;fill:#FFFFFF;enable-background:new    ;}
	.st6{fill:none;stroke:#FFFFFF;stroke-linecap:round;stroke-linejoin:round;stroke-miterlimit:10;}
	.st7{fill-rule:evenodd;clip-rule:evenodd;fill:#101422;}
	.st8{fill:url(#SVGID_1_);}
	.st9{fill:url(#SVGID_00000093148563562959242890000005634054381861475241_);}
	.st10{fill:url(#SVGID_00000120526812350685364560000005845728718308357776_);}
	.st11{opacity:0.67;fill:url(#SVGID_00000136389372855464020680000013254203124322811569_);enable-background:new    ;}
	.st12{fill:#6FA3B6;}
	.st13{fill:url(#SVGID_00000149365753343717757880000006784068933944970685_);}
	.st14{opacity:0.2563;fill-rule:evenodd;clip-rule:evenodd;fill:#FFFFFF;enable-background:new    ;}
	.st15{fill:none;stroke:#FFFFFF;stroke-width:0.7384;stroke-linecap:round;stroke-linejoin:round;stroke-miterlimit:10;}
	
		.st16{fill:none;stroke:url(#SVGID_00000000209957981544734530000002364991106589915320_);stroke-width:5;stroke-linecap:round;stroke-linejoin:round;stroke-miterlimit:10;}
	.st17{fill:url(#SVGID_00000050646305763747372070000006831208361853107113_);}
	.st18{fill-rule:evenodd;clip-rule:evenodd;fill:#1AD4B3;}
	.st19{fill-rule:evenodd;clip-rule:evenodd;fill:#FC4F83;}
	.st20{fill:#C6C3D1;stroke:#101320;stroke-linecap:round;stroke-linejoin:round;stroke-miterlimit:10;}
	.st21{fill:#ECF0FC;stroke:#111422;stroke-linecap:round;stroke-linejoin:round;stroke-miterlimit:10;}
	
		.st22{fill:url(#SVGID_00000018945673564980905030000008726635284820230810_);stroke:#1D1D1B;stroke-width:0.2115;stroke-linecap:round;stroke-linejoin:round;stroke-miterlimit:10;}
	
		.st23{fill:url(#SVGID_00000007414399030509751780000001565714018916439480_);stroke:#1D1D1B;stroke-width:0.2115;stroke-linecap:round;stroke-linejoin:round;stroke-miterlimit:10;}
	
		.st24{fill:url(#SVGID_00000130642668727989592170000008863943828420299440_);stroke:#1D1D1B;stroke-width:0.2115;stroke-linecap:round;stroke-linejoin:round;stroke-miterlimit:10;}
	
		.st25{fill:url(#SVGID_00000031185595031880643880000010609951603513892498_);stroke:#1D1D1B;stroke-width:0.2115;stroke-linecap:round;stroke-linejoin:round;stroke-miterlimit:10;}
	
		.st26{fill-rule:evenodd;clip-rule:evenodd;fill:#101422;stroke:#101423;stroke-linecap:round;stroke-linejoin:round;stroke-miterlimit:10;}
	.st27{fill:#FFFFFF;}
	.st28{fill-rule:evenodd;clip-rule:evenodd;fill:url(#SVGID_00000057146067547526736810000005609050735590891694_);}
	.st29{fill-rule:evenodd;clip-rule:evenodd;fill:url(#SVGID_00000170978390321016909040000013056308795167708297_);}
	.st30{fill:url(#SVGID_00000168101229245805490360000017512691548347411375_);}
	.st31{fill:url(#SVGID_00000085248820922991257200000016326798971398816931_);}
	.st32{fill:url(#SVGID_00000149384080960569407940000016980311726953706425_);}
	
		.st33{fill-rule:evenodd;clip-rule:evenodd;fill:#C7FFF1;stroke:#101320;stroke-linecap:round;stroke-linejoin:round;stroke-miterlimit:10;}
	
		.st34{fill:none;stroke:url(#SVGID_00000141426907563759257930000016929350088082026428_);stroke-width:5;stroke-linecap:round;stroke-linejoin:round;stroke-miterlimit:10;}
	.st35{fill:url(#SVGID_00000123435793219999303030000017935980603159612585_);}
	
		.st36{fill:none;stroke:url(#SVGID_00000181080029339698168110000003514351786149843895_);stroke-width:5;stroke-linecap:round;stroke-linejoin:round;stroke-miterlimit:10;}
	.st37{fill:url(#SVGID_00000010283234456771710000000002135504230304676001_);}
	
		.st38{fill:none;stroke:url(#SVGID_00000080929348987843266510000013515380060616010422_);stroke-width:5;stroke-linecap:round;stroke-linejoin:round;stroke-miterlimit:10;}
	.st39{fill:url(#SVGID_00000069371270152170468920000017821302129771566226_);}
	
		.st40{fill-rule:evenodd;clip-rule:evenodd;fill:#1AD4B3;stroke:#111422;stroke-linecap:round;stroke-linejoin:round;stroke-miterlimit:10;}
	
		.st41{fill-rule:evenodd;clip-rule:evenodd;fill:#FC4F83;stroke:#111422;stroke-linecap:round;stroke-linejoin:round;stroke-miterlimit:10;}
	
		.st42{fill-rule:evenodd;clip-rule:evenodd;fill:#FFCAD7;stroke:#111422;stroke-linecap:round;stroke-linejoin:round;stroke-miterlimit:10;}
	.st43{fill:url(#SVGID_00000035527393404202223450000004064164284113231009_);}
	.st44{fill:url(#SVGID_00000165930210062475155160000013533565895216122280_);}
	.st45{fill:url(#SVGID_00000090983545256670096160000004347443259311418505_);}
	
		.st46{fill:none;stroke:url(#SVGID_00000042017402814844350200000008680571738910656899_);stroke-width:5;stroke-linecap:round;stroke-linejoin:round;stroke-miterlimit:10;}
	.st47{fill:url(#SVGID_00000038384163095053913660000010736890457053869473_);}
	
		.st48{fill:none;stroke:url(#SVGID_00000144305967547822610010000002130186758195675575_);stroke-width:5;stroke-linecap:round;stroke-linejoin:round;stroke-miterlimit:10;}
	.st49{fill:url(#SVGID_00000035518166336276550250000007322381232402889605_);}
	.st50{fill:url(#SVGID_00000094618655048457331790000006839669409499431613_);}
	.st51{fill:#101320;}
	.st52{fill:url(#SVGID_00000111888575675062288410000004285856243588585095_);}
	.st53{fill:url(#SVGID_00000085229065524736257500000000861916852426357136_);}
	.st54{fill:url(#SVGID_00000023274495656714487890000016627749041641516724_);}
	.st55{fill:url(#SVGID_00000080909736168055267840000001592249303293710479_);}
	.st56{fill:url(#SVGID_00000067931237496796878230000011828162882079724689_);}
	.st57{fill:url(#SVGID_00000072992047851513521670000016389945751581341344_);}
	.st58{opacity:0.29;fill:url(#SVGID_00000113314408364241706960000013204143202925245083_);enable-background:new    ;}
	.st59{fill:url(#SVGID_00000110449457405906972900000012354514806573024149_);}
	.st60{fill:url(#SVGID_00000065770563512395969970000018125260185679006594_);}
	.st61{fill:url(#SVGID_00000125597855662249810970000001439625074001226393_);}
	.st62{fill-rule:evenodd;clip-rule:evenodd;fill:url(#SVGID_00000021110906822793916640000013975609329500610985_);}
	.st63{fill:url(#SVGID_00000015333114026212642520000017881249819564643760_);}
	.st64{fill:url(#SVGID_00000053505548290258071960000000832944858113713070_);}
	.st65{fill:url(#SVGID_00000075857362921960287040000000821207181756720271_);}
	.st66{fill:url(#SVGID_00000075161245290874968650000017254496703134533800_);}
	.st67{opacity:0.29;fill:url(#SVGID_00000116222611589743363770000001268552652274623119_);enable-background:new    ;}
	
		.st68{fill:none;stroke:url(#SVGID_00000055683560024815873570000006921366790447201196_);stroke-width:5;stroke-linecap:round;stroke-linejoin:round;stroke-miterlimit:10;}
	.st69{fill:url(#SVGID_00000128466311759702477170000006338356238312092583_);}
	
		.st70{fill:none;stroke:url(#SVGID_00000107575025969960433500000003530114277616618164_);stroke-width:5;stroke-linecap:round;stroke-linejoin:round;stroke-miterlimit:10;}
	.st71{fill:url(#SVGID_00000180352411937846767100000008158478352665985153_);}
	
		.st72{fill:none;stroke:url(#SVGID_00000132775967513197251790000007404345453444003471_);stroke-width:5;stroke-linecap:round;stroke-linejoin:round;stroke-miterlimit:10;}
	.st73{fill:url(#SVGID_00000055674632187684214670000018348843442114325162_);}
	.st74{fill-rule:evenodd;clip-rule:evenodd;fill:url(#SVGID_00000003812524853340600490000017196404010193317010_);}
	.st75{fill:url(#SVGID_00000180368036292170790020000017448471450033878429_);}
	.st76{fill:url(#SVGID_00000123435099997613879900000017507379731411437190_);}
	.st77{fill:url(#SVGID_00000176756296124403133370000004904560321681643681_);}
	.st78{opacity:0.29;fill:url(#SVGID_00000092452405676646330580000007760991726678546875_);}
	.st79{opacity:0.29;fill:url(#SVGID_00000056422686412035962630000011325705853100722821_);}
	.st80{opacity:0.67;fill:url(#SVGID_00000018229047004021414920000016399376034762769802_);}
	.st81{fill:#3FA9BD;}
	.st82{fill:url(#SVGID_00000015333320903685806170000007589606911160293308_);}
	.st83{fill-rule:evenodd;clip-rule:evenodd;fill:#555069;}
	.st84{fill-rule:evenodd;clip-rule:evenodd;fill:#FFFFFF;}
	.st85{fill-rule:evenodd;clip-rule:evenodd;fill:#AFAFB1;}
	.st86{fill-rule:evenodd;clip-rule:evenodd;fill:#D3D3D3;}
	.st87{opacity:0.67;fill:url(#SVGID_00000039101025868448825140000008962336690521402263_);}
	.st88{fill:url(#SVGID_00000013181570279759199120000015323128424624548783_);}
	.st89{opacity:0.67;fill:url(#SVGID_00000008839678829471508430000002801160404632777606_);}
	.st90{fill:url(#SVGID_00000059278438057567864980000001530041562309595790_);}
	.st91{opacity:0.67;fill:url(#SVGID_00000145027497435695613110000012458872799625867445_);}
	.st92{fill:url(#SVGID_00000093880258631394569660000013635761261817178046_);}
	.st93{opacity:0.67;fill:url(#SVGID_00000026151284528146284570000004181809091623450010_);}
	.st94{fill:url(#SVGID_00000055676139315085001380000011332361354131924867_);}
	.st95{opacity:0.67;fill:url(#SVGID_00000156571591515256273010000000382798318141294235_);}
	.st96{fill:url(#SVGID_00000103972910721847855500000011386763994076099494_);}
	.st97{fill:#1AD4B3;}
	.st98{opacity:0.67;fill:url(#SVGID_00000029046379296659305850000003258717096371216308_);}
	.st99{fill:url(#SVGID_00000176726283984877752260000007066061352186337696_);}
	.st100{opacity:0.67;fill:url(#SVGID_00000003785160554485661750000013688807821729115838_);}
	.st101{fill:url(#SVGID_00000174567756327953840860000001606115450960287616_);}
	.st102{opacity:0.67;fill:url(#SVGID_00000085932321787080155890000016431993818092337568_);}
	.st103{fill:url(#SVGID_00000162323776277088001560000017454419545913553584_);}
	
		.st104{fill-rule:evenodd;clip-rule:evenodd;fill:none;stroke:#FFFFFF;stroke-width:0.7384;stroke-linecap:round;stroke-linejoin:round;stroke-miterlimit:10;}
	.st105{opacity:0.67;fill:url(#SVGID_00000173877043850238992250000004991232811081627570_);}
	.st106{fill:url(#SVGID_00000013160343971226997340000011825658379568104857_);}
	.st107{opacity:0.67;fill:url(#SVGID_00000124840482835428642320000009092449152972575391_);}
	.st108{fill:url(#SVGID_00000155832015916746779680000009097044537255667364_);}
	.st109{opacity:0.67;fill:url(#SVGID_00000005978052625700528950000003337747239687483577_);}
	.st110{fill:url(#SVGID_00000106847115274385520830000015538174629402418361_);}
	.st111{opacity:0.67;fill:url(#SVGID_00000075841224265259661270000010329705649438041777_);}
	.st112{fill:url(#SVGID_00000181046904655920343610000001694272509113568669_);}
	.st113{opacity:0.67;fill:url(#SVGID_00000018947880848030838190000015413724821619464111_);}
	.st114{fill:url(#SVGID_00000155844866163013984650000017378062335961345469_);}
	.st115{opacity:0.67;fill:url(#SVGID_00000017498087153922455880000016371618742724365474_);}
	.st116{fill:url(#SVGID_00000037685178746678573100000002008073741776867749_);}
	.st117{opacity:0.67;fill:url(#SVGID_00000173845101944336735010000015053941069327859335_);}
	.st118{fill:url(#SVGID_00000154403313731900033970000007543229641013931398_);}
	.st119{opacity:0.67;fill:url(#SVGID_00000168101702287689668750000007404096327738552750_);}
	.st120{fill:url(#SVGID_00000007415799679236739110000004831029887626449819_);}
	.st121{opacity:0.67;fill:url(#SVGID_00000115497407409342358730000010544352565288813713_);}
	.st122{fill:url(#SVGID_00000083055105989933838640000013323303129671694731_);}
	.st123{opacity:0.67;fill:url(#SVGID_00000170984734507920359830000007863826043155916675_);}
	.st124{fill:url(#SVGID_00000090262519316692928780000007162156227975754123_);}
	.st125{opacity:0.67;fill:url(#SVGID_00000128474359020775635760000003241989239198528135_);}
	.st126{fill:url(#SVGID_00000183968761146191440380000011163749747878861495_);}
	.st127{opacity:0.67;fill:url(#SVGID_00000071533423402319530600000007030108198782789801_);}
	.st128{fill:#5EA6B9;}
	.st129{fill:url(#SVGID_00000152977148779771882610000008086996023635037060_);}
	.st130{fill-rule:evenodd;clip-rule:evenodd;fill:#545067;}
	.st131{fill-rule:evenodd;clip-rule:evenodd;fill:#AEAEB0;}
	.st132{fill-rule:evenodd;clip-rule:evenodd;fill:#D2D2D2;}
	.st133{opacity:0.67;fill:url(#SVGID_00000046313357423519934370000011121886665936342664_);}
	.st134{fill:url(#SVGID_00000001654978708312102970000003563686536477225884_);}
	.st135{fill-rule:evenodd;clip-rule:evenodd;fill:#63D0B3;}
	
		.st136{fill-rule:evenodd;clip-rule:evenodd;fill:none;stroke:#111422;stroke-linecap:round;stroke-linejoin:round;stroke-miterlimit:10;}
	.st137{fill-rule:evenodd;clip-rule:evenodd;fill:#E85C83;}
	.st138{fill:#5DC29D;}
	.st139{fill:url(#SVGID_00000026121256198699762060000004673657077093540017_);}
	.st140{fill:url(#SVGID_00000121249669761549328970000006911364855988846998_);}
	.st141{fill:#E85C83;}
	.st142{opacity:0.67;fill:url(#SVGID_00000107567849676069743590000007458444843517765530_);}
	.st143{fill:url(#SVGID_00000152261406988178207980000002744335868393124227_);}
	
		.st144{fill:none;stroke:url(#SVGID_00000064332926595844215760000006106071298046388385_);stroke-width:5;stroke-linecap:round;stroke-linejoin:round;stroke-miterlimit:10;}
	.st145{fill:url(#SVGID_00000070833541770428735430000004330918971215629200_);}
	.st146{opacity:0.67;fill:url(#SVGID_00000048472090677185045430000017398477631136884889_);}
	.st147{fill:url(#SVGID_00000095325505504017875700000003793441739429946555_);}
	.st148{opacity:0.67;fill:url(#SVGID_00000123423628566739775660000007863787703246676133_);}
	.st149{fill:url(#SVGID_00000174587306889669708950000006881824540360729220_);}
	.st150{opacity:0.67;fill:url(#SVGID_00000181768834402704045450000009285922625827875775_);}
	.st151{fill:url(#SVGID_00000097473100569587638150000012954948871487044789_);}
	.st152{opacity:0.67;fill:url(#SVGID_00000079464414108992381270000016271443163933407379_);}
	.st153{fill:url(#SVGID_00000096047303402861522290000005933462576795272118_);}
	.st154{opacity:0.67;fill:url(#SVGID_00000058548602273166596380000013116008941265136312_);}
	.st155{fill:url(#SVGID_00000032606690125536021670000008615478496969544342_);}
	.st156{opacity:0.67;fill:url(#SVGID_00000121963318159814943270000001474705383384880794_);}
	.st157{fill:url(#SVGID_00000096781322955863131380000015874377009626927009_);}
	.st158{fill:none;stroke:#000000;stroke-width:22;stroke-linecap:round;stroke-linejoin:round;stroke-miterlimit:10;}
	.st159{fill:#ECF0FC;}
	.st160{fill:url(#SVGID_00000039133697818224734320000013852724624692277909_);}
	.st161{fill:url(#SVGID_00000064322429908793469650000005448077477347803557_);}
	.st162{fill:none;stroke:url(#SVGID_00000031184092373852607990000006627982960610705561_);stroke-width:5;stroke-miterlimit:10;}
	.st163{fill:#111422;}
	.st164{fill:url(#SVGID_00000142885481750377818800000010846359889845739444_);}
	.st165{fill:none;}
	.st166{opacity:0.67;fill:url(#SVGID_00000173873771908796123680000014494111522554257848_);}
	.st167{fill:url(#SVGID_00000172409449740957988590000011817286359571120809_);}
	.st168{fill:none;stroke:url(#SVGID_00000034079466431705552570000000809973742073227959_);stroke-width:5;stroke-miterlimit:10;}
	.st169{fill:url(#SVGID_00000052806527417014478210000013764699948215795371_);}
	.st170{opacity:0.67;fill:url(#SVGID_00000078737013390470597280000010239572929779204020_);}
	.st171{fill:url(#SVGID_00000099627259631894001110000004541401093524334995_);}
	.st172{opacity:0.67;fill:url(#SVGID_00000181076275416872110120000007602063402762125234_);}
	.st173{fill:url(#SVGID_00000103227887359156340440000009856236757337901219_);}
</style>
<g>
	<circle class="st0" cx="144.67" cy="70.24" r="26.03"/>
	<g>
		<g>
			<path class="st1" d="M138.21,43.43l-0.01,10.81c-0.33,1.38,0.28,2.85,1.82,3.91c2.54,1.76,6.66,1.76,9.2,0
				c1.08-0.75,1.7-1.69,1.86-2.67l0.04,0l0-0.45c0-0.04,0-0.09,0-0.13l0.01-11.18L138.21,43.43z"/>
			<path class="st1" d="M138.26,51.16c0,2.45,2.87,4.43,6.41,4.43s6.41-1.98,6.41-4.43"/>
			<path class="st1" d="M138.26,47.77c0,2.45,2.87,4.43,6.41,4.43s6.41-1.98,6.41-4.43"/>
			<path class="st1" d="M138.26,44.21c0,2.45,2.87,4.43,6.41,4.43s6.41-1.98,6.41-4.43"/>
		</g>
		<g>
			<path class="st1" d="M138.21,32.75l-0.01,10.81c-0.33,1.38,0.28,2.85,1.82,3.91c2.54,1.76,6.66,1.76,9.2,0
				c1.08-0.75,1.7-1.69,1.86-2.67l0.04,0l0-0.45c0-0.04,0-0.09,0-0.13l0.01-11.18L138.21,32.75z"/>
			<path class="st1" d="M138.26,40.49c0,2.45,2.87,4.43,6.41,4.43s6.41-1.98,6.41-4.43"/>
			<path class="st1" d="M138.26,37.1c0,2.45,2.87,4.43,6.41,4.43s6.41-1.98,6.41-4.43"/>
			<path class="st1" d="M138.26,33.54c0,2.45,2.87,4.43,6.41,4.43s6.41-1.98,6.41-4.43"/>
		</g>
	</g>
	<g>
		<g>
			<g>
				<polygon class="st2" points="144.27,48.55 126.46,38.27 126.46,20.45 144.27,30.74 				"/>
				<polygon class="st3" points="144.27,48.55 162.09,38.27 162.09,20.45 144.27,30.74 				"/>
				<polygon class="st4" points="144.34,30.79 126.46,20.47 144.21,10.13 162.09,20.45 				"/>
				<line class="st4" x1="139.18" y1="24.95" x2="136.91" y2="23.67"/>
			</g>
			<path id="矩形_00000152965764248126467160000011031630007989843329_" class="st5" d="M138.69,15.45L138.69,15.45
				c0.35,0.2,0.29,0.58-0.12,0.83l-3.7,2.19c-0.42,0.25-1.08,0.29-1.43,0.09l0,0c-0.35-0.2-0.29-0.58,0.12-0.83l3.7-2.19
				C137.68,15.29,138.34,15.25,138.69,15.45z"/>
			<path id="矩形_00000002355749646748791350000001255618378847473029_" class="st5" d="M131.99,19.41L131.99,19.41
				c0.35,0.2,0.29,0.58-0.12,0.83l-0.72,0.42c-0.42,0.25-1.08,0.29-1.43,0.09l0,0c-0.35-0.2-0.29-0.58,0.12-0.83l0.72-0.42
				C131.02,19.24,131.64,19.21,131.99,19.41z"/>
		</g>
	</g>
</g>
<g>
	<circle class="st0" cx="263.33" cy="58.37" r="17.42"/>
	<g>
		<g>
			<path class="st1" d="M259,40.43l0,7.23c-0.22,0.92,0.19,1.91,1.22,2.62c1.7,1.18,4.46,1.18,6.16,0c0.72-0.5,1.14-1.13,1.25-1.79
				l0.03,0l0-0.3c0-0.03,0-0.06,0-0.09l0-7.49L259,40.43z"/>
			<path class="st1" d="M259.04,45.6c0,1.64,1.92,2.97,4.29,2.97c2.37,0,4.29-1.33,4.29-2.97"/>
			<path class="st1" d="M259.04,43.33c0,1.64,1.92,2.97,4.29,2.97c2.37,0,4.29-1.33,4.29-2.97"/>
			<path class="st1" d="M259.04,40.95c0,1.64,1.92,2.97,4.29,2.97c2.37,0,4.29-1.33,4.29-2.97"/>
		</g>
		<g>
			<path class="st1" d="M259,33.28l0,7.23c-0.22,0.92,0.19,1.91,1.22,2.62c1.7,1.18,4.46,1.18,6.16,0c0.72-0.5,1.14-1.13,1.25-1.79
				l0.03,0l0-0.3c0-0.03,0-0.06,0-0.09l0-7.49L259,33.28z"/>
			<path class="st1" d="M259.04,38.46c0,1.64,1.92,2.97,4.29,2.97c2.37,0,4.29-1.33,4.29-2.97"/>
			<path class="st1" d="M259.04,36.19c0,1.64,1.92,2.97,4.29,2.97c2.37,0,4.29-1.33,4.29-2.97"/>
			<path class="st1" d="M259.04,33.8c0,1.64,1.92,2.97,4.29,2.97c2.37,0,4.29-1.33,4.29-2.97"/>
		</g>
	</g>
	<g>
		<g>
			<g>
				<polygon class="st2" points="263.06,43.86 251.14,36.97 251.14,25.05 263.06,31.93 				"/>
				<polygon class="st3" points="263.06,43.86 274.99,36.97 274.99,25.05 263.06,31.93 				"/>
				<polygon class="st4" points="263.11,31.97 251.14,25.06 263.02,18.13 274.99,25.05 				"/>
			</g>
			<path id="矩形_00000166660472728042455160000006390938585935435430_" class="st5" d="M259.43,21.56L259.43,21.56
				c0.23,0.13,0.2,0.39-0.08,0.55l-2.47,1.46c-0.28,0.17-0.72,0.19-0.95,0.06l0,0c-0.23-0.13-0.2-0.39,0.08-0.55l2.47-1.46
				C258.75,21.46,259.19,21.43,259.43,21.56z"/>
			<path id="矩形_00000049219093032399326050000013220863242366967943_" class="st5" d="M254.95,24.22L254.95,24.22
				c0.23,0.13,0.2,0.39-0.08,0.55l-0.48,0.28c-0.28,0.17-0.72,0.19-0.95,0.06l0,0c-0.23-0.13-0.2-0.39,0.08-0.55l0.48-0.28
				C254.29,24.1,254.71,24.08,254.95,24.22z"/>
		</g>
	</g>
</g>
<g>
	<g>
		<polygon class="st3" points="263.04,134.31 209.25,165.04 209.5,185.84 263.16,155.31 		"/>
		<polygon class="st2" points="168.54,142.36 209.25,164.98 209.5,185.84 168.79,163.23 		"/>
		<polygon class="st4" points="263.1,134.37 221.86,111.35 168.54,142.36 209.25,165.18 		"/>
	</g>
	<circle class="st0" cx="213.14" cy="111.2" r="41.04"/>
	<g>
		<g>
			<path class="st1" d="M202.96,68.92l-0.01,17.04c-0.52,2.18,0.44,4.49,2.87,6.17c4.01,2.77,10.5,2.77,14.51,0
				c1.7-1.18,2.68-2.67,2.94-4.21l0.07,0l0-0.71c0-0.07,0-0.14,0-0.21l0.01-17.63L202.96,68.92z"/>
			<path class="st1" d="M203.04,81.11c0,3.86,4.52,6.99,10.11,6.99s10.11-3.13,10.11-6.99"/>
			<path class="st1" d="M203.04,75.77c0,3.86,4.52,6.99,10.11,6.99s10.11-3.13,10.11-6.99"/>
			<path class="st1" d="M203.04,70.15c0,3.86,4.52,6.99,10.11,6.99s10.11-3.13,10.11-6.99"/>
		</g>
		<g>
			<path class="st1" d="M202.96,52.09l-0.01,17.04c-0.52,2.18,0.44,4.49,2.87,6.17c4.01,2.77,10.5,2.77,14.51,0
				c1.7-1.18,2.68-2.67,2.94-4.21l0.07,0l0-0.71c0-0.07,0-0.14,0-0.21l0.01-17.63L202.96,52.09z"/>
			<path class="st1" d="M203.04,64.28c0,3.86,4.52,6.99,10.11,6.99s10.11-3.13,10.11-6.99"/>
			<path class="st1" d="M203.04,58.94c0,3.86,4.52,6.99,10.11,6.99s10.11-3.13,10.11-6.99"/>
			<path class="st1" d="M203.04,53.32c0,3.86,4.52,6.99,10.11,6.99s10.11-3.13,10.11-6.99"/>
		</g>
	</g>
	<g>
		<g>
			<g>
				<polygon class="st2" points="212.52,77 184.43,60.78 184.43,32.69 212.52,48.91 				"/>
				<polygon class="st3" points="212.52,77 240.61,60.78 240.61,32.69 212.52,48.91 				"/>
				<polygon class="st4" points="212.62,49 184.43,32.72 212.42,16.41 240.62,32.69 				"/>
			</g>
			<path id="矩形_00000178186072847615939980000011149566003582114227_" class="st5" d="M203.53,25.04L203.53,25.04
				c0.55,0.31,0.46,0.92-0.2,1.31l-5.83,3.45c-0.66,0.39-1.7,0.45-2.25,0.14l0,0c-0.55-0.31-0.46-0.92,0.2-1.31l5.83-3.45
				C201.94,24.79,202.98,24.73,203.53,25.04z"/>
			<path id="矩形_00000088853396447638292960000003891092818737782933_" class="st5" d="M192.98,31.29L192.98,31.29
				c0.55,0.31,0.46,0.92-0.2,1.31l-1.13,0.67c-0.66,0.39-1.7,0.45-2.25,0.14l0,0c-0.55-0.31-0.46-0.92,0.2-1.31l1.13-0.67
				C191.43,31.01,192.42,30.97,192.98,31.29z"/>
		</g>
	</g>
	<g>
		<g>
			<path class="st0" d="M217.3,175.3v-8.95l2.53-1.5c0.49-0.29,0.9-0.41,1.24-0.35c0.34,0.05,0.6,0.26,0.79,0.61
				c0.18,0.35,0.27,0.82,0.27,1.41c0,0.59-0.09,1.17-0.28,1.74c-0.18,0.56-0.45,1.07-0.8,1.53c-0.35,0.46-0.77,0.84-1.26,1.13
				l-1.61,0.96v-1.52l1.39-0.83c0.26-0.15,0.48-0.35,0.65-0.57c0.17-0.23,0.3-0.48,0.38-0.76c0.08-0.28,0.13-0.56,0.13-0.85
				c0-0.3-0.04-0.53-0.13-0.71c-0.08-0.17-0.21-0.27-0.38-0.29c-0.17-0.02-0.39,0.04-0.65,0.2l-0.91,0.54v7.4L217.3,175.3z"/>
			<path class="st0" d="M222.99,171.93v-6.71l1.29-0.77v1.17l0.05-0.03c0.09-0.47,0.23-0.87,0.44-1.21
				c0.21-0.34,0.44-0.58,0.71-0.74c0.07-0.04,0.14-0.08,0.22-0.11c0.08-0.03,0.15-0.06,0.2-0.07v1.65
				c-0.06,0.01-0.15,0.04-0.26,0.08c-0.11,0.04-0.21,0.09-0.3,0.15c-0.2,0.12-0.37,0.28-0.53,0.49c-0.15,0.21-0.27,0.44-0.36,0.71
				c-0.09,0.26-0.13,0.53-0.13,0.8v3.8L222.99,171.93z"/>
			<path class="st0" d="M228.54,168.77c-0.49,0.29-0.91,0.39-1.26,0.31c-0.35-0.08-0.63-0.32-0.82-0.73
				c-0.19-0.41-0.29-0.95-0.29-1.64c0-0.69,0.1-1.36,0.29-1.99c0.19-0.63,0.47-1.2,0.82-1.7c0.35-0.5,0.77-0.89,1.26-1.18
				c0.49-0.29,0.91-0.39,1.26-0.31c0.35,0.08,0.63,0.32,0.82,0.73c0.19,0.41,0.29,0.96,0.29,1.65c0,0.69-0.1,1.35-0.29,1.98
				c-0.19,0.63-0.47,1.2-0.82,1.7C229.45,168.09,229.03,168.48,228.54,168.77z M228.55,167.32c0.22-0.13,0.41-0.33,0.55-0.59
				c0.15-0.26,0.26-0.57,0.34-0.92s0.11-0.72,0.11-1.11s-0.04-0.72-0.11-0.98s-0.19-0.44-0.34-0.53c-0.15-0.09-0.33-0.07-0.55,0.06
				c-0.22,0.13-0.41,0.33-0.56,0.6c-0.15,0.27-0.27,0.58-0.34,0.93c-0.08,0.35-0.11,0.72-0.11,1.11c0,0.39,0.04,0.72,0.11,0.98
				c0.08,0.26,0.19,0.43,0.34,0.52C228.14,167.48,228.32,167.45,228.55,167.32z"/>
			<path class="st0" d="M231.78,169.23v-9.23l1.32-0.78v1.13l0.06-0.04c0.06-0.22,0.14-0.45,0.26-0.7c0.11-0.25,0.26-0.5,0.44-0.73
				c0.18-0.23,0.41-0.43,0.68-0.59c0.35-0.21,0.67-0.27,0.97-0.19c0.3,0.08,0.53,0.32,0.71,0.73c0.18,0.41,0.27,0.99,0.27,1.76
				c0,0.75-0.09,1.43-0.26,2.05c-0.17,0.62-0.41,1.14-0.7,1.58c-0.3,0.44-0.63,0.77-0.99,0.98c-0.26,0.15-0.48,0.22-0.66,0.21
				c-0.18-0.01-0.33-0.07-0.44-0.19c-0.11-0.11-0.2-0.25-0.26-0.4l-0.04,0.02v3.59L231.78,169.23z M233.09,162.59
				c0,0.4,0.04,0.72,0.12,0.97c0.08,0.25,0.19,0.41,0.34,0.49c0.15,0.07,0.33,0.05,0.55-0.08c0.22-0.13,0.4-0.32,0.55-0.58
				c0.15-0.26,0.26-0.56,0.34-0.9c0.08-0.35,0.12-0.71,0.12-1.1c0-0.39-0.04-0.71-0.12-0.95c-0.08-0.25-0.19-0.41-0.34-0.49
				c-0.15-0.08-0.33-0.05-0.55,0.08c-0.22,0.13-0.4,0.32-0.55,0.57c-0.15,0.25-0.26,0.54-0.34,0.89
				C233.13,161.82,233.09,162.19,233.09,162.59z"/>
			<path class="st0" d="M239.53,162.25c-0.49,0.29-0.91,0.39-1.26,0.31c-0.35-0.08-0.63-0.32-0.82-0.73
				c-0.19-0.41-0.29-0.95-0.29-1.64c0-0.69,0.1-1.36,0.29-1.99c0.19-0.63,0.47-1.2,0.82-1.7c0.35-0.5,0.77-0.89,1.26-1.18
				c0.49-0.29,0.91-0.39,1.26-0.31c0.35,0.08,0.63,0.32,0.82,0.73c0.19,0.41,0.29,0.96,0.29,1.65c0,0.69-0.1,1.35-0.29,1.98
				c-0.19,0.63-0.47,1.2-0.82,1.7C240.44,161.57,240.02,161.97,239.53,162.25z M239.54,160.81c0.22-0.13,0.41-0.33,0.55-0.59
				c0.15-0.26,0.26-0.57,0.34-0.92c0.08-0.35,0.11-0.72,0.11-1.11c0-0.39-0.04-0.72-0.11-0.98c-0.08-0.26-0.19-0.44-0.34-0.53
				c-0.15-0.09-0.33-0.07-0.55,0.06c-0.22,0.13-0.41,0.33-0.56,0.6c-0.15,0.27-0.27,0.58-0.34,0.93c-0.08,0.35-0.11,0.72-0.11,1.11
				c0,0.39,0.04,0.72,0.11,0.98c0.08,0.26,0.19,0.43,0.34,0.52C239.13,160.96,239.32,160.94,239.54,160.81z"/>
			<path class="st0" d="M246.78,153.03l-1.22,0.83c-0.02-0.13-0.07-0.24-0.13-0.32c-0.07-0.08-0.16-0.12-0.27-0.12
				c-0.11-0.01-0.24,0.04-0.4,0.13c-0.21,0.12-0.38,0.29-0.52,0.49c-0.14,0.21-0.21,0.41-0.21,0.61c0,0.16,0.05,0.27,0.14,0.32
				c0.09,0.06,0.25,0.05,0.47-0.01l0.87-0.27c0.47-0.14,0.82-0.13,1.05,0.03c0.23,0.16,0.34,0.48,0.34,0.97
				c0,0.44-0.09,0.88-0.28,1.32c-0.18,0.44-0.44,0.85-0.76,1.22c-0.32,0.38-0.69,0.69-1.11,0.93c-0.64,0.38-1.14,0.49-1.52,0.34
				c-0.38-0.15-0.6-0.52-0.66-1.13l1.31-0.87c0.04,0.25,0.14,0.4,0.29,0.45c0.15,0.05,0.35,0.01,0.59-0.14
				c0.23-0.14,0.42-0.31,0.57-0.53c0.14-0.21,0.22-0.42,0.22-0.62c0-0.17-0.05-0.28-0.15-0.33c-0.1-0.05-0.25-0.04-0.46,0.02
				l-0.83,0.26c-0.47,0.15-0.82,0.13-1.05-0.06c-0.23-0.19-0.34-0.53-0.34-1.03c0-0.43,0.08-0.85,0.25-1.26
				c0.17-0.41,0.4-0.79,0.71-1.14c0.31-0.35,0.66-0.65,1.08-0.89c0.61-0.36,1.09-0.46,1.44-0.31
				C246.51,152.08,246.72,152.45,246.78,153.03z"/>
			<path class="st0" d="M249.1,156.58c-0.31,0.18-0.58,0.27-0.82,0.26c-0.24-0.01-0.43-0.12-0.57-0.33
				c-0.14-0.21-0.21-0.54-0.21-0.98c0-0.37,0.05-0.72,0.15-1.03c0.1-0.31,0.23-0.59,0.4-0.85c0.17-0.25,0.36-0.49,0.58-0.69
				c0.22-0.21,0.44-0.4,0.68-0.57c0.28-0.21,0.51-0.38,0.68-0.52c0.17-0.14,0.3-0.27,0.37-0.38c0.08-0.12,0.12-0.25,0.12-0.39v-0.03
				c0-0.28-0.06-0.45-0.19-0.53c-0.12-0.08-0.3-0.05-0.53,0.09c-0.24,0.14-0.43,0.33-0.57,0.56c-0.14,0.23-0.24,0.47-0.28,0.72
				l-1.23,0.59c0.06-0.44,0.19-0.87,0.37-1.28c0.18-0.41,0.42-0.78,0.71-1.11c0.29-0.33,0.63-0.62,1.01-0.84
				c0.27-0.16,0.52-0.27,0.77-0.32c0.25-0.06,0.46-0.05,0.65,0.02c0.19,0.07,0.34,0.22,0.45,0.44c0.11,0.22,0.17,0.53,0.17,0.93
				v4.53l-1.27,0.75v-0.93l-0.04,0.02c-0.08,0.26-0.18,0.5-0.31,0.74c-0.13,0.24-0.29,0.45-0.47,0.65
				C249.55,156.27,249.34,156.44,249.1,156.58z M249.48,155.07c0.2-0.12,0.37-0.27,0.52-0.47c0.15-0.2,0.27-0.42,0.35-0.65
				c0.09-0.24,0.13-0.47,0.13-0.71v-0.71c-0.04,0.06-0.1,0.13-0.17,0.2c-0.07,0.07-0.15,0.15-0.24,0.23
				c-0.09,0.08-0.18,0.15-0.27,0.23c-0.09,0.07-0.17,0.14-0.24,0.2c-0.16,0.12-0.29,0.26-0.41,0.4c-0.12,0.14-0.21,0.29-0.27,0.44
				c-0.06,0.16-0.1,0.32-0.1,0.5c0,0.25,0.07,0.41,0.2,0.46S249.28,155.19,249.48,155.07z"/>
			<path class="st0" d="M254.18,144.49v8.95l-1.33,0.79v-8.95L254.18,144.49z"/>
		</g>
	</g>
</g>
<g>
	<polygon class="st3" points="132.63,74 22.49,136.92 22.49,195.82 132.63,132.9 	"/>
	<polygon class="st2" points="8.05,128.76 22.49,136.56 22.49,195.82 8.05,188.02 	"/>
	<polygon class="st4" points="132.63,74 117.12,65.8 8.05,128.76 22.49,136.56 	"/>
</g>
<g>
	<path class="st0" d="M46.42,148.81l-3.88,2.31c-0.03-0.5-0.1-0.93-0.22-1.28c-0.12-0.35-0.28-0.62-0.48-0.81
		c-0.2-0.18-0.45-0.27-0.74-0.27c-0.29,0-0.62,0.12-0.98,0.34c-0.64,0.38-1.18,0.96-1.63,1.72c-0.44,0.77-0.78,1.69-1,2.76
		c-0.23,1.08-0.34,2.27-0.34,3.59c0,1.39,0.12,2.49,0.35,3.28c0.23,0.8,0.57,1.3,1.01,1.51c0.44,0.21,0.97,0.13,1.59-0.24
		c0.35-0.21,0.67-0.47,0.95-0.78c0.28-0.31,0.52-0.67,0.73-1.06c0.21-0.4,0.38-0.83,0.51-1.29c0.13-0.46,0.22-0.96,0.26-1.47
		l3.88-2.27c-0.05,0.99-0.21,2.07-0.5,3.23c-0.29,1.17-0.7,2.33-1.23,3.48c-0.53,1.16-1.18,2.22-1.96,3.2
		c-0.78,0.97-1.69,1.77-2.72,2.38c-1.29,0.77-2.45,1.02-3.48,0.73c-1.02-0.28-1.83-1.12-2.43-2.5c-0.59-1.39-0.89-3.34-0.89-5.85
		c0-2.53,0.3-4.84,0.91-6.94c0.61-2.1,1.42-3.9,2.45-5.4c1.03-1.5,2.17-2.63,3.44-3.39c0.89-0.53,1.71-0.82,2.46-0.87
		c0.75-0.05,1.4,0.13,1.97,0.54c0.56,0.42,1.02,1.07,1.36,1.96C46.14,146.31,46.35,147.44,46.42,148.81z"/>
	<path class="st0" d="M48.15,161.98v-22.73l6.08-3.62c1.05-0.62,1.96-0.86,2.74-0.71c0.78,0.15,1.39,0.67,1.83,1.56
		c0.44,0.89,0.65,2.15,0.65,3.76c0,1.63-0.22,3.13-0.67,4.52c-0.45,1.38-1.07,2.6-1.88,3.65c-0.8,1.05-1.74,1.89-2.82,2.53
		l-3.63,2.16v-4.79l2.86-1.7c0.45-0.27,0.83-0.59,1.15-0.96c0.32-0.37,0.56-0.81,0.74-1.31s0.26-1.08,0.26-1.72
		c0-0.65-0.09-1.13-0.26-1.44c-0.17-0.31-0.42-0.46-0.74-0.47c-0.32,0-0.7,0.12-1.15,0.39l-1.35,0.8v17.8L48.15,161.98z
		 M56.41,146.64l3.52,8.33l-4.16,2.48l-3.44-8.38L56.41,146.64z"/>
	<path class="st0" d="M61.09,154.28v-22.73l10.15-6.05v4.97l-6.33,3.77v3.91l5.81-3.46v4.97l-5.81,3.46v3.9l6.3-3.75v4.97
		L61.09,154.28z"/>
	<path class="st0" d="M76.8,144.93l-4.13,2.46l4.65-25.5l5.23-3.11l4.65,19.96l-4.13,2.46l-3.08-14.63l-0.11,0.06L76.8,144.93z
		 M76.03,136.42l7.76-4.62v4.62l-7.76,4.62V136.42z"/>
	<path class="st0" d="M86.37,121.46v-4.97l12.24-7.29v4.97l-4.24,2.52v17.76l-3.77,2.24v-17.76L86.37,121.46z"/>
	<path class="st0" d="M100.05,131.08v-22.73l10.15-6.05v4.97l-6.33,3.77v3.91l5.81-3.46v4.97l-5.81,3.46v3.9l6.3-3.75v4.97
		L100.05,131.08z"/>
	<path class="st0" d="M117.52,120.67l-5.42,3.23v-22.73l5.37-3.2c1.45-0.86,2.7-1.16,3.76-0.88c1.06,0.28,1.87,1.09,2.45,2.45
		c0.57,1.35,0.86,3.22,0.86,5.58c0,2.37-0.29,4.57-0.86,6.61c-0.57,2.04-1.39,3.82-2.44,5.36
		C120.19,118.63,118.95,119.82,117.52,120.67z M115.93,116.38l1.46-0.87c0.7-0.42,1.29-0.95,1.79-1.61
		c0.49-0.66,0.87-1.51,1.13-2.55c0.26-1.04,0.39-2.35,0.39-3.94c0-1.58-0.13-2.74-0.4-3.47c-0.26-0.73-0.65-1.13-1.16-1.19
		c-0.51-0.06-1.13,0.13-1.86,0.57l-1.35,0.8V116.38z"/>
</g>
<polygon class="st7" points="204.48,39.78 200.91,37.76 221.67,25.51 225.25,27.53 "/>
<polygon class="st7" points="259.82,27.52 258.47,26.76 266.31,22.14 267.66,22.9 "/>
<polygon class="st7" points="139.38,24.63 137.2,23.4 149.87,15.92 152.05,17.15 "/>
<g>
	<path id="矩形_00000084504702997513236480000004359625126704803472_" class="st14" d="M172.16,217.11L172.16,217.11
		c0.62,0,1.15,0.76,1.15,1.64v1.52c0,0.88-0.53,1.64-1.15,1.64l0,0c-0.62,0-1.15-0.76-1.15-1.64v-1.52
		C171.02,217.8,171.55,217.11,172.16,217.11z"/>
	
		<radialGradient id="SVGID_1_" cx="140.6214" cy="251.2355" r="29.1582" gradientTransform="matrix(1 0 0 0.5898 0 103.0585)" gradientUnits="userSpaceOnUse">
		<stop  offset="0" style="stop-color:#B8B3D4"/>
		<stop  offset="0.3457" style="stop-color:#BAB6D6;stop-opacity:0.6543"/>
		<stop  offset="0.6064" style="stop-color:#C2C0DA;stop-opacity:0.3936"/>
		<stop  offset="0.8384" style="stop-color:#D0D0E3;stop-opacity:0.1616"/>
		<stop  offset="1" style="stop-color:#DDE0EB;stop-opacity:0"/>
	</radialGradient>
	<path style="opacity:0.67;fill:url(#SVGID_1_);" d="M165.62,237.16c-13.68-7.9-35.96-8-49.77-0.23s-13.91,20.48-0.23,28.37
		s35.96,8,49.77,0.23C179.19,257.76,179.3,245.06,165.62,237.16z"/>
	<g>
		<path class="st81" d="M179.12,201.13v-49.28c0-0.23,0.02-0.45,0.02-0.68c0-22.91-18.57-41.48-41.48-41.48
			c-22.91,0-41.48,18.57-41.48,41.48c0,0.36,0.02,0.72,0.03,1.07v44.66h-0.03v22.67c0,2.84,2.3,5.15,5.15,5.15
			c2.84,0,5.15-2.31,5.15-5.15v-0.83c0.56,0.36,1.13,0.72,1.74,1.07c1.83,1.06,3.79,1.99,5.85,2.81v8.2c0,2.84,2.3,5.15,5.15,5.15
			c2.84,0,5.15-2.31,5.15-5.15v-5.23c2.95,0.57,5.99,0.96,9.06,1.14v12.59c0,2.84,2.3,5.15,5.15,5.15s5.15-2.31,5.15-5.15v-12.7
			c3.39-0.28,6.73-0.8,9.93-1.55v6.36c0,2.84,2.3,5.15,5.15,5.15s5.15-2.31,5.15-5.15v-9.87c1-0.47,1.97-0.96,2.91-1.49
			c0.7-0.39,1.35-0.8,1.99-1.21v0.71c0,2.84,2.3,5.15,5.15,5.15c2.84,0,5.15-2.31,5.15-5.15v-18.45H179.12z"/>
		
			<radialGradient id="SVGID_00000043443591912523993680000005041332297090420412_" cx="162.3441" cy="127.1149" r="106.6854" gradientUnits="userSpaceOnUse">
			<stop  offset="0.0124" style="stop-color:#DD78CE"/>
			<stop  offset="0.4936" style="stop-color:#A7589A"/>
			<stop  offset="0.5829" style="stop-color:#A0619E"/>
			<stop  offset="0.7273" style="stop-color:#8E79A8"/>
			<stop  offset="0.9078" style="stop-color:#709FB9"/>
			<stop  offset="1" style="stop-color:#5EB6C3"/>
		</radialGradient>
		<path style="fill:url(#SVGID_00000043443591912523993680000005041332297090420412_);" d="M179.12,201.13v-49.28
			c0-0.23,0.02-0.45,0.02-0.68c0-22.91-18.57-41.48-41.48-41.48c-22.91,0-41.48,18.57-41.48,41.48c0,0.36,0.02,0.72,0.03,1.07v44.66
			h-0.03v22.67c0,2.84,2.3,5.15,5.15,5.15c2.84,0,5.15-2.31,5.15-5.15v-0.83c0.56,0.36,1.13,0.72,1.74,1.07
			c1.83,1.06,3.79,1.99,5.85,2.81v8.2c0,2.84,2.3,5.15,5.15,5.15c2.84,0,5.15-2.31,5.15-5.15v-5.23c2.95,0.57,5.99,0.96,9.06,1.14
			v12.59c0,2.84,2.3,5.15,5.15,5.15s5.15-2.31,5.15-5.15v-12.7c3.39-0.28,6.73-0.8,9.93-1.55v6.36c0,2.84,2.3,5.15,5.15,5.15
			s5.15-2.31,5.15-5.15v-9.87c1-0.47,1.97-0.96,2.91-1.49c0.7-0.39,1.35-0.8,1.99-1.21v0.71c0,2.84,2.3,5.15,5.15,5.15
			c2.84,0,5.15-2.31,5.15-5.15v-18.45H179.12z"/>
	</g>
	<path id="矩形_00000016043104623333237190000010570770267099354502_" class="st14" d="M100.07,187.29L100.07,187.29
		c1.12,0,2.09,1.38,2.09,2.99v14.25c0,1.61-0.96,2.99-2.09,2.99l0,0c-1.12,0-2.09-1.38-2.09-2.99v-14.25
		C97.99,188.67,98.95,187.29,100.07,187.29z"/>
	<path id="矩形_00000099658289803915729110000009044373341090548924_" class="st14" d="M161.37,124.2L161.37,124.2
		c1.37-1.02,3.68-0.37,5.02,1.41l2.29,3.06c1.34,1.78,1.31,4.19-0.06,5.22l0,0c-1.37,1.02-3.68,0.37-5.02-1.41l-2.29-3.06
		C159.88,127.5,160.01,125.23,161.37,124.2z"/>
	<path id="矩形_00000116216256615982617900000001217316259095205814_" class="st14" d="M117.47,223.88L117.47,223.88
		c1.12,0,2.09,1.38,2.09,2.99v2.76c0,1.61-0.96,2.99-2.09,2.99l0,0c-1.12,0-2.09-1.38-2.09-2.99v-2.76
		C115.38,225.14,116.35,223.88,117.47,223.88z"/>
	<path id="矩形_00000013152885558241464630000017085390915233020578_" class="st14" d="M99.82,213.08L99.82,213.08
		c1.12,0,2.09,1.38,2.09,2.99v2.76c0,1.61-0.96,2.99-2.09,2.99l0,0c-1.12,0-2.09-1.38-2.09-2.99v-2.76
		C97.74,214.34,98.7,213.08,99.82,213.08z"/>
	<path id="矩形_00000086653869636410071550000011787781494112990897_" class="st14" d="M137.66,232.62L137.66,232.62
		c1.12,0,2.09,1.38,2.09,2.99v2.76c0,1.61-0.96,2.99-2.09,2.99l0,0c-1.12,0-2.09-1.38-2.09-2.99v-2.76
		C135.57,233.88,136.54,232.62,137.66,232.62z"/>
	<path id="矩形_00000181050918601832270680000002282361696161209272_" class="st14" d="M157.36,227.27L157.36,227.27
		c0.89,0,1.66,1.1,1.66,2.37v2.19c0,1.28-0.76,2.37-1.66,2.37l0,0c-0.89,0-1.66-1.1-1.66-2.37v-2.19
		C155.7,228.28,156.47,227.27,157.36,227.27z"/>
	<g>
		<path id="椭圆形_00000033343500794054934110000001822094218464126642_" class="st83" d="M147.67,182.16
			c4.06-0.17,7.1-3.66,7.09-6c0-0.94-0.55-1.75-1.38-1.81c-1.29-0.13-3.23,0.7-5.72,0.8c-2.31,0.1-3.78-0.5-5.53-0.42
			c-1.84,0.08-1.75,2.22-1.47,3.06C141.3,180.09,143.52,182.33,147.67,182.16z"/>
		<path id="椭圆形_00000183939295864262813280000003955668878329510591_" class="st84" d="M147.76,180.19
			c4.15-0.17,7.19-3.38,7.19-5.63c0-0.84-0.55-1.57-1.38-1.63c-1.29-0.13-3.32,0.7-5.81,0.8c-2.4,0.1-3.78-0.5-5.62-0.43
			s-1.75,2.13-1.48,2.87C141.3,178.3,143.61,180.36,147.76,180.19z"/>
	</g>
	<g>
		
			<ellipse transform="matrix(0.5671 -0.8237 0.8237 0.5671 -74.1156 176.3792)" class="st84" cx="130.72" cy="158.69" rx="9.5" ry="9.1"/>
		<path id="形状结合_00000002344210047940911030000009532115132819020971_" class="st85" d="M131.92,148.73
			c4.24-0.18,7.66,3.98,7.66,9.22c0,0.19,0,0.37,0,0.56l0,0.56c0-5.33-3.33-9.59-7.48-9.42c-4.15,0.17-7.46,4.61-7.46,10.04
			c0,1.03,0.09,2.05,0.37,2.98c-0.46-1.2-0.74-2.59-0.74-3.99C124.27,153.35,127.68,148.9,131.92,148.73z"/>
		<path id="形状结合_00000165223589190249591860000001051174602746959035_" class="st86" d="M131.92,147.6
			c4.7-0.2,8.58,4.41,8.58,10.31c0.01,5.89-3.86,10.83-8.57,11.02c-4.7,0.2-8.58-4.41-8.58-10.31
			C123.35,152.73,127.12,147.8,131.92,147.6z M131.92,148.73c-4.24,0.18-7.65,4.62-7.64,9.86c0,5.24,3.42,9.4,7.66,9.22
			c4.24-0.18,7.65-4.62,7.64-9.86C139.58,152.71,136.07,148.55,131.92,148.73z"/>
	</g>
	<g>
		
			<ellipse transform="matrix(0.5671 -0.8237 0.8237 0.5671 -59.6804 201.0825)" class="st84" cx="161.44" cy="157.31" rx="9.5" ry="9.1"/>
		<path id="形状结合_00000027564243935782100600000006492101382301278908_" class="st85" d="M162.43,147.35
			c4.24-0.18,7.66,3.98,7.66,9.22c0,0.19,0,0.37,0,0.56l0,0.56c0-5.33-3.33-9.59-7.48-9.42c-4.15,0.17-7.46,4.61-7.46,10.04
			c0,1.03,0.09,2.05,0.37,2.98c-0.46-1.2-0.74-2.59-0.74-3.99C154.78,151.98,158.19,147.53,162.43,147.35z"/>
		<path id="形状结合_00000111193413202286934280000013907302264942872220_" class="st86" d="M162.43,146.23
			c4.7-0.2,8.58,4.41,8.58,10.31s-3.86,10.83-8.57,11.02s-8.58-4.41-8.58-10.31C153.86,151.36,157.64,146.43,162.43,146.23z
			 M162.43,147.35c-4.24,0.18-7.65,4.62-7.64,9.86s3.42,9.4,7.66,9.22c4.24-0.18,7.65-4.62,7.64-9.86
			C170.09,151.34,166.58,147.18,162.43,147.35z"/>
	</g>
	<circle class="st83" cx="130.72" cy="158.69" r="3.77"/>
	<circle class="st83" cx="161.27" cy="157.56" r="3.77"/>
</g>
</svg>
