<?xml version="1.0" encoding="utf-8"?>
<!-- Generator: Adobe Illustrator 27.8.1, SVG Export Plug-In . SVG Version: 6.00 Build 0)  -->
<svg version="1.1" id="Слой_1" xmlns="http://www.w3.org/2000/svg" xmlns:xlink="http://www.w3.org/1999/xlink" x="0px" y="0px"
	 viewBox="0 0 290 269.62" style="enable-background:new 0 0 290 269.62;" xml:space="preserve">
<style type="text/css">
	.st0{stroke:#000000;stroke-linecap:round;stroke-linejoin:round;stroke-miterlimit:10;}
	.st1{fill:#222846;stroke:#000000;stroke-linecap:round;stroke-linejoin:round;stroke-miterlimit:10;}
	.st2{fill-rule:evenodd;clip-rule:evenodd;stroke:#000000;stroke-linecap:round;stroke-linejoin:round;stroke-miterlimit:10;}
	
		.st3{fill-rule:evenodd;clip-rule:evenodd;fill:#222846;stroke:#000000;stroke-linecap:round;stroke-linejoin:round;stroke-miterlimit:10;}
	
		.st4{fill-rule:evenodd;clip-rule:evenodd;fill:#4A5479;stroke:#000000;stroke-linecap:round;stroke-linejoin:round;stroke-miterlimit:10;}
	.st5{fill-rule:evenodd;clip-rule:evenodd;fill:#5C6A91;}
	.st6{fill:#6D75A2;}
	.st7{stroke:#1A213A;stroke-linecap:round;stroke-linejoin:round;stroke-miterlimit:10;}
	.st8{stroke:#4A5479;stroke-linecap:round;stroke-linejoin:round;stroke-miterlimit:10;}
	.st9{fill:url(#SVGID_1_);}
	.st10{fill:url(#SVGID_00000044893466685496611400000009432079729788504753_);}
	.st11{fill:url(#SVGID_00000055666843159208378890000005648331034990712492_);}
	
		.st12{fill:none;stroke:url(#SVGID_00000115481405002615181170000013984870963759898030_);stroke-width:5;stroke-linecap:round;stroke-linejoin:round;stroke-miterlimit:10;}
	.st13{fill:url(#SVGID_00000150101246343766943570000005218988720351009937_);}
	.st14{fill-rule:evenodd;clip-rule:evenodd;fill:#1AD4B3;}
	.st15{fill-rule:evenodd;clip-rule:evenodd;fill:#FC4F83;}
	.st16{fill:#4A5479;stroke:#000000;stroke-linecap:round;stroke-linejoin:round;stroke-miterlimit:10;}
	
		.st17{fill:url(#SVGID_00000002351590571752664900000013852972727448171922_);stroke:#1D1D1B;stroke-width:0.2115;stroke-linecap:round;stroke-linejoin:round;stroke-miterlimit:10;}
	.st18{fill-rule:evenodd;clip-rule:evenodd;}
	
		.st19{fill:url(#SVGID_00000070835533848395380290000013617820515852152468_);stroke:#1D1D1B;stroke-width:0.2115;stroke-linecap:round;stroke-linejoin:round;stroke-miterlimit:10;}
	
		.st20{fill:url(#SVGID_00000101084907913652459430000011300158932886153897_);stroke:#1D1D1B;stroke-width:0.2115;stroke-linecap:round;stroke-linejoin:round;stroke-miterlimit:10;}
	
		.st21{fill:url(#SVGID_00000014601865804010820340000006310594517446426038_);stroke:#1D1D1B;stroke-width:0.2115;stroke-linecap:round;stroke-linejoin:round;stroke-miterlimit:10;}
	.st22{fill-rule:evenodd;clip-rule:evenodd;fill:url(#SVGID_00000072279352637055109750000012784672864183224192_);}
	.st23{fill-rule:evenodd;clip-rule:evenodd;fill:url(#SVGID_00000077294999037138210910000007629689408495523245_);}
	.st24{fill:url(#SVGID_00000054237350916089514820000006993252355972756867_);}
	.st25{fill:url(#SVGID_00000091698763333302921970000001395231766970249117_);}
	.st26{fill:url(#SVGID_00000132809778854689088990000002146874947199591846_);}
	
		.st27{fill-rule:evenodd;clip-rule:evenodd;fill:#4AA089;stroke:url(#SVGID_00000054955280978783608890000013923327683279983252_);stroke-linecap:round;stroke-linejoin:round;stroke-miterlimit:10;}
	
		.st28{fill-rule:evenodd;clip-rule:evenodd;fill:#4AA089;stroke:url(#SVGID_00000104702429847407161540000005301153071262444950_);stroke-linecap:round;stroke-linejoin:round;stroke-miterlimit:10;}
	
		.st29{fill:none;stroke:url(#SVGID_00000165194670563441192410000002352568432021047220_);stroke-width:5;stroke-linecap:round;stroke-linejoin:round;stroke-miterlimit:10;}
	.st30{fill:url(#SVGID_00000091012227763861355450000013916811392870337163_);}
	
		.st31{fill:none;stroke:url(#SVGID_00000022525496839014075400000006095341972501125771_);stroke-width:5;stroke-linecap:round;stroke-linejoin:round;stroke-miterlimit:10;}
	.st32{fill:url(#SVGID_00000014623101749722529970000013677880776596839059_);}
	
		.st33{fill:none;stroke:url(#SVGID_00000028305423781660687710000009462144442371675552_);stroke-width:5;stroke-linecap:round;stroke-linejoin:round;stroke-miterlimit:10;}
	.st34{fill:url(#SVGID_00000157293025814232252280000002023846299226035848_);}
	.st35{fill:#4A5479;}
	
		.st36{fill-rule:evenodd;clip-rule:evenodd;fill:#1AD4B3;stroke:#111422;stroke-linecap:round;stroke-linejoin:round;stroke-miterlimit:10;}
	
		.st37{fill-rule:evenodd;clip-rule:evenodd;fill:#4AA089;stroke:url(#SVGID_00000034789762665829530730000000535829117045151151_);stroke-linecap:round;stroke-linejoin:round;stroke-miterlimit:10;}
	.st38{fill:#FFFFFF;}
	
		.st39{fill-rule:evenodd;clip-rule:evenodd;fill:#FC4F83;stroke:#111422;stroke-linecap:round;stroke-linejoin:round;stroke-miterlimit:10;}
	
		.st40{fill-rule:evenodd;clip-rule:evenodd;fill:#CB3D61;stroke:#000000;stroke-linecap:round;stroke-linejoin:round;stroke-miterlimit:10;}
	.st41{fill:url(#SVGID_00000134229056575028370750000006964934441228008369_);}
	.st42{fill:url(#SVGID_00000018919510998740590010000004980559498266485126_);}
	.st43{fill:url(#SVGID_00000066482328569743461830000013268475647321531059_);}
	
		.st44{fill:none;stroke:url(#SVGID_00000068651934853162616600000016673673769721902268_);stroke-width:5;stroke-linecap:round;stroke-linejoin:round;stroke-miterlimit:10;}
	.st45{fill:url(#SVGID_00000113349941920714955720000004590332405291211683_);}
	
		.st46{fill:none;stroke:url(#SVGID_00000170242615374744093590000008337579001603186561_);stroke-width:5;stroke-linecap:round;stroke-linejoin:round;stroke-miterlimit:10;}
	.st47{fill:url(#SVGID_00000155853246937304314010000005022890443970623666_);}
	.st48{fill:url(#SVGID_00000039838882743662891550000016767581802141417901_);}
	.st49{fill:#222846;}
	.st50{fill:url(#SVGID_00000070076690842778328010000000734687987314089088_);}
	.st51{fill:url(#SVGID_00000028285905029684664420000018069529158072572550_);}
	.st52{fill:url(#SVGID_00000104699318749990250450000003499309189975353526_);}
	.st53{fill:url(#SVGID_00000022521122360635080260000012042513248637897148_);}
	.st54{fill:url(#SVGID_00000134968820519528397800000007897660924985313205_);}
	.st55{fill:url(#SVGID_00000176036507133310305480000000085030424659694239_);}
	.st56{fill-rule:evenodd;clip-rule:evenodd;fill:#6D75A2;}
	.st57{fill-rule:evenodd;clip-rule:evenodd;fill:#4A5479;}
	.st58{opacity:0.29;fill:url(#SVGID_00000180341257869390974090000010765317367932320694_);enable-background:new    ;}
	.st59{fill:url(#SVGID_00000173870250105166994200000004843843692780924594_);}
	.st60{fill:url(#SVGID_00000180368999557396969720000014568264073701167751_);}
	.st61{fill:url(#SVGID_00000151518113902404703650000017007002843792736926_);}
	.st62{fill-rule:evenodd;clip-rule:evenodd;fill:url(#SVGID_00000140712477321180020890000000957161276770104239_);}
	.st63{fill:url(#SVGID_00000036247010918102026740000004463284017380271295_);}
	.st64{fill:url(#SVGID_00000139991981783102454030000001467878018427601051_);}
	.st65{fill:url(#SVGID_00000137826776831617438430000016874690315035190963_);}
	.st66{fill:url(#SVGID_00000078753267449028609890000014242322367230167220_);}
	.st67{opacity:0.29;fill:url(#SVGID_00000144334259143079875920000012193912521509956012_);enable-background:new    ;}
	.st68{fill-rule:evenodd;clip-rule:evenodd;fill:#222846;}
	
		.st69{fill:none;stroke:url(#SVGID_00000072959916252372257290000017083303134669895351_);stroke-width:5;stroke-linecap:round;stroke-linejoin:round;stroke-miterlimit:10;}
	.st70{fill:url(#SVGID_00000154400521305945118040000003747168464553414072_);}
	
		.st71{fill:none;stroke:url(#SVGID_00000054985077768266648610000005198201697143425938_);stroke-width:5;stroke-linecap:round;stroke-linejoin:round;stroke-miterlimit:10;}
	.st72{fill:url(#SVGID_00000170269207762523729710000004727742425476954752_);}
	
		.st73{fill:none;stroke:url(#SVGID_00000091724106761678285930000009651635817540084397_);stroke-width:5;stroke-linecap:round;stroke-linejoin:round;stroke-miterlimit:10;}
	.st74{fill:url(#SVGID_00000118362209907273608550000011094192112597231294_);}
	
		.st75{fill-rule:evenodd;clip-rule:evenodd;fill:#4AA089;stroke:url(#SVGID_00000127750463059380332160000014347602557378847661_);stroke-linecap:round;stroke-linejoin:round;stroke-miterlimit:10;}
	.st76{fill-rule:evenodd;clip-rule:evenodd;fill:url(#SVGID_00000080894453828227894160000015350954304530004625_);}
	.st77{fill:url(#SVGID_00000057838732653647849640000000478255174000585145_);}
	.st78{fill:url(#SVGID_00000036941407299653662690000017412948823782479805_);}
	.st79{fill:url(#SVGID_00000137849569287473911820000007211731554433945498_);}
	.st80{opacity:0.29;fill:url(#SVGID_00000041993872898356304370000016555680150741628597_);}
	.st81{opacity:0.29;fill:url(#SVGID_00000108305139081059606110000007930615744361088128_);}
	.st82{opacity:0.2563;fill-rule:evenodd;clip-rule:evenodd;fill:#FFFFFF;enable-background:new    ;}
	.st83{opacity:0.67;fill:url(#SVGID_00000173136208134557599600000016137126653486602385_);}
	.st84{fill:#3FA9BD;}
	.st85{fill:url(#SVGID_00000038410759461052708110000012491639362428077451_);}
	.st86{fill-rule:evenodd;clip-rule:evenodd;fill:#555069;}
	.st87{fill-rule:evenodd;clip-rule:evenodd;fill:#FFFFFF;}
	.st88{fill-rule:evenodd;clip-rule:evenodd;fill:#AFAFB1;}
	.st89{fill-rule:evenodd;clip-rule:evenodd;fill:#D3D3D3;}
	.st90{opacity:0.67;fill:url(#SVGID_00000001649973329402553650000002717631498258312889_);}
	.st91{fill:url(#SVGID_00000057107451639747452510000000391892374735835059_);}
	.st92{opacity:0.67;fill:url(#SVGID_00000034771963808388547110000013164316757137598344_);}
	.st93{fill:url(#SVGID_00000081613577851761237950000007187553599490357950_);}
	.st94{opacity:0.67;fill:url(#SVGID_00000127031652859019687130000007760755578203079091_);}
	.st95{fill:url(#SVGID_00000126294951452516763630000000793568025086248849_);}
	.st96{opacity:0.67;fill:url(#SVGID_00000176722499543807818950000004072559548793795259_);}
	.st97{fill:url(#SVGID_00000136409414505013591840000006866194792592525702_);}
	.st98{opacity:0.67;fill:url(#SVGID_00000152245572125489953560000003422344356602798222_);}
	.st99{fill:url(#SVGID_00000142886804369113098860000002050220699622944395_);}
	.st100{fill:#1AD4B3;}
	.st101{opacity:0.67;fill:url(#SVGID_00000152952807428530987690000013392326803089742469_);}
	.st102{fill:url(#SVGID_00000153700701042272301220000004288377633626020007_);}
	.st103{opacity:0.67;fill:url(#SVGID_00000036211833798457124070000011847203575011955644_);}
	.st104{fill:url(#SVGID_00000182522304802822479670000016146644318695620786_);}
	.st105{opacity:0.67;fill:url(#SVGID_00000173124372827190451270000006028393543551666856_);}
	.st106{fill:url(#SVGID_00000158731732460792167140000000332057922414450079_);}
	.st107{opacity:0.67;fill:url(#SVGID_00000070840080117581271840000015100348916052063647_);}
	.st108{fill:url(#SVGID_00000160896413560594644620000011278292973364901785_);}
	.st109{opacity:0.67;fill:url(#SVGID_00000132787281429196325170000008262668914645063819_);}
	.st110{fill:url(#SVGID_00000132086702367003407240000000455323109862537123_);}
	.st111{opacity:0.67;fill:url(#SVGID_00000070096459561078378960000016023902200803128985_);}
	.st112{fill:url(#SVGID_00000090986313687070349220000003281334769946959804_);}
	
		.st113{fill-rule:evenodd;clip-rule:evenodd;fill:none;stroke:#FFFFFF;stroke-width:0.7384;stroke-linecap:round;stroke-linejoin:round;stroke-miterlimit:10;}
	.st114{opacity:0.67;fill:url(#SVGID_00000127740800292415196610000016708977749560070815_);}
	.st115{fill:url(#SVGID_00000145747061646361590920000014220963224509339551_);}
	.st116{opacity:0.67;fill:url(#SVGID_00000026869856344328945410000017027822783575348399_);}
	.st117{fill:url(#SVGID_00000109007782205096951300000014925084342811104694_);}
	.st118{opacity:0.67;fill:url(#SVGID_00000179634231715978388780000014648201151189480067_);}
	.st119{fill:url(#SVGID_00000171721908146730344360000018150574150317690766_);}
	.st120{opacity:0.67;fill:url(#SVGID_00000042720655796105808290000017743280005645972101_);}
	.st121{fill:url(#SVGID_00000139989243883792447070000005523790191780697477_);}
	.st122{opacity:0.67;fill:url(#SVGID_00000135677227457641824010000014443383095839884732_);}
	.st123{fill:url(#SVGID_00000147899499994255227460000011787914573673980572_);}
	.st124{opacity:0.67;fill:url(#SVGID_00000127760295510576585850000014044140282811091871_);}
	.st125{fill:url(#SVGID_00000077316898258212281430000001740487677598072472_);}
	.st126{opacity:0.67;fill:url(#SVGID_00000181063823559910818220000017449874451590295989_);}
	.st127{fill:url(#SVGID_00000037684073788335233090000014226666604899268495_);}
	.st128{opacity:0.67;fill:url(#SVGID_00000055708138611008431690000010052491955474175901_);}
	.st129{fill:url(#SVGID_00000096054768390316939970000010572493326396707238_);}
	.st130{opacity:0.67;fill:url(#SVGID_00000110449940469540841990000017050449736868350592_);enable-background:new    ;}
	.st131{fill:#5EA6B9;}
	.st132{fill:url(#SVGID_00000128474967943181958140000010098420532592753815_);}
	.st133{fill-rule:evenodd;clip-rule:evenodd;fill:#545067;}
	.st134{fill-rule:evenodd;clip-rule:evenodd;fill:#AEAEB0;}
	.st135{fill-rule:evenodd;clip-rule:evenodd;fill:#D2D2D2;}
	.st136{opacity:0.67;fill:url(#SVGID_00000016791683269517123720000013055304099604987533_);enable-background:new    ;}
	.st137{fill:url(#SVGID_00000129193341590917264570000009702371936333736609_);}
	.st138{fill-rule:evenodd;clip-rule:evenodd;fill:#63D0B3;}
	
		.st139{fill-rule:evenodd;clip-rule:evenodd;fill:none;stroke:#000000;stroke-linecap:round;stroke-linejoin:round;stroke-miterlimit:10;}
	.st140{fill-rule:evenodd;clip-rule:evenodd;fill:#E85C83;}
	
		.st141{fill-rule:evenodd;clip-rule:evenodd;fill:#4AA089;stroke:url(#SVGID_00000167357667557004051440000005261628624041988282_);stroke-linecap:round;stroke-linejoin:round;stroke-miterlimit:10;}
	.st142{fill:#5DC29D;}
	.st143{fill:url(#SVGID_00000032640388299345204980000003126778362231549602_);}
	.st144{fill:url(#SVGID_00000048469966123165266900000003564313433777711748_);}
	.st145{fill:#E85C83;}
	.st146{opacity:0.67;fill:url(#SVGID_00000038371278790547295610000018008900872112718976_);enable-background:new    ;}
	.st147{fill:url(#SVGID_00000119815305671027632210000012408090621969568696_);}
	
		.st148{fill:none;stroke:url(#SVGID_00000137839671914440400280000012412630843236680336_);stroke-width:5;stroke-linecap:round;stroke-linejoin:round;stroke-miterlimit:10;}
	.st149{fill:url(#SVGID_00000076599859590030337700000016700029685492402592_);}
	.st150{opacity:0.67;fill:url(#SVGID_00000067940393016882396470000000185420463468260516_);enable-background:new    ;}
	.st151{fill:url(#SVGID_00000168826667552782458140000016515751344994517140_);}
	.st152{opacity:0.67;fill:url(#SVGID_00000031186939452435342680000001637217216953533057_);}
	.st153{fill:url(#SVGID_00000062185322735237512000000004643590868760943505_);}
	.st154{opacity:0.67;fill:url(#SVGID_00000001647345106716589570000005214310247216020899_);}
	.st155{fill:url(#SVGID_00000129911535410646304870000008455503340110265527_);}
	.st156{opacity:0.67;fill:url(#SVGID_00000088836311694713437430000002743329796086929035_);}
	.st157{fill:url(#SVGID_00000137113207261525682620000017521502506276858754_);}
	.st158{opacity:0.67;fill:url(#SVGID_00000183246901714168582430000004712467748076395139_);}
	.st159{fill:url(#SVGID_00000022522751108924398500000017759290797417936014_);}
	.st160{opacity:0.67;fill:url(#SVGID_00000108302563976334742040000011147179320637694612_);}
	.st161{fill:url(#SVGID_00000027587662047974932080000008022406510551832749_);}
	.st162{fill:none;stroke:#000000;stroke-width:22;stroke-linecap:round;stroke-linejoin:round;stroke-miterlimit:10;}
	.st163{fill:url(#SVGID_00000107588263010910845370000006693947854767433625_);}
	.st164{fill:url(#SVGID_00000111883395977962148120000015573218211567075968_);}
	.st165{fill:none;stroke:url(#SVGID_00000118386280819680705900000016801616478889796242_);stroke-width:5;stroke-miterlimit:10;}
	.st166{fill:url(#SVGID_00000121962813169494601490000015107013475526126768_);}
	.st167{fill:none;}
	.st168{opacity:0.67;fill:url(#SVGID_00000134243018214737731610000015886443486842700716_);}
	.st169{fill:url(#SVGID_00000090272726814204454590000017892578267394715269_);}
	.st170{fill:none;stroke:url(#SVGID_00000016786866956227230880000012541590352395633037_);stroke-width:5;stroke-miterlimit:10;}
	.st171{fill:url(#SVGID_00000080894311092690084220000001759013809477730489_);}
	.st172{opacity:0.67;fill:url(#SVGID_00000122693641921396331450000004164495536974832785_);}
	.st173{fill:url(#SVGID_00000157308170110921915800000003699061285926911161_);}
	.st174{opacity:0.67;fill:url(#SVGID_00000072271750341802190540000017814196291049730223_);}
	.st175{fill:url(#SVGID_00000056387803775787757450000003374261625001697707_);}
	.st176{opacity:0.67;fill:url(#SVGID_00000014618869648043131040000013294550296282094779_);}
	.st177{fill:url(#SVGID_00000064324723550951272330000010118425905236889009_);}
</style>
<g>
	<g>
		<circle class="st0" cx="144.81" cy="70.28" r="26.03"/>
		<g>
			<g>
				<path class="st1" d="M138.35,43.47l-0.01,10.81c-0.33,1.38,0.28,2.85,1.82,3.91c2.54,1.76,6.66,1.76,9.2,0
					c1.08-0.75,1.7-1.69,1.86-2.67h0.04v-0.45c0-0.04,0-0.09,0-0.13l0.01-11.18L138.35,43.47z"/>
				<path class="st1" d="M138.4,51.2c0,2.45,2.87,4.43,6.41,4.43s6.41-1.98,6.41-4.43"/>
				<path class="st1" d="M138.4,47.81c0,2.45,2.87,4.43,6.41,4.43s6.41-1.98,6.41-4.43"/>
				<path class="st1" d="M138.4,44.25c0,2.45,2.87,4.43,6.41,4.43s6.41-1.98,6.41-4.43"/>
			</g>
			<g>
				<path class="st1" d="M138.35,32.79l-0.01,10.81c-0.33,1.38,0.28,2.85,1.82,3.91c2.54,1.76,6.66,1.76,9.2,0
					c1.08-0.75,1.7-1.69,1.86-2.67h0.04v-0.45c0-0.04,0-0.09,0-0.13l0.01-11.18L138.35,32.79z"/>
				<path class="st1" d="M138.4,40.53c0,2.45,2.87,4.43,6.41,4.43s6.41-1.98,6.41-4.43"/>
				<path class="st1" d="M138.4,37.14c0,2.45,2.87,4.43,6.41,4.43s6.41-1.98,6.41-4.43"/>
				<path class="st1" d="M138.4,33.58c0,2.45,2.87,4.43,6.41,4.43s6.41-1.98,6.41-4.43"/>
			</g>
		</g>
		<g>
			<g>
				<g>
					<polygon class="st2" points="144.41,48.59 126.6,38.31 126.6,20.49 144.41,30.78 					"/>
					<polygon class="st3" points="144.41,48.59 162.23,38.31 162.23,20.49 144.41,30.78 					"/>
					<polygon class="st4" points="144.48,30.83 126.6,20.51 144.35,10.17 162.23,20.49 					"/>
				</g>
				<path id="矩形_00000079473797964540096780000010075932986409177219_" class="st5" d="M138.51,15.9L138.51,15.9
					c0.35,0.2,0.29,0.58-0.12,0.83l-3.7,2.19c-0.42,0.25-1.08,0.29-1.43,0.09l0,0c-0.35-0.2-0.29-0.58,0.12-0.83l3.7-2.19
					C137.5,15.74,138.16,15.7,138.51,15.9z"/>
				<path id="矩形_00000142137669485219439060000000874352699067732376_" class="st5" d="M131.82,19.86L131.82,19.86
					c0.35,0.2,0.29,0.58-0.12,0.83l-0.72,0.42c-0.42,0.25-1.08,0.29-1.43,0.09l0,0c-0.35-0.2-0.29-0.58,0.12-0.83l0.72-0.42
					C130.84,19.68,131.47,19.66,131.82,19.86z"/>
			</g>
		</g>
	</g>
	<g>
		<polygon class="st3" points="132.77,74.04 22.63,136.96 22.63,195.86 132.77,132.94 		"/>
		<polygon class="st2" points="8.19,128.8 22.63,136.6 22.63,195.86 8.19,188.06 		"/>
		<polygon class="st4" points="132.77,74.04 117.26,65.84 8.19,128.8 22.63,136.6 		"/>
	</g>
	<g>
		<g>
			<path class="st6" d="M38.71,144.11l-2.95,1.76c-0.02-0.38-0.08-0.71-0.16-0.97c-0.09-0.27-0.21-0.47-0.37-0.61
				s-0.34-0.21-0.56-0.21s-0.47,0.09-0.75,0.26c-0.49,0.29-0.9,0.73-1.24,1.31s-0.59,1.28-0.76,2.1c-0.17,0.82-0.26,1.72-0.26,2.72
				c0,1.06,0.09,1.89,0.26,2.49c0.18,0.61,0.43,0.99,0.77,1.15c0.33,0.16,0.74,0.1,1.21-0.18c0.27-0.16,0.51-0.36,0.72-0.59
				c0.21-0.24,0.4-0.5,0.55-0.81c0.16-0.3,0.29-0.63,0.38-0.98c0.1-0.35,0.17-0.73,0.2-1.12l2.95-1.72
				c-0.04,0.75-0.16,1.57-0.38,2.46s-0.53,1.77-0.93,2.65c-0.4,0.88-0.9,1.69-1.49,2.43c-0.59,0.74-1.28,1.34-2.06,1.81
				c-0.98,0.58-1.86,0.77-2.64,0.55c-0.78-0.22-1.39-0.85-1.85-1.9c-0.45-1.05-0.68-2.53-0.68-4.44c0-1.92,0.23-3.68,0.69-5.27
				c0.46-1.59,1.08-2.96,1.86-4.1c0.78-1.14,1.65-2,2.61-2.57c0.68-0.4,1.3-0.62,1.87-0.66c0.57-0.04,1.07,0.1,1.5,0.41
				s0.77,0.81,1.04,1.49S38.66,143.07,38.71,144.11z"/>
			<path class="st6" d="M50.4,139.3c0,1.92-0.23,3.68-0.7,5.28s-1.09,2.96-1.88,4.11s-1.67,2.01-2.63,2.58
				c-0.98,0.58-1.86,0.76-2.64,0.55c-0.79-0.21-1.41-0.84-1.87-1.89s-0.69-2.52-0.69-4.43c0-1.92,0.23-3.68,0.69-5.27
				c0.46-1.59,1.08-2.96,1.87-4.11c0.79-1.14,1.67-2.01,2.64-2.59s1.85-0.76,2.63-0.55c0.79,0.21,1.41,0.83,1.88,1.88
				S50.4,137.38,50.4,139.3z M47.41,141.08c0-1.03-0.08-1.86-0.25-2.47s-0.42-1-0.75-1.17s-0.73-0.12-1.21,0.17
				s-0.89,0.71-1.22,1.28c-0.33,0.56-0.58,1.25-0.75,2.06s-0.25,1.74-0.25,2.77s0.08,1.86,0.25,2.47s0.42,1,0.75,1.17
				s0.73,0.11,1.22-0.17c0.48-0.29,0.88-0.71,1.21-1.28c0.33-0.56,0.58-1.25,0.75-2.06C47.32,143.04,47.41,142.12,47.41,141.08z"/>
			<path class="st6" d="M62.1,132.33c0,1.92-0.23,3.68-0.7,5.27c-0.46,1.59-1.09,2.96-1.88,4.11s-1.67,2.01-2.63,2.58
				c-0.98,0.58-1.86,0.76-2.64,0.55c-0.79-0.22-1.41-0.84-1.87-1.89c-0.46-1.04-0.69-2.52-0.69-4.43c0-1.92,0.23-3.68,0.69-5.27
				c0.46-1.59,1.08-2.96,1.87-4.11c0.79-1.15,1.67-2.01,2.64-2.59c0.97-0.58,1.85-0.76,2.63-0.55c0.79,0.21,1.41,0.83,1.88,1.88
				C61.87,128.93,62.1,130.41,62.1,132.33z M59.11,134.11c0-1.03-0.08-1.86-0.25-2.47s-0.42-1-0.75-1.17s-0.73-0.12-1.21,0.17
				s-0.89,0.71-1.22,1.28c-0.33,0.56-0.58,1.25-0.75,2.06s-0.25,1.74-0.25,2.77s0.08,1.86,0.25,2.47s0.42,1,0.75,1.17
				s0.73,0.12,1.22-0.17c0.48-0.29,0.88-0.71,1.21-1.28c0.33-0.56,0.58-1.25,0.75-2.06C59.03,136.07,59.11,135.15,59.11,134.11z"/>
			<path class="st6" d="M63.44,140.17V122.9l2.91-1.73v13.49l4.33-2.58v3.78L63.44,140.17z"/>
			<path class="st6" d="M77.16,121.61v3.51l-5.02,2.99v-3.51L77.16,121.61z"/>
			<path class="st6" d="M82.95,128.55L78.83,131v-17.26l4.08-2.43c1.1-0.66,2.05-0.88,2.86-0.67s1.42,0.83,1.86,1.86
				s0.66,2.44,0.66,4.24s-0.22,3.47-0.65,5.02c-0.44,1.55-1.05,2.91-1.85,4.07S84.03,127.91,82.95,128.55z M81.73,125.3l1.11-0.66
				c0.53-0.32,0.98-0.72,1.36-1.22c0.37-0.5,0.66-1.14,0.86-1.93s0.3-1.79,0.3-2.99s-0.1-2.08-0.3-2.64
				c-0.2-0.55-0.49-0.86-0.88-0.9s-0.86,0.1-1.41,0.43L81.75,116v9.3H81.73z"/>
			<path class="st6" d="M99.99,109.77c0,1.92-0.23,3.68-0.7,5.28c-0.46,1.59-1.09,2.96-1.88,4.11s-1.67,2.01-2.63,2.58
				c-0.98,0.58-1.86,0.76-2.64,0.55c-0.79-0.21-1.41-0.84-1.87-1.89c-0.46-1.04-0.69-2.52-0.69-4.43c0-1.92,0.23-3.68,0.69-5.27
				s1.08-2.96,1.87-4.11c0.79-1.14,1.67-2.01,2.64-2.59c0.97-0.58,1.85-0.76,2.63-0.55c0.79,0.21,1.41,0.83,1.88,1.88
				C99.75,106.37,99.99,107.85,99.99,109.77z M97,111.55c0-1.04-0.08-1.86-0.25-2.47s-0.42-1-0.75-1.17s-0.73-0.12-1.21,0.17
				c-0.48,0.29-0.89,0.71-1.22,1.28c-0.33,0.56-0.58,1.25-0.75,2.06s-0.25,1.74-0.25,2.77s0.08,1.86,0.25,2.47s0.42,1,0.75,1.18
				c0.33,0.17,0.73,0.11,1.22-0.17c0.48-0.29,0.89-0.71,1.21-1.28c0.33-0.56,0.58-1.25,0.75-2.06C96.91,113.51,97,112.59,97,111.55z
				"/>
			<path class="st6" d="M104.04,115.99l-3.16-15.39l3.24-1.93l1.46,9.75l0.08-0.05l1.74-11.66l2.55-1.52l1.74,9.62l0.08-0.05
				l1.46-11.53l3.24-1.93l-3.16,19.15l-2.78,1.66l-1.82-8.56l-0.08,0.05l-1.82,10.73L104.04,115.99z"/>
			<path class="st6" d="M126.68,85.24v17.27l-2.42,1.44l-3.87-6.77l-0.06,0.04v9.07l-2.91,1.73V90.76l2.47-1.47l3.81,6.77l0.08-0.05
				v-9.04L126.68,85.24z"/>
			<path class="st6" d="M50.68,176.26v-17.27l4.62-2.75c0.79-0.47,1.49-0.63,2.09-0.48s1.06,0.59,1.39,1.31
				c0.33,0.72,0.5,1.69,0.5,2.92c0,1.24-0.17,2.41-0.51,3.52s-0.81,2.09-1.43,2.94c-0.61,0.85-1.33,1.52-2.14,2.01l-2.76,1.64v-3.64
				l2.17-1.29c0.34-0.2,0.63-0.47,0.88-0.81s0.43-0.73,0.56-1.16s0.2-0.9,0.2-1.39s-0.07-0.88-0.2-1.15
				c-0.13-0.27-0.32-0.43-0.56-0.48c-0.24-0.04-0.53,0.04-0.88,0.24l-1.02,0.61v13.52L50.68,176.26z"/>
			<path class="st6" d="M60.34,170.51v-17.27l7.71-4.59v3.78l-4.81,2.86v2.97l4.41-2.63v3.78l-4.41,2.63v2.97l4.79-2.85v3.78
				L60.34,170.51z"/>
			<path class="st6" d="M69.49,165.06v-17.27l4.62-2.75c0.79-0.47,1.49-0.65,2.08-0.54s1.06,0.51,1.39,1.19
				c0.33,0.68,0.5,1.63,0.5,2.86c0,1.24-0.17,2.38-0.51,3.43c-0.34,1.05-0.82,1.98-1.43,2.77s-1.33,1.44-2.14,1.92l-2.76,1.64v-3.64
				l2.17-1.29c0.34-0.2,0.63-0.45,0.88-0.73c0.24-0.28,0.43-0.61,0.56-0.99s0.2-0.82,0.2-1.31c0-0.49-0.07-0.86-0.2-1.09
				s-0.32-0.35-0.56-0.36c-0.24,0-0.54,0.1-0.88,0.3l-1.02,0.61v13.52L69.49,165.06z M75.77,153.4l2.67,6.33l-3.16,1.88l-2.61-6.37
				L75.77,153.4z"/>
			<path class="st6" d="M82.23,140.21v17.27l-2.91,1.73v-17.27L82.23,140.21z"/>
			<path class="st6" d="M93.97,141.84c0,1.92-0.23,3.68-0.7,5.27c-0.46,1.59-1.09,2.96-1.88,4.11s-1.67,2.01-2.63,2.58
				c-0.98,0.58-1.86,0.76-2.64,0.55c-0.79-0.22-1.41-0.84-1.87-1.89c-0.46-1.04-0.69-2.52-0.69-4.43c0-1.92,0.23-3.68,0.69-5.27
				c0.46-1.59,1.08-2.96,1.87-4.11s1.67-2.01,2.64-2.59s1.85-0.76,2.63-0.55c0.79,0.21,1.41,0.83,1.88,1.88
				C93.74,138.44,93.97,139.92,93.97,141.84z M90.98,143.62c0-1.03-0.08-1.86-0.25-2.47s-0.42-1-0.75-1.17s-0.73-0.12-1.21,0.17
				c-0.48,0.29-0.89,0.71-1.22,1.28c-0.33,0.56-0.58,1.25-0.75,2.06s-0.25,1.73-0.25,2.77c0,1.03,0.08,1.86,0.25,2.47
				s0.42,1,0.75,1.17s0.73,0.12,1.22-0.17c0.48-0.29,0.88-0.71,1.21-1.28c0.33-0.56,0.58-1.25,0.75-2.06
				C90.9,145.58,90.98,144.66,90.98,143.62z"/>
			<path class="st6" d="M99.43,147.23l-4.12,2.45v-17.27l4.08-2.43c1.1-0.66,2.05-0.88,2.86-0.67c0.8,0.21,1.42,0.83,1.86,1.86
				s0.66,2.44,0.66,4.24s-0.22,3.47-0.65,5.02c-0.44,1.55-1.05,2.91-1.85,4.07C101.46,145.68,100.52,146.58,99.43,147.23z
				 M98.22,143.97l1.11-0.66c0.53-0.32,0.98-0.72,1.36-1.22s0.66-1.14,0.86-1.94c0.2-0.79,0.29-1.79,0.29-2.99s-0.1-2.08-0.3-2.64
				c-0.2-0.55-0.49-0.86-0.88-0.9c-0.38-0.05-0.86,0.1-1.41,0.43l-1.02,0.61v9.31L98.22,143.97L98.22,143.97z"/>
		</g>
	</g>
	<g>
		
			<ellipse transform="matrix(0.4473 -0.8944 0.8944 0.4473 93.3839 267.9495)" class="st0" cx="263.48" cy="58.42" rx="17.42" ry="17.42"/>
		<g>
			<g>
				<path class="st1" d="M259.14,40.47v7.23c-0.22,0.92,0.19,1.91,1.22,2.62c1.7,1.18,4.46,1.18,6.16,0
					c0.72-0.5,1.14-1.13,1.25-1.79h0.03v-0.3c0-0.03,0-0.06,0-0.09v-7.49L259.14,40.47z"/>
				<path class="st1" d="M259.18,45.64c0,1.64,1.92,2.97,4.29,2.97s4.29-1.33,4.29-2.97"/>
				<path class="st1" d="M259.18,43.37c0,1.64,1.92,2.97,4.29,2.97s4.29-1.33,4.29-2.97"/>
				<path class="st1" d="M259.18,40.99c0,1.64,1.92,2.97,4.29,2.97s4.29-1.33,4.29-2.97"/>
			</g>
			<g>
				<path class="st1" d="M259.14,33.32v7.23c-0.22,0.92,0.19,1.91,1.22,2.62c1.7,1.18,4.46,1.18,6.16,0
					c0.72-0.5,1.14-1.13,1.25-1.79h0.03v-0.3c0-0.03,0-0.06,0-0.09V33.5L259.14,33.32z"/>
				<path class="st1" d="M259.18,38.5c0,1.64,1.92,2.97,4.29,2.97s4.29-1.33,4.29-2.97"/>
				<path class="st1" d="M259.18,36.23c0,1.64,1.92,2.97,4.29,2.97s4.29-1.33,4.29-2.97"/>
				<path class="st1" d="M259.18,33.84c0,1.64,1.92,2.97,4.29,2.97s4.29-1.33,4.29-2.97"/>
			</g>
		</g>
		<g>
			<g>
				<g>
					<polygon class="st2" points="263.2,43.9 251.28,37.01 251.28,25.09 263.2,31.97 					"/>
					<polygon class="st3" points="263.2,43.9 275.13,37.01 275.13,25.09 263.2,31.97 					"/>
					<polygon class="st4" points="263.25,32.01 251.28,25.1 263.16,18.17 275.13,25.09 					"/>
				</g>
				<path id="矩形_00000057864619196667044930000009136339203454641547_" class="st5" d="M259.25,22.01L259.25,22.01
					c0.23,0.13,0.2,0.39-0.08,0.55l-2.47,1.46c-0.28,0.17-0.72,0.19-0.95,0.06l0,0c-0.23-0.13-0.2-0.39,0.08-0.55l2.47-1.46
					C258.58,21.9,259.02,21.88,259.25,22.01z"/>
				<path id="矩形_00000020398379395088368500000007571091934744443542_" class="st5" d="M254.77,24.66L254.77,24.66
					c0.23,0.13,0.2,0.39-0.08,0.55l-0.48,0.28c-0.28,0.17-0.72,0.19-0.95,0.06l0,0c-0.23-0.13-0.2-0.39,0.08-0.55l0.48-0.28
					C254.12,24.54,254.54,24.53,254.77,24.66z"/>
			</g>
		</g>
	</g>
	<g>
		<g>
			<polygon class="st3" points="263.18,158.89 209.39,189.61 209.64,210.42 263.3,179.89 			"/>
			<polygon class="st2" points="168.68,166.94 209.39,189.56 209.64,210.42 168.93,187.8 			"/>
			<polygon class="st4" points="262.93,158.87 221.69,135.86 168.68,166.94 209.39,189.76 			"/>
		</g>
		<g>
			<polygon class="st3" points="263.18,134.35 209.39,165.07 209.64,185.88 263.3,155.35 			"/>
			<polygon class="st2" points="168.68,142.4 209.39,165.01 209.64,185.88 168.93,163.26 			"/>
			<polygon class="st4" points="263.18,134.28 221.94,111.27 168.68,142.01 209.39,164.83 			"/>
		</g>
		<circle class="st7" cx="213.28" cy="111.23" r="41.04"/>
		<g>
			<g>
				<path class="st6" d="M217.44,175.33v-8.95l2.53-1.5c0.49-0.29,0.9-0.41,1.24-0.35c0.34,0.05,0.6,0.26,0.79,0.61
					c0.18,0.35,0.27,0.82,0.27,1.41s-0.09,1.17-0.28,1.74c-0.18,0.56-0.45,1.07-0.8,1.53c-0.35,0.46-0.77,0.84-1.26,1.13l-1.61,0.96
					v-1.52l1.39-0.83c0.26-0.15,0.48-0.35,0.65-0.57c0.17-0.23,0.3-0.48,0.38-0.76s0.13-0.56,0.13-0.85c0-0.3-0.04-0.53-0.13-0.71
					c-0.08-0.17-0.21-0.27-0.38-0.29c-0.17-0.02-0.39,0.04-0.65,0.2l-0.91,0.54v7.4L217.44,175.33z"/>
				<path class="st6" d="M223.13,171.96v-6.71l1.29-0.77v1.17l0.05-0.03c0.09-0.47,0.23-0.87,0.44-1.21
					c0.21-0.34,0.44-0.58,0.71-0.74c0.07-0.04,0.14-0.08,0.22-0.11s0.15-0.06,0.2-0.07v1.65c-0.06,0.01-0.15,0.04-0.26,0.08
					c-0.11,0.04-0.21,0.09-0.3,0.15c-0.2,0.12-0.37,0.28-0.53,0.49c-0.15,0.21-0.27,0.44-0.36,0.71c-0.09,0.26-0.13,0.53-0.13,0.8
					v3.8L223.13,171.96z"/>
				<path class="st6" d="M228.68,168.8c-0.49,0.29-0.91,0.39-1.26,0.31c-0.35-0.08-0.63-0.32-0.82-0.73
					c-0.19-0.41-0.29-0.95-0.29-1.64s0.1-1.36,0.29-1.99c0.19-0.63,0.47-1.2,0.82-1.7s0.77-0.89,1.26-1.18
					c0.49-0.29,0.91-0.39,1.26-0.31c0.35,0.08,0.63,0.32,0.82,0.73c0.19,0.41,0.29,0.96,0.29,1.65c0,0.69-0.1,1.35-0.29,1.98
					c-0.19,0.63-0.47,1.2-0.82,1.7C229.59,168.12,229.17,168.51,228.68,168.8z M228.69,167.36c0.22-0.13,0.41-0.33,0.55-0.59
					s0.26-0.57,0.34-0.92s0.11-0.72,0.11-1.11s-0.04-0.72-0.11-0.98s-0.19-0.44-0.34-0.53s-0.33-0.07-0.55,0.06s-0.41,0.33-0.56,0.6
					s-0.27,0.58-0.34,0.93c-0.08,0.35-0.11,0.72-0.11,1.11s0.04,0.72,0.11,0.98c0.08,0.26,0.19,0.43,0.34,0.52
					C228.28,167.51,228.46,167.49,228.69,167.36z"/>
				<path class="st6" d="M231.92,169.27v-9.23l1.32-0.78v1.13l0.06-0.04c0.06-0.22,0.14-0.45,0.26-0.7c0.11-0.25,0.26-0.5,0.44-0.73
					c0.18-0.23,0.41-0.43,0.68-0.59c0.35-0.21,0.67-0.27,0.97-0.19s0.53,0.32,0.71,0.73c0.18,0.41,0.27,0.99,0.27,1.76
					c0,0.75-0.09,1.43-0.26,2.05c-0.17,0.62-0.41,1.14-0.7,1.58c-0.3,0.44-0.63,0.77-0.99,0.98c-0.26,0.15-0.48,0.22-0.66,0.21
					c-0.18-0.01-0.33-0.07-0.44-0.19c-0.11-0.11-0.2-0.25-0.26-0.4l-0.04,0.02v3.59L231.92,169.27z M233.23,162.62
					c0,0.4,0.04,0.72,0.12,0.97s0.19,0.41,0.34,0.49c0.15,0.07,0.33,0.05,0.55-0.08s0.4-0.32,0.55-0.58
					c0.15-0.26,0.26-0.56,0.34-0.9c0.08-0.35,0.12-0.71,0.12-1.1s-0.04-0.71-0.12-0.95c-0.08-0.25-0.19-0.41-0.34-0.49
					s-0.33-0.05-0.55,0.08s-0.4,0.32-0.55,0.57s-0.26,0.54-0.34,0.89C233.27,161.85,233.23,162.22,233.23,162.62z"/>
				<path class="st6" d="M239.67,162.29c-0.49,0.29-0.91,0.39-1.26,0.31c-0.35-0.08-0.63-0.32-0.82-0.73
					c-0.19-0.41-0.29-0.95-0.29-1.64s0.1-1.36,0.29-1.99c0.19-0.63,0.47-1.2,0.82-1.7s0.77-0.89,1.26-1.18
					c0.49-0.29,0.91-0.39,1.26-0.31c0.35,0.08,0.63,0.32,0.82,0.73c0.19,0.41,0.29,0.96,0.29,1.65c0,0.69-0.1,1.35-0.29,1.98
					c-0.19,0.63-0.47,1.2-0.82,1.7C240.58,161.61,240.16,162,239.67,162.29z M239.68,160.84c0.22-0.13,0.41-0.33,0.55-0.59
					s0.26-0.57,0.34-0.92c0.08-0.35,0.11-0.72,0.11-1.11s-0.04-0.72-0.11-0.98c-0.08-0.26-0.19-0.44-0.34-0.53s-0.33-0.07-0.55,0.06
					s-0.41,0.33-0.56,0.6s-0.27,0.58-0.34,0.93s-0.11,0.72-0.11,1.11s0.04,0.72,0.11,0.98c0.08,0.26,0.19,0.43,0.34,0.52
					C239.27,161,239.46,160.98,239.68,160.84z"/>
				<path class="st6" d="M246.92,153.07l-1.22,0.83c-0.02-0.13-0.07-0.24-0.13-0.32c-0.07-0.08-0.16-0.12-0.27-0.12
					c-0.11-0.01-0.24,0.04-0.4,0.13c-0.21,0.12-0.38,0.29-0.52,0.49c-0.14,0.21-0.21,0.41-0.21,0.61c0,0.16,0.05,0.27,0.14,0.32
					c0.09,0.06,0.25,0.05,0.47-0.01l0.87-0.27c0.47-0.14,0.82-0.13,1.05,0.03s0.34,0.48,0.34,0.97c0,0.44-0.09,0.88-0.28,1.32
					c-0.18,0.44-0.44,0.85-0.76,1.22c-0.32,0.38-0.69,0.69-1.11,0.93c-0.64,0.38-1.14,0.49-1.52,0.34c-0.38-0.15-0.6-0.52-0.66-1.13
					l1.31-0.87c0.04,0.25,0.14,0.4,0.29,0.45s0.35,0.01,0.59-0.14c0.23-0.14,0.42-0.31,0.57-0.53c0.14-0.21,0.22-0.42,0.22-0.62
					c0-0.17-0.05-0.28-0.15-0.33c-0.1-0.05-0.25-0.04-0.46,0.02l-0.83,0.26c-0.47,0.15-0.82,0.13-1.05-0.06s-0.34-0.53-0.34-1.03
					c0-0.43,0.08-0.85,0.25-1.26c0.17-0.41,0.4-0.79,0.71-1.14c0.31-0.35,0.66-0.65,1.08-0.89c0.61-0.36,1.09-0.46,1.44-0.31
					C246.65,152.12,246.86,152.49,246.92,153.07z"/>
				<path class="st6" d="M249.24,156.62c-0.31,0.18-0.58,0.27-0.82,0.26c-0.24-0.01-0.43-0.12-0.57-0.33
					c-0.14-0.21-0.21-0.54-0.21-0.98c0-0.37,0.05-0.72,0.15-1.03c0.1-0.31,0.23-0.59,0.4-0.85c0.17-0.25,0.36-0.49,0.58-0.69
					c0.22-0.21,0.44-0.4,0.68-0.57c0.28-0.21,0.51-0.38,0.68-0.52s0.3-0.27,0.37-0.38c0.08-0.12,0.12-0.25,0.12-0.39v-0.03
					c0-0.28-0.06-0.45-0.19-0.53c-0.12-0.08-0.3-0.05-0.53,0.09c-0.24,0.14-0.43,0.33-0.57,0.56c-0.14,0.23-0.24,0.47-0.28,0.72
					l-1.23,0.59c0.06-0.44,0.19-0.87,0.37-1.28s0.42-0.78,0.71-1.11c0.29-0.33,0.63-0.62,1.01-0.84c0.27-0.16,0.52-0.27,0.77-0.32
					c0.25-0.06,0.46-0.05,0.65,0.02c0.19,0.07,0.34,0.22,0.45,0.44s0.17,0.53,0.17,0.93v4.53l-1.27,0.75v-0.93l-0.04,0.02
					c-0.08,0.26-0.18,0.5-0.31,0.74s-0.29,0.45-0.47,0.65C249.69,156.31,249.48,156.47,249.24,156.62z M249.62,155.1
					c0.2-0.12,0.37-0.27,0.52-0.47c0.15-0.2,0.27-0.42,0.35-0.65c0.09-0.24,0.13-0.47,0.13-0.71v-0.71c-0.04,0.06-0.1,0.13-0.17,0.2
					c-0.07,0.07-0.15,0.15-0.24,0.23c-0.09,0.08-0.18,0.15-0.27,0.23c-0.09,0.07-0.17,0.14-0.24,0.2c-0.16,0.12-0.29,0.26-0.41,0.4
					c-0.12,0.14-0.21,0.29-0.27,0.44c-0.06,0.16-0.1,0.32-0.1,0.5c0,0.25,0.07,0.41,0.2,0.46
					C249.25,155.26,249.42,155.23,249.62,155.1z"/>
				<path class="st6" d="M254.32,144.53v8.95l-1.33,0.79v-8.95L254.32,144.53z"/>
			</g>
		</g>
	</g>
	<circle class="st8" cx="213.28" cy="111.23" r="28.4"/>
	<circle class="st8" cx="213.28" cy="111.23" r="11.86"/>
	<polygon class="st3" points="259.96,27.56 258.61,26.8 266.45,22.18 267.8,22.94 	"/>
	<polygon class="st3" points="139.52,24.67 137.34,23.44 150.01,15.96 152.19,17.19 	"/>
	<g>
		
			<linearGradient id="SVGID_1_" gradientUnits="userSpaceOnUse" x1="155.642" y1="2975.7227" x2="165.482" y2="2975.7227" gradientTransform="matrix(1 0 0 1 0 -2873.5476)">
			<stop  offset="0" style="stop-color:#925D91"/>
			<stop  offset="1" style="stop-color:#81B0BD"/>
		</linearGradient>
		<path class="st9" d="M155.64,108.45v-1.47l7.13-9.15V97.7h-6.9v-1.8h9.38v1.54l-6.93,9.09v0.13h7.16v1.8h-9.84V108.45z"/>
	</g>
	<g>
		
			<linearGradient id="SVGID_00000055697049960562900690000001084782725403472771_" gradientUnits="userSpaceOnUse" x1="181.152" y1="2956.3677" x2="197.662" y2="2956.3677" gradientTransform="matrix(1 0 0 1 0 -2873.5476)">
			<stop  offset="0" style="stop-color:#925D91"/>
			<stop  offset="1" style="stop-color:#81B0BD"/>
		</linearGradient>
		<path style="fill:url(#SVGID_00000055697049960562900690000001084782725403472771_);" d="M181.15,93.36v-2.47l11.96-15.36v-0.22
			h-11.57v-3.02h15.74v2.58l-11.63,15.25v0.22h12.01v3.02H181.15z"/>
	</g>
	<g>
		
			<linearGradient id="SVGID_00000041257717066284716160000015784445599649417344_" gradientUnits="userSpaceOnUse" x1="179.092" y1="2911.2476" x2="201.032" y2="2911.2476" gradientTransform="matrix(1 0 0 1 0 -2873.5476)">
			<stop  offset="0" style="stop-color:#925D91"/>
			<stop  offset="1" style="stop-color:#81B0BD"/>
		</linearGradient>
		<path style="fill:url(#SVGID_00000041257717066284716160000015784445599649417344_);" d="M179.09,51.7v-3.28l15.89-20.41v-0.29
			H179.6v-4.01h20.92v3.43L185.07,47.4v0.29h15.96v4.01L179.09,51.7z"/>
	</g>
</g>
<g>
	<g>
		
			<radialGradient id="SVGID_00000049941924128518312420000000917241806103523209_" cx="143.1117" cy="250.9011" r="29.1415" gradientTransform="matrix(1 0 0 0.5898 0 102.9214)" gradientUnits="userSpaceOnUse">
			<stop  offset="0" style="stop-color:#06070C"/>
			<stop  offset="1" style="stop-color:#0D101D;stop-opacity:0"/>
		</radialGradient>
		<path style="opacity:0.67;fill:url(#SVGID_00000049941924128518312420000000917241806103523209_);" d="M168.1,236.84
			c-13.67-7.89-35.94-7.99-49.74-0.23s-13.9,20.46-0.23,28.36c13.67,7.89,35.94,7.99,49.74,0.23
			C181.66,257.42,181.77,244.73,168.1,236.84z"/>
		<g>
			<path class="st84" d="M179.07,201.13v-49.28c0-0.23,0.02-0.45,0.02-0.68c0-22.91-18.57-41.48-41.48-41.48
				c-22.91,0-41.48,18.57-41.48,41.48c0,0.36,0.02,0.72,0.03,1.07v44.66h-0.03v22.67c0,2.84,2.3,5.15,5.15,5.15
				c2.84,0,5.15-2.31,5.15-5.15v-0.83c0.56,0.36,1.13,0.72,1.74,1.07c1.83,1.06,3.79,1.99,5.85,2.81v8.2c0,2.84,2.3,5.15,5.15,5.15
				s5.15-2.31,5.15-5.15v-5.23c2.95,0.57,5.99,0.96,9.06,1.14v12.59c0,2.84,2.3,5.15,5.15,5.15s5.15-2.31,5.15-5.15v-12.7
				c3.39-0.28,6.73-0.8,9.93-1.55v6.36c0,2.84,2.3,5.15,5.15,5.15s5.15-2.31,5.15-5.15v-9.87c1-0.47,1.97-0.96,2.91-1.49
				c0.7-0.39,1.35-0.8,1.99-1.21v0.71c0,2.84,2.3,5.15,5.15,5.15c2.84,0,5.15-2.31,5.15-5.15v-18.45H179.07z"/>
			
				<radialGradient id="SVGID_00000001651189023529235330000013275226439607553960_" cx="162.2877" cy="127.108" r="106.6854" gradientUnits="userSpaceOnUse">
				<stop  offset="0.0124" style="stop-color:#DD78CE"/>
				<stop  offset="0.4936" style="stop-color:#A7589A"/>
				<stop  offset="0.5829" style="stop-color:#A0619E"/>
				<stop  offset="0.7273" style="stop-color:#8E79A8"/>
				<stop  offset="0.9078" style="stop-color:#709FB9"/>
				<stop  offset="1" style="stop-color:#5EB6C3"/>
			</radialGradient>
			<path style="fill:url(#SVGID_00000001651189023529235330000013275226439607553960_);" d="M179.07,201.13v-49.28
				c0-0.23,0.02-0.45,0.02-0.68c0-22.91-18.57-41.48-41.48-41.48c-22.91,0-41.48,18.57-41.48,41.48c0,0.36,0.02,0.72,0.03,1.07
				v44.66h-0.03v22.67c0,2.84,2.3,5.15,5.15,5.15c2.84,0,5.15-2.31,5.15-5.15v-0.83c0.56,0.36,1.13,0.72,1.74,1.07
				c1.83,1.06,3.79,1.99,5.85,2.81v8.2c0,2.84,2.3,5.15,5.15,5.15s5.15-2.31,5.15-5.15v-5.23c2.95,0.57,5.99,0.96,9.06,1.14v12.59
				c0,2.84,2.3,5.15,5.15,5.15s5.15-2.31,5.15-5.15v-12.7c3.39-0.28,6.73-0.8,9.93-1.55v6.36c0,2.84,2.3,5.15,5.15,5.15
				s5.15-2.31,5.15-5.15v-9.87c1-0.47,1.97-0.96,2.91-1.49c0.7-0.39,1.35-0.8,1.99-1.21v0.71c0,2.84,2.3,5.15,5.15,5.15
				c2.84,0,5.15-2.31,5.15-5.15v-18.45H179.07z"/>
		</g>
		<path id="矩形_00000081626525855739304710000018413743042375488433_" class="st82" d="M100.04,186.98L100.04,186.98
			c1.12,0,2.08,1.38,2.08,2.99v14.25c0,1.61-0.96,2.99-2.08,2.99l0,0c-1.12,0-2.08-1.38-2.08-2.99v-14.25
			C97.95,188.36,98.91,186.98,100.04,186.98z"/>
		<path id="矩形_00000152240795175209750030000015586913012916022164_" class="st82" d="M100.04,212.78L100.04,212.78
			c1.12,0,2.08,1.38,2.08,2.99v2.76c0,1.61-0.96,2.99-2.08,2.99l0,0c-1.12,0-2.08-1.38-2.08-2.99v-2.76
			C97.95,214.04,98.91,212.78,100.04,212.78z"/>
		<path id="矩形_00000032608107515683194510000008843831048805335985_" class="st82" d="M117.42,223.55L117.42,223.55
			c1.12,0,2.08,1.38,2.08,2.99v2.76c0,1.61-0.96,2.99-2.08,2.99l0,0c-1.12,0-2.08-1.38-2.08-2.99v-2.76
			C115.34,224.82,116.3,223.55,117.42,223.55z"/>
		<path id="矩形_00000029724540726002977790000005249840531161114785_" class="st82" d="M137.6,232.29L137.6,232.29
			c1.12,0,2.08,1.38,2.08,2.99v2.76c0,1.61-0.96,2.99-2.08,2.99l0,0c-1.12,0-2.08-1.38-2.08-2.99v-2.76
			C135.52,233.55,136.48,232.29,137.6,232.29z"/>
		<path id="矩形_00000093164517906930463090000006742068414860440968_" class="st82" d="M157.29,226.95L157.29,226.95
			c0.89,0,1.66,1.1,1.66,2.37v2.19c0,1.28-0.76,2.37-1.66,2.37l0,0c-0.89,0-1.66-1.1-1.66-2.37v-2.19
			C155.64,227.95,156.4,226.95,157.29,226.95z"/>
		<path id="矩形_00000132799397739795212130000009421529999239258034_" class="st82" d="M172.09,216.79L172.09,216.79
			c0.62,0,1.14,0.76,1.14,1.64v1.51c0,0.88-0.53,1.64-1.14,1.64l0,0c-0.62,0-1.14-0.76-1.14-1.64v-1.51
			C170.94,217.48,171.47,216.79,172.09,216.79z"/>
		<line class="st113" x1="138.18" y1="167.82" x2="149.87" y2="163.51"/>
		<line class="st113" x1="161.41" y1="160.09" x2="173.1" y2="155.78"/>
	</g>
	<g>
		<path id="矩形_00000163058621055730673870000016756435384336563630_" class="st82" d="M161.32,124.78L161.32,124.78
			c1.37-1.02,3.68-0.37,5.02,1.41l2.29,3.06c1.34,1.78,1.31,4.19-0.06,5.22l0,0c-1.37,1.02-3.68,0.37-5.02-1.41l-2.29-3.06
			C159.83,128.08,159.95,125.8,161.32,124.78z"/>
	</g>
</g>
</svg>
