<?xml version="1.0" encoding="utf-8"?>
<!-- Generator: Adobe Illustrator 27.8.1, SVG Export Plug-In . SVG Version: 6.00 Build 0)  -->
<svg version="1.1" id="Слой_1" xmlns="http://www.w3.org/2000/svg" xmlns:xlink="http://www.w3.org/1999/xlink" x="0px" y="0px"
	 viewBox="0 0 290 269.62" style="enable-background:new 0 0 290 269.62;" xml:space="preserve">
<style type="text/css">
	.st0{fill:#101422;}
	.st1{fill:#FFFFFF;stroke:#111422;stroke-linecap:round;stroke-linejoin:round;stroke-miterlimit:10;}
	
		.st2{fill-rule:evenodd;clip-rule:evenodd;fill:#C6C3D1;stroke:#101320;stroke-linecap:round;stroke-linejoin:round;stroke-miterlimit:10;}
	
		.st3{fill-rule:evenodd;clip-rule:evenodd;fill:#FFFFFF;stroke:#111422;stroke-linecap:round;stroke-linejoin:round;stroke-miterlimit:10;}
	
		.st4{fill-rule:evenodd;clip-rule:evenodd;fill:#ECF0FC;stroke:#111422;stroke-linecap:round;stroke-linejoin:round;stroke-miterlimit:10;}
	.st5{opacity:0.92;fill-rule:evenodd;clip-rule:evenodd;fill:#FFFFFF;enable-background:new    ;}
	.st6{fill:none;stroke:#FFFFFF;stroke-linecap:round;stroke-linejoin:round;stroke-miterlimit:10;}
	.st7{fill-rule:evenodd;clip-rule:evenodd;fill:#101422;}
	.st8{fill:url(#SVGID_1_);}
	.st9{fill:url(#SVGID_00000021802115334626771720000001082172658736747699_);}
	.st10{fill:url(#SVGID_00000111886229892556577320000017802147527133595043_);}
	.st11{opacity:0.67;fill:url(#SVGID_00000090276480869747513580000003414316412403279016_);enable-background:new    ;}
	.st12{fill:#6FA3B6;}
	.st13{fill:url(#SVGID_00000150075514325471564480000016592501943732777868_);}
	.st14{opacity:0.2563;fill-rule:evenodd;clip-rule:evenodd;fill:#FFFFFF;enable-background:new    ;}
	.st15{fill:none;stroke:#FFFFFF;stroke-width:0.7384;stroke-linecap:round;stroke-linejoin:round;stroke-miterlimit:10;}
	
		.st16{fill:none;stroke:url(#SVGID_00000116193700217330987600000009403924367380745909_);stroke-width:5;stroke-linecap:round;stroke-linejoin:round;stroke-miterlimit:10;}
	.st17{fill:url(#SVGID_00000014633236496793929590000018404112681983975350_);}
	.st18{fill-rule:evenodd;clip-rule:evenodd;fill:#1AD4B3;}
	.st19{fill-rule:evenodd;clip-rule:evenodd;fill:#FC4F83;}
	.st20{fill:#C6C3D1;stroke:#101320;stroke-linecap:round;stroke-linejoin:round;stroke-miterlimit:10;}
	.st21{fill:#ECF0FC;stroke:#111422;stroke-linecap:round;stroke-linejoin:round;stroke-miterlimit:10;}
	
		.st22{fill:url(#SVGID_00000061457978029357251300000014500916575417312392_);stroke:#1D1D1B;stroke-width:0.2115;stroke-linecap:round;stroke-linejoin:round;stroke-miterlimit:10;}
	
		.st23{fill:url(#SVGID_00000152265092052626647740000006379924452663411607_);stroke:#1D1D1B;stroke-width:0.2115;stroke-linecap:round;stroke-linejoin:round;stroke-miterlimit:10;}
	
		.st24{fill:url(#SVGID_00000138550479153023338250000016218549402684190394_);stroke:#1D1D1B;stroke-width:0.2115;stroke-linecap:round;stroke-linejoin:round;stroke-miterlimit:10;}
	
		.st25{fill:url(#SVGID_00000011722734842282693340000009308121512033215420_);stroke:#1D1D1B;stroke-width:0.2115;stroke-linecap:round;stroke-linejoin:round;stroke-miterlimit:10;}
	
		.st26{fill-rule:evenodd;clip-rule:evenodd;fill:#101422;stroke:#101423;stroke-linecap:round;stroke-linejoin:round;stroke-miterlimit:10;}
	.st27{fill:#FFFFFF;}
	.st28{fill-rule:evenodd;clip-rule:evenodd;fill:url(#SVGID_00000071531905278102986740000002012431764411338175_);}
	.st29{fill-rule:evenodd;clip-rule:evenodd;fill:url(#SVGID_00000127018244910668726380000016483108326267655345_);}
	.st30{fill:url(#SVGID_00000181784410828744718330000004187808294544363656_);}
	.st31{fill:url(#SVGID_00000091719445832456227960000015878883316262227621_);}
	.st32{fill:url(#SVGID_00000034071814772315484590000012496269662957176242_);}
	
		.st33{fill-rule:evenodd;clip-rule:evenodd;fill:#C7FFF1;stroke:#101320;stroke-linecap:round;stroke-linejoin:round;stroke-miterlimit:10;}
	
		.st34{fill:none;stroke:url(#SVGID_00000027590044703908619730000014719257922235026575_);stroke-width:5;stroke-linecap:round;stroke-linejoin:round;stroke-miterlimit:10;}
	.st35{fill:url(#SVGID_00000143589193046382381170000007501701216588446111_);}
	
		.st36{fill:none;stroke:url(#SVGID_00000121966716010788737620000017752489706882628480_);stroke-width:5;stroke-linecap:round;stroke-linejoin:round;stroke-miterlimit:10;}
	.st37{fill:url(#SVGID_00000029045968550603035390000006431282189340825788_);}
	
		.st38{fill:none;stroke:url(#SVGID_00000084518950630492827330000009600060016581485218_);stroke-width:5;stroke-linecap:round;stroke-linejoin:round;stroke-miterlimit:10;}
	.st39{fill:url(#SVGID_00000102523828710224566600000008372086283387986595_);}
	
		.st40{fill-rule:evenodd;clip-rule:evenodd;fill:#1AD4B3;stroke:#111422;stroke-linecap:round;stroke-linejoin:round;stroke-miterlimit:10;}
	
		.st41{fill-rule:evenodd;clip-rule:evenodd;fill:#FC4F83;stroke:#111422;stroke-linecap:round;stroke-linejoin:round;stroke-miterlimit:10;}
	
		.st42{fill-rule:evenodd;clip-rule:evenodd;fill:#FFCAD7;stroke:#111422;stroke-linecap:round;stroke-linejoin:round;stroke-miterlimit:10;}
	.st43{fill:url(#SVGID_00000011736610223025372180000003036424198925746324_);}
	.st44{fill:url(#SVGID_00000004506935728485014830000001936862792606565042_);}
	.st45{fill:url(#SVGID_00000046302670905628828940000014173394103171797660_);}
	
		.st46{fill:none;stroke:url(#SVGID_00000014613311303080946120000007302783254570480316_);stroke-width:5;stroke-linecap:round;stroke-linejoin:round;stroke-miterlimit:10;}
	.st47{fill:url(#SVGID_00000037654121702917946840000018375003296764411045_);}
	
		.st48{fill:none;stroke:url(#SVGID_00000009551152274502770740000007850044015485507987_);stroke-width:5;stroke-linecap:round;stroke-linejoin:round;stroke-miterlimit:10;}
	.st49{fill:url(#SVGID_00000155835947933752433340000007269807957687918976_);}
	.st50{fill:url(#SVGID_00000124848386476967729810000004237907311409876395_);}
	.st51{fill:#101320;}
	.st52{fill:url(#SVGID_00000084501331970889602090000013211748428830123159_);}
	.st53{fill:url(#SVGID_00000172403801279704553070000000386511860073821114_);}
	.st54{fill:url(#SVGID_00000177466553253645617830000010449939945571302572_);}
	.st55{fill:url(#SVGID_00000181798502289158723070000014729482554666611843_);}
	.st56{fill:url(#SVGID_00000014599708121884990700000012936129375486783908_);}
	.st57{fill:url(#SVGID_00000152985783683029929070000003834659315293567395_);}
	.st58{opacity:0.29;fill:url(#SVGID_00000059991440083880977100000009846928581740867258_);enable-background:new    ;}
	.st59{fill:url(#SVGID_00000009585182794890828960000011923773849506523558_);}
	.st60{fill:url(#SVGID_00000111910097727042214240000012911423003378243253_);}
	.st61{fill:url(#SVGID_00000087403119847556351780000011878121453918046081_);}
	.st62{fill-rule:evenodd;clip-rule:evenodd;fill:url(#SVGID_00000058558203591422491660000000400009545286882995_);}
	.st63{fill:url(#SVGID_00000127761982789787513820000001603035872746452667_);}
	.st64{fill:url(#SVGID_00000075868271449187076290000002022703749001517232_);}
	.st65{fill:url(#SVGID_00000069376484731018316050000010286867504260430482_);}
	.st66{fill:url(#SVGID_00000178919165225418120740000001171878579979979709_);}
	.st67{opacity:0.29;fill:url(#SVGID_00000085211199640521804700000005520342359851809966_);enable-background:new    ;}
	
		.st68{fill:none;stroke:url(#SVGID_00000129885128786822002340000000376204566344492939_);stroke-width:5;stroke-linecap:round;stroke-linejoin:round;stroke-miterlimit:10;}
	.st69{fill:url(#SVGID_00000034079066090427573870000000425479079782184591_);}
	
		.st70{fill:none;stroke:url(#SVGID_00000173139919443175644040000009320940713298560179_);stroke-width:5;stroke-linecap:round;stroke-linejoin:round;stroke-miterlimit:10;}
	.st71{fill:url(#SVGID_00000024702822920581509930000011698020126314635176_);}
	
		.st72{fill:none;stroke:url(#SVGID_00000139257974079173514520000002333552330700013229_);stroke-width:5;stroke-linecap:round;stroke-linejoin:round;stroke-miterlimit:10;}
	.st73{fill:url(#SVGID_00000078035585090262251400000016568080603592113580_);}
	.st74{fill-rule:evenodd;clip-rule:evenodd;fill:url(#SVGID_00000124132756475844275270000005785854297008086181_);}
	.st75{fill:url(#SVGID_00000098212530099099909720000014523467416057835184_);}
	.st76{fill:url(#SVGID_00000082331242406492875980000011454861763738970013_);}
	.st77{fill:url(#SVGID_00000016794416006871542620000009337800140939740823_);}
	.st78{opacity:0.29;fill:url(#SVGID_00000144313870537962162330000010324993502929423281_);}
	.st79{opacity:0.29;fill:url(#SVGID_00000005246905129234016700000009582713079352522890_);}
	.st80{opacity:0.67;fill:url(#SVGID_00000098197361376116456480000001640775201989227961_);}
	.st81{fill:#3FA9BD;}
	.st82{fill:url(#SVGID_00000087396315981527641660000018177161414000908186_);}
	.st83{fill-rule:evenodd;clip-rule:evenodd;fill:#555069;}
	.st84{fill-rule:evenodd;clip-rule:evenodd;fill:#FFFFFF;}
	.st85{fill-rule:evenodd;clip-rule:evenodd;fill:#AFAFB1;}
	.st86{fill-rule:evenodd;clip-rule:evenodd;fill:#D3D3D3;}
	.st87{opacity:0.67;fill:url(#SVGID_00000057115135769824903520000014847156776332676255_);}
	.st88{fill:url(#SVGID_00000093175116279916348500000002475213203202129541_);}
	.st89{opacity:0.67;fill:url(#SVGID_00000044887915555567553290000003943998549671626164_);}
	.st90{fill:url(#SVGID_00000018928232687395282270000007892532297883285901_);}
	.st91{opacity:0.67;fill:url(#SVGID_00000018931660416389606340000009263818436264851635_);}
	.st92{fill:url(#SVGID_00000161600820216955065360000016772798527523977621_);}
	.st93{opacity:0.67;fill:url(#SVGID_00000029028547448205215020000007204934103873726364_);}
	.st94{fill:url(#SVGID_00000088115749839150490090000011466331997542498208_);}
	.st95{opacity:0.67;fill:url(#SVGID_00000162351955737408235450000009070255470711357878_);}
	.st96{fill:url(#SVGID_00000007430393943212701030000014812233338696358832_);}
	.st97{fill:#1AD4B3;}
	.st98{opacity:0.67;fill:url(#SVGID_00000020381547038451161580000010348513901685072286_);}
	.st99{fill:url(#SVGID_00000091016407093170254200000017735710488434499504_);}
	.st100{opacity:0.67;fill:url(#SVGID_00000052083439755287072560000016072998927537724332_);}
	.st101{fill:url(#SVGID_00000115476062139256569920000000179216285470388150_);}
	.st102{opacity:0.67;fill:url(#SVGID_00000014607661325886445200000001757351681597762225_);}
	.st103{fill:url(#SVGID_00000124878466585346271390000004550926538107148219_);}
	
		.st104{fill-rule:evenodd;clip-rule:evenodd;fill:none;stroke:#FFFFFF;stroke-width:0.7384;stroke-linecap:round;stroke-linejoin:round;stroke-miterlimit:10;}
	.st105{opacity:0.67;fill:url(#SVGID_00000001651458292497271570000012330914801766028968_);}
	.st106{fill:url(#SVGID_00000064348693735831566110000007794633322385079211_);}
	.st107{opacity:0.67;fill:url(#SVGID_00000100341579590616248810000004575213739163973518_);}
	.st108{fill:url(#SVGID_00000078735515157698289780000002343608896007230362_);}
	.st109{opacity:0.67;fill:url(#SVGID_00000011718009840182056890000013088806709881089705_);}
	.st110{fill:url(#SVGID_00000147207389718657164210000016863540938237383359_);}
	.st111{opacity:0.67;fill:url(#SVGID_00000049910169943941275970000010239505570701121966_);}
	.st112{fill:url(#SVGID_00000005262659015486799250000006357860625617829049_);}
	.st113{opacity:0.67;fill:url(#SVGID_00000016762509546750430750000006526946624941654145_);}
	.st114{fill:url(#SVGID_00000094616438621474930890000009130719825776392103_);}
	.st115{opacity:0.67;fill:url(#SVGID_00000078736667192476513230000011239456922576347558_);}
	.st116{fill:url(#SVGID_00000119087037919010342120000007575961046592828548_);}
	.st117{opacity:0.67;fill:url(#SVGID_00000178914050482709017920000010770148190943614095_);}
	.st118{fill:url(#SVGID_00000122678481732680548580000004716750516282647219_);}
	.st119{opacity:0.67;fill:url(#SVGID_00000006699579991525650090000006979987739213546413_);}
	.st120{fill:url(#SVGID_00000143614112205539701590000006014235115506223009_);}
	.st121{opacity:0.67;fill:url(#SVGID_00000015356558962674389290000001393878537862206142_);}
	.st122{fill:url(#SVGID_00000034055966550117867390000000975367958519350939_);}
	.st123{opacity:0.67;fill:url(#SVGID_00000065762224014400620480000005481300495295591347_);}
	.st124{fill:url(#SVGID_00000088835363081244104200000014266275660241296543_);}
	.st125{opacity:0.67;fill:url(#SVGID_00000075123996561887539740000003788305617770813579_);}
	.st126{fill:url(#SVGID_00000042003800049080329380000008360606738225319609_);}
	.st127{opacity:0.67;fill:url(#SVGID_00000098913497931854386400000006096523991699887807_);}
	.st128{fill:#5EA6B9;}
	.st129{fill:url(#SVGID_00000093176964280739458790000000483122271395599000_);}
	.st130{fill-rule:evenodd;clip-rule:evenodd;fill:#545067;}
	.st131{fill-rule:evenodd;clip-rule:evenodd;fill:#AEAEB0;}
	.st132{fill-rule:evenodd;clip-rule:evenodd;fill:#D2D2D2;}
	.st133{opacity:0.67;fill:url(#SVGID_00000090985482310996080880000012523375432991870351_);}
	.st134{fill:url(#SVGID_00000065786074303624505400000001499946965232294285_);}
	.st135{fill-rule:evenodd;clip-rule:evenodd;fill:#63D0B3;}
	
		.st136{fill-rule:evenodd;clip-rule:evenodd;fill:none;stroke:#111422;stroke-linecap:round;stroke-linejoin:round;stroke-miterlimit:10;}
	.st137{fill-rule:evenodd;clip-rule:evenodd;fill:#E85C83;}
	.st138{fill:#5DC29D;}
	.st139{fill:url(#SVGID_00000055684018542276160760000008436256035395830146_);}
	.st140{fill:url(#SVGID_00000145741508716854646330000001085204184667485864_);}
	.st141{fill:#E85C83;}
	.st142{opacity:0.67;fill:url(#SVGID_00000132793272868548250120000018066326695136096682_);}
	.st143{fill:url(#SVGID_00000000200134818116867010000012258929421199999877_);}
	
		.st144{fill:none;stroke:url(#SVGID_00000066499531209046431750000005977991060763262371_);stroke-width:5;stroke-linecap:round;stroke-linejoin:round;stroke-miterlimit:10;}
	.st145{fill:url(#SVGID_00000100347182129612685540000014438064279353513890_);}
	.st146{opacity:0.67;fill:url(#SVGID_00000129899239472368786700000012693522844860136853_);}
	.st147{fill:url(#SVGID_00000116921102285559984270000011351868549172110270_);}
	.st148{opacity:0.67;fill:url(#SVGID_00000083075166168311319360000012615427070040657805_);}
	.st149{fill:url(#SVGID_00000078007331640041313890000011098756145488802732_);}
	.st150{opacity:0.67;fill:url(#SVGID_00000090296467369314666760000016946047385124153225_);}
	.st151{fill:url(#SVGID_00000028295881482405985320000007695741590222262415_);}
	.st152{opacity:0.67;fill:url(#SVGID_00000101085518802345625900000014973971001275529406_);}
	.st153{fill:url(#SVGID_00000109711830247417149960000006828231390849323665_);}
	.st154{opacity:0.67;fill:url(#SVGID_00000012450761958460464970000006776514976647241397_);}
	.st155{fill:url(#SVGID_00000148631803091707614270000013276755566692041901_);}
	.st156{opacity:0.67;fill:url(#SVGID_00000179605860987476665620000006749039570104067226_);}
	.st157{fill:url(#SVGID_00000145026783297331266220000010403074383640981935_);}
	.st158{fill:none;stroke:#000000;stroke-width:22;stroke-linecap:round;stroke-linejoin:round;stroke-miterlimit:10;}
	.st159{fill:#ECF0FC;}
	.st160{fill:url(#SVGID_00000122704848035775702370000005799109004596110773_);}
	.st161{fill:url(#SVGID_00000082350005432933546690000018016828065286588568_);}
	.st162{fill:none;stroke:url(#SVGID_00000161604656672255390720000018019941033277847467_);stroke-width:5;stroke-miterlimit:10;}
	.st163{fill:#111422;}
	.st164{fill:url(#SVGID_00000094594324301027337870000017177771178221322393_);}
	.st165{fill:none;}
	.st166{opacity:0.67;fill:url(#SVGID_00000088097468758710295180000001101893851007381405_);}
	.st167{fill:url(#SVGID_00000084515728080286238670000006688903330562459317_);}
	.st168{fill:none;stroke:url(#SVGID_00000086682376053691570900000013528650352036824194_);stroke-width:5;stroke-miterlimit:10;}
	.st169{fill:url(#SVGID_00000062151196634219999260000001894474939169323685_);}
	.st170{opacity:0.67;fill:url(#SVGID_00000152231107973211561490000012960302516054707364_);}
	.st171{fill:url(#SVGID_00000147928751395464792450000014136676978567332514_);}
	.st172{opacity:0.67;fill:url(#SVGID_00000087372782455654445950000004860378803809336999_);}
	.st173{fill:url(#SVGID_00000176011638465106612020000004406390377214169738_);}
</style>
<g>
	<circle class="st0" cx="144.67" cy="70.24" r="26.03"/>
	<g>
		<g>
			<path class="st1" d="M138.21,43.43l-0.01,10.81c-0.33,1.38,0.28,2.85,1.82,3.91c2.54,1.76,6.66,1.76,9.2,0
				c1.08-0.75,1.7-1.69,1.86-2.67l0.04,0l0-0.45c0-0.04,0-0.09,0-0.13l0.01-11.18L138.21,43.43z"/>
			<path class="st1" d="M138.26,51.16c0,2.45,2.87,4.43,6.41,4.43s6.41-1.98,6.41-4.43"/>
			<path class="st1" d="M138.26,47.77c0,2.45,2.87,4.43,6.41,4.43s6.41-1.98,6.41-4.43"/>
			<path class="st1" d="M138.26,44.21c0,2.45,2.87,4.43,6.41,4.43s6.41-1.98,6.41-4.43"/>
		</g>
		<g>
			<path class="st1" d="M138.21,32.75l-0.01,10.81c-0.33,1.38,0.28,2.85,1.82,3.91c2.54,1.76,6.66,1.76,9.2,0
				c1.08-0.75,1.7-1.69,1.86-2.67l0.04,0l0-0.45c0-0.04,0-0.09,0-0.13l0.01-11.18L138.21,32.75z"/>
			<path class="st1" d="M138.26,40.49c0,2.45,2.87,4.43,6.41,4.43s6.41-1.98,6.41-4.43"/>
			<path class="st1" d="M138.26,37.1c0,2.45,2.87,4.43,6.41,4.43s6.41-1.98,6.41-4.43"/>
			<path class="st1" d="M138.26,33.54c0,2.45,2.87,4.43,6.41,4.43s6.41-1.98,6.41-4.43"/>
		</g>
	</g>
	<g>
		<g>
			<g>
				<polygon class="st2" points="144.27,48.55 126.46,38.27 126.46,20.45 144.27,30.74 				"/>
				<polygon class="st3" points="144.27,48.55 162.09,38.27 162.09,20.45 144.27,30.74 				"/>
				<polygon class="st4" points="144.34,30.79 126.46,20.47 144.21,10.13 162.09,20.45 				"/>
			</g>
			<path id="矩形_00000169557465959157969730000007041726103997879939_" class="st5" d="M138.69,15.45L138.69,15.45
				c0.35,0.2,0.29,0.58-0.12,0.83l-3.7,2.19c-0.42,0.25-1.08,0.29-1.43,0.09l0,0c-0.35-0.2-0.29-0.58,0.12-0.83l3.7-2.19
				C137.68,15.29,138.34,15.25,138.69,15.45z"/>
			<path id="矩形_00000147933340223026900860000008115909811003878328_" class="st5" d="M131.99,19.41L131.99,19.41
				c0.35,0.2,0.29,0.58-0.12,0.83l-0.72,0.42c-0.42,0.25-1.08,0.29-1.43,0.09l0,0c-0.35-0.2-0.29-0.58,0.12-0.83l0.72-0.42
				C131.02,19.24,131.64,19.21,131.99,19.41z"/>
		</g>
	</g>
</g>
<g>
	<circle class="st0" cx="263.33" cy="58.37" r="17.42"/>
	<g>
		<g>
			<path class="st1" d="M259,40.43l0,7.23c-0.22,0.92,0.19,1.91,1.22,2.62c1.7,1.18,4.46,1.18,6.16,0c0.72-0.5,1.14-1.13,1.25-1.79
				l0.03,0l0-0.3c0-0.03,0-0.06,0-0.09l0-7.49L259,40.43z"/>
			<path class="st1" d="M259.04,45.6c0,1.64,1.92,2.97,4.29,2.97c2.37,0,4.29-1.33,4.29-2.97"/>
			<path class="st1" d="M259.04,43.33c0,1.64,1.92,2.97,4.29,2.97c2.37,0,4.29-1.33,4.29-2.97"/>
			<path class="st1" d="M259.04,40.95c0,1.64,1.92,2.97,4.29,2.97c2.37,0,4.29-1.33,4.29-2.97"/>
		</g>
		<g>
			<path class="st1" d="M259,33.28l0,7.23c-0.22,0.92,0.19,1.91,1.22,2.62c1.7,1.18,4.46,1.18,6.16,0c0.72-0.5,1.14-1.13,1.25-1.79
				l0.03,0l0-0.3c0-0.03,0-0.06,0-0.09l0-7.49L259,33.28z"/>
			<path class="st1" d="M259.04,38.46c0,1.64,1.92,2.97,4.29,2.97c2.37,0,4.29-1.33,4.29-2.97"/>
			<path class="st1" d="M259.04,36.19c0,1.64,1.92,2.97,4.29,2.97c2.37,0,4.29-1.33,4.29-2.97"/>
			<path class="st1" d="M259.04,33.8c0,1.64,1.92,2.97,4.29,2.97c2.37,0,4.29-1.33,4.29-2.97"/>
		</g>
	</g>
	<g>
		<g>
			<g>
				<polygon class="st2" points="263.06,43.86 251.14,36.97 251.14,25.05 263.06,31.93 				"/>
				<polygon class="st3" points="263.06,43.86 274.99,36.97 274.99,25.05 263.06,31.93 				"/>
				<polygon class="st4" points="263.11,31.97 251.14,25.06 263.02,18.13 274.99,25.05 				"/>
			</g>
			<path id="矩形_00000077300541331415567450000007808653387048120511_" class="st5" d="M259.43,21.56L259.43,21.56
				c0.23,0.13,0.2,0.39-0.08,0.55l-2.47,1.46c-0.28,0.17-0.72,0.19-0.95,0.06l0,0c-0.23-0.13-0.2-0.39,0.08-0.55l2.47-1.46
				C258.75,21.46,259.19,21.43,259.43,21.56z"/>
			<path id="矩形_00000001642279320521042700000008360799476011706808_" class="st5" d="M254.95,24.22L254.95,24.22
				c0.23,0.13,0.2,0.39-0.08,0.55l-0.48,0.28c-0.28,0.17-0.72,0.19-0.95,0.06l0,0c-0.23-0.13-0.2-0.39,0.08-0.55l0.48-0.28
				C254.29,24.1,254.71,24.08,254.95,24.22z"/>
		</g>
	</g>
</g>
<g>
	<g>
		<polygon class="st26" points="263.04,158.85 209.25,189.57 209.5,210.38 263.16,179.85 		"/>
		<polygon class="st2" points="168.54,166.9 209.25,189.52 209.5,210.38 168.79,187.76 		"/>
		<polygon class="st4" points="262.79,158.83 221.55,135.82 168.54,166.9 209.25,189.72 		"/>
	</g>
	<g>
		<polygon class="st3" points="263.04,134.31 209.25,165.03 209.5,185.84 263.16,155.31 		"/>
		<polygon class="st2" points="168.54,142.36 209.25,164.97 209.5,185.84 168.79,163.22 		"/>
		<polygon class="st4" points="263.04,134.24 221.8,111.23 168.54,141.97 209.25,164.79 		"/>
	</g>
	<circle class="st0" cx="213.14" cy="111.19" r="41.04"/>
	<g>
		<g>
			<path class="st0" d="M217.3,175.29v-8.95l2.53-1.5c0.49-0.29,0.9-0.41,1.24-0.35c0.34,0.05,0.6,0.26,0.79,0.61
				c0.18,0.35,0.27,0.82,0.27,1.41c0,0.59-0.09,1.17-0.28,1.74c-0.18,0.56-0.45,1.07-0.8,1.53c-0.35,0.46-0.77,0.84-1.26,1.13
				l-1.61,0.96v-1.52l1.39-0.83c0.26-0.15,0.48-0.35,0.65-0.57c0.17-0.23,0.3-0.48,0.38-0.76c0.08-0.28,0.13-0.56,0.13-0.85
				c0-0.3-0.04-0.53-0.13-0.71c-0.08-0.17-0.21-0.27-0.38-0.29c-0.17-0.02-0.39,0.04-0.65,0.2l-0.91,0.54v7.4L217.3,175.29z"/>
			<path class="st0" d="M222.99,171.92v-6.71l1.29-0.77v1.17l0.05-0.03c0.09-0.47,0.23-0.87,0.44-1.21
				c0.21-0.34,0.44-0.58,0.71-0.74c0.07-0.04,0.14-0.08,0.22-0.11c0.08-0.03,0.15-0.06,0.2-0.07v1.65
				c-0.06,0.01-0.15,0.04-0.26,0.08c-0.11,0.04-0.21,0.09-0.3,0.15c-0.2,0.12-0.37,0.28-0.53,0.49c-0.15,0.21-0.27,0.44-0.36,0.71
				c-0.09,0.26-0.13,0.53-0.13,0.8v3.8L222.99,171.92z"/>
			<path class="st0" d="M228.54,168.76c-0.49,0.29-0.91,0.39-1.26,0.31c-0.35-0.08-0.63-0.32-0.82-0.73
				c-0.19-0.41-0.29-0.95-0.29-1.64c0-0.69,0.1-1.36,0.29-1.99c0.19-0.63,0.47-1.2,0.82-1.7c0.35-0.5,0.77-0.89,1.26-1.18
				c0.49-0.29,0.91-0.39,1.26-0.31c0.35,0.08,0.63,0.32,0.82,0.73c0.19,0.41,0.29,0.96,0.29,1.65c0,0.69-0.1,1.35-0.29,1.98
				c-0.19,0.63-0.47,1.2-0.82,1.7C229.45,168.08,229.03,168.47,228.54,168.76z M228.55,167.32c0.22-0.13,0.41-0.33,0.55-0.59
				s0.26-0.57,0.34-0.92s0.11-0.72,0.11-1.11c0-0.39-0.04-0.72-0.11-0.98s-0.19-0.44-0.34-0.53c-0.15-0.09-0.33-0.07-0.55,0.06
				c-0.22,0.13-0.41,0.33-0.56,0.6c-0.15,0.27-0.27,0.58-0.34,0.93c-0.08,0.35-0.11,0.72-0.11,1.11c0,0.39,0.04,0.72,0.11,0.98
				c0.08,0.26,0.19,0.43,0.34,0.52C228.14,167.47,228.32,167.45,228.55,167.32z"/>
			<path class="st0" d="M231.78,169.23V160l1.32-0.78v1.13l0.06-0.04c0.06-0.22,0.14-0.45,0.26-0.7c0.11-0.25,0.26-0.5,0.44-0.73
				c0.18-0.23,0.41-0.43,0.68-0.59c0.35-0.21,0.67-0.27,0.97-0.19c0.3,0.08,0.53,0.32,0.71,0.73c0.18,0.41,0.27,0.99,0.27,1.76
				c0,0.75-0.09,1.43-0.26,2.05c-0.17,0.62-0.41,1.14-0.7,1.58c-0.3,0.44-0.63,0.77-0.99,0.98c-0.26,0.15-0.48,0.22-0.66,0.21
				c-0.18-0.01-0.33-0.07-0.44-0.19c-0.11-0.11-0.2-0.25-0.26-0.4l-0.04,0.02v3.59L231.78,169.23z M233.09,162.58
				c0,0.4,0.04,0.72,0.12,0.97c0.08,0.25,0.19,0.41,0.34,0.49c0.15,0.07,0.33,0.05,0.55-0.08c0.22-0.13,0.4-0.32,0.55-0.58
				c0.15-0.26,0.26-0.56,0.34-0.9c0.08-0.35,0.12-0.71,0.12-1.1c0-0.39-0.04-0.71-0.12-0.95c-0.08-0.25-0.19-0.41-0.34-0.49
				c-0.15-0.08-0.33-0.05-0.55,0.08c-0.22,0.13-0.4,0.32-0.55,0.57s-0.26,0.54-0.34,0.89C233.13,161.81,233.09,162.18,233.09,162.58
				z"/>
			<path class="st0" d="M239.53,162.25c-0.49,0.29-0.91,0.39-1.26,0.31c-0.35-0.08-0.63-0.32-0.82-0.73
				c-0.19-0.41-0.29-0.95-0.29-1.64c0-0.69,0.1-1.36,0.29-1.99c0.19-0.63,0.47-1.2,0.82-1.7c0.35-0.5,0.77-0.89,1.26-1.18
				c0.49-0.29,0.91-0.39,1.26-0.31c0.35,0.08,0.63,0.32,0.82,0.73c0.19,0.41,0.29,0.96,0.29,1.65c0,0.69-0.1,1.35-0.29,1.98
				c-0.19,0.63-0.47,1.2-0.82,1.7C240.44,161.57,240.02,161.96,239.53,162.25z M239.54,160.8c0.22-0.13,0.41-0.33,0.55-0.59
				s0.26-0.57,0.34-0.92c0.08-0.35,0.11-0.72,0.11-1.11s-0.04-0.72-0.11-0.98c-0.08-0.26-0.19-0.44-0.34-0.53
				c-0.15-0.09-0.33-0.07-0.55,0.06c-0.22,0.13-0.41,0.33-0.56,0.6c-0.15,0.27-0.27,0.58-0.34,0.93s-0.11,0.72-0.11,1.11
				c0,0.39,0.04,0.72,0.11,0.98c0.08,0.26,0.19,0.43,0.34,0.52C239.13,160.96,239.32,160.94,239.54,160.8z"/>
			<path class="st0" d="M246.78,153.03l-1.22,0.83c-0.02-0.13-0.07-0.24-0.13-0.32c-0.07-0.08-0.16-0.12-0.27-0.12
				c-0.11-0.01-0.24,0.04-0.4,0.13c-0.21,0.12-0.38,0.29-0.52,0.49c-0.14,0.21-0.21,0.41-0.21,0.61c0,0.16,0.05,0.27,0.14,0.32
				c0.09,0.06,0.25,0.05,0.47-0.01l0.87-0.27c0.47-0.14,0.82-0.13,1.05,0.03c0.23,0.16,0.34,0.48,0.34,0.97
				c0,0.44-0.09,0.88-0.28,1.32c-0.18,0.44-0.44,0.85-0.76,1.22c-0.32,0.38-0.69,0.69-1.11,0.93c-0.64,0.38-1.14,0.49-1.52,0.34
				c-0.38-0.15-0.6-0.52-0.66-1.13l1.31-0.87c0.04,0.25,0.14,0.4,0.29,0.45c0.15,0.05,0.35,0.01,0.59-0.14
				c0.23-0.14,0.42-0.31,0.57-0.53c0.14-0.21,0.22-0.42,0.22-0.62c0-0.17-0.05-0.28-0.15-0.33c-0.1-0.05-0.25-0.04-0.46,0.02
				l-0.83,0.26c-0.47,0.15-0.82,0.13-1.05-0.06c-0.23-0.19-0.34-0.53-0.34-1.03c0-0.43,0.08-0.85,0.25-1.26
				c0.17-0.41,0.4-0.79,0.71-1.14c0.31-0.35,0.66-0.65,1.08-0.89c0.61-0.36,1.09-0.46,1.44-0.31
				C246.51,152.08,246.72,152.45,246.78,153.03z"/>
			<path class="st0" d="M249.1,156.58c-0.31,0.18-0.58,0.27-0.82,0.26c-0.24-0.01-0.43-0.12-0.57-0.33
				c-0.14-0.21-0.21-0.54-0.21-0.98c0-0.37,0.05-0.72,0.15-1.03c0.1-0.31,0.23-0.59,0.4-0.85c0.17-0.25,0.36-0.49,0.58-0.69
				c0.22-0.21,0.44-0.4,0.68-0.57c0.28-0.21,0.51-0.38,0.68-0.52c0.17-0.14,0.3-0.27,0.37-0.38c0.08-0.12,0.12-0.25,0.12-0.39v-0.03
				c0-0.28-0.06-0.45-0.19-0.53c-0.12-0.08-0.3-0.05-0.53,0.09c-0.24,0.14-0.43,0.33-0.57,0.56c-0.14,0.23-0.24,0.47-0.28,0.72
				l-1.23,0.59c0.06-0.44,0.19-0.87,0.37-1.28c0.18-0.41,0.42-0.78,0.71-1.11c0.29-0.33,0.63-0.62,1.01-0.84
				c0.27-0.16,0.52-0.27,0.77-0.32c0.25-0.06,0.46-0.05,0.65,0.02c0.19,0.07,0.34,0.22,0.45,0.44c0.11,0.22,0.17,0.53,0.17,0.93
				v4.53l-1.27,0.75v-0.93l-0.04,0.02c-0.08,0.26-0.18,0.5-0.31,0.74c-0.13,0.24-0.29,0.45-0.47,0.65
				C249.55,156.27,249.34,156.43,249.1,156.58z M249.48,155.06c0.2-0.12,0.37-0.27,0.52-0.47c0.15-0.2,0.27-0.42,0.35-0.65
				c0.09-0.24,0.13-0.47,0.13-0.71v-0.71c-0.04,0.06-0.1,0.13-0.17,0.2c-0.07,0.07-0.15,0.15-0.24,0.23
				c-0.09,0.08-0.18,0.15-0.27,0.23c-0.09,0.07-0.17,0.14-0.24,0.2c-0.16,0.12-0.29,0.26-0.41,0.4c-0.12,0.14-0.21,0.29-0.27,0.44
				c-0.06,0.16-0.1,0.32-0.1,0.5c0,0.25,0.07,0.41,0.2,0.46C249.11,155.22,249.28,155.19,249.48,155.06z"/>
			<path class="st0" d="M254.18,144.49v8.95l-1.33,0.79v-8.95L254.18,144.49z"/>
		</g>
	</g>
</g>
<g>
	<polygon class="st3" points="132.63,74 22.49,136.92 22.49,195.82 132.63,132.9 	"/>
	<polygon class="st2" points="8.05,128.76 22.49,136.56 22.49,195.82 8.05,188.02 	"/>
	<polygon class="st4" points="132.63,74 117.12,65.8 8.05,128.76 22.49,136.56 	"/>
</g>
<g>
	<path class="st0" d="M34.22,172.16v-22.62l9.86-5.87v4.95l-6.05,3.6v3.89l5.45-3.25v4.95l-5.45,3.25v8.84L34.22,172.16z"/>
	<path class="st0" d="M49.28,140.56v22.62l-3.81,2.27v-22.62L49.28,140.56z"/>
	<path class="st0" d="M63.22,132.26v22.62l-3.18,1.89l-5.07-8.87l-0.08,0.05v11.88l-3.81,2.27v-22.62l3.23-1.92l4.99,8.87l0.11-0.06
		v-11.84L63.22,132.26z"/>
	<path class="st0" d="M68.84,128.92v22.62l-3.81,2.27v-22.62L68.84,128.92z"/>
	<path class="st0" d="M78.2,130.41c-0.04-0.71-0.21-1.19-0.51-1.42c-0.3-0.23-0.76-0.16-1.38,0.2c-0.39,0.23-0.71,0.5-0.96,0.8
		c-0.25,0.3-0.43,0.61-0.55,0.94c-0.12,0.33-0.18,0.66-0.19,0.99c-0.01,0.28,0.02,0.5,0.09,0.68c0.07,0.18,0.18,0.3,0.34,0.38
		c0.16,0.08,0.35,0.12,0.6,0.11c0.24,0,0.53-0.05,0.86-0.14l1.15-0.29c0.78-0.2,1.44-0.24,1.99-0.14c0.55,0.11,1,0.35,1.36,0.72
		s0.61,0.88,0.78,1.51c0.17,0.63,0.25,1.38,0.26,2.23c0,1.49-0.24,2.89-0.69,4.19c-0.46,1.3-1.11,2.47-1.96,3.52
		c-0.85,1.04-1.86,1.92-3.05,2.62c-1.22,0.73-2.28,1.07-3.19,1.03c-0.91-0.04-1.61-0.52-2.11-1.43c-0.5-0.91-0.75-2.31-0.76-4.21
		l3.62-2.15c0.02,0.68,0.13,1.2,0.32,1.55c0.19,0.36,0.46,0.55,0.81,0.59c0.35,0.03,0.77-0.09,1.25-0.38
		c0.41-0.24,0.75-0.53,1.02-0.85c0.27-0.33,0.48-0.67,0.62-1.05c0.14-0.37,0.21-0.74,0.22-1.11c0-0.34-0.07-0.61-0.21-0.79
		c-0.13-0.18-0.35-0.29-0.66-0.31s-0.72,0.02-1.24,0.15l-1.4,0.35c-1.24,0.3-2.22,0.16-2.93-0.44c-0.71-0.59-1.07-1.78-1.06-3.55
		c0-1.43,0.23-2.83,0.72-4.2c0.48-1.37,1.15-2.61,2.01-3.72c0.86-1.11,1.84-2,2.95-2.66c1.13-0.67,2.11-0.95,2.94-0.83
		c0.83,0.12,1.46,0.6,1.91,1.44c0.45,0.84,0.68,2,0.68,3.48L78.2,130.41z"/>
	<path class="st0" d="M83.49,142.81v-22.62l3.81-2.27v8.84l5.04-3v-8.84l3.81-2.27v22.62l-3.81,2.27v-8.84l-5.04,3v8.84
		L83.49,142.81z"/>
	<path class="st0" d="M97.95,134.2v-22.62l10.11-6.02v4.95l-6.3,3.75v3.89l5.78-3.44v4.95l-5.78,3.44v3.89l6.27-3.73v4.95
		L97.95,134.2z"/>
	<path class="st0" d="M115.34,123.84l-5.4,3.21v-22.62l5.34-3.18c1.44-0.86,2.69-1.15,3.74-0.88c1.05,0.28,1.86,1.09,2.44,2.44
		s0.86,3.2,0.86,5.56s-0.29,4.55-0.86,6.58c-0.57,2.03-1.38,3.81-2.42,5.33C118,121.81,116.77,123,115.34,123.84z M113.75,119.58
		l1.45-0.86c0.69-0.41,1.29-0.95,1.78-1.6c0.49-0.65,0.87-1.5,1.12-2.54c0.26-1.04,0.39-2.34,0.39-3.92s-0.13-2.73-0.39-3.46
		c-0.26-0.73-0.65-1.12-1.15-1.18c-0.5-0.06-1.12,0.13-1.85,0.56l-1.34,0.8V119.58z"/>
</g>
<polygon class="st7" points="259.82,27.52 258.47,26.76 266.31,22.14 267.66,22.9 "/>
<polygon class="st7" points="139.38,24.63 137.2,23.4 149.87,15.92 152.05,17.15 "/>
<g>
	<path id="矩形_00000054266275243354548700000009363187150275815601_" class="st14" d="M172.16,217.11L172.16,217.11
		c0.62,0,1.15,0.76,1.15,1.64v1.52c0,0.88-0.53,1.64-1.15,1.64l0,0c-0.62,0-1.15-0.76-1.15-1.64v-1.52
		C171.02,217.8,171.55,217.11,172.16,217.11z"/>
	
		<radialGradient id="SVGID_1_" cx="140.6214" cy="251.2355" r="29.1582" gradientTransform="matrix(1 0 0 0.5898 0 103.0585)" gradientUnits="userSpaceOnUse">
		<stop  offset="0" style="stop-color:#B8B3D4"/>
		<stop  offset="0.3457" style="stop-color:#BAB6D6;stop-opacity:0.6543"/>
		<stop  offset="0.6064" style="stop-color:#C2C0DA;stop-opacity:0.3936"/>
		<stop  offset="0.8384" style="stop-color:#D0D0E3;stop-opacity:0.1616"/>
		<stop  offset="1" style="stop-color:#DDE0EB;stop-opacity:0"/>
	</radialGradient>
	<path style="opacity:0.67;fill:url(#SVGID_1_);" d="M165.62,237.16c-13.68-7.9-35.96-8-49.77-0.23s-13.91,20.48-0.23,28.37
		s35.96,8,49.77,0.23C179.19,257.76,179.3,245.06,165.62,237.16z"/>
	<g>
		<path class="st81" d="M179.12,201.13v-49.28c0-0.23,0.02-0.45,0.02-0.68c0-22.91-18.57-41.48-41.48-41.48
			c-22.91,0-41.48,18.57-41.48,41.48c0,0.36,0.02,0.72,0.03,1.07v44.66h-0.03v22.67c0,2.84,2.3,5.15,5.15,5.15
			c2.84,0,5.15-2.31,5.15-5.15v-0.83c0.56,0.36,1.13,0.72,1.74,1.07c1.83,1.06,3.79,1.99,5.85,2.81v8.2c0,2.84,2.3,5.15,5.15,5.15
			c2.84,0,5.15-2.31,5.15-5.15v-5.23c2.95,0.57,5.99,0.96,9.06,1.14v12.59c0,2.84,2.3,5.15,5.15,5.15s5.15-2.31,5.15-5.15v-12.7
			c3.39-0.28,6.73-0.8,9.93-1.55v6.36c0,2.84,2.3,5.15,5.15,5.15s5.15-2.31,5.15-5.15v-9.87c1-0.47,1.97-0.96,2.91-1.49
			c0.7-0.39,1.35-0.8,1.99-1.21v0.71c0,2.84,2.3,5.15,5.15,5.15c2.84,0,5.15-2.31,5.15-5.15v-18.45H179.12z"/>
		
			<radialGradient id="SVGID_00000080929163780418699710000006158820435916926877_" cx="162.3441" cy="127.1149" r="106.6854" gradientUnits="userSpaceOnUse">
			<stop  offset="0.0124" style="stop-color:#DD78CE"/>
			<stop  offset="0.4936" style="stop-color:#A7589A"/>
			<stop  offset="0.5829" style="stop-color:#A0619E"/>
			<stop  offset="0.7273" style="stop-color:#8E79A8"/>
			<stop  offset="0.9078" style="stop-color:#709FB9"/>
			<stop  offset="1" style="stop-color:#5EB6C3"/>
		</radialGradient>
		<path style="fill:url(#SVGID_00000080929163780418699710000006158820435916926877_);" d="M179.12,201.13v-49.28
			c0-0.23,0.02-0.45,0.02-0.68c0-22.91-18.57-41.48-41.48-41.48c-22.91,0-41.48,18.57-41.48,41.48c0,0.36,0.02,0.72,0.03,1.07v44.66
			h-0.03v22.67c0,2.84,2.3,5.15,5.15,5.15c2.84,0,5.15-2.31,5.15-5.15v-0.83c0.56,0.36,1.13,0.72,1.74,1.07
			c1.83,1.06,3.79,1.99,5.85,2.81v8.2c0,2.84,2.3,5.15,5.15,5.15c2.84,0,5.15-2.31,5.15-5.15v-5.23c2.95,0.57,5.99,0.96,9.06,1.14
			v12.59c0,2.84,2.3,5.15,5.15,5.15s5.15-2.31,5.15-5.15v-12.7c3.39-0.28,6.73-0.8,9.93-1.55v6.36c0,2.84,2.3,5.15,5.15,5.15
			s5.15-2.31,5.15-5.15v-9.87c1-0.47,1.97-0.96,2.91-1.49c0.7-0.39,1.35-0.8,1.99-1.21v0.71c0,2.84,2.3,5.15,5.15,5.15
			c2.84,0,5.15-2.31,5.15-5.15v-18.45H179.12z"/>
	</g>
	<path id="矩形_00000018919434522134465160000008097036312548332442_" class="st14" d="M100.07,187.29L100.07,187.29
		c1.12,0,2.09,1.38,2.09,2.99v14.25c0,1.61-0.96,2.99-2.09,2.99l0,0c-1.12,0-2.09-1.38-2.09-2.99v-14.25
		C97.99,188.67,98.95,187.29,100.07,187.29z"/>
	<path id="矩形_00000050640571545751127470000011704781788723898545_" class="st14" d="M161.37,124.2L161.37,124.2
		c1.37-1.02,3.68-0.37,5.02,1.41l2.29,3.06c1.34,1.78,1.31,4.19-0.06,5.22l0,0c-1.37,1.02-3.68,0.37-5.02-1.41l-2.29-3.06
		C159.88,127.5,160.01,125.23,161.37,124.2z"/>
	<path id="矩形_00000171706942957646575410000007220733868561984690_" class="st14" d="M117.47,223.88L117.47,223.88
		c1.12,0,2.09,1.38,2.09,2.99v2.76c0,1.61-0.96,2.99-2.09,2.99l0,0c-1.12,0-2.09-1.38-2.09-2.99v-2.76
		C115.38,225.14,116.35,223.88,117.47,223.88z"/>
	<path id="矩形_00000021117620893035361940000010579444322157078935_" class="st14" d="M99.82,213.08L99.82,213.08
		c1.12,0,2.09,1.38,2.09,2.99v2.76c0,1.61-0.96,2.99-2.09,2.99l0,0c-1.12,0-2.09-1.38-2.09-2.99v-2.76
		C97.74,214.34,98.7,213.08,99.82,213.08z"/>
	<path id="矩形_00000096761568172756482580000014271181841128790951_" class="st14" d="M137.66,232.62L137.66,232.62
		c1.12,0,2.09,1.38,2.09,2.99v2.76c0,1.61-0.96,2.99-2.09,2.99l0,0c-1.12,0-2.09-1.38-2.09-2.99v-2.76
		C135.57,233.88,136.54,232.62,137.66,232.62z"/>
	<path id="矩形_00000022546089598846609580000001352597798020268446_" class="st14" d="M157.36,227.27L157.36,227.27
		c0.89,0,1.66,1.1,1.66,2.37v2.19c0,1.28-0.76,2.37-1.66,2.37l0,0c-0.89,0-1.66-1.1-1.66-2.37v-2.19
		C155.7,228.28,156.47,227.27,157.36,227.27z"/>
	<g>
		<path id="椭圆形_00000132053722400861045720000015811611454516295867_" class="st83" d="M147.67,182.16
			c4.06-0.17,7.1-3.66,7.09-6c0-0.94-0.55-1.75-1.38-1.81c-1.29-0.13-3.23,0.7-5.72,0.8c-2.31,0.1-3.78-0.5-5.53-0.42
			c-1.84,0.08-1.75,2.22-1.47,3.06C141.3,180.09,143.52,182.33,147.67,182.16z"/>
		<path id="椭圆形_00000146493547857039316390000006741575379435752118_" class="st84" d="M147.76,180.19
			c4.15-0.17,7.19-3.38,7.19-5.63c0-0.84-0.55-1.57-1.38-1.63c-1.29-0.13-3.32,0.7-5.81,0.8c-2.4,0.1-3.78-0.5-5.62-0.43
			s-1.75,2.13-1.48,2.87C141.3,178.3,143.61,180.36,147.76,180.19z"/>
	</g>
	<g>
		
			<ellipse transform="matrix(0.5671 -0.8237 0.8237 0.5671 -74.1156 176.3792)" class="st84" cx="130.72" cy="158.69" rx="9.5" ry="9.1"/>
		<path id="形状结合_00000013176734343662914410000006609714874675262652_" class="st85" d="M131.92,148.73
			c4.24-0.18,7.66,3.98,7.66,9.22c0,0.19,0,0.37,0,0.56l0,0.56c0-5.33-3.33-9.59-7.48-9.42c-4.15,0.17-7.46,4.61-7.46,10.04
			c0,1.03,0.09,2.05,0.37,2.98c-0.46-1.2-0.74-2.59-0.74-3.99C124.27,153.35,127.68,148.9,131.92,148.73z"/>
		<path id="形状结合_00000121973078479498952590000008384793736462680252_" class="st86" d="M131.92,147.6
			c4.7-0.2,8.58,4.41,8.58,10.31c0.01,5.89-3.86,10.83-8.57,11.02c-4.7,0.2-8.58-4.41-8.58-10.31
			C123.35,152.73,127.12,147.8,131.92,147.6z M131.92,148.73c-4.24,0.18-7.65,4.62-7.64,9.86c0,5.24,3.42,9.4,7.66,9.22
			c4.24-0.18,7.65-4.62,7.64-9.86C139.58,152.71,136.07,148.55,131.92,148.73z"/>
	</g>
	<g>
		
			<ellipse transform="matrix(0.5671 -0.8237 0.8237 0.5671 -59.6804 201.0825)" class="st84" cx="161.44" cy="157.31" rx="9.5" ry="9.1"/>
		<path id="形状结合_00000025441855965454195830000000985258279948614842_" class="st85" d="M162.43,147.35
			c4.24-0.18,7.66,3.98,7.66,9.22c0,0.19,0,0.37,0,0.56l0,0.56c0-5.33-3.33-9.59-7.48-9.42c-4.15,0.17-7.46,4.61-7.46,10.04
			c0,1.03,0.09,2.05,0.37,2.98c-0.46-1.2-0.74-2.59-0.74-3.99C154.78,151.98,158.19,147.53,162.43,147.35z"/>
		<path id="形状结合_00000105426149978954566370000002447839368454901149_" class="st86" d="M162.43,146.23
			c4.7-0.2,8.58,4.41,8.58,10.31s-3.86,10.83-8.57,11.02s-8.58-4.41-8.58-10.31C153.86,151.36,157.64,146.43,162.43,146.23z
			 M162.43,147.35c-4.24,0.18-7.65,4.62-7.64,9.86s3.42,9.4,7.66,9.22c4.24-0.18,7.65-4.62,7.64-9.86
			C170.09,151.34,166.58,147.18,162.43,147.35z"/>
	</g>
	<circle class="st83" cx="130.72" cy="158.69" r="3.77"/>
	<circle class="st83" cx="161.27" cy="157.56" r="3.77"/>
</g>
<g>
	<g>
		<path class="st159" d="M222.51,190.74l-1.42,0.84c-0.03-0.28-0.08-0.51-0.16-0.69c-0.08-0.18-0.18-0.32-0.31-0.4
			c-0.12-0.09-0.27-0.13-0.43-0.12c-0.16,0.01-0.34,0.07-0.53,0.18c-0.34,0.2-0.64,0.51-0.9,0.94c-0.25,0.42-0.45,0.93-0.59,1.53
			s-0.21,1.26-0.21,2c0,0.76,0.07,1.35,0.21,1.78s0.34,0.7,0.59,0.81s0.55,0.07,0.88-0.13c0.19-0.11,0.36-0.25,0.52-0.43
			c0.16-0.17,0.3-0.38,0.43-0.6c0.13-0.23,0.23-0.47,0.31-0.74s0.14-0.56,0.17-0.86l1.42-0.83c-0.04,0.51-0.13,1.03-0.27,1.56
			s-0.34,1.05-0.59,1.55s-0.54,0.95-0.88,1.35c-0.34,0.4-0.72,0.73-1.14,0.98c-0.59,0.35-1.12,0.45-1.59,0.29
			c-0.46-0.15-0.83-0.55-1.1-1.21c-0.27-0.65-0.4-1.55-0.4-2.7s0.13-2.21,0.41-3.18c0.27-0.97,0.64-1.8,1.11-2.5
			s0.99-1.22,1.57-1.57c0.38-0.23,0.74-0.35,1.07-0.37c0.33-0.02,0.62,0.06,0.88,0.24c0.25,0.18,0.46,0.46,0.62,0.84
			C222.36,189.67,222.46,190.15,222.51,190.74z"/>
		<path class="st159" d="M224.91,196.35c-0.32,0.19-0.6,0.27-0.85,0.23s-0.44-0.18-0.59-0.44c-0.14-0.27-0.22-0.66-0.22-1.18
			c0-0.44,0.05-0.84,0.15-1.2c0.1-0.36,0.24-0.68,0.42-0.97c0.17-0.29,0.37-0.54,0.6-0.76c0.22-0.22,0.46-0.43,0.7-0.61
			c0.29-0.22,0.52-0.4,0.7-0.55c0.18-0.15,0.31-0.29,0.39-0.42s0.12-0.28,0.12-0.45v-0.03c0-0.33-0.06-0.54-0.19-0.65
			c-0.13-0.1-0.31-0.09-0.55,0.05c-0.25,0.15-0.45,0.35-0.59,0.61c-0.15,0.26-0.24,0.54-0.29,0.83l-1.28,0.59
			c0.07-0.52,0.19-1.01,0.38-1.48s0.44-0.88,0.74-1.25s0.65-0.67,1.05-0.9c0.28-0.16,0.54-0.27,0.8-0.31s0.48-0.02,0.68,0.08
			s0.35,0.29,0.47,0.56c0.11,0.27,0.17,0.64,0.17,1.12v5.35l-1.31,0.77v-1.1l-0.04,0.02c-0.08,0.29-0.19,0.58-0.32,0.84
			c-0.13,0.27-0.29,0.51-0.48,0.72C225.37,196.02,225.15,196.2,224.91,196.35z M225.3,194.6c0.2-0.12,0.38-0.29,0.54-0.51
			c0.16-0.22,0.28-0.47,0.37-0.74s0.13-0.55,0.13-0.83v-0.84c-0.04,0.07-0.1,0.14-0.18,0.22c-0.07,0.08-0.16,0.16-0.25,0.25
			c-0.09,0.08-0.19,0.16-0.28,0.24s-0.18,0.15-0.25,0.21c-0.16,0.13-0.3,0.28-0.42,0.43s-0.21,0.32-0.28,0.5
			c-0.07,0.18-0.1,0.37-0.1,0.58c0,0.3,0.07,0.49,0.21,0.56C224.92,194.75,225.09,194.72,225.3,194.6z"/>
		<path class="st159" d="M230.16,188.52v4.59l-1.38,0.81v-7.93l1.31-0.78v1.4l0.06-0.03c0.11-0.53,0.29-1,0.55-1.42
			c0.26-0.42,0.57-0.74,0.94-0.96c0.35-0.2,0.65-0.26,0.9-0.17c0.26,0.09,0.46,0.32,0.6,0.68s0.21,0.85,0.21,1.47v5.05l-1.38,0.81
			v-4.66c0-0.49-0.07-0.82-0.23-1c-0.16-0.18-0.38-0.19-0.65-0.03c-0.19,0.11-0.35,0.27-0.49,0.48c-0.14,0.21-0.25,0.46-0.33,0.75
			C230.2,187.86,230.16,188.17,230.16,188.52z"/>
		<path class="st159" d="M236.7,189.41c-0.51,0.3-0.95,0.38-1.31,0.25c-0.37-0.13-0.65-0.45-0.84-0.95c-0.2-0.5-0.29-1.15-0.29-1.96
			c0-0.81,0.1-1.58,0.3-2.32c0.2-0.73,0.48-1.38,0.84-1.94s0.8-0.99,1.3-1.29c0.43-0.25,0.81-0.35,1.14-0.29
			c0.33,0.06,0.58,0.26,0.77,0.6c0.19,0.34,0.29,0.81,0.31,1.42l-1.3,0.77c-0.04-0.38-0.13-0.64-0.29-0.79s-0.36-0.15-0.61,0
			c-0.21,0.13-0.4,0.33-0.56,0.61s-0.28,0.62-0.37,1.02c-0.09,0.4-0.13,0.85-0.13,1.35c0,0.51,0.04,0.91,0.13,1.21
			c0.09,0.3,0.21,0.5,0.37,0.59s0.35,0.08,0.56-0.05c0.16-0.09,0.3-0.23,0.43-0.41c0.13-0.18,0.23-0.39,0.31-0.64
			s0.14-0.52,0.16-0.81l1.3-0.77c-0.02,0.62-0.12,1.21-0.31,1.78c-0.18,0.57-0.44,1.08-0.76,1.53
			C237.53,188.79,237.14,189.15,236.7,189.41z"/>
		<path class="st159" d="M242.08,186.24c-0.51,0.3-0.95,0.39-1.32,0.28c-0.37-0.12-0.65-0.42-0.85-0.92c-0.2-0.49-0.3-1.16-0.3-2
			c0-0.82,0.1-1.59,0.3-2.32c0.2-0.73,0.48-1.38,0.84-1.94s0.79-0.98,1.27-1.27c0.33-0.19,0.63-0.29,0.92-0.29s0.53,0.1,0.75,0.31
			c0.21,0.21,0.38,0.53,0.5,0.96c0.12,0.43,0.18,0.99,0.18,1.66v0.61l-4.2,2.47v-1.36l2.9-1.71c0-0.32-0.04-0.57-0.13-0.77
			c-0.09-0.19-0.21-0.32-0.36-0.37c-0.15-0.05-0.33-0.02-0.53,0.1c-0.21,0.12-0.39,0.31-0.56,0.56c-0.16,0.25-0.29,0.53-0.38,0.84
			s-0.14,0.62-0.14,0.94v1.3c0,0.39,0.05,0.71,0.14,0.94s0.22,0.38,0.39,0.43c0.17,0.05,0.37,0.02,0.6-0.12
			c0.15-0.09,0.29-0.21,0.42-0.35s0.24-0.31,0.33-0.5s0.16-0.4,0.21-0.63l1.28-0.62c-0.07,0.53-0.2,1.03-0.4,1.51
			s-0.46,0.91-0.77,1.3C242.85,185.68,242.49,186,242.08,186.24z"/>
		<path class="st159" d="M246.64,172.82v10.58l-1.38,0.81v-10.58L246.64,172.82z"/>
		<path class="st159" d="M250.01,181.57c-0.51,0.3-0.95,0.39-1.32,0.28c-0.37-0.12-0.65-0.42-0.85-0.91s-0.3-1.16-0.3-2
			c0-0.82,0.1-1.59,0.3-2.33s0.48-1.38,0.84-1.94s0.79-0.98,1.27-1.27c0.33-0.19,0.63-0.29,0.92-0.29s0.53,0.1,0.75,0.31
			c0.21,0.21,0.38,0.53,0.5,0.96c0.12,0.43,0.18,0.99,0.18,1.66v0.6l-4.2,2.47v-1.36l2.9-1.71c0-0.32-0.04-0.57-0.13-0.77
			s-0.21-0.32-0.36-0.37s-0.33-0.02-0.53,0.1c-0.21,0.12-0.39,0.31-0.56,0.56s-0.29,0.53-0.38,0.84c-0.09,0.31-0.14,0.62-0.14,0.94
			v1.3c0,0.39,0.05,0.71,0.14,0.94s0.22,0.38,0.39,0.43s0.37,0.02,0.6-0.12c0.15-0.09,0.29-0.21,0.42-0.35s0.24-0.31,0.33-0.5
			s0.16-0.4,0.21-0.63l1.28-0.62c-0.06,0.53-0.2,1.03-0.4,1.51s-0.46,0.91-0.77,1.3S250.42,181.33,250.01,181.57z"/>
		<path class="st159" d="M255.03,178.59c-0.38,0.22-0.72,0.27-1.02,0.14c-0.31-0.13-0.55-0.45-0.73-0.95s-0.27-1.2-0.27-2.08
			c0-0.91,0.09-1.72,0.28-2.43s0.43-1.31,0.73-1.79c0.31-0.48,0.64-0.83,1.01-1.04c0.28-0.16,0.51-0.23,0.7-0.19
			s0.34,0.14,0.45,0.29s0.2,0.32,0.26,0.5l0.04-0.03v-3.98l1.38-0.81v10.58l-1.36,0.8v-1.27l-0.06,0.03
			c-0.06,0.26-0.16,0.53-0.27,0.82c-0.12,0.28-0.27,0.55-0.46,0.8S255.3,178.43,255.03,178.59z M255.47,176.58
			c0.22-0.13,0.41-0.34,0.57-0.62c0.15-0.28,0.27-0.63,0.36-1.03c0.08-0.4,0.12-0.84,0.12-1.31s-0.04-0.86-0.12-1.16
			s-0.2-0.5-0.36-0.6c-0.16-0.1-0.34-0.08-0.57,0.05c-0.23,0.13-0.42,0.34-0.57,0.63s-0.27,0.63-0.35,1.02s-0.12,0.82-0.12,1.28
			c0,0.46,0.04,0.84,0.12,1.15c0.08,0.3,0.2,0.51,0.35,0.62S255.24,176.71,255.47,176.58z"/>
	</g>
</g>
</svg>
