<?xml version="1.0" encoding="utf-8"?>
<!-- Generator: Adobe Illustrator 27.8.1, SVG Export Plug-In . SVG Version: 6.00 Build 0)  -->
<svg version="1.1" id="Слой_1" xmlns="http://www.w3.org/2000/svg" xmlns:xlink="http://www.w3.org/1999/xlink" x="0px" y="0px"
	 viewBox="0 0 290 269.62" style="enable-background:new 0 0 290 269.62;" xml:space="preserve">
<style type="text/css">
	.st0{stroke:#000000;stroke-linecap:round;stroke-linejoin:round;stroke-miterlimit:10;}
	.st1{fill:#222846;stroke:#000000;stroke-linecap:round;stroke-linejoin:round;stroke-miterlimit:10;}
	.st2{fill-rule:evenodd;clip-rule:evenodd;stroke:#000000;stroke-linecap:round;stroke-linejoin:round;stroke-miterlimit:10;}
	
		.st3{fill-rule:evenodd;clip-rule:evenodd;fill:#222846;stroke:#000000;stroke-linecap:round;stroke-linejoin:round;stroke-miterlimit:10;}
	
		.st4{fill-rule:evenodd;clip-rule:evenodd;fill:#4A5479;stroke:#000000;stroke-linecap:round;stroke-linejoin:round;stroke-miterlimit:10;}
	.st5{fill-rule:evenodd;clip-rule:evenodd;fill:#5C6A91;}
	.st6{fill:#6D75A2;}
	.st7{stroke:#1A213A;stroke-linecap:round;stroke-linejoin:round;stroke-miterlimit:10;}
	.st8{stroke:#4A5479;stroke-linecap:round;stroke-linejoin:round;stroke-miterlimit:10;}
	.st9{fill:url(#SVGID_1_);}
	.st10{fill:url(#SVGID_00000104694817191835940040000006349062789036740493_);}
	.st11{fill:url(#SVGID_00000138549930501496933890000011130527924459063952_);}
	
		.st12{fill:none;stroke:url(#SVGID_00000117675988816615982430000011340424059314443950_);stroke-width:5;stroke-linecap:round;stroke-linejoin:round;stroke-miterlimit:10;}
	.st13{fill:url(#SVGID_00000023979175125270063090000004199488035570775437_);}
	.st14{fill-rule:evenodd;clip-rule:evenodd;fill:#1AD4B3;}
	.st15{fill-rule:evenodd;clip-rule:evenodd;fill:#FC4F83;}
	.st16{fill:#4A5479;stroke:#000000;stroke-linecap:round;stroke-linejoin:round;stroke-miterlimit:10;}
	
		.st17{fill:url(#SVGID_00000010996404239527207170000013957681006257397912_);stroke:#1D1D1B;stroke-width:0.2115;stroke-linecap:round;stroke-linejoin:round;stroke-miterlimit:10;}
	.st18{fill-rule:evenodd;clip-rule:evenodd;}
	
		.st19{fill:url(#SVGID_00000072961464401353422360000003709346864677733556_);stroke:#1D1D1B;stroke-width:0.2115;stroke-linecap:round;stroke-linejoin:round;stroke-miterlimit:10;}
	
		.st20{fill:url(#SVGID_00000170996413743024788330000008232881603350759096_);stroke:#1D1D1B;stroke-width:0.2115;stroke-linecap:round;stroke-linejoin:round;stroke-miterlimit:10;}
	
		.st21{fill:url(#SVGID_00000048469969454107082110000018061669389945915521_);stroke:#1D1D1B;stroke-width:0.2115;stroke-linecap:round;stroke-linejoin:round;stroke-miterlimit:10;}
	.st22{fill-rule:evenodd;clip-rule:evenodd;fill:url(#SVGID_00000096021639340560392220000003247738561597737118_);}
	.st23{fill-rule:evenodd;clip-rule:evenodd;fill:url(#SVGID_00000002354752162348441350000008744392184689578160_);}
	.st24{fill:url(#SVGID_00000027603177871603973180000000489286474929999506_);}
	.st25{fill:url(#SVGID_00000055671598192601915810000015669979546701367434_);}
	.st26{fill:url(#SVGID_00000080914283098426954840000017424372053000094361_);}
	
		.st27{fill-rule:evenodd;clip-rule:evenodd;fill:#4AA089;stroke:url(#SVGID_00000162313704248928800730000005101162585896922543_);stroke-linecap:round;stroke-linejoin:round;stroke-miterlimit:10;}
	
		.st28{fill-rule:evenodd;clip-rule:evenodd;fill:#4AA089;stroke:url(#SVGID_00000127737125689707979960000017450588009683237806_);stroke-linecap:round;stroke-linejoin:round;stroke-miterlimit:10;}
	
		.st29{fill:none;stroke:url(#SVGID_00000183217816501097423980000000426688360115067069_);stroke-width:5;stroke-linecap:round;stroke-linejoin:round;stroke-miterlimit:10;}
	.st30{fill:url(#SVGID_00000116925064769714663020000006800964284453739935_);}
	
		.st31{fill:none;stroke:url(#SVGID_00000141440990055045795680000014935923198480112526_);stroke-width:5;stroke-linecap:round;stroke-linejoin:round;stroke-miterlimit:10;}
	.st32{fill:url(#SVGID_00000168830719535841049920000003301677274255386794_);}
	
		.st33{fill:none;stroke:url(#SVGID_00000074407462169676381490000016926248794390579846_);stroke-width:5;stroke-linecap:round;stroke-linejoin:round;stroke-miterlimit:10;}
	.st34{fill:url(#SVGID_00000044898394151986724380000016754300720320195475_);}
	.st35{fill:#4A5479;}
	
		.st36{fill-rule:evenodd;clip-rule:evenodd;fill:#1AD4B3;stroke:#111422;stroke-linecap:round;stroke-linejoin:round;stroke-miterlimit:10;}
	
		.st37{fill-rule:evenodd;clip-rule:evenodd;fill:#4AA089;stroke:url(#SVGID_00000124860276587134767840000015229207062296125056_);stroke-linecap:round;stroke-linejoin:round;stroke-miterlimit:10;}
	.st38{fill:#FFFFFF;}
	
		.st39{fill-rule:evenodd;clip-rule:evenodd;fill:#FC4F83;stroke:#111422;stroke-linecap:round;stroke-linejoin:round;stroke-miterlimit:10;}
	
		.st40{fill-rule:evenodd;clip-rule:evenodd;fill:#CB3D61;stroke:#000000;stroke-linecap:round;stroke-linejoin:round;stroke-miterlimit:10;}
	.st41{fill:url(#SVGID_00000121984346903116717040000004136377654532980376_);}
	.st42{fill:url(#SVGID_00000169539269072874872280000012657964934532447126_);}
	.st43{fill:url(#SVGID_00000103958117827035726410000016531869886167551130_);}
	
		.st44{fill:none;stroke:url(#SVGID_00000177444007951542017380000015922185851347071927_);stroke-width:5;stroke-linecap:round;stroke-linejoin:round;stroke-miterlimit:10;}
	.st45{fill:url(#SVGID_00000141415707992126632350000010038839497058227885_);}
	
		.st46{fill:none;stroke:url(#SVGID_00000094578535206147287660000011932953472146051747_);stroke-width:5;stroke-linecap:round;stroke-linejoin:round;stroke-miterlimit:10;}
	.st47{fill:url(#SVGID_00000055702536808675910080000014774022733556864159_);}
	.st48{fill:url(#SVGID_00000091738151411445732420000001416252952777620097_);}
	.st49{fill:#222846;}
	.st50{fill:url(#SVGID_00000080891674023686074060000006359681396429708932_);}
	.st51{fill:url(#SVGID_00000124151063589845091070000010937184630904712861_);}
	.st52{fill:url(#SVGID_00000013880477002641713940000015777751195486613178_);}
	.st53{fill:url(#SVGID_00000067206049257550642200000012505416118402826421_);}
	.st54{fill:url(#SVGID_00000005972075480448352580000014991278904622211006_);}
	.st55{fill:url(#SVGID_00000129178219612058212470000018049028333471809185_);}
	.st56{fill-rule:evenodd;clip-rule:evenodd;fill:#6D75A2;}
	.st57{fill-rule:evenodd;clip-rule:evenodd;fill:#4A5479;}
	.st58{opacity:0.29;fill:url(#SVGID_00000165939464716049722580000006921583781002404247_);enable-background:new    ;}
	.st59{fill:url(#SVGID_00000083780998244179258490000010966560006012425151_);}
	.st60{fill:url(#SVGID_00000045611307572943647960000006982763356948371085_);}
	.st61{fill:url(#SVGID_00000127011553217484193580000010462308060314206142_);}
	.st62{fill-rule:evenodd;clip-rule:evenodd;fill:url(#SVGID_00000033361169844836314210000006437964131367827361_);}
	.st63{fill:url(#SVGID_00000156558680762241363060000011938368709069954237_);}
	.st64{fill:url(#SVGID_00000106839353051895550770000004374503564655283098_);}
	.st65{fill:url(#SVGID_00000078046480937142206400000001227628424286879160_);}
	.st66{fill:url(#SVGID_00000012457211186593822800000004286890859054748350_);}
	.st67{opacity:0.29;fill:url(#SVGID_00000158740649230214682090000012373083918916778679_);enable-background:new    ;}
	.st68{fill-rule:evenodd;clip-rule:evenodd;fill:#222846;}
	
		.st69{fill:none;stroke:url(#SVGID_00000170969408994115902460000002901486193223134386_);stroke-width:5;stroke-linecap:round;stroke-linejoin:round;stroke-miterlimit:10;}
	.st70{fill:url(#SVGID_00000168830858589443141550000006568121097545286571_);}
	
		.st71{fill:none;stroke:url(#SVGID_00000166637568095258609500000007038613086441494927_);stroke-width:5;stroke-linecap:round;stroke-linejoin:round;stroke-miterlimit:10;}
	.st72{fill:url(#SVGID_00000160909293991671394660000016234097838447079304_);}
	
		.st73{fill:none;stroke:url(#SVGID_00000031895678168628939650000012213601260847082150_);stroke-width:5;stroke-linecap:round;stroke-linejoin:round;stroke-miterlimit:10;}
	.st74{fill:url(#SVGID_00000048474223100367917030000008036522665104169101_);}
	
		.st75{fill-rule:evenodd;clip-rule:evenodd;fill:#4AA089;stroke:url(#SVGID_00000065769087686820793850000009978634986465180054_);stroke-linecap:round;stroke-linejoin:round;stroke-miterlimit:10;}
	.st76{fill-rule:evenodd;clip-rule:evenodd;fill:url(#SVGID_00000152949091492365669330000003208018470939217546_);}
	.st77{fill:url(#SVGID_00000015339446092867531930000013262627846117711546_);}
	.st78{fill:url(#SVGID_00000140014164062125745420000011866430415546130852_);}
	.st79{fill:url(#SVGID_00000040534399040443557020000002640842994413806763_);}
	.st80{opacity:0.29;fill:url(#SVGID_00000096750665673304924910000005371114491958301103_);}
	.st81{opacity:0.29;fill:url(#SVGID_00000089551575738994208070000013825881662814249144_);}
	.st82{opacity:0.2563;fill-rule:evenodd;clip-rule:evenodd;fill:#FFFFFF;enable-background:new    ;}
	.st83{opacity:0.67;fill:url(#SVGID_00000064326563846619576260000014296484837387223992_);}
	.st84{fill:#3FA9BD;}
	.st85{fill:url(#SVGID_00000098193511993432163620000007141583402778640533_);}
	.st86{fill-rule:evenodd;clip-rule:evenodd;fill:#555069;}
	.st87{fill-rule:evenodd;clip-rule:evenodd;fill:#FFFFFF;}
	.st88{fill-rule:evenodd;clip-rule:evenodd;fill:#AFAFB1;}
	.st89{fill-rule:evenodd;clip-rule:evenodd;fill:#D3D3D3;}
	.st90{opacity:0.67;fill:url(#SVGID_00000144320563447274181490000013099056625177602214_);}
	.st91{fill:url(#SVGID_00000179616968313357370890000007912329170791837584_);}
	.st92{opacity:0.67;fill:url(#SVGID_00000114767698451879610790000017694560503105106597_);}
	.st93{fill:url(#SVGID_00000114066660289854580780000014262096056106865057_);}
	.st94{opacity:0.67;fill:url(#SVGID_00000119113751874323517980000008490769540167241366_);}
	.st95{fill:url(#SVGID_00000152984884841915695970000009172772311739088309_);}
	.st96{opacity:0.67;fill:url(#SVGID_00000003084458616823185740000017130094310416398767_);}
	.st97{fill:url(#SVGID_00000044883890463816432180000014490568786533460145_);}
	.st98{opacity:0.67;fill:url(#SVGID_00000024717341191251872300000004821116361560278692_);}
	.st99{fill:url(#SVGID_00000033351644154743794180000007783878480648014269_);}
	.st100{fill:#1AD4B3;}
	.st101{opacity:0.67;fill:url(#SVGID_00000137845497840209708680000014574649834330559365_);}
	.st102{fill:url(#SVGID_00000075152052948411047790000010543557662139817351_);}
	.st103{opacity:0.67;fill:url(#SVGID_00000109741323332830581340000010666908929887123599_);}
	.st104{fill:url(#SVGID_00000173137514531877715660000007019157554074219170_);}
	.st105{opacity:0.67;fill:url(#SVGID_00000026877211409319305800000010334013512335863967_);}
	.st106{fill:url(#SVGID_00000043458186395524684800000008310655113615058345_);}
	.st107{opacity:0.67;fill:url(#SVGID_00000057855091233669021950000015445454865507571617_);}
	.st108{fill:url(#SVGID_00000123442642488146116120000003500755660985957767_);}
	.st109{opacity:0.67;fill:url(#SVGID_00000057854216580714603450000006834696637491242675_);}
	.st110{fill:url(#SVGID_00000046335526826256908090000000712340134279244442_);}
	.st111{opacity:0.67;fill:url(#SVGID_00000004535068613186226950000014902508542139955334_);}
	.st112{fill:url(#SVGID_00000178191375405753111650000008962610265908681357_);}
	
		.st113{fill-rule:evenodd;clip-rule:evenodd;fill:none;stroke:#FFFFFF;stroke-width:0.7384;stroke-linecap:round;stroke-linejoin:round;stroke-miterlimit:10;}
	.st114{opacity:0.67;fill:url(#SVGID_00000054251726510331637240000017734646004109575848_);}
	.st115{fill:url(#SVGID_00000023244711450369046460000000998820732598621088_);}
	.st116{opacity:0.67;fill:url(#SVGID_00000183213692807059167400000008613910346380009634_);}
	.st117{fill:url(#SVGID_00000007391251660393968090000018346885810379782028_);}
	.st118{opacity:0.67;fill:url(#SVGID_00000108288850532299180230000000252424532619305871_);}
	.st119{fill:url(#SVGID_00000049188824298353157000000016599115339916741008_);}
	.st120{opacity:0.67;fill:url(#SVGID_00000048472766573003199610000013702770099536466845_);}
	.st121{fill:url(#SVGID_00000008844235706113424590000011186863293786076072_);}
	.st122{opacity:0.67;fill:url(#SVGID_00000096777070370170920980000015136530575772851585_);}
	.st123{fill:url(#SVGID_00000011730985160561021470000010334441705548428183_);}
	.st124{opacity:0.67;fill:url(#SVGID_00000124860658539684106120000014885054351059892116_);}
	.st125{fill:url(#SVGID_00000103248731874672199620000010353388777843617438_);}
	.st126{opacity:0.67;fill:url(#SVGID_00000093858212423007159970000000316668175503084448_);}
	.st127{fill:url(#SVGID_00000091705265284634270310000004422889505884070076_);}
	.st128{opacity:0.67;fill:url(#SVGID_00000039097501806379729390000015593331756236521633_);}
	.st129{fill:url(#SVGID_00000133524007046529746320000006963956334868110996_);}
	.st130{opacity:0.67;fill:url(#SVGID_00000124142595466211130110000006312353507368862124_);enable-background:new    ;}
	.st131{fill:#5EA6B9;}
	.st132{fill:url(#SVGID_00000150803740302478219900000012644477813975010224_);}
	.st133{fill-rule:evenodd;clip-rule:evenodd;fill:#545067;}
	.st134{fill-rule:evenodd;clip-rule:evenodd;fill:#AEAEB0;}
	.st135{fill-rule:evenodd;clip-rule:evenodd;fill:#D2D2D2;}
	.st136{opacity:0.67;fill:url(#SVGID_00000096050195437096387010000003055509091532850599_);enable-background:new    ;}
	.st137{fill:url(#SVGID_00000136398302509167105600000010589534211450683273_);}
	.st138{fill-rule:evenodd;clip-rule:evenodd;fill:#63D0B3;}
	
		.st139{fill-rule:evenodd;clip-rule:evenodd;fill:none;stroke:#000000;stroke-linecap:round;stroke-linejoin:round;stroke-miterlimit:10;}
	.st140{fill-rule:evenodd;clip-rule:evenodd;fill:#E85C83;}
	
		.st141{fill-rule:evenodd;clip-rule:evenodd;fill:#4AA089;stroke:url(#SVGID_00000031915885521192016490000017773766411899461773_);stroke-linecap:round;stroke-linejoin:round;stroke-miterlimit:10;}
	.st142{fill:#5DC29D;}
	.st143{fill:url(#SVGID_00000163791092361106961490000004685045197253273740_);}
	.st144{fill:url(#SVGID_00000146496454932212999470000006028568197120057728_);}
	.st145{fill:#E85C83;}
	.st146{opacity:0.67;fill:url(#SVGID_00000159467632427242071440000000741341114952144287_);enable-background:new    ;}
	.st147{fill:url(#SVGID_00000080912012532388167390000008002180439468988586_);}
	
		.st148{fill:none;stroke:url(#SVGID_00000036222891897155460010000014325919178247856544_);stroke-width:5;stroke-linecap:round;stroke-linejoin:round;stroke-miterlimit:10;}
	.st149{fill:url(#SVGID_00000060737832454352290420000009954683888971668662_);}
	.st150{opacity:0.67;fill:url(#SVGID_00000142178225110882565560000014783127621554495115_);enable-background:new    ;}
	.st151{fill:url(#SVGID_00000148647962467225630860000003866966775904403361_);}
	.st152{opacity:0.67;fill:url(#SVGID_00000011033479338000380370000002633838351285029544_);}
	.st153{fill:url(#SVGID_00000095318076552890819020000000936761552846042546_);}
	.st154{opacity:0.67;fill:url(#SVGID_00000076584609833497601440000009597222005289379256_);}
	.st155{fill:url(#SVGID_00000176012772714230487450000007412839704333703066_);}
	.st156{opacity:0.67;fill:url(#SVGID_00000070105071747547032670000011053483128511350206_);}
	.st157{fill:url(#SVGID_00000169538485911692769870000014673802887261768120_);}
	.st158{opacity:0.67;fill:url(#SVGID_00000034051911832983823750000010581884673919202693_);}
	.st159{fill:url(#SVGID_00000004519342721930168390000005811592725437984908_);}
	.st160{opacity:0.67;fill:url(#SVGID_00000076583477793095499240000002045769268039895181_);}
	.st161{fill:url(#SVGID_00000142154484612497697150000004956413028485658776_);}
	.st162{fill:none;stroke:#000000;stroke-width:22;stroke-linecap:round;stroke-linejoin:round;stroke-miterlimit:10;}
	.st163{fill:url(#SVGID_00000025433052630479518260000003683122846434449794_);}
	.st164{fill:url(#SVGID_00000031917635896424269480000009076895815903062708_);}
	.st165{fill:none;stroke:url(#SVGID_00000057140341561386041570000011794390494418462869_);stroke-width:5;stroke-miterlimit:10;}
	.st166{fill:url(#SVGID_00000182495150451753208330000005999925640898621596_);}
	.st167{fill:none;}
	.st168{opacity:0.67;fill:url(#SVGID_00000053511276921236879400000016832779839621180301_);}
	.st169{fill:url(#SVGID_00000137821105873914643210000015367601486011112857_);}
	.st170{fill:none;stroke:url(#SVGID_00000166675264720895878940000008705691420128581295_);stroke-width:5;stroke-miterlimit:10;}
	.st171{fill:url(#SVGID_00000060746575715318817710000004831952993575899288_);}
	.st172{opacity:0.67;fill:url(#SVGID_00000000182977206233249930000006687402257459598744_);}
	.st173{fill:url(#SVGID_00000088099776862060602600000005651153135125132729_);}
	.st174{opacity:0.67;fill:url(#SVGID_00000181806866123116433150000011959843593025206705_);}
	.st175{fill:url(#SVGID_00000034082058633738686480000015523638075631208610_);}
	.st176{opacity:0.67;fill:url(#SVGID_00000053531805762378537380000007962347808909347756_);}
	.st177{fill:url(#SVGID_00000079446222938614638550000005581178435280621235_);}
</style>
<g>
	<circle class="st7" cx="144.67" cy="70.24" r="26.03"/>
	<g>
		<g>
			<path class="st1" d="M138.21,43.43l-0.01,10.81c-0.33,1.38,0.28,2.85,1.82,3.91c2.54,1.76,6.66,1.76,9.2,0
				c1.08-0.75,1.7-1.69,1.86-2.67l0.04,0l0-0.45c0-0.04,0-0.09,0-0.13l0.01-11.18L138.21,43.43z"/>
			<path class="st1" d="M138.26,51.16c0,2.45,2.87,4.43,6.41,4.43s6.41-1.98,6.41-4.43"/>
			<path class="st1" d="M138.26,47.77c0,2.45,2.87,4.43,6.41,4.43s6.41-1.98,6.41-4.43"/>
			<path class="st1" d="M138.26,44.21c0,2.45,2.87,4.43,6.41,4.43s6.41-1.98,6.41-4.43"/>
		</g>
		<g>
			<path class="st1" d="M138.21,32.75l-0.01,10.81c-0.33,1.38,0.28,2.85,1.82,3.91c2.54,1.76,6.66,1.76,9.2,0
				c1.08-0.75,1.7-1.69,1.86-2.67l0.04,0l0-0.45c0-0.04,0-0.09,0-0.13l0.01-11.18L138.21,32.75z"/>
			<path class="st1" d="M138.26,40.49c0,2.45,2.87,4.43,6.41,4.43s6.41-1.98,6.41-4.43"/>
			<path class="st1" d="M138.26,37.1c0,2.45,2.87,4.43,6.41,4.43s6.41-1.98,6.41-4.43"/>
			<path class="st1" d="M138.26,33.54c0,2.45,2.87,4.43,6.41,4.43s6.41-1.98,6.41-4.43"/>
		</g>
	</g>
	<g>
		<g>
			<g>
				<polygon class="st2" points="144.27,48.55 126.46,38.27 126.46,20.45 144.27,30.74 				"/>
				<polygon class="st3" points="144.27,48.55 162.09,38.27 162.09,20.45 144.27,30.74 				"/>
				<polygon class="st4" points="144.34,30.79 126.46,20.47 144.21,10.13 162.09,20.45 				"/>
			</g>
			<path id="矩形_00000000224764980878004580000002438337549762957469_" class="st5" d="M138.69,15.45L138.69,15.45
				c0.35,0.2,0.29,0.58-0.12,0.83l-3.7,2.19c-0.42,0.25-1.08,0.29-1.43,0.09l0,0c-0.35-0.2-0.29-0.58,0.12-0.83l3.7-2.19
				C137.68,15.29,138.34,15.25,138.69,15.45z"/>
			<path id="矩形_00000101785510630771024770000017250878021637304757_" class="st5" d="M131.99,19.41L131.99,19.41
				c0.35,0.2,0.29,0.58-0.12,0.83l-0.72,0.42c-0.42,0.25-1.08,0.29-1.43,0.09l0,0c-0.35-0.2-0.29-0.58,0.12-0.83l0.72-0.42
				C131.02,19.24,131.64,19.21,131.99,19.41z"/>
		</g>
	</g>
</g>
<g>
	<circle class="st7" cx="263.33" cy="58.37" r="17.42"/>
	<g>
		<g>
			<path class="st1" d="M259,40.43l0,7.23c-0.22,0.92,0.19,1.91,1.22,2.62c1.7,1.18,4.46,1.18,6.16,0c0.72-0.5,1.14-1.13,1.25-1.79
				l0.03,0l0-0.3c0-0.03,0-0.06,0-0.09l0-7.49L259,40.43z"/>
			<path class="st1" d="M259.04,45.6c0,1.64,1.92,2.97,4.29,2.97c2.37,0,4.29-1.33,4.29-2.97"/>
			<path class="st1" d="M259.04,43.33c0,1.64,1.92,2.97,4.29,2.97c2.37,0,4.29-1.33,4.29-2.97"/>
			<path class="st1" d="M259.04,40.95c0,1.64,1.92,2.97,4.29,2.97c2.37,0,4.29-1.33,4.29-2.97"/>
		</g>
		<g>
			<path class="st1" d="M259,33.28l0,7.23c-0.22,0.92,0.19,1.91,1.22,2.62c1.7,1.18,4.46,1.18,6.16,0c0.72-0.5,1.14-1.13,1.25-1.79
				l0.03,0l0-0.3c0-0.03,0-0.06,0-0.09l0-7.49L259,33.28z"/>
			<path class="st1" d="M259.04,38.46c0,1.64,1.92,2.97,4.29,2.97c2.37,0,4.29-1.33,4.29-2.97"/>
			<path class="st1" d="M259.04,36.19c0,1.64,1.92,2.97,4.29,2.97c2.37,0,4.29-1.33,4.29-2.97"/>
			<path class="st1" d="M259.04,33.8c0,1.64,1.92,2.97,4.29,2.97c2.37,0,4.29-1.33,4.29-2.97"/>
		</g>
	</g>
	<g>
		<g>
			<g>
				<polygon class="st2" points="263.06,43.86 251.14,36.97 251.14,25.05 263.06,31.93 				"/>
				<polygon class="st3" points="263.06,43.86 274.99,36.97 274.99,25.05 263.06,31.93 				"/>
				<polygon class="st4" points="263.11,31.97 251.14,25.06 263.02,18.13 274.99,25.05 				"/>
			</g>
			<path id="矩形_00000027575597677809274660000015259226105719874449_" class="st5" d="M259.43,21.56L259.43,21.56
				c0.23,0.13,0.2,0.39-0.08,0.55l-2.47,1.46c-0.28,0.17-0.72,0.19-0.95,0.06l0,0c-0.23-0.13-0.2-0.39,0.08-0.55l2.47-1.46
				C258.75,21.46,259.19,21.43,259.43,21.56z"/>
			<path id="矩形_00000078037141163023317750000013133239570109931177_" class="st5" d="M254.95,24.22L254.95,24.22
				c0.23,0.13,0.2,0.39-0.08,0.55l-0.48,0.28c-0.28,0.17-0.72,0.19-0.95,0.06l0,0c-0.23-0.13-0.2-0.39,0.08-0.55l0.48-0.28
				C254.29,24.1,254.71,24.08,254.95,24.22z"/>
		</g>
	</g>
</g>
<g>
	<g>
		<polygon class="st3" points="263.04,158.85 209.25,189.57 209.5,210.38 263.16,179.85 		"/>
		<polygon class="st2" points="168.54,166.9 209.25,189.52 209.5,210.38 168.79,187.76 		"/>
		<polygon class="st4" points="262.79,158.83 221.55,135.82 168.54,166.9 209.25,189.72 		"/>
	</g>
	<g>
		<polygon class="st3" points="263.04,134.31 209.25,165.03 209.5,185.84 263.16,155.31 		"/>
		<polygon class="st2" points="168.54,142.36 209.25,164.97 209.5,185.84 168.79,163.22 		"/>
		<polygon class="st4" points="263.04,134.24 221.8,111.23 168.54,141.97 209.25,164.79 		"/>
	</g>
	<circle class="st7" cx="213.14" cy="111.19" r="41.04"/>
	<g>
		<g>
			<path class="st6" d="M217.3,175.29v-8.95l2.53-1.5c0.49-0.29,0.9-0.41,1.24-0.35c0.34,0.05,0.6,0.26,0.79,0.61
				c0.18,0.35,0.27,0.82,0.27,1.41c0,0.59-0.09,1.17-0.28,1.74c-0.18,0.56-0.45,1.07-0.8,1.53c-0.35,0.46-0.77,0.84-1.26,1.13
				l-1.61,0.96v-1.52l1.39-0.83c0.26-0.15,0.48-0.35,0.65-0.57c0.17-0.23,0.3-0.48,0.38-0.76c0.08-0.28,0.13-0.56,0.13-0.85
				c0-0.3-0.04-0.53-0.13-0.71c-0.08-0.17-0.21-0.27-0.38-0.29c-0.17-0.02-0.39,0.04-0.65,0.2l-0.91,0.54v7.4L217.3,175.29z"/>
			<path class="st6" d="M222.99,171.92v-6.71l1.29-0.77v1.17l0.05-0.03c0.09-0.47,0.23-0.87,0.44-1.21
				c0.21-0.34,0.44-0.58,0.71-0.74c0.07-0.04,0.14-0.08,0.22-0.11c0.08-0.03,0.15-0.06,0.2-0.07v1.65
				c-0.06,0.01-0.15,0.04-0.26,0.08c-0.11,0.04-0.21,0.09-0.3,0.15c-0.2,0.12-0.37,0.28-0.53,0.49c-0.15,0.21-0.27,0.44-0.36,0.71
				c-0.09,0.26-0.13,0.53-0.13,0.8v3.8L222.99,171.92z"/>
			<path class="st6" d="M228.54,168.76c-0.49,0.29-0.91,0.39-1.26,0.31c-0.35-0.08-0.63-0.32-0.82-0.73
				c-0.19-0.41-0.29-0.95-0.29-1.64c0-0.69,0.1-1.36,0.29-1.99c0.19-0.63,0.47-1.2,0.82-1.7c0.35-0.5,0.77-0.89,1.26-1.18
				c0.49-0.29,0.91-0.39,1.26-0.31c0.35,0.08,0.63,0.32,0.82,0.73c0.19,0.41,0.29,0.96,0.29,1.65c0,0.69-0.1,1.35-0.29,1.98
				c-0.19,0.63-0.47,1.2-0.82,1.7C229.45,168.08,229.03,168.47,228.54,168.76z M228.55,167.32c0.22-0.13,0.41-0.33,0.55-0.59
				s0.26-0.57,0.34-0.92s0.11-0.72,0.11-1.11c0-0.39-0.04-0.72-0.11-0.98s-0.19-0.44-0.34-0.53c-0.15-0.09-0.33-0.07-0.55,0.06
				c-0.22,0.13-0.41,0.33-0.56,0.6c-0.15,0.27-0.27,0.58-0.34,0.93c-0.08,0.35-0.11,0.72-0.11,1.11c0,0.39,0.04,0.72,0.11,0.98
				c0.08,0.26,0.19,0.43,0.34,0.52C228.14,167.47,228.32,167.45,228.55,167.32z"/>
			<path class="st6" d="M231.78,169.23V160l1.32-0.78v1.13l0.06-0.04c0.06-0.22,0.14-0.45,0.26-0.7c0.11-0.25,0.26-0.5,0.44-0.73
				c0.18-0.23,0.41-0.43,0.68-0.59c0.35-0.21,0.67-0.27,0.97-0.19c0.3,0.08,0.53,0.32,0.71,0.73c0.18,0.41,0.27,0.99,0.27,1.76
				c0,0.75-0.09,1.43-0.26,2.05c-0.17,0.62-0.41,1.14-0.7,1.58c-0.3,0.44-0.63,0.77-0.99,0.98c-0.26,0.15-0.48,0.22-0.66,0.21
				c-0.18-0.01-0.33-0.07-0.44-0.19c-0.11-0.11-0.2-0.25-0.26-0.4l-0.04,0.02v3.59L231.78,169.23z M233.09,162.58
				c0,0.4,0.04,0.72,0.12,0.97c0.08,0.25,0.19,0.41,0.34,0.49c0.15,0.07,0.33,0.05,0.55-0.08c0.22-0.13,0.4-0.32,0.55-0.58
				c0.15-0.26,0.26-0.56,0.34-0.9c0.08-0.35,0.12-0.71,0.12-1.1c0-0.39-0.04-0.71-0.12-0.95c-0.08-0.25-0.19-0.41-0.34-0.49
				c-0.15-0.08-0.33-0.05-0.55,0.08c-0.22,0.13-0.4,0.32-0.55,0.57s-0.26,0.54-0.34,0.89C233.13,161.81,233.09,162.18,233.09,162.58
				z"/>
			<path class="st6" d="M239.53,162.25c-0.49,0.29-0.91,0.39-1.26,0.31c-0.35-0.08-0.63-0.32-0.82-0.73
				c-0.19-0.41-0.29-0.95-0.29-1.64c0-0.69,0.1-1.36,0.29-1.99c0.19-0.63,0.47-1.2,0.82-1.7c0.35-0.5,0.77-0.89,1.26-1.18
				c0.49-0.29,0.91-0.39,1.26-0.31c0.35,0.08,0.63,0.32,0.82,0.73c0.19,0.41,0.29,0.96,0.29,1.65c0,0.69-0.1,1.35-0.29,1.98
				c-0.19,0.63-0.47,1.2-0.82,1.7C240.44,161.57,240.02,161.96,239.53,162.25z M239.54,160.8c0.22-0.13,0.41-0.33,0.55-0.59
				s0.26-0.57,0.34-0.92c0.08-0.35,0.11-0.72,0.11-1.11s-0.04-0.72-0.11-0.98c-0.08-0.26-0.19-0.44-0.34-0.53
				c-0.15-0.09-0.33-0.07-0.55,0.06c-0.22,0.13-0.41,0.33-0.56,0.6c-0.15,0.27-0.27,0.58-0.34,0.93s-0.11,0.72-0.11,1.11
				c0,0.39,0.04,0.72,0.11,0.98c0.08,0.26,0.19,0.43,0.34,0.52C239.13,160.96,239.32,160.94,239.54,160.8z"/>
			<path class="st6" d="M246.78,153.03l-1.22,0.83c-0.02-0.13-0.07-0.24-0.13-0.32c-0.07-0.08-0.16-0.12-0.27-0.12
				c-0.11-0.01-0.24,0.04-0.4,0.13c-0.21,0.12-0.38,0.29-0.52,0.49c-0.14,0.21-0.21,0.41-0.21,0.61c0,0.16,0.05,0.27,0.14,0.32
				c0.09,0.06,0.25,0.05,0.47-0.01l0.87-0.27c0.47-0.14,0.82-0.13,1.05,0.03c0.23,0.16,0.34,0.48,0.34,0.97
				c0,0.44-0.09,0.88-0.28,1.32c-0.18,0.44-0.44,0.85-0.76,1.22c-0.32,0.38-0.69,0.69-1.11,0.93c-0.64,0.38-1.14,0.49-1.52,0.34
				c-0.38-0.15-0.6-0.52-0.66-1.13l1.31-0.87c0.04,0.25,0.14,0.4,0.29,0.45c0.15,0.05,0.35,0.01,0.59-0.14
				c0.23-0.14,0.42-0.31,0.57-0.53c0.14-0.21,0.22-0.42,0.22-0.62c0-0.17-0.05-0.28-0.15-0.33c-0.1-0.05-0.25-0.04-0.46,0.02
				l-0.83,0.26c-0.47,0.15-0.82,0.13-1.05-0.06c-0.23-0.19-0.34-0.53-0.34-1.03c0-0.43,0.08-0.85,0.25-1.26
				c0.17-0.41,0.4-0.79,0.71-1.14c0.31-0.35,0.66-0.65,1.08-0.89c0.61-0.36,1.09-0.46,1.44-0.31
				C246.51,152.08,246.72,152.45,246.78,153.03z"/>
			<path class="st6" d="M249.1,156.58c-0.31,0.18-0.58,0.27-0.82,0.26c-0.24-0.01-0.43-0.12-0.57-0.33
				c-0.14-0.21-0.21-0.54-0.21-0.98c0-0.37,0.05-0.72,0.15-1.03c0.1-0.31,0.23-0.59,0.4-0.85c0.17-0.25,0.36-0.49,0.58-0.69
				c0.22-0.21,0.44-0.4,0.68-0.57c0.28-0.21,0.51-0.38,0.68-0.52c0.17-0.14,0.3-0.27,0.37-0.38c0.08-0.12,0.12-0.25,0.12-0.39v-0.03
				c0-0.28-0.06-0.45-0.19-0.53c-0.12-0.08-0.3-0.05-0.53,0.09c-0.24,0.14-0.43,0.33-0.57,0.56c-0.14,0.23-0.24,0.47-0.28,0.72
				l-1.23,0.59c0.06-0.44,0.19-0.87,0.37-1.28c0.18-0.41,0.42-0.78,0.71-1.11c0.29-0.33,0.63-0.62,1.01-0.84
				c0.27-0.16,0.52-0.27,0.77-0.32c0.25-0.06,0.46-0.05,0.65,0.02c0.19,0.07,0.34,0.22,0.45,0.44c0.11,0.22,0.17,0.53,0.17,0.93
				v4.53l-1.27,0.75v-0.93l-0.04,0.02c-0.08,0.26-0.18,0.5-0.31,0.74c-0.13,0.24-0.29,0.45-0.47,0.65
				C249.55,156.27,249.34,156.43,249.1,156.58z M249.48,155.06c0.2-0.12,0.37-0.27,0.52-0.47c0.15-0.2,0.27-0.42,0.35-0.65
				c0.09-0.24,0.13-0.47,0.13-0.71v-0.71c-0.04,0.06-0.1,0.13-0.17,0.2c-0.07,0.07-0.15,0.15-0.24,0.23
				c-0.09,0.08-0.18,0.15-0.27,0.23c-0.09,0.07-0.17,0.14-0.24,0.2c-0.16,0.12-0.29,0.26-0.41,0.4c-0.12,0.14-0.21,0.29-0.27,0.44
				c-0.06,0.16-0.1,0.32-0.1,0.5c0,0.25,0.07,0.41,0.2,0.46C249.11,155.22,249.28,155.19,249.48,155.06z"/>
			<path class="st6" d="M254.18,144.49v8.95l-1.33,0.79v-8.95L254.18,144.49z"/>
		</g>
	</g>
</g>
<g>
	<polygon class="st3" points="132.63,74 22.49,136.92 22.49,195.82 132.63,132.9 	"/>
	<polygon class="st2" points="8.05,128.76 22.49,136.56 22.49,195.82 8.05,188.02 	"/>
	<polygon class="st4" points="132.63,74 117.12,65.8 8.05,128.76 22.49,136.56 	"/>
</g>
<g>
	<path class="st6" d="M34.22,172.16v-22.62l9.86-5.87v4.95l-6.05,3.6v3.89l5.45-3.25v4.95l-5.45,3.25v8.84L34.22,172.16z"/>
	<path class="st6" d="M49.28,140.56v22.62l-3.81,2.27v-22.62L49.28,140.56z"/>
	<path class="st6" d="M63.22,132.26v22.62l-3.18,1.89l-5.07-8.87l-0.08,0.05v11.88l-3.81,2.27v-22.62l3.23-1.92l4.99,8.87l0.11-0.06
		v-11.84L63.22,132.26z"/>
	<path class="st6" d="M68.84,128.92v22.62l-3.81,2.27v-22.62L68.84,128.92z"/>
	<path class="st6" d="M78.2,130.41c-0.04-0.71-0.21-1.19-0.51-1.42c-0.3-0.23-0.76-0.16-1.38,0.2c-0.39,0.23-0.71,0.5-0.96,0.8
		c-0.25,0.3-0.43,0.61-0.55,0.94c-0.12,0.33-0.18,0.66-0.19,0.99c-0.01,0.28,0.02,0.5,0.09,0.68c0.07,0.18,0.18,0.3,0.34,0.38
		c0.16,0.08,0.35,0.12,0.6,0.11c0.24,0,0.53-0.05,0.86-0.14l1.15-0.29c0.78-0.2,1.44-0.24,1.99-0.14c0.55,0.11,1,0.35,1.36,0.72
		s0.61,0.88,0.78,1.51c0.17,0.63,0.25,1.38,0.26,2.23c0,1.49-0.24,2.89-0.69,4.19c-0.46,1.3-1.11,2.47-1.96,3.52
		c-0.85,1.04-1.86,1.92-3.05,2.62c-1.22,0.73-2.28,1.07-3.19,1.03c-0.91-0.04-1.61-0.52-2.11-1.43c-0.5-0.91-0.75-2.31-0.76-4.21
		l3.62-2.15c0.02,0.68,0.13,1.2,0.32,1.55c0.19,0.36,0.46,0.55,0.81,0.59c0.35,0.03,0.77-0.09,1.25-0.38
		c0.41-0.24,0.75-0.53,1.02-0.85c0.27-0.33,0.48-0.67,0.62-1.05c0.14-0.37,0.21-0.74,0.22-1.11c0-0.34-0.07-0.61-0.21-0.79
		c-0.13-0.18-0.35-0.29-0.66-0.31s-0.72,0.02-1.24,0.15l-1.4,0.35c-1.24,0.3-2.22,0.16-2.93-0.44c-0.71-0.59-1.07-1.78-1.06-3.55
		c0-1.43,0.23-2.83,0.72-4.2c0.48-1.37,1.15-2.61,2.01-3.72c0.86-1.11,1.84-2,2.95-2.66c1.13-0.67,2.11-0.95,2.94-0.83
		c0.83,0.12,1.46,0.6,1.91,1.44c0.45,0.84,0.68,2,0.68,3.48L78.2,130.41z"/>
	<path class="st6" d="M83.49,142.81v-22.62l3.81-2.27v8.84l5.04-3v-8.84l3.81-2.27v22.62l-3.81,2.27v-8.84l-5.04,3v8.84
		L83.49,142.81z"/>
	<path class="st6" d="M97.95,134.2v-22.62l10.11-6.02v4.95l-6.3,3.75v3.89l5.78-3.44v4.95l-5.78,3.44v3.89l6.27-3.73v4.95
		L97.95,134.2z"/>
	<path class="st6" d="M115.34,123.84l-5.4,3.21v-22.62l5.34-3.18c1.44-0.86,2.69-1.15,3.74-0.88c1.05,0.28,1.86,1.09,2.44,2.44
		s0.86,3.2,0.86,5.56s-0.29,4.55-0.86,6.58c-0.57,2.03-1.38,3.81-2.42,5.33C118,121.81,116.77,123,115.34,123.84z M113.75,119.58
		l1.45-0.86c0.69-0.41,1.29-0.95,1.78-1.6c0.49-0.65,0.87-1.5,1.12-2.54c0.26-1.04,0.39-2.34,0.39-3.92s-0.13-2.73-0.39-3.46
		c-0.26-0.73-0.65-1.12-1.15-1.18c-0.5-0.06-1.12,0.13-1.85,0.56l-1.34,0.8V119.58z"/>
</g>
<polygon class="st3" points="259.82,27.52 258.47,26.76 266.31,22.14 267.66,22.9 "/>
<polygon class="st3" points="139.38,24.63 137.2,23.4 149.87,15.92 152.05,17.15 "/>
<g>
	<path id="矩形_00000024703854023646690300000012677562358289520830_" class="st82" d="M172.16,217.11L172.16,217.11
		c0.62,0,1.15,0.76,1.15,1.64v1.52c0,0.88-0.53,1.64-1.15,1.64l0,0c-0.62,0-1.15-0.76-1.15-1.64v-1.52
		C171.02,217.8,171.55,217.11,172.16,217.11z"/>
	
		<radialGradient id="SVGID_1_" cx="140.6214" cy="251.2355" r="29.1582" gradientTransform="matrix(1 0 0 0.5898 0 103.0585)" gradientUnits="userSpaceOnUse">
		<stop  offset="0" style="stop-color:#06070C"/>
		<stop  offset="1" style="stop-color:#0D101D;stop-opacity:0"/>
	</radialGradient>
	<path style="opacity:0.67;fill:url(#SVGID_1_);" d="M165.62,237.16c-13.68-7.9-35.96-8-49.77-0.23s-13.91,20.48-0.23,28.37
		s35.96,8,49.77,0.23C179.19,257.76,179.3,245.06,165.62,237.16z"/>
	<g>
		<path class="st84" d="M179.12,201.13v-49.28c0-0.23,0.02-0.45,0.02-0.68c0-22.91-18.57-41.48-41.48-41.48
			c-22.91,0-41.48,18.57-41.48,41.48c0,0.36,0.02,0.72,0.03,1.07v44.66h-0.03v22.67c0,2.84,2.3,5.15,5.15,5.15
			c2.84,0,5.15-2.31,5.15-5.15v-0.83c0.56,0.36,1.13,0.72,1.74,1.07c1.83,1.06,3.79,1.99,5.85,2.81v8.2c0,2.84,2.3,5.15,5.15,5.15
			c2.84,0,5.15-2.31,5.15-5.15v-5.23c2.95,0.57,5.99,0.96,9.06,1.14v12.59c0,2.84,2.3,5.15,5.15,5.15s5.15-2.31,5.15-5.15v-12.7
			c3.39-0.28,6.73-0.8,9.93-1.55v6.36c0,2.84,2.3,5.15,5.15,5.15s5.15-2.31,5.15-5.15v-9.87c1-0.47,1.97-0.96,2.91-1.49
			c0.7-0.39,1.35-0.8,1.99-1.21v0.71c0,2.84,2.3,5.15,5.15,5.15c2.84,0,5.15-2.31,5.15-5.15v-18.45H179.12z"/>
		
			<radialGradient id="SVGID_00000003824817895459120070000003698470414051042731_" cx="162.3441" cy="127.1149" r="106.6854" gradientUnits="userSpaceOnUse">
			<stop  offset="0.0124" style="stop-color:#DD78CE"/>
			<stop  offset="0.4936" style="stop-color:#A7589A"/>
			<stop  offset="0.5829" style="stop-color:#A0619E"/>
			<stop  offset="0.7273" style="stop-color:#8E79A8"/>
			<stop  offset="0.9078" style="stop-color:#709FB9"/>
			<stop  offset="1" style="stop-color:#5EB6C3"/>
		</radialGradient>
		<path style="fill:url(#SVGID_00000003824817895459120070000003698470414051042731_);" d="M179.12,201.13v-49.28
			c0-0.23,0.02-0.45,0.02-0.68c0-22.91-18.57-41.48-41.48-41.48c-22.91,0-41.48,18.57-41.48,41.48c0,0.36,0.02,0.72,0.03,1.07v44.66
			h-0.03v22.67c0,2.84,2.3,5.15,5.15,5.15c2.84,0,5.15-2.31,5.15-5.15v-0.83c0.56,0.36,1.13,0.72,1.74,1.07
			c1.83,1.06,3.79,1.99,5.85,2.81v8.2c0,2.84,2.3,5.15,5.15,5.15c2.84,0,5.15-2.31,5.15-5.15v-5.23c2.95,0.57,5.99,0.96,9.06,1.14
			v12.59c0,2.84,2.3,5.15,5.15,5.15s5.15-2.31,5.15-5.15v-12.7c3.39-0.28,6.73-0.8,9.93-1.55v6.36c0,2.84,2.3,5.15,5.15,5.15
			s5.15-2.31,5.15-5.15v-9.87c1-0.47,1.97-0.96,2.91-1.49c0.7-0.39,1.35-0.8,1.99-1.21v0.71c0,2.84,2.3,5.15,5.15,5.15
			c2.84,0,5.15-2.31,5.15-5.15v-18.45H179.12z"/>
	</g>
	<path id="矩形_00000134971819117523338690000003314516938573499019_" class="st82" d="M100.07,187.29L100.07,187.29
		c1.12,0,2.09,1.38,2.09,2.99v14.25c0,1.61-0.96,2.99-2.09,2.99l0,0c-1.12,0-2.09-1.38-2.09-2.99v-14.25
		C97.99,188.67,98.95,187.29,100.07,187.29z"/>
	<path id="矩形_00000016786952690830994910000007673867573021379772_" class="st82" d="M161.37,124.2L161.37,124.2
		c1.37-1.02,3.68-0.37,5.02,1.41l2.29,3.06c1.34,1.78,1.31,4.19-0.06,5.22l0,0c-1.37,1.02-3.68,0.37-5.02-1.41l-2.29-3.06
		C159.88,127.5,160.01,125.23,161.37,124.2z"/>
	<path id="矩形_00000016037404438546543750000004128679377714758586_" class="st82" d="M117.47,223.88L117.47,223.88
		c1.12,0,2.09,1.38,2.09,2.99v2.76c0,1.61-0.96,2.99-2.09,2.99l0,0c-1.12,0-2.09-1.38-2.09-2.99v-2.76
		C115.38,225.14,116.35,223.88,117.47,223.88z"/>
	<path id="矩形_00000049211971020570787660000004142694036165122715_" class="st82" d="M99.82,213.08L99.82,213.08
		c1.12,0,2.09,1.38,2.09,2.99v2.76c0,1.61-0.96,2.99-2.09,2.99l0,0c-1.12,0-2.09-1.38-2.09-2.99v-2.76
		C97.74,214.34,98.7,213.08,99.82,213.08z"/>
	<path id="矩形_00000183212687341775444680000004693421372622191536_" class="st82" d="M137.66,232.62L137.66,232.62
		c1.12,0,2.09,1.38,2.09,2.99v2.76c0,1.61-0.96,2.99-2.09,2.99l0,0c-1.12,0-2.09-1.38-2.09-2.99v-2.76
		C135.57,233.88,136.54,232.62,137.66,232.62z"/>
	<path id="矩形_00000000208582830512665980000004898204465111846832_" class="st82" d="M157.36,227.27L157.36,227.27
		c0.89,0,1.66,1.1,1.66,2.37v2.19c0,1.28-0.76,2.37-1.66,2.37l0,0c-0.89,0-1.66-1.1-1.66-2.37v-2.19
		C155.7,228.28,156.47,227.27,157.36,227.27z"/>
	<g>
		<path id="椭圆形_00000057827183013361048990000017536548608983754112_" class="st86" d="M147.67,182.16
			c4.06-0.17,7.1-3.66,7.09-6c0-0.94-0.55-1.75-1.38-1.81c-1.29-0.13-3.23,0.7-5.72,0.8c-2.31,0.1-3.78-0.5-5.53-0.42
			c-1.84,0.08-1.75,2.22-1.47,3.06C141.3,180.09,143.52,182.33,147.67,182.16z"/>
		<path id="椭圆形_00000059996181127319048810000016770775713000346046_" class="st87" d="M147.76,180.19
			c4.15-0.17,7.19-3.38,7.19-5.63c0-0.84-0.55-1.57-1.38-1.63c-1.29-0.13-3.32,0.7-5.81,0.8c-2.4,0.1-3.78-0.5-5.62-0.43
			s-1.75,2.13-1.48,2.87C141.3,178.3,143.61,180.36,147.76,180.19z"/>
	</g>
	<g>
		
			<ellipse transform="matrix(0.5671 -0.8237 0.8237 0.5671 -74.1156 176.3792)" class="st87" cx="130.72" cy="158.69" rx="9.5" ry="9.1"/>
		<path id="形状结合_00000123431693218551320190000010876492663566010557_" class="st88" d="M131.92,148.73
			c4.24-0.18,7.66,3.98,7.66,9.22c0,0.19,0,0.37,0,0.56l0,0.56c0-5.33-3.33-9.59-7.48-9.42c-4.15,0.17-7.46,4.61-7.46,10.04
			c0,1.03,0.09,2.05,0.37,2.98c-0.46-1.2-0.74-2.59-0.74-3.99C124.27,153.35,127.68,148.9,131.92,148.73z"/>
		<path id="形状结合_00000054236538853804836920000018001985831818270650_" class="st89" d="M131.92,147.6
			c4.7-0.2,8.58,4.41,8.58,10.31c0.01,5.89-3.86,10.83-8.57,11.02c-4.7,0.2-8.58-4.41-8.58-10.31
			C123.35,152.73,127.12,147.8,131.92,147.6z M131.92,148.73c-4.24,0.18-7.65,4.62-7.64,9.86c0,5.24,3.42,9.4,7.66,9.22
			c4.24-0.18,7.65-4.62,7.64-9.86C139.58,152.71,136.07,148.55,131.92,148.73z"/>
	</g>
	<g>
		
			<ellipse transform="matrix(0.5671 -0.8237 0.8237 0.5671 -59.6804 201.0825)" class="st87" cx="161.44" cy="157.31" rx="9.5" ry="9.1"/>
		<path id="形状结合_00000136402270081866476450000016361291766658487455_" class="st88" d="M162.43,147.35
			c4.24-0.18,7.66,3.98,7.66,9.22c0,0.19,0,0.37,0,0.56l0,0.56c0-5.33-3.33-9.59-7.48-9.42c-4.15,0.17-7.46,4.61-7.46,10.04
			c0,1.03,0.09,2.05,0.37,2.98c-0.46-1.2-0.74-2.59-0.74-3.99C154.78,151.98,158.19,147.53,162.43,147.35z"/>
		<path id="形状结合_00000096045822234194048230000004358181268902644157_" class="st89" d="M162.43,146.23
			c4.7-0.2,8.58,4.41,8.58,10.31s-3.86,10.83-8.57,11.02s-8.58-4.41-8.58-10.31C153.86,151.36,157.64,146.43,162.43,146.23z
			 M162.43,147.35c-4.24,0.18-7.65,4.62-7.64,9.86s3.42,9.4,7.66,9.22c4.24-0.18,7.65-4.62,7.64-9.86
			C170.09,151.34,166.58,147.18,162.43,147.35z"/>
	</g>
	<circle class="st86" cx="130.72" cy="158.69" r="3.77"/>
	<circle class="st86" cx="161.27" cy="157.56" r="3.77"/>
</g>
<g>
	<g>
		<path class="st145" d="M225.69,196.34v-10.58l4.39-2.59v1.84l-2.99,1.76v2.52l2.7-1.59v1.84l-2.7,1.59v4.37L225.69,196.34z"/>
		<path class="st145" d="M232.42,192.53c-0.32,0.19-0.6,0.27-0.85,0.23s-0.44-0.18-0.59-0.44c-0.14-0.27-0.22-0.66-0.22-1.18
			c0-0.44,0.05-0.84,0.15-1.2c0.1-0.36,0.24-0.68,0.42-0.97c0.17-0.29,0.37-0.54,0.6-0.76c0.22-0.22,0.46-0.43,0.7-0.61
			c0.29-0.22,0.52-0.4,0.7-0.55c0.18-0.15,0.3-0.29,0.38-0.42s0.12-0.28,0.12-0.45v-0.03c0-0.33-0.06-0.54-0.19-0.65
			c-0.13-0.1-0.31-0.08-0.54,0.05c-0.25,0.15-0.45,0.35-0.59,0.61s-0.24,0.54-0.29,0.83l-1.28,0.58c0.07-0.52,0.19-1.01,0.38-1.48
			s0.44-0.88,0.74-1.25s0.65-0.67,1.05-0.9c0.28-0.16,0.54-0.27,0.8-0.31c0.25-0.05,0.48-0.02,0.68,0.08s0.35,0.29,0.47,0.56
			c0.11,0.27,0.17,0.64,0.17,1.12v5.35l-1.31,0.77v-1.1l-0.04,0.02c-0.08,0.3-0.19,0.58-0.32,0.84c-0.13,0.27-0.29,0.51-0.48,0.72
			C232.88,192.2,232.67,192.38,232.42,192.53z M232.81,190.78c0.2-0.12,0.38-0.29,0.54-0.51c0.16-0.22,0.28-0.47,0.37-0.74
			s0.13-0.55,0.13-0.83v-0.84c-0.04,0.07-0.1,0.14-0.18,0.22c-0.07,0.08-0.16,0.16-0.25,0.25c-0.09,0.08-0.19,0.16-0.28,0.24
			s-0.18,0.15-0.25,0.21c-0.16,0.13-0.3,0.28-0.43,0.43c-0.12,0.15-0.21,0.32-0.28,0.5c-0.07,0.18-0.1,0.37-0.1,0.58
			c0,0.3,0.07,0.49,0.21,0.56C232.43,190.93,232.6,190.9,232.81,190.78z"/>
		<path class="st145" d="M236.99,180.73c-0.21,0.12-0.38,0.12-0.53-0.02c-0.15-0.13-0.22-0.35-0.22-0.66s0.07-0.61,0.22-0.92
			s0.32-0.52,0.52-0.64c0.21-0.12,0.38-0.12,0.53,0.01s0.22,0.35,0.22,0.66s-0.07,0.61-0.22,0.92
			C237.37,180.4,237.19,180.61,236.99,180.73z M236.29,190.1v-7.93l1.38-0.81v7.93L236.29,190.1z"/>
		<path class="st145" d="M240.15,177.24v10.58l-1.38,0.81v-10.57L240.15,177.24z"/>
		<path class="st145" d="M243.52,185.99c-0.51,0.3-0.95,0.39-1.32,0.28c-0.37-0.12-0.65-0.42-0.85-0.91c-0.2-0.49-0.3-1.16-0.3-2
			c0-0.82,0.1-1.59,0.3-2.32c0.2-0.73,0.48-1.38,0.84-1.94s0.79-0.98,1.28-1.27c0.33-0.19,0.63-0.29,0.92-0.29
			c0.28,0,0.53,0.1,0.74,0.31c0.21,0.21,0.38,0.53,0.5,0.96c0.12,0.43,0.18,0.99,0.18,1.66v0.6l-4.2,2.47v-1.36l2.9-1.71
			c0-0.32-0.04-0.57-0.13-0.77c-0.09-0.19-0.21-0.32-0.36-0.37s-0.33-0.02-0.53,0.1c-0.21,0.12-0.39,0.31-0.56,0.56
			s-0.29,0.53-0.38,0.84c-0.09,0.31-0.14,0.62-0.14,0.94v1.3c0,0.39,0.05,0.71,0.14,0.94s0.22,0.38,0.39,0.43
			c0.17,0.06,0.37,0.02,0.6-0.12c0.15-0.09,0.29-0.21,0.42-0.35s0.24-0.31,0.33-0.5s0.16-0.4,0.21-0.63l1.28-0.62
			c-0.06,0.53-0.2,1.03-0.4,1.51s-0.46,0.91-0.77,1.3C244.3,185.44,243.93,185.75,243.52,185.99z"/>
		<path class="st145" d="M248.54,183.01c-0.38,0.22-0.72,0.27-1.03,0.14c-0.3-0.13-0.55-0.45-0.72-0.95
			c-0.18-0.5-0.27-1.2-0.27-2.08c0-0.91,0.09-1.72,0.27-2.43c0.18-0.71,0.43-1.31,0.73-1.79c0.31-0.48,0.64-0.83,1-1.04
			c0.28-0.16,0.51-0.23,0.7-0.19s0.34,0.14,0.45,0.29s0.2,0.32,0.26,0.5l0.04-0.03v-3.98l1.38-0.81v10.58l-1.36,0.8v-1.27
			l-0.06,0.03c-0.07,0.26-0.16,0.53-0.27,0.82c-0.12,0.28-0.27,0.55-0.46,0.8C249.04,182.65,248.81,182.86,248.54,183.01z
			 M248.98,181c0.22-0.13,0.41-0.34,0.57-0.62c0.15-0.28,0.27-0.63,0.36-1.03c0.08-0.4,0.12-0.84,0.12-1.31s-0.04-0.86-0.12-1.16
			s-0.2-0.5-0.36-0.6s-0.35-0.08-0.57,0.05c-0.23,0.13-0.42,0.34-0.57,0.63s-0.27,0.63-0.35,1.02s-0.12,0.82-0.12,1.28
			c0,0.46,0.04,0.84,0.12,1.15s0.2,0.51,0.35,0.62C248.56,181.15,248.75,181.14,248.98,181z"/>
	</g>
</g>
</svg>
