<?xml version="1.0" encoding="utf-8"?>
<!-- Generator: Adobe Illustrator 27.8.1, SVG Export Plug-In . SVG Version: 6.00 Build 0)  -->
<svg version="1.1" id="Слой_1" xmlns="http://www.w3.org/2000/svg" xmlns:xlink="http://www.w3.org/1999/xlink" x="0px" y="0px"
	 viewBox="0 0 290 269" style="enable-background:new 0 0 290 269;" xml:space="preserve">
<style type="text/css">
	.st0{fill:#101422;}
	.st1{fill:#FFFFFF;stroke:#111422;stroke-linecap:round;stroke-linejoin:round;stroke-miterlimit:10;}
	
		.st2{fill-rule:evenodd;clip-rule:evenodd;fill:#C6C3D1;stroke:#101320;stroke-linecap:round;stroke-linejoin:round;stroke-miterlimit:10;}
	
		.st3{fill-rule:evenodd;clip-rule:evenodd;fill:#FFFFFF;stroke:#111422;stroke-linecap:round;stroke-linejoin:round;stroke-miterlimit:10;}
	
		.st4{fill-rule:evenodd;clip-rule:evenodd;fill:#ECF0FC;stroke:#111422;stroke-linecap:round;stroke-linejoin:round;stroke-miterlimit:10;}
	.st5{opacity:0.92;fill-rule:evenodd;clip-rule:evenodd;fill:#FFFFFF;enable-background:new    ;}
	.st6{fill:none;stroke:#FFFFFF;stroke-linecap:round;stroke-linejoin:round;stroke-miterlimit:10;}
	.st7{fill-rule:evenodd;clip-rule:evenodd;fill:#101422;}
	.st8{fill:url(#SVGID_1_);}
	.st9{fill:url(#SVGID_00000064332056027403260960000004844898582731989436_);}
	.st10{fill:url(#SVGID_00000080898392615979038910000003639102703554549646_);}
	.st11{opacity:0.67;fill:url(#SVGID_00000031920296179228541460000010412570956441192371_);enable-background:new    ;}
	.st12{fill:#6FA3B6;}
	.st13{fill:url(#SVGID_00000070083487195023684660000010259506115200276361_);}
	.st14{opacity:0.2563;fill-rule:evenodd;clip-rule:evenodd;fill:#FFFFFF;enable-background:new    ;}
	.st15{fill:none;stroke:#FFFFFF;stroke-width:0.7384;stroke-linecap:round;stroke-linejoin:round;stroke-miterlimit:10;}
	
		.st16{fill:none;stroke:url(#SVGID_00000111878520656144320080000004281395226775243146_);stroke-width:5;stroke-linecap:round;stroke-linejoin:round;stroke-miterlimit:10;}
	.st17{fill:url(#SVGID_00000141419244767344458760000012413383661300065921_);}
	.st18{fill-rule:evenodd;clip-rule:evenodd;fill:#1AD4B3;}
	.st19{fill-rule:evenodd;clip-rule:evenodd;fill:#FC4F83;}
	.st20{fill:#C6C3D1;stroke:#101320;stroke-linecap:round;stroke-linejoin:round;stroke-miterlimit:10;}
	.st21{fill:#ECF0FC;stroke:#111422;stroke-linecap:round;stroke-linejoin:round;stroke-miterlimit:10;}
	
		.st22{fill:url(#SVGID_00000170983395318413035600000007178444858414240910_);stroke:#1D1D1B;stroke-width:0.2115;stroke-linecap:round;stroke-linejoin:round;stroke-miterlimit:10;}
	
		.st23{fill:url(#SVGID_00000159434811457810405940000001688111333015320766_);stroke:#1D1D1B;stroke-width:0.2115;stroke-linecap:round;stroke-linejoin:round;stroke-miterlimit:10;}
	
		.st24{fill:url(#SVGID_00000060737884481646304380000005979753335187259301_);stroke:#1D1D1B;stroke-width:0.2115;stroke-linecap:round;stroke-linejoin:round;stroke-miterlimit:10;}
	
		.st25{fill:url(#SVGID_00000106833903581326905190000006187513936731044502_);stroke:#1D1D1B;stroke-width:0.2115;stroke-linecap:round;stroke-linejoin:round;stroke-miterlimit:10;}
	
		.st26{fill-rule:evenodd;clip-rule:evenodd;fill:#101422;stroke:#101423;stroke-linecap:round;stroke-linejoin:round;stroke-miterlimit:10;}
	.st27{fill:#FFFFFF;}
	.st28{fill-rule:evenodd;clip-rule:evenodd;fill:url(#SVGID_00000105425835600400618610000001552765726092576940_);}
	.st29{fill-rule:evenodd;clip-rule:evenodd;fill:url(#SVGID_00000157310315407935684240000007430656153548178358_);}
	.st30{fill:url(#SVGID_00000017482702513189412210000009163825770777643451_);}
	.st31{fill:url(#SVGID_00000127027683318382067840000010635047972857984955_);}
	.st32{fill:url(#SVGID_00000117678646294229264760000003324000163133598368_);}
	
		.st33{fill-rule:evenodd;clip-rule:evenodd;fill:#C7FFF1;stroke:#101320;stroke-linecap:round;stroke-linejoin:round;stroke-miterlimit:10;}
	
		.st34{fill:none;stroke:url(#SVGID_00000127045525482480421760000016007991393254343588_);stroke-width:5;stroke-linecap:round;stroke-linejoin:round;stroke-miterlimit:10;}
	.st35{fill:url(#SVGID_00000026883336270399351840000003456059739138743171_);}
	
		.st36{fill:none;stroke:url(#SVGID_00000073685099411083957570000001849570861874257853_);stroke-width:5;stroke-linecap:round;stroke-linejoin:round;stroke-miterlimit:10;}
	.st37{fill:url(#SVGID_00000026137777438288496460000012154735420736572603_);}
	
		.st38{fill:none;stroke:url(#SVGID_00000096741136919903529870000005748295707142564279_);stroke-width:5;stroke-linecap:round;stroke-linejoin:round;stroke-miterlimit:10;}
	.st39{fill:url(#SVGID_00000109023195521957159850000017927796318270736566_);}
	
		.st40{fill-rule:evenodd;clip-rule:evenodd;fill:#1AD4B3;stroke:#111422;stroke-linecap:round;stroke-linejoin:round;stroke-miterlimit:10;}
	
		.st41{fill-rule:evenodd;clip-rule:evenodd;fill:#FC4F83;stroke:#111422;stroke-linecap:round;stroke-linejoin:round;stroke-miterlimit:10;}
	
		.st42{fill-rule:evenodd;clip-rule:evenodd;fill:#FFCAD7;stroke:#111422;stroke-linecap:round;stroke-linejoin:round;stroke-miterlimit:10;}
	.st43{fill:url(#SVGID_00000138569322873239833280000006823855959033509029_);}
	.st44{fill:url(#SVGID_00000075845398365963584480000003152187182608237732_);}
	.st45{fill:url(#SVGID_00000117644656286425220230000007917244674924808342_);}
	
		.st46{fill:none;stroke:url(#SVGID_00000165218654327232365560000014900836501232539794_);stroke-width:5;stroke-linecap:round;stroke-linejoin:round;stroke-miterlimit:10;}
	.st47{fill:url(#SVGID_00000048461868669136757240000008578788827953163162_);}
	
		.st48{fill:none;stroke:url(#SVGID_00000020360772252626150000000002323264655325660579_);stroke-width:5;stroke-linecap:round;stroke-linejoin:round;stroke-miterlimit:10;}
	.st49{fill:url(#SVGID_00000171714357976764295090000017619084632965911434_);}
	.st50{fill:url(#SVGID_00000000181787560454551590000016248148212571406755_);}
	.st51{fill:#101320;}
	.st52{fill:url(#SVGID_00000042005709153253712050000017530035677494896050_);}
	.st53{fill:url(#SVGID_00000075859052069339731510000014662905219610689437_);}
	.st54{fill:url(#SVGID_00000150082192969848779990000013050033171214861489_);}
	.st55{fill:url(#SVGID_00000174565345165131378030000013325646595978586018_);}
	.st56{fill:url(#SVGID_00000013174156066734152140000009216511821429429644_);}
	.st57{fill:url(#SVGID_00000115477677306136968370000005110708327215646882_);}
	.st58{opacity:0.29;fill:url(#SVGID_00000047025018996570373700000000502525818079360139_);enable-background:new    ;}
	.st59{fill:url(#SVGID_00000024691865710407285740000001167190251130899846_);}
	.st60{fill:url(#SVGID_00000129886063071890964530000005606708390572557988_);}
	.st61{fill:url(#SVGID_00000011031433184886437010000003039244491710671805_);}
	.st62{fill-rule:evenodd;clip-rule:evenodd;fill:url(#SVGID_00000100348493374056634820000003577798124903818427_);}
	.st63{fill:url(#SVGID_00000064354189686307429380000002197103005194300062_);}
	.st64{fill:url(#SVGID_00000028300793969245536480000010895124228205714572_);}
	.st65{fill:url(#SVGID_00000034798449836795367590000014388412903341365891_);}
	.st66{fill:url(#SVGID_00000113317446841342973630000010725086087908666557_);}
	.st67{opacity:0.29;fill:url(#SVGID_00000155108993896777798700000013311302944351077797_);enable-background:new    ;}
	
		.st68{fill:none;stroke:url(#SVGID_00000107590868930825102660000018276535827614309534_);stroke-width:5;stroke-linecap:round;stroke-linejoin:round;stroke-miterlimit:10;}
	.st69{fill:url(#SVGID_00000158016907034151123130000010708837244708120973_);}
	
		.st70{fill:none;stroke:url(#SVGID_00000000209533547920059830000000207441733176072366_);stroke-width:5;stroke-linecap:round;stroke-linejoin:round;stroke-miterlimit:10;}
	.st71{fill:url(#SVGID_00000090292510023566058960000011117618474116969870_);}
	
		.st72{fill:none;stroke:url(#SVGID_00000139987415862779833890000012358954521401210531_);stroke-width:5;stroke-linecap:round;stroke-linejoin:round;stroke-miterlimit:10;}
	.st73{fill:url(#SVGID_00000156588155127717866170000012154299270073425805_);}
	.st74{fill-rule:evenodd;clip-rule:evenodd;fill:url(#SVGID_00000012441980848103245690000009541396529280510601_);}
	.st75{fill:url(#SVGID_00000016776195394531406440000016219215849586517439_);}
	.st76{fill:url(#SVGID_00000181050626959015175730000006723769389414768020_);}
	.st77{fill:url(#SVGID_00000095310825100631293910000002509673429551976594_);}
	.st78{opacity:0.29;fill:url(#SVGID_00000078750006244735286920000000358080266202558083_);}
	.st79{opacity:0.29;fill:url(#SVGID_00000057148111574362685520000012179760441718172579_);}
	.st80{opacity:0.67;fill:url(#SVGID_00000007413837630012707050000008069380043953455807_);}
	.st81{fill:#3FA9BD;}
	.st82{fill:url(#SVGID_00000172421367433409856580000008548943897728143756_);}
	.st83{fill-rule:evenodd;clip-rule:evenodd;fill:#555069;}
	.st84{fill-rule:evenodd;clip-rule:evenodd;fill:#FFFFFF;}
	.st85{fill-rule:evenodd;clip-rule:evenodd;fill:#AFAFB1;}
	.st86{fill-rule:evenodd;clip-rule:evenodd;fill:#D3D3D3;}
	.st87{opacity:0.67;fill:url(#SVGID_00000144326224212670881690000010076731518443638975_);}
	.st88{fill:url(#SVGID_00000001650236088129059940000015620273479083326903_);}
	.st89{opacity:0.67;fill:url(#SVGID_00000141437878035532434750000006811969879919736236_);}
	.st90{fill:url(#SVGID_00000176017299118690427700000007769852858509041552_);}
	.st91{opacity:0.67;fill:url(#SVGID_00000030452070461918761770000000649322402743547068_);}
	.st92{fill:url(#SVGID_00000041263569598593059410000010632478157822658442_);}
	.st93{opacity:0.67;fill:url(#SVGID_00000098215064835293899240000002602922579587697318_);}
	.st94{fill:url(#SVGID_00000085224604400055224890000012727152037448916394_);}
	.st95{opacity:0.67;fill:url(#SVGID_00000150792663773539641790000011672488226364576427_);}
	.st96{fill:url(#SVGID_00000039847999248288581620000003202863967632700584_);}
	.st97{fill:#1AD4B3;}
	.st98{opacity:0.67;fill:url(#SVGID_00000107563361912490301490000016968707863313039502_);}
	.st99{fill:url(#SVGID_00000178912786462146754530000006082982472800183222_);}
	.st100{opacity:0.67;fill:url(#SVGID_00000151511174567745763840000012995206695677785223_);}
	.st101{fill:url(#SVGID_00000026873119364706987430000016481362076720617142_);}
	.st102{opacity:0.67;fill:url(#SVGID_00000070092259388222700940000006459672875209364118_);}
	.st103{fill:url(#SVGID_00000096768810422466373950000015918599262132167325_);}
	
		.st104{fill-rule:evenodd;clip-rule:evenodd;fill:none;stroke:#FFFFFF;stroke-width:0.7384;stroke-linecap:round;stroke-linejoin:round;stroke-miterlimit:10;}
	.st105{opacity:0.67;fill:url(#SVGID_00000084489184282699439570000004002899170036373130_);}
	.st106{fill:url(#SVGID_00000025410920694959120060000016838318337365056690_);}
	.st107{opacity:0.67;fill:url(#SVGID_00000031908744063076642330000011892308222850559401_);}
	.st108{fill:url(#SVGID_00000116927185272068607930000018188854952723162770_);}
	.st109{opacity:0.67;fill:url(#SVGID_00000151526484308069330960000016862102553577345162_);}
	.st110{fill:url(#SVGID_00000095324744324993111640000011992524629948004525_);}
	.st111{opacity:0.67;fill:url(#SVGID_00000141434475046925480330000013011226886288137372_);}
	.st112{fill:url(#SVGID_00000145054800658344141670000012041432318089878415_);}
	.st113{opacity:0.67;fill:url(#SVGID_00000102537428907837066440000016843188307602318776_);}
	.st114{fill:url(#SVGID_00000139278963483563537530000008053398088150497453_);}
	.st115{opacity:0.67;fill:url(#SVGID_00000088093404271192203940000003790934349748099717_);}
	.st116{fill:url(#SVGID_00000070808546404610513930000006022045472391712181_);}
	.st117{opacity:0.67;fill:url(#SVGID_00000120532722467912745290000007119092944107172263_);}
	.st118{fill:url(#SVGID_00000181062201855910758340000009609179183213877395_);}
	.st119{opacity:0.67;fill:url(#SVGID_00000020395785009221391090000004561977693023759754_);}
	.st120{fill:url(#SVGID_00000176757093528321270910000000201056846028084920_);}
	.st121{opacity:0.67;fill:url(#SVGID_00000061431233900437796030000014197012715732424353_);}
	.st122{fill:url(#SVGID_00000065059008624891872840000004805480856793937027_);}
	.st123{opacity:0.67;fill:url(#SVGID_00000048475123256002688260000002995140325604344205_);}
	.st124{fill:url(#SVGID_00000021109373923739790840000018408225106584847266_);}
	.st125{opacity:0.67;fill:url(#SVGID_00000021111212706980716360000002054777283791145105_);}
	.st126{fill:url(#SVGID_00000055693031058277351930000002753611615862763674_);}
	.st127{opacity:0.67;fill:url(#SVGID_00000055691100706603655760000017414652632285375905_);}
	.st128{fill:#5EA6B9;}
	.st129{fill:url(#SVGID_00000102542324452441127590000013456483378446907269_);}
	.st130{fill-rule:evenodd;clip-rule:evenodd;fill:#545067;}
	.st131{fill-rule:evenodd;clip-rule:evenodd;fill:#AEAEB0;}
	.st132{fill-rule:evenodd;clip-rule:evenodd;fill:#D2D2D2;}
	.st133{opacity:0.67;fill:url(#SVGID_00000090987945051432603340000011643299878844928703_);}
	.st134{fill:url(#SVGID_00000123406970847781140470000015413588554209363640_);}
	.st135{fill-rule:evenodd;clip-rule:evenodd;fill:#63D0B3;}
	
		.st136{fill-rule:evenodd;clip-rule:evenodd;fill:none;stroke:#111422;stroke-linecap:round;stroke-linejoin:round;stroke-miterlimit:10;}
	.st137{fill-rule:evenodd;clip-rule:evenodd;fill:#E85C83;}
	.st138{fill:#5DC29D;}
	.st139{fill:url(#SVGID_00000023985162944460612890000007962329249110793119_);}
	.st140{fill:url(#SVGID_00000076572621948754850360000013461879061439923628_);}
	.st141{fill:#E85C83;}
	.st142{opacity:0.67;fill:url(#SVGID_00000134220269114005011400000009692072122861644695_);}
	.st143{fill:url(#SVGID_00000114040481423233861270000001399869971074670222_);}
	
		.st144{fill:none;stroke:url(#SVGID_00000150804968174859107830000016462309366623711924_);stroke-width:5;stroke-linecap:round;stroke-linejoin:round;stroke-miterlimit:10;}
	.st145{fill:url(#SVGID_00000145755007489840512230000017074589566941446589_);}
	.st146{opacity:0.67;fill:url(#SVGID_00000093135167305944328370000007086565930790293407_);}
	.st147{fill:url(#SVGID_00000021106435734632204620000002388556055073063815_);}
	.st148{opacity:0.67;fill:url(#SVGID_00000176738736692053955820000011500502650346395269_);}
	.st149{fill:url(#SVGID_00000170265571157272357900000012155350263989677975_);}
	.st150{opacity:0.67;fill:url(#SVGID_00000149347404968309407100000010376521594514839727_);}
	.st151{fill:url(#SVGID_00000023979316848419856460000013762309770238843802_);}
	.st152{opacity:0.67;fill:url(#SVGID_00000074435439371599885740000010608966827965785760_);}
	.st153{fill:url(#SVGID_00000054953790374775033580000002096320951338709120_);}
	.st154{opacity:0.67;fill:url(#SVGID_00000137825936979959186340000010150191838130973078_);}
	.st155{fill:url(#SVGID_00000026881923572795045710000007708449701223544963_);}
	.st156{opacity:0.67;fill:url(#SVGID_00000032612173775877300430000002159486754275347102_);}
	.st157{fill:url(#SVGID_00000119082087192198900130000007873931051949914256_);}
	.st158{fill:none;stroke:#000000;stroke-width:22;stroke-linecap:round;stroke-linejoin:round;stroke-miterlimit:10;}
	.st159{fill:#ECF0FC;}
	.st160{fill:url(#SVGID_00000099649739849811373100000011237246943277594243_);}
	.st161{fill:url(#SVGID_00000178907975860372926410000002031572729350181505_);}
	.st162{fill:none;stroke:url(#SVGID_00000073711219152783403810000015841636263437306282_);stroke-width:5;stroke-miterlimit:10;}
	.st163{fill:#111422;}
	.st164{fill:url(#SVGID_00000111890527443093609960000010352689921021450117_);}
	.st165{fill:none;}
	.st166{opacity:0.67;fill:url(#SVGID_00000145767560836125013800000000123647065931222172_);}
	.st167{fill:url(#SVGID_00000174589166080952146420000014043985405879174817_);}
	.st168{fill:none;stroke:url(#SVGID_00000124136967845626839760000014283211212503268224_);stroke-width:5;stroke-miterlimit:10;}
	.st169{fill:url(#SVGID_00000083056172275865694570000016759036600649418683_);}
	.st170{opacity:0.67;fill:url(#SVGID_00000134931160974418764560000002306813771495575186_);}
	.st171{fill:url(#SVGID_00000160893804577644116170000000258551592833751185_);}
	.st172{opacity:0.67;fill:url(#SVGID_00000023272088553749888320000008371061991181047463_);}
	.st173{fill:url(#SVGID_00000077300871858857431210000011690152794516162223_);}
</style>
<g>
	<polygon class="st2" points="226.6,192.88 196.1,175.27 196.1,144.77 226.6,162.38 	"/>
	<polygon class="st3" points="226.6,192.88 257.1,175.27 257.1,144.77 226.6,162.38 	"/>
	<polygon class="st4" points="226.71,162.47 196.1,144.8 226.5,127.09 257.11,144.76 	"/>
	<path id="矩形_00000015348240187524297070000001266451619072428720_" class="st5" d="M216.81,137.29L216.81,137.29
		c0.6,0.34,0.5,1-0.21,1.42l-6.33,3.75c-0.71,0.42-1.84,0.49-2.44,0.15l0,0c-0.6-0.34-0.5-1,0.21-1.42l6.33-3.75
		C215.09,137.02,216.21,136.95,216.81,137.29z"/>
	<path id="矩形_00000029027016352820712520000017429203794046123191_" class="st5" d="M206.27,143.41L206.27,143.41
		c0.6,0.34,0.5,1-0.21,1.42l-1.23,0.73c-0.71,0.42-1.84,0.49-2.44,0.15l0,0c-0.6-0.34-0.5-1,0.21-1.42l1.23-0.73
		C204.6,143.11,205.67,143.07,206.27,143.41z"/>
</g>
<g>
	<linearGradient id="SVGID_1_" gradientUnits="userSpaceOnUse" x1="183.4397" y1="66.853" x2="193.2817" y2="66.853">
		<stop  offset="0" style="stop-color:#A85699"/>
		<stop  offset="1" style="stop-color:#5DB6C3"/>
	</linearGradient>
	<path class="st8" d="M183.44,73.13v-1.47l7.13-9.15v-0.13h-6.9v-1.8h9.38v1.54l-6.93,9.09v0.13h7.16v1.8H183.44z"/>
</g>
<g>
	
		<linearGradient id="SVGID_00000069382289729678606780000003766979515924275635_" gradientUnits="userSpaceOnUse" x1="214.5082" y1="71.7585" x2="231.0159" y2="71.7585">
		<stop  offset="0" style="stop-color:#A85699"/>
		<stop  offset="1" style="stop-color:#5DB6C3"/>
	</linearGradient>
	<path style="fill:url(#SVGID_00000069382289729678606780000003766979515924275635_);" d="M214.51,82.29v-2.47l11.96-15.36v-0.22
		h-11.57v-3.02h15.74v2.58l-11.63,15.25v0.22h12.01v3.02H214.51z"/>
</g>
<g>
	
		<linearGradient id="SVGID_00000042003720150433227950000018001387337670350218_" gradientUnits="userSpaceOnUse" x1="226.3422" y1="31.4676" x2="248.2785" y2="31.4676">
		<stop  offset="0" style="stop-color:#A85699"/>
		<stop  offset="1" style="stop-color:#5DB6C3"/>
	</linearGradient>
	<path style="fill:url(#SVGID_00000042003720150433227950000018001387337670350218_);" d="M226.34,45.46v-3.28l15.89-20.41v-0.29
		h-15.38v-4.01h20.92v3.43l-15.45,20.26v0.29h15.96v4.01H226.34z"/>
</g>
<path id="矩形_00000048479440997710859500000006072807808915111067_" class="st3" d="M171.86,106.2L171.86,106.2
	c1.37-1.02,3.68-0.37,5.02,1.41l2.29,3.06c1.34,1.78,1.31,4.19-0.06,5.22l0,0c-1.37,1.02-3.68,0.37-5.02-1.41l-2.29-3.06
	C170.37,109.5,170.49,107.22,171.86,106.2z"/>
<g>
	<g>
		<g>
			<g>
				<polygon class="st2" points="123.48,260.68 24.69,203.73 24.69,167.68 123.48,224.62 				"/>
				<polygon class="st33" points="123.48,260.68 141.57,251.2 141.57,215.14 123.48,224.62 				"/>
				<polygon class="st4" points="123.61,224.73 24.69,167.71 42.65,158.12 141.58,215.14 				"/>
			</g>
		</g>
	</g>
	<g>
		<polygon class="st2" points="117.73,234.95 32.42,185.89 32.42,180.04 117.73,229.09 		"/>
		<polygon class="st4" points="117.6,233.97 33.35,185.4 33.34,180.55 117.59,229.12 		"/>
		<polygon class="st18" points="93.38,219.4 33.86,185.23 33.85,181.43 93.37,215.72 		"/>
	</g>
	<g>
		<polygon class="st2" points="117.73,246.85 32.42,197.8 32.42,191.94 117.73,241 		"/>
		<polygon class="st4" points="117.6,245.88 33.35,197.31 33.34,192.45 117.59,241.02 		"/>
		<polygon class="st19" points="67.13,216.2 33.86,197.13 33.85,193.34 67.13,212.53 		"/>
	</g>
</g>
<g>
	<polygon class="st2" points="237.13,149.83 219.5,139.66 219.5,122.03 237.13,132.2 	"/>
	<polygon class="st3" points="237.13,149.83 254.76,139.66 254.76,122.03 237.13,132.2 	"/>
	<polygon class="st4" points="237.2,132.26 219.5,122.04 237.07,111.81 254.77,122.02 	"/>
	<path id="矩形_00000151513622609412882310000017452326505549555354_" class="st5" d="M231.61,117.53L231.61,117.53
		c0.35,0.2,0.29,0.58-0.12,0.82l-3.66,2.17c-0.41,0.24-1.06,0.29-1.41,0.09l0,0c-0.35-0.2-0.29-0.58,0.12-0.82l3.66-2.17
		C230.61,117.38,231.26,117.34,231.61,117.53z"/>
	<path id="矩形_00000016766190392230905140000004632789636475750065_" class="st5" d="M225.52,121.07L225.52,121.07
		c0.35,0.2,0.29,0.58-0.12,0.82l-0.71,0.42c-0.41,0.24-1.06,0.29-1.41,0.09l0,0c-0.35-0.2-0.29-0.58,0.12-0.82l0.71-0.42
		C224.55,120.9,225.17,120.87,225.52,121.07z"/>
</g>
<g>
	<polygon class="st2" points="240.01,213.72 222.38,203.54 222.38,185.91 240.01,196.09 	"/>
	<polygon class="st3" points="240.01,213.72 257.64,203.54 257.64,185.91 240.01,196.09 	"/>
	<polygon class="st4" points="240.07,196.14 222.38,185.93 239.95,175.69 257.64,185.91 	"/>
	<path id="矩形_00000088819611360002640960000013493742505540408741_" class="st5" d="M234.49,181.42L234.49,181.42
		c0.35,0.2,0.29,0.58-0.12,0.82l-3.66,2.17c-0.41,0.24-1.06,0.29-1.41,0.09l0,0c-0.35-0.2-0.29-0.58,0.12-0.82l3.66-2.17
		C233.49,181.26,234.14,181.22,234.49,181.42z"/>
	<path id="矩形_00000016065138029866511610000013879854046777124018_" class="st5" d="M228.39,184.95L228.39,184.95
		c0.35,0.2,0.29,0.58-0.12,0.82l-0.71,0.42c-0.41,0.24-1.06,0.29-1.41,0.09l0,0c-0.35-0.2-0.29-0.58,0.12-0.82l0.71-0.42
		C227.42,184.78,228.05,184.76,228.39,184.95z"/>
</g>
<g>
	
		<radialGradient id="SVGID_00000098931826225611212800000001945420163140815531_" cx="154.907" cy="216.5689" r="29.1415" gradientTransform="matrix(1 0 0 0.5898 0 88.8381)" gradientUnits="userSpaceOnUse">
		<stop  offset="0" style="stop-color:#B8B3D4"/>
		<stop  offset="0.3457" style="stop-color:#BAB6D6;stop-opacity:0.6543"/>
		<stop  offset="0.6064" style="stop-color:#C2C0DA;stop-opacity:0.3936"/>
		<stop  offset="0.8384" style="stop-color:#D0D0E3;stop-opacity:0.1616"/>
		<stop  offset="1" style="stop-color:#DDE0EB;stop-opacity:0"/>
	</radialGradient>
	<path style="opacity:0.67;fill:url(#SVGID_00000098931826225611212800000001945420163140815531_);" d="M179.89,202.5
		c-13.67-7.89-35.94-7.99-49.74-0.23c-13.8,7.77-13.9,20.46-0.23,28.36c13.67,7.89,35.94,7.99,49.74,0.23
		C193.46,223.09,193.56,210.4,179.89,202.5z"/>
	<g>
		<path class="st81" d="M190.86,166.79v-49.28c0-0.23,0.02-0.45,0.02-0.68c0-22.91-18.57-41.48-41.48-41.48
			c-22.91,0-41.48,18.57-41.48,41.48c0,0.36,0.02,0.72,0.03,1.07v44.66h-0.03v22.67c0,2.84,2.3,5.15,5.15,5.15
			c2.84,0,5.15-2.31,5.15-5.15v-0.83c0.56,0.36,1.13,0.72,1.74,1.07c1.83,1.06,3.79,1.99,5.85,2.81v8.2c0,2.84,2.3,5.15,5.15,5.15
			c2.84,0,5.15-2.31,5.15-5.15v-5.23c2.95,0.57,5.99,0.96,9.06,1.14V205c0,2.84,2.3,5.15,5.15,5.15s5.15-2.31,5.15-5.15v-12.7
			c3.39-0.28,6.73-0.8,9.93-1.55v6.36c0,2.84,2.3,5.15,5.15,5.15s5.15-2.31,5.15-5.15v-9.87c1-0.47,1.97-0.96,2.91-1.49
			c0.7-0.39,1.35-0.8,1.99-1.21v0.71c0,2.84,2.3,5.15,5.15,5.15c2.84,0,5.15-2.31,5.15-5.15v-18.45H190.86z"/>
		
			<radialGradient id="SVGID_00000030478708208629160760000014096701162586440590_" cx="174.083" cy="92.7758" r="106.6854" gradientUnits="userSpaceOnUse">
			<stop  offset="0.0124" style="stop-color:#DD78CE"/>
			<stop  offset="0.4936" style="stop-color:#A7589A"/>
			<stop  offset="0.5829" style="stop-color:#A0619E"/>
			<stop  offset="0.7273" style="stop-color:#8E79A8"/>
			<stop  offset="0.9078" style="stop-color:#709FB9"/>
			<stop  offset="1" style="stop-color:#5EB6C3"/>
		</radialGradient>
		<path style="fill:url(#SVGID_00000030478708208629160760000014096701162586440590_);" d="M190.86,166.79v-49.28
			c0-0.23,0.02-0.45,0.02-0.68c0-22.91-18.57-41.48-41.48-41.48c-22.91,0-41.48,18.57-41.48,41.48c0,0.36,0.02,0.72,0.03,1.07v44.66
			h-0.03v22.67c0,2.84,2.3,5.15,5.15,5.15c2.84,0,5.15-2.31,5.15-5.15v-0.83c0.56,0.36,1.13,0.72,1.74,1.07
			c1.83,1.06,3.79,1.99,5.85,2.81v8.2c0,2.84,2.3,5.15,5.15,5.15c2.84,0,5.15-2.31,5.15-5.15v-5.23c2.95,0.57,5.99,0.96,9.06,1.14
			V205c0,2.84,2.3,5.15,5.15,5.15s5.15-2.31,5.15-5.15v-12.7c3.39-0.28,6.73-0.8,9.93-1.55v6.36c0,2.84,2.3,5.15,5.15,5.15
			s5.15-2.31,5.15-5.15v-9.87c1-0.47,1.97-0.96,2.91-1.49c0.7-0.39,1.35-0.8,1.99-1.21v0.71c0,2.84,2.3,5.15,5.15,5.15
			c2.84,0,5.15-2.31,5.15-5.15v-18.45H190.86z"/>
	</g>
	<path id="矩形_00000072960838196518852120000018207845025256268716_" class="st14" d="M111.83,152.65L111.83,152.65
		c1.12,0,2.08,1.38,2.08,2.99v14.25c0,1.61-0.96,2.99-2.08,2.99l0,0c-1.12,0-2.08-1.38-2.08-2.99v-14.25
		C109.75,154.03,110.71,152.65,111.83,152.65z"/>
	<path id="矩形_00000048476314002178851010000018133624704335513220_" class="st14" d="M111.83,178.44L111.83,178.44
		c1.12,0,2.08,1.38,2.08,2.99v2.76c0,1.61-0.96,2.99-2.08,2.99l0,0c-1.12,0-2.08-1.38-2.08-2.99v-2.76
		C109.75,179.71,110.71,178.44,111.83,178.44z"/>
	<path id="矩形_00000117644045494189225190000010534221932989837708_" class="st14" d="M129.22,189.22L129.22,189.22
		c1.12,0,2.08,1.38,2.08,2.99v2.76c0,1.61-0.96,2.99-2.08,2.99l0,0c-1.12,0-2.08-1.38-2.08-2.99v-2.76
		C127.14,190.48,128.1,189.22,129.22,189.22z"/>
	<path id="矩形_00000088118882656019138750000008705531662055782070_" class="st14" d="M149.4,197.95L149.4,197.95
		c1.12,0,2.08,1.38,2.08,2.99v2.76c0,1.61-0.96,2.99-2.08,2.99l0,0c-1.12,0-2.08-1.38-2.08-2.99v-2.76
		C147.31,199.22,148.27,197.95,149.4,197.95z"/>
	<path id="矩形_00000049188635147871296010000013435674398605145513_" class="st14" d="M169.09,192.61L169.09,192.61
		c0.89,0,1.66,1.1,1.66,2.37v2.19c0,1.28-0.76,2.37-1.66,2.37l0,0c-0.89,0-1.66-1.1-1.66-2.37v-2.19
		C167.43,193.62,168.2,192.61,169.09,192.61z"/>
	<path id="矩形_00000111155295167444249510000013220150605650220976_" class="st14" d="M183.88,182.45L183.88,182.45
		c0.62,0,1.14,0.76,1.14,1.64v1.51c0,0.88-0.53,1.64-1.14,1.64l0,0c-0.62,0-1.14-0.76-1.14-1.64v-1.51
		C182.74,183.15,183.27,182.45,183.88,182.45z"/>
	<line class="st104" x1="149.97" y1="133.49" x2="161.66" y2="129.17"/>
	<line class="st104" x1="173.2" y1="125.76" x2="184.89" y2="121.44"/>
</g>
<g>
	<g>
		<path class="st21" d="M74.63,132.75l-6.15-19.81c1.01-0.41,1.96-0.87,2.9-1.42c15.99-9.27,29.5-37.22,29.5-61.03
			c0-13.15-3.96-20.12-7.67-22.25c-3.46-1.99-7.94-0.23-11.1,1.6C66.12,39.1,52.62,67.05,52.62,90.86c0,2.81,0.19,5.49,0.57,7.97
			l-21.12,3.23c-0.54-3.54-0.82-7.31-0.82-11.19c0-31.54,17.63-66.46,40.14-79.51c11.35-6.58,22.88-7.16,32.48-1.63
			c11.68,6.73,18.37,21.59,18.37,40.77c0,31.54-17.63,66.46-40.14,79.51C80.31,131.04,76.56,131.97,74.63,132.75z"/>
	</g>
	<path class="st158" d="M81.01,18.19c-1.4,0.57-2.82,1.25-4.26,2.09C57.52,31.42,41.93,62.89,41.93,90.55s15.59,41.05,34.81,29.9
		c19.23-11.15,34.81-42.61,34.81-70.27c0-3.42-0.24-6.62-0.69-9.58"/>
	<path class="st159" d="M119.94,34.45c0.82,3.81-1.42,6.55-7.02,8.75c-5.6,2.2-12.13-0.86-12.86-4.61c-0.74-3.8-2.36-11,5.04-13.26
		C114.22,22.55,119.13,30.66,119.94,34.45z"/>
</g>
</svg>
