<?xml version="1.0" encoding="utf-8"?>
<!-- Generator: Adobe Illustrator 27.8.1, SVG Export Plug-In . SVG Version: 6.00 Build 0)  -->
<svg version="1.1" id="Слой_1" xmlns="http://www.w3.org/2000/svg" xmlns:xlink="http://www.w3.org/1999/xlink" x="0px" y="0px"
	 viewBox="0 0 290 269" style="enable-background:new 0 0 290 269;" xml:space="preserve">
<style type="text/css">
	.st0{stroke:#000000;stroke-linecap:round;stroke-linejoin:round;stroke-miterlimit:10;}
	.st1{fill:#222846;stroke:#000000;stroke-linecap:round;stroke-linejoin:round;stroke-miterlimit:10;}
	.st2{fill-rule:evenodd;clip-rule:evenodd;stroke:#000000;stroke-linecap:round;stroke-linejoin:round;stroke-miterlimit:10;}
	
		.st3{fill-rule:evenodd;clip-rule:evenodd;fill:#222846;stroke:#000000;stroke-linecap:round;stroke-linejoin:round;stroke-miterlimit:10;}
	
		.st4{fill-rule:evenodd;clip-rule:evenodd;fill:#4A5479;stroke:#000000;stroke-linecap:round;stroke-linejoin:round;stroke-miterlimit:10;}
	.st5{fill-rule:evenodd;clip-rule:evenodd;fill:#5C6A91;}
	.st6{fill:#6D75A2;}
	.st7{stroke:#1A213A;stroke-linecap:round;stroke-linejoin:round;stroke-miterlimit:10;}
	.st8{stroke:#4A5479;stroke-linecap:round;stroke-linejoin:round;stroke-miterlimit:10;}
	.st9{fill:url(#SVGID_1_);}
	.st10{fill:url(#SVGID_00000090997996418067512460000000954955245515295660_);}
	.st11{fill:url(#SVGID_00000016068757874523175100000013555293384663716250_);}
	
		.st12{fill:none;stroke:url(#SVGID_00000016771659982296061790000002352401427583747213_);stroke-width:5;stroke-linecap:round;stroke-linejoin:round;stroke-miterlimit:10;}
	.st13{fill:url(#SVGID_00000123399213159801479480000014530409017251161270_);}
	.st14{fill-rule:evenodd;clip-rule:evenodd;fill:#1AD4B3;}
	.st15{fill-rule:evenodd;clip-rule:evenodd;fill:#FC4F83;}
	.st16{fill:#4A5479;stroke:#000000;stroke-linecap:round;stroke-linejoin:round;stroke-miterlimit:10;}
	
		.st17{fill:url(#SVGID_00000005234392840296900220000016773606620293725364_);stroke:#1D1D1B;stroke-width:0.2115;stroke-linecap:round;stroke-linejoin:round;stroke-miterlimit:10;}
	.st18{fill-rule:evenodd;clip-rule:evenodd;}
	
		.st19{fill:url(#SVGID_00000135652101477624721200000007921234044244061862_);stroke:#1D1D1B;stroke-width:0.2115;stroke-linecap:round;stroke-linejoin:round;stroke-miterlimit:10;}
	
		.st20{fill:url(#SVGID_00000152233184124134484390000000391498011007723450_);stroke:#1D1D1B;stroke-width:0.2115;stroke-linecap:round;stroke-linejoin:round;stroke-miterlimit:10;}
	
		.st21{fill:url(#SVGID_00000179631631187513956450000004959764156655926168_);stroke:#1D1D1B;stroke-width:0.2115;stroke-linecap:round;stroke-linejoin:round;stroke-miterlimit:10;}
	.st22{fill-rule:evenodd;clip-rule:evenodd;fill:url(#SVGID_00000008126144938077441400000017604038527478904225_);}
	.st23{fill-rule:evenodd;clip-rule:evenodd;fill:url(#SVGID_00000053526741153954859390000008385616275246401157_);}
	.st24{fill:url(#SVGID_00000017497742605104982230000016885769575433316541_);}
	.st25{fill:url(#SVGID_00000140707687921726054320000003652015243302588334_);}
	.st26{fill:url(#SVGID_00000048465316573106571440000002359427187856206002_);}
	
		.st27{fill-rule:evenodd;clip-rule:evenodd;fill:#4AA089;stroke:url(#SVGID_00000132089004201138433980000018231989687982233216_);stroke-linecap:round;stroke-linejoin:round;stroke-miterlimit:10;}
	
		.st28{fill-rule:evenodd;clip-rule:evenodd;fill:#4AA089;stroke:url(#SVGID_00000089565138941511177450000008435884289905036448_);stroke-linecap:round;stroke-linejoin:round;stroke-miterlimit:10;}
	
		.st29{fill:none;stroke:url(#SVGID_00000134930601287401976110000007699022302385660091_);stroke-width:5;stroke-linecap:round;stroke-linejoin:round;stroke-miterlimit:10;}
	.st30{fill:url(#SVGID_00000179619590382863887190000009101936870847118484_);}
	
		.st31{fill:none;stroke:url(#SVGID_00000131334278785908733530000016538777822062261424_);stroke-width:5;stroke-linecap:round;stroke-linejoin:round;stroke-miterlimit:10;}
	.st32{fill:url(#SVGID_00000096027776804626943100000014885971681124542626_);}
	
		.st33{fill:none;stroke:url(#SVGID_00000096059192102583138500000008443908363343053445_);stroke-width:5;stroke-linecap:round;stroke-linejoin:round;stroke-miterlimit:10;}
	.st34{fill:url(#SVGID_00000149383671997125822940000009650772603149576841_);}
	.st35{fill:#4A5479;}
	
		.st36{fill-rule:evenodd;clip-rule:evenodd;fill:#1AD4B3;stroke:#111422;stroke-linecap:round;stroke-linejoin:round;stroke-miterlimit:10;}
	
		.st37{fill-rule:evenodd;clip-rule:evenodd;fill:#4AA089;stroke:url(#SVGID_00000167371661501249312830000002763117888723201416_);stroke-linecap:round;stroke-linejoin:round;stroke-miterlimit:10;}
	.st38{fill:#FFFFFF;}
	
		.st39{fill-rule:evenodd;clip-rule:evenodd;fill:#FC4F83;stroke:#111422;stroke-linecap:round;stroke-linejoin:round;stroke-miterlimit:10;}
	
		.st40{fill-rule:evenodd;clip-rule:evenodd;fill:#CB3D61;stroke:#000000;stroke-linecap:round;stroke-linejoin:round;stroke-miterlimit:10;}
	.st41{fill:url(#SVGID_00000145046595126132723530000011218385837837125300_);}
	.st42{fill:url(#SVGID_00000052810368775981771400000006995524491884593587_);}
	.st43{fill:url(#SVGID_00000066496422468935343280000009209059206802990482_);}
	
		.st44{fill:none;stroke:url(#SVGID_00000006678844071177512350000004646404906003676600_);stroke-width:5;stroke-linecap:round;stroke-linejoin:round;stroke-miterlimit:10;}
	.st45{fill:url(#SVGID_00000126318271910086168830000006869773411012816021_);}
	
		.st46{fill:none;stroke:url(#SVGID_00000181073722030916262030000007784847793600288174_);stroke-width:5;stroke-linecap:round;stroke-linejoin:round;stroke-miterlimit:10;}
	.st47{fill:url(#SVGID_00000181045791354589406480000009902815191499623831_);}
	.st48{fill:url(#SVGID_00000076592912907825165220000013418242222678088629_);}
	.st49{fill:#222846;}
	.st50{fill:url(#SVGID_00000166666974975517201910000010796496306224143005_);}
	.st51{fill:url(#SVGID_00000024681129510535085960000006148261709760914876_);}
	.st52{fill:url(#SVGID_00000160176988333079913060000008865693258528634514_);}
	.st53{fill:url(#SVGID_00000073709077650186465720000003125644953141971133_);}
	.st54{fill:url(#SVGID_00000072258977481318800900000011380111935256871851_);}
	.st55{fill:url(#SVGID_00000162326949473033663190000004008363009546477226_);}
	.st56{fill-rule:evenodd;clip-rule:evenodd;fill:#6D75A2;}
	.st57{fill-rule:evenodd;clip-rule:evenodd;fill:#4A5479;}
	.st58{opacity:0.29;fill:url(#SVGID_00000093897551679734198470000015614080379336912263_);enable-background:new    ;}
	.st59{fill:url(#SVGID_00000070082588449802226740000001672121326616281004_);}
	.st60{fill:url(#SVGID_00000176759503097413948990000000961036434376291252_);}
	.st61{fill:url(#SVGID_00000111181445810618996560000003530127045159790497_);}
	.st62{fill-rule:evenodd;clip-rule:evenodd;fill:url(#SVGID_00000170975487063176359750000003454565190568902304_);}
	.st63{fill:url(#SVGID_00000062881571798347301960000001294951563483095960_);}
	.st64{fill:url(#SVGID_00000116227524030751842870000007396430279832364947_);}
	.st65{fill:url(#SVGID_00000112623650680415056360000015166652076933538456_);}
	.st66{fill:url(#SVGID_00000129168319754112137770000017457628018466238128_);}
	.st67{opacity:0.29;fill:url(#SVGID_00000073714000878357908520000002989661473220618651_);enable-background:new    ;}
	.st68{fill-rule:evenodd;clip-rule:evenodd;fill:#222846;}
	
		.st69{fill:none;stroke:url(#SVGID_00000101795016524845758370000014094355686000925864_);stroke-width:5;stroke-linecap:round;stroke-linejoin:round;stroke-miterlimit:10;}
	.st70{fill:url(#SVGID_00000001632132337980274590000005941582381082714544_);}
	
		.st71{fill:none;stroke:url(#SVGID_00000022527977399710053060000007369438772585355424_);stroke-width:5;stroke-linecap:round;stroke-linejoin:round;stroke-miterlimit:10;}
	.st72{fill:url(#SVGID_00000144301730665770823690000006603887304321499053_);}
	
		.st73{fill:none;stroke:url(#SVGID_00000130619279627062046920000012781755676801335436_);stroke-width:5;stroke-linecap:round;stroke-linejoin:round;stroke-miterlimit:10;}
	.st74{fill:url(#SVGID_00000137850516660301041780000015440798251367398025_);}
	
		.st75{fill-rule:evenodd;clip-rule:evenodd;fill:#4AA089;stroke:url(#SVGID_00000170970710197199577230000001554465024231503493_);stroke-linecap:round;stroke-linejoin:round;stroke-miterlimit:10;}
	.st76{fill-rule:evenodd;clip-rule:evenodd;fill:url(#SVGID_00000152946385110288755010000001456054888501746621_);}
	.st77{fill:url(#SVGID_00000002378551037941590380000013421452873854678946_);}
	.st78{fill:url(#SVGID_00000180343728293396318310000004143148894965843095_);}
	.st79{fill:url(#SVGID_00000003096100448404285510000014289201045093154725_);}
	.st80{opacity:0.29;fill:url(#SVGID_00000139265695366252177990000007693863139133732249_);}
	.st81{opacity:0.29;fill:url(#SVGID_00000157272993914866905960000015442994867179245239_);}
	.st82{opacity:0.2563;fill-rule:evenodd;clip-rule:evenodd;fill:#FFFFFF;enable-background:new    ;}
	.st83{opacity:0.67;fill:url(#SVGID_00000051341883696595701650000018445738956586233510_);}
	.st84{fill:#3FA9BD;}
	.st85{fill:url(#SVGID_00000015352236314371517340000010670390436342182817_);}
	.st86{fill-rule:evenodd;clip-rule:evenodd;fill:#555069;}
	.st87{fill-rule:evenodd;clip-rule:evenodd;fill:#FFFFFF;}
	.st88{fill-rule:evenodd;clip-rule:evenodd;fill:#AFAFB1;}
	.st89{fill-rule:evenodd;clip-rule:evenodd;fill:#D3D3D3;}
	.st90{opacity:0.67;fill:url(#SVGID_00000081648232341200580990000001203020447875382923_);}
	.st91{fill:url(#SVGID_00000105392754833550411600000014213545547883309702_);}
	.st92{opacity:0.67;fill:url(#SVGID_00000003798034216470028810000009087163501803857333_);}
	.st93{fill:url(#SVGID_00000087391616944377254520000016090266635374060217_);}
	.st94{opacity:0.67;fill:url(#SVGID_00000036937329627753805010000002124936040480554930_);}
	.st95{fill:url(#SVGID_00000151539675431116697550000002037051446211815825_);}
	.st96{opacity:0.67;fill:url(#SVGID_00000155137237050550003820000003682899077759297168_);}
	.st97{fill:url(#SVGID_00000137849435168600622150000018069729780502418054_);}
	.st98{opacity:0.67;fill:url(#SVGID_00000175290334730063822810000005353100962908972431_);}
	.st99{fill:url(#SVGID_00000006689429803348381560000000549712751798786696_);}
	.st100{fill:#1AD4B3;}
	.st101{opacity:0.67;fill:url(#SVGID_00000102526368478608575190000000379846889358008236_);}
	.st102{fill:url(#SVGID_00000103244649549042865850000014695721615785380751_);}
	.st103{opacity:0.67;fill:url(#SVGID_00000115478166795257076640000015963341952024659617_);}
	.st104{fill:url(#SVGID_00000133510606767077568200000011326029623242741659_);}
	.st105{opacity:0.67;fill:url(#SVGID_00000098205842935999111220000008089691063861991857_);}
	.st106{fill:url(#SVGID_00000073717387886379986170000002188440417685312640_);}
	.st107{opacity:0.67;fill:url(#SVGID_00000173882620694907398240000003402449882522882698_);}
	.st108{fill:url(#SVGID_00000168115390635402723390000002041792244195494054_);}
	.st109{opacity:0.67;fill:url(#SVGID_00000018215789578869124200000011564882911551172742_);}
	.st110{fill:url(#SVGID_00000147183346086003494250000003625764740689003452_);}
	.st111{opacity:0.67;fill:url(#SVGID_00000134958446241910254910000017405671512329454988_);}
	.st112{fill:url(#SVGID_00000165952415829232337170000013509379258216858037_);}
	
		.st113{fill-rule:evenodd;clip-rule:evenodd;fill:none;stroke:#FFFFFF;stroke-width:0.7384;stroke-linecap:round;stroke-linejoin:round;stroke-miterlimit:10;}
	.st114{opacity:0.67;fill:url(#SVGID_00000165929871423672716420000007304787927154615472_);}
	.st115{fill:url(#SVGID_00000106135437430567337300000008609032436643746737_);}
	.st116{opacity:0.67;fill:url(#SVGID_00000005235542083102354720000009333035678470875031_);}
	.st117{fill:url(#SVGID_00000110438475047927368190000004591650494531362733_);}
	.st118{opacity:0.67;fill:url(#SVGID_00000129890530743533466730000013825177884984668607_);}
	.st119{fill:url(#SVGID_00000052817474598969118140000001984195584424854969_);}
	.st120{opacity:0.67;fill:url(#SVGID_00000098193522570510617440000007890056395830512545_);}
	.st121{fill:url(#SVGID_00000131348840458056242090000012662951787987276691_);}
	.st122{opacity:0.67;fill:url(#SVGID_00000178185169382070825550000012979643020074254492_);}
	.st123{fill:url(#SVGID_00000008837503853260566050000006420709221704819114_);}
	.st124{opacity:0.67;fill:url(#SVGID_00000151514036956715511260000001651083641009055671_);}
	.st125{fill:url(#SVGID_00000152248732363885816420000014434409469247310727_);}
	.st126{opacity:0.67;fill:url(#SVGID_00000156586185285088004740000002346278017121862841_);}
	.st127{fill:url(#SVGID_00000085968842584294395870000011555420996905795233_);}
	.st128{opacity:0.67;fill:url(#SVGID_00000062895960652554024030000005676254503821949341_);}
	.st129{fill:url(#SVGID_00000047040567710366670710000006162744545895044245_);}
	.st130{opacity:0.67;fill:url(#SVGID_00000163032987826785444580000000529258339129194370_);enable-background:new    ;}
	.st131{fill:#5EA6B9;}
	.st132{fill:url(#SVGID_00000036223273954271723610000017927621290663112088_);}
	.st133{fill-rule:evenodd;clip-rule:evenodd;fill:#545067;}
	.st134{fill-rule:evenodd;clip-rule:evenodd;fill:#AEAEB0;}
	.st135{fill-rule:evenodd;clip-rule:evenodd;fill:#D2D2D2;}
	.st136{opacity:0.67;fill:url(#SVGID_00000029735624370614412250000007167455358641519529_);enable-background:new    ;}
	.st137{fill:url(#SVGID_00000105405229033769358340000000591743542115194503_);}
	.st138{fill-rule:evenodd;clip-rule:evenodd;fill:#63D0B3;}
	
		.st139{fill-rule:evenodd;clip-rule:evenodd;fill:none;stroke:#000000;stroke-linecap:round;stroke-linejoin:round;stroke-miterlimit:10;}
	.st140{fill-rule:evenodd;clip-rule:evenodd;fill:#E85C83;}
	
		.st141{fill-rule:evenodd;clip-rule:evenodd;fill:#4AA089;stroke:url(#SVGID_00000006677254035854836480000002739991348690384294_);stroke-linecap:round;stroke-linejoin:round;stroke-miterlimit:10;}
	.st142{fill:#5DC29D;}
	.st143{fill:url(#SVGID_00000113311637040695088120000014911352381396011937_);}
	.st144{fill:url(#SVGID_00000032609110377549602210000000342537388006178479_);}
	.st145{fill:#E85C83;}
	.st146{opacity:0.67;fill:url(#SVGID_00000139986412148788502570000011978139563021994935_);enable-background:new    ;}
	.st147{fill:url(#SVGID_00000134965220866493178730000006215418048790659466_);}
	
		.st148{fill:none;stroke:url(#SVGID_00000117674548414619824220000000168510563177084303_);stroke-width:5;stroke-linecap:round;stroke-linejoin:round;stroke-miterlimit:10;}
	.st149{fill:url(#SVGID_00000038376206790102752560000010878778848841031846_);}
	.st150{opacity:0.67;fill:url(#SVGID_00000022552304755356609000000004449369888035253122_);enable-background:new    ;}
	.st151{fill:url(#SVGID_00000124156894133673741010000009677361397783294597_);}
	.st152{opacity:0.67;fill:url(#SVGID_00000080193684486580380690000009123564778593525421_);}
	.st153{fill:url(#SVGID_00000172429914669459151870000001097675677493448859_);}
	.st154{opacity:0.67;fill:url(#SVGID_00000084524454260421103980000012004322871110915209_);}
	.st155{fill:url(#SVGID_00000073001005134997703980000007733415408962539142_);}
	.st156{opacity:0.67;fill:url(#SVGID_00000081624284673644834370000007862239686226019977_);}
	.st157{fill:url(#SVGID_00000085211240491800948310000012701755528176859556_);}
	.st158{opacity:0.67;fill:url(#SVGID_00000080202153001021896530000001994825380463883668_);}
	.st159{fill:url(#SVGID_00000061459230511173097990000009242548586499131534_);}
	.st160{opacity:0.67;fill:url(#SVGID_00000172417929216297338770000001403238971387711148_);}
	.st161{fill:url(#SVGID_00000075145464024449123810000011043517339244040100_);}
	.st162{fill:none;stroke:#000000;stroke-width:22;stroke-linecap:round;stroke-linejoin:round;stroke-miterlimit:10;}
	.st163{fill:url(#SVGID_00000178893004054296679610000013312432513644676497_);}
	.st164{fill:url(#SVGID_00000026846215734506626230000015478879359945357236_);}
	.st165{fill:none;stroke:url(#SVGID_00000182511914409763673670000012873146229962641836_);stroke-width:5;stroke-miterlimit:10;}
	.st166{fill:url(#SVGID_00000045606983289789439030000011871523284593905575_);}
	.st167{fill:none;}
	.st168{opacity:0.67;fill:url(#SVGID_00000049199535694056051800000003899813224372481165_);}
	.st169{fill:url(#SVGID_00000125594836902074721960000015759246191987544970_);}
	.st170{fill:none;stroke:url(#SVGID_00000055708509730987803140000006920509274454077102_);stroke-width:5;stroke-miterlimit:10;}
	.st171{fill:url(#SVGID_00000052103399870864846960000000201378856434114739_);}
	.st172{opacity:0.67;fill:url(#SVGID_00000147220338034197711220000009670901878431784363_);}
	.st173{fill:url(#SVGID_00000182520618058610001460000012542525895349264793_);}
	.st174{opacity:0.67;fill:url(#SVGID_00000158729926671173965340000007160929045521917829_);}
	.st175{fill:url(#SVGID_00000063625957328894986580000000158407446743884712_);}
	.st176{opacity:0.67;fill:url(#SVGID_00000054239763323070282510000003441455848939591316_);}
	.st177{fill:url(#SVGID_00000001645415943328695470000007141742112827637385_);}
</style>
<g>
	<polygon class="st2" points="226.6,192.88 196.1,175.27 196.1,144.77 226.6,162.38 	"/>
	<polygon class="st3" points="226.6,192.88 257.1,175.27 257.1,144.77 226.6,162.38 	"/>
	<polygon class="st4" points="226.71,162.47 196.1,144.8 226.5,127.09 257.11,144.76 	"/>
	<path id="矩形_00000015348240187524297070000001266451619072428720_" class="st5" d="M216.81,137.29L216.81,137.29
		c0.6,0.34,0.5,1-0.21,1.42l-6.33,3.75c-0.71,0.42-1.84,0.49-2.44,0.15l0,0c-0.6-0.34-0.5-1,0.21-1.42l6.33-3.75
		C215.09,137.02,216.21,136.95,216.81,137.29z"/>
	<path id="矩形_00000029027016352820712520000017429203794046123191_" class="st5" d="M206.27,143.41L206.27,143.41
		c0.6,0.34,0.5,1-0.21,1.42l-1.23,0.73c-0.71,0.42-1.84,0.49-2.44,0.15l0,0c-0.6-0.34-0.5-1,0.21-1.42l1.23-0.73
		C204.6,143.11,205.67,143.07,206.27,143.41z"/>
</g>
<g>
	<linearGradient id="SVGID_1_" gradientUnits="userSpaceOnUse" x1="183.4397" y1="66.853" x2="193.2817" y2="66.853">
		<stop  offset="0" style="stop-color:#A85699"/>
		<stop  offset="1" style="stop-color:#5DB6C3"/>
	</linearGradient>
	<path class="st9" d="M183.44,73.13v-1.47l7.13-9.15v-0.13h-6.9v-1.8h9.38v1.54l-6.93,9.09v0.13h7.16v1.8H183.44z"/>
</g>
<g>
	
		<linearGradient id="SVGID_00000067209119818796028570000009707728822109231016_" gradientUnits="userSpaceOnUse" x1="214.5082" y1="71.7585" x2="231.0159" y2="71.7585">
		<stop  offset="0" style="stop-color:#A85699"/>
		<stop  offset="1" style="stop-color:#5DB6C3"/>
	</linearGradient>
	<path style="fill:url(#SVGID_00000067209119818796028570000009707728822109231016_);" d="M214.51,82.29v-2.47l11.96-15.36v-0.22
		h-11.57v-3.02h15.74v2.58l-11.63,15.25v0.22h12.01v3.02H214.51z"/>
</g>
<g>
	
		<linearGradient id="SVGID_00000062155505673876843740000007304739740756935809_" gradientUnits="userSpaceOnUse" x1="226.3422" y1="31.4676" x2="248.2785" y2="31.4676">
		<stop  offset="0" style="stop-color:#A85699"/>
		<stop  offset="1" style="stop-color:#5DB6C3"/>
	</linearGradient>
	<path style="fill:url(#SVGID_00000062155505673876843740000007304739740756935809_);" d="M226.34,45.46v-3.28l15.89-20.41v-0.29
		h-15.38v-4.01h20.92v3.43l-15.45,20.26v0.29h15.96v4.01H226.34z"/>
</g>
<path id="矩形_00000048479440997710859500000006072807808915111067_" class="st3" d="M171.86,106.2L171.86,106.2
	c1.37-1.02,3.68-0.37,5.02,1.41l2.29,3.06c1.34,1.78,1.31,4.19-0.06,5.22l0,0c-1.37,1.02-3.68,0.37-5.02-1.41l-2.29-3.06
	C170.37,109.5,170.49,107.22,171.86,106.2z"/>
<g>
	<g>
		<g>
			<g>
				<polygon class="st2" points="123.48,260.68 24.69,203.73 24.69,167.68 123.48,224.62 				"/>
				
					<linearGradient id="SVGID_00000182514680187268220970000003555459896967753652_" gradientUnits="userSpaceOnUse" x1="122.9788" y1="237.9122" x2="142.0721" y2="237.9122">
					<stop  offset="0" style="stop-color:#111422"/>
					<stop  offset="1" style="stop-color:#111422"/>
				</linearGradient>
				
					<polygon style="fill-rule:evenodd;clip-rule:evenodd;fill:#4AA089;stroke:url(#SVGID_00000182514680187268220970000003555459896967753652_);stroke-linecap:round;stroke-linejoin:round;stroke-miterlimit:10;" points="
					123.48,260.68 141.57,251.2 141.57,215.14 123.48,224.62 				"/>
				<polygon class="st4" points="123.61,224.73 24.69,167.71 42.65,158.12 141.58,215.14 				"/>
			</g>
		</g>
	</g>
	<g>
		<polygon class="st2" points="117.73,234.95 32.42,185.89 32.42,180.04 117.73,229.09 		"/>
		<polygon class="st4" points="117.6,233.97 33.35,185.4 33.34,180.55 117.59,229.12 		"/>
		<polygon class="st14" points="93.38,219.4 33.86,185.23 33.85,181.43 93.37,215.72 		"/>
	</g>
	<g>
		<polygon class="st2" points="117.73,246.85 32.42,197.8 32.42,191.94 117.73,241 		"/>
		<polygon class="st4" points="117.6,245.88 33.35,197.31 33.34,192.45 117.59,241.02 		"/>
		<polygon class="st15" points="67.13,216.2 33.86,197.13 33.85,193.34 67.13,212.53 		"/>
	</g>
</g>
<g>
	<polygon class="st2" points="237.13,149.83 219.5,139.66 219.5,122.03 237.13,132.2 	"/>
	<polygon class="st3" points="237.13,149.83 254.76,139.66 254.76,122.03 237.13,132.2 	"/>
	<polygon class="st4" points="237.2,132.26 219.5,122.04 237.07,111.81 254.77,122.02 	"/>
	<path id="矩形_00000151513622609412882310000017452326505549555354_" class="st5" d="M231.61,117.53L231.61,117.53
		c0.35,0.2,0.29,0.58-0.12,0.82l-3.66,2.17c-0.41,0.24-1.06,0.29-1.41,0.09l0,0c-0.35-0.2-0.29-0.58,0.12-0.82l3.66-2.17
		C230.61,117.38,231.26,117.34,231.61,117.53z"/>
	<path id="矩形_00000016766190392230905140000004632789636475750065_" class="st5" d="M225.52,121.07L225.52,121.07
		c0.35,0.2,0.29,0.58-0.12,0.82l-0.71,0.42c-0.41,0.24-1.06,0.29-1.41,0.09l0,0c-0.35-0.2-0.29-0.58,0.12-0.82l0.71-0.42
		C224.55,120.9,225.17,120.87,225.52,121.07z"/>
</g>
<g>
	<polygon class="st2" points="240.01,213.72 222.38,203.54 222.38,185.91 240.01,196.09 	"/>
	<polygon class="st3" points="240.01,213.72 257.64,203.54 257.64,185.91 240.01,196.09 	"/>
	<polygon class="st4" points="240.07,196.14 222.38,185.93 239.95,175.69 257.64,185.91 	"/>
	<path id="矩形_00000088819611360002640960000013493742505540408741_" class="st5" d="M234.49,181.42L234.49,181.42
		c0.35,0.2,0.29,0.58-0.12,0.82l-3.66,2.17c-0.41,0.24-1.06,0.29-1.41,0.09l0,0c-0.35-0.2-0.29-0.58,0.12-0.82l3.66-2.17
		C233.49,181.26,234.14,181.22,234.49,181.42z"/>
	<path id="矩形_00000016065138029866511610000013879854046777124018_" class="st5" d="M228.39,184.95L228.39,184.95
		c0.35,0.2,0.29,0.58-0.12,0.82l-0.71,0.42c-0.41,0.24-1.06,0.29-1.41,0.09l0,0c-0.35-0.2-0.29-0.58,0.12-0.82l0.71-0.42
		C227.42,184.78,228.05,184.76,228.39,184.95z"/>
</g>
<g>
	<g>
		<g>
			
				<radialGradient id="SVGID_00000173159762220954452110000012952841153858849169_" cx="154.907" cy="216.5689" r="29.1415" gradientTransform="matrix(1 0 0 0.5898 0 88.8381)" gradientUnits="userSpaceOnUse">
				<stop  offset="0" style="stop-color:#06070C"/>
				<stop  offset="1" style="stop-color:#0D101D;stop-opacity:0"/>
			</radialGradient>
			<path style="opacity:0.67;fill:url(#SVGID_00000173159762220954452110000012952841153858849169_);" d="M179.89,202.5
				c-13.67-7.89-35.94-7.99-49.74-0.23c-13.8,7.77-13.9,20.46-0.23,28.36c13.67,7.89,35.94,7.99,49.74,0.23
				C193.46,223.09,193.56,210.4,179.89,202.5z"/>
			<g>
				<path class="st84" d="M190.86,166.79v-49.28c0-0.23,0.02-0.45,0.02-0.68c0-22.91-18.57-41.48-41.48-41.48
					c-22.91,0-41.48,18.57-41.48,41.48c0,0.36,0.02,0.72,0.03,1.07v44.66h-0.03v22.67c0,2.84,2.3,5.15,5.15,5.15
					c2.84,0,5.15-2.31,5.15-5.15v-0.83c0.56,0.36,1.13,0.72,1.74,1.07c1.83,1.06,3.79,1.99,5.85,2.81v8.2c0,2.84,2.3,5.15,5.15,5.15
					c2.84,0,5.15-2.31,5.15-5.15v-5.23c2.95,0.57,5.99,0.96,9.06,1.14V205c0,2.84,2.3,5.15,5.15,5.15s5.15-2.31,5.15-5.15v-12.7
					c3.39-0.28,6.73-0.8,9.93-1.55v6.36c0,2.84,2.3,5.15,5.15,5.15s5.15-2.31,5.15-5.15v-9.87c1-0.47,1.97-0.96,2.91-1.49
					c0.7-0.39,1.35-0.8,1.99-1.21v0.71c0,2.84,2.3,5.15,5.15,5.15c2.84,0,5.15-2.31,5.15-5.15v-18.45H190.86z"/>
				
					<radialGradient id="SVGID_00000126286816571716063560000001622708928709886360_" cx="174.083" cy="92.7758" r="106.6854" gradientUnits="userSpaceOnUse">
					<stop  offset="0.0124" style="stop-color:#DD78CE"/>
					<stop  offset="0.4936" style="stop-color:#A7589A"/>
					<stop  offset="0.5829" style="stop-color:#A0619E"/>
					<stop  offset="0.7273" style="stop-color:#8E79A8"/>
					<stop  offset="0.9078" style="stop-color:#709FB9"/>
					<stop  offset="1" style="stop-color:#5EB6C3"/>
				</radialGradient>
				<path style="fill:url(#SVGID_00000126286816571716063560000001622708928709886360_);" d="M190.86,166.79v-49.28
					c0-0.23,0.02-0.45,0.02-0.68c0-22.91-18.57-41.48-41.48-41.48c-22.91,0-41.48,18.57-41.48,41.48c0,0.36,0.02,0.72,0.03,1.07
					v44.66h-0.03v22.67c0,2.84,2.3,5.15,5.15,5.15c2.84,0,5.15-2.31,5.15-5.15v-0.83c0.56,0.36,1.13,0.72,1.74,1.07
					c1.83,1.06,3.79,1.99,5.85,2.81v8.2c0,2.84,2.3,5.15,5.15,5.15c2.84,0,5.15-2.31,5.15-5.15v-5.23c2.95,0.57,5.99,0.96,9.06,1.14
					V205c0,2.84,2.3,5.15,5.15,5.15s5.15-2.31,5.15-5.15v-12.7c3.39-0.28,6.73-0.8,9.93-1.55v6.36c0,2.84,2.3,5.15,5.15,5.15
					s5.15-2.31,5.15-5.15v-9.87c1-0.47,1.97-0.96,2.91-1.49c0.7-0.39,1.35-0.8,1.99-1.21v0.71c0,2.84,2.3,5.15,5.15,5.15
					c2.84,0,5.15-2.31,5.15-5.15v-18.45H190.86z"/>
			</g>
			<path id="矩形_00000072960838196518852120000018207845025256268716_" class="st82" d="M111.83,152.65L111.83,152.65
				c1.12,0,2.08,1.38,2.08,2.99v14.25c0,1.61-0.96,2.99-2.08,2.99l0,0c-1.12,0-2.08-1.38-2.08-2.99v-14.25
				C109.75,154.03,110.71,152.65,111.83,152.65z"/>
			<path id="矩形_00000048476314002178851010000018133624704335513220_" class="st82" d="M111.83,178.44L111.83,178.44
				c1.12,0,2.08,1.38,2.08,2.99v2.76c0,1.61-0.96,2.99-2.08,2.99l0,0c-1.12,0-2.08-1.38-2.08-2.99v-2.76
				C109.75,179.71,110.71,178.44,111.83,178.44z"/>
			<path id="矩形_00000117644045494189225190000010534221932989837708_" class="st82" d="M129.22,189.22L129.22,189.22
				c1.12,0,2.08,1.38,2.08,2.99v2.76c0,1.61-0.96,2.99-2.08,2.99l0,0c-1.12,0-2.08-1.38-2.08-2.99v-2.76
				C127.14,190.48,128.1,189.22,129.22,189.22z"/>
			<path id="矩形_00000088118882656019138750000008705531662055782070_" class="st82" d="M149.4,197.95L149.4,197.95
				c1.12,0,2.08,1.38,2.08,2.99v2.76c0,1.61-0.96,2.99-2.08,2.99l0,0c-1.12,0-2.08-1.38-2.08-2.99v-2.76
				C147.31,199.22,148.27,197.95,149.4,197.95z"/>
			<path id="矩形_00000049188635147871296010000013435674398605145513_" class="st82" d="M169.09,192.61L169.09,192.61
				c0.89,0,1.66,1.1,1.66,2.37v2.19c0,1.28-0.76,2.37-1.66,2.37l0,0c-0.89,0-1.66-1.1-1.66-2.37v-2.19
				C167.43,193.62,168.2,192.61,169.09,192.61z"/>
			<path id="矩形_00000111155295167444249510000013220150605650220976_" class="st82" d="M183.88,182.45L183.88,182.45
				c0.62,0,1.14,0.76,1.14,1.64v1.51c0,0.88-0.53,1.64-1.14,1.64l0,0c-0.62,0-1.14-0.76-1.14-1.64v-1.51
				C182.74,183.15,183.27,182.45,183.88,182.45z"/>
			<line class="st113" x1="149.97" y1="133.49" x2="161.66" y2="129.17"/>
			<line class="st113" x1="173.2" y1="125.76" x2="184.89" y2="121.44"/>
		</g>
		<g>
			<path id="矩形_00000013156445046824471100000003384386299929699238_" class="st82" d="M173.11,90.44L173.11,90.44
				c1.37-1.02,3.68-0.37,5.02,1.41l2.29,3.06c1.34,1.78,1.31,4.19-0.06,5.22l0,0c-1.37,1.02-3.68,0.37-5.02-1.41l-2.29-3.06
				C171.62,93.75,171.74,91.47,173.11,90.44z"/>
		</g>
	</g>
</g>
<g>
	<g>
		<path class="st16" d="M74.63,132.75l-6.15-19.81c1.01-0.41,1.96-0.87,2.9-1.42c15.99-9.27,29.5-37.22,29.5-61.03
			c0-13.15-3.96-20.12-7.67-22.25c-3.46-1.99-7.94-0.23-11.1,1.6C66.12,39.1,52.62,67.05,52.62,90.86c0,2.81,0.19,5.49,0.57,7.97
			l-21.12,3.23c-0.54-3.54-0.82-7.31-0.82-11.19c0-31.54,17.63-66.46,40.14-79.51c11.35-6.58,22.88-7.16,32.48-1.63
			c11.68,6.73,18.37,21.59,18.37,40.77c0,31.54-17.63,66.46-40.14,79.51C80.31,131.04,76.56,131.97,74.63,132.75z"/>
	</g>
	<path class="st162" d="M81.01,18.19c-1.4,0.57-2.82,1.25-4.26,2.09C57.52,31.42,41.93,62.89,41.93,90.55s15.59,41.05,34.81,29.9
		c19.23-11.15,34.81-42.61,34.81-70.27c0-3.42-0.24-6.62-0.69-9.58"/>
	<path class="st35" d="M119.9,34.4c0.82,3.81-1.37,5.74-6.97,7.94s-12-0.02-12.88-3.72c-0.89-3.77-2.35-11.89,5.05-14.14
		C114.22,21.7,119.08,30.61,119.9,34.4z"/>
</g>
</svg>
