<?xml version="1.0" encoding="utf-8"?>
<!-- Generator: Adobe Illustrator 27.8.1, SVG Export Plug-In . SVG Version: 6.00 Build 0)  -->
<svg version="1.1" id="Слой_1" xmlns="http://www.w3.org/2000/svg" xmlns:xlink="http://www.w3.org/1999/xlink" x="0px" y="0px"
	 viewBox="0 0 290 574.88" style="enable-background:new 0 0 290 574.88;" xml:space="preserve">
<style type="text/css">
	.st0{stroke:#000000;stroke-linecap:round;stroke-linejoin:round;stroke-miterlimit:10;}
	.st1{fill:#222846;stroke:#000000;stroke-linecap:round;stroke-linejoin:round;stroke-miterlimit:10;}
	.st2{fill-rule:evenodd;clip-rule:evenodd;stroke:#000000;stroke-linecap:round;stroke-linejoin:round;stroke-miterlimit:10;}
	
		.st3{fill-rule:evenodd;clip-rule:evenodd;fill:#222846;stroke:#000000;stroke-linecap:round;stroke-linejoin:round;stroke-miterlimit:10;}
	
		.st4{fill-rule:evenodd;clip-rule:evenodd;fill:#4A5479;stroke:#000000;stroke-linecap:round;stroke-linejoin:round;stroke-miterlimit:10;}
	.st5{fill-rule:evenodd;clip-rule:evenodd;fill:#5C6A91;}
	.st6{fill:#6D75A2;}
	.st7{stroke:#1A213A;stroke-linecap:round;stroke-linejoin:round;stroke-miterlimit:10;}
	.st8{stroke:#4A5479;stroke-linecap:round;stroke-linejoin:round;stroke-miterlimit:10;}
	.st9{fill:url(#SVGID_1_);}
	.st10{fill:url(#SVGID_00000077290462952442373770000018202973483019709336_);}
	.st11{fill:url(#SVGID_00000054228634212411832010000006079474078379784867_);}
	
		.st12{fill:none;stroke:url(#SVGID_00000016775642935793096680000000626343785336598185_);stroke-width:5;stroke-linecap:round;stroke-linejoin:round;stroke-miterlimit:10;}
	.st13{fill:url(#SVGID_00000179646205954257319280000010427366193087330964_);}
	.st14{fill-rule:evenodd;clip-rule:evenodd;fill:#1AD4B3;}
	.st15{fill-rule:evenodd;clip-rule:evenodd;fill:#FC4F83;}
	.st16{fill:#4A5479;stroke:#000000;stroke-linecap:round;stroke-linejoin:round;stroke-miterlimit:10;}
	
		.st17{fill:url(#SVGID_00000118362987919281527920000003444621826174035888_);stroke:#1D1D1B;stroke-width:0.2115;stroke-linecap:round;stroke-linejoin:round;stroke-miterlimit:10;}
	.st18{fill-rule:evenodd;clip-rule:evenodd;}
	
		.st19{fill:url(#SVGID_00000160904193922213574370000010380656922419140529_);stroke:#1D1D1B;stroke-width:0.2115;stroke-linecap:round;stroke-linejoin:round;stroke-miterlimit:10;}
	
		.st20{fill:url(#SVGID_00000010293496626496239250000014175166930845465758_);stroke:#1D1D1B;stroke-width:0.2115;stroke-linecap:round;stroke-linejoin:round;stroke-miterlimit:10;}
	
		.st21{fill:url(#SVGID_00000070832976010285424040000008813544793590636968_);stroke:#1D1D1B;stroke-width:0.2115;stroke-linecap:round;stroke-linejoin:round;stroke-miterlimit:10;}
	.st22{fill-rule:evenodd;clip-rule:evenodd;fill:url(#SVGID_00000157306807349256821090000009735975242614629552_);}
	.st23{fill-rule:evenodd;clip-rule:evenodd;fill:url(#SVGID_00000015348035536965046410000002561896894500307127_);}
	.st24{fill:url(#SVGID_00000075159111227570483190000010941995817729692299_);}
	.st25{fill:url(#SVGID_00000139278394829033172190000002515766079213713325_);}
	.st26{fill:url(#SVGID_00000097498215170532598950000015066581126252120491_);}
	
		.st27{fill-rule:evenodd;clip-rule:evenodd;fill:#4AA089;stroke:url(#SVGID_00000105400023321877128940000001745226132443704729_);stroke-linecap:round;stroke-linejoin:round;stroke-miterlimit:10;}
	
		.st28{fill-rule:evenodd;clip-rule:evenodd;fill:#4AA089;stroke:url(#SVGID_00000015346973720374965220000017001555587977717382_);stroke-linecap:round;stroke-linejoin:round;stroke-miterlimit:10;}
	
		.st29{fill:none;stroke:url(#SVGID_00000121270159076318316270000017395844327513814160_);stroke-width:5;stroke-linecap:round;stroke-linejoin:round;stroke-miterlimit:10;}
	.st30{fill:url(#SVGID_00000137118290332113162290000005158444965862767254_);}
	
		.st31{fill:none;stroke:url(#SVGID_00000018947075742548935300000000927902624419031936_);stroke-width:5;stroke-linecap:round;stroke-linejoin:round;stroke-miterlimit:10;}
	.st32{fill:url(#SVGID_00000067953941265179567930000016613075506615915426_);}
	
		.st33{fill:none;stroke:url(#SVGID_00000181063436212619668200000006414440593124142000_);stroke-width:5;stroke-linecap:round;stroke-linejoin:round;stroke-miterlimit:10;}
	.st34{fill:url(#SVGID_00000130645660391244095030000008235703487354912385_);}
	.st35{fill:#4A5479;}
	
		.st36{fill-rule:evenodd;clip-rule:evenodd;fill:#1AD4B3;stroke:#111422;stroke-linecap:round;stroke-linejoin:round;stroke-miterlimit:10;}
	
		.st37{fill-rule:evenodd;clip-rule:evenodd;fill:#4AA089;stroke:url(#SVGID_00000013881692522658164580000003351085392714818198_);stroke-linecap:round;stroke-linejoin:round;stroke-miterlimit:10;}
	.st38{fill:#FFFFFF;}
	
		.st39{fill-rule:evenodd;clip-rule:evenodd;fill:#FC4F83;stroke:#111422;stroke-linecap:round;stroke-linejoin:round;stroke-miterlimit:10;}
	
		.st40{fill-rule:evenodd;clip-rule:evenodd;fill:#CB3D61;stroke:#000000;stroke-linecap:round;stroke-linejoin:round;stroke-miterlimit:10;}
	.st41{fill:url(#SVGID_00000176750816155270316060000003611214543794457497_);}
	.st42{fill:url(#SVGID_00000125572320349500409250000017392097623812035758_);}
	.st43{fill:url(#SVGID_00000127037007742783239950000010751507577559897009_);}
	
		.st44{fill:none;stroke:url(#SVGID_00000168081485652902839350000017606961629118654648_);stroke-width:5;stroke-linecap:round;stroke-linejoin:round;stroke-miterlimit:10;}
	.st45{fill:url(#SVGID_00000096040844814945018430000005902676425588786343_);}
	
		.st46{fill:none;stroke:url(#SVGID_00000127751631505822292020000014170642288821355914_);stroke-width:5;stroke-linecap:round;stroke-linejoin:round;stroke-miterlimit:10;}
	.st47{fill:url(#SVGID_00000016785823683581312330000003697473871723640975_);}
	.st48{fill:url(#SVGID_00000075862973192905802230000010931266816672937626_);}
	.st49{fill:#222846;}
	.st50{fill:url(#SVGID_00000094620586788774149590000001757513056507623569_);}
	.st51{fill:url(#SVGID_00000084490987073698190300000016189544254650264494_);}
	.st52{fill:url(#SVGID_00000138554493715212168810000017019187722115686311_);}
	.st53{fill:url(#SVGID_00000013184156364495320090000000637067594595580056_);}
	.st54{fill:url(#SVGID_00000114047185424162188720000011393507874429607047_);}
	.st55{fill:url(#SVGID_00000168110016760714191730000003829456333274898052_);}
	.st56{fill-rule:evenodd;clip-rule:evenodd;fill:#6D75A2;}
	.st57{fill-rule:evenodd;clip-rule:evenodd;fill:#4A5479;}
	.st58{opacity:0.29;fill:url(#SVGID_00000021815741023091233510000011171116646606910130_);enable-background:new    ;}
	.st59{fill:url(#SVGID_00000124859528607036155240000001526203111026597036_);}
	.st60{fill:url(#SVGID_00000158750347882418179230000017759140555776012734_);}
	.st61{fill:url(#SVGID_00000109013959525150883570000005788165133922617993_);}
	.st62{fill-rule:evenodd;clip-rule:evenodd;fill:url(#SVGID_00000046337657097618523020000013579042632198122150_);}
	.st63{fill:url(#SVGID_00000057111146368587841880000015113285870487963041_);}
	.st64{fill:url(#SVGID_00000183967303683858764050000004418675993908632225_);}
	.st65{fill:url(#SVGID_00000098198224823424474410000017418144043842400426_);}
	.st66{fill:url(#SVGID_00000096037604635704644560000017279553089295636394_);}
	.st67{opacity:0.29;fill:url(#SVGID_00000142896333541084106930000017683148369646147517_);enable-background:new    ;}
	.st68{fill-rule:evenodd;clip-rule:evenodd;fill:#222846;}
	
		.st69{fill:none;stroke:url(#SVGID_00000137850749184349535320000011108905635591950996_);stroke-width:5;stroke-linecap:round;stroke-linejoin:round;stroke-miterlimit:10;}
	.st70{fill:url(#SVGID_00000165924288196726220090000008061776433565497729_);}
	
		.st71{fill:none;stroke:url(#SVGID_00000174599645646573615970000014928227369428802179_);stroke-width:5;stroke-linecap:round;stroke-linejoin:round;stroke-miterlimit:10;}
	.st72{fill:url(#SVGID_00000084521879851878881380000004602602804608378281_);}
	
		.st73{fill:none;stroke:url(#SVGID_00000121253026083926331420000001619635786919248276_);stroke-width:5;stroke-linecap:round;stroke-linejoin:round;stroke-miterlimit:10;}
	.st74{fill:url(#SVGID_00000113320491644397398100000016041589340656648872_);}
	
		.st75{fill-rule:evenodd;clip-rule:evenodd;fill:#4AA089;stroke:url(#SVGID_00000173162634477388582850000002591491599676669338_);stroke-linecap:round;stroke-linejoin:round;stroke-miterlimit:10;}
	.st76{fill-rule:evenodd;clip-rule:evenodd;fill:url(#SVGID_00000121980359574278986530000017562325740057008564_);}
	.st77{fill:url(#SVGID_00000080205070615898959070000004384331607004049828_);}
	.st78{fill:url(#SVGID_00000046314239376115878140000008759416176398717581_);}
	.st79{fill:url(#SVGID_00000015317294177556622100000011963643864859258753_);}
	.st80{opacity:0.29;fill:url(#SVGID_00000043436842224083537400000016242878751837951925_);}
	.st81{opacity:0.29;fill:url(#SVGID_00000118397816035844547870000013993281513027940283_);}
	.st82{opacity:0.2563;fill-rule:evenodd;clip-rule:evenodd;fill:#FFFFFF;enable-background:new    ;}
	.st83{opacity:0.67;fill:url(#SVGID_00000013169386822586361350000002997984697945099453_);}
	.st84{fill:#3FA9BD;}
	.st85{fill:url(#SVGID_00000011030173682915968730000004395810630109285038_);}
	.st86{fill-rule:evenodd;clip-rule:evenodd;fill:#555069;}
	.st87{fill-rule:evenodd;clip-rule:evenodd;fill:#FFFFFF;}
	.st88{fill-rule:evenodd;clip-rule:evenodd;fill:#AFAFB1;}
	.st89{fill-rule:evenodd;clip-rule:evenodd;fill:#D3D3D3;}
	.st90{opacity:0.67;fill:url(#SVGID_00000055675298414855623520000014977918283166442885_);}
	.st91{fill:url(#SVGID_00000096754388391445765670000011953916500764020925_);}
	.st92{opacity:0.67;fill:url(#SVGID_00000160872399658112160820000011352731161775665082_);}
	.st93{fill:url(#SVGID_00000010309829627351391850000005716306310904008620_);}
	.st94{opacity:0.67;fill:url(#SVGID_00000030451286782587836040000017050332975169939339_);}
	.st95{fill:url(#SVGID_00000140700878920081215080000014914872687175348398_);}
	.st96{opacity:0.67;fill:url(#SVGID_00000143590010805401761730000016785814495494760370_);}
	.st97{fill:url(#SVGID_00000167398242542963576950000007242901631125558462_);}
	.st98{opacity:0.67;fill:url(#SVGID_00000087395513475076099870000001765493371839762606_);}
	.st99{fill:url(#SVGID_00000047045485960037585180000018280712475221549699_);}
	.st100{fill:#1AD4B3;}
	.st101{opacity:0.67;fill:url(#SVGID_00000047782757719863696830000012071795375662750347_);}
	.st102{fill:url(#SVGID_00000124855415048114241980000016980612904837786282_);}
	.st103{opacity:0.67;fill:url(#SVGID_00000031914685933318751980000018162026682599530919_);}
	.st104{fill:url(#SVGID_00000129170272812499818000000013089309805478968482_);}
	.st105{opacity:0.67;fill:url(#SVGID_00000073710412138732341230000011491564615396786366_);}
	.st106{fill:url(#SVGID_00000170274765988814294830000003360768443004043138_);}
	.st107{opacity:0.67;fill:url(#SVGID_00000085208515655851661320000009691545224155234999_);}
	.st108{fill:url(#SVGID_00000099623210959690182400000009078920994916010388_);}
	.st109{opacity:0.67;fill:url(#SVGID_00000096764835181118508220000016269178991964556955_);}
	.st110{fill:url(#SVGID_00000151545929488547467220000001156511306917082770_);}
	.st111{opacity:0.67;fill:url(#SVGID_00000021079759806376233690000017662539915583032248_);}
	.st112{fill:url(#SVGID_00000108992185837766703230000011451613199688165811_);}
	
		.st113{fill-rule:evenodd;clip-rule:evenodd;fill:none;stroke:#FFFFFF;stroke-width:0.7384;stroke-linecap:round;stroke-linejoin:round;stroke-miterlimit:10;}
	.st114{opacity:0.67;fill:url(#SVGID_00000023959274554545278770000008612683087100139961_);}
	.st115{fill:url(#SVGID_00000155110767630369455910000000638673642808548779_);}
	.st116{opacity:0.67;fill:url(#SVGID_00000106116851199881203470000012375321281415075765_);}
	.st117{fill:url(#SVGID_00000173874206391751057310000008962329812103588496_);}
	.st118{opacity:0.67;fill:url(#SVGID_00000074436636472081662500000016250262327454384529_);}
	.st119{fill:url(#SVGID_00000047739286101907644790000013076965301715146683_);}
	.st120{opacity:0.67;fill:url(#SVGID_00000142889804564462714890000006615023636952300688_);}
	.st121{fill:url(#SVGID_00000083774398544415656090000016487081945497350798_);}
	.st122{opacity:0.67;fill:url(#SVGID_00000061438580275764717460000006845757942260833697_);}
	.st123{fill:url(#SVGID_00000020380302117130565690000006007170087448837505_);}
	.st124{opacity:0.67;fill:url(#SVGID_00000066499117445837085510000006586420197656268222_);}
	.st125{fill:url(#SVGID_00000002357433743927949420000010068483997918670993_);}
	.st126{opacity:0.67;fill:url(#SVGID_00000141450497410211004360000017012385930669127568_);}
	.st127{fill:url(#SVGID_00000115477997774602869500000017520507644504977057_);}
	.st128{opacity:0.67;fill:url(#SVGID_00000051362252011270476440000010203864143227570850_);}
	.st129{fill:url(#SVGID_00000134940826106563534290000009004781605055670917_);}
	.st130{opacity:0.67;fill:url(#SVGID_00000104688240198263579730000006709093740268365201_);enable-background:new    ;}
	.st131{fill:#5EA6B9;}
	.st132{fill:url(#SVGID_00000119079255114083963520000002559044504392394403_);}
	.st133{fill-rule:evenodd;clip-rule:evenodd;fill:#545067;}
	.st134{fill-rule:evenodd;clip-rule:evenodd;fill:#AEAEB0;}
	.st135{fill-rule:evenodd;clip-rule:evenodd;fill:#D2D2D2;}
	.st136{opacity:0.67;fill:url(#SVGID_00000021814394085319950370000013180053466383411391_);enable-background:new    ;}
	.st137{fill:url(#SVGID_00000040541525863014220400000012764144922807954306_);}
	.st138{fill-rule:evenodd;clip-rule:evenodd;fill:#63D0B3;}
	
		.st139{fill-rule:evenodd;clip-rule:evenodd;fill:none;stroke:#000000;stroke-linecap:round;stroke-linejoin:round;stroke-miterlimit:10;}
	.st140{fill-rule:evenodd;clip-rule:evenodd;fill:#E85C83;}
	
		.st141{fill-rule:evenodd;clip-rule:evenodd;fill:#4AA089;stroke:url(#SVGID_00000013187892889167026650000013610620423388393868_);stroke-linecap:round;stroke-linejoin:round;stroke-miterlimit:10;}
	.st142{fill:#5DC29D;}
	.st143{fill:url(#SVGID_00000124144155597799567280000000032655363244948884_);}
	.st144{fill:url(#SVGID_00000015314365155958708290000003423814578592333465_);}
	.st145{fill:#E85C83;}
	.st146{opacity:0.67;fill:url(#SVGID_00000052804164289025177420000013100351995745798795_);enable-background:new    ;}
	.st147{fill:url(#SVGID_00000056390091928785992340000007106208343835078078_);}
	
		.st148{fill:none;stroke:url(#SVGID_00000132770826490814826480000006284904094245708446_);stroke-width:5;stroke-linecap:round;stroke-linejoin:round;stroke-miterlimit:10;}
	.st149{fill:url(#SVGID_00000126310348851004558700000013510426273346471815_);}
	.st150{opacity:0.67;fill:url(#SVGID_00000136388002359258945480000012892704704256005557_);enable-background:new    ;}
	.st151{fill:url(#SVGID_00000023969016429608484130000002045806052996569791_);}
	.st152{opacity:0.67;fill:url(#SVGID_00000046340342330931945180000003450775684247648917_);}
	.st153{fill:url(#SVGID_00000116958454831629056430000002339671163233669506_);}
	.st154{opacity:0.67;fill:url(#SVGID_00000102535270252431458070000015969156007960223147_);}
	.st155{fill:url(#SVGID_00000039124296970382364240000008410025464021120684_);}
	.st156{opacity:0.67;fill:url(#SVGID_00000056427756123357453260000001343836805345492627_);}
	.st157{fill:url(#SVGID_00000119106924955206465860000001044883207281343677_);}
	.st158{opacity:0.67;fill:url(#SVGID_00000152266110705687219760000012680271783989982615_);}
	.st159{fill:url(#SVGID_00000026136352472588589510000011507384458963571644_);}
	.st160{opacity:0.67;fill:url(#SVGID_00000136375843976624118230000004374099702822519486_);}
	.st161{fill:url(#SVGID_00000078006164582097144060000008120865173385486245_);}
	.st162{fill:none;stroke:#000000;stroke-width:22;stroke-linecap:round;stroke-linejoin:round;stroke-miterlimit:10;}
	.st163{fill:url(#SVGID_00000047052333458917472380000007395209486696041354_);}
	.st164{fill:url(#SVGID_00000137852039193413765860000001339764802277941654_);}
	.st165{fill:none;stroke:url(#SVGID_00000171678648155900384820000008376220760197388969_);stroke-width:5;stroke-miterlimit:10;}
	.st166{fill:url(#SVGID_00000129178360160984960270000014439412678247722132_);}
	.st167{fill:none;}
	.st168{opacity:0.67;fill:url(#SVGID_00000058585030165007318750000005362017751455045812_);}
	.st169{fill:url(#SVGID_00000016769812934407828580000005679884773901548430_);}
	.st170{fill:none;stroke:url(#SVGID_00000042004146877209566710000011069560007290228105_);stroke-width:5;stroke-miterlimit:10;}
	.st171{fill:url(#SVGID_00000100357552076692475840000000644181628612232601_);}
	.st172{opacity:0.67;fill:url(#SVGID_00000074439926623779334120000005525366246008464049_);}
	.st173{fill:url(#SVGID_00000076572597076079221710000014610485114386882230_);}
	.st174{opacity:0.67;fill:url(#SVGID_00000083082454957460623650000016882964816370039211_);}
	.st175{fill:url(#SVGID_00000062905132802898615300000000314888054087020979_);}
	.st176{opacity:0.67;fill:url(#SVGID_00000016039879042361241400000006966792493961742222_);}
	.st177{fill:url(#SVGID_00000048495255926311929380000007076471979015401141_);}
</style>
<g>
	<polygon class="st2" points="211.62,351.97 181.12,334.36 181.12,303.86 211.62,321.47 	"/>
	<polygon class="st3" points="211.62,351.97 242.12,334.36 242.12,303.86 211.62,321.47 	"/>
	<polygon class="st4" points="211.73,321.56 181.12,303.89 211.51,286.18 242.13,303.86 	"/>
	<path id="矩形_00000097470792861218074540000014695661980223527827_" class="st5" d="M201.83,296.38L201.83,296.38
		c0.6,0.34,0.5,1-0.21,1.42l-6.33,3.75c-0.71,0.42-1.84,0.49-2.44,0.15l0,0c-0.6-0.34-0.5-1,0.21-1.42l6.33-3.75
		C200.1,296.11,201.23,296.04,201.83,296.38z"/>
	<path id="矩形_00000170970761544490986820000012691897215981872783_" class="st5" d="M191.29,302.5L191.29,302.5
		c0.6,0.34,0.5,1-0.21,1.42l-1.23,0.73c-0.71,0.42-1.84,0.49-2.44,0.15l0,0c-0.6-0.34-0.5-1,0.21-1.42l1.23-0.73
		C189.61,302.2,190.69,302.16,191.29,302.5z"/>
</g>
<g>
	<linearGradient id="SVGID_1_" gradientUnits="userSpaceOnUse" x1="168.2829" y1="222.2906" x2="178.1248" y2="222.2906">
		<stop  offset="0" style="stop-color:#A85699"/>
		<stop  offset="1" style="stop-color:#5DB6C3"/>
	</linearGradient>
	<path class="st9" d="M168.28,228.57v-1.47l7.13-9.15v-0.13h-6.9v-1.8h9.38v1.54l-6.93,9.09v0.13h7.16v1.8H168.28z"/>
</g>
<g>
	
		<linearGradient id="SVGID_00000085942037830745177650000017735560848437254542_" gradientUnits="userSpaceOnUse" x1="199.3513" y1="227.1961" x2="215.8591" y2="227.1961">
		<stop  offset="0" style="stop-color:#A85699"/>
		<stop  offset="1" style="stop-color:#5DB6C3"/>
	</linearGradient>
	<path style="fill:url(#SVGID_00000085942037830745177650000017735560848437254542_);" d="M199.35,237.73v-2.47l11.96-15.36v-0.22
		h-11.57v-3.02h15.74v2.58l-11.63,15.25v0.22h12.01v3.02H199.35z"/>
</g>
<g>
	
		<linearGradient id="SVGID_00000134928815643290613060000007902012117879935888_" gradientUnits="userSpaceOnUse" x1="211.1853" y1="186.9052" x2="233.1217" y2="186.9052">
		<stop  offset="0" style="stop-color:#A85699"/>
		<stop  offset="1" style="stop-color:#5DB6C3"/>
	</linearGradient>
	<path style="fill:url(#SVGID_00000134928815643290613060000007902012117879935888_);" d="M211.19,200.9v-3.28l15.89-20.41v-0.29
		h-15.38v-4.01h20.92v3.43l-15.45,20.26v0.29h15.96v4.01H211.19z"/>
</g>
<g>
	<g>
		
			<radialGradient id="SVGID_00000128452155219630646680000007534477153835403937_" cx="154.907" cy="387.5575" r="29.1415" gradientTransform="matrix(1 0 0 0.5898 0 158.9787)" gradientUnits="userSpaceOnUse">
			<stop  offset="0" style="stop-color:#06070C"/>
			<stop  offset="1" style="stop-color:#0D101D;stop-opacity:0"/>
		</radialGradient>
		<path style="opacity:0.67;fill:url(#SVGID_00000128452155219630646680000007534477153835403937_);" d="M179.89,373.49
			c-13.67-7.89-35.94-7.99-49.74-0.23c-13.8,7.77-13.9,20.46-0.23,28.36s35.94,7.99,49.74,0.23
			C193.46,394.08,193.56,381.38,179.89,373.49z"/>
		<g>
			<path class="st84" d="M190.86,337.78V288.5c0-0.23,0.02-0.45,0.02-0.68c0-22.91-18.57-41.48-41.48-41.48
				c-22.91,0-41.48,18.57-41.48,41.48c0,0.36,0.02,0.72,0.03,1.07v44.66h-0.03v22.67c0,2.84,2.3,5.15,5.15,5.15
				c2.84,0,5.15-2.31,5.15-5.15v-0.83c0.56,0.36,1.13,0.72,1.74,1.07c1.83,1.06,3.79,1.99,5.85,2.81v8.2c0,2.84,2.3,5.15,5.15,5.15
				c2.84,0,5.15-2.31,5.15-5.15v-5.23c2.95,0.57,5.99,0.96,9.06,1.14v12.59c0,2.84,2.3,5.15,5.15,5.15s5.15-2.31,5.15-5.15v-12.7
				c3.39-0.28,6.73-0.8,9.93-1.55v6.36c0,2.84,2.3,5.15,5.15,5.15s5.15-2.31,5.15-5.15v-9.87c1-0.47,1.97-0.96,2.91-1.49
				c0.7-0.39,1.35-0.8,1.99-1.21v0.71c0,2.84,2.3,5.15,5.15,5.15c2.84,0,5.15-2.31,5.15-5.15v-18.45H190.86z"/>
			
				<radialGradient id="SVGID_00000143591778296173922920000012994913746828598188_" cx="174.083" cy="263.7644" r="106.6854" gradientUnits="userSpaceOnUse">
				<stop  offset="0.0124" style="stop-color:#DD78CE"/>
				<stop  offset="0.4936" style="stop-color:#A7589A"/>
				<stop  offset="0.5829" style="stop-color:#A0619E"/>
				<stop  offset="0.7273" style="stop-color:#8E79A8"/>
				<stop  offset="0.9078" style="stop-color:#709FB9"/>
				<stop  offset="1" style="stop-color:#5EB6C3"/>
			</radialGradient>
			<path style="fill:url(#SVGID_00000143591778296173922920000012994913746828598188_);" d="M190.86,337.78V288.5
				c0-0.23,0.02-0.45,0.02-0.68c0-22.91-18.57-41.48-41.48-41.48c-22.91,0-41.48,18.57-41.48,41.48c0,0.36,0.02,0.72,0.03,1.07
				v44.66h-0.03v22.67c0,2.84,2.3,5.15,5.15,5.15c2.84,0,5.15-2.31,5.15-5.15v-0.83c0.56,0.36,1.13,0.72,1.74,1.07
				c1.83,1.06,3.79,1.99,5.85,2.81v8.2c0,2.84,2.3,5.15,5.15,5.15c2.84,0,5.15-2.31,5.15-5.15v-5.23c2.95,0.57,5.99,0.96,9.06,1.14
				v12.59c0,2.84,2.3,5.15,5.15,5.15s5.15-2.31,5.15-5.15v-12.7c3.39-0.28,6.73-0.8,9.93-1.55v6.36c0,2.84,2.3,5.15,5.15,5.15
				s5.15-2.31,5.15-5.15v-9.87c1-0.47,1.97-0.96,2.91-1.49c0.7-0.39,1.35-0.8,1.99-1.21v0.71c0,2.84,2.3,5.15,5.15,5.15
				c2.84,0,5.15-2.31,5.15-5.15v-18.45H190.86z"/>
		</g>
		<path id="矩形_00000175296417502330949940000010648230615984238256_" class="st82" d="M111.83,323.64L111.83,323.64
			c1.12,0,2.08,1.38,2.08,2.99v14.25c0,1.61-0.96,2.99-2.08,2.99l0,0c-1.12,0-2.08-1.38-2.08-2.99v-14.25
			C109.75,325.02,110.71,323.64,111.83,323.64z"/>
		<path id="矩形_00000051354776684380542120000004367625321949349027_" class="st82" d="M111.83,349.43L111.83,349.43
			c1.12,0,2.08,1.38,2.08,2.99v2.76c0,1.61-0.96,2.99-2.08,2.99l0,0c-1.12,0-2.08-1.38-2.08-2.99v-2.76
			C109.75,350.7,110.71,349.43,111.83,349.43z"/>
		<path id="矩形_00000110434975425298067340000000398397039854040205_" class="st82" d="M129.22,360.21L129.22,360.21
			c1.12,0,2.08,1.38,2.08,2.99v2.76c0,1.61-0.96,2.99-2.08,2.99l0,0c-1.12,0-2.08-1.38-2.08-2.99v-2.76
			C127.14,361.47,128.1,360.21,129.22,360.21z"/>
		<path id="矩形_00000123403041713965501730000014715364816607452845_" class="st82" d="M149.4,368.94L149.4,368.94
			c1.12,0,2.08,1.38,2.08,2.99v2.76c0,1.61-0.96,2.99-2.08,2.99l0,0c-1.12,0-2.08-1.38-2.08-2.99v-2.76
			C147.31,370.21,148.27,368.94,149.4,368.94z"/>
		<path id="矩形_00000101803568991221213380000010953932042352268430_" class="st82" d="M169.09,363.6L169.09,363.6
			c0.89,0,1.66,1.1,1.66,2.37v2.19c0,1.28-0.76,2.37-1.66,2.37l0,0c-0.89,0-1.66-1.1-1.66-2.37v-2.19
			C167.43,364.61,168.2,363.6,169.09,363.6z"/>
		<path id="矩形_00000142866738084241984220000014359196539886064777_" class="st82" d="M183.88,353.44L183.88,353.44
			c0.62,0,1.14,0.76,1.14,1.64v1.51c0,0.88-0.53,1.64-1.14,1.64l0,0c-0.62,0-1.14-0.76-1.14-1.64v-1.51
			C182.74,354.14,183.27,353.44,183.88,353.44z"/>
		<line class="st113" x1="149.97" y1="304.48" x2="161.66" y2="300.16"/>
		<line class="st113" x1="173.2" y1="296.75" x2="184.89" y2="292.43"/>
	</g>
</g>
<path id="矩形_00000094615620647633312080000002656045730005282233_" class="st82" d="M171.86,259.14L171.86,259.14
	c1.37-1.02,3.68-0.37,5.02,1.41l2.29,3.06c1.34,1.79,1.31,4.19-0.06,5.22l0,0c-1.37,1.02-3.68,0.37-5.02-1.41l-2.29-3.06
	C170.37,262.44,170.49,260.16,171.86,259.14z"/>
<g>
	<g>
		<g>
			<g>
				<polygon class="st2" points="158.6,481.88 44.09,415.87 44.09,374.08 158.6,440.09 				"/>
				<polygon class="st3" points="158.6,481.88 179.57,470.89 179.57,429.1 158.6,440.09 				"/>
				<polygon class="st4" points="158.75,440.21 44.09,374.12 64.91,363 179.57,429.09 				"/>
			</g>
		</g>
	</g>
	<g>
		<polygon class="st2" points="151.94,452.05 53.05,395.2 53.05,388.41 151.94,445.27 		"/>
		<polygon class="st4" points="151.79,450.92 54.13,394.62 54.12,389 151.78,445.3 		"/>
		<polygon class="st14" points="123.71,434.03 54.72,394.42 54.71,390.03 123.7,429.77 		"/>
	</g>
	<g>
		<polygon class="st2" points="151.94,465.85 53.05,409 53.05,402.21 151.94,459.07 		"/>
		<polygon class="st4" points="151.79,464.72 54.13,408.42 54.12,402.8 151.78,459.1 		"/>
		<polygon class="st15" points="93.29,430.33 54.72,408.22 54.71,403.83 93.28,426.07 		"/>
	</g>
</g>
<g>
	<polygon class="st2" points="222.15,308.93 204.52,298.75 204.52,281.12 222.15,291.3 	"/>
	<polygon class="st3" points="222.15,308.93 239.78,298.75 239.78,281.12 222.15,291.3 	"/>
	<polygon class="st4" points="222.22,291.35 204.52,281.14 222.09,270.9 239.78,281.12 	"/>
	<path id="矩形_00000008835325966006391610000016989482223732770233_" class="st5" d="M216.63,276.63L216.63,276.63
		c0.35,0.2,0.29,0.58-0.12,0.82l-3.66,2.17c-0.41,0.24-1.06,0.29-1.41,0.09l0,0c-0.35-0.2-0.29-0.58,0.12-0.82l3.66-2.17
		C215.63,276.47,216.28,276.43,216.63,276.63z"/>
	<path id="矩形_00000107590920430511317350000009376957701646319021_" class="st5" d="M210.54,280.16L210.54,280.16
		c0.35,0.2,0.29,0.58-0.12,0.82l-0.71,0.42c-0.41,0.24-1.06,0.29-1.41,0.09l0,0c-0.35-0.2-0.29-0.58,0.12-0.82l0.71-0.42
		C209.57,279.99,210.19,279.97,210.54,280.16z"/>
</g>
<g>
	<polygon class="st2" points="225.03,372.81 207.4,362.63 207.4,345 225.03,355.18 	"/>
	<polygon class="st3" points="225.03,372.81 242.66,362.63 242.66,345 225.03,355.18 	"/>
	<polygon class="st4" points="225.09,355.24 207.4,345.02 224.97,334.79 242.66,345 	"/>
	<path id="矩形_00000001651599796411897920000018387228726600695711_" class="st5" d="M219.5,340.51L219.5,340.51
		c0.35,0.2,0.29,0.58-0.12,0.82l-3.66,2.17c-0.41,0.24-1.06,0.29-1.41,0.09l0,0c-0.35-0.2-0.29-0.58,0.12-0.82l3.66-2.17
		C218.51,340.36,219.16,340.31,219.5,340.51z"/>
	<path id="矩形_00000180346422524111650200000018427739023138151866_" class="st5" d="M213.41,344.05L213.41,344.05
		c0.35,0.2,0.29,0.58-0.12,0.82l-0.71,0.42c-0.41,0.24-1.06,0.29-1.41,0.09l0,0c-0.35-0.2-0.29-0.58,0.12-0.82l0.71-0.42
		C212.44,343.87,213.06,343.85,213.41,344.05z"/>
</g>
<g>
	<g>
		<path class="st16" d="M101.78,259.33l-6.15-19.81c1.01-0.41,1.96-0.87,2.9-1.42c15.99-9.27,29.5-37.22,29.5-61.03
			c0-13.15-3.96-20.12-7.67-22.25c-3.46-1.99-7.94-0.23-11.1,1.6c-15.98,9.27-29.49,37.22-29.49,61.03c0,2.81,0.19,5.49,0.57,7.97
			l-21.12,3.23c-0.54-3.54-0.82-7.31-0.82-11.19c0-31.54,17.63-66.46,40.14-79.51c11.35-6.58,22.88-7.16,32.48-1.63
			c11.68,6.73,18.37,21.59,18.37,40.77c0,31.54-17.63,66.46-40.14,79.51C107.46,257.62,103.71,258.55,101.78,259.33z"/>
	</g>
	<path class="st162" d="M108.16,144.77c-1.4,0.57-2.82,1.25-4.26,2.09C84.67,158,69.08,189.46,69.08,217.13s15.59,41.05,34.81,29.9
		c19.23-11.15,34.81-42.61,34.81-70.27c0-3.42-0.24-6.62-0.69-9.58"/>
	<path class="st35" d="M147.08,160.93c0.82,3.81-1.4,6.64-7.01,8.84c-5.6,2.2-12.12-0.77-12.86-4.52
		c-0.74-3.8-2.37-11.09,5.03-13.34C141.37,149.13,146.27,157.14,147.08,160.93z"/>
</g>
</svg>
