<?xml version="1.0" encoding="utf-8"?>
<!-- Generator: Adobe Illustrator 27.8.1, SVG Export Plug-In . SVG Version: 6.00 Build 0)  -->
<svg version="1.1" id="Слой_1" xmlns="http://www.w3.org/2000/svg" xmlns:xlink="http://www.w3.org/1999/xlink" x="0px" y="0px"
	 viewBox="0 0 290 574.88" style="enable-background:new 0 0 290 574.88;" xml:space="preserve">
<style type="text/css">
	.st0{fill:#101422;}
	.st1{fill:#FFFFFF;stroke:#111422;stroke-linecap:round;stroke-linejoin:round;stroke-miterlimit:10;}
	
		.st2{fill-rule:evenodd;clip-rule:evenodd;fill:#C6C3D1;stroke:#101320;stroke-linecap:round;stroke-linejoin:round;stroke-miterlimit:10;}
	
		.st3{fill-rule:evenodd;clip-rule:evenodd;fill:#FFFFFF;stroke:#111422;stroke-linecap:round;stroke-linejoin:round;stroke-miterlimit:10;}
	
		.st4{fill-rule:evenodd;clip-rule:evenodd;fill:#ECF0FC;stroke:#111422;stroke-linecap:round;stroke-linejoin:round;stroke-miterlimit:10;}
	.st5{opacity:0.92;fill-rule:evenodd;clip-rule:evenodd;fill:#FFFFFF;enable-background:new    ;}
	.st6{fill:none;stroke:#FFFFFF;stroke-linecap:round;stroke-linejoin:round;stroke-miterlimit:10;}
	.st7{fill-rule:evenodd;clip-rule:evenodd;fill:#101422;}
	.st8{fill:url(#SVGID_1_);}
	.st9{fill:url(#SVGID_00000029029520907904686320000009984907054090094211_);}
	.st10{fill:url(#SVGID_00000097479856633835756310000015067015811588549309_);}
	.st11{opacity:0.67;fill:url(#SVGID_00000145767967197715940090000004733521502035784629_);enable-background:new    ;}
	.st12{fill:#6FA3B6;}
	.st13{fill:url(#SVGID_00000026163310905529674590000012212423835196750495_);}
	.st14{opacity:0.2563;fill-rule:evenodd;clip-rule:evenodd;fill:#FFFFFF;enable-background:new    ;}
	.st15{fill:none;stroke:#FFFFFF;stroke-width:0.7384;stroke-linecap:round;stroke-linejoin:round;stroke-miterlimit:10;}
	
		.st16{fill:none;stroke:url(#SVGID_00000099657316722537071200000001337795266522702767_);stroke-width:5;stroke-linecap:round;stroke-linejoin:round;stroke-miterlimit:10;}
	.st17{fill:url(#SVGID_00000039117772515858304640000015846572924502687935_);}
	.st18{fill-rule:evenodd;clip-rule:evenodd;fill:#1AD4B3;}
	.st19{fill-rule:evenodd;clip-rule:evenodd;fill:#FC4F83;}
	.st20{fill:#C6C3D1;stroke:#101320;stroke-linecap:round;stroke-linejoin:round;stroke-miterlimit:10;}
	.st21{fill:#ECF0FC;stroke:#111422;stroke-linecap:round;stroke-linejoin:round;stroke-miterlimit:10;}
	
		.st22{fill:url(#SVGID_00000181057886842513459620000004324645018324724624_);stroke:#1D1D1B;stroke-width:0.2115;stroke-linecap:round;stroke-linejoin:round;stroke-miterlimit:10;}
	
		.st23{fill:url(#SVGID_00000004534109793617887480000010625069831722764698_);stroke:#1D1D1B;stroke-width:0.2115;stroke-linecap:round;stroke-linejoin:round;stroke-miterlimit:10;}
	
		.st24{fill:url(#SVGID_00000008138679777923926610000012133892626323169456_);stroke:#1D1D1B;stroke-width:0.2115;stroke-linecap:round;stroke-linejoin:round;stroke-miterlimit:10;}
	
		.st25{fill:url(#SVGID_00000098913799219820373280000015871107293306120120_);stroke:#1D1D1B;stroke-width:0.2115;stroke-linecap:round;stroke-linejoin:round;stroke-miterlimit:10;}
	
		.st26{fill-rule:evenodd;clip-rule:evenodd;fill:#101422;stroke:#101423;stroke-linecap:round;stroke-linejoin:round;stroke-miterlimit:10;}
	.st27{fill:#FFFFFF;}
	.st28{fill-rule:evenodd;clip-rule:evenodd;fill:url(#SVGID_00000081642161039987217800000013953744437797874830_);}
	.st29{fill-rule:evenodd;clip-rule:evenodd;fill:url(#SVGID_00000088097392761571549570000014427590444823622546_);}
	.st30{fill:url(#SVGID_00000074400791901581698880000007915588986167848883_);}
	.st31{fill:url(#SVGID_00000029733008770298751450000012023420894132978579_);}
	.st32{fill:url(#SVGID_00000149351759976913783470000006552549206248160935_);}
	
		.st33{fill-rule:evenodd;clip-rule:evenodd;fill:#C7FFF1;stroke:#101320;stroke-linecap:round;stroke-linejoin:round;stroke-miterlimit:10;}
	
		.st34{fill:none;stroke:url(#SVGID_00000063631638545950564840000009947713673622544828_);stroke-width:5;stroke-linecap:round;stroke-linejoin:round;stroke-miterlimit:10;}
	.st35{fill:url(#SVGID_00000036210266131217852990000006224822441835171719_);}
	
		.st36{fill:none;stroke:url(#SVGID_00000044164723473615110270000011569759044063491972_);stroke-width:5;stroke-linecap:round;stroke-linejoin:round;stroke-miterlimit:10;}
	.st37{fill:url(#SVGID_00000024715379843716032180000002213359742790226832_);}
	
		.st38{fill:none;stroke:url(#SVGID_00000116203155466170136010000001893711067954998426_);stroke-width:5;stroke-linecap:round;stroke-linejoin:round;stroke-miterlimit:10;}
	.st39{fill:url(#SVGID_00000150782775376079015530000002569410851476234644_);}
	
		.st40{fill-rule:evenodd;clip-rule:evenodd;fill:#1AD4B3;stroke:#111422;stroke-linecap:round;stroke-linejoin:round;stroke-miterlimit:10;}
	
		.st41{fill-rule:evenodd;clip-rule:evenodd;fill:#FC4F83;stroke:#111422;stroke-linecap:round;stroke-linejoin:round;stroke-miterlimit:10;}
	
		.st42{fill-rule:evenodd;clip-rule:evenodd;fill:#FFCAD7;stroke:#111422;stroke-linecap:round;stroke-linejoin:round;stroke-miterlimit:10;}
	.st43{fill:url(#SVGID_00000118358470978544629650000016955371955527788182_);}
	.st44{fill:url(#SVGID_00000025417687209833237600000012981737610792399039_);}
	.st45{fill:url(#SVGID_00000021838216469494216150000017775435805867445891_);}
	
		.st46{fill:none;stroke:url(#SVGID_00000071540621978207100170000008620731847463806906_);stroke-width:5;stroke-linecap:round;stroke-linejoin:round;stroke-miterlimit:10;}
	.st47{fill:url(#SVGID_00000162326759242399329490000017466006224068376230_);}
	
		.st48{fill:none;stroke:url(#SVGID_00000053545376946414626150000015069838807750036914_);stroke-width:5;stroke-linecap:round;stroke-linejoin:round;stroke-miterlimit:10;}
	.st49{fill:url(#SVGID_00000119082441358060531440000013248775392211145119_);}
	.st50{fill:url(#SVGID_00000008827396694805613220000018064860288267622028_);}
	.st51{fill:#101320;}
	.st52{fill:url(#SVGID_00000163774847149304972080000001072705648116447148_);}
	.st53{fill:url(#SVGID_00000094582615270741223300000008844929986063862413_);}
	.st54{fill:url(#SVGID_00000106133109630793404510000007533223487743760537_);}
	.st55{fill:url(#SVGID_00000096747377995176452530000017853708974788649879_);}
	.st56{fill:url(#SVGID_00000144302719826848187920000007652276599997861797_);}
	.st57{fill:url(#SVGID_00000087407109898307262250000012643004423418531493_);}
	.st58{opacity:0.29;fill:url(#SVGID_00000096763609282639123230000007606085038400314513_);enable-background:new    ;}
	.st59{fill:url(#SVGID_00000047755246712783869770000000342175387056284820_);}
	.st60{fill:url(#SVGID_00000152223928416134872130000013648790447863261112_);}
	.st61{fill:url(#SVGID_00000003079318808048242890000016948878933537991332_);}
	.st62{fill-rule:evenodd;clip-rule:evenodd;fill:url(#SVGID_00000032611129522652088120000005407462114217943966_);}
	.st63{fill:url(#SVGID_00000069380713709980845030000006564648207038319280_);}
	.st64{fill:url(#SVGID_00000068673173321952478890000013811173324874538683_);}
	.st65{fill:url(#SVGID_00000091694167266244719040000011854790250706894735_);}
	.st66{fill:url(#SVGID_00000022523034023960835520000015761816884577809047_);}
	.st67{opacity:0.29;fill:url(#SVGID_00000181076978270979093660000003645881305105680807_);enable-background:new    ;}
	
		.st68{fill:none;stroke:url(#SVGID_00000170976008331713800680000007360484623896418748_);stroke-width:5;stroke-linecap:round;stroke-linejoin:round;stroke-miterlimit:10;}
	.st69{fill:url(#SVGID_00000138554578343719336970000002217513315771936388_);}
	
		.st70{fill:none;stroke:url(#SVGID_00000031928195340397086170000012536671953118993052_);stroke-width:5;stroke-linecap:round;stroke-linejoin:round;stroke-miterlimit:10;}
	.st71{fill:url(#SVGID_00000164481568286037053020000005724651044990513300_);}
	
		.st72{fill:none;stroke:url(#SVGID_00000042015559547353694040000011142648488943549887_);stroke-width:5;stroke-linecap:round;stroke-linejoin:round;stroke-miterlimit:10;}
	.st73{fill:url(#SVGID_00000178170002715865586680000000186762339490168731_);}
	.st74{fill-rule:evenodd;clip-rule:evenodd;fill:url(#SVGID_00000081629046013999568320000015981689096925249415_);}
	.st75{fill:url(#SVGID_00000092449216962517704840000005862666700227634307_);}
	.st76{fill:url(#SVGID_00000079474674721251088280000000203059605053751953_);}
	.st77{fill:url(#SVGID_00000069389318614179951720000004871733004943637922_);}
	.st78{opacity:0.29;fill:url(#SVGID_00000037670535554480365070000012529151705456537728_);}
	.st79{opacity:0.29;fill:url(#SVGID_00000099663496304612194350000004036209611643652759_);}
	.st80{opacity:0.67;fill:url(#SVGID_00000014601100485962178690000000316743797728375206_);}
	.st81{fill:#3FA9BD;}
	.st82{fill:url(#SVGID_00000118394880503726077130000009438662064457025963_);}
	.st83{fill-rule:evenodd;clip-rule:evenodd;fill:#555069;}
	.st84{fill-rule:evenodd;clip-rule:evenodd;fill:#FFFFFF;}
	.st85{fill-rule:evenodd;clip-rule:evenodd;fill:#AFAFB1;}
	.st86{fill-rule:evenodd;clip-rule:evenodd;fill:#D3D3D3;}
	.st87{opacity:0.67;fill:url(#SVGID_00000158020986417593241030000010402160372165298600_);}
	.st88{fill:url(#SVGID_00000182500756492286819100000007751327328894112665_);}
	.st89{opacity:0.67;fill:url(#SVGID_00000106107675687540424010000008397094745226566823_);}
	.st90{fill:url(#SVGID_00000081630033209052531000000000442823898685654433_);}
	.st91{opacity:0.67;fill:url(#SVGID_00000096748899161541208400000000205172336428186547_);}
	.st92{fill:url(#SVGID_00000083806310823361686180000013975138291492168621_);}
	.st93{opacity:0.67;fill:url(#SVGID_00000096033671039585062690000005760575643762930328_);}
	.st94{fill:url(#SVGID_00000055693621227047011270000017109492575225328820_);}
	.st95{opacity:0.67;fill:url(#SVGID_00000118355719945853495450000015069215176416532149_);}
	.st96{fill:url(#SVGID_00000127038452951844120950000016958436525381169556_);}
	.st97{fill:#1AD4B3;}
	.st98{opacity:0.67;fill:url(#SVGID_00000140700912453237833400000012793666228036364729_);}
	.st99{fill:url(#SVGID_00000131357625193385990190000009465300553414501531_);}
	.st100{opacity:0.67;fill:url(#SVGID_00000039850445104717214540000015664578845676923550_);}
	.st101{fill:url(#SVGID_00000025404409189956788070000015539343898041482918_);}
	.st102{opacity:0.67;fill:url(#SVGID_00000113342571883830625420000004082716925450321558_);}
	.st103{fill:url(#SVGID_00000109027131783280293710000016832650527869502136_);}
	
		.st104{fill-rule:evenodd;clip-rule:evenodd;fill:none;stroke:#FFFFFF;stroke-width:0.7384;stroke-linecap:round;stroke-linejoin:round;stroke-miterlimit:10;}
	.st105{opacity:0.67;fill:url(#SVGID_00000111897312611632282220000018157619200105436841_);}
	.st106{fill:url(#SVGID_00000083055798221124492010000004644609207078343357_);}
	.st107{opacity:0.67;fill:url(#SVGID_00000077289195867520827240000007095684284692393088_);}
	.st108{fill:url(#SVGID_00000099648092654172310010000012169564350454041506_);}
	.st109{opacity:0.67;fill:url(#SVGID_00000181074878873515352120000001292751541162053766_);}
	.st110{fill:url(#SVGID_00000077292025794597991400000012318985396002152864_);}
	.st111{opacity:0.67;fill:url(#SVGID_00000143590140982830106060000015579356882107683000_);}
	.st112{fill:url(#SVGID_00000120556205153997176880000008453716867526281146_);}
	.st113{opacity:0.67;fill:url(#SVGID_00000101797536040433653670000007581856384014834622_);}
	.st114{fill:url(#SVGID_00000070115750492650600010000012301940844590279812_);}
	.st115{opacity:0.67;fill:url(#SVGID_00000174567727484717032090000001253546445394522033_);}
	.st116{fill:url(#SVGID_00000132780751154913590320000015071243913415233926_);}
	.st117{opacity:0.67;fill:url(#SVGID_00000068652201610561392210000010862285050223644577_);}
	.st118{fill:url(#SVGID_00000182498238680753444140000001701897115343444612_);}
	.st119{opacity:0.67;fill:url(#SVGID_00000093869436798079467370000015034504505871078078_);}
	.st120{fill:url(#SVGID_00000181056952678587543360000018112438867349990539_);}
	.st121{opacity:0.67;fill:url(#SVGID_00000137814185464238936020000010823280404911033224_);}
	.st122{fill:url(#SVGID_00000096058161676825656900000018165537077210327479_);}
	.st123{opacity:0.67;fill:url(#SVGID_00000066494810957355173420000006533787275088744103_);}
	.st124{fill:url(#SVGID_00000132794106568371060740000009670605029847228823_);}
	.st125{opacity:0.67;fill:url(#SVGID_00000129890190854897910030000009363168912976762042_);}
	.st126{fill:url(#SVGID_00000083785768491284963680000013205374412319643570_);}
	.st127{opacity:0.67;fill:url(#SVGID_00000002386282398916463330000009705107908903708045_);}
	.st128{fill:#5EA6B9;}
	.st129{fill:url(#SVGID_00000053527432810157004490000015224546205165188501_);}
	.st130{fill-rule:evenodd;clip-rule:evenodd;fill:#545067;}
	.st131{fill-rule:evenodd;clip-rule:evenodd;fill:#AEAEB0;}
	.st132{fill-rule:evenodd;clip-rule:evenodd;fill:#D2D2D2;}
	.st133{opacity:0.67;fill:url(#SVGID_00000065042544329562837910000010748953494260152470_);}
	.st134{fill:url(#SVGID_00000057852507178347026590000001380691299975038121_);}
	.st135{fill-rule:evenodd;clip-rule:evenodd;fill:#63D0B3;}
	
		.st136{fill-rule:evenodd;clip-rule:evenodd;fill:none;stroke:#111422;stroke-linecap:round;stroke-linejoin:round;stroke-miterlimit:10;}
	.st137{fill-rule:evenodd;clip-rule:evenodd;fill:#E85C83;}
	.st138{fill:#5DC29D;}
	.st139{fill:url(#SVGID_00000127002883389873987080000005141589197973421193_);}
	.st140{fill:url(#SVGID_00000150800968622880099710000000177508991548692392_);}
	.st141{fill:#E85C83;}
	.st142{opacity:0.67;fill:url(#SVGID_00000129905832919725621130000003931757150041282716_);}
	.st143{fill:url(#SVGID_00000099637306760825049380000005970592166928920713_);}
	
		.st144{fill:none;stroke:url(#SVGID_00000146481834807481070200000013860004878945846170_);stroke-width:5;stroke-linecap:round;stroke-linejoin:round;stroke-miterlimit:10;}
	.st145{fill:url(#SVGID_00000048466982167806761810000004237196487972863155_);}
	.st146{opacity:0.67;fill:url(#SVGID_00000178185831065456115280000008686689691367646117_);}
	.st147{fill:url(#SVGID_00000096020651722752091460000002432617129729032087_);}
	.st148{opacity:0.67;fill:url(#SVGID_00000165226464058155823200000006542559302486745479_);}
	.st149{fill:url(#SVGID_00000134943300469528896440000010129601472119723913_);}
	.st150{opacity:0.67;fill:url(#SVGID_00000147212551125599346100000013143394477514135195_);}
	.st151{fill:url(#SVGID_00000006703224187995416960000016871186319875854012_);}
	.st152{opacity:0.67;fill:url(#SVGID_00000001631576831491774380000005416205114857495479_);}
	.st153{fill:url(#SVGID_00000165936548064340333290000015905261571099655820_);}
	.st154{opacity:0.67;fill:url(#SVGID_00000079467560345388371940000014097293162396395915_);}
	.st155{fill:url(#SVGID_00000135686342682754147070000014175456973388360891_);}
	.st156{opacity:0.67;fill:url(#SVGID_00000091729767653356007430000009678819292673782659_);}
	.st157{fill:url(#SVGID_00000157267162293009808020000005901064602876541617_);}
	.st158{fill:none;stroke:#000000;stroke-width:22;stroke-linecap:round;stroke-linejoin:round;stroke-miterlimit:10;}
	.st159{fill:#ECF0FC;}
	.st160{fill:url(#SVGID_00000063614364397502787270000004374775594168584360_);}
	.st161{fill:url(#SVGID_00000075853440898284815650000003827378679935117189_);}
	.st162{fill:none;stroke:url(#SVGID_00000042721537177541077970000011436338229913055120_);stroke-width:5;stroke-miterlimit:10;}
	.st163{fill:#111422;}
	.st164{fill:url(#SVGID_00000165921649688452809080000015713136094537842578_);}
	.st165{fill:none;}
	.st166{opacity:0.67;fill:url(#SVGID_00000013883331865839154110000010919429291794591416_);}
	.st167{fill:url(#SVGID_00000065032428048359030050000014571199441587756700_);}
	.st168{fill:none;stroke:url(#SVGID_00000039827224672936908150000012990267582345057193_);stroke-width:5;stroke-miterlimit:10;}
	.st169{fill:url(#SVGID_00000096044576041879675840000016013921394807851412_);}
	.st170{opacity:0.67;fill:url(#SVGID_00000078762828242748642320000012986544402529391243_);}
	.st171{fill:url(#SVGID_00000085939276927525430630000010536315467465420932_);}
	.st172{opacity:0.67;fill:url(#SVGID_00000028295352113846883070000006253134021401089467_);}
	.st173{fill:url(#SVGID_00000007398178529548702520000008843716922257657749_);}
</style>
<g>
	<g>
		<polygon class="st2" points="152.38,279.55 130.48,266.91 130.48,245.01 152.38,257.65 		"/>
		<polygon class="st3" points="152.38,279.55 174.28,266.91 174.28,245.01 152.38,257.65 		"/>
		<polygon class="st4" points="152.46,257.72 130.48,245.03 152.3,232.32 174.28,245.01 		"/>
		<path id="矩形_00000074429809742084874480000002671092822813040037_" class="st5" d="M145.44,239.53L145.44,239.53
			c0.43,0.24,0.36,0.72-0.15,1.02l-4.54,2.69c-0.51,0.3-1.32,0.35-1.75,0.11l0,0c-0.43-0.24-0.36-0.72,0.15-1.02l4.54-2.69
			C144.2,239.33,145.01,239.28,145.44,239.53z"/>
		<path id="矩形_00000057861844136131035390000008842370943227631542_" class="st5" d="M137.87,243.92L137.87,243.92
			c0.43,0.24,0.36,0.72-0.15,1.02l-0.88,0.52c-0.51,0.3-1.32,0.35-1.75,0.11l0,0c-0.43-0.24-0.36-0.72,0.15-1.02l0.88-0.52
			C136.67,243.7,137.44,243.67,137.87,243.92z"/>
	</g>
	<path id="矩形_00000171709193285721527400000014622135407749553332_" class="st3" d="M199.43,231.56L199.43,231.56
		c0.58-0.42,1.59-0.06,2.19,0.78l1.02,1.43c0.6,0.84,0.61,1.91,0.03,2.33l0,0c-0.58,0.42-1.59,0.06-2.19-0.78l-1.02-1.43
		C198.82,232.99,198.85,231.97,199.43,231.56z"/>
	<g>
		<g>
			<polygon class="st3" points="223.67,295.5 201.77,282.86 201.77,260.96 223.67,273.6 			"/>
			<polygon class="st3" points="223.67,295.5 245.57,282.86 245.57,260.96 223.67,273.6 			"/>
			<polygon class="st4" points="223.75,273.67 201.77,260.98 223.59,248.27 245.57,260.96 			"/>
		</g>
		<path id="矩形_00000119837517589275667280000004500461190526882237_" class="st3" d="M216.41,255.31L216.41,255.31
			c0.43,0.24,0.36,0.72-0.15,1.02l-4.54,2.69c-0.51,0.3-1.32,0.35-1.75,0.11l0,0c-0.43-0.24-0.36-0.72,0.15-1.02l4.54-2.69
			C215.17,255.12,215.98,255.07,216.41,255.31z"/>
		<path id="矩形_00000113313367439791237100000007586929020423460020_" class="st3" d="M208.18,260.18L208.18,260.18
			c0.43,0.24,0.36,0.72-0.15,1.02l-0.88,0.52c-0.51,0.3-1.32,0.35-1.75,0.11l0,0c-0.43-0.24-0.36-0.72,0.15-1.02l0.88-0.52
			C206.98,259.96,207.75,259.94,208.18,260.18z"/>
	</g>
	<g>
		<polygon class="st2" points="151.2,308.1 129.3,295.46 129.3,273.56 151.2,286.2 		"/>
		<polygon class="st3" points="151.2,308.1 173.1,295.46 173.1,273.56 151.2,286.2 		"/>
		<polygon class="st4" points="151.28,286.27 129.3,273.58 151.12,260.87 173.1,273.56 		"/>
		<path id="矩形_00000108291993854735191880000009220003679593272758_" class="st5" d="M144.26,268.08L144.26,268.08
			c0.43,0.24,0.36,0.72-0.15,1.02l-4.54,2.69c-0.51,0.3-1.32,0.35-1.75,0.11l0,0c-0.43-0.24-0.36-0.72,0.15-1.02l4.54-2.69
			C143.02,267.88,143.83,267.83,144.26,268.08z"/>
		<path id="矩形_00000152975957861064394030000018433102099329114029_" class="st5" d="M136.69,272.47L136.69,272.47
			c0.43,0.24,0.36,0.72-0.15,1.02l-0.88,0.52c-0.51,0.3-1.32,0.35-1.75,0.11l0,0c-0.43-0.24-0.36-0.72,0.15-1.02l0.88-0.52
			C135.49,272.25,136.26,272.22,136.69,272.47z"/>
	</g>
	<g>
		<polygon class="st3" points="215.97,265.13 194.07,252.48 194.07,230.58 215.97,243.23 		"/>
		<polygon class="st3" points="215.97,265.13 237.87,252.48 237.87,230.58 215.97,243.23 		"/>
		<polygon class="st4" points="216.05,243.3 194.07,230.61 215.89,217.89 237.87,230.58 		"/>
		<path id="矩形_00000058553323764223514830000003490145920871739526_" class="st3" d="M208.71,225.51L208.71,225.51
			c0.43,0.24,0.36,0.72-0.15,1.02l-4.54,2.69c-0.51,0.3-1.32,0.35-1.75,0.11l0,0c-0.43-0.24-0.36-0.72,0.15-1.02l4.54-2.69
			C207.47,225.31,208.28,225.26,208.71,225.51z"/>
		<path id="矩形_00000007402712855919275420000002244523683204023717_" class="st3" d="M201.14,229.9L201.14,229.9
			c0.43,0.24,0.36,0.72-0.15,1.02l-0.88,0.52c-0.51,0.3-1.32,0.35-1.75,0.11l0,0c-0.43-0.24-0.36-0.72,0.15-1.02l0.88-0.52
			C199.94,229.68,200.71,229.66,201.14,229.9z"/>
	</g>
	<g>
		<polygon class="st2" points="234.62,321.53 212.72,308.88 212.72,286.98 234.62,299.63 		"/>
		<polygon class="st3" points="234.62,321.53 256.52,308.88 256.52,286.98 234.62,299.63 		"/>
		<polygon class="st4" points="234.7,299.69 212.72,287 234.54,274.29 256.52,286.98 		"/>
		<path id="矩形_00000150803874836512844570000016570232933959825062_" class="st3" d="M227.36,281.91L227.36,281.91
			c0.43,0.24,0.36,0.72-0.15,1.02l-4.54,2.69c-0.51,0.3-1.32,0.35-1.75,0.11l0,0c-0.43-0.24-0.36-0.72,0.15-1.02l4.54-2.69
			C226.12,281.71,226.93,281.66,227.36,281.91z"/>
		<path id="矩形_00000019657312735284439320000001155125854875381134_" class="st3" d="M219.79,286.3L219.79,286.3
			c0.43,0.24,0.36,0.72-0.15,1.02l-0.88,0.52c-0.51,0.3-1.32,0.35-1.75,0.11l0,0c-0.43-0.24-0.36-0.72,0.15-1.02l0.88-0.52
			C218.59,286.08,219.36,286.05,219.79,286.3z"/>
	</g>
	<g>
		<polygon class="st2" points="209.68,296.07 187.78,283.43 187.78,261.53 209.68,274.17 		"/>
		<polygon class="st3" points="209.68,296.07 231.58,283.43 231.58,261.53 209.68,274.17 		"/>
		<polygon class="st4" points="209.76,274.24 187.78,261.55 209.6,248.84 231.58,261.53 		"/>
		<path id="矩形_00000094592435499019916790000005185546963400270748_" class="st3" d="M202.42,256.46L202.42,256.46
			c0.43,0.24,0.36,0.72-0.15,1.02l-4.54,2.69c-0.51,0.3-1.32,0.35-1.75,0.11l0,0c-0.43-0.24-0.36-0.72,0.15-1.02l4.54-2.69
			C201.18,256.26,201.99,256.21,202.42,256.46z"/>
		<path id="矩形_00000044874006084009637080000017368748485768580746_" class="st3" d="M194.85,260.85L194.85,260.85
			c0.43,0.24,0.36,0.72-0.15,1.02l-0.88,0.52c-0.51,0.3-1.32,0.35-1.75,0.11l0,0c-0.43-0.24-0.36-0.72,0.15-1.02l0.88-0.52
			C193.65,260.63,194.42,260.6,194.85,260.85z"/>
	</g>
	<g>
		<polygon class="st2" points="194.44,251.04 172.54,238.39 172.54,216.49 194.44,229.14 		"/>
		<polygon class="st3" points="194.44,251.04 216.34,238.39 216.34,216.49 194.44,229.14 		"/>
		<polygon class="st4" points="194.52,229.2 172.54,216.51 194.37,203.8 216.35,216.49 		"/>
		<path id="矩形_00000143588426642419264260000002873791457091888271_" class="st3" d="M187.19,211.42L187.19,211.42
			c0.43,0.24,0.36,0.72-0.15,1.02l-4.54,2.69c-0.51,0.3-1.32,0.35-1.75,0.11l0,0c-0.43-0.24-0.36-0.72,0.15-1.02l4.54-2.69
			C185.95,211.22,186.76,211.17,187.19,211.42z"/>
		<path id="矩形_00000103230515038816527500000008410248749794766240_" class="st3" d="M179.62,215.81L179.62,215.81
			c0.43,0.24,0.36,0.72-0.15,1.02l-0.88,0.52c-0.51,0.3-1.32,0.35-1.75,0.11l0,0c-0.43-0.24-0.36-0.72,0.15-1.02l0.88-0.52
			C178.42,215.59,179.19,215.56,179.62,215.81z"/>
	</g>
	<g>
		<polygon class="st2" points="187.43,225.35 165.53,212.71 165.53,190.81 187.43,203.45 		"/>
		<polygon class="st3" points="187.43,225.35 209.33,212.71 209.33,190.81 187.43,203.45 		"/>
		<polygon class="st4" points="187.51,203.52 165.53,190.83 187.35,178.12 209.33,190.81 		"/>
		<path id="矩形_00000019662155001817463070000018337255576784740516_" class="st5" d="M180.49,185.33L180.49,185.33
			c0.43,0.24,0.36,0.72-0.15,1.02l-4.54,2.69c-0.51,0.3-1.32,0.35-1.75,0.11l0,0c-0.43-0.24-0.36-0.72,0.15-1.02l4.54-2.69
			C179.25,185.13,180.06,185.08,180.49,185.33z"/>
		<path id="矩形_00000071530797266799779220000009289015623535716244_" class="st5" d="M172.92,189.72L172.92,189.72
			c0.43,0.24,0.36,0.72-0.15,1.02l-0.88,0.52c-0.51,0.3-1.32,0.35-1.75,0.11l0,0c-0.43-0.24-0.36-0.72,0.15-1.02l0.88-0.52
			C171.72,189.5,172.49,189.48,172.92,189.72z"/>
	</g>
</g>
<path id="矩形_00000000933548998852903250000016169523102504339119_" class="st3" d="M182.91,255.84L182.91,255.84
	c0.92-0.65,2.5-0.09,3.44,1.22l1.61,2.25c0.94,1.31,0.96,3,0.04,3.65l0,0c-0.92,0.65-2.5,0.09-3.44-1.22l-1.61-2.25
	C181.95,258.09,181.99,256.5,182.91,255.84z"/>
<g>
	<g>
		<g>
			<polygon class="st2" points="167.93,339.2 133.54,319.34 133.54,284.95 167.93,304.81 			"/>
			<polygon class="st3" points="167.93,339.2 202.33,319.34 202.33,284.95 167.93,304.81 			"/>
			<polygon class="st4" points="168.06,304.91 133.54,284.98 167.81,265.02 202.33,284.95 			"/>
		</g>
		<path id="矩形_00000128460044982284752560000011374711108577257887_" class="st5" d="M156.85,275.67L156.85,275.67
			c0.68,0.38,0.56,1.12-0.24,1.6l-7.14,4.22c-0.81,0.48-2.08,0.56-2.75,0.17l0,0c-0.68-0.38-0.56-1.12,0.24-1.6l7.14-4.22
			C154.9,275.37,156.17,275.29,156.85,275.67z"/>
		<path id="矩形_00000013164963560768695520000003392376985704708264_" class="st5" d="M143.93,283.32L143.93,283.32
			c0.68,0.38,0.56,1.12-0.24,1.6l-1.38,0.82c-0.81,0.48-2.08,0.56-2.75,0.17l0,0c-0.68-0.38-0.56-1.12,0.24-1.6l1.38-0.82
			C142.04,282.98,143.25,282.93,143.93,283.32z"/>
	</g>
	<g>
		<path class="st7" d="M187.61,310.02v1.71c-0.06,0.04-0.36,0.24-0.97,0.59c-0.51,0.29-0.88,0.47-1.01,0.53v-1.71
			c-1.97,1.23-3.43,2.49-3.43,3.02c0,0.52,1.47,0.13,3.43-0.87c0.13-0.06,0.49-0.25,1-0.54c0.64-0.36,0.93-0.55,0.98-0.58l0,0
			c1.96-1.22,3.43-2.49,3.43-3.01S189.57,309.02,187.61,310.02z"/>
		<path class="st7" d="M194.46,307.5l-2.86-6.06c-0.02-0.04-0.06-0.05-0.11-0.03l-9.74,5.51c-0.05,0.03-0.09,0.08-0.11,0.15
			l-2.86,9.3c-0.02,0.07-0.01,0.14,0.02,0.16l7.73,5.08c0.05,0.03,0.12-0.01,0.16-0.09l7.73-13.84
			C194.47,307.62,194.48,307.55,194.46,307.5z M187.61,312.58v4.9l-1.98,1.12v-4.9c-2.23,1.13-3.9,1.51-3.9,0.84
			c0-0.67,1.67-2.19,3.9-3.58v-1.53l-2.74,1.55v-2.33l7.46-4.22v2.33l-2.74,1.55v1.53c2.22-1.13,3.89-1.51,3.89-0.84
			C191.51,309.68,189.83,311.19,187.61,312.58z"/>
		<polygon class="st7" points="187.61,309.85 187.61,309.85 187.61,309.85 		"/>
	</g>
</g>
<g>
	<g>
		<polygon class="st2" points="181.37,295.38 146.98,275.52 146.98,241.12 181.37,260.98 		"/>
		<polygon class="st3" points="181.37,295.38 215.77,275.52 215.77,241.12 181.37,260.98 		"/>
		<polygon class="st4" points="181.5,261.09 146.98,241.16 181.25,221.19 215.77,241.12 		"/>
		<path id="矩形_00000043448541530548057740000016906345255289543814_" class="st5" d="M170.29,232.75L170.29,232.75
			c0.68,0.38,0.56,1.12-0.24,1.6l-7.14,4.22c-0.81,0.48-2.08,0.56-2.75,0.17l0,0c-0.68-0.38-0.56-1.12,0.24-1.6l7.14-4.22
			C168.34,232.44,169.61,232.36,170.29,232.75z"/>
		<path id="矩形_00000132079447353184840480000002607363019218575530_" class="st5" d="M158.41,239.65L158.41,239.65
			c0.68,0.38,0.56,1.12-0.24,1.6l-1.38,0.82c-0.81,0.48-2.08,0.56-2.75,0.17l0,0c-0.68-0.38-0.56-1.12,0.24-1.6l1.38-0.82
			C156.52,239.31,157.73,239.26,158.41,239.65z"/>
	</g>
	<g id="Layer_2_00000149351348720023517500000012722676176538792853_">
		<g id="Layer_1-2_00000169524706651652865790000004092240227012539312_">
			<g id="Page-1_00000127020736293781695140000017177698553006155396_">
				<g id="wbtc_colour_00000169522097119543132590000016956421464544675478_">
					<path id="Shape_00000065058781101431473860000000187611922769663932_" class="st0" d="M204.52,258.48l-0.44,0.84
						c2.19,1.98,2.19,6.88,0,11.29l0.44,0.34c2.43-4.88,2.43-10.32,0-12.49V258.48z"/>
					<path id="Shape-2_00000170257485063290297980000006068556312757078931_" class="st0" d="M195.23,263.71
						c2.39-4.26,6.06-6.3,8.45-4.71l0.44-0.84c-2.64-1.78-6.7,0.48-9.34,5.2L195.23,263.71z"/>
					<path id="Shape-3_00000039830430749088632610000017895205124637603519_" class="st0" d="M194.81,275.78
						c-2.18-1.98-2.18-6.87,0-11.29l-0.44-0.34c-2.43,4.88-2.43,10.32,0,12.49L194.81,275.78z"/>
					<path id="Shape-4_00000052797169200412410770000011303173657676585362_" class="st0" d="M203.67,271.39
						c-2.39,4.26-6.06,6.3-8.45,4.71l-0.44,0.84c2.64,1.78,6.7-0.48,9.34-5.2L203.67,271.39z"/>
					<path id="Shape-5_00000117649112825934216230000004876335251495434161_" class="st0" d="M202.24,264.02
						c-0.09-1.18-0.88-1.15-1.89-0.72v-1.7l-0.78,0.43v1.67c-0.2,0.11-0.41,0.23-0.62,0.35v-1.67l-0.77,0.43v1.71l-1.58,0.88v1.11
						c0,0,0.57-0.33,0.57-0.32c0.22-0.15,0.41-0.06,0.44,0.21v4.68c0,0.1-0.04,0.21-0.09,0.31c-0.05,0.1-0.13,0.17-0.2,0.2
						c0.01,0.01-0.57,0.32-0.57,0.32l-0.15,1.33l1.56-0.87v1.74l0.78-0.43v-1.71l0.62-0.35v1.7l0.78-0.43v-1.72
						c1.31-0.84,2.23-1.78,2.35-3.49c0.09-1.38-0.37-1.71-1.12-1.53C202.02,265.6,202.3,264.89,202.24,264.02z M201.15,268.33
						c0,1.29-1.66,2.07-2.18,2.36v-2.29C199.49,268.11,201.15,266.98,201.15,268.33z M200.79,265.3c0,1.18-1.38,1.81-1.82,2.05
						v-2.08C199.4,265.03,200.79,264.07,200.79,265.3z"/>
					<path id="Shape-6_00000163050873124574717280000007081311254416894095_" class="st0" d="M199.44,278.31
						c-4.45,2.48-8.05-0.33-8.05-6.28c0-5.94,3.61-12.77,8.05-15.25c4.45-2.48,8.05,0.33,8.05,6.27
						C207.5,269.01,203.89,275.83,199.44,278.31C199.45,278.31,199.45,278.31,199.44,278.31z M199.44,257.63
						c-4.1,2.29-7.42,8.58-7.41,14.05c0,5.47,3.33,8.06,7.42,5.77c4.09-2.29,7.41-8.57,7.41-14.04
						C206.87,257.94,203.55,255.34,199.44,257.63C199.45,257.63,199.45,257.63,199.44,257.63z"/>
				</g>
			</g>
		</g>
	</g>
</g>
<g>
	<path class="st2" d="M135.89,208.57l-93.07,54.22v-98.82l84.75-49.37c8.54-4.32,12.42-1.6,12.42,7.14v79.69
		C140,204.37,138.43,207.09,135.89,208.57z"/>
	<path class="st4" d="M149.44,216.82l-93.07,54.22v-98.82l84.75-49.37c8.54-4.32,12.42-1.6,12.42,7.14v79.69
		C153.54,212.62,151.98,215.34,149.44,216.82z"/>
	<polygon class="st2" points="56.37,271.04 42.82,262.91 42.82,164.13 56.37,172.25 	"/>
	
		<ellipse transform="matrix(0.4157 -0.9095 0.9095 0.4157 -83.6859 230.3878)" class="st7" cx="137.47" cy="180.33" rx="9.38" ry="5.12"/>
</g>
<radialGradient id="SVGID_1_" cx="-4106.6128" cy="2403.8682" r="37.8577" gradientTransform="matrix(-1.0502 0.5314 -0.0751 0.3464 -4027.7351 1688.4534)" gradientUnits="userSpaceOnUse">
	<stop  offset="0" style="stop-color:#B8B3D4"/>
	<stop  offset="0.3457" style="stop-color:#BAB6D6;stop-opacity:0.6543"/>
	<stop  offset="0.6064" style="stop-color:#C2C0DA;stop-opacity:0.3936"/>
	<stop  offset="0.8384" style="stop-color:#D0D0E3;stop-opacity:0.1616"/>
	<stop  offset="1" style="stop-color:#DDE0EB;stop-opacity:0"/>
</radialGradient>
<path style="opacity:0.29;fill:url(#SVGID_1_);" d="M72.65,345.39c19.96-15.46,50.35-30.91,67.89-34.51s15.58,6.02-4.38,21.48
	c-19.96,15.46-50.35,30.91-67.89,34.51S52.7,360.85,72.65,345.39z"/>
<g>
	<path id="矩形_00000003815607589243554020000013261222974872552117_" class="st14" d="M148.57,390.03L148.57,390.03
		c0.62,0,1.15,0.76,1.15,1.64v1.52c0,0.88-0.53,1.64-1.15,1.64l0,0c-0.62,0-1.15-0.76-1.15-1.64v-1.52
		C147.42,390.72,147.95,390.03,148.57,390.03z"/>
	
		<radialGradient id="SVGID_00000030450929492316175570000013542234958653611174_" cx="117.025" cy="424.1551" r="29.1582" gradientTransform="matrix(1 0 0 0.5898 0 173.9913)" gradientUnits="userSpaceOnUse">
		<stop  offset="0" style="stop-color:#B8B3D4"/>
		<stop  offset="0.3457" style="stop-color:#BAB6D6;stop-opacity:0.6543"/>
		<stop  offset="0.6064" style="stop-color:#C2C0DA;stop-opacity:0.3936"/>
		<stop  offset="0.8384" style="stop-color:#D0D0E3;stop-opacity:0.1616"/>
		<stop  offset="1" style="stop-color:#DDE0EB;stop-opacity:0"/>
	</radialGradient>
	<path style="opacity:0.67;fill:url(#SVGID_00000030450929492316175570000013542234958653611174_);" d="M142.02,410.08
		c-13.68-7.9-35.96-8-49.77-0.23s-13.91,20.48-0.23,28.37c13.68,7.9,35.96,8,49.77,0.23S155.7,417.98,142.02,410.08z"/>
	<g>
		<path class="st81" d="M155.53,374.05v-49.28c0-0.23,0.02-0.45,0.02-0.68c0-22.91-18.57-41.48-41.48-41.48
			c-22.91,0-41.48,18.57-41.48,41.48c0,0.36,0.02,0.72,0.03,1.07v44.66h-0.03v22.67c0,2.84,2.3,5.15,5.15,5.15
			c2.84,0,5.15-2.31,5.15-5.15v-0.83c0.56,0.36,1.13,0.72,1.74,1.07c1.83,1.06,3.79,1.99,5.85,2.81v8.2c0,2.84,2.3,5.15,5.15,5.15
			s5.15-2.31,5.15-5.15v-5.23c2.95,0.57,5.99,0.96,9.06,1.14v12.59c0,2.84,2.3,5.15,5.15,5.15c2.84,0,5.15-2.31,5.15-5.15v-12.7
			c3.39-0.28,6.73-0.8,9.93-1.55v6.36c0,2.84,2.3,5.15,5.15,5.15s5.15-2.31,5.15-5.15v-9.87c1-0.47,1.97-0.96,2.91-1.49
			c0.7-0.39,1.35-0.8,1.99-1.21v0.71c0,2.84,2.3,5.15,5.15,5.15c2.84,0,5.15-2.31,5.15-5.15v-18.45H155.53z"/>
		
			<radialGradient id="SVGID_00000142874213559754334830000008864669453980525480_" cx="138.7477" cy="300.0344" r="106.6854" gradientUnits="userSpaceOnUse">
			<stop  offset="0.0124" style="stop-color:#DD78CE"/>
			<stop  offset="0.4936" style="stop-color:#A7589A"/>
			<stop  offset="0.5829" style="stop-color:#A0619E"/>
			<stop  offset="0.7273" style="stop-color:#8E79A8"/>
			<stop  offset="0.9078" style="stop-color:#709FB9"/>
			<stop  offset="1" style="stop-color:#5EB6C3"/>
		</radialGradient>
		<path style="fill:url(#SVGID_00000142874213559754334830000008864669453980525480_);" d="M155.53,374.05v-49.28
			c0-0.23,0.02-0.45,0.02-0.68c0-22.91-18.57-41.48-41.48-41.48c-22.91,0-41.48,18.57-41.48,41.48c0,0.36,0.02,0.72,0.03,1.07v44.66
			h-0.03v22.67c0,2.84,2.3,5.15,5.15,5.15c2.84,0,5.15-2.31,5.15-5.15v-0.83c0.56,0.36,1.13,0.72,1.74,1.07
			c1.83,1.06,3.79,1.99,5.85,2.81v8.2c0,2.84,2.3,5.15,5.15,5.15s5.15-2.31,5.15-5.15v-5.23c2.95,0.57,5.99,0.96,9.06,1.14v12.59
			c0,2.84,2.3,5.15,5.15,5.15c2.84,0,5.15-2.31,5.15-5.15v-12.7c3.39-0.28,6.73-0.8,9.93-1.55v6.36c0,2.84,2.3,5.15,5.15,5.15
			s5.15-2.31,5.15-5.15v-9.87c1-0.47,1.97-0.96,2.91-1.49c0.7-0.39,1.35-0.8,1.99-1.21v0.71c0,2.84,2.3,5.15,5.15,5.15
			c2.84,0,5.15-2.31,5.15-5.15v-18.45H155.53z"/>
	</g>
	<path id="矩形_00000171694894255067399250000009034742014192140694_" class="st14" d="M76.47,360.21L76.47,360.21
		c1.12,0,2.09,1.38,2.09,2.99v14.25c0,1.61-0.96,2.99-2.09,2.99l0,0c-1.12,0-2.09-1.38-2.09-2.99V363.2
		C74.39,361.59,75.35,360.21,76.47,360.21z"/>
	<path id="矩形_00000183247816928767321900000015061808167135862162_" class="st14" d="M137.78,297.12L137.78,297.12
		c1.37-1.02,3.68-0.37,5.02,1.41l2.29,3.06c1.34,1.78,1.31,4.19-0.06,5.22l0,0c-1.37,1.02-3.68,0.37-5.02-1.41l-2.29-3.06
		C136.29,300.42,136.41,298.14,137.78,297.12z"/>
	<path id="矩形_00000136396410385586090130000002114204814497997240_" class="st14" d="M93.87,396.8L93.87,396.8
		c1.12,0,2.09,1.38,2.09,2.99v2.76c0,1.61-0.96,2.99-2.09,2.99l0,0c-1.12,0-2.09-1.38-2.09-2.99v-2.76
		C91.79,398.06,92.75,396.8,93.87,396.8z"/>
	<path id="矩形_00000135650782189384123610000017236745639232838303_" class="st14" d="M76.23,386L76.23,386
		c1.12,0,2.09,1.38,2.09,2.99v2.76c0,1.61-0.96,2.99-2.09,2.99l0,0c-1.12,0-2.09-1.38-2.09-2.99v-2.76
		C74.14,387.26,75.1,386,76.23,386z"/>
	<path id="矩形_00000039092368458992106780000000645833254274049464_" class="st14" d="M114.06,405.54L114.06,405.54
		c1.12,0,2.09,1.38,2.09,2.99v2.76c0,1.61-0.96,2.99-2.09,2.99l0,0c-1.12,0-2.09-1.38-2.09-2.99v-2.76
		C111.98,406.8,112.94,405.54,114.06,405.54z"/>
	<path id="矩形_00000044138994540286054770000008343922041797945495_" class="st14" d="M133.76,400.19L133.76,400.19
		c0.89,0,1.66,1.1,1.66,2.37v2.19c0,1.28-0.76,2.37-1.66,2.37l0,0c-0.89,0-1.66-1.1-1.66-2.37v-2.19
		C132.11,401.2,132.87,400.19,133.76,400.19z"/>
	<g>
		<path id="椭圆形_00000131361704513822836830000016022114457789136031_" class="st83" d="M124.07,355.08
			c4.06-0.17,7.1-3.66,7.09-6c0-0.94-0.55-1.75-1.38-1.81c-1.29-0.13-3.23,0.7-5.72,0.8c-2.31,0.1-3.78-0.5-5.53-0.42
			c-1.84,0.08-1.75,2.22-1.47,3.05C117.71,353.01,119.92,355.25,124.07,355.08z"/>
		<path id="椭圆形_00000128456352546275628570000013909899437292470701_" class="st84" d="M124.16,353.11
			c4.15-0.17,7.19-3.38,7.19-5.63c0-0.84-0.55-1.57-1.38-1.63c-1.29-0.13-3.32,0.7-5.81,0.8c-2.4,0.1-3.78-0.5-5.62-0.43
			c-1.84,0.08-1.75,2.13-1.48,2.87C117.71,351.22,120.01,353.28,124.16,353.11z"/>
	</g>
	<g>
		
			<ellipse transform="matrix(0.5671 -0.8237 0.8237 0.5671 -226.7623 231.8084)" class="st84" cx="107.13" cy="331.61" rx="9.5" ry="9.1"/>
		<path id="形状结合_00000155122769449738814970000007459829606100747163_" class="st85" d="M108.32,321.65
			c4.24-0.18,7.66,3.98,7.66,9.22c0,0.19,0,0.37,0,0.56l0,0.56c0-5.33-3.33-9.59-7.48-9.42c-4.15,0.17-7.46,4.61-7.46,10.04
			c0,1.03,0.09,2.05,0.37,2.98c-0.46-1.2-0.74-2.59-0.74-3.99C100.68,326.27,104.08,321.82,108.32,321.65z"/>
		<path id="形状结合_00000088827138005424475060000017637778482518230936_" class="st86" d="M108.32,320.52
			c4.7-0.2,8.58,4.41,8.58,10.31s-3.86,10.83-8.57,11.02c-4.7,0.2-8.58-4.41-8.58-10.31C99.75,325.65,103.53,320.72,108.32,320.52z
			 M108.32,321.65c-4.24,0.18-7.65,4.62-7.64,9.86c0,5.24,3.42,9.4,7.66,9.22c4.24-0.18,7.65-4.62,7.64-9.86
			C115.98,325.63,112.47,321.47,108.32,321.65z"/>
	</g>
	<g>
		
			<ellipse transform="matrix(0.5671 -0.8237 0.8237 0.5671 -212.3271 256.5117)" class="st84" cx="137.84" cy="330.23" rx="9.5" ry="9.1"/>
		<path id="形状结合_00000041268273137469590620000004765197014587934901_" class="st85" d="M138.84,320.27
			c4.24-0.18,7.66,3.98,7.66,9.22c0,0.19,0,0.37,0,0.56l0,0.56c0-5.33-3.33-9.59-7.48-9.42c-4.15,0.17-7.46,4.61-7.46,10.04
			c0,1.03,0.09,2.05,0.37,2.98c-0.46-1.2-0.74-2.59-0.74-3.99C131.19,324.9,134.6,320.45,138.84,320.27z"/>
		<path id="形状结合_00000008860574950884165590000011753648654087837860_" class="st86" d="M138.84,319.15
			c4.7-0.2,8.58,4.41,8.58,10.31c0.01,5.89-3.86,10.83-8.57,11.02c-4.7,0.2-8.58-4.41-8.58-10.31S134.04,319.35,138.84,319.15z
			 M138.84,320.27c-4.24,0.18-7.65,4.62-7.64,9.86c0,5.24,3.42,9.4,7.66,9.22c4.24-0.18,7.65-4.62,7.64-9.86
			C146.49,324.26,142.99,320.1,138.84,320.27z"/>
	</g>
	<circle class="st83" cx="107.13" cy="331.61" r="3.77"/>
	<circle class="st83" cx="137.67" cy="330.48" r="3.77"/>
</g>
<polygon class="st3" points="47.44,166.9 132.24,116.9 141.12,122.84 56.37,172.25 "/>
<g>
	<g>
		<polygon class="st2" points="220.3,371.74 185.9,351.89 185.9,317.49 220.3,337.35 		"/>
		<polygon class="st3" points="220.3,371.74 254.69,351.89 254.69,317.49 220.3,337.35 		"/>
		<polygon class="st4" points="220.42,337.46 185.9,317.53 220.18,297.56 254.69,317.49 		"/>
	</g>
	<path id="矩形_00000062176820489208126420000014446796841423610791_" class="st5" d="M209.22,308.21L209.22,308.21
		c0.68,0.38,0.56,1.12-0.24,1.6l-7.14,4.22c-0.81,0.48-2.08,0.56-2.75,0.17l0,0c-0.68-0.38-0.56-1.12,0.24-1.6l7.14-4.22
		C207.27,307.91,208.54,307.83,209.22,308.21z"/>
	<path id="矩形_00000013162173754037115520000006499575845244856974_" class="st5" d="M196.29,315.86L196.29,315.86
		c0.68,0.38,0.56,1.12-0.24,1.6l-1.38,0.82c-0.81,0.48-2.08,0.56-2.75,0.17l0,0c-0.68-0.38-0.56-1.12,0.24-1.6l1.38-0.82
		C194.41,315.52,195.62,315.48,196.29,315.86z"/>
</g>
<g id="Layer_x0020_1_00000025414759159716597830000013848664676837709234_">
	<g id="_1421394342400_00000024693168387509389740000011353865409224278668_">
		<g>
			<polygon class="st20" points="202.19,333.94 202.07,334.33 202.07,347.64 202.19,347.85 207.61,347.39 			"/>
			<polygon class="st20" points="202.19,333.94 196.77,341 202.19,347.85 202.19,341.39 			"/>
			<polygon class="st20" points="202.19,349.02 202.12,349.07 202.12,353.81 202.19,354.07 207.61,348.56 			"/>
			<polygon class="st20" points="202.19,354.07 202.19,349.02 196.77,342.17 			"/>
			<polygon class="st20" points="202.19,347.85 207.61,347.39 202.19,341.39 			"/>
			<polygon class="st20" points="196.77,341 202.19,347.85 202.19,341.39 			"/>
		</g>
	</g>
</g>
</svg>
