<?xml version="1.0" encoding="utf-8"?>
<!-- Generator: Adobe Illustrator 27.8.1, SVG Export Plug-In . SVG Version: 6.00 Build 0)  -->
<svg version="1.1" id="Слой_1" xmlns="http://www.w3.org/2000/svg" xmlns:xlink="http://www.w3.org/1999/xlink" x="0px" y="0px"
	 viewBox="0 0 290 269.62" style="enable-background:new 0 0 290 269.62;" xml:space="preserve">
<style type="text/css">
	.st0{stroke:#000000;stroke-linecap:round;stroke-linejoin:round;stroke-miterlimit:10;}
	.st1{fill:#222846;stroke:#000000;stroke-linecap:round;stroke-linejoin:round;stroke-miterlimit:10;}
	.st2{fill-rule:evenodd;clip-rule:evenodd;stroke:#000000;stroke-linecap:round;stroke-linejoin:round;stroke-miterlimit:10;}
	
		.st3{fill-rule:evenodd;clip-rule:evenodd;fill:#222846;stroke:#000000;stroke-linecap:round;stroke-linejoin:round;stroke-miterlimit:10;}
	
		.st4{fill-rule:evenodd;clip-rule:evenodd;fill:#4A5479;stroke:#000000;stroke-linecap:round;stroke-linejoin:round;stroke-miterlimit:10;}
	.st5{fill-rule:evenodd;clip-rule:evenodd;fill:#5C6A91;}
	.st6{fill:#6D75A2;}
	.st7{stroke:#1A213A;stroke-linecap:round;stroke-linejoin:round;stroke-miterlimit:10;}
	.st8{stroke:#4A5479;stroke-linecap:round;stroke-linejoin:round;stroke-miterlimit:10;}
	.st9{fill:url(#SVGID_1_);}
	.st10{fill:url(#SVGID_00000069372763938572839930000017947742561655630223_);}
	.st11{fill:url(#SVGID_00000137818144392270362970000010261802482128662160_);}
	
		.st12{fill:none;stroke:url(#SVGID_00000104680553617854051850000018015999200412553389_);stroke-width:5;stroke-linecap:round;stroke-linejoin:round;stroke-miterlimit:10;}
	.st13{fill:url(#SVGID_00000029014640137529407440000017195027642545522073_);}
	.st14{fill-rule:evenodd;clip-rule:evenodd;fill:#1AD4B3;}
	.st15{fill-rule:evenodd;clip-rule:evenodd;fill:#FC4F83;}
	.st16{fill:#4A5479;stroke:#000000;stroke-linecap:round;stroke-linejoin:round;stroke-miterlimit:10;}
	
		.st17{fill:url(#SVGID_00000168831537893254591350000012199744874966362768_);stroke:#1D1D1B;stroke-width:0.2115;stroke-linecap:round;stroke-linejoin:round;stroke-miterlimit:10;}
	.st18{fill-rule:evenodd;clip-rule:evenodd;}
	
		.st19{fill:url(#SVGID_00000026867994874387298420000014451372857840819379_);stroke:#1D1D1B;stroke-width:0.2115;stroke-linecap:round;stroke-linejoin:round;stroke-miterlimit:10;}
	
		.st20{fill:url(#SVGID_00000013910459870486182730000006354316778708387750_);stroke:#1D1D1B;stroke-width:0.2115;stroke-linecap:round;stroke-linejoin:round;stroke-miterlimit:10;}
	
		.st21{fill:url(#SVGID_00000032638941746232625590000010424087018922032536_);stroke:#1D1D1B;stroke-width:0.2115;stroke-linecap:round;stroke-linejoin:round;stroke-miterlimit:10;}
	.st22{fill-rule:evenodd;clip-rule:evenodd;fill:url(#SVGID_00000007402276483266102150000010349072418869831045_);}
	.st23{fill-rule:evenodd;clip-rule:evenodd;fill:url(#SVGID_00000145766138370233656100000007710486245726993592_);}
	.st24{fill:url(#SVGID_00000013194983067908998880000007990124098138431114_);}
	.st25{fill:url(#SVGID_00000075132797258972226220000002069813714886583483_);}
	.st26{fill:url(#SVGID_00000034796002426776545820000011311911789080893321_);}
	
		.st27{fill-rule:evenodd;clip-rule:evenodd;fill:#4AA089;stroke:url(#SVGID_00000183938626533042036640000000938920727974411438_);stroke-linecap:round;stroke-linejoin:round;stroke-miterlimit:10;}
	
		.st28{fill-rule:evenodd;clip-rule:evenodd;fill:#4AA089;stroke:url(#SVGID_00000075137661019295538120000002812699078856786876_);stroke-linecap:round;stroke-linejoin:round;stroke-miterlimit:10;}
	
		.st29{fill:none;stroke:url(#SVGID_00000086681322473508463340000004405657845578279838_);stroke-width:5;stroke-linecap:round;stroke-linejoin:round;stroke-miterlimit:10;}
	.st30{fill:url(#SVGID_00000048499255818855377210000016208213501087058334_);}
	
		.st31{fill:none;stroke:url(#SVGID_00000048479583720339887380000005624094947971798145_);stroke-width:5;stroke-linecap:round;stroke-linejoin:round;stroke-miterlimit:10;}
	.st32{fill:url(#SVGID_00000060010043537859438330000013857325101609331889_);}
	
		.st33{fill:none;stroke:url(#SVGID_00000078022446123860703080000017937161060542771896_);stroke-width:5;stroke-linecap:round;stroke-linejoin:round;stroke-miterlimit:10;}
	.st34{fill:url(#SVGID_00000137108736041970121220000006425696935600460952_);}
	.st35{fill:#4A5479;}
	
		.st36{fill-rule:evenodd;clip-rule:evenodd;fill:#1AD4B3;stroke:#111422;stroke-linecap:round;stroke-linejoin:round;stroke-miterlimit:10;}
	
		.st37{fill-rule:evenodd;clip-rule:evenodd;fill:#4AA089;stroke:url(#SVGID_00000165950012514263984750000005978950697280007308_);stroke-linecap:round;stroke-linejoin:round;stroke-miterlimit:10;}
	.st38{fill:#FFFFFF;}
	
		.st39{fill-rule:evenodd;clip-rule:evenodd;fill:#FC4F83;stroke:#111422;stroke-linecap:round;stroke-linejoin:round;stroke-miterlimit:10;}
	
		.st40{fill-rule:evenodd;clip-rule:evenodd;fill:#CB3D61;stroke:#000000;stroke-linecap:round;stroke-linejoin:round;stroke-miterlimit:10;}
	.st41{fill:url(#SVGID_00000156549647162760906650000011024657883542790291_);}
	.st42{fill:url(#SVGID_00000101067720665786067180000003373195972187544705_);}
	.st43{fill:url(#SVGID_00000106145061969931407240000006983541150398318235_);}
	
		.st44{fill:none;stroke:url(#SVGID_00000092456804986431450440000012885193061974915720_);stroke-width:5;stroke-linecap:round;stroke-linejoin:round;stroke-miterlimit:10;}
	.st45{fill:url(#SVGID_00000099661911795692541360000013853802143471158427_);}
	
		.st46{fill:none;stroke:url(#SVGID_00000168831455255877687260000015631980572069410980_);stroke-width:5;stroke-linecap:round;stroke-linejoin:round;stroke-miterlimit:10;}
	.st47{fill:url(#SVGID_00000088093399563364648610000006940822101902375301_);}
	.st48{fill:url(#SVGID_00000119090397997093143480000012581384537814894212_);}
	.st49{fill:#222846;}
	.st50{fill:url(#SVGID_00000111174903177177543800000010207301738595074974_);}
	.st51{fill:url(#SVGID_00000075854556970487385050000018033499495319489665_);}
	.st52{fill:url(#SVGID_00000132055233641318839010000007582795393164845454_);}
	.st53{fill:url(#SVGID_00000030457280123685641690000008652391841827416761_);}
	.st54{fill:url(#SVGID_00000026153240014575826920000003280291807464864175_);}
	.st55{fill:url(#SVGID_00000147928898806707481490000013908407164436358022_);}
	.st56{fill-rule:evenodd;clip-rule:evenodd;fill:#6D75A2;}
	.st57{fill-rule:evenodd;clip-rule:evenodd;fill:#4A5479;}
	.st58{opacity:0.29;fill:url(#SVGID_00000004504314577122848470000010908661311564090805_);enable-background:new    ;}
	.st59{fill:url(#SVGID_00000152236534636321628510000006223280459298208697_);}
	.st60{fill:url(#SVGID_00000155839390479296571690000003185954223884673183_);}
	.st61{fill:url(#SVGID_00000044141606220349026240000010599003064309785225_);}
	.st62{fill-rule:evenodd;clip-rule:evenodd;fill:url(#SVGID_00000130632690599923402700000015719428098317823386_);}
	.st63{fill:url(#SVGID_00000080198077381390627940000003709947452564176808_);}
	.st64{fill:url(#SVGID_00000016779577657601816620000015466166230959876260_);}
	.st65{fill:url(#SVGID_00000100380930818638852610000011043537686106530698_);}
	.st66{fill:url(#SVGID_00000179618870262154209800000007332073247998483645_);}
	.st67{opacity:0.29;fill:url(#SVGID_00000051343692200516561900000009767995193850253469_);enable-background:new    ;}
	.st68{fill-rule:evenodd;clip-rule:evenodd;fill:#222846;}
	
		.st69{fill:none;stroke:url(#SVGID_00000165227308391611088540000009174139395221036435_);stroke-width:5;stroke-linecap:round;stroke-linejoin:round;stroke-miterlimit:10;}
	.st70{fill:url(#SVGID_00000081620690258388167130000014150742674826966918_);}
	
		.st71{fill:none;stroke:url(#SVGID_00000182524646810602331270000003563051763559257279_);stroke-width:5;stroke-linecap:round;stroke-linejoin:round;stroke-miterlimit:10;}
	.st72{fill:url(#SVGID_00000036226291754251103910000011756546538134503571_);}
	
		.st73{fill:none;stroke:url(#SVGID_00000163051541969426930020000007767345742791402161_);stroke-width:5;stroke-linecap:round;stroke-linejoin:round;stroke-miterlimit:10;}
	.st74{fill:url(#SVGID_00000049197640249490529670000006687291661795408800_);}
	
		.st75{fill-rule:evenodd;clip-rule:evenodd;fill:#4AA089;stroke:url(#SVGID_00000065034228634965877800000002021898407048404115_);stroke-linecap:round;stroke-linejoin:round;stroke-miterlimit:10;}
	.st76{fill-rule:evenodd;clip-rule:evenodd;fill:url(#SVGID_00000141439814828255788630000003656008914474672263_);}
	.st77{fill:url(#SVGID_00000116234440071498714960000000763559331237581486_);}
	.st78{fill:url(#SVGID_00000151513849140836086700000004412699241974202522_);}
	.st79{fill:url(#SVGID_00000178887820235926794280000007191884001330260115_);}
	.st80{opacity:0.29;fill:url(#SVGID_00000158716714772330158430000017046918042928431786_);}
	.st81{opacity:0.29;fill:url(#SVGID_00000029737918457718097830000002236663776712556965_);}
	.st82{opacity:0.2563;fill-rule:evenodd;clip-rule:evenodd;fill:#FFFFFF;enable-background:new    ;}
	.st83{opacity:0.67;fill:url(#SVGID_00000108995354708788709690000017767704511659271817_);}
	.st84{fill:#3FA9BD;}
	.st85{fill:url(#SVGID_00000074434249916716930160000003940147754442858662_);}
	.st86{fill-rule:evenodd;clip-rule:evenodd;fill:#555069;}
	.st87{fill-rule:evenodd;clip-rule:evenodd;fill:#FFFFFF;}
	.st88{fill-rule:evenodd;clip-rule:evenodd;fill:#AFAFB1;}
	.st89{fill-rule:evenodd;clip-rule:evenodd;fill:#D3D3D3;}
	.st90{opacity:0.67;fill:url(#SVGID_00000103230779277265102080000011681552152297227141_);}
	.st91{fill:url(#SVGID_00000105394200502696052520000014218107154162305452_);}
	.st92{opacity:0.67;fill:url(#SVGID_00000181809741207175792430000007578341019062244286_);}
	.st93{fill:url(#SVGID_00000030479533335819830070000016440130473632095152_);}
	.st94{opacity:0.67;fill:url(#SVGID_00000173155313093212129690000007119838273552178110_);}
	.st95{fill:url(#SVGID_00000128482794060049681750000009098670196968866730_);}
	.st96{opacity:0.67;fill:url(#SVGID_00000003821926664986384700000001174300097140102530_);}
	.st97{fill:url(#SVGID_00000076593233328852766460000010944340244135525795_);}
	.st98{opacity:0.67;fill:url(#SVGID_00000016761674631217427090000000990662259965337754_);}
	.st99{fill:url(#SVGID_00000020380547136476098220000015853250140196107415_);}
	.st100{fill:#1AD4B3;}
	.st101{opacity:0.67;fill:url(#SVGID_00000008848585532558188200000018086001964776559028_);}
	.st102{fill:url(#SVGID_00000166641784351007178390000012726377115164680337_);}
	.st103{opacity:0.67;fill:url(#SVGID_00000175298867970563814730000001462470050227075208_);}
	.st104{fill:url(#SVGID_00000020385044493748654150000011734280647134679215_);}
	.st105{opacity:0.67;fill:url(#SVGID_00000080896984058792537390000003094789246670407078_);}
	.st106{fill:url(#SVGID_00000091000876311177614170000016365063929550446985_);}
	.st107{opacity:0.67;fill:url(#SVGID_00000075163208227569239970000010200516320711112875_);}
	.st108{fill:url(#SVGID_00000158017919744749658180000008871033848637108400_);}
	.st109{opacity:0.67;fill:url(#SVGID_00000131327481287842581530000017261626796801699771_);}
	.st110{fill:url(#SVGID_00000078004787037818284630000004959365754500222616_);}
	.st111{opacity:0.67;fill:url(#SVGID_00000078743765665414879560000002809963976323703207_);}
	.st112{fill:url(#SVGID_00000085208493982586947040000009792346624390986125_);}
	
		.st113{fill-rule:evenodd;clip-rule:evenodd;fill:none;stroke:#FFFFFF;stroke-width:0.7384;stroke-linecap:round;stroke-linejoin:round;stroke-miterlimit:10;}
	.st114{opacity:0.67;fill:url(#SVGID_00000172414961579967700770000016559670272877266866_);}
	.st115{fill:url(#SVGID_00000000189008020728585330000010470249118868770192_);}
	.st116{opacity:0.67;fill:url(#SVGID_00000090261842046343591270000014864793417770011548_);}
	.st117{fill:url(#SVGID_00000002353937400616310880000002405397068992952210_);}
	.st118{opacity:0.67;fill:url(#SVGID_00000124877810294981930000000005852217880643536049_);}
	.st119{fill:url(#SVGID_00000054225707773415790110000007177836783678939067_);}
	.st120{opacity:0.67;fill:url(#SVGID_00000070813803369702584890000016611092537490573465_);}
	.st121{fill:url(#SVGID_00000131336372685932395190000014631570708443053964_);}
	.st122{opacity:0.67;fill:url(#SVGID_00000060744869267046773670000008858896511545322665_);}
	.st123{fill:url(#SVGID_00000022532190695600879930000007054505317071852457_);}
	.st124{opacity:0.67;fill:url(#SVGID_00000126318723912245011740000007209284151605153726_);}
	.st125{fill:url(#SVGID_00000008841691745425293820000015059829465313190786_);}
	.st126{opacity:0.67;fill:url(#SVGID_00000016781622849426357890000004680406713047914882_);}
	.st127{fill:url(#SVGID_00000136376747309549958370000000565597855793765049_);}
	.st128{opacity:0.67;fill:url(#SVGID_00000005969011816219250660000017920452638486892184_);}
	.st129{fill:url(#SVGID_00000173860941504742342660000011539516997696883355_);}
	.st130{opacity:0.67;fill:url(#SVGID_00000111150067540887864660000017611142445565952416_);enable-background:new    ;}
	.st131{fill:#5EA6B9;}
	.st132{fill:url(#SVGID_00000079456487004234388180000004932584293715376575_);}
	.st133{fill-rule:evenodd;clip-rule:evenodd;fill:#545067;}
	.st134{fill-rule:evenodd;clip-rule:evenodd;fill:#AEAEB0;}
	.st135{fill-rule:evenodd;clip-rule:evenodd;fill:#D2D2D2;}
	.st136{opacity:0.67;fill:url(#SVGID_00000153690465383258941550000008203609019490995107_);enable-background:new    ;}
	.st137{fill:url(#SVGID_00000075878842223284220620000007800202240888245414_);}
	.st138{fill-rule:evenodd;clip-rule:evenodd;fill:#63D0B3;}
	
		.st139{fill-rule:evenodd;clip-rule:evenodd;fill:none;stroke:#000000;stroke-linecap:round;stroke-linejoin:round;stroke-miterlimit:10;}
	.st140{fill-rule:evenodd;clip-rule:evenodd;fill:#E85C83;}
	
		.st141{fill-rule:evenodd;clip-rule:evenodd;fill:#4AA089;stroke:url(#SVGID_00000181808352911037588300000010913701373555620238_);stroke-linecap:round;stroke-linejoin:round;stroke-miterlimit:10;}
	.st142{fill:#5DC29D;}
	.st143{fill:url(#SVGID_00000083774929919763662330000008314884132807972015_);}
	.st144{fill:url(#SVGID_00000163770436460447183280000007670065519804001979_);}
	.st145{fill:#E85C83;}
	.st146{opacity:0.67;fill:url(#SVGID_00000094589997055081139020000010948695996091753901_);enable-background:new    ;}
	.st147{fill:url(#SVGID_00000052824081104722104090000005123597210553633181_);}
	
		.st148{fill:none;stroke:url(#SVGID_00000006674426561213417020000002497811718536665020_);stroke-width:5;stroke-linecap:round;stroke-linejoin:round;stroke-miterlimit:10;}
	.st149{fill:url(#SVGID_00000150797760128586982400000017019529981911304637_);}
	.st150{opacity:0.67;fill:url(#SVGID_00000064356177933443435630000018335620155483856295_);enable-background:new    ;}
	.st151{fill:url(#SVGID_00000147933295968099404020000012970100307726282625_);}
	.st152{opacity:0.67;fill:url(#SVGID_00000070827735769327113140000012581293268895866022_);}
	.st153{fill:url(#SVGID_00000011753649211810118190000016851825116172071838_);}
	.st154{opacity:0.67;fill:url(#SVGID_00000015344603172618061570000002031992880541119653_);}
	.st155{fill:url(#SVGID_00000181795139809763288400000002102866384481133719_);}
	.st156{opacity:0.67;fill:url(#SVGID_00000074428730742904611190000008272010644621489551_);}
	.st157{fill:url(#SVGID_00000044165528921533344420000010032764487429586306_);}
	.st158{opacity:0.67;fill:url(#SVGID_00000047765635175089239430000009724652609467621504_);}
	.st159{fill:url(#SVGID_00000088125584711107206670000009284943085972731317_);}
	.st160{opacity:0.67;fill:url(#SVGID_00000065797250456383816510000003560541962965746621_);}
	.st161{fill:url(#SVGID_00000047748855034923979260000014756532977184790679_);}
	.st162{fill:none;stroke:#000000;stroke-width:22;stroke-linecap:round;stroke-linejoin:round;stroke-miterlimit:10;}
	.st163{fill:url(#SVGID_00000101801274507181917650000002517022267155222145_);}
	.st164{fill:url(#SVGID_00000111877401220000003060000015024817928215394961_);}
	.st165{fill:none;stroke:url(#SVGID_00000070834849061066348540000014261404392396373666_);stroke-width:5;stroke-miterlimit:10;}
	.st166{fill:url(#SVGID_00000118372732451828012070000009203660625733683133_);}
	.st167{fill:none;}
	.st168{opacity:0.67;fill:url(#SVGID_00000042721583744436025250000015863983951446209720_);}
	.st169{fill:url(#SVGID_00000088829051497029175530000004009278025453567130_);}
	.st170{fill:none;stroke:url(#SVGID_00000115492833443064062380000014430420373562391205_);stroke-width:5;stroke-miterlimit:10;}
	.st171{fill:url(#SVGID_00000071521868156239549600000013852070807291246991_);}
	.st172{opacity:0.67;fill:url(#SVGID_00000124139589795939732480000011416226953555680924_);}
	.st173{fill:url(#SVGID_00000039106955473588589990000007635511292007669180_);}
	.st174{opacity:0.67;fill:url(#SVGID_00000021835640130742357080000010717510762777574568_);}
	.st175{fill:url(#SVGID_00000148650506778867255140000001736556080004501378_);}
	.st176{opacity:0.67;fill:url(#SVGID_00000132088729240816547160000014969838435873665159_);}
	.st177{fill:url(#SVGID_00000163754809019245095280000017537157853894827923_);}
</style>
<g>
	<g>
		<polygon class="st2" points="175.36,128.21 153.46,115.56 153.46,93.66 175.36,106.31 		"/>
		<g>
			<polygon class="st3" points="175.36,128.21 197.26,115.56 197.26,93.66 175.36,106.31 			"/>
			
				<linearGradient id="SVGID_1_" gradientUnits="userSpaceOnUse" x1="175.3582" y1="-4972.5552" x2="197.2582" y2="-4972.5552" gradientTransform="matrix(1 0 0 -1 0 -4861.6294)">
				<stop  offset="0" style="stop-color:#DE40CB"/>
				<stop  offset="1" style="stop-color:#3137E4"/>
			</linearGradient>
			<path class="st9" d="M196.52,94.94v20.19l-20.42,11.8v-20.2L196.52,94.94 M197.26,93.66l-21.9,12.64v21.9l21.9-12.64V93.66
				L197.26,93.66z"/>
		</g>
		<polygon class="st4" points="175.44,106.37 153.46,93.68 175.28,80.97 197.26,93.66 		"/>
		<path id="矩形_00000148623313805129071540000007807996957795660682_" class="st5" d="M168.42,88.18L168.42,88.18
			c0.43,0.24,0.36,0.72-0.15,1.02l-4.54,2.69c-0.51,0.3-1.32,0.35-1.75,0.11l0,0c-0.43-0.24-0.36-0.72,0.15-1.02l4.54-2.69
			C167.18,87.98,167.99,87.93,168.42,88.18z"/>
		<path id="矩形_00000118383254599036983700000000543607972685688218_" class="st5" d="M160.85,92.57L160.85,92.57
			c0.43,0.24,0.36,0.72-0.15,1.02l-0.88,0.52c-0.51,0.3-1.32,0.35-1.75,0.11l0,0c-0.43-0.24-0.36-0.72,0.15-1.02l0.88-0.52
			C159.65,92.35,160.42,92.32,160.85,92.57z"/>
	</g>
	<path id="矩形_00000172426292579953570200000006099085767994963896_" class="st3" d="M222.41,80.21L222.41,80.21
		c0.58-0.42,1.59-0.06,2.19,0.78l1.02,1.43c0.6,0.84,0.61,1.91,0.03,2.33l0,0c-0.58,0.42-1.59,0.06-2.19-0.78l-1.02-1.43
		C221.79,81.64,221.82,80.63,222.41,80.21z"/>
	<g>
		<g>
			<g>
				<polygon class="st3" points="246.65,144.16 224.75,131.52 224.75,109.62 246.65,122.26 				"/>
				
					<linearGradient id="SVGID_00000096759155728431628440000014888127768823233416_" gradientUnits="userSpaceOnUse" x1="224.7482" y1="-4988.5151" x2="246.6482" y2="-4988.5151" gradientTransform="matrix(1 0 0 -1 0 -4861.6294)">
					<stop  offset="0" style="stop-color:#DE40CB"/>
					<stop  offset="1" style="stop-color:#3137E4"/>
				</linearGradient>
				<path style="fill:url(#SVGID_00000096759155728431628440000014888127768823233416_);" d="M225.48,110.89l20.42,11.79v20.19
					l-20.42-11.79V110.89 M224.75,109.62v21.9l21.9,12.64v-21.9L224.75,109.62L224.75,109.62z"/>
			</g>
			<polygon class="st3" points="246.65,144.16 268.54,131.52 268.54,109.62 246.65,122.26 			"/>
			<polygon class="st4" points="246.73,122.33 224.75,109.64 246.57,96.92 268.55,109.61 			"/>
		</g>
		<path id="矩形_00000078746474933635943310000006488400228940387215_" class="st3" d="M239.39,103.97L239.39,103.97
			c0.43,0.24,0.36,0.72-0.15,1.02l-4.54,2.69c-0.51,0.3-1.32,0.35-1.75,0.11l0,0c-0.43-0.24-0.36-0.72,0.15-1.02l4.54-2.69
			C238.15,103.77,238.96,103.72,239.39,103.97z"/>
		<path id="矩形_00000034052103442070673650000000955420715301935273_" class="st3" d="M231.16,108.84L231.16,108.84
			c0.43,0.24,0.36,0.72-0.15,1.02l-0.88,0.52c-0.51,0.3-1.32,0.35-1.75,0.11l0,0c-0.43-0.24-0.36-0.72,0.15-1.02l0.88-0.52
			C229.96,108.62,230.73,108.59,231.16,108.84z"/>
	</g>
	<g>
		<polygon class="st3" points="174.18,156.76 152.28,144.11 152.28,122.21 174.18,134.86 		"/>
		<g>
			<polygon class="st3" points="174.18,156.76 196.08,144.11 196.08,122.21 174.18,134.86 			"/>
			
				<linearGradient id="SVGID_00000130641978751864708130000013986498943344737414_" gradientUnits="userSpaceOnUse" x1="174.1782" y1="-5001.105" x2="196.0782" y2="-5001.105" gradientTransform="matrix(1 0 0 -1 0 -4861.6294)">
				<stop  offset="0" style="stop-color:#DE40CB"/>
				<stop  offset="1" style="stop-color:#3137E4"/>
			</linearGradient>
			<path style="fill:url(#SVGID_00000130641978751864708130000013986498943344737414_);" d="M195.34,123.49v20.19l-20.42,11.79
				v-20.19L195.34,123.49 M196.08,122.21l-21.9,12.64v21.9l21.9-12.64V122.21L196.08,122.21z"/>
		</g>
		<polygon class="st4" points="174.26,134.92 152.28,122.24 174.1,109.52 196.08,122.21 		"/>
		<path id="矩形_00000037650785007930572000000012779279190776651199_" class="st3" d="M166.92,117.14L166.92,117.14
			c0.43,0.24,0.36,0.72-0.15,1.02l-4.54,2.69c-0.51,0.3-1.32,0.35-1.75,0.11l0,0c-0.43-0.24-0.36-0.72,0.15-1.02l4.54-2.69
			C165.68,116.94,166.49,116.89,166.92,117.14z"/>
		<path id="矩形_00000078761642528680542380000001461960331606722719_" class="st3" d="M159.35,121.53L159.35,121.53
			c0.43,0.24,0.36,0.72-0.15,1.02l-0.88,0.52c-0.51,0.3-1.32,0.35-1.75,0.11l0,0c-0.43-0.24-0.36-0.72,0.15-1.02l0.88-0.52
			C158.15,121.31,158.92,121.29,159.35,121.53z"/>
	</g>
	<g>
		<g>
			<polygon class="st3" points="238.94,113.78 217.04,101.14 217.04,79.24 238.94,91.88 			"/>
			
				<linearGradient id="SVGID_00000060016018607580530730000012059895648514435216_" gradientUnits="userSpaceOnUse" x1="217.0382" y1="-4958.1353" x2="238.9382" y2="-4958.1353" gradientTransform="matrix(1 0 0 -1 0 -4861.6294)">
				<stop  offset="0" style="stop-color:#DE40CB"/>
				<stop  offset="1" style="stop-color:#3137E4"/>
			</linearGradient>
			<path style="fill:url(#SVGID_00000060016018607580530730000012059895648514435216_);" d="M217.78,80.52l20.42,11.79v20.19
				l-20.42-11.79V80.52 M217.04,79.24v21.9l21.9,12.64v-21.9L217.04,79.24L217.04,79.24z"/>
		</g>
		<polygon class="st3" points="238.94,113.78 260.84,101.14 260.84,79.24 238.94,91.88 		"/>
		<polygon class="st4" points="239.02,91.95 217.04,79.26 238.86,66.55 260.84,79.24 		"/>
		<path id="矩形_00000069361033736915773900000005031093674425097095_" class="st3" d="M231.68,74.16L231.68,74.16
			c0.43,0.24,0.36,0.72-0.15,1.02l-4.54,2.69c-0.51,0.3-1.32,0.35-1.75,0.11l0,0c-0.43-0.24-0.36-0.72,0.15-1.02l4.54-2.69
			C230.44,73.97,231.25,73.92,231.68,74.16z"/>
		<path id="矩形_00000006683367174722169930000014713480140337575829_" class="st3" d="M224.12,78.56L224.12,78.56
			c0.43,0.24,0.36,0.72-0.15,1.02l-0.88,0.52c-0.51,0.3-1.32,0.35-1.75,0.11l0,0c-0.43-0.24-0.36-0.72,0.15-1.02l0.88-0.52
			C222.91,78.34,223.69,78.31,224.12,78.56z"/>
	</g>
	<g>
		<polygon class="st2" points="257.59,170.18 235.69,157.54 235.69,135.64 257.59,148.28 		"/>
		<polygon class="st3" points="257.59,170.18 279.49,157.54 279.49,135.64 257.59,148.28 		"/>
		<polygon class="st4" points="257.67,148.35 235.69,135.66 257.52,122.95 279.5,135.63 		"/>
		<path id="矩形_00000031888461265566228590000014095895372491705246_" class="st3" d="M250.34,130.56L250.34,130.56
			c0.43,0.24,0.36,0.72-0.15,1.02l-4.54,2.69c-0.51,0.3-1.32,0.35-1.75,0.11l0,0c-0.43-0.24-0.36-0.72,0.15-1.02l4.54-2.69
			C249.1,130.37,249.91,130.32,250.34,130.56z"/>
		<path id="矩形_00000146482413366987904990000016930185588983010990_" class="st3" d="M242.77,134.95L242.77,134.95
			c0.43,0.24,0.36,0.72-0.15,1.02l-0.88,0.52c-0.51,0.3-1.32,0.35-1.75,0.11l0,0c-0.43-0.24-0.36-0.72,0.15-1.02l0.88-0.52
			C241.57,134.74,242.34,134.71,242.77,134.95z"/>
	</g>
	<g>
		<polygon class="st2" points="232.65,144.73 210.75,132.09 210.75,110.19 232.65,122.83 		"/>
		<polygon class="st3" points="232.65,144.73 254.55,132.09 254.55,110.19 232.65,122.83 		"/>
		<polygon class="st4" points="232.73,122.9 210.75,110.21 232.58,97.49 254.55,110.18 		"/>
		<path id="矩形_00000026867665860181870300000012061862892588957628_" class="st3" d="M225.39,105.11L225.39,105.11
			c0.43,0.24,0.36,0.72-0.15,1.02l-4.54,2.69c-0.51,0.3-1.32,0.35-1.75,0.11l0,0c-0.43-0.24-0.36-0.72,0.15-1.02l4.54-2.69
			C224.16,104.92,224.96,104.87,225.39,105.11z"/>
		<path id="矩形_00000093886902960681685480000002336860987494706051_" class="st3" d="M217.83,109.5L217.83,109.5
			c0.43,0.24,0.36,0.72-0.15,1.02l-0.88,0.52c-0.51,0.3-1.32,0.35-1.75,0.11l0,0c-0.43-0.24-0.36-0.72,0.15-1.02l0.88-0.52
			C216.62,109.29,217.4,109.26,217.83,109.5z"/>
	</g>
	<g>
		<polygon class="st2" points="217.42,99.69 195.52,87.05 195.52,65.15 217.42,77.79 		"/>
		<polygon class="st3" points="217.42,99.69 239.32,87.05 239.32,65.15 217.42,77.79 		"/>
		<polygon class="st4" points="217.5,77.86 195.52,65.17 217.34,52.46 239.32,65.14 		"/>
		<path id="矩形_00000180356288007304960820000004729412807136236699_" class="st3" d="M210.16,60.07L210.16,60.07
			c0.43,0.24,0.36,0.72-0.15,1.02l-4.54,2.69c-0.51,0.3-1.32,0.35-1.75,0.11l0,0c-0.43-0.24-0.36-0.72,0.15-1.02l4.54-2.69
			C208.92,59.88,209.73,59.83,210.16,60.07z"/>
		<path id="矩形_00000142887255132434147450000006931573802100280970_" class="st3" d="M202.59,64.46L202.59,64.46
			c0.43,0.24,0.36,0.72-0.15,1.02L201.56,66c-0.51,0.3-1.32,0.35-1.75,0.11l0,0c-0.43-0.24-0.36-0.72,0.15-1.02l0.88-0.52
			C201.39,64.25,202.16,64.22,202.59,64.46z"/>
	</g>
	<g>
		<polygon class="st2" points="210.41,74.01 188.51,61.36 188.51,39.47 210.41,52.11 		"/>
		<polygon class="st3" points="210.41,74.01 232.3,61.36 232.3,39.47 210.41,52.11 		"/>
		<polygon class="st4" points="210.49,52.18 188.51,39.49 210.33,26.77 232.31,39.46 		"/>
		<path id="矩形_00000049932566688582992770000008406498107719781800_" class="st5" d="M203.47,33.98L203.47,33.98
			c0.43,0.24,0.36,0.72-0.15,1.02l-4.54,2.69c-0.51,0.3-1.32,0.35-1.75,0.11l0,0c-0.43-0.24-0.36-0.72,0.15-1.02l4.54-2.69
			C202.23,33.79,203.04,33.73,203.47,33.98z"/>
		<path id="矩形_00000072251151674518024490000005423164561701977242_" class="st5" d="M195.9,38.37L195.9,38.37
			c0.43,0.24,0.36,0.72-0.15,1.02l-0.88,0.52c-0.51,0.3-1.32,0.35-1.75,0.11l0,0c-0.43-0.24-0.36-0.72,0.15-1.02l0.88-0.52
			C194.7,38.16,195.47,38.13,195.9,38.37z"/>
	</g>
</g>
<path id="矩形_00000092444985759491655410000001619075072154429838_" class="st3" d="M205.89,104.5L205.89,104.5
	c0.92-0.65,2.5-0.09,3.44,1.22l1.61,2.25c0.94,1.31,0.96,3,0.04,3.65l0,0c-0.92,0.65-2.5,0.09-3.44-1.22l-1.61-2.25
	C204.92,106.74,204.97,105.15,205.89,104.5z"/>
<g>
	<g>
		<g>
			<polygon class="st2" points="190.91,187.86 156.52,168 156.52,133.6 190.91,153.46 			"/>
			<polygon class="st3" points="190.91,187.86 225.3,168 225.3,133.6 190.91,153.46 			"/>
			<polygon class="st4" points="191.03,153.57 156.52,133.64 190.79,113.67 225.31,133.6 			"/>
		</g>
		<path id="矩形_00000005947241955890264000000015274529504360588419_" class="st3" d="M179.51,124.73L179.51,124.73
			c0.68,0.38,0.56,1.12-0.24,1.6l-7.14,4.22c-0.81,0.48-2.08,0.56-2.75,0.17l0,0c-0.68-0.38-0.56-1.12,0.24-1.6l7.14-4.22
			C177.56,124.43,178.83,124.35,179.51,124.73z"/>
		<path id="矩形_00000165932070018221714440000010251829299095301546_" class="st3" d="M166.59,132.38L166.59,132.38
			c0.68,0.38,0.56,1.12-0.24,1.6l-1.38,0.82c-0.81,0.48-2.08,0.56-2.75,0.17l0,0c-0.68-0.38-0.56-1.12,0.24-1.6l1.38-0.82
			C164.7,132.04,165.91,132,166.59,132.38z"/>
	</g>
	<g>
		<path class="st56" d="M210.59,158.68v1.71c-0.06,0.04-0.36,0.24-0.97,0.59c-0.51,0.29-0.88,0.47-1.01,0.53v-1.71
			c-1.97,1.23-3.43,2.49-3.43,3.02s1.47,0.13,3.43-0.87c0.13-0.06,0.49-0.25,1-0.54c0.64-0.36,0.93-0.55,0.98-0.58l0,0
			c1.96-1.22,3.43-2.49,3.43-3.01S212.55,157.68,210.59,158.68z"/>
		<path class="st56" d="M217.44,156.16l-2.86-6.06c-0.02-0.04-0.06-0.05-0.11-0.03l-9.74,5.51c-0.05,0.03-0.09,0.08-0.11,0.15
			l-2.86,9.3c-0.02,0.07-0.01,0.14,0.02,0.16l7.73,5.08c0.05,0.03,0.12-0.01,0.16-0.09l7.73-13.84
			C217.45,156.28,217.46,156.2,217.44,156.16z M210.59,161.24v4.9l-1.98,1.12v-4.9c-2.23,1.13-3.9,1.51-3.9,0.84s1.67-2.19,3.9-3.58
			v-1.53l-2.74,1.55v-2.33l7.46-4.22v2.33l-2.74,1.55v1.53c2.22-1.13,3.89-1.51,3.89-0.84
			C214.48,158.34,212.81,159.85,210.59,161.24z"/>
	</g>
</g>
<g>
	<g>
		<polygon class="st2" points="204.35,144.03 169.96,124.17 169.96,89.78 204.35,109.64 		"/>
		<polygon class="st3" points="204.35,144.03 238.74,124.17 238.74,89.78 204.35,109.64 		"/>
		<polygon class="st4" points="204.47,109.74 169.96,89.81 204.23,69.85 238.75,89.78 		"/>
		<path id="矩形_00000026161721441682241300000018248590518573428102_" class="st5" d="M193.27,81.4L193.27,81.4
			c0.68,0.38,0.56,1.12-0.24,1.6l-7.14,4.22c-0.81,0.48-2.08,0.56-2.75,0.17l0,0c-0.68-0.38-0.56-1.12,0.24-1.6l7.14-4.22
			C191.32,81.09,192.59,81.01,193.27,81.4z"/>
		<path id="矩形_00000176023803833714054170000008867858770629861815_" class="st5" d="M181.38,88.3L181.38,88.3
			c0.68,0.38,0.56,1.12-0.24,1.6l-1.38,0.82c-0.81,0.48-2.08,0.56-2.75,0.17l0,0c-0.68-0.38-0.56-1.12,0.24-1.6l1.38-0.82
			C179.5,87.96,180.71,87.91,181.38,88.3z"/>
	</g>
	<g id="Layer_2_00000084496246384721177180000002169298202784089479_">
		<g id="Layer_1-2_00000021841144106814293420000008240498963940336544_">
			<g id="Page-1_00000137091898446777023290000000336784721674663586_">
				<g id="wbtc_colour_00000159435701711634348250000002008622591444957576_">
					<path id="Shape_00000103980657995546986290000005810453347689381520_" class="st6" d="M227.5,107.13l-0.44,0.84
						c2.19,1.98,2.19,6.88,0,11.29l0.44,0.34c2.43-4.88,2.43-10.32,0-12.49V107.13z"/>
					<path id="Shape-2_00000129903232723516385670000010187999523497584315_" class="st6" d="M218.2,112.36
						c2.39-4.26,6.06-6.3,8.45-4.71l0.44-0.84c-2.64-1.78-6.7,0.48-9.34,5.2L218.2,112.36z"/>
					<path id="Shape-3_00000000194945493035371980000000525141177645470375_" class="st6" d="M217.79,124.43
						c-2.18-1.98-2.18-6.87,0-11.29l-0.44-0.34c-2.43,4.88-2.43,10.32,0,12.49L217.79,124.43z"/>
					<path id="Shape-4_00000116917652406591591370000009775842508424926597_" class="st6" d="M226.65,120.04
						c-2.39,4.26-6.06,6.3-8.45,4.71l-0.44,0.84c2.64,1.78,6.7-0.48,9.34-5.2L226.65,120.04z"/>
					<path id="Shape-5_00000137823128162404731280000013171361786358305169_" class="st6" d="M225.21,112.68
						c-0.09-1.18-0.88-1.15-1.89-0.72v-1.7l-0.78,0.43v1.67c-0.2,0.11-0.41,0.23-0.62,0.35v-1.67l-0.77,0.43v1.71l-1.58,0.88v1.11
						c0,0,0.57-0.33,0.57-0.32c0.22-0.15,0.41-0.06,0.44,0.21v4.68c0,0.1-0.04,0.21-0.09,0.31s-0.13,0.17-0.2,0.2
						c0.01,0.01-0.57,0.32-0.57,0.32l-0.15,1.33l1.56-0.87v1.74l0.78-0.43v-1.71l0.62-0.35v1.7l0.78-0.43v-1.72
						c1.31-0.84,2.23-1.78,2.35-3.49c0.09-1.38-0.37-1.71-1.12-1.53C225,114.25,225.28,113.55,225.21,112.68z M224.12,116.99
						c0,1.29-1.66,2.07-2.18,2.36v-2.29C222.47,116.76,224.12,115.64,224.12,116.99z M223.76,113.96c0,1.18-1.38,1.81-1.82,2.05
						v-2.08C222.38,113.68,223.76,112.73,223.76,113.96z"/>
					<path id="Shape-6_00000136389258416826123460000017857293604995505054_" class="st6" d="M222.42,126.97
						c-4.45,2.48-8.05-0.33-8.05-6.28c0-5.94,3.61-12.77,8.05-15.25c4.45-2.48,8.05,0.33,8.05,6.27
						C230.47,117.66,226.87,124.49,222.42,126.97L222.42,126.97z M222.42,106.28c-4.1,2.29-7.42,8.58-7.41,14.05
						c0,5.47,3.33,8.06,7.42,5.77s7.41-8.57,7.41-14.04C229.85,106.59,226.53,104,222.42,106.28
						C222.43,106.28,222.42,106.28,222.42,106.28z"/>
				</g>
			</g>
		</g>
	</g>
</g>
<g>
	<path class="st2" d="M108.13,112.4l-93.07,54.22V67.8l84.75-49.37c8.54-4.32,12.42-1.6,12.42,7.14v79.69
		C112.23,108.2,110.67,110.92,108.13,112.4z"/>
	<path class="st4" d="M121.67,120.65L28.6,174.87V76.05l84.75-49.37c8.54-4.32,12.42-1.6,12.42,7.14v79.69
		C125.78,116.45,124.21,119.17,121.67,120.65z"/>
	<polygon class="st2" points="28.6,174.87 15.06,166.75 15.06,67.96 28.6,76.09 	"/>
	
		<ellipse transform="matrix(0.4157 -0.9095 0.9095 0.4157 -12.4383 148.9435)" class="st2" cx="109.7" cy="84.15" rx="9.38" ry="5.12"/>
</g>
<radialGradient id="SVGID_00000064340650397702954930000011876081117179992996_" cx="1299.3306" cy="-10381.4229" r="37.8577" gradientTransform="matrix(-1.0502 0.5314 0.0751 -0.3464 2271.4868 -4130.5088)" gradientUnits="userSpaceOnUse">
	<stop  offset="0" style="stop-color:#B6B2D0"/>
	<stop  offset="0.3457" style="stop-color:#B8B5D2;stop-opacity:0.6543"/>
	<stop  offset="0.6064" style="stop-color:#C1BFD7;stop-opacity:0.3936"/>
	<stop  offset="0.8384" style="stop-color:#CFCFE0;stop-opacity:0.1616"/>
	<stop  offset="1" style="stop-color:#DDDFE9;stop-opacity:0"/>
</radialGradient>
<path style="opacity:0.29;fill:url(#SVGID_00000064340650397702954930000011876081117179992996_);enable-background:new    ;" d="
	M95.63,162.63c19.96-15.46,50.35-30.91,67.89-34.51c17.54-3.6,15.58,6.02-4.38,21.48s-50.35,30.91-67.89,34.51
	S75.67,178.09,95.63,162.63z"/>
<polygon class="st3" points="19.68,70.73 104.48,20.74 113.35,26.68 28.6,76.09 "/>
<g>
	<g>
		<path id="矩形_00000183238061735208863580000003521296721235984821_" class="st82" d="M171.54,207.27L171.54,207.27
			c0.62,0,1.15,0.76,1.15,1.64v1.52c0,0.88-0.53,1.64-1.15,1.64l0,0c-0.62,0-1.15-0.76-1.15-1.64v-1.52
			C170.4,207.96,170.93,207.27,171.54,207.27z"/>
		
			<radialGradient id="SVGID_00000086656600882749819430000003958040166221958820_" cx="139.9982" cy="-7091.9624" r="29.1554" gradientTransform="matrix(1 0 0 -0.5898 0 -3941.4534)" gradientUnits="userSpaceOnUse">
			<stop  offset="0" style="stop-color:#06070C"/>
			<stop  offset="1" style="stop-color:#0D101D;stop-opacity:0"/>
		</radialGradient>
		<path style="opacity:0.67;fill:url(#SVGID_00000086656600882749819430000003958040166221958820_);enable-background:new    ;" d="
			M165,227.32c-13.68-7.9-35.96-8-49.77-0.23s-13.91,20.48-0.23,28.37c13.68,7.9,35.96,8,49.77,0.23
			C178.58,247.92,178.68,235.22,165,227.32z"/>
		<g>
			<path class="st131" d="M178.5,191.29v-49.28c0-0.23,0.02-0.45,0.02-0.68c0-22.91-18.57-41.48-41.48-41.48
				s-41.48,18.57-41.48,41.48c0,0.36,0.02,0.72,0.03,1.07v44.66h-0.03v22.67c0,2.84,2.3,5.15,5.15,5.15c2.84,0,5.15-2.31,5.15-5.15
				v-0.83c0.56,0.36,1.13,0.72,1.74,1.07c1.83,1.06,3.79,1.99,5.85,2.81v8.2c0,2.84,2.3,5.15,5.15,5.15s5.15-2.31,5.15-5.15v-5.23
				c2.95,0.57,5.99,0.96,9.06,1.14v12.59c0,2.84,2.3,5.15,5.15,5.15c2.84,0,5.15-2.31,5.15-5.15v-12.7c3.39-0.28,6.73-0.8,9.93-1.55
				v6.36c0,2.84,2.3,5.15,5.15,5.15c2.84,0,5.15-2.31,5.15-5.15v-9.87c1-0.47,1.97-0.96,2.91-1.49c0.7-0.39,1.35-0.8,1.99-1.21v0.71
				c0,2.84,2.3,5.15,5.15,5.15s5.15-2.31,5.15-5.15v-18.45L178.5,191.29L178.5,191.29z"/>
			
				<radialGradient id="SVGID_00000060027378537424403410000016621648376248999102_" cx="161.7228" cy="-4978.8979" r="106.6854" gradientTransform="matrix(1 0 0 -1 0 -4861.6294)" gradientUnits="userSpaceOnUse">
				<stop  offset="0.0124" style="stop-color:#CF7DC9"/>
				<stop  offset="0.4936" style="stop-color:#9C5C96"/>
				<stop  offset="0.5829" style="stop-color:#96649A"/>
				<stop  offset="0.7273" style="stop-color:#8A7AA4"/>
				<stop  offset="0.9078" style="stop-color:#7A9DB5"/>
				<stop  offset="1" style="stop-color:#74B3C0"/>
			</radialGradient>
			<path style="fill:url(#SVGID_00000060027378537424403410000016621648376248999102_);" d="M178.5,191.29v-49.28
				c0-0.23,0.02-0.45,0.02-0.68c0-22.91-18.57-41.48-41.48-41.48s-41.48,18.57-41.48,41.48c0,0.36,0.02,0.72,0.03,1.07v44.66h-0.03
				v22.67c0,2.84,2.3,5.15,5.15,5.15c2.84,0,5.15-2.31,5.15-5.15v-0.83c0.56,0.36,1.13,0.72,1.74,1.07
				c1.83,1.06,3.79,1.99,5.85,2.81v8.2c0,2.84,2.3,5.15,5.15,5.15s5.15-2.31,5.15-5.15v-5.23c2.95,0.57,5.99,0.96,9.06,1.14v12.59
				c0,2.84,2.3,5.15,5.15,5.15c2.84,0,5.15-2.31,5.15-5.15v-12.7c3.39-0.28,6.73-0.8,9.93-1.55v6.36c0,2.84,2.3,5.15,5.15,5.15
				c2.84,0,5.15-2.31,5.15-5.15v-9.87c1-0.47,1.97-0.96,2.91-1.49c0.7-0.39,1.35-0.8,1.99-1.21v0.71c0,2.84,2.3,5.15,5.15,5.15
				s5.15-2.31,5.15-5.15v-18.45L178.5,191.29L178.5,191.29z"/>
		</g>
		<path id="矩形_00000010996289430403931590000016246259695407211442_" class="st82" d="M99.45,177.45L99.45,177.45
			c1.12,0,2.09,1.38,2.09,2.99v14.25c0,1.61-0.96,2.99-2.09,2.99l0,0c-1.12,0-2.09-1.38-2.09-2.99v-14.25
			C97.37,178.83,98.33,177.45,99.45,177.45z"/>
		<path id="矩形_00000179635957371172241150000018433802154186715531_" class="st82" d="M160.75,114.36L160.75,114.36
			c1.37-1.02,3.68-0.37,5.02,1.41l2.29,3.06c1.34,1.78,1.31,4.19-0.06,5.22l0,0c-1.37,1.02-3.68,0.37-5.02-1.41l-2.29-3.06
			C159.26,117.66,159.39,115.38,160.75,114.36z"/>
		<path id="矩形_00000014635436879287004890000002883993650454765727_" class="st82" d="M116.85,214.04L116.85,214.04
			c1.12,0,2.09,1.38,2.09,2.99v2.76c0,1.61-0.96,2.99-2.09,2.99l0,0c-1.12,0-2.09-1.38-2.09-2.99v-2.76
			C114.76,215.3,115.73,214.04,116.85,214.04z"/>
		<path id="矩形_00000012461150525925807440000013666773816624626874_" class="st82" d="M99.2,203.24L99.2,203.24
			c1.12,0,2.09,1.38,2.09,2.99v2.76c0,1.61-0.96,2.99-2.09,2.99l0,0c-1.12,0-2.09-1.38-2.09-2.99v-2.76
			C97.12,204.5,98.08,203.24,99.2,203.24z"/>
		<path id="矩形_00000058591326225360406320000015420240568444972417_" class="st82" d="M137.04,222.78L137.04,222.78
			c1.12,0,2.09,1.38,2.09,2.99v2.76c0,1.61-0.96,2.99-2.09,2.99l0,0c-1.12,0-2.09-1.38-2.09-2.99v-2.76
			C134.95,224.04,135.92,222.78,137.04,222.78z"/>
		<path id="矩形_00000023977176486743112070000003382371161999630489_" class="st82" d="M156.74,217.43L156.74,217.43
			c0.89,0,1.66,1.1,1.66,2.37v2.19c0,1.28-0.76,2.37-1.66,2.37l0,0c-0.89,0-1.66-1.1-1.66-2.37v-2.19
			C155.08,218.44,155.85,217.43,156.74,217.43z"/>
		<g>
			<path id="椭圆形_00000171697560968318489470000006466776752005700011_" class="st133" d="M147.05,172.32
				c4.06-0.17,7.1-3.66,7.09-6c0-0.94-0.55-1.75-1.38-1.81c-1.29-0.13-3.23,0.7-5.72,0.8c-2.31,0.1-3.78-0.5-5.53-0.42
				c-1.84,0.08-1.75,2.22-1.47,3.06C140.69,170.24,142.9,172.49,147.05,172.32z"/>
			<path id="椭圆形_00000124130033010786155540000010180999742264841856_" class="st87" d="M147.14,170.35
				c4.15-0.17,7.19-3.38,7.19-5.63c0-0.84-0.55-1.57-1.38-1.63c-1.29-0.13-3.32,0.7-5.81,0.8c-2.4,0.1-3.78-0.5-5.62-0.43
				s-1.75,2.13-1.48,2.87C140.68,168.46,142.99,170.52,147.14,170.35z"/>
		</g>
		<g>
			
				<ellipse transform="matrix(0.5671 -0.8237 0.8237 0.5671 -66.2777 171.6079)" class="st87" cx="130.11" cy="148.85" rx="9.5" ry="9.1"/>
			<path id="形状结合_00000179634114676343657300000006906802966940264338_" class="st134" d="M131.3,138.88
				c4.24-0.18,7.66,3.98,7.66,9.22c0,0.19,0,0.37,0,0.56v0.56c0-5.33-3.33-9.59-7.48-9.42s-7.46,4.61-7.46,10.04
				c0,1.03,0.09,2.05,0.37,2.98c-0.46-1.2-0.74-2.59-0.74-3.99C123.65,143.51,127.06,139.06,131.3,138.88z"/>
			<path id="形状结合_00000008846327353721607020000015805202501947049892_" class="st135" d="M131.3,137.76
				c4.7-0.2,8.58,4.41,8.58,10.31s-3.86,10.83-8.57,11.02c-4.7,0.2-8.58-4.41-8.58-10.31C122.73,142.89,126.51,137.96,131.3,137.76z
				 M131.3,138.88c-4.24,0.18-7.65,4.62-7.64,9.86c0,5.24,3.42,9.4,7.66,9.22s7.65-4.62,7.64-9.86
				C138.96,142.87,135.45,138.71,131.3,138.88z"/>
		</g>
		<g>
			
				<ellipse transform="matrix(0.5671 -0.8237 0.8237 0.5671 -51.839 196.3119)" class="st87" cx="160.83" cy="147.47" rx="9.5" ry="9.1"/>
			<path id="形状结合_00000041294428208011629170000002338251994008067510_" class="st134" d="M161.81,137.51
				c4.24-0.18,7.66,3.98,7.66,9.22c0,0.19,0,0.37,0,0.56v0.56c0-5.33-3.33-9.59-7.48-9.42s-7.46,4.61-7.46,10.04
				c0,1.03,0.09,2.05,0.37,2.98c-0.46-1.2-0.74-2.59-0.74-3.99C154.16,142.13,157.57,137.69,161.81,137.51z"/>
			<path id="形状结合_00000069372544864055136930000001284274576715800752_" class="st135" d="M161.81,136.39
				c4.7-0.2,8.58,4.41,8.58,10.31c0.01,5.89-3.86,10.83-8.57,11.02c-4.7,0.2-8.58-4.41-8.58-10.31S157.02,136.59,161.81,136.39z
				 M161.81,137.51c-4.24,0.18-7.65,4.62-7.64,9.86c0,5.24,3.42,9.4,7.66,9.22s7.65-4.62,7.64-9.86
				C169.47,141.5,165.96,137.34,161.81,137.51z"/>
		</g>
		<circle class="st133" cx="130.49" cy="148.85" r="3.77"/>
		<circle class="st133" cx="161.03" cy="147.72" r="3.77"/>
	</g>
</g>
</svg>
