<?xml version="1.0" encoding="utf-8"?>
<!-- Generator: Adobe Illustrator 27.8.1, SVG Export Plug-In . SVG Version: 6.00 Build 0)  -->
<svg version="1.1" id="Слой_1" xmlns="http://www.w3.org/2000/svg" xmlns:xlink="http://www.w3.org/1999/xlink" x="0px" y="0px"
	 viewBox="0 0 290 574.88" style="enable-background:new 0 0 290 574.88;" xml:space="preserve">
<style type="text/css">
	.st0{fill:#101422;}
	.st1{fill:#FFFFFF;stroke:#111422;stroke-linecap:round;stroke-linejoin:round;stroke-miterlimit:10;}
	
		.st2{fill-rule:evenodd;clip-rule:evenodd;fill:#C6C3D1;stroke:#101320;stroke-linecap:round;stroke-linejoin:round;stroke-miterlimit:10;}
	
		.st3{fill-rule:evenodd;clip-rule:evenodd;fill:#FFFFFF;stroke:#111422;stroke-linecap:round;stroke-linejoin:round;stroke-miterlimit:10;}
	
		.st4{fill-rule:evenodd;clip-rule:evenodd;fill:#ECF0FC;stroke:#111422;stroke-linecap:round;stroke-linejoin:round;stroke-miterlimit:10;}
	.st5{opacity:0.92;fill-rule:evenodd;clip-rule:evenodd;fill:#FFFFFF;enable-background:new    ;}
	.st6{fill:none;stroke:#FFFFFF;stroke-linecap:round;stroke-linejoin:round;stroke-miterlimit:10;}
	.st7{fill-rule:evenodd;clip-rule:evenodd;fill:#101422;}
	.st8{fill:url(#SVGID_1_);}
	.st9{fill:url(#SVGID_00000183224862013681977480000017519765874949301913_);}
	.st10{fill:url(#SVGID_00000179634440672145953720000013874480024091324079_);}
	.st11{opacity:0.67;fill:url(#SVGID_00000006698877621600872480000006906802881123240070_);enable-background:new    ;}
	.st12{fill:#6FA3B6;}
	.st13{fill:url(#SVGID_00000168798695451406935540000000252494092392220607_);}
	.st14{opacity:0.2563;fill-rule:evenodd;clip-rule:evenodd;fill:#FFFFFF;enable-background:new    ;}
	.st15{fill:none;stroke:#FFFFFF;stroke-width:0.7384;stroke-linecap:round;stroke-linejoin:round;stroke-miterlimit:10;}
	
		.st16{fill:none;stroke:url(#SVGID_00000090989168725933099350000000488493911405014183_);stroke-width:5;stroke-linecap:round;stroke-linejoin:round;stroke-miterlimit:10;}
	.st17{fill:url(#SVGID_00000109751890958619169940000008813526156097249441_);}
	.st18{fill-rule:evenodd;clip-rule:evenodd;fill:#1AD4B3;}
	.st19{fill-rule:evenodd;clip-rule:evenodd;fill:#FC4F83;}
	.st20{fill:#C6C3D1;stroke:#101320;stroke-linecap:round;stroke-linejoin:round;stroke-miterlimit:10;}
	.st21{fill:#ECF0FC;stroke:#111422;stroke-linecap:round;stroke-linejoin:round;stroke-miterlimit:10;}
	
		.st22{fill:url(#SVGID_00000067916095075385382420000009013659836520087171_);stroke:#1D1D1B;stroke-width:0.2115;stroke-linecap:round;stroke-linejoin:round;stroke-miterlimit:10;}
	
		.st23{fill:url(#SVGID_00000005950371014215663180000007860687184293322402_);stroke:#1D1D1B;stroke-width:0.2115;stroke-linecap:round;stroke-linejoin:round;stroke-miterlimit:10;}
	
		.st24{fill:url(#SVGID_00000004526103186934414820000007263316886688732806_);stroke:#1D1D1B;stroke-width:0.2115;stroke-linecap:round;stroke-linejoin:round;stroke-miterlimit:10;}
	
		.st25{fill:url(#SVGID_00000139978888662841781350000002892148349978939558_);stroke:#1D1D1B;stroke-width:0.2115;stroke-linecap:round;stroke-linejoin:round;stroke-miterlimit:10;}
	
		.st26{fill-rule:evenodd;clip-rule:evenodd;fill:#101422;stroke:#101423;stroke-linecap:round;stroke-linejoin:round;stroke-miterlimit:10;}
	.st27{fill:#FFFFFF;}
	.st28{fill-rule:evenodd;clip-rule:evenodd;fill:url(#SVGID_00000044146733070495461410000009602684375071047060_);}
	.st29{fill-rule:evenodd;clip-rule:evenodd;fill:url(#SVGID_00000022547877192257899060000012982119609720990856_);}
	.st30{fill:url(#SVGID_00000101789883213812729580000009844507199307614633_);}
	.st31{fill:url(#SVGID_00000051359450504444844210000015121771112439448982_);}
	.st32{fill:url(#SVGID_00000132078905601254262650000005411842721045087418_);}
	
		.st33{fill-rule:evenodd;clip-rule:evenodd;fill:#C7FFF1;stroke:#101320;stroke-linecap:round;stroke-linejoin:round;stroke-miterlimit:10;}
	
		.st34{fill:none;stroke:url(#SVGID_00000179608706777811201810000009588304981493515954_);stroke-width:5;stroke-linecap:round;stroke-linejoin:round;stroke-miterlimit:10;}
	.st35{fill:url(#SVGID_00000081623025576028116140000011168112276468945033_);}
	
		.st36{fill:none;stroke:url(#SVGID_00000163067468514004853160000003859025157218971319_);stroke-width:5;stroke-linecap:round;stroke-linejoin:round;stroke-miterlimit:10;}
	.st37{fill:url(#SVGID_00000133487198324160837830000004773988017177791406_);}
	
		.st38{fill:none;stroke:url(#SVGID_00000177453658306720533010000005626909304949006251_);stroke-width:5;stroke-linecap:round;stroke-linejoin:round;stroke-miterlimit:10;}
	.st39{fill:url(#SVGID_00000035506986518241124930000006823596237222510997_);}
	
		.st40{fill-rule:evenodd;clip-rule:evenodd;fill:#1AD4B3;stroke:#111422;stroke-linecap:round;stroke-linejoin:round;stroke-miterlimit:10;}
	
		.st41{fill-rule:evenodd;clip-rule:evenodd;fill:#FC4F83;stroke:#111422;stroke-linecap:round;stroke-linejoin:round;stroke-miterlimit:10;}
	
		.st42{fill-rule:evenodd;clip-rule:evenodd;fill:#FFCAD7;stroke:#111422;stroke-linecap:round;stroke-linejoin:round;stroke-miterlimit:10;}
	.st43{fill:url(#SVGID_00000014597932555443163630000013273140405005843078_);}
	.st44{fill:url(#SVGID_00000018937177014695097730000007641209523913197989_);}
	.st45{fill:url(#SVGID_00000171704763324825789800000015831011532998530209_);}
	
		.st46{fill:none;stroke:url(#SVGID_00000054986102807170901740000015924426516866367908_);stroke-width:5;stroke-linecap:round;stroke-linejoin:round;stroke-miterlimit:10;}
	.st47{fill:url(#SVGID_00000103965072046992963200000014040505131457089180_);}
	
		.st48{fill:none;stroke:url(#SVGID_00000080184370348127538280000017919434423100577673_);stroke-width:5;stroke-linecap:round;stroke-linejoin:round;stroke-miterlimit:10;}
	.st49{fill:url(#SVGID_00000167374847601719036690000005534605694295947394_);}
	.st50{fill:url(#SVGID_00000054263465070820576090000000665359347487611019_);}
	.st51{fill:#101320;}
	.st52{fill:url(#SVGID_00000116226039339516775010000005607692318044233891_);}
	.st53{fill:url(#SVGID_00000015349514936004619530000010381646795419832483_);}
	.st54{fill:url(#SVGID_00000039132304304739060890000016686116922549609862_);}
	.st55{fill:url(#SVGID_00000083800709431387736220000015129332162068117418_);}
	.st56{fill:url(#SVGID_00000094576018174745513140000010637926291748706203_);}
	.st57{fill:url(#SVGID_00000127018173319000495810000001765836420806847630_);}
	.st58{opacity:0.29;fill:url(#SVGID_00000086670213579005379200000007385111807267415436_);enable-background:new    ;}
	.st59{fill:url(#SVGID_00000065035056237213248780000011526533869086794143_);}
	.st60{fill:url(#SVGID_00000027567116711468313240000002558576360776011145_);}
	.st61{fill:url(#SVGID_00000107553198833580610590000011429697305793449090_);}
	.st62{fill-rule:evenodd;clip-rule:evenodd;fill:url(#SVGID_00000095327536293485918290000004827839302103297445_);}
	.st63{fill:url(#SVGID_00000173158880818400989870000018006932556865680054_);}
	.st64{fill:url(#SVGID_00000175314464154514960700000016286720689401398669_);}
	.st65{fill:url(#SVGID_00000079481740779951657280000012396684854700552629_);}
	.st66{fill:url(#SVGID_00000012457377554242762990000007224074116686766243_);}
	.st67{opacity:0.29;fill:url(#SVGID_00000109010080394886443430000009567700517567995521_);enable-background:new    ;}
	
		.st68{fill:none;stroke:url(#SVGID_00000016074778614725211720000007189346675653852574_);stroke-width:5;stroke-linecap:round;stroke-linejoin:round;stroke-miterlimit:10;}
	.st69{fill:url(#SVGID_00000134944823854353352050000011255454161381447309_);}
	
		.st70{fill:none;stroke:url(#SVGID_00000182519422300824657670000012736424967892573600_);stroke-width:5;stroke-linecap:round;stroke-linejoin:round;stroke-miterlimit:10;}
	.st71{fill:url(#SVGID_00000037657055442473202460000017829347744690073785_);}
	
		.st72{fill:none;stroke:url(#SVGID_00000075152586128615554800000017952819428049831048_);stroke-width:5;stroke-linecap:round;stroke-linejoin:round;stroke-miterlimit:10;}
	.st73{fill:url(#SVGID_00000012456296437455568120000001871248780881801150_);}
	.st74{fill-rule:evenodd;clip-rule:evenodd;fill:url(#SVGID_00000052078702138368850930000013676367080283173781_);}
	.st75{fill:url(#SVGID_00000096782002553135378710000003260196118536710299_);}
	.st76{fill:url(#SVGID_00000140700610581241835550000005692983269621546677_);}
	.st77{fill:url(#SVGID_00000036946371717251136470000010646317210566590627_);}
	.st78{opacity:0.29;fill:url(#SVGID_00000032636589496205613390000011843796228722214591_);}
	.st79{opacity:0.29;fill:url(#SVGID_00000156588798346141801710000009280980325256245906_);}
	.st80{opacity:0.67;fill:url(#SVGID_00000089540971287370238860000005708340655521979784_);}
	.st81{fill:#3FA9BD;}
	.st82{fill:url(#SVGID_00000067919972646953151580000007675266531361683876_);}
	.st83{fill-rule:evenodd;clip-rule:evenodd;fill:#555069;}
	.st84{fill-rule:evenodd;clip-rule:evenodd;fill:#FFFFFF;}
	.st85{fill-rule:evenodd;clip-rule:evenodd;fill:#AFAFB1;}
	.st86{fill-rule:evenodd;clip-rule:evenodd;fill:#D3D3D3;}
	.st87{opacity:0.67;fill:url(#SVGID_00000086684282919948532270000000745362777316852140_);}
	.st88{fill:url(#SVGID_00000142865603859951068780000017536058083529597083_);}
	.st89{opacity:0.67;fill:url(#SVGID_00000145055739678604211690000000955355786468028596_);}
	.st90{fill:url(#SVGID_00000144338616606516618530000009261998455783198861_);}
	.st91{opacity:0.67;fill:url(#SVGID_00000107547853850880804150000002445573555046671024_);}
	.st92{fill:url(#SVGID_00000023998963415003013210000001403459048185643169_);}
	.st93{opacity:0.67;fill:url(#SVGID_00000114058209223189100360000011745923589556090512_);}
	.st94{fill:url(#SVGID_00000067939582613238880370000008195845748510817700_);}
	.st95{opacity:0.67;fill:url(#SVGID_00000111166303317477800160000006289845448991542710_);}
	.st96{fill:url(#SVGID_00000149342998350877226680000001169911674938767767_);}
	.st97{fill:#1AD4B3;}
	.st98{opacity:0.67;fill:url(#SVGID_00000090981256663010037950000009110437909859257234_);}
	.st99{fill:url(#SVGID_00000045586515782426630150000016119021704742312892_);}
	.st100{opacity:0.67;fill:url(#SVGID_00000178905291705585972960000014328443192173135268_);}
	.st101{fill:url(#SVGID_00000029738191806062488540000012049526342974819733_);}
	.st102{opacity:0.67;fill:url(#SVGID_00000149361472905843876450000010604008033412095903_);}
	.st103{fill:url(#SVGID_00000059301917622816363340000007983213606537694909_);}
	
		.st104{fill-rule:evenodd;clip-rule:evenodd;fill:none;stroke:#FFFFFF;stroke-width:0.7384;stroke-linecap:round;stroke-linejoin:round;stroke-miterlimit:10;}
	.st105{opacity:0.67;fill:url(#SVGID_00000047769299990345178550000012729974595426656932_);}
	.st106{fill:url(#SVGID_00000012448688843512639260000000896043295098780308_);}
	.st107{opacity:0.67;fill:url(#SVGID_00000176013663007131100670000003349734933550586270_);}
	.st108{fill:url(#SVGID_00000031899181012325169340000016947708359366218880_);}
	.st109{opacity:0.67;fill:url(#SVGID_00000061435282447732991490000010464849088607784639_);}
	.st110{fill:url(#SVGID_00000174561727942293929560000010772629277341384600_);}
	.st111{opacity:0.67;fill:url(#SVGID_00000134963449344253723470000017110785799367766449_);}
	.st112{fill:url(#SVGID_00000119080467071029127650000001787680359723260829_);}
	.st113{opacity:0.67;fill:url(#SVGID_00000175303951440748130700000008059401134669345716_);}
	.st114{fill:url(#SVGID_00000068676093033352905530000000260230573205848484_);}
	.st115{opacity:0.67;fill:url(#SVGID_00000122701675203934050640000013660294749700109968_);}
	.st116{fill:url(#SVGID_00000060737566556334206700000000186069552990222526_);}
	.st117{opacity:0.67;fill:url(#SVGID_00000020362594155766764940000013900977622198375870_);}
	.st118{fill:url(#SVGID_00000004533900364260334660000018125657207119132046_);}
	.st119{opacity:0.67;fill:url(#SVGID_00000177453670208077648400000013446258766335903157_);}
	.st120{fill:url(#SVGID_00000123428042122943878950000004627766529077714831_);}
	.st121{opacity:0.67;fill:url(#SVGID_00000050650672598051526440000007953058139389666478_);}
	.st122{fill:url(#SVGID_00000163042048843967381850000014654333092302440622_);}
	.st123{opacity:0.67;fill:url(#SVGID_00000138549653910698710540000011030501972735541156_);}
	.st124{fill:url(#SVGID_00000020390286292523528510000007194984727224254091_);}
	.st125{opacity:0.67;fill:url(#SVGID_00000165204533861782249760000007780390807331083144_);}
	.st126{fill:url(#SVGID_00000034078840274798140630000006677750193064033943_);}
	.st127{opacity:0.67;fill:url(#SVGID_00000096033695392519260870000015657011521097343646_);}
	.st128{fill:#5EA6B9;}
	.st129{fill:url(#SVGID_00000153695518471185997750000000139935287469108625_);}
	.st130{fill-rule:evenodd;clip-rule:evenodd;fill:#545067;}
	.st131{fill-rule:evenodd;clip-rule:evenodd;fill:#AEAEB0;}
	.st132{fill-rule:evenodd;clip-rule:evenodd;fill:#D2D2D2;}
	.st133{opacity:0.67;fill:url(#SVGID_00000018237554673446414950000009066448747707647423_);}
	.st134{fill:url(#SVGID_00000056391444136827766840000005644653499413386884_);}
	.st135{fill-rule:evenodd;clip-rule:evenodd;fill:#63D0B3;}
	
		.st136{fill-rule:evenodd;clip-rule:evenodd;fill:none;stroke:#111422;stroke-linecap:round;stroke-linejoin:round;stroke-miterlimit:10;}
	.st137{fill-rule:evenodd;clip-rule:evenodd;fill:#E85C83;}
	.st138{fill:#5DC29D;}
	.st139{fill:url(#SVGID_00000089541788754297542090000010789007417318347651_);}
	.st140{fill:url(#SVGID_00000140009346126864239480000009175924219960775826_);}
	.st141{fill:#E85C83;}
	.st142{opacity:0.67;fill:url(#SVGID_00000107571289581217811500000003330148289343133334_);}
	.st143{fill:url(#SVGID_00000068653675558447075900000010366150627409686926_);}
	
		.st144{fill:none;stroke:url(#SVGID_00000118392706407062138170000002196329192924658599_);stroke-width:5;stroke-linecap:round;stroke-linejoin:round;stroke-miterlimit:10;}
	.st145{fill:url(#SVGID_00000072986057384871329720000007317524541615153807_);}
	.st146{opacity:0.67;fill:url(#SVGID_00000047044905990870189760000004008667300631061434_);}
	.st147{fill:url(#SVGID_00000082332813299665371670000005679548403995027646_);}
	.st148{opacity:0.67;fill:url(#SVGID_00000179634055877216108100000013797950526942570935_);}
	.st149{fill:url(#SVGID_00000181787605494812706460000012389104658222834863_);}
	.st150{opacity:0.67;fill:url(#SVGID_00000138554429722001956000000009482873303713730438_);}
	.st151{fill:url(#SVGID_00000183970195792533317250000014541244196996391568_);}
	.st152{opacity:0.67;fill:url(#SVGID_00000005966556493867593720000001342209389144493964_);}
	.st153{fill:url(#SVGID_00000109740443648134071930000005713703344957933997_);}
	.st154{opacity:0.67;fill:url(#SVGID_00000067950580305151402010000006935729849419745922_);}
	.st155{fill:url(#SVGID_00000102524059278904404330000011625224377912345012_);}
	.st156{opacity:0.67;fill:url(#SVGID_00000078030719963138627050000016968579415516976026_);}
	.st157{fill:url(#SVGID_00000010276185380190445930000010713217699265319579_);}
	.st158{fill:none;stroke:#000000;stroke-width:22;stroke-linecap:round;stroke-linejoin:round;stroke-miterlimit:10;}
	.st159{fill:#ECF0FC;}
	.st160{fill:url(#SVGID_00000146459659758246414460000015274764182539229325_);}
	.st161{fill:url(#SVGID_00000165229325364108877110000007827081301291122839_);}
	.st162{fill:none;stroke:url(#SVGID_00000162316149551769824920000002300667130022555038_);stroke-width:5;stroke-miterlimit:10;}
	.st163{fill:#111422;}
	.st164{fill:url(#SVGID_00000056420906828217165340000005837766455878484659_);}
	.st165{fill:none;}
	.st166{opacity:0.67;fill:url(#SVGID_00000074438108331711074870000013000389564811899284_);}
	.st167{fill:url(#SVGID_00000155136155441196198430000015499943440085649086_);}
	.st168{fill:none;stroke:url(#SVGID_00000007419624278262006990000013620456613631425189_);stroke-width:5;stroke-miterlimit:10;}
	.st169{fill:url(#SVGID_00000106853021329118396400000015547038537329253013_);}
	.st170{opacity:0.67;fill:url(#SVGID_00000074414893760454341300000014794357908518898323_);}
	.st171{fill:url(#SVGID_00000083073681443165721920000003858839547445233821_);}
	.st172{opacity:0.67;fill:url(#SVGID_00000150061648478612251800000015178112379694569873_);}
	.st173{fill:url(#SVGID_00000173857358539980014860000008629472029418607250_);}
</style>
<g>
	<g>
		<polygon class="st2" points="153.16,279.55 131.26,266.91 131.26,245.01 153.16,257.65 		"/>
		<polygon class="st3" points="153.16,279.55 175.06,266.91 175.06,245.01 153.16,257.65 		"/>
		<polygon class="st4" points="153.24,257.72 131.26,245.03 153.08,232.32 175.06,245.01 		"/>
		<path id="矩形_00000032629608643589246760000011313044689763369386_" class="st5" d="M146.22,239.53L146.22,239.53
			c0.43,0.24,0.36,0.72-0.15,1.02l-4.54,2.69c-0.51,0.3-1.32,0.35-1.75,0.11l0,0c-0.43-0.24-0.36-0.72,0.15-1.02l4.54-2.69
			C144.98,239.33,145.79,239.28,146.22,239.53z"/>
		<path id="矩形_00000013889800913030314600000010854794274542956703_" class="st5" d="M138.65,243.92L138.65,243.92
			c0.43,0.24,0.36,0.72-0.15,1.02l-0.88,0.52c-0.51,0.3-1.32,0.35-1.75,0.11l0,0c-0.43-0.24-0.36-0.72,0.15-1.02l0.88-0.52
			C137.45,243.7,138.22,243.67,138.65,243.92z"/>
	</g>
	<path id="矩形_00000050660705482965576450000018437746357502161819_" class="st3" d="M200.2,231.56L200.2,231.56
		c0.58-0.42,1.59-0.06,2.19,0.78l1.02,1.43c0.6,0.84,0.61,1.91,0.03,2.33l0,0c-0.58,0.42-1.59,0.06-2.19-0.78l-1.02-1.43
		C199.59,232.99,199.62,231.97,200.2,231.56z"/>
	<g>
		<g>
			<polygon class="st3" points="224.44,295.5 202.54,282.86 202.54,260.96 224.44,273.6 			"/>
			<polygon class="st3" points="224.44,295.5 246.34,282.86 246.34,260.96 224.44,273.6 			"/>
			<polygon class="st4" points="224.52,273.67 202.54,260.98 224.37,248.27 246.34,260.96 			"/>
		</g>
		<path id="矩形_00000004535655134323430460000006526713944802646694_" class="st3" d="M217.19,255.31L217.19,255.31
			c0.43,0.24,0.36,0.72-0.15,1.02l-4.54,2.69c-0.51,0.3-1.32,0.35-1.75,0.11l0,0c-0.43-0.24-0.36-0.72,0.15-1.02l4.54-2.69
			C215.95,255.12,216.75,255.07,217.19,255.31z"/>
		<path id="矩形_00000034050358122367815340000014145316364207842478_" class="st3" d="M208.96,260.18L208.96,260.18
			c0.43,0.24,0.36,0.72-0.15,1.02l-0.88,0.52c-0.51,0.3-1.32,0.35-1.75,0.11l0,0c-0.43-0.24-0.36-0.72,0.15-1.02l0.88-0.52
			C207.75,259.96,208.53,259.94,208.96,260.18z"/>
	</g>
	<g>
		<polygon class="st2" points="151.98,308.1 130.08,295.46 130.08,273.56 151.98,286.2 		"/>
		<polygon class="st3" points="151.98,308.1 173.88,295.46 173.88,273.56 151.98,286.2 		"/>
		<polygon class="st4" points="152.06,286.27 130.08,273.58 151.9,260.87 173.88,273.56 		"/>
		<path id="矩形_00000159457585865046413750000001025902691071745961_" class="st5" d="M145.04,268.08L145.04,268.08
			c0.43,0.24,0.36,0.72-0.15,1.02l-4.54,2.69c-0.51,0.3-1.32,0.35-1.75,0.11l0,0c-0.43-0.24-0.36-0.72,0.15-1.02l4.54-2.69
			C143.8,267.88,144.6,267.83,145.04,268.08z"/>
		<path id="矩形_00000170240620110454840980000011056549285943332520_" class="st5" d="M137.47,272.47L137.47,272.47
			c0.43,0.24,0.36,0.72-0.15,1.02l-0.88,0.52c-0.51,0.3-1.32,0.35-1.75,0.11l0,0c-0.43-0.24-0.36-0.72,0.15-1.02l0.88-0.52
			C136.26,272.25,137.04,272.22,137.47,272.47z"/>
	</g>
	<g>
		<polygon class="st3" points="216.74,265.13 194.84,252.48 194.84,230.58 216.74,243.23 		"/>
		<polygon class="st3" points="216.74,265.13 238.64,252.48 238.64,230.58 216.74,243.23 		"/>
		<polygon class="st4" points="216.82,243.3 194.84,230.61 216.66,217.89 238.64,230.58 		"/>
		<path id="矩形_00000029022306106307731120000016615581152618796712_" class="st3" d="M209.48,225.51L209.48,225.51
			c0.43,0.24,0.36,0.72-0.15,1.02l-4.54,2.69c-0.51,0.3-1.32,0.35-1.75,0.11l0,0c-0.43-0.24-0.36-0.72,0.15-1.02l4.54-2.69
			C208.24,225.31,209.05,225.26,209.48,225.51z"/>
		<path id="矩形_00000085217097738549613980000003468520918600801195_" class="st3" d="M201.91,229.9L201.91,229.9
			c0.43,0.24,0.36,0.72-0.15,1.02l-0.88,0.52c-0.51,0.3-1.32,0.35-1.75,0.11l0,0c-0.43-0.24-0.36-0.72,0.15-1.02l0.88-0.52
			C200.71,229.68,201.48,229.66,201.91,229.9z"/>
	</g>
	<g>
		<polygon class="st2" points="235.39,321.53 213.49,308.88 213.49,286.98 235.39,299.63 		"/>
		<polygon class="st3" points="235.39,321.53 257.29,308.88 257.29,286.98 235.39,299.63 		"/>
		<polygon class="st4" points="235.47,299.69 213.49,287 235.31,274.29 257.29,286.98 		"/>
		<path id="矩形_00000052825243419253822820000010659263525013115827_" class="st3" d="M228.13,281.91L228.13,281.91
			c0.43,0.24,0.36,0.72-0.15,1.02l-4.54,2.69c-0.51,0.3-1.32,0.35-1.75,0.11l0,0c-0.43-0.24-0.36-0.72,0.15-1.02l4.54-2.69
			C226.89,281.71,227.7,281.66,228.13,281.91z"/>
		<path id="矩形_00000154426434702559015290000007554413707486504111_" class="st3" d="M220.57,286.3L220.57,286.3
			c0.43,0.24,0.36,0.72-0.15,1.02l-0.88,0.52c-0.51,0.3-1.32,0.35-1.75,0.11l0,0c-0.43-0.24-0.36-0.72,0.15-1.02l0.88-0.52
			C219.36,286.08,220.14,286.05,220.57,286.3z"/>
	</g>
	<g>
		<polygon class="st2" points="210.45,296.07 188.55,283.43 188.55,261.53 210.45,274.17 		"/>
		<polygon class="st3" points="210.45,296.07 232.35,283.43 232.35,261.53 210.45,274.17 		"/>
		<polygon class="st4" points="210.53,274.24 188.55,261.55 210.37,248.84 232.35,261.53 		"/>
		<path id="矩形_00000160903189634142074530000002891107226704646838_" class="st3" d="M203.19,256.46L203.19,256.46
			c0.43,0.24,0.36,0.72-0.15,1.02l-4.54,2.69c-0.51,0.3-1.32,0.35-1.75,0.11l0,0c-0.43-0.24-0.36-0.72,0.15-1.02l4.54-2.69
			C201.95,256.26,202.76,256.21,203.19,256.46z"/>
		<path id="矩形_00000007397067166545916970000002143585144914139056_" class="st3" d="M195.62,260.85L195.62,260.85
			c0.43,0.24,0.36,0.72-0.15,1.02l-0.88,0.52c-0.51,0.3-1.32,0.35-1.75,0.11l0,0c-0.43-0.24-0.36-0.72,0.15-1.02l0.88-0.52
			C194.42,260.63,195.19,260.6,195.62,260.85z"/>
	</g>
	<g>
		<polygon class="st2" points="195.22,251.04 173.32,238.39 173.32,216.49 195.22,229.14 		"/>
		<polygon class="st3" points="195.22,251.04 217.12,238.39 217.12,216.49 195.22,229.14 		"/>
		<polygon class="st4" points="195.3,229.2 173.32,216.51 195.14,203.8 217.12,216.49 		"/>
		<path id="矩形_00000101794999315356074290000015725765711543275915_" class="st3" d="M187.96,211.42L187.96,211.42
			c0.43,0.24,0.36,0.72-0.15,1.02l-4.54,2.69c-0.51,0.3-1.32,0.35-1.75,0.11l0,0c-0.43-0.24-0.36-0.72,0.15-1.02l4.54-2.69
			C186.72,211.22,187.53,211.17,187.96,211.42z"/>
		<path id="矩形_00000098938928692352587570000014834042473236993666_" class="st3" d="M180.39,215.81L180.39,215.81
			c0.43,0.24,0.36,0.72-0.15,1.02l-0.88,0.52c-0.51,0.3-1.32,0.35-1.75,0.11l0,0c-0.43-0.24-0.36-0.72,0.15-1.02l0.88-0.52
			C179.19,215.59,179.96,215.56,180.39,215.81z"/>
	</g>
	<g>
		<polygon class="st2" points="188.2,225.35 166.3,212.71 166.3,190.81 188.2,203.45 		"/>
		<polygon class="st3" points="188.2,225.35 210.1,212.71 210.1,190.81 188.2,203.45 		"/>
		<polygon class="st4" points="188.28,203.52 166.3,190.83 188.13,178.12 210.1,190.81 		"/>
		<path id="矩形_00000055697330921744431090000007979506223541072519_" class="st5" d="M181.26,185.33L181.26,185.33
			c0.43,0.24,0.36,0.72-0.15,1.02l-4.54,2.69c-0.51,0.3-1.32,0.35-1.75,0.11l0,0c-0.43-0.24-0.36-0.72,0.15-1.02l4.54-2.69
			C180.02,185.13,180.83,185.08,181.26,185.33z"/>
		<path id="矩形_00000052104368206952486960000001307456816210270868_" class="st5" d="M173.69,189.72L173.69,189.72
			c0.43,0.24,0.36,0.72-0.15,1.02l-0.88,0.52c-0.51,0.3-1.32,0.35-1.75,0.11l0,0c-0.43-0.24-0.36-0.72,0.15-1.02l0.88-0.52
			C172.49,189.5,173.26,189.48,173.69,189.72z"/>
	</g>
</g>
<path id="矩形_00000150080378111477988510000010005367634560557244_" class="st3" d="M183.68,255.84L183.68,255.84
	c0.92-0.65,2.5-0.09,3.44,1.22l1.61,2.25c0.94,1.31,0.96,3,0.04,3.65l0,0c-0.92,0.65-2.5,0.09-3.44-1.22l-1.61-2.25
	C182.72,258.09,182.77,256.5,183.68,255.84z"/>
<g>
	<g>
		<g>
			<polygon class="st2" points="168.71,339.2 134.31,319.34 134.31,284.95 168.71,304.81 			"/>
			<polygon class="st3" points="168.71,339.2 203.1,319.34 203.1,284.95 168.71,304.81 			"/>
			<polygon class="st4" points="168.83,304.91 134.31,284.98 168.59,265.02 203.1,284.95 			"/>
		</g>
		<path id="矩形_00000136371979321420593470000005249680387291317162_" class="st5" d="M157.63,275.67L157.63,275.67
			c0.68,0.38,0.56,1.12-0.24,1.6l-7.14,4.22c-0.81,0.48-2.08,0.56-2.75,0.17l0,0c-0.68-0.38-0.56-1.12,0.24-1.6l7.14-4.22
			C155.68,275.37,156.95,275.29,157.63,275.67z"/>
		<path id="矩形_00000106826835317674341130000011384096200676048264_" class="st5" d="M144.7,283.32L144.7,283.32
			c0.68,0.38,0.56,1.12-0.24,1.6l-1.38,0.82c-0.81,0.48-2.08,0.56-2.75,0.17l0,0c-0.68-0.38-0.56-1.12,0.24-1.6l1.38-0.82
			C142.81,282.98,144.03,282.93,144.7,283.32z"/>
	</g>
	<g>
		<path class="st7" d="M188.39,310.02v1.71c-0.06,0.04-0.36,0.24-0.97,0.59c-0.51,0.29-0.88,0.47-1.01,0.53v-1.71
			c-1.97,1.23-3.43,2.49-3.43,3.02c0,0.52,1.47,0.13,3.43-0.87c0.13-0.06,0.49-0.25,1-0.54c0.64-0.36,0.93-0.55,0.98-0.58l0,0
			c1.96-1.22,3.43-2.49,3.43-3.01S190.35,309.02,188.39,310.02z"/>
		<path class="st7" d="M195.23,307.5l-2.86-6.06c-0.02-0.04-0.06-0.05-0.11-0.03l-9.74,5.51c-0.05,0.03-0.09,0.08-0.11,0.15
			l-2.86,9.3c-0.02,0.07-0.01,0.14,0.02,0.16l7.73,5.08c0.05,0.03,0.12-0.01,0.16-0.09l7.73-13.84
			C195.25,307.62,195.26,307.55,195.23,307.5z M188.39,312.58v4.9l-1.98,1.12v-4.9c-2.23,1.13-3.9,1.51-3.9,0.84
			c0-0.67,1.67-2.19,3.9-3.58v-1.53l-2.74,1.55v-2.33l7.46-4.22v2.33l-2.74,1.55v1.53c2.22-1.13,3.89-1.51,3.89-0.84
			C192.28,309.68,190.61,311.19,188.39,312.58z"/>
		<polygon class="st7" points="188.39,309.85 188.39,309.85 188.39,309.85 		"/>
	</g>
</g>
<g>
	<g>
		<polygon class="st2" points="182.15,295.38 147.75,275.52 147.75,241.12 182.15,260.98 		"/>
		<polygon class="st3" points="182.15,295.38 216.54,275.52 216.54,241.12 182.15,260.98 		"/>
		<polygon class="st4" points="182.27,261.09 147.75,241.16 182.02,221.19 216.54,241.12 		"/>
		<path id="矩形_00000161625152259056173680000011980523440365244851_" class="st5" d="M171.07,232.75L171.07,232.75
			c0.68,0.38,0.56,1.12-0.24,1.6l-7.14,4.22c-0.81,0.48-2.08,0.56-2.75,0.17l0,0c-0.68-0.38-0.56-1.12,0.24-1.6l7.14-4.22
			C169.12,232.44,170.39,232.36,171.07,232.75z"/>
		<path id="矩形_00000062888933968975997140000002178608790208134568_" class="st5" d="M159.18,239.65L159.18,239.65
			c0.68,0.38,0.56,1.12-0.24,1.6l-1.38,0.82c-0.81,0.48-2.08,0.56-2.75,0.17l0,0c-0.68-0.38-0.56-1.12,0.24-1.6l1.38-0.82
			C157.29,239.31,158.5,239.26,159.18,239.65z"/>
	</g>
	<g id="Layer_2_00000102540851905900832380000006988007728433942442_">
		<g id="Layer_1-2_00000066482606510416215310000003511022855889460147_">
			<g id="Page-1_00000055700713210850531740000008749194977626926223_">
				<g id="wbtc_colour_00000172408473380103974340000013880287873054759061_">
					<path id="Shape_00000080906745429967918220000017415878320240987804_" class="st0" d="M205.3,258.48l-0.44,0.84
						c2.19,1.98,2.19,6.88,0,11.29l0.44,0.34c2.43-4.88,2.43-10.32,0-12.49V258.48z"/>
					<path id="Shape-2_00000054254308669426799030000013077082175151086260_" class="st0" d="M196,263.71
						c2.39-4.26,6.06-6.3,8.45-4.71l0.44-0.84c-2.64-1.78-6.7,0.48-9.34,5.2L196,263.71z"/>
					<path id="Shape-3_00000151536995416216480280000011159096162566086584_" class="st0" d="M195.59,275.78
						c-2.18-1.98-2.18-6.87,0-11.29l-0.44-0.34c-2.43,4.88-2.43,10.32,0,12.49L195.59,275.78z"/>
					<path id="Shape-4_00000062151920632388065560000016487987413188291494_" class="st0" d="M204.44,271.39
						c-2.39,4.26-6.06,6.3-8.45,4.71l-0.44,0.84c2.64,1.78,6.7-0.48,9.34-5.2L204.44,271.39z"/>
					<path id="Shape-5_00000155110089474802543120000010198488182915200164_" class="st0" d="M203.01,264.02
						c-0.09-1.18-0.88-1.15-1.89-0.72v-1.7l-0.78,0.43v1.67c-0.2,0.11-0.41,0.23-0.62,0.35v-1.67l-0.77,0.43v1.71l-1.58,0.88v1.11
						c0,0,0.57-0.33,0.57-0.32c0.22-0.15,0.41-0.06,0.44,0.21v4.68c0,0.1-0.04,0.21-0.09,0.31c-0.05,0.1-0.13,0.17-0.2,0.2
						c0.01,0.01-0.57,0.32-0.57,0.32l-0.15,1.33l1.56-0.87v1.74l0.78-0.43v-1.71l0.62-0.35v1.7l0.78-0.43v-1.72
						c1.31-0.84,2.23-1.78,2.35-3.49c0.09-1.38-0.37-1.71-1.12-1.53C202.8,265.6,203.08,264.89,203.01,264.02z M201.92,268.33
						c0,1.29-1.66,2.07-2.18,2.36v-2.29C200.27,268.11,201.92,266.98,201.92,268.33z M201.56,265.3c0,1.18-1.38,1.81-1.82,2.05
						v-2.08C200.18,265.03,201.56,264.07,201.56,265.3z"/>
					<path id="Shape-6_00000008116255221057928870000004716742768179740032_" class="st0" d="M200.22,278.31
						c-4.45,2.48-8.05-0.33-8.05-6.28c0-5.94,3.61-12.77,8.05-15.25c4.45-2.48,8.05,0.33,8.05,6.27
						C208.27,269.01,204.67,275.83,200.22,278.31C200.22,278.31,200.22,278.31,200.22,278.31z M200.22,257.63
						c-4.1,2.29-7.42,8.58-7.41,14.05c0,5.47,3.33,8.06,7.42,5.77c4.09-2.29,7.41-8.57,7.41-14.04
						C207.65,257.94,204.33,255.34,200.22,257.63C200.23,257.63,200.22,257.63,200.22,257.63z"/>
				</g>
			</g>
		</g>
	</g>
</g>
<g>
	<g>
		<g>
			<polygon class="st2" points="220.3,371.74 185.9,351.89 185.9,317.49 220.3,337.35 			"/>
			<polygon class="st3" points="220.3,371.74 254.69,351.89 254.69,317.49 220.3,337.35 			"/>
			<polygon class="st4" points="220.42,337.46 185.9,317.53 220.18,297.56 254.69,317.49 			"/>
		</g>
		<path id="矩形_00000137090123107722679210000002194064958726255236_" class="st5" d="M209.22,308.21L209.22,308.21
			c0.68,0.38,0.56,1.12-0.24,1.6l-7.14,4.22c-0.81,0.48-2.08,0.56-2.75,0.17l0,0c-0.68-0.38-0.56-1.12,0.24-1.6l7.14-4.22
			C207.27,307.91,208.54,307.83,209.22,308.21z"/>
		<path id="矩形_00000137830544964306238180000010640803284822027688_" class="st5" d="M196.29,315.86L196.29,315.86
			c0.68,0.38,0.56,1.12-0.24,1.6l-1.38,0.82c-0.81,0.48-2.08,0.56-2.75,0.17l0,0c-0.68-0.38-0.56-1.12,0.24-1.6l1.38-0.82
			C194.41,315.52,195.62,315.48,196.29,315.86z"/>
	</g>
	<g id="Layer_x0020_1_00000002357447354598212010000016124669940793836706_">
		<g id="_1421394342400_00000139988896349069244230000013150670203882902420_">
			<g>
				<polygon class="st20" points="202.19,333.94 202.07,334.33 202.07,347.64 202.19,347.85 207.61,347.39 				"/>
				<polygon class="st20" points="202.19,333.94 196.77,341 202.19,347.85 202.19,341.39 				"/>
				<polygon class="st20" points="202.19,349.02 202.12,349.07 202.12,353.81 202.19,354.07 207.61,348.56 				"/>
				<polygon class="st20" points="202.19,354.07 202.19,349.02 196.77,342.17 				"/>
				<polygon class="st20" points="202.19,347.85 207.61,347.39 202.19,341.39 				"/>
				<polygon class="st20" points="196.77,341 202.19,347.85 202.19,341.39 				"/>
			</g>
		</g>
	</g>
</g>
<g>
	<path class="st2" d="M136.67,208.57L43.6,262.79v-98.82l84.75-49.37c8.54-4.32,12.42-1.6,12.42,7.14v79.69
		C140.77,204.37,139.21,207.09,136.67,208.57z"/>
	<path class="st4" d="M150.21,216.82l-93.07,54.22v-98.82l84.75-49.37c8.54-4.32,12.42-1.6,12.42,7.14v79.69
		C154.31,212.62,152.75,215.34,150.21,216.82z"/>
	<polygon class="st2" points="57.14,271.04 43.6,262.91 43.6,164.13 57.14,172.25 	"/>
	
		<ellipse transform="matrix(0.4157 -0.9095 0.9095 0.4157 -83.2332 231.0925)" class="st7" cx="138.25" cy="180.33" rx="9.38" ry="5.12"/>
</g>
<radialGradient id="SVGID_1_" cx="-4852.6294" cy="2753.0742" r="37.8577" gradientTransform="matrix(-1.0502 0.5314 -0.0751 0.3464 -4784.1851 1963.9249)" gradientUnits="userSpaceOnUse">
	<stop  offset="0" style="stop-color:#B8B3D4"/>
	<stop  offset="0.3457" style="stop-color:#BAB6D6;stop-opacity:0.6543"/>
	<stop  offset="0.6064" style="stop-color:#C2C0DA;stop-opacity:0.3936"/>
	<stop  offset="0.8384" style="stop-color:#D0D0E3;stop-opacity:0.1616"/>
	<stop  offset="1" style="stop-color:#DDE0EB;stop-opacity:0"/>
</radialGradient>
<path style="opacity:0.29;fill:url(#SVGID_1_);" d="M73.43,345.39c19.96-15.46,50.35-30.91,67.89-34.51s15.58,6.02-4.38,21.48
	c-19.96,15.46-50.35,30.91-67.89,34.51S53.47,360.85,73.43,345.39z"/>
<polygon class="st3" points="48.22,166.9 133.02,116.9 141.89,122.84 57.14,172.25 "/>
<g>
	<path id="矩形_00000027592309788354587420000006403522287918551171_" class="st14" d="M149.34,390.03L149.34,390.03
		c0.62,0,1.15,0.76,1.15,1.64v1.52c0,0.88-0.53,1.64-1.15,1.64l0,0c-0.62,0-1.15-0.76-1.15-1.64v-1.52
		C148.2,390.72,148.72,390.03,149.34,390.03z"/>
	
		<radialGradient id="SVGID_00000047042362173806569340000007481154655450760858_" cx="117.7997" cy="424.1551" r="29.1582" gradientTransform="matrix(1 0 0 0.5898 0 173.9913)" gradientUnits="userSpaceOnUse">
		<stop  offset="0" style="stop-color:#B8B3D4"/>
		<stop  offset="0.3457" style="stop-color:#BAB6D6;stop-opacity:0.6543"/>
		<stop  offset="0.6064" style="stop-color:#C2C0DA;stop-opacity:0.3936"/>
		<stop  offset="0.8384" style="stop-color:#D0D0E3;stop-opacity:0.1616"/>
		<stop  offset="1" style="stop-color:#DDE0EB;stop-opacity:0"/>
	</radialGradient>
	<path style="opacity:0.67;fill:url(#SVGID_00000047042362173806569340000007481154655450760858_);" d="M142.8,410.08
		c-13.68-7.9-35.96-8-49.77-0.23s-13.91,20.48-0.23,28.37c13.68,7.9,35.96,8,49.77,0.23C156.37,430.68,156.48,417.98,142.8,410.08z"
		/>
	<g>
		<path class="st81" d="M156.3,374.05v-49.28c0-0.23,0.02-0.45,0.02-0.68c0-22.91-18.57-41.48-41.48-41.48
			c-22.91,0-41.48,18.57-41.48,41.48c0,0.36,0.02,0.72,0.03,1.07v44.66h-0.03v22.67c0,2.84,2.3,5.15,5.15,5.15
			c2.84,0,5.15-2.31,5.15-5.15v-0.83c0.56,0.36,1.13,0.72,1.74,1.07c1.83,1.06,3.79,1.99,5.85,2.81v8.2c0,2.84,2.3,5.15,5.15,5.15
			c2.84,0,5.15-2.31,5.15-5.15v-5.23c2.95,0.57,5.99,0.96,9.06,1.14v12.59c0,2.84,2.3,5.15,5.15,5.15c2.84,0,5.15-2.31,5.15-5.15
			v-12.7c3.39-0.28,6.73-0.8,9.93-1.55v6.36c0,2.84,2.3,5.15,5.15,5.15s5.15-2.31,5.15-5.15v-9.87c1-0.47,1.97-0.96,2.91-1.49
			c0.7-0.39,1.35-0.8,1.99-1.21v0.71c0,2.84,2.3,5.15,5.15,5.15c2.84,0,5.15-2.31,5.15-5.15v-18.45H156.3z"/>
		
			<radialGradient id="SVGID_00000078746295718248115830000000328783712287941040_" cx="139.5224" cy="300.0344" r="106.6854" gradientUnits="userSpaceOnUse">
			<stop  offset="0.0124" style="stop-color:#DD78CE"/>
			<stop  offset="0.4936" style="stop-color:#A7589A"/>
			<stop  offset="0.5829" style="stop-color:#A0619E"/>
			<stop  offset="0.7273" style="stop-color:#8E79A8"/>
			<stop  offset="0.9078" style="stop-color:#709FB9"/>
			<stop  offset="1" style="stop-color:#5EB6C3"/>
		</radialGradient>
		<path style="fill:url(#SVGID_00000078746295718248115830000000328783712287941040_);" d="M156.3,374.05v-49.28
			c0-0.23,0.02-0.45,0.02-0.68c0-22.91-18.57-41.48-41.48-41.48c-22.91,0-41.48,18.57-41.48,41.48c0,0.36,0.02,0.72,0.03,1.07v44.66
			h-0.03v22.67c0,2.84,2.3,5.15,5.15,5.15c2.84,0,5.15-2.31,5.15-5.15v-0.83c0.56,0.36,1.13,0.72,1.74,1.07
			c1.83,1.06,3.79,1.99,5.85,2.81v8.2c0,2.84,2.3,5.15,5.15,5.15c2.84,0,5.15-2.31,5.15-5.15v-5.23c2.95,0.57,5.99,0.96,9.06,1.14
			v12.59c0,2.84,2.3,5.15,5.15,5.15c2.84,0,5.15-2.31,5.15-5.15v-12.7c3.39-0.28,6.73-0.8,9.93-1.55v6.36c0,2.84,2.3,5.15,5.15,5.15
			s5.15-2.31,5.15-5.15v-9.87c1-0.47,1.97-0.96,2.91-1.49c0.7-0.39,1.35-0.8,1.99-1.21v0.71c0,2.84,2.3,5.15,5.15,5.15
			c2.84,0,5.15-2.31,5.15-5.15v-18.45H156.3z"/>
	</g>
	<path id="矩形_00000152944834369539099730000016252393706229862838_" class="st14" d="M77.25,360.21L77.25,360.21
		c1.12,0,2.09,1.38,2.09,2.99v14.25c0,1.61-0.96,2.99-2.09,2.99l0,0c-1.12,0-2.09-1.38-2.09-2.99V363.2
		C75.16,361.59,76.13,360.21,77.25,360.21z"/>
	<path id="矩形_00000045583776776573521690000005425702571327890615_" class="st14" d="M138.55,297.12L138.55,297.12
		c1.37-1.02,3.68-0.37,5.02,1.41l2.29,3.06c1.34,1.78,1.31,4.19-0.06,5.22l0,0c-1.37,1.02-3.68,0.37-5.02-1.41l-2.29-3.06
		C137.06,300.42,137.18,298.14,138.55,297.12z"/>
	<path id="矩形_00000067232291870130697600000011919284958754619018_" class="st14" d="M94.65,396.8L94.65,396.8
		c1.12,0,2.09,1.38,2.09,2.99v2.76c0,1.61-0.96,2.99-2.09,2.99l0,0c-1.12,0-2.09-1.38-2.09-2.99v-2.76
		C92.56,398.06,93.52,396.8,94.65,396.8z"/>
	<path id="矩形_00000047768702531513686180000008577605401748337807_" class="st14" d="M77,386L77,386c1.12,0,2.09,1.38,2.09,2.99
		v2.76c0,1.61-0.96,2.99-2.09,2.99l0,0c-1.12,0-2.09-1.38-2.09-2.99v-2.76C74.91,387.26,75.88,386,77,386z"/>
	<path id="矩形_00000017500112818748170300000011023041496377661335_" class="st14" d="M114.84,405.54L114.84,405.54
		c1.12,0,2.09,1.38,2.09,2.99v2.76c0,1.61-0.96,2.99-2.09,2.99l0,0c-1.12,0-2.09-1.38-2.09-2.99v-2.76
		C112.75,406.8,113.71,405.54,114.84,405.54z"/>
	<path id="矩形_00000087379536985998452180000010252065639699536546_" class="st14" d="M134.54,400.19L134.54,400.19
		c0.89,0,1.66,1.1,1.66,2.37v2.19c0,1.28-0.76,2.37-1.66,2.37l0,0c-0.89,0-1.66-1.1-1.66-2.37v-2.19
		C132.88,401.2,133.65,400.19,134.54,400.19z"/>
	<g>
		<path id="椭圆形_00000137837083813257603020000007687423495718196108_" class="st83" d="M124.85,355.08
			c4.06-0.17,7.1-3.66,7.09-6c0-0.94-0.55-1.75-1.38-1.81c-1.29-0.13-3.23,0.7-5.72,0.8c-2.31,0.1-3.78-0.5-5.53-0.42
			c-1.84,0.08-1.75,2.22-1.47,3.05C118.48,353.01,120.7,355.25,124.85,355.08z"/>
		<path id="椭圆形_00000121275121431432696730000017046847632692980900_" class="st84" d="M124.93,353.11
			c4.15-0.17,7.19-3.38,7.19-5.63c0-0.84-0.55-1.57-1.38-1.63c-1.29-0.13-3.32,0.7-5.81,0.8c-2.4,0.1-3.78-0.5-5.62-0.43
			c-1.84,0.08-1.75,2.13-1.48,2.87C118.48,351.22,120.79,353.28,124.93,353.11z"/>
	</g>
	<g>
		
			<ellipse transform="matrix(0.5671 -0.8237 0.8237 0.5671 -226.4269 232.4465)" class="st84" cx="107.9" cy="331.61" rx="9.5" ry="9.1"/>
		<path id="形状结合_00000036223276195754916150000004161394281118004645_" class="st85" d="M109.1,321.65
			c4.24-0.18,7.66,3.98,7.66,9.22c0,0.19,0,0.37,0,0.56l0,0.56c0-5.33-3.33-9.59-7.48-9.42c-4.15,0.17-7.46,4.61-7.46,10.04
			c0,1.03,0.09,2.05,0.37,2.98c-0.46-1.2-0.74-2.59-0.74-3.99C101.45,326.27,104.86,321.82,109.1,321.65z"/>
		<path id="形状结合_00000103967625990562806560000007501887144214676671_" class="st86" d="M109.1,320.52
			c4.7-0.2,8.58,4.41,8.58,10.31s-3.86,10.83-8.57,11.02s-8.58-4.41-8.58-10.31C100.53,325.65,104.3,320.72,109.1,320.52z
			 M109.1,321.65c-4.24,0.18-7.65,4.62-7.64,9.86s3.42,9.4,7.66,9.22c4.24-0.18,7.65-4.62,7.64-9.86
			C116.76,325.63,113.25,321.47,109.1,321.65z"/>
	</g>
	<g>
		
			<ellipse transform="matrix(0.5671 -0.8237 0.8237 0.5671 -211.9916 257.1498)" class="st84" cx="138.62" cy="330.23" rx="9.5" ry="9.1"/>
		<path id="形状结合_00000151540685922974454420000013796076548946660259_" class="st85" d="M139.61,320.27
			c4.24-0.18,7.66,3.98,7.66,9.22c0,0.19,0,0.37,0,0.56l0,0.56c0-5.33-3.33-9.59-7.48-9.42c-4.15,0.17-7.46,4.61-7.46,10.04
			c0,1.03,0.09,2.05,0.37,2.98c-0.46-1.2-0.74-2.59-0.74-3.99C131.96,324.9,135.37,320.45,139.61,320.27z"/>
		<path id="形状结合_00000031209230853963400920000005064558258675277704_" class="st86" d="M139.61,319.15
			c4.7-0.2,8.58,4.41,8.58,10.31c0.01,5.89-3.86,10.83-8.57,11.02c-4.7,0.2-8.58-4.41-8.58-10.31
			C131.04,324.28,134.82,319.35,139.61,319.15z M139.61,320.27c-4.24,0.18-7.65,4.62-7.64,9.86c0,5.24,3.42,9.4,7.66,9.22
			c4.24-0.18,7.65-4.62,7.64-9.86C147.27,324.26,143.76,320.1,139.61,320.27z"/>
	</g>
	<circle class="st83" cx="113.44" cy="331.61" r="3.77"/>
	<circle class="st83" cx="143.99" cy="330.48" r="3.77"/>
</g>
</svg>
