<?xml version="1.0" encoding="utf-8"?>
<!-- Generator: Adobe Illustrator 27.8.1, SVG Export Plug-In . SVG Version: 6.00 Build 0)  -->
<svg version="1.1" id="Слой_1" xmlns="http://www.w3.org/2000/svg" xmlns:xlink="http://www.w3.org/1999/xlink" x="0px" y="0px"
	 viewBox="0 0 290 574.88" style="enable-background:new 0 0 290 574.88;" xml:space="preserve">
<style type="text/css">
	.st0{stroke:#000000;stroke-linecap:round;stroke-linejoin:round;stroke-miterlimit:10;}
	.st1{fill:#222846;stroke:#000000;stroke-linecap:round;stroke-linejoin:round;stroke-miterlimit:10;}
	.st2{fill-rule:evenodd;clip-rule:evenodd;stroke:#000000;stroke-linecap:round;stroke-linejoin:round;stroke-miterlimit:10;}
	
		.st3{fill-rule:evenodd;clip-rule:evenodd;fill:#222846;stroke:#000000;stroke-linecap:round;stroke-linejoin:round;stroke-miterlimit:10;}
	
		.st4{fill-rule:evenodd;clip-rule:evenodd;fill:#4A5479;stroke:#000000;stroke-linecap:round;stroke-linejoin:round;stroke-miterlimit:10;}
	.st5{fill-rule:evenodd;clip-rule:evenodd;fill:#5C6A91;}
	.st6{fill:#6D75A2;}
	.st7{stroke:#1A213A;stroke-linecap:round;stroke-linejoin:round;stroke-miterlimit:10;}
	.st8{stroke:#4A5479;stroke-linecap:round;stroke-linejoin:round;stroke-miterlimit:10;}
	.st9{fill:url(#SVGID_1_);}
	.st10{fill:url(#SVGID_00000037676410916575442350000014335360637486190483_);}
	.st11{fill:url(#SVGID_00000165195414323532347440000001337582859022587042_);}
	
		.st12{fill:none;stroke:url(#SVGID_00000124152251568150444910000015268943922628599952_);stroke-width:5;stroke-linecap:round;stroke-linejoin:round;stroke-miterlimit:10;}
	.st13{fill:url(#SVGID_00000145738905081656625080000017128373618492572064_);}
	.st14{fill-rule:evenodd;clip-rule:evenodd;fill:#1AD4B3;}
	.st15{fill-rule:evenodd;clip-rule:evenodd;fill:#FC4F83;}
	.st16{fill:#4A5479;stroke:#000000;stroke-linecap:round;stroke-linejoin:round;stroke-miterlimit:10;}
	
		.st17{fill:url(#SVGID_00000153663160581984715000000013764140278320651427_);stroke:#1D1D1B;stroke-width:0.2115;stroke-linecap:round;stroke-linejoin:round;stroke-miterlimit:10;}
	.st18{fill-rule:evenodd;clip-rule:evenodd;}
	
		.st19{fill:url(#SVGID_00000176042627359258823670000017174252709152185230_);stroke:#1D1D1B;stroke-width:0.2115;stroke-linecap:round;stroke-linejoin:round;stroke-miterlimit:10;}
	
		.st20{fill:url(#SVGID_00000133512565398017638800000001273697421232339587_);stroke:#1D1D1B;stroke-width:0.2115;stroke-linecap:round;stroke-linejoin:round;stroke-miterlimit:10;}
	
		.st21{fill:url(#SVGID_00000106864086309133676150000017221628971200933044_);stroke:#1D1D1B;stroke-width:0.2115;stroke-linecap:round;stroke-linejoin:round;stroke-miterlimit:10;}
	.st22{fill-rule:evenodd;clip-rule:evenodd;fill:url(#SVGID_00000151545252323933809800000011671557805019487909_);}
	.st23{fill-rule:evenodd;clip-rule:evenodd;fill:url(#SVGID_00000173863061018536582930000009673595304861271688_);}
	.st24{fill:url(#SVGID_00000005957410983542376370000012407742642648994451_);}
	.st25{fill:url(#SVGID_00000009558036887192329190000006124817219734026415_);}
	.st26{fill:url(#SVGID_00000150086479558252993540000012244197025345877385_);}
	
		.st27{fill-rule:evenodd;clip-rule:evenodd;fill:#4AA089;stroke:url(#SVGID_00000124157810996197148510000015010639182196010939_);stroke-linecap:round;stroke-linejoin:round;stroke-miterlimit:10;}
	
		.st28{fill-rule:evenodd;clip-rule:evenodd;fill:#4AA089;stroke:url(#SVGID_00000173130857428753046810000012072466516802205870_);stroke-linecap:round;stroke-linejoin:round;stroke-miterlimit:10;}
	
		.st29{fill:none;stroke:url(#SVGID_00000134210164923851578310000018011010475813290132_);stroke-width:5;stroke-linecap:round;stroke-linejoin:round;stroke-miterlimit:10;}
	.st30{fill:url(#SVGID_00000062893199441082042570000003330551911243267479_);}
	
		.st31{fill:none;stroke:url(#SVGID_00000042701444197985265790000002753363152094024351_);stroke-width:5;stroke-linecap:round;stroke-linejoin:round;stroke-miterlimit:10;}
	.st32{fill:url(#SVGID_00000088839273744544323890000002393792482312980413_);}
	
		.st33{fill:none;stroke:url(#SVGID_00000065032081984791545940000008406651542946238891_);stroke-width:5;stroke-linecap:round;stroke-linejoin:round;stroke-miterlimit:10;}
	.st34{fill:url(#SVGID_00000121271899764772564080000004481580496104091822_);}
	.st35{fill:#4A5479;}
	
		.st36{fill-rule:evenodd;clip-rule:evenodd;fill:#1AD4B3;stroke:#111422;stroke-linecap:round;stroke-linejoin:round;stroke-miterlimit:10;}
	
		.st37{fill-rule:evenodd;clip-rule:evenodd;fill:#4AA089;stroke:url(#SVGID_00000135690127061249215130000002435627824646177438_);stroke-linecap:round;stroke-linejoin:round;stroke-miterlimit:10;}
	.st38{fill:#FFFFFF;}
	
		.st39{fill-rule:evenodd;clip-rule:evenodd;fill:#FC4F83;stroke:#111422;stroke-linecap:round;stroke-linejoin:round;stroke-miterlimit:10;}
	
		.st40{fill-rule:evenodd;clip-rule:evenodd;fill:#CB3D61;stroke:#000000;stroke-linecap:round;stroke-linejoin:round;stroke-miterlimit:10;}
	.st41{fill:url(#SVGID_00000098909001052683398660000012206669273935117730_);}
	.st42{fill:url(#SVGID_00000011033046141629092240000012970234233937027476_);}
	.st43{fill:url(#SVGID_00000168810756284459812720000017827834049557748386_);}
	
		.st44{fill:none;stroke:url(#SVGID_00000078003559770839714420000006416353535882087086_);stroke-width:5;stroke-linecap:round;stroke-linejoin:round;stroke-miterlimit:10;}
	.st45{fill:url(#SVGID_00000131333831234013747220000010157920328032171945_);}
	
		.st46{fill:none;stroke:url(#SVGID_00000135682087204998907810000009208761413727277699_);stroke-width:5;stroke-linecap:round;stroke-linejoin:round;stroke-miterlimit:10;}
	.st47{fill:url(#SVGID_00000148623918159675503950000010717325007393626242_);}
	.st48{fill:url(#SVGID_00000066499169752457511880000013328332260724976781_);}
	.st49{fill:#222846;}
	.st50{fill:url(#SVGID_00000107563105183135089110000011273939791436383622_);}
	.st51{fill:url(#SVGID_00000132079141078820021570000010192355557101035664_);}
	.st52{fill:url(#SVGID_00000047739826438137980890000001246208050180333719_);}
	.st53{fill:url(#SVGID_00000062886139911682239460000001237275028041608633_);}
	.st54{fill:url(#SVGID_00000031918325785280350230000015641889484126920881_);}
	.st55{fill:url(#SVGID_00000095320071284558547900000011860655180905468547_);}
	.st56{fill-rule:evenodd;clip-rule:evenodd;fill:#6D75A2;}
	.st57{fill-rule:evenodd;clip-rule:evenodd;fill:#4A5479;}
	.st58{opacity:0.29;fill:url(#SVGID_00000138571077513394329920000012232572124928550550_);enable-background:new    ;}
	.st59{fill:url(#SVGID_00000052826658754019427850000010235049910855007165_);}
	.st60{fill:url(#SVGID_00000110459020278969195280000007746325853305094821_);}
	.st61{fill:url(#SVGID_00000048464923782404157960000006621132322840159113_);}
	.st62{fill-rule:evenodd;clip-rule:evenodd;fill:url(#SVGID_00000129926374454796695720000013646419351984805549_);}
	.st63{fill:url(#SVGID_00000143586940286374940680000016460776382855528365_);}
	.st64{fill:url(#SVGID_00000085213750238003525500000008226471155686370230_);}
	.st65{fill:url(#SVGID_00000114037489887530539030000008838469637411911075_);}
	.st66{fill:url(#SVGID_00000036241432667744995820000017422472771936745092_);}
	.st67{opacity:0.29;fill:url(#SVGID_00000080912096669291271340000010940870768759717537_);enable-background:new    ;}
	.st68{fill-rule:evenodd;clip-rule:evenodd;fill:#222846;}
	
		.st69{fill:none;stroke:url(#SVGID_00000033356297242995182670000007498903658971933354_);stroke-width:5;stroke-linecap:round;stroke-linejoin:round;stroke-miterlimit:10;}
	.st70{fill:url(#SVGID_00000065068194260161593890000017571766272067337875_);}
	
		.st71{fill:none;stroke:url(#SVGID_00000106844798096489973280000012489846960662883717_);stroke-width:5;stroke-linecap:round;stroke-linejoin:round;stroke-miterlimit:10;}
	.st72{fill:url(#SVGID_00000037653489135249542700000013139370522445518728_);}
	
		.st73{fill:none;stroke:url(#SVGID_00000035496054214398043810000010395160534083995791_);stroke-width:5;stroke-linecap:round;stroke-linejoin:round;stroke-miterlimit:10;}
	.st74{fill:url(#SVGID_00000146501374234898937740000010154855961603302568_);}
	
		.st75{fill-rule:evenodd;clip-rule:evenodd;fill:#4AA089;stroke:url(#SVGID_00000031206078118542224190000015978124365166286755_);stroke-linecap:round;stroke-linejoin:round;stroke-miterlimit:10;}
	.st76{fill-rule:evenodd;clip-rule:evenodd;fill:url(#SVGID_00000153673669047309202730000009184635411702915242_);}
	.st77{fill:url(#SVGID_00000045600989625921747030000003759436589125779100_);}
	.st78{fill:url(#SVGID_00000026145450473784787070000001053457592749926050_);}
	.st79{fill:url(#SVGID_00000063634968242059822950000008009921812926962108_);}
	.st80{opacity:0.29;fill:url(#SVGID_00000034079830060898936110000007713931282153732014_);}
	.st81{opacity:0.29;fill:url(#SVGID_00000132072059307584180520000013683401320858689681_);}
	.st82{opacity:0.2563;fill-rule:evenodd;clip-rule:evenodd;fill:#FFFFFF;enable-background:new    ;}
	.st83{opacity:0.67;fill:url(#SVGID_00000152966035282752171920000000518725741766209963_);}
	.st84{fill:#3FA9BD;}
	.st85{fill:url(#SVGID_00000142135670001238202040000007674024296865727405_);}
	.st86{fill-rule:evenodd;clip-rule:evenodd;fill:#555069;}
	.st87{fill-rule:evenodd;clip-rule:evenodd;fill:#FFFFFF;}
	.st88{fill-rule:evenodd;clip-rule:evenodd;fill:#AFAFB1;}
	.st89{fill-rule:evenodd;clip-rule:evenodd;fill:#D3D3D3;}
	.st90{opacity:0.67;fill:url(#SVGID_00000036237769784460486210000015528105835906009993_);}
	.st91{fill:url(#SVGID_00000135673181532647202880000007991255706146964614_);}
	.st92{opacity:0.67;fill:url(#SVGID_00000124122507624718399920000008307223414211558554_);}
	.st93{fill:url(#SVGID_00000098928214251024605120000012349154473851807618_);}
	.st94{opacity:0.67;fill:url(#SVGID_00000154418071616780838130000001311858794121530548_);}
	.st95{fill:url(#SVGID_00000085951930595044323370000012924843143099502222_);}
	.st96{opacity:0.67;fill:url(#SVGID_00000105386212697758449660000014832340152626847912_);}
	.st97{fill:url(#SVGID_00000017474289138777273700000002672545445673307025_);}
	.st98{opacity:0.67;fill:url(#SVGID_00000062184917999617374870000018186526379608983205_);}
	.st99{fill:url(#SVGID_00000183213895857667823610000012727184520301567654_);}
	.st100{fill:#1AD4B3;}
	.st101{opacity:0.67;fill:url(#SVGID_00000179612472967376084590000015803708650960960394_);}
	.st102{fill:url(#SVGID_00000123405060391571550690000017959434756182160826_);}
	.st103{opacity:0.67;fill:url(#SVGID_00000051346699712737382460000009720630443096722593_);}
	.st104{fill:url(#SVGID_00000019668363529768987310000011746205535522143909_);}
	.st105{opacity:0.67;fill:url(#SVGID_00000018922544201977173950000016441195763105703045_);}
	.st106{fill:url(#SVGID_00000011723214936692725720000011858074648812846522_);}
	.st107{opacity:0.67;fill:url(#SVGID_00000013184731124176960460000011152470433530580647_);}
	.st108{fill:url(#SVGID_00000111906686039819651030000004987039587020426896_);}
	.st109{opacity:0.67;fill:url(#SVGID_00000083049280972157071600000014327667850777685645_);}
	.st110{fill:url(#SVGID_00000000187216497968349350000002853325313078912182_);}
	.st111{opacity:0.67;fill:url(#SVGID_00000085219007128559136720000008773442758018417318_);}
	.st112{fill:url(#SVGID_00000011753592410871441620000013303815505317842879_);}
	
		.st113{fill-rule:evenodd;clip-rule:evenodd;fill:none;stroke:#FFFFFF;stroke-width:0.7384;stroke-linecap:round;stroke-linejoin:round;stroke-miterlimit:10;}
	.st114{opacity:0.67;fill:url(#SVGID_00000012453136934800345460000004671983206507281806_);}
	.st115{fill:url(#SVGID_00000152227798756996377060000015943158534592194690_);}
	.st116{opacity:0.67;fill:url(#SVGID_00000138567583537551658380000017009291024571342768_);}
	.st117{fill:url(#SVGID_00000163045080451292712120000009256728600317317798_);}
	.st118{opacity:0.67;fill:url(#SVGID_00000008108630195057056630000015684755204407807894_);}
	.st119{fill:url(#SVGID_00000081610307083878126790000016388376306540485552_);}
	.st120{opacity:0.67;fill:url(#SVGID_00000097489053901420699130000007540832390157812659_);}
	.st121{fill:url(#SVGID_00000002366443397301993760000008055680512229938599_);}
	.st122{opacity:0.67;fill:url(#SVGID_00000143603371245497418590000013003949664368198298_);}
	.st123{fill:url(#SVGID_00000020398924798838413490000008199789652976155803_);}
	.st124{opacity:0.67;fill:url(#SVGID_00000038396127012545889560000008832273175986745740_);}
	.st125{fill:url(#SVGID_00000080176446555902434510000007623536359904382091_);}
	.st126{opacity:0.67;fill:url(#SVGID_00000067939953869006724130000010112839726408812215_);}
	.st127{fill:url(#SVGID_00000098190734474245355020000002398909353498893475_);}
	.st128{opacity:0.67;fill:url(#SVGID_00000143579690496110013910000000060587063805130386_);}
	.st129{fill:url(#SVGID_00000106834652343969679190000012294933495605052037_);}
	.st130{opacity:0.67;fill:url(#SVGID_00000080199733810571554710000005303026643247558818_);enable-background:new    ;}
	.st131{fill:#5EA6B9;}
	.st132{fill:url(#SVGID_00000181788788261398797300000015871452249940797103_);}
	.st133{fill-rule:evenodd;clip-rule:evenodd;fill:#545067;}
	.st134{fill-rule:evenodd;clip-rule:evenodd;fill:#AEAEB0;}
	.st135{fill-rule:evenodd;clip-rule:evenodd;fill:#D2D2D2;}
	.st136{opacity:0.67;fill:url(#SVGID_00000116933608320296345350000013581045350020339633_);enable-background:new    ;}
	.st137{fill:url(#SVGID_00000170265969274437762560000018249449467963518085_);}
	.st138{fill-rule:evenodd;clip-rule:evenodd;fill:#63D0B3;}
	
		.st139{fill-rule:evenodd;clip-rule:evenodd;fill:none;stroke:#000000;stroke-linecap:round;stroke-linejoin:round;stroke-miterlimit:10;}
	.st140{fill-rule:evenodd;clip-rule:evenodd;fill:#E85C83;}
	
		.st141{fill-rule:evenodd;clip-rule:evenodd;fill:#4AA089;stroke:url(#SVGID_00000054971986046283236300000014052886198112440464_);stroke-linecap:round;stroke-linejoin:round;stroke-miterlimit:10;}
	.st142{fill:#5DC29D;}
	.st143{fill:url(#SVGID_00000079454523745879219300000001078068994083567027_);}
	.st144{fill:url(#SVGID_00000040549909513821716890000018293156146429878916_);}
	.st145{fill:#E85C83;}
	.st146{opacity:0.67;fill:url(#SVGID_00000036223235278525314280000010497258757247536045_);enable-background:new    ;}
	.st147{fill:url(#SVGID_00000109024780752603592700000009286956455549828790_);}
	
		.st148{fill:none;stroke:url(#SVGID_00000024691434648420614850000007444952674489594251_);stroke-width:5;stroke-linecap:round;stroke-linejoin:round;stroke-miterlimit:10;}
	.st149{fill:url(#SVGID_00000178183109105825137590000003377033634765262235_);}
	.st150{opacity:0.67;fill:url(#SVGID_00000092421207807367942320000000472609963064741301_);enable-background:new    ;}
	.st151{fill:url(#SVGID_00000103264823124854154490000007831257101509307558_);}
	.st152{opacity:0.67;fill:url(#SVGID_00000176745689549765909210000000439291928349535377_);}
	.st153{fill:url(#SVGID_00000128462184783937508770000012420457853230733996_);}
	.st154{opacity:0.67;fill:url(#SVGID_00000109015267259513507020000003372171444254989978_);}
	.st155{fill:url(#SVGID_00000048490930328382750900000007665186259007465617_);}
	.st156{opacity:0.67;fill:url(#SVGID_00000145742333691355314450000018400198310366508947_);}
	.st157{fill:url(#SVGID_00000025427689176177904430000004691905330593425796_);}
	.st158{opacity:0.67;fill:url(#SVGID_00000134949453161216646840000017206859252904751493_);}
	.st159{fill:url(#SVGID_00000085950874094965643060000014818449648970951588_);}
	.st160{opacity:0.67;fill:url(#SVGID_00000179608178230296177540000014913756403186980793_);}
	.st161{fill:url(#SVGID_00000022533960076319234370000009690197557911291049_);}
	.st162{fill:none;stroke:#000000;stroke-width:22;stroke-linecap:round;stroke-linejoin:round;stroke-miterlimit:10;}
	.st163{fill:url(#SVGID_00000120516617803476670360000012714668588635138495_);}
	.st164{fill:url(#SVGID_00000119809988008762367310000004272945085111943051_);}
	.st165{fill:none;stroke:url(#SVGID_00000090270202384897833750000015030197649868933270_);stroke-width:5;stroke-miterlimit:10;}
	.st166{fill:url(#SVGID_00000059273310461532489400000008461188813722513027_);}
	.st167{fill:none;}
	.st168{opacity:0.67;fill:url(#SVGID_00000150815045396195453400000010059621617949518270_);}
	.st169{fill:url(#SVGID_00000110454154051728567820000004965147218242214317_);}
	.st170{fill:none;stroke:url(#SVGID_00000165206711940215053280000014372499974230454936_);stroke-width:5;stroke-miterlimit:10;}
	.st171{fill:url(#SVGID_00000158725301246123339090000010028109812877563265_);}
	.st172{opacity:0.67;fill:url(#SVGID_00000052064408327221000180000003867199520324643719_);}
	.st173{fill:url(#SVGID_00000117666532772040357730000000883273613061150869_);}
	.st174{opacity:0.67;fill:url(#SVGID_00000085242986581852420690000005108952428709349528_);}
	.st175{fill:url(#SVGID_00000173863458985258396390000010441840365268928948_);}
	.st176{opacity:0.67;fill:url(#SVGID_00000170264672403588472350000014552789231595305384_);}
	.st177{fill:url(#SVGID_00000124863604161506187900000008280146702259900820_);}
</style>
<g>
	<g>
		<polygon class="st2" points="153.16,279.55 131.26,266.91 131.26,245.01 153.16,257.65 		"/>
		<polygon class="st3" points="153.16,279.55 175.06,266.91 175.06,245.01 153.16,257.65 		"/>
		<polygon class="st4" points="153.24,257.72 131.26,245.03 153.08,232.32 175.06,245.01 		"/>
		<path id="矩形_00000032629608643589246760000011313044689763369386_" class="st5" d="M146.22,239.53L146.22,239.53
			c0.43,0.24,0.36,0.72-0.15,1.02l-4.54,2.69c-0.51,0.3-1.32,0.35-1.75,0.11l0,0c-0.43-0.24-0.36-0.72,0.15-1.02l4.54-2.69
			C144.98,239.33,145.79,239.28,146.22,239.53z"/>
		<path id="矩形_00000013889800913030314600000010854794274542956703_" class="st5" d="M138.65,243.92L138.65,243.92
			c0.43,0.24,0.36,0.72-0.15,1.02l-0.88,0.52c-0.51,0.3-1.32,0.35-1.75,0.11l0,0c-0.43-0.24-0.36-0.72,0.15-1.02l0.88-0.52
			C137.45,243.7,138.22,243.67,138.65,243.92z"/>
	</g>
	<path id="矩形_00000050660705482965576450000018437746357502161819_" class="st3" d="M200.2,231.56L200.2,231.56
		c0.58-0.42,1.59-0.06,2.19,0.78l1.02,1.43c0.6,0.84,0.61,1.91,0.03,2.33l0,0c-0.58,0.42-1.59,0.06-2.19-0.78l-1.02-1.43
		C199.59,232.99,199.62,231.97,200.2,231.56z"/>
	<g>
		<g>
			<polygon class="st3" points="224.44,295.5 202.54,282.86 202.54,260.96 224.44,273.6 			"/>
			<polygon class="st3" points="224.44,295.5 246.34,282.86 246.34,260.96 224.44,273.6 			"/>
			<polygon class="st4" points="224.52,273.67 202.54,260.98 224.37,248.27 246.34,260.96 			"/>
		</g>
		<path id="矩形_00000004535655134323430460000006526713944802646694_" class="st3" d="M217.19,255.31L217.19,255.31
			c0.43,0.24,0.36,0.72-0.15,1.02l-4.54,2.69c-0.51,0.3-1.32,0.35-1.75,0.11l0,0c-0.43-0.24-0.36-0.72,0.15-1.02l4.54-2.69
			C215.95,255.12,216.75,255.07,217.19,255.31z"/>
		<path id="矩形_00000034050358122367815340000014145316364207842478_" class="st3" d="M208.96,260.18L208.96,260.18
			c0.43,0.24,0.36,0.72-0.15,1.02l-0.88,0.52c-0.51,0.3-1.32,0.35-1.75,0.11l0,0c-0.43-0.24-0.36-0.72,0.15-1.02l0.88-0.52
			C207.75,259.96,208.53,259.94,208.96,260.18z"/>
	</g>
	<g>
		<polygon class="st2" points="151.98,308.1 130.08,295.46 130.08,273.56 151.98,286.2 		"/>
		<polygon class="st3" points="151.98,308.1 173.88,295.46 173.88,273.56 151.98,286.2 		"/>
		<polygon class="st4" points="152.06,286.27 130.08,273.58 151.9,260.87 173.88,273.56 		"/>
		<path id="矩形_00000159457585865046413750000001025902691071745961_" class="st5" d="M145.04,268.08L145.04,268.08
			c0.43,0.24,0.36,0.72-0.15,1.02l-4.54,2.69c-0.51,0.3-1.32,0.35-1.75,0.11l0,0c-0.43-0.24-0.36-0.72,0.15-1.02l4.54-2.69
			C143.8,267.88,144.6,267.83,145.04,268.08z"/>
		<path id="矩形_00000170240620110454840980000011056549285943332520_" class="st5" d="M137.47,272.47L137.47,272.47
			c0.43,0.24,0.36,0.72-0.15,1.02l-0.88,0.52c-0.51,0.3-1.32,0.35-1.75,0.11l0,0c-0.43-0.24-0.36-0.72,0.15-1.02l0.88-0.52
			C136.26,272.25,137.04,272.22,137.47,272.47z"/>
	</g>
	<g>
		<polygon class="st3" points="216.74,265.13 194.84,252.48 194.84,230.58 216.74,243.23 		"/>
		<polygon class="st3" points="216.74,265.13 238.64,252.48 238.64,230.58 216.74,243.23 		"/>
		<polygon class="st4" points="216.82,243.3 194.84,230.61 216.66,217.89 238.64,230.58 		"/>
		<path id="矩形_00000029022306106307731120000016615581152618796712_" class="st3" d="M209.48,225.51L209.48,225.51
			c0.43,0.24,0.36,0.72-0.15,1.02l-4.54,2.69c-0.51,0.3-1.32,0.35-1.75,0.11l0,0c-0.43-0.24-0.36-0.72,0.15-1.02l4.54-2.69
			C208.24,225.31,209.05,225.26,209.48,225.51z"/>
		<path id="矩形_00000085217097738549613980000003468520918600801195_" class="st3" d="M201.91,229.9L201.91,229.9
			c0.43,0.24,0.36,0.72-0.15,1.02l-0.88,0.52c-0.51,0.3-1.32,0.35-1.75,0.11l0,0c-0.43-0.24-0.36-0.72,0.15-1.02l0.88-0.52
			C200.71,229.68,201.48,229.66,201.91,229.9z"/>
	</g>
	<g>
		<polygon class="st2" points="235.39,321.53 213.49,308.88 213.49,286.98 235.39,299.63 		"/>
		<polygon class="st3" points="235.39,321.53 257.29,308.88 257.29,286.98 235.39,299.63 		"/>
		<polygon class="st4" points="235.47,299.69 213.49,287 235.31,274.29 257.29,286.98 		"/>
		<path id="矩形_00000052825243419253822820000010659263525013115827_" class="st3" d="M228.13,281.91L228.13,281.91
			c0.43,0.24,0.36,0.72-0.15,1.02l-4.54,2.69c-0.51,0.3-1.32,0.35-1.75,0.11l0,0c-0.43-0.24-0.36-0.72,0.15-1.02l4.54-2.69
			C226.89,281.71,227.7,281.66,228.13,281.91z"/>
		<path id="矩形_00000154426434702559015290000007554413707486504111_" class="st3" d="M220.57,286.3L220.57,286.3
			c0.43,0.24,0.36,0.72-0.15,1.02l-0.88,0.52c-0.51,0.3-1.32,0.35-1.75,0.11l0,0c-0.43-0.24-0.36-0.72,0.15-1.02l0.88-0.52
			C219.36,286.08,220.14,286.05,220.57,286.3z"/>
	</g>
	<g>
		<polygon class="st2" points="210.45,296.07 188.55,283.43 188.55,261.53 210.45,274.17 		"/>
		<polygon class="st3" points="210.45,296.07 232.35,283.43 232.35,261.53 210.45,274.17 		"/>
		<polygon class="st4" points="210.53,274.24 188.55,261.55 210.37,248.84 232.35,261.53 		"/>
		<path id="矩形_00000160903189634142074530000002891107226704646838_" class="st3" d="M203.19,256.46L203.19,256.46
			c0.43,0.24,0.36,0.72-0.15,1.02l-4.54,2.69c-0.51,0.3-1.32,0.35-1.75,0.11l0,0c-0.43-0.24-0.36-0.72,0.15-1.02l4.54-2.69
			C201.95,256.26,202.76,256.21,203.19,256.46z"/>
		<path id="矩形_00000007397067166545916970000002143585144914139056_" class="st3" d="M195.62,260.85L195.62,260.85
			c0.43,0.24,0.36,0.72-0.15,1.02l-0.88,0.52c-0.51,0.3-1.32,0.35-1.75,0.11l0,0c-0.43-0.24-0.36-0.72,0.15-1.02l0.88-0.52
			C194.42,260.63,195.19,260.6,195.62,260.85z"/>
	</g>
	<g>
		<polygon class="st2" points="195.22,251.04 173.32,238.39 173.32,216.49 195.22,229.14 		"/>
		<polygon class="st3" points="195.22,251.04 217.12,238.39 217.12,216.49 195.22,229.14 		"/>
		<polygon class="st4" points="195.3,229.2 173.32,216.51 195.14,203.8 217.12,216.49 		"/>
		<path id="矩形_00000101794999315356074290000015725765711543275915_" class="st3" d="M187.96,211.42L187.96,211.42
			c0.43,0.24,0.36,0.72-0.15,1.02l-4.54,2.69c-0.51,0.3-1.32,0.35-1.75,0.11l0,0c-0.43-0.24-0.36-0.72,0.15-1.02l4.54-2.69
			C186.72,211.22,187.53,211.17,187.96,211.42z"/>
		<path id="矩形_00000098938928692352587570000014834042473236993666_" class="st3" d="M180.39,215.81L180.39,215.81
			c0.43,0.24,0.36,0.72-0.15,1.02l-0.88,0.52c-0.51,0.3-1.32,0.35-1.75,0.11l0,0c-0.43-0.24-0.36-0.72,0.15-1.02l0.88-0.52
			C179.19,215.59,179.96,215.56,180.39,215.81z"/>
	</g>
	<g>
		<polygon class="st2" points="188.2,225.35 166.3,212.71 166.3,190.81 188.2,203.45 		"/>
		<polygon class="st3" points="188.2,225.35 210.1,212.71 210.1,190.81 188.2,203.45 		"/>
		<polygon class="st4" points="188.28,203.52 166.3,190.83 188.13,178.12 210.1,190.81 		"/>
		<path id="矩形_00000055697330921744431090000007979506223541072519_" class="st5" d="M181.26,185.33L181.26,185.33
			c0.43,0.24,0.36,0.72-0.15,1.02l-4.54,2.69c-0.51,0.3-1.32,0.35-1.75,0.11l0,0c-0.43-0.24-0.36-0.72,0.15-1.02l4.54-2.69
			C180.02,185.13,180.83,185.08,181.26,185.33z"/>
		<path id="矩形_00000052104368206952486960000001307456816210270868_" class="st5" d="M173.69,189.72L173.69,189.72
			c0.43,0.24,0.36,0.72-0.15,1.02l-0.88,0.52c-0.51,0.3-1.32,0.35-1.75,0.11l0,0c-0.43-0.24-0.36-0.72,0.15-1.02l0.88-0.52
			C172.49,189.5,173.26,189.48,173.69,189.72z"/>
	</g>
</g>
<path id="矩形_00000150080378111477988510000010005367634560557244_" class="st3" d="M183.68,255.84L183.68,255.84
	c0.92-0.65,2.5-0.09,3.44,1.22l1.61,2.25c0.94,1.31,0.96,3,0.04,3.65l0,0c-0.92,0.65-2.5,0.09-3.44-1.22l-1.61-2.25
	C182.72,258.09,182.77,256.5,183.68,255.84z"/>
<g>
	<g>
		<g>
			<polygon class="st2" points="168.71,339.2 134.31,319.34 134.31,284.95 168.71,304.81 			"/>
			<polygon class="st3" points="168.71,339.2 203.1,319.34 203.1,284.95 168.71,304.81 			"/>
			<polygon class="st4" points="168.83,304.91 134.31,284.98 168.59,265.02 203.1,284.95 			"/>
		</g>
		<path id="矩形_00000136371979321420593470000005249680387291317162_" class="st5" d="M157.63,275.67L157.63,275.67
			c0.68,0.38,0.56,1.12-0.24,1.6l-7.14,4.22c-0.81,0.48-2.08,0.56-2.75,0.17l0,0c-0.68-0.38-0.56-1.12,0.24-1.6l7.14-4.22
			C155.68,275.37,156.95,275.29,157.63,275.67z"/>
		<path id="矩形_00000106826835317674341130000011384096200676048264_" class="st5" d="M144.7,283.32L144.7,283.32
			c0.68,0.38,0.56,1.12-0.24,1.6l-1.38,0.82c-0.81,0.48-2.08,0.56-2.75,0.17l0,0c-0.68-0.38-0.56-1.12,0.24-1.6l1.38-0.82
			C142.81,282.98,144.03,282.93,144.7,283.32z"/>
	</g>
	<g>
		<path class="st56" d="M188.39,310.02v1.71c-0.06,0.04-0.36,0.24-0.97,0.59c-0.51,0.29-0.88,0.47-1.01,0.53v-1.71
			c-1.97,1.23-3.43,2.49-3.43,3.02c0,0.52,1.47,0.13,3.43-0.87c0.13-0.06,0.49-0.25,1-0.54c0.64-0.36,0.93-0.55,0.98-0.58l0,0
			c1.96-1.22,3.43-2.49,3.43-3.01S190.35,309.02,188.39,310.02z"/>
		<path class="st56" d="M195.23,307.5l-2.86-6.06c-0.02-0.04-0.06-0.05-0.11-0.03l-9.74,5.51c-0.05,0.03-0.09,0.08-0.11,0.15
			l-2.86,9.3c-0.02,0.07-0.01,0.14,0.02,0.16l7.73,5.08c0.05,0.03,0.12-0.01,0.16-0.09l7.73-13.84
			C195.25,307.62,195.26,307.55,195.23,307.5z M188.39,312.58v4.9l-1.98,1.12v-4.9c-2.23,1.13-3.9,1.51-3.9,0.84
			c0-0.67,1.67-2.19,3.9-3.58v-1.53l-2.74,1.55v-2.33l7.46-4.22v2.33l-2.74,1.55v1.53c2.22-1.13,3.89-1.51,3.89-0.84
			C192.28,309.68,190.61,311.19,188.39,312.58z"/>
		<polygon class="st56" points="188.39,309.85 188.39,309.85 188.39,309.85 		"/>
	</g>
</g>
<g>
	<g>
		<polygon class="st2" points="182.15,295.38 147.75,275.52 147.75,241.12 182.15,260.98 		"/>
		<polygon class="st3" points="182.15,295.38 216.54,275.52 216.54,241.12 182.15,260.98 		"/>
		<polygon class="st4" points="182.27,261.09 147.75,241.16 182.02,221.19 216.54,241.12 		"/>
		<path id="矩形_00000161625152259056173680000011980523440365244851_" class="st5" d="M171.07,232.75L171.07,232.75
			c0.68,0.38,0.56,1.12-0.24,1.6l-7.14,4.22c-0.81,0.48-2.08,0.56-2.75,0.17l0,0c-0.68-0.38-0.56-1.12,0.24-1.6l7.14-4.22
			C169.12,232.44,170.39,232.36,171.07,232.75z"/>
		<path id="矩形_00000062888933968975997140000002178608790208134568_" class="st5" d="M159.18,239.65L159.18,239.65
			c0.68,0.38,0.56,1.12-0.24,1.6l-1.38,0.82c-0.81,0.48-2.08,0.56-2.75,0.17l0,0c-0.68-0.38-0.56-1.12,0.24-1.6l1.38-0.82
			C157.29,239.31,158.5,239.26,159.18,239.65z"/>
	</g>
	<g id="Layer_2_00000102540851905900832380000006988007728433942442_">
		<g id="Layer_1-2_00000066482606510416215310000003511022855889460147_">
			<g id="Page-1_00000055700713210850531740000008749194977626926223_">
				<g id="wbtc_colour_00000172408473380103974340000013880287873054759061_">
					<path id="Shape_00000080906745429967918220000017415878320240987804_" class="st6" d="M205.3,258.48l-0.44,0.84
						c2.19,1.98,2.19,6.88,0,11.29l0.44,0.34c2.43-4.88,2.43-10.32,0-12.49V258.48z"/>
					<path id="Shape-2_00000054254308669426799030000013077082175151086260_" class="st6" d="M196,263.71
						c2.39-4.26,6.06-6.3,8.45-4.71l0.44-0.84c-2.64-1.78-6.7,0.48-9.34,5.2L196,263.71z"/>
					<path id="Shape-3_00000151536995416216480280000011159096162566086584_" class="st6" d="M195.59,275.78
						c-2.18-1.98-2.18-6.87,0-11.29l-0.44-0.34c-2.43,4.88-2.43,10.32,0,12.49L195.59,275.78z"/>
					<path id="Shape-4_00000062151920632388065560000016487987413188291494_" class="st6" d="M204.44,271.39
						c-2.39,4.26-6.06,6.3-8.45,4.71l-0.44,0.84c2.64,1.78,6.7-0.48,9.34-5.2L204.44,271.39z"/>
					<path id="Shape-5_00000155110089474802543120000010198488182915200164_" class="st6" d="M203.01,264.02
						c-0.09-1.18-0.88-1.15-1.89-0.72v-1.7l-0.78,0.43v1.67c-0.2,0.11-0.41,0.23-0.62,0.35v-1.67l-0.77,0.43v1.71l-1.58,0.88v1.11
						c0,0,0.57-0.33,0.57-0.32c0.22-0.15,0.41-0.06,0.44,0.21v4.68c0,0.1-0.04,0.21-0.09,0.31c-0.05,0.1-0.13,0.17-0.2,0.2
						c0.01,0.01-0.57,0.32-0.57,0.32l-0.15,1.33l1.56-0.87v1.74l0.78-0.43v-1.71l0.62-0.35v1.7l0.78-0.43v-1.72
						c1.31-0.84,2.23-1.78,2.35-3.49c0.09-1.38-0.37-1.71-1.12-1.53C202.8,265.6,203.08,264.89,203.01,264.02z M201.92,268.33
						c0,1.29-1.66,2.07-2.18,2.36v-2.29C200.27,268.11,201.92,266.98,201.92,268.33z M201.56,265.3c0,1.18-1.38,1.81-1.82,2.05
						v-2.08C200.18,265.03,201.56,264.07,201.56,265.3z"/>
					<path id="Shape-6_00000008116255221057928870000004716742768179740032_" class="st6" d="M200.22,278.31
						c-4.45,2.48-8.05-0.33-8.05-6.28c0-5.94,3.61-12.77,8.05-15.25c4.45-2.48,8.05,0.33,8.05,6.27
						C208.27,269.01,204.67,275.83,200.22,278.31C200.22,278.31,200.22,278.31,200.22,278.31z M200.22,257.63
						c-4.1,2.29-7.42,8.58-7.41,14.05c0,5.47,3.33,8.06,7.42,5.77c4.09-2.29,7.41-8.57,7.41-14.04
						C207.65,257.94,204.33,255.34,200.22,257.63C200.23,257.63,200.22,257.63,200.22,257.63z"/>
				</g>
			</g>
		</g>
	</g>
</g>
<g>
	<g>
		<g>
			<polygon class="st2" points="220.3,371.74 185.9,351.89 185.9,317.49 220.3,337.35 			"/>
			<polygon class="st3" points="220.3,371.74 254.69,351.89 254.69,317.49 220.3,337.35 			"/>
			<polygon class="st4" points="220.42,337.46 185.9,317.53 220.18,297.56 254.69,317.49 			"/>
		</g>
		<path id="矩形_00000137090123107722679210000002194064958726255236_" class="st5" d="M209.22,308.21L209.22,308.21
			c0.68,0.38,0.56,1.12-0.24,1.6l-7.14,4.22c-0.81,0.48-2.08,0.56-2.75,0.17l0,0c-0.68-0.38-0.56-1.12,0.24-1.6l7.14-4.22
			C207.27,307.91,208.54,307.83,209.22,308.21z"/>
		<path id="矩形_00000137830544964306238180000010640803284822027688_" class="st5" d="M196.29,315.86L196.29,315.86
			c0.68,0.38,0.56,1.12-0.24,1.6l-1.38,0.82c-0.81,0.48-2.08,0.56-2.75,0.17l0,0c-0.68-0.38-0.56-1.12,0.24-1.6l1.38-0.82
			C194.41,315.52,195.62,315.48,196.29,315.86z"/>
	</g>
	<g id="Layer_x0020_1_00000002357447354598212010000016124669940793836706_">
		<g id="_1421394342400_00000139988896349069244230000013150670203882902420_">
			<g>
				<polygon class="st35" points="202.19,333.94 202.07,334.33 202.07,347.64 202.19,347.85 207.61,347.39 				"/>
				<polygon class="st35" points="202.19,333.94 196.77,341 202.19,347.85 202.19,341.39 				"/>
				<polygon class="st35" points="202.19,349.02 202.12,349.07 202.12,353.81 202.19,354.07 207.61,348.56 				"/>
				<polygon class="st35" points="202.19,354.07 202.19,349.02 196.77,342.17 				"/>
				<polygon class="st35" points="202.19,347.85 207.61,347.39 202.19,341.39 				"/>
				<polygon class="st35" points="196.77,341 202.19,347.85 202.19,341.39 				"/>
			</g>
		</g>
	</g>
</g>
<g>
	<path class="st2" d="M136.67,208.57L43.6,262.79v-98.82l84.75-49.37c8.54-4.32,12.42-1.6,12.42,7.14v79.69
		C140.77,204.37,139.21,207.09,136.67,208.57z"/>
	<path class="st4" d="M150.21,216.82l-93.07,54.22v-98.82l84.75-49.37c8.54-4.32,12.42-1.6,12.42,7.14v79.69
		C154.31,212.62,152.75,215.34,150.21,216.82z"/>
	<polygon class="st2" points="57.14,271.04 43.6,262.91 43.6,164.13 57.14,172.25 	"/>
	
		<ellipse transform="matrix(0.4157 -0.9095 0.9095 0.4157 -83.2332 231.0925)" class="st68" cx="138.25" cy="180.33" rx="9.38" ry="5.12"/>
</g>
<radialGradient id="SVGID_1_" cx="-4852.6294" cy="2753.0742" r="37.8577" gradientTransform="matrix(-1.0502 0.5314 -0.0751 0.3464 -4784.1851 1963.9249)" gradientUnits="userSpaceOnUse">
	<stop  offset="0" style="stop-color:#B8B3D4"/>
	<stop  offset="0.3457" style="stop-color:#BAB6D6;stop-opacity:0.6543"/>
	<stop  offset="0.6064" style="stop-color:#C2C0DA;stop-opacity:0.3936"/>
	<stop  offset="0.8384" style="stop-color:#D0D0E3;stop-opacity:0.1616"/>
	<stop  offset="1" style="stop-color:#DDE0EB;stop-opacity:0"/>
</radialGradient>
<path style="opacity:0.29;fill:url(#SVGID_1_);" d="M73.43,345.39c19.96-15.46,50.35-30.91,67.89-34.51s15.58,6.02-4.38,21.48
	c-19.96,15.46-50.35,30.91-67.89,34.51S53.47,360.85,73.43,345.39z"/>
<polygon class="st3" points="48.22,166.9 133.02,116.9 141.89,122.84 57.14,172.25 "/>
<g>
	<g>
		<path id="矩形_00000027592309788354587420000006403522287918551171_" class="st82" d="M149.34,390.03L149.34,390.03
			c0.62,0,1.15,0.76,1.15,1.64v1.52c0,0.88-0.53,1.64-1.15,1.64l0,0c-0.62,0-1.15-0.76-1.15-1.64v-1.52
			C148.2,390.72,148.72,390.03,149.34,390.03z"/>
		
			<radialGradient id="SVGID_00000085935580562798936480000006742564717015318952_" cx="117.7997" cy="424.1551" r="29.1582" gradientTransform="matrix(1 0 0 0.5898 0 173.9913)" gradientUnits="userSpaceOnUse">
			<stop  offset="0" style="stop-color:#06070C"/>
			<stop  offset="1" style="stop-color:#0D101D;stop-opacity:0"/>
		</radialGradient>
		<path style="opacity:0.67;fill:url(#SVGID_00000085935580562798936480000006742564717015318952_);" d="M142.8,410.08
			c-13.68-7.9-35.96-8-49.77-0.23s-13.91,20.48-0.23,28.37c13.68,7.9,35.96,8,49.77,0.23C156.37,430.68,156.48,417.98,142.8,410.08z
			"/>
		<g>
			<path class="st84" d="M156.3,374.05v-49.28c0-0.23,0.02-0.45,0.02-0.68c0-22.91-18.57-41.48-41.48-41.48
				c-22.91,0-41.48,18.57-41.48,41.48c0,0.36,0.02,0.72,0.03,1.07v44.66h-0.03v22.67c0,2.84,2.3,5.15,5.15,5.15
				c2.84,0,5.15-2.31,5.15-5.15v-0.83c0.56,0.36,1.13,0.72,1.74,1.07c1.83,1.06,3.79,1.99,5.85,2.81v8.2c0,2.84,2.3,5.15,5.15,5.15
				c2.84,0,5.15-2.31,5.15-5.15v-5.23c2.95,0.57,5.99,0.96,9.06,1.14v12.59c0,2.84,2.3,5.15,5.15,5.15c2.84,0,5.15-2.31,5.15-5.15
				v-12.7c3.39-0.28,6.73-0.8,9.93-1.55v6.36c0,2.84,2.3,5.15,5.15,5.15s5.15-2.31,5.15-5.15v-9.87c1-0.47,1.97-0.96,2.91-1.49
				c0.7-0.39,1.35-0.8,1.99-1.21v0.71c0,2.84,2.3,5.15,5.15,5.15c2.84,0,5.15-2.31,5.15-5.15v-18.45H156.3z"/>
			
				<radialGradient id="SVGID_00000102521827439659119890000013245282337958616971_" cx="139.5224" cy="300.0344" r="106.6854" gradientUnits="userSpaceOnUse">
				<stop  offset="0.0124" style="stop-color:#DD78CE"/>
				<stop  offset="0.4936" style="stop-color:#A7589A"/>
				<stop  offset="0.5829" style="stop-color:#A0619E"/>
				<stop  offset="0.7273" style="stop-color:#8E79A8"/>
				<stop  offset="0.9078" style="stop-color:#709FB9"/>
				<stop  offset="1" style="stop-color:#5EB6C3"/>
			</radialGradient>
			<path style="fill:url(#SVGID_00000102521827439659119890000013245282337958616971_);" d="M156.3,374.05v-49.28
				c0-0.23,0.02-0.45,0.02-0.68c0-22.91-18.57-41.48-41.48-41.48c-22.91,0-41.48,18.57-41.48,41.48c0,0.36,0.02,0.72,0.03,1.07
				v44.66h-0.03v22.67c0,2.84,2.3,5.15,5.15,5.15c2.84,0,5.15-2.31,5.15-5.15v-0.83c0.56,0.36,1.13,0.72,1.74,1.07
				c1.83,1.06,3.79,1.99,5.85,2.81v8.2c0,2.84,2.3,5.15,5.15,5.15c2.84,0,5.15-2.31,5.15-5.15v-5.23c2.95,0.57,5.99,0.96,9.06,1.14
				v12.59c0,2.84,2.3,5.15,5.15,5.15c2.84,0,5.15-2.31,5.15-5.15v-12.7c3.39-0.28,6.73-0.8,9.93-1.55v6.36
				c0,2.84,2.3,5.15,5.15,5.15s5.15-2.31,5.15-5.15v-9.87c1-0.47,1.97-0.96,2.91-1.49c0.7-0.39,1.35-0.8,1.99-1.21v0.71
				c0,2.84,2.3,5.15,5.15,5.15c2.84,0,5.15-2.31,5.15-5.15v-18.45H156.3z"/>
		</g>
		<path id="矩形_00000152944834369539099730000016252393706229862838_" class="st82" d="M77.25,360.21L77.25,360.21
			c1.12,0,2.09,1.38,2.09,2.99v14.25c0,1.61-0.96,2.99-2.09,2.99l0,0c-1.12,0-2.09-1.38-2.09-2.99V363.2
			C75.16,361.59,76.13,360.21,77.25,360.21z"/>
		<path id="矩形_00000045583776776573521690000005425702571327890615_" class="st82" d="M138.55,297.12L138.55,297.12
			c1.37-1.02,3.68-0.37,5.02,1.41l2.29,3.06c1.34,1.78,1.31,4.19-0.06,5.22l0,0c-1.37,1.02-3.68,0.37-5.02-1.41l-2.29-3.06
			C137.06,300.42,137.18,298.14,138.55,297.12z"/>
		<path id="矩形_00000067232291870130697600000011919284958754619018_" class="st82" d="M94.65,396.8L94.65,396.8
			c1.12,0,2.09,1.38,2.09,2.99v2.76c0,1.61-0.96,2.99-2.09,2.99l0,0c-1.12,0-2.09-1.38-2.09-2.99v-2.76
			C92.56,398.06,93.52,396.8,94.65,396.8z"/>
		<path id="矩形_00000047768702531513686180000008577605401748337807_" class="st82" d="M77,386L77,386
			c1.12,0,2.09,1.38,2.09,2.99v2.76c0,1.61-0.96,2.99-2.09,2.99l0,0c-1.12,0-2.09-1.38-2.09-2.99v-2.76
			C74.91,387.26,75.88,386,77,386z"/>
		<path id="矩形_00000017500112818748170300000011023041496377661335_" class="st82" d="M114.84,405.54L114.84,405.54
			c1.12,0,2.09,1.38,2.09,2.99v2.76c0,1.61-0.96,2.99-2.09,2.99l0,0c-1.12,0-2.09-1.38-2.09-2.99v-2.76
			C112.75,406.8,113.71,405.54,114.84,405.54z"/>
		<path id="矩形_00000087379536985998452180000010252065639699536546_" class="st82" d="M134.54,400.19L134.54,400.19
			c0.89,0,1.66,1.1,1.66,2.37v2.19c0,1.28-0.76,2.37-1.66,2.37l0,0c-0.89,0-1.66-1.1-1.66-2.37v-2.19
			C132.88,401.2,133.65,400.19,134.54,400.19z"/>
		<g>
			<path id="椭圆形_00000137837083813257603020000007687423495718196108_" class="st86" d="M124.85,355.08
				c4.06-0.17,7.1-3.66,7.09-6c0-0.94-0.55-1.75-1.38-1.81c-1.29-0.13-3.23,0.7-5.72,0.8c-2.31,0.1-3.78-0.5-5.53-0.42
				c-1.84,0.08-1.75,2.22-1.47,3.05C118.48,353.01,120.7,355.25,124.85,355.08z"/>
			<path id="椭圆形_00000121275121431432696730000017046847632692980900_" class="st87" d="M124.93,353.11
				c4.15-0.17,7.19-3.38,7.19-5.63c0-0.84-0.55-1.57-1.38-1.63c-1.29-0.13-3.32,0.7-5.81,0.8c-2.4,0.1-3.78-0.5-5.62-0.43
				c-1.84,0.08-1.75,2.13-1.48,2.87C118.48,351.22,120.79,353.28,124.93,353.11z"/>
		</g>
		<g>
			
				<ellipse transform="matrix(0.5671 -0.8237 0.8237 0.5671 -226.4269 232.4465)" class="st87" cx="107.9" cy="331.61" rx="9.5" ry="9.1"/>
			<path id="形状结合_00000036223276195754916150000004161394281118004645_" class="st88" d="M109.1,321.65
				c4.24-0.18,7.66,3.98,7.66,9.22c0,0.19,0,0.37,0,0.56l0,0.56c0-5.33-3.33-9.59-7.48-9.42c-4.15,0.17-7.46,4.61-7.46,10.04
				c0,1.03,0.09,2.05,0.37,2.98c-0.46-1.2-0.74-2.59-0.74-3.99C101.45,326.27,104.86,321.82,109.1,321.65z"/>
			<path id="形状结合_00000103967625990562806560000007501887144214676671_" class="st89" d="M109.1,320.52
				c4.7-0.2,8.58,4.41,8.58,10.31s-3.86,10.83-8.57,11.02s-8.58-4.41-8.58-10.31C100.53,325.65,104.3,320.72,109.1,320.52z
				 M109.1,321.65c-4.24,0.18-7.65,4.62-7.64,9.86s3.42,9.4,7.66,9.22c4.24-0.18,7.65-4.62,7.64-9.86
				C116.76,325.63,113.25,321.47,109.1,321.65z"/>
		</g>
		<g>
			
				<ellipse transform="matrix(0.5671 -0.8237 0.8237 0.5671 -211.9916 257.1498)" class="st87" cx="138.62" cy="330.23" rx="9.5" ry="9.1"/>
			<path id="形状结合_00000151540685922974454420000013796076548946660259_" class="st88" d="M139.61,320.27
				c4.24-0.18,7.66,3.98,7.66,9.22c0,0.19,0,0.37,0,0.56l0,0.56c0-5.33-3.33-9.59-7.48-9.42c-4.15,0.17-7.46,4.61-7.46,10.04
				c0,1.03,0.09,2.05,0.37,2.98c-0.46-1.2-0.74-2.59-0.74-3.99C131.96,324.9,135.37,320.45,139.61,320.27z"/>
			<path id="形状结合_00000031209230853963400920000005064558258675277704_" class="st89" d="M139.61,319.15
				c4.7-0.2,8.58,4.41,8.58,10.31c0.01,5.89-3.86,10.83-8.57,11.02c-4.7,0.2-8.58-4.41-8.58-10.31
				C131.04,324.28,134.82,319.35,139.61,319.15z M139.61,320.27c-4.24,0.18-7.65,4.62-7.64,9.86c0,5.24,3.42,9.4,7.66,9.22
				c4.24-0.18,7.65-4.62,7.64-9.86C147.27,324.26,143.76,320.1,139.61,320.27z"/>
		</g>
		<circle class="st86" cx="113.44" cy="331.61" r="3.77"/>
		<circle class="st86" cx="143.99" cy="330.48" r="3.77"/>
	</g>
</g>
</svg>
