<svg xmlns="http://www.w3.org/2000/svg" xml:space="preserve" id="Слой_1" x="0" y="0" version="1.1" viewBox="0 0 1000 441.3">
  <style>
    .st0{fill:#4a5479;stroke:#000;stroke-linecap:round;stroke-linejoin:round;stroke-miterlimit:10}.st1,.st2,.st3{stroke:#000;stroke-linecap:round;stroke-linejoin:round;stroke-miterlimit:10}.st2{fill-rule:evenodd;clip-rule:evenodd}.st3{fill:#6d75a2}.st3,.st4,.st5{fill-rule:evenodd;clip-rule:evenodd}.st4{fill:#4a5479;stroke:#000;stroke-linecap:round;stroke-linejoin:round;stroke-miterlimit:10}.st5{fill:#5c6a91}.st6{fill:#6d75a2;stroke:#000;stroke-linecap:round;stroke-linejoin:round;stroke-miterlimit:10}.st13,.st14,.st7{fill-rule:evenodd;clip-rule:evenodd}.st7{fill:#9ea8d8;stroke:#000;stroke-linecap:round;stroke-linejoin:round;stroke-miterlimit:10}.st13,.st14{fill:#00d7b1}.st14{fill:#ff3981}.st17{fill:#9ea8d8;stroke:#000;stroke-linecap:round;stroke-linejoin:round;stroke-miterlimit:10}.st18{fill:#6d75a2}.st20,.st24,.st25,.st26,.st27{fill-rule:evenodd;clip-rule:evenodd}.st20{opacity:.2563;fill:#fff;enable-background:new}.st24,.st25,.st26,.st27{fill:#56506b}.st25,.st26,.st27{fill:#fff}.st26,.st27{fill:#aeaeb0}.st27{fill:#d2d2d2}
  </style>
  <path d="m193.7 159.7.4.3 20.6-24-15.3-32.3-11.9 6.1c1.6-5.1 2.5-10.3 2.4-15.6v-1.9l23.7-4.6-32-16.7c-.8-.6-1.6-1.2-2.5-1.7-2.3-1.2-4.9-1.9-7.9-2.1-5.9-.3-12.7 1.7-20.4 6.1-7.9 4.5-14.8 10.5-20.9 18-6.1 7.5-10.8 15.7-14.3 24.7-3 7.7-4.7 15.4-5.1 23.3l-.2.3v3.5l.1.1s0 0 0 0h0l27.6 14.7v12.2l10.6-6.1c3-1.8 5.7-2.7 8.1-2.7 2.3 0 4.2.7 5.5 2.3 1.3 1.6 1.9 3.9 1.9 6.9 0 3-.5 6.1-1.6 9.1s-2.7 5.8-4.7 8.3c-2 2.5-4.3 4.5-6.9 6-2.7 1.6-5.1 2.3-7.2 2.3-2.1-.1-3.8-.9-5-2.4-1.2-1.6-1.8-3.8-1.9-6.6l-28.4 16.4c0 9.3 1.9 16.4 5.5 21.4 2.4 3.3 5.3 5.6 8.8 6.9l34.5 18.3 28.3-16.9-25.2-13.3c1.9-1.5 3.7-3 5.5-4.6l6 8.6 38.8-10.8 2.9-36.8-21.9-3c1.2-4.6 1.9-9.1 2.1-13.7zM169 137.5c-.1.1-.3.1-.4.2v-1.2c.3-.2.6-.4.9-.7l-.5 1.7z" class="st0"/>
  <path d="m136.5 187 35.3 18.7-28.3 17-35.3-18.8zM172.9 160.8l-13.4-7.1-14.2 8.2-7.4-4v12.3l35 18.6z" class="st0"/>
  <path d="M185.5 245.3c-8.2 4.7-15.5 6.9-21.8 6.5-6.3-.4-11.3-3.1-15-8.2-3.6-5-5.5-12.2-5.5-21.4l28.4-16.4c0 2.8.7 5 1.9 6.6 1.2 1.6 2.9 2.4 5 2.4 2.1.1 4.5-.7 7.2-2.3 2.6-1.5 4.9-3.5 6.9-6s3.6-5.2 4.7-8.3c1.1-3 1.7-6.1 1.6-9.1 0-3-.6-5.3-1.9-6.9-1.3-1.6-3.1-2.3-5.5-2.3-2.3 0-5 .9-8.1 2.7l-10.6 6.1v-28l10.6-6.1c2.8-1.6 5.3-3.7 7.4-6.3 2.1-2.5 3.8-5.3 5-8.4 1.2-3 1.8-6 1.8-9 0-2.9-.5-5.2-1.5-6.9-1-1.6-2.4-2.6-4.2-2.8-1.8-.2-3.9.4-6.3 1.7-2.6 1.5-4.9 3.5-6.9 5.9-2 2.5-3.6 5.2-4.7 8.2-1.2 3-1.7 6-1.8 9l-27 15.6c0-9.1 1.8-18.2 5.3-27.2s8.2-17.2 14.3-24.7c6.1-7.5 13-13.5 20.9-18 7.7-4.4 14.5-6.5 20.4-6.1 5.9.3 10.5 2.8 13.9 7.4 3.3 4.6 5 11.1 5 19.5.1 8.3-1.9 16.3-6 24-4 7.7-9.2 13.8-15.4 18.3v1.2c8.4-3.5 14.7-3.5 18.9.1 4.2 3.6 6.3 10 6.2 19.2 0 8.7-1.8 17.5-5.5 26.4-3.7 8.9-8.8 17.1-15.3 24.7-6.4 7.8-13.9 14-22.4 18.9z" class="st1"/>
  <path d="m31.2 134.3 35.7 19.8L35 172.5-.7 152.7z" class="st0"/>
  <path d="M66.9 154.1 88.3 247l.8-.5L110.4 129l31.9-18.4L108 279.7 69.3 302 35 172.5l31.9-18.4z" class="st1"/>
  <path d="m-.7 152.7 34.5 130.2L69.3 302 35 172.5zM89.1 246.6l-.8.4-21.8-90.8 8.6-45.9 35.3 18.7z" class="st0"/>
  <path d="m107 91.9 35.3 18.7-31.9 18.4-35.3-18.7z" class="st0"/>
  <path d="m617 371.4-7.5-4.4v-7.5l7.5 4.4z" class="st2"/>
  <path d="m617 371.4 7.6-4.4v-7.5l-7.6 4.4z" class="st3"/>
  <path d="m617.1 363.9-7.6-4.4 7.5-4.3 7.6 4.3z" class="st4"/>
  <path id="矩形_00000021089849705632224180000000809673362979420300_" d="M614.7 357.7c.1.1.1.2-.1.3l-1.6.9c-.2.1-.5.1-.6 0-.1-.1-.1-.2.1-.3l1.6-.9c.1-.1.4-.1.6 0z" class="st5"/>
  <path id="矩形_00000114793586306682740690000011424152431716207549_" d="M612.1 359.2c.1.1.1.2-.1.3l-.3.2c-.2.1-.5.1-.6 0-.1-.1-.1-.2.1-.3l.3-.2c.1-.1.4-.1.6 0z" class="st5"/>
  <path d="M427.2 124.4c-.2-1.3-.6-2.4-1.1-3.2-.5-.8-1.1-1.4-1.9-1.7-.7-.3-1.6-.4-2.6-.3-1 .2-2 .6-3.2 1.2-2.5 1.4-4.6 3.5-6.4 6.4-1.8 2.8-3.1 6.2-4 10.1-.9 3.9-1.4 8.3-1.4 13.1 0 4.9.4 8.8 1.3 11.8s2.2 4.9 3.9 5.7c1.7.9 3.9.5 6.5-.9 2.3-1.3 4.2-2.9 5.7-4.7 1.5-1.9 2.6-3.9 3.4-6.2.8-2.3 1.1-4.6 1.1-7.1h0l-10 6.1v-16.1l24.3-13.9v11.5c0 7.6-1.1 14.6-3.2 21.2s-5 12.3-8.7 17.3c-3.7 5-8 8.8-12.8 11.5-5.3 3-10 4-14.1 2.9-4-1.1-7.2-4.2-9.5-9.3-2.3-5.1-3.4-12-3.4-20.8 0-6.9.7-13.4 2.1-19.4 1.4-6.1 3.3-11.7 5.8-16.7 2.5-5.1 5.3-9.5 8.6-13.2 3.2-3.7 6.7-6.6 10.4-8.7 3.3-1.9 6.3-2.9 9.1-3.1 2.8-.2 5.3.4 7.4 1.7 2.2 1.3 3.9 3.4 5.2 6.1 1.3 2.7 2.1 6.1 2.4 10.1l-14.9 8.6z" class="st0"/>
  <path d="M441.4 151.6c.8-3.5 1.3-6.7 1.4-9.7l-15.1 8.4-5.1 3.8-.6 10-.2.2c-.4.4-.7.7-1.1 1l-.7-14.5 18.1-22.8-4.1-3.4 8.7-5v-.5l12.4-8.7-20.6-11c-1.2-.7-4.5-1.9-7.4-1.7-2.9.2-6.4 1.6-9.9 3.6-4.9 2.8-8.9 7.3-12.9 12.8-4 5.5-7.2 12.1-9.5 19.8-2.4 7.7-3.5 16.2-3.5 25.4s1.2 16.3 3.5 21.4c2.1 4.5 8.2 8.7 8.2 8.7l19.6 9.8 16.6-6.9-16.4-8.8c1.2-1 2.4-2 3.5-3.1l8.7 3.4 14.4-9.2 3.4-18.3-9.2-4.7h-2.2z" class="st0"/>
  <path d="m464 136.1-21.1-11.4-24.3 13.9 21.1 11.3z" class="st0"/>
  <path d="M439.7 166v-16.1l-21.1-11.3v16z" class="st0"/>
  <path d="M448.3 135.8c-.2-1.3-.6-2.4-1.1-3.2-.5-.8-1.1-1.4-1.9-1.7-.7-.3-1.6-.4-2.6-.3-1 .2-2 .6-3.2 1.2-2.5 1.4-4.6 3.5-6.4 6.4-1.8 2.8-3.1 6.2-4 10.1-.9 3.9-1.4 8.3-1.4 13.1 0 4.9.4 8.8 1.3 11.8s2.2 4.9 3.9 5.7c1.7.9 3.9.5 6.5-.9 2.3-1.3 4.2-2.9 5.7-4.7 1.5-1.9 2.6-3.9 3.4-6.2.8-2.3 1.1-4.6 1.1-7.1h0l-10 6.1V150l24.3-13.9v11.5c0 7.6-1.1 14.6-3.2 21.2s-5 12.3-8.7 17.3c-3.7 5-8 8.8-12.8 11.5-5.3 3-10 4-14.1 2.9-4-1.1-7.2-4.2-9.5-9.3-2.3-5.1-3.4-12-3.4-20.8 0-6.9.7-13.4 2.1-19.4 1.4-6.1 3.3-11.7 5.8-16.7 2.5-5.1 5.3-9.5 8.6-13.2 3.2-3.7 6.7-6.6 10.4-8.7 3.3-1.9 6.3-2.9 9.1-3.1 2.8-.2 5.3.4 7.4 1.7 2.2 1.3 3.9 3.4 5.2 6.1 1.3 2.7 2.1 6.1 2.4 10.1l-14.9 8.6z" class="st6"/>
  <path d="M382.9 116.4v83.1l-12.4 7.1-19.8-32.4-.3.2v43.7l-14.9 8.5v-83.1l12.7-7.2 19.5 32.4.4-.2V125l14.8-8.6z" class="st0"/>
  <path d="m391.6 217.9-21.2-11.3 1.1-20.8.3-.2z" class="st0"/>
  <path d="M404.1 127.8v83.1l-12.4 7.1-19.8-32.4-.3.2v43.7l-14.9 8.5v-83.1l12.7-7.2 19.5 32.4.4-.2v-43.5l14.8-8.6z" class="st6"/>
  <path d="m348.1 136.3 21.1 11.3-12.7 7.2-21.1-11.3zM356.5 237.9v-83.1l-21.1-11.3v83.1zM382.9 116.4l21.2 11.4-15 8.5-21.1-11.4z" class="st0"/>
  <path d="M389.1 179.8v-43.5L368 124.9V147l1.2.6 19.5 32.4zM326.4 151.2v83.1l-14.9 8.5v-83.1l14.9-8.5z" class="st0"/>
  <path d="M347.6 162.5v83.1l-14.9 8.5V171l14.9-8.5z" class="st6"/>
  <path d="m332.7 171-21.2-11.3 14.9-8.5 21.2 11.3z" class="st0"/>
  <path d="M332.7 254.1V171l-21.2-11.3v83.1zM234.5 203.4l18.6-10.6 12.8 39.8.6-.4 12.8-54.3 18.6-10.6v83.1l-14.6 8.3v-48l-.4.2-12.2 54.3-8.8 5-12.2-40.8-.4.2V278l-14.6 8.3v-82.9z" class="st0"/>
  <path d="m279.2 178 21.2 11.3-12.8 54.4-21.1-11.4zM304.3 270.2l-20.9-11.4 20.5-36.4.4-.3zM282.9 281.7 262 270.4l8.2-29.2.5-.2z" class="st0"/>
  <path d="m255.6 214.8 18.6-10.6L287 244l.6-.4 12.8-54.3 18.6-10.6v83.1l-14.6 8.3v-48l-.4.2-12.2 54.3-8.8 5-12.3-40.6-.4.2v48.4l-14.6 8.3v-83.1z" class="st6"/>
  <path d="m255.6 297.9-21.1-11.4v-83.1l21.1 11.4zM274.2 204.2l-21.1-11.3-18.6 10.5 21.1 11.4zM318.9 178.8l-21.1-11.4-18.6 10.6 21.2 11.3z" class="st0"/>
  <path d="M237.3 230.3 216.1 219h0c-.9-.5-1.9-.9-2.9-1.1-4-1-8.5 0-13.5 2.8s-9.5 7-13.6 12.6c-4 5.6-7.2 12.2-9.6 19.9-2.4 7.7-3.6 16.2-3.6 25.4s1.2 16.3 3.6 21.3c1.7 3.6 3.8 6.1 6.4 7.7h-.1l21.1 11.4 15.1-8.4-14.5-7.8c3.1-2.5 5.9-5.5 8.6-9.2 4-5.6 7.2-12.2 9.6-19.9 2.4-7.7 3.6-16.2 3.6-25.4 0-4.2-.3-8-.8-11.3l11.8-6.7z" class="st0"/>
  <path d="m232.2 246.1 5.1 33.1-18.1 27.7-16.8-6.7-.8-16.5 19.2-39.2z" class="st0"/>
  <path d="M247.5 259.5c0 9.3-1.2 17.7-3.6 25.4-2.4 7.7-5.6 14.3-9.6 19.9-4 5.6-8.5 9.8-13.5 12.6-5 2.8-9.5 3.8-13.6 2.8-4-1-7.2-4-9.6-9-2.4-5-3.6-12.1-3.6-21.3 0-9.3 1.2-17.7 3.6-25.4 2.4-7.7 5.6-14.3 9.6-19.9 4-5.6 8.5-9.8 13.6-12.6 5-2.8 9.5-3.8 13.5-2.8s7.2 3.9 9.6 8.9c2.4 5 3.6 12.2 3.6 21.4zm-15.3 8.7c0-5-.4-8.9-1.3-11.9-.9-2.9-2.1-4.8-3.8-5.6-1.7-.8-3.8-.5-6.2.9-2.5 1.4-4.5 3.5-6.2 6.2-1.7 2.7-3 6.1-3.8 10-.9 3.9-1.3 8.4-1.3 13.3 0 5 .4 8.9 1.3 11.9.9 2.9 2.1 4.8 3.8 5.6 1.7.8 3.8.5 6.2-.9 2.5-1.4 4.5-3.5 6.2-6.2 1.7-2.7 3-6.1 3.8-10 .8-3.8 1.3-8.3 1.3-13.3z" class="st6"/>
  <path d="M166.2 304.5c.8-3.5 1.3-6.7 1.4-9.7l-15.1 8.4-5.1 3.8-.6 10-.2.2c-.4.4-.7.7-1.1 1l-.7-14.5 18.1-22.8-4.1-3.4 8.7-5v-.5l13.6-7.6S159.9 253 159.8 253c-2.3-1.2-4.8-2.1-7.7-1.9-2.9.2-6.1 1.3-9.6 3.3-4.9 2.8-9.4 7-13.4 12.5s-7.2 12.1-9.5 19.8c-2.4 7.7-3.5 16.2-3.5 25.4s1.2 16.3 3.5 21.4c2.1 4.5 8.2 8.7 8.2 8.7l21.1 11.4 15.1-8.4-16.4-8.8c1.2-1 2.4-2 3.5-3.1l8.7 3.4 14.4-9.2 3.4-18.3-9.2-4.7h-2.2z" class="st0"/>
  <path d="m167.7 294.8 21.1 11.4-15.1 8.4-21.2-11.3z" class="st0"/>
  <path d="m188.8 284.1-15.1 8.6c-.1-1.8-.4-3.4-.8-4.7-.5-1.3-1.1-2.3-1.9-2.9-.8-.7-1.8-1-2.9-1-1.1 0-2.4.5-3.8 1.3-2.5 1.4-4.6 3.5-6.3 6.4-1.7 2.8-3 6.2-3.9 10.1-.9 3.9-1.3 8.3-1.3 13.1 0 5.1.5 9.1 1.4 12 .9 2.9 2.2 4.7 3.9 5.5 1.7.7 3.8.4 6.2-.9 1.4-.8 2.6-1.7 3.7-2.9 1.1-1.1 2-2.5 2.8-3.9.8-1.5 1.5-3 2-4.8.5-1.7.9-3.5 1-5.4l15.1-8.4c-.2 3.6-.8 7.6-2 11.8-1.1 4.3-2.7 8.5-4.8 12.8-2.1 4.2-4.6 8.2-7.7 11.8-3 3.6-6.6 6.5-10.6 8.8-5 2.9-9.6 3.8-13.6 2.8s-7.2-4-9.5-9.1c-2.3-5-3.5-12.2-3.5-21.4 0-9.3 1.2-17.7 3.5-25.4 2.4-7.7 5.5-14.3 9.5-19.8s8.5-9.7 13.4-12.5c3.5-2 6.7-3.1 9.6-3.3 2.9-.2 5.5.4 7.7 1.9s4 3.9 5.3 7.1c1.5 3.3 2.3 7.4 2.6 12.4z" class="st6"/>
  <path d="m635 168.9-22.8-13.2V68.5L635 81.6z" class="st2"/>
  <path d="m635 168.9 22.8-13.2V68.5L635 81.6z" class="st3"/>
  <path d="m635.1 81.7-22.9-13.2 22.7-13.3 22.9 13.3z" class="st4"/>
  <path id="矩形_00000095307863095762853200000003996036996378790554_" d="M627.8 62.7c.4.3.4.7-.2 1.1l-4.7 2.8c-.5.3-1.4.4-1.8.1-.4-.3-.4-.7.2-1.1l4.7-2.8c.6-.3 1.4-.4 1.8-.1z" class="st5"/>
  <path id="矩形_00000050653202524170222150000014639327250397284254_" d="M620 67.3c.4.3.4.7-.2 1.1l-.9.5c-.5.3-1.4.4-1.8.1-.4-.3-.4-.7.2-1.1l.9-.5c.5-.4 1.3-.4 1.8-.1z" class="st5"/>
  <path d="m612.3 182.1-22.8-13.2v-68.4l22.8 13.2z" class="st2"/>
  <path d="m612.3 182.1 22.8-13.2v-68.4l-22.8 13.2z" class="st3"/>
  <path d="m612.4 113.8-22.9-13.3 22.7-13.2 22.9 13.2z" class="st4"/>
  <path id="矩形_00000145748975321063623330000010805952878722432896_" d="M605.2 94.7c.4.3.4.7-.2 1.1l-4.7 2.8c-.5.3-1.4.4-1.8.1-.4-.3-.4-.7.2-1.1l4.7-2.8c.5-.3 1.3-.3 1.8-.1z" class="st5"/>
  <path id="矩形_00000023996596028999164270000007082635199307759802_" d="M597.3 99.3c.4.3.4.7-.2 1.1l-.9.5c-.5.3-1.4.4-1.8.1-.4-.3-.4-.7.2-1.1l.9-.5c.5-.3 1.3-.3 1.8-.1z" class="st5"/>
  <path d="m589.5 195.3-22.8-13.1v-47.6l22.8 13.1z" class="st2"/>
  <path d="m589.5 195.3 22.8-13.1v-47.6l-22.8 13.1z" class="st3"/>
  <path d="m589.6 147.8-22.9-13.2 22.7-13.3 22.9 13.3z" class="st4"/>
  <path id="矩形_00000152964292038645415540000002036948005488170641_" d="M582.3 128.8c.4.3.4.7-.2 1.1l-4.7 2.8c-.5.3-1.4.4-1.8.1-.4-.3-.4-.7.2-1.1l4.7-2.8c.6-.3 1.4-.4 1.8-.1z" class="st5"/>
  <path id="矩形_00000169522884566574427800000017903436371055452808_" d="M574.5 133.4c.4.3.4.7-.2 1.1l-.9.5c-.5.3-1.4.4-1.8.1-.4-.3-.4-.7.2-1.1l.9-.5c.5-.4 1.3-.4 1.8-.1z" class="st5"/>
  <path d="m622.4 21.9-8.6 22.9 4.3-2.3v15.7l9.2-5.3V37.8l4.3-2.8zM597.4 55.6l-8.5 22.8 4.3-2.2v15.6l9.2-5.2V71.4l4.2-2.7zM575.2 88.1l-8.5 22.9 4.3-2.3v15.7l9.2-5.3V104l4.2-2.8z" class="st7"/>
  <linearGradient id="SVGID_1_" x1="715.638" x2="715.819" y1="135.256" y2="135.256" gradientUnits="userSpaceOnUse">
    <stop offset="0" stop-color="#a25da2"/>
    <stop offset="1" stop-color="#00afc2"/>
  </linearGradient>
  <path fill="url(#SVGID_1_)" stroke="#1d1d1b" stroke-linecap="round" stroke-linejoin="round" stroke-miterlimit="10" d="M715.7 134.7c-.1-.2 0 .5 0 1 .1.2.2.1 0-1z"/>
  <path d="M739.3 118.6V93.7c0-1.1 0-2.1-.1-3l-1.6-11.9c-.3-.4-3.9-2.8-3.9-2.8-2-1.3-5.7-2.5-11.5 2.1-7 5.5-10.4 15.3-11.1 19.4-.1.6-.2 1.1-.3 1.7v0s0 0 0 0v.4s0 0 0 0V100.2s0 0 0 0V102.1s0 0 0 0l-.2 20.6v0h0v11.1c0 .7.2 1.1.6 1.4.1.1 4.1 2.7 4.3 2.7.1 0 .1-1.4.2-1.5.1 0 .1-.2.1-.4-.3-.3-.8-1.4-.7-1.4.3-.5.5-1.2.5-1.8v-5.7 0c0-.6.3-1.3.7-1.9.1-.1.2-.3.3-.4v1c0 .3.1 2.1.2 2.3.2.3.3.5.6.7.1.1 4 2.7 4.2 2.5.1-.1-.1-2.4 0-2.5.4-.4-.4-1.1-.2-1.7.1-.3.2-.7.2-1v-2.5c0-.3.1-.7.2-1 0-.1.1-.3.2-.4.2-.4-.3.3 0 0l5.3 3.4s3.7-1.7.9-2.2c-.1 0 .1-.1.2-.1.8-.5-.8-1.6-.8-2.7v-.5c0-.4.1-.9.4-1.4 0-.1.1-.1.1-.2.2-.3.3-.5.5-.7v1c0 .3 0 2.3.2 2.6 0 .1 4.5 2.8 4.6 2.9.3.2.1-4 .1-5.1v-2.5c0-.8.4-1.7 1-2.3v5.8c0 1.1 4.9 3.9 4.9 3.9.5-.7-.1-4.4-.1-5.5z" class="st1"/>
  <path d="M741.5 93v-4.1c0-9.6-6-14-13.3-9.7-6.3 3.6-11.5 12.3-12.9 20.7-.3 1.4-.4 2.8-.4 4.2v22.8h0V136.5c0 1.1.6 1.5 1.4 1.1.8-.5 1.4-1.7 1.4-2.7v-5.7 0c0-1 .7-2.2 1.5-2.7h0c.8-.4 1.5 0 1.5 1v2.5c0 1.1.6 1.5 1.4 1.1.8-.5 1.4-1.7 1.4-2.7v-2.5c0-1 .7-2.2 1.5-2.7h0c.8-.4 1.5 0 1.5 1v.5c0 1.1.6 1.5 1.4 1.1.8-.5 1.4-1.7 1.4-2.7v-.5c0-1 .7-2.2 1.5-2.7h0c.8-.4 1.5 0 1.5 1v2.5c0 1.1.6 1.5 1.4 1.1.8-.5 1.4-1.7 1.4-2.7v-2.5c0-1 .7-2.2 1.5-2.7h0c.8-.4 1.5 0 1.5 1v5.6c0 1.1.7 1.6 1.5 1.1s1.5-1.8 1.5-2.9V96c.5-1.1.5-2.1.4-3z" class="st7"/>
  <path id="椭圆形_00000147182117995899204430000008283740396726830516_" d="M729.2 104c1.2-.7 2.2-2.5 2.2-3.3 0-.3-.2-.5-.4-.4-.4.2-1 .8-1.7 1.2-.7.4-1.1.4-1.7.7-.6.3-.5 1.1-.4 1.3 0 .8.7 1.2 2 .5z" class="st2"/>
  <ellipse cx="724.1" cy="98.3" class="st2" rx="4.2" ry="2.4" transform="rotate(-66.06 724.063 98.287)"/>
  <ellipse cx="734" cy="92.5" class="st2" rx="4.2" ry="2.4" transform="rotate(-66.06 734.025 92.517)"/>
  <radialGradient id="SVGID_00000007415813448704713240000000332437701917007749_" cx="512.415" cy="295.155" r="40.843" gradientTransform="matrix(1 0 0 .5898 0 121.075)" gradientUnits="userSpaceOnUse">
    <stop offset="0" stop-color="#06070c"/>
    <stop offset="1" stop-color="#0d101d" stop-opacity="0"/>
  </radialGradient>
  <path fill="url(#SVGID_00000007415813448704713240000000332437701917007749_)" d="M547.4 275.4c-19.2-11.1-50.4-11.2-69.7-.3-19.3 10.9-19.5 28.7-.3 39.7 19.2 11.1 50.4 11.2 69.7.3 19.3-10.8 19.5-28.6.3-39.7z" opacity=".67"/>
  <circle cx="513.6" cy="216.6" r="88.4" class="st1"/>
  <path d="m461.7 138.6 12.6 34.5c.6 4.8 4.2 8.8 10.4 10.3 10.2 2.6 23.3-2.2 29.3-10.8 2.6-3.6 3.4-7.4 2.8-10.7h.1l-.5-1.4c0-.1-.1-.3-.2-.4l-13-35.7-41.5 14.2z" class="st6"/>
  <path d="M470.9 163.2c2.9 7.8 14.3 10.8 25.6 6.6s18.1-13.8 15.3-21.6" class="st6"/>
  <path d="M466.9 152.4c2.9 7.8 14.3 10.8 25.6 6.6s18.1-13.8 15.3-21.6" class="st6"/>
  <path d="M462.8 141.1c2.9 7.8 14.3 10.8 25.6 6.6s18.1-13.8 15.3-21.6" class="st6"/>
  <path d="m449.2 104.6 12.6 34.5c.6 4.8 4.2 8.8 10.4 10.3 10.2 2.6 23.3-2.2 29.3-10.8 2.6-3.6 3.4-7.4 2.8-10.7h.1l-.5-1.4c0-.1-.1-.3-.2-.4l-13-35.7-41.5 14.2z" class="st6"/>
  <path d="M458.4 129.2c2.9 7.8 14.3 10.8 25.6 6.6s18.1-13.8 15.3-21.6" class="st6"/>
  <path d="M454.5 118.4c2.9 7.8 14.3 10.8 25.6 6.6 11.3-4.1 18.1-13.8 15.3-21.6" class="st6"/>
  <path d="M450.3 107.1c2.9 7.8 14.3 10.8 25.6 6.6 11.3-4.1 18.1-13.8 15.3-21.6" class="st6"/>
  <path d="m487 147.9-68.8-12-20.8-56.8 68.8 12z" class="st2"/>
  <path d="m487 147.9 44.8-53.6L511 37.5l-44.8 53.6z" class="st3"/>
  <path d="m466.5 91.2-69.1-12 44.5-53.7 69.1 12z" class="st4"/>
  <path id="矩形_00000067227181932749945960000016535948101255255476_" d="M430.4 49.5c1.3.2 1.6 1.5.6 2.8l-9.2 11.3c-1 1.3-3.1 2.2-4.4 1.9-1.3-.2-1.6-1.5-.6-2.8l9.2-11.3c1-1.2 3-2.1 4.4-1.9z" class="st5"/>
  <path id="矩形_00000169516722107961475210000014628699153790936494_" d="M413.7 70c1.3.2 1.6 1.5.6 2.8l-1.8 2.2c-1 1.3-3.1 2.2-4.4 1.9-1.3-.2-1.6-1.5-.6-2.8l1.8-2.2c1-1.4 3-2.2 4.4-1.9z" class="st5"/>
  <path d="m441.8 76.8-8.1-1.2 30.1-37.4 8.1 1.3z" class="st2"/>
  <path d="M810.5 112.5v94.1l-14.1 8-22.5-36.6-.4.2v49.4l-16.9 9.6v-94.1L771 135l22.1 36.7.5-.3v-49.3l16.9-9.6z" class="st0"/>
  <path d="m820.3 227.5-23.9-12.9 1.1-23.5.4-.3z" class="st0"/>
  <path d="M834.4 125.4v94.1l-14.1 8-22.5-36.7-.4.2v49.4l-16.9 9.6v-94l14.3-8.2 22.1 36.7.5-.3V135l17-9.6z" class="st6"/>
  <path d="m771 135 24 12.8-14.4 8.2-23.9-12.9z" class="st0"/>
  <path d="M780.6 250.1V156l-23.9-12.9v94.1zM810.5 112.5l23.9 12.9-16.8 9.6-24-12.9z" class="st0"/>
  <path d="M817.6 184.2V135l-24-12.9v25l1.4.7 22.1 36.7z" class="st0"/>
  <path d="m705.3 129.4-14.1-9.6-33.4 19v75.5l47.5-27z" class="st3"/>
  <path d="M700.5 146.5 662.6 168v2.1l37.9-21.5zM700.5 152.9l-37.9 21.6v2.1l37.9-21.5zM700.5 159.8l-37.9 21.6v2.1l37.9-21.5zM700.5 167.6l-37.9 21.5v2.2l37.9-21.6zM700.5 140.3l-37.9 21.5v2.2l37.9-21.6zM650.6 134.7l7.2 3.9v75.7l-7.2-3.8z" class="st2"/>
  <path d="m691.1 119.6-7.6-4-32.9 19.1 7.2 3.9z" class="st4"/>
  <path d="m705.3 129.4-14.2 8.2v-18z" class="st3"/>
  <path d="m762.5 176.6-23.9-12.9h-.1c-1-.6-2.1-1-3.3-1.3-4.6-1.1-9.7 0-15.3 3.2-5.7 3.2-10.8 8-15.3 14.3-4.6 6.3-8.2 13.8-10.9 22.5-2.7 8.7-4 18.3-4 28.8 0 10.4 1.3 18.5 4 24.1 1.9 4.1 4.4 7 7.3 8.7h-.1l23.9 12.9 17.1-9.6-16.4-8.8c3.5-2.8 6.7-6.3 9.7-10.4 4.6-6.3 8.2-13.8 10.9-22.5 2.7-8.7 4-18.3 4-28.8 0-4.8-.3-9.1-.9-12.8l13.3-7.4z" class="st0"/>
  <path d="m756.7 194.5 5.8 37.4-20.5 31.4-19-7.5-.9-18.7 21.7-44.5z" class="st0"/>
  <path d="M774.1 209.6c0 10.5-1.3 20.1-4 28.8s-6.3 16.2-10.9 22.5c-4.6 6.3-9.7 11-15.3 14.2-5.7 3.2-10.8 4.3-15.3 3.1-4.6-1.1-8.2-4.5-10.9-10.2-2.7-5.7-4-13.7-4-24.1 0-10.5 1.3-20.1 4-28.8s6.3-16.2 10.9-22.5c4.6-6.3 9.7-11 15.3-14.3 5.6-3.2 10.7-4.3 15.3-3.2 4.6 1.1 8.2 4.5 10.9 10.1 2.6 5.9 4 14 4 24.4zm-17.4 9.9c0-5.6-.5-10.1-1.5-13.4-1-3.3-2.4-5.4-4.3-6.4-1.9-.9-4.3-.6-7.1 1s-5.1 3.9-7.1 7c-1.9 3.1-3.4 6.9-4.3 11.3-1 4.4-1.5 9.5-1.5 15.1s.5 10.1 1.5 13.4c1 3.3 2.4 5.4 4.3 6.4 1.9.9 4.3.6 7.1-1s5.1-3.9 7.1-7c1.9-3.1 3.4-6.9 4.3-11.3 1-4.4 1.5-9.5 1.5-15.1z" class="st6"/>
  <path d="m696.6 211.8-23.9-12.9h-.1c-1-.6-2.1-1-3.3-1.3-4.6-1.1-9.7 0-15.3 3.2-5.7 3.2-10.8 8-15.3 14.3-4.6 6.3-8.2 13.8-10.9 22.5-2.7 8.7-4 18.3-4 28.8 0 10.4 1.3 18.5 4 24.1 1.9 4.1 4.4 7 7.3 8.7h-.1l23.9 12.9 17.1-9.6-16.4-8.8c3.5-2.8 6.7-6.3 9.7-10.4 4.6-6.3 8.2-13.8 10.9-22.5 2.7-8.7 4-18.3 4-28.8 0-4.8-.3-9.1-.9-12.8l13.3-7.4z" class="st0"/>
  <path d="m690.9 229.7 5.7 37.4-20.4 31.4-19-7.5-1-18.7 21.8-44.5z" class="st0"/>
  <path d="M708.2 244.9c0 10.5-1.3 20.1-4 28.8s-6.3 16.2-10.9 22.5c-4.6 6.3-9.7 11-15.3 14.2-5.7 3.2-10.8 4.3-15.3 3.1-4.6-1.1-8.2-4.5-10.9-10.2-2.7-5.7-4-13.7-4-24.1 0-10.5 1.3-20.1 4-28.8s6.3-16.2 10.9-22.5c4.6-6.3 9.7-11 15.3-14.3 5.6-3.2 10.7-4.3 15.3-3.2 4.6 1.1 8.2 4.5 10.9 10.1 2.7 5.8 4 13.9 4 24.4zm-17.3 9.8c0-5.6-.5-10.1-1.5-13.4-1-3.3-2.4-5.4-4.3-6.4-1.9-.9-4.3-.6-7.1 1s-5.1 3.9-7.1 7c-1.9 3.1-3.4 6.9-4.3 11.3-1 4.4-1.5 9.5-1.5 15.1s.5 10.1 1.5 13.4c1 3.3 2.4 5.4 4.3 6.4 1.9.9 4.3.6 7.1-1s5.1-3.9 7.1-7c1.9-3.1 3.4-6.9 4.3-11.3 1-4.4 1.5-9.4 1.5-15.1z" class="st6"/>
  <path d="m620.3 291.8 16-9.1-23.9-12.9h0c-1.1-.6-2.4-1.1-3.9-1.4-1.2-.2-2.5-.2-4-.1l1.4-7 20.1 11.2 10.6-12.4-11-10.7 9.1-5.2-23.9-12.9h0c-1.2-.7-2.5-1.1-4-1.3-3.7-.5-8 .7-13 3.6-4.9 2.8-9.3 6.5-13.1 11.2-3.8 4.7-6.8 9.9-8.9 15.6-2.1 5.7-3.2 11.5-3.2 17.5 0 7.4 1.6 12.3 4.7 14.7.5.4.9.7 1.5.9h0l23.1 12.4c-1.2 1.2-2.6 2.3-4.2 3.3-2.1 1.2-4 1.8-5.5 1.6-1.5-.1-2.7-.9-3.6-2.4-.9-1.5-1.3-3.6-1.4-6.4l-16 9.1c0 7.9 1.1 13.7 3.4 17.5 1.5 2.5 3.3 4.2 5.6 5.1L599 346l21-12-17.9-9.6c.6-.5 1.2-1.1 1.8-1.6L621 331l13.9-26.4-16.5-8.1c.3-1.8.6-3.6.7-5.5l1.2.8zM606.8 257l4-2.3.4.2-4.5 2.6.1-.5z" class="st0"/>
  <path d="M626 272.5c-.2-3-.9-4.9-2.3-5.9-1.3-.9-3.4-.6-6.1.9-1.7 1-3.2 2.1-4.3 3.4-1.1 1.3-1.9 2.6-2.4 3.9-.5 1.4-.8 2.8-.8 4.1 0 1.2.1 2.1.4 2.8.3.7.8 1.3 1.5 1.6.7.3 1.6.5 2.6.4 1.1 0 2.3-.2 3.8-.6l5.1-1.2c3.4-.9 6.4-1.1 8.8-.7 2.4.4 4.5 1.4 6 2.9 1.6 1.5 2.7 3.6 3.4 6.2.7 2.6 1.1 5.7 1.1 9.3 0 6.2-1 12-3.1 17.5-2 5.4-4.9 10.3-8.7 14.7-3.8 4.4-8.3 8.1-13.5 11-5.4 3.1-10.1 4.5-14.1 4.4-4-.1-7.1-2.1-9.4-5.9-2.2-3.8-3.3-9.6-3.4-17.5l16-9.1c.1 2.8.6 5 1.4 6.4.9 1.5 2 2.3 3.6 2.4 1.5.1 3.4-.4 5.5-1.6 1.8-1 3.3-2.2 4.5-3.6 1.2-1.4 2.1-2.8 2.8-4.4.6-1.6 1-3.1 1-4.6 0-1.4-.3-2.5-.9-3.3-.6-.7-1.6-1.2-2.9-1.3-1.4-.1-3.2.1-5.5.7l-6.2 1.5c-5.5 1.3-9.8.8-13-1.7-3.2-2.4-4.7-7.3-4.7-14.7 0-6 1-11.8 3.2-17.5 2.1-5.7 5.1-10.9 8.9-15.6 3.8-4.7 8.2-8.4 13.1-11.2 5-2.9 9.4-4.1 13-3.6 3.7.5 6.5 2.4 8.5 5.9 2 3.5 3 8.3 3 14.4l-15.9 9.6z" class="st6"/>
  <path d="m583 302.1 23.9 12.9-16 9.1-23.9-12.9z" class="st0"/>
  <path d="m659.8 381.3-26.2-15.1V340l26.2 15.1z" class="st2"/>
  <path d="m659.8 381.3 26.1-15.1V340l-26.1 15.1z" class="st3"/>
  <path d="M659.9 355.2 633.6 340l26.1-15.2 26.2 15.2z" class="st4"/>
  <path id="矩形_00000151546076580677758330000013026679967133852606_" d="M651.1 333.9h0c.5.3.4.9-.2 1.2l-5.4 3.2c-.6.4-1.6.4-2.1.1h0c-.5-.3-.4-.9.2-1.2l5.4-3.2c.6-.3 1.6-.4 2.1-.1z" class="st3"/>
  <path id="矩形_00000119096157779597708250000004801805458685198247_" d="M642.1 339.2h0c.5.3.4.9-.2 1.2l-1.1.6c-.6.4-1.6.4-2.1.1h0c-.5-.3-.4-.9.2-1.2l1.1-.6c.6-.4 1.5-.4 2.1-.1z" class="st3"/>
  <path d="m646.7 351.3-18.8-10.9v-18.7l18.8 10.8z" class="st2"/>
  <path d="m646.7 351.3 18.7-10.9v-18.7l-18.7 10.8z" class="st3"/>
  <path d="m646.8 332.6-18.9-10.9 18.7-10.9 18.8 10.9z" class="st4"/>
  <path id="矩形_00000034807083811506114010000006691179675566669440_" d="M640.7 317c.4.2.3.6-.1.9l-3.9 2.3c-.4.3-1.1.3-1.5.1-.4-.2-.3-.6.1-.9l3.9-2.3c.5-.2 1.2-.3 1.5-.1z" class="st5"/>
  <path id="矩形_00000085213863131443322400000011439961778758290620_" d="M634.2 320.8c.4.2.3.6-.1.9l-.8.4c-.4.3-1.1.3-1.5.1-.4-.2-.3-.6.1-.9l.8-.4c.5-.3 1.2-.3 1.5-.1z" class="st5"/>
  <linearGradient id="SVGID_00000091706489163503326770000016548537638687361214_" x1="710.528" x2="710.798" y1="343.869" y2="343.869" gradientUnits="userSpaceOnUse">
    <stop offset="0" stop-color="#a25da2"/>
    <stop offset="1" stop-color="#00afc2"/>
  </linearGradient>
  <path fill="url(#SVGID_00000091706489163503326770000016548537638687361214_)" stroke="#1d1d1b" stroke-linecap="round" stroke-linejoin="round" stroke-miterlimit="10" d="M710.6 343.1c-.1-.3 0 .7 0 1.5.2.3.3.1 0-1.5z"/>
  <path d="M745.8 319v-37c0-1.6-.1-3.1-.1-4.5l-2.4-17.7c-.5-.5-5.8-4.2-5.8-4.2-3-1.9-8.6-3.7-17.2 3.1-10.4 8.2-15.4 22.8-16.5 28.9-.1.8-.3 1.6-.4 2.5v0s0 0 0 0c0 .2 0 .4-.1.6 0 0 0 0 0 0V291.4s0 0 0 0v2.7s0 0 0 0l-.3 30.7v0h0v16.5c0 1.1.4 1.6.9 2.1.1.1 6.2 4 6.4 4 .1 0 .1-2.2.2-2.2.1-.1.2-.3.2-.6-.4-.5-1.2-2-1.1-2.2.5-.8.8-1.7.8-2.6v-8.6c0-.9.4-2 1-2.8.1-.2.3-.4.5-.6v1.4c0 .5.1 3.2.3 3.5.2.4.5.7.9 1 .2.2 6 4 6.3 3.8.1-.1-.1-3.6 0-3.7.6-.5-.7-1.6-.4-2.5.2-.5.3-1 .3-1.5v-3.7c0-.5.1-1 .3-1.5.1-.2.2-.4.2-.6.3-.6-.5.4 0 0l7.9 5.1c.1 0 5.4-2.6 1.3-3.2-.1 0 .1-.1.3-.2 1.2-.7-1.2-2.4-1.2-4v-.7c0-.7.2-1.4.5-2 0-.1.1-.2.1-.3.2-.4.5-.8.8-1.1v1.4c0 .4 0 3.4.4 3.9.1.1 6.7 4.2 6.8 4.3.4.2.2-6 .2-7.6v-3.7c0-1.2.6-2.5 1.5-3.4v8.6c0 1.6 7.3 5.7 7.3 5.7 1.1-.6.1-6.1.1-7.8z" class="st1"/>
  <path d="M749.1 280.9v-6.1c0-14.4-8.9-20.9-19.9-14.5-9.3 5.4-17.1 18.3-19.3 30.9-.4 2-.6 4.1-.6 6.2v34.1h0v14.3c0 1.6 1 2.3 2.1 1.6 1.2-.7 2.1-2.5 2.1-4.1v-8.6c0-1.5 1-3.3 2.3-4h0c1.2-.7 2.2 0 2.2 1.5v3.7c0 1.6 1 2.3 2.1 1.6 1.2-.7 2.1-2.5 2.1-4.1v-3.7c0-1.5 1-3.3 2.3-4h0c1.2-.7 2.2 0 2.2 1.5v.7c0 1.6 1 2.3 2.1 1.6 1.2-.7 2.1-2.5 2.1-4.1v-.8c0-1.5 1-3.3 2.3-4h0c1.2-.7 2.2 0 2.2 1.5v3.7c0 1.6 1 2.3 2.1 1.6s2.1-2.5 2.1-4.1v-3.7c0-1.5 1-3.3 2.3-4h0c1.2-.7 2.2 0 2.2 1.5v8.3c0 1.6 1 2.4 2.3 1.7 1.2-.7 2.3-2.6 2.3-4.3v-37c.6-2 .5-3.5.4-4.9z" class="st7"/>
  <path id="椭圆形_00000073708792643424966900000014010184448808570021_" d="M730.7 297.3c1.9-1.1 3.2-3.7 3.2-4.9 0-.5-.2-.8-.6-.6-.6.2-1.5 1.2-2.6 1.8-1.1.6-1.7.6-2.5 1.1-.8.5-.8 1.6-.7 2 .3 1 1.3 1.6 3.2.6z" class="st2"/>
  <ellipse cx="723.1" cy="288.8" class="st2" rx="6.3" ry="3.6" transform="rotate(-66.06 723.094 288.772)"/>
  <ellipse cx="738" cy="280.2" class="st2" rx="6.3" ry="3.6" transform="rotate(-66.06 737.941 280.174)"/>
  <path d="m373.2 271.3-55.5 32.4v-59l50.6-29.5c5.1-2.6 7.4-1 7.4 4.3v47.6c-.1 1.7-1 3.3-2.5 4.2z" class="st2"/>
  <path d="m381.3 276.3-55.5 32.4v-59l50.6-29.5c5.1-2.6 7.4-1 7.4 4.3V272c-.1 1.7-1 3.4-2.5 4.3z" class="st4"/>
  <path d="m325.7 308.6-8.1-4.8v-59l8.1 4.9z" class="st2"/>
  <ellipse cx="374.1" cy="254.5" class="st2" rx="5.6" ry="3.1" transform="rotate(-65.437 374.122 254.47)"/>
  <path d="m320.4 246.5 50.6-29.9 5.3 3.6-50.6 29.5z" class="st3"/>
  <linearGradient id="SVGID_00000144324988661308504890000015789282170848586650_" x1="317.892" x2="318.135" y1="356.706" y2="356.706" gradientUnits="userSpaceOnUse">
    <stop offset="0" stop-color="#a25da2"/>
    <stop offset="1" stop-color="#00afc2"/>
  </linearGradient>
  <path fill="url(#SVGID_00000144324988661308504890000015789282170848586650_)" stroke="#1d1d1b" stroke-linecap="round" stroke-linejoin="round" stroke-miterlimit="10" d="M317.9 356c-.1-.3 0 .7 0 1.3.2.3.4.1 0-1.3z"/>
  <path d="M349.7 334.3V301c0-1.4 0-2.8-.1-4.1l-2.2-16c-.4-.5-5.3-3.8-5.3-3.8-2.7-1.7-7.7-3.4-15.5 2.8-9.4 7.4-13.9 20.5-14.9 26.1-.1.7-.3 1.5-.3 2.2v0s0 0 0 0c0 .2 0 .4-.1.6 0 0 0 0 0 0V309.5s0 0 0 0v2.5s0 0 0 0l-.2 27.6h0v14.9c0 1 .3 1.5.8 1.9.1.1 5.5 3.6 5.7 3.6.1 0 .1-1.9.2-2 .1-.1.1-.3.2-.6-.4-.4-1-1.8-1-1.9.4-.7.7-1.6.7-2.4v-7.6 0c0-.9.4-1.8.9-2.5.1-.2.3-.3.4-.5v1.3c0 .4.1 2.9.2 3.1.2.4.5.6.8.9.2.1 5.4 3.6 5.7 3.4.1-.1-.1-3.2 0-3.3.6-.5-.6-1.4-.3-2.2.1-.4.2-.9.2-1.3V341c0-.4.1-.9.2-1.3.1-.2.1-.3.2-.5.3-.6-.4.4 0 0l7.1 4.6c.1 0 4.9-2.3 1.2-2.9-.1 0 .1-.1.3-.2 1.1-.6-1.1-2.2-1.1-3.6v-.7c0-.6.2-1.2.5-1.8 0-.1.1-.2.1-.2.2-.4.5-.7.7-1v1.3c0 .4 0 3.1.3 3.5.1.1 6 3.8 6.1 3.9.3.2.2-5.4.2-6.8v-3.4c0-1.1.6-2.3 1.3-3.1v7.8c0 1.5 6.6 5.2 6.6 5.2 1.2-1 .4-6 .4-7.5z" class="st1"/>
  <path d="M352.6 300v-5.5c0-12.9-8-18.8-17.9-13.1-8.4 4.9-15.4 16.5-17.4 27.8-.3 1.8-.5 3.7-.5 5.6V345.4h0V358.3c0 1.4.9 2 1.9 1.4 1.1-.6 1.9-2.2 1.9-3.7v-7.6 0c0-1.4.9-3 2-3.6h0c1.1-.6 2 0 2 1.3v3.3c0 1.4.9 2 1.9 1.4 1.1-.6 1.9-2.2 1.9-3.7v-3.4c0-1.4.9-3 2-3.6h0c1.1-.6 2 0 2 1.3v.6c0 1.4.9 2 1.9 1.4 1.1-.6 1.9-2.2 1.9-3.7v-.7c0-1.4.9-3 2-3.6h0c1.1-.6 2 0 2 1.3v3.3c0 1.4.9 2 1.9 1.4s1.9-2.2 1.9-3.7v-3.4c0-1.4.9-3 2-3.6h0c1.1-.6 2 0 2 1.3v7.5c0 1.5.9 2.2 2 1.5 1.1-.6 2-2.4 2-3.9v-33.3c.8-1.2.7-2.5.6-3.8z" class="st7"/>
  <path id="椭圆形_00000142897498076889571540000006098704917551950480_" d="M336.1 314.7c1.7-1 2.9-3.3 2.9-4.5 0-.4-.2-.7-.6-.6-.5.2-1.3 1.1-2.3 1.6-1 .6-1.5.5-2.3 1s-.7 1.5-.6 1.8c.3 1.1 1.2 1.7 2.9.7z" class="st2"/>
  <ellipse cx="329.2" cy="307.1" class="st2" rx="5.7" ry="3.2" transform="rotate(-66.06 329.212 307.109)"/>
  <ellipse cx="342.6" cy="299.4" class="st2" rx="5.7" ry="3.2" transform="rotate(-66.06 342.577 299.369)"/>
  <path d="m964.9 130.3-138.4 79v74l138.4-79z" class="st3"/>
  <linearGradient id="SVGID_00000000924291158018653890000009644675582837028502_" x1="807.843" x2="826.976" y1="241.196" y2="241.196" gradientUnits="userSpaceOnUse">
    <stop offset="0" stop-color="#111422"/>
    <stop offset="1" stop-color="#111422"/>
  </linearGradient>
  <path fill="#4aa089" fill-rule="evenodd" stroke="url(#SVGID_00000000924291158018653890000009644675582837028502_)" stroke-linecap="round" stroke-linejoin="round" stroke-miterlimit="10" d="m808.3 199.1 18.2 9.8v74.4l-18.2-9.8z" clip-rule="evenodd"/>
  <path d="M964.9 130.3 945.4 120l-137.1 79.1 18.2 9.8z" class="st4"/>
  <path d="m955.1 166.5-115.7 67.4v-9l115.7-67.4z" class="st2"/>
  <path d="m954.1 165.8-114 66.5v-7.5l114-66.5z" class="st3"/>
  <path d="m931.2 178.6-90.7 53.2V225l90.7-52.9z" class="st13"/>
  <path d="m955.1 185-115.7 67.4v-9.1l115.7-67.4z" class="st2"/>
  <path d="m954.1 184.3-114.7 66.9v-7.5l114.7-66.9z" class="st3"/>
  <path d="m889.4 221.6-49.7 28.9v-6.6l49.7-28.9z" class="st14"/>
  <path d="m998.3 191-65.7 37.6v35.2l65.7-37.6z" class="st3"/>
  <path fill="#cb3d61" fill-rule="evenodd" stroke="#000" stroke-linecap="round" stroke-linejoin="round" stroke-miterlimit="10" d="m923.9 223.7 8.7 4.7v35.4l-8.7-4.7z" clip-rule="evenodd"/>
  <path d="m998.3 191-9.2-4.9-65.2 37.6 8.7 4.7z" class="st4"/>
  <path d="m993.7 208.3-55 32V236l55-32z" class="st2"/>
  <path d="m993.2 207.9-54.1 31.6-.1-3.5 54.2-31.7z" class="st3"/>
  <path d="m978 216.4-39.2 23v-3l39.2-22.8z" class="st13"/>
  <path d="m993.7 217-55 32.1v-4.3l55-32.1z" class="st2"/>
  <path d="m993.2 216.7-54.5 31.8v-3.6l54.5-31.8z" class="st3"/>
  <path d="m992.9 216.7-54.1 31.4v-2.9l54.1-31.4z" class="st14"/>
  <path d="m904 263.6-14.6-8.4v-14.6L904 249z" class="st2"/>
  <path d="m904 263.6 14.6-8.4v-14.6L904 249z" class="st3"/>
  <path d="m904 249.1-14.6-8.5 14.5-8.4 14.7 8.4z" class="st4"/>
  <path id="矩形_00000072962964520698970330000004233967395985346696_" d="M899.3 237c.3.2.2.5-.1.7l-3 1.8c-.3.2-.9.2-1.2.1-.3-.2-.2-.5.1-.7l3-1.8c.4-.2 1-.3 1.2-.1z" class="st5"/>
  <path id="矩形_00000039120165166923414700000008046493244277671832_" d="M894.3 239.9c.3.2.2.5-.1.7l-.6.3c-.3.2-.9.2-1.2.1-.3-.2-.2-.5.1-.7l.6-.3c.4-.2.9-.3 1.2-.1z" class="st5"/>
  <path d="m875.1 266.7-7.4-4.3V255l7.4 4.3z" class="st2"/>
  <path d="m875.1 266.7 7.5-4.3V255l-7.5 4.3z" class="st3"/>
  <path d="m875.2 259.3-7.5-4.3 7.4-4.3 7.5 4.3z" class="st4"/>
  <path id="矩形_00000043415467603158002950000012759578168017887130_" d="M872.8 253.1c.1.1.1.2-.1.3l-1.5.9c-.2.1-.4.1-.6 0-.1-.1-.1-.2.1-.3l1.5-.9h.6z" class="st5"/>
  <path id="矩形_00000168829527834171242390000007252854223057632926_" d="M870.2 254.6c.1.1.1.2-.1.3l-.3.2c-.2.1-.4.1-.6 0-.1-.1-.1-.2.1-.3l.3-.2c.2 0 .5-.1.6 0z" class="st5"/>
  <path d="m965.4 287.7-10-5.8v-10.1l10 5.8z" class="st2"/>
  <path d="m965.4 287.7 10.1-5.8v-10.1l-10.1 5.8z" class="st3"/>
  <path d="m965.5 277.7-10.1-5.9 10-5.8 10.1 5.8z" class="st4"/>
  <path id="矩形_00000060715178893650934080000011947064059306491561_" d="M962.2 269.3c.2.1.2.3-.1.5L960 271c-.2.1-.6.2-.8.1-.2-.1-.2-.3.1-.5l2.1-1.2c.3-.2.6-.2.8-.1z" class="st5"/>
  <path id="矩形_00000028305202286088882850000011481737331963793812_" d="M958.7 271.3c.2.1.2.3-.1.5l-.4.2c-.2.1-.6.2-.8.1-.2-.1-.2-.3.1-.5l.4-.2c.3-.2.6-.2.8-.1z" class="st5"/>
  <radialGradient id="SVGID_00000077296956559489869950000011536804223743446439_" cx="-4944.915" cy="159.458" r="13.136" gradientTransform="matrix(-1 0 0 .5898 -4672.134 65.41)" gradientUnits="userSpaceOnUse">
    <stop offset="0" stop-color="#06070c"/>
    <stop offset="1" stop-color="#0d101d" stop-opacity="0"/>
  </radialGradient>
  <path fill="url(#SVGID_00000077296956559489869950000011536804223743446439_)" d="M261.5 153.1c6.2-3.6 16.2-3.6 22.4-.1 6.2 3.5 6.3 9.2.1 12.8-6.2 3.6-16.2 3.6-22.4.1-6.2-3.5-6.2-9.2-.1-12.8z" opacity=".67"/>
  <path d="M245.9 123.8s1.5 4.1 4.9 4.3c2.8-5.9 11.9-10.3 22.7-10.3 13 0 23.6 6.3 23.6 14.1 0 .9-.2 1.8-.4 2.7h0c-2.1 9.2-12.4 16.7-23.2 16.7-10.5 0-21.8-7.5-23.2-16.8-3.2-1.6-6-5.3-4.4-10.7z" class="st17"/>
  <ellipse cx="274.3" cy="132.1" class="st1" rx="19.6" ry="11.4"/>
  <path d="M246.5 119.1v-.3c0-.4 0-.7.1-1 .9-13.7 12.3-24.6 26.2-24.6 13.9 0 25.3 10.8 26.2 24.6 0 .3.1.7.1 1v.7h0c-.6 8.4-12.1 15-26.3 15-14.1 0-25.7-6.7-26.3-15h0v-.4z" class="st17"/>
  <path d="M292.3 122.8c.4 0 .6-.3.6-.6 0-1-.4-1.5-.8-1.9-.3-.3-.5-.6-.5-1.1 0-.5.2-.7.5-1.1.4-.4.8-.9.8-1.9 0-1-.4-1.5-.8-1.9-.3-.3-.5-.6-.5-1.1s.2-.7.5-1.1c.4-.4.8-.9.8-1.9 0-1-.4-1.5-.8-1.9-.3-.3-.5-.6-.5-1.1 0-.4-.3-.6-.6-.6-.4 0-.6.3-.6.6v0c0 1 .4 1.5.8 1.9.3.3.5.6.5 1.1s-.2.7-.5 1.1c-.4.4-.8.9-.8 1.9s.4 1.5.8 1.9c.3.3.5.6.5 1.1 0 .5-.2.7-.5 1.1-.4.4-.8.9-.8 1.9 0 1 .4 1.5.8 1.9.3.3.5.6.5 1.1 0 .3.3.6.6.6zM280 127.2c.4 0 .6-.3.6-.6 0-1-.4-1.5-.8-1.9-.3-.3-.5-.6-.5-1.1 0-.5.2-.7.5-1.1.4-.4.8-.9.8-1.9 0-1-.4-1.5-.8-1.9-.3-.3-.5-.6-.5-1.1 0-.5.2-.7.5-1.1.4-.4.8-.9.8-1.9 0-1-.4-1.5-.8-1.9-.3-.3-.5-.6-.5-1.1 0-.4-.3-.6-.6-.6s-.6.3-.6.6v0c0 1 .4 1.5.8 1.9.3.3.5.6.5 1.1s-.2.7-.5 1.1c-.4.4-.8.9-.8 1.9s.4 1.5.8 1.9c.3.3.5.6.5 1.1 0 .5-.2.7-.5 1.1-.4.4-.8.9-.8 1.9 0 1 .4 1.5.8 1.9.3.3.5.6.5 1.1 0 .3.3.6.6.6z" class="st1"/>
  <path d="M246.6 331.6 228.3 321v-18.3l18.3 10.6z" class="st2"/>
  <path d="m246.6 331.6 18.3-10.6v-18.3l-18.3 10.6z" class="st3"/>
  <path d="m246.6 313.3-18.3-10.5 18.2-10.7 18.4 10.6z" class="st4"/>
  <path id="矩形_00000047748811007585771300000015095600851983166114_" d="M240.7 298.2c.4.2.3.6-.1.9l-3.8 2.2c-.4.3-1.1.3-1.5.1-.4-.2-.3-.6.1-.9l3.8-2.2c.5-.3 1.2-.3 1.5-.1z" class="st5"/>
  <path id="矩形_00000135656897942248267260000003163954903771213213_" d="M234.4 301.9c.4.2.3.6-.1.9l-.7.4c-.4.3-1.1.3-1.5.1-.4-.2-.3-.6.1-.9l.7-.4c.5-.3 1.2-.3 1.5-.1z" class="st5"/>
  <path d="m272.5 333.1-11.1-6.4v-11.2l11.1 6.5z" class="st2"/>
  <path d="m272.5 333.1 11.2-6.4v-11.2l-11.2 6.5z" class="st3"/>
  <path d="m272.6 322-11.2-6.4 11.1-6.5 11.2 6.4z" class="st4"/>
  <path id="矩形_00000088846170210839626200000003561895160976543900_" d="M269 312.8c.2.1.2.4-.1.5l-2.3 1.4c-.3.2-.7.2-.9.1-.2-.1-.2-.4.1-.5l2.3-1.4c.3-.2.7-.3.9-.1z" class="st5"/>
  <path id="矩形_00000103258272294025118390000004995540316442387612_" d="M265.1 315c.2.1.2.4-.1.5l-.4.3c-.3.2-.7.2-.9.1-.2-.1-.2-.4.1-.5l.4-.3c.3-.2.7-.2.9-.1z" class="st5"/>
  <path d="m257.5 309-12.8-7.4v-12.8l12.8 7.4z" class="st2"/>
  <path d="m257.5 309 12.8-7.4v-12.8l-12.8 7.4z" class="st3"/>
  <path d="m257.5 296.2-12.8-7.4 12.7-7.4 12.9 7.4z" class="st4"/>
  <path id="矩形_00000153694011835280835440000006133577193949395875_" d="M253.4 285.6c.3.1.2.4-.1.6l-2.7 1.6c-.3.2-.8.2-1 .1-.3-.1-.2-.4.1-.6l2.7-1.6c.3-.2.8-.2 1-.1z" class="st5"/>
  <path id="矩形_00000154428399271792136480000005337003912545562041_" d="M249 288.2c.3.1.2.4-.1.6l-.5.3c-.3.2-.8.2-1 .1-.3-.1-.2-.4.1-.6l.5-.3c.3-.3.8-.3 1-.1z" class="st5"/>
  <path d="m798.3 293.2 43.8-26.9v43.9l-42.6 26.1 7.1-25.8zM841.7 279.4v59.3" class="st1"/>
  <path d="m816.3 317.5-3 1.8V311l2.9-1.8c.5-.3.9-.3 1.2-.1.3.2.4.7.4 1.3 0 .5-.1 1-.3 1.4-.2.5-.4.8-.7 1 .3-.1.5 0 .7.2.2.3.3.7.3 1.2 0 .6-.1 1.3-.4 1.9-.2.6-.6 1.1-1.1 1.4zm-.4-4.8c.2-.1.4-.3.5-.5.1-.2.2-.5.2-.8 0-.3-.1-.4-.2-.5-.1-.1-.3-.1-.5 0l-1.5.9v1.8l1.5-.9zm.1 3.4c.2-.1.4-.3.5-.6.1-.2.2-.5.2-.8 0-.3-.1-.5-.2-.6-.1-.1-.3-.1-.5 0l-1.5.9v1.9l1.5-.8zM824.2 303.2c-.8.5-1.5.5-2.1.1-.6-.5-.8-1.3-.8-2.6s.3-2.5.8-3.6c.6-1.1 1.2-2 2.1-2.5 1-.6 1.7-.4 2.3.5l-1 1.4c-.1-.2-.3-.4-.5-.5-.2-.1-.5 0-.8.2-.5.3-.9.8-1.2 1.5-.3.7-.5 1.5-.5 2.3 0 .8.2 1.3.5 1.7.3.3.7.3 1.2 0 .2-.1.4-.3.7-.6.2-.3.4-.5.5-.8v-1l-1.4.9v-1.5l2.6-1.6v3.2c-.7 1.3-1.5 2.3-2.4 2.9zM833 289l-2.2 1.3V282l2.2-1.3c.9-.5 1.6-.6 2.1-.1.5.4.8 1.3.8 2.5s-.3 2.4-.8 3.5-1.2 1.9-2.1 2.4zm0-1.6c.5-.3.9-.8 1.2-1.5.3-.7.5-1.4.5-2.1 0-.8-.1-1.3-.4-1.6-.3-.3-.7-.3-1.3 0l-1 .6v5.2l1-.6z" class="st18"/>
  <radialGradient id="SVGID_00000036940728365405132600000004635320602854855592_" cx="885.647" cy="369.837" r="19.578" gradientTransform="matrix(1 0 0 .5898 0 151.71)" gradientUnits="userSpaceOnUse">
    <stop offset="0" stop-color="#06070c"/>
    <stop offset="1" stop-color="#0d101d" stop-opacity="0"/>
  </radialGradient>
  <path fill="url(#SVGID_00000036940728365405132600000004635320602854855592_)" d="M902.4 360.4c-9.2-5.3-24.1-5.4-33.4-.2-9.3 5.2-9.3 13.7-.2 19.1 9.2 5.3 24.1 5.4 33.4.2 9.3-5.3 9.4-13.8.2-19.1z" opacity=".67"/>
  <path d="M922.3 324.3s-1.9 5.3-6.3 5.6c-3.6-7.6-15.4-13.2-29.3-13.2-16.8 0-30.4 8.2-30.4 18.2 0 1.2.2 2.4.6 3.5h0c2.7 11.9 16 21.5 29.9 21.5 13.6 0 28.1-9.6 29.9-21.6 4-2.2 7.7-7 5.6-14z" class="st17"/>
  <ellipse cx="885.6" cy="335" class="st1" rx="25.3" ry="14.7"/>
  <path d="M921.5 318.3v-.3c0-.5 0-.9-.1-1.4-1.2-17.7-15.9-31.7-33.9-31.7s-32.7 14-33.9 31.7c0 .4-.1.9-.1 1.4V318.9h0c.8 10.8 15.7 19.4 33.9 19.4s33.1-8.6 33.9-19.4h0c.2-.3.2-.5.2-.6z" class="st17"/>
  <path d="M862.4 323c-.5 0-.8-.4-.8-.8 0-1.3.6-1.9 1-2.5.4-.4.6-.7.6-1.4s-.3-.9-.6-1.4c-.5-.5-1-1.2-1-2.5s.6-1.9 1-2.5c.4-.4.6-.7.6-1.4s-.3-.9-.6-1.4c-.5-.5-1-1.2-1-2.5s.6-1.9 1-2.5c.4-.4.6-.7.6-1.4 0-.5.4-.8.8-.8.5 0 .8.4.8.8v0c0 1.3-.6 1.9-1 2.5-.4.4-.6.7-.6 1.4 0 .6.3.9.6 1.4.5.5 1 1.2 1 2.5s-.6 1.9-1 2.5c-.4.4-.6.7-.6 1.4s.3.9.6 1.4c.5.5 1 1.2 1 2.5s-.6 1.9-1 2.5c-.4.4-.6.7-.6 1.4 0 .5-.4.8-.8.8zM878.3 328.7c-.5 0-.8-.4-.8-.8 0-1.3.6-1.9 1-2.5.4-.4.6-.7.6-1.4s-.3-.9-.6-1.4c-.5-.5-1-1.2-1-2.5s.6-1.9 1-2.5c.4-.4.6-.7.6-1.4 0-.6-.3-.9-.6-1.4-.5-.5-1-1.2-1-2.5s.6-1.9 1-2.5c.4-.4.6-.7.6-1.4 0-.5.4-.8.8-.8.5 0 .8.4.8.8v0c0 1.3-.6 1.9-1 2.5-.4.4-.6.7-.6 1.4s.3.9.6 1.4c.5.5 1 1.2 1 2.5s-.6 1.9-1 2.5c-.4.4-.6.7-.6 1.4s.3.9.6 1.4c.5.5 1 1.2 1 2.5s-.6 1.9-1 2.5c-.4.4-.6.7-.6 1.4 0 .4-.4.8-.8.8z" class="st1"/>
  <path id="矩形_00000124131869874841437230000012911955434944222393_" d="M481 376.8c.6 0 1.1.7 1.1 1.6v1.4c0 .8-.5 1.6-1.1 1.6-.6 0-1.1-.7-1.1-1.6v-1.4c0-.9.5-1.6 1.1-1.6z" class="st20"/>
  <radialGradient id="SVGID_00000109002315915688426640000005073493045476701082_" cx="450.991" cy="409.344" r="27.773" gradientTransform="matrix(1 0 0 .5898 0 167.916)" gradientUnits="userSpaceOnUse">
    <stop offset="0" stop-color="#06070c"/>
    <stop offset="1" stop-color="#0d101d" stop-opacity="0"/>
  </radialGradient>
  <path fill="url(#SVGID_00000109002315915688426640000005073493045476701082_)" d="M474.8 395.9c-13-7.5-34.3-7.6-47.4-.2-13.2 7.4-13.2 19.5-.2 27s34.3 7.6 47.4.2c13.1-7.3 13.2-19.4.2-27z" opacity=".67"/>
  <path fill="#00abbf" d="M487.7 361.6v-47.5c0-21.8-17.7-39.5-39.5-39.5s-39.5 17.7-39.5 39.5v65.1c0 2.7 2.2 4.9 4.9 4.9s4.9-2.2 4.9-4.9v-.8c.5.3 1.1.7 1.7 1 1.7 1 3.6 1.9 5.6 2.7v7.8c0 2.7 2.2 4.9 4.9 4.9s4.9-2.2 4.9-4.9v-5c2.8.5 5.7.9 8.6 1.1v12c0 2.7 2.2 4.9 4.9 4.9s4.9-2.2 4.9-4.9v-12.1c3.2-.3 6.4-.8 9.5-1.5v6.1c0 2.7 2.2 4.9 4.9 4.9s4.9-2.2 4.9-4.9v-9.4c1-.4 1.9-.9 2.8-1.4.7-.4 1.3-.8 1.9-1.2v.7c0 2.7 2.2 4.9 4.9 4.9s4.9-2.2 4.9-4.9l-.1-17.6z"/>
  <radialGradient id="SVGID_00000062158637663959836160000004575777498891968409_" cx="471.682" cy="291.122" r="101.616" gradientUnits="userSpaceOnUse">
    <stop offset=".012" stop-color="#ec71d2"/>
    <stop offset=".494" stop-color="#b2529d"/>
    <stop offset=".565" stop-color="#a959a0"/>
    <stop offset=".68" stop-color="#916ca7"/>
    <stop offset=".825" stop-color="#6a8bb3"/>
    <stop offset=".992" stop-color="#35b6c3"/>
    <stop offset="1" stop-color="#32b8c4"/>
  </radialGradient>
  <path fill="url(#SVGID_00000062158637663959836160000004575777498891968409_)" d="M487.7 361.6v-47.5c0-21.8-17.7-39.5-39.5-39.5s-39.5 17.7-39.5 39.5v65.1c0 2.7 2.2 4.9 4.9 4.9s4.9-2.2 4.9-4.9v-.8c.5.3 1.1.7 1.7 1 1.7 1 3.6 1.9 5.6 2.7v7.8c0 2.7 2.2 4.9 4.9 4.9s4.9-2.2 4.9-4.9v-5c2.8.5 5.7.9 8.6 1.1v12c0 2.7 2.2 4.9 4.9 4.9s4.9-2.2 4.9-4.9v-12.1c3.2-.3 6.4-.8 9.5-1.5v6.1c0 2.7 2.2 4.9 4.9 4.9s4.9-2.2 4.9-4.9v-9.4c1-.4 1.9-.9 2.8-1.4.7-.4 1.3-.8 1.9-1.2v.7c0 2.7 2.2 4.9 4.9 4.9s4.9-2.2 4.9-4.9l-.1-17.6z"/>
  <path id="矩形_00000095318602075413271870000014529662662758593453_" d="M412.4 348.4c1.1 0 2 1.3 2 2.8v13.6c0 1.5-.9 2.8-2 2.8s-2-1.3-2-2.8v-13.6c0-1.4.9-2.8 2-2.8z" class="st20"/>
  <path id="矩形_00000031907953492316991020000007503664004596836746_" d="M470.8 288.3c1.3-1 3.5-.4 4.8 1.3l2.2 2.9c1.3 1.7 1.2 4-.1 5s-3.5.4-4.8-1.3l-2.2-2.9c-1.4-1.8-1.2-4 .1-5z" class="st20"/>
  <path id="矩形_00000170269569881200907880000017826712346614369155_" d="M428.9 383.3c1.1 0 2 1.3 2 2.8v2.6c0 1.5-.9 2.8-2 2.8s-2-1.3-2-2.8v-2.6c.1-1.6 1-2.8 2-2.8z" class="st20"/>
  <path id="矩形_00000080920093554347122250000017113563869997304492_" d="M412.1 373c1.1 0 2 1.3 2 2.8v2.6c0 1.5-.9 2.8-2 2.8s-2-1.3-2-2.8v-2.6c0-1.6 1-2.8 2-2.8z" class="st20"/>
  <path id="矩形_00000008125601576867058660000002138215704709465515_" d="M448.2 391.6c1.1 0 2 1.3 2 2.8v2.6c0 1.5-.9 2.8-2 2.8s-2-1.3-2-2.8v-2.6c0-1.6.9-2.8 2-2.8z" class="st20"/>
  <path id="矩形_00000030459058402295045220000013392143210660574096_" d="M466.9 386.5c.8 0 1.6 1 1.6 2.3v2.1c0 1.2-.7 2.3-1.6 2.3-.8 0-1.6-1-1.6-2.3v-2.1c.1-1.3.8-2.3 1.6-2.3z" class="st20"/>
  <path id="椭圆形_00000058590989205359229010000007716449101531980705_" d="M457.7 343.6c3.9-.2 6.8-3.5 6.8-5.7 0-.9-.5-1.7-1.3-1.7-1.2-.1-3.1.7-5.4.8-2.2.1-3.6-.5-5.3-.4-1.8.1-1.7 2.1-1.4 2.9.5 2.1 2.7 4.2 6.6 4.1z" class="st24"/>
  <path id="椭圆形_00000099658141785765166750000014992876793709181319_" d="M457.8 341.7c4-.2 6.9-3.2 6.9-5.4 0-.8-.5-1.5-1.3-1.6-1.2-.1-3.2.7-5.5.8-2.3.1-3.6-.5-5.4-.4-1.8.1-1.7 2-1.4 2.7.5 2.1 2.7 4 6.7 3.9z" class="st25"/>
  <ellipse cx="441.6" cy="321.2" class="st25" rx="9" ry="8.7" transform="rotate(-55.453 441.561 321.187)"/>
  <path id="形状结合_00000008135300899334253130000004462010967464383132_" d="M442.7 311.7c4-.2 7.3 3.8 7.3 8.8v1c0-5.1-3.2-9.1-7.1-9-4 .2-7.1 4.4-7.1 9.6 0 1 .1 2 .4 2.8-.4-1.1-.7-2.5-.7-3.8-.1-5 3.2-9.2 7.2-9.4z" class="st26"/>
  <path id="形状结合_00000058554018202435798510000008384907088843336861_" d="M442.7 310.6c4.5-.2 8.2 4.2 8.2 9.8 0 5.6-3.7 10.3-8.2 10.5-4.5.2-8.2-4.2-8.2-9.8 0-5.6 3.6-10.3 8.2-10.5zm0 1.1c-4 .2-7.3 4.4-7.3 9.4s3.3 9 7.3 8.8c4-.2 7.3-4.4 7.3-9.4s-3.3-9-7.3-8.8z" class="st27"/>
  <ellipse cx="470.8" cy="319.9" class="st25" rx="9" ry="8.7" transform="rotate(-55.453 470.818 319.873)"/>
  <path id="形状结合_00000160151135484997604500000002029215463518236064_" d="M471.8 310.4c4-.2 7.3 3.8 7.3 8.8v1c0-5.1-3.2-9.1-7.1-9s-7.1 4.4-7.1 9.6c0 1 .1 2 .4 2.8-.4-1.1-.7-2.5-.7-3.8-.1-5 3.1-9.2 7.2-9.4z" class="st26"/>
  <path id="形状结合_00000068638183792589047610000002024392163384903811_" d="M471.8 309.3c4.5-.2 8.2 4.2 8.2 9.8 0 5.6-3.7 10.3-8.2 10.5-4.5.2-8.2-4.2-8.2-9.8s3.6-10.3 8.2-10.5zm0 1.1c-4 .2-7.3 4.4-7.3 9.4s3.3 9 7.3 8.8c4-.2 7.3-4.4 7.3-9.4s-3.4-9-7.3-8.8z" class="st27"/>
  <circle cx="446.3" cy="321.3" r="3.6" class="st24"/>
  <circle cx="475.4" cy="320.3" r="3.6" class="st24"/>
</svg>