<svg xmlns="http://www.w3.org/2000/svg" xml:space="preserve" id="Слой_1" x="0" y="0" version="1.1" viewBox="0 0 336 500">
  <style>
    .st20,.st24,.st25,.st26,.st27{fill-rule:evenodd;clip-rule:evenodd}.st20{opacity:.2563;fill:#fff;enable-background:new}.st24,.st25,.st26,.st27{fill:#56506b}.st25,.st26,.st27{fill:#fff}.st26,.st27{fill:#aeaeb0}.st27{fill:#d2d2d2}.st28,.st29{stroke:#101423}.st28{fill:#eaeffc;stroke-linecap:round;stroke-linejoin:round;stroke-miterlimit:10}.st29{fill:#101423}.st29,.st30,.st31{stroke-linecap:round;stroke-linejoin:round;stroke-miterlimit:10}.st30{fill-rule:evenodd;clip-rule:evenodd;fill:#c6c2d1;stroke:#0f1321}.st31{fill:#fff;stroke:#101423}.st31,.st32,.st33{fill-rule:evenodd;clip-rule:evenodd}.st32{fill:#eaeffc;stroke:#101423;stroke-linecap:round;stroke-linejoin:round;stroke-miterlimit:10}.st33{opacity:.92;fill:#fff;enable-background:new}.st34{fill:#fff;stroke:#101423;stroke-linecap:round;stroke-linejoin:round;stroke-miterlimit:10}.st35{fill-rule:evenodd;clip-rule:evenodd;fill:#0f1423}.st37,.st40,.st41{fill:#c6c2d1;stroke:#0f1321;stroke-linecap:round;stroke-linejoin:round;stroke-miterlimit:10}.st40,.st41{fill-rule:evenodd;clip-rule:evenodd;fill:#fff;stroke:#111422}.st41{fill:#101422;stroke:#101423}.st53{fill:#1d1d1b}.st55{fill:#fff}
  </style>
  <path d="m139.6 71.9.2.2 12.4-14.5L143 38l-7.2 3.7c1-3.1 1.5-6.2 1.5-9.4v-1.2l14.3-2.8-19.3-10.1c-.5-.4-1-.7-1.5-1-1.4-.7-3-1.2-4.8-1.3-3.6-.2-7.7 1-12.3 3.7-4.7 2.7-9 6.4-12.6 10.9-3.7 4.5-6.5 9.5-8.6 14.9-1.8 4.7-2.8 9.3-3.1 14.1l-.1.2v2.1h.1s0 0 0 0h0l16.7 8.9v7.4l6.4-3.7c1.8-1.1 3.5-1.6 4.9-1.6 1.4 0 2.5.4 3.3 1.4.8 1 1.2 2.3 1.2 4.2 0 1.8-.3 3.7-1 5.5-.7 1.8-1.6 3.5-2.8 5-1.2 1.5-2.6 2.7-4.2 3.6-1.6.9-3.1 1.4-4.4 1.4-1.3 0-2.3-.5-3-1.5-.7-.9-1.1-2.3-1.1-4l-17.2 9.9c0 5.6 1.1 9.9 3.3 13 1.4 2 3.2 3.4 5.3 4.2l20.8 11.1 17.1-10.2-15.1-8c1.1-.9 2.2-1.8 3.3-2.8l3.6 5.2 23.5-6.5 1.8-22.3-13.2-1.8c.4-2.8.9-5.6 1-8.3zm-15-13.4c-.1 0-.2.1-.3.1v-.7c.2-.1.3-.3.5-.4l-.2 1z" class="st28"/>
  <path d="m105 88.4 21.3 11.3-17.1 10.2-21.3-11.3zM127 72.6l-8.1-4.3-8.6 4.9-4.5-2.4v7.4L127 89.5z" class="st28"/>
  <path d="M134.6 123.6c-5 2.9-9.3 4.2-13.2 3.9-3.8-.2-6.9-1.9-9-4.9-2.2-3.1-3.3-7.4-3.3-13l17.2-9.9c0 1.7.4 3.1 1.1 4 .7.9 1.7 1.4 3 1.5 1.3 0 2.7-.4 4.4-1.4 1.6-.9 3-2.1 4.2-3.6 1.2-1.5 2.1-3.2 2.8-5 .7-1.8 1-3.7 1-5.5 0-1.8-.4-3.2-1.2-4.2-.8-1-1.9-1.4-3.3-1.4s-3 .6-4.9 1.6l-6.4 3.7V72.6l6.4-3.7c1.7-1 3.2-2.2 4.5-3.8 1.3-1.5 2.3-3.2 3-5.1.7-1.8 1.1-3.6 1.1-5.5 0-1.8-.3-3.2-.9-4.2-.6-1-1.5-1.6-2.6-1.7-1.1-.1-2.4.2-3.8 1-1.6.9-2.9 2.1-4.2 3.6-1.2 1.5-2.2 3.1-2.9 5-.7 1.8-1.1 3.6-1.1 5.5l-16.3 9.4c0-5.5 1.1-11 3.2-16.4 2.1-5.4 5-10.4 8.6-14.9 3.7-4.5 7.9-8.1 12.6-10.9 4.6-2.7 8.8-3.9 12.3-3.7 3.6.2 6.4 1.7 8.4 4.5s3 6.7 3 11.8c0 5-1.2 9.9-3.6 14.5-2.4 4.6-5.5 8.3-9.3 11.1v.7c5.1-2.1 8.9-2.1 11.5.1 2.6 2.2 3.8 6 3.8 11.6 0 5.3-1.1 10.6-3.3 15.9-2.2 5.4-5.3 10.3-9.2 14.9-3.9 4.6-8.4 8.4-13.6 11.3z" class="st29"/>
  <path d="m41.4 56.5 21.5 12-19.3 11.1-21.5-12z" class="st28"/>
  <path d="m62.9 68.5 12.9 56.2.5-.3 12.9-71.1 19.3-11.1-20.7 102.2-23.4 13.5-20.8-78.3 19.3-11.1z" class="st29"/>
  <path d="M22.1 67.6 43 146.3l21.4 11.6-20.8-78.3zM76.3 124.4l-.5.3-13.1-54.9L67.9 42l21.3 11.3z" class="st28"/>
  <path d="m87.2 30.9 21.3 11.3-19.3 11.1L67.9 42z" class="st28"/>
  <path d="m267.5 349.4-5.8-3.4v-5.8l5.8 3.4z" class="st30"/>
  <path d="m267.5 349.4 5.9-3.4v-5.8l-5.9 3.4z" class="st31"/>
  <path d="m267.6 343.6-5.9-3.4 5.8-3.4 5.9 3.4z" class="st32"/>
  <path id="矩形_00000059270956343259899000000015837875755185453740_" d="M265.7 338.8c.1.1.1.2 0 .3l-1.2.7c-.1.1-.4.1-.5 0-.1-.1-.1-.2 0-.3l1.2-.7c.2-.1.4-.1.5 0z" class="st33"/>
  <path id="矩形_00000067921106262903399390000000955246272684213685_" d="M263.7 339.9c.1.1.1.2 0 .3l-.2.1c-.1.1-.4.1-.5 0-.1-.1-.1-.2 0-.3l.2-.1h.5z" class="st33"/>
  <path d="M268.1 75.6c-.2-1-.5-1.8-.9-2.5-.4-.6-.9-1.1-1.4-1.4-.6-.3-1.2-.3-2-.2-.8.1-1.6.4-2.5 1-1.9 1.1-3.6 2.8-5 4.9-1.4 2.2-2.4 4.8-3.1 7.9-.7 3.1-1.1 6.5-1.1 10.2 0 3.8.3 6.8 1 9.1s1.7 3.8 3 4.4c1.3.7 3 .4 5-.7 1.8-1 3.2-2.2 4.4-3.7 1.2-1.4 2.1-3 2.6-4.8.6-1.8.9-3.6.9-5.5h0l-7.7 4.7V86.6l18.9-10.8v9c0 5.9-.8 11.4-2.5 16.5-1.6 5.1-3.9 9.6-6.8 13.4-2.9 3.9-6.2 6.8-9.9 9-4.2 2.4-7.8 3.1-10.9 2.2-3.1-.9-5.6-3.3-7.3-7.2-1.8-3.9-2.6-9.3-2.6-16.1 0-5.3.5-10.4 1.6-15.1 1.1-4.7 2.6-9.1 4.5-13 1.9-3.9 4.1-7.4 6.6-10.2 2.5-2.9 5.2-5.2 8.1-6.8 2.5-1.4 4.9-2.2 7.1-2.4 2.2-.2 4.1.3 5.8 1.3 1.7 1 3 2.6 4.1 4.7 1 2.1 1.7 4.7 1.9 7.9l-11.8 6.6z" class="st28"/>
  <path d="M279.2 96.7c.6-2.7 1-5.2 1.1-7.5l-11.7 6.6-3.9 3-.5 7.8s-.1.1-.1.2c-.3.3-.6.6-.9.8l-.5-11.2 14.1-17.7-3.2-2.7 6.8-3.9v-.4l9.7-6.8-16-8.6c-.9-.5-3.5-1.5-5.8-1.3-2.3.2-5 1.2-7.7 2.8-3.8 2.2-6.9 5.6-10 9.9-3.1 4.3-5.6 9.4-7.4 15.4-1.8 6-2.7 12.5-2.7 19.7 0 7.1.9 12.7 2.7 16.6 1.6 3.5 6.4 6.8 6.4 6.8l15.3 7.6 12.9-5.3-12.8-6.9c.9-.7 1.8-1.5 2.7-2.4l6.7 2.6 11.2-7.1 2.6-14.2-7.1-3.7-1.9-.1z" class="st28"/>
  <path d="m296.8 84.6-16.4-8.8-19 10.8 16.5 8.8zM277.9 107.9V95.4l-16.5-8.8V99z" class="st28"/>
  <path d="M284.6 84.4c-.2-1-.5-1.8-.9-2.5-.4-.6-.9-1.1-1.4-1.4-.6-.3-1.2-.3-2-.2-.8.1-1.6.4-2.5 1-1.9 1.1-3.6 2.8-5 4.9-1.4 2.2-2.4 4.8-3.1 7.9-.7 3.1-1.1 6.5-1.1 10.2 0 3.8.3 6.8 1 9.1s1.7 3.8 3 4.4c1.3.7 3 .4 5-.7 1.8-1 3.2-2.2 4.4-3.7 1.2-1.4 2.1-3 2.6-4.8.6-1.8.9-3.6.9-5.5h0l-7.7 4.7V95.4l18.9-10.8v9c0 5.9-.8 11.4-2.5 16.5-1.6 5.1-3.9 9.6-6.8 13.4-2.9 3.9-6.2 6.8-9.9 9-4.2 2.4-7.8 3.1-10.9 2.2-3.1-.9-5.6-3.3-7.3-7.2-1.8-3.9-2.6-9.3-2.6-16.1 0-5.3.5-10.4 1.6-15.1 1.1-4.7 2.6-9.1 4.5-13 1.9-3.9 4.1-7.4 6.6-10.2 2.5-2.9 5.2-5.2 8.1-6.8 2.5-1.4 4.9-2.2 7.1-2.4 2.2-.2 4.1.3 5.8 1.3 1.7 1 3 2.6 4.1 4.7 1 2.1 1.7 4.7 1.9 7.9l-11.8 6.6z" class="st34"/>
  <path d="M233.8 69.4V134l-9.7 5.5-15.4-25.1-.2.1v33.9l-11.6 6.6V90.3l9.8-5.6 15.2 25.2.3-.2V75.9l11.6-6.5z" class="st28"/>
  <path d="m240.5 148.2-16.4-8.8.8-16.2.2-.1z" class="st28"/>
  <path d="M250.2 78.2v64.6l-9.7 5.5-15.4-25.1-.2.1v33.9l-11.6 6.6V99.2l9.8-5.6 15.2 25.2.3-.2V84.8l11.6-6.6z" class="st34"/>
  <path d="m206.7 84.8 16.4 8.8-9.8 5.6-16.4-8.9z" class="st28"/>
  <path d="M213.3 163.7V99.2l-16.4-8.9v64.6zM233.8 69.4l16.4 8.8-11.6 6.6-16.4-8.9zM238.6 118.5V84.8l-16.4-8.9v17.2l.9.5 15.2 25.1zM189.9 96.4V161l-11.6 6.6V103l11.6-6.6z" class="st28"/>
  <path d="M206.3 105.2v64.6l-11.6 6.6v-64.6l11.6-6.6z" class="st34"/>
  <path d="m194.7 111.8-16.4-8.9 11.6-6.5 16.4 8.8zM194.7 176.3v-64.5l-16.4-8.9v64.6zM118.5 136.9l14.4-8.2 9.9 30.9.5-.3 9.9-42.2 14.4-8.2v64.6l-11.3 6.4v-37.3l-.3.2-9.5 42.2-6.8 3.9-9.5-31.7-.3.2V195l-11.3 6.4v-64.5z" class="st28"/>
  <path d="m153.2 117.2 16.4 8.8-9.9 42.2-16.4-8.8zM172.7 188.8l-16.2-8.9 15.9-28.3.3-.2zM156.1 197.8l-16.3-8.9 6.4-22.6.4-.2z" class="st28"/>
  <path d="m134.9 145.7 14.4-8.2 9.9 30.9.5-.3 9.9-42.2 14.4-8.2v64.6l-11.3 6.4v-37.3l-.3.2-9.5 42.2-6.8 3.9-9.5-31.7-.3.2v37.6l-11.3 6.4v-64.5z" class="st34"/>
  <path d="m134.9 210.3-16.4-8.8v-64.6l16.4 8.8zM149.3 137.5l-16.4-8.8-14.4 8.2 16.4 8.8zM184.1 117.8l-16.5-8.8-14.4 8.2 16.4 8.8z" class="st28"/>
  <path d="m120.6 157.8-16.4-8.8h0c-.7-.4-1.5-.7-2.3-.9-3.1-.7-6.6 0-10.5 2.2-3.9 2.2-7.4 5.5-10.5 9.8-3.1 4.3-5.6 9.5-7.5 15.4-1.8 6-2.8 12.6-2.8 19.7s.9 12.7 2.8 16.5c1.3 2.8 3 4.8 5 6h0l16.4 8.8 11.7-6.6-11.2-5.9c2.4-1.9 4.6-4.3 6.7-7.1 3.1-4.3 5.6-9.5 7.5-15.4 1.8-6 2.8-12.6 2.8-19.7 0-3.3-.2-6.2-.6-8.8l8.9-5.2z" class="st28"/>
  <path d="m116.7 170.1 3.9 25.7-14 21.5-13.1-5.2-.6-12.8 14.9-30.5z" class="st28"/>
  <path d="M128.6 180.5c0 7.2-.9 13.8-2.8 19.7-1.8 6-4.3 11.1-7.5 15.4-3.1 4.3-6.6 7.6-10.5 9.8-3.9 2.2-7.4 2.9-10.5 2.2-3.1-.8-5.6-3.1-7.5-7-1.8-3.9-2.8-9.4-2.8-16.5 0-7.2.9-13.8 2.8-19.7 1.8-6 4.3-11.1 7.5-15.4 3.1-4.3 6.6-7.6 10.5-9.8 3.9-2.2 7.4-2.9 10.5-2.2 3.1.7 5.6 3.1 7.5 6.9 1.9 3.9 2.8 9.4 2.8 16.6zm-11.9 6.8c0-3.9-.3-6.9-1-9.2-.7-2.3-1.7-3.7-3-4.4-1.3-.6-2.9-.4-4.8.7s-3.5 2.7-4.8 4.8c-1.3 2.1-2.3 4.7-3 7.7-.7 3-1 6.5-1 10.4 0 3.9.3 6.9 1 9.2.7 2.3 1.7 3.7 3 4.4 1.3.6 2.9.4 4.8-.7s3.5-2.7 4.8-4.8c1.3-2.1 2.3-4.7 3-7.7.6-3.1 1-6.6 1-10.4z" class="st34"/>
  <path d="M65.4 215.5c.6-2.7 1-5.2 1.1-7.5l-11.7 6.6-3.9 3-.5 7.8s-.1.1-.1.2c-.3.3-.6.6-.9.8l-.5-11.4L63 197.3l-3.2-2.7 6.8-3.9v-.4l10.5-5.9-16.5-8.9c-1.8-.9-3.7-1.7-6-1.5-2.3.2-4.7 1-7.4 2.6-3.8 2.2-7.3 5.4-10.4 9.7-3.1 4.3-5.6 9.4-7.4 15.4-1.8 6-2.7 12.5-2.7 19.7 0 7.1.9 12.7 2.7 16.6 1.6 3.5 6.4 6.8 6.4 6.8l16.4 8.8 11.7-6.6-12.9-6.6c.9-.7 1.8-1.5 2.7-2.4l6.7 2.6 11.2-7.1 2.6-14.2-7.1-3.7-1.7-.1z" class="st28"/>
  <path d="m66.6 207.9 16.4 8.8-11.8 6.6-16.4-8.8z" class="st28"/>
  <path d="m83 199.6-11.7 6.7c-.1-1.4-.3-2.6-.7-3.6-.4-1-.8-1.8-1.5-2.3-.6-.5-1.4-.8-2.2-.7-.9 0-1.9.4-3 1-1.9 1.1-3.6 2.8-4.9 4.9-1.3 2.2-2.4 4.8-3 7.9-.7 3.1-1 6.5-1 10.2 0 4 .4 7.1 1.1 9.3.7 2.3 1.7 3.7 3.1 4.3 1.3.6 2.9.3 4.8-.7 1.1-.6 2-1.4 2.9-2.2.8-.9 1.6-1.9 2.2-3 .6-1.1 1.1-2.4 1.5-3.7.4-1.3.7-2.7.8-4.2l11.7-6.6c-.1 2.8-.6 5.9-1.5 9.2-.9 3.3-2.1 6.6-3.7 9.9-1.6 3.3-3.6 6.3-5.9 9.1-2.4 2.8-5.1 5.1-8.2 6.9-3.9 2.2-7.4 3-10.5 2.2-3.1-.8-5.6-3.1-7.4-7-1.8-3.9-2.7-9.4-2.7-16.6 0-7.2.9-13.8 2.7-19.7 1.8-6 4.3-11.1 7.4-15.4 3.1-4.3 6.6-7.5 10.4-9.7 2.7-1.5 5.2-2.4 7.4-2.6 2.3-.2 4.2.3 6 1.5 1.7 1.2 3.1 3 4.1 5.5.9 2.3 1.6 5.5 1.8 9.4z" class="st34"/>
  <path d="m270.2 222.9-16.4-9.4V151l16.4 9.5z" class="st30"/>
  <path d="m270.2 222.9 16.3-9.4V151l-16.3 9.5z" class="st31"/>
  <path d="m270.2 160.5-16.4-9.5 16.3-9.4 16.4 9.4z" class="st32"/>
  <path id="矩形_00000178177514575907472600000001449231174993843088_" d="M265 146.9c.3.2.3.5-.1.8l-3.4 2c-.4.2-1 .3-1.3.1-.3-.2-.3-.5.1-.8l3.4-2c.4-.3 1-.3 1.3-.1z" class="st33"/>
  <path id="矩形_00000067226598298868807850000001328910450883798966_" d="M259.4 150.2c.3.2.3.5-.1.8l-.7.4c-.4.2-1 .3-1.3.1-.3-.2-.3-.5.1-.8l.7-.4c.4-.3.9-.3 1.3-.1z" class="st33"/>
  <path d="m253.9 232.4-16.3-9.4v-49l16.3 9.4z" class="st30"/>
  <path d="m253.9 232.4 16.3-9.4v-49l-16.3 9.4z" class="st31"/>
  <path d="m254 183.5-16.4-9.5 16.2-9.5 16.4 9.5z" class="st32"/>
  <path id="矩形_00000140010208435349322350000011930443509908279176_" d="M248.7 169.9c.3.2.3.5-.1.8l-3.4 2c-.4.2-1 .3-1.3.1-.3-.2-.3-.5.1-.8l3.4-2c.4-.3 1-.3 1.3-.1z" class="st33"/>
  <path id="矩形_00000165952798331224865720000006071371618190155925_" d="M243.1 173.1c.3.2.3.5-.1.8l-.7.4c-.4.2-1 .3-1.3.1-.3-.2-.3-.5.1-.8l.7-.4c.4-.2 1-.3 1.3-.1z" class="st33"/>
  <path d="m237.6 241.9-16.4-9.4v-34.1l16.4 9.4z" class="st30"/>
  <path d="m237.6 241.9 16.3-9.4v-34.1l-16.3 9.4z" class="st31"/>
  <path d="m237.6 207.9-16.4-9.5 16.3-9.5 16.4 9.5z" class="st32"/>
  <path id="矩形_00000025405235160765255660000003430070618422750876_" d="M232.4 194.2c.3.2.3.5-.1.8l-3.4 2c-.4.2-1 .3-1.3.1-.3-.2-.3-.5.1-.8l3.4-2c.4-.2 1-.2 1.3-.1z" class="st33"/>
  <path id="矩形_00000124878525489260903340000009594687559695369367_" d="M226.8 197.5c.3.2.3.5-.1.8l-.7.4c-.4.2-1 .3-1.3.1-.3-.2-.3-.5.1-.8l.7-.4c.4-.2.9-.3 1.3-.1z" class="st33"/>
  <path d="M261.1 117.7 255 134l3-1.6v11.3l6.6-3.8V129l3.1-1.9zM243.2 141.8l-6.1 16.3 3.1-1.5v11.2l6.5-3.8v-10.9l3.1-1.9zM227.3 165.1l-6.1 16.4 3.1-1.6v11.2l6.5-3.8v-10.8l3.1-2z" class="st35"/>
  <linearGradient id="SVGID_1_" x1="281.777" x2="281.987" y1="248.026" y2="248.026" gradientUnits="userSpaceOnUse">
    <stop offset="0" stop-color="#a25da2"/>
    <stop offset="1" stop-color="#00afc2"/>
  </linearGradient>
  <path fill="url(#SVGID_1_)" stroke="#1d1d1b" stroke-linecap="round" stroke-linejoin="round" stroke-miterlimit="10" d="M281.8 247.4c-.1-.3 0 .6 0 1.2.2.2.3 0 0-1.2z"/>
  <path d="M309.2 228.7v-28.8c0-1.2 0-2.4-.1-3.5l-1.9-13.8c-.4-.4-4.5-3.3-4.5-3.3-2.3-1.5-6.6-2.9-13.4 2.4-8.1 6.4-12 17.7-12.8 22.5-.1.6-.2 1.3-.3 1.9v0s0 0 0 0c0 .2 0 .3-.1.5 0 0 0 0 0 0V207.2s0 0 0 0v2.2s0 0 0 0l-.2 23.8v0h0V246c0 .8.3 1.3.7 1.6.1.1 4.8 3.1 4.9 3.1.1 0 .1-1.7.2-1.7s.1-.2.1-.5c-.3-.3-.9-1.6-.9-1.7.4-.6.6-1.4.6-2v-6.6 0c0-.7.3-1.6.8-2.2.1-.2.2-.3.4-.4v1.1c0 .4.1 2.5.2 2.7.2.3.4.5.7.8.1.1 4.7 3.1 4.9 2.9.1-.1-.1-2.8 0-2.9.5-.4-.5-1.2-.3-1.9.1-.4.2-.8.2-1.2v-2.9c0-.4.1-.8.2-1.1.1-.2.1-.3.2-.4.2-.5-.4.3 0 0l6.2 4c.1 0 4.2-2 1-2.5-.1 0 .1-.1.2-.1.9-.5-.9-1.9-.9-3.1v-.6c0-.5.2-1.1.4-1.6 0-.1.1-.1.1-.2.2-.3.4-.6.6-.8v1.1c0 .3 0 2.7.3 3 .1.1 5.2 3.3 5.3 3.3.3.2.1-4.7.1-5.9v-2.9c0-.9.5-2 1.2-2.6v6.7c0 1.3 5.7 4.5 5.7 4.5.9-.7.2-5 .2-6.3z" class="st37"/>
  <path d="M311.7 199.1v-4.8c0-11.2-6.9-16.2-15.5-11.3-7.2 4.2-13.3 14.2-15 24-.3 1.6-.5 3.2-.5 4.8v26.5h0v11.1c0 1.2.7 1.8 1.7 1.2.9-.5 1.7-1.9 1.7-3.2v-6.6 0c0-1.2.8-2.6 1.8-3.1h0c1-.5 1.7 0 1.7 1.1v2.9c0 1.2.7 1.8 1.7 1.2.9-.5 1.7-1.9 1.7-3.2v-2.9c0-1.2.8-2.6 1.8-3.1h0c1-.5 1.7 0 1.7 1.1v.5c0 1.2.7 1.8 1.7 1.2.9-.5 1.7-1.9 1.7-3.2v-.6c0-1.2.8-2.6 1.8-3.1h0c1-.5 1.7 0 1.7 1.1v2.9c0 1.2.7 1.8 1.7 1.2.9-.5 1.7-1.9 1.7-3.2V229c0-1.2.8-2.6 1.8-3.1h0c1-.5 1.7 0 1.7 1.1v6.5c0 1.3.8 1.9 1.8 1.3 1-.6 1.8-2 1.8-3.3v-28.8c0-1.3-.1-2.5-.2-3.6z" class="st31"/>
  <path id="椭圆形_00000153671782703157569280000017218765155507343286_" d="M297.5 211.8c1.4-.8 2.5-2.8 2.5-3.8 0-.4-.2-.6-.5-.5-.4.2-1.2.9-2 1.4-.8.5-1.3.5-2 .8-.6.4-.6 1.3-.5 1.6.2.9 1 1.4 2.5.5z" class="st35"/>
  <ellipse cx="291.6" cy="205.2" class="st35" rx="4.9" ry="2.8" transform="rotate(-66.06 291.545 205.23)"/>
  <ellipse cx="303.1" cy="198.6" class="st35" rx="4.9" ry="2.8" transform="rotate(-66.06 303.078 198.552)"/>
  <linearGradient id="SVGID_00000161598204518421227280000011851440646324596357_" x1="304.428" x2="304.563" y1="172.742" y2="172.742" gradientUnits="userSpaceOnUse">
    <stop offset="0" stop-color="#a25da2"/>
    <stop offset="1" stop-color="#00afc2"/>
  </linearGradient>
  <path fill="url(#SVGID_00000161598204518421227280000011851440646324596357_)" stroke="#1d1d1b" stroke-linecap="round" stroke-linejoin="round" stroke-miterlimit="10" d="M304.4 172.4v.7c.2.2.2 0 0-.7z"/>
  <path d="M322.1 160.3v-18.6c0-.8 0-1.6-.1-2.3l-1.2-8.9c-.2-.3-2.9-2.1-2.9-2.1-1.5-.9-4.3-1.9-8.6 1.5-5.2 4.1-7.7 11.4-8.3 14.5-.1.4-.1.8-.2 1.2v0s0 0 0 0v.3s0 0 0 0v.5s0 0 0 0v.7s0 0 0 0V147.7s0 0 0 0 0 0 0 0l-.1 15.4v0h0v8.3c0 .5.2.8.4 1 .1 0 3.1 2 3.2 2 .1 0 0-1.1.1-1.1s.1-.2.1-.3c-.2-.2-.6-1-.5-1.1.2-.4.4-.9.4-1.3v-4.3 0c0-.5.2-1 .5-1.4.1-.1.2-.2.2-.3v.7c0 .2 0 1.6.1 1.7.1.2.3.4.4.5.1.1 3 2 3.2 1.9.1 0 0-1.8 0-1.9.3-.3-.3-.8-.2-1.2.1-.2.1-.5.1-.7v-1.9c0-.2.1-.5.1-.7 0-.1.1-.2.1-.3.2-.3-.3.2 0 0l4 2.5s2.7-1.3.7-1.6c-.1 0 .1-.1.1-.1.6-.3-.6-1.2-.6-2v-.4c0-.3.1-.7.3-1 0 0 0-.1.1-.1.1-.2.3-.4.4-.5v.7c0 .2 0 1.7.2 1.9 0 0 3.4 2.1 3.4 2.2.2.1.1-3 .1-3.8v-1.9c0-.6.3-1.3.7-1.7v4.3c0 .8 3.6 2.9 3.6 2.9.7-.2.2-3 .2-3.8z" class="st37"/>
  <path d="M323.8 141.2v-3.1c0-7.2-4.5-10.5-10-7.3-4.7 2.7-8.6 9.2-9.7 15.5-.2 1-.3 2.1-.3 3.1v17.1h0v7.2c0 .8.5 1.1 1.1.8.6-.3 1.1-1.2 1.1-2v-4.3 0c0-.8.5-1.7 1.1-2h0c.6-.3 1.1 0 1.1.7v1.8c0 .8.5 1.1 1.1.8.6-.3 1.1-1.2 1.1-2v-1.9c0-.8.5-1.7 1.1-2h0c.6-.3 1.1 0 1.1.7v.4c0 .8.5 1.1 1.1.8.6-.3 1.1-1.2 1.1-2v-.5c0-.8.5-1.7 1.1-2h0c.6-.3 1.1 0 1.1.7v1.8c0 .8.5 1.1 1.1.8.6-.3 1.1-1.2 1.1-2v-1.9c0-.8.5-1.7 1.1-2h0c.6-.3 1.1 0 1.1.7v4.2c0 .8.5 1.2 1.1.8.6-.4 1.1-1.3 1.1-2.2v-18.6c.2-.7.2-1.4.2-2.1z" class="st31"/>
  <path id="椭圆形_00000173126129367104023700000010153455515177776290_" d="M314.5 149.4c.9-.5 1.6-1.8 1.6-2.5 0-.2-.1-.4-.3-.3-.3.1-.7.6-1.3.9-.5.3-.8.3-1.3.5-.4.2-.4.8-.3 1 .2.6.7.9 1.6.4z" class="st35"/>
  <ellipse cx="310.7" cy="145.1" class="st35" rx="3.1" ry="1.8" transform="rotate(-66.06 310.727 145.127)"/>
  <ellipse cx="318.2" cy="140.8" class="st35" rx="3.1" ry="1.8" transform="rotate(-66.06 318.169 140.818)"/>
  <radialGradient id="SVGID_00000075865195042789452990000011725556127169905854_" cx="174.161" cy="332.126" r="27.058" gradientTransform="matrix(1 0 0 .5898 0 136.24)" gradientUnits="userSpaceOnUse">
    <stop offset="0" stop-color="#b8b2d6"/>
    <stop offset=".346" stop-color="#bab5d7" stop-opacity=".654"/>
    <stop offset=".606" stop-color="#c2bfdc" stop-opacity=".394"/>
    <stop offset=".838" stop-color="#cecfe3" stop-opacity=".162"/>
    <stop offset="1" stop-color="#dbdfeb" stop-opacity="0"/>
  </radialGradient>
  <path fill="url(#SVGID_00000075865195042789452990000011725556127169905854_)" d="M197.4 319.1c-12.7-7.3-33.4-7.4-46.2-.2-12.8 7.2-12.9 19-.2 26.3s33.4 7.4 46.2.2c12.8-7.2 12.9-19 .2-26.3z" opacity=".67"/>
  <circle cx="175" cy="280.1" r="58.5" fill="#0f1423"/>
  <path d="m140.6 228.4 8.4 22.8c.4 3.2 2.8 5.8 6.9 6.9 6.7 1.7 15.4-1.4 19.4-7.1 1.7-2.4 2.3-4.9 1.9-7.1h.1l-.3-.9c0-.1-.1-.2-.1-.3l-8.6-23.6-27.7 9.3z" class="st34"/>
  <path d="M146.7 244.7c1.9 5.2 9.5 7.1 17 4.4 7.5-2.7 12-9.2 10.1-14.3" class="st34"/>
  <path d="M144 237.6c1.9 5.2 9.5 7.1 17 4.4s12-9.2 10.1-14.3" class="st34"/>
  <path d="M141.3 230.1c1.9 5.2 9.5 7.1 17 4.4 7.5-2.7 12-9.2 10.1-14.3" class="st34"/>
  <path d="m132.3 205.9 8.4 22.8c.4 3.2 2.8 5.8 6.9 6.9 6.7 1.7 15.4-1.4 19.4-7.1 1.7-2.4 2.3-4.9 1.9-7.1h.1l-.3-.9c0-.1-.1-.2-.1-.3l-8.6-23.6-27.7 9.3z" class="st34"/>
  <path d="M138.4 222.2c1.9 5.2 9.5 7.1 17 4.4 7.5-2.7 12-9.2 10.1-14.3" class="st34"/>
  <path d="M135.8 215c1.9 5.2 9.5 7.1 17 4.4 7.5-2.7 12-9.2 10.1-14.3" class="st34"/>
  <path d="M133 207.5c1.9 5.2 9.5 7.1 17 4.4 7.5-2.7 12-9.2 10.1-14.3" class="st34"/>
  <path d="m157.3 234.6-45.5-8L98 189l45.6 8z" class="st30"/>
  <path d="m157.3 234.6 29.7-35.5-13.8-37.7-29.6 35.6z" class="st31"/>
  <path d="M143.7 197 98 189.1l29.5-35.6 45.7 7.9z" class="st32"/>
  <path id="矩形_00000160161927926790121370000017548956210478178434_" d="M119.8 169.4c.9.1 1.1 1 .4 1.8l-6.1 7.5c-.7.8-2 1.4-2.9 1.3-.9-.1-1.1-1-.4-1.8l6.1-7.5c.7-.9 2-1.5 2.9-1.3z" class="st33"/>
  <path id="矩形_00000010281883665303339170000006667806347600243877_" d="M108.7 182.9c.9.1 1.1 1 .4 1.8l-1.2 1.4c-.7.8-2 1.4-2.9 1.3-.9-.1-1.1-1-.4-1.8l1.2-1.4c.7-.9 2-1.4 2.9-1.3z" class="st33"/>
  <path d="m127.4 187.5-5.4-.8 20-24.8 5.3.8z" class="st35"/>
  <path id="矩形_00000122678210692630021360000003396347695919238816_" d="M117.4 335.6c.5 0 .8.6.8 1.2v1.1c0 .7-.4 1.2-.8 1.2-.5 0-.8-.6-.8-1.2v-1.1c-.1-.7.3-1.2.8-1.2z" class="st20"/>
  <radialGradient id="SVGID_00000152246883095806951230000015915829375953991298_" cx="94.019" cy="360.83" r="21.573" gradientTransform="matrix(1 0 0 .5898 0 148.015)" gradientUnits="userSpaceOnUse">
    <stop offset="0" stop-color="#b8b2d6"/>
    <stop offset=".346" stop-color="#bab5d7" stop-opacity=".654"/>
    <stop offset=".606" stop-color="#c2bfdc" stop-opacity=".394"/>
    <stop offset=".838" stop-color="#cecfe3" stop-opacity=".162"/>
    <stop offset="1" stop-color="#dbdfeb" stop-opacity="0"/>
  </radialGradient>
  <path fill="url(#SVGID_00000152246883095806951230000015915829375953991298_)" d="M112.5 350.4c-10.1-5.8-26.6-5.9-36.8-.2-10.2 5.8-10.3 15.1-.2 21 10.1 5.8 26.6 5.9 36.8.2 10.3-5.7 10.3-15.1.2-21z" opacity=".67"/>
  <path fill="#00abbf" d="M122.5 323.8v-37c0-17-13.7-30.7-30.7-30.7s-30.7 13.7-30.7 30.7V337.4c0 2.1 1.7 3.8 3.8 3.8s3.8-1.7 3.8-3.8v-.6c.4.3.8.5 1.3.8 1.4.8 2.8 1.5 4.3 2.1v6.1c0 2.1 1.7 3.8 3.8 3.8s3.8-1.7 3.8-3.8v-3.9c2.2.4 4.4.7 6.7.8v9.3c0 2.1 1.7 3.8 3.8 3.8s3.8-1.7 3.8-3.8v-9.4c2.5-.2 5-.6 7.3-1.1v4.7c0 2.1 1.7 3.8 3.8 3.8 2.1 0 3.8-1.7 3.8-3.8v-7.3c.7-.3 1.5-.7 2.2-1.1l1.5-.9v.5c0 2.1 1.7 3.8 3.8 3.8s3.8-1.7 3.8-3.8l.1-13.6z"/>
  <radialGradient id="SVGID_00000117644562076134969260000014862897502777012865_" cx="110.091" cy="268.997" r="78.933" gradientUnits="userSpaceOnUse">
    <stop offset=".012" stop-color="#ec71d2"/>
    <stop offset=".494" stop-color="#b2529d"/>
    <stop offset=".565" stop-color="#a959a0"/>
    <stop offset=".68" stop-color="#916ca7"/>
    <stop offset=".825" stop-color="#6a8bb3"/>
    <stop offset=".992" stop-color="#35b6c3"/>
    <stop offset="1" stop-color="#32b8c4"/>
  </radialGradient>
  <path fill="url(#SVGID_00000117644562076134969260000014862897502777012865_)" d="M122.5 323.8v-37c0-17-13.7-30.7-30.7-30.7s-30.7 13.7-30.7 30.7V337.4c0 2.1 1.7 3.8 3.8 3.8s3.8-1.7 3.8-3.8v-.6c.4.3.8.5 1.3.8 1.4.8 2.8 1.5 4.3 2.1v6.1c0 2.1 1.7 3.8 3.8 3.8s3.8-1.7 3.8-3.8v-3.9c2.2.4 4.4.7 6.7.8v9.3c0 2.1 1.7 3.8 3.8 3.8s3.8-1.7 3.8-3.8v-9.4c2.5-.2 5-.6 7.3-1.1v4.7c0 2.1 1.7 3.8 3.8 3.8 2.1 0 3.8-1.7 3.8-3.8v-7.3c.7-.3 1.5-.7 2.2-1.1l1.5-.9v.5c0 2.1 1.7 3.8 3.8 3.8s3.8-1.7 3.8-3.8l.1-13.6z"/>
  <path id="矩形_00000040544122436483830140000009031898584188098745_" d="M64 313.5c.8 0 1.5 1 1.5 2.2v10.5c0 1.2-.7 2.2-1.5 2.2s-1.5-1-1.5-2.2v-10.5c0-1.2.7-2.2 1.5-2.2z" class="st20"/>
  <path id="矩形_00000021823696069753081640000001313097030491990401_" d="M109.4 266.8c1-.8 2.7-.3 3.7 1l1.7 2.3c1 1.3 1 3.1 0 3.9-1 .8-2.7.3-3.7-1l-1.7-2.3c-1.1-1.4-1-3.1 0-3.9z" class="st20"/>
  <path id="矩形_00000014623455430791210810000018170689064435437204_" d="M76.9 340.6c.8 0 1.5 1 1.5 2.2v2c0 1.2-.7 2.2-1.5 2.2s-1.5-1-1.5-2.2v-2c-.1-1.3.7-2.2 1.5-2.2z" class="st20"/>
  <path id="矩形_00000031903557827223956780000015994822337237941935_" d="M63.8 332.6c.8 0 1.5 1 1.5 2.2v2c0 1.2-.7 2.2-1.5 2.2s-1.5-1-1.5-2.2v-2c0-1.3.7-2.2 1.5-2.2z" class="st20"/>
  <path id="矩形_00000181046686714930637200000014292721705575630238_" d="M91.8 347.1c.8 0 1.5 1 1.5 2.2v2c0 1.2-.7 2.2-1.5 2.2s-1.5-1-1.5-2.2v-2c0-1.3.7-2.2 1.5-2.2z" class="st20"/>
  <path id="矩形_00000008130972996308491000000014814840443380987558_" d="M106.4 343.1c.7 0 1.2.8 1.2 1.8v1.6c0 .9-.6 1.8-1.2 1.8-.7 0-1.2-.8-1.2-1.8v-1.6c0-1.1.5-1.8 1.2-1.8z" class="st20"/>
  <path id="椭圆形_00000172421932652401665590000006315728901598508975_" d="M99.2 309.7c3-.1 5.3-2.7 5.2-4.4 0-.7-.4-1.3-1-1.3-1-.1-2.4.5-4.2.6-1.7.1-2.8-.4-4.1-.3-1.4.1-1.3 1.6-1.1 2.3.5 1.6 2.2 3.3 5.2 3.1z" class="st24"/>
  <path id="椭圆形_00000175307946304801662830000001272147440943466142_" d="M99.3 308.3c3.1-.1 5.3-2.5 5.3-4.2 0-.6-.4-1.2-1-1.2-1-.1-2.5.5-4.3.6-1.8.1-2.8-.4-4.2-.3-1.4.1-1.3 1.6-1.1 2.1.5 1.6 2.2 3.1 5.3 3z" class="st25"/>
  <ellipse cx="86.7" cy="292.4" class="st25" rx="7" ry="6.7" transform="rotate(-55.453 86.698 292.355)"/>
  <path id="形状结合_00000011017414955016832090000017650182784268422299_" d="M87.6 285c3.1-.1 5.7 2.9 5.7 6.8v.8c0-3.9-2.5-7.1-5.5-7-3.1.1-5.5 3.4-5.5 7.4 0 .8.1 1.5.3 2.2-.3-.9-.5-1.9-.5-3-.2-3.8 2.3-7.1 5.5-7.2z" class="st26"/>
  <path id="形状结合_00000150064851173516647120000008863587546434541714_" d="M87.6 284.2c3.5-.1 6.3 3.3 6.4 7.6 0 4.4-2.9 8-6.3 8.2-3.5.1-6.3-3.3-6.4-7.6-.1-4.5 2.7-8.1 6.3-8.2zm0 .8c-3.1.1-5.7 3.4-5.7 7.3s2.5 7 5.7 6.8c3.1-.1 5.7-3.4 5.7-7.3-.1-3.9-2.6-6.9-5.7-6.8z" class="st27"/>
  <ellipse cx="109.4" cy="291.3" class="st25" rx="7" ry="6.7" transform="rotate(-55.453 109.424 291.333)"/>
  <path id="形状结合_00000067210740220055751600000017473359852144322735_" d="M110.2 284c3.1-.1 5.7 2.9 5.7 6.8v.8c0-3.9-2.5-7.1-5.5-7-3.1.1-5.5 3.4-5.5 7.4 0 .8.1 1.5.3 2.2-.3-.9-.5-1.9-.5-3-.2-3.8 2.3-7.1 5.5-7.2z" class="st26"/>
  <path id="形状结合_00000156577280789931329430000016773443806656167556_" d="M110.2 283.1c3.5-.1 6.3 3.3 6.4 7.6s-2.9 8-6.3 8.2-6.3-3.3-6.4-7.6c-.1-4.4 2.7-8 6.3-8.2zm0 .9c-3.1.1-5.7 3.4-5.7 7.3s2.5 7 5.7 6.8c3.1-.1 5.7-3.4 5.7-7.3-.1-3.9-2.7-7-5.7-6.8z" class="st27"/>
  <circle cx="90.4" cy="292.5" r="2.8" class="st24"/>
  <circle cx="113" cy="291.6" r="2.8" class="st24"/>
  <radialGradient id="SVGID_00000162349703314891581050000003547506980398850191_" cx="-7262.161" cy="85.832" r="9.051" gradientTransform="matrix(-1 0 0 .5898 -7075.286 35.21)" gradientUnits="userSpaceOnUse">
    <stop offset="0" stop-color="#b8b2d6"/>
    <stop offset=".346" stop-color="#bab5d7" stop-opacity=".654"/>
    <stop offset=".606" stop-color="#c2bfdc" stop-opacity=".394"/>
    <stop offset=".838" stop-color="#cecfe3" stop-opacity=".162"/>
    <stop offset="1" stop-color="#dbdfeb" stop-opacity="0"/>
  </radialGradient>
  <path fill="url(#SVGID_00000162349703314891581050000003547506980398850191_)" d="M179.1 81.5c4.2-2.5 11.2-2.5 15.4-.1 4.3 2.4 4.3 6.4.1 8.8-4.2 2.5-11.2 2.5-15.4.1-4.3-2.4-4.3-6.4-.1-8.8z" opacity=".67"/>
  <path d="M168.4 61.2s1 2.8 3.3 3c1.9-4.1 8.2-7.1 15.6-7.1 9 0 16.3 4.4 16.3 9.7 0 .6-.1 1.3-.3 1.9h0c-1.5 6.4-8.5 11.5-16 11.5-7.3 0-15-5.1-16-11.5-2.1-1.2-4.1-3.7-2.9-7.5z" class="st34"/>
  <ellipse cx="187.9" cy="67" class="st29" rx="13.5" ry="7.8"/>
  <path d="M168.8 58V57.1c.6-9.4 8.5-16.9 18.1-16.9 9.6 0 17.5 7.5 18.1 16.9v1.2h0c-.4 5.8-8.4 10.4-18.1 10.4-9.7 0-17.7-4.6-18.1-10.4h0V58z" class="st34"/>
  <path d="M200.3 60.6c.2 0 .4-.2.4-.4 0-.7-.3-1-.6-1.3-.2-.2-.3-.4-.3-.7 0-.3.1-.5.3-.7.2-.3.6-.6.6-1.3 0-.7-.3-1-.6-1.3-.2-.2-.3-.4-.3-.7 0-.3.1-.5.3-.7.2-.3.6-.6.6-1.3 0-.7-.3-1-.6-1.3-.2-.2-.3-.4-.3-.7 0-.2-.2-.4-.4-.4s-.4.2-.4.4c0 .7.3 1 .6 1.3.2.2.3.4.3.7 0 .3-.1.5-.3.7-.2.3-.6.6-.6 1.3s.3 1 .6 1.3c.2.2.3.4.3.7 0 .3-.1.5-.3.7-.2.3-.6.6-.6 1.3 0 .7.3 1 .6 1.3.2.2.3.4.3.7 0 .2.2.4.4.4zM191.9 63.6c.2 0 .4-.2.4-.4 0-.7-.3-1-.6-1.3-.2-.2-.3-.4-.3-.7 0-.3.1-.5.3-.7.2-.3.6-.6.6-1.3 0-.7-.3-1-.6-1.3-.2-.2-.3-.4-.3-.7 0-.3.1-.5.3-.7.2-.3.6-.6.6-1.3 0-.7-.3-1-.6-1.3-.2-.2-.3-.4-.3-.7 0-.2-.2-.4-.4-.4s-.4.2-.4.4c0 .7.3 1 .6 1.3.2.2.3.4.3.7 0 .3-.1.5-.3.7-.2.3-.6.6-.6 1.3s.3 1 .6 1.3c.2.2.3.4.3.7 0 .3-.1.5-.3.7-.2.3-.6.6-.6 1.3 0 .7.3 1 .6 1.3.2.2.3.4.3.7-.1.2.1.4.4.4z" class="st53"/>
  <path d="m221.1 54-14.2-8.2V31.6l14.2 8.2z" class="st30"/>
  <path d="m221.1 54 14.2-8.2V31.6l-14.2 8.2z" class="st31"/>
  <path d="m221.1 39.8-14.2-8.2 14.1-8.2 14.3 8.2z" class="st32"/>
  <path id="矩形_00000157289808301325763320000001931715120330217403_" d="M216.6 28.1c.3.2.2.5-.1.7l-2.9 1.7c-.3.2-.9.2-1.1.1-.3-.2-.2-.5.1-.7l2.9-1.7c.3-.3.8-.3 1.1-.1z" class="st33"/>
  <path id="矩形_00000054225615718064159110000016214176090533453972_" d="M211.7 30.9c.3.2.2.5-.1.7l-.6.3c-.3.2-.9.2-1.1.1-.3-.2-.2-.5.1-.7l.6-.3c.3-.2.8-.2 1.1-.1z" class="st33"/>
  <path d="m241.3 55.2-8.7-5v-8.7l8.7 5z" class="st30"/>
  <path d="m241.3 55.2 8.6-5v-8.7l-8.6 5z" class="st31"/>
  <path d="m241.3 46.6-8.7-5.1 8.6-5 8.7 5z" class="st32"/>
  <path id="矩形_00000020375402484617922690000012931421619240132262_" d="M238.5 39.4c.2.1.1.3-.1.4l-1.8 1.1c-.2.1-.5.1-.7 0-.2-.1-.1-.3.1-.4l1.8-1.1c.2-.1.5-.1.7 0z" class="st33"/>
  <path id="矩形_00000053538349732239743190000006144675485963745674_" d="M235.5 41.1c.2.1.1.3-.1.4l-.3.2c-.2.1-.5.1-.7 0-.2-.1-.1-.3.1-.4l.3-.2c.2-.1.5-.1.7 0z" class="st33"/>
  <path d="m229.6 36.4-10-5.7v-9.9l10 5.7z" class="st30"/>
  <path d="m229.6 36.4 9.9-5.7v-9.9l-9.9 5.7z" class="st31"/>
  <path d="m229.6 26.5-10-5.7 9.9-5.8 10 5.8z" class="st32"/>
  <path id="矩形_00000073718198991904307960000001898343469005815220_" d="M226.4 18.3c.2.1.2.3-.1.5l-2.1 1.2c-.2.1-.6.2-.8 0-.2-.1-.2-.3.1-.5l2.1-1.2c.2-.1.6-.1.8 0z" class="st33"/>
  <path id="矩形_00000112624914673959862620000003745008184931124639_" d="M223 20.3c.2.1.2.3-.1.5l-.4.2c-.2.1-.6.2-.8 0-.2-.1-.2-.3.1-.5l.4-.2c.2-.1.6-.1.8 0z" class="st33"/>
  <path d="M288.6 265.1V348l-12.4 7.1-19.8-32.3-.3.2v43.5l-14.9 8.5v-82.8l12.6-7.2 19.5 32.3.4-.2v-43.4l14.9-8.6z" class="st28"/>
  <path d="M297.3 366.4 276.2 355l1-20.7.3-.2z" class="st28"/>
  <path d="M309.7 276.5v82.8l-12.4 7.1-19.8-32.3-.3.2v43.5l-14.9 8.5v-82.8l12.6-7.2 19.5 32.3.4-.2V285l14.9-8.5z" class="st34"/>
  <path d="m253.9 284.9 21.1 11.3-12.7 7.2-21-11.3z" class="st28"/>
  <path d="M262.3 386.3v-82.9l-21-11.3v82.8zM288.6 265.1l21.1 11.4-14.9 8.4-21-11.3zM294.8 328.3v-43.4l-21-11.3v22l1.2.6 19.4 32.3z" class="st28"/>
  <path d="m246.3 321.5-21.1-11.3h0c-.9-.5-1.9-.9-2.9-1.1-4-1-8.5 0-13.5 2.8s-9.5 7-13.5 12.6c-4 5.5-7.2 12.1-9.6 19.8-2.4 7.7-3.5 16.1-3.5 25.3s1.2 16.2 3.5 21.2c1.7 3.6 3.8 6.1 6.4 7.6h-.1l21.1 11.3 15.1-8.4-14.5-7.8c3-2.5 5.9-5.5 8.5-9.1 4-5.5 7.2-12.1 9.6-19.8 2.4-7.7 3.6-16.1 3.6-25.3 0-4.2-.3-8-.8-11.3l11.7-6.5z" class="st28"/>
  <path d="m241.3 337.3 5 32.9-18 27.7-16.7-6.7-.8-16.4 19.1-39.1z" class="st28"/>
  <path d="M256.6 350.6c0 9.2-1.2 17.7-3.6 25.3-2.4 7.7-5.6 14.3-9.6 19.8s-8.5 9.7-13.5 12.5c-5 2.8-9.5 3.8-13.5 2.8s-7.2-4-9.6-9c-2.4-5-3.5-12.1-3.5-21.2 0-9.2 1.2-17.7 3.5-25.3 2.4-7.7 5.6-14.3 9.6-19.8s8.5-9.7 13.5-12.6c5-2.8 9.4-3.7 13.5-2.8 4 1 7.2 3.9 9.6 8.9 2.4 5.1 3.6 12.2 3.6 21.4zm-15.3 8.7c0-5-.4-8.9-1.3-11.8-.9-2.9-2.1-4.8-3.8-5.6-1.7-.8-3.8-.5-6.2.9-2.5 1.4-4.5 3.5-6.2 6.2-1.7 2.7-3 6-3.8 9.9-.9 3.9-1.3 8.3-1.3 13.3s.4 8.9 1.3 11.8c.9 2.9 2.1 4.8 3.8 5.6 1.7.8 3.8.5 6.2-.9 2.5-1.4 4.5-3.5 6.2-6.2 1.7-2.7 3-6 3.8-9.9.8-3.9 1.3-8.3 1.3-13.3z" class="st34"/>
  <path d="m188.4 352.5-21.1-11.3h0c-.9-.5-1.9-.9-2.9-1.1-4-1-8.5 0-13.5 2.8s-9.5 7-13.5 12.6c-4 5.5-7.2 12.1-9.6 19.8-2.4 7.7-3.5 16.1-3.5 25.3s1.2 16.2 3.5 21.2c1.7 3.6 3.8 6.1 6.4 7.6h-.1l21.1 11.3 15.1-8.4-14.5-7.8c3-2.5 5.9-5.5 8.5-9.1 4-5.5 7.2-12.1 9.6-19.8 2.4-7.7 3.6-16.1 3.6-25.3 0-4.2-.3-8-.8-11.3l11.7-6.5z" class="st28"/>
  <path d="m183.3 368.3 5.1 32.9-18 27.7-16.8-6.6-.8-16.5 19.2-39.1z" class="st28"/>
  <path d="M198.6 381.7c0 9.2-1.2 17.7-3.6 25.3-2.4 7.7-5.6 14.3-9.6 19.8s-8.5 9.7-13.5 12.5c-5 2.8-9.5 3.8-13.5 2.8s-7.2-4-9.6-9c-2.4-5-3.5-12.1-3.5-21.2 0-9.2 1.2-17.7 3.5-25.3 2.4-7.7 5.6-14.3 9.6-19.8s8.5-9.7 13.5-12.6c5-2.8 9.4-3.7 13.5-2.8 4 1 7.2 3.9 9.6 8.9 2.4 5 3.6 12.1 3.6 21.4zm-15.3 8.6c0-5-.4-8.9-1.3-11.8-.9-2.9-2.1-4.8-3.8-5.6-1.7-.8-3.8-.5-6.2.9s-4.5 3.5-6.2 6.2c-1.7 2.7-3 6-3.8 9.9-.9 3.9-1.3 8.3-1.3 13.3s.4 8.9 1.3 11.8c.9 2.9 2.1 4.8 3.8 5.6 1.7.8 3.8.5 6.2-.9s4.5-3.5 6.2-6.2c1.7-2.7 3-6 3.8-9.9.9-3.9 1.3-8.3 1.3-13.3z" class="st34"/>
  <path d="m121.2 423 14.1-8-21.1-11.3h0c-1-.6-2.1-1-3.4-1.2-1.1-.2-2.2-.2-3.5-.1l1.2-6.1 17.7 9.8 9.4-10.9-9.7-9.4 8-4.6-21.1-11.3h0c-1.1-.6-2.2-1-3.5-1.2-3.2-.4-7 .7-11.5 3.2-4.3 2.5-8.2 5.8-11.5 9.9-3.3 4.1-6 8.7-7.8 13.7-1.9 5-2.8 10.2-2.8 15.4 0 6.5 1.4 10.8 4.2 12.9.4.3.8.6 1.3.8h0l20.3 10.9c-1 1.1-2.3 2.1-3.7 2.9-1.9 1.1-3.5 1.6-4.9 1.4-1.4-.1-2.4-.8-3.2-2.1-.7-1.3-1.2-3.2-1.3-5.7l-14.1 8c0 6.9 1 12 3 15.4 1.3 2.2 2.9 3.7 4.9 4.5l20.1 10.8 18.5-10.5-15.8-8.5c.5-.5 1.1-.9 1.6-1.4l15 7.2 12.3-23.2-14.5-7.1c.3-1.6.5-3.2.6-4.8l1.2.6zm-11.9-30.7 3.5-2 .3.2-4 2.3.2-.5z" class="st28"/>
  <path d="M126.2 406c-.1-2.6-.8-4.3-2-5.2-1.2-.8-3-.6-5.4.8-1.5.9-2.8 1.9-3.8 3s-1.7 2.3-2.2 3.5c-.5 1.2-.7 2.4-.7 3.6 0 1 .1 1.8.4 2.5.3.6.7 1.1 1.3 1.4.6.3 1.4.4 2.3.4.9 0 2.1-.2 3.4-.5l4.5-1.1c3-.8 5.6-.9 7.8-.6 2.2.4 3.9 1.2 5.3 2.6 1.4 1.4 2.4 3.2 3 5.5.7 2.3 1 5 1 8.2 0 5.5-.9 10.6-2.7 15.4-1.8 4.8-4.3 9.1-7.6 13-3.3 3.8-7.3 7.1-11.9 9.7-4.8 2.7-8.9 4-12.4 3.9-3.5-.1-6.3-1.8-8.2-5.2-2-3.3-2.9-8.4-3-15.4l14.1-8c.1 2.5.5 4.4 1.3 5.7.7 1.3 1.8 2 3.2 2.1 1.4.1 3-.4 4.9-1.4 1.6-.9 2.9-2 4-3.2 1.1-1.2 1.9-2.5 2.4-3.9.6-1.4.8-2.7.9-4.1 0-1.3-.3-2.2-.8-2.9-.5-.7-1.4-1-2.6-1.1-1.2-.1-2.8.1-4.8.6l-5.5 1.3c-4.8 1.2-8.7.7-11.5-1.5-2.8-2.1-4.2-6.5-4.2-12.9 0-5.2.9-10.4 2.8-15.4s4.5-9.6 7.8-13.7 7.2-7.4 11.5-9.9c4.4-2.5 8.2-3.6 11.5-3.2 3.2.4 5.7 2.1 7.5 5.2 1.8 3.1 2.6 7.3 2.7 12.7l-14.3 8.1z" class="st34"/>
  <path d="m88.3 432 21.1 11.4-14.1 8-21.1-11.3z" class="st28"/>
  <path d="m291.4 429.6-20.3-11.7v-20.3l20.3 11.7z" class="st30"/>
  <path d="m291.4 429.6 20.4-11.7v-20.3l-20.4 11.7z" class="st31"/>
  <path d="m291.5 409.4-20.4-11.8 20.3-11.8 20.4 11.8z" class="st32"/>
  <path id="矩形_00000072281721856141253540000007847949511359823806_" d="M284.7 392.9c.4.2.3.7-.1.9l-4.2 2.5c-.5.3-1.2.3-1.6.1-.4-.2-.3-.7.1-.9l4.2-2.5c.5-.3 1.2-.4 1.6-.1z" class="st33"/>
  <path id="矩形_00000099644182596904953320000003937898140704892549_" d="M277.7 396.9c.4.2.3.7-.1.9l-.8.5c-.5.3-1.2.3-1.6.1-.4-.2-.3-.7.1-.9l.8-.5c.5-.3 1.2-.3 1.6-.1z" class="st33"/>
  <path d="m284.2 400.5-14.5-8.4v-14.6l14.5 8.4z" class="st30"/>
  <path d="m284.2 400.5 14.6-8.4v-14.6l-14.6 8.4z" class="st31"/>
  <path d="m284.3 386-14.6-8.5 14.5-8.4 14.6 8.4z" class="st32"/>
  <path id="矩形_00000027599075167857702110000000589307131765614740_" d="M279.6 373.9c.3.2.2.5-.1.7l-3 1.8c-.3.2-.9.2-1.2.1-.3-.2-.2-.5.1-.7l3-1.8c.4-.2.9-.2 1.2-.1z" class="st33"/>
  <path id="矩形_00000130633899603248878970000003140020367730641081_" d="M274.6 376.8c.3.2.2.5-.1.7l-.6.3c-.3.2-.9.2-1.2.1-.3-.2-.2-.5.1-.7l.6-.3c.4-.2.9-.2 1.2-.1z" class="st33"/>
  <path d="m192.2 426.1 31.2-19.1v31.1l-30.3 18.6 5-18.3zM223.1 416.3v42.1" class="st29"/>
  <path d="m205 443.3-2.1 1.3v-5.9l2-1.3c.4-.2.6-.2.8-.1.2.2.3.5.3.9s-.1.7-.2 1c-.1.3-.3.6-.5.7.2-.1.4 0 .5.2.1.2.2.5.2.8 0 .5-.1.9-.3 1.3 0 .6-.3.9-.7 1.1zm-.2-3.4c.1-.1.2-.2.3-.4.1-.2.1-.3.1-.5s0-.3-.1-.4c-.1-.1-.2-.1-.3 0l-1 .6v1.3l1-.6zm0 2.5c.2-.1.3-.2.4-.4.1-.2.1-.4.1-.6 0-.2 0-.3-.1-.4-.1-.1-.2-.1-.4 0l-1.1.7v1.4l1.1-.7zM210.7 433.1c-.6.4-1.1.4-1.5 0-.4-.3-.6-.9-.6-1.9 0-.9.2-1.8.6-2.6.4-.8.9-1.4 1.5-1.7.7-.4 1.2-.3 1.6.3l-.7 1c-.1-.2-.2-.3-.4-.3s-.3 0-.5.1c-.4.2-.6.6-.9 1.1-.2.5-.3 1-.3 1.6 0 .6.1 1 .3 1.2.2.2.5.2.9 0 .2-.1.3-.2.5-.4s.3-.4.4-.5v-.7l-1 .6v-1.1l1.8-1.1v2.3c-.5 1-1.1 1.7-1.7 2.1zM216.9 423.1l-1.5.9v-5.9l1.5-.9c.6-.4 1.1-.4 1.5-.1.4.3.6.9.6 1.8s-.2 1.7-.6 2.5c-.4.7-.9 1.3-1.5 1.7zm0-1.1c.4-.2.7-.6.9-1.1.2-.5.3-1 .3-1.5s-.1-.9-.3-1.1c-.2-.2-.5-.2-.9 0l-.7.4v3.7l.7-.4z" class="st55"/>
  <radialGradient id="SVGID_00000073719042404450301470000015276464434588064172_" cx="252.485" cy="483.796" r="13.917" gradientTransform="matrix(1 0 0 .5898 0 198.457)" gradientUnits="userSpaceOnUse">
    <stop offset="0" stop-color="#b8b2d6"/>
    <stop offset=".346" stop-color="#bab5d7" stop-opacity=".654"/>
    <stop offset=".606" stop-color="#c2bfdc" stop-opacity=".394"/>
    <stop offset=".838" stop-color="#cecfe3" stop-opacity=".162"/>
    <stop offset="1" stop-color="#dbdfeb" stop-opacity="0"/>
  </radialGradient>
  <path fill="url(#SVGID_00000073719042404450301470000015276464434588064172_)" d="M264.4 477.1c-6.5-3.8-17.2-3.8-23.8-.1s-6.6 9.8-.1 13.5c6.5 3.8 17.2 3.8 23.8.1 6.6-3.7 6.6-9.8.1-13.5z" opacity=".67"/>
  <path d="M278.5 451.4s-1.4 3.7-4.5 4c-2.6-5.4-10.9-9.4-20.8-9.4-12 0-21.6 5.8-21.6 13 0 .9.1 1.7.4 2.5h0c2 8.5 11.4 15.3 21.2 15.3 9.7 0 20-6.9 21.3-15.4 2.9-1.6 5.5-5 4-10z" class="st34"/>
  <ellipse cx="252.5" cy="459.1" class="st29" rx="18" ry="10.4"/>
  <path d="M278 447.1v-.2c0-.3 0-.6-.1-1-.8-12.6-11.3-22.5-24.1-22.5s-23.2 9.9-24.1 22.5c0 .3-.1.6-.1 1V447.5h0c.6 7.7 11.1 13.8 24.1 13.8 13 0 23.5-6.1 24.1-13.8h0c.2-.1.2-.2.2-.4z" class="st34"/>
  <path d="M235.9 450.5c-.3 0-.6-.3-.6-.6 0-.9.4-1.4.7-1.7.3-.3.4-.5.4-1s-.2-.7-.4-1c-.3-.4-.7-.8-.7-1.7 0-.9.4-1.4.7-1.7.3-.3.4-.5.4-1s-.2-.7-.4-1c-.3-.4-.7-.8-.7-1.7 0-.9.4-1.4.7-1.7.3-.3.4-.5.4-1 0-.3.3-.6.6-.6s.6.3.6.6c0 .9-.4 1.4-.7 1.7-.3.3-.4.5-.4 1s.2.7.4 1c.3.4.7.8.7 1.7 0 .9-.4 1.4-.7 1.7-.3.3-.4.5-.4 1s.2.7.4 1c.3.4.7.8.7 1.7 0 .9-.4 1.4-.7 1.7-.3.3-.4.5-.4 1 0 .4-.2.6-.6.6zM247.2 454.6c-.3 0-.6-.3-.6-.6 0-.9.4-1.4.7-1.7.3-.3.4-.5.4-1s-.2-.7-.4-1c-.3-.4-.7-.8-.7-1.7 0-.9.4-1.4.7-1.7.3-.3.4-.5.4-1s-.2-.7-.4-1c-.3-.4-.7-.8-.7-1.7 0-.9.4-1.4.7-1.7.3-.3.4-.5.4-1 0-.3.3-.6.6-.6s.6.3.6.6c0 .9-.4 1.4-.7 1.7-.3.3-.4.5-.4 1s.2.7.4 1c.3.4.7.8.7 1.7 0 .9-.4 1.4-.7 1.7-.3.3-.4.5-.4 1s.2.7.4 1c.3.4.7.8.7 1.7 0 .9-.4 1.4-.7 1.7-.3.3-.4.5-.4 1 0 .3-.2.6-.6.6z" class="st53"/>
  <path d="m64.2 351.2-10.9-7.4-26 14.7v58.7l36.9-21z" class="st40"/>
  <path d="M60.5 364.5 31 381.2v1.7l29.5-16.7zM60.5 369.5 31 386.3v1.6l29.5-16.7zM60.5 374.9 31 391.6v1.7l29.5-16.7zM60.5 380.9 31 397.6v1.7l29.5-16.7zM60.5 359.7 31 376.4v1.7l29.5-16.7z" class="st41"/>
  <path fill="#c6c3d1" fill-rule="evenodd" stroke="#101320" stroke-linecap="round" stroke-linejoin="round" stroke-miterlimit="10" d="m21.7 355.4 5.6 3v58.8l-5.6-3z" clip-rule="evenodd"/>
  <path fill="#ecf0fc" fill-rule="evenodd" stroke="#111422" stroke-linecap="round" stroke-linejoin="round" stroke-miterlimit="10" d="m53.2 343.6-6-3.1-25.5 14.9 5.6 3z" clip-rule="evenodd"/>
  <path d="m64.2 351.2-11 6.4v-14z" class="st40"/>
  <path d="m57.5 433.9-13-7.5v-13l13 7.5z" class="st30"/>
  <path d="m57.5 433.9 13.1-7.5v-13l-13.1 7.5z" class="st31"/>
  <path d="m57.6 420.9-13.1-7.5 13-7.6 13.1 7.5z" class="st32"/>
  <path id="矩形_00000008142280684812567530000010623723281462969255_" d="M53.4 410.1c.3.1.2.4-.1.6l-2.7 1.6c-.3.2-.8.2-1 .1-.3-.1-.2-.4.1-.6l2.7-1.6c.2-.2.7-.2 1-.1z" class="st33"/>
  <path id="矩形_00000054973064257311562200000017469559572640403379_" d="M48.9 412.7c.3.1.2.4-.1.6l-.5.3c-.3.2-.8.2-1 .1-.3-.1-.2-.4.1-.6l.5-.3c.2-.2.7-.2 1-.1z" class="st33"/>
  <path d="m45.4 443.8-8.7-5v-8.7l8.7 5z" class="st30"/>
  <path d="m45.4 443.8 8.6-5v-8.7l-8.6 5z" class="st31"/>
  <path d="m45.4 435.2-8.7-5.1 8.6-5 8.7 5z" class="st32"/>
  <path id="矩形_00000183956194746798051080000010616921074252595588_" d="M42.6 428c.2.1.1.3-.1.4l-1.8 1.1c-.2.1-.5.1-.7 0-.2-.1-.1-.3.1-.4l1.8-1.1c.2-.1.5-.1.7 0z" class="st33"/>
  <path id="矩形_00000109746713186831695940000008591165935873512076_" d="M39.6 429.7c.2.1.1.3-.1.4l-.3.2c-.2.1-.5.1-.7 0-.2-.1-.1-.3.1-.4l.3-.2c.2-.1.5-.1.7 0z" class="st33"/>
</svg>