<?xml version="1.0" encoding="utf-8"?>
<!-- Generator: Adobe Illustrator 27.9.0, SVG Export Plug-In . SVG Version: 6.00 Build 0)  -->
<svg version="1.1" id="Слой_1" xmlns="http://www.w3.org/2000/svg" xmlns:xlink="http://www.w3.org/1999/xlink" x="0px" y="0px"
	 viewBox="0 0 336 500" style="enable-background:new 0 0 336 500;" xml:space="preserve">
<style type="text/css">
	.st0{fill:#4A5479;stroke:#000000;stroke-linecap:round;stroke-linejoin:round;stroke-miterlimit:10;}
	.st1{stroke:#000000;stroke-linecap:round;stroke-linejoin:round;stroke-miterlimit:10;}
	.st2{fill-rule:evenodd;clip-rule:evenodd;stroke:#000000;stroke-linecap:round;stroke-linejoin:round;stroke-miterlimit:10;}
	
		.st3{fill-rule:evenodd;clip-rule:evenodd;fill:#6D75A2;stroke:#000000;stroke-linecap:round;stroke-linejoin:round;stroke-miterlimit:10;}
	
		.st4{fill-rule:evenodd;clip-rule:evenodd;fill:#4A5479;stroke:#000000;stroke-linecap:round;stroke-linejoin:round;stroke-miterlimit:10;}
	.st5{fill-rule:evenodd;clip-rule:evenodd;fill:#5C6A91;}
	.st6{fill:#6D75A2;stroke:#000000;stroke-linecap:round;stroke-linejoin:round;stroke-miterlimit:10;}
	
		.st7{fill-rule:evenodd;clip-rule:evenodd;fill:#9EA8D8;stroke:#000000;stroke-linecap:round;stroke-linejoin:round;stroke-miterlimit:10;}
	.st8{fill:url(#SVGID_1_);stroke:#1D1D1B;stroke-linecap:round;stroke-linejoin:round;stroke-miterlimit:10;}
	.st9{opacity:0.67;fill:url(#SVGID_00000078024138818140733060000009072598116591569078_);}
	
		.st10{fill:url(#SVGID_00000108267438912873847130000010992621055773552057_);stroke:#1D1D1B;stroke-linecap:round;stroke-linejoin:round;stroke-miterlimit:10;}
	
		.st11{fill:url(#SVGID_00000024701310406889804090000011631567300713394356_);stroke:#1D1D1B;stroke-linecap:round;stroke-linejoin:round;stroke-miterlimit:10;}
	
		.st12{fill-rule:evenodd;clip-rule:evenodd;fill:#4AA089;stroke:url(#SVGID_00000171722067689242408870000003588372746374948491_);stroke-linecap:round;stroke-linejoin:round;stroke-miterlimit:10;}
	.st13{fill-rule:evenodd;clip-rule:evenodd;fill:#00D7B1;}
	.st14{fill-rule:evenodd;clip-rule:evenodd;fill:#FF3981;}
	
		.st15{fill-rule:evenodd;clip-rule:evenodd;fill:#CB3D61;stroke:#000000;stroke-linecap:round;stroke-linejoin:round;stroke-miterlimit:10;}
	.st16{opacity:0.67;fill:url(#SVGID_00000033331257421870236910000006754607428741652353_);}
	.st17{fill:#9EA8D8;stroke:#000000;stroke-linecap:round;stroke-linejoin:round;stroke-miterlimit:10;}
	.st18{fill:#6D75A2;}
	.st19{opacity:0.67;fill:url(#SVGID_00000164495628815975968140000006912612581493147318_);}
	.st20{opacity:0.2563;fill-rule:evenodd;clip-rule:evenodd;fill:#FFFFFF;enable-background:new    ;}
	.st21{opacity:0.67;fill:url(#SVGID_00000005228230559415513860000014168029402562503061_);}
	.st22{fill:#00ABBF;}
	.st23{fill:url(#SVGID_00000130639922149659631280000004078337349402128523_);}
	.st24{fill-rule:evenodd;clip-rule:evenodd;fill:#56506B;}
	.st25{fill-rule:evenodd;clip-rule:evenodd;fill:#FFFFFF;}
	.st26{fill-rule:evenodd;clip-rule:evenodd;fill:#AEAEB0;}
	.st27{fill-rule:evenodd;clip-rule:evenodd;fill:#D2D2D2;}
	.st28{fill:#EAEFFC;stroke:#101423;stroke-linecap:round;stroke-linejoin:round;stroke-miterlimit:10;}
	.st29{fill:#101423;stroke:#101423;stroke-linecap:round;stroke-linejoin:round;stroke-miterlimit:10;}
	
		.st30{fill-rule:evenodd;clip-rule:evenodd;fill:#C6C2D1;stroke:#0F1321;stroke-linecap:round;stroke-linejoin:round;stroke-miterlimit:10;}
	
		.st31{fill-rule:evenodd;clip-rule:evenodd;fill:#FFFFFF;stroke:#101423;stroke-linecap:round;stroke-linejoin:round;stroke-miterlimit:10;}
	
		.st32{fill-rule:evenodd;clip-rule:evenodd;fill:#EAEFFC;stroke:#101423;stroke-linecap:round;stroke-linejoin:round;stroke-miterlimit:10;}
	.st33{opacity:0.92;fill-rule:evenodd;clip-rule:evenodd;fill:#FFFFFF;enable-background:new    ;}
	.st34{fill:#FFFFFF;stroke:#101423;stroke-linecap:round;stroke-linejoin:round;stroke-miterlimit:10;}
	.st35{fill-rule:evenodd;clip-rule:evenodd;fill:#0F1423;}
	
		.st36{fill:url(#SVGID_00000049910974109176337820000002055252741115603108_);stroke:#1D1D1B;stroke-linecap:round;stroke-linejoin:round;stroke-miterlimit:10;}
	.st37{fill:#C6C2D1;stroke:#0F1321;stroke-linecap:round;stroke-linejoin:round;stroke-miterlimit:10;}
	.st38{opacity:0.67;fill:url(#SVGID_00000107583926054481533420000007931055899433527464_);}
	.st39{fill:#0F1423;}
	
		.st40{fill-rule:evenodd;clip-rule:evenodd;fill:#FFFFFF;stroke:#111422;stroke-linecap:round;stroke-linejoin:round;stroke-miterlimit:10;}
	
		.st41{fill-rule:evenodd;clip-rule:evenodd;fill:#101422;stroke:#101423;stroke-linecap:round;stroke-linejoin:round;stroke-miterlimit:10;}
	
		.st42{fill-rule:evenodd;clip-rule:evenodd;fill:#C6C3D1;stroke:#101320;stroke-linecap:round;stroke-linejoin:round;stroke-miterlimit:10;}
	
		.st43{fill-rule:evenodd;clip-rule:evenodd;fill:#ECF0FC;stroke:#111422;stroke-linecap:round;stroke-linejoin:round;stroke-miterlimit:10;}
	.st44{opacity:0.67;fill:url(#SVGID_00000055684590990218681540000004871385004922317998_);}
	.st45{fill:url(#SVGID_00000119076855448794220460000006195422073250703268_);}
	
		.st46{fill:url(#SVGID_00000093149739010100124970000007996451237086538632_);stroke:#1D1D1B;stroke-linecap:round;stroke-linejoin:round;stroke-miterlimit:10;}
	.st47{fill-rule:evenodd;clip-rule:evenodd;fill:#101422;}
	
		.st48{fill:url(#SVGID_00000176003064166397246970000005250630026612553110_);stroke:#1D1D1B;stroke-linecap:round;stroke-linejoin:round;stroke-miterlimit:10;}
	
		.st49{fill-rule:evenodd;clip-rule:evenodd;fill:#B6FFF0;stroke:#0F1321;stroke-linecap:round;stroke-linejoin:round;stroke-miterlimit:10;}
	
		.st50{fill-rule:evenodd;clip-rule:evenodd;fill:#101423;stroke:#101423;stroke-linecap:round;stroke-linejoin:round;stroke-miterlimit:10;}
	
		.st51{fill-rule:evenodd;clip-rule:evenodd;fill:#FFC6D6;stroke:#101423;stroke-linecap:round;stroke-linejoin:round;stroke-miterlimit:10;}
	.st52{opacity:0.67;fill:url(#SVGID_00000178924799593918567140000005652976120991298750_);}
	.st53{fill:#1D1D1B;}
	.st54{fill:#101423;stroke:#101423;stroke-width:2;stroke-linecap:round;stroke-linejoin:round;stroke-miterlimit:10;}
	.st55{fill:#FFFFFF;}
	.st56{opacity:0.67;fill:url(#SVGID_00000116951732307826905950000012969733465359307696_);}
	
		.st57{fill:url(#SVGID_00000019673985745012702730000001906871869975783354_);stroke:#1D1D1B;stroke-linecap:round;stroke-linejoin:round;stroke-miterlimit:10;}
	
		.st58{fill:url(#SVGID_00000137848937303128961910000010481137820249756296_);stroke:#1D1D1B;stroke-linecap:round;stroke-linejoin:round;stroke-miterlimit:10;}
	.st59{opacity:0.67;fill:url(#SVGID_00000083087576497353049460000007559968035240671913_);}
	.st60{opacity:0.67;fill:url(#SVGID_00000041262375994249399930000001850773740267434115_);}
	.st61{fill:url(#SVGID_00000032649931651235803470000002699125465419078828_);}
	.st62{opacity:0.67;fill:url(#SVGID_00000052062322852825218950000010295709555769473193_);}
	.st63{opacity:0.67;fill:url(#SVGID_00000111189480490439764960000005510318116448136119_);}
	
		.st64{fill:url(#SVGID_00000170263766457220704230000000299785015494922398_);stroke:#1D1D1B;stroke-linecap:round;stroke-linejoin:round;stroke-miterlimit:10;}
	
		.st65{fill:url(#SVGID_00000041997686549151753480000015041778087329247660_);stroke:#1D1D1B;stroke-linecap:round;stroke-linejoin:round;stroke-miterlimit:10;}
	.st66{opacity:0.67;fill:url(#SVGID_00000069397274613430136360000008834266446552507544_);}
	.st67{opacity:0.67;fill:url(#SVGID_00000171704175153134264730000008189344042274181524_);}
	.st68{fill:url(#SVGID_00000142176267519918535100000003437657538396617387_);}
	.st69{opacity:0.67;fill:url(#SVGID_00000137110667293689380340000004978208832129887659_);}
	.st70{opacity:0.67;fill:url(#SVGID_00000132064127675362882050000016914123401899679165_);}
</style>
<g>
	<g>
		<g>
			<path class="st28" d="M139.6,71.9l0.2,0.2l12.4-14.5L143,38l-7.2,3.7c1-3.1,1.5-6.2,1.5-9.4c0-0.4,0-0.8,0-1.2l14.3-2.8
				l-19.3-10.1c-0.5-0.4-1-0.7-1.5-1c-1.4-0.7-3-1.2-4.8-1.3c-3.6-0.2-7.7,1-12.3,3.7c-4.7,2.7-9,6.4-12.6,10.9
				c-3.7,4.5-6.5,9.5-8.6,14.9c-1.8,4.7-2.8,9.3-3.1,14.1l-0.1,0.2v2.1l0.1,0c0,0,0,0,0,0l0,0l16.7,8.9v7.4l6.4-3.7
				c1.8-1.1,3.5-1.6,4.9-1.6c1.4,0,2.5,0.4,3.3,1.4c0.8,1,1.2,2.3,1.2,4.2c0,1.8-0.3,3.7-1,5.5c-0.7,1.8-1.6,3.5-2.8,5
				c-1.2,1.5-2.6,2.7-4.2,3.6c-1.6,0.9-3.1,1.4-4.4,1.4c-1.3,0-2.3-0.5-3-1.5c-0.7-0.9-1.1-2.3-1.1-4l-17.2,9.9
				c0,5.6,1.1,9.9,3.3,13c1.4,2,3.2,3.4,5.3,4.2l20.8,11.1l17.1-10.2l-15.1-8c1.1-0.9,2.2-1.8,3.3-2.8l3.6,5.2l23.5-6.5l1.8-22.3
				l-13.2-1.8C139,77.4,139.5,74.6,139.6,71.9z M124.6,58.5c-0.1,0-0.2,0.1-0.3,0.1v-0.7c0.2-0.1,0.3-0.3,0.5-0.4L124.6,58.5z"/>
			<polygon class="st28" points="105,88.4 126.3,99.7 109.2,109.9 87.9,98.6 			"/>
			<polygon class="st28" points="127,72.6 118.9,68.3 110.3,73.2 105.8,70.8 105.8,78.2 127,89.5 			"/>
			<path class="st29" d="M134.6,123.6c-5,2.9-9.3,4.2-13.2,3.9c-3.8-0.2-6.9-1.9-9-4.9c-2.2-3.1-3.3-7.4-3.3-13l17.2-9.9
				c0,1.7,0.4,3.1,1.1,4c0.7,0.9,1.7,1.4,3,1.5c1.3,0,2.7-0.4,4.4-1.4c1.6-0.9,3-2.1,4.2-3.6c1.2-1.5,2.1-3.2,2.8-5
				c0.7-1.8,1-3.7,1-5.5c0-1.8-0.4-3.2-1.2-4.2c-0.8-1-1.9-1.4-3.3-1.4c-1.4,0-3,0.6-4.9,1.6l-6.4,3.7V72.6l6.4-3.7
				c1.7-1,3.2-2.2,4.5-3.8c1.3-1.5,2.3-3.2,3-5.1c0.7-1.8,1.1-3.6,1.1-5.5c0-1.8-0.3-3.2-0.9-4.2c-0.6-1-1.5-1.6-2.6-1.7
				c-1.1-0.1-2.4,0.2-3.8,1c-1.6,0.9-2.9,2.1-4.2,3.6c-1.2,1.5-2.2,3.1-2.9,5c-0.7,1.8-1.1,3.6-1.1,5.5l-16.3,9.4
				c0-5.5,1.1-11,3.2-16.4c2.1-5.4,5-10.4,8.6-14.9c3.7-4.5,7.9-8.1,12.6-10.9c4.6-2.7,8.8-3.9,12.3-3.7c3.6,0.2,6.4,1.7,8.4,4.5
				c2,2.8,3,6.7,3,11.8c0,5-1.2,9.9-3.6,14.5c-2.4,4.6-5.5,8.3-9.3,11.1v0.7c5.1-2.1,8.9-2.1,11.5,0.1c2.6,2.2,3.8,6,3.8,11.6
				c0,5.3-1.1,10.6-3.3,15.9c-2.2,5.4-5.3,10.3-9.2,14.9C144.3,116.9,139.8,120.7,134.6,123.6z"/>
		</g>
		<g>
			<polygon class="st28" points="41.4,56.5 62.9,68.5 43.6,79.6 22.1,67.6 			"/>
			<path class="st29" d="M62.9,68.5l12.9,56.2l0.5-0.3l12.9-71.1l19.3-11.1L87.8,144.4l-23.4,13.5L43.6,79.6L62.9,68.5z"/>
			<polygon class="st28" points="22.1,67.6 43,146.3 64.4,157.9 43.6,79.6 			"/>
			<polygon class="st28" points="76.3,124.4 75.8,124.7 62.7,69.8 67.9,42 89.2,53.3 			"/>
			<polygon class="st28" points="87.2,30.9 108.5,42.2 89.2,53.3 67.9,42 			"/>
		</g>
	</g>
	<g>
		<g>
			<polygon class="st30" points="267.5,349.4 261.7,346 261.7,340.2 267.5,343.6 			"/>
			<polygon class="st31" points="267.5,349.4 273.4,346 273.4,340.2 267.5,343.6 			"/>
			<polygon class="st32" points="267.6,343.6 261.7,340.2 267.5,336.8 273.4,340.2 			"/>
			<path id="矩形_00000059270956343259899000000015837875755185453740_" class="st33" d="M265.7,338.8L265.7,338.8
				c0.1,0.1,0.1,0.2,0,0.3l-1.2,0.7c-0.1,0.1-0.4,0.1-0.5,0l0,0c-0.1-0.1-0.1-0.2,0-0.3l1.2-0.7
				C265.4,338.7,265.6,338.7,265.7,338.8z"/>
			<path id="矩形_00000067921106262903399390000000955246272684213685_" class="st33" d="M263.7,339.9L263.7,339.9
				c0.1,0.1,0.1,0.2,0,0.3l-0.2,0.1c-0.1,0.1-0.4,0.1-0.5,0l0,0c-0.1-0.1-0.1-0.2,0-0.3l0.2-0.1
				C263.3,339.9,263.6,339.9,263.7,339.9z"/>
		</g>
	</g>
	<g>
		<g>
			<path class="st28" d="M268.1,75.6c-0.2-1-0.5-1.8-0.9-2.5c-0.4-0.6-0.9-1.1-1.4-1.4c-0.6-0.3-1.2-0.3-2-0.2
				c-0.8,0.1-1.6,0.4-2.5,1c-1.9,1.1-3.6,2.8-5,4.9c-1.4,2.2-2.4,4.8-3.1,7.9c-0.7,3.1-1.1,6.5-1.1,10.2c0,3.8,0.3,6.8,1,9.1
				c0.7,2.3,1.7,3.8,3,4.4c1.3,0.7,3,0.4,5-0.7c1.8-1,3.2-2.2,4.4-3.7c1.2-1.4,2.1-3,2.6-4.8c0.6-1.8,0.9-3.6,0.9-5.5l0,0l-7.7,4.7
				V86.6l18.9-10.8v9c0,5.9-0.8,11.4-2.5,16.5c-1.6,5.1-3.9,9.6-6.8,13.4c-2.9,3.9-6.2,6.8-9.9,9c-4.2,2.4-7.8,3.1-10.9,2.2
				c-3.1-0.9-5.6-3.3-7.3-7.2c-1.8-3.9-2.6-9.3-2.6-16.1c0-5.3,0.5-10.4,1.6-15.1c1.1-4.7,2.6-9.1,4.5-13c1.9-3.9,4.1-7.4,6.6-10.2
				c2.5-2.9,5.2-5.2,8.1-6.8c2.5-1.4,4.9-2.2,7.1-2.4c2.2-0.2,4.1,0.3,5.8,1.3c1.7,1,3,2.6,4.1,4.7c1,2.1,1.7,4.7,1.9,7.9
				L268.1,75.6z"/>
			<path class="st28" d="M279.2,96.7c0.6-2.7,1-5.2,1.1-7.5l-11.7,6.6l-3.9,3l-0.5,7.8c0,0-0.1,0.1-0.1,0.2
				c-0.3,0.3-0.6,0.6-0.9,0.8l-0.5-11.2l14.1-17.7l-3.2-2.7l6.8-3.9c0-0.1,0-0.2,0-0.4l9.7-6.8l-16-8.6c-0.9-0.5-3.5-1.5-5.8-1.3
				c-2.3,0.2-5,1.2-7.7,2.8c-3.8,2.2-6.9,5.6-10,9.9c-3.1,4.3-5.6,9.4-7.4,15.4c-1.8,6-2.7,12.5-2.7,19.7c0,7.1,0.9,12.7,2.7,16.6
				c1.6,3.5,6.4,6.8,6.4,6.8l15.3,7.6l12.9-5.3l-12.8-6.9c0.9-0.7,1.8-1.5,2.7-2.4l6.7,2.6l11.2-7.1l2.6-14.2l-7.1-3.7L279.2,96.7z"
				/>
			<polygon class="st28" points="296.8,84.6 280.4,75.8 261.4,86.6 277.9,95.4 			"/>
			<polygon class="st28" points="277.9,107.9 277.9,95.4 261.4,86.6 261.4,99 			"/>
			<path class="st34" d="M284.6,84.4c-0.2-1-0.5-1.8-0.9-2.5c-0.4-0.6-0.9-1.1-1.4-1.4c-0.6-0.3-1.2-0.3-2-0.2
				c-0.8,0.1-1.6,0.4-2.5,1c-1.9,1.1-3.6,2.8-5,4.9c-1.4,2.2-2.4,4.8-3.1,7.9c-0.7,3.1-1.1,6.5-1.1,10.2c0,3.8,0.3,6.8,1,9.1
				c0.7,2.3,1.7,3.8,3,4.4c1.3,0.7,3,0.4,5-0.7c1.8-1,3.2-2.2,4.4-3.7c1.2-1.4,2.1-3,2.6-4.8c0.6-1.8,0.9-3.6,0.9-5.5l0,0l-7.7,4.7
				V95.4l18.9-10.8v9c0,5.9-0.8,11.4-2.5,16.5c-1.6,5.1-3.9,9.6-6.8,13.4c-2.9,3.9-6.2,6.8-9.9,9c-4.2,2.4-7.8,3.1-10.9,2.2
				c-3.1-0.9-5.6-3.3-7.3-7.2c-1.8-3.9-2.6-9.3-2.6-16.1c0-5.3,0.5-10.4,1.6-15.1c1.1-4.7,2.6-9.1,4.5-13c1.9-3.9,4.1-7.4,6.6-10.2
				c2.5-2.9,5.2-5.2,8.1-6.8c2.5-1.4,4.9-2.2,7.1-2.4c2.2-0.2,4.1,0.3,5.8,1.3c1.7,1,3,2.6,4.1,4.7c1,2.1,1.7,4.7,1.9,7.9
				L284.6,84.4z"/>
		</g>
		<g>
			<path class="st28" d="M233.8,69.4v64.6l-9.7,5.5l-15.4-25.1l-0.2,0.1v33.9l-11.6,6.6V90.3l9.8-5.6l15.2,25.2l0.3-0.2V75.9
				L233.8,69.4z"/>
			<polygon class="st28" points="240.5,148.2 224.1,139.4 224.9,123.2 225.1,123.1 			"/>
			<path class="st34" d="M250.2,78.2v64.6l-9.7,5.5l-15.4-25.1l-0.2,0.1v33.9l-11.6,6.6V99.2l9.8-5.6l15.2,25.2l0.3-0.2V84.8
				L250.2,78.2z"/>
			<polygon class="st28" points="206.7,84.8 223.1,93.6 213.3,99.2 196.9,90.3 			"/>
			<polygon class="st28" points="213.3,163.7 213.3,99.2 196.9,90.3 196.9,154.9 			"/>
			<polygon class="st28" points="233.8,69.4 250.2,78.2 238.6,84.8 222.2,75.9 			"/>
			<polygon class="st28" points="238.6,118.5 238.6,84.8 222.2,75.9 222.2,93.1 223.1,93.6 238.3,118.7 			"/>
		</g>
		<g>
			<path class="st28" d="M189.9,96.4v64.6l-11.6,6.6v-64.6L189.9,96.4z"/>
			<path class="st34" d="M206.3,105.2v64.6l-11.6,6.6v-64.6L206.3,105.2z"/>
			<polygon class="st28" points="194.7,111.8 178.3,102.9 189.9,96.4 206.3,105.2 			"/>
			<polygon class="st28" points="194.7,176.3 194.7,111.8 178.3,102.9 178.3,167.5 			"/>
		</g>
		<g>
			<path class="st28" d="M118.5,136.9l14.4-8.2l9.9,30.9l0.5-0.3l9.9-42.2l14.4-8.2v64.6l-11.3,6.4v-37.3l-0.3,0.2l-9.5,42.2
				l-6.8,3.9l-9.5-31.7l-0.3,0.2V195l-11.3,6.4V136.9z"/>
			<polygon class="st28" points="153.2,117.2 169.6,126 159.7,168.2 143.3,159.4 			"/>
			<polygon class="st28" points="172.7,188.8 156.5,179.9 172.4,151.6 172.7,151.4 			"/>
			<polygon class="st28" points="156.1,197.8 139.8,188.9 146.2,166.3 146.6,166.1 			"/>
			<path class="st34" d="M134.9,145.7l14.4-8.2l9.9,30.9l0.5-0.3l9.9-42.2l14.4-8.2v64.6l-11.3,6.4v-37.3l-0.3,0.2l-9.5,42.2
				l-6.8,3.9l-9.5-31.7l-0.3,0.2v37.6l-11.3,6.4V145.7z"/>
			<polygon class="st28" points="134.9,210.3 118.5,201.5 118.5,136.9 134.9,145.7 			"/>
			<polygon class="st28" points="149.3,137.5 132.9,128.7 118.5,136.9 134.9,145.7 			"/>
			<polygon class="st28" points="184.1,117.8 167.6,109 153.2,117.2 169.6,126 			"/>
		</g>
		<g>
			<path class="st28" d="M120.6,157.8l-16.4-8.8l0,0c-0.7-0.4-1.5-0.7-2.3-0.9c-3.1-0.7-6.6,0-10.5,2.2c-3.9,2.2-7.4,5.5-10.5,9.8
				c-3.1,4.3-5.6,9.5-7.5,15.4c-1.8,6-2.8,12.6-2.8,19.7c0,7.1,0.9,12.7,2.8,16.5c1.3,2.8,3,4.8,5,6l0,0l16.4,8.8l11.7-6.6L95.3,214
				c2.4-1.9,4.6-4.3,6.7-7.1c3.1-4.3,5.6-9.5,7.5-15.4c1.8-6,2.8-12.6,2.8-19.7c0-3.3-0.2-6.2-0.6-8.8L120.6,157.8z"/>
			<polygon class="st28" points="116.7,170.1 120.6,195.8 106.6,217.3 93.5,212.1 92.9,199.3 107.8,168.8 			"/>
			<path class="st34" d="M128.6,180.5c0,7.2-0.9,13.8-2.8,19.7c-1.8,6-4.3,11.1-7.5,15.4c-3.1,4.3-6.6,7.6-10.5,9.8
				c-3.9,2.2-7.4,2.9-10.5,2.2c-3.1-0.8-5.6-3.1-7.5-7c-1.8-3.9-2.8-9.4-2.8-16.5c0-7.2,0.9-13.8,2.8-19.7c1.8-6,4.3-11.1,7.5-15.4
				c3.1-4.3,6.6-7.6,10.5-9.8c3.9-2.2,7.4-2.9,10.5-2.2c3.1,0.7,5.6,3.1,7.5,6.9C127.7,167.8,128.6,173.3,128.6,180.5z M116.7,187.3
				c0-3.9-0.3-6.9-1-9.2c-0.7-2.3-1.7-3.7-3-4.4c-1.3-0.6-2.9-0.4-4.8,0.7s-3.5,2.7-4.8,4.8c-1.3,2.1-2.3,4.7-3,7.7
				c-0.7,3-1,6.5-1,10.4c0,3.9,0.3,6.9,1,9.2c0.7,2.3,1.7,3.7,3,4.4c1.3,0.6,2.9,0.4,4.8-0.7s3.5-2.7,4.8-4.8c1.3-2.1,2.3-4.7,3-7.7
				C116.3,194.6,116.7,191.1,116.7,187.3z"/>
		</g>
		<g>
			<path class="st28" d="M65.4,215.5c0.6-2.7,1-5.2,1.1-7.5l-11.7,6.6l-3.9,3l-0.5,7.8c0,0-0.1,0.1-0.1,0.2
				c-0.3,0.3-0.6,0.6-0.9,0.8L48.9,215L63,197.3l-3.2-2.7l6.8-3.9c0-0.1,0-0.2,0-0.4l10.5-5.9c0,0-16.5-8.9-16.5-8.9
				c-1.8-0.9-3.7-1.7-6-1.5c-2.3,0.2-4.7,1-7.4,2.6c-3.8,2.2-7.3,5.4-10.4,9.7c-3.1,4.3-5.6,9.4-7.4,15.4c-1.8,6-2.7,12.5-2.7,19.7
				c0,7.1,0.9,12.7,2.7,16.6c1.6,3.5,6.4,6.8,6.4,6.8l16.4,8.8l11.7-6.6L51,240.4c0.9-0.7,1.8-1.5,2.7-2.4l6.7,2.6l11.2-7.1
				l2.6-14.2l-7.1-3.7L65.4,215.5z"/>
			<polygon class="st28" points="66.6,207.9 83,216.7 71.2,223.3 54.8,214.5 			"/>
			<path class="st34" d="M83,199.6l-11.7,6.7c-0.1-1.4-0.3-2.6-0.7-3.6c-0.4-1-0.8-1.8-1.5-2.3c-0.6-0.5-1.4-0.8-2.2-0.7
				c-0.9,0-1.9,0.4-3,1c-1.9,1.1-3.6,2.8-4.9,4.9c-1.3,2.2-2.4,4.8-3,7.9c-0.7,3.1-1,6.5-1,10.2c0,4,0.4,7.1,1.1,9.3
				c0.7,2.3,1.7,3.7,3.1,4.3c1.3,0.6,2.9,0.3,4.8-0.7c1.1-0.6,2-1.4,2.9-2.2c0.8-0.9,1.6-1.9,2.2-3c0.6-1.1,1.1-2.4,1.5-3.7
				c0.4-1.3,0.7-2.7,0.8-4.2l11.7-6.6c-0.1,2.8-0.6,5.9-1.5,9.2c-0.9,3.3-2.1,6.6-3.7,9.9c-1.6,3.3-3.6,6.3-5.9,9.1
				c-2.4,2.8-5.1,5.1-8.2,6.9c-3.9,2.2-7.4,3-10.5,2.2c-3.1-0.8-5.6-3.1-7.4-7c-1.8-3.9-2.7-9.4-2.7-16.6c0-7.2,0.9-13.8,2.7-19.7
				c1.8-6,4.3-11.1,7.4-15.4c3.1-4.3,6.6-7.5,10.4-9.7c2.7-1.5,5.2-2.4,7.4-2.6c2.3-0.2,4.2,0.3,6,1.5c1.7,1.2,3.1,3,4.1,5.5
				C82.1,192.5,82.8,195.7,83,199.6z"/>
		</g>
	</g>
	<g>
		<g>
			<g>
				<polygon class="st30" points="270.2,222.9 253.8,213.5 253.8,151 270.2,160.5 				"/>
				<polygon class="st31" points="270.2,222.9 286.5,213.5 286.5,151 270.2,160.5 				"/>
				<polygon class="st32" points="270.2,160.5 253.8,151 270.1,141.6 286.5,151 				"/>
				<path id="矩形_00000178177514575907472600000001449231174993843088_" class="st33" d="M265,146.9L265,146.9
					c0.3,0.2,0.3,0.5-0.1,0.8l-3.4,2c-0.4,0.2-1,0.3-1.3,0.1l0,0c-0.3-0.2-0.3-0.5,0.1-0.8l3.4-2C264.1,146.7,264.7,146.7,265,146.9
					z"/>
				<path id="矩形_00000067226598298868807850000001328910450883798966_" class="st33" d="M259.4,150.2L259.4,150.2
					c0.3,0.2,0.3,0.5-0.1,0.8l-0.7,0.4c-0.4,0.2-1,0.3-1.3,0.1l0,0c-0.3-0.2-0.3-0.5,0.1-0.8l0.7-0.4C258.5,150,259,150,259.4,150.2
					z"/>
			</g>
		</g>
		<g>
			<g>
				<polygon class="st30" points="253.9,232.4 237.6,223 237.6,174 253.9,183.4 				"/>
				<polygon class="st31" points="253.9,232.4 270.2,223 270.2,174 253.9,183.4 				"/>
				<polygon class="st32" points="254,183.5 237.6,174 253.8,164.5 270.2,174 				"/>
				<path id="矩形_00000140010208435349322350000011930443509908279176_" class="st33" d="M248.7,169.9L248.7,169.9
					c0.3,0.2,0.3,0.5-0.1,0.8l-3.4,2c-0.4,0.2-1,0.3-1.3,0.1l0,0c-0.3-0.2-0.3-0.5,0.1-0.8l3.4-2
					C247.8,169.7,248.4,169.7,248.7,169.9z"/>
				<path id="矩形_00000165952798331224865720000006071371618190155925_" class="st33" d="M243.1,173.1L243.1,173.1
					c0.3,0.2,0.3,0.5-0.1,0.8l-0.7,0.4c-0.4,0.2-1,0.3-1.3,0.1l0,0c-0.3-0.2-0.3-0.5,0.1-0.8l0.7-0.4
					C242.2,173,242.8,172.9,243.1,173.1z"/>
			</g>
		</g>
		<g>
			<g>
				<polygon class="st30" points="237.6,241.9 221.2,232.5 221.2,198.4 237.6,207.8 				"/>
				<polygon class="st31" points="237.6,241.9 253.9,232.5 253.9,198.4 237.6,207.8 				"/>
				<polygon class="st32" points="237.6,207.9 221.2,198.4 237.5,188.9 253.9,198.4 				"/>
				<path id="矩形_00000025405235160765255660000003430070618422750876_" class="st33" d="M232.4,194.2L232.4,194.2
					c0.3,0.2,0.3,0.5-0.1,0.8l-3.4,2c-0.4,0.2-1,0.3-1.3,0.1l0,0c-0.3-0.2-0.3-0.5,0.1-0.8l3.4-2
					C231.5,194.1,232.1,194.1,232.4,194.2z"/>
				<path id="矩形_00000124878525489260903340000009594687559695369367_" class="st33" d="M226.8,197.5L226.8,197.5
					c0.3,0.2,0.3,0.5-0.1,0.8l-0.7,0.4c-0.4,0.2-1,0.3-1.3,0.1l0,0c-0.3-0.2-0.3-0.5,0.1-0.8l0.7-0.4
					C225.9,197.4,226.4,197.3,226.8,197.5z"/>
			</g>
		</g>
		<polygon class="st35" points="261.1,117.7 255,134 258,132.4 258,143.7 264.6,139.9 264.6,129 267.7,127.1 		"/>
		<polygon class="st35" points="243.2,141.8 237.1,158.1 240.2,156.6 240.2,167.8 246.7,164 246.7,153.1 249.8,151.2 		"/>
		<polygon class="st35" points="227.3,165.1 221.2,181.5 224.3,179.9 224.3,191.1 230.8,187.3 230.8,176.5 233.9,174.5 		"/>
	</g>
	<g>
		<g>
			<g>
				<linearGradient id="SVGID_1_" gradientUnits="userSpaceOnUse" x1="281.7771" y1="248.0264" x2="281.9871" y2="248.0264">
					<stop  offset="0" style="stop-color:#A25DA2"/>
					<stop  offset="1" style="stop-color:#00AFC2"/>
				</linearGradient>
				<path class="st8" d="M281.8,247.4c-0.1-0.3,0,0.6,0,1.2C282,248.8,282.1,248.6,281.8,247.4z"/>
				<path class="st37" d="M309.2,228.7v-10.8v-18c0-1.2,0-2.4-0.1-3.5l-1.9-13.8c-0.4-0.4-4.5-3.3-4.5-3.3
					c-2.3-1.5-6.6-2.9-13.4,2.4c-8.1,6.4-12,17.7-12.8,22.5c-0.1,0.6-0.2,1.3-0.3,1.9v0c0,0,0,0,0,0c0,0.2,0,0.3-0.1,0.5
					c0,0,0,0,0,0c0,0,0,0.1,0,0.1c0,0,0,0.1,0,0.1c0,0,0,0.1,0,0.1c0,0.1,0,0.2,0,0.3c0,0,0,0,0,0c0,0.1,0,0.1,0,0.2
					c0,0.1,0,0.1,0,0.2c0,0.1,0,0.1,0,0.2c0,0.1,0,0.2,0,0.2c0,0,0,0.1,0,0.1c0,0.1,0,0.1,0,0.2c0,0,0,0.1,0,0.1c0,0.2,0,0.4,0,0.6
					v0.3c0,0,0,0,0,0.1c0,0,0,0,0,0l-0.2,23.8v0l0,0l0,0v12.8c0,0.8,0.3,1.3,0.7,1.6c0.1,0.1,4.8,3.1,4.9,3.1c0.1,0,0.1-1.7,0.2-1.7
					c0.1,0,0.1-0.2,0.1-0.5c-0.3-0.3-0.9-1.6-0.9-1.7c0.4-0.6,0.6-1.4,0.6-2v-6.6v0c0-0.7,0.3-1.6,0.8-2.2c0.1-0.2,0.2-0.3,0.4-0.4
					v1.1c0,0.4,0.1,2.5,0.2,2.7c0.2,0.3,0.4,0.5,0.7,0.8c0.1,0.1,4.7,3.1,4.9,2.9c0.1-0.1-0.1-2.8,0-2.9c0.5-0.4-0.5-1.2-0.3-1.9
					c0.1-0.4,0.2-0.8,0.2-1.2v-2.9c0-0.4,0.1-0.8,0.2-1.1c0.1-0.2,0.1-0.3,0.2-0.4c0.2-0.5-0.4,0.3,0,0c0,0,6.2,4,6.2,4
					c0.1,0,4.2-2,1-2.5c-0.1,0,0.1-0.1,0.2-0.1c0.9-0.5-0.9-1.9-0.9-3.1v-0.6c0-0.5,0.2-1.1,0.4-1.6c0-0.1,0.1-0.1,0.1-0.2
					c0.2-0.3,0.4-0.6,0.6-0.8v1.1c0,0.3,0,2.7,0.3,3c0.1,0.1,5.2,3.3,5.3,3.3c0.3,0.2,0.1-4.7,0.1-5.9v-2.9c0-0.9,0.5-2,1.2-2.6v6.7
					c0,1.3,5.7,4.5,5.7,4.5C309.9,234.3,309.2,230,309.2,228.7z"/>
			</g>
			<path class="st31" d="M311.7,199.1v-4.8c0-11.2-6.9-16.2-15.5-11.3c-7.2,4.2-13.3,14.2-15,24c-0.3,1.6-0.5,3.2-0.5,4.8v0.3
				c0,0,0,0.1,0,0.1v26.1l0,0v1.5v9.6c0,1.2,0.7,1.8,1.7,1.2c0.9-0.5,1.7-1.9,1.7-3.2v-6.6v0c0-1.2,0.8-2.6,1.8-3.1l0,0
				c1-0.5,1.7,0,1.7,1.1v2.9c0,1.2,0.7,1.8,1.7,1.2c0.9-0.5,1.7-1.9,1.7-3.2v-2.9c0-1.2,0.8-2.6,1.8-3.1l0,0c1-0.5,1.7,0,1.7,1.1
				v0.5c0,1.2,0.7,1.8,1.7,1.2c0.9-0.5,1.7-1.9,1.7-3.2v-0.6c0-1.2,0.8-2.6,1.8-3.1l0,0c1-0.5,1.7,0,1.7,1.1v2.9
				c0,1.2,0.7,1.8,1.7,1.2c0.9-0.5,1.7-1.9,1.7-3.2V229c0-1.2,0.8-2.6,1.8-3.1l0,0c1-0.5,1.7,0,1.7,1.1v6.5c0,1.3,0.8,1.9,1.8,1.3
				c1-0.6,1.8-2,1.8-3.3v-28.8C311.9,201.4,311.8,200.2,311.7,199.1z"/>
			<g>
				<path id="椭圆形_00000153671782703157569280000017218765155507343286_" class="st35" d="M297.5,211.8
					c1.4-0.8,2.5-2.8,2.5-3.8c0-0.4-0.2-0.6-0.5-0.5c-0.4,0.2-1.2,0.9-2,1.4c-0.8,0.5-1.3,0.5-2,0.8c-0.6,0.4-0.6,1.3-0.5,1.6
					C295.2,212.2,296,212.7,297.5,211.8z"/>
			</g>
			
				<ellipse transform="matrix(0.4058 -0.914 0.914 0.4058 -14.3349 388.4271)" class="st35" cx="291.6" cy="205.2" rx="4.9" ry="2.8"/>
			
				<ellipse transform="matrix(0.4058 -0.914 0.914 0.4058 -1.3771 394.9995)" class="st35" cx="303.1" cy="198.6" rx="4.9" ry="2.8"/>
		</g>
	</g>
	<g>
		<g>
			<g>
				
					<linearGradient id="SVGID_00000161598204518421227280000011851440646324596357_" gradientUnits="userSpaceOnUse" x1="304.4278" y1="172.7423" x2="304.5634" y2="172.7423">
					<stop  offset="0" style="stop-color:#A25DA2"/>
					<stop  offset="1" style="stop-color:#00AFC2"/>
				</linearGradient>
				
					<path style="fill:url(#SVGID_00000161598204518421227280000011851440646324596357_);stroke:#1D1D1B;stroke-linecap:round;stroke-linejoin:round;stroke-miterlimit:10;" d="
					M304.4,172.4c0-0.2,0,0.4,0,0.7C304.6,173.3,304.6,173.1,304.4,172.4z"/>
				<path class="st37" d="M322.1,160.3v-7v-11.6c0-0.8,0-1.6-0.1-2.3l-1.2-8.9c-0.2-0.3-2.9-2.1-2.9-2.1c-1.5-0.9-4.3-1.9-8.6,1.5
					c-5.2,4.1-7.7,11.4-8.3,14.5c-0.1,0.4-0.1,0.8-0.2,1.2v0c0,0,0,0,0,0c0,0.1,0,0.2,0,0.3c0,0,0,0,0,0c0,0,0,0,0,0.1
					c0,0,0,0,0,0.1c0,0,0,0,0,0.1c0,0.1,0,0.1,0,0.2c0,0,0,0,0,0c0,0,0,0.1,0,0.1c0,0,0,0.1,0,0.1c0,0,0,0.1,0,0.1
					c0,0.1,0,0.1,0,0.2c0,0,0,0,0,0.1c0,0,0,0.1,0,0.1c0,0,0,0,0,0c0,0.1,0,0.3,0,0.4v0.2c0,0,0,0,0,0c0,0,0,0,0,0l-0.1,15.4v0l0,0
					l0,0v8.3c0,0.5,0.2,0.8,0.4,1c0.1,0,3.1,2,3.2,2c0.1,0,0-1.1,0.1-1.1c0.1,0,0.1-0.2,0.1-0.3c-0.2-0.2-0.6-1-0.5-1.1
					c0.2-0.4,0.4-0.9,0.4-1.3v-4.3v0c0-0.5,0.2-1,0.5-1.4c0.1-0.1,0.2-0.2,0.2-0.3v0.7c0,0.2,0,1.6,0.1,1.7c0.1,0.2,0.3,0.4,0.4,0.5
					c0.1,0.1,3,2,3.2,1.9c0.1,0,0-1.8,0-1.9c0.3-0.3-0.3-0.8-0.2-1.2c0.1-0.2,0.1-0.5,0.1-0.7v-1.9c0-0.2,0.1-0.5,0.1-0.7
					c0-0.1,0.1-0.2,0.1-0.3c0.2-0.3-0.3,0.2,0,0c0,0,4,2.5,4,2.5c0,0,2.7-1.3,0.7-1.6c-0.1,0,0.1-0.1,0.1-0.1c0.6-0.3-0.6-1.2-0.6-2
					v-0.4c0-0.3,0.1-0.7,0.3-1c0,0,0-0.1,0.1-0.1c0.1-0.2,0.3-0.4,0.4-0.5v0.7c0,0.2,0,1.7,0.2,1.9c0,0,3.4,2.1,3.4,2.2
					c0.2,0.1,0.1-3,0.1-3.8v-1.9c0-0.6,0.3-1.3,0.7-1.7v4.3c0,0.8,3.6,2.9,3.6,2.9C322.6,163.9,322.1,161.1,322.1,160.3z"/>
			</g>
			<path class="st31" d="M323.8,141.2v-3.1c0-7.2-4.5-10.5-10-7.3c-4.7,2.7-8.6,9.2-9.7,15.5c-0.2,1-0.3,2.1-0.3,3.1v0.2
				c0,0,0,0,0,0.1v16.8l0,0v1v6.2c0,0.8,0.5,1.1,1.1,0.8c0.6-0.3,1.1-1.2,1.1-2v-4.3v0c0-0.8,0.5-1.7,1.1-2l0,0
				c0.6-0.3,1.1,0,1.1,0.7v1.8c0,0.8,0.5,1.1,1.1,0.8c0.6-0.3,1.1-1.2,1.1-2v-1.9c0-0.8,0.5-1.7,1.1-2l0,0c0.6-0.3,1.1,0,1.1,0.7
				v0.4c0,0.8,0.5,1.1,1.1,0.8c0.6-0.3,1.1-1.2,1.1-2V163c0-0.8,0.5-1.7,1.1-2l0,0c0.6-0.3,1.1,0,1.1,0.7v1.8c0,0.8,0.5,1.1,1.1,0.8
				c0.6-0.3,1.1-1.2,1.1-2v-1.9c0-0.8,0.5-1.7,1.1-2l0,0c0.6-0.3,1.1,0,1.1,0.7v4.2c0,0.8,0.5,1.2,1.1,0.8c0.6-0.4,1.1-1.3,1.1-2.2
				v-18.6C323.8,142.6,323.8,141.9,323.8,141.2z"/>
			<g>
				<path id="椭圆形_00000173126129367104023700000010153455515177776290_" class="st35" d="M314.5,149.4
					c0.9-0.5,1.6-1.8,1.6-2.5c0-0.2-0.1-0.4-0.3-0.3c-0.3,0.1-0.7,0.6-1.3,0.9c-0.5,0.3-0.8,0.3-1.3,0.5c-0.4,0.2-0.4,0.8-0.3,1
					C313.1,149.6,313.6,149.9,314.5,149.4z"/>
			</g>
			
				<ellipse transform="matrix(0.4058 -0.914 0.914 0.4058 51.9986 370.2446)" class="st35" cx="310.7" cy="145.1" rx="3.1" ry="1.8"/>
			
				<ellipse transform="matrix(0.4058 -0.914 0.914 0.4058 60.3595 374.4854)" class="st35" cx="318.2" cy="140.8" rx="3.1" ry="1.8"/>
		</g>
	</g>
	<g>
		
			<radialGradient id="SVGID_00000075865195042789452990000011725556127169905854_" cx="174.1615" cy="332.1259" r="27.0578" gradientTransform="matrix(1 0 0 0.5898 0 136.2403)" gradientUnits="userSpaceOnUse">
			<stop  offset="0" style="stop-color:#B8B2D6"/>
			<stop  offset="0.3457" style="stop-color:#BAB5D7;stop-opacity:0.6543"/>
			<stop  offset="0.6064" style="stop-color:#C2BFDC;stop-opacity:0.3936"/>
			<stop  offset="0.8384" style="stop-color:#CECFE3;stop-opacity:0.1616"/>
			<stop  offset="1" style="stop-color:#DBDFEB;stop-opacity:0"/>
		</radialGradient>
		<path style="opacity:0.67;fill:url(#SVGID_00000075865195042789452990000011725556127169905854_);" d="M197.4,319.1
			c-12.7-7.3-33.4-7.4-46.2-0.2c-12.8,7.2-12.9,19-0.2,26.3s33.4,7.4,46.2,0.2C210,338.2,210.1,326.4,197.4,319.1z"/>
		<g>
			<g>
				<g>
					<circle class="st39" cx="175" cy="280.1" r="58.5"/>
					<g>
						<g>
							<path class="st34" d="M140.6,228.4l8.4,22.8c0.4,3.2,2.8,5.8,6.9,6.9c6.7,1.7,15.4-1.4,19.4-7.1c1.7-2.4,2.3-4.9,1.9-7.1
								l0.1,0l-0.3-0.9c0-0.1-0.1-0.2-0.1-0.3l-8.6-23.6L140.6,228.4z"/>
							<path class="st34" d="M146.7,244.7c1.9,5.2,9.5,7.1,17,4.4c7.5-2.7,12-9.2,10.1-14.3"/>
							<path class="st34" d="M144,237.6c1.9,5.2,9.5,7.1,17,4.4s12-9.2,10.1-14.3"/>
							<path class="st34" d="M141.3,230.1c1.9,5.2,9.5,7.1,17,4.4c7.5-2.7,12-9.2,10.1-14.3"/>
						</g>
						<g>
							<path class="st34" d="M132.3,205.9l8.4,22.8c0.4,3.2,2.8,5.8,6.9,6.9c6.7,1.7,15.4-1.4,19.4-7.1c1.7-2.4,2.3-4.9,1.9-7.1
								l0.1,0l-0.3-0.9c0-0.1-0.1-0.2-0.1-0.3l-8.6-23.6L132.3,205.9z"/>
							<path class="st34" d="M138.4,222.2c1.9,5.2,9.5,7.1,17,4.4c7.5-2.7,12-9.2,10.1-14.3"/>
							<path class="st34" d="M135.8,215c1.9,5.2,9.5,7.1,17,4.4c7.5-2.7,12-9.2,10.1-14.3"/>
							<path class="st34" d="M133,207.5c1.9,5.2,9.5,7.1,17,4.4c7.5-2.7,12-9.2,10.1-14.3"/>
						</g>
					</g>
					<g>
						<g>
							<g>
								<polygon class="st30" points="157.3,234.6 111.8,226.6 98,189 143.6,197 								"/>
								<polygon class="st31" points="157.3,234.6 187,199.1 173.2,161.4 143.6,197 								"/>
								<polygon class="st32" points="143.7,197 98,189.1 127.5,153.5 173.2,161.4 								"/>
							</g>
							<path id="矩形_00000160161927926790121370000017548956210478178434_" class="st33" d="M119.8,169.4L119.8,169.4
								c0.9,0.1,1.1,1,0.4,1.8l-6.1,7.5c-0.7,0.8-2,1.4-2.9,1.3l0,0c-0.9-0.1-1.1-1-0.4-1.8l6.1-7.5
								C117.6,169.8,118.9,169.2,119.8,169.4z"/>
							<path id="矩形_00000010281883665303339170000006667806347600243877_" class="st33" d="M108.7,182.9L108.7,182.9
								c0.9,0.1,1.1,1,0.4,1.8l-1.2,1.4c-0.7,0.8-2,1.4-2.9,1.3l0,0c-0.9-0.1-1.1-1-0.4-1.8l1.2-1.4
								C106.5,183.3,107.8,182.8,108.7,182.9z"/>
						</g>
					</g>
				</g>
			</g>
		</g>
		<polygon class="st35" points="127.4,187.5 122,186.7 142,161.9 147.3,162.7 		"/>
	</g>
	<g>
		<path id="矩形_00000122678210692630021360000003396347695919238816_" class="st20" d="M117.4,335.6L117.4,335.6
			c0.5,0,0.8,0.6,0.8,1.2v1.1c0,0.7-0.4,1.2-0.8,1.2l0,0c-0.5,0-0.8-0.6-0.8-1.2v-1.1C116.5,336.1,116.9,335.6,117.4,335.6z"/>
		
			<radialGradient id="SVGID_00000152246883095806951230000015915829375953991298_" cx="94.0188" cy="360.8298" r="21.5732" gradientTransform="matrix(1 0 0 0.5898 0 148.0149)" gradientUnits="userSpaceOnUse">
			<stop  offset="0" style="stop-color:#B8B2D6"/>
			<stop  offset="0.3457" style="stop-color:#BAB5D7;stop-opacity:0.6543"/>
			<stop  offset="0.6064" style="stop-color:#C2BFDC;stop-opacity:0.3936"/>
			<stop  offset="0.8384" style="stop-color:#CECFE3;stop-opacity:0.1616"/>
			<stop  offset="1" style="stop-color:#DBDFEB;stop-opacity:0"/>
		</radialGradient>
		<path style="opacity:0.67;fill:url(#SVGID_00000152246883095806951230000015915829375953991298_);" d="M112.5,350.4
			c-10.1-5.8-26.6-5.9-36.8-0.2c-10.2,5.8-10.3,15.1-0.2,21c10.1,5.8,26.6,5.9,36.8,0.2C122.6,365.7,122.6,356.3,112.5,350.4z"/>
		<g>
			<path class="st22" d="M122.5,323.8v-36.5c0-0.2,0-0.3,0-0.5c0-17-13.7-30.7-30.7-30.7c-17,0-30.7,13.7-30.7,30.7
				c0,0.3,0,0.5,0,0.8v33h0v16.8c0,2.1,1.7,3.8,3.8,3.8s3.8-1.7,3.8-3.8v-0.6c0.4,0.3,0.8,0.5,1.3,0.8c1.4,0.8,2.8,1.5,4.3,2.1v6.1
				c0,2.1,1.7,3.8,3.8,3.8s3.8-1.7,3.8-3.8v-3.9c2.2,0.4,4.4,0.7,6.7,0.8v9.3c0,2.1,1.7,3.8,3.8,3.8s3.8-1.7,3.8-3.8v-9.4
				c2.5-0.2,5-0.6,7.3-1.1v4.7c0,2.1,1.7,3.8,3.8,3.8c2.1,0,3.8-1.7,3.8-3.8v-7.3c0.7-0.3,1.5-0.7,2.2-1.1c0.5-0.3,1-0.6,1.5-0.9
				v0.5c0,2.1,1.7,3.8,3.8,3.8s3.8-1.7,3.8-3.8L122.5,323.8L122.5,323.8z"/>
			
				<radialGradient id="SVGID_00000117644562076134969260000014862897502777012865_" cx="110.0906" cy="268.9973" r="78.9328" gradientUnits="userSpaceOnUse">
				<stop  offset="1.242844e-02" style="stop-color:#EC71D2"/>
				<stop  offset="0.4936" style="stop-color:#B2529D"/>
				<stop  offset="0.5648" style="stop-color:#A959A0"/>
				<stop  offset="0.68" style="stop-color:#916CA7"/>
				<stop  offset="0.8249" style="stop-color:#6A8BB3"/>
				<stop  offset="0.9924" style="stop-color:#35B6C3"/>
				<stop  offset="1" style="stop-color:#32B8C4"/>
			</radialGradient>
			<path style="fill:url(#SVGID_00000117644562076134969260000014862897502777012865_);" d="M122.5,323.8v-36.5c0-0.2,0-0.3,0-0.5
				c0-17-13.7-30.7-30.7-30.7c-17,0-30.7,13.7-30.7,30.7c0,0.3,0,0.5,0,0.8v33h0v16.8c0,2.1,1.7,3.8,3.8,3.8s3.8-1.7,3.8-3.8v-0.6
				c0.4,0.3,0.8,0.5,1.3,0.8c1.4,0.8,2.8,1.5,4.3,2.1v6.1c0,2.1,1.7,3.8,3.8,3.8s3.8-1.7,3.8-3.8v-3.9c2.2,0.4,4.4,0.7,6.7,0.8v9.3
				c0,2.1,1.7,3.8,3.8,3.8s3.8-1.7,3.8-3.8v-9.4c2.5-0.2,5-0.6,7.3-1.1v4.7c0,2.1,1.7,3.8,3.8,3.8c2.1,0,3.8-1.7,3.8-3.8v-7.3
				c0.7-0.3,1.5-0.7,2.2-1.1c0.5-0.3,1-0.6,1.5-0.9v0.5c0,2.1,1.7,3.8,3.8,3.8s3.8-1.7,3.8-3.8L122.5,323.8L122.5,323.8z"/>
		</g>
		<path id="矩形_00000040544122436483830140000009031898584188098745_" class="st20" d="M64,313.5L64,313.5c0.8,0,1.5,1,1.5,2.2
			v10.5c0,1.2-0.7,2.2-1.5,2.2l0,0c-0.8,0-1.5-1-1.5-2.2v-10.5C62.5,314.5,63.2,313.5,64,313.5z"/>
		<path id="矩形_00000021823696069753081640000001313097030491990401_" class="st20" d="M109.4,266.8L109.4,266.8
			c1-0.8,2.7-0.3,3.7,1l1.7,2.3c1,1.3,1,3.1,0,3.9l0,0c-1,0.8-2.7,0.3-3.7-1l-1.7-2.3C108.3,269.3,108.4,267.6,109.4,266.8z"/>
		<path id="矩形_00000014623455430791210810000018170689064435437204_" class="st20" d="M76.9,340.6L76.9,340.6
			c0.8,0,1.5,1,1.5,2.2v2c0,1.2-0.7,2.2-1.5,2.2l0,0c-0.8,0-1.5-1-1.5-2.2v-2C75.3,341.5,76.1,340.6,76.9,340.6z"/>
		<path id="矩形_00000031903557827223956780000015994822337237941935_" class="st20" d="M63.8,332.6L63.8,332.6
			c0.8,0,1.5,1,1.5,2.2v2c0,1.2-0.7,2.2-1.5,2.2l0,0c-0.8,0-1.5-1-1.5-2.2v-2C62.3,333.5,63,332.6,63.8,332.6z"/>
		<path id="矩形_00000181046686714930637200000014292721705575630238_" class="st20" d="M91.8,347.1L91.8,347.1
			c0.8,0,1.5,1,1.5,2.2v2c0,1.2-0.7,2.2-1.5,2.2l0,0c-0.8,0-1.5-1-1.5-2.2v-2C90.3,348,91,347.1,91.8,347.1z"/>
		<path id="矩形_00000008130972996308491000000014814840443380987558_" class="st20" d="M106.4,343.1L106.4,343.1
			c0.7,0,1.2,0.8,1.2,1.8v1.6c0,0.9-0.6,1.8-1.2,1.8l0,0c-0.7,0-1.2-0.8-1.2-1.8v-1.6C105.2,343.8,105.7,343.1,106.4,343.1z"/>
		<g>
			<path id="椭圆形_00000172421932652401665590000006315728901598508975_" class="st24" d="M99.2,309.7c3-0.1,5.3-2.7,5.2-4.4
				c0-0.7-0.4-1.3-1-1.3c-1-0.1-2.4,0.5-4.2,0.6c-1.7,0.1-2.8-0.4-4.1-0.3c-1.4,0.1-1.3,1.6-1.1,2.3
				C94.5,308.2,96.2,309.9,99.2,309.7z"/>
			<path id="椭圆形_00000175307946304801662830000001272147440943466142_" class="st25" d="M99.3,308.3c3.1-0.1,5.3-2.5,5.3-4.2
				c0-0.6-0.4-1.2-1-1.2c-1-0.1-2.5,0.5-4.3,0.6c-1.8,0.1-2.8-0.4-4.2-0.3c-1.4,0.1-1.3,1.6-1.1,2.1
				C94.5,306.9,96.2,308.4,99.3,308.3z"/>
		</g>
		<g>
			
				<ellipse transform="matrix(0.5671 -0.8237 0.8237 0.5671 -203.2772 197.9857)" class="st25" cx="86.7" cy="292.4" rx="7" ry="6.7"/>
			<path id="形状结合_00000011017414955016832090000017650182784268422299_" class="st26" d="M87.6,285c3.1-0.1,5.7,2.9,5.7,6.8
				c0,0.1,0,0.3,0,0.4l0,0.4c0-3.9-2.5-7.1-5.5-7c-3.1,0.1-5.5,3.4-5.5,7.4c0,0.8,0.1,1.5,0.3,2.2c-0.3-0.9-0.5-1.9-0.5-3
				C81.9,288.4,84.4,285.1,87.6,285z"/>
			<path id="形状结合_00000150064851173516647120000008863587546434541714_" class="st27" d="M87.6,284.2
				c3.5-0.1,6.3,3.3,6.4,7.6c0,4.4-2.9,8-6.3,8.2c-3.5,0.1-6.3-3.3-6.4-7.6C81.2,287.9,84,284.3,87.6,284.2z M87.6,285
				c-3.1,0.1-5.7,3.4-5.7,7.3c0,3.9,2.5,7,5.7,6.8c3.1-0.1,5.7-3.4,5.7-7.3C93.2,287.9,90.7,284.9,87.6,285z"/>
		</g>
		<g>
			
				<ellipse transform="matrix(0.5671 -0.8237 0.8237 0.5671 -192.5971 216.2628)" class="st25" cx="109.4" cy="291.3" rx="7" ry="6.7"/>
			<path id="形状结合_00000067210740220055751600000017473359852144322735_" class="st26" d="M110.2,284
				c3.1-0.1,5.7,2.9,5.7,6.8c0,0.1,0,0.3,0,0.4l0,0.4c0-3.9-2.5-7.1-5.5-7c-3.1,0.1-5.5,3.4-5.5,7.4c0,0.8,0.1,1.5,0.3,2.2
				c-0.3-0.9-0.5-1.9-0.5-3C104.5,287.4,107,284.1,110.2,284z"/>
			<path id="形状结合_00000156577280789931329430000016773443806656167556_" class="st27" d="M110.2,283.1
				c3.5-0.1,6.3,3.3,6.4,7.6s-2.9,8-6.3,8.2s-6.3-3.3-6.4-7.6C103.8,286.9,106.6,283.3,110.2,283.1z M110.2,284
				c-3.1,0.1-5.7,3.4-5.7,7.3c0,3.9,2.5,7,5.7,6.8c3.1-0.1,5.7-3.4,5.7-7.3C115.8,286.9,113.2,283.8,110.2,284z"/>
		</g>
		<circle class="st24" cx="90.4" cy="292.5" r="2.8"/>
		<circle class="st24" cx="113" cy="291.6" r="2.8"/>
	</g>
	<g>
		
			<radialGradient id="SVGID_00000162349703314891581050000003547506980398850191_" cx="-7262.1611" cy="85.8324" r="9.051" gradientTransform="matrix(-1 0 0 0.5898 -7075.2861 35.2091)" gradientUnits="userSpaceOnUse">
			<stop  offset="0" style="stop-color:#B8B2D6"/>
			<stop  offset="0.3457" style="stop-color:#BAB5D7;stop-opacity:0.6543"/>
			<stop  offset="0.6064" style="stop-color:#C2BFDC;stop-opacity:0.3936"/>
			<stop  offset="0.8384" style="stop-color:#CECFE3;stop-opacity:0.1616"/>
			<stop  offset="1" style="stop-color:#DBDFEB;stop-opacity:0"/>
		</radialGradient>
		<path style="opacity:0.67;fill:url(#SVGID_00000162349703314891581050000003547506980398850191_);" d="M179.1,81.5
			c4.2-2.5,11.2-2.5,15.4-0.1c4.3,2.4,4.3,6.4,0.1,8.8c-4.2,2.5-11.2,2.5-15.4,0.1C174.9,87.9,174.9,83.9,179.1,81.5z"/>
		<path class="st34" d="M168.4,61.2c0,0,1,2.8,3.3,3c1.9-4.1,8.2-7.1,15.6-7.1c9,0,16.3,4.4,16.3,9.7c0,0.6-0.1,1.3-0.3,1.9h0
			c-1.5,6.4-8.5,11.5-16,11.5c-7.3,0-15-5.1-16-11.5C169.2,67.5,167.2,65,168.4,61.2z"/>
		<ellipse class="st29" cx="187.9" cy="67" rx="13.5" ry="7.8"/>
		<path class="st34" d="M168.8,58c0-0.1,0-0.1,0-0.2c0-0.2,0-0.5,0-0.7c0.6-9.4,8.5-16.9,18.1-16.9c9.6,0,17.5,7.5,18.1,16.9
			c0,0.2,0,0.5,0,0.7c0,0.1,0,0.1,0,0.2c0,0.1,0,0.2,0,0.3h0c-0.4,5.8-8.4,10.4-18.1,10.4c-9.7,0-17.7-4.6-18.1-10.4h0
			C168.8,58.2,168.8,58.1,168.8,58z"/>
		<g>
			<path class="st53" d="M200.3,60.6c0.2,0,0.4-0.2,0.4-0.4c0-0.7-0.3-1-0.6-1.3c-0.2-0.2-0.3-0.4-0.3-0.7c0-0.3,0.1-0.5,0.3-0.7
				c0.2-0.3,0.6-0.6,0.6-1.3c0-0.7-0.3-1-0.6-1.3c-0.2-0.2-0.3-0.4-0.3-0.7c0-0.3,0.1-0.5,0.3-0.7c0.2-0.3,0.6-0.6,0.6-1.3
				c0-0.7-0.3-1-0.6-1.3c-0.2-0.2-0.3-0.4-0.3-0.7c0-0.2-0.2-0.4-0.4-0.4s-0.4,0.2-0.4,0.4v0c0,0.7,0.3,1,0.6,1.3
				c0.2,0.2,0.3,0.4,0.3,0.7c0,0.3-0.1,0.5-0.3,0.7c-0.2,0.3-0.6,0.6-0.6,1.3s0.3,1,0.6,1.3c0.2,0.2,0.3,0.4,0.3,0.7
				c0,0.3-0.1,0.5-0.3,0.7c-0.2,0.3-0.6,0.6-0.6,1.3c0,0.7,0.3,1,0.6,1.3c0.2,0.2,0.3,0.4,0.3,0.7C199.9,60.4,200.1,60.6,200.3,60.6
				z"/>
		</g>
		<g>
			<path class="st53" d="M191.9,63.6c0.2,0,0.4-0.2,0.4-0.4c0-0.7-0.3-1-0.6-1.3c-0.2-0.2-0.3-0.4-0.3-0.7c0-0.3,0.1-0.5,0.3-0.7
				c0.2-0.3,0.6-0.6,0.6-1.3c0-0.7-0.3-1-0.6-1.3c-0.2-0.2-0.3-0.4-0.3-0.7c0-0.3,0.1-0.5,0.3-0.7c0.2-0.3,0.6-0.6,0.6-1.3
				c0-0.7-0.3-1-0.6-1.3c-0.2-0.2-0.3-0.4-0.3-0.7c0-0.2-0.2-0.4-0.4-0.4s-0.4,0.2-0.4,0.4v0c0,0.7,0.3,1,0.6,1.3
				c0.2,0.2,0.3,0.4,0.3,0.7c0,0.3-0.1,0.5-0.3,0.7c-0.2,0.3-0.6,0.6-0.6,1.3s0.3,1,0.6,1.3c0.2,0.2,0.3,0.4,0.3,0.7
				c0,0.3-0.1,0.5-0.3,0.7c-0.2,0.3-0.6,0.6-0.6,1.3c0,0.7,0.3,1,0.6,1.3c0.2,0.2,0.3,0.4,0.3,0.7C191.4,63.4,191.6,63.6,191.9,63.6
				z"/>
		</g>
	</g>
	<g>
		<g>
			<polygon class="st30" points="221.1,54 206.9,45.8 206.9,31.6 221.1,39.8 			"/>
			<polygon class="st31" points="221.1,54 235.3,45.8 235.3,31.6 221.1,39.8 			"/>
			<polygon class="st32" points="221.1,39.8 206.9,31.6 221,23.4 235.3,31.6 			"/>
			<path id="矩形_00000157289808301325763320000001931715120330217403_" class="st33" d="M216.6,28.1L216.6,28.1
				c0.3,0.2,0.2,0.5-0.1,0.7l-2.9,1.7c-0.3,0.2-0.9,0.2-1.1,0.1l0,0c-0.3-0.2-0.2-0.5,0.1-0.7l2.9-1.7
				C215.8,27.9,216.3,27.9,216.6,28.1z"/>
			<path id="矩形_00000054225615718064159110000016214176090533453972_" class="st33" d="M211.7,30.9L211.7,30.9
				c0.3,0.2,0.2,0.5-0.1,0.7l-0.6,0.3c-0.3,0.2-0.9,0.2-1.1,0.1l0,0c-0.3-0.2-0.2-0.5,0.1-0.7l0.6-0.3
				C210.9,30.8,211.4,30.8,211.7,30.9z"/>
		</g>
	</g>
	<g>
		<g>
			<polygon class="st30" points="241.3,55.2 232.6,50.2 232.6,41.5 241.3,46.5 			"/>
			<polygon class="st31" points="241.3,55.2 249.9,50.2 249.9,41.5 241.3,46.5 			"/>
			<polygon class="st32" points="241.3,46.6 232.6,41.5 241.2,36.5 249.9,41.5 			"/>
			<path id="矩形_00000020375402484617922690000012931421619240132262_" class="st33" d="M238.5,39.4L238.5,39.4
				c0.2,0.1,0.1,0.3-0.1,0.4l-1.8,1.1c-0.2,0.1-0.5,0.1-0.7,0l0,0c-0.2-0.1-0.1-0.3,0.1-0.4l1.8-1.1C238,39.3,238.3,39.3,238.5,39.4
				z"/>
			<path id="矩形_00000053538349732239743190000006144675485963745674_" class="st33" d="M235.5,41.1L235.5,41.1
				c0.2,0.1,0.1,0.3-0.1,0.4l-0.3,0.2c-0.2,0.1-0.5,0.1-0.7,0l0,0c-0.2-0.1-0.1-0.3,0.1-0.4l0.3-0.2C235,41,235.3,41,235.5,41.1z"/>
		</g>
	</g>
	<g>
		<g>
			<polygon class="st30" points="229.6,36.4 219.6,30.7 219.6,20.8 229.6,26.5 			"/>
			<polygon class="st31" points="229.6,36.4 239.5,30.7 239.5,20.8 229.6,26.5 			"/>
			<polygon class="st32" points="229.6,26.5 219.6,20.8 229.5,15 239.5,20.8 			"/>
			<path id="矩形_00000073718198991904307960000001898343469005815220_" class="st33" d="M226.4,18.3L226.4,18.3
				c0.2,0.1,0.2,0.3-0.1,0.5l-2.1,1.2c-0.2,0.1-0.6,0.2-0.8,0l0,0c-0.2-0.1-0.2-0.3,0.1-0.5l2.1-1.2
				C225.8,18.2,226.2,18.2,226.4,18.3z"/>
			<path id="矩形_00000112624914673959862620000003745008184931124639_" class="st33" d="M223,20.3L223,20.3
				c0.2,0.1,0.2,0.3-0.1,0.5l-0.4,0.2c-0.2,0.1-0.6,0.2-0.8,0l0,0c-0.2-0.1-0.2-0.3,0.1-0.5l0.4-0.2C222.4,20.2,222.8,20.2,223,20.3
				z"/>
		</g>
	</g>
	<g>
		<g>
			<path class="st28" d="M288.6,265.1V348l-12.4,7.1l-19.8-32.3l-0.3,0.2v43.5l-14.9,8.5v-82.8l12.6-7.2l19.5,32.3l0.4-0.2v-43.4
				L288.6,265.1z"/>
			<polygon class="st28" points="297.3,366.4 276.2,355 277.2,334.3 277.5,334.1 			"/>
			<path class="st34" d="M309.7,276.5v82.8l-12.4,7.1l-19.8-32.3l-0.3,0.2v43.5l-14.9,8.5v-82.8l12.6-7.2l19.5,32.3l0.4-0.2v-43.4
				L309.7,276.5z"/>
			<polygon class="st28" points="253.9,284.9 275,296.2 262.3,303.4 241.3,292.1 			"/>
			<polygon class="st28" points="262.3,386.3 262.3,303.4 241.3,292.1 241.3,374.9 			"/>
			<polygon class="st28" points="288.6,265.1 309.7,276.5 294.8,284.9 273.8,273.6 			"/>
			<polygon class="st28" points="294.8,328.3 294.8,284.9 273.8,273.6 273.8,295.6 275,296.2 294.4,328.5 			"/>
		</g>
		<g>
			<path class="st28" d="M246.3,321.5l-21.1-11.3l0,0c-0.9-0.5-1.9-0.9-2.9-1.1c-4-1-8.5,0-13.5,2.8c-5,2.8-9.5,7-13.5,12.6
				c-4,5.5-7.2,12.1-9.6,19.8c-2.4,7.7-3.5,16.1-3.5,25.3c0,9.2,1.2,16.2,3.5,21.2c1.7,3.6,3.8,6.1,6.4,7.6l-0.1,0l21.1,11.3
				l15.1-8.4l-14.5-7.8c3-2.5,5.9-5.5,8.5-9.1c4-5.5,7.2-12.1,9.6-19.8c2.4-7.7,3.6-16.1,3.6-25.3c0-4.2-0.3-8-0.8-11.3L246.3,321.5
				z"/>
			<polygon class="st28" points="241.3,337.3 246.3,370.2 228.3,397.9 211.6,391.2 210.8,374.8 229.9,335.7 			"/>
			<path class="st34" d="M256.6,350.6c0,9.2-1.2,17.7-3.6,25.3c-2.4,7.7-5.6,14.3-9.6,19.8c-4,5.5-8.5,9.7-13.5,12.5
				c-5,2.8-9.5,3.8-13.5,2.8c-4-1-7.2-4-9.6-9c-2.4-5-3.5-12.1-3.5-21.2c0-9.2,1.2-17.7,3.5-25.3c2.4-7.7,5.6-14.3,9.6-19.8
				c4-5.5,8.5-9.7,13.5-12.6c5-2.8,9.4-3.7,13.5-2.8c4,1,7.2,3.9,9.6,8.9C255.4,334.3,256.6,341.4,256.6,350.6z M241.3,359.3
				c0-5-0.4-8.9-1.3-11.8c-0.9-2.9-2.1-4.8-3.8-5.6c-1.7-0.8-3.8-0.5-6.2,0.9c-2.5,1.4-4.5,3.5-6.2,6.2c-1.7,2.7-3,6-3.8,9.9
				c-0.9,3.9-1.3,8.3-1.3,13.3c0,5,0.4,8.9,1.3,11.8c0.9,2.9,2.1,4.8,3.8,5.6c1.7,0.8,3.8,0.5,6.2-0.9c2.5-1.4,4.5-3.5,6.2-6.2
				c1.7-2.7,3-6,3.8-9.9C240.8,368.7,241.3,364.3,241.3,359.3z"/>
		</g>
		<g>
			<path class="st28" d="M188.4,352.5l-21.1-11.3l0,0c-0.9-0.5-1.9-0.9-2.9-1.1c-4-1-8.5,0-13.5,2.8c-5,2.8-9.5,7-13.5,12.6
				c-4,5.5-7.2,12.1-9.6,19.8c-2.4,7.7-3.5,16.1-3.5,25.3c0,9.2,1.2,16.2,3.5,21.2c1.7,3.6,3.8,6.1,6.4,7.6l-0.1,0l21.1,11.3
				l15.1-8.4l-14.5-7.8c3-2.5,5.9-5.5,8.5-9.1c4-5.5,7.2-12.1,9.6-19.8c2.4-7.7,3.6-16.1,3.6-25.3c0-4.2-0.3-8-0.8-11.3L188.4,352.5
				z"/>
			<polygon class="st28" points="183.3,368.3 188.4,401.2 170.4,428.9 153.6,422.3 152.8,405.8 172,366.7 			"/>
			<path class="st34" d="M198.6,381.7c0,9.2-1.2,17.7-3.6,25.3c-2.4,7.7-5.6,14.3-9.6,19.8c-4,5.5-8.5,9.7-13.5,12.5
				c-5,2.8-9.5,3.8-13.5,2.8c-4-1-7.2-4-9.6-9c-2.4-5-3.5-12.1-3.5-21.2c0-9.2,1.2-17.7,3.5-25.3c2.4-7.7,5.6-14.3,9.6-19.8
				c4-5.5,8.5-9.7,13.5-12.6c5-2.8,9.4-3.7,13.5-2.8c4,1,7.2,3.9,9.6,8.9C197.4,365.3,198.6,372.4,198.6,381.7z M183.3,390.3
				c0-5-0.4-8.9-1.3-11.8c-0.9-2.9-2.1-4.8-3.8-5.6c-1.7-0.8-3.8-0.5-6.2,0.9s-4.5,3.5-6.2,6.2c-1.7,2.7-3,6-3.8,9.9
				c-0.9,3.9-1.3,8.3-1.3,13.3c0,5,0.4,8.9,1.3,11.8c0.9,2.9,2.1,4.8,3.8,5.6c1.7,0.8,3.8,0.5,6.2-0.9s4.5-3.5,6.2-6.2
				c1.7-2.7,3-6,3.8-9.9C182.9,399.7,183.3,395.3,183.3,390.3z"/>
		</g>
		<g>
			<path class="st28" d="M121.2,423l14.1-8l-21.1-11.3l0,0c-1-0.6-2.1-1-3.4-1.2c-1.1-0.2-2.2-0.2-3.5-0.1l1.2-6.1l17.7,9.8
				l9.4-10.9l-9.7-9.4l8-4.6l-21.1-11.3l0,0c-1.1-0.6-2.2-1-3.5-1.2c-3.2-0.4-7,0.7-11.5,3.2c-4.3,2.5-8.2,5.8-11.5,9.9
				c-3.3,4.1-6,8.7-7.8,13.7c-1.9,5-2.8,10.2-2.8,15.4c0,6.5,1.4,10.8,4.2,12.9c0.4,0.3,0.8,0.6,1.3,0.8l0,0l20.3,10.9
				c-1,1.1-2.3,2.1-3.7,2.9c-1.9,1.1-3.5,1.6-4.9,1.4c-1.4-0.1-2.4-0.8-3.2-2.1c-0.7-1.3-1.2-3.2-1.3-5.7l-14.1,8c0,6.9,1,12,3,15.4
				c1.3,2.2,2.9,3.7,4.9,4.5l20.1,10.8l18.5-10.5l-15.8-8.5c0.5-0.5,1.1-0.9,1.6-1.4l15,7.2l12.3-23.2l-14.5-7.1
				c0.3-1.6,0.5-3.2,0.6-4.8L121.2,423z M109.3,392.3l3.5-2l0.3,0.2l-4,2.3L109.3,392.3z"/>
			<path class="st34" d="M126.2,406c-0.1-2.6-0.8-4.3-2-5.2c-1.2-0.8-3-0.6-5.4,0.8c-1.5,0.9-2.8,1.9-3.8,3c-1,1.1-1.7,2.3-2.2,3.5
				c-0.5,1.2-0.7,2.4-0.7,3.6c0,1,0.1,1.8,0.4,2.5c0.3,0.6,0.7,1.1,1.3,1.4c0.6,0.3,1.4,0.4,2.3,0.4c0.9,0,2.1-0.2,3.4-0.5l4.5-1.1
				c3-0.8,5.6-0.9,7.8-0.6c2.2,0.4,3.9,1.2,5.3,2.6c1.4,1.4,2.4,3.2,3,5.5c0.7,2.3,1,5,1,8.2c0,5.5-0.9,10.6-2.7,15.4
				c-1.8,4.8-4.3,9.1-7.6,13c-3.3,3.8-7.3,7.1-11.9,9.7c-4.8,2.7-8.9,4-12.4,3.9c-3.5-0.1-6.3-1.8-8.2-5.2c-2-3.3-2.9-8.4-3-15.4
				l14.1-8c0.1,2.5,0.5,4.4,1.3,5.7c0.7,1.3,1.8,2,3.2,2.1c1.4,0.1,3-0.4,4.9-1.4c1.6-0.9,2.9-2,4-3.2c1.1-1.2,1.9-2.5,2.4-3.9
				c0.6-1.4,0.8-2.7,0.9-4.1c0-1.3-0.3-2.2-0.8-2.9c-0.5-0.7-1.4-1-2.6-1.1c-1.2-0.1-2.8,0.1-4.8,0.6l-5.5,1.3
				c-4.8,1.2-8.7,0.7-11.5-1.5c-2.8-2.1-4.2-6.5-4.2-12.9c0-5.2,0.9-10.4,2.8-15.4c1.9-5,4.5-9.6,7.8-13.7c3.3-4.1,7.2-7.4,11.5-9.9
				c4.4-2.5,8.2-3.6,11.5-3.2c3.2,0.4,5.7,2.1,7.5,5.2c1.8,3.1,2.6,7.3,2.7,12.7L126.2,406z"/>
			<polygon class="st28" points="88.3,432 109.4,443.4 95.3,451.4 74.2,440.1 			"/>
		</g>
	</g>
	<g>
		<g>
			<polygon class="st30" points="291.4,429.6 271.1,417.9 271.1,397.6 291.4,409.3 			"/>
			<polygon class="st31" points="291.4,429.6 311.8,417.9 311.8,397.6 291.4,409.3 			"/>
			<polygon class="st32" points="291.5,409.4 271.1,397.6 291.4,385.8 311.8,397.6 			"/>
			<path id="矩形_00000072281721856141253540000007847949511359823806_" class="st33" d="M284.7,392.9L284.7,392.9
				c0.4,0.2,0.3,0.7-0.1,0.9l-4.2,2.5c-0.5,0.3-1.2,0.3-1.6,0.1l0,0c-0.4-0.2-0.3-0.7,0.1-0.9l4.2-2.5
				C283.6,392.7,284.3,392.6,284.7,392.9z"/>
			<path id="矩形_00000099644182596904953320000003937898140704892549_" class="st33" d="M277.7,396.9L277.7,396.9
				c0.4,0.2,0.3,0.7-0.1,0.9l-0.8,0.5c-0.5,0.3-1.2,0.3-1.6,0.1l0,0c-0.4-0.2-0.3-0.7,0.1-0.9l0.8-0.5
				C276.6,396.7,277.3,396.7,277.7,396.9z"/>
		</g>
	</g>
	<g>
		<g>
			<polygon class="st30" points="284.2,400.5 269.7,392.1 269.7,377.5 284.2,385.9 			"/>
			<polygon class="st31" points="284.2,400.5 298.8,392.1 298.8,377.5 284.2,385.9 			"/>
			<polygon class="st32" points="284.3,386 269.7,377.5 284.2,369.1 298.8,377.5 			"/>
			<path id="矩形_00000027599075167857702110000000589307131765614740_" class="st33" d="M279.6,373.9L279.6,373.9
				c0.3,0.2,0.2,0.5-0.1,0.7l-3,1.8c-0.3,0.2-0.9,0.2-1.2,0.1l0,0c-0.3-0.2-0.2-0.5,0.1-0.7l3-1.8
				C278.8,373.8,279.3,373.8,279.6,373.9z"/>
			<path id="矩形_00000130633899603248878970000003140020367730641081_" class="st33" d="M274.6,376.8L274.6,376.8
				c0.3,0.2,0.2,0.5-0.1,0.7l-0.6,0.3c-0.3,0.2-0.9,0.2-1.2,0.1l0,0c-0.3-0.2-0.2-0.5,0.1-0.7l0.6-0.3
				C273.8,376.7,274.3,376.7,274.6,376.8z"/>
		</g>
	</g>
	<g>
		<polygon class="st29" points="192.2,426.1 223.4,407 223.4,438.1 193.1,456.7 198.1,438.4 		"/>
		<line class="st29" x1="223.1" y1="416.3" x2="223.1" y2="458.4"/>
		<g>
			<g>
				<path class="st55" d="M205,443.3l-2.1,1.3v-5.9l2-1.3c0.4-0.2,0.6-0.2,0.8-0.1c0.2,0.2,0.3,0.5,0.3,0.9c0,0.4-0.1,0.7-0.2,1
					c-0.1,0.3-0.3,0.6-0.5,0.7c0.2-0.1,0.4,0,0.5,0.2c0.1,0.2,0.2,0.5,0.2,0.8c0,0.5-0.1,0.9-0.3,1.3
					C205.7,442.8,205.4,443.1,205,443.3z M204.8,439.9c0.1-0.1,0.2-0.2,0.3-0.4c0.1-0.2,0.1-0.3,0.1-0.5c0-0.2,0-0.3-0.1-0.4
					c-0.1-0.1-0.2-0.1-0.3,0l-1,0.6v1.3L204.8,439.9z M204.8,442.4c0.2-0.1,0.3-0.2,0.4-0.4c0.1-0.2,0.1-0.4,0.1-0.6
					c0-0.2,0-0.3-0.1-0.4c-0.1-0.1-0.2-0.1-0.4,0l-1.1,0.7v1.4L204.8,442.4z"/>
				<path class="st55" d="M210.7,433.1c-0.6,0.4-1.1,0.4-1.5,0c-0.4-0.3-0.6-0.9-0.6-1.9c0-0.9,0.2-1.8,0.6-2.6
					c0.4-0.8,0.9-1.4,1.5-1.7c0.7-0.4,1.2-0.3,1.6,0.3l-0.7,1c-0.1-0.2-0.2-0.3-0.4-0.3c-0.2,0-0.3,0-0.5,0.1
					c-0.4,0.2-0.6,0.6-0.9,1.1c-0.2,0.5-0.3,1-0.3,1.6c0,0.6,0.1,1,0.3,1.2c0.2,0.2,0.5,0.2,0.9,0c0.2-0.1,0.3-0.2,0.5-0.4
					c0.2-0.2,0.3-0.4,0.4-0.5v-0.7l-1,0.6v-1.1l1.8-1.1v2.3C211.9,432,211.3,432.7,210.7,433.1z"/>
				<path class="st55" d="M216.9,423.1l-1.5,0.9v-5.9l1.5-0.9c0.6-0.4,1.1-0.4,1.5-0.1c0.4,0.3,0.6,0.9,0.6,1.8s-0.2,1.7-0.6,2.5
					C218,422.1,217.5,422.7,216.9,423.1z M216.9,422c0.4-0.2,0.7-0.6,0.9-1.1c0.2-0.5,0.3-1,0.3-1.5c0-0.5-0.1-0.9-0.3-1.1
					c-0.2-0.2-0.5-0.2-0.9,0l-0.7,0.4v3.7L216.9,422z"/>
			</g>
		</g>
	</g>
	<g>
		
			<radialGradient id="SVGID_00000073719042404450301470000015276464434588064172_" cx="252.4853" cy="483.7962" r="13.9173" gradientTransform="matrix(1 0 0 0.5898 0 198.4565)" gradientUnits="userSpaceOnUse">
			<stop  offset="0" style="stop-color:#B8B2D6"/>
			<stop  offset="0.3457" style="stop-color:#BAB5D7;stop-opacity:0.6543"/>
			<stop  offset="0.6064" style="stop-color:#C2BFDC;stop-opacity:0.3936"/>
			<stop  offset="0.8384" style="stop-color:#CECFE3;stop-opacity:0.1616"/>
			<stop  offset="1" style="stop-color:#DBDFEB;stop-opacity:0"/>
		</radialGradient>
		<path style="opacity:0.67;fill:url(#SVGID_00000073719042404450301470000015276464434588064172_);" d="M264.4,477.1
			c-6.5-3.8-17.2-3.8-23.8-0.1s-6.6,9.8-0.1,13.5c6.5,3.8,17.2,3.8,23.8,0.1C270.9,486.9,270.9,480.8,264.4,477.1z"/>
		<path class="st34" d="M278.5,451.4c0,0-1.4,3.7-4.5,4c-2.6-5.4-10.9-9.4-20.8-9.4c-12,0-21.6,5.8-21.6,13c0,0.9,0.1,1.7,0.4,2.5h0
			c2,8.5,11.4,15.3,21.2,15.3c9.7,0,20-6.9,21.3-15.4C277.4,459.8,280,456.4,278.5,451.4z"/>
		<ellipse class="st29" cx="252.5" cy="459.1" rx="18" ry="10.4"/>
		<path class="st34" d="M278,447.1c0-0.1,0-0.2,0-0.2c0-0.3,0-0.6-0.1-1c-0.8-12.6-11.3-22.5-24.1-22.5c-12.8,0-23.2,9.9-24.1,22.5
			c0,0.3-0.1,0.6-0.1,1c0,0.1,0,0.2,0,0.2c0,0.1,0,0.3,0,0.4h0c0.6,7.7,11.1,13.8,24.1,13.8c13,0,23.5-6.1,24.1-13.8h0
			C278,447.4,278,447.3,278,447.1z"/>
		<g>
			<path class="st53" d="M235.9,450.5c-0.3,0-0.6-0.3-0.6-0.6c0-0.9,0.4-1.4,0.7-1.7c0.3-0.3,0.4-0.5,0.4-1c0-0.5-0.2-0.7-0.4-1
				c-0.3-0.4-0.7-0.8-0.7-1.7c0-0.9,0.4-1.4,0.7-1.7c0.3-0.3,0.4-0.5,0.4-1c0-0.5-0.2-0.7-0.4-1c-0.3-0.4-0.7-0.8-0.7-1.7
				c0-0.9,0.4-1.4,0.7-1.7c0.3-0.3,0.4-0.5,0.4-1c0-0.3,0.3-0.6,0.6-0.6c0.3,0,0.6,0.3,0.6,0.6v0c0,0.9-0.4,1.4-0.7,1.7
				c-0.3,0.3-0.4,0.5-0.4,1s0.2,0.7,0.4,1c0.3,0.4,0.7,0.8,0.7,1.7c0,0.9-0.4,1.4-0.7,1.7c-0.3,0.3-0.4,0.5-0.4,1s0.2,0.7,0.4,1
				c0.3,0.4,0.7,0.8,0.7,1.7c0,0.9-0.4,1.4-0.7,1.7c-0.3,0.3-0.4,0.5-0.4,1C236.5,450.3,236.3,450.5,235.9,450.5z"/>
		</g>
		<g>
			<path class="st53" d="M247.2,454.6c-0.3,0-0.6-0.3-0.6-0.6c0-0.9,0.4-1.4,0.7-1.7c0.3-0.3,0.4-0.5,0.4-1s-0.2-0.7-0.4-1
				c-0.3-0.4-0.7-0.8-0.7-1.7c0-0.9,0.4-1.4,0.7-1.7c0.3-0.3,0.4-0.5,0.4-1c0-0.5-0.2-0.7-0.4-1c-0.3-0.4-0.7-0.8-0.7-1.7
				c0-0.9,0.4-1.4,0.7-1.7c0.3-0.3,0.4-0.5,0.4-1c0-0.3,0.3-0.6,0.6-0.6c0.3,0,0.6,0.3,0.6,0.6v0c0,0.9-0.4,1.4-0.7,1.7
				c-0.3,0.3-0.4,0.5-0.4,1s0.2,0.7,0.4,1c0.3,0.4,0.7,0.8,0.7,1.7c0,0.9-0.4,1.4-0.7,1.7c-0.3,0.3-0.4,0.5-0.4,1
				c0,0.5,0.2,0.7,0.4,1c0.3,0.4,0.7,0.8,0.7,1.7c0,0.9-0.4,1.4-0.7,1.7c-0.3,0.3-0.4,0.5-0.4,1
				C247.8,454.3,247.6,454.6,247.2,454.6z"/>
		</g>
	</g>
	<g>
		<polygon class="st40" points="64.2,351.2 53.3,343.8 27.3,358.5 27.3,417.2 64.2,396.2 		"/>
		<polygon class="st41" points="60.5,364.5 31,381.2 31,382.9 60.5,366.2 		"/>
		<polygon class="st41" points="60.5,369.5 31,386.3 31,387.9 60.5,371.2 		"/>
		<polygon class="st41" points="60.5,374.9 31,391.6 31,393.3 60.5,376.6 		"/>
		<polygon class="st41" points="60.5,380.9 31,397.6 31,399.3 60.5,382.6 		"/>
		<polygon class="st41" points="60.5,359.7 31,376.4 31,378.1 60.5,361.4 		"/>
		<polygon class="st42" points="21.7,355.4 27.3,358.4 27.3,417.2 21.7,414.2 		"/>
		<polygon class="st43" points="53.2,343.6 47.2,340.5 21.7,355.4 27.3,358.4 		"/>
		<polygon class="st40" points="64.2,351.2 53.2,357.6 53.2,343.6 		"/>
	</g>
	<g>
		<g>
			<polygon class="st30" points="57.5,433.9 44.5,426.4 44.5,413.4 57.5,420.9 			"/>
			<polygon class="st31" points="57.5,433.9 70.6,426.4 70.6,413.4 57.5,420.9 			"/>
			<polygon class="st32" points="57.6,420.9 44.5,413.4 57.5,405.8 70.6,413.3 			"/>
			<path id="矩形_00000008142280684812567530000010623723281462969255_" class="st33" d="M53.4,410.1L53.4,410.1
				c0.3,0.1,0.2,0.4-0.1,0.6l-2.7,1.6c-0.3,0.2-0.8,0.2-1,0.1l0,0c-0.3-0.1-0.2-0.4,0.1-0.6l2.7-1.6C52.6,410,53.1,410,53.4,410.1z"
				/>
			<path id="矩形_00000054973064257311562200000017469559572640403379_" class="st33" d="M48.9,412.7L48.9,412.7
				c0.3,0.1,0.2,0.4-0.1,0.6l-0.5,0.3c-0.3,0.2-0.8,0.2-1,0.1l0,0c-0.3-0.1-0.2-0.4,0.1-0.6l0.5-0.3
				C48.1,412.6,48.6,412.6,48.9,412.7z"/>
		</g>
	</g>
	<g>
		<g>
			<polygon class="st30" points="45.4,443.8 36.7,438.8 36.7,430.1 45.4,435.1 			"/>
			<polygon class="st31" points="45.4,443.8 54,438.8 54,430.1 45.4,435.1 			"/>
			<polygon class="st32" points="45.4,435.2 36.7,430.1 45.3,425.1 54,430.1 			"/>
			<path id="矩形_00000183956194746798051080000010616921074252595588_" class="st33" d="M42.6,428L42.6,428
				c0.2,0.1,0.1,0.3-0.1,0.4l-1.8,1.1c-0.2,0.1-0.5,0.1-0.7,0l0,0c-0.2-0.1-0.1-0.3,0.1-0.4l1.8-1.1C42.1,427.9,42.4,427.9,42.6,428
				z"/>
			<path id="矩形_00000109746713186831695940000008591165935873512076_" class="st33" d="M39.6,429.7L39.6,429.7
				c0.2,0.1,0.1,0.3-0.1,0.4l-0.3,0.2c-0.2,0.1-0.5,0.1-0.7,0l0,0c-0.2-0.1-0.1-0.3,0.1-0.4l0.3-0.2
				C39.1,429.6,39.4,429.6,39.6,429.7z"/>
		</g>
	</g>
</g>
</svg>
