<?xml version="1.0" encoding="utf-8"?>
<!-- Generator: Adobe Illustrator 27.9.0, SVG Export Plug-In . SVG Version: 6.00 Build 0)  -->
<svg version="1.1" id="Слой_1" xmlns="http://www.w3.org/2000/svg" xmlns:xlink="http://www.w3.org/1999/xlink" x="0px" y="0px"
	 viewBox="0 0 1000 441.3" style="enable-background:new 0 0 1000 441.3;" xml:space="preserve">
<style type="text/css">
	.st0{fill:#4A5479;stroke:#000000;stroke-linecap:round;stroke-linejoin:round;stroke-miterlimit:10;}
	.st1{stroke:#000000;stroke-linecap:round;stroke-linejoin:round;stroke-miterlimit:10;}
	.st2{fill-rule:evenodd;clip-rule:evenodd;stroke:#000000;stroke-linecap:round;stroke-linejoin:round;stroke-miterlimit:10;}
	
		.st3{fill-rule:evenodd;clip-rule:evenodd;fill:#6D75A2;stroke:#000000;stroke-linecap:round;stroke-linejoin:round;stroke-miterlimit:10;}
	
		.st4{fill-rule:evenodd;clip-rule:evenodd;fill:#4A5479;stroke:#000000;stroke-linecap:round;stroke-linejoin:round;stroke-miterlimit:10;}
	.st5{fill-rule:evenodd;clip-rule:evenodd;fill:#5C6A91;}
	.st6{fill:#6D75A2;stroke:#000000;stroke-linecap:round;stroke-linejoin:round;stroke-miterlimit:10;}
	
		.st7{fill-rule:evenodd;clip-rule:evenodd;fill:#9EA8D8;stroke:#000000;stroke-linecap:round;stroke-linejoin:round;stroke-miterlimit:10;}
	.st8{fill:url(#SVGID_1_);stroke:#1D1D1B;stroke-linecap:round;stroke-linejoin:round;stroke-miterlimit:10;}
	.st9{opacity:0.67;fill:url(#SVGID_00000070103833392538756700000002245860273922310322_);}
	
		.st10{fill:url(#SVGID_00000060029992321489516840000009844104972107238581_);stroke:#1D1D1B;stroke-linecap:round;stroke-linejoin:round;stroke-miterlimit:10;}
	
		.st11{fill:url(#SVGID_00000000944476177421350950000012253218341609076353_);stroke:#1D1D1B;stroke-linecap:round;stroke-linejoin:round;stroke-miterlimit:10;}
	
		.st12{fill-rule:evenodd;clip-rule:evenodd;fill:#4AA089;stroke:url(#SVGID_00000109739908458482838450000013447406559406355863_);stroke-linecap:round;stroke-linejoin:round;stroke-miterlimit:10;}
	.st13{fill-rule:evenodd;clip-rule:evenodd;fill:#00D7B1;}
	.st14{fill-rule:evenodd;clip-rule:evenodd;fill:#FF3981;}
	
		.st15{fill-rule:evenodd;clip-rule:evenodd;fill:#CB3D61;stroke:#000000;stroke-linecap:round;stroke-linejoin:round;stroke-miterlimit:10;}
	.st16{opacity:0.67;fill:url(#SVGID_00000093136587871772194360000006713896529530838419_);}
	.st17{fill:#9EA8D8;stroke:#000000;stroke-linecap:round;stroke-linejoin:round;stroke-miterlimit:10;}
	.st18{fill:#6D75A2;}
	.st19{opacity:0.67;fill:url(#SVGID_00000000213613771800868670000017464048740891023746_);}
	.st20{opacity:0.2563;fill-rule:evenodd;clip-rule:evenodd;fill:#FFFFFF;enable-background:new    ;}
	.st21{opacity:0.67;fill:url(#SVGID_00000075864590574101201610000017516732000650196099_);}
	.st22{fill:#00ABBF;}
	.st23{fill:url(#SVGID_00000145748593619708452660000004559767649245034158_);}
	.st24{fill-rule:evenodd;clip-rule:evenodd;fill:#56506B;}
	.st25{fill-rule:evenodd;clip-rule:evenodd;fill:#FFFFFF;}
	.st26{fill-rule:evenodd;clip-rule:evenodd;fill:#AEAEB0;}
	.st27{fill-rule:evenodd;clip-rule:evenodd;fill:#D2D2D2;}
	.st28{fill:#EAEFFC;stroke:#101423;stroke-linecap:round;stroke-linejoin:round;stroke-miterlimit:10;}
	.st29{fill:#101423;stroke:#101423;stroke-linecap:round;stroke-linejoin:round;stroke-miterlimit:10;}
	
		.st30{fill-rule:evenodd;clip-rule:evenodd;fill:#C6C2D1;stroke:#0F1321;stroke-linecap:round;stroke-linejoin:round;stroke-miterlimit:10;}
	
		.st31{fill-rule:evenodd;clip-rule:evenodd;fill:#FFFFFF;stroke:#101423;stroke-linecap:round;stroke-linejoin:round;stroke-miterlimit:10;}
	
		.st32{fill-rule:evenodd;clip-rule:evenodd;fill:#EAEFFC;stroke:#101423;stroke-linecap:round;stroke-linejoin:round;stroke-miterlimit:10;}
	.st33{opacity:0.92;fill-rule:evenodd;clip-rule:evenodd;fill:#FFFFFF;enable-background:new    ;}
	.st34{fill:#FFFFFF;stroke:#101423;stroke-linecap:round;stroke-linejoin:round;stroke-miterlimit:10;}
	.st35{fill-rule:evenodd;clip-rule:evenodd;fill:#0F1423;}
	
		.st36{fill:url(#SVGID_00000029028885768313711390000015813632168992694195_);stroke:#1D1D1B;stroke-linecap:round;stroke-linejoin:round;stroke-miterlimit:10;}
	.st37{fill:#C6C2D1;stroke:#0F1321;stroke-linecap:round;stroke-linejoin:round;stroke-miterlimit:10;}
	.st38{opacity:0.67;fill:url(#SVGID_00000091721860804222580470000000135865726370754231_);}
	.st39{fill:#0F1423;}
	
		.st40{fill-rule:evenodd;clip-rule:evenodd;fill:#FFFFFF;stroke:#111422;stroke-linecap:round;stroke-linejoin:round;stroke-miterlimit:10;}
	
		.st41{fill-rule:evenodd;clip-rule:evenodd;fill:#101422;stroke:#101423;stroke-linecap:round;stroke-linejoin:round;stroke-miterlimit:10;}
	
		.st42{fill-rule:evenodd;clip-rule:evenodd;fill:#C6C3D1;stroke:#101320;stroke-linecap:round;stroke-linejoin:round;stroke-miterlimit:10;}
	
		.st43{fill-rule:evenodd;clip-rule:evenodd;fill:#ECF0FC;stroke:#111422;stroke-linecap:round;stroke-linejoin:round;stroke-miterlimit:10;}
	.st44{opacity:0.67;fill:url(#SVGID_00000027591753570532251130000012129233093115395258_);}
	.st45{fill:url(#SVGID_00000159472399823373056190000012482947569083377542_);}
	
		.st46{fill:url(#SVGID_00000113350187271754327090000010795695871907394209_);stroke:#1D1D1B;stroke-linecap:round;stroke-linejoin:round;stroke-miterlimit:10;}
	.st47{fill-rule:evenodd;clip-rule:evenodd;fill:#101422;}
	
		.st48{fill:url(#SVGID_00000151509377871741805040000013662461027007870615_);stroke:#1D1D1B;stroke-linecap:round;stroke-linejoin:round;stroke-miterlimit:10;}
	
		.st49{fill-rule:evenodd;clip-rule:evenodd;fill:#B6FFF0;stroke:#0F1321;stroke-linecap:round;stroke-linejoin:round;stroke-miterlimit:10;}
	
		.st50{fill-rule:evenodd;clip-rule:evenodd;fill:#101423;stroke:#101423;stroke-linecap:round;stroke-linejoin:round;stroke-miterlimit:10;}
	
		.st51{fill-rule:evenodd;clip-rule:evenodd;fill:#FFC6D6;stroke:#101423;stroke-linecap:round;stroke-linejoin:round;stroke-miterlimit:10;}
	.st52{opacity:0.67;fill:url(#SVGID_00000101064685511129332040000005882672250284751490_);}
	.st53{fill:#1D1D1B;}
	.st54{fill:#101423;stroke:#101423;stroke-width:2;stroke-linecap:round;stroke-linejoin:round;stroke-miterlimit:10;}
	.st55{fill:#FFFFFF;}
	.st56{opacity:0.67;fill:url(#SVGID_00000146470794512885670120000008809665248753102000_);}
	
		.st57{fill:url(#SVGID_00000155113126685578471020000007758248183295138949_);stroke:#1D1D1B;stroke-linecap:round;stroke-linejoin:round;stroke-miterlimit:10;}
	
		.st58{fill:url(#SVGID_00000173137829618079806310000017407415671221698475_);stroke:#1D1D1B;stroke-linecap:round;stroke-linejoin:round;stroke-miterlimit:10;}
	.st59{opacity:0.67;fill:url(#SVGID_00000004539052737052055350000002213026787865557690_);}
	.st60{opacity:0.67;fill:url(#SVGID_00000178169241114621268710000009792456581800765345_);}
	.st61{fill:url(#SVGID_00000012451471301464062050000000568356722353922230_);}
	.st62{opacity:0.67;fill:url(#SVGID_00000168798881895078076860000011342795570290100396_);}
	.st63{opacity:0.67;fill:url(#SVGID_00000052092274937853353690000014309517154521874334_);}
	
		.st64{fill:url(#SVGID_00000128457563943041911830000011892396761391210662_);stroke:#1D1D1B;stroke-linecap:round;stroke-linejoin:round;stroke-miterlimit:10;}
	
		.st65{fill:url(#SVGID_00000014617627035038167120000001619186233790279319_);stroke:#1D1D1B;stroke-linecap:round;stroke-linejoin:round;stroke-miterlimit:10;}
	.st66{opacity:0.67;fill:url(#SVGID_00000109741228792273541250000009568855810064410045_);}
	.st67{opacity:0.67;fill:url(#SVGID_00000050627677686951979590000013256321075148517563_);}
	.st68{fill:url(#SVGID_00000018223967739899837960000008006229674090537876_);}
	.st69{opacity:0.67;fill:url(#SVGID_00000067208501127906414630000014850734710488453027_);}
	.st70{opacity:0.67;fill:url(#SVGID_00000079450615755669027770000008532920933405770684_);}
</style>
<g>
	<g>
		<path class="st28" d="M193.7,159.7l0.4,0.3l20.6-24l-15.3-32.3l-11.9,6.1c1.6-5.1,2.5-10.3,2.4-15.6c0-0.6,0-1.3,0-1.9l23.7-4.6
			l-32-16.7c-0.8-0.6-1.6-1.2-2.5-1.7c-2.3-1.2-4.9-1.9-7.9-2.1c-5.9-0.3-12.7,1.7-20.4,6.1c-7.9,4.5-14.8,10.5-20.9,18
			c-6.1,7.5-10.8,15.7-14.3,24.7c-3,7.7-4.7,15.4-5.1,23.3l-0.2,0.3v3.5l0.1,0.1c0,0,0,0,0,0l0,0l27.6,14.7v12.2l10.6-6.1
			c3-1.8,5.7-2.7,8.1-2.7c2.3,0,4.2,0.7,5.5,2.3c1.3,1.6,1.9,3.9,1.9,6.9c0,3-0.5,6.1-1.6,9.1c-1.1,3-2.7,5.8-4.7,8.3
			c-2,2.5-4.3,4.5-6.9,6c-2.7,1.6-5.1,2.3-7.2,2.3c-2.1-0.1-3.8-0.9-5-2.4c-1.2-1.6-1.8-3.8-1.9-6.6l-28.4,16.4
			c0,9.3,1.9,16.4,5.5,21.4c2.4,3.3,5.3,5.6,8.8,6.9l34.5,18.3l28.3-16.9L160.3,220c1.9-1.5,3.7-3,5.5-4.6l6,8.6l38.8-10.8l2.9-36.8
			l-21.9-3C192.8,168.8,193.5,164.3,193.7,159.7z M169,137.5c-0.1,0.1-0.3,0.1-0.4,0.2v-1.2c0.3-0.2,0.6-0.4,0.9-0.7L169,137.5z"/>
		<polygon class="st28" points="136.5,187 171.8,205.7 143.5,222.7 108.2,203.9 		"/>
		<polygon class="st28" points="172.9,160.8 159.5,153.7 145.3,161.9 137.9,157.9 137.9,170.2 172.9,188.8 		"/>
		<path class="st29" d="M185.5,245.3c-8.2,4.7-15.5,6.9-21.8,6.5c-6.3-0.4-11.3-3.1-15-8.2c-3.6-5-5.5-12.2-5.5-21.4l28.4-16.4
			c0,2.8,0.7,5,1.9,6.6c1.2,1.6,2.9,2.4,5,2.4c2.1,0.1,4.5-0.7,7.2-2.3c2.6-1.5,4.9-3.5,6.9-6c2-2.5,3.6-5.2,4.7-8.3
			c1.1-3,1.7-6.1,1.6-9.1c0-3-0.6-5.3-1.9-6.9c-1.3-1.6-3.1-2.3-5.5-2.3c-2.3,0-5,0.9-8.1,2.7l-10.6,6.1v-28l10.6-6.1
			c2.8-1.6,5.3-3.7,7.4-6.3c2.1-2.5,3.8-5.3,5-8.4c1.2-3,1.8-6,1.8-9c0-2.9-0.5-5.2-1.5-6.9c-1-1.6-2.4-2.6-4.2-2.8
			c-1.8-0.2-3.9,0.4-6.3,1.7c-2.6,1.5-4.9,3.5-6.9,5.9c-2,2.5-3.6,5.2-4.7,8.2c-1.2,3-1.7,6-1.8,9l-27,15.6c0-9.1,1.8-18.2,5.3-27.2
			c3.5-9,8.2-17.2,14.3-24.7c6.1-7.5,13-13.5,20.9-18c7.7-4.4,14.5-6.5,20.4-6.1c5.9,0.3,10.5,2.8,13.9,7.4c3.3,4.6,5,11.1,5,19.5
			c0.1,8.3-1.9,16.3-6,24c-4,7.7-9.2,13.8-15.4,18.3v1.2c8.4-3.5,14.7-3.5,18.9,0.1c4.2,3.6,6.3,10,6.2,19.2
			c0,8.7-1.8,17.5-5.5,26.4c-3.7,8.9-8.8,17.1-15.3,24.7C201.5,234.2,194,240.4,185.5,245.3z"/>
	</g>
	<g>
		<polygon class="st28" points="31.2,134.3 66.9,154.1 35,172.5 -0.7,152.7 		"/>
		<path class="st29" d="M66.9,154.1L88.3,247l0.8-0.5L110.4,129l31.9-18.4L108,279.7L69.3,302L35,172.5L66.9,154.1z"/>
		<polygon class="st28" points="-0.7,152.7 33.8,282.9 69.3,302 35,172.5 		"/>
		<polygon class="st28" points="89.1,246.6 88.3,247 66.5,156.2 75.1,110.3 110.4,129 		"/>
		<polygon class="st28" points="107,91.9 142.3,110.6 110.4,129 75.1,110.3 		"/>
	</g>
</g>
<g>
	<g>
		<polygon class="st30" points="617,371.4 609.5,367 609.5,359.5 617,363.9 		"/>
		<polygon class="st31" points="617,371.4 624.6,367 624.6,359.5 617,363.9 		"/>
		<polygon class="st32" points="617.1,363.9 609.5,359.5 617,355.2 624.6,359.5 		"/>
		<path id="矩形_00000048477147529962135870000009461700797794406827_" class="st33" d="M614.7,357.7L614.7,357.7
			c0.1,0.1,0.1,0.2-0.1,0.3l-1.6,0.9c-0.2,0.1-0.5,0.1-0.6,0l0,0c-0.1-0.1-0.1-0.2,0.1-0.3l1.6-0.9
			C614.2,357.6,614.5,357.6,614.7,357.7z"/>
		<path id="矩形_00000096031977507873128920000014267385905954949770_" class="st33" d="M612.1,359.2L612.1,359.2
			c0.1,0.1,0.1,0.2-0.1,0.3l-0.3,0.2c-0.2,0.1-0.5,0.1-0.6,0l0,0c-0.1-0.1-0.1-0.2,0.1-0.3l0.3-0.2
			C611.6,359.1,611.9,359.1,612.1,359.2z"/>
	</g>
</g>
<g>
	<g>
		<path class="st28" d="M427.2,124.4c-0.2-1.3-0.6-2.4-1.1-3.2c-0.5-0.8-1.1-1.4-1.9-1.7c-0.7-0.3-1.6-0.4-2.6-0.3
			c-1,0.2-2,0.6-3.2,1.2c-2.5,1.4-4.6,3.5-6.4,6.4c-1.8,2.8-3.1,6.2-4,10.1c-0.9,3.9-1.4,8.3-1.4,13.1c0,4.9,0.4,8.8,1.3,11.8
			c0.9,3,2.2,4.9,3.9,5.7c1.7,0.9,3.9,0.5,6.5-0.9c2.3-1.3,4.2-2.9,5.7-4.7c1.5-1.9,2.6-3.9,3.4-6.2c0.8-2.3,1.1-4.6,1.1-7.1l0,0
			l-10,6.1v-16.1l24.3-13.9v11.5c0,7.6-1.1,14.6-3.2,21.2c-2.1,6.6-5,12.3-8.7,17.3c-3.7,5-8,8.8-12.8,11.5c-5.3,3-10,4-14.1,2.9
			c-4-1.1-7.2-4.2-9.5-9.3c-2.3-5.1-3.4-12-3.4-20.8c0-6.9,0.7-13.4,2.1-19.4c1.4-6.1,3.3-11.7,5.8-16.7c2.5-5.1,5.3-9.5,8.6-13.2
			c3.2-3.7,6.7-6.6,10.4-8.7c3.3-1.9,6.3-2.9,9.1-3.1c2.8-0.2,5.3,0.4,7.4,1.7c2.2,1.3,3.9,3.4,5.2,6.1c1.3,2.7,2.1,6.1,2.4,10.1
			L427.2,124.4z"/>
		<path class="st28" d="M441.4,151.6c0.8-3.5,1.3-6.7,1.4-9.7l-15.1,8.4l-5.1,3.8l-0.6,10c-0.1,0.1-0.1,0.1-0.2,0.2
			c-0.4,0.4-0.7,0.7-1.1,1l-0.7-14.5l18.1-22.8l-4.1-3.4l8.7-5c0-0.2,0-0.3,0-0.5l12.4-8.7l-20.6-11c-1.2-0.7-4.5-1.9-7.4-1.7
			c-2.9,0.2-6.4,1.6-9.9,3.6c-4.9,2.8-8.9,7.3-12.9,12.8c-4,5.5-7.2,12.1-9.5,19.8c-2.4,7.7-3.5,16.2-3.5,25.4
			c0,9.2,1.2,16.3,3.5,21.4c2.1,4.5,8.2,8.7,8.2,8.7l19.6,9.8l16.6-6.9l-16.4-8.8c1.2-1,2.4-2,3.5-3.1l8.7,3.4l14.4-9.2l3.4-18.3
			l-9.2-4.7L441.4,151.6z"/>
		<polygon class="st28" points="464,136.1 442.9,124.7 418.6,138.6 439.7,149.9 		"/>
		<polygon class="st28" points="439.7,166 439.7,149.9 418.6,138.6 418.6,154.6 		"/>
		<path class="st34" d="M448.3,135.8c-0.2-1.3-0.6-2.4-1.1-3.2c-0.5-0.8-1.1-1.4-1.9-1.7c-0.7-0.3-1.6-0.4-2.6-0.3
			c-1,0.2-2,0.6-3.2,1.2c-2.5,1.4-4.6,3.5-6.4,6.4c-1.8,2.8-3.1,6.2-4,10.1c-0.9,3.9-1.4,8.3-1.4,13.1c0,4.9,0.4,8.8,1.3,11.8
			c0.9,3,2.2,4.9,3.9,5.7c1.7,0.9,3.9,0.5,6.5-0.9c2.3-1.3,4.2-2.9,5.7-4.7c1.5-1.9,2.6-3.9,3.4-6.2c0.8-2.3,1.1-4.6,1.1-7.1l0,0
			l-10,6.1v-16.1l24.3-13.9v11.5c0,7.6-1.1,14.6-3.2,21.2c-2.1,6.6-5,12.3-8.7,17.3c-3.7,5-8,8.8-12.8,11.5c-5.3,3-10,4-14.1,2.9
			c-4-1.1-7.2-4.2-9.5-9.3c-2.3-5.1-3.4-12-3.4-20.8c0-6.9,0.7-13.4,2.1-19.4c1.4-6.1,3.3-11.7,5.8-16.7c2.5-5.1,5.3-9.5,8.6-13.2
			c3.2-3.7,6.7-6.6,10.4-8.7c3.3-1.9,6.3-2.9,9.1-3.1c2.8-0.2,5.3,0.4,7.4,1.7c2.2,1.3,3.9,3.4,5.2,6.1c1.3,2.7,2.1,6.1,2.4,10.1
			L448.3,135.8z"/>
	</g>
	<g>
		<path class="st28" d="M382.9,116.4v83.1l-12.4,7.1l-19.8-32.4l-0.3,0.2v43.7l-14.9,8.5v-83.1l12.7-7.2l19.5,32.4l0.4-0.2v-43.5
			L382.9,116.4z"/>
		<polygon class="st28" points="391.6,217.9 370.4,206.6 371.5,185.8 371.8,185.6 		"/>
		<path class="st34" d="M404.1,127.8v83.1l-12.4,7.1l-19.8-32.4l-0.3,0.2v43.7l-14.9,8.5v-83.1l12.7-7.2l19.5,32.4l0.4-0.2v-43.5
			L404.1,127.8z"/>
		<polygon class="st28" points="348.1,136.3 369.2,147.6 356.5,154.8 335.4,143.5 		"/>
		<polygon class="st28" points="356.5,237.9 356.5,154.8 335.4,143.5 335.4,226.6 		"/>
		<polygon class="st28" points="382.9,116.4 404.1,127.8 389.1,136.3 368,124.9 		"/>
		<polygon class="st28" points="389.1,179.8 389.1,136.3 368,124.9 368,147 369.2,147.6 388.7,180 		"/>
	</g>
	<g>
		<path class="st28" d="M326.4,151.2v83.1l-14.9,8.5v-83.1L326.4,151.2z"/>
		<path class="st34" d="M347.6,162.5v83.1l-14.9,8.5V171L347.6,162.5z"/>
		<polygon class="st28" points="332.7,171 311.5,159.7 326.4,151.2 347.6,162.5 		"/>
		<polygon class="st28" points="332.7,254.1 332.7,171 311.5,159.7 311.5,242.8 		"/>
	</g>
	<g>
		<path class="st28" d="M234.5,203.4l18.6-10.6l12.8,39.8l0.6-0.4l12.8-54.3l18.6-10.6v83.1l-14.6,8.3v-48l-0.4,0.2l-12.2,54.3
			l-8.8,5l-12.2-40.8l-0.4,0.2v48.4l-14.6,8.3V203.4z"/>
		<polygon class="st28" points="279.2,178 300.4,189.3 287.6,243.7 266.5,232.3 		"/>
		<polygon class="st28" points="304.3,270.2 283.4,258.8 303.9,222.4 304.3,222.1 		"/>
		<polygon class="st28" points="282.9,281.7 262,270.4 270.2,241.2 270.7,241 		"/>
		<path class="st34" d="M255.6,214.8l18.6-10.6L287,244l0.6-0.4l12.8-54.3l18.6-10.6v83.1l-14.6,8.3v-48l-0.4,0.2l-12.2,54.3l-8.8,5
			L270.7,241l-0.4,0.2v48.4l-14.6,8.3V214.8z"/>
		<polygon class="st28" points="255.6,297.9 234.5,286.5 234.5,203.4 255.6,214.8 		"/>
		<polygon class="st28" points="274.2,204.2 253.1,192.9 234.5,203.4 255.6,214.8 		"/>
		<polygon class="st28" points="318.9,178.8 297.8,167.4 279.2,178 300.4,189.3 		"/>
	</g>
	<g>
		<path class="st28" d="M237.3,230.3L216.1,219l0,0c-0.9-0.5-1.9-0.9-2.9-1.1c-4-1-8.5,0-13.5,2.8c-5,2.8-9.5,7-13.6,12.6
			c-4,5.6-7.2,12.2-9.6,19.9c-2.4,7.7-3.6,16.2-3.6,25.4c0,9.2,1.2,16.3,3.6,21.3c1.7,3.6,3.8,6.1,6.4,7.7l-0.1,0l21.1,11.4
			l15.1-8.4l-14.5-7.8c3.1-2.5,5.9-5.5,8.6-9.2c4-5.6,7.2-12.2,9.6-19.9c2.4-7.7,3.6-16.2,3.6-25.4c0-4.2-0.3-8-0.8-11.3
			L237.3,230.3z"/>
		<polygon class="st28" points="232.2,246.1 237.3,279.2 219.2,306.9 202.4,300.2 201.6,283.7 220.8,244.5 		"/>
		<path class="st34" d="M247.5,259.5c0,9.3-1.2,17.7-3.6,25.4c-2.4,7.7-5.6,14.3-9.6,19.9c-4,5.6-8.5,9.8-13.5,12.6
			c-5,2.8-9.5,3.8-13.6,2.8c-4-1-7.2-4-9.6-9c-2.4-5-3.6-12.1-3.6-21.3c0-9.3,1.2-17.7,3.6-25.4c2.4-7.7,5.6-14.3,9.6-19.9
			c4-5.6,8.5-9.8,13.6-12.6c5-2.8,9.5-3.8,13.5-2.8c4,1,7.2,3.9,9.6,8.9C246.3,243.1,247.5,250.3,247.5,259.5z M232.2,268.2
			c0-5-0.4-8.9-1.3-11.9c-0.9-2.9-2.1-4.8-3.8-5.6c-1.7-0.8-3.8-0.5-6.2,0.9c-2.5,1.4-4.5,3.5-6.2,6.2c-1.7,2.7-3,6.1-3.8,10
			c-0.9,3.9-1.3,8.4-1.3,13.3c0,5,0.4,8.9,1.3,11.9c0.9,2.9,2.1,4.8,3.8,5.6c1.7,0.8,3.8,0.5,6.2-0.9c2.5-1.4,4.5-3.5,6.2-6.2
			c1.7-2.7,3-6.1,3.8-10C231.7,277.7,232.2,273.2,232.2,268.2z"/>
	</g>
	<g>
		<path class="st28" d="M166.2,304.5c0.8-3.5,1.3-6.7,1.4-9.7l-15.1,8.4l-5.1,3.8l-0.6,10c-0.1,0.1-0.1,0.1-0.2,0.2
			c-0.4,0.4-0.7,0.7-1.1,1l-0.7-14.5l18.1-22.8l-4.1-3.4l8.7-5c0-0.2,0-0.3,0-0.5l13.6-7.6c0,0-21.2-11.4-21.3-11.4
			c-2.3-1.2-4.8-2.1-7.7-1.9c-2.9,0.2-6.1,1.3-9.6,3.3c-4.9,2.8-9.4,7-13.4,12.5c-4,5.5-7.2,12.1-9.5,19.8
			c-2.4,7.7-3.5,16.2-3.5,25.4c0,9.2,1.2,16.3,3.5,21.4c2.1,4.5,8.2,8.7,8.2,8.7l21.1,11.4l15.1-8.4l-16.4-8.8c1.2-1,2.4-2,3.5-3.1
			l8.7,3.4l14.4-9.2l3.4-18.3l-9.2-4.7L166.2,304.5z"/>
		<polygon class="st28" points="167.7,294.8 188.8,306.2 173.7,314.6 152.5,303.3 		"/>
		<path class="st34" d="M188.8,284.1l-15.1,8.6c-0.1-1.8-0.4-3.4-0.8-4.7c-0.5-1.3-1.1-2.3-1.9-2.9c-0.8-0.7-1.8-1-2.9-1
			c-1.1,0-2.4,0.5-3.8,1.3c-2.5,1.4-4.6,3.5-6.3,6.4c-1.7,2.8-3,6.2-3.9,10.1c-0.9,3.9-1.3,8.3-1.3,13.1c0,5.1,0.5,9.1,1.4,12
			c0.9,2.9,2.2,4.7,3.9,5.5c1.7,0.7,3.8,0.4,6.2-0.9c1.4-0.8,2.6-1.7,3.7-2.9c1.1-1.1,2-2.5,2.8-3.9c0.8-1.5,1.5-3,2-4.8
			c0.5-1.7,0.9-3.5,1-5.4l15.1-8.4c-0.2,3.6-0.8,7.6-2,11.8c-1.1,4.3-2.7,8.5-4.8,12.8c-2.1,4.2-4.6,8.2-7.7,11.8
			c-3,3.6-6.6,6.5-10.6,8.8c-5,2.9-9.6,3.8-13.6,2.8c-4-1-7.2-4-9.5-9.1c-2.3-5-3.5-12.2-3.5-21.4c0-9.3,1.2-17.7,3.5-25.4
			c2.4-7.7,5.5-14.3,9.5-19.8c4-5.5,8.5-9.7,13.4-12.5c3.5-2,6.7-3.1,9.6-3.3c2.9-0.2,5.5,0.4,7.7,1.9c2.2,1.5,4,3.9,5.3,7.1
			C187.7,275,188.5,279.1,188.8,284.1z"/>
	</g>
</g>
<g>
	<g>
		<g>
			<polygon class="st30" points="635,168.9 612.2,155.7 612.2,68.5 635,81.6 			"/>
			<polygon class="st31" points="635,168.9 657.8,155.7 657.8,68.5 635,81.6 			"/>
			<polygon class="st32" points="635.1,81.7 612.2,68.5 634.9,55.2 657.8,68.5 			"/>
			<path id="矩形_00000118379997107027817680000015274088616168918945_" class="st33" d="M627.8,62.7L627.8,62.7
				c0.4,0.3,0.4,0.7-0.2,1.1l-4.7,2.8c-0.5,0.3-1.4,0.4-1.8,0.1l0,0c-0.4-0.3-0.4-0.7,0.2-1.1l4.7-2.8
				C626.6,62.5,627.4,62.4,627.8,62.7z"/>
			<path id="矩形_00000149361460877359995010000005324562901103116189_" class="st33" d="M620,67.3L620,67.3
				c0.4,0.3,0.4,0.7-0.2,1.1l-0.9,0.5c-0.5,0.3-1.4,0.4-1.8,0.1l0,0c-0.4-0.3-0.4-0.7,0.2-1.1l0.9-0.5C618.7,67,619.5,67,620,67.3z"
				/>
		</g>
	</g>
	<g>
		<g>
			<polygon class="st30" points="612.3,182.1 589.5,168.9 589.5,100.5 612.3,113.7 			"/>
			<polygon class="st31" points="612.3,182.1 635.1,168.9 635.1,100.5 612.3,113.7 			"/>
			<polygon class="st32" points="612.4,113.8 589.5,100.5 612.2,87.3 635.1,100.5 			"/>
			<path id="矩形_00000071551186159501673870000010851362997361165975_" class="st33" d="M605.2,94.7L605.2,94.7
				c0.4,0.3,0.4,0.7-0.2,1.1l-4.7,2.8c-0.5,0.3-1.4,0.4-1.8,0.1l0,0c-0.4-0.3-0.4-0.7,0.2-1.1l4.7-2.8
				C603.9,94.5,604.7,94.5,605.2,94.7z"/>
			<path id="矩形_00000038400947320642575640000010568850289946434479_" class="st33" d="M597.3,99.3L597.3,99.3
				c0.4,0.3,0.4,0.7-0.2,1.1l-0.9,0.5c-0.5,0.3-1.4,0.4-1.8,0.1l0,0c-0.4-0.3-0.4-0.7,0.2-1.1l0.9-0.5
				C596,99.1,596.8,99.1,597.3,99.3z"/>
		</g>
	</g>
	<g>
		<g>
			<polygon class="st30" points="589.5,195.3 566.7,182.2 566.7,134.6 589.5,147.7 			"/>
			<polygon class="st31" points="589.5,195.3 612.3,182.2 612.3,134.6 589.5,147.7 			"/>
			<polygon class="st32" points="589.6,147.8 566.7,134.6 589.4,121.3 612.3,134.6 			"/>
			<path id="矩形_00000021817429966233844020000005244926720005151917_" class="st33" d="M582.3,128.8L582.3,128.8
				c0.4,0.3,0.4,0.7-0.2,1.1l-4.7,2.8c-0.5,0.3-1.4,0.4-1.8,0.1l0,0c-0.4-0.3-0.4-0.7,0.2-1.1l4.7-2.8
				C581.1,128.6,581.9,128.5,582.3,128.8z"/>
			<path id="矩形_00000008847928199805758280000015266161399400408199_" class="st33" d="M574.5,133.4L574.5,133.4
				c0.4,0.3,0.4,0.7-0.2,1.1l-0.9,0.5c-0.5,0.3-1.4,0.4-1.8,0.1l0,0c-0.4-0.3-0.4-0.7,0.2-1.1l0.9-0.5
				C573.2,133.1,574,133.1,574.5,133.4z"/>
		</g>
	</g>
	<polygon class="st35" points="622.4,21.9 613.8,44.8 618.1,42.5 618.1,58.2 627.3,52.9 627.3,37.8 631.6,35 	"/>
	<polygon class="st35" points="597.4,55.6 588.9,78.4 593.2,76.2 593.2,91.8 602.4,86.6 602.4,71.4 606.6,68.7 	"/>
	<polygon class="st35" points="575.2,88.1 566.7,111 571,108.7 571,124.4 580.2,119.1 580.2,104 584.4,101.2 	"/>
</g>
<g>
	<g>
		<g>
			<linearGradient id="SVGID_1_" gradientUnits="userSpaceOnUse" x1="715.6376" y1="135.2557" x2="715.8191" y2="135.2557">
				<stop  offset="0" style="stop-color:#A25DA2"/>
				<stop  offset="1" style="stop-color:#00AFC2"/>
			</linearGradient>
			<path class="st8" d="M715.7,134.7c-0.1-0.2,0,0.5,0,1C715.8,135.9,715.9,135.8,715.7,134.7z"/>
			<path class="st37" d="M739.3,118.6v-9.3V93.7c0-1.1,0-2.1-0.1-3l-1.6-11.9c-0.3-0.4-3.9-2.8-3.9-2.8c-2-1.3-5.7-2.5-11.5,2.1
				c-7,5.5-10.4,15.3-11.1,19.4c-0.1,0.6-0.2,1.1-0.3,1.7v0c0,0,0,0,0,0c0,0.1,0,0.3,0,0.4c0,0,0,0,0,0c0,0,0,0,0,0.1
				c0,0,0,0.1,0,0.1c0,0,0,0.1,0,0.1c0,0.1,0,0.2,0,0.3c0,0,0,0,0,0c0,0.1,0,0.1,0,0.2c0,0,0,0.1,0,0.1c0,0.1,0,0.1,0,0.2
				c0,0.1,0,0.1,0,0.2c0,0,0,0.1,0,0.1c0,0.1,0,0.1,0,0.2c0,0,0,0,0,0.1c0,0.2,0,0.3,0,0.5v0.2c0,0,0,0,0,0.1c0,0,0,0,0,0l-0.2,20.6
				v0l0,0l0,0v11.1c0,0.7,0.2,1.1,0.6,1.4c0.1,0.1,4.1,2.7,4.3,2.7c0.1,0,0.1-1.4,0.2-1.5c0.1,0,0.1-0.2,0.1-0.4
				c-0.3-0.3-0.8-1.4-0.7-1.4c0.3-0.5,0.5-1.2,0.5-1.8v-5.7v0c0-0.6,0.3-1.3,0.7-1.9c0.1-0.1,0.2-0.3,0.3-0.4v1
				c0,0.3,0.1,2.1,0.2,2.3c0.2,0.3,0.3,0.5,0.6,0.7c0.1,0.1,4,2.7,4.2,2.5c0.1-0.1-0.1-2.4,0-2.5c0.4-0.4-0.4-1.1-0.2-1.7
				c0.1-0.3,0.2-0.7,0.2-1v-2.5c0-0.3,0.1-0.7,0.2-1c0-0.1,0.1-0.3,0.2-0.4c0.2-0.4-0.3,0.3,0,0c0,0,5.3,3.4,5.3,3.4
				c0,0,3.7-1.7,0.9-2.2c-0.1,0,0.1-0.1,0.2-0.1c0.8-0.5-0.8-1.6-0.8-2.7v-0.5c0-0.4,0.1-0.9,0.4-1.4c0-0.1,0.1-0.1,0.1-0.2
				c0.2-0.3,0.3-0.5,0.5-0.7v1c0,0.3,0,2.3,0.2,2.6c0,0.1,4.5,2.8,4.6,2.9c0.3,0.2,0.1-4,0.1-5.1v-2.5c0-0.8,0.4-1.7,1-2.3v5.8
				c0,1.1,4.9,3.9,4.9,3.9C739.9,123.4,739.3,119.7,739.3,118.6z"/>
		</g>
		<path class="st31" d="M741.5,93v-4.1c0-9.6-6-14-13.3-9.7c-6.3,3.6-11.5,12.3-12.9,20.7c-0.3,1.4-0.4,2.8-0.4,4.2v0.2
			c0,0,0,0.1,0,0.1v22.5l0,0v1.3v8.3c0,1.1,0.6,1.5,1.4,1.1c0.8-0.5,1.4-1.7,1.4-2.7v-5.7v0c0-1,0.7-2.2,1.5-2.7l0,0
			c0.8-0.4,1.5,0,1.5,1v2.5c0,1.1,0.6,1.5,1.4,1.1c0.8-0.5,1.4-1.7,1.4-2.7v-2.5c0-1,0.7-2.2,1.5-2.7l0,0c0.8-0.4,1.5,0,1.5,1v0.5
			c0,1.1,0.6,1.5,1.4,1.1c0.8-0.5,1.4-1.7,1.4-2.7v-0.5c0-1,0.7-2.2,1.5-2.7l0,0c0.8-0.4,1.5,0,1.5,1v2.5c0,1.1,0.6,1.5,1.4,1.1
			c0.8-0.5,1.4-1.7,1.4-2.7v-2.5c0-1,0.7-2.2,1.5-2.7l0,0c0.8-0.4,1.5,0,1.5,1v5.6c0,1.1,0.7,1.6,1.5,1.1c0.8-0.5,1.5-1.8,1.5-2.9
			V96C741.6,94.9,741.6,93.9,741.5,93z"/>
		<g>
			<path id="椭圆形_00000094605022720771824700000004316413326718547591_" class="st35" d="M729.2,104c1.2-0.7,2.2-2.5,2.2-3.3
				c0-0.3-0.2-0.5-0.4-0.4c-0.4,0.2-1,0.8-1.7,1.2c-0.7,0.4-1.1,0.4-1.7,0.7c-0.6,0.3-0.5,1.1-0.4,1.3
				C727.2,104.3,727.9,104.7,729.2,104z"/>
		</g>
		
			<ellipse transform="matrix(0.4058 -0.914 0.914 0.4058 340.4294 720.1988)" class="st35" cx="724.1" cy="98.3" rx="4.2" ry="2.4"/>
		<ellipse transform="matrix(0.4058 -0.914 0.914 0.4058 351.6226 725.8762)" class="st35" cx="734" cy="92.5" rx="4.2" ry="2.4"/>
	</g>
</g>
<g>
	
		<radialGradient id="SVGID_00000127038068587204621940000010377188757090873495_" cx="512.4148" cy="295.1551" r="40.8432" gradientTransform="matrix(1 0 0 0.5898 0 121.0746)" gradientUnits="userSpaceOnUse">
		<stop  offset="0" style="stop-color:#B8B2D6"/>
		<stop  offset="0.3457" style="stop-color:#BAB5D7;stop-opacity:0.6543"/>
		<stop  offset="0.6064" style="stop-color:#C2BFDC;stop-opacity:0.3936"/>
		<stop  offset="0.8384" style="stop-color:#CECFE3;stop-opacity:0.1616"/>
		<stop  offset="1" style="stop-color:#DBDFEB;stop-opacity:0"/>
	</radialGradient>
	<path style="opacity:0.67;fill:url(#SVGID_00000127038068587204621940000010377188757090873495_);" d="M547.4,275.4
		c-19.2-11.1-50.4-11.2-69.7-0.3c-19.3,10.9-19.5,28.7-0.3,39.7c19.2,11.1,50.4,11.2,69.7,0.3C566.4,304.3,566.6,286.5,547.4,275.4z
		"/>
	<g>
		<g>
			<g>
				<circle class="st39" cx="513.6" cy="216.6" r="88.4"/>
				<g>
					<g>
						<path class="st34" d="M461.7,138.6l12.6,34.5c0.6,4.8,4.2,8.8,10.4,10.3c10.2,2.6,23.3-2.2,29.3-10.8
							c2.6-3.6,3.4-7.4,2.8-10.7l0.1,0l-0.5-1.4c0-0.1-0.1-0.3-0.2-0.4l-13-35.7L461.7,138.6z"/>
						<path class="st34" d="M470.9,163.2c2.9,7.8,14.3,10.8,25.6,6.6s18.1-13.8,15.3-21.6"/>
						<path class="st34" d="M466.9,152.4c2.9,7.8,14.3,10.8,25.6,6.6s18.1-13.8,15.3-21.6"/>
						<path class="st34" d="M462.8,141.1c2.9,7.8,14.3,10.8,25.6,6.6s18.1-13.8,15.3-21.6"/>
					</g>
					<g>
						<path class="st34" d="M449.2,104.6l12.6,34.5c0.6,4.8,4.2,8.8,10.4,10.3c10.2,2.6,23.3-2.2,29.3-10.8
							c2.6-3.6,3.4-7.4,2.8-10.7l0.1,0l-0.5-1.4c0-0.1-0.1-0.3-0.2-0.4l-13-35.7L449.2,104.6z"/>
						<path class="st34" d="M458.4,129.2c2.9,7.8,14.3,10.8,25.6,6.6s18.1-13.8,15.3-21.6"/>
						<path class="st34" d="M454.5,118.4c2.9,7.8,14.3,10.8,25.6,6.6c11.3-4.1,18.1-13.8,15.3-21.6"/>
						<path class="st34" d="M450.3,107.1c2.9,7.8,14.3,10.8,25.6,6.6c11.3-4.1,18.1-13.8,15.3-21.6"/>
					</g>
				</g>
				<g>
					<g>
						<g>
							<polygon class="st30" points="487,147.9 418.2,135.9 397.4,79.1 466.2,91.1 							"/>
							<polygon class="st31" points="487,147.9 531.8,94.3 511,37.5 466.2,91.1 							"/>
							<polygon class="st32" points="466.5,91.2 397.4,79.2 441.9,25.5 511,37.5 							"/>
						</g>
						<path id="矩形_00000117641921132176698260000001543508464941013929_" class="st33" d="M430.4,49.5L430.4,49.5
							c1.3,0.2,1.6,1.5,0.6,2.8l-9.2,11.3c-1,1.3-3.1,2.2-4.4,1.9l0,0c-1.3-0.2-1.6-1.5-0.6-2.8l9.2-11.3
							C427,50.2,429,49.3,430.4,49.5z"/>
						<path id="矩形_00000106141923484005556880000000261582783006545817_" class="st33" d="M413.7,70L413.7,70
							c1.3,0.2,1.6,1.5,0.6,2.8l-1.8,2.2c-1,1.3-3.1,2.2-4.4,1.9l0,0c-1.3-0.2-1.6-1.5-0.6-2.8l1.8-2.2
							C410.3,70.5,412.3,69.7,413.7,70z"/>
					</g>
				</g>
			</g>
		</g>
	</g>
	<polygon class="st35" points="441.8,76.8 433.7,75.6 463.8,38.2 471.9,39.5 	"/>
</g>
<g>
	<path class="st28" d="M810.5,112.5v94.1l-14.1,8L773.9,178l-0.4,0.2v49.4l-16.9,9.6v-94.1L771,135l22.1,36.7l0.5-0.3v-49.3
		L810.5,112.5z"/>
	<polygon class="st28" points="820.3,227.5 796.4,214.6 797.5,191.1 797.9,190.8 	"/>
	<path class="st34" d="M834.4,125.4v94.1l-14.1,8l-22.5-36.7l-0.4,0.2v49.4l-16.9,9.6V156l14.3-8.2l22.1,36.7l0.5-0.3V135
		L834.4,125.4z"/>
	<polygon class="st28" points="771,135 795,147.8 780.6,156 756.7,143.1 	"/>
	<polygon class="st28" points="780.6,250.1 780.6,156 756.7,143.1 756.7,237.2 	"/>
	<polygon class="st28" points="810.5,112.5 834.4,125.4 817.6,135 793.6,122.1 	"/>
	<polygon class="st28" points="817.6,184.2 817.6,135 793.6,122.1 793.6,147.1 795,147.8 817.1,184.5 	"/>
</g>
<g>
	<polygon class="st40" points="705.3,129.4 691.2,119.8 657.8,138.8 657.8,214.3 705.3,187.3 	"/>
	<polygon class="st41" points="700.5,146.5 662.6,168 662.6,170.1 700.5,148.6 	"/>
	<polygon class="st41" points="700.5,152.9 662.6,174.5 662.6,176.6 700.5,155.1 	"/>
	<polygon class="st41" points="700.5,159.8 662.6,181.4 662.6,183.5 700.5,162 	"/>
	<polygon class="st41" points="700.5,167.6 662.6,189.1 662.6,191.3 700.5,169.7 	"/>
	<polygon class="st41" points="700.5,140.3 662.6,161.8 662.6,164 700.5,142.4 	"/>
	<polygon class="st42" points="650.6,134.7 657.8,138.6 657.8,214.3 650.6,210.5 	"/>
	<polygon class="st43" points="691.1,119.6 683.5,115.6 650.6,134.7 657.8,138.6 	"/>
	<polygon class="st40" points="705.3,129.4 691.1,137.6 691.1,119.6 	"/>
</g>
<g>
	<path class="st28" d="M762.5,176.6l-23.9-12.9l-0.1,0c-1-0.6-2.1-1-3.3-1.3c-4.6-1.1-9.7,0-15.3,3.2c-5.7,3.2-10.8,8-15.3,14.3
		c-4.6,6.3-8.2,13.8-10.9,22.5c-2.7,8.7-4,18.3-4,28.8c0,10.4,1.3,18.5,4,24.1c1.9,4.1,4.4,7,7.3,8.7l-0.1,0l23.9,12.9l17.1-9.6
		l-16.4-8.8c3.5-2.8,6.7-6.3,9.7-10.4c4.6-6.3,8.2-13.8,10.9-22.5c2.7-8.7,4-18.3,4-28.8c0-4.8-0.3-9.1-0.9-12.8L762.5,176.6z"/>
	<polygon class="st28" points="756.7,194.5 762.5,231.9 742,263.3 723,255.8 722.1,237.1 743.8,192.6 	"/>
	<path class="st34" d="M774.1,209.6c0,10.5-1.3,20.1-4,28.8c-2.7,8.7-6.3,16.2-10.9,22.5c-4.6,6.3-9.7,11-15.3,14.2
		c-5.7,3.2-10.8,4.3-15.3,3.1c-4.6-1.1-8.2-4.5-10.9-10.2c-2.7-5.7-4-13.7-4-24.1c0-10.5,1.3-20.1,4-28.8
		c2.7-8.7,6.3-16.2,10.9-22.5c4.6-6.3,9.7-11,15.3-14.3c5.6-3.2,10.7-4.3,15.3-3.2c4.6,1.1,8.2,4.5,10.9,10.1
		C772.7,191.1,774.1,199.2,774.1,209.6z M756.7,219.5c0-5.6-0.5-10.1-1.5-13.4c-1-3.3-2.4-5.4-4.3-6.4c-1.9-0.9-4.3-0.6-7.1,1
		c-2.8,1.6-5.1,3.9-7.1,7c-1.9,3.1-3.4,6.9-4.3,11.3c-1,4.4-1.5,9.5-1.5,15.1c0,5.6,0.5,10.1,1.5,13.4c1,3.3,2.4,5.4,4.3,6.4
		c1.9,0.9,4.3,0.6,7.1-1c2.8-1.6,5.1-3.9,7.1-7c1.9-3.1,3.4-6.9,4.3-11.3C756.2,230.2,756.7,225.1,756.7,219.5z"/>
</g>
<g>
	<path class="st28" d="M696.6,211.8l-23.9-12.9l-0.1,0c-1-0.6-2.1-1-3.3-1.3c-4.6-1.1-9.7,0-15.3,3.2c-5.7,3.2-10.8,8-15.3,14.3
		c-4.6,6.3-8.2,13.8-10.9,22.5c-2.7,8.7-4,18.3-4,28.8c0,10.4,1.3,18.5,4,24.1c1.9,4.1,4.4,7,7.3,8.7l-0.1,0l23.9,12.9l17.1-9.6
		l-16.4-8.8c3.5-2.8,6.7-6.3,9.7-10.4c4.6-6.3,8.2-13.8,10.9-22.5c2.7-8.7,4-18.3,4-28.8c0-4.8-0.3-9.1-0.9-12.8L696.6,211.8z"/>
	<polygon class="st28" points="690.9,229.7 696.6,267.1 676.2,298.5 657.2,291 656.2,272.3 678,227.8 	"/>
	<path class="st34" d="M708.2,244.9c0,10.5-1.3,20.1-4,28.8c-2.7,8.7-6.3,16.2-10.9,22.5c-4.6,6.3-9.7,11-15.3,14.2
		c-5.7,3.2-10.8,4.3-15.3,3.1c-4.6-1.1-8.2-4.5-10.9-10.2c-2.7-5.7-4-13.7-4-24.1c0-10.5,1.3-20.1,4-28.8
		c2.7-8.7,6.3-16.2,10.9-22.5c4.6-6.3,9.7-11,15.3-14.3c5.6-3.2,10.7-4.3,15.3-3.2c4.6,1.1,8.2,4.5,10.9,10.1
		C706.9,226.3,708.2,234.4,708.2,244.9z M690.9,254.7c0-5.6-0.5-10.1-1.5-13.4c-1-3.3-2.4-5.4-4.3-6.4c-1.9-0.9-4.3-0.6-7.1,1
		c-2.8,1.6-5.1,3.9-7.1,7c-1.9,3.1-3.4,6.9-4.3,11.3c-1,4.4-1.5,9.5-1.5,15.1c0,5.6,0.5,10.1,1.5,13.4c1,3.3,2.4,5.4,4.3,6.4
		c1.9,0.9,4.3,0.6,7.1-1c2.8-1.6,5.1-3.9,7.1-7c1.9-3.1,3.4-6.9,4.3-11.3C690.4,265.4,690.9,260.4,690.9,254.7z"/>
</g>
<g>
	<path class="st28" d="M620.3,291.8l16-9.1l-23.9-12.9l0,0c-1.1-0.6-2.4-1.1-3.9-1.4c-1.2-0.2-2.5-0.2-4-0.1l1.4-7l20.1,11.2
		l10.6-12.4l-11-10.7l9.1-5.2l-23.9-12.9l0,0c-1.2-0.7-2.5-1.1-4-1.3c-3.7-0.5-8,0.7-13,3.6c-4.9,2.8-9.3,6.5-13.1,11.2
		c-3.8,4.7-6.8,9.9-8.9,15.6c-2.1,5.7-3.2,11.5-3.2,17.5c0,7.4,1.6,12.3,4.7,14.7c0.5,0.4,0.9,0.7,1.5,0.9l0,0l23.1,12.4
		c-1.2,1.2-2.6,2.3-4.2,3.3c-2.1,1.2-4,1.8-5.5,1.6c-1.5-0.1-2.7-0.9-3.6-2.4c-0.9-1.5-1.3-3.6-1.4-6.4l-16,9.1
		c0,7.9,1.1,13.7,3.4,17.5c1.5,2.5,3.3,4.2,5.6,5.1l22.8,12.3l21-12l-17.9-9.6c0.6-0.5,1.2-1.1,1.8-1.6l17.1,8.2l13.9-26.4
		l-16.5-8.1c0.3-1.8,0.6-3.6,0.7-5.5L620.3,291.8z M606.8,257l4-2.3l0.4,0.2l-4.5,2.6L606.8,257z"/>
	<path class="st34" d="M626,272.5c-0.2-3-0.9-4.9-2.3-5.9c-1.3-0.9-3.4-0.6-6.1,0.9c-1.7,1-3.2,2.1-4.3,3.4
		c-1.1,1.3-1.9,2.6-2.4,3.9c-0.5,1.4-0.8,2.8-0.8,4.1c0,1.2,0.1,2.1,0.4,2.8c0.3,0.7,0.8,1.3,1.5,1.6c0.7,0.3,1.6,0.5,2.6,0.4
		c1.1,0,2.3-0.2,3.8-0.6l5.1-1.2c3.4-0.9,6.4-1.1,8.8-0.7c2.4,0.4,4.5,1.4,6,2.9c1.6,1.5,2.7,3.6,3.4,6.2c0.7,2.6,1.1,5.7,1.1,9.3
		c0,6.2-1,12-3.1,17.5c-2,5.4-4.9,10.3-8.7,14.7c-3.8,4.4-8.3,8.1-13.5,11c-5.4,3.1-10.1,4.5-14.1,4.4c-4-0.1-7.1-2.1-9.4-5.9
		c-2.2-3.8-3.3-9.6-3.4-17.5l16-9.1c0.1,2.8,0.6,5,1.4,6.4c0.9,1.5,2,2.3,3.6,2.4c1.5,0.1,3.4-0.4,5.5-1.6c1.8-1,3.3-2.2,4.5-3.6
		c1.2-1.4,2.1-2.8,2.8-4.4c0.6-1.6,1-3.1,1-4.6c0-1.4-0.3-2.5-0.9-3.3c-0.6-0.7-1.6-1.2-2.9-1.3c-1.4-0.1-3.2,0.1-5.5,0.7l-6.2,1.5
		c-5.5,1.3-9.8,0.8-13-1.7c-3.2-2.4-4.7-7.3-4.7-14.7c0-6,1-11.8,3.2-17.5c2.1-5.7,5.1-10.9,8.9-15.6c3.8-4.7,8.2-8.4,13.1-11.2
		c5-2.9,9.4-4.1,13-3.6c3.7,0.5,6.5,2.4,8.5,5.9c2,3.5,3,8.3,3,14.4L626,272.5z"/>
	<polygon class="st28" points="583,302.1 606.9,315 590.9,324.1 567,311.2 	"/>
</g>
<g>
	<path id="矩形_00000165222174515694301310000017924848547180507306_" class="st20" d="M481,376.9L481,376.9
		c0.6,0,1.1,0.7,1.1,1.6v1.4c0,0.8-0.5,1.6-1.1,1.6l0,0c-0.6,0-1.1-0.7-1.1-1.6v-1.4C479.9,377.6,480.4,376.9,481,376.9z"/>
	
		<radialGradient id="SVGID_00000081617522821375165590000006473077347705186731_" cx="450.9915" cy="409.4158" r="27.7727" gradientTransform="matrix(1 0 0 0.5898 0 167.9452)" gradientUnits="userSpaceOnUse">
		<stop  offset="0" style="stop-color:#B8B2D6"/>
		<stop  offset="0.3457" style="stop-color:#BAB5D7;stop-opacity:0.6543"/>
		<stop  offset="0.6064" style="stop-color:#C2BFDC;stop-opacity:0.3936"/>
		<stop  offset="0.8384" style="stop-color:#CECFE3;stop-opacity:0.1616"/>
		<stop  offset="1" style="stop-color:#DBDFEB;stop-opacity:0"/>
	</radialGradient>
	<path style="opacity:0.67;fill:url(#SVGID_00000081617522821375165590000006473077347705186731_);" d="M474.8,396
		c-13-7.5-34.3-7.6-47.4-0.2c-13.2,7.4-13.2,19.5-0.2,27c13,7.5,34.3,7.6,47.4,0.2C487.7,415.6,487.8,403.5,474.8,396z"/>
	<g>
		<path class="st22" d="M487.7,361.7v-46.9c0-0.2,0-0.4,0-0.6c0-21.8-17.7-39.5-39.5-39.5c-21.8,0-39.5,17.7-39.5,39.5
			c0,0.3,0,0.7,0,1v42.5h0v21.6c0,2.7,2.2,4.9,4.9,4.9s4.9-2.2,4.9-4.9v-0.8c0.5,0.3,1.1,0.7,1.7,1c1.7,1,3.6,1.9,5.6,2.7v7.8
			c0,2.7,2.2,4.9,4.9,4.9c2.7,0,4.9-2.2,4.9-4.9v-5c2.8,0.5,5.7,0.9,8.6,1.1v12c0,2.7,2.2,4.9,4.9,4.9c2.7,0,4.9-2.2,4.9-4.9V386
			c3.2-0.3,6.4-0.8,9.5-1.5v6.1c0,2.7,2.2,4.9,4.9,4.9s4.9-2.2,4.9-4.9v-9.4c1-0.4,1.9-0.9,2.8-1.4c0.7-0.4,1.3-0.8,1.9-1.2v0.7
			c0,2.7,2.2,4.9,4.9,4.9s4.9-2.2,4.9-4.9L487.7,361.7L487.7,361.7z"/>
		
			<radialGradient id="SVGID_00000149366167386028369670000015480892489909922989_" cx="471.682" cy="291.1931" r="101.616" gradientUnits="userSpaceOnUse">
			<stop  offset="1.242844e-02" style="stop-color:#EC71D2"/>
			<stop  offset="0.4936" style="stop-color:#B2529D"/>
			<stop  offset="0.5648" style="stop-color:#A959A0"/>
			<stop  offset="0.68" style="stop-color:#916CA7"/>
			<stop  offset="0.8249" style="stop-color:#6A8BB3"/>
			<stop  offset="0.9924" style="stop-color:#35B6C3"/>
			<stop  offset="1" style="stop-color:#32B8C4"/>
		</radialGradient>
		<path style="fill:url(#SVGID_00000149366167386028369670000015480892489909922989_);" d="M487.7,361.7v-46.9c0-0.2,0-0.4,0-0.6
			c0-21.8-17.7-39.5-39.5-39.5c-21.8,0-39.5,17.7-39.5,39.5c0,0.3,0,0.7,0,1v42.5h0v21.6c0,2.7,2.2,4.9,4.9,4.9s4.9-2.2,4.9-4.9
			v-0.8c0.5,0.3,1.1,0.7,1.7,1c1.7,1,3.6,1.9,5.6,2.7v7.8c0,2.7,2.2,4.9,4.9,4.9c2.7,0,4.9-2.2,4.9-4.9v-5c2.8,0.5,5.7,0.9,8.6,1.1
			v12c0,2.7,2.2,4.9,4.9,4.9c2.7,0,4.9-2.2,4.9-4.9V386c3.2-0.3,6.4-0.8,9.5-1.5v6.1c0,2.7,2.2,4.9,4.9,4.9s4.9-2.2,4.9-4.9v-9.4
			c1-0.4,1.9-0.9,2.8-1.4c0.7-0.4,1.3-0.8,1.9-1.2v0.7c0,2.7,2.2,4.9,4.9,4.9s4.9-2.2,4.9-4.9L487.7,361.7L487.7,361.7z"/>
	</g>
	<path id="矩形_00000096757397477212990060000000818631770984096441_" class="st20" d="M412.4,348.5L412.4,348.5
		c1.1,0,2,1.3,2,2.8v13.6c0,1.5-0.9,2.8-2,2.8l0,0c-1.1,0-2-1.3-2-2.8v-13.6C410.4,349.8,411.3,348.5,412.4,348.5z"/>
	<path id="矩形_00000033348634286186377430000001962578401488515726_" class="st20" d="M470.8,288.4L470.8,288.4
		c1.3-1,3.5-0.4,4.8,1.3l2.2,2.9c1.3,1.7,1.2,4-0.1,5l0,0c-1.3,1-3.5,0.4-4.8-1.3l-2.2-2.9C469.3,291.6,469.5,289.4,470.8,288.4z"/>
	<path id="矩形_00000158712357036432891000000000801039312626160556_" class="st20" d="M428.9,383.4L428.9,383.4
		c1.1,0,2,1.3,2,2.8v2.6c0,1.5-0.9,2.8-2,2.8l0,0c-1.1,0-2-1.3-2-2.8v-2.6C427,384.6,427.9,383.4,428.9,383.4z"/>
	<path id="矩形_00000114050391684018755390000000053120643857883041_" class="st20" d="M412.1,373.1L412.1,373.1
		c1.1,0,2,1.3,2,2.8v2.6c0,1.5-0.9,2.8-2,2.8l0,0c-1.1,0-2-1.3-2-2.8v-2.6C410.1,374.3,411.1,373.1,412.1,373.1z"/>
	<path id="矩形_00000125570980640691235190000009126864157123946916_" class="st20" d="M448.2,391.7L448.2,391.7
		c1.1,0,2,1.3,2,2.8v2.6c0,1.5-0.9,2.8-2,2.8l0,0c-1.1,0-2-1.3-2-2.8v-2.6C446.2,392.9,447.1,391.7,448.2,391.7z"/>
	<path id="矩形_00000085222136528207175980000010057872458913906071_" class="st20" d="M466.9,386.6L466.9,386.6
		c0.8,0,1.6,1,1.6,2.3v2.1c0,1.2-0.7,2.3-1.6,2.3l0,0c-0.8,0-1.6-1-1.6-2.3v-2.1C465.4,387.5,466.1,386.6,466.9,386.6z"/>
	<g>
		<path id="椭圆形_00000000213518226564328300000011830794059556339595_" class="st24" d="M457.7,343.6c3.9-0.2,6.8-3.5,6.8-5.7
			c0-0.9-0.5-1.7-1.3-1.7c-1.2-0.1-3.1,0.7-5.4,0.8c-2.2,0.1-3.6-0.5-5.3-0.4c-1.8,0.1-1.7,2.1-1.4,2.9
			C451.6,341.6,453.8,343.8,457.7,343.6z"/>
		<path id="椭圆形_00000129167592423837129310000006508076846067909302_" class="st25" d="M457.8,341.7c4-0.2,6.9-3.2,6.9-5.4
			c0-0.8-0.5-1.5-1.3-1.6c-1.2-0.1-3.2,0.7-5.5,0.8c-2.3,0.1-3.6-0.5-5.4-0.4c-1.8,0.1-1.7,2-1.4,2.7
			C451.6,339.9,453.8,341.9,457.8,341.7z"/>
	</g>
	<g>
		
			<ellipse transform="matrix(0.5671 -0.8237 0.8237 0.5671 -73.4503 502.8005)" class="st25" cx="441.6" cy="321.3" rx="9" ry="8.7"/>
		<path id="形状结合_00000139991074498505335430000000334368411004482198_" class="st26" d="M442.7,311.8c4-0.2,7.3,3.8,7.3,8.8
			c0,0.2,0,0.4,0,0.5l0,0.5c0-5.1-3.2-9.1-7.1-9s-7.1,4.4-7.1,9.6c0,1,0.1,2,0.4,2.8c-0.4-1.1-0.7-2.5-0.7-3.8
			C435.4,316.2,438.7,311.9,442.7,311.8z"/>
		<path id="形状结合_00000052063602207473638080000003698687696534397360_" class="st27" d="M442.7,310.7
			c4.5-0.2,8.2,4.2,8.2,9.8s-3.7,10.3-8.2,10.5c-4.5,0.2-8.2-4.2-8.2-9.8C434.5,315.6,438.1,310.9,442.7,310.7z M442.7,311.8
			c-4,0.2-7.3,4.4-7.3,9.4c0,5,3.3,9,7.3,8.8c4-0.2,7.3-4.4,7.3-9.4C450,315.6,446.7,311.6,442.7,311.8z"/>
	</g>
	<g>
		<ellipse transform="matrix(0.5671 -0.8237 0.8237 0.5671 -59.701 526.3299)" class="st25" cx="470.8" cy="320" rx="9" ry="8.7"/>
		<path id="形状结合_00000050636411181128458370000012052794609753276570_" class="st26" d="M471.8,310.5c4-0.2,7.3,3.8,7.3,8.8
			c0,0.2,0,0.4,0,0.5l0,0.5c0-5.1-3.2-9.1-7.1-9s-7.1,4.4-7.1,9.6c0,1,0.1,2,0.4,2.8c-0.4-1.1-0.7-2.5-0.7-3.8
			C464.5,314.9,467.7,310.6,471.8,310.5z"/>
		<path id="形状结合_00000144308009468297832010000001285562384527512727_" class="st27" d="M471.8,309.4
			c4.5-0.2,8.2,4.2,8.2,9.8s-3.7,10.3-8.2,10.5c-4.5,0.2-8.2-4.2-8.2-9.8C463.6,314.3,467.2,309.6,471.8,309.4z M471.8,310.5
			c-4,0.2-7.3,4.4-7.3,9.4c0,5,3.3,9,7.3,8.8c4-0.2,7.3-4.4,7.3-9.4C479.1,314.3,475.7,310.3,471.8,310.5z"/>
	</g>
	<circle class="st24" cx="446.3" cy="321.4" r="3.6"/>
	<circle class="st24" cx="475.4" cy="320.3" r="3.6"/>
</g>
<g>
	<g>
		<polygon class="st30" points="659.8,381.3 633.6,366.2 633.6,340 659.8,355.1 		"/>
		<polygon class="st31" points="659.8,381.3 685.9,366.2 685.9,340 659.8,355.1 		"/>
		<polygon class="st32" points="659.9,355.2 633.6,340 659.7,324.8 685.9,340 		"/>
		<path id="矩形_00000101789833891165809710000004055379570665605512_" class="st33" d="M651.1,333.9L651.1,333.9
			c0.5,0.3,0.4,0.9-0.2,1.2l-5.4,3.2c-0.6,0.4-1.6,0.4-2.1,0.1l0,0c-0.5-0.3-0.4-0.9,0.2-1.2l5.4-3.2
			C649.6,333.7,650.6,333.6,651.1,333.9z"/>
		<path id="矩形_00000170963208378212816990000000595842036049401998_" class="st33" d="M642.1,339.2L642.1,339.2
			c0.5,0.3,0.4,0.9-0.2,1.2l-1.1,0.6c-0.6,0.4-1.6,0.4-2.1,0.1l0,0c-0.5-0.3-0.4-0.9,0.2-1.2l1.1-0.6
			C640.6,338.9,641.5,338.9,642.1,339.2z"/>
	</g>
</g>
<g>
	<g>
		<polygon class="st30" points="646.7,351.3 627.9,340.4 627.9,321.7 646.7,332.5 		"/>
		<polygon class="st31" points="646.7,351.3 665.4,340.4 665.4,321.7 646.7,332.5 		"/>
		<polygon class="st32" points="646.8,332.6 627.9,321.7 646.6,310.8 665.4,321.7 		"/>
		<path id="矩形_00000098919862614975608670000011401062730418161823_" class="st33" d="M640.7,317L640.7,317
			c0.4,0.2,0.3,0.6-0.1,0.9l-3.9,2.3c-0.4,0.3-1.1,0.3-1.5,0.1l0,0c-0.4-0.2-0.3-0.6,0.1-0.9l3.9-2.3
			C639.7,316.9,640.4,316.8,640.7,317z"/>
		<path id="矩形_00000179646283037819669940000013144901021692491922_" class="st33" d="M634.2,320.8L634.2,320.8
			c0.4,0.2,0.3,0.6-0.1,0.9l-0.8,0.4c-0.4,0.3-1.1,0.3-1.5,0.1l0,0c-0.4-0.2-0.3-0.6,0.1-0.9l0.8-0.4
			C633.2,320.6,633.9,320.6,634.2,320.8z"/>
	</g>
</g>
<g>
	<g>
		<g>
			
				<linearGradient id="SVGID_00000150061594085464757930000003647190602014768787_" gradientUnits="userSpaceOnUse" x1="710.5278" y1="343.8688" x2="710.7983" y2="343.8688">
				<stop  offset="0" style="stop-color:#A25DA2"/>
				<stop  offset="1" style="stop-color:#00AFC2"/>
			</linearGradient>
			
				<path style="fill:url(#SVGID_00000150061594085464757930000003647190602014768787_);stroke:#1D1D1B;stroke-linecap:round;stroke-linejoin:round;stroke-miterlimit:10;" d="
				M710.6,343.1c-0.1-0.3,0,0.7,0,1.5C710.8,344.9,710.9,344.7,710.6,343.1z"/>
			<path class="st37" d="M745.8,319v-13.9V282c0-1.6-0.1-3.1-0.1-4.5l-2.4-17.7c-0.5-0.5-5.8-4.2-5.8-4.2c-3-1.9-8.6-3.7-17.2,3.1
				c-10.4,8.2-15.4,22.8-16.5,28.9c-0.1,0.8-0.3,1.6-0.4,2.5v0c0,0,0,0,0,0c0,0.2,0,0.4-0.1,0.6c0,0,0,0,0,0c0,0,0,0.1,0,0.1
				c0,0,0,0.1,0,0.1c0,0,0,0.1,0,0.1c0,0.1,0,0.3,0,0.4c0,0,0,0,0,0c0,0.1,0,0.2,0,0.3c0,0.1,0,0.1,0,0.2c0,0.1,0,0.2,0,0.2
				c0,0.1,0,0.2,0,0.3c0,0,0,0.1,0,0.1c0,0.1,0,0.2,0,0.2c0,0,0,0.1,0,0.1c0,0.3,0,0.5,0,0.8v0.4c0,0,0,0.1,0,0.1c0,0,0,0,0,0
				l-0.3,30.7v0l0,0l0,0v16.5c0,1.1,0.4,1.6,0.9,2.1c0.1,0.1,6.2,4,6.4,4c0.1,0,0.1-2.2,0.2-2.2c0.1-0.1,0.2-0.3,0.2-0.6
				c-0.4-0.5-1.2-2-1.1-2.2c0.5-0.8,0.8-1.7,0.8-2.6v-8.5v-0.1c0-0.9,0.4-2,1-2.8c0.1-0.2,0.3-0.4,0.5-0.6v1.4
				c0,0.5,0.1,3.2,0.3,3.5c0.2,0.4,0.5,0.7,0.9,1c0.2,0.2,6,4,6.3,3.8c0.1-0.1-0.1-3.6,0-3.7c0.6-0.5-0.7-1.6-0.4-2.5
				c0.2-0.5,0.3-1,0.3-1.5v-3.7c0-0.5,0.1-1,0.3-1.5c0.1-0.2,0.2-0.4,0.2-0.6c0.3-0.6-0.5,0.4,0,0c0,0,7.9,5.1,7.9,5.1
				c0.1,0,5.4-2.6,1.3-3.2c-0.1,0,0.1-0.1,0.3-0.2c1.2-0.7-1.2-2.4-1.2-4V321c0-0.7,0.2-1.4,0.5-2c0-0.1,0.1-0.2,0.1-0.3
				c0.2-0.4,0.5-0.8,0.8-1.1v1.4c0,0.4,0,3.4,0.4,3.9c0.1,0.1,6.7,4.2,6.8,4.3c0.4,0.2,0.2-6,0.2-7.6v-3.7c0-1.2,0.6-2.5,1.5-3.4
				v8.6c0,1.6,7.3,5.7,7.3,5.7C746.8,326.2,745.8,320.7,745.8,319z"/>
		</g>
		<path class="st31" d="M749.1,280.9v-6.1c0-14.4-8.9-20.9-19.9-14.5c-9.3,5.4-17.1,18.3-19.3,30.9c-0.4,2-0.6,4.1-0.6,6.2v0.4
			c0,0,0,0.1,0,0.1v33.6l0,0v1.9v12.4c0,1.6,1,2.3,2.1,1.6c1.2-0.7,2.1-2.5,2.1-4.1v-8.5v-0.1c0-1.5,1-3.3,2.3-4l0,0
			c1.2-0.7,2.2,0,2.2,1.5v3.7c0,1.6,1,2.3,2.1,1.6c1.2-0.7,2.1-2.5,2.1-4.1v-3.7c0-1.5,1-3.3,2.3-4l0,0c1.2-0.7,2.2,0,2.2,1.5v0.7
			c0,1.6,1,2.3,2.1,1.6c1.2-0.7,2.1-2.5,2.1-4.1v-0.8c0-1.5,1-3.3,2.3-4l0,0c1.2-0.7,2.2,0,2.2,1.5v3.7c0,1.6,1,2.3,2.1,1.6
			s2.1-2.5,2.1-4.1v-3.7c0-1.5,1-3.3,2.3-4l0,0c1.2-0.7,2.2,0,2.2,1.5v8.3c0,1.6,1,2.4,2.3,1.7c1.2-0.7,2.3-2.6,2.3-4.3v-37
			C749.3,283.8,749.2,282.3,749.1,280.9z"/>
		<g>
			<path id="椭圆形_00000127035412205362388880000014363485460233976967_" class="st35" d="M730.7,297.3c1.9-1.1,3.2-3.7,3.2-4.9
				c0-0.5-0.2-0.8-0.6-0.6c-0.6,0.2-1.5,1.2-2.6,1.8c-1.1,0.6-1.7,0.6-2.5,1.1c-0.8,0.5-0.8,1.6-0.7,2
				C727.8,297.7,728.8,298.3,730.7,297.3z"/>
		</g>
		
			<ellipse transform="matrix(0.4058 -0.914 0.914 0.4058 165.7502 832.5061)" class="st35" cx="723.1" cy="288.8" rx="6.3" ry="3.6"/>
		<ellipse transform="matrix(0.4058 -0.914 0.914 0.4058 182.4316 840.9672)" class="st35" cx="738" cy="280.2" rx="6.3" ry="3.6"/>
	</g>
</g>
<g>
	<g>
		<path class="st42" d="M373.2,271.3l-55.5,32.4v-59l50.6-29.5c5.1-2.6,7.4-1,7.4,4.3v47.6C375.6,268.8,374.7,270.4,373.2,271.3z"/>
		<path class="st43" d="M381.3,276.3l-55.5,32.4v-59l50.6-29.5c5.1-2.6,7.4-1,7.4,4.3V272C383.7,273.7,382.8,275.4,381.3,276.3z"/>
		<polygon class="st42" points="325.7,308.6 317.6,303.8 317.6,244.8 325.7,249.7 		"/>
		
			<ellipse transform="matrix(0.4157 -0.9095 0.9095 0.4157 -12.8416 488.9513)" class="st47" cx="374.1" cy="254.5" rx="5.6" ry="3.1"/>
	</g>
	<polygon class="st40" points="320.4,246.5 371,216.6 376.3,220.2 325.7,249.7 	"/>
</g>
<g>
	<g>
		<g>
			
				<linearGradient id="SVGID_00000064336317230772885820000017463261013155437493_" gradientUnits="userSpaceOnUse" x1="317.8915" y1="356.706" x2="318.135" y2="356.706">
				<stop  offset="0" style="stop-color:#A25DA2"/>
				<stop  offset="1" style="stop-color:#00AFC2"/>
			</linearGradient>
			
				<path style="fill:url(#SVGID_00000064336317230772885820000017463261013155437493_);stroke:#1D1D1B;stroke-linecap:round;stroke-linejoin:round;stroke-miterlimit:10;" d="
				M317.9,356c-0.1-0.3,0,0.7,0,1.3C318.1,357.6,318.3,357.4,317.9,356z"/>
			<path class="st37" d="M349.7,334.3v-12.5V301c0-1.4,0-2.8-0.1-4.1l-2.2-16c-0.4-0.5-5.3-3.8-5.3-3.8c-2.7-1.7-7.7-3.4-15.5,2.8
				c-9.4,7.4-13.9,20.5-14.9,26.1c-0.1,0.7-0.3,1.5-0.3,2.2v0c0,0,0,0,0,0c0,0.2,0,0.4-0.1,0.6c0,0,0,0,0,0c0,0,0,0.1,0,0.1
				c0,0,0,0.1,0,0.1c0,0,0,0.1,0,0.1c0,0.1,0,0.2,0,0.4c0,0,0,0,0,0c0,0.1,0,0.2,0,0.3c0,0.1,0,0.1,0,0.2c0,0.1,0,0.1,0,0.2
				c0,0.1,0,0.2,0,0.3c0,0,0,0.1,0,0.1c0,0.1,0,0.1,0,0.2c0,0,0,0.1,0,0.1c0,0.2,0,0.5,0,0.7v0.3c0,0,0,0,0,0.1c0,0,0,0,0,0
				l-0.2,27.6l0,0l0,0l0,0v14.9c0,1,0.3,1.5,0.8,1.9c0.1,0.1,5.5,3.6,5.7,3.6c0.1,0,0.1-1.9,0.2-2c0.1-0.1,0.1-0.3,0.2-0.6
				c-0.4-0.4-1-1.8-1-1.9c0.4-0.7,0.7-1.6,0.7-2.4v-7.6v0c0-0.9,0.4-1.8,0.9-2.5c0.1-0.2,0.3-0.3,0.4-0.5v1.3c0,0.4,0.1,2.9,0.2,3.1
				c0.2,0.4,0.5,0.6,0.8,0.9c0.2,0.1,5.4,3.6,5.7,3.4c0.1-0.1-0.1-3.2,0-3.3c0.6-0.5-0.6-1.4-0.3-2.2c0.1-0.4,0.2-0.9,0.2-1.3v-3.4
				c0-0.4,0.1-0.9,0.2-1.3c0.1-0.2,0.1-0.3,0.2-0.5c0.3-0.6-0.4,0.4,0,0c0,0,7.1,4.6,7.1,4.6c0.1,0,4.9-2.3,1.2-2.9
				c-0.1,0,0.1-0.1,0.3-0.2c1.1-0.6-1.1-2.2-1.1-3.6v-0.7c0-0.6,0.2-1.2,0.5-1.8c0-0.1,0.1-0.2,0.1-0.2c0.2-0.4,0.5-0.7,0.7-1v1.3
				c0,0.4,0,3.1,0.3,3.5c0.1,0.1,6,3.8,6.1,3.9c0.3,0.2,0.2-5.4,0.2-6.8v-3.4c0-1.1,0.6-2.3,1.3-3.1v7.8c0,1.5,6.6,5.2,6.6,5.2
				C350.5,340.8,349.7,335.8,349.7,334.3z"/>
		</g>
		<path class="st31" d="M352.6,300v-5.5c0-12.9-8-18.8-17.9-13.1c-8.4,4.9-15.4,16.5-17.4,27.8c-0.3,1.8-0.5,3.7-0.5,5.6v0.3
			c0,0,0,0.1,0,0.1v30.2l0,0v1.7v11.2c0,1.4,0.9,2,1.9,1.4c1.1-0.6,1.9-2.2,1.9-3.7v-7.6v0c0-1.4,0.9-3,2-3.6l0,0c1.1-0.6,2,0,2,1.3
			v3.3c0,1.4,0.9,2,1.9,1.4c1.1-0.6,1.9-2.2,1.9-3.7v-3.4c0-1.4,0.9-3,2-3.6l0,0c1.1-0.6,2,0,2,1.3v0.6c0,1.4,0.9,2,1.9,1.4
			c1.1-0.6,1.9-2.2,1.9-3.7v-0.7c0-1.4,0.9-3,2-3.6l0,0c1.1-0.6,2,0,2,1.3v3.3c0,1.4,0.9,2,1.9,1.4s1.9-2.2,1.9-3.7v-3.4
			c0-1.4,0.9-3,2-3.6l0,0c1.1-0.6,2,0,2,1.3v7.5c0,1.5,0.9,2.2,2,1.5c1.1-0.6,2-2.4,2-3.9v-33.3C352.8,302.6,352.7,301.3,352.6,300z
			"/>
		<g>
			<path id="椭圆形_00000160903834382852472290000008508070131601795493_" class="st35" d="M336.1,314.7c1.7-1,2.9-3.3,2.9-4.5
				c0-0.4-0.2-0.7-0.6-0.6c-0.5,0.2-1.3,1.1-2.3,1.6c-1,0.6-1.5,0.5-2.3,1s-0.7,1.5-0.6,1.8C333.5,315.1,334.4,315.7,336.1,314.7z"
				/>
		</g>
		
			<ellipse transform="matrix(0.4058 -0.914 0.914 0.4058 -85.0684 483.3943)" class="st35" cx="329.2" cy="307.1" rx="5.7" ry="3.2"/>
		
			<ellipse transform="matrix(0.4058 -0.914 0.914 0.4058 -70.0518 491.011)" class="st35" cx="342.6" cy="299.4" rx="5.7" ry="3.2"/>
	</g>
</g>
<g>
	<g>
		<polygon class="st31" points="964.9,130.3 826.5,209.3 826.5,283.3 964.9,204.3 		"/>
		<polygon class="st49" points="808.3,199.1 826.5,208.9 826.5,283.3 808.3,273.5 		"/>
		<polygon class="st32" points="964.9,130.3 945.4,120 808.3,199.1 826.5,208.9 		"/>
	</g>
	<g>
		<g>
			<polygon class="st50" points="955.1,166.5 839.4,233.9 839.4,224.9 955.1,157.5 			"/>
			<polygon class="st31" points="954.1,165.8 840.1,232.3 840.1,224.8 954.1,158.3 			"/>
			<polygon class="st13" points="931.2,178.6 840.5,231.8 840.5,225 931.2,172.1 			"/>
		</g>
		<g>
			<polygon class="st50" points="955.1,185 839.4,252.4 839.4,243.3 955.1,175.9 			"/>
			<polygon class="st31" points="954.1,184.3 839.4,251.2 839.4,243.7 954.1,176.8 			"/>
			<polygon class="st14" points="889.4,221.6 839.7,250.5 839.7,243.9 889.4,215 			"/>
		</g>
	</g>
</g>
<g>
	<g>
		<polygon class="st31" points="998.3,191 932.6,228.6 932.6,263.8 998.3,226.2 		"/>
		<polygon class="st51" points="923.9,223.7 932.6,228.4 932.6,263.8 923.9,259.1 		"/>
		<polygon class="st32" points="998.3,191 989.1,186.1 923.9,223.7 932.6,228.4 		"/>
	</g>
	<g>
		<g>
			<polygon class="st30" points="993.7,208.3 938.7,240.3 938.7,236 993.7,204 			"/>
			<polygon class="st31" points="993.2,207.9 939.1,239.5 939,236 993.2,204.3 			"/>
			<polygon class="st13" points="978,216.4 938.8,239.4 938.8,236.4 978,213.6 			"/>
		</g>
		<g>
			<polygon class="st30" points="993.7,217 938.7,249.1 938.7,244.8 993.7,212.7 			"/>
			<polygon class="st31" points="993.2,216.7 938.7,248.5 938.7,244.9 993.2,213.1 			"/>
			<polygon class="st14" points="992.9,216.7 938.8,248.1 938.8,245.2 992.9,213.8 			"/>
		</g>
	</g>
</g>
<g>
	<g>
		<polygon class="st30" points="904,263.6 889.4,255.2 889.4,240.6 904,249 		"/>
		<polygon class="st31" points="904,263.6 918.6,255.2 918.6,240.6 904,249 		"/>
		<polygon class="st32" points="904,249.1 889.4,240.6 903.9,232.2 918.6,240.6 		"/>
		<path id="矩形_00000033350810597310774450000004588125681328775583_" class="st33" d="M899.3,237L899.3,237
			c0.3,0.2,0.2,0.5-0.1,0.7l-3,1.8c-0.3,0.2-0.9,0.2-1.2,0.1l0,0c-0.3-0.2-0.2-0.5,0.1-0.7l3-1.8C898.5,236.9,899.1,236.8,899.3,237
			z"/>
		<path id="矩形_00000000911220762149549980000010170205522326771361_" class="st33" d="M894.3,239.9L894.3,239.9
			c0.3,0.2,0.2,0.5-0.1,0.7l-0.6,0.3c-0.3,0.2-0.9,0.2-1.2,0.1l0,0c-0.3-0.2-0.2-0.5,0.1-0.7l0.6-0.3
			C893.5,239.8,894,239.7,894.3,239.9z"/>
	</g>
</g>
<g>
	<g>
		<polygon class="st30" points="875.1,266.7 867.7,262.4 867.7,255 875.1,259.3 		"/>
		<polygon class="st31" points="875.1,266.7 882.6,262.4 882.6,255 875.1,259.3 		"/>
		<polygon class="st32" points="875.2,259.3 867.7,255 875.1,250.7 882.6,255 		"/>
		<path id="矩形_00000097460552750863499410000000980432338447913863_" class="st33" d="M872.8,253.1L872.8,253.1
			c0.1,0.1,0.1,0.2-0.1,0.3l-1.5,0.9c-0.2,0.1-0.4,0.1-0.6,0l0,0c-0.1-0.1-0.1-0.2,0.1-0.3l1.5-0.9
			C872.4,253.1,872.6,253.1,872.8,253.1z"/>
		<path id="矩形_00000108302757163250888370000005807391635373745584_" class="st33" d="M870.2,254.6L870.2,254.6
			c0.1,0.1,0.1,0.2-0.1,0.3l-0.3,0.2c-0.2,0.1-0.4,0.1-0.6,0l0,0c-0.1-0.1-0.1-0.2,0.1-0.3l0.3-0.2
			C869.8,254.6,870.1,254.5,870.2,254.6z"/>
	</g>
</g>
<g>
	<g>
		<polygon class="st30" points="965.4,287.7 955.4,281.9 955.4,271.8 965.4,277.6 		"/>
		<polygon class="st31" points="965.4,287.7 975.5,281.9 975.5,271.8 965.4,277.6 		"/>
		<polygon class="st32" points="965.5,277.7 955.4,271.8 965.4,266 975.5,271.8 		"/>
		<path id="矩形_00000163033718412253898220000016603240086755126945_" class="st33" d="M962.2,269.3L962.2,269.3
			c0.2,0.1,0.2,0.3-0.1,0.5l-2.1,1.2c-0.2,0.1-0.6,0.2-0.8,0.1l0,0c-0.2-0.1-0.2-0.3,0.1-0.5l2.1-1.2
			C961.7,269.2,962,269.2,962.2,269.3z"/>
		<path id="矩形_00000114754618194364507070000012319601094400385458_" class="st33" d="M958.7,271.3L958.7,271.3
			c0.2,0.1,0.2,0.3-0.1,0.5l-0.4,0.2c-0.2,0.1-0.6,0.2-0.8,0.1l0,0c-0.2-0.1-0.2-0.3,0.1-0.5l0.4-0.2
			C958.2,271.2,958.5,271.2,958.7,271.3z"/>
	</g>
</g>
<g>
	
		<radialGradient id="SVGID_00000174602330537184941420000005966022452491073430_" cx="-4944.9146" cy="159.4581" r="13.1357" gradientTransform="matrix(-1 0 0 0.5898 -4672.1343 65.4108)" gradientUnits="userSpaceOnUse">
		<stop  offset="0" style="stop-color:#B8B2D6"/>
		<stop  offset="0.3457" style="stop-color:#BAB5D7;stop-opacity:0.6543"/>
		<stop  offset="0.6064" style="stop-color:#C2BFDC;stop-opacity:0.3936"/>
		<stop  offset="0.8384" style="stop-color:#CECFE3;stop-opacity:0.1616"/>
		<stop  offset="1" style="stop-color:#DBDFEB;stop-opacity:0"/>
	</radialGradient>
	<path style="opacity:0.67;fill:url(#SVGID_00000174602330537184941420000005966022452491073430_);" d="M261.5,153.1
		c6.2-3.6,16.2-3.6,22.4-0.1c6.2,3.5,6.3,9.2,0.1,12.8c-6.2,3.6-16.2,3.6-22.4,0.1C255.4,162.4,255.4,156.7,261.5,153.1z"/>
	<path class="st34" d="M245.9,123.8c0,0,1.5,4.1,4.9,4.3c2.8-5.9,11.9-10.3,22.7-10.3c13,0,23.6,6.3,23.6,14.1
		c0,0.9-0.2,1.8-0.4,2.7h0c-2.1,9.2-12.4,16.7-23.2,16.7c-10.5,0-21.8-7.5-23.2-16.8C247.1,132.9,244.3,129.2,245.9,123.8z"/>
	<ellipse class="st29" cx="274.3" cy="132.1" rx="19.6" ry="11.4"/>
	<path class="st34" d="M246.5,119.1c0-0.1,0-0.2,0-0.3c0-0.4,0-0.7,0.1-1c0.9-13.7,12.3-24.6,26.2-24.6c13.9,0,25.3,10.8,26.2,24.6
		c0,0.3,0.1,0.7,0.1,1c0,0.1,0,0.2,0,0.3c0,0.1,0,0.3,0,0.4h0c-0.6,8.4-12.1,15-26.3,15c-14.1,0-25.7-6.7-26.3-15h0
		C246.5,119.4,246.5,119.2,246.5,119.1z"/>
	<g>
		<path class="st53" d="M292.3,122.8c0.4,0,0.6-0.3,0.6-0.6c0-1-0.4-1.5-0.8-1.9c-0.3-0.3-0.5-0.6-0.5-1.1c0-0.5,0.2-0.7,0.5-1.1
			c0.4-0.4,0.8-0.9,0.8-1.9c0-1-0.4-1.5-0.8-1.9c-0.3-0.3-0.5-0.6-0.5-1.1s0.2-0.7,0.5-1.1c0.4-0.4,0.8-0.9,0.8-1.9
			c0-1-0.4-1.5-0.8-1.9c-0.3-0.3-0.5-0.6-0.5-1.1c0-0.4-0.3-0.6-0.6-0.6c-0.4,0-0.6,0.3-0.6,0.6v0c0,1,0.4,1.5,0.8,1.9
			c0.3,0.3,0.5,0.6,0.5,1.1s-0.2,0.7-0.5,1.1c-0.4,0.4-0.8,0.9-0.8,1.9s0.4,1.5,0.8,1.9c0.3,0.3,0.5,0.6,0.5,1.1
			c0,0.5-0.2,0.7-0.5,1.1c-0.4,0.4-0.8,0.9-0.8,1.9c0,1,0.4,1.5,0.8,1.9c0.3,0.3,0.5,0.6,0.5,1.1C291.7,122.5,292,122.8,292.3,122.8
			z"/>
	</g>
	<g>
		<path class="st53" d="M280,127.2c0.4,0,0.6-0.3,0.6-0.6c0-1-0.4-1.5-0.8-1.9c-0.3-0.3-0.5-0.6-0.5-1.1c0-0.5,0.2-0.7,0.5-1.1
			c0.4-0.4,0.8-0.9,0.8-1.9c0-1-0.4-1.5-0.8-1.9c-0.3-0.3-0.5-0.6-0.5-1.1c0-0.5,0.2-0.7,0.5-1.1c0.4-0.4,0.8-0.9,0.8-1.9
			c0-1-0.4-1.5-0.8-1.9c-0.3-0.3-0.5-0.6-0.5-1.1c0-0.4-0.3-0.6-0.6-0.6s-0.6,0.3-0.6,0.6v0c0,1,0.4,1.5,0.8,1.9
			c0.3,0.3,0.5,0.6,0.5,1.1s-0.2,0.7-0.5,1.1c-0.4,0.4-0.8,0.9-0.8,1.9s0.4,1.5,0.8,1.9c0.3,0.3,0.5,0.6,0.5,1.1
			c0,0.5-0.2,0.7-0.5,1.1c-0.4,0.4-0.8,0.9-0.8,1.9c0,1,0.4,1.5,0.8,1.9c0.3,0.3,0.5,0.6,0.5,1.1C279.4,126.9,279.7,127.2,280,127.2
			z"/>
	</g>
</g>
<g>
	<g>
		<polygon class="st30" points="246.6,331.6 228.3,321 228.3,302.7 246.6,313.3 		"/>
		<polygon class="st31" points="246.6,331.6 264.9,321 264.9,302.7 246.6,313.3 		"/>
		<polygon class="st32" points="246.6,313.3 228.3,302.8 246.5,292.1 264.9,302.7 		"/>
		<path id="矩形_00000111894534782586352910000011388597351787023516_" class="st33" d="M240.7,298.2L240.7,298.2
			c0.4,0.2,0.3,0.6-0.1,0.9l-3.8,2.2c-0.4,0.3-1.1,0.3-1.5,0.1l0,0c-0.4-0.2-0.3-0.6,0.1-0.9l3.8-2.2
			C239.7,298,240.4,298,240.7,298.2z"/>
		<path id="矩形_00000141414541270410701730000007828823545925566375_" class="st33" d="M234.4,301.9L234.4,301.9
			c0.4,0.2,0.3,0.6-0.1,0.9l-0.7,0.4c-0.4,0.3-1.1,0.3-1.5,0.1l0,0c-0.4-0.2-0.3-0.6,0.1-0.9l0.7-0.4
			C233.4,301.7,234.1,301.7,234.4,301.9z"/>
	</g>
</g>
<g>
	<g>
		<polygon class="st30" points="272.5,333.1 261.4,326.7 261.4,315.5 272.5,322 		"/>
		<polygon class="st31" points="272.5,333.1 283.7,326.7 283.7,315.5 272.5,322 		"/>
		<polygon class="st32" points="272.6,322 261.4,315.6 272.5,309.1 283.7,315.5 		"/>
		<path id="矩形_00000132057571097460965690000010285859007262207422_" class="st33" d="M269,312.8L269,312.8
			c0.2,0.1,0.2,0.4-0.1,0.5l-2.3,1.4c-0.3,0.2-0.7,0.2-0.9,0.1l0,0c-0.2-0.1-0.2-0.4,0.1-0.5l2.3-1.4
			C268.4,312.7,268.8,312.6,269,312.8z"/>
		<path id="矩形_00000050623933072310887590000005225894931455542451_" class="st33" d="M265.1,315L265.1,315
			c0.2,0.1,0.2,0.4-0.1,0.5l-0.4,0.3c-0.3,0.2-0.7,0.2-0.9,0.1l0,0c-0.2-0.1-0.2-0.4,0.1-0.5l0.4-0.3
			C264.5,314.9,264.9,314.9,265.1,315z"/>
	</g>
</g>
<g>
	<g>
		<polygon class="st30" points="257.5,309 244.7,301.6 244.7,288.8 257.5,296.2 		"/>
		<polygon class="st31" points="257.5,309 270.3,301.6 270.3,288.8 257.5,296.2 		"/>
		<polygon class="st32" points="257.5,296.2 244.7,288.8 257.4,281.4 270.3,288.8 		"/>
		<path id="矩形_00000077314777013170198860000016957530277612473259_" class="st33" d="M253.4,285.6L253.4,285.6
			c0.3,0.1,0.2,0.4-0.1,0.6l-2.7,1.6c-0.3,0.2-0.8,0.2-1,0.1l0,0c-0.3-0.1-0.2-0.4,0.1-0.6l2.7-1.6
			C252.7,285.5,253.2,285.5,253.4,285.6z"/>
		<path id="矩形_00000046303265669690789550000008704059724179295895_" class="st33" d="M249,288.2L249,288.2
			c0.3,0.1,0.2,0.4-0.1,0.6l-0.5,0.3c-0.3,0.2-0.8,0.2-1,0.1l0,0c-0.3-0.1-0.2-0.4,0.1-0.6l0.5-0.3C248.3,288,248.8,288,249,288.2z"
			/>
	</g>
</g>
<g>
	<polygon class="st29" points="798.3,293.2 842.1,266.3 842.1,310.2 799.5,336.3 806.6,310.5 	"/>
	<line class="st54" x1="841.7" y1="279.4" x2="841.7" y2="338.7"/>
	<g>
		<g>
			<path class="st55" d="M816.3,317.5l-3,1.8V311l2.9-1.8c0.5-0.3,0.9-0.3,1.2-0.1c0.3,0.2,0.4,0.7,0.4,1.3c0,0.5-0.1,1-0.3,1.4
				c-0.2,0.5-0.4,0.8-0.7,1c0.3-0.1,0.5,0,0.7,0.2c0.2,0.3,0.3,0.7,0.3,1.2c0,0.6-0.1,1.3-0.4,1.9
				C817.2,316.7,816.8,317.2,816.3,317.5z M815.9,312.7c0.2-0.1,0.4-0.3,0.5-0.5c0.1-0.2,0.2-0.5,0.2-0.8c0-0.3-0.1-0.4-0.2-0.5
				c-0.1-0.1-0.3-0.1-0.5,0l-1.5,0.9v1.8L815.9,312.7z M816,316.1c0.2-0.1,0.4-0.3,0.5-0.6c0.1-0.2,0.2-0.5,0.2-0.8
				c0-0.3-0.1-0.5-0.2-0.6c-0.1-0.1-0.3-0.1-0.5,0l-1.5,0.9v1.9L816,316.1z"/>
			<path class="st55" d="M824.2,303.2c-0.8,0.5-1.5,0.5-2.1,0.1c-0.6-0.5-0.8-1.3-0.8-2.6c0-1.3,0.3-2.5,0.8-3.6
				c0.6-1.1,1.2-2,2.1-2.5c1-0.6,1.7-0.4,2.3,0.5l-1,1.4c-0.1-0.2-0.3-0.4-0.5-0.5c-0.2-0.1-0.5,0-0.8,0.2c-0.5,0.3-0.9,0.8-1.2,1.5
				c-0.3,0.7-0.5,1.5-0.5,2.3c0,0.8,0.2,1.3,0.5,1.7c0.3,0.3,0.7,0.3,1.2,0c0.2-0.1,0.4-0.3,0.7-0.6c0.2-0.3,0.4-0.5,0.5-0.8v-1
				l-1.4,0.9v-1.5l2.6-1.6v3.2C825.9,301.6,825.1,302.6,824.2,303.2z"/>
			<path class="st55" d="M833,289l-2.2,1.3V282l2.2-1.3c0.9-0.5,1.6-0.6,2.1-0.1c0.5,0.4,0.8,1.3,0.8,2.5s-0.3,2.4-0.8,3.5
				C834.6,287.7,833.9,288.5,833,289z M833,287.4c0.5-0.3,0.9-0.8,1.2-1.5c0.3-0.7,0.5-1.4,0.5-2.1c0-0.8-0.1-1.3-0.4-1.6
				c-0.3-0.3-0.7-0.3-1.3,0l-1,0.6v5.2L833,287.4z"/>
		</g>
	</g>
</g>
<g>
	
		<radialGradient id="SVGID_00000082356506882473644490000010028084263229474474_" cx="885.647" cy="369.8365" r="19.5782" gradientTransform="matrix(1 0 0 0.5898 0 151.7095)" gradientUnits="userSpaceOnUse">
		<stop  offset="0" style="stop-color:#B8B2D6"/>
		<stop  offset="0.3457" style="stop-color:#BAB5D7;stop-opacity:0.6543"/>
		<stop  offset="0.6064" style="stop-color:#C2BFDC;stop-opacity:0.3936"/>
		<stop  offset="0.8384" style="stop-color:#CECFE3;stop-opacity:0.1616"/>
		<stop  offset="1" style="stop-color:#DBDFEB;stop-opacity:0"/>
	</radialGradient>
	<path style="opacity:0.67;fill:url(#SVGID_00000082356506882473644490000010028084263229474474_);" d="M902.4,360.4
		c-9.2-5.3-24.1-5.4-33.4-0.2c-9.3,5.2-9.3,13.7-0.2,19.1c9.2,5.3,24.1,5.4,33.4,0.2C911.5,374.2,911.6,365.7,902.4,360.4z"/>
	<path class="st34" d="M922.3,324.3c0,0-1.9,5.3-6.3,5.6c-3.6-7.6-15.4-13.2-29.3-13.2c-16.8,0-30.4,8.2-30.4,18.2
		c0,1.2,0.2,2.4,0.6,3.5h0c2.7,11.9,16,21.5,29.9,21.5c13.6,0,28.1-9.6,29.9-21.6C920.7,336.1,924.4,331.3,922.3,324.3z"/>
	<ellipse class="st29" cx="885.6" cy="335" rx="25.3" ry="14.7"/>
	<path class="st34" d="M921.5,318.3c0-0.1,0-0.2,0-0.3c0-0.5,0-0.9-0.1-1.4c-1.2-17.7-15.9-31.7-33.9-31.7c-18,0-32.7,14-33.9,31.7
		c0,0.4-0.1,0.9-0.1,1.4c0,0.1,0,0.2,0,0.3c0,0.2,0,0.4,0,0.6h0c0.8,10.8,15.7,19.4,33.9,19.4s33.1-8.6,33.9-19.4h0
		C921.5,318.6,921.5,318.4,921.5,318.3z"/>
	<g>
		<path class="st53" d="M862.4,323c-0.5,0-0.8-0.4-0.8-0.8c0-1.3,0.6-1.9,1-2.5c0.4-0.4,0.6-0.7,0.6-1.4s-0.3-0.9-0.6-1.4
			c-0.5-0.5-1-1.2-1-2.5c0-1.3,0.6-1.9,1-2.5c0.4-0.4,0.6-0.7,0.6-1.4s-0.3-0.9-0.6-1.4c-0.5-0.5-1-1.2-1-2.5c0-1.3,0.6-1.9,1-2.5
			c0.4-0.4,0.6-0.7,0.6-1.4c0-0.5,0.4-0.8,0.8-0.8c0.5,0,0.8,0.4,0.8,0.8v0c0,1.3-0.6,1.9-1,2.5c-0.4,0.4-0.6,0.7-0.6,1.4
			c0,0.6,0.3,0.9,0.6,1.4c0.5,0.5,1,1.2,1,2.5c0,1.3-0.6,1.9-1,2.5c-0.4,0.4-0.6,0.7-0.6,1.4s0.3,0.9,0.6,1.4c0.5,0.5,1,1.2,1,2.5
			c0,1.3-0.6,1.9-1,2.5c-0.4,0.4-0.6,0.7-0.6,1.4C863.2,322.7,862.8,323,862.4,323z"/>
	</g>
	<g>
		<path class="st53" d="M878.3,328.7c-0.5,0-0.8-0.4-0.8-0.8c0-1.3,0.6-1.9,1-2.5c0.4-0.4,0.6-0.7,0.6-1.4s-0.3-0.9-0.6-1.4
			c-0.5-0.5-1-1.2-1-2.5c0-1.3,0.6-1.9,1-2.5c0.4-0.4,0.6-0.7,0.6-1.4c0-0.6-0.3-0.9-0.6-1.4c-0.5-0.5-1-1.2-1-2.5
			c0-1.3,0.6-1.9,1-2.5c0.4-0.4,0.6-0.7,0.6-1.4c0-0.5,0.4-0.8,0.8-0.8c0.5,0,0.8,0.4,0.8,0.8v0c0,1.3-0.6,1.9-1,2.5
			c-0.4,0.4-0.6,0.7-0.6,1.4s0.3,0.9,0.6,1.4c0.5,0.5,1,1.2,1,2.5c0,1.3-0.6,1.9-1,2.5c-0.4,0.4-0.6,0.7-0.6,1.4s0.3,0.9,0.6,1.4
			c0.5,0.5,1,1.2,1,2.5c0,1.3-0.6,1.9-1,2.5c-0.4,0.4-0.6,0.7-0.6,1.4C879.1,328.3,878.7,328.7,878.3,328.7z"/>
	</g>
</g>
</svg>
