<svg xmlns="http://www.w3.org/2000/svg" viewBox="0 0 80 35" fill="none">
  <g clip-path="url(#clip0_1471_537)">
    <path d="M74.0587 25.9948L72.1276 31.2459H71.018L69.083 25.9948H70.1965L71.5436 30.0368H71.5981L72.9452 25.9948H74.0587Z" fill="white"/>
    <path d="M77.4927 31.3418C77.0177 31.3418 76.5933 31.2612 76.2195 31.1C75.8458 30.9388 75.5499 30.7123 75.3358 30.4244C75.1216 30.1365 75.0048 29.8026 74.9893 29.4226H76.0794C76.095 29.6298 76.165 29.8103 76.2935 29.96C76.422 30.1135 76.5894 30.2287 76.7997 30.3093C77.006 30.3899 77.2396 30.4321 77.4927 30.4321C77.773 30.4321 78.0222 30.386 78.2363 30.2901C78.4504 30.1941 78.6217 30.0598 78.7424 29.887C78.8631 29.7143 78.9254 29.5147 78.9254 29.2921C78.9254 29.0694 78.8631 28.8506 78.7424 28.6702C78.6217 28.4898 78.4426 28.3516 78.2129 28.248C77.9793 28.1443 77.699 28.0944 77.372 28.0944H76.7724V27.2307H77.372C77.6367 27.2307 77.8664 27.1847 78.0689 27.0887C78.2674 26.9966 78.4271 26.8661 78.54 26.6972C78.6529 26.5283 78.7113 26.3325 78.7113 26.1061C78.7113 25.8796 78.6607 25.6992 78.5633 25.5418C78.466 25.3806 78.3258 25.2539 78.1467 25.1656C77.9677 25.0735 77.7574 25.0274 77.516 25.0274C77.2746 25.0274 77.0683 25.0696 76.8697 25.1541C76.6712 25.2385 76.5077 25.3575 76.3831 25.5111C76.2585 25.6646 76.1923 25.8489 76.1806 26.0638H75.145C75.1567 25.6838 75.2696 25.3537 75.4876 25.0658C75.7056 24.7779 75.9898 24.5553 76.348 24.3941C76.7023 24.2328 77.0994 24.1522 77.5355 24.1522C77.9715 24.1522 78.3842 24.2405 78.7152 24.4132C79.0461 24.586 79.3031 24.8201 79.486 25.108C79.669 25.3959 79.7586 25.7145 79.7547 26.06C79.7547 26.4515 79.6457 26.7855 79.4238 27.058C79.2018 27.3306 78.9059 27.5148 78.5322 27.6069V27.6607C79.0033 27.7298 79.3692 27.9179 79.6301 28.2134C79.891 28.509 80.0194 28.8813 80.0155 29.3266C80.0155 29.7105 79.9104 30.0559 79.6924 30.363C79.4744 30.6701 79.1746 30.9081 78.8008 31.0847C78.4232 31.2574 77.991 31.3457 77.5082 31.3457L77.4927 31.3418Z" fill="white"/>
    <path d="M4.19311 18.2447H0L6.38894 0H11.4308L17.8081 18.2447H13.615L8.9819 4.16868H8.83784L4.19311 18.2447ZM3.93226 11.0742H13.833V14.0837H3.93226V11.0742Z" fill="white"/>
    <path d="M23.2195 18.2447H19.0264L25.4153 0H30.4572L36.8344 18.2447H32.6413L28.0083 4.16868H27.8642L23.2195 18.2447ZM22.9586 11.0742H32.8593V14.0837H22.9586V11.0742Z" fill="white"/>
    <path d="M40.1047 0L44.5781 13.861H44.7495L49.2307 0H53.5678L47.1906 18.2447H42.1487L35.7598 0H40.1047Z" fill="white"/>
    <path d="M55.791 18.2447V0H68.2613V3.17833H59.7038V7.52358H67.6189V10.7057H59.7038V15.0625H68.2964V18.2408H55.791V18.2447Z" fill="white"/>
    <path d="M7.17147 28.9389C7.07803 28.6549 6.95344 28.4015 6.8016 28.175C6.64976 27.9486 6.47067 27.7566 6.26043 27.5993C6.05019 27.438 5.81659 27.319 5.55184 27.2346C5.2871 27.1502 4.99899 27.1079 4.68363 27.1079C4.16582 27.1079 3.69862 27.2384 3.27425 27.5033C2.84988 27.7682 2.51505 28.1559 2.26588 28.6664C2.01671 29.1769 1.89212 29.8064 1.89212 30.5511C1.89212 31.2958 2.01671 31.9253 2.26977 32.4359C2.52284 32.9464 2.86545 33.3341 3.29761 33.5989C3.72977 33.8638 4.21254 33.9943 4.75371 33.9943C5.25206 33.9943 5.6959 33.8907 6.07744 33.6757C6.45899 33.4646 6.75877 33.1652 6.97291 32.7775C7.18704 32.3898 7.29605 31.933 7.29605 31.4071L7.6192 31.4724H4.9951V30.5473H8.3161V31.4724C8.3161 32.1825 8.16426 32.7967 7.85669 33.3187C7.55301 33.8408 7.13253 34.2477 6.59526 34.5355C6.06187 34.8234 5.44672 34.9655 4.75371 34.9655C3.98284 34.9655 3.3054 34.7851 2.7214 34.4281C2.1374 34.0711 1.68188 33.5605 1.35874 32.9003C1.03559 32.2401 0.87207 31.457 0.87207 30.5511C0.87207 29.8717 0.96551 29.2575 1.15239 28.7163C1.33927 28.1712 1.60012 27.7067 1.94273 27.3229C2.28535 26.939 2.68636 26.6473 3.15356 26.44C3.62076 26.2327 4.13078 26.1329 4.69142 26.1329C5.15083 26.1329 5.5791 26.202 5.98011 26.3364C6.37723 26.4707 6.73541 26.6627 7.05077 26.9122C7.36613 27.1617 7.62699 27.4534 7.83722 27.7989C8.04746 28.1405 8.19152 28.5205 8.27328 28.9389H7.18315H7.17147Z" fill="white"/>
    <path d="M12.6415 34.9847C12.0497 34.9847 11.5319 34.8465 11.0881 34.5701C10.6442 34.2937 10.2977 33.906 10.0486 33.407C9.79939 32.908 9.6748 32.3284 9.6748 31.6605C9.6748 30.9926 9.79939 30.4014 10.0486 29.9024C10.2977 29.4034 10.6442 29.0119 11.0881 28.7355C11.5319 28.4591 12.0497 28.3209 12.6415 28.3209C13.2333 28.3209 13.7511 28.4591 14.195 28.7355C14.6388 29.0119 14.9853 29.4034 15.2345 29.9024C15.4836 30.4053 15.6082 30.9887 15.6082 31.6605C15.6082 32.3322 15.4836 32.908 15.2345 33.407C14.9853 33.906 14.6388 34.2937 14.195 34.5701C13.7511 34.8465 13.2333 34.9847 12.6415 34.9847ZM12.6415 34.0941C13.0892 34.0941 13.4591 33.979 13.7472 33.7525C14.0353 33.526 14.2495 33.2266 14.3896 32.8581C14.5298 32.4896 14.5999 32.0904 14.5999 31.6566C14.5999 31.2229 14.5298 30.8237 14.3896 30.4513C14.2495 30.079 14.0353 29.7796 13.7472 29.5493C13.4591 29.319 13.0892 29.2038 12.6415 29.2038C12.1938 29.2038 11.8239 29.319 11.5358 29.5493C11.2477 29.7796 11.0336 30.079 10.8934 30.4513C10.7533 30.8237 10.6832 31.2267 10.6832 31.6566C10.6832 32.0866 10.7533 32.4896 10.8934 32.8581C11.0336 33.2266 11.2477 33.526 11.5358 33.7525C11.8239 33.979 12.1938 34.0941 12.6415 34.0941Z" fill="white"/>
    <path d="M22.2462 28.4015L19.8284 34.8503H18.8084L16.3906 28.4015H17.4808L19.2873 33.5413H19.3534L21.1599 28.4015H22.2501H22.2462Z" fill="white"/>
    <path d="M26.0778 34.9846C25.4471 34.9846 24.9059 34.8464 24.4504 34.57C23.9948 34.2937 23.6444 33.9098 23.3992 33.4108C23.1539 32.9156 23.0293 32.336 23.0293 31.6758C23.0293 31.0155 23.1539 30.4321 23.3992 29.9254C23.6444 29.4187 23.9871 29.0272 24.4309 28.7431C24.8708 28.459 25.3887 28.317 25.9804 28.317C26.323 28.317 26.6579 28.3746 26.9888 28.4859C27.3197 28.5972 27.6234 28.7776 27.896 29.031C28.1685 29.2805 28.3865 29.6106 28.5461 30.0252C28.7097 30.4359 28.7875 30.9426 28.7875 31.5452V31.9636H23.7457V31.1077H27.7675C27.7675 30.743 27.6935 30.4205 27.5494 30.1327C27.4015 29.8486 27.1952 29.6221 26.9265 29.4571C26.6579 29.292 26.3425 29.2076 25.9804 29.2076C25.5794 29.2076 25.2329 29.3035 24.9448 29.4993C24.6528 29.6951 24.4309 29.9484 24.2752 30.2555C24.1194 30.5664 24.0416 30.9004 24.0416 31.2535V31.8255C24.0416 32.313 24.1272 32.7237 24.2985 33.0615C24.4698 33.3993 24.7073 33.6565 25.0149 33.8292C25.3225 34.0058 25.6768 34.0902 26.0856 34.0902C26.3503 34.0902 26.5878 34.0518 26.8019 33.9789C27.0161 33.906 27.2029 33.7946 27.3587 33.6411C27.5144 33.4914 27.6351 33.3033 27.7207 33.0807L28.6902 33.3494C28.589 33.6756 28.4177 33.9597 28.1763 34.2054C27.9349 34.451 27.6351 34.6391 27.2808 34.7773C26.9265 34.9117 26.5255 34.9808 26.0856 34.9808L26.0778 34.9846Z" fill="white"/>
    <path d="M30.3213 34.8503V28.4016H31.2907V29.3766H31.3569C31.4776 29.058 31.6917 28.7969 32.0032 28.6012C32.3147 28.4016 32.669 28.3018 33.0583 28.3018C33.1323 28.3018 33.2257 28.3018 33.3347 28.3056C33.4437 28.3094 33.5294 28.3133 33.5878 28.3171V29.3228C33.5527 29.3151 33.4749 29.2998 33.3542 29.2844C33.2335 29.2652 33.105 29.2576 32.9726 29.2576C32.6534 29.2576 32.3731 29.3228 32.1239 29.4533C31.8747 29.5838 31.68 29.7642 31.536 29.9907C31.3919 30.2172 31.3219 30.4782 31.3219 30.77V34.8503H30.3174H30.3213Z" fill="white"/>
    <path d="M35.7877 30.9695V34.8502H34.7832V28.4015H35.7526V29.4072H35.8383C35.9901 29.0809 36.2237 28.816 36.5352 28.6164C36.8467 28.4168 37.2516 28.317 37.746 28.317C38.1899 28.317 38.5753 28.4053 38.9101 28.5819C39.2411 28.7585 39.5019 29.0272 39.6849 29.388C39.8679 29.7488 39.9613 30.2018 39.9613 30.7507V34.8464H38.9568V30.8159C38.9568 30.3092 38.8245 29.9139 38.5558 29.6298C38.2872 29.3458 37.9212 29.2037 37.4579 29.2037C37.1387 29.2037 36.8506 29.2728 36.6014 29.411C36.3483 29.5492 36.1537 29.7488 36.0057 30.0098C35.8617 30.2747 35.7877 30.5933 35.7877 30.9656V30.9695Z" fill="white"/>
    <path d="M43.726 35.0001C43.3094 35.0001 42.9356 34.9233 42.5969 34.7659C42.2582 34.6124 41.9896 34.3859 41.791 34.0903C41.5924 33.7948 41.4912 33.4378 41.4912 33.0194C41.4912 32.6509 41.5652 32.3515 41.7131 32.1173C41.8611 31.8831 42.0596 31.7066 42.3049 31.5722C42.5502 31.4379 42.8266 31.3419 43.1264 31.2767C43.4262 31.2114 43.726 31.1577 44.0297 31.1193C44.4268 31.0694 44.7499 31.031 44.9991 31.0041C45.2483 30.9772 45.4274 30.9312 45.5442 30.8659C45.6571 30.8007 45.7155 30.6894 45.7155 30.5281V30.4936C45.7155 30.079 45.6026 29.7566 45.3729 29.5263C45.1431 29.296 44.7966 29.1808 44.3372 29.1808C43.8778 29.1808 43.4807 29.2844 43.2082 29.4917C42.9356 29.699 42.7449 29.9216 42.632 30.1558L41.6781 29.818C41.8494 29.4265 42.0752 29.1194 42.3594 28.9006C42.6436 28.6818 42.959 28.5282 43.2977 28.44C43.6364 28.3517 43.9713 28.3094 44.3022 28.3094C44.5124 28.3094 44.7538 28.3325 45.0263 28.3824C45.2989 28.4323 45.5675 28.5321 45.8245 28.6818C46.0814 28.8315 46.2956 29.0618 46.4669 29.3651C46.6382 29.6683 46.7238 30.079 46.7238 30.5896V34.8388H45.7194V33.9675H45.6687C45.6026 34.1057 45.4858 34.2554 45.3261 34.4166C45.1665 34.5778 44.9563 34.7122 44.6915 34.8235C44.4268 34.9348 44.1036 34.9924 43.726 34.9924V35.0001ZM43.8778 34.1095C44.2749 34.1095 44.6098 34.0327 44.8862 33.8792C45.1587 33.7257 45.369 33.5261 45.5091 33.2842C45.6493 33.0424 45.7194 32.7852 45.7194 32.5165V31.6106C45.6765 31.6605 45.5831 31.7066 45.439 31.7488C45.295 31.791 45.1315 31.8256 44.9446 31.8524C44.7577 31.8793 44.5786 31.9062 44.4034 31.9292C44.2282 31.9522 44.0881 31.9676 43.979 31.983C43.7182 32.0175 43.4729 32.0712 43.2471 32.1442C43.0213 32.2171 42.8383 32.3284 42.702 32.4743C42.5658 32.6202 42.4957 32.8198 42.4957 33.0731C42.4957 33.4186 42.6242 33.6758 42.885 33.8523C43.1459 34.0289 43.4729 34.1134 43.8739 34.1134L43.8778 34.1095Z" fill="white"/>
    <path d="M49.566 30.9695V34.8502H48.5615V28.4015H49.531V29.4072H49.6166C49.7685 29.0809 50.0021 28.816 50.3135 28.6164C50.625 28.4168 51.0299 28.317 51.5243 28.317C51.9682 28.317 52.3536 28.4053 52.6884 28.5819C53.0194 28.7585 53.2802 29.0272 53.4632 29.388C53.6462 29.7488 53.7396 30.2018 53.7396 30.7507V34.8464H52.7352V30.8159C52.7352 30.3092 52.6028 29.9139 52.3342 29.6298C52.0655 29.3458 51.6995 29.2037 51.2362 29.2037C50.917 29.2037 50.6289 29.2728 50.3797 29.411C50.1266 29.5492 49.932 29.7488 49.784 30.0098C49.64 30.2747 49.566 30.5933 49.566 30.9656V30.9695Z" fill="white"/>
    <path d="M58.2363 34.9847C57.6211 34.9847 57.0955 34.8426 56.6517 34.5547C56.2078 34.2707 55.8691 33.8753 55.6316 33.3763C55.3941 32.8735 55.2734 32.3015 55.2734 31.6605C55.2734 31.0194 55.398 30.4283 55.6433 29.9254C55.8886 29.4226 56.2312 29.0311 56.675 28.747C57.115 28.4629 57.6328 28.3209 58.2246 28.3209C58.684 28.3209 59.1006 28.4054 59.4665 28.5743C59.8364 28.7432 60.1362 28.9773 60.3737 29.2806C60.6112 29.5838 60.7552 29.937 60.8136 30.34H59.8092C59.7313 30.0444 59.5639 29.7834 59.2991 29.5569C59.0344 29.3305 58.684 29.2153 58.2401 29.2153C57.8469 29.2153 57.5043 29.3151 57.2123 29.5147C56.9203 29.7143 56.6906 29.9945 56.5271 30.3592C56.3636 30.72 56.2818 31.1461 56.2818 31.6336C56.2818 32.1211 56.3636 32.5664 56.5232 32.9349C56.6828 33.3034 56.9125 33.5913 57.2045 33.7947C57.4965 33.9982 57.843 34.1018 58.2401 34.1018C58.501 34.1018 58.7385 34.0557 58.9526 33.9674C59.1668 33.8792 59.3459 33.7486 59.4938 33.5798C59.6417 33.4109 59.7469 33.2113 59.8092 32.9771H60.8136C60.7552 33.3571 60.619 33.6987 60.3932 34.002C60.1712 34.3052 59.8753 34.5471 59.5133 34.7236C59.1473 34.9002 58.7229 34.9885 58.244 34.9885L58.2363 34.9847Z" fill="white"/>
    <path d="M65.0182 34.9846C64.3875 34.9846 63.8463 34.8464 63.3908 34.57C62.9353 34.2937 62.5849 33.9098 62.3396 33.4108C62.0943 32.9156 61.9697 32.336 61.9697 31.6758C61.9697 31.0155 62.0943 30.4321 62.3396 29.9254C62.5849 29.4187 62.9275 29.0272 63.3713 28.7431C63.8113 28.459 64.3291 28.317 64.9209 28.317C65.2635 28.317 65.5983 28.3746 65.9292 28.4859C66.2602 28.5972 66.5638 28.7776 66.8364 29.031C67.1089 29.2805 67.3269 29.6106 67.4866 30.0252C67.6501 30.4359 67.728 30.9426 67.728 31.5452V31.9636H62.6861V31.1077H66.7079C66.7079 30.743 66.6339 30.4205 66.4899 30.1327C66.3419 29.8486 66.1356 29.6221 65.8669 29.4571C65.5983 29.292 65.2829 29.2076 64.9209 29.2076C64.5199 29.2076 64.1733 29.3035 63.8852 29.4993C63.5932 29.6951 63.3713 29.9484 63.2156 30.2555C63.0599 30.5664 62.982 30.9004 62.982 31.2535V31.8255C62.982 32.313 63.0676 32.7237 63.2389 33.0615C63.4103 33.3993 63.6478 33.6565 63.9553 33.8292C64.2629 34.0058 64.6172 34.0902 65.026 34.0902C65.2907 34.0902 65.5282 34.0518 65.7424 33.9789C65.9565 33.906 66.1434 33.7946 66.2991 33.6411C66.4548 33.4914 66.5755 33.3033 66.6612 33.0807L67.6306 33.3494C67.5294 33.6756 67.3581 33.9597 67.1167 34.2054C66.8753 34.451 66.5755 34.6391 66.2212 34.7773C65.8669 34.9117 65.4659 34.9808 65.026 34.9808L65.0182 34.9846Z" fill="white"/>
  </g>
  <defs>
    <clipPath id="clip0_1471_537">
      <rect width="80" height="35" fill="white"/>
    </clipPath>
  </defs>
</svg>