<?xml version="1.0" encoding="utf-8"?>
<!-- Generator: Adobe Illustrator 27.9.0, SVG Export Plug-In . SVG Version: 6.00 Build 0)  -->
<svg version="1.1" id="Слой_1" xmlns="http://www.w3.org/2000/svg" xmlns:xlink="http://www.w3.org/1999/xlink" x="0px" y="0px"
	 viewBox="0 0 994 114.9" style="enable-background:new 0 0 994 114.9;" xml:space="preserve">
<style type="text/css">
	.st0{fill:#EAEFFC;stroke:#101423;stroke-linecap:round;stroke-linejoin:round;stroke-miterlimit:10;}
	.st1{fill:#101423;stroke:#101423;stroke-linecap:round;stroke-linejoin:round;stroke-miterlimit:10;}
	.st2{fill:#FFFFFF;stroke:#101423;stroke-linecap:round;stroke-linejoin:round;stroke-miterlimit:10;}
	
		.st3{fill-rule:evenodd;clip-rule:evenodd;fill:#C6C2D1;stroke:#0F1321;stroke-linecap:round;stroke-linejoin:round;stroke-miterlimit:10;}
	
		.st4{fill-rule:evenodd;clip-rule:evenodd;fill:#FFFFFF;stroke:#101423;stroke-linecap:round;stroke-linejoin:round;stroke-miterlimit:10;}
	
		.st5{fill-rule:evenodd;clip-rule:evenodd;fill:#EAEFFC;stroke:#101423;stroke-linecap:round;stroke-linejoin:round;stroke-miterlimit:10;}
	.st6{opacity:0.92;fill-rule:evenodd;clip-rule:evenodd;fill:#FFFFFF;enable-background:new    ;}
	.st7{fill:#0F1423;}
	.st8{fill:#EBEFFC;stroke:#1A2031;stroke-linecap:round;stroke-linejoin:round;stroke-miterlimit:10;}
	.st9{fill:#FFFFFF;stroke:#1A2031;stroke-linecap:round;stroke-linejoin:round;stroke-miterlimit:10;}
	.st10{fill:#C6C2D1;stroke:#1A2031;stroke-linecap:round;stroke-linejoin:round;stroke-miterlimit:10;}
	.st11{opacity:0.2563;fill-rule:evenodd;clip-rule:evenodd;fill:#FFFFFF;enable-background:new    ;}
	.st12{fill:#00ABBF;}
	.st13{fill:url(#SVGID_1_);}
	.st14{fill-rule:evenodd;clip-rule:evenodd;fill:#56506B;}
	.st15{fill-rule:evenodd;clip-rule:evenodd;fill:#FFFFFF;}
	.st16{fill-rule:evenodd;clip-rule:evenodd;fill:#AEAEB0;}
	.st17{fill-rule:evenodd;clip-rule:evenodd;fill:#D2D2D2;}
	
		.st18{fill-rule:evenodd;clip-rule:evenodd;fill:#0F1423;stroke:#0F1424;stroke-linecap:round;stroke-linejoin:round;stroke-miterlimit:10;}
	
		.st19{fill-rule:evenodd;clip-rule:evenodd;fill:#B6FFF0;stroke:#0F1321;stroke-linecap:round;stroke-linejoin:round;stroke-miterlimit:10;}
	.st20{fill-rule:evenodd;clip-rule:evenodd;fill:#00D7B1;}
	.st21{fill-rule:evenodd;clip-rule:evenodd;fill:#FF3981;}
	.st22{fill:#FFFFFF;}
	
		.st23{fill:url(#SVGID_00000062897828502276042560000015390416899737934778_);stroke:#1D1D1B;stroke-width:0.2115;stroke-linecap:round;stroke-linejoin:round;stroke-miterlimit:10;}
	.st24{fill:#C6C2D1;stroke:#0F1321;stroke-linecap:round;stroke-linejoin:round;stroke-miterlimit:10;}
	.st25{fill-rule:evenodd;clip-rule:evenodd;fill:#0F1423;}
	
		.st26{fill:url(#SVGID_00000182502010096759634100000012362202755106573734_);stroke:#1D1D1B;stroke-width:0.2115;stroke-linecap:round;stroke-linejoin:round;stroke-miterlimit:10;}
	
		.st27{fill:url(#SVGID_00000096748977365331826560000001446902086262237588_);stroke:#1D1D1B;stroke-width:0.2115;stroke-linecap:round;stroke-linejoin:round;stroke-miterlimit:10;}
	.st28{opacity:0.67;fill:url(#SVGID_00000140700613065977323390000010192614758796080035_);}
	.st29{fill:url(#SVGID_00000052100537027093448750000000351822716767066773_);}
	
		.st30{fill:url(#SVGID_00000012465582833873608140000008243946301583963523_);stroke:#1D1D1B;stroke-width:0.2115;stroke-linecap:round;stroke-linejoin:round;stroke-miterlimit:10;}
	
		.st31{fill:url(#SVGID_00000156563433950703093510000010005892173233095573_);stroke:#1D1D1B;stroke-width:0.2115;stroke-linecap:round;stroke-linejoin:round;stroke-miterlimit:10;}
	.st32{opacity:0.67;fill:url(#SVGID_00000065046235051910652740000000906858439232434350_);}
	.st33{fill:url(#SVGID_00000091707236387868893250000006505174932927380362_);}
	
		.st34{fill:url(#SVGID_00000142863254552173656340000010617466544938925465_);stroke:#1D1D1B;stroke-width:0.2115;stroke-linecap:round;stroke-linejoin:round;stroke-miterlimit:10;}
	.st35{fill:none;stroke:#101423;stroke-linecap:round;stroke-linejoin:round;stroke-miterlimit:10;}
	
		.st36{fill-rule:evenodd;clip-rule:evenodd;fill:#FFC6D6;stroke:#101423;stroke-linecap:round;stroke-linejoin:round;stroke-miterlimit:10;}
	
		.st37{fill:url(#SVGID_00000016038222011065859910000009786890169797388698_);stroke:#1D1D1B;stroke-width:0.2115;stroke-linecap:round;stroke-linejoin:round;stroke-miterlimit:10;}
	
		.st38{fill:url(#SVGID_00000060005215226491441510000006960593365994702252_);stroke:#1D1D1B;stroke-linecap:round;stroke-linejoin:round;stroke-miterlimit:10;}
	.st39{opacity:0.67;fill:url(#SVGID_00000114759638852124492350000013964020921846794665_);}
	
		.st40{fill-rule:evenodd;clip-rule:evenodd;fill:#FFFFFF;stroke:#111422;stroke-linecap:round;stroke-linejoin:round;stroke-miterlimit:10;}
	
		.st41{fill-rule:evenodd;clip-rule:evenodd;fill:#101422;stroke:#101423;stroke-linecap:round;stroke-linejoin:round;stroke-miterlimit:10;}
	
		.st42{fill-rule:evenodd;clip-rule:evenodd;fill:#C6C3D1;stroke:#101320;stroke-linecap:round;stroke-linejoin:round;stroke-miterlimit:10;}
	
		.st43{fill-rule:evenodd;clip-rule:evenodd;fill:#ECF0FC;stroke:#111422;stroke-linecap:round;stroke-linejoin:round;stroke-miterlimit:10;}
	.st44{opacity:0.67;fill:url(#SVGID_00000088130698018243061120000002095439903988647347_);}
	.st45{fill:url(#SVGID_00000155838283074236294790000009560411333943518865_);}
	
		.st46{fill:url(#SVGID_00000118364846564139056280000016624401004011715493_);stroke:#1D1D1B;stroke-linecap:round;stroke-linejoin:round;stroke-miterlimit:10;}
	.st47{fill-rule:evenodd;clip-rule:evenodd;fill:#101422;}
	
		.st48{fill:url(#SVGID_00000147907141621803952810000014442256432775950721_);stroke:#1D1D1B;stroke-linecap:round;stroke-linejoin:round;stroke-miterlimit:10;}
	.st49{fill:#FAF5ED;stroke:#1D1D1B;stroke-linecap:round;stroke-linejoin:round;stroke-miterlimit:10;}
	.st50{fill:#1D1D1B;}
	.st51{fill:none;stroke:#1D1D1B;stroke-width:3;stroke-linecap:round;stroke-linejoin:round;stroke-miterlimit:10;}
	
		.st52{fill-rule:evenodd;clip-rule:evenodd;fill:#101423;stroke:#101423;stroke-linecap:round;stroke-linejoin:round;stroke-miterlimit:10;}
	.st53{opacity:0.67;fill:url(#SVGID_00000064317125151232389530000010861491862690402690_);}
	.st54{opacity:0.67;fill:url(#SVGID_00000056414300020931073520000005664563337426225033_);}
	.st55{fill:#1D1D1B;stroke:#1D1D1B;stroke-width:2.0846;stroke-linecap:round;stroke-linejoin:round;stroke-miterlimit:10;}
	.st56{fill:#FFFFFF;stroke:#1D1D1B;stroke-width:2.0846;stroke-linecap:round;stroke-linejoin:round;stroke-miterlimit:10;}
	.st57{fill:#4A5479;stroke:#000000;stroke-linecap:round;stroke-linejoin:round;stroke-miterlimit:10;}
	.st58{stroke:#000000;stroke-linecap:round;stroke-linejoin:round;stroke-miterlimit:10;}
	.st59{fill-rule:evenodd;clip-rule:evenodd;stroke:#000000;stroke-linecap:round;stroke-linejoin:round;stroke-miterlimit:10;}
	
		.st60{fill-rule:evenodd;clip-rule:evenodd;fill:#6D75A2;stroke:#000000;stroke-linecap:round;stroke-linejoin:round;stroke-miterlimit:10;}
	
		.st61{fill-rule:evenodd;clip-rule:evenodd;fill:#4A5479;stroke:#000000;stroke-linecap:round;stroke-linejoin:round;stroke-miterlimit:10;}
	.st62{fill-rule:evenodd;clip-rule:evenodd;fill:#5C6A91;}
	.st63{fill:#6D75A2;stroke:#000000;stroke-linecap:round;stroke-linejoin:round;stroke-miterlimit:10;}
	
		.st64{fill-rule:evenodd;clip-rule:evenodd;fill:#9EA8D8;stroke:#000000;stroke-linecap:round;stroke-linejoin:round;stroke-miterlimit:10;}
	
		.st65{fill:url(#SVGID_00000109001187426670833630000000509081719913019296_);stroke:#1D1D1B;stroke-linecap:round;stroke-linejoin:round;stroke-miterlimit:10;}
	.st66{opacity:0.67;fill:url(#SVGID_00000044859236087072808750000013783800958898329759_);}
	
		.st67{fill:url(#SVGID_00000012447440749701028820000005654380389908856232_);stroke:#1D1D1B;stroke-linecap:round;stroke-linejoin:round;stroke-miterlimit:10;}
	
		.st68{fill:url(#SVGID_00000170272784049534792340000017492457435314964652_);stroke:#1D1D1B;stroke-linecap:round;stroke-linejoin:round;stroke-miterlimit:10;}
	
		.st69{fill-rule:evenodd;clip-rule:evenodd;fill:#4AA089;stroke:url(#SVGID_00000067942255988689092780000010130362904447012758_);stroke-linecap:round;stroke-linejoin:round;stroke-miterlimit:10;}
	
		.st70{fill-rule:evenodd;clip-rule:evenodd;fill:#CB3D61;stroke:#000000;stroke-linecap:round;stroke-linejoin:round;stroke-miterlimit:10;}
	.st71{opacity:0.67;fill:url(#SVGID_00000098936796529708831550000006409420986058104983_);}
	.st72{fill:#9EA8D8;stroke:#000000;stroke-linecap:round;stroke-linejoin:round;stroke-miterlimit:10;}
	.st73{fill:#6D75A2;}
	.st74{opacity:0.67;fill:url(#SVGID_00000008851033694079053260000016134437164611559087_);}
	.st75{opacity:0.67;fill:url(#SVGID_00000000180428548408702360000006194531773082592932_);}
	.st76{fill:url(#SVGID_00000036960998089657679120000000129331478841833907_);}
	
		.st77{fill:url(#SVGID_00000093155372662595120890000009395456398607213737_);stroke:#1D1D1B;stroke-linecap:round;stroke-linejoin:round;stroke-miterlimit:10;}
	.st78{opacity:0.67;fill:url(#SVGID_00000168118506827869252790000006394854607343521465_);}
	.st79{opacity:0.67;fill:url(#SVGID_00000126321703472459855560000010921491066471921336_);}
	.st80{fill:url(#SVGID_00000053530930260320628780000003672872777910542209_);}
	
		.st81{fill:url(#SVGID_00000027597180293574409510000005292223254931193013_);stroke:#1D1D1B;stroke-linecap:round;stroke-linejoin:round;stroke-miterlimit:10;}
	
		.st82{fill:url(#SVGID_00000173844655422976588030000001545899829985348520_);stroke:#1D1D1B;stroke-linecap:round;stroke-linejoin:round;stroke-miterlimit:10;}
	.st83{opacity:0.67;fill:url(#SVGID_00000170266678670684240610000011447563534637789617_);}
	.st84{fill:#101423;stroke:#101423;stroke-width:2;stroke-linecap:round;stroke-linejoin:round;stroke-miterlimit:10;}
	.st85{opacity:0.67;fill:url(#SVGID_00000012463922843872186320000016111160625219891586_);}
	
		.st86{fill:url(#SVGID_00000110432659016775719420000007154124036210878399_);stroke:#1D1D1B;stroke-width:0.2115;stroke-linecap:round;stroke-linejoin:round;stroke-miterlimit:10;}
	
		.st87{fill:url(#SVGID_00000104691959011387780690000003884726125703336588_);stroke:#1D1D1B;stroke-width:0.2115;stroke-linecap:round;stroke-linejoin:round;stroke-miterlimit:10;}
	.st88{stroke:#1A213A;stroke-linecap:round;stroke-linejoin:round;stroke-miterlimit:10;}
	.st89{fill:#222846;stroke:#000000;stroke-linecap:round;stroke-linejoin:round;stroke-miterlimit:10;}
	
		.st90{fill-rule:evenodd;clip-rule:evenodd;fill:#222846;stroke:#000000;stroke-linecap:round;stroke-linejoin:round;stroke-miterlimit:10;}
	
		.st91{fill:url(#SVGID_00000133512042268689552090000004718257139534003078_);stroke:#1D1D1B;stroke-width:0.2115;stroke-linecap:round;stroke-linejoin:round;stroke-miterlimit:10;}
	
		.st92{fill:url(#SVGID_00000014608984825911404040000011331267292322111650_);stroke:#1D1D1B;stroke-width:0.2115;stroke-linecap:round;stroke-linejoin:round;stroke-miterlimit:10;}
	
		.st93{fill:url(#SVGID_00000007421038826809235150000000617164824066386837_);stroke:#1D1D1B;stroke-width:0.2115;stroke-linecap:round;stroke-linejoin:round;stroke-miterlimit:10;}
	
		.st94{fill:url(#SVGID_00000151515310322759431240000001504274770439629747_);stroke:#1D1D1B;stroke-width:0.2115;stroke-linecap:round;stroke-linejoin:round;stroke-miterlimit:10;}
	.st95{opacity:0.67;fill:url(#SVGID_00000042702845228175569210000000323353120929685399_);}
	.st96{fill:#3FA9BD;}
	.st97{fill:url(#SVGID_00000025434080149222148510000002719692146947598751_);}
	.st98{fill-rule:evenodd;clip-rule:evenodd;fill:#555069;}
	.st99{fill-rule:evenodd;clip-rule:evenodd;fill:#AFAFB1;}
	.st100{fill-rule:evenodd;clip-rule:evenodd;fill:#D3D3D3;}
	.st101{opacity:0.67;fill:url(#SVGID_00000159438914419634056420000000276996465256935857_);}
	.st102{fill:url(#SVGID_00000078029394776803253030000016119801927889323668_);}
	.st103{opacity:0.67;fill:url(#SVGID_00000094592954948362826570000018250322563264918162_);}
	.st104{fill:url(#SVGID_00000132785799192215983960000010147004439256640695_);}
	.st105{opacity:0.67;fill:url(#SVGID_00000137122964143573096760000014811932454129332641_);}
	.st106{fill:url(#SVGID_00000072279619666878631620000016933363719803403680_);}
	.st107{opacity:0.67;fill:url(#SVGID_00000129912293602864100450000012030352553756013462_);}
	.st108{fill:url(#SVGID_00000165938421115293491220000002360464104019089803_);}
	.st109{opacity:0.67;fill:url(#SVGID_00000142892984479753395600000016226097928286142857_);}
	.st110{fill:url(#SVGID_00000044869380525157879500000016931902913342709922_);}
	.st111{fill-rule:evenodd;clip-rule:evenodd;fill:#6D75A2;}
	.st112{opacity:0.67;fill:url(#SVGID_00000000944728560993546730000006610484084873153152_);}
	.st113{fill:url(#SVGID_00000012474924322094822300000015605082990441611144_);}
	
		.st114{fill:none;stroke:url(#SVGID_00000038370937209527439980000004433653757876944055_);stroke-width:5;stroke-linecap:round;stroke-linejoin:round;stroke-miterlimit:10;}
	.st115{fill:url(#SVGID_00000152265120043680911670000013259463816900109478_);}
	.st116{fill-rule:evenodd;clip-rule:evenodd;fill:#1AD4B3;}
	.st117{fill-rule:evenodd;clip-rule:evenodd;fill:#FC4F83;}
	
		.st118{fill-rule:evenodd;clip-rule:evenodd;fill:#4AA089;stroke:url(#SVGID_00000105408992405182934590000003227424989246726289_);stroke-linecap:round;stroke-linejoin:round;stroke-miterlimit:10;}
	.st119{opacity:0.67;fill:url(#SVGID_00000005234027632496617070000010213839509640090498_);}
	.st120{fill:url(#SVGID_00000000924749096973588000000002118632342467209133_);}
	.st121{fill-rule:evenodd;clip-rule:evenodd;fill:#4A5479;}
	.st122{fill:#5DC29D;}
	.st123{fill:url(#SVGID_00000146484730661725697150000010237761314706967694_);}
	.st124{fill:url(#SVGID_00000067936337506102789280000012569980819264553376_);}
	.st125{fill:#E85C83;}
</style>
<polygon class="st10" points="861.4,17.4 836,17.4 836,111 899.3,111 899.3,90.5 861.4,90.5 "/>
<path class="st10" d="M975.8,73.5c-1.1-3-2.8-5.7-5.2-8.2c-2.3-2.4-5.4-4.5-9.1-6.3c-3.7-1.8-8.1-3.2-13.3-4.3l-7.7-1.6
	c-2.2-0.5-4.1-1-5.8-1.6c-1.6-0.6-2.9-1.2-4-1.9c-1-0.7-1.8-1.5-2.3-2.4c-0.5-0.9-0.7-1.9-0.6-3c0-1.4,0.4-2.6,1.2-3.7
	c0.8-1.1,2-1.9,3.7-2.5c1.7-0.6,3.8-0.9,6.4-0.9c4.1,0,7.2,0.9,9.2,2.6c2,1.7,3.2,4.1,3.4,7.1h24.3c0-6.1-1.5-11.5-4.5-16.1
	c-3-4.6-7.3-8.1-12.8-10.7c-5.5-2.5-12.1-3.8-19.6-3.8c-7.4,0-14,1.3-19.7,3.7c-5.7,2.5-10.2,6-13.4,10.4c-3.2,4.5-4.8,9.7-4.8,15.6
	c0,7.3,2.3,13.1,7.1,17.3c4.8,4.2,11.3,7.2,19.6,9l9.3,2c3.5,0.8,6.2,1.6,8.3,2.4c2,0.9,3.5,1.8,4.4,2.9c0.9,1.1,1.4,2.3,1.4,3.8
	c0,1.5-0.5,2.9-1.5,4.1c-0.9,1.2-2.3,2.1-4.2,2.8c-1.8,0.7-4.1,1-6.8,1c-3.2,0-6-0.5-8.3-1.5c-2.3-1-4.1-2.5-5.4-4.4
	c-1.3-1.9-2-4.4-2.1-7.2h-24.1c0,7.8,1.7,14.3,5.1,19.3c3.3,5,8,8.7,14.1,11.1c6,2.4,13.1,3.6,21.3,3.6c7.9,0,14.7-1.1,20.4-3.3
	c5.7-2.2,10-5.5,13-9.7c3-4.3,4.6-9.5,4.6-15.6C977.5,79.8,976.9,76.6,975.8,73.5z"/>
<path class="st10" d="M970.6,65.4c-2.3-2.4-5.4-4.5-9.1-6.3c-3.7-1.8-8.1-3.2-13.3-4.3l-7.7-1.6c-2.2-0.5-4.1-1-5.8-1.6
	c-1.6-0.6-2.9-1.2-4-1.9c-1-0.7-1.8-1.5-2.3-2.4c-0.5-0.9-0.7-1.9-0.6-3c0-1.4,0.4-2.6,1.2-3.7c0.8-1.1,2-1.9,3.7-2.5
	c1.7-0.6,3.8-0.9,6.4-0.9c4.1,0,7.2,0.9,9.2,2.6c2,1.7,3.2,4.1,3.4,7.1h24.3c0-6.1-1.5-11.5-4.5-16.1c-3-4.6-7.3-8.1-12.8-10.7
	c-5.5-2.5-12.1-3.8-19.6-3.8c-7.4,0-14,1.3-19.7,3.7c-5.7,2.5-10.2,6-13.4,10.4c-3.2,4.5-4.8,9.7-4.8,15.6c0,7.3,2.3,13.1,7.1,17.3
	c4.8,4.2,11.3,7.2,19.6,9l9.3,2c3.5,0.8,6.2,1.6,8.3,2.4c2,0.9,3.5,1.8,4.4,2.9c0.9,1.1,1.4,2.3,1.4,3.8c0,1.5-0.5,2.9-1.5,4.1
	c-0.9,1.2-2.3,2.1-4.2,2.8c-1.8,0.7-4.1,1-6.8,1c-3.2,0-6-0.5-8.3-1.5c-2.3-1-4.1-2.5-5.4-4.4c-1.3-1.9-2-4.4-2.1-7.2h-24.1
	c0,7.8,1.7,14.3,5.1,19.3c3.3,5,8,8.7,14.1,11.1c6,2.4,13.1,3.6,21.3,3.6c7.9,0,14.7-1.1,20.4-3.3c5.7-2.2,10-5.5,13-9.7
	c3-4.3,4.6-9.5,4.6-15.6c0-3.6-0.6-6.9-1.7-9.9C974.7,70.5,973,67.8,970.6,65.4z"/>
<path class="st10" d="M908.6,63.2c4.8,4.2,11.3,7.2,19.6,9l9.3,2c3.5,0.8,6.2,1.6,8.3,2.4c2,0.9,3.5,1.8,4.4,2.9
	c0.7,0.8,1.1,1.8,1.3,2.8h26c-0.1-3.2-0.7-6.2-1.7-8.9c-1.1-3-2.8-5.7-5.2-8.2c-2.3-2.4-5.4-4.5-9.1-6.3c-3.7-1.8-8.1-3.2-13.3-4.3
	l-7.7-1.6c-2.2-0.5-4.1-1-5.8-1.6s-2.9-1.2-4-1.9c-1-0.7-1.8-1.5-2.3-2.4c-0.5-0.9-0.7-1.9-0.6-3c0-1.4,0.4-2.6,1.2-3.7
	c0.8-1.1,2-1.9,3.7-2.5c1.7-0.6,3.8-0.9,6.4-0.9c4.1,0,7.2,0.9,9.2,2.6c2,1.7,3.2,4.1,3.4,7.1h24.3c0-6.1-1.5-11.5-4.5-16.1
	c-3-4.6-7.3-8.1-12.8-10.7c-5.5-2.5-12.1-3.8-19.6-3.8c-7.4,0-8.9-8.8-14-5.2c-4.9,3.5-15.8,14.9-19,19.4c-3.2,4.5-4.8,9.7-4.8,15.6
	C901.4,53.2,903.8,59,908.6,63.2z"/>
<polygon class="st10" points="990.4,32.5 976.3,46.7 951.9,46.7 966.1,32.5 "/>
<path class="st8" d="M977.5,83.4c0-0.1,0-0.1,0-0.2h-26c0,0.1,0,0.1,0,0.2c0,1.5-0.5,2.9-1.5,4.1c-0.9,1.2-2.3,2.1-4.2,2.8
	c-1.8,0.7-4.1,1-6.8,1c-3.2,0-6-0.5-8.3-1.5c-2.3-1-4.1-2.5-5.4-4.4c-1.3-1.9-2-4.4-2.1-7.2h-7.6c0,0-3.1-6.7-2.4-14.1l-14.1,14.1
	l0,0l0,0l0,0v0c0,1.4,0.1,2.7,0.2,3.9l0,0.5l0,0c0.5,5.9,2.1,10.8,4.8,14.9c3.3,5,8,8.7,14.1,11.1c6,2.4,13.1,3.6,21.3,3.6
	c7.9,0,14.7-1.1,20.4-3.3c5.7-2.2,13.8-7.5,20.6-17.5C983.4,86.9,977.5,89.6,977.5,83.4z"/>
<path class="st9" d="M984.8,51.2c-2.3-2.4-5.4-4.5-9.1-6.3c-3.7-1.8-8.1-3.2-13.3-4.3l-7.7-1.6c-2.2-0.5-4.1-1-5.8-1.6
	c-1.6-0.6-2.9-1.2-4-1.9c-1-0.7-1.8-1.5-2.3-2.4c-0.5-0.9-0.7-1.9-0.6-3c0-1.4,0.4-2.6,1.2-3.7c0.8-1.1,2-1.9,3.7-2.5
	c1.7-0.6,3.8-0.9,6.4-0.9c4.1,0,7.2,0.9,9.2,2.6c2,1.7,3.2,4.1,3.4,7.1h24.3c0-6.1-1.5-11.5-4.5-16.1c-3-4.6-7.3-8.1-12.8-10.7
	C967.6,3.2,961,2,953.5,2c-7.4,0-14,1.3-19.7,3.7c-5.7,2.5-10.2,6-13.4,10.4c-3.2,4.5-4.8,9.7-4.8,15.6c0,7.3,2.3,13.1,7.1,17.3
	c4.8,4.2,11.3,7.2,19.6,9l9.3,2c3.5,0.8,6.2,1.6,8.3,2.4c2,0.9,3.5,1.8,4.4,2.9c0.9,1.1,1.4,2.3,1.4,3.8c0,1.5-0.5,2.9-1.5,4.1
	c-0.9,1.2-2.3,2.1-4.2,2.8c-1.8,0.7-4.1,1-6.8,1c-3.2,0-6-0.5-8.3-1.5c-2.3-1-4.1-2.5-5.4-4.4c-1.3-1.9-2-4.4-2.1-7.2h-24.1
	c0,7.8,1.7,14.3,5.1,19.3c3.3,5,8,8.7,14.1,11.1c6,2.4,13.1,3.6,21.3,3.6c7.9,0,14.7-1.1,20.4-3.3c5.7-2.2,10-5.5,13-9.7
	c3-4.3,4.6-9.5,4.6-15.6c0-3.6-0.6-6.9-1.7-9.9C988.9,56.4,987.1,53.7,984.8,51.2z"/>
<polygon class="st9" points="875.6,3.3 850.2,3.3 850.2,96.9 913.4,96.9 913.4,76.4 875.6,76.4 "/>
<path class="st10" d="M761.4,17.4L730.5,111H758l5.4-17.9h30.9l5.4,17.9h27.4l-30.9-93.6H761.4z M769.1,74.1l9.3-30.9h0.7l9.3,30.9
	H769.1z"/>
<polygon class="st10" points="850.2,3.3 836,17.4 836,111 850.2,96.9 "/>
<polygon class="st8" points="913.4,96.9 899.3,111 836,111 850.2,96.9 "/>
<path class="st10" d="M541.6,21.5c-5.2-2.7-11.3-4.1-18.2-4.1H483V111h25.4V83.2h14.1c7.1,0,13.4-1.3,18.7-4
	c5.3-2.7,9.5-6.4,12.5-11.3c3-4.9,4.5-10.7,4.5-17.4c0-6.6-1.4-12.4-4.3-17.4C550.9,28.1,546.8,24.3,541.6,21.5z M529.9,57.4
	c-1.1,1.9-2.8,3.5-4.9,4.5c-2.1,1.1-4.7,1.6-7.7,1.6h-9V37.7h9c3,0,5.5,0.5,7.7,1.5c2.1,1,3.7,2.5,4.9,4.4c1.1,1.9,1.7,4.2,1.7,6.9
	C531.6,53.2,531,55.5,529.9,57.4z"/>
<path class="st8" d="M557.2,47l-26.4,3.5c0.2,1.1,0-1.3,0,0c0,2.7-0.6,5-1.7,6.9c-1.1,1.9-2.8,3.5-4.9,4.5c-2.1,1.1-4.7,1.6-7.7,1.6
	h-8.2v19.7h13.4c7.1,0,13.4-1.3,18.7-4c5.3-2.7,11.1-5.6,21.9-19.3c4-5,1.5-0.8,6.6-9.9C569.5,49,557.3,48.1,557.2,47z"/>
<path class="st10" d="M630.8,21.6c-6.9-3.7-14.6-5.5-23-5.5c-8.5,0-13.3-6.6-18.9-1.1c-6.2,6-16.5,15.7-20.6,22.9
	c-4,7.1-6.1,15.9-6.1,26.4c0,10.4,2,19.1,6.1,26.3c4,7.1,9.5,12.6,16.4,16.3c6.9,3.7,14.6,5.6,23.1,5.6c8.5,0,16.2-1.8,23-5.5
	c6.9-3.7,12.4-9.1,16.4-16.2c4.1-7.1,6.1-15.9,6.1-26.4s-2-19.2-6.1-26.4C643.2,30.7,637.7,25.3,630.8,21.6z M625,78.4
	c-1.5,3.9-3.7,6.8-6.5,8.8c-2.9,2-6.4,3-10.6,3c-4.2,0-7.7-1-10.6-3c-2.9-2-5.1-4.9-6.5-8.8c-1.5-3.9-2.2-8.6-2.2-14.2
	c0-5.6,0.7-10.3,2.2-14.2c1.5-3.9,3.7-6.8,6.5-8.8c2.9-2,6.4-3,10.6-3c4.2,0,7.7,1,10.6,3c2.9,2,5.1,4.9,6.5,8.8
	c1.5,3.9,2.2,8.6,2.2,14.2C627.2,69.8,626.4,74.6,625,78.4z"/>
<path class="st9" d="M775.6,3.3l-30.9,93.6h27.4l5.4-17.9h30.9l5.4,17.9h27.4L810.3,3.3H775.6z M783.2,59.9l9.3-30.9h0.7l9.3,30.9
	H783.2z"/>
<path class="st10" d="M725.8,65.4c-2.3-2.4-5.4-4.5-9.1-6.3c-3.7-1.8-8.1-3.2-13.3-4.3l-7.7-1.6c-2.2-0.5-4.1-1-5.8-1.6
	c-1.6-0.6-2.9-1.2-4-1.9c-1-0.7-1.8-1.5-2.3-2.4c-0.5-0.9-0.7-1.9-0.6-3c0-1.4,0.4-2.6,1.2-3.7c0.8-1.1,2-1.9,3.7-2.5
	c1.7-0.6,3.8-0.9,6.4-0.9c4.1,0,7.2,0.9,9.2,2.6c2,1.7,3.2,4.1,3.4,7.1h24.3c0-6.1-1.5-11.5-4.5-16.1c-3-4.6-7.3-8.1-12.8-10.7
	c-5.5-2.5-12.1-3.8-19.6-3.8c-7.4,0-14,1.3-19.7,3.7c-5.7,2.5-10.2,6-13.4,10.4c-3.2,4.5-4.8,9.7-4.8,15.6c0,7.3,2.3,13.1,7.1,17.3
	c4.8,4.2,11.3,7.2,19.6,9l9.3,2c3.5,0.8,6.2,1.6,8.3,2.4c2,0.9,3.5,1.8,4.4,2.9c0.9,1.1,1.4,2.3,1.4,3.8c0,1.5-0.5,2.9-1.5,4.1
	c-0.9,1.2-2.3,2.1-4.2,2.8c-1.8,0.7-4.1,1-6.8,1c-3.2,0-6-0.5-8.3-1.5c-2.3-1-4.1-2.5-5.4-4.4c-1.3-1.9-2-4.4-2.1-7.2h-24.1
	c0,7.8,1.7,14.3,5.1,19.3c3.3,5,8,8.7,14.1,11.1c6,2.4,13.1,3.6,21.3,3.6c7.9,0,14.7-1.1,20.4-3.3c5.7-2.2,10-5.5,13-9.7
	c3-4.3,4.6-9.5,4.6-15.6c0-3.6-0.6-6.9-1.7-9.9C729.9,70.5,728.2,67.8,725.8,65.4z"/>
<path class="st10" d="M663.8,63.2c4.8,4.2,11.3,7.2,19.6,9l9.3,2c3.5,0.8,6.2,1.6,8.3,2.4c2,0.9,3.5,1.8,4.4,2.9
	c0.7,0.8,1.1,1.8,1.3,2.8h26c-0.1-3.2-0.7-6.2-1.7-8.9c-1.1-3-2.8-5.7-5.2-8.2c-2.3-2.4-5.4-4.5-9.1-6.3c-3.7-1.8-8.1-3.2-13.3-4.3
	l-7.7-1.6c-2.2-0.5-4.1-1-5.8-1.6s-2.9-1.2-4-1.9c-1-0.7-1.8-1.5-2.3-2.4c-0.5-0.9-0.7-1.9-0.6-3c0-1.4,0.4-2.6,1.2-3.7
	c0.8-1.1,2-1.9,3.7-2.5c1.7-0.6,3.8-0.9,6.4-0.9c4.1,0,7.2,0.9,9.2,2.6c2,1.7,3.2,4.1,3.4,7.1h24.3c0-6.1-1.5-11.5-4.5-16.1
	c-3-4.6-7.3-8.1-12.8-10.7c-5.5-2.5-12.1-3.8-19.6-3.8c-7.4,0-8.9-8.8-14-5.2c-4.9,3.5-15.8,14.9-19,19.4c-3.2,4.5-4.8,9.7-4.8,15.6
	C656.6,53.2,659,59,663.8,63.2z"/>
<polygon class="st10" points="745.6,32.5 731.4,46.7 707.1,46.7 721.3,32.5 "/>
<path class="st8" d="M732.7,83.4c0-0.1,0-0.1,0-0.2h-26c0,0.1,0,0.1,0,0.2c0,1.5-0.5,2.9-1.5,4.1c-0.9,1.2-2.3,2.1-4.2,2.8
	c-1.8,0.7-4.1,1-6.8,1c-3.2,0-6-0.5-8.3-1.5c-2.3-1-4.1-2.5-5.4-4.4c-1.3-1.9-2-4.4-2.1-7.2h-7.6c0,0-3.1-6.7-2.4-14.1l-14.1,14.1h0
	l0,0l0,0v0c0,1.4,0.1,2.7,0.2,3.9l0,0.5l0,0c0.5,5.9,2.1,10.8,4.8,14.9c3.3,5,8,8.7,14.1,11.1c6,2.4,13.1,3.6,21.3,3.6
	c7.9,0,14.7-1.1,20.4-3.3c5.7-2.2,13.8-7.5,20.6-17.5C738.6,86.9,732.7,89.6,732.7,83.4z"/>
<path class="st8" d="M643.6,88c-6.3,0.7-12.8,0.9-19.1,0.5c-3.2-0.2-6.4-0.6-9.6-1.1c-0.2,0-0.3-0.1-0.5-0.1c-2.1,1.4-4.4,2.1-7,2.1
	c-3.3,0-6.2-1.1-8.8-3.4c-2.5-2.2-4.4-5.5-5.8-10c-2.8-2.4-6.2-4.6-8.1-7.8l-18.5,18.5c0.1,0.1,0.1,0.3,0.2,0.4
	c3.8,8.3,9.2,14.6,16.2,19c7,4.4,15.3,6.6,24.9,6.7c9.6,0,17.9-2.2,24.9-6.6c6.9-4.4,13.5-11,20.6-19.3
	C651.3,87.2,645.2,87.9,643.6,88z"/>
<polygon class="st10" points="775.6,3.3 761.4,17.4 730.5,111 744.7,96.9 "/>
<polygon class="st8" points="772.1,96.9 758,111 730.5,111 744.7,96.9 "/>
<polygon class="st8" points="813.8,96.9 799.6,111 827.1,111 841.2,96.9 "/>
<polygon class="st8" points="808.4,79 794.2,93.1 773.2,93.1 777.5,79 "/>
<path class="st9" d="M555.7,7.4c-5.2-2.7-11.3-4.1-18.2-4.1h-40.4v93.6h25.4V69.1h14.1c7.1,0,13.4-1.3,18.7-4
	c5.3-2.7,9.5-6.4,12.5-11.3c3-4.9,4.5-10.7,4.5-17.4c0-6.6-1.4-12.4-4.3-17.4C565,14,561,10.1,555.7,7.4z M544,43.3
	c-1.1,1.9-2.8,3.5-4.9,4.5c-2.1,1.1-4.7,1.6-7.7,1.6h-9V23.6h9c3,0,5.5,0.5,7.7,1.5c2.1,1,3.7,2.5,4.9,4.4c1.1,1.9,1.7,4.2,1.7,6.9
	C545.7,39,545.2,41.3,544,43.3z"/>
<path class="st9" d="M645,7.5C638.1,3.8,630.4,2,622,2c-8.5,0-16.2,1.8-23.1,5.5c-6.9,3.7-12.3,9.1-16.4,16.2
	c-4,7.1-6.1,15.9-6.1,26.4c0,10.4,2,19.1,6.1,26.3c4,7.1,9.5,12.6,16.4,16.3c6.9,3.7,14.6,5.6,23.1,5.6c8.5,0,16.2-1.8,23-5.5
	c6.9-3.7,12.4-9.1,16.4-16.2c4.1-7.1,6.1-15.9,6.1-26.4s-2-19.2-6.1-26.4C657.3,16.6,651.9,11.2,645,7.5z M639.1,64.3
	c-1.5,3.9-3.7,6.8-6.5,8.8c-2.9,2-6.4,3-10.6,3c-4.2,0-7.7-1-10.6-3c-2.9-2-5.1-4.9-6.5-8.8c-1.5-3.9-2.2-8.6-2.2-14.2
	c0-5.6,0.7-10.3,2.2-14.2c1.5-3.9,3.7-6.8,6.5-8.8c2.9-2,6.4-3,10.6-3c4.2,0,7.7,1,10.6,3c2.9,2,5.1,4.9,6.5,8.8
	c1.5,3.9,2.2,8.6,2.2,14.2C641.3,55.7,640.6,60.4,639.1,64.3z"/>
<path class="st9" d="M740,51.2c-2.3-2.4-5.4-4.5-9.1-6.3c-3.7-1.8-8.1-3.2-13.3-4.3l-7.7-1.6c-2.2-0.5-4.1-1-5.8-1.6
	c-1.6-0.6-2.9-1.2-4-1.9c-1-0.7-1.8-1.5-2.3-2.4c-0.5-0.9-0.7-1.9-0.6-3c0-1.4,0.4-2.6,1.2-3.7c0.8-1.1,2-1.9,3.7-2.5
	c1.7-0.6,3.8-0.9,6.4-0.9c4.1,0,7.2,0.9,9.2,2.6c2,1.7,3.2,4.1,3.4,7.1h24.3c0-6.1-1.5-11.5-4.5-16.1c-3-4.6-7.3-8.1-12.8-10.7
	C722.8,3.2,716.2,2,708.7,2c-7.4,0-14,1.3-19.7,3.7c-5.7,2.5-10.2,6-13.4,10.4c-3.2,4.5-4.8,9.7-4.8,15.6c0,7.3,2.3,13.1,7.1,17.3
	c4.8,4.2,11.3,7.2,19.6,9l9.3,2c3.5,0.8,6.2,1.6,8.3,2.4c2,0.9,3.5,1.8,4.4,2.9c0.9,1.1,1.4,2.3,1.4,3.8c0,1.5-0.5,2.9-1.5,4.1
	c-0.9,1.2-2.3,2.1-4.2,2.8c-1.8,0.7-4.1,1-6.8,1c-3.2,0-6-0.5-8.3-1.5c-2.3-1-4.1-2.5-5.4-4.4c-1.3-1.9-2-4.4-2.1-7.2h-24.1
	c0,7.8,1.7,14.3,5.1,19.3c3.3,5,8,8.7,14.1,11.1c6,2.4,13.1,3.6,21.3,3.6c7.9,0,14.7-1.1,20.4-3.3c5.7-2.2,10-5.5,13-9.7
	c3-4.3,4.6-9.5,4.6-15.6c0-3.6-0.6-6.9-1.7-9.9C744,56.4,742.3,53.7,740,51.2z"/>
<path class="st10" d="M376.4,66.2c3-4.6,4.5-10.3,4.5-17c0-6.6-1.4-12.3-4.3-17.1c-2.9-4.8-6.9-8.4-12.2-10.9
	c-5.2-2.5-11.3-3.8-18.2-3.8h-40.4V111h25.4V80.1h8.8l16.4,30.9H384l-19-34.9C369.8,73.8,373.6,70.5,376.4,66.2z M331.1,37.7h9
	c3,0,5.5,0.4,7.7,1.2c2.1,0.8,3.7,2.1,4.9,3.7c1.1,1.7,1.7,3.9,1.7,6.6c0,2.7-0.6,4.8-1.7,6.4c-1.1,1.6-2.8,2.8-4.9,3.6
	c-2.1,0.7-4.7,1.1-7.7,1.1h-9V37.7z"/>
<path class="st10" d="M455.6,21.6c-6.9-3.7-14.6-5.5-23-5.5c-8.5,0-11.6-7-17.8-2.2c-6.8,5.3-17.6,16.8-21.7,24
	c-4,7.1-6.1,15.9-6.1,26.4c0,10.4,2,19.1,6.1,26.3c4,7.1,9.5,12.6,16.4,16.3c6.9,3.7,14.6,5.6,23.1,5.6c8.5,0,16.1-1.8,23-5.5
	c6.9-3.7,12.4-9.1,16.4-16.2c4.1-7.1,6.1-15.9,6.1-26.4S476,45,472,37.9C467.9,30.7,462.4,25.3,455.6,21.6z M449.7,78.4
	c-1.5,3.9-3.7,6.8-6.5,8.8c-2.9,2-6.4,3-10.6,3c-4.2,0-7.7-1-10.6-3c-2.9-2-5.1-4.9-6.5-8.8c-1.5-3.9-2.2-8.6-2.2-14.2
	c0-5.6,0.7-10.3,2.2-14.2c1.5-3.9,3.7-6.8,6.5-8.8c2.9-2,6.4-3,10.6-3c4.2,0,7.7,1,10.6,3c2.9,2,5.1,4.9,6.5,8.8
	c1.5,3.9,2.2,8.6,2.2,14.2C451.9,69.8,451.2,74.6,449.7,78.4z"/>
<polygon class="st10" points="497.1,3.3 483,17.4 483,111 497.1,96.9 "/>
<polygon class="st8" points="522.5,96.9 508.4,111 483,111 497.1,96.9 "/>
<path class="st8" d="M468.7,88c-6.3,0.7-12.8,0.9-19.1,0.5c-3.2-0.2-6.4-0.6-9.6-1.1c-0.2,0-0.3-0.1-0.5-0.1c-2.1,1.4-4.4,2.1-7,2.1
	c-3.3,0-6.2-1.1-8.8-3.4c-2.5-2.2-4.4-5.5-5.8-10c-2.8-2.4-6.2-4.6-8.1-7.8l-18.5,18.5c0.1,0.1,0.1,0.3,0.2,0.4
	c3.8,8.3,9.2,14.6,16.2,19c7,4.4,15.3,6.6,24.9,6.7c9.6,0,17.9-2.2,24.9-6.6c6.9-4.4,13.5-11,20.6-19.3
	C476.5,87.2,470.3,87.9,468.7,88z"/>
<path class="st9" d="M390.5,52c3-4.6,4.5-10.3,4.5-17c0-6.6-1.4-12.3-4.3-17.1c-2.9-4.8-6.9-8.4-12.2-10.9
	c-5.2-2.5-11.3-3.8-18.2-3.8h-40.4v93.6h25.4V66h8.8l16.4,30.9h27.6l-19-34.9C383.9,59.6,387.8,56.3,390.5,52z M345.3,23.6h9
	c3,0,5.5,0.4,7.7,1.2c2.1,0.8,3.7,2.1,4.9,3.7c1.1,1.7,1.7,3.9,1.7,6.6c0,2.7-0.6,4.8-1.7,6.4c-1.1,1.6-2.8,2.8-4.9,3.6
	c-2.1,0.7-4.7,1.1-7.7,1.1h-9V23.6z"/>
<path class="st9" d="M469.7,7.5c-6.9-3.7-14.6-5.5-23-5.5c-8.5,0-16.2,1.8-23.1,5.5c-6.9,3.7-12.3,9.1-16.4,16.2
	c-4,7.1-6.1,15.9-6.1,26.4c0,10.4,2,19.1,6.1,26.3c4,7.1,9.5,12.6,16.4,16.3c6.9,3.7,14.6,5.6,23.1,5.6c8.5,0,16.1-1.8,23-5.5
	c6.9-3.7,12.4-9.1,16.4-16.2c4.1-7.1,6.1-15.9,6.1-26.4s-2-19.2-6.1-26.4C482.1,16.6,476.6,11.2,469.7,7.5z M463.8,64.3
	c-1.5,3.9-3.7,6.8-6.5,8.8c-2.9,2-6.4,3-10.6,3c-4.2,0-7.7-1-10.6-3c-2.9-2-5.1-4.9-6.5-8.8c-1.5-3.9-2.2-8.6-2.2-14.2
	c0-5.6,0.7-10.3,2.2-14.2c1.5-3.9,3.7-6.8,6.5-8.8c2.9-2,6.4-3,10.6-3c4.2,0,7.7,1,10.6,3c2.9,2,5.1,4.9,6.5,8.8
	c1.5,3.9,2.2,8.6,2.2,14.2C466,55.7,465.3,60.4,463.8,64.3z"/>
<polygon class="st10" points="57.8,66.4 57,66.4 16.3,3.3 2.2,17.4 2.2,111 27.6,111 27.6,61.8 28.2,61.8 62,111 83.2,111 71.9,3.3 
	57.8,17.4 "/>
<path class="st10" d="M163.4,21.6c-6.9-3.7-14.6-5.5-23-5.5c-8.5,0-9.8-8.6-16-3.9c-6.7,5.2-19.5,18.5-23.5,25.6
	c-4,7.1-6.1,15.9-6.1,26.4c0,10.4,2,19.1,6.1,26.3c4,7.1,9.5,12.6,16.4,16.3c6.9,3.7,14.6,5.6,23.1,5.6c8.5,0,16.2-1.8,23-5.5
	c6.9-3.7,12.4-9.1,16.4-16.2c4.1-7.1,6.1-15.9,6.1-26.4s-2-19.2-6.1-26.4C175.8,30.7,170.3,25.3,163.4,21.6z M157.6,78.4
	c-1.5,3.9-3.7,6.8-6.5,8.8c-2.9,2-6.4,3-10.6,3c-4.2,0-7.7-1-10.6-3c-2.9-2-5.1-4.9-6.5-8.8c-1.5-3.9-2.2-8.6-2.2-14.2
	c0-5.6,0.7-10.3,2.2-14.2c1.5-3.9,3.7-6.8,6.5-8.8c2.9-2,6.4-3,10.6-3c4.2,0,7.7,1,10.6,3c2.9,2,5.1,4.9,6.5,8.8
	c1.5,3.9,2.2,8.6,2.2,14.2C159.8,69.8,159.1,74.6,157.6,78.4z"/>
<polygon class="st10" points="319.8,3.3 305.7,17.4 305.7,111 319.8,96.9 "/>
<polygon class="st8" points="345.3,96.9 331.1,111 305.7,111 319.8,96.9 "/>
<polygon class="st8" points="370.5,96.9 356.3,111 384,111 398.1,96.9 "/>
<path class="st10" d="M281.9,21.5c-5.2-2.7-11.3-4.1-18.2-4.1h-40.4V111h25.4V83.2h14.1c7.1,0,13.4-1.3,18.7-4
	c5.3-2.7,9.5-6.4,12.5-11.3c3-4.9,4.5-10.7,4.5-17.4c0-6.6-1.4-12.4-4.3-17.4C291.1,28.1,287.1,24.3,281.9,21.5z M270.2,57.4
	c-1.1,1.9-2.8,3.5-4.9,4.5c-2.1,1.1-4.7,1.6-7.7,1.6h-9V37.7h9c3,0,5.5,0.5,7.7,1.5c2.1,1,3.7,2.5,4.9,4.4c1.1,1.9,1.7,4.2,1.7,6.9
	C271.9,53.2,271.3,55.5,270.2,57.4z"/>
<path class="st8" d="M298.2,47l-26.4,3.5c0.2,1.1,0-1.3,0,0c0,2.7-0.6,5-1.7,6.9c-1.1,1.9-2.8,3.5-4.9,4.5c-2.1,1.1-4.7,1.6-7.7,1.6
	h-8.2v19.7h13.4c7.1,0,13.4-1.3,18.7-4c5.3-2.7,11.1-5.6,21.9-19.3c4-5,1.5-0.8,6.6-9.9C310.5,49,298.3,48.1,298.2,47z"/>
<path class="st8" d="M176.6,88c-6.3,0.7-12.8,0.9-19.1,0.5c-3.2-0.2-6.4-0.6-9.6-1.1c-0.2,0-0.3-0.1-0.5-0.1c-2.1,1.4-4.4,2.1-7,2.1
	c-3.3,0-6.2-1.1-8.8-3.4c-2.5-2.2-4.4-5.5-5.8-10c-2.8-2.4-6.2-4.6-8.1-7.8L99.2,86.8c0.1,0.1,0.1,0.3,0.2,0.4
	c3.8,8.3,9.2,14.6,16.2,19c7,4.4,15.3,6.6,24.9,6.7c9.6,0,17.9-2.2,24.9-6.6c6.9-4.4,13.5-11,20.6-19.3
	C184.3,87.2,178.1,87.9,176.6,88z"/>
<polygon class="st9" points="71.9,52.3 71.2,52.3 37.9,3.3 16.3,3.3 16.3,96.9 41.8,96.9 41.8,47.7 42.3,47.7 76.1,96.9 97.3,96.9 
	97.3,3.3 71.9,3.3 "/>
<path class="st9" d="M177.6,7.5C170.7,3.8,163,2,154.6,2c-8.5,0-16.2,1.8-23.1,5.5c-6.9,3.7-12.3,9.1-16.4,16.2
	c-4,7.1-6.1,15.9-6.1,26.4c0,10.4,2,19.1,6.1,26.3c4,7.1,9.5,12.6,16.4,16.3c6.9,3.7,14.6,5.6,23.1,5.6c8.5,0,16.1-1.8,23-5.5
	c6.9-3.7,12.4-9.1,16.4-16.2c4.1-7.1,6.1-15.9,6.1-26.4s-2-19.2-6.1-26.4C190,16.6,184.5,11.2,177.6,7.5z M171.7,64.3
	c-1.5,3.9-3.7,6.8-6.5,8.8c-2.9,2-6.4,3-10.6,3c-4.2,0-7.7-1-10.6-3c-2.9-2-5.1-4.9-6.5-8.8c-1.5-3.9-2.2-8.6-2.2-14.2
	c0-5.6,0.7-10.3,2.2-14.2c1.5-3.9,3.7-6.8,6.5-8.8c2.9-2,6.4-3,10.6-3c4.2,0,7.7,1,10.6,3c2.9,2,5.1,4.9,6.5,8.8
	c1.5,3.9,2.2,8.6,2.2,14.2C173.9,55.7,173.2,60.4,171.7,64.3z"/>
<path class="st9" d="M296,7.4c-5.2-2.7-11.3-4.1-18.2-4.1h-40.4v93.6h25.4V69.1h14.1c7.1,0,13.4-1.3,18.7-4
	c5.3-2.7,9.5-6.4,12.5-11.3c3-4.9,4.5-10.7,4.5-17.4c0-6.6-1.4-12.4-4.3-17.4C305.3,14,301.2,10.1,296,7.4z M284.3,43.3
	c-1.1,1.9-2.8,3.5-4.9,4.5c-2.1,1.1-4.7,1.6-7.7,1.6h-9V23.6h9c3,0,5.5,0.5,7.7,1.5c2.1,1,3.7,2.5,4.9,4.4c1.1,1.9,1.7,4.2,1.7,6.9
	C286,39,285.4,41.3,284.3,43.3z"/>
<polygon class="st8" points="16.3,96.9 2.2,111 27.6,111 41.8,96.9 "/>
<polygon class="st8" points="76.1,96.9 62,111 83.2,111 97.3,96.9 "/>
<polygon class="st10" points="237.4,3.3 223.2,17.4 223.2,111 237.4,96.9 "/>
<polygon class="st8" points="262.8,96.9 248.6,111 223.2,111 237.4,96.9 "/>
</svg>
