<svg width="994" height="111" viewBox="0 0 994 111" fill="none" xmlns="http://www.w3.org/2000/svg">
<g clip-path="url(#clip0_2338_23349)">
<path d="M862.895 15.699H837.385V108.799H900.882V88.4342H862.895V15.699Z" fill="#C6C2D1" stroke="#1A2031" stroke-linejoin="round"/>
<path d="M977.715 71.5205C976.597 68.5194 974.859 65.8183 972.508 63.4031C970.149 60.995 967.12 58.8942 963.42 57.1078C959.72 55.3214 955.27 53.878 950.07 52.7919L942.36 51.1555C940.124 50.6982 938.199 50.1837 936.576 49.6121C934.953 49.0404 933.626 48.3902 932.588 47.6828C931.549 46.9682 930.792 46.1679 930.316 45.2747C929.84 44.3815 929.638 43.3739 929.695 42.2521C929.724 40.8873 930.135 39.6797 930.936 38.615C931.729 37.5574 932.963 36.7142 934.629 36.0926C936.295 35.4709 938.444 35.1636 941.076 35.1636C945.209 35.1636 948.289 36.014 950.323 37.7075C952.357 39.4081 953.496 41.7662 953.741 44.7959H978.148C978.119 38.7007 976.597 33.3772 973.582 28.8183C970.568 24.2594 966.298 20.7223 960.759 18.2071C955.22 15.6918 948.664 14.4342 941.076 14.4342C933.489 14.4342 927.056 15.6775 921.322 18.1642C915.588 20.6509 911.102 24.1094 907.878 28.5539C904.647 32.9914 903.053 38.1719 903.082 44.0742C903.053 51.3485 905.426 57.0864 910.215 61.2809C915.004 65.4753 921.553 68.4693 929.876 70.2558L939.237 72.2565C942.721 73.014 945.49 73.8214 947.539 74.686C949.587 75.5507 951.066 76.5225 951.967 77.5943C952.869 78.6733 953.337 79.9238 953.366 81.3458C953.337 82.8606 952.847 84.2111 951.895 85.3902C950.943 86.5692 949.551 87.4981 947.719 88.1627C945.887 88.8272 943.601 89.1631 940.882 89.1631C937.636 89.1631 934.845 88.6629 932.508 87.6625C930.171 86.6621 928.354 85.1901 927.07 83.2536C925.786 81.3172 925.065 78.9234 924.914 76.0723H900.688C900.716 83.861 902.404 90.2492 905.758 95.2297C909.104 100.217 913.814 103.904 919.887 106.298C925.959 108.692 933.078 109.892 941.242 109.892C949.407 109.892 956.006 108.785 961.682 106.577C967.358 104.362 971.722 101.139 974.78 96.8946C977.838 92.6501 979.381 87.4695 979.41 81.3458C979.381 77.8015 978.804 74.5288 977.686 71.5277L977.715 71.5205Z" fill="#C6C2D1" stroke="#1A2031" stroke-linejoin="round"/>
<path d="M972.516 63.4031C970.157 60.995 967.128 58.8942 963.428 57.1078C959.728 55.3214 955.278 53.878 950.078 52.7919L942.368 51.1555C940.132 50.6982 938.207 50.1837 936.584 49.6121C934.961 49.0404 933.634 48.3902 932.595 47.6828C931.557 46.9682 930.8 46.1679 930.324 45.2747C929.848 44.3815 929.646 43.3739 929.703 42.2521C929.732 40.8873 930.143 39.6797 930.944 38.615C931.737 37.5574 932.97 36.7142 934.636 36.0926C936.303 35.4709 938.452 35.1636 941.084 35.1636C945.217 35.1636 948.297 36.014 950.33 37.7075C952.364 39.4081 953.504 41.7662 953.749 44.7959H978.155C978.127 38.7007 976.605 33.3772 973.59 28.8183C970.575 24.2594 966.306 20.7223 960.767 18.2071C955.228 15.6918 948.672 14.4342 941.084 14.4342C933.497 14.4342 927.063 15.6775 921.33 18.1642C915.596 20.6509 911.11 24.1094 907.886 28.5539C904.655 32.9914 903.061 38.1719 903.09 44.0742C903.061 51.3485 905.434 57.0864 910.223 61.2809C915.012 65.4753 921.561 68.4693 929.884 70.2558L939.245 72.2565C942.729 73.014 945.498 73.8214 947.547 74.686C949.595 75.5507 951.073 76.5225 951.975 77.5943C952.876 78.6733 953.345 79.9238 953.374 81.3458C953.345 82.8606 952.855 84.2111 951.903 85.3902C950.951 86.5692 949.559 87.4981 947.727 88.1627C945.895 88.8272 943.609 89.1631 940.89 89.1631C937.644 89.1631 934.853 88.6629 932.516 87.6625C930.179 86.6621 928.362 85.1901 927.078 83.2536C925.794 81.3172 925.073 78.9234 924.922 76.0723H900.695C900.724 83.861 902.412 90.2492 905.766 95.2297C909.112 100.217 913.822 103.904 919.894 106.298C925.967 108.692 933.086 109.892 941.25 109.892C949.415 109.892 956.014 108.785 961.69 106.577C967.366 104.362 971.729 101.139 974.787 96.8946C977.845 92.6501 979.389 87.4695 979.418 81.3458C979.389 77.8015 978.812 74.5288 977.694 71.5277C976.576 68.5265 974.838 65.8255 972.487 63.4103L972.516 63.4031Z" fill="#C6C2D1" stroke="#1A2031" stroke-linejoin="round"/>
<path d="M910.223 61.2665C915.012 65.461 921.56 68.455 929.883 70.2414L939.245 72.2422C942.728 72.9996 945.498 73.8071 947.546 74.6717C949.595 75.5363 951.073 76.5081 951.975 77.58C952.674 78.416 953.107 79.3592 953.28 80.4025H979.41C979.295 77.2155 978.732 74.2501 977.715 71.5133C976.597 68.5122 974.859 65.8111 972.508 63.3959C970.15 60.9878 967.121 58.887 963.421 57.1006C959.721 55.3142 955.271 53.8708 950.071 52.7847L942.361 51.1483C940.125 50.691 938.199 50.1765 936.576 49.6049C934.954 49.0332 933.627 48.383 932.588 47.6756C931.549 46.961 930.792 46.1607 930.316 45.2675C929.84 44.3743 929.638 43.3667 929.696 42.2449C929.725 40.8801 930.136 39.6725 930.936 38.6078C931.73 37.5502 932.963 36.707 934.629 36.0854C936.295 35.4637 938.444 35.1564 941.077 35.1564C945.209 35.1564 948.289 36.0068 950.323 37.7003C952.357 39.4009 953.496 41.759 953.742 44.7887H978.148C978.119 38.6935 976.597 33.37 973.583 28.8111C970.568 24.2522 966.298 20.7151 960.759 18.1999C955.22 15.6846 948.664 14.427 941.077 14.427C933.489 14.427 932.126 5.68077 926.998 9.23929C921.87 12.7978 911.11 24.1022 907.879 28.5396C904.648 32.977 903.054 38.1576 903.082 44.0599C903.054 51.3341 905.426 57.072 910.215 61.2665H910.223Z" fill="#C6C2D1" stroke="#1A2031" stroke-linejoin="round"/>
<path d="M992.355 30.7262L978.154 44.7888H953.74L967.941 30.7262H992.355Z" fill="#C6C2D1" stroke="#1A2031" stroke-linejoin="round"/>
<path d="M979.438 81.3385C979.438 81.2671 979.438 81.1956 979.438 81.1242H953.358C953.358 81.1956 953.38 81.2671 953.38 81.3385C953.351 82.8534 952.861 84.2039 951.909 85.383C950.957 86.562 949.565 87.4909 947.733 88.1555C945.901 88.82 943.614 89.1558 940.895 89.1558C937.65 89.1558 934.859 88.6557 932.522 87.6553C930.185 86.6549 928.368 85.1829 927.084 83.2464C925.8 81.31 925.079 78.9162 924.927 76.0651H917.311C917.311 76.0651 914.152 69.3768 914.902 61.9954L900.701 76.0651C900.701 77.4156 900.781 78.709 900.889 79.9809L900.91 80.4382H900.932C901.473 86.269 903.081 91.2138 905.779 95.2296C909.125 100.217 913.835 103.904 919.908 106.298C925.98 108.692 933.099 109.892 941.263 109.892C949.428 109.892 956.027 108.785 961.703 106.577C967.379 104.362 975.543 99.1168 982.373 89.1701C985.338 84.8613 979.409 87.4695 979.438 81.3457V81.3385Z" fill="#EBEFFC" stroke="#1A2031" stroke-linecap="round" stroke-linejoin="round"/>
<path d="M986.709 49.3405C984.35 46.9324 981.321 44.8316 977.621 43.0452C973.921 41.2588 969.471 39.8154 964.271 38.7292L956.561 37.0929C954.326 36.6356 952.4 36.1211 950.777 35.5494C949.154 34.9778 947.827 34.3275 946.789 33.6201C945.75 32.9056 944.993 32.1053 944.517 31.2121C944.041 30.3189 943.839 29.3113 943.897 28.1895C943.925 26.8247 944.336 25.617 945.137 24.5523C945.93 23.4948 947.164 22.6516 948.83 22.0299C950.496 21.4083 952.645 21.101 955.278 21.101C959.41 21.101 962.49 21.9513 964.524 23.6449C966.558 25.3455 967.697 27.7036 967.942 30.7333H992.349C992.32 24.6381 990.798 19.3146 987.783 14.7557C984.769 10.1968 980.499 6.65972 974.96 4.14447C969.421 1.62921 962.865 0.371582 955.278 0.371582C947.69 0.371582 941.257 1.61492 935.523 4.10159C929.789 6.58827 925.303 10.0467 922.079 14.4913C918.848 18.9287 917.254 24.1093 917.283 30.0116C917.254 37.2858 919.627 43.0238 924.416 47.2182C929.205 51.4127 935.754 54.4067 944.077 56.1931L953.438 58.1939C956.922 58.9513 959.691 59.7588 961.74 60.6234C963.788 61.488 965.267 62.4598 966.168 63.5317C967.07 64.6107 967.539 65.8612 967.567 67.2831C967.539 68.798 967.048 70.1485 966.096 71.3275C965.144 72.5066 963.752 73.4355 961.92 74.1C960.088 74.7646 957.802 75.1004 955.083 75.1004C951.837 75.1004 949.046 74.6002 946.709 73.5999C944.373 72.5995 942.555 71.1275 941.271 69.191C939.987 67.2545 939.266 64.8608 939.115 62.0097H914.889C914.918 69.7984 916.605 76.1866 919.959 81.1671C923.305 86.1547 928.015 89.8418 934.088 92.2356C940.161 94.6294 947.279 95.8299 955.443 95.8299C963.608 95.8299 970.207 94.7223 975.883 92.5143C981.559 90.2992 985.923 87.0765 988.981 82.832C992.039 78.5875 993.582 73.4069 993.611 67.2831C993.582 63.7389 993.005 60.4662 991.887 57.4651C990.769 54.4639 989.031 51.7629 986.68 49.3476L986.709 49.3405Z" fill="white" stroke="#1A2031" stroke-miterlimit="10"/>
<path d="M877.095 1.62915H851.578V94.7294H915.083V74.3644H877.095V1.62915Z" fill="white" stroke="#1A2031" stroke-miterlimit="10"/>
<path d="M762.506 15.699L731.486 108.799H759.016L764.447 90.978H795.431L800.862 108.799H828.391L797.378 15.699H762.506ZM770.209 72.0707L779.571 41.3446H780.306L789.668 72.0707H770.209Z" fill="#C6C2D1" stroke="#1A2031" stroke-linejoin="round"/>
<path d="M851.579 1.62915L837.385 15.6989V108.799L851.579 94.7294V1.62915Z" fill="#C6C2D1" stroke="#1A2031" stroke-linejoin="round"/>
<path d="M915.083 94.7294L900.882 108.799H837.385L851.579 94.7294H915.083Z" fill="#EBEFFC" stroke="#1A2031" stroke-linecap="round" stroke-linejoin="round"/>
<path d="M541.832 19.7862C536.603 17.0566 530.501 15.6918 523.527 15.6918H482.965V108.792H508.475V81.1528H522.604C529.758 81.1528 536.026 79.838 541.392 77.2012C546.758 74.5645 550.934 70.8059 553.92 65.9255C556.905 61.045 558.391 55.2713 558.391 48.6045C558.391 41.9376 556.934 36.2211 554.035 31.2835C551.128 26.3459 547.061 22.5087 541.832 19.7791V19.7862ZM530.061 55.4714C528.914 57.4079 527.277 58.9013 525.15 59.9517C523.022 60.995 520.462 61.5238 517.461 61.5238H508.468V35.8853H517.461C520.462 35.8853 523.022 36.3926 525.15 37.4073C527.277 38.422 528.914 39.8797 530.061 41.7733C531.208 43.6669 531.785 45.9463 531.785 48.6116C531.785 51.2769 531.215 53.535 530.061 55.4786V55.4714Z" fill="#C6C2D1" stroke="#1A2031" stroke-linejoin="round"/>
<path d="M557.518 45.1317L531.064 48.6116C531.316 49.6906 531.064 47.3683 531.064 48.6116C531.064 51.2484 530.494 53.535 529.34 55.4786C528.193 57.415 526.556 58.9085 524.428 59.9589C522.301 61.0021 519.74 61.5309 516.74 61.5309H508.475V81.1671H521.882C529.037 81.1671 535.304 79.8523 540.67 77.2155C546.036 74.5788 551.813 71.6134 562.668 58.001C566.656 52.9919 564.219 57.2364 569.289 48.19C569.873 47.1468 557.605 46.275 557.511 45.1389L557.518 45.1317Z" fill="#EBEFFC"/>
<path d="M531.064 48.6116L557.518 45.1317L557.511 45.1389C557.605 46.275 569.873 47.1468 569.289 48.19C564.219 57.2364 566.656 52.9919 562.668 58.001C551.813 71.6134 546.036 74.5788 540.67 77.2155C535.304 79.8523 529.037 81.1671 521.882 81.1671H508.475V61.5309H516.74C519.74 61.5309 522.301 61.0021 524.428 59.9589C526.556 58.9085 528.193 57.415 529.34 55.4786C530.494 53.535 531.064 51.2484 531.064 48.6116ZM531.064 48.6116C531.064 47.3683 531.316 49.6906 531.064 48.6116Z" stroke="#1A2031" stroke-linecap="round" stroke-linejoin="round"/>
<path d="M631.423 19.9005C624.506 16.2491 616.803 14.4198 608.3 14.4198C599.797 14.4198 594.921 7.88158 589.332 13.3051C583.158 19.3003 572.729 28.9254 568.676 36.0353C564.622 43.1452 562.596 51.8771 562.596 62.2454C562.596 72.6137 564.622 81.2528 568.676 88.3627C572.729 95.4725 578.203 100.86 585.098 104.547C591.993 108.227 599.725 110.071 608.293 110.071C616.861 110.071 624.506 108.249 631.416 104.59C638.325 100.939 643.821 95.5583 647.888 88.4556C651.956 81.3457 653.99 72.6137 653.99 62.2454C653.99 51.8771 651.956 43.1452 647.888 36.0353C643.821 28.9254 638.332 23.5519 631.416 19.9005H631.423ZM625.523 76.358C624.037 80.1952 621.852 83.1035 618.96 85.0828C616.068 87.0693 612.512 88.0625 608.293 88.0625C604.074 88.0625 600.518 87.0693 597.626 85.0828C594.734 83.0963 592.548 80.1881 591.063 76.358C589.577 72.528 588.834 67.819 588.834 62.2454C588.834 56.6718 589.577 51.9629 591.063 48.1328C592.548 44.2956 594.734 41.3874 597.626 39.408C600.518 37.4216 604.074 36.4283 608.293 36.4283C612.512 36.4283 616.068 37.4216 618.96 39.408C621.852 41.3945 624.037 44.3028 625.523 48.1328C627.009 51.97 627.752 56.6718 627.752 62.2454C627.752 67.819 627.009 72.528 625.523 76.358Z" fill="#C6C2D1" stroke="#1A2031" stroke-linejoin="round"/>
<path d="M776.7 1.62915L745.68 94.7294H773.209L778.64 76.9082H809.624L815.055 94.7294H842.584L811.571 1.62915H776.7ZM784.403 58.0009L793.764 27.2748H794.5L803.861 58.0009H784.403Z" fill="white" stroke="#1A2031" stroke-miterlimit="10"/>
<path d="M726.762 63.4031C724.403 60.995 721.374 58.8942 717.674 57.1078C713.974 55.3214 709.524 53.878 704.324 52.7919L696.614 51.1555C694.378 50.6982 692.453 50.1837 690.83 49.6121C689.207 49.0404 687.88 48.3902 686.841 47.6828C685.803 46.9682 685.046 46.1679 684.57 45.2747C684.094 44.3815 683.892 43.3739 683.949 42.2521C683.978 40.8873 684.389 39.6797 685.19 38.615C685.983 37.5574 687.216 36.7142 688.883 36.0926C690.549 35.4709 692.698 35.1636 695.33 35.1636C699.463 35.1636 702.543 36.014 704.576 37.7075C706.61 39.4081 707.75 41.7662 707.995 44.7959H732.402C732.373 38.7007 730.851 33.3772 727.836 28.8183C724.821 24.2594 720.552 20.7223 715.013 18.2071C709.474 15.6918 702.918 14.4342 695.33 14.4342C687.743 14.4342 681.31 15.6775 675.576 18.1642C669.842 20.6509 665.356 24.1094 662.132 28.5539C658.901 32.9914 657.307 38.1719 657.336 44.0742C657.307 51.3485 659.68 57.0864 664.469 61.2809C669.258 65.4753 675.807 68.4693 684.13 70.2558L693.491 72.2565C696.975 73.014 699.744 73.8214 701.793 74.686C703.841 75.5507 705.319 76.5225 706.221 77.5943C707.122 78.6733 707.591 79.9238 707.62 81.3458C707.591 82.8606 707.101 84.2111 706.149 85.3902C705.197 86.5692 703.805 87.4981 701.973 88.1627C700.141 88.8272 697.855 89.1631 695.136 89.1631C691.89 89.1631 689.099 88.6629 686.762 87.6625C684.425 86.6621 682.608 85.1901 681.324 83.2536C680.04 81.3172 679.319 78.9234 679.168 76.0723H654.941C654.97 83.861 656.658 90.2492 660.012 95.2297C663.358 100.217 668.068 103.904 674.141 106.298C680.213 108.692 687.332 109.892 695.496 109.892C703.661 109.892 710.26 108.785 715.936 106.577C721.612 104.362 725.975 101.139 729.033 96.8946C732.091 92.6501 733.635 87.4695 733.664 81.3458C733.635 77.8015 733.058 74.5288 731.94 71.5277C730.822 68.5265 729.084 65.8255 726.733 63.4103L726.762 63.4031Z" fill="#C6C2D1" stroke="#1A2031" stroke-linejoin="round"/>
<path d="M664.477 61.2665C669.265 65.461 675.814 68.455 684.137 70.2414L693.499 72.2422C696.982 72.9996 699.752 73.8071 701.8 74.6717C703.849 75.5363 705.327 76.5081 706.229 77.58C706.928 78.416 707.361 79.3592 707.534 80.4025H733.664C733.549 77.2155 732.986 74.2501 731.969 71.5133C730.851 68.5122 729.113 65.8111 726.762 63.3959C724.404 60.9878 721.374 58.887 717.675 57.1006C713.975 55.3142 709.525 53.8708 704.325 52.7847L696.615 51.1483C694.379 50.691 692.453 50.1765 690.83 49.6049C689.208 49.0332 687.88 48.383 686.842 47.6756C685.803 46.961 685.046 46.1607 684.57 45.2675C684.094 44.3743 683.892 43.3667 683.95 42.2449C683.979 40.8801 684.39 39.6725 685.19 38.6078C685.984 37.5502 687.217 36.707 688.883 36.0854C690.549 35.4637 692.698 35.1564 695.331 35.1564C699.463 35.1564 702.543 36.0068 704.577 37.7003C706.611 39.4009 707.75 41.759 707.996 44.7887H732.402C732.373 38.6935 730.851 33.37 727.837 28.8111C724.822 24.2522 720.552 20.7151 715.013 18.1999C709.474 15.6846 702.918 14.427 695.331 14.427C687.743 14.427 686.38 5.68077 681.252 9.23929C676.298 12.6763 665.364 24.1022 662.133 28.5396C658.901 32.977 657.307 38.1576 657.336 44.0599C657.307 51.3341 659.68 57.072 664.469 61.2665H664.477Z" fill="#C6C2D1" stroke="#1A2031" stroke-linejoin="round"/>
<path d="M746.604 30.7262L732.41 44.7888H707.996L722.197 30.7262H746.604Z" fill="#C6C2D1" stroke="#1A2031" stroke-linejoin="round"/>
<path d="M733.694 81.3385C733.694 81.2671 733.694 81.1956 733.694 81.1242H707.614C707.614 81.1956 707.636 81.2671 707.636 81.3385C707.607 82.8534 707.116 84.2039 706.164 85.383C705.212 86.562 703.82 87.4909 701.988 88.1555C700.157 88.82 697.87 89.1558 695.151 89.1558C691.906 89.1558 689.115 88.6557 686.778 87.6553C684.441 86.6549 682.623 85.1829 681.34 83.2464C680.056 81.31 679.335 78.9162 679.183 76.0651H671.567C671.567 76.0651 668.408 69.3768 669.158 61.9954L654.957 76.0651C654.957 77.4156 655.036 78.709 655.145 79.9809L655.166 80.4382H655.188C655.729 86.269 657.337 91.2138 660.035 95.2296C663.381 100.217 668.091 103.904 674.163 106.298C680.236 108.692 687.355 109.892 695.519 109.892C703.683 109.892 710.283 108.785 715.959 106.577C721.635 104.362 729.799 99.1168 736.629 89.1701C739.593 84.8613 733.665 87.4695 733.694 81.3457V81.3385Z" fill="#EBEFFC" stroke="#1A2031" stroke-linecap="round" stroke-linejoin="round"/>
<path d="M644.196 85.9404C637.827 86.6549 631.394 86.855 624.996 86.462C621.773 86.2619 618.563 85.9046 615.368 85.4187C615.217 85.3902 615.051 85.3687 614.899 85.3401C612.793 86.7335 610.449 87.4338 607.86 87.4338C604.542 87.4338 601.6 86.3048 599.025 84.0468C596.551 81.8745 594.597 78.5518 593.161 74.0858C590.327 71.6563 586.93 69.5126 585.055 66.2899L566.49 84.6827C566.548 84.8114 566.606 84.94 566.663 85.0686C570.464 93.3146 575.866 99.6385 582.884 104.012C589.894 108.392 598.224 110.6 607.867 110.636C617.503 110.636 625.826 108.449 632.822 104.09C639.774 99.7528 646.345 93.1789 653.543 84.8542C651.956 85.09 645.782 85.7546 644.196 85.9332V85.9404Z" fill="#EBEFFC" stroke="#1A2031" stroke-linecap="round" stroke-linejoin="round"/>
<path d="M776.7 1.62915L762.506 15.6989L731.486 108.799L745.687 94.7294L776.7 1.62915Z" fill="#C6C2D1" stroke="#1A2031" stroke-linejoin="round"/>
<path d="M773.217 94.7294L759.016 108.799H731.486L745.687 94.7294H773.217Z" fill="#EBEFFC" stroke="#1A2031" stroke-linecap="round" stroke-linejoin="round"/>
<path d="M815.062 94.7294L800.861 108.799H828.391L842.592 94.7294H815.062Z" fill="#EBEFFC" stroke="#1A2031" stroke-linecap="round" stroke-linejoin="round"/>
<path d="M809.633 76.9083L795.432 90.978H774.357L778.649 76.9083H809.633Z" fill="#EBEFFC" stroke="#1A2031" stroke-linecap="round" stroke-linejoin="round"/>
<path d="M556.033 5.72359C550.804 2.99396 544.702 1.62915 537.728 1.62915H497.166V94.7294H522.676V67.0901H536.805C543.959 67.0901 550.227 65.7753 555.593 63.1386C560.959 60.5019 565.135 56.7433 568.121 51.8628C571.107 46.9824 572.592 41.2087 572.592 34.5419C572.592 27.875 571.135 22.1585 568.236 17.2209C565.33 12.2833 561.262 8.44607 556.033 5.71644V5.72359ZM544.262 41.4088C543.116 43.3453 541.478 44.8387 539.351 45.8891C537.223 46.9324 534.663 47.4611 531.662 47.4611H522.669V21.8155H531.662C534.663 21.8155 537.223 22.3229 539.351 23.3375C541.478 24.3522 543.116 25.8099 544.262 27.7035C545.409 29.5971 545.986 31.8765 545.986 34.5419C545.986 37.2072 545.416 39.4652 544.262 41.4088Z" fill="white" stroke="#1A2031" stroke-miterlimit="10"/>
<path d="M645.617 5.83799C638.7 2.18658 630.997 0.3573 622.494 0.3573C613.991 0.3573 606.201 2.18658 599.299 5.83799C592.404 9.4894 586.923 14.87 582.877 21.9728C578.824 29.0827 576.797 37.8146 576.797 48.1829C576.797 58.5512 578.824 67.1902 582.877 74.3001C586.93 81.41 592.404 86.7978 599.299 90.485C606.194 94.1649 613.926 96.0085 622.494 96.0085C631.062 96.0085 638.707 94.1864 645.617 90.5278C652.526 86.8764 658.022 81.4958 662.09 74.393C666.157 67.2831 668.191 58.5512 668.191 48.1829C668.191 37.8146 666.157 29.0827 662.09 21.9728C658.022 14.8629 652.533 9.4894 645.617 5.83799ZM639.717 62.2955C638.231 66.1327 636.046 69.041 633.154 71.0203C630.262 73.0068 626.706 74 622.487 74C618.268 74 614.712 73.0068 611.82 71.0203C608.928 69.0338 606.742 66.1255 605.257 62.2955C603.771 58.4654 603.028 53.7565 603.028 48.1829C603.028 42.6093 603.771 37.9004 605.257 34.0703C606.742 30.2331 608.928 27.3249 611.82 25.3455C614.712 23.359 618.268 22.3658 622.487 22.3658C626.706 22.3658 630.262 23.359 633.154 25.3455C636.046 27.332 638.231 30.2403 639.717 34.0703C641.203 37.9075 641.946 42.6093 641.946 48.1829C641.946 53.7565 641.203 58.4654 639.717 62.2955Z" fill="white" stroke="#1A2031" stroke-miterlimit="10"/>
<path d="M740.963 49.3405C738.604 46.9324 735.575 44.8316 731.875 43.0452C728.175 41.2588 723.725 39.8154 718.525 38.7292L710.815 37.0929C708.579 36.6356 706.654 36.1211 705.031 35.5494C703.408 34.9778 702.081 34.3275 701.043 33.6201C700.004 32.9056 699.247 32.1053 698.771 31.2121C698.295 30.3189 698.093 29.3113 698.15 28.1895C698.179 26.8247 698.59 25.617 699.391 24.5523C700.184 23.4948 701.418 22.6516 703.084 22.0299C704.75 21.4083 706.899 21.101 709.531 21.101C713.664 21.101 716.744 21.9513 718.778 23.6449C720.811 25.3455 721.951 27.7036 722.196 30.7333H746.603C746.574 24.6381 745.052 19.3146 742.037 14.7557C739.023 10.1968 734.753 6.65972 729.214 4.14447C723.675 1.62921 717.119 0.371582 709.531 0.371582C701.944 0.371582 695.511 1.61492 689.777 4.10159C684.043 6.58827 679.557 10.0467 676.333 14.4913C673.102 18.9287 671.508 24.1093 671.537 30.0116C671.508 37.2858 673.881 43.0238 678.67 47.2182C683.459 51.4127 690.008 54.4067 698.331 56.1931L707.692 58.1939C711.176 58.9513 713.945 59.7588 715.994 60.6234C718.042 61.488 719.521 62.4598 720.422 63.5317C721.324 64.6107 721.792 65.8612 721.821 67.2831C721.792 68.798 721.302 70.1485 720.35 71.3275C719.398 72.5066 718.006 73.4355 716.174 74.1C714.342 74.7646 712.056 75.1004 709.337 75.1004C706.091 75.1004 703.3 74.6002 700.963 73.5999C698.626 72.5995 696.809 71.1275 695.525 69.191C694.241 67.2545 693.52 64.8608 693.369 62.0097H669.143C669.171 69.7984 670.859 76.1866 674.213 81.1671C677.559 86.1547 682.269 89.8418 688.342 92.2356C694.414 94.6294 701.533 95.8299 709.697 95.8299C717.862 95.8299 724.461 94.7223 730.137 92.5143C735.813 90.2992 740.177 87.0765 743.235 82.832C746.293 78.5875 747.836 73.4069 747.865 67.2831C747.836 63.7389 747.259 60.4662 746.141 57.4651C745.023 54.4639 743.285 51.7629 740.934 49.3476L740.963 49.3405Z" fill="white" stroke="#1A2031" stroke-miterlimit="10"/>
<path d="M375.992 64.2034C378.978 59.6302 380.463 54.0066 380.463 47.3398C380.463 40.6729 379.007 35.0636 376.107 30.3403C373.201 25.6099 369.133 21.9943 363.904 19.4719C358.675 16.9566 352.573 15.699 345.599 15.699H305.037V108.799H330.547V78.0659H339.375L355.877 108.799H383.594L364.503 74.0787C369.371 71.7635 373.208 68.4765 375.999 64.2034H375.992ZM330.547 35.8853H339.541C342.541 35.8853 345.101 36.2855 347.229 37.0929C349.357 37.8933 350.994 39.1366 352.141 40.823C353.287 42.5022 353.864 44.6816 353.864 47.3469C353.864 50.0122 353.295 52.1202 352.141 53.7565C350.994 55.3929 349.357 56.5862 347.229 57.3222C345.101 58.0653 342.541 58.4369 339.541 58.4369H330.547V35.8925V35.8853Z" fill="#C6C2D1" stroke="#1A2031" stroke-linejoin="round"/>
<path d="M455.464 19.9006C448.548 16.2491 440.845 14.4199 432.342 14.4199C423.838 14.4199 420.658 7.4386 414.491 12.1976C407.69 17.4425 396.778 28.9255 392.724 36.0354C388.671 43.1452 386.645 51.8772 386.645 62.2455C386.645 72.6138 388.671 81.2528 392.724 88.3627C396.778 95.4726 402.252 100.86 409.147 104.548C416.042 108.228 423.773 110.071 432.342 110.071C440.91 110.071 448.555 108.249 455.464 104.59C462.374 100.939 467.869 95.5583 471.937 88.4556C476.005 81.3457 478.039 72.6138 478.039 62.2455C478.039 51.8772 476.005 43.1452 471.937 36.0354C467.869 28.9255 462.381 23.552 455.464 19.9006ZM449.572 76.3581C448.086 80.1953 445.901 83.1035 443.009 85.0829C440.117 87.0693 436.561 88.0626 432.342 88.0626C428.122 88.0626 424.567 87.0693 421.675 85.0829C418.783 83.0964 416.597 80.1881 415.111 76.3581C413.626 72.528 412.883 67.8191 412.883 62.2455C412.883 56.6719 413.626 51.9629 415.111 48.1329C416.597 44.2957 418.783 41.3874 421.675 39.4081C424.567 37.4216 428.122 36.4284 432.342 36.4284C436.561 36.4284 440.117 37.4216 443.009 39.4081C445.901 41.3946 448.086 44.3028 449.572 48.1329C451.058 51.9701 451.8 56.6719 451.8 62.2455C451.8 67.8191 451.058 72.528 449.572 76.3581Z" fill="#C6C2D1" stroke="#1A2031" stroke-linejoin="round"/>
<path d="M497.166 1.62915L482.965 15.6989V108.799L497.166 94.7294V1.62915Z" fill="#C6C2D1" stroke="#1A2031" stroke-linejoin="round"/>
<path d="M522.676 94.7294L508.475 108.799H482.965L497.166 94.7294H522.676Z" fill="#EBEFFC" stroke="#1A2031" stroke-linecap="round" stroke-linejoin="round"/>
<path d="M468.692 85.9404C462.323 86.6549 455.89 86.855 449.493 86.462C446.269 86.2619 443.059 85.9046 439.864 85.4187C439.713 85.3902 439.547 85.3687 439.395 85.3401C437.289 86.7335 434.945 87.4338 432.356 87.4338C429.038 87.4338 426.096 86.3048 423.521 84.0468C421.047 81.8745 419.093 78.5518 417.657 74.0858C414.823 71.6563 411.426 69.5126 409.551 66.2899L390.986 84.6827C391.044 84.8114 391.102 84.94 391.159 85.0686C394.96 93.3146 400.362 99.6385 407.38 104.012C414.39 108.392 422.72 110.6 432.363 110.636C441.999 110.636 450.322 108.449 457.318 104.09C464.271 99.7528 470.841 93.1789 478.039 84.8542C476.452 85.09 470.278 85.7546 468.692 85.9332V85.9404Z" fill="#EBEFFC" stroke="#1A2031" stroke-linecap="round" stroke-linejoin="round"/>
<path d="M390.185 50.1336C393.171 45.5604 394.657 39.9368 394.657 33.2699C394.657 26.6031 393.2 20.9938 390.301 16.2705C387.394 11.5401 383.326 7.92444 378.097 5.40204C372.868 2.88678 366.767 1.62915 359.792 1.62915H319.23V94.7294H344.74V63.9961H353.568L370.07 94.7294H397.787L378.696 60.0088C383.564 57.6937 387.401 54.4067 390.192 50.1336H390.185ZM344.74 21.8155H353.734C356.734 21.8155 359.295 22.2157 361.422 23.0231C363.55 23.8234 365.187 25.0668 366.334 26.7531C367.481 28.4324 368.058 30.6118 368.058 33.2771C368.058 35.9424 367.488 38.0504 366.334 39.6867C365.187 41.323 363.55 42.5164 361.422 43.2524C359.295 43.9955 356.734 44.3671 353.734 44.3671H344.74V21.8227V21.8155Z" fill="white" stroke="#1A2031" stroke-miterlimit="10"/>
<path d="M469.658 5.83799C462.741 2.18658 455.038 0.3573 446.535 0.3573C438.032 0.3573 430.242 2.18658 423.34 5.83799C416.445 9.4894 410.964 14.87 406.918 21.9728C402.865 29.0827 400.838 37.8146 400.838 48.1829C400.838 58.5512 402.865 67.1902 406.918 74.3001C410.971 81.41 416.445 86.7978 423.34 90.485C430.235 94.1649 437.967 96.0085 446.535 96.0085C455.103 96.0085 462.748 94.1864 469.658 90.5278C476.567 86.8764 482.063 81.4958 486.131 74.393C490.198 67.2831 492.232 58.5512 492.232 48.1829C492.232 37.8146 490.198 29.0827 486.131 21.9728C482.063 14.8629 476.574 9.4894 469.658 5.83799ZM463.765 62.2955C462.28 66.1327 460.094 69.041 457.202 71.0203C454.31 73.0068 450.754 74 446.535 74C442.316 74 438.76 73.0068 435.868 71.0203C432.976 69.0338 430.791 66.1255 429.305 62.2955C427.819 58.4654 427.076 53.7565 427.076 48.1829C427.076 42.6093 427.819 37.9004 429.305 34.0703C430.791 30.2331 432.976 27.3249 435.868 25.3455C438.76 23.359 442.316 22.3658 446.535 22.3658C450.754 22.3658 454.31 23.359 457.202 25.3455C460.094 27.332 462.28 30.2403 463.765 34.0703C465.251 37.9075 465.994 42.6093 465.994 48.1829C465.994 53.7565 465.251 58.4654 463.765 62.2955Z" fill="white" stroke="#1A2031" stroke-miterlimit="10"/>
<path d="M56.1557 64.432H55.4201L14.5624 1.62915L0.361328 15.6989V108.799H25.8713V59.8802H26.4194L60.3749 108.799H81.6657L70.3568 1.62915L56.1557 15.6989V64.432Z" fill="#C6C2D1" stroke="#1A2031" stroke-linejoin="round"/>
<path d="M162.233 19.9005C155.317 16.2491 147.614 14.4198 139.111 14.4198C130.607 14.4198 129.259 5.83077 123.07 10.5683C116.392 15.6917 103.54 28.9254 99.4862 36.0353C95.4329 43.1452 93.4062 51.8771 93.4062 62.2454C93.4062 72.6137 95.4329 81.2528 99.4862 88.3626C103.54 95.4725 109.014 100.86 115.909 104.547C122.804 108.227 130.535 110.071 139.103 110.071C147.672 110.071 155.317 108.249 162.226 104.59C169.135 100.939 174.631 95.5583 178.699 88.4555C182.767 81.3456 184.801 72.6137 184.801 62.2454C184.801 51.8771 182.767 43.1452 178.699 36.0353C174.631 28.9254 169.143 23.5519 162.226 19.9005H162.233ZM156.341 76.358C154.855 80.1952 152.67 83.1035 149.778 85.0828C146.886 87.0693 143.33 88.0625 139.111 88.0625C134.891 88.0625 131.336 87.0693 128.444 85.0828C125.552 83.0963 123.366 80.1881 121.88 76.358C120.395 72.528 119.652 67.819 119.652 62.2454C119.652 56.6718 120.395 51.9629 121.88 48.1328C123.366 44.2956 125.552 41.3874 128.444 39.408C131.336 37.4215 134.891 36.4283 139.111 36.4283C143.33 36.4283 146.886 37.4215 149.778 39.408C152.67 41.3945 154.855 44.3028 156.341 48.1328C157.827 51.97 158.569 56.6718 158.569 62.2454C158.569 67.819 157.827 72.528 156.341 76.358Z" fill="#C6C2D1" stroke="#1A2031" stroke-linejoin="round"/>
<path d="M319.23 1.62915L305.029 15.6989V108.799L319.23 94.7294V1.62915Z" fill="#C6C2D1" stroke="#1A2031" stroke-linejoin="round"/>
<path d="M344.74 94.7294L330.539 108.799H305.029L319.23 94.7294H344.74Z" fill="#EBEFFC" stroke="#1A2031" stroke-linecap="round" stroke-linejoin="round"/>
<path d="M370.07 94.7294L355.869 108.799H383.586L397.78 94.7294H370.07Z" fill="#EBEFFC" stroke="#1A2031" stroke-linecap="round" stroke-linejoin="round"/>
<path d="M281.115 19.7862C275.886 17.0566 269.784 15.6918 262.81 15.6918H222.248V108.792H247.758V81.1528H261.887C269.041 81.1528 275.309 79.838 280.675 77.2012C286.041 74.5645 290.217 70.8059 293.203 65.9255C296.189 61.045 297.674 55.2713 297.674 48.6045C297.674 41.9376 296.217 36.2211 293.318 31.2835C290.412 26.3459 286.344 22.5087 281.115 19.7791V19.7862ZM269.344 55.4714C268.198 57.4079 266.56 58.9013 264.433 59.9517C262.305 60.995 259.745 61.5238 256.745 61.5238H247.751V35.8853H256.745C259.745 35.8853 262.305 36.3926 264.433 37.4073C266.56 38.422 268.198 39.8797 269.344 41.7733C270.491 43.6669 271.068 45.9463 271.068 48.6116C271.068 51.2769 270.498 53.535 269.344 55.4786V55.4714Z" fill="#C6C2D1" stroke="#1A2031" stroke-linejoin="round"/>
<path d="M297.522 45.1317L271.067 48.6116C271.32 49.6906 271.067 47.3683 271.067 48.6116C271.067 51.2484 270.498 53.535 269.344 55.4786C268.197 57.415 266.56 58.9085 264.432 59.9589C262.305 61.0021 259.744 61.5309 256.744 61.5309H248.479V81.1671H261.886C269.041 81.1671 275.308 79.8523 280.674 77.2155C286.04 74.5788 291.817 71.6134 302.672 58.001C306.66 52.9919 304.222 57.2364 309.293 48.19C309.877 47.1468 297.609 46.275 297.515 45.1389L297.522 45.1317Z" fill="#EBEFFC"/>
<path d="M271.067 48.6116L297.522 45.1317L297.515 45.1389C297.609 46.275 309.877 47.1468 309.293 48.19C304.222 57.2364 306.66 52.9919 302.672 58.001C291.817 71.6134 286.04 74.5788 280.674 77.2155C275.308 79.8523 269.041 81.1671 261.886 81.1671H248.479V61.5309H256.744C259.744 61.5309 262.305 61.0021 264.432 59.9589C266.56 58.9085 268.197 57.415 269.344 55.4786C270.498 53.535 271.067 51.2484 271.067 48.6116ZM271.067 48.6116C271.067 47.3683 271.32 49.6906 271.067 48.6116Z" stroke="#1A2031" stroke-linecap="round" stroke-linejoin="round"/>
<path d="M175.397 85.9404C169.028 86.6549 162.595 86.855 156.198 86.462C152.974 86.2619 149.764 85.9046 146.569 85.4187C146.418 85.3902 146.252 85.3687 146.1 85.3401C143.994 86.7335 141.65 87.4338 139.061 87.4338C135.744 87.4338 132.801 86.3048 130.226 84.0468C127.752 81.8745 125.798 78.5518 124.363 74.0858C121.528 71.6563 118.131 69.5126 116.256 66.2899L97.6914 84.6827C97.7491 84.8114 97.8068 84.94 97.8645 85.0686C101.665 93.3146 107.067 99.6385 114.085 104.012C121.095 108.392 129.426 110.6 139.068 110.636C148.704 110.636 157.027 108.449 164.023 104.09C170.976 99.7528 177.546 93.1789 184.744 84.8542C183.157 85.09 176.983 85.7546 175.397 85.9332V85.9404Z" fill="#EBEFFC" stroke="#1A2031" stroke-linecap="round" stroke-linejoin="round"/>
<path d="M70.3569 50.3623H69.6212L36.2138 1.62915H14.5625V94.7294H40.0724V45.8176H40.6206L74.5761 94.7294H95.8668V1.62915H70.3569V50.3623Z" fill="white" stroke="#1A2031" stroke-miterlimit="10"/>
<path d="M176.435 5.83799C169.518 2.18658 161.816 0.3573 153.312 0.3573C144.809 0.3573 137.02 2.18658 130.118 5.83799C123.223 9.4894 117.741 14.87 113.695 21.9728C109.642 29.0827 107.615 37.8146 107.615 48.1829C107.615 58.5512 109.642 67.1902 113.695 74.3001C117.749 81.41 123.223 86.7978 130.118 90.485C137.013 94.1649 144.744 96.0085 153.312 96.0085C161.881 96.0085 169.526 94.1864 176.435 90.5278C183.344 86.8764 188.84 81.4958 192.908 74.393C196.976 67.2831 199.01 58.5512 199.01 48.1829C199.01 37.8146 196.976 29.0827 192.908 21.9728C188.84 14.8629 183.352 9.4894 176.435 5.83799ZM170.543 62.2955C169.057 66.1327 166.872 69.041 163.979 71.0203C161.087 73.0068 157.532 74 153.312 74C149.093 74 145.538 73.0068 142.645 71.0203C139.753 69.0338 137.568 66.1255 136.082 62.2955C134.596 58.4654 133.854 53.7565 133.854 48.1829C133.854 42.6093 134.596 37.9004 136.082 34.0703C137.568 30.2331 139.753 27.3249 142.645 25.3455C145.538 23.359 149.093 22.3658 153.312 22.3658C157.532 22.3658 161.087 23.359 163.979 25.3455C166.872 27.332 169.057 30.2403 170.543 34.0703C172.028 37.9075 172.771 42.6093 172.771 48.1829C172.771 53.7565 172.028 58.4654 170.543 62.2955Z" fill="white" stroke="#1A2031" stroke-miterlimit="10"/>
<path d="M295.316 5.72359C290.087 2.99396 283.986 1.62915 277.011 1.62915H236.449V94.7294H261.959V67.0901H276.088C283.243 67.0901 289.51 65.7753 294.876 63.1386C300.242 60.5019 304.418 56.7433 307.404 51.8628C310.39 46.9824 311.876 41.2087 311.876 34.5419C311.876 27.875 310.419 22.1585 307.519 17.2209C304.613 12.2833 300.545 8.44607 295.316 5.71644V5.72359ZM283.546 41.4088C282.399 43.3453 280.762 44.8387 278.634 45.8891C276.506 46.9324 273.946 47.4611 270.946 47.4611H261.952V21.8155H270.946C273.946 21.8155 276.506 22.3229 278.634 23.3375C280.762 24.3522 282.399 25.8099 283.546 27.7035C284.692 29.5971 285.269 31.8765 285.269 34.5419C285.269 37.2072 284.7 39.4652 283.546 41.4088Z" fill="white" stroke="#1A2031" stroke-miterlimit="10"/>
<path d="M14.5624 94.7294L0.361328 108.799H25.8713L40.0723 94.7294H14.5624Z" fill="#EBEFFC" stroke="#1A2031" stroke-linecap="round" stroke-linejoin="round"/>
<path d="M74.576 94.7294L60.375 108.799H81.6657L95.8668 94.7294H74.576Z" fill="#EBEFFC" stroke="#1A2031" stroke-linecap="round" stroke-linejoin="round"/>
<path d="M236.449 1.62915L222.248 15.6989V108.799L236.449 94.7294V1.62915Z" fill="#C6C2D1" stroke="#1A2031" stroke-linejoin="round"/>
<path d="M261.959 94.7294L247.758 108.799H222.248L236.449 94.7294H261.959Z" fill="#EBEFFC" stroke="#1A2031" stroke-linecap="round" stroke-linejoin="round"/>
</g>
<defs>
<clipPath id="clip0_2338_23349">
<rect width="994" height="111" fill="white"/>
</clipPath>
</defs>
</svg>
