<svg width="834" height="79" viewBox="0 0 834 79" fill="none" xmlns="http://www.w3.org/2000/svg">
<g clip-path="url(#clip0_1041_1158)">
<path d="M495.169 77.3287V9.50568H542.786V24.3387H513.545V35.9932H539.865V50.8262H513.545V77.3138H495.154L495.169 77.3287Z" fill="#C6C3D1" stroke="#101320" stroke-linecap="round" stroke-linejoin="round"/>
<path d="M134.951 43.4246C134.951 50.9755 138.111 54.1838 135.175 59.347C132.239 64.5251 123.669 71.5984 118.676 74.2546C113.699 76.9109 108.14 78.239 102.014 78.239C95.889 78.239 90.2704 76.8959 85.2927 74.2099C80.3149 71.5238 76.3804 67.5992 73.4593 62.4211C70.5382 57.2429 69.0776 50.9008 69.0776 43.3948C69.0776 35.8888 70.5382 29.487 73.4593 24.3089C76.3804 19.1307 82.2374 11.5799 87.2003 8.9237C92.1632 6.26749 95.8294 8.56556 102.014 8.56556C108.199 8.56556 113.699 9.89367 118.676 12.5499C123.654 15.2061 127.619 19.1307 130.555 24.3089C133.491 29.487 134.951 35.844 134.951 43.3948V43.4246ZM116.039 43.4246C116.039 39.3657 115.502 35.9335 114.429 33.143C113.356 30.3525 111.776 28.2335 109.705 26.786C107.618 25.3385 105.055 24.6222 102.014 24.6222C98.9741 24.6222 96.4107 25.3385 94.3242 26.786C92.2377 28.2335 90.6579 30.3525 89.5998 33.143C88.5267 35.9335 87.9902 39.3657 87.9902 43.4246C87.9902 47.4836 88.5267 50.9158 89.5998 53.7063C90.6728 56.4968 92.2377 58.6158 94.3242 60.0633C96.4107 61.5108 98.9741 62.2271 102.014 62.2271C105.055 62.2271 107.618 61.5108 109.705 60.0633C111.791 58.6158 113.371 56.4968 114.429 53.7063C115.502 50.9158 116.039 47.4836 116.039 43.4246Z" fill="#C6C3D1" stroke="#101320" stroke-linecap="round" stroke-linejoin="round"/>
<path d="M142.775 35.5754C142.775 43.1262 141.315 49.4832 138.379 54.6613C135.443 59.8394 131.493 63.7491 126.501 66.4203C121.523 69.0765 115.964 70.4046 109.839 70.4046C103.713 70.4046 98.0946 69.0616 93.1169 66.3755C88.1391 63.6894 84.2046 59.7648 81.2835 54.5867C78.3624 49.4086 76.9019 43.0665 76.9019 35.5604C76.9019 28.0544 78.3624 21.6526 81.2835 16.4745C84.2046 11.2964 88.154 7.38666 93.1169 4.71552C98.0797 2.05931 103.654 0.731201 109.839 0.731201C116.024 0.731201 121.523 2.05931 126.501 4.71552C131.478 7.37174 135.443 11.2964 138.379 16.4745C141.315 21.6526 142.775 28.0096 142.775 35.5604V35.5754ZM123.863 35.5754C123.863 31.5164 123.326 28.0842 122.253 25.2937C121.18 22.5032 119.6 20.3842 117.529 18.9367C115.442 17.4892 112.879 16.7729 109.839 16.7729C106.798 16.7729 104.235 17.4892 102.148 18.9367C100.062 20.3842 98.4821 22.5032 97.424 25.2937C96.3509 28.0842 95.8144 31.5164 95.8144 35.5754C95.8144 39.6343 96.3509 43.0665 97.424 45.857C98.497 48.6475 100.062 50.7665 102.148 52.214C104.235 53.6615 106.798 54.3778 109.839 54.3778C112.879 54.3778 115.442 53.6615 117.529 52.214C119.615 50.7665 121.195 48.6475 122.253 45.857C123.326 43.0665 123.863 39.6343 123.863 35.5754Z" fill="#ECF0FC" stroke="#111422" stroke-linecap="round" stroke-linejoin="round"/>
<path d="M502.993 69.4943V1.67133H550.61V16.5043H521.369V28.1589H547.689V42.9919H521.369V69.4794H502.978L502.993 69.4943Z" fill="#ECF0FC" stroke="#111422" stroke-linecap="round" stroke-linejoin="round"/>
<path d="M615.157 43.4246C615.157 50.9754 617.72 54.8702 614.784 60.0484C611.848 65.2265 603.86 71.6133 598.882 74.2696C593.905 76.9258 588.346 78.2539 582.22 78.2539C576.095 78.2539 570.476 76.9109 565.498 74.2248C560.521 71.5387 556.586 67.6141 553.665 62.436C550.744 57.2578 549.283 50.9158 549.283 43.4097C549.283 35.9037 550.744 29.5019 553.665 24.3238C556.586 19.1456 565.946 8.84908 570.908 6.19286C575.871 3.53665 576.05 8.58047 582.22 8.58047C588.39 8.58047 593.905 9.90858 598.882 12.5648C603.86 15.221 607.824 19.1456 610.76 24.3238C613.696 29.5019 615.157 35.8589 615.157 43.4097V43.4246ZM596.244 43.4246C596.244 39.3657 595.708 35.9335 594.635 33.143C593.562 30.3525 591.982 28.2335 589.91 26.786C587.824 25.3385 585.261 24.6222 582.22 24.6222C579.18 24.6222 576.616 25.3385 574.53 26.786C572.443 28.2335 570.864 30.3525 569.806 33.143C568.733 35.9335 568.196 39.3657 568.196 43.4246C568.196 47.4836 568.733 50.9158 569.806 53.7063C570.879 56.4968 572.443 58.6158 574.53 60.0633C576.616 61.5108 579.18 62.2271 582.22 62.2271C585.261 62.2271 587.824 61.5108 589.91 60.0633C591.997 58.6158 593.577 56.4968 594.635 53.7063C595.708 50.9158 596.244 47.4836 596.244 43.4246Z" fill="#C6C3D1" stroke="#101320" stroke-linecap="round" stroke-linejoin="round"/>
<path d="M622.981 35.5754C622.981 43.1262 621.521 49.4832 618.585 54.6613C615.649 59.8394 611.699 63.7491 606.707 66.4203C601.729 69.0765 596.17 70.4046 590.044 70.4046C583.919 70.4046 578.3 69.0616 573.323 66.3755C568.345 63.6894 564.41 59.7648 561.489 54.5867C558.568 49.4086 557.108 43.0665 557.108 35.5604C557.108 28.0544 558.568 21.6526 561.489 16.4745C564.41 11.2964 568.36 7.38666 573.323 4.71552C578.286 2.05931 583.859 0.731201 590.044 0.731201C596.229 0.731201 601.729 2.05931 606.707 4.71552C611.684 7.37174 615.649 11.2964 618.585 16.4745C621.521 21.6526 622.981 28.0096 622.981 35.5604V35.5754ZM604.069 35.5754C604.069 31.5164 603.532 28.0842 602.459 25.2937C601.386 22.5032 599.806 20.3842 597.735 18.9367C595.648 17.4892 593.085 16.7729 590.044 16.7729C587.004 16.7729 584.441 17.4892 582.354 18.9367C580.268 20.3842 578.688 22.5032 577.63 25.2937C576.557 28.0842 576.02 31.5164 576.02 35.5754C576.02 39.6343 576.557 43.0665 577.63 45.857C578.703 48.6475 580.268 50.7665 582.354 52.214C584.441 53.6615 587.004 54.3778 590.044 54.3778C593.085 54.3778 595.648 53.6615 597.735 52.214C599.821 50.7665 601.401 48.6475 602.459 45.857C603.532 43.0665 604.069 39.6343 604.069 35.5754Z" fill="#ECF0FC" stroke="#111422" stroke-linecap="round" stroke-linejoin="round"/>
<path d="M663.698 9.50567L671.522 1.67133L682.074 52.9601C682.074 58.1234 689.019 54.1838 686.575 57.9592C684.131 61.7346 672.506 73.031 668.124 75.0754C663.743 77.1198 658.646 78.1345 652.848 78.1345C647.051 78.1345 641.894 77.1198 637.497 75.0754C633.116 73.031 629.703 70.136 627.259 66.3606C624.815 62.5852 623.607 58.1383 623.607 52.9601V9.50567L631.432 1.67133L641.983 51.3634C641.983 53.4675 642.445 55.3328 643.369 56.9743C644.293 58.6158 645.575 59.8991 647.215 60.8243C648.854 61.7495 650.732 62.2121 652.818 62.2121C654.905 62.2121 656.812 61.7495 658.437 60.8243C660.061 59.8991 661.343 58.6158 662.267 56.9743C663.191 55.3328 663.653 53.4526 663.653 51.3634V9.50567H663.698Z" fill="#C6C3D1" stroke="#101320" stroke-linecap="round" stroke-linejoin="round"/>
<path d="M671.522 1.67133H689.913V45.1109C689.913 50.2741 688.676 54.7359 686.232 58.5113C683.788 62.2867 680.345 65.1817 675.963 67.2261C671.582 69.2705 666.485 70.2852 660.687 70.2852C654.89 70.2852 649.733 69.2705 645.337 67.2261C640.955 65.1817 637.542 62.2867 635.098 58.5113C632.654 54.7359 631.447 50.289 631.447 45.1109V1.67133H649.837V43.5291C649.837 45.6332 650.299 47.4985 651.223 49.14C652.147 50.7815 653.429 52.0648 655.069 52.99C656.708 53.9152 658.586 54.3778 660.672 54.3778C662.759 54.3778 664.666 53.9152 666.291 52.99C667.915 52.0648 669.197 50.7815 670.121 49.14C671.045 47.4985 671.507 45.6182 671.507 43.5291V1.67133H671.522Z" fill="#ECF0FC" stroke="#111422" stroke-linecap="round" stroke-linejoin="round"/>
<path d="M59.3457 9.50568V77.3138H43.9951L19.5235 41.6936H19.1211V77.3287H0.745117V9.50568H16.3491L40.4182 45.0064H40.9399V9.50568H59.3308H59.3457Z" fill="#C6C3D1" stroke="#101320" stroke-linecap="round" stroke-linejoin="round"/>
<path d="M67.1699 1.67133V69.4794H51.8193L27.3478 33.8444H26.9454V69.4794H8.56934V1.67133H24.1733L48.2425 37.1721H48.7641V1.67133H67.155H67.1699Z" fill="#ECF0FC" stroke="#111422" stroke-linecap="round" stroke-linejoin="round"/>
<path d="M8.56946 1.67133L0.745117 9.50567V77.3287L8.56946 69.4943V1.67133Z" fill="#C6C3D1" stroke="#101320" stroke-linecap="round" stroke-linejoin="round"/>
<path d="M48.7941 1.67133L40.9548 9.50567V26.4129L48.2576 37.1721L48.7941 1.67133Z" fill="#C6C3D1" stroke="#101320" stroke-linecap="round" stroke-linejoin="round"/>
<path d="M67.1701 69.4943L59.3457 77.3287H43.9951L51.8344 69.4943H67.1701Z" fill="#C6C3D1" stroke="#101320" stroke-linecap="round" stroke-linejoin="round"/>
<path d="M26.9604 33.8593L51.8344 69.4943L43.9952 77.3287L26.9604 52.5124V33.8593Z" fill="#C6C3D1" stroke="#101320" stroke-linecap="round" stroke-linejoin="round"/>
<path d="M19.136 77.3287L26.9604 69.4943H8.56946L0.745117 77.3287H19.136Z" fill="#C6C3D1" stroke="#101320" stroke-linecap="round" stroke-linejoin="round"/>
<path d="M142.343 24.3387V9.50568H201.212V24.3387H180.839V77.3138H162.716V24.3387H142.343Z" fill="#C6C3D1" stroke="#101320" stroke-linecap="round" stroke-linejoin="round"/>
<path d="M150.167 16.5043V1.67133H209.036V16.5043H188.663V69.4794H170.541V16.5043H150.167Z" fill="#ECF0FC" stroke="#111422" stroke-linecap="round" stroke-linejoin="round"/>
<path d="M150.168 1.67133L142.343 9.50567V24.3387L150.168 16.5043V1.67133Z" fill="#C6C3D1" stroke="#101320" stroke-linecap="round" stroke-linejoin="round"/>
<path d="M170.541 16.5043L162.716 24.3387H142.343L150.168 16.5043H170.541Z" fill="#C6C3D1" stroke="#101320" stroke-linecap="round" stroke-linejoin="round"/>
<path d="M170.541 69.4943L162.716 77.3287H180.839L188.663 69.4943H170.541Z" fill="#C6C3D1" stroke="#101320" stroke-linecap="round" stroke-linejoin="round"/>
<path d="M209.036 16.5043L201.212 24.3387H188.663V16.5043H209.036Z" fill="#C6C3D1" stroke="#101320" stroke-linecap="round" stroke-linejoin="round"/>
<path d="M211.6 77.3287V9.50568H229.991V35.9932H254.328V9.50568H272.719V77.3138H254.328V50.8262H229.991V77.3138H211.6V77.3287Z" fill="#C6C3D1" stroke="#101320" stroke-linecap="round" stroke-linejoin="round"/>
<path d="M219.424 69.4943V1.67133H237.815V28.1589H262.153V1.67133H280.544V69.4794H262.153V42.9919H237.815V69.4794H219.424V69.4943Z" fill="#ECF0FC" stroke="#111422" stroke-linecap="round" stroke-linejoin="round"/>
<path d="M219.424 1.67133L211.6 9.50567V77.3287L219.424 69.4943V1.67133Z" fill="#C6C3D1" stroke="#101320" stroke-linecap="round" stroke-linejoin="round"/>
<path d="M237.815 69.4943L229.976 77.3287H211.6L219.424 69.4943H237.815Z" fill="#C6C3D1" stroke="#101320" stroke-linecap="round" stroke-linejoin="round"/>
<path d="M262.152 42.9919L254.328 50.8411V77.3287L262.152 69.4943V42.9919Z" fill="#C6C3D1" stroke="#101320" stroke-linecap="round" stroke-linejoin="round"/>
<path d="M280.543 69.4943L272.704 77.3287H254.328L262.152 69.4943H280.543Z" fill="#C6C3D1" stroke="#101320" stroke-linecap="round" stroke-linejoin="round"/>
<path d="M262.152 1.67133L254.328 9.50567V28.1589H262.152V1.67133Z" fill="#C6C3D1" stroke="#101320" stroke-linecap="round" stroke-linejoin="round"/>
<path d="M304.091 9.50568V77.3138H285.7V9.50568H304.091Z" fill="#C6C3D1" stroke="#101320" stroke-linecap="round" stroke-linejoin="round"/>
<path d="M311.915 1.67133V69.4794H293.524V1.67133H311.915Z" fill="#ECF0FC" stroke="#111422" stroke-linecap="round" stroke-linejoin="round"/>
<path d="M293.525 1.67133L285.7 9.50567V77.3287L293.525 69.4943V1.67133Z" fill="#C6C3D1" stroke="#101320" stroke-linecap="round" stroke-linejoin="round"/>
<path d="M311.915 69.4943L304.091 77.3287H285.7L293.525 69.4943H311.915Z" fill="#C6C3D1" stroke="#101320" stroke-linecap="round" stroke-linejoin="round"/>
<path d="M377.446 9.50568V77.3138H362.095L337.624 41.6787H337.222V77.3138H318.831V9.50568H334.435L358.504 45.0064H359.025V9.50568H377.416H377.446Z" fill="#C6C3D1" stroke="#101320" stroke-linecap="round" stroke-linejoin="round"/>
<path d="M385.271 1.67133V69.4794H369.92L345.448 33.8444H345.046V69.4794H326.655V1.67133H342.259L366.328 37.1721H366.85V1.67133H385.241H385.271Z" fill="#ECF0FC" stroke="#111422" stroke-linecap="round" stroke-linejoin="round"/>
<path d="M326.67 1.67133L318.845 9.50567V77.3287L326.67 69.4943V1.67133Z" fill="#C6C3D1" stroke="#101320" stroke-linecap="round" stroke-linejoin="round"/>
<path d="M345.061 69.4943L337.236 77.3287H318.845L326.67 69.4943H345.061Z" fill="#C6C3D1" stroke="#101320" stroke-linecap="round" stroke-linejoin="round"/>
<path d="M369.935 69.4943L362.095 77.3287H377.446L385.27 69.4943H369.935Z" fill="#C6C3D1" stroke="#101320" stroke-linecap="round" stroke-linejoin="round"/>
<path d="M366.88 1.67133L359.055 9.50567V26.4129L366.88 37.1721V1.67133Z" fill="#C6C3D1" stroke="#101320" stroke-linecap="round" stroke-linejoin="round"/>
<path d="M431.74 31.8895C431.457 30.7255 430.995 29.681 430.383 28.8005C429.772 27.9052 428.997 27.1441 428.088 26.5174C427.179 25.8906 426.121 25.4131 424.914 25.0997C423.707 24.7864 422.395 24.6222 420.964 24.6222C417.879 24.6222 415.256 25.3683 413.081 26.8457C410.905 28.323 409.25 30.4569 408.118 33.2325C406.985 36.0081 406.419 39.3657 406.419 43.3053C406.419 47.2448 406.955 50.677 408.043 53.4974C409.116 56.3177 410.726 58.4815 412.872 59.9887C415.018 61.4958 417.671 62.242 420.845 62.242C423.647 62.242 425.972 61.8391 427.835 61.0183C429.698 60.1976 431.099 59.0485 432.023 57.5414C432.947 56.0342 436.583 54.6016 436.583 52.5722H421.114V39.4552H451.144V48.8564C451.144 55.0344 454.885 56.3177 452.277 60.705C449.669 65.0922 441.025 72.4341 436.449 74.762C431.874 77.0899 426.628 78.2539 420.726 78.2539C414.139 78.2539 408.341 76.8512 403.363 74.0457C398.386 71.2403 394.496 67.241 391.709 62.0629C388.922 56.8699 387.521 50.7068 387.521 43.5589C387.521 37.9481 388.37 32.9788 390.084 28.6513C391.798 24.3238 400.249 10.3861 409.131 6.44655C413.036 4.71553 403.766 12.4156 407.76 10.8785C411.754 9.34152 416.031 8.58047 420.592 8.58047C424.601 8.58047 428.342 9.14753 431.784 10.2816C435.227 11.4158 438.282 13.0274 440.95 15.1166C443.603 17.2057 445.749 19.6679 447.388 22.5181C449.028 25.3683 450.011 28.4872 450.369 31.8895H431.784H431.74Z" fill="#C6C3D1" stroke="#101320" stroke-linecap="round" stroke-linejoin="round"/>
<path d="M439.564 24.0552C439.281 22.8912 438.819 21.8466 438.208 20.9662C437.597 20.0708 436.822 19.3098 435.913 18.683C435.003 18.0563 433.945 17.5788 432.738 17.2654C431.531 16.952 430.219 16.7879 428.789 16.7879C425.704 16.7879 423.081 17.534 420.905 19.0113C418.729 20.4887 417.075 22.6226 415.942 25.3982C414.809 28.1738 414.243 31.5314 414.243 35.4709C414.243 39.4105 414.779 42.8427 415.867 45.663C416.94 48.4834 418.55 50.6472 420.696 52.1543C422.842 53.6615 425.495 54.4076 428.669 54.4076C431.471 54.4076 433.781 53.9749 435.659 53.184C440.548 51.1247 444.408 46.7673 444.408 44.7378H428.938V31.6209H458.968V41.0221C458.968 47.2 457.657 52.4826 455.049 56.8699C452.441 61.2571 448.849 64.5997 444.273 66.9426C439.698 69.2705 434.452 70.4345 428.55 70.4345C421.963 70.4345 416.165 69.0317 411.188 66.2263C406.21 63.4209 402.32 59.4216 399.533 54.2435C396.746 49.0504 395.345 42.8874 395.345 35.7395C395.345 30.1286 396.195 25.1594 397.909 20.8319C399.623 16.5043 401.992 12.8483 405.032 9.84888C408.073 6.86437 411.59 4.59614 415.584 3.05912C419.578 1.5221 423.856 0.761047 428.416 0.761047C432.425 0.761047 436.166 1.3281 439.609 2.46222C443.051 3.59633 446.107 5.20797 448.774 7.29713C451.427 9.38628 453.573 11.8485 455.213 14.6987C456.852 17.5489 457.836 20.6677 458.193 24.0701H439.609L439.564 24.0552Z" fill="#ECF0FC" stroke="#111422" stroke-linecap="round" stroke-linejoin="round"/>
<path d="M428.923 31.606L421.099 39.4403L420.681 52.1394L428.923 44.7229V31.606Z" fill="#C6C3D1" stroke="#101320" stroke-linecap="round" stroke-linejoin="round"/>
<path d="M439.564 24.0552L431.74 31.8895H450.324L458.149 24.0552H439.564Z" fill="#C6C3D1" stroke="#101320" stroke-linecap="round" stroke-linejoin="round"/>
<path d="M502.993 1.67133L495.169 9.50567V77.3287L502.993 69.4943V1.67133Z" fill="#C6C3D1" stroke="#101320" stroke-linecap="round" stroke-linejoin="round"/>
<path d="M550.625 16.5043L542.786 24.3387L521.384 24.0551V16.5043H550.625Z" fill="#C6C3D1" stroke="#101320" stroke-linecap="round" stroke-linejoin="round"/>
<path d="M547.704 42.9919L539.88 50.8411H521.384V42.9919H547.704Z" fill="#C6C3D1" stroke="#101320" stroke-linecap="round" stroke-linejoin="round"/>
<path d="M521.384 69.4943L513.56 77.3287H495.169L502.993 69.4943H521.384Z" fill="#C6C3D1" stroke="#101320" stroke-linecap="round" stroke-linejoin="round"/>
<path d="M742.507 1.67133L753.059 77.3287H737.708L713.237 41.6936H712.835V77.3287H694.444V9.50567L702.268 1.67133L734.132 45.0064H734.653V9.50567L742.478 1.67133H742.507Z" fill="#C6C3D1" stroke="#101320" stroke-linecap="round" stroke-linejoin="round"/>
<path d="M760.884 1.67133V69.4794H745.533L721.061 33.8444H720.659V69.4794H702.268V1.67133H717.872L741.941 37.1721H742.463V1.67133H760.854H760.884Z" fill="#ECF0FC" stroke="#111422" stroke-linecap="round" stroke-linejoin="round"/>
<path d="M720.674 69.4943L712.849 77.3287H694.458L702.283 69.4943H720.674Z" fill="#C6C3D1" stroke="#101320" stroke-linecap="round" stroke-linejoin="round"/>
<path d="M745.548 69.4943L737.708 77.3287H753.059L760.883 69.4943H745.548Z" fill="#C6C3D1" stroke="#101320" stroke-linecap="round" stroke-linejoin="round"/>
<path d="M791.689 77.3287H765.623V9.50567L773.447 1.67133C780.407 1.67133 804.402 10.8636 809.484 13.5646C814.566 16.2656 818.486 20.1604 821.258 25.2191C824.03 30.2779 825.416 36.3513 825.416 43.4097C825.416 50.4681 828.978 53.0646 826.221 58.1233C823.463 63.197 814.626 70.5538 809.573 73.2548C804.521 75.9558 798.56 77.3138 791.689 77.3138V77.3287ZM784.014 61.7048H791.018C794.372 61.7048 797.233 61.1675 799.603 60.0782C801.973 58.9889 803.776 57.1385 805.028 54.4822C806.265 51.826 806.891 48.1402 806.891 43.4246C806.891 38.7091 806.265 35.0083 804.983 32.367C803.716 29.7108 801.868 27.8455 799.424 26.7711C796.995 25.6966 793.999 25.1445 790.482 25.1445H783.999V61.7048H784.014Z" fill="#C6C3D1" stroke="#101320" stroke-linecap="round" stroke-linejoin="round"/>
<path d="M799.528 69.4943H773.462V1.67133H799.26C806.22 1.67133 812.256 3.02928 817.338 5.73026C822.42 8.43124 826.34 12.326 829.112 17.3848C831.884 22.4435 833.27 28.517 833.27 35.5754C833.27 42.6337 831.899 48.7072 829.142 53.766C826.385 58.8396 822.48 62.7195 817.442 65.4205C812.39 68.1215 806.429 69.4794 799.558 69.4794L799.528 69.4943ZM791.853 53.8704H798.858C802.211 53.8704 805.073 53.3332 807.442 52.2439C809.812 51.1545 811.615 49.3041 812.867 46.6479C814.104 43.9917 814.73 40.3058 814.73 35.5903C814.73 30.8748 814.104 27.174 812.822 24.5327C811.556 21.8765 809.707 20.0111 807.263 18.9367C804.834 17.8623 801.838 17.3102 798.321 17.3102H791.838V53.8704H791.853Z" fill="#ECF0FC" stroke="#111422" stroke-linecap="round" stroke-linejoin="round"/>
<path d="M773.462 69.4943L765.638 77.3287V9.50567L773.462 1.67133V69.4943Z" fill="#C6C3D1" stroke="#101320" stroke-linecap="round" stroke-linejoin="round"/>
</g>
<defs>
<clipPath id="clip0_1041_1158">
<rect width="834" height="79" fill="white"/>
</clipPath>
</defs>
</svg>
