<svg width="73" height="137" viewBox="0 0 73 137" fill="none" xmlns="http://www.w3.org/2000/svg">
  <g clip-path="url(#clip0_1041_1134)">
    <path opacity="0.26" fill-rule="evenodd" clip-rule="evenodd" d="M66.8595 95.0312C67.405 95.0312 67.8713 95.7036 67.8713 96.4821V97.8268C67.8713 98.6053 67.405 99.2777 66.8595 99.2777C66.314 99.2777 65.8477 98.6053 65.8477 97.8268V96.4821C65.8477 95.6417 66.314 95.0312 66.8595 95.0312Z" fill="white"/>
    <path d="M72.9824 80.8942V37.2977C72.9824 37.0942 73 36.8996 73 36.6961C73 16.4283 56.6526 0 36.4956 0C16.3386 0 0 16.4283 0 36.6961C0 37.0146 0.0175967 37.3331 0.0263951 37.6427V77.1521H0V97.2075C0 99.72 2.02362 101.764 4.53116 101.764C7.03869 101.764 9.06231 99.72 9.06231 97.2075V96.4733C9.55502 96.7917 10.0565 97.1102 10.5932 97.4199C12.2033 98.3576 13.9278 99.1804 15.7403 99.9058V107.16C15.7403 109.673 17.7639 111.716 20.2714 111.716C22.779 111.716 24.8026 109.673 24.8026 107.16V102.533C27.3981 103.038 30.0728 103.383 32.7739 103.542V114.68C32.7739 117.192 34.7975 119.236 37.305 119.236C39.8126 119.236 41.8362 117.192 41.8362 114.68V103.444C44.8188 103.197 47.7575 102.737 50.573 102.073V107.7C50.573 110.212 52.5966 112.256 55.1041 112.256C57.6117 112.256 59.6353 110.212 59.6353 107.7V98.968C60.5151 98.5522 61.3686 98.1188 62.1956 97.6499C62.8115 97.3049 63.3834 96.9421 63.9465 96.5794V97.2075C63.9465 99.72 65.9701 101.764 68.4776 101.764C70.9852 101.764 73.0088 99.72 73.0088 97.2075V80.8854H72.9912L72.9824 80.8942Z" fill="#3FA9BD"/>
    <path d="M72.9824 80.8942V37.2977C72.9824 37.0942 73 36.8996 73 36.6961C73 16.4283 56.6526 0 36.4956 0C16.3386 0 0 16.4283 0 36.6961C0 37.0146 0.0175967 37.3331 0.0263951 37.6427V77.1521H0V97.2075C0 99.72 2.02362 101.764 4.53116 101.764C7.03869 101.764 9.06231 99.72 9.06231 97.2075V96.4733C9.55502 96.7917 10.0565 97.1102 10.5932 97.4199C12.2033 98.3576 13.9278 99.1804 15.7403 99.9058V107.16C15.7403 109.673 17.7639 111.716 20.2714 111.716C22.779 111.716 24.8026 109.673 24.8026 107.16V102.533C27.3981 103.038 30.0728 103.383 32.7739 103.542V114.68C32.7739 117.192 34.7975 119.236 37.305 119.236C39.8126 119.236 41.8362 117.192 41.8362 114.68V103.444C44.8188 103.197 47.7575 102.737 50.573 102.073V107.7C50.573 110.212 52.5966 112.256 55.1041 112.256C57.6117 112.256 59.6353 110.212 59.6353 107.7V98.968C60.5151 98.5522 61.3686 98.1188 62.1956 97.6499C62.8115 97.3049 63.3834 96.9421 63.9465 96.5794V97.2075C63.9465 99.72 65.9701 101.764 68.4776 101.764C70.9852 101.764 73.0088 99.72 73.0088 97.2075V80.8854H72.9912L72.9824 80.8942Z" fill="url(#paint0_radial_1041_1134)"/>
    <path opacity="0.26" fill-rule="evenodd" clip-rule="evenodd" d="M3.43065 68.6504C4.41607 68.6504 5.26951 69.8712 5.26951 71.2956V83.9021C5.26951 85.3264 4.42487 86.5473 3.43065 86.5473C2.44524 86.5473 1.5918 85.3264 1.5918 83.9021V71.2956C1.5918 69.8712 2.43644 68.6504 3.43065 68.6504Z" fill="white"/>
    <path opacity="0.26" fill-rule="evenodd" clip-rule="evenodd" d="M57.3652 12.8365C58.5706 11.9342 60.603 12.5092 61.782 14.0839L63.7968 16.791C64.9758 18.3657 64.9494 20.4978 63.744 21.409C62.5387 22.3113 60.5063 21.7363 59.3273 20.1616L57.3124 17.4545C56.0543 15.7648 56.1599 13.7477 57.3652 12.8365Z" fill="white"/>
    <path opacity="0.26" fill-rule="evenodd" clip-rule="evenodd" d="M18.7314 101.012C19.7169 101.012 20.5703 102.232 20.5703 103.657V106.098C20.5703 107.523 19.7257 108.744 18.7314 108.744C17.746 108.744 16.8926 107.523 16.8926 106.098V103.657C16.8926 102.135 17.7372 101.012 18.7314 101.012Z" fill="white"/>
    <path opacity="0.26" fill-rule="evenodd" clip-rule="evenodd" d="M3.43065 91.1652C4.41607 91.1652 5.26951 92.3861 5.26951 93.8104V96.2521C5.26951 97.6764 4.42487 98.8972 3.43065 98.8972C2.44524 98.8972 1.5918 97.6764 1.5918 96.2521V93.8104C1.5918 92.2888 2.43644 91.1652 3.43065 91.1652Z" fill="white"/>
    <path opacity="0.26" fill-rule="evenodd" clip-rule="evenodd" d="M36.4951 108.744C37.4805 108.744 38.334 109.965 38.334 111.389V113.831C38.334 115.255 37.4893 116.476 36.4951 116.476C35.5097 116.476 34.6562 115.255 34.6562 113.831V111.389C34.6562 109.867 35.5009 108.744 36.4951 108.744Z" fill="white"/>
    <path opacity="0.26" fill-rule="evenodd" clip-rule="evenodd" d="M53.8277 104.02C54.6108 104.02 55.2882 104.993 55.2882 106.116V108.054C55.2882 109.186 54.6196 110.15 53.8277 110.15C53.0447 110.15 52.3672 109.177 52.3672 108.054V106.116C52.3672 104.904 53.0359 104.02 53.8277 104.02Z" fill="white"/>
    <path d="M46.1886 39.9559C49.831 37.4351 50.6621 32.292 48.0447 28.4685C45.4274 24.6451 40.3529 23.5892 36.7104 26.1101C33.068 28.631 32.237 33.7741 34.8543 37.5975C37.4716 41.4209 42.5462 42.4768 46.1886 39.9559Z" fill="white"/>
    <path fill-rule="evenodd" clip-rule="evenodd" d="M40.4017 24.2046C36.6711 24.0453 33.6621 27.7256 33.6621 32.3612V32.8566V33.3521C33.6621 28.6368 36.592 24.8681 40.2433 25.0185C43.8946 25.1689 46.8069 29.0968 46.8069 33.9005C46.8069 34.8118 46.7277 35.7141 46.4813 36.5369C46.886 35.4753 47.1324 34.2456 47.1324 33.007C47.1324 28.2917 44.141 24.355 40.4105 24.2046H40.4017Z" fill="#AFAFB1"/>
    <path fill-rule="evenodd" clip-rule="evenodd" d="M47.9329 32.9628C47.9329 38.1735 44.5192 42.2519 40.3839 42.0838C36.2487 41.9157 32.8438 37.5454 32.8438 32.3347C32.8438 27.124 36.2575 23.0457 40.3927 23.2138C44.6072 23.3907 47.9329 27.7521 47.9329 32.9628ZM33.6532 32.3612C33.6532 36.9969 36.6446 40.9248 40.3751 41.0841C44.1056 41.2433 47.1147 37.5631 47.1147 32.9274C47.1147 28.2918 44.1232 24.3638 40.3927 24.2046C36.7414 24.0542 33.6532 27.7256 33.6532 32.3612Z" fill="#D3D3D3"/>
    <path d="M19.171 38.7309C22.8135 36.21 23.6445 31.0669 21.0271 27.2435C18.4098 23.4201 13.3353 22.3641 9.69286 24.885C6.05043 27.4059 5.21942 32.549 7.83674 36.3725C10.4541 40.1959 15.5286 41.2518 19.171 38.7309Z" fill="white"/>
    <path fill-rule="evenodd" clip-rule="evenodd" d="M13.5501 22.9926C9.81959 22.8333 6.81055 26.5136 6.81055 31.1492V31.6447V32.1401C6.81055 27.4248 9.7404 23.6561 13.3917 23.8065C17.043 23.9569 19.9553 27.8848 19.9553 32.6886C19.9553 33.5998 19.8761 34.5021 19.6298 35.3249C20.0345 34.2633 20.2808 33.0336 20.2808 31.7951C20.2808 27.0798 17.2894 23.143 13.5589 22.9926H13.5501Z" fill="#AFAFB1"/>
    <path fill-rule="evenodd" clip-rule="evenodd" d="M21.0911 31.7508C21.0911 36.9615 17.6774 41.0398 13.5421 40.8717C9.40692 40.6948 6.00195 36.3334 6.00195 31.1227C6.00195 25.912 9.41572 21.8336 13.5509 22.0017C17.7654 22.1787 21.0911 26.5401 21.0911 31.7508ZM6.8114 31.1492C6.8114 35.7849 9.80284 39.7128 13.5333 39.8721C17.2639 40.0313 20.2729 36.3511 20.2729 31.7154C20.2729 27.0797 17.2815 23.1518 13.5509 22.9925C9.89963 22.8422 6.8114 26.5135 6.8114 31.1492Z" fill="#D3D3D3"/>
    <path d="M29.3625 53.7544C30.9396 52.663 31.2979 50.4339 30.1628 48.7758C29.0277 47.1176 26.829 46.6582 25.252 47.7497C23.6749 48.8411 23.3167 51.0702 24.4517 52.7283C25.5868 54.3865 27.7855 54.8459 29.3625 53.7544Z" fill="#555069"/>
    <path d="M27.418 51.6592C28.7109 50.7644 29.0063 48.9395 28.0778 47.5832C27.1494 46.2269 25.3486 45.8528 24.0558 46.7475C22.7629 47.6423 22.4675 49.4672 23.396 50.8235C24.3244 52.1798 26.1252 52.554 27.418 51.6592Z" fill="white"/>
    <path d="M36.69 32.1755C38.5219 32.1755 40.007 30.6823 40.007 28.8403C40.007 26.9983 38.5219 25.5051 36.69 25.5051C34.8581 25.5051 33.373 26.9983 33.373 28.8403C33.373 30.6823 34.8581 32.1755 36.69 32.1755Z" fill="#555069"/>
    <path d="M11.2623 30.5211C13.0942 30.5211 14.5793 29.0279 14.5793 27.1859C14.5793 25.3439 13.0942 23.8507 11.2623 23.8507C9.43038 23.8507 7.94531 25.3439 7.94531 27.1859C7.94531 29.0279 9.43038 30.5211 11.2623 30.5211Z" fill="#555069"/>
  </g>
  <defs>
    <radialGradient id="paint0_radial_1041_1134" cx="0" cy="0" r="1" gradientUnits="userSpaceOnUse" gradientTransform="translate(58.2188 15.411) scale(93.8697 94.3854)">
      <stop offset="0.01" stop-color="#DD78CE"/>
      <stop offset="0.49" stop-color="#A7589A"/>
      <stop offset="0.58" stop-color="#A0609D"/>
      <stop offset="0.73" stop-color="#8D78A8"/>
      <stop offset="0.91" stop-color="#6F9FB9"/>
      <stop offset="1" stop-color="#5EB6C3"/>
    </radialGradient>
    <clipPath id="clip0_1041_1134">
      <rect width="73" height="137" fill="white"/>
    </clipPath>
  </defs>
</svg>
