<svg width="71" height="58" viewBox="0 0 71 58" fill="none" xmlns="http://www.w3.org/2000/svg">
<path class="black" d="M21.3495 39.2049C23.0218 42.1014 24.9655 43.8802 26.301 44.2984L28.4547 42.3523C27.0801 41.4776 25.5399 39.7639 24.2503 37.5301C22.9606 35.2964 22.2466 33.1057 22.1763 31.4779L19.4141 32.37C19.1086 33.7357 19.6772 36.3084 21.3495 39.2049Z" fill="#101423"/>
<path class="black" d="M24.7339 37.2509C26.0942 39.607 27.6336 41.2212 28.8797 41.9683L30.9117 40.1331L25.3267 30.4597L22.7214 31.3018C22.7453 32.7545 23.3736 34.8948 24.7339 37.2509Z" fill="#101423"/>
<path class="black" d="M25.8397 44.715C24.2952 44.0704 22.4028 42.1451 20.8665 39.4841C19.3301 36.8231 18.6086 34.2208 18.823 32.5617L15.8171 33.5332L15.8244 33.546C15.7697 33.5672 15.7166 33.5912 15.6657 33.6206C14.2468 34.4398 14.8148 38.0814 16.9355 41.7546C19.0558 45.427 21.9252 47.7408 23.3448 46.9212C23.3957 46.8918 23.4431 46.8579 23.4888 46.8211L23.4962 46.8338L25.8405 44.7164L25.8397 44.715Z" fill="#101423"/>
<path class="black" d="M31.9803 45.6653C31.5218 43.3553 29.8841 39.4995 27.5029 35.3751C25.107 31.2252 22.5695 27.8625 20.7971 26.3233L20.2006 22.8953C20.2006 22.8953 18.9454 24.6678 18.5878 25.8437C18.5595 25.9205 18.5376 26.0067 18.5221 26.1024C18.5213 26.1075 18.5201 26.112 18.5194 26.1172C18.4884 26.2841 18.4851 26.4906 18.5011 26.7209C18.5324 27.2603 18.671 27.9479 18.9063 28.7542C19.1399 29.5964 19.3852 30.2828 19.3852 30.2828L19.41 30.2685C20.2046 32.424 21.4814 35.1075 23.1022 37.9149C25.9866 42.9107 29.0762 46.7658 30.7892 47.6714C30.916 47.7472 31.0367 47.8077 31.1477 47.8464C32.2499 48.2362 34.7785 48.0013 34.7785 48.0013L31.9795 45.6639L31.9803 45.6653Z" fill="#101423"/>
<path class="white_bg_black_stroke" d="M25.1043 36.7594C29.088 43.6594 33.4204 48.6161 34.781 47.8306C36.1416 47.045 34.0152 40.8146 30.0315 33.9147C26.0478 27.0147 21.7154 22.058 20.3547 22.8435C18.9941 23.6291 21.1205 29.8594 25.1043 36.7594Z" fill="#F2F0F9" stroke="#1B2030" stroke-linecap="round" stroke-linejoin="round"/>
<path class="white_bg_black_stroke" d="M46.2236 41.7386C56.9611 35.2752 60.8597 16.5436 60.8597 16.5436C60.8597 16.5436 42.688 10.5553 31.7222 16.6214C25.8095 19.8927 20.1662 23.3659 20.1662 23.3659C19.2639 23.8482 20.4389 27.1478 20.4384 27.1452C20.4384 27.1452 22.0491 32.0455 25.0859 37.1976C28.0286 42.4041 31.4678 46.2487 31.4678 46.2487C31.4666 46.2466 33.7359 48.9144 34.6047 48.3741C34.6047 48.3741 40.4335 45.2239 46.2236 41.7386Z" fill="#F2F0F9" stroke="#101423" stroke-linecap="round" stroke-linejoin="round"/>
<path class="black" d="M61.0743 16.6638L61.0612 16.6412C60.4658 16.4286 51.6154 13.3347 43.7608 14.2646C43.7621 14.2733 43.7587 14.2816 43.7515 14.2858C43.4595 14.4544 43.2917 18.0279 47.1402 24.6936C50.9886 31.3593 54.1667 33.001 54.4592 32.8321C54.4665 32.828 54.4754 32.8292 54.4823 32.8347C59.2154 26.497 60.9607 17.2857 61.0743 16.6638Z" fill="#101423"/>
<path class="black" d="M30.2693 18.8934L21.3375 17.7521C21.2202 17.7369 21.0873 17.7664 20.9684 17.8332L7.95098 25.1158C7.47198 25.3839 7.59333 26.0155 8.10384 25.8396C12.6733 24.2652 18.5655 24.1633 19.8779 25.0937C20.0075 25.1859 20.2462 25.2187 20.43 25.1173L30.2495 19.6253C30.648 19.4056 30.6601 18.9431 30.2689 18.8927L30.2693 18.8934Z" fill="#101423"/>
<path class="black" d="M43.0813 41.0831L39.6038 49.3889C39.5584 49.4981 39.4663 49.5984 39.349 49.668L26.533 57.2993C26.0613 57.5801 25.575 57.1592 25.9826 56.8051C29.6308 53.635 32.6651 48.5832 32.5156 46.9814C32.5006 46.8231 32.5915 46.5999 32.7712 46.4914L42.4372 40.7335C42.8267 40.4982 43.2333 40.719 43.0813 41.0831Z" fill="#101423"/>
<path class="white_bg_black_stroke" d="M34.0756 32.2367C35.694 35.0398 39.2783 36.0002 42.0815 34.3818C44.8846 32.7634 45.8451 29.1791 44.2267 26.3759C42.6083 23.5728 39.0239 22.6124 36.2208 24.2307C33.4176 25.8491 32.4572 29.4335 34.0756 32.2367Z" fill="#F2F0F9" stroke="#101423" stroke-linecap="round" stroke-linejoin="round"/>
<path class="black" d="M35.6686 31.3166C36.7788 33.2396 39.2377 33.8985 41.1607 32.7883C43.0837 31.678 43.7426 29.2191 42.6323 27.2961C41.5221 25.3731 39.0632 24.7142 37.1402 25.8245C35.2172 26.9347 34.5583 29.3937 35.6686 31.3166Z" fill="#101423"/>
  <g id="rocket_fire">
    <path class="black" d="M15.8577 49.4483C12.9879 51.1138 2.99268 49.9683 2.99268 49.9683C2.99268 49.9683 7.00344 40.6944 9.87322 39.0289C12.743 37.3634 14.5768 39.1026 16.2294 41.9799C17.8819 44.8571 18.7274 47.7828 15.8577 49.4483Z" fill="#101423"/>
    <path class="white" d="M15.218 46.9917C13.5927 47.935 7.93167 47.2863 7.93167 47.2863C7.93167 47.2863 10.2032 42.0338 11.8286 41.0905C13.454 40.1472 14.4926 41.1323 15.4285 42.7619C16.3645 44.3915 16.8434 46.0485 15.218 46.9917Z" fill="#F2F0F9"/>
  </g>
  <g id="rocket_fire_m" transform="translate(3, 0.5)">
    <path class="black" d="M13.4011 48.9436C11.2452 50.1948 2.99213 48.0382 2.99213 48.0382C2.99213 48.0382 5.26081 39.7753 7.4167 38.5242C9.57258 37.273 11.2506 39.1026 12.9032 41.9799C14.5557 44.8571 15.557 47.6924 13.4011 48.9436Z" fill="#101423"/>
    <path class="white" d="M12.2259 46.7984C10.874 47.583 5.88038 46.5469 5.88038 46.5469C5.88038 46.5469 7.48464 41.6817 8.83654 40.8972C10.1884 40.1126 11.1674 41.1323 12.1033 42.7619C13.0393 44.3915 13.5778 46.0138 12.2259 46.7984Z" fill="#F2F0F9"/>
  </g>
  <g id="rocket_fire_s" transform="translate(5, 0.5)">
    <path class="black" d="M11.8883 48.4942C10.368 49.3765 3.66593 46.3199 3.66593 46.3199C3.66593 46.3199 4.38359 38.9571 5.90387 38.0748C7.42415 37.1925 8.96352 39.1026 10.6161 41.9799C12.2686 44.8571 13.4086 47.6119 11.8883 48.4942Z" fill="#101423"/>
    <path class="white" d="M10.4947 46.454C9.71287 46.9077 6.11041 45.0642 6.11041 45.0642C6.11041 45.0642 6.32346 41.0064 7.10525 40.5527C7.88704 40.099 8.7416 41.1909 9.67756 42.8205C10.6135 44.45 11.2764 46.0002 10.4947 46.454Z" fill="#F2F0F9"/>
  </g>
</svg>
