<svg width="39" height="29" viewBox="0 0 39 29" fill="none" xmlns="http://www.w3.org/2000/svg">
<path class="black" d="M3.80312 14.755C3.80312 17.2506 4.39549 19.1252 5.10243 19.8937L7.22021 19.4397C6.65832 18.3616 6.30241 16.6795 6.30241 14.755C6.30241 12.8304 6.65832 11.1483 7.22021 10.0702L5.10243 9.61621C4.39549 10.3847 3.80312 12.2593 3.80312 14.755Z" fill="#101423"/>
<path class="black" d="M6.71948 14.7548C6.71948 16.7848 7.11196 18.4023 7.63851 19.3499L9.63623 18.9221L9.63623 10.5875L7.63851 10.1597C7.11196 11.1073 6.71948 12.7248 6.71948 14.7548Z" fill="#101423"/>
<path class="black" d="M4.64941 19.9903C3.89189 18.9975 3.38728 17.0474 3.38728 14.7547C3.38728 12.462 3.89189 10.5112 4.64941 9.51903L2.34454 9.02539L2.34454 9.03636C2.30127 9.02966 2.258 9.02539 2.21412 9.02539C0.991595 9.02539 4.99558e-05 11.5905 4.98174e-05 14.7553C4.96791e-05 17.9195 0.990985 20.4852 2.21412 20.4852C2.258 20.4852 2.30127 20.4809 2.34454 20.4742L2.34454 20.4852L4.64941 19.9915L4.64941 19.9903Z" fill="#101423"/>
<path class="black" d="M8.26265 22.8964C8.82821 21.2326 9.2085 18.13 9.2085 14.5764C9.2085 11.0008 8.82333 7.88116 8.2523 6.22533L9.14572 3.7876C9.14572 3.7876 7.67333 4.46468 7.00357 5.09118C6.95664 5.13018 6.91032 5.17771 6.86462 5.23378C6.86218 5.23683 6.85974 5.23927 6.8573 5.24231C6.77503 5.3386 6.6958 5.47085 6.62023 5.62565C6.43923 5.98582 6.27225 6.4819 6.12354 7.09073C5.96022 7.7221 5.86271 8.25718 5.86271 8.25718L5.88404 8.25718C5.59334 9.94653 5.41721 12.1569 5.41721 14.5758C5.41721 18.8802 5.97545 22.524 6.74456 23.7484C6.79819 23.8447 6.85364 23.9288 6.91093 23.9952C7.4777 24.6582 9.19935 25.4499 9.19935 25.4499L8.26265 22.8952L8.26265 22.8964Z" fill="#101423"/>
<path class="white_bg_black_stroke" d="M7.14287 14.5759C7.14287 20.521 8.09322 25.3404 9.26553 25.3404C10.4378 25.3404 11.3882 20.521 11.3882 14.5759C11.3882 8.63092 10.4378 3.81152 9.26553 3.81152C8.09322 3.81152 7.14287 8.63092 7.14287 14.5759Z" fill="#F2F0F9" stroke="#1B2030" stroke-linecap="round" stroke-linejoin="round"/>
<path class="white_bg_black_stroke" d="M18.9319 25.673C28.2818 25.5023 37.7896 14.8525 37.7896 14.8525C37.7896 14.8525 28.2812 4.20323 18.9319 4.03198C13.8906 3.93995 8.94812 4.0789 8.94812 4.0789C8.18511 4.05392 7.71341 6.62451 7.71402 6.62268C7.71402 6.62268 6.92663 10.3902 6.96685 14.8525C6.92602 19.3147 7.71402 23.0823 7.71402 23.0823C7.71402 23.0804 8.18511 25.651 8.94812 25.626C8.94812 25.626 13.89 25.765 18.9319 25.673Z" fill="#F2F0F9" stroke="#101423" stroke-linecap="round" stroke-linejoin="round"/>
<path class="black" d="M38 15.0102L38 14.9908C37.6946 14.6313 33.1297 9.33002 27.7071 7.00049C27.7047 7.00663 27.6994 7.01073 27.6932 7.01073C27.4416 7.01073 26 9.25731 26 15.0005C26 20.7437 27.4411 22.9902 27.6932 22.9902C27.6994 22.9902 27.7047 22.9943 27.7071 23.0005C33.1302 20.671 37.6946 15.3697 38 15.0102Z" fill="#101423"/>
<path class="black" d="M17.1457 4.95804L11.7997 0.888243C11.7297 0.834613 11.6328 0.804142 11.531 0.802923L0.402115 0.652392C-0.0074234 0.646907 -0.164658 1.10033 0.230865 1.17711C3.77106 1.86456 7.61659 3.99696 8.11754 5.08785C8.1669 5.19572 8.3089 5.30602 8.46553 5.30907L16.8599 5.42365C17.1993 5.43035 17.3797 5.13599 17.1457 4.95743L17.1457 4.95804Z" fill="#101423"/>
<path class="black" d="M17.1457 24.0767L11.7997 28.1465C11.7297 28.2001 11.6328 28.2306 11.531 28.2318L0.402115 28.3817C-0.00742361 28.3872 -0.164658 27.9338 0.230865 27.857C3.77106 27.1696 7.61659 25.0371 8.11754 23.9463C8.1669 23.8384 8.3089 23.7281 8.46553 23.725L16.8599 23.6105C17.1993 23.6038 17.3797 23.8981 17.1457 24.0767Z" fill="#101423"/>
<path class="white_bg_black_stroke" d="M14.5 15.0005C14.5 17.4858 16.5147 19.5005 19 19.5005C21.4853 19.5005 23.5 17.4858 23.5 15.0005C23.5 12.5152 21.4853 10.5005 19 10.5005C16.5147 10.5005 14.5 12.5152 14.5 15.0005Z" fill="#F2F0F9" stroke="#101423" stroke-linecap="round" stroke-linejoin="round"/>
<path class="black" d="M16 15.0005C16 16.6573 17.3431 18.0005 19 18.0005C20.6569 18.0005 22 16.6573 22 15.0005C22 13.3436 20.6569 12.0005 19 12.0005C17.3431 12.0005 16 13.3436 16 15.0005Z" fill="#29282F"/>
</svg>
