<svg width="42" height="52" viewBox="0 0 42 52" fill="none" xmlns="http://www.w3.org/2000/svg">
<path d="M8.95242 38.6673L9.90105 34.1768L19.0611 33.7092L20.0647 38.0827L14.921 40.0453L8.95242 38.6673Z" fill="white"/>
<path d="M14.5282 37.4272C17.0023 37.4037 18.8552 36.8094 19.6105 36.1138L19.1408 34.0562C18.0773 34.6134 16.4131 34.9758 14.5051 34.9939C12.5972 35.012 10.9264 34.6813 9.85245 34.1444L9.42193 36.2106C10.1903 36.8916 12.0542 37.4507 14.5282 37.4272Z" fill="#101423"/>
<path d="M14.5003 34.5866C16.5128 34.5675 18.1126 34.1701 19.0472 33.6485L18.6046 31.7075L10.3421 31.786L9.93644 33.7351C10.8808 34.2388 12.4879 34.6057 14.5003 34.5866Z" fill="#101423"/>
<path d="M19.7119 36.5547C18.7347 37.3016 16.8061 37.8113 14.5332 37.8329C12.2603 37.8544 10.3218 37.3815 9.33117 36.6533L8.86311 38.902L8.87398 38.9019C8.86774 38.9441 8.86391 38.9863 8.86431 39.029C8.87562 40.2193 11.4277 41.1605 14.5651 41.1307C17.7019 41.1009 20.2363 40.112 20.225 38.9211C20.2246 38.8784 20.22 38.8363 20.2129 38.7942L20.2238 38.7941L19.7131 36.5547L19.7119 36.5547Z" fill="#101423"/>
<path d="M22.8397 32.9688C21.1926 32.4423 18.1272 32.1068 14.6201 32.1401C11.0914 32.1736 8.0161 32.5721 6.38716 33.135L3.97323 32.3014C3.97323 32.3014 4.65484 33.7065 5.27923 34.3427C5.31815 34.3873 5.36549 34.4312 5.42123 34.4745C5.42426 34.4768 5.42669 34.4791 5.42972 34.4814C5.5255 34.5594 5.65674 34.6341 5.81019 34.7051C6.1673 34.8752 6.6584 35.0307 7.2606 35.1675C7.88519 35.3182 8.41415 35.4066 8.41415 35.4066L8.41395 35.3862C10.0838 35.649 12.2669 35.7971 14.654 35.7744C18.9021 35.7341 22.4931 35.1648 23.6944 34.4161C23.7889 34.3638 23.8714 34.3098 23.9364 34.2543C24.5857 33.7047 25.3513 32.0469 25.3513 32.0469L22.8385 32.9688L22.8397 32.9688Z" fill="#101423"/>
<path d="M14.683 34.2767C20.5865 34.2207 25.3632 33.2181 25.352 32.0374C25.3407 30.8567 20.5459 29.945 14.6424 30.001C8.73887 30.0571 3.96222 31.0597 3.97343 32.2404C3.98464 33.4211 8.77948 34.3328 14.683 34.2767Z" fill="white" stroke="#101423" stroke-linecap="round" stroke-linejoin="round"/>
<path d="M25.6568 22.5514C25.4008 13.4743 14.718 4.34303 14.718 4.34303C14.718 4.34303 4.21126 13.6762 4.1271 22.7558C4.08204 27.6517 4.26585 32.4495 4.26585 32.4495C4.24803 33.1906 6.80974 33.6243 6.80792 33.6237C6.80792 33.6237 10.5633 34.3527 15.0023 34.2715C19.442 34.269 23.1828 33.4682 23.1828 33.4682C23.181 33.4683 25.734 32.9865 25.7021 32.2459C25.7021 32.2459 25.7948 27.4461 25.6568 22.5514Z" fill="white" stroke="#101423" stroke-linecap="round" stroke-linejoin="round"/>
<path d="M14.8439 4.12694L14.8233 4.12714C14.4442 4.4362 8.85526 9.05436 6.43173 14.5002C6.43828 14.5025 6.44269 14.5078 6.44275 14.514C6.44513 14.7656 8.8457 16.1844 14.9476 16.1265C21.0494 16.0686 23.4226 14.6048 23.4202 14.3528C23.4202 14.3465 23.4245 14.3412 23.431 14.3387C20.9044 8.93945 15.2288 4.42875 14.8439 4.12694Z" fill="#101423"/>
<path d="M5.12952 24.4176L0.985201 29.6918C0.930586 29.761 0.900085 29.8561 0.899775 29.9558L0.848135 40.8538C0.846291 41.2548 1.31501 41.4044 1.39047 41.0163C2.06597 37.5433 4.22771 33.7572 5.34724 33.256C5.45794 33.2066 5.5703 33.0665 5.57198 32.9131L5.61199 24.6929C5.61575 24.3605 5.31073 24.1868 5.12889 24.4176L5.12952 24.4176Z" fill="#101423"/>
<path d="M24.0271 24.2381L28.0884 29.4344C28.142 29.5025 28.1729 29.5971 28.1751 29.6967L28.4263 40.5919C28.4355 40.9928 27.99 41.151 27.9107 40.7644C27.2001 37.3046 25.0624 33.5593 23.9825 33.079C23.8757 33.0317 23.7656 32.8937 23.7612 32.7404L23.5702 24.5223C23.5604 24.19 23.8489 24.0107 24.0271 24.2381Z" fill="#101423"/>
<path d="M30.6758 41L30.6758 21" stroke="#101423"/>
<rect x="31.1758" y="21.5" width="10" height="8" fill="#101423" stroke="#101423"/>
<path d="M20.4669 27.5733C20.0518 28.5074 19.4277 29.3274 18.6454 29.9667C17.8631 30.6059 16.9448 31.0461 15.9653 31.2515C14.9859 31.4569 13.973 31.4215 13.0094 31.1484C12.0458 30.8753 11.1586 30.3721 10.4203 29.6799L11.8368 28.0862C12.3306 28.5491 12.9238 28.8856 13.5683 29.0683C14.2127 29.2509 14.8901 29.2745 15.5451 29.1372C16.2001 28.9998 16.8142 28.7054 17.3374 28.2779C17.8606 27.8505 18.2779 27.302 18.5555 26.6774L20.4669 27.5733Z" fill="#101423"/>
<path d="M8.73236 21.4267C9.14741 20.4926 9.77153 19.6726 10.5538 19.0333C11.3361 18.3941 12.2544 17.9539 13.2339 17.7485C14.2133 17.5431 15.2262 17.5785 16.1898 17.8516C17.1535 18.1247 18.0406 18.6279 18.7789 19.3201L17.3624 20.9138C16.8687 20.4509 16.2754 20.1144 15.6309 19.9317C14.9865 19.7491 14.3092 19.7255 13.6541 19.8628C12.9991 20.0002 12.385 20.2946 11.8618 20.7221C11.3387 21.1495 10.9213 21.698 10.6437 22.3226L8.73236 21.4267Z" fill="#101423"/>
<ellipse cx="1.44123" cy="1.4057" rx="1.44123" ry="1.4057" transform="matrix(-0.404554 0.914514 -0.906183 -0.422886 10.8125 25.689)" fill="#101423"/>
<ellipse cx="1.44123" cy="1.4057" rx="1.44123" ry="1.4057" transform="matrix(0.404554 -0.914514 0.906183 0.422886 18.0996 23.136)" fill="#101423"/>
<path d="M20.7949 28.9194L19.8341 26.1947L17.1574 27.1793" stroke="#101423" stroke-width="1.8" stroke-linecap="square"/>
<path d="M8.4043 20.0806L9.3651 22.8053L12.0418 21.8207" stroke="#101423" stroke-width="1.8" stroke-linecap="square"/>
</svg>
