<?xml version="1.0" encoding="utf-8"?>
<!-- Generator: Adobe Illustrator 27.8.1, SVG Export Plug-In . SVG Version: 6.00 Build 0)  -->
<svg version="1.1" id="Слой_1" xmlns="http://www.w3.org/2000/svg" xmlns:xlink="http://www.w3.org/1999/xlink" x="0px" y="0px"
	 viewBox="0 0 290 269.62" style="enable-background:new 0 0 290 269.62;" xml:space="preserve">
<style type="text/css">
	.st0{stroke:#000000;stroke-linecap:round;stroke-linejoin:round;stroke-miterlimit:10;}
	.st1{fill:#222846;stroke:#000000;stroke-linecap:round;stroke-linejoin:round;stroke-miterlimit:10;}
	.st2{fill-rule:evenodd;clip-rule:evenodd;stroke:#000000;stroke-linecap:round;stroke-linejoin:round;stroke-miterlimit:10;}
	
		.st3{fill-rule:evenodd;clip-rule:evenodd;fill:#222846;stroke:#000000;stroke-linecap:round;stroke-linejoin:round;stroke-miterlimit:10;}
	
		.st4{fill-rule:evenodd;clip-rule:evenodd;fill:#4A5479;stroke:#000000;stroke-linecap:round;stroke-linejoin:round;stroke-miterlimit:10;}
	.st5{fill-rule:evenodd;clip-rule:evenodd;fill:#5C6A91;}
	.st6{fill:#6D75A2;}
	.st7{stroke:#1A213A;stroke-linecap:round;stroke-linejoin:round;stroke-miterlimit:10;}
	.st8{stroke:#4A5479;stroke-linecap:round;stroke-linejoin:round;stroke-miterlimit:10;}
	.st9{fill:url(#SVGID_1_);}
	.st10{fill:url(#SVGID_00000129898023728044613570000003814137024545815184_);}
	.st11{fill:url(#SVGID_00000115482724003385135370000004537144101579795878_);}
	
		.st12{fill:none;stroke:url(#SVGID_00000059993876086648254440000006054474378987270033_);stroke-width:5;stroke-linecap:round;stroke-linejoin:round;stroke-miterlimit:10;}
	.st13{fill:url(#SVGID_00000082360597033911792100000005669737530791266176_);}
	.st14{fill-rule:evenodd;clip-rule:evenodd;fill:#1AD4B3;}
	.st15{fill-rule:evenodd;clip-rule:evenodd;fill:#FC4F83;}
	.st16{fill:#4A5479;stroke:#000000;stroke-linecap:round;stroke-linejoin:round;stroke-miterlimit:10;}
	
		.st17{fill:url(#SVGID_00000078011447080107407880000005118637030164385703_);stroke:#1D1D1B;stroke-width:0.2115;stroke-linecap:round;stroke-linejoin:round;stroke-miterlimit:10;}
	.st18{fill-rule:evenodd;clip-rule:evenodd;}
	
		.st19{fill:url(#SVGID_00000131341389807963992270000017262751044981928835_);stroke:#1D1D1B;stroke-width:0.2115;stroke-linecap:round;stroke-linejoin:round;stroke-miterlimit:10;}
	
		.st20{fill:url(#SVGID_00000039128039626211031150000011049393945023782030_);stroke:#1D1D1B;stroke-width:0.2115;stroke-linecap:round;stroke-linejoin:round;stroke-miterlimit:10;}
	
		.st21{fill:url(#SVGID_00000157284295530256416550000009807223600732887446_);stroke:#1D1D1B;stroke-width:0.2115;stroke-linecap:round;stroke-linejoin:round;stroke-miterlimit:10;}
	.st22{fill-rule:evenodd;clip-rule:evenodd;fill:url(#SVGID_00000164497118383426223420000002995723256069288886_);}
	.st23{fill-rule:evenodd;clip-rule:evenodd;fill:url(#SVGID_00000147195903958611949860000013299275766136193418_);}
	.st24{fill:url(#SVGID_00000112634080900205376120000010842011830306010284_);}
	.st25{fill:url(#SVGID_00000103258049249920688870000010320840826845395875_);}
	.st26{fill:url(#SVGID_00000136405090190028239740000012695002887523023233_);}
	
		.st27{fill-rule:evenodd;clip-rule:evenodd;fill:#4AA089;stroke:url(#SVGID_00000094584291791733596250000002732312839124973727_);stroke-linecap:round;stroke-linejoin:round;stroke-miterlimit:10;}
	
		.st28{fill-rule:evenodd;clip-rule:evenodd;fill:#4AA089;stroke:url(#SVGID_00000100382517047411216000000006720635829678855842_);stroke-linecap:round;stroke-linejoin:round;stroke-miterlimit:10;}
	
		.st29{fill:none;stroke:url(#SVGID_00000093134951683441289740000010430776814501897100_);stroke-width:5;stroke-linecap:round;stroke-linejoin:round;stroke-miterlimit:10;}
	.st30{fill:url(#SVGID_00000092420772212064910300000015723788285903862151_);}
	
		.st31{fill:none;stroke:url(#SVGID_00000085241540113196882840000018238298798173599927_);stroke-width:5;stroke-linecap:round;stroke-linejoin:round;stroke-miterlimit:10;}
	.st32{fill:url(#SVGID_00000067933474022542957550000006035955448649477304_);}
	
		.st33{fill:none;stroke:url(#SVGID_00000000931142252305080000000016546392851059395994_);stroke-width:5;stroke-linecap:round;stroke-linejoin:round;stroke-miterlimit:10;}
	.st34{fill:url(#SVGID_00000129181594205882740110000013279709450859804594_);}
	.st35{fill:#4A5479;}
	
		.st36{fill-rule:evenodd;clip-rule:evenodd;fill:#1AD4B3;stroke:#111422;stroke-linecap:round;stroke-linejoin:round;stroke-miterlimit:10;}
	
		.st37{fill-rule:evenodd;clip-rule:evenodd;fill:#4AA089;stroke:url(#SVGID_00000108306551121899268340000016558211822966316727_);stroke-linecap:round;stroke-linejoin:round;stroke-miterlimit:10;}
	.st38{fill:#FFFFFF;}
	
		.st39{fill-rule:evenodd;clip-rule:evenodd;fill:#FC4F83;stroke:#111422;stroke-linecap:round;stroke-linejoin:round;stroke-miterlimit:10;}
	
		.st40{fill-rule:evenodd;clip-rule:evenodd;fill:#CB3D61;stroke:#000000;stroke-linecap:round;stroke-linejoin:round;stroke-miterlimit:10;}
	.st41{fill:url(#SVGID_00000029754091281373819450000006105451829687109034_);}
	.st42{fill:url(#SVGID_00000092417040422377562860000011579774697018425255_);}
	.st43{fill:url(#SVGID_00000008860806338924678630000011686826685842515135_);}
	
		.st44{fill:none;stroke:url(#SVGID_00000117674469733775328050000014849373383083384197_);stroke-width:5;stroke-linecap:round;stroke-linejoin:round;stroke-miterlimit:10;}
	.st45{fill:url(#SVGID_00000015314198523443434070000000146740745298323099_);}
	
		.st46{fill:none;stroke:url(#SVGID_00000182497746189426300590000003242924722067055793_);stroke-width:5;stroke-linecap:round;stroke-linejoin:round;stroke-miterlimit:10;}
	.st47{fill:url(#SVGID_00000080173652968194386870000008891588271159523228_);}
	.st48{fill:url(#SVGID_00000169531411217683994410000016761064891341306525_);}
	.st49{fill:#222846;}
	.st50{fill:url(#SVGID_00000124137218502850433030000001359812608879928998_);}
	.st51{fill:url(#SVGID_00000031925439686761913490000006605146498428047277_);}
	.st52{fill:url(#SVGID_00000170278239785451882390000010620318695045475769_);}
	.st53{fill:url(#SVGID_00000051368364431901985150000002382612525745025961_);}
	.st54{fill:url(#SVGID_00000108311358213380967570000003238057293029518768_);}
	.st55{fill-rule:evenodd;clip-rule:evenodd;fill:url(#SVGID_00000030474658018184265970000011992340748596770966_);}
	.st56{fill:url(#SVGID_00000091000477130116395860000006638769843364655519_);}
	.st57{fill:url(#SVGID_00000084508542410786591820000017906045230387095484_);}
	.st58{fill:url(#SVGID_00000147188242917722919210000010220814732093524388_);}
	.st59{fill:url(#SVGID_00000142894188734544404030000014383667889811855764_);}
	.st60{fill-rule:evenodd;clip-rule:evenodd;fill:#6D75A2;}
	.st61{fill-rule:evenodd;clip-rule:evenodd;fill:#4A5479;}
	.st62{opacity:0.29;fill:url(#SVGID_00000098192326761431649470000014485477405595149474_);enable-background:new    ;}
	.st63{fill-rule:evenodd;clip-rule:evenodd;fill:#222846;}
	
		.st64{fill:none;stroke:url(#SVGID_00000021094129910916040880000000132164983832658321_);stroke-width:5;stroke-linecap:round;stroke-linejoin:round;stroke-miterlimit:10;}
	.st65{fill:url(#SVGID_00000155145015167304028600000010602172354650913173_);}
	
		.st66{fill:none;stroke:url(#SVGID_00000145016868344973442620000012580642213207873200_);stroke-width:5;stroke-linecap:round;stroke-linejoin:round;stroke-miterlimit:10;}
	.st67{fill:url(#SVGID_00000130642702746399014370000002483183749896689805_);}
	.st68{fill-rule:evenodd;clip-rule:evenodd;fill:url(#SVGID_00000124161023061099382570000017111282701752690071_);}
	.st69{fill:url(#SVGID_00000020377901507495910840000000471637931254610338_);}
	.st70{fill:url(#SVGID_00000134935056552956454570000012736174119931147175_);}
	.st71{fill:url(#SVGID_00000078742684167217084700000011176388531799772315_);}
	.st72{opacity:0.67;fill:url(#SVGID_00000116218096826026402170000004445568136698570902_);}
	.st73{opacity:0.67;fill:url(#SVGID_00000023270009786239585560000004883612844014314126_);}
	.st74{opacity:0.2563;fill-rule:evenodd;clip-rule:evenodd;fill:#FFFFFF;enable-background:new    ;}
	.st75{opacity:0.67;fill:url(#SVGID_00000075165065309565437710000000783419075998501512_);}
	.st76{fill:#3FA9BD;}
	.st77{fill:url(#SVGID_00000116940156653999792240000016026605768376477578_);}
	.st78{fill-rule:evenodd;clip-rule:evenodd;fill:#555069;}
	.st79{fill-rule:evenodd;clip-rule:evenodd;fill:#FFFFFF;}
	.st80{fill-rule:evenodd;clip-rule:evenodd;fill:#AFAFB1;}
	.st81{fill-rule:evenodd;clip-rule:evenodd;fill:#D3D3D3;}
	.st82{opacity:0.67;fill:url(#SVGID_00000163750995255309155900000011943179957156035754_);}
	.st83{fill:url(#SVGID_00000166642229295009490660000012163691154282263197_);}
	.st84{opacity:0.67;fill:url(#SVGID_00000103965307980037685470000017118645068131733951_);}
	.st85{fill:url(#SVGID_00000098926601920410572280000016026969439717826432_);}
	.st86{opacity:0.67;fill:url(#SVGID_00000022548882873230884080000012513754655870702215_);}
	.st87{fill:url(#SVGID_00000085953656314973474550000003868195707148553403_);}
	.st88{opacity:0.67;fill:url(#SVGID_00000168802601938953114400000017778787346050971782_);}
	.st89{fill:url(#SVGID_00000147202772095593527790000013423270898329853094_);}
	.st90{opacity:0.67;fill:url(#SVGID_00000140733713684187905620000008841470312513052565_);}
	.st91{fill:url(#SVGID_00000167367750572100543110000000240106407401913731_);}
	.st92{fill:#1AD4B3;}
	.st93{opacity:0.67;fill:url(#SVGID_00000107590042952246169900000001525390284868378524_);}
	.st94{fill:url(#SVGID_00000023999203995172339760000015766217640233879726_);}
	.st95{opacity:0.67;fill:url(#SVGID_00000000937983532245299160000011165149593498477737_);}
	.st96{fill:url(#SVGID_00000125585875650633634070000014500853328625443721_);}
	.st97{opacity:0.67;fill:url(#SVGID_00000110460600247762921520000009195690533943858349_);}
	.st98{fill:url(#SVGID_00000043418240255805368540000012746685100309148594_);}
	.st99{opacity:0.67;fill:url(#SVGID_00000101799159653038874680000011486936083918932631_);}
	.st100{fill:url(#SVGID_00000007423909658513807030000012677771829537654697_);}
	.st101{opacity:0.67;fill:url(#SVGID_00000096765163101022093390000006854381530274730892_);}
	.st102{fill:url(#SVGID_00000101814723588065123450000007993438060521161627_);}
	.st103{opacity:0.67;fill:url(#SVGID_00000090974091059826450350000008211030403038894976_);}
	.st104{fill:url(#SVGID_00000078031918470872218110000005098919067931210427_);}
	
		.st105{fill-rule:evenodd;clip-rule:evenodd;fill:none;stroke:#FFFFFF;stroke-width:0.7384;stroke-linecap:round;stroke-linejoin:round;stroke-miterlimit:10;}
	.st106{opacity:0.67;fill:url(#SVGID_00000126296363045670553050000007475342565541710782_);}
	.st107{fill:url(#SVGID_00000168077032508374563970000014374220731464689822_);}
	.st108{opacity:0.67;fill:url(#SVGID_00000055679269705709743570000017073481680665523105_);}
	.st109{fill:url(#SVGID_00000072961734038862594580000002372123377276217519_);}
	.st110{opacity:0.67;fill:url(#SVGID_00000098912875898154155760000005048788821542071230_);}
	.st111{fill:url(#SVGID_00000134250410467202193010000007047286058323406779_);}
	.st112{opacity:0.67;fill:url(#SVGID_00000086659969546676974370000017026252549516699026_);}
	.st113{fill:url(#SVGID_00000144328414061752838600000006131117022222809747_);}
	.st114{opacity:0.67;fill:url(#SVGID_00000085937359099092123910000007953716840391881110_);}
	.st115{fill:url(#SVGID_00000098911526533929271200000015184794944366857103_);}
	.st116{opacity:0.67;fill:url(#SVGID_00000101079471796448024870000012571184877163187074_);}
	.st117{fill:url(#SVGID_00000113326915361019804170000011354829950170928316_);}
	.st118{opacity:0.67;fill:url(#SVGID_00000052074789177027781300000013177742254998296234_);}
	.st119{fill:url(#SVGID_00000120518479646977066350000004687888402985077926_);}
	.st120{opacity:0.67;fill:url(#SVGID_00000001657863866072927720000002223873803172626869_);}
	.st121{fill:url(#SVGID_00000005229325387046960010000007220759361952327852_);}
	.st122{fill:url(#SVGID_00000060014698928390697290000003773641649066578819_);}
	.st123{fill:url(#SVGID_00000037656009551210716460000015394773744982421420_);}
	.st124{fill:url(#SVGID_00000094619828104546548020000008443001375430723225_);}
	.st125{fill:url(#SVGID_00000061465357419695379390000014025374466197568695_);}
	.st126{opacity:0.29;fill:url(#SVGID_00000155867525360662378980000013945955003862960022_);enable-background:new    ;}
	.st127{opacity:0.67;fill:url(#SVGID_00000027581508176474787540000008545523979207216001_);enable-background:new    ;}
	.st128{fill:#5EA6B9;}
	.st129{fill:url(#SVGID_00000015332135988867693330000001208915157490130573_);}
	.st130{fill-rule:evenodd;clip-rule:evenodd;fill:#545067;}
	.st131{fill-rule:evenodd;clip-rule:evenodd;fill:#AEAEB0;}
	.st132{fill-rule:evenodd;clip-rule:evenodd;fill:#D2D2D2;}
	.st133{opacity:0.67;fill:url(#SVGID_00000057142597062632533730000011114330498252132001_);enable-background:new    ;}
	.st134{fill:url(#SVGID_00000157273979904389073240000007604685459779429014_);}
	.st135{fill-rule:evenodd;clip-rule:evenodd;fill:#63D0B3;}
	
		.st136{fill-rule:evenodd;clip-rule:evenodd;fill:none;stroke:#000000;stroke-linecap:round;stroke-linejoin:round;stroke-miterlimit:10;}
	.st137{fill-rule:evenodd;clip-rule:evenodd;fill:#E85C83;}
	
		.st138{fill-rule:evenodd;clip-rule:evenodd;fill:#4AA089;stroke:url(#SVGID_00000054254149523214721890000006024429108220030090_);stroke-linecap:round;stroke-linejoin:round;stroke-miterlimit:10;}
	.st139{fill:#5DC29D;}
	.st140{fill:url(#SVGID_00000056392823920186585490000002242189312787038604_);}
	.st141{fill:url(#SVGID_00000085225022798484620730000005849871136471265967_);}
	.st142{fill:#E85C83;}
	.st143{opacity:0.67;fill:url(#SVGID_00000009576986252791831390000011894087170570076577_);enable-background:new    ;}
	.st144{fill:url(#SVGID_00000059273848919838105280000007698724971759536307_);}
	
		.st145{fill:none;stroke:url(#SVGID_00000060018524727862563690000016504855505163318975_);stroke-width:5;stroke-linecap:round;stroke-linejoin:round;stroke-miterlimit:10;}
	.st146{fill:url(#SVGID_00000030466505151185145610000007448172124005875132_);}
	.st147{opacity:0.67;fill:url(#SVGID_00000070819699881915749530000018043276502900543404_);enable-background:new    ;}
	.st148{fill:url(#SVGID_00000008123220066156283150000013171048734048036739_);}
	.st149{opacity:0.67;fill:url(#SVGID_00000096047447899111196770000010504389691887952819_);}
	.st150{fill:url(#SVGID_00000181078420410872351220000005182174734112115132_);}
	.st151{opacity:0.67;fill:url(#SVGID_00000132072930953739519710000005693991843966480041_);}
	.st152{fill:url(#SVGID_00000050660064906924726980000002448585141873180302_);}
	.st153{opacity:0.67;fill:url(#SVGID_00000123439947475951617820000014865191351121189307_);}
	.st154{fill:url(#SVGID_00000157268572438740135340000000692003803490364051_);}
	.st155{opacity:0.67;fill:url(#SVGID_00000056410171261838478830000011550892086151644056_);}
	.st156{fill:url(#SVGID_00000042712978229121606490000008433782678816916916_);}
	.st157{fill:none;stroke:#000000;stroke-width:22;stroke-linecap:round;stroke-linejoin:round;stroke-miterlimit:10;}
	
		.st158{fill:none;stroke:url(#SVGID_00000077283899964039689070000012467587553726521252_);stroke-width:5;stroke-linecap:round;stroke-linejoin:round;stroke-miterlimit:10;}
	.st159{fill:url(#SVGID_00000130629668192635977900000001087354303256993468_);}
	
		.st160{fill-rule:evenodd;clip-rule:evenodd;fill:#4AA089;stroke:url(#SVGID_00000038398159708071078230000003720312537342473620_);stroke-linecap:round;stroke-linejoin:round;stroke-miterlimit:10;}
	.st161{opacity:0.67;fill:url(#SVGID_00000156563663213077626420000011471004725337829261_);}
	.st162{fill:url(#SVGID_00000022552487691984101420000017365737656724882604_);}
	.st163{fill:url(#SVGID_00000181052053750431296640000005595548084386097338_);}
	.st164{fill:url(#SVGID_00000094613681642034823680000007815161390288035498_);}
	.st165{fill:none;stroke:url(#SVGID_00000019667916955119394900000016712788935842708920_);stroke-width:5;stroke-miterlimit:10;}
	.st166{fill:url(#SVGID_00000172414621800195407400000015418075518903520172_);}
	.st167{fill:none;}
	.st168{opacity:0.67;fill:url(#SVGID_00000130637614190192877410000008965523707790561426_);}
	.st169{fill:url(#SVGID_00000146465328323051769630000009483799484819720639_);}
	.st170{fill:none;stroke:url(#SVGID_00000107566029525505632060000009222321750780283018_);stroke-width:5;stroke-miterlimit:10;}
	.st171{fill:url(#SVGID_00000178180858054690285340000002370855140484160179_);}
	.st172{opacity:0.67;fill:url(#SVGID_00000078042554344209561820000013534637131083760266_);}
	.st173{fill:url(#SVGID_00000002343285735783353650000005119983368290631567_);}
	.st174{opacity:0.67;fill:url(#SVGID_00000073718407503273551560000012410862052903497098_);}
	.st175{fill:url(#SVGID_00000053532985726408522360000014940034015627505049_);}
	.st176{opacity:0.67;fill:url(#SVGID_00000097494610349620257290000015038449024029766322_);}
	.st177{fill:url(#SVGID_00000158712267204376269850000017035085899939341471_);}
	
		.st178{fill:url(#SVGID_00000032629899271882988390000008923179926977569198_);stroke:#1D1D1B;stroke-width:0.2115;stroke-linecap:round;stroke-linejoin:round;stroke-miterlimit:10;}
	.st179{fill-rule:evenodd;clip-rule:evenodd;fill:#101422;}
	
		.st180{fill:url(#SVGID_00000061438043844336879520000014917947098082341795_);stroke:#1D1D1B;stroke-width:0.2115;stroke-linecap:round;stroke-linejoin:round;stroke-miterlimit:10;}
	
		.st181{fill-rule:evenodd;clip-rule:evenodd;fill:#6D75A2;stroke:#000000;stroke-linecap:round;stroke-linejoin:round;stroke-miterlimit:10;}
	
		.st182{fill:url(#SVGID_00000111903447485057291710000016102013672792486042_);stroke:#1D1D1B;stroke-width:0.2115;stroke-linecap:round;stroke-linejoin:round;stroke-miterlimit:10;}
	
		.st183{fill:url(#SVGID_00000158002656067860127820000001424905029606175674_);stroke:#1D1D1B;stroke-width:0.2115;stroke-linecap:round;stroke-linejoin:round;stroke-miterlimit:10;}
	
		.st184{fill-rule:evenodd;clip-rule:evenodd;fill:url(#SVGID_00000000906924797888696490000016087928076047131062_);stroke:#101320;stroke-linecap:round;stroke-linejoin:round;stroke-miterlimit:10;}
	
		.st185{fill:url(#SVGID_00000036241628398405075480000000629073810274014113_);stroke:#1D1D1B;stroke-width:0.2115;stroke-linecap:round;stroke-linejoin:round;stroke-miterlimit:10;}
	
		.st186{fill:url(#SVGID_00000168080236091802400540000015909140510089647505_);stroke:#1D1D1B;stroke-width:0.2115;stroke-linecap:round;stroke-linejoin:round;stroke-miterlimit:10;}
	
		.st187{fill:url(#SVGID_00000181806349300286187020000017487934534137866624_);stroke:#1D1D1B;stroke-width:0.2115;stroke-linecap:round;stroke-linejoin:round;stroke-miterlimit:10;}
	
		.st188{fill:url(#SVGID_00000124130926005024493150000009376734064941852839_);stroke:#1D1D1B;stroke-width:0.2115;stroke-linecap:round;stroke-linejoin:round;stroke-miterlimit:10;}
	
		.st189{fill:url(#SVGID_00000062170325161378468760000003650007601196082596_);stroke:#1D1D1B;stroke-width:0.2115;stroke-linecap:round;stroke-linejoin:round;stroke-miterlimit:10;}
	
		.st190{fill:url(#SVGID_00000100368220985611371140000016330496969099562140_);stroke:#1D1D1B;stroke-width:0.2115;stroke-linecap:round;stroke-linejoin:round;stroke-miterlimit:10;}
	
		.st191{fill:url(#SVGID_00000075132671881422464780000015403547863177098665_);stroke:#1D1D1B;stroke-width:0.2115;stroke-linecap:round;stroke-linejoin:round;stroke-miterlimit:10;}
	
		.st192{fill:url(#SVGID_00000007425152715424619860000007855835993451099573_);stroke:#1D1D1B;stroke-width:0.2115;stroke-linecap:round;stroke-linejoin:round;stroke-miterlimit:10;}
	
		.st193{fill:url(#SVGID_00000127031059320565994400000000234854424163808920_);stroke:#1D1D1B;stroke-width:0.2115;stroke-linecap:round;stroke-linejoin:round;stroke-miterlimit:10;}
	
		.st194{fill:url(#SVGID_00000115472585962989770060000011149907673077838764_);stroke:#1D1D1B;stroke-width:0.2115;stroke-linecap:round;stroke-linejoin:round;stroke-miterlimit:10;}
	
		.st195{fill:url(#SVGID_00000145741185265382009770000012505410910001439916_);stroke:#1D1D1B;stroke-width:0.2115;stroke-linecap:round;stroke-linejoin:round;stroke-miterlimit:10;}
	
		.st196{fill:url(#SVGID_00000005985411111421592290000015783197587181472703_);stroke:#1D1D1B;stroke-width:0.2115;stroke-linecap:round;stroke-linejoin:round;stroke-miterlimit:10;}
	
		.st197{fill-rule:evenodd;clip-rule:evenodd;fill:url(#SVGID_00000021079262561803062300000007771633106640990640_);stroke:#101320;stroke-linecap:round;stroke-linejoin:round;stroke-miterlimit:10;}
	
		.st198{fill:url(#SVGID_00000116220267891067236170000001811775112889482168_);stroke:#1D1D1B;stroke-width:0.2115;stroke-linecap:round;stroke-linejoin:round;stroke-miterlimit:10;}
	
		.st199{fill:url(#SVGID_00000161620923545993255880000015115631280955353006_);stroke:#1D1D1B;stroke-width:0.2115;stroke-linecap:round;stroke-linejoin:round;stroke-miterlimit:10;}
	.st200{opacity:0.67;fill:url(#SVGID_00000039836298671384177920000002664976646506676669_);}
	.st201{fill:url(#SVGID_00000066502739684853194480000012628298541624707519_);}
	.st202{opacity:0.67;fill:url(#SVGID_00000127736815869943975870000009761952465100582552_);}
	.st203{fill:url(#SVGID_00000039104882206990983820000013291606392983800209_);}
	.st204{opacity:0.67;fill:url(#SVGID_00000089547881977777240640000015560237235684303529_);}
	.st205{fill:url(#SVGID_00000117639113582598064740000015682147451494133153_);}
	.st206{opacity:0.67;fill:url(#SVGID_00000001659327274364141770000016629127934049970607_);}
	.st207{fill:url(#SVGID_00000009549756515662294140000012325204042141371550_);}
	.st208{opacity:0.67;fill:url(#SVGID_00000080909924094571481370000015848029006842248597_);}
	.st209{fill:url(#SVGID_00000025406591246905420920000016240986990765142970_);}
	.st210{opacity:0.67;fill:url(#SVGID_00000053526522509421529640000017739509056819169691_);}
	.st211{fill:url(#SVGID_00000052800545334193977900000014801971619510290565_);}
	
		.st212{fill-rule:evenodd;clip-rule:evenodd;fill:#FFFFFF;stroke:#111422;stroke-linecap:round;stroke-linejoin:round;stroke-miterlimit:10;}
	.st213{opacity:0.67;fill:url(#SVGID_00000114776128907975525170000000399069798068670607_);}
	.st214{fill:url(#SVGID_00000108274275153001015460000007140446788466449579_);}
</style>
<g>
	<g>
		<g>
			<g>
				<polygon class="st3" points="265.11,158.45 171.18,102.93 171.18,73.95 265.11,129.48 				"/>
				<polygon class="st2" points="265.11,158.45 279.65,150.84 279.65,121.86 265.11,129.48 				"/>
				<polygon class="st4" points="265.21,129.57 171.18,73.98 185.62,66.27 279.65,121.86 				"/>
			</g>
		</g>
	</g>
</g>
<g>
	<path class="st6" d="M186.1,95.26l-2.76-1.56c-0.04-0.44-0.11-0.86-0.23-1.26c-0.11-0.4-0.26-0.77-0.45-1.12
		c-0.19-0.34-0.41-0.65-0.67-0.92c-0.26-0.27-0.54-0.5-0.85-0.67c-0.55-0.31-1.02-0.38-1.42-0.21c-0.4,0.17-0.7,0.57-0.91,1.2
		s-0.32,1.47-0.32,2.53c0,1.1,0.11,2.09,0.32,2.96c0.22,0.87,0.52,1.6,0.91,2.19c0.39,0.6,0.86,1.05,1.4,1.35
		c0.3,0.17,0.58,0.27,0.83,0.3c0.25,0.03,0.47-0.02,0.66-0.13c0.19-0.11,0.35-0.29,0.47-0.54c0.12-0.25,0.21-0.56,0.26-0.93
		l2.76,1.59c-0.05,0.71-0.19,1.35-0.43,1.93c-0.24,0.58-0.57,1.04-0.99,1.39c-0.42,0.35-0.93,0.53-1.54,0.53
		c-0.6,0.01-1.29-0.21-2.07-0.65c-1.02-0.58-1.94-1.43-2.75-2.55c-0.81-1.12-1.45-2.45-1.92-3.98c-0.47-1.54-0.7-3.21-0.7-5.04
		c0-1.83,0.24-3.24,0.71-4.25s1.12-1.61,1.93-1.81c0.81-0.2,1.72-0.02,2.73,0.55c0.69,0.39,1.32,0.88,1.9,1.49
		c0.58,0.61,1.09,1.3,1.54,2.09c0.44,0.78,0.8,1.64,1.08,2.57S186.03,94.23,186.1,95.26z"/>
	<path class="st6" d="M191.62,109.22c-0.89-0.5-1.66-1.21-2.3-2.1c-0.64-0.9-1.13-1.93-1.48-3.09c-0.34-1.16-0.52-2.38-0.52-3.66
		c0-1.28,0.17-2.31,0.52-3.08c0.34-0.77,0.84-1.25,1.48-1.42c0.64-0.18,1.41-0.01,2.3,0.49c0.89,0.5,1.66,1.21,2.3,2.1
		c0.64,0.9,1.13,1.93,1.48,3.09c0.35,1.16,0.52,2.38,0.52,3.66c0,1.28-0.17,2.3-0.52,3.07c-0.34,0.77-0.84,1.25-1.48,1.42
		C193.28,109.88,192.52,109.72,191.62,109.22z M191.64,106.23c0.32,0.18,0.6,0.19,0.82,0.03c0.22-0.16,0.4-0.47,0.52-0.92
		s0.18-1.02,0.18-1.7c0-0.69-0.06-1.33-0.18-1.92c-0.12-0.59-0.29-1.09-0.52-1.51c-0.22-0.42-0.5-0.72-0.82-0.9
		c-0.33-0.19-0.62-0.2-0.85-0.04s-0.41,0.47-0.53,0.92c-0.12,0.45-0.18,1.02-0.18,1.72c0,0.68,0.06,1.32,0.18,1.9
		c0.12,0.59,0.29,1.09,0.53,1.51S191.3,106.04,191.64,106.23z"/>
	<path class="st6" d="M200,106.6v7.11l-2.7-1.53V99.72l2.57,1.45v2.29l0.09,0.05c0.19-0.66,0.51-1.07,0.96-1.25s0.99-0.09,1.62,0.26
		c0.6,0.34,1.12,0.83,1.56,1.47c0.44,0.64,0.78,1.38,1.03,2.22c0.24,0.84,0.37,1.73,0.36,2.66v7.95l-2.7-1.53v-7.17
		c0-0.69-0.11-1.3-0.36-1.82c-0.24-0.53-0.58-0.91-1-1.15c-0.28-0.16-0.53-0.21-0.75-0.15c-0.22,0.06-0.38,0.22-0.5,0.49
		C200.07,105.76,200.01,106.13,200,106.6z"/>
	<path class="st6" d="M210.28,119.69c-0.63-0.35-1.2-0.91-1.71-1.68c-0.51-0.77-0.92-1.71-1.23-2.84c-0.31-1.12-0.46-2.39-0.46-3.81
		c0-1.47,0.16-2.58,0.48-3.35c0.32-0.77,0.73-1.23,1.25-1.4c0.51-0.16,1.07-0.08,1.66,0.26c0.45,0.25,0.83,0.58,1.14,0.98
		c0.32,0.4,0.58,0.84,0.79,1.31c0.21,0.47,0.36,0.92,0.47,1.36l0.05,0.03v-6.29l2.7,1.53v16.62l-2.68-1.51v-2.02l-0.08-0.05
		c-0.11,0.32-0.28,0.59-0.49,0.81c-0.21,0.22-0.47,0.34-0.79,0.37C211.08,120.04,210.71,119.93,210.28,119.69z M211.22,117.13
		c0.33,0.19,0.61,0.21,0.84,0.06s0.41-0.43,0.54-0.85c0.12-0.43,0.19-0.98,0.19-1.65c0-0.68-0.06-1.3-0.19-1.87
		c-0.12-0.56-0.3-1.04-0.54-1.44s-0.51-0.69-0.84-0.87c-0.34-0.19-0.62-0.21-0.85-0.07c-0.23,0.14-0.41,0.42-0.53,0.85
		c-0.12,0.43-0.18,0.97-0.18,1.64c0,0.67,0.06,1.29,0.18,1.86c0.12,0.57,0.3,1.05,0.53,1.46
		C210.6,116.64,210.88,116.94,211.22,117.13z"/>
	<path class="st6" d="M218.5,110.23c-0.38-0.22-0.71-0.59-0.98-1.11c-0.27-0.53-0.41-1.05-0.41-1.57c0-0.52,0.14-0.89,0.41-1.1
		c0.27-0.22,0.6-0.22,0.98,0c0.38,0.22,0.71,0.59,0.98,1.11c0.27,0.52,0.41,1.05,0.41,1.57c0,0.52-0.14,0.89-0.41,1.11
		C219.21,110.44,218.88,110.45,218.5,110.23z M217.14,123.38v-12.47l2.7,1.53v12.47L217.14,123.38z"/>
	<path class="st6" d="M226.35,116.12v2.92l-5.36-3.03v-2.92L226.35,116.12z M222.12,110.74l2.7,1.53v11.53
		c0,0.24,0.03,0.45,0.08,0.63c0.05,0.18,0.13,0.33,0.24,0.45c0.1,0.12,0.23,0.22,0.37,0.3c0.1,0.06,0.21,0.11,0.33,0.14
		c0.12,0.04,0.2,0.06,0.26,0.07l0.41,3.1c-0.13-0.02-0.31-0.05-0.54-0.1c-0.23-0.05-0.51-0.16-0.84-0.32
		c-0.63-0.31-1.18-0.73-1.63-1.25c-0.45-0.52-0.8-1.12-1.03-1.81c-0.24-0.69-0.35-1.46-0.35-2.3V110.74z"/>
	<path class="st6" d="M229.1,116.21c-0.38-0.22-0.71-0.59-0.98-1.11c-0.27-0.52-0.41-1.05-0.41-1.57c0-0.52,0.14-0.89,0.41-1.1
		c0.27-0.22,0.6-0.22,0.98,0c0.38,0.22,0.71,0.59,0.98,1.11c0.27,0.52,0.41,1.05,0.41,1.57c0,0.52-0.14,0.89-0.41,1.11
		C229.8,116.42,229.48,116.43,229.1,116.21z M227.73,129.36V116.9l2.7,1.53v12.47L227.73,129.36z"/>
	<path class="st6" d="M236.12,134.33c-0.89-0.5-1.66-1.21-2.3-2.11c-0.64-0.9-1.13-1.93-1.48-3.09c-0.34-1.16-0.52-2.38-0.52-3.66
		c0-1.28,0.17-2.31,0.52-3.08c0.34-0.77,0.84-1.25,1.48-1.42s1.41-0.01,2.3,0.49c0.89,0.5,1.66,1.2,2.3,2.1
		c0.64,0.9,1.13,1.93,1.48,3.09c0.35,1.16,0.52,2.38,0.52,3.67c0,1.28-0.17,2.3-0.52,3.07c-0.34,0.77-0.84,1.25-1.48,1.42
		C237.78,135,237.01,134.83,236.12,134.33z M236.13,131.34c0.33,0.18,0.6,0.19,0.82,0.03c0.22-0.17,0.4-0.47,0.52-0.93
		c0.12-0.45,0.18-1.02,0.18-1.7c0-0.69-0.06-1.33-0.18-1.92c-0.12-0.59-0.29-1.09-0.52-1.51s-0.5-0.72-0.82-0.9
		c-0.33-0.19-0.62-0.2-0.85-0.04c-0.23,0.16-0.41,0.47-0.52,0.92c-0.12,0.45-0.18,1.02-0.18,1.72c0,0.68,0.06,1.32,0.18,1.9
		c0.12,0.59,0.29,1.09,0.52,1.51S235.8,131.16,236.13,131.34z"/>
	<path class="st6" d="M244.5,131.72v7.11l-2.7-1.53v-12.47l2.57,1.45v2.29l0.09,0.05c0.19-0.66,0.51-1.08,0.96-1.25
		s0.99-0.09,1.62,0.26c0.6,0.34,1.12,0.83,1.56,1.47c0.44,0.64,0.78,1.38,1.03,2.22c0.25,0.84,0.37,1.72,0.36,2.66v7.95l-2.71-1.53
		v-7.17c0-0.69-0.11-1.3-0.36-1.82c-0.24-0.53-0.58-0.91-1-1.15c-0.28-0.16-0.53-0.21-0.75-0.15c-0.22,0.06-0.38,0.22-0.5,0.49
		S244.5,131.24,244.5,131.72z"/>
	<path class="st6" d="M259.09,138.4l-2.48-1.3c-0.03-0.28-0.1-0.54-0.21-0.81s-0.26-0.51-0.45-0.73c-0.18-0.22-0.39-0.4-0.63-0.53
		c-0.31-0.18-0.58-0.24-0.8-0.18c-0.22,0.06-0.33,0.25-0.32,0.56c0,0.24,0.06,0.49,0.2,0.75s0.39,0.54,0.74,0.85l1.64,1.38
		c0.85,0.72,1.48,1.47,1.89,2.25c0.42,0.79,0.62,1.63,0.63,2.55c0,0.85-0.18,1.5-0.52,1.94s-0.81,0.67-1.4,0.68
		c-0.59,0.02-1.26-0.19-2.02-0.62c-1.21-0.69-2.17-1.59-2.87-2.72c-0.7-1.13-1.1-2.34-1.2-3.62l2.67,1.41
		c0.06,0.49,0.21,0.92,0.46,1.3c0.25,0.38,0.56,0.67,0.95,0.89c0.35,0.2,0.63,0.26,0.84,0.19c0.22-0.07,0.33-0.26,0.33-0.57
		c0-0.28-0.09-0.56-0.26-0.82c-0.17-0.26-0.42-0.54-0.78-0.84l-1.48-1.25c-0.85-0.71-1.49-1.49-1.9-2.34
		c-0.42-0.85-0.62-1.75-0.62-2.7c0-0.83,0.15-1.46,0.45-1.88s0.74-0.63,1.31-0.62c0.56,0,1.23,0.22,2,0.66
		c1.15,0.65,2.06,1.51,2.72,2.6C258.65,135.95,259.02,137.13,259.09,138.4z"/>
</g>
<g>
	<g>
		<g>
			<g>
				<polygon class="st3" points="223.52,93.11 161.95,57 161.95,28.02 223.52,64.14 				"/>
				<polygon class="st2" points="223.52,93.11 238.06,85.5 238.06,56.52 223.52,64.14 				"/>
				<polygon class="st4" points="223.62,64.23 161.95,28.05 176.38,20.34 238.06,56.52 				"/>
			</g>
		</g>
	</g>
</g>
<g>
	<path class="st6" d="M165.14,40v-3.61l10.6,5.98v3.61l-3.8-2.15v14.79l-2.99-1.69V42.15L165.14,40z"/>
	<path class="st6" d="M180.26,63.59c-0.98-0.56-1.83-1.32-2.54-2.29c-0.71-0.97-1.26-2.1-1.64-3.38c-0.38-1.28-0.57-2.65-0.57-4.12
		c0-1.43,0.19-2.56,0.58-3.42s0.92-1.38,1.62-1.58c0.7-0.2,1.52-0.04,2.47,0.5c0.67,0.38,1.28,0.88,1.84,1.49
		c0.55,0.62,1.04,1.34,1.44,2.17c0.41,0.83,0.72,1.74,0.94,2.75s0.34,2.07,0.34,3.21V60l-8.17-4.61v-2.55l5.39,3.04
		c0-0.47-0.08-0.93-0.23-1.38c-0.15-0.45-0.35-0.85-0.6-1.2c-0.25-0.35-0.55-0.62-0.88-0.81c-0.33-0.19-0.63-0.25-0.9-0.18
		c-0.27,0.07-0.48,0.25-0.63,0.53c-0.16,0.29-0.24,0.67-0.25,1.13v2.6c0,0.56,0.08,1.1,0.23,1.61c0.15,0.51,0.37,0.96,0.64,1.35
		c0.28,0.39,0.61,0.69,0.99,0.91c0.27,0.15,0.51,0.23,0.72,0.25c0.22,0.01,0.4-0.04,0.56-0.16s0.27-0.31,0.35-0.58l2.75,1.67
		c-0.11,0.84-0.36,1.49-0.75,1.94c-0.38,0.45-0.89,0.68-1.51,0.7S181.08,64.05,180.26,63.59z"/>
	<path class="st6" d="M186.26,66.71V52.91l2.91,1.64v2.52l0.1,0.05c0.17-0.81,0.45-1.33,0.84-1.56c0.39-0.23,0.84-0.2,1.35,0.09
		c0.14,0.08,0.28,0.17,0.43,0.28c0.15,0.11,0.28,0.23,0.41,0.35v3.82c-0.14-0.15-0.33-0.32-0.56-0.49s-0.44-0.31-0.62-0.41
		c-0.35-0.2-0.67-0.27-0.96-0.19c-0.28,0.07-0.51,0.26-0.67,0.58c-0.16,0.32-0.24,0.75-0.24,1.31v7.5L186.26,66.71z"/>
	<path class="st6" d="M193.52,70.81V57.01l2.85,1.61v2.54l0.1,0.06c0.2-0.73,0.53-1.2,0.99-1.43s1.02-0.15,1.67,0.21
		c0.65,0.37,1.21,0.93,1.68,1.68s0.76,1.58,0.89,2.48l0.1,0.05c0.18-0.72,0.52-1.19,1.03-1.39c0.51-0.21,1.11-0.11,1.81,0.28
		c0.89,0.5,1.61,1.33,2.17,2.48c0.55,1.15,0.83,2.45,0.83,3.91v9.29l-2.99-1.69V68.8c0-0.69-0.12-1.28-0.36-1.78
		s-0.55-0.86-0.94-1.07c-0.41-0.23-0.74-0.22-0.97,0.04c-0.23,0.26-0.35,0.72-0.35,1.38v8.24l-2.88-1.62v-8.33
		c0-0.64-0.12-1.21-0.36-1.72c-0.24-0.5-0.55-0.87-0.94-1.08c-0.26-0.15-0.49-0.19-0.69-0.12c-0.2,0.07-0.36,0.24-0.47,0.51
		s-0.17,0.64-0.17,1.09v8.17L193.52,70.81z"/>
	<path class="st6" d="M217.7,74.87l-2.75-1.44c-0.03-0.3-0.11-0.6-0.23-0.9c-0.13-0.29-0.29-0.57-0.49-0.81
		c-0.2-0.24-0.44-0.44-0.7-0.59c-0.35-0.2-0.64-0.26-0.88-0.19c-0.24,0.07-0.36,0.28-0.36,0.63c0,0.27,0.07,0.54,0.22,0.83
		c0.15,0.28,0.43,0.6,0.82,0.94l1.81,1.53c0.94,0.79,1.64,1.63,2.1,2.5c0.46,0.87,0.69,1.81,0.69,2.82c0,0.94-0.2,1.66-0.57,2.15
		c-0.38,0.49-0.89,0.74-1.55,0.76s-1.4-0.21-2.24-0.69c-1.34-0.76-2.4-1.76-3.18-3.01c-0.77-1.25-1.21-2.59-1.33-4.02l2.96,1.56
		c0.07,0.54,0.23,1.02,0.51,1.44c0.27,0.42,0.62,0.75,1.05,0.99c0.38,0.22,0.7,0.29,0.94,0.21c0.24-0.07,0.36-0.28,0.37-0.63
		c0-0.31-0.1-0.62-0.28-0.91s-0.47-0.6-0.86-0.93l-1.64-1.38c-0.94-0.78-1.65-1.65-2.11-2.59c-0.46-0.94-0.69-1.94-0.69-2.99
		c0-0.93,0.16-1.62,0.5-2.08c0.34-0.47,0.82-0.7,1.45-0.69c0.62,0.01,1.36,0.25,2.21,0.73c1.27,0.72,2.28,1.68,3.01,2.87
		C217.22,72.16,217.63,73.46,217.7,74.87z"/>
</g>
<g>
	<g>
		<g>
			<g>
				<polygon class="st3" points="257.55,113.85 233.17,99.73 233.17,70.76 257.55,84.87 				"/>
				<polygon class="st2" points="257.55,113.85 272.09,106.23 272.09,77.25 257.55,84.87 				"/>
				<polygon class="st4" points="257.65,84.96 233.17,70.78 247.61,63.07 272.09,77.25 				"/>
			</g>
		</g>
	</g>
</g>
<g>
	<path class="st6" d="M243.8,101.14c-0.88-0.5-1.64-1.16-2.28-1.98c-0.64-0.82-1.13-1.72-1.47-2.7c-0.34-0.97-0.51-1.94-0.51-2.9
		c0-0.71,0.09-1.28,0.29-1.71c0.19-0.43,0.45-0.79,0.79-1.05c0.34-0.27,0.73-0.5,1.18-0.69l2.63-0.98c0.3-0.11,0.51-0.28,0.63-0.51
		s0.19-0.51,0.19-0.81c0-0.33-0.09-0.68-0.26-1.04c-0.17-0.37-0.43-0.64-0.77-0.83c-0.22-0.12-0.4-0.16-0.56-0.12
		c-0.16,0.04-0.28,0.15-0.37,0.32s-0.13,0.4-0.13,0.68c0,0.37,0.07,0.78,0.21,1.25c0.14,0.46,0.34,0.98,0.58,1.55
		c0.24,0.57,0.51,1.2,0.81,1.89l6.01,13.3l-3.05-1.72l-5.03-10.85c-0.29-0.63-0.59-1.32-0.9-2.08c-0.32-0.76-0.58-1.54-0.8-2.36
		c-0.22-0.81-0.32-1.63-0.32-2.44c0-0.92,0.15-1.66,0.44-2.24c0.29-0.58,0.71-0.93,1.24-1.08c0.53-0.14,1.15-0.01,1.87,0.39
		c0.69,0.39,1.28,0.93,1.78,1.62c0.5,0.69,0.88,1.46,1.15,2.29c0.27,0.83,0.4,1.66,0.4,2.48c0,0.86-0.15,1.57-0.43,2.13
		c-0.29,0.56-0.7,0.97-1.23,1.22l-2.58,1.25c-0.27,0.13-0.49,0.32-0.64,0.56c-0.16,0.24-0.23,0.55-0.23,0.93
		c0,0.4,0.06,0.78,0.19,1.14c0.13,0.37,0.31,0.7,0.55,1c0.24,0.3,0.51,0.54,0.83,0.72c0.42,0.24,0.85,0.33,1.27,0.27
		c0.42-0.06,0.81-0.26,1.16-0.6c0.35-0.34,0.63-0.83,0.84-1.46c0.21-0.62,0.32-1.38,0.32-2.28l2.41,1.36c0,1.1-0.08,2.08-0.24,2.93
		c-0.16,0.85-0.4,1.56-0.71,2.13s-0.71,0.97-1.17,1.19c-0.15,0.04-0.29,0.07-0.43,0.1c-0.14,0.03-0.28,0.06-0.43,0.1
		c-0.48,0.24-1,0.31-1.57,0.21C244.89,101.65,244.34,101.45,243.8,101.14z"/>
</g>
<g>
	<polygon class="st3" points="107.6,38.4 86.52,24.06 36.46,52.5 36.46,165.59 107.6,125.17 	"/>
	<polygon class="st60" points="100.45,64.01 43.6,96.26 43.6,99.46 100.45,67.21 	"/>
	<polygon class="st60" points="100.45,73.69 43.6,105.93 43.6,109.13 100.45,76.88 	"/>
	<polygon class="st60" points="100.45,84.04 43.6,116.29 43.6,119.49 100.45,87.24 	"/>
	<polygon class="st60" points="100.45,95.59 43.6,127.84 43.6,131.04 100.45,98.79 	"/>
	<polygon class="st60" points="100.45,54.77 43.6,87.02 43.6,90.22 100.45,57.97 	"/>
	<polygon class="st2" points="25.77,46.46 36.46,52.24 36.46,165.59 25.77,159.81 	"/>
	<polygon class="st4" points="86.36,23.82 74.88,17.75 25.77,46.46 36.46,52.24 	"/>
	<polygon class="st3" points="107.6,38.4 86.36,50.78 86.36,23.82 	"/>
</g>
<g>
	<polygon class="st3" points="148.51,65.31 127.43,50.97 77.37,79.41 77.37,192.49 148.51,152.08 	"/>
	<polygon class="st60" points="141.36,90.92 84.52,123.16 84.52,126.36 141.36,94.12 	"/>
	<polygon class="st60" points="141.36,100.59 84.52,132.84 84.52,136.04 141.36,103.79 	"/>
	<polygon class="st60" points="141.36,110.94 84.52,143.19 84.52,146.39 141.36,114.14 	"/>
	<polygon class="st60" points="141.36,122.5 84.52,154.75 84.52,157.95 141.36,125.7 	"/>
	<polygon class="st60" points="141.36,81.68 84.52,113.93 84.52,117.13 141.36,84.88 	"/>
	<polygon class="st2" points="66.68,73.37 77.37,79.15 77.37,192.49 66.68,186.71 	"/>
	<polygon class="st4" points="127.28,50.73 115.79,44.66 66.68,73.37 77.37,79.15 	"/>
	<polygon class="st3" points="148.51,65.31 127.28,77.69 127.28,50.73 	"/>
</g>
<g>
	<path id="矩形_00000119803564165857279140000001120790858722913201_" class="st74" d="M196.45,220.46L196.45,220.46
		c0.62,0,1.15,0.76,1.15,1.64v1.52c0,0.88-0.53,1.64-1.15,1.64l0,0c-0.62,0-1.15-0.76-1.15-1.64v-1.52
		C195.31,221.15,195.83,220.46,196.45,220.46z"/>
	
		<radialGradient id="SVGID_1_" cx="162.1673" cy="247.8394" r="29.1582" gradientTransform="matrix(1 0 0 0.5898 0 101.6654)" gradientUnits="userSpaceOnUse">
		<stop  offset="0" style="stop-color:#06070C"/>
		<stop  offset="1" style="stop-color:#0D101D;stop-opacity:0"/>
	</radialGradient>
	<path style="opacity:0.67;fill:url(#SVGID_1_);" d="M187.17,233.77c-13.68-7.9-35.96-8-49.77-0.23
		c-13.81,7.77-13.91,20.48-0.23,28.37c13.68,7.9,35.96,8,49.77,0.23C200.74,254.37,200.84,241.66,187.17,233.77z"/>
	<g>
		<path class="st76" d="M203.41,204.48v-49.28c0-0.23,0.02-0.45,0.02-0.68c0-22.91-18.57-41.48-41.48-41.48
			c-22.91,0-41.48,18.57-41.48,41.48c0,0.36,0.02,0.72,0.03,1.07v44.66h-0.03v22.67c0,2.84,2.3,5.15,5.15,5.15
			c2.84,0,5.15-2.31,5.15-5.15v-0.83c0.56,0.36,1.13,0.72,1.74,1.07c1.83,1.06,3.79,1.99,5.85,2.81v8.2c0,2.84,2.3,5.15,5.15,5.15
			s5.15-2.31,5.15-5.15v-5.23c2.95,0.57,5.99,0.96,9.06,1.14v12.59c0,2.84,2.3,5.15,5.15,5.15c2.84,0,5.15-2.31,5.15-5.15v-12.7
			c3.39-0.28,6.73-0.8,9.93-1.55v6.36c0,2.84,2.3,5.15,5.15,5.15c2.84,0,5.15-2.31,5.15-5.15v-9.87c1-0.47,1.97-0.96,2.91-1.49
			c0.7-0.39,1.35-0.8,1.99-1.21v0.71c0,2.84,2.3,5.15,5.15,5.15s5.15-2.31,5.15-5.15v-18.45H203.41z"/>
		
			<radialGradient id="SVGID_00000163774141236150488770000004282935976835852686_" cx="186.6329" cy="130.465" r="106.6854" gradientUnits="userSpaceOnUse">
			<stop  offset="0.0124" style="stop-color:#DD78CE"/>
			<stop  offset="0.4936" style="stop-color:#A7589A"/>
			<stop  offset="0.5829" style="stop-color:#A0619E"/>
			<stop  offset="0.7273" style="stop-color:#8E79A8"/>
			<stop  offset="0.9078" style="stop-color:#709FB9"/>
			<stop  offset="1" style="stop-color:#5EB6C3"/>
		</radialGradient>
		<path style="fill:url(#SVGID_00000163774141236150488770000004282935976835852686_);" d="M203.41,204.48v-49.28
			c0-0.23,0.02-0.45,0.02-0.68c0-22.91-18.57-41.48-41.48-41.48c-22.91,0-41.48,18.57-41.48,41.48c0,0.36,0.02,0.72,0.03,1.07v44.66
			h-0.03v22.67c0,2.84,2.3,5.15,5.15,5.15c2.84,0,5.15-2.31,5.15-5.15v-0.83c0.56,0.36,1.13,0.72,1.74,1.07
			c1.83,1.06,3.79,1.99,5.85,2.81v8.2c0,2.84,2.3,5.15,5.15,5.15s5.15-2.31,5.15-5.15v-5.23c2.95,0.57,5.99,0.96,9.06,1.14v12.59
			c0,2.84,2.3,5.15,5.15,5.15c2.84,0,5.15-2.31,5.15-5.15v-12.7c3.39-0.28,6.73-0.8,9.93-1.55v6.36c0,2.84,2.3,5.15,5.15,5.15
			c2.84,0,5.15-2.31,5.15-5.15v-9.87c1-0.47,1.97-0.96,2.91-1.49c0.7-0.39,1.35-0.8,1.99-1.21v0.71c0,2.84,2.3,5.15,5.15,5.15
			s5.15-2.31,5.15-5.15v-18.45H203.41z"/>
	</g>
	<path id="矩形_00000106857503522183961290000017955252314409016704_" class="st74" d="M124.36,190.64L124.36,190.64
		c1.12,0,2.09,1.38,2.09,2.99v14.25c0,1.61-0.96,2.99-2.09,2.99l0,0c-1.12,0-2.09-1.38-2.09-2.99v-14.25
		C122.27,192.02,123.24,190.64,124.36,190.64z"/>
	<path id="矩形_00000165233096199381314150000000242245609653006522_" class="st74" d="M185.66,127.55L185.66,127.55
		c1.37-1.02,3.68-0.37,5.02,1.41l2.29,3.06c1.34,1.78,1.31,4.19-0.06,5.22l0,0c-1.37,1.02-3.68,0.37-5.02-1.41l-2.29-3.06
		C184.17,130.85,184.29,128.58,185.66,127.55z"/>
	<path id="矩形_00000054243166969649988780000000863638246446144147_" class="st74" d="M141.76,227.23L141.76,227.23
		c1.12,0,2.09,1.38,2.09,2.99v2.76c0,1.61-0.96,2.99-2.09,2.99l0,0c-1.12,0-2.09-1.38-2.09-2.99v-2.76
		C139.67,228.49,140.63,227.23,141.76,227.23z"/>
	<path id="矩形_00000014622948229361984610000004602480407602678407_" class="st74" d="M124.36,216.09L124.36,216.09
		c1.12,0,2.09,1.38,2.09,2.99v2.76c0,1.61-0.96,2.99-2.09,2.99l0,0c-1.12,0-2.09-1.38-2.09-2.99v-2.76
		C122.27,217.35,123.24,216.09,124.36,216.09z"/>
	<path id="矩形_00000157308239557032006260000013125927156456314530_" class="st74" d="M161.95,235.97L161.95,235.97
		c1.12,0,2.09,1.38,2.09,2.99v2.76c0,1.61-0.96,2.99-2.09,2.99l0,0c-1.12,0-2.09-1.38-2.09-2.99v-2.76
		C159.86,237.23,160.82,235.97,161.95,235.97z"/>
	<path id="矩形_00000151524819886430097900000015034211649224234384_" class="st74" d="M181.65,230.62L181.65,230.62
		c0.89,0,1.66,1.1,1.66,2.37v2.19c0,1.28-0.76,2.37-1.66,2.37l0,0c-0.89,0-1.66-1.1-1.66-2.37V233
		C179.99,231.63,180.76,230.62,181.65,230.62z"/>
	<g>
		
			<ellipse transform="matrix(0.8237 -0.5671 0.5671 0.8237 -55.7199 121.5384)" class="st79" cx="167.58" cy="150.37" rx="9.1" ry="9.5"/>
		<path id="形状结合_00000181044955192059199850000010820395407988481209_" class="st80" d="M166.38,140.4
			c-4.24-0.18-7.66,3.98-7.66,9.22c0,0.19,0,0.37,0,0.56l0,0.56c0-5.33,3.33-9.59,7.48-9.42c4.15,0.17,7.46,4.61,7.46,10.04
			c0,1.03-0.09,2.05-0.37,2.98c0.46-1.2,0.74-2.59,0.74-3.99C174.03,145.02,170.62,140.58,166.38,140.4z"/>
		<path id="形状结合_00000012459959179055851800000011530978969205325980_" class="st81" d="M174.95,150.3
			c-0.01,5.89-3.88,10.5-8.58,10.31c-4.7-0.2-8.57-5.13-8.57-11.02c0.01-5.89,3.88-10.5,8.58-10.31
			C171.18,139.48,174.95,144.41,174.95,150.3z M158.72,149.63c0,5.24,3.4,9.68,7.64,9.86c4.24,0.18,7.66-3.98,7.66-9.22
			c0-5.24-3.4-9.68-7.64-9.86C162.23,140.23,158.72,144.39,158.72,149.63z"/>
	</g>
	<g>
		
			<ellipse transform="matrix(0.8237 -0.5671 0.5671 0.8237 -60.3533 103.8772)" class="st79" cx="136.86" cy="148.99" rx="9.1" ry="9.5"/>
		<path id="形状结合_00000074431319103523089600000012738350117629314731_" class="st80" d="M135.87,139.03
			c-4.24-0.18-7.66,3.98-7.66,9.22c0,0.19,0,0.37,0,0.56l0,0.56c0-5.33,3.33-9.59,7.48-9.42c4.15,0.17,7.46,4.61,7.46,10.04
			c0,1.03-0.09,2.05-0.37,2.98c0.46-1.2,0.74-2.59,0.74-3.99C143.52,143.65,140.11,139.21,135.87,139.03z"/>
		<path id="形状结合_00000070103840885014305020000007233987982169606585_" class="st81" d="M144.43,148.93
			c-0.01,5.89-3.88,10.5-8.58,10.31s-8.57-5.13-8.57-11.02s3.88-10.5,8.58-10.31C140.66,138.11,144.44,143.04,144.43,148.93z
			 M128.21,148.25c0,5.24,3.4,9.68,7.64,9.86c4.24,0.18,7.66-3.98,7.66-9.22s-3.4-9.68-7.64-9.86
			C131.72,138.86,128.21,143.02,128.21,148.25z"/>
	</g>
	<g>
		
			<ellipse transform="matrix(0.8237 -0.5671 0.5671 0.8237 -69.9229 115.956)" class="st78" cx="151.5" cy="170.42" rx="3.94" ry="4.12"/>
	</g>
	<g>
		
			<ellipse transform="matrix(0.8237 -0.5671 0.5671 0.8237 -69.2376 114.6379)" class="st79" cx="149.72" cy="168.66" rx="3.23" ry="3.37"/>
	</g>
	<circle class="st78" cx="162.17" cy="145.64" r="3.77"/>
	<circle class="st78" cx="133.27" cy="143.77" r="3.77"/>
</g>
<g>
	<polygon class="st3" points="239.21,221.24 221.58,211.06 221.58,193.43 239.21,203.61 	"/>
	<polygon class="st2" points="239.21,221.24 256.84,211.06 256.84,193.43 239.21,203.61 	"/>
	<polygon class="st4" points="239.28,203.66 221.58,193.45 239.15,183.21 256.84,193.43 	"/>
	<path id="矩形_00000078021653889901227140000016527455042895324060_" class="st5" d="M233.69,188.94L233.69,188.94
		c0.35,0.2,0.29,0.58-0.12,0.82l-3.66,2.17c-0.41,0.24-1.06,0.29-1.41,0.09l0,0c-0.35-0.2-0.29-0.58,0.12-0.82l3.66-2.17
		C232.69,188.78,233.34,188.74,233.69,188.94z"/>
	<path id="矩形_00000000215794211165899820000006305976341226888875_" class="st5" d="M227.59,192.47L227.59,192.47
		c0.35,0.2,0.29,0.58-0.12,0.82l-0.71,0.42c-0.41,0.24-1.06,0.29-1.41,0.09l0,0c-0.35-0.2-0.29-0.58,0.12-0.82l0.71-0.42
		C226.63,192.3,227.25,192.28,227.59,192.47z"/>
</g>
<g>
	<polygon class="st3" points="246.88,204.67 229.25,194.5 229.25,176.87 246.88,187.04 	"/>
	<polygon class="st2" points="246.88,204.67 264.51,194.5 264.51,176.87 246.88,187.04 	"/>
	<polygon class="st4" points="246.94,187.1 229.25,176.88 246.81,166.65 264.51,176.86 	"/>
	<path id="矩形_00000023272755045676098980000018422986779619066295_" class="st5" d="M241.35,172.37L241.35,172.37
		c0.35,0.2,0.29,0.58-0.12,0.82l-3.66,2.17c-0.41,0.24-1.06,0.29-1.41,0.09l0,0c-0.35-0.2-0.29-0.58,0.12-0.82l3.66-2.17
		C240.35,172.22,241,172.18,241.35,172.37z"/>
	<path id="矩形_00000010992775919584178130000004157247626974476206_" class="st5" d="M235.26,175.91L235.26,175.91
		c0.35,0.2,0.29,0.58-0.12,0.82l-0.71,0.42c-0.41,0.24-1.06,0.29-1.41,0.09l0,0c-0.35-0.2-0.29-0.58,0.12-0.82l0.71-0.42
		C234.29,175.74,234.91,175.71,235.26,175.91z"/>
</g>
</svg>
