<svg width="73" height="41" viewBox="0 0 73 41" fill="none" xmlns="http://www.w3.org/2000/svg">
  <g clip-path="url(#clip0_3909_11617)">
    <path d="M67.8222 32.7461L66.0378 37.5603H65.0119L63.2227 32.7461H64.251L65.4981 36.45H65.5492L66.7939 32.7461H67.8222Z" fill="white"/>
    <path d="M70.6781 37.6485C70.2381 37.6485 69.8443 37.5748 69.4991 37.425C69.1539 37.2776 68.8816 37.0708 68.6822 36.8069C68.4829 36.543 68.3759 36.2364 68.3613 35.8869H69.3678C69.3799 36.0771 69.4456 36.2411 69.5647 36.3814C69.6838 36.5193 69.8394 36.6263 70.0315 36.7023C70.2235 36.7784 70.4375 36.8141 70.6733 36.8141C70.931 36.8141 71.1619 36.7689 71.3613 36.6833C71.5606 36.5953 71.7162 36.4717 71.8305 36.3148C71.9447 36.1579 72.0006 35.9749 72.0006 35.768C72.0006 35.5612 71.9447 35.3639 71.8329 35.1998C71.7211 35.0358 71.5582 34.9074 71.3418 34.8123C71.1279 34.7196 70.8678 34.6721 70.5639 34.6721H70.0096V33.8828H70.5639C70.807 33.8828 71.0209 33.84 71.2057 33.7544C71.3904 33.6688 71.5363 33.5499 71.6408 33.3954C71.7454 33.2409 71.7988 33.0626 71.7988 32.8558C71.7988 32.6489 71.7527 32.4849 71.6627 32.3375C71.5728 32.1901 71.4439 32.076 71.2786 31.9904C71.1133 31.9072 70.9188 31.8644 70.6927 31.8644C70.4666 31.8644 70.2794 31.9024 70.0947 31.9785C69.9099 32.0546 69.7592 32.1639 69.6449 32.3042C69.5307 32.4445 69.4675 32.6133 69.4602 32.8106H68.5023C68.5121 32.4635 68.619 32.1592 68.8184 31.8953C69.0177 31.6314 69.2827 31.427 69.6109 31.2772C69.9391 31.1298 70.3062 31.0537 70.7073 31.0537C71.1084 31.0537 71.4925 31.1345 71.7988 31.2938C72.1052 31.4531 72.3434 31.6671 72.5111 31.931C72.6789 32.1972 72.7616 32.4873 72.7591 32.8035C72.7591 33.1624 72.6594 33.4667 72.4528 33.7187C72.2462 33.9707 71.9715 34.1372 71.6311 34.2227V34.2727C72.0663 34.3369 72.4042 34.5056 72.6449 34.7814C72.8855 35.0548 73.0047 35.3948 73.0022 35.8013C73.0022 36.1532 72.905 36.4717 72.7032 36.7499C72.5014 37.0304 72.2267 37.2491 71.8766 37.4108C71.529 37.5701 71.1303 37.6509 70.6806 37.6509L70.6781 37.6485Z" fill="white"/>
    <path d="M5.90506 8.91309L0 25.6378H3.87512L5.14413 21.8245H11.319L12.5856 25.6378H16.4607L10.5654 8.91309H5.90506ZM6.06064 19.0644L8.16595 12.7359H8.29965L10.4001 19.0644H6.06064Z" fill="white"/>
    <path d="M23.491 8.91309L17.5859 25.6378H21.4611L22.7301 21.8245H28.905L30.1716 25.6378H34.0467L28.1513 8.91309H23.491ZM23.649 19.0644L25.7543 12.7359H25.888L27.9885 19.0644H23.649Z" fill="white"/>
    <path d="M41.3621 21.6201H41.2041L37.0689 8.91309H33.0527L38.9554 25.6378H43.6157L49.511 8.91309H45.5046L41.3621 21.6201Z" fill="white"/>
    <path d="M55.1819 22.7232V18.7292H62.4969V15.8146H55.1819V11.8301H63.0901V8.91309H51.5645V25.6378H63.1242V22.7232H55.1819Z" fill="white"/>
    <path d="M6.00256 35.4449C5.91505 35.1858 5.80322 34.9528 5.66222 34.746C5.52121 34.5392 5.3559 34.3632 5.16142 34.2158C4.96693 34.0684 4.75057 33.9591 4.50503 33.8806C4.26192 33.8045 3.99451 33.7641 3.70278 33.7641C3.22386 33.7641 2.79113 33.8854 2.39973 34.1255C2.00833 34.3656 1.69715 34.7222 1.4662 35.1929C1.23525 35.6613 1.11856 36.239 1.11856 36.9213C1.11856 37.6036 1.23525 38.1789 1.46863 38.6496C1.70201 39.1203 2.01805 39.4746 2.41674 39.717C2.81544 39.9595 3.26519 40.0784 3.76355 40.0784C4.22546 40.0784 4.63144 39.9809 4.98638 39.7884C5.33888 39.5934 5.61359 39.32 5.81294 38.9658C6.01229 38.6116 6.10953 38.1908 6.10953 37.7082L6.40855 37.77H3.98478V36.9236H7.05522V37.77C7.05522 38.419 6.91421 38.9848 6.63221 39.4627C6.35021 39.9429 5.96124 40.3138 5.46773 40.5777C4.97179 40.8415 4.40536 40.9723 3.76599 40.9723C3.05125 40.9723 2.42647 40.8083 1.88677 40.4802C1.34708 40.1521 0.928933 39.6861 0.627481 39.0799C0.326029 38.4737 0.177734 37.7557 0.177734 36.9236C0.177734 36.3008 0.262822 35.7397 0.435427 35.2405C0.608033 34.7412 0.851139 34.3157 1.16475 33.9638C1.48078 33.612 1.85274 33.3433 2.28304 33.1555C2.71333 32.9677 3.18739 32.875 3.70521 32.875C4.13065 32.875 4.52691 32.9368 4.89643 33.0604C5.26595 33.1841 5.59415 33.36 5.88344 33.5882C6.17274 33.8164 6.41585 34.0851 6.61033 34.4013C6.80482 34.7175 6.93852 35.0646 7.01146 35.4473H6.005L6.00256 35.4449Z" fill="white"/>
    <path d="M11.0562 40.9868C10.5117 40.9868 10.0327 40.8608 9.62189 40.6064C9.21104 40.352 8.89014 39.9978 8.66162 39.539C8.43067 39.0825 8.31641 38.5476 8.31641 37.939C8.31641 37.3304 8.43067 36.786 8.66162 36.3271C8.89014 35.8683 9.21104 35.5117 9.62189 35.2573C10.0327 35.003 10.5117 34.877 11.0562 34.877C11.6008 34.877 12.0797 35.003 12.4905 35.2573C12.9014 35.5117 13.2223 35.8683 13.4508 36.3271C13.6793 36.786 13.796 37.3233 13.796 37.939C13.796 38.5547 13.6818 39.0825 13.4508 39.539C13.2223 39.9954 12.9014 40.352 12.4905 40.6064C12.0797 40.8608 11.6008 40.9868 11.0562 40.9868ZM11.0562 40.1713C11.4719 40.1713 11.8123 40.0667 12.0797 39.8599C12.3471 39.6531 12.5465 39.3797 12.6729 39.0397C12.8017 38.7021 12.8649 38.3336 12.8649 37.939C12.8649 37.5444 12.8017 37.1759 12.6729 36.8335C12.544 36.4912 12.3471 36.2154 12.0797 36.0062C11.8123 35.797 11.4719 35.69 11.0562 35.69C10.6405 35.69 10.3002 35.7946 10.0327 36.0062C9.76532 36.2154 9.56597 36.4936 9.43956 36.8335C9.31071 37.1759 9.2475 37.542 9.2475 37.939C9.2475 38.336 9.31071 38.7021 9.43956 39.0397C9.56841 39.3797 9.76532 39.6507 10.0327 39.8599C10.3002 40.0667 10.6405 40.1713 11.0562 40.1713Z" fill="white"/>
    <path d="M19.9359 34.9502L17.7018 40.8627H16.7561L14.5195 34.9502H15.526L17.1937 39.6621H17.2569L18.9246 34.9502H19.9311H19.9359Z" fill="white"/>
    <path d="M23.4778 40.9868C22.8943 40.9868 22.3935 40.8608 21.9729 40.6064C21.5524 40.3544 21.2266 40.0002 21.0005 39.5437C20.7744 39.0873 20.6602 38.5571 20.6602 37.9533C20.6602 37.3494 20.7744 36.8145 21.0005 36.3509C21.2266 35.8873 21.5451 35.526 21.9535 35.2668C22.3619 35.0077 22.8384 34.877 23.3829 34.877C23.699 34.877 24.0077 34.9293 24.3165 35.0315C24.6228 35.1337 24.9024 35.3001 25.1552 35.5307C25.408 35.7613 25.6074 36.0633 25.7581 36.4413C25.9064 36.8193 25.9818 37.2828 25.9818 37.8344V38.2195H21.3214V37.435H25.0361C25.0361 37.1022 24.968 36.8026 24.8343 36.5411C24.6982 36.2796 24.5085 36.0728 24.2606 35.9206C24.0126 35.7685 23.7209 35.6948 23.3854 35.6948C23.0159 35.6948 22.695 35.7827 22.4275 35.961C22.1577 36.1393 21.951 36.3699 21.8076 36.6552C21.6642 36.9405 21.5913 37.2448 21.5913 37.5705V38.0935C21.5913 38.5405 21.6715 38.9185 21.8295 39.2275C21.9875 39.5366 22.2087 39.7719 22.4932 39.9312C22.7776 40.0929 23.1058 40.1713 23.4802 40.1713C23.7233 40.1713 23.9445 40.1381 24.1439 40.0691C24.3432 40.0025 24.5134 39.8979 24.6568 39.7601C24.8003 39.6222 24.9121 39.451 24.9923 39.2465L25.8894 39.4938C25.7946 39.791 25.6365 40.0525 25.4129 40.2759C25.1892 40.5018 24.9145 40.6753 24.5863 40.799C24.2581 40.9226 23.891 40.9868 23.4802 40.9868H23.4778Z" fill="white"/>
    <path d="M27.3984 40.8626V34.9501H28.2955V35.844H28.3587C28.4681 35.5516 28.6675 35.3139 28.9568 35.1308C29.246 34.9478 29.5718 34.8574 29.934 34.8574C30.0021 34.8574 30.0872 34.8574 30.1893 34.8622C30.2914 34.8646 30.3692 34.8693 30.4227 34.8741V35.7989C30.3911 35.7917 30.3206 35.7798 30.2087 35.7632C30.0969 35.7466 29.9802 35.737 29.8562 35.737C29.5621 35.737 29.2995 35.7965 29.071 35.9154C28.8401 36.0342 28.6602 36.1983 28.5289 36.4075C28.3976 36.6167 28.3295 36.8544 28.3295 37.1207V40.8626H27.4009H27.3984Z" fill="white"/>
    <path d="M32.4521 37.3061V40.8626H31.5234V34.9501H32.4205V35.8749H32.4983C32.6393 35.5753 32.8557 35.3329 33.145 35.1498C33.4343 34.9667 33.8062 34.874 34.2632 34.874C34.6717 34.874 35.0315 34.9549 35.3378 35.1189C35.6441 35.2829 35.8823 35.5278 36.0549 35.8583C36.2251 36.1887 36.3102 36.6047 36.3102 37.1064V40.8626H35.3815V37.1682C35.3815 36.7046 35.2576 36.3409 35.012 36.0817C34.7665 35.8226 34.4261 35.6918 33.9958 35.6918C33.6992 35.6918 33.4343 35.7536 33.2033 35.8796C32.9699 36.0056 32.7876 36.1887 32.6539 36.4312C32.5202 36.6713 32.4521 36.9637 32.4521 37.3084V37.3061Z" fill="white"/>
    <path d="M39.7862 41.0008C39.402 41.0008 39.0544 40.9295 38.7432 40.7868C38.4296 40.6442 38.1817 40.4373 37.9993 40.1663C37.8146 39.8953 37.7246 39.5672 37.7246 39.1821C37.7246 38.8421 37.7927 38.5687 37.9288 38.3572C38.065 38.1456 38.2473 37.9792 38.4758 37.8579C38.7043 37.7367 38.9572 37.6463 39.2343 37.5869C39.5114 37.5275 39.791 37.4775 40.0706 37.4419C40.4377 37.3943 40.7367 37.361 40.9652 37.3349C41.1937 37.3087 41.3615 37.2683 41.4685 37.2089C41.5754 37.1495 41.6265 37.0472 41.6265 36.8998V36.8689C41.6265 36.4885 41.5219 36.1938 41.3104 35.9845C41.0989 35.7753 40.7805 35.6684 40.3526 35.6684C39.9247 35.6684 39.5625 35.7635 39.3097 35.9536C39.0593 36.1438 38.8818 36.3459 38.7773 36.5622L37.8948 36.2532C38.0528 35.8942 38.2619 35.6137 38.5269 35.4116C38.7918 35.2095 39.0787 35.0693 39.3923 34.9884C39.7059 34.9076 40.0147 34.8672 40.3186 34.8672C40.513 34.8672 40.7367 34.891 40.9895 34.9338C41.2424 34.9789 41.4879 35.0716 41.7261 35.2095C41.9644 35.3474 42.1613 35.5566 42.3193 35.8372C42.4773 36.1177 42.5551 36.4909 42.5551 36.9616V40.8558H41.6265V40.0546H41.5803C41.5171 40.183 41.4125 40.3209 41.2642 40.4659C41.1159 40.6109 40.9215 40.7369 40.6784 40.8391C40.4352 40.9413 40.1362 40.9936 39.7862 40.9936V41.0008ZM39.9296 40.1853C40.2967 40.1853 40.6079 40.114 40.8607 39.9738C41.1135 39.8335 41.3056 39.6504 41.4344 39.427C41.5633 39.2035 41.6289 38.9681 41.6289 38.7233V37.8912C41.59 37.9364 41.5049 37.9792 41.3712 38.0172C41.2375 38.0552 41.0868 38.0861 40.9142 38.1123C40.7416 38.1384 40.5763 38.1622 40.4134 38.1812C40.2505 38.2003 40.1216 38.2169 40.022 38.2288C39.7813 38.2597 39.5552 38.3096 39.3461 38.3762C39.1371 38.4451 38.9693 38.545 38.8429 38.6805C38.7165 38.816 38.6533 38.999 38.6533 39.2296C38.6533 39.5458 38.7724 39.7836 39.0131 39.9429C39.2537 40.1045 39.5576 40.183 39.9272 40.183L39.9296 40.1853Z" fill="white"/>
    <path d="M45.1884 37.3061V40.8626H44.2598V34.9501H45.1568V35.8749H45.2346C45.3756 35.5753 45.592 35.3329 45.8813 35.1498C46.1706 34.9667 46.5425 34.874 46.9996 34.874C47.408 34.874 47.7678 34.9549 48.0741 35.1189C48.3804 35.2829 48.6187 35.5278 48.7913 35.8583C48.9614 36.1887 49.0465 36.6047 49.0465 37.1064V40.8626H48.1179V37.1682C48.1179 36.7046 47.9939 36.3409 47.7483 36.0817C47.5028 35.8226 47.1625 35.6918 46.7322 35.6918C46.4356 35.6918 46.1706 35.7536 45.9396 35.8796C45.7062 36.0056 45.5239 36.1887 45.3902 36.4312C45.2565 36.6713 45.1884 36.9637 45.1884 37.3084V37.3061Z" fill="white"/>
    <path d="M53.2007 40.9868C52.6343 40.9868 52.1457 40.856 51.7372 40.5945C51.3288 40.333 51.0128 39.9716 50.7916 39.5128C50.5703 39.054 50.4609 38.5286 50.4609 37.939C50.4609 37.3494 50.5752 36.8074 50.8013 36.3485C51.0274 35.8873 51.3458 35.5284 51.7543 35.2668C52.1627 35.0053 52.6392 34.877 53.1837 34.877C53.6092 34.877 53.9908 34.953 54.3336 35.1076C54.674 35.2621 54.9535 35.476 55.1723 35.7542C55.3911 36.0324 55.5248 36.3557 55.5783 36.7242H54.6497C54.5792 36.4555 54.4211 36.2154 54.178 36.0062C53.9349 35.797 53.6092 35.6924 53.2007 35.6924C52.8385 35.6924 52.5225 35.7851 52.2502 35.9682C51.9779 36.1512 51.7664 36.4104 51.6157 36.7408C51.465 37.0736 51.3896 37.4635 51.3896 37.9081C51.3896 38.3527 51.465 38.7616 51.6133 39.1015C51.7616 39.4391 51.9706 39.703 52.2429 39.8908C52.5152 40.0786 52.8337 40.1713 53.2007 40.1713C53.4414 40.1713 53.6602 40.1309 53.8571 40.0477C54.054 39.9645 54.2194 39.848 54.3579 39.6935C54.4941 39.539 54.5913 39.3559 54.6497 39.1396H55.5783C55.5248 39.489 55.396 39.8028 55.1918 40.081C54.9851 40.3592 54.7153 40.5802 54.3774 40.7419C54.0395 40.9059 53.6481 40.9868 53.2032 40.9868H53.2007Z" fill="white"/>
    <path d="M59.466 40.9868C58.8826 40.9868 58.3818 40.8608 57.9612 40.6064C57.5406 40.3544 57.2149 40.0002 56.9888 39.5437C56.7627 39.0873 56.6484 38.5571 56.6484 37.9533C56.6484 37.3494 56.7627 36.8145 56.9888 36.3509C57.2149 35.8873 57.5333 35.526 57.9418 35.2668C58.3502 35.0077 58.8267 34.877 59.3712 34.877C59.6873 34.877 59.996 34.9293 60.3048 35.0315C60.6111 35.1337 60.8906 35.3001 61.1435 35.5307C61.3963 35.7613 61.5957 36.0633 61.7464 36.4413C61.8947 36.8193 61.97 37.2828 61.97 37.8344V38.2195H57.3097V37.435H61.0244C61.0244 37.1022 60.9563 36.8026 60.8226 36.5411C60.6864 36.2796 60.4968 36.0728 60.2488 35.9206C60.0009 35.7685 59.7091 35.6948 59.3737 35.6948C59.0041 35.6948 58.6832 35.7827 58.4158 35.961C58.146 36.1393 57.9393 36.3699 57.7959 36.6552C57.6525 36.9405 57.5795 37.2448 57.5795 37.5705V38.0935C57.5795 38.5405 57.6598 38.9185 57.8178 39.2275C57.9758 39.5366 58.197 39.7719 58.4815 39.9312C58.7659 40.0929 59.0941 40.1713 59.4685 40.1713C59.7116 40.1713 59.9328 40.1381 60.1322 40.0691C60.3315 40.0025 60.5017 39.8979 60.6451 39.7601C60.7885 39.6222 60.9004 39.451 60.9806 39.2465L61.8777 39.4938C61.7828 39.791 61.6248 40.0525 61.4012 40.2759C61.1775 40.5018 60.9028 40.6753 60.5746 40.799C60.2464 40.9226 59.8793 40.9868 59.4685 40.9868H59.466Z" fill="white"/>
    <path d="M51.1699 5.65088C51.1699 5.65088 54.2793 -1.78551 63.0432 0.401659C72.1014 2.66015 70.9077 11.473 68.5399 14.8846L65.9411 15.1865C65.9411 15.1865 63.7799 14.9297 63.4006 12.3384C63.1065 10.3438 62.3407 8.32779 60.3788 7.71443L51.1724 5.65088H51.1699Z" fill="#EC6B7E"/>
    <path d="M65.0072 8.32507C64.3411 7.2196 62.9699 7.64277 62.9699 7.64277C62.9699 7.64277 62.9116 6.94382 61.6523 6.34473C61.7131 7.27665 61.1685 8.15865 60.3371 8.73635C59.3914 9.39251 58.0932 9.64688 56.9117 9.43768C56.287 9.32832 55.6962 9.10009 55.1395 8.83858C54.9912 8.76964 54.8453 8.69832 54.7019 8.62224C54.6192 8.58182 54.539 8.53903 54.4588 8.49624C54.4321 8.48198 54.3786 8.44156 54.3445 8.45107C54.3129 8.46058 54.2716 8.50337 54.2449 8.52001C53.9993 8.68405 53.7198 8.8053 53.4232 8.87662C52.8324 9.01926 52.2076 8.96934 51.6096 8.89801C51.3106 8.86235 51.014 8.81481 50.7125 8.79341C50.5059 8.77915 50.3017 8.83145 50.0999 8.85998C49.9054 8.88613 49.7158 8.92654 49.5213 8.94794C49.3706 8.96458 49.2174 8.96934 49.0667 8.97171C48.7871 8.97647 48.5075 8.96458 48.2304 8.92654C48.1866 8.92179 48.1453 8.91466 48.1016 8.90752C48.775 9.5399 49.7012 9.90602 49.7012 9.90602C49.7012 9.90602 49.9613 11.9957 52.9515 11.4656C54.133 11.2564 54.8964 10.4433 54.8964 10.4433C54.8964 10.4433 55.616 10.9521 57.5025 11.235C59.389 11.5179 60.607 10.9473 60.607 10.9473C60.607 10.9473 63.0283 12.5496 64.3751 11.399C65.4521 10.4813 65.5299 9.18568 65.012 8.32507H65.0072Z" fill="#EAEFFC"/>
    <path d="M61.6523 6.3457C61.7253 6.38136 61.7933 6.41465 61.859 6.45031C61.7958 6.41465 61.7253 6.37899 61.6523 6.3457Z" fill="white"/>
    <path d="M48.096 8.90843C48.1398 8.91556 48.1811 8.92269 48.2249 8.92745C48.502 8.96311 48.7816 8.97737 49.0611 8.97262C49.2119 8.97024 49.365 8.96549 49.5158 8.94884C49.7102 8.92507 49.9023 8.88703 50.0944 8.86088C50.2961 8.83235 50.5003 8.78243 50.707 8.79432C51.0084 8.81333 51.305 8.86088 51.604 8.89892C52.2021 8.97262 52.8269 9.02016 53.4176 8.87752C53.7166 8.8062 53.9962 8.68496 54.2393 8.52092C54.2636 8.50428 54.3074 8.45911 54.339 8.45197C54.373 8.44247 54.4265 8.48288 54.4533 8.49715C54.5335 8.53994 54.6161 8.58273 54.6964 8.62315C54.8422 8.69684 54.9881 8.76816 55.1339 8.83949C55.6931 9.101 56.2814 9.32922 56.9062 9.43858C58.0901 9.64541 59.3859 9.39103 60.3316 8.73726C61.163 8.16194 61.7075 7.27756 61.6468 6.34563C61.3866 6.22201 61.0585 6.09839 60.6452 5.9819C58.2408 5.30435 57.7473 6.60239 57.7473 6.60239C57.5164 5.7822 56.6534 4.67672 54.8325 4.50793C53.0116 4.33914 52.2288 5.50405 52.2288 5.50405C48.8618 4.65295 47.6049 5.53971 47.4129 7.45111C47.2695 8.88941 49.4963 9.83085 49.6762 9.90454C49.5644 9.85937 48.7159 9.50039 48.0887 8.91081L48.096 8.90843Z" fill="white"/>
    <path d="M55.6549 10.796C55.5358 10.7533 55.4313 10.7128 55.3438 10.6748C55.4337 10.7128 55.5358 10.7533 55.6549 10.796Z" fill="white"/>
    <path d="M49.6855 9.9043C49.6855 9.9043 49.691 9.9043 49.6937 9.90702C49.6937 9.90702 49.691 9.90702 49.6855 9.9043Z" fill="white"/>
    <path d="M63.4815 12.4078C63.6541 12.3602 63.8267 12.3056 63.9944 12.2461C64.4904 12.0655 64.9742 11.8349 65.4069 11.5353C65.8348 11.2381 66.1824 10.8387 66.4206 10.3847C66.5398 10.1541 66.6321 9.91156 66.6978 9.66194C66.7124 9.60013 66.727 9.53832 66.7416 9.47651C66.6783 9.12228 66.5981 8.77043 66.479 8.43047C66.3112 7.94548 66.0706 7.48903 65.7472 7.08726C65.5673 6.86141 65.3729 6.64744 65.1832 6.42635C64.9912 6.20288 64.7991 5.97941 64.5974 5.76544C64.4029 5.56099 64.2035 5.36129 63.9799 5.18774C63.7586 5.01657 63.5228 4.8668 63.2773 4.73129C62.7741 4.45314 62.2392 4.21778 61.6947 4.02759C61.2935 3.88733 60.8851 3.77797 60.4694 3.69238C59.3487 4.63382 58.0213 6.04835 57.7539 6.60465L60.377 7.36303C62.3389 7.97401 63.1071 9.99239 63.3988 11.987C63.4207 12.1368 63.4499 12.277 63.4815 12.4102V12.4078Z" fill="#EC6B7E"/>
    <path d="M64.7051 17.8401C64.7051 17.8401 63.0033 17.5382 63.2464 16.1189C63.4895 14.6996 64.2237 14.8661 64.2237 14.8661C64.2237 14.8661 64.1702 13.5942 65.1888 13.0212C66.2075 12.4483 67.2917 13.3921 67.2917 13.3921C67.2917 13.3921 67.9214 12.1749 69.222 13.0498C70.8678 14.1576 69.7106 15.3819 69.7106 15.3819C69.7106 15.3819 71.1377 15.8574 70.3038 17.6618C69.47 19.4663 67.581 18.803 67.581 18.803C67.581 18.803 67.2771 19.9227 66.0008 19.6778C64.3258 19.3569 64.7075 17.8354 64.7075 17.8354L64.7051 17.8401Z" fill="white"/>
    <path d="M70.3378 17.8018C71.2082 16.3706 70.1336 15.5195 69.7106 15.3864C69.6255 15.6313 69.3095 15.8524 69.0202 15.888C68.8476 15.9094 68.3274 15.8143 68.0551 15.4245C68.0891 15.6598 67.4084 17.0934 65.7504 17.022C63.9733 16.946 63.6038 15.5148 63.4944 15.3389C63.3947 15.5219 63.3048 15.7739 63.2464 16.121C63.0033 17.5403 64.7051 17.8422 64.7051 17.8422C64.7051 17.8422 64.3501 19.4113 66.0616 19.7037C67.3501 19.9248 67.5786 18.8074 67.5786 18.8074C67.5786 18.8074 69.1855 19.6942 70.3354 17.8018H70.3378Z" fill="#EAEFFC"/>
  </g>
  <defs>
    <clipPath id="clip0_3909_11617">
      <rect width="73" height="41" fill="white"/>
    </clipPath>
  </defs>
</svg>
