<svg width="73" height="44" viewBox="0 0 73 44" fill="none" xmlns="http://www.w3.org/2000/svg">
<g clip-path="url(#clip0_3879_11460)">
<path d="M67.8222 35.6562L66.0378 40.5216H65.0119L63.2227 35.6562H64.251L65.4981 39.3996H65.5492L66.7939 35.6562H67.8222Z" fill="white"/>
<path d="M70.6781 40.6103C70.2381 40.6103 69.8443 40.5358 69.4991 40.3845C69.1539 40.2355 68.8816 40.0265 68.6822 39.7598C68.4829 39.4931 68.3759 39.1831 68.3613 38.8299H69.3678C69.3799 39.0221 69.4456 39.1879 69.5647 39.3297C69.6838 39.469 69.8394 39.5772 70.0315 39.654C70.2235 39.7309 70.4375 39.767 70.6733 39.767C70.931 39.767 71.1619 39.7213 71.3613 39.6348C71.5606 39.5459 71.7162 39.421 71.8305 39.2624C71.9447 39.1038 72.0006 38.9188 72.0006 38.7098C72.0006 38.5008 71.9447 38.3013 71.8329 38.1356C71.7211 37.9698 71.5582 37.84 71.3418 37.7439C71.1279 37.6502 70.8678 37.6022 70.5639 37.6022H70.0096V36.8045H70.5639C70.807 36.8045 71.0209 36.7612 71.2057 36.6747C71.3904 36.5882 71.5363 36.4681 71.6408 36.3119C71.7454 36.1558 71.7988 35.9756 71.7988 35.7665C71.7988 35.5575 71.7527 35.3917 71.6627 35.2427C71.5728 35.0938 71.4439 34.9785 71.2786 34.892C71.1133 34.8079 70.9188 34.7646 70.6927 34.7646C70.4666 34.7646 70.2794 34.8031 70.0947 34.8799C69.9099 34.9568 69.7592 35.0674 69.6449 35.2091C69.5307 35.3509 69.4675 35.5215 69.4602 35.7209H68.5023C68.5121 35.3701 68.619 35.0626 68.8184 34.7959C69.0177 34.5292 69.2827 34.3225 69.6109 34.1712C69.9391 34.0222 70.3062 33.9453 70.7073 33.9453C71.1084 33.9453 71.4925 34.027 71.7988 34.188C72.1052 34.349 72.3434 34.5652 72.5111 34.8319C72.6789 35.101 72.7616 35.3941 72.7591 35.7137C72.7591 36.0765 72.6594 36.384 72.4528 36.6387C72.2462 36.8934 71.9715 37.0616 71.6311 37.1481V37.1985C72.0663 37.2634 72.4042 37.434 72.6449 37.7127C72.8855 37.989 73.0047 38.3326 73.0022 38.7434C73.0022 39.099 72.905 39.421 72.7032 39.7021C72.5014 39.9856 72.2267 40.2067 71.8766 40.37C71.529 40.531 71.1303 40.6127 70.6806 40.6127L70.6781 40.6103Z" fill="white"/>
<path d="M5.90506 11.5713L0 28.474H3.87512L5.14413 24.6202H11.319L12.5856 28.474H16.4607L10.5654 11.5713H5.90506ZM6.06064 21.8307L8.16595 15.4348H8.29965L10.4001 21.8307H6.06064Z" fill="white"/>
<path d="M23.491 11.5713L17.5859 28.474H21.4611L22.7301 24.6202H28.905L30.1716 28.474H34.0467L28.1513 11.5713H23.491ZM23.649 21.8307L25.7543 15.4348H25.888L27.9885 21.8307H23.649Z" fill="white"/>
<path d="M41.3621 24.4135H41.2041L37.0689 11.5713H33.0527L38.9554 28.474H43.6157L49.511 11.5713H45.5046L41.3621 24.4135Z" fill="white"/>
<path d="M55.1819 25.526V21.4919H62.4969V18.5438H55.1819V14.517H63.0901V11.5713H51.5645V28.474H63.1242V25.526H55.1819Z" fill="white"/>
<path d="M6.00256 38.3824C5.91505 38.1205 5.80322 37.8851 5.66222 37.6761C5.52121 37.467 5.3559 37.2892 5.16142 37.1403C4.96693 36.9913 4.75057 36.8808 4.50503 36.8015C4.26192 36.7246 3.99451 36.6838 3.70278 36.6838C3.22386 36.6838 2.79113 36.8063 2.39973 37.049C2.00833 37.2916 1.69715 37.652 1.4662 38.1278C1.23525 38.6011 1.11856 39.1849 1.11856 39.8745C1.11856 40.5641 1.23525 41.1455 1.46863 41.6212C1.70201 42.097 2.01805 42.455 2.41674 42.7C2.81544 42.9451 3.26519 43.0652 3.76355 43.0652C4.22546 43.0652 4.63144 42.9667 4.98638 42.7721C5.34132 42.5775 5.61359 42.2988 5.81294 41.9408C6.01229 41.5828 6.10953 41.1575 6.10953 40.6698L6.40855 40.7322H3.98478V39.8769H7.05522V40.7322C7.05522 41.3882 6.91421 41.96 6.63221 42.4429C6.35021 42.9283 5.96124 43.3031 5.46773 43.5698C4.97179 43.8365 4.40536 43.9686 3.76599 43.9686C3.05125 43.9686 2.42647 43.8028 1.88677 43.4713C1.34708 43.1397 0.928933 42.6688 0.627481 42.0561C0.326029 41.4434 0.177734 40.7178 0.177734 39.8769C0.177734 39.2474 0.262822 38.6804 0.435427 38.1758C0.608033 37.6712 0.851139 37.2412 1.16475 36.8856C1.47835 36.53 1.85274 36.2585 2.28304 36.0687C2.71333 35.8789 3.18739 35.7852 3.70521 35.7852C4.13065 35.7852 4.52691 35.8476 4.89643 35.9726C5.26595 36.0975 5.59415 36.2753 5.88344 36.506C6.17274 36.7366 6.41585 37.0081 6.61033 37.3277C6.80482 37.6472 6.93852 37.998 7.01146 38.3848H6.005L6.00256 38.3824Z" fill="white"/>
<path d="M11.0562 43.9834C10.5117 43.9834 10.0327 43.8561 9.62189 43.599C9.21104 43.3419 8.89014 42.9839 8.66162 42.5202C8.43067 42.0589 8.31641 41.5183 8.31641 40.9032C8.31641 40.2881 8.43067 39.7379 8.66162 39.2742C8.89014 38.8105 9.21104 38.4501 9.62189 38.193C10.0327 37.9359 10.5117 37.8086 11.0562 37.8086C11.6008 37.8086 12.0797 37.9359 12.4905 38.193C12.9014 38.4501 13.2223 38.8105 13.4508 39.2742C13.6793 39.7379 13.796 40.2809 13.796 40.9032C13.796 41.5255 13.6818 42.0589 13.4508 42.5202C13.2223 42.9815 12.9014 43.3419 12.4905 43.599C12.0797 43.8561 11.6008 43.9834 11.0562 43.9834ZM11.0562 43.1593C11.4719 43.1593 11.8123 43.0536 12.0797 42.8446C12.3471 42.6355 12.5465 42.3592 12.6729 42.0157C12.8017 41.6745 12.8649 41.3021 12.8649 40.9032C12.8649 40.5044 12.8017 40.132 12.6729 39.786C12.544 39.44 12.3471 39.1613 12.0797 38.9499C11.8123 38.7384 11.4719 38.6303 11.0562 38.6303C10.6405 38.6303 10.3002 38.736 10.0327 38.9499C9.76532 39.1637 9.56597 39.4424 9.43956 39.786C9.31071 40.132 9.2475 40.502 9.2475 40.9032C9.2475 41.3045 9.31071 41.6745 9.43956 42.0157C9.56841 42.3592 9.76532 42.6331 10.0327 42.8446C10.3002 43.056 10.6405 43.1593 11.0562 43.1593Z" fill="white"/>
<path d="M19.9359 37.8848L17.7018 43.8602H16.7561L14.5195 37.8848H15.526L17.1937 42.6468H17.2569L18.9246 37.8848H19.9311H19.9359Z" fill="white"/>
<path d="M23.4778 43.9834C22.8943 43.9834 22.3935 43.8561 21.9729 43.599C21.5524 43.3443 21.2266 42.9863 21.0005 42.525C20.7744 42.0637 20.6602 41.5279 20.6602 40.9176C20.6602 40.3074 20.7744 39.7668 21.0005 39.2982C21.2266 38.8297 21.5451 38.4645 21.9535 38.2026C22.3619 37.9407 22.8384 37.8086 23.3829 37.8086C23.699 37.8086 24.0077 37.8615 24.3165 37.9648C24.6228 38.0681 24.9024 38.2363 25.1552 38.4693C25.408 38.7024 25.6074 39.0075 25.7581 39.3895C25.9064 39.7716 25.9818 40.2401 25.9818 40.7975V41.1867H21.3214V40.3939H25.0361C25.0361 40.0575 24.968 39.7548 24.8343 39.4905C24.6982 39.2262 24.5085 39.0171 24.2606 38.8634C24.0126 38.7096 23.7209 38.6351 23.3854 38.6351C23.0159 38.6351 22.695 38.724 22.4275 38.9042C22.1601 39.0844 21.951 39.3175 21.8076 39.6058C21.6642 39.8941 21.5913 40.2016 21.5913 40.5308V41.0594C21.5913 41.5111 21.6715 41.8931 21.8295 42.2055C21.9875 42.5178 22.2087 42.7557 22.4932 42.9167C22.7776 43.08 23.1058 43.1593 23.4802 43.1593C23.7233 43.1593 23.9445 43.1257 24.1439 43.056C24.3432 42.9887 24.5134 42.883 24.6568 42.7437C24.8003 42.6043 24.9121 42.4313 24.9923 42.2247L25.8894 42.4746C25.7946 42.7749 25.6365 43.0392 25.4129 43.265C25.1892 43.4933 24.9145 43.6687 24.5863 43.7936C24.2581 43.9186 23.891 43.9834 23.4802 43.9834H23.4778Z" fill="white"/>
<path d="M27.3984 43.8601V37.8847H28.2955V38.7881H28.3587C28.4681 38.4926 28.6675 38.2523 28.9568 38.0673C29.246 37.8823 29.5718 37.791 29.934 37.791C30.0021 37.791 30.0872 37.791 30.1893 37.7958C30.2914 37.7982 30.3692 37.803 30.4227 37.8078V38.7425C30.3911 38.7353 30.3206 38.7233 30.2087 38.7064C30.0969 38.6896 29.9802 38.68 29.8562 38.68C29.5621 38.68 29.2995 38.7401 29.071 38.8602C28.8401 38.9803 28.6602 39.1461 28.5289 39.3576C28.3976 39.569 28.3295 39.8093 28.3295 40.0784V43.8601H27.4009H27.3984Z" fill="white"/>
<path d="M32.4521 40.2665V43.8609H31.5234V37.8855H32.4205V38.8201H32.4983C32.6393 38.5174 32.8557 38.2723 33.145 38.0873C33.4343 37.9023 33.8062 37.8086 34.2632 37.8086C34.6717 37.8086 35.0315 37.8903 35.3378 38.0561C35.6441 38.2219 35.8823 38.4693 36.0549 38.8033C36.2251 39.1373 36.3102 39.5577 36.3102 40.0647V43.8609H35.3815V40.1272C35.3815 39.6586 35.2576 39.291 35.012 39.0291C34.7665 38.7673 34.4261 38.6351 33.9958 38.6351C33.6992 38.6351 33.4343 38.6976 33.2033 38.8249C32.9699 38.9523 32.7876 39.1373 32.6539 39.3823C32.5202 39.625 32.4521 39.9205 32.4521 40.2689V40.2665Z" fill="white"/>
<path d="M39.7862 43.9997C39.402 43.9997 39.0544 43.9276 38.7432 43.7834C38.4296 43.6393 38.1817 43.4302 37.9993 43.1563C37.8146 42.8824 37.7246 42.5508 37.7246 42.1616C37.7246 41.818 37.7927 41.5417 37.9288 41.3279C38.065 41.1141 38.2473 40.9459 38.4758 40.8233C38.7043 40.7008 38.9572 40.6095 39.2343 40.5494C39.5114 40.4894 39.791 40.4389 40.0706 40.4029C40.4377 40.3548 40.7367 40.3212 40.9652 40.2947C41.1937 40.2683 41.3615 40.2275 41.4685 40.1674C41.5754 40.1073 41.6265 40.004 41.6265 39.8551V39.8238C41.6265 39.4394 41.5219 39.1415 41.3104 38.93C41.0989 38.7186 40.7805 38.6105 40.3526 38.6105C39.9247 38.6105 39.5625 38.7066 39.3097 38.8988C39.0593 39.091 38.8818 39.2952 38.7773 39.5139L37.8948 39.2015C38.0528 38.8387 38.2619 38.5552 38.5269 38.351C38.7918 38.1468 39.0787 38.005 39.3923 37.9233C39.7059 37.8416 40.0147 37.8008 40.3186 37.8008C40.513 37.8008 40.7367 37.8248 40.9895 37.8681C41.2424 37.9137 41.4879 38.0074 41.7261 38.1468C41.9644 38.2861 42.1613 38.4976 42.3193 38.7811C42.4773 39.0646 42.5551 39.4418 42.5551 39.9175V43.8531H41.6265V43.0434H41.5803C41.5171 43.1731 41.4125 43.3125 41.2642 43.4591C41.1159 43.6056 40.9215 43.733 40.6784 43.8363C40.4352 43.9396 40.1362 43.9924 39.7862 43.9924V43.9997ZM39.9296 43.1755C40.2967 43.1755 40.6079 43.1035 40.8607 42.9617C41.1135 42.8199 41.3056 42.6349 41.4344 42.4091C41.5633 42.1832 41.6289 41.9454 41.6289 41.6979V40.857C41.59 40.9026 41.5049 40.9459 41.3712 40.9843C41.2375 41.0228 41.0868 41.054 40.9142 41.0804C40.7416 41.1068 40.5763 41.1309 40.4134 41.1501C40.2505 41.1693 40.1216 41.1861 40.022 41.1981C39.7813 41.2294 39.5552 41.2798 39.3461 41.3471C39.1371 41.4168 38.9693 41.5177 38.8429 41.6547C38.7165 41.7916 38.6533 41.9766 38.6533 42.2097C38.6533 42.5292 38.7724 42.7695 39.0131 42.9305C39.2537 43.0938 39.5576 43.1731 39.9272 43.1731L39.9296 43.1755Z" fill="white"/>
<path d="M45.1884 40.2665V43.8609H44.2598V37.8855H45.1568V38.8201H45.2346C45.3756 38.5174 45.592 38.2723 45.8813 38.0873C46.1706 37.9023 46.5425 37.8086 46.9996 37.8086C47.408 37.8086 47.7678 37.8903 48.0741 38.0561C48.3804 38.2219 48.6187 38.4693 48.7913 38.8033C48.9614 39.1373 49.0465 39.5577 49.0465 40.0647V43.8609H48.1179V40.1272C48.1179 39.6586 47.9939 39.291 47.7483 39.0291C47.5028 38.7673 47.1625 38.6351 46.7322 38.6351C46.4356 38.6351 46.1706 38.6976 45.9396 38.8249C45.7062 38.9523 45.5239 39.1373 45.3902 39.3823C45.2565 39.625 45.1884 39.9205 45.1884 40.2689V40.2665Z" fill="white"/>
<path d="M53.2007 43.9834C52.6343 43.9834 52.1457 43.8513 51.7372 43.587C51.3288 43.3227 51.0128 42.9575 50.7916 42.4938C50.5703 42.0301 50.4609 41.4991 50.4609 40.9032C50.4609 40.3074 50.5752 39.7596 50.8013 39.2958C51.0274 38.8297 51.3458 38.4669 51.7543 38.2026C52.1627 37.9383 52.6392 37.8086 53.1837 37.8086C53.6092 37.8086 53.9908 37.8855 54.3336 38.0417C54.674 38.1978 54.9535 38.4141 55.1723 38.6952C55.3911 38.9763 55.5248 39.3031 55.5783 39.6755H54.6497C54.5792 39.404 54.4211 39.1613 54.178 38.9499C53.9349 38.7384 53.6092 38.6327 53.2007 38.6327C52.8385 38.6327 52.5225 38.7264 52.2502 38.9114C51.9779 39.0964 51.7664 39.3583 51.6157 39.6923C51.465 40.0287 51.3896 40.4227 51.3896 40.872C51.3896 41.3213 51.465 41.7345 51.6133 42.0781C51.7616 42.4193 51.9706 42.686 52.2429 42.8758C52.5152 43.0656 52.8337 43.1593 53.2007 43.1593C53.4414 43.1593 53.6602 43.1185 53.8571 43.0344C54.054 42.9503 54.2194 42.8326 54.3579 42.6764C54.4941 42.5202 54.5913 42.3352 54.6497 42.1166H55.5783C55.5248 42.4698 55.396 42.7869 55.1918 43.068C54.9851 43.3491 54.7153 43.5726 54.3774 43.736C54.0395 43.9018 53.6481 43.9834 53.2032 43.9834H53.2007Z" fill="white"/>
<path d="M59.466 43.9834C58.8826 43.9834 58.3818 43.8561 57.9612 43.599C57.5406 43.3443 57.2149 42.9863 56.9888 42.525C56.7627 42.0637 56.6484 41.5279 56.6484 40.9176C56.6484 40.3074 56.7627 39.7668 56.9888 39.2982C57.2149 38.8297 57.5333 38.4645 57.9418 38.2026C58.3502 37.9407 58.8267 37.8086 59.3712 37.8086C59.6873 37.8086 59.996 37.8615 60.3048 37.9648C60.6111 38.0681 60.8906 38.2363 61.1435 38.4693C61.3963 38.7024 61.5957 39.0075 61.7464 39.3895C61.8947 39.7716 61.97 40.2401 61.97 40.7975V41.1867H57.3097V40.3939H61.0244C61.0244 40.0575 60.9563 39.7548 60.8226 39.4905C60.6864 39.2262 60.4968 39.0171 60.2488 38.8634C60.0009 38.7096 59.7091 38.6351 59.3737 38.6351C59.0041 38.6351 58.6832 38.724 58.4158 38.9042C58.1484 39.0844 57.9393 39.3175 57.7959 39.6058C57.6525 39.8941 57.5795 40.2016 57.5795 40.5308V41.0594C57.5795 41.5111 57.6598 41.8931 57.8178 42.2055C57.9758 42.5178 58.197 42.7557 58.4815 42.9167C58.7659 43.08 59.0941 43.1593 59.4685 43.1593C59.7116 43.1593 59.9328 43.1257 60.1322 43.056C60.3315 42.9887 60.5017 42.883 60.6451 42.7437C60.7885 42.6043 60.9004 42.4313 60.9806 42.2247L61.8777 42.4746C61.7828 42.7749 61.6248 43.0392 61.4012 43.265C61.1775 43.4933 60.9028 43.6687 60.5746 43.7936C60.2464 43.9186 59.8793 43.9834 59.4685 43.9834H59.466Z" fill="white"/>
<path d="M51.036 10.5818C52.8978 10.3982 54.7503 10.124 56.5935 9.79449C58.3202 9.48511 60.3106 9.50054 62 9C63.6521 8.51203 65.0031 7.51312 66.6133 6.87926V5.3877H50.1389C49.1579 5.3877 48.3633 6.24541 48.3633 7.30435V10.7755C49.2557 10.7327 50.1482 10.6673 51.0383 10.5793L51.036 10.5818Z" fill="white"/>
<path d="M66.1729 7.33304C64.4954 7.88966 62.7946 8.38564 61.0728 8.80365C59.344 9.22382 57.5943 9.55086 55.8306 9.8086C53.9969 10.075 52.154 10.2937 50.3017 10.4302C49.6564 10.4778 49.0087 10.5103 48.3633 10.5363V11.6734H66.6133V7.18359C66.4665 7.23341 66.322 7.28539 66.1729 7.33304Z" fill="#EBEFFA"/>
<path d="M51.0996 5.76885C51.0996 5.76885 53.3186 0.297317 61.734 0.952987C69.8545 1.58581 70.6304 10.089 67.9985 15.0967L64.6269 15.2658C64.6269 15.2658 62.7255 14.3839 62.4964 12.5152C62.4941 12.4969 62.4918 12.4786 62.4896 12.4603C62.2559 10.539 61.523 8.33898 59.692 7.75185L51.0996 5.76885Z" fill="#E95D83"/>
<path d="M66.1566 20.6529C67.9205 20.6529 69.3504 19.2458 69.3504 17.51C69.3504 15.7743 67.9205 14.3672 66.1566 14.3672C64.3928 14.3672 62.9629 15.7743 62.9629 17.51C62.9629 19.2458 64.3928 20.6529 66.1566 20.6529Z" fill="white"/>
</g>
<defs>
<clipPath id="clip0_3879_11460">
<rect width="73" height="44" fill="white"/>
</clipPath>
</defs>
</svg>
