<svg width="24" height="24" viewBox="0 0 24 24" fill="none" xmlns="http://www.w3.org/2000/svg">
<path d="M12 19C15.866 19 19 15.866 19 12C19 8.13401 15.866 5 12 5C8.13401 5 5 8.13401 5 12C5 15.866 8.13401 19 12 19Z" fill="#ADAECF"/>
<path d="M5.89581 3.55498C5.53193 2.94637 5.69054 2.2732 6.26902 1.93201C6.8475 1.59081 7.50995 1.78446 7.87383 2.39308C8.22838 2.98325 8.11642 3.65642 7.50062 4.01606C6.92214 4.35725 6.25036 4.15438 5.89581 3.55498Z" fill="#ADAECF"/>
<path d="M12.0907 1.53576C12.156 0.83493 12.6878 0.383079 13.3596 0.438408C14.0314 0.502958 14.4512 1.0378 14.3859 1.73863C14.3206 2.42102 13.8261 2.90053 13.117 2.83598C12.4452 2.77143 12.0253 2.21815 12.0907 1.53576Z" fill="#ADAECF"/>
<path d="M18.2678 3.50897C18.7437 2.97412 19.4341 2.91879 19.9473 3.36142C20.4605 3.80405 20.4698 4.48644 20.0033 5.01206C19.5461 5.52846 18.865 5.6299 18.3238 5.15961C17.8107 4.71698 17.8106 4.02537 18.2678 3.50897Z" fill="#ADAECF"/>
<path d="M22.0921 8.70106C22.7919 8.54429 23.389 8.90393 23.5383 9.55865C23.6876 10.2134 23.2957 10.7667 22.5959 10.9234C21.8961 11.0802 21.3083 10.7574 21.1497 10.0658C21.0004 9.41111 21.411 8.8486 22.0921 8.70106Z" fill="#ADAECF"/>
<path d="M22.0826 15.1375C22.7357 15.4233 23.0063 16.0596 22.7357 16.6682C22.4651 17.2861 21.8213 17.5074 21.1589 17.2215C20.5244 16.9449 20.2165 16.3363 20.5058 15.6908C20.7763 15.0729 21.4388 14.8608 22.0826 15.1375Z" fill="#ADAECF"/>
<path d="M18.25 20.3108C18.6139 20.9194 18.446 21.5926 17.8582 21.9338C17.2704 22.275 16.6172 22.0721 16.2533 21.4635C15.8988 20.8641 16.0201 20.2002 16.6452 19.8405C17.233 19.4993 17.8955 19.7207 18.25 20.3108Z" fill="#ADAECF"/>
<path d="M12.0525 22.2748C11.9778 22.9756 11.446 23.4274 10.7742 23.3537C10.1024 23.2799 9.69189 22.7451 9.76653 22.035C9.84117 21.3526 10.3357 20.8823 11.0448 20.9561C11.7166 21.0206 12.1271 21.5832 12.0525 22.2748Z" fill="#ADAECF"/>
<path d="M5.88797 20.2462C5.41212 20.7719 4.71235 20.8272 4.20851 20.3753C3.70468 19.9235 3.69535 19.2503 4.17119 18.7247C4.63771 18.2083 5.31882 18.1253 5.85065 18.5956C6.35448 19.0475 6.35448 19.7391 5.88797 20.2462Z" fill="#ADAECF"/>
<path d="M2.10758 15.0085C1.4078 15.1561 0.810665 14.7872 0.67071 14.1325C0.530756 13.4778 0.922628 12.9245 1.63173 12.7769C2.31284 12.6294 2.91931 12.9614 3.0686 13.653C3.20855 14.3077 2.79802 14.861 2.10758 15.0085Z" fill="#ADAECF"/>
<path d="M2.17351 8.59022C1.52039 8.30435 1.25914 7.65885 1.53905 7.05024C1.81896 6.44162 2.46275 6.22031 3.11587 6.51539C3.75033 6.80126 4.0489 7.40987 3.75033 8.05538C3.47042 8.66399 2.80797 8.87608 2.16418 8.59022H2.17351Z" fill="#ADAECF"/>
</svg>
