<svg width="15" height="15" viewBox="0 0 15 15" fill="none" xmlns="http://www.w3.org/2000/svg">
<path d="M8.25871 1.28809H1V13.4755H13.1875V6.57529" stroke="#555069" stroke-width="2"/>
<rect x="11.5698" y="2.32763" width="1.55922" height="7.36298" transform="rotate(45 11.5698 2.32763)" stroke="#555069" stroke-width="1.55922"/>
<rect x="12.7949" y="0.643145" width="2.20889" height="0.909545" transform="rotate(45 12.7949 0.643145)" stroke="#555069" stroke-width="0.909545"/>
<mask id="path-4-inside-1_766_883" fill="white">
<path d="M4.58648 10.2905L5.26025 7.53418L7.46532 9.73925L4.58648 10.2905Z"/>
</mask>
<path d="M5.26025 7.53418L6.67447 6.11997L4.16138 3.60687L3.31746 7.05927L5.26025 7.53418ZM4.58648 10.2905L2.64368 9.81561L1.90427 12.8405L4.96263 12.2548L4.58648 10.2905ZM7.46532 9.73925L7.84147 11.7036L11.5483 10.9937L8.87954 8.32504L7.46532 9.73925ZM3.31746 7.05927L2.64368 9.81561L6.52928 10.7654L7.20305 8.00909L3.31746 7.05927ZM4.96263 12.2548L7.84147 11.7036L7.08918 7.77494L4.21034 8.32621L4.96263 12.2548ZM8.87954 8.32504L6.67447 6.11997L3.84604 8.94839L6.05111 11.1535L8.87954 8.32504Z" fill="#555069" mask="url(#path-4-inside-1_766_883)"/>
</svg>
