<svg width="15" height="16" viewBox="0 0 15 16" fill="none" xmlns="http://www.w3.org/2000/svg">
<path d="M13.3672 11.0734C12.9522 12.0075 12.3281 12.8276 11.5458 13.4668C10.7635 14.106 9.84517 14.5462 8.86572 14.7516C7.88627 14.957 6.87343 14.9217 5.90979 14.6485C4.94616 14.3754 4.05902 13.8722 3.32073 13.18L4.73722 11.5863C5.23096 12.0492 5.82424 12.3857 6.46867 12.5684C7.11311 12.751 7.79046 12.7746 8.44547 12.6373C9.10049 12.5 9.71462 12.2055 10.2378 11.7781C10.7609 11.3506 11.1783 10.8022 11.4559 10.1775L13.3672 11.0734Z" fill="#101423"/>
<path d="M1.63276 4.92657C2.0478 3.99251 2.67192 3.17243 3.45421 2.53322C4.23651 1.89401 5.15483 1.45376 6.13428 1.24839C7.11373 1.04302 8.12657 1.07833 9.09021 1.35145C10.0538 1.62457 10.941 2.12776 11.6793 2.81999L10.2628 4.41372C9.76904 3.95079 9.17576 3.61427 8.53133 3.43162C7.88689 3.24897 7.20954 3.22536 6.55453 3.3627C5.89951 3.50005 5.28538 3.79446 4.76222 4.22194C4.23905 4.64942 3.82167 5.19785 3.5441 5.82251L1.63276 4.92657Z" fill="#101423"/>
<ellipse cx="1.44123" cy="1.4057" rx="1.44123" ry="1.4057" transform="matrix(-0.404554 0.914514 -0.906183 -0.422886 3.71289 9.18884)" fill="#101423"/>
<ellipse cx="1.44123" cy="1.4057" rx="1.44123" ry="1.4057" transform="matrix(0.404554 -0.914514 0.906183 0.422886 11 6.63599)" fill="#101423"/>
<path d="M13.6953 12.4196L12.7345 9.69481L10.0578 10.6794" stroke="#101423" stroke-width="1.8" stroke-linecap="square"/>
<path d="M1.30469 3.58069L2.26549 6.30544L4.94219 5.32082" stroke="#101423" stroke-width="1.8" stroke-linecap="square"/>
</svg>
