<svg width="12" height="10" viewBox="0 0 12 10" fill="none" xmlns="http://www.w3.org/2000/svg">
<path d="M5.13397 0.5C5.51887 -0.166667 6.48113 -0.166667 6.86603 0.5L11.1962 8C11.5811 8.66667 11.0999 9.5 10.3301 9.5H1.66987C0.900073 9.5 0.418948 8.66667 0.803848 8L5.13397 0.5Z" fill="#FF607B"/>
<path d="M6.30183 3.2002L6.25739 6.62345H5.74183L5.69739 3.2002H6.30183ZM5.99961 8.0002C5.88998 8.0002 5.79591 7.95911 5.71739 7.87694C5.63887 7.79477 5.59961 7.69632 5.59961 7.58159C5.59961 7.46686 5.63887 7.36841 5.71739 7.28624C5.79591 7.20407 5.88998 7.16299 5.99961 7.16299C6.10924 7.16299 6.20331 7.20407 6.28183 7.28624C6.36035 7.36841 6.39961 7.46686 6.39961 7.58159C6.39961 7.65756 6.38109 7.72733 6.34405 7.79089C6.3085 7.85446 6.26035 7.90562 6.19961 7.94438C6.14035 7.98159 6.07368 8.0002 5.99961 8.0002Z" fill="white"/>
</svg>
