<svg width="12" height="12" viewBox="0 0 12 12" fill="none" xmlns="http://www.w3.org/2000/svg">
<g clip-path="url(#clip0_2352_24679)">
<path d="M6 12C9.30857 12 12 9.30857 12 6C12 2.69143 9.30857 6.33299e-08 6 6.33299e-08C2.69143 6.33299e-08 6.33299e-08 2.69143 6.33299e-08 6C6.33299e-08 9.30857 2.69143 12 6 12ZM7.77061 10.1069C8.13551 9.59755 8.48816 8.95592 8.73061 8.16735H9.91102C9.43347 9.02694 8.67918 9.71265 7.77061 10.1069ZM10.2882 4.73143C10.4082 5.13306 10.4718 5.55918 10.4718 6C10.4718 6.44082 10.4057 6.86694 10.2882 7.26857H8.94122C9.00735 6.87429 9.04653 6.45306 9.04653 6C9.04653 5.54694 9.00735 5.12571 8.94122 4.73143H10.2882ZM9.91102 3.83265H8.73061C8.48816 3.04408 8.13551 2.40245 7.77061 1.89306C8.67918 2.28735 9.43347 2.97306 9.91102 3.83265ZM6.44816 1.72408C6.88163 2.16245 7.42531 2.85796 7.77796 3.83265H6.44816V1.72408ZM6.44816 4.73143H8.02531C8.10122 5.12082 8.14776 5.54204 8.14776 6C8.14776 6.45796 8.10367 6.87918 8.02776 7.26857H6.44816V4.73143ZM6.44816 8.16735H7.78286C7.4302 9.15184 6.88408 9.84735 6.44816 10.2833V8.16735ZM2.08898 8.16735H3.26939C3.51184 8.95592 3.86449 9.59755 4.22939 10.1069C3.32082 9.71265 2.56653 9.02694 2.08898 8.16735ZM5.55184 10.2759C5.11837 9.83755 4.57469 9.14204 4.22204 8.16735H5.55184V10.2759ZM5.55184 7.26857H3.97469C3.89878 6.87918 3.85224 6.45796 3.85224 6C3.85224 5.54204 3.89633 5.12082 3.97225 4.73143H5.55184V7.26857ZM5.55184 3.83265H4.21714C4.5698 2.84816 5.11592 2.15265 5.55184 1.71673V3.83265ZM4.22939 1.89306C3.86449 2.40245 3.51184 3.04408 3.26939 3.83265H2.08898C2.56653 2.97306 3.32082 2.28735 4.22939 1.89306ZM1.52816 6C1.52816 5.55918 1.59429 5.13306 1.71184 4.73143H3.05878C2.99265 5.12571 2.95347 5.54694 2.95347 6C2.95347 6.45306 2.99265 6.87429 3.05878 7.26857H1.71184C1.59184 6.86694 1.52816 6.44082 1.52816 6Z" fill="#CDC8E1"/>
</g>
<defs>
<clipPath id="clip0_2352_24679">
<rect width="12" height="12" fill="white" transform="matrix(-1 0 0 -1 12 12)"/>
</clipPath>
</defs>
</svg>
