<svg xmlns="http://www.w3.org/2000/svg" fill="none" viewBox="0 0 470 255"><path fill="#C6C2D1" stroke="#1A2031" stroke-miterlimit="10" d="M122.872 38.761H71.15l-60.538 95.322v31.777h73.17v23.534h39.082V165.86h17.341v-31.777h-17.341V38.761h.008Zm-71.997 94.146 32.616-51.782h1.175v52.958h-33.79v-1.176ZM266.761 45.783c-9.94-6.057-21.748-9.082-35.41-9.082-13.662 0-17.107-7.139-27.171-1.36-17.917 10.281-25.755 25.238-31.119 36.812-5.365 11.573-8.072 25.646-8.116 42.217-.051 16.528 2.62 30.695 8.006 42.51 5.386 11.815 13.049 20.867 22.997 27.136 9.94 6.277 21.748 9.441 35.41 9.492 13.662 0 25.456-3.128 35.374-9.375 9.918-6.254 17.567-15.285 22.96-27.1 5.386-11.815 8.079-26.033 8.079-42.656.051-16.52-2.62-30.57-8.006-42.144-5.401-11.581-13.064-20.393-23.004-26.45Zm-18.033 103.41c-4.532 7.38-10.32 11.07-17.377 11.07-4.7 0-8.875-1.615-12.524-4.852-3.649-3.237-6.502-8.249-8.561-15.044-2.058-6.788-3.057-15.454-3.014-25.997.095-15.49 2.372-26.823 6.831-33.983 4.46-7.16 10.211-10.74 17.268-10.74 4.7 0 8.867 1.578 12.487 4.741 3.627 3.164 6.466 8.03 8.524 14.599 2.058 6.569 3.087 15.03 3.087 25.376.044 15.848-2.196 27.451-6.721 34.83Z"/><path fill="#EBEFFC" stroke="#1A2031" stroke-linecap="round" stroke-linejoin="round" stroke-miterlimit="10" d="M282.978 157.998c-9.028 1.023-18.143 1.315-27.215.745a149.954 149.954 0 0 1-13.647-1.498l-.664-.109c-2.985 1.994-6.313 3.003-9.977 3.003-4.7 0-8.875-1.615-12.524-4.852-3.51-3.113-6.276-7.869-8.312-14.27-4.014-3.478-8.838-6.546-11.487-11.164L172.834 156.2c.081.183.161.373.241.556 5.386 11.814 13.049 20.867 22.997 27.136 9.94 6.277 21.748 9.44 35.41 9.492 13.662 0 25.456-3.128 35.374-9.375 9.86-6.218 19.173-15.629 29.375-27.553-2.247.336-10.998 1.286-13.253 1.542Z"/><path fill="#fff" stroke="#1A2031" stroke-miterlimit="10" d="M140.015 21.59H88.293l-60.53 95.323v31.776h73.17v23.535h39.082v-23.535h17.34v-31.776h-17.34V21.591Zm-71.996 94.146 32.615-51.781h1.175v52.958h-33.79v-1.177ZM283.905 28.62c-9.94-6.057-21.749-9.082-35.411-9.082-13.662 0-25.456 3.017-35.374 9.045-9.918 6.028-17.559 14.833-22.923 26.406-5.364 11.574-8.072 25.646-8.116 42.218-.051 16.527 2.62 30.695 8.006 42.51 5.386 11.814 13.049 20.867 22.997 27.136 9.94 6.277 21.748 9.44 35.41 9.492 13.662 0 25.456-3.128 35.374-9.375 9.919-6.247 17.567-15.285 22.96-27.1 5.386-11.815 8.079-26.033 8.079-42.656.051-16.52-2.62-30.57-8.006-42.144-5.386-11.581-13.049-20.393-22.996-26.45Zm-18.034 103.41c-4.532 7.38-10.319 11.07-17.377 11.07-4.7 0-8.874-1.615-12.523-4.852-3.649-3.237-6.503-8.249-8.561-15.044-2.058-6.788-3.058-15.454-3.014-25.997.095-15.49 2.372-26.823 6.831-33.983 4.459-7.16 10.21-10.74 17.267-10.74 4.7 0 8.868 1.578 12.487 4.741 3.628 3.164 6.467 8.03 8.525 14.599 2.058 6.568 3.087 15.03 3.087 25.376.051 15.84-2.19 27.45-6.722 34.83Z"/><path fill="#C6C2D1" stroke="#1A2031" stroke-linecap="round" stroke-linejoin="round" stroke-miterlimit="10" d="M88.3 21.59 71.15 38.762l-60.538 95.322 17.15-17.17L88.3 21.591Z"/><path fill="#EBEFFC" stroke="#1A2031" stroke-linecap="round" stroke-linejoin="round" stroke-miterlimit="10" d="m10.612 165.852 17.15-17.163h73.171l-17.15 17.163H10.612ZM100.933 172.224l-17.15 17.17h39.089l17.143-17.17h-39.082ZM157.355 148.689l-17.15 17.163v-17.163h17.15Z"/><path fill="#C6C2D1" stroke="#1A2031" stroke-miterlimit="10" d="M426.175 38.761h-51.722l-60.531 95.322v31.777h73.171v23.534h39.082V165.86h17.34v-31.777h-17.34V38.761Zm-71.996 94.146 32.615-51.782h1.175v52.958h-33.79v-1.176Z"/><path fill="#fff" stroke="#1A2031" stroke-miterlimit="10" d="M443.325 21.59H391.603l-60.53 95.323v31.776h73.171v23.535h39.081v-23.535h17.341v-31.776h-17.341V21.591Zm-71.996 94.146 32.616-51.781h1.175v52.958h-33.791v-1.177Z"/><path fill="#C6C2D1" stroke="#1A2031" stroke-linecap="round" stroke-linejoin="round" stroke-miterlimit="10" d="m391.603 21.59-17.15 17.171-60.531 95.322 17.151-17.17 60.53-95.322Z"/><path fill="#EBEFFC" stroke="#1A2031" stroke-linecap="round" stroke-linejoin="round" stroke-miterlimit="10" d="m313.922 165.852 17.151-17.163h73.164l-17.144 17.163h-73.171ZM404.237 172.224l-17.144 17.17h39.082l17.15-17.17h-39.088ZM460.658 148.689l-17.143 17.163v-17.163h17.143Z"/><path fill="#fff" fill-rule="evenodd" d="M336.86 204.76c.496 0 .92.614.92 1.322v1.221c0 .716-.424 1.322-.92 1.322-.496 0-.919-.614-.919-1.322v-1.221c-.008-.76.423-1.322.919-1.322Z" clip-rule="evenodd" opacity=".256"/><path fill="url(#a)" d="M331.591 220.929c-11.013-6.364-28.959-6.451-40.074-.182-11.115 6.269-11.203 16.505-.183 22.877 11.013 6.364 28.959 6.451 40.074.182 11.115-6.269 11.196-16.513.183-22.877Z" opacity=".67"/><path fill="#00ABBF" d="M342.465 191.878v-39.726c0-.182.015-.365.015-.548 0-18.471-14.954-33.442-33.404-33.442-18.45 0-33.403 14.971-33.403 33.442 0 .293.014.578.022.863v36.007h-.022v18.281a4.144 4.144 0 1 0 8.29 0v-.673c.453.293.913.585 1.402.863 1.474.847 3.05 1.6 4.714 2.265v6.612a4.145 4.145 0 1 0 8.291 0v-4.216a55.55 55.55 0 0 0 7.291.921v10.156a4.144 4.144 0 1 0 8.29 0v-10.244a54.948 54.948 0 0 0 7.999-1.249v5.122a4.145 4.145 0 1 0 8.291 0v-7.957a33.409 33.409 0 0 0 2.342-1.199 27.725 27.725 0 0 0 1.606-.979v.57a4.144 4.144 0 1 0 8.291 0v-14.876h-.015v.007Z"/><path fill="url(#b)" d="M342.465 191.878v-39.726c0-.182.015-.365.015-.548 0-18.471-14.954-33.442-33.404-33.442-18.45 0-33.403 14.971-33.403 33.442 0 .293.014.578.022.863v36.007h-.022v18.281a4.144 4.144 0 1 0 8.29 0v-.673c.453.293.913.585 1.402.863 1.474.847 3.05 1.6 4.714 2.265v6.612a4.145 4.145 0 1 0 8.291 0v-4.216a55.55 55.55 0 0 0 7.291.921v10.156a4.144 4.144 0 1 0 8.29 0v-10.244a54.948 54.948 0 0 0 7.999-1.249v5.122a4.145 4.145 0 1 0 8.291 0v-7.957a33.409 33.409 0 0 0 2.342-1.199 27.725 27.725 0 0 0 1.606-.979v.57a4.144 4.144 0 1 0 8.291 0v-14.876h-.015v.007Z"/><path fill="#fff" fill-rule="evenodd" d="M278.804 180.721c.905 0 1.678 1.111 1.678 2.411v11.494c0 1.3-.773 2.411-1.678 2.411-.905 0-1.679-1.111-1.679-2.411v-11.494c0-1.3.774-2.411 1.679-2.411ZM328.168 129.86c1.102-.826 2.963-.299 4.043 1.14l1.847 2.47c1.073 1.439 1.051 3.383-.044 4.201-1.102.826-2.963.299-4.043-1.14l-1.847-2.47c-1.153-1.541-1.058-3.375.044-4.201ZM292.816 210.218c.905 0 1.679 1.111 1.679 2.411v2.229c0 1.3-.774 2.411-1.679 2.411s-1.679-1.111-1.679-2.411v-2.229c0-1.388.774-2.411 1.679-2.411ZM278.606 201.509c.905 0 1.679 1.11 1.679 2.411v2.228c0 1.301-.774 2.411-1.679 2.411s-1.678-1.11-1.678-2.411v-2.228c-.008-1.389.773-2.411 1.678-2.411ZM309.069 217.261c.905 0 1.679 1.111 1.679 2.412v2.228c0 1.301-.774 2.411-1.679 2.411s-1.679-1.11-1.679-2.411v-2.228c0-1.389.781-2.412 1.679-2.412ZM324.935 212.958c.715 0 1.335.884 1.335 1.914v1.768c0 1.031-.613 1.915-1.335 1.915-.715 0-1.336-.884-1.336-1.915v-1.768c.008-1.103.621-1.914 1.336-1.914Z" clip-rule="evenodd" opacity=".256"/><path fill="#56506B" fill-rule="evenodd" d="M317.133 176.586c3.27-.139 5.715-2.952 5.715-4.837 0-.753-.445-1.418-1.117-1.462-1.036-.109-2.598.563-4.605.643-1.854.081-3.043-.401-4.459-.343-1.482.058-1.409 1.79-1.182 2.462.525 1.864 2.306 3.676 5.648 3.537Z" clip-rule="evenodd"/><path fill="#fff" fill-rule="evenodd" d="M317.206 175c3.343-.139 5.795-2.725 5.795-4.537 0-.68-.445-1.264-1.117-1.315-1.036-.11-2.671.562-4.678.643-1.934.08-3.043-.402-4.532-.344-1.481.059-1.408 1.717-1.189 2.309.518 1.717 2.379 3.376 5.721 3.244Z" clip-rule="evenodd"/><path fill="#fff" d="M309.537 161.826c2.396-3.483 1.635-8.17-1.698-10.468-3.333-2.297-7.977-1.336-10.373 2.148-2.395 3.483-1.635 8.17 1.698 10.467 3.334 2.298 7.978 1.336 10.373-2.147Z"/><path fill="#AEAEB0" fill-rule="evenodd" d="M304.449 149.632c3.416-.139 6.167 3.215 6.167 7.438v.906c-.007-4.296-2.678-7.731-6.021-7.592-3.342.139-6.014 3.719-6.006 8.096 0 .833.073 1.659.299 2.404a9.095 9.095 0 0 1-.598-3.215c0-4.311 2.744-7.898 6.159-8.037Z" clip-rule="evenodd"/><path fill="#D2D2D2" fill-rule="evenodd" d="M304.449 148.726c3.788-.161 6.912 3.558 6.912 8.307.007 4.75-3.109 8.732-6.897 8.885-3.788.161-6.912-3.558-6.912-8.307 0-4.75 3.037-8.725 6.897-8.885Zm0 .906c-3.415.139-6.159 3.726-6.152 7.949.007 4.224 2.751 7.577 6.167 7.438 3.415-.138 6.159-3.726 6.152-7.949 0-4.231-2.824-7.577-6.167-7.438Z" clip-rule="evenodd"/><path fill="#fff" d="M334.274 160.716c2.396-3.484 1.635-8.17-1.698-10.468-3.333-2.297-7.977-1.336-10.373 2.148-2.395 3.483-1.635 8.169 1.698 10.467 3.334 2.298 7.978 1.336 10.373-2.147Z"/><path fill="#AEAEB0" fill-rule="evenodd" d="M329.022 148.521c3.415-.139 6.167 3.215 6.167 7.438v.906c-.007-4.296-2.679-7.73-6.021-7.591-3.343.139-6.014 3.719-6.006 8.095 0 .833.072 1.659.299 2.404a9.087 9.087 0 0 1-.599-3.215c0-4.311 2.744-7.891 6.16-8.037Z" clip-rule="evenodd"/><path fill="#D2D2D2" fill-rule="evenodd" d="M329.022 147.615c3.788-.161 6.911 3.558 6.911 8.308 0 4.749-3.109 8.731-6.896 8.884-3.788.154-6.912-3.558-6.912-8.307-.007-4.749 3.036-8.717 6.897-8.885Zm0 .906c-3.416.139-6.16 3.726-6.152 7.95.007 4.223 2.751 7.577 6.167 7.438 3.415-.139 6.159-3.727 6.152-7.95 0-4.223-2.824-7.577-6.167-7.438Z" clip-rule="evenodd"/><path fill="#56506B" d="M306.376 156.748a3.037 3.037 0 0 0 3.036-3.039 3.038 3.038 0 0 0-3.036-3.04 3.038 3.038 0 0 0-3.036 3.04 3.037 3.037 0 0 0 3.036 3.039ZM330.971 155.835a3.038 3.038 0 0 0 3.036-3.039c0-1.679-1.36-3.04-3.036-3.04a3.038 3.038 0 0 0-3.036 3.04 3.038 3.038 0 0 0 3.036 3.039Z"/><defs><radialGradient id="a" cx="0" cy="0" r="1" gradientTransform="matrix(23.4807 0 0 13.8649 311.458 232.276)" gradientUnits="userSpaceOnUse"><stop stop-color="#B8B2D6"/><stop offset=".346" stop-color="#BAB5D7" stop-opacity=".654"/><stop offset=".606" stop-color="#C2BFDC" stop-opacity=".394"/><stop offset=".838" stop-color="#CECFE3" stop-opacity=".162"/><stop offset="1" stop-color="#DBDFEB" stop-opacity="0"/></radialGradient><radialGradient id="b" cx="0" cy="0" r="1" gradientTransform="matrix(85.9121 0 0 86.0117 328.951 132.206)" gradientUnits="userSpaceOnUse"><stop offset=".012" stop-color="#EC71D2"/><stop offset=".494" stop-color="#B2529D"/><stop offset=".565" stop-color="#A959A0"/><stop offset=".68" stop-color="#916CA7"/><stop offset=".825" stop-color="#6A8BB3"/><stop offset=".992" stop-color="#35B6C3"/><stop offset="1" stop-color="#32B8C4"/></radialGradient></defs></svg>