<?xml version="1.0" encoding="utf-8"?>
<!-- Generator: Adobe Illustrator 27.9.0, SVG Export Plug-In . SVG Version: 6.00 Build 0)  -->
<svg version="1.1" id="Слой_1" xmlns="http://www.w3.org/2000/svg" xmlns:xlink="http://www.w3.org/1999/xlink" x="0px" y="0px"
	 viewBox="0 0 644 349" style="enable-background:new 0 0 644 349;" xml:space="preserve">
<style type="text/css">
	.st0{fill:#C6C2D1;stroke:#1A2031;stroke-miterlimit:10;}
	.st1{fill:#EBEFFC;stroke:#1A2031;stroke-linecap:round;stroke-linejoin:round;stroke-miterlimit:10;}
	.st2{fill:#FFFFFF;stroke:#1A2031;stroke-miterlimit:10;}
	.st3{fill:#C6C2D1;stroke:#1A2031;stroke-linecap:round;stroke-linejoin:round;stroke-miterlimit:10;}
	.st4{opacity:0.2563;fill-rule:evenodd;clip-rule:evenodd;fill:#FFFFFF;enable-background:new    ;}
	.st5{opacity:0.67;fill:url(#SVGID_1_);enable-background:new    ;}
	.st6{fill:#00ABBF;}
	.st7{fill:url(#SVGID_00000126289567159297848390000002526371543698933406_);}
	.st8{fill-rule:evenodd;clip-rule:evenodd;fill:#56506B;}
	.st9{fill-rule:evenodd;clip-rule:evenodd;fill:#FFFFFF;}
	.st10{fill-rule:evenodd;clip-rule:evenodd;fill:#AEAEB0;}
	.st11{fill-rule:evenodd;clip-rule:evenodd;fill:#D2D2D2;}
</style>
<path class="st0" d="M168.4,53H137h-21H97.5l-83,130.5V227h100.3v32.2h53.6V227h23.8v-43.5h-23.8V53L168.4,53z M69.7,181.9
	l44.7-70.9h1.6v72.5H69.7V181.9z"/>
<path class="st0" d="M365.5,62.7c-13.6-8.3-29.8-12.4-48.5-12.4s-23.4-9.8-37.2-1.9c-24.6,14.1-35.3,34.5-42.6,50.4
	c-7.4,15.8-11.1,35.1-11.1,57.8c-0.1,22.6,3.6,42,11,58.2s17.9,28.6,31.5,37.1c13.6,8.6,29.8,12.9,48.5,13
	c18.7,0,34.9-4.3,48.5-12.8c13.6-8.6,24.1-20.9,31.5-37.1s11.1-35.6,11.1-58.4c0.1-22.6-3.6-41.8-11-57.7
	C389.6,83,379.1,70.9,365.5,62.7z M340.8,204.2c-6.2,10.1-14.1,15.1-23.8,15.1c-6.4,0-12.2-2.2-17.2-6.6s-8.9-11.3-11.7-20.6
	c-2.8-9.3-4.2-21.1-4.1-35.6c0.1-21.2,3.2-36.7,9.4-46.5s14-14.7,23.7-14.7c6.4,0,12.1,2.2,17.1,6.5s8.9,11,11.7,20
	s4.2,20.6,4.2,34.7C350.1,178.2,347,194.1,340.8,204.2z"/>
<path class="st1" d="M387.7,216.2c-12.4,1.4-24.9,1.8-37.3,1c-6.3-0.4-12.5-1.1-18.7-2.1c-0.3-0.1-0.6-0.1-0.9-0.1
	c-4.1,2.7-8.6,4.1-13.7,4.1c-6.4,0-12.2-2.2-17.2-6.6c-4.8-4.3-8.6-10.8-11.4-19.5c-5.5-4.8-12.1-9-15.7-15.3l-36.1,36.1
	c0.1,0.2,0.2,0.5,0.3,0.8c7.4,16.2,17.9,28.6,31.5,37.1c13.6,8.6,29.8,12.9,48.5,13c18.7,0,34.9-4.3,48.5-12.8
	c13.5-8.5,26.3-21.4,40.2-37.7C402.8,214.6,390.8,215.9,387.7,216.2z"/>
<path class="st2" d="M191.9,29.5h-31.4h-20.9H121L38,160v43.5h100.3v32.2h53.6v-32.2h23.8V160h-23.8V29.5z M93.2,158.4l44.7-70.9
	h1.6V160H93.2V158.4z"/>
<path class="st2" d="M389,39.2c-13.6-8.3-29.8-12.4-48.5-12.4s-34.9,4.1-48.5,12.4s-24,20.2-31.4,36.1s-11.1,35.1-11.1,57.8
	c-0.1,22.6,3.6,42,11,58.2s17.9,28.6,31.5,37.1c13.6,8.6,29.8,12.9,48.5,13c18.7,0,34.9-4.3,48.5-12.8s24.1-20.9,31.5-37.1
	s11.1-35.6,11.1-58.4c0.1-22.6-3.6-41.8-11-57.7C413.1,59.5,402.6,47.5,389,39.2z M364.3,180.7c-6.2,10.1-14.1,15.1-23.8,15.1
	c-6.4,0-12.2-2.2-17.2-6.6s-8.9-11.3-11.7-20.6c-2.8-9.3-4.2-21.1-4.1-35.6c0.1-21.2,3.2-36.7,9.4-46.5s14-14.7,23.7-14.7
	c6.4,0,12.1,2.2,17.1,6.5s8.9,11,11.7,20s4.2,20.6,4.2,34.7C373.6,154.7,370.5,170.6,364.3,180.7z"/>
<polygon class="st3" points="121,29.5 97.5,53 14.5,183.5 38,160 "/>
<polygon class="st1" points="14.5,227 38,203.5 138.3,203.5 114.8,227 "/>
<polygon class="st1" points="138.3,235.7 114.8,259.2 168.4,259.2 191.9,235.7 "/>
<polygon class="st1" points="215.6,203.5 192.1,227 192.1,203.5 "/>
<path class="st0" d="M584,53h-31.4h-20.9h-18.5l-82.9,130.5V227h100.3v32.2H584V227h23.8v-43.5H584V53z M485.3,181.9L530,111h1.6
	v72.5h-46.3V181.9z"/>
<path class="st2" d="M607.5,29.5H576h-20.9h-18.5l-83,130.5v43.5h100.3v32.2h53.5v-32.2h23.8V160h-23.8L607.5,29.5L607.5,29.5z
	 M508.8,158.4l44.7-70.9h1.6V160h-46.3V158.4z"/>
<polygon class="st3" points="536.6,29.5 513.1,53 430.1,183.5 453.6,160 "/>
<polygon class="st1" points="430.1,227 453.6,203.5 553.9,203.5 530.4,227 "/>
<polygon class="st1" points="553.9,235.7 530.4,259.2 584,259.2 607.5,235.7 "/>
<polygon class="st1" points="631.2,203.5 607.7,227 607.7,203.5 "/>
<g>
	<path id="矩形_00000023265548685974492650000012939252271848885664_" class="st4" d="M461.6,280.2L461.6,280.2
		c0.7,0,1.3,0.8,1.3,1.8v1.7c0,1-0.6,1.8-1.3,1.8l0,0c-0.7,0-1.3-0.8-1.3-1.8V282C460.3,281,460.9,280.2,461.6,280.2z"/>
	
		<radialGradient id="SVGID_1_" cx="426.7936" cy="1026.6132" r="32.1614" gradientTransform="matrix(1 0 0 0.5898 0 -287.5964)" gradientUnits="userSpaceOnUse">
		<stop  offset="0" style="stop-color:#B8B2D6"/>
		<stop  offset="0.3457" style="stop-color:#BAB5D7;stop-opacity:0.6543"/>
		<stop  offset="0.6064" style="stop-color:#C2BFDC;stop-opacity:0.3936"/>
		<stop  offset="0.8384" style="stop-color:#CECFE3;stop-opacity:0.1616"/>
		<stop  offset="1" style="stop-color:#DBDFEB;stop-opacity:0"/>
	</radialGradient>
	<path class="st5" d="M454.4,302.4c-15.1-8.7-39.7-8.8-54.9-0.2s-15.4,22.6-0.2,31.3c15.1,8.7,39.7,8.8,54.9,0.2
		C469.3,325.1,469.4,311.1,454.4,302.4z"/>
	<g>
		<path class="st6" d="M469.2,262.6v-54.4c0-0.2,0-0.5,0-0.8c0-25.3-20.5-45.8-45.8-45.8s-45.8,20.5-45.8,45.8c0,0.4,0,0.8,0,1.2
			v49.3l0,0v25c0,3.1,2.5,5.7,5.7,5.7s5.7-2.5,5.7-5.7V282c0.6,0.4,1.2,0.8,1.9,1.2c2,1.2,4.2,2.2,6.5,3.1v9c0,3.1,2.5,5.7,5.7,5.7
			s5.7-2.5,5.7-5.7v-5.8c3.2,0.6,6.6,1.1,10,1.3v13.9c0,3.1,2.5,5.7,5.7,5.7s5.7-2.5,5.7-5.7v-14c3.7-0.3,7.4-0.9,11-1.7v7
			c0,3.1,2.5,5.7,5.7,5.7s5.7-2.5,5.7-5.7v-10.9c1.1-0.5,2.2-1.1,3.2-1.6c0.8-0.4,1.5-0.9,2.2-1.3v0.8c0,3.1,2.5,5.7,5.7,5.7
			s5.7-2.5,5.7-5.7L469.2,262.6L469.2,262.6L469.2,262.6z"/>
		
			<radialGradient id="SVGID_00000086650634712063611260000017762619427195063217_" cx="450.7333" cy="598.941" r="117.7179" gradientTransform="matrix(1 0 0 1 0 -418)" gradientUnits="userSpaceOnUse">
			<stop  offset="1.240000e-02" style="stop-color:#EC71D2"/>
			<stop  offset="0.4936" style="stop-color:#B2529D"/>
			<stop  offset="0.5648" style="stop-color:#A959A0"/>
			<stop  offset="0.68" style="stop-color:#916CA7"/>
			<stop  offset="0.8249" style="stop-color:#6A8BB3"/>
			<stop  offset="0.9924" style="stop-color:#35B6C3"/>
			<stop  offset="1" style="stop-color:#32B8C4"/>
		</radialGradient>
		<path style="fill:url(#SVGID_00000086650634712063611260000017762619427195063217_);" d="M469.2,262.6v-54.4c0-0.2,0-0.5,0-0.8
			c0-25.3-20.5-45.8-45.8-45.8s-45.8,20.5-45.8,45.8c0,0.4,0,0.8,0,1.2v49.3l0,0v25c0,3.1,2.5,5.7,5.7,5.7s5.7-2.5,5.7-5.7V282
			c0.6,0.4,1.2,0.8,1.9,1.2c2,1.2,4.2,2.2,6.5,3.1v9c0,3.1,2.5,5.7,5.7,5.7s5.7-2.5,5.7-5.7v-5.8c3.2,0.6,6.6,1.1,10,1.3v13.9
			c0,3.1,2.5,5.7,5.7,5.7s5.7-2.5,5.7-5.7v-14c3.7-0.3,7.4-0.9,11-1.7v7c0,3.1,2.5,5.7,5.7,5.7s5.7-2.5,5.7-5.7v-10.9
			c1.1-0.5,2.2-1.1,3.2-1.6c0.8-0.4,1.5-0.9,2.2-1.3v0.8c0,3.1,2.5,5.7,5.7,5.7s5.7-2.5,5.7-5.7L469.2,262.6L469.2,262.6
			L469.2,262.6z"/>
	</g>
	<path id="矩形_00000157274327544546760850000005986341179244808861_" class="st4" d="M382,247.3L382,247.3c1.2,0,2.3,1.5,2.3,3.3
		v15.7c0,1.8-1.1,3.3-2.3,3.3l0,0c-1.2,0-2.3-1.5-2.3-3.3v-15.7C379.7,248.9,380.8,247.3,382,247.3z"/>
	<path id="矩形_00000023269522807934098110000015755908045546535095_" class="st4" d="M449.7,177.7L449.7,177.7
		c1.5-1.1,4.1-0.4,5.5,1.6l2.5,3.4c1.5,2,1.4,4.6-0.1,5.8l0,0c-1.5,1.1-4.1,0.4-5.5-1.6l-2.5-3.4C448,181.4,448.1,178.9,449.7,177.7
		z"/>
	<path id="矩形_00000121994917870820220140000009013383381852214175_" class="st4" d="M401.2,287.7L401.2,287.7
		c1.2,0,2.3,1.5,2.3,3.3v3c0,1.8-1.1,3.3-2.3,3.3l0,0c-1.2,0-2.3-1.5-2.3-3.3v-3C398.9,289.1,400,287.7,401.2,287.7z"/>
	<path id="矩形_00000142874391440305036330000006669835717772360067_" class="st4" d="M381.8,275.8L381.8,275.8
		c1.2,0,2.3,1.5,2.3,3.3v3c0,1.8-1.1,3.3-2.3,3.3l0,0c-1.2,0-2.3-1.5-2.3-3.3v-3C379.4,277.2,380.5,275.8,381.8,275.8z"/>
	<path id="矩形_00000034803884158828925040000006312913904657730977_" class="st4" d="M423.5,297.4L423.5,297.4
		c1.2,0,2.3,1.5,2.3,3.3v3c0,1.8-1.1,3.3-2.3,3.3l0,0c-1.2,0-2.3-1.5-2.3-3.3v-3C421.2,298.8,422.3,297.4,423.5,297.4z"/>
	<path id="矩形_00000183962904679116055400000014016392506755116982_" class="st4" d="M445.2,291.5L445.2,291.5
		c1,0,1.8,1.2,1.8,2.6v2.4c0,1.4-0.8,2.6-1.8,2.6l0,0c-1,0-1.8-1.2-1.8-2.6v-2.4C443.4,292.6,444.2,291.5,445.2,291.5z"/>
	<g>
		<path id="椭圆形_00000137837967559389343030000015358377626584497803_" class="st8" d="M434.5,241.7c4.5-0.2,7.8-4,7.8-6.6
			c0-1-0.6-1.9-1.5-2c-1.4-0.1-3.6,0.8-6.3,0.9c-2.5,0.1-4.2-0.6-6.1-0.5c-2,0.1-1.9,2.4-1.6,3.4C427.5,239.4,430,241.9,434.5,241.7
			z"/>
		<path id="椭圆形_00000095337929613898024040000008905464957124237232_" class="st9" d="M434.6,239.5c4.6-0.2,7.9-3.7,7.9-6.2
			c0-0.9-0.6-1.7-1.5-1.8c-1.4-0.1-3.7,0.8-6.4,0.9c-2.6,0.1-4.2-0.6-6.2-0.5s-1.9,2.4-1.6,3.2C427.5,237.4,430.1,239.7,434.6,239.5
			z"/>
	</g>
	<g>
		
			<ellipse transform="matrix(0.5671 -0.8237 0.8237 0.5671 2.3502 435.9774)" class="st9" cx="415.9" cy="215.8" rx="10.5" ry="10"/>
		<path id="形状结合_00000153672998867488876740000017650498821324272023_" class="st10" d="M417.2,204.8
			c4.7-0.2,8.5,4.4,8.5,10.2c0,0.2,0,0.4,0,0.6v0.6c0-5.9-3.7-10.6-8.2-10.4s-8.2,5.1-8.2,11.1c0,1.1,0.1,2.3,0.4,3.3
			c-0.5-1.3-0.8-2.9-0.8-4.4C408.7,209.9,412.5,205,417.2,204.8z"/>
		<path id="形状结合_00000085955223974186114990000002304969850617821353_" class="st11" d="M417.2,203.6
			c5.2-0.2,9.5,4.9,9.5,11.4s-4.3,11.9-9.5,12.2c-5.2,0.2-9.5-4.9-9.5-11.4S411.9,203.8,417.2,203.6z M417.2,204.8
			c-4.7,0.2-8.4,5.1-8.4,10.9s3.8,10.4,8.5,10.2s8.4-5.1,8.4-10.9C425.6,209.2,421.7,204.6,417.2,204.8z"/>
	</g>
	<g>
		
			<ellipse transform="matrix(0.5671 -0.8237 0.8237 0.5671 18.2794 463.2562)" class="st9" cx="449.8" cy="214.2" rx="10.5" ry="10"/>
		<path id="形状结合_00000150817725586915542540000007765414565157247658_" class="st10" d="M450.8,203.3
			c4.7-0.2,8.5,4.4,8.5,10.2c0,0.2,0,0.4,0,0.6v0.6c0-5.9-3.7-10.6-8.2-10.4s-8.2,5.1-8.2,11.1c0,1.1,0.1,2.3,0.4,3.3
			c-0.5-1.3-0.8-2.9-0.8-4.4C442.4,208.4,446.1,203.5,450.8,203.3z"/>
		<path id="形状结合_00000126317089401196512530000008566344633865675666_" class="st11" d="M450.8,202
			c5.2-0.2,9.5,4.9,9.5,11.4s-4.3,11.9-9.5,12.2s-9.5-4.9-9.5-11.4C441.4,207.7,445.5,202.3,450.8,202z M450.8,203.3
			c-4.7,0.2-8.4,5.1-8.4,10.9s3.8,10.4,8.5,10.2s8.4-5.1,8.4-10.9C459.3,207.7,455.4,203.1,450.8,203.3z"/>
	</g>
	<circle class="st8" cx="419.8" cy="210.4" r="4.2"/>
	<circle class="st8" cx="453.5" cy="209.1" r="4.2"/>
</g>
</svg>
