<svg xmlns="http://www.w3.org/2000/svg" xml:space="preserve" id="Слой_1" x="0" y="0" version="1.1" viewBox="0 0 644 349"><style>.st0,.st1,.st2{stroke:#000;stroke-linecap:round;stroke-linejoin:round;stroke-miterlimit:10}.st1,.st2{fill:#0c101e}.st2{fill:#2f3461}.st10,.st3,.st7,.st8,.st9{fill-rule:evenodd;clip-rule:evenodd}.st3{opacity:.2563;fill:#fff;enable-background:new}.st10,.st7,.st8,.st9{fill:#56506b}.st10,.st8,.st9{fill:#fff}.st10,.st9{fill:#aeaeb0}.st10{fill:#d2d2d2}</style><path d="M168.36 53.05H97.49L14.54 183.51V227H114.8v32.21h53.55V227h23.76v-43.49h-23.76l.01-130.46h0zM69.71 181.9l44.69-70.87h1.61v72.48h-46.3v-1.61zM365.52 62.66c-13.62-8.29-29.8-12.43-48.52-12.43s-23.44-9.77-37.23-1.86c-24.55 14.07-35.29 34.54-42.64 50.38-7.35 15.84-11.06 35.1-11.12 57.78-.07 22.62 3.59 42.01 10.97 58.18s17.88 28.56 31.51 37.14c13.62 8.59 29.8 12.92 48.52 12.99 18.72 0 34.88-4.28 48.47-12.83 13.59-8.56 24.07-20.92 31.46-37.09 7.38-16.17 11.07-35.63 11.07-58.38.07-22.61-3.59-41.84-10.97-57.68-7.4-15.85-17.9-27.91-31.52-36.2zm-24.71 141.53c-6.21 10.1-14.14 15.15-23.81 15.15-6.44 0-12.16-2.21-17.16-6.64s-8.91-11.29-11.73-20.59c-2.82-9.29-4.19-21.15-4.13-35.58.13-21.2 3.25-36.71 9.36-46.51s13.99-14.7 23.66-14.7c6.44 0 12.15 2.16 17.11 6.49 4.97 4.33 8.86 10.99 11.68 19.98s4.23 20.57 4.23 34.73c.06 21.69-3.01 37.57-9.21 47.67z" class="st0"/><path d="M387.74 216.24c-12.37 1.4-24.86 1.8-37.29 1.02-6.26-.39-12.5-1.09-18.7-2.05l-.91-.15c-4.09 2.73-8.65 4.11-13.67 4.11-6.44 0-12.16-2.21-17.16-6.64-4.81-4.26-8.6-10.77-11.39-19.53-5.5-4.76-12.11-8.96-15.74-15.28l-36.06 36.06c.11.25.22.51.33.76 7.38 16.17 17.88 28.56 31.51 37.14 13.62 8.59 29.8 12.92 48.52 12.99 18.72 0 34.88-4.28 48.47-12.83 13.51-8.51 26.27-21.39 40.25-37.71-3.08.46-15.07 1.76-18.16 2.11z" class="st1"/><path d="M191.85 29.55h-70.87L38.04 160.01v43.49H138.3v32.21h53.55V203.5h23.76v-43.49h-23.76V29.55zM93.2 158.4l44.69-70.87h1.61v72.48H93.2v-1.61zM389.01 39.17c-13.62-8.29-29.8-12.43-48.52-12.43s-34.88 4.13-48.47 12.38-24.06 20.3-31.41 36.14-11.06 35.1-11.12 57.78c-.07 22.62 3.59 42.01 10.97 58.18s17.88 28.56 31.51 37.14c13.62 8.59 29.8 12.92 48.52 12.99 18.72 0 34.88-4.28 48.47-12.83s24.07-20.92 31.46-37.09c7.38-16.17 11.07-35.63 11.07-58.38.07-22.61-3.59-41.84-10.97-57.68-7.38-15.85-17.88-27.91-31.51-36.2zM364.3 180.7c-6.21 10.1-14.14 15.15-23.81 15.15-6.44 0-12.16-2.21-17.16-6.64s-8.91-11.29-11.73-20.59c-2.82-9.29-4.19-21.15-4.13-35.58.13-21.2 3.25-36.71 9.36-46.51s13.99-14.7 23.66-14.7c6.44 0 12.15 2.16 17.11 6.49 4.97 4.33 8.86 10.99 11.68 19.98s4.23 20.57 4.23 34.73c.07 21.68-3 37.57-9.21 47.67z" class="st2"/><path d="m120.99 29.55-23.5 23.5-82.95 130.46 23.5-23.5zM14.54 226.99l23.5-23.49H138.3l-23.5 23.49zM138.3 235.71l-23.5 23.5h53.56l23.49-23.5zM215.61 203.5l-23.5 23.49V203.5z" class="st1"/><path d="M583.95 53.05h-70.87l-82.94 130.46V227H530.4v32.21h53.55V227h23.76v-43.49h-23.76V53.05zM485.3 181.9l44.69-70.87h1.61v72.48h-46.3v-1.61z" class="st0"/><path d="M607.45 29.55h-70.87l-82.94 130.46v43.49H553.9v32.21h53.55V203.5h23.76v-43.49h-23.76V29.55h0zM508.8 158.4l44.69-70.87h1.61v72.48h-46.3v-1.61z" class="st2"/><path d="m536.58 29.55-23.5 23.5-82.94 130.46 23.5-23.5z" class="st0"/><path d="m430.14 226.99 23.5-23.49h100.25l-23.49 23.49zM553.89 235.71l-23.49 23.5h53.55l23.5-23.5zM631.2 203.5l-23.49 23.49V203.5z" class="st1"/><path id="矩形_00000023265548685974492650000012939252271848885664_" d="M461.57 280.24c.68 0 1.26.84 1.26 1.81v1.67c0 .98-.58 1.81-1.26 1.81s-1.26-.84-1.26-1.81v-1.67c-.01-1.04.58-1.81 1.26-1.81z" class="st3"/><radialGradient id="SVGID_1_" cx="426.768" cy="-221.752" r="32.172" gradientTransform="matrix(1 0 0 -.5898 0 187.11)" gradientUnits="userSpaceOnUse"><stop offset="0" stop-color="#06070c"/><stop offset="1" stop-color="#0c101e" stop-opacity="0"/></radialGradient><path fill="url(#SVGID_1_)" d="M454.35 302.37c-15.09-8.71-39.68-8.83-54.91-.25s-15.35 22.59-.25 31.31c15.09 8.71 39.68 8.83 54.91.25 15.23-8.58 15.34-22.6.25-31.31z" opacity=".67"/><path fill="#00abbf" d="M469.25 262.61v-54.37c0-.25.02-.5.02-.75 0-25.28-20.49-45.77-45.77-45.77s-45.77 20.49-45.77 45.77c0 .4.02.79.03 1.18v49.28h-.03v25.02c0 3.14 2.54 5.68 5.68 5.68s5.68-2.54 5.68-5.68v-.92c.62.4 1.25.8 1.92 1.18 2.02 1.16 4.18 2.19 6.46 3.1v9.05c0 3.14 2.54 5.68 5.68 5.68s5.68-2.54 5.68-5.68v-5.77c3.25.63 6.61 1.06 9.99 1.26v13.9c0 3.14 2.54 5.68 5.68 5.68s5.68-2.54 5.68-5.68v-14.02c3.74-.31 7.42-.88 10.96-1.71v7.01c0 3.14 2.54 5.68 5.68 5.68s5.68-2.54 5.68-5.68v-10.89c1.1-.51 2.18-1.06 3.21-1.64.77-.43 1.49-.88 2.2-1.34v.78c0 3.14 2.54 5.68 5.68 5.68s5.68-2.54 5.68-5.68V262.6h-.02v.01z"/><radialGradient id="SVGID_00000083767979997059690680000004673481109941687948_" cx="450.733" cy="169.059" r="117.718" gradientTransform="matrix(1 0 0 -1 0 350)" gradientUnits="userSpaceOnUse"><stop offset=".012" stop-color="#ec71d2"/><stop offset=".494" stop-color="#b2529d"/><stop offset=".565" stop-color="#a959a0"/><stop offset=".68" stop-color="#916ca7"/><stop offset=".825" stop-color="#6a8bb3"/><stop offset=".992" stop-color="#35b6c3"/><stop offset="1" stop-color="#32b8c4"/></radialGradient><path fill="url(#SVGID_00000083767979997059690680000004673481109941687948_)" d="M469.25 262.61v-54.37c0-.25.02-.5.02-.75 0-25.28-20.49-45.77-45.77-45.77s-45.77 20.49-45.77 45.77c0 .4.02.79.03 1.18v49.28h-.03v25.02c0 3.14 2.54 5.68 5.68 5.68s5.68-2.54 5.68-5.68v-.92c.62.4 1.25.8 1.92 1.18 2.02 1.16 4.18 2.19 6.46 3.1v9.05c0 3.14 2.54 5.68 5.68 5.68s5.68-2.54 5.68-5.68v-5.77c3.25.63 6.61 1.06 9.99 1.26v13.9c0 3.14 2.54 5.68 5.68 5.68s5.68-2.54 5.68-5.68v-14.02c3.74-.31 7.42-.88 10.96-1.71v7.01c0 3.14 2.54 5.68 5.68 5.68s5.68-2.54 5.68-5.68v-10.89c1.1-.51 2.18-1.06 3.21-1.64.77-.43 1.49-.88 2.2-1.34v.78c0 3.14 2.54 5.68 5.68 5.68s5.68-2.54 5.68-5.68V262.6h-.02v.01z"/><path id="矩形_00000157274327544546760850000005986341179244808861_" d="M382.02 247.34c1.24 0 2.3 1.52 2.3 3.3v15.73c0 1.78-1.06 3.3-2.3 3.3-1.24 0-2.3-1.52-2.3-3.3v-15.73c0-1.78 1.06-3.3 2.3-3.3z" class="st3"/><path id="矩形_00000023269522807934098110000015755908045546535095_" d="M449.66 177.73c1.51-1.13 4.06-.41 5.54 1.56l2.53 3.38c1.47 1.97 1.44 4.63-.06 5.75-1.51 1.13-4.06.41-5.54-1.56l-2.53-3.38c-1.58-2.11-1.45-4.62.06-5.75z" class="st3"/><path id="矩形_00000121994917870820220140000009013383381852214175_" d="M401.22 287.71c1.24 0 2.3 1.52 2.3 3.3v3.05c0 1.78-1.06 3.3-2.3 3.3-1.24 0-2.3-1.52-2.3-3.3v-3.05c0-1.9 1.06-3.3 2.3-3.3z" class="st3"/><path id="矩形_00000142874391440305036330000006669835717772360067_" d="M381.75 275.79c1.24 0 2.3 1.52 2.3 3.3v3.05c0 1.78-1.06 3.3-2.3 3.3-1.24 0-2.3-1.52-2.3-3.3v-3.05c-.01-1.9 1.06-3.3 2.3-3.3z" class="st3"/><path id="矩形_00000034803884158828925040000006312913904657730977_" d="M423.49 297.35c1.24 0 2.3 1.52 2.3 3.3v3.05c0 1.78-1.06 3.3-2.3 3.3-1.24 0-2.3-1.52-2.3-3.3v-3.05c0-1.9 1.07-3.3 2.3-3.3z" class="st3"/><path id="矩形_00000183962904679116055400000014016392506755116982_" d="M445.23 291.46c.98 0 1.83 1.21 1.83 2.62v2.42c0 1.41-.84 2.62-1.83 2.62-.98 0-1.83-1.21-1.83-2.62v-2.42c.01-1.51.85-2.62 1.83-2.62z" class="st3"/><path id="椭圆形_00000137837967559389343030000015358377626584497803_" d="M434.54 241.68c4.48-.19 7.83-4.04 7.83-6.62 0-1.03-.61-1.94-1.53-2-1.42-.15-3.56.77-6.31.88-2.54.11-4.17-.55-6.11-.47-2.03.08-1.93 2.45-1.62 3.37.72 2.55 3.16 5.03 7.74 4.84z" class="st7"/><path id="椭圆形_00000095337929613898024040000008905464957124237232_" d="M434.64 239.51c4.58-.19 7.94-3.73 7.94-6.21 0-.93-.61-1.73-1.53-1.8-1.42-.15-3.66.77-6.41.88-2.65.11-4.17-.55-6.21-.47-2.03.08-1.93 2.35-1.63 3.16.71 2.35 3.26 4.62 7.84 4.44z" class="st8"/><ellipse cx="415.86" cy="215.79" class="st8" rx="10.48" ry="10.04" transform="rotate(-55.453 415.844 215.777)"/><path id="形状结合_00000153672998867488876740000017650498821324272023_" d="M417.16 204.79c4.68-.19 8.45 4.4 8.45 10.18v1.24c-.01-5.88-3.67-10.58-8.25-10.39s-8.24 5.09-8.23 11.08c0 1.14.1 2.27.41 3.29-.51-1.32-.82-2.86-.82-4.4 0-5.9 3.76-10.81 8.44-11z" class="st9"/><path id="形状结合_00000085955223974186114990000002304969850617821353_" d="M417.16 203.55c5.19-.22 9.47 4.87 9.47 11.37.01 6.5-4.26 11.95-9.45 12.16-5.19.22-9.47-4.87-9.47-11.37s4.16-11.94 9.45-12.16zm0 1.24c-4.68.19-8.44 5.1-8.43 10.88s3.77 10.37 8.45 10.18 8.44-5.1 8.43-10.88c0-5.79-3.87-10.37-8.45-10.18z" class="st10"/><ellipse cx="449.76" cy="214.27" class="st8" rx="10.48" ry="10.04" transform="rotate(-55.453 449.738 214.257)"/><path id="形状结合_00000150817725586915542540000007765414565157247658_" d="M450.83 203.27c4.68-.19 8.45 4.4 8.45 10.18v1.24c-.01-5.88-3.67-10.58-8.25-10.39s-8.24 5.09-8.23 11.08c0 1.14.1 2.27.41 3.29-.51-1.32-.82-2.86-.82-4.4 0-5.9 3.76-10.8 8.44-11z" class="st9"/><path id="形状结合_00000126317089401196512530000008566344633865675666_" d="M450.83 202.03c5.19-.22 9.47 4.87 9.47 11.37s-4.26 11.95-9.45 12.16-9.47-4.87-9.47-11.37c-.01-6.5 4.16-11.93 9.45-12.16zm0 1.24c-4.68.19-8.44 5.1-8.43 10.88s3.77 10.37 8.45 10.18 8.44-5.1 8.43-10.88c0-5.78-3.87-10.37-8.45-10.18z" class="st10"/><circle cx="419.8" cy="210.37" r="4.16" class="st7"/><circle cx="453.5" cy="209.12" r="4.16" class="st7"/></svg>