<?xml version="1.0" encoding="UTF-8"?>
<svg id="_Слой_2" data-name="Слой 2" xmlns="http://www.w3.org/2000/svg" viewBox="0 0 309.37 158.88">
  <defs>
    <style>
      .cls-1 {
      stroke: #1d1d1b;
      }

      .cls-1, .cls-2, .cls-3, .cls-4 {
      stroke-linecap: round;
      stroke-linejoin: round;
      }

      .cls-1, .cls-3, .cls-5 {
      fill: #fff;
      }

      .cls-6 {
      fill: #1d1d1b;
      }

      .cls-2 {
      fill: #c6c2d1;
      stroke: #0f1321;
      }

      .cls-2, .cls-3, .cls-4, .cls-5, .cls-7 {
      fill-rule: evenodd;
      }

      .cls-3, .cls-4 {
      stroke: #101423;
      }

      .cls-4 {
      fill: #eaeffc;
      }

      .cls-5 {
      isolation: isolate;
      }

      .cls-7 {
      fill: #101423;
      }
    </style>
  </defs>
  <g id="_Слой_1-2" data-name="Слой 1">
    <g>
      <path class="cls-6" d="m120.98,31.91l-16.41,47.53h10.77l3.53-10.84h17.16l3.52,10.84h10.77l-16.38-47.53h-12.95Zm.44,28.85l5.85-17.99h.37l5.84,17.99h-12.06Z"/>
      <path class="cls-6" d="m169.86,31.91l-16.41,47.53h10.77l3.53-10.84h17.16l3.52,10.84h10.77l-16.38-47.53h-12.95Zm.44,28.85l5.85-17.99h.37l5.84,17.99h-12.06Z"/>
      <polygon class="cls-6" points="219.52 68.02 219.08 68.02 207.59 31.91 196.43 31.91 212.84 79.44 225.78 79.44 242.17 31.91 231.03 31.91 219.52 68.02"/>
      <polygon class="cls-6" points="257.93 71.16 257.93 59.81 278.26 59.81 278.26 51.52 257.93 51.52 257.93 40.2 279.9 40.2 279.9 31.91 247.88 31.91 247.88 79.44 280 79.44 280 71.16 257.93 71.16"/>
    </g>
    <g>
      <path class="cls-6" d="m123.91,106.03c-.25-.77-.58-1.47-.99-2.09-.41-.62-.9-1.14-1.46-1.58s-1.2-.77-1.91-1-1.49-.34-2.34-.34c-1.39,0-2.66.36-3.8,1.08-1.14.72-2.05,1.78-2.72,3.18-.67,1.4-1.01,3.12-1.01,5.16s.34,3.76,1.02,5.16c.68,1.4,1.6,2.46,2.77,3.18,1.16.72,2.47,1.08,3.93,1.08,1.35,0,2.54-.29,3.57-.87,1.03-.58,1.83-1.4,2.41-2.46.58-1.06.87-2.31.87-3.75l.87.18h-7.08v-2.53h8.96v2.53c0,1.94-.41,3.62-1.23,5.06-.82,1.43-1.96,2.54-3.4,3.33s-3.1,1.18-4.97,1.18c-2.08,0-3.91-.49-5.49-1.47-1.57-.98-2.8-2.37-3.68-4.18-.88-1.81-1.32-3.95-1.32-6.43,0-1.86.25-3.54.75-5.03.5-1.49,1.21-2.76,2.13-3.81.92-1.05,2.01-1.85,3.26-2.41,1.26-.56,2.64-.84,4.15-.84,1.24,0,2.4.19,3.48.56,1.08.37,2.04.9,2.88,1.57.85.68,1.55,1.49,2.12,2.42.57.94.96,1.98,1.17,3.12h-2.94Z"/>
      <path class="cls-6" d="m138.66,122.58c-1.59,0-2.99-.38-4.19-1.14s-2.13-1.82-2.8-3.18c-.67-1.36-1.01-2.96-1.01-4.78s.33-3.44,1.01-4.81c.67-1.37,1.6-2.44,2.8-3.19,1.2-.76,2.59-1.14,4.19-1.14s2.99.38,4.19,1.14c1.2.76,2.13,1.82,2.8,3.19s1.01,2.98,1.01,4.81-.33,3.42-1.01,4.78-1.6,2.42-2.8,3.18-2.59,1.14-4.19,1.14Zm0-2.44c1.21,0,2.21-.31,2.99-.93.78-.62,1.36-1.44,1.73-2.45.38-1.01.56-2.11.56-3.29s-.19-2.28-.56-3.3c-.38-1.02-.95-1.84-1.73-2.47s-1.78-.94-2.99-.94-2.21.31-2.99.94-1.36,1.45-1.73,2.47c-.38,1.02-.56,2.12-.56,3.3s.19,2.28.56,3.29c.38,1.01.95,1.83,1.73,2.45.78.62,1.78.93,2.99.93Z"/>
      <path class="cls-6" d="m164.58,104.56l-6.53,17.65h-2.76l-6.53-17.65h2.94l4.87,14.06h.18l4.87-14.06h2.94Z"/>
      <path class="cls-6" d="m174.92,122.58c-1.7,0-3.17-.38-4.39-1.13-1.23-.75-2.18-1.81-2.84-3.17-.66-1.36-.99-2.94-.99-4.75s.33-3.4.99-4.79c.66-1.38,1.59-2.46,2.78-3.24,1.19-.78,2.58-1.17,4.18-1.17.92,0,1.83.15,2.72.46s1.71.8,2.45,1.49,1.32,1.59,1.76,2.72.65,2.51.65,4.16v1.15h-13.6v-2.34h10.85c0-1-.2-1.88-.59-2.67s-.95-1.4-1.68-1.85c-.72-.45-1.58-.68-2.56-.68-1.08,0-2.01.27-2.8.8s-1.39,1.22-1.81,2.07c-.42.85-.63,1.76-.63,2.73v1.56c0,1.33.23,2.46.7,3.38.46.92,1.11,1.62,1.94,2.1.83.48,1.79.72,2.88.72.71,0,1.36-.1,1.94-.3.58-.2,1.08-.51,1.5-.92.42-.41.75-.92.98-1.53l2.62.74c-.28.89-.74,1.67-1.39,2.34-.65.67-1.46,1.19-2.41,1.56s-2.03.56-3.23.56Z"/>
      <path class="cls-6" d="m186.36,122.21v-17.65h2.62v2.67h.18c.32-.87.9-1.58,1.75-2.12.84-.54,1.79-.82,2.85-.82.2,0,.45,0,.75.01.3,0,.52.02.68.03v2.76c-.09-.02-.3-.06-.63-.11-.33-.05-.67-.07-1.03-.07-.86,0-1.62.18-2.29.53-.67.36-1.2.85-1.59,1.47s-.58,1.33-.58,2.13v11.17h-2.71Z"/>
      <path class="cls-6" d="m201.11,111.59v10.62h-2.71v-17.65h2.62v2.76h.23c.41-.9,1.04-1.62,1.88-2.17.84-.55,1.93-.82,3.26-.82,1.19,0,2.24.24,3.14.73s1.59,1.22,2.09,2.21c.5.98.75,2.23.75,3.73v11.21h-2.71v-11.03c0-1.39-.36-2.47-1.08-3.25-.72-.78-1.71-1.17-2.96-1.17-.87,0-1.64.19-2.31.56-.68.38-1.21.92-1.6,1.64-.39.72-.59,1.59-.59,2.62Z"/>
      <path class="cls-6" d="m222.53,122.62c-1.12,0-2.13-.21-3.04-.64s-1.64-1.04-2.17-1.85c-.54-.81-.8-1.79-.8-2.94,0-1.01.2-1.83.6-2.46.4-.63.93-1.13,1.6-1.49.67-.36,1.4-.63,2.21-.81.81-.18,1.62-.32,2.44-.43,1.07-.14,1.94-.24,2.61-.32.67-.07,1.16-.2,1.47-.37.31-.18.47-.48.47-.92v-.09c0-1.13-.31-2.01-.92-2.64s-1.55-.94-2.8-.94-2.31.28-3.04.85c-.74.57-1.25,1.17-1.55,1.82l-2.57-.92c.46-1.07,1.07-1.91,1.84-2.51.77-.6,1.61-1.02,2.53-1.26.92-.24,1.82-.36,2.71-.36.57,0,1.22.07,1.96.2.74.13,1.46.41,2.15.82.69.41,1.27,1.04,1.73,1.87.46.83.69,1.95.69,3.35v11.63h-2.71v-2.39h-.14c-.18.38-.49.79-.92,1.23-.43.44-1,.81-1.71,1.11-.71.31-1.58.46-2.61.46Zm.41-2.44c1.07,0,1.98-.21,2.72-.63.74-.42,1.3-.97,1.68-1.63.38-.67.57-1.37.57-2.1v-2.48c-.11.14-.37.26-.75.37-.39.11-.83.21-1.33.29-.5.08-.99.15-1.46.21-.47.06-.85.11-1.14.14-.7.09-1.36.24-1.97.44s-1.1.51-1.47.91c-.37.4-.56.95-.56,1.64,0,.94.35,1.65,1.05,2.13.7.48,1.59.72,2.67.72Z"/>
      <path class="cls-6" d="m238.29,111.59v10.62h-2.71v-17.65h2.62v2.76h.23c.41-.9,1.04-1.62,1.88-2.17.84-.55,1.93-.82,3.26-.82,1.19,0,2.24.24,3.14.73s1.59,1.22,2.09,2.21c.5.98.75,2.23.75,3.73v11.21h-2.71v-11.03c0-1.39-.36-2.47-1.08-3.25-.72-.78-1.71-1.17-2.96-1.17-.87,0-1.64.19-2.31.56-.68.38-1.21.92-1.6,1.64-.39.72-.59,1.59-.59,2.62Z"/>
      <path class="cls-6" d="m261.68,122.58c-1.65,0-3.08-.39-4.27-1.17s-2.11-1.86-2.76-3.23c-.64-1.37-.97-2.94-.97-4.7s.33-3.38.99-4.75c.66-1.37,1.59-2.45,2.78-3.23,1.19-.78,2.58-1.17,4.18-1.17,1.24,0,2.36.23,3.35.69,1,.46,1.81,1.1,2.45,1.93s1.03,1.79,1.18,2.9h-2.71c-.21-.8-.66-1.52-1.37-2.14-.71-.62-1.66-.94-2.85-.94-1.06,0-1.98.27-2.77.82-.79.55-1.41,1.32-1.85,2.31-.44.99-.66,2.15-.66,3.49s.22,2.55.65,3.56c.43,1.01,1.05,1.8,1.84,2.36.79.56,1.73.84,2.8.84.7,0,1.34-.12,1.92-.37s1.06-.6,1.46-1.06c.4-.46.68-1.01.85-1.65h2.71c-.15,1.04-.53,1.98-1.13,2.81-.6.83-1.39,1.49-2.38,1.98-.98.49-2.13.73-3.43.73Z"/>
      <path class="cls-6" d="m279.97,122.58c-1.7,0-3.17-.38-4.39-1.13-1.23-.75-2.18-1.81-2.84-3.17-.66-1.36-.99-2.94-.99-4.75s.33-3.4.99-4.79c.66-1.38,1.59-2.46,2.78-3.24,1.19-.78,2.58-1.17,4.18-1.17.92,0,1.83.15,2.72.46.9.31,1.71.8,2.45,1.49s1.32,1.59,1.76,2.72.66,2.51.66,4.16v1.15h-13.6v-2.34h10.84c0-1-.2-1.88-.59-2.67-.4-.78-.95-1.4-1.68-1.85s-1.58-.68-2.56-.68c-1.08,0-2.01.27-2.8.8-.79.53-1.39,1.22-1.81,2.07-.42.85-.63,1.76-.63,2.73v1.56c0,1.33.23,2.46.69,3.38.46.92,1.11,1.62,1.94,2.1.83.48,1.79.72,2.88.72.71,0,1.36-.1,1.94-.3s1.08-.51,1.5-.92c.42-.41.75-.92.98-1.53l2.62.74c-.28.89-.74,1.67-1.39,2.34-.65.67-1.46,1.19-2.41,1.56-.96.37-2.03.56-3.23.56Z"/>
    </g>
    <g>
      <path class="cls-6" d="m298.91,96.59l-3.51,9.49h-1.48l-3.51-9.49h1.58l2.62,7.56h.1l2.62-7.56h1.58Z"/>
      <path class="cls-6" d="m305.09,106.25c-.82,0-1.54-.14-2.18-.42-.64-.28-1.14-.67-1.51-1.17-.37-.5-.58-1.08-.61-1.75h1.56c.03.41.17.76.42,1.05s.57.52.97.68c.4.16.84.24,1.33.24.54,0,1.03-.09,1.45-.28.42-.19.75-.45.99-.79s.36-.73.36-1.17-.12-.88-.35-1.23-.57-.64-1.01-.84-.99-.3-1.63-.3h-1.01v-1.36h1.01c.5,0,.94-.09,1.33-.27s.68-.44.9-.77c.22-.33.33-.72.33-1.16s-.1-.8-.29-1.12c-.19-.32-.46-.56-.8-.74s-.75-.27-1.21-.27c-.44,0-.85.08-1.23.24-.38.16-.7.39-.94.69-.24.3-.38.66-.4,1.08h-1.48c.02-.66.22-1.25.6-1.75s.87-.89,1.47-1.17c.61-.28,1.28-.42,2-.42.78,0,1.45.16,2.01.47.56.32.99.73,1.29,1.25.3.52.45,1.07.45,1.67,0,.71-.19,1.32-.56,1.82-.37.5-.88.85-1.52,1.04v.1c.8.13,1.42.47,1.87,1.02.45.55.67,1.22.67,2.02,0,.69-.19,1.3-.56,1.85-.37.55-.88.98-1.52,1.29-.64.31-1.37.47-2.19.47Z"/>
    </g>
    <g>
      <g>
        <polygon class="cls-3" points="85.64 111.78 37.18 139.46 37.29 158.38 85.75 130.7 85.64 111.78"/>
        <polygon class="cls-2" points=".5 119.03 37.18 139.41 37.41 158.21 .73 137.83 .5 119.03"/>
        <polygon class="cls-4" points="85.69 111.83 48.54 91.09 .5 119.03 37.18 139.59 85.69 111.83"/>
      </g>
      <circle class="cls-6" cx="40.68" cy="90.95" r="36.98"/>
      <g>
        <g>
          <path class="cls-1" d="m31.51,47.81v15.35c-.47,1.96.39,4.04,2.58,5.56,3.61,2.5,9.46,2.5,13.07,0,1.54-1.06,2.42-2.4,2.64-3.79h.06s0-.64,0-.64c0-.06,0-.13,0-.19v-15.89s-18.35-.41-18.35-.41Z"/>
          <path class="cls-1" d="m31.58,58.79c0,3.48,4.08,6.3,9.1,6.3s9.1-2.82,9.1-6.3"/>
          <path class="cls-1" d="m31.58,53.98c0,3.48,4.08,6.3,9.1,6.3s9.1-2.82,9.1-6.3"/>
          <path class="cls-1" d="m31.58,48.92c0,3.48,4.08,6.3,9.1,6.3s9.1-2.82,9.1-6.3"/>
        </g>
        <g>
          <path class="cls-1" d="m31.51,32.64v15.35c-.47,1.96.39,4.04,2.58,5.56,3.61,2.5,9.46,2.5,13.07,0,1.54-1.06,2.42-2.4,2.64-3.79h.06s0-.64,0-.64c0-.06,0-.13,0-.19v-15.89s-18.35-.41-18.35-.41Z"/>
          <path class="cls-1" d="m31.58,43.63c0,3.48,4.08,6.3,9.1,6.3s9.1-2.82,9.1-6.3"/>
          <path class="cls-1" d="m31.58,38.81c0,3.48,4.08,6.3,9.1,6.3s9.1-2.82,9.1-6.3"/>
          <path class="cls-1" d="m31.58,33.76c0,3.48,4.08,6.3,9.1,6.3s9.1-2.82,9.1-6.3"/>
        </g>
      </g>
      <g>
        <g>
          <polygon class="cls-2" points="40.12 55.09 14.82 40.48 14.82 15.17 40.12 29.78 40.12 55.09"/>
          <polygon class="cls-3" points="40.12 55.09 65.43 40.48 65.43 15.17 40.12 29.78 40.12 55.09"/>
          <polygon class="cls-4" points="40.22 29.86 14.82 15.19 40.03 .5 65.44 15.17 40.22 29.86"/>
        </g>
        <path id="_矩形" data-name="矩形" class="cls-5" d="m31.74,8.64h0c.5.28.42.83-.18,1.18l-5.25,3.11c-.59.35-1.53.41-2.03.13h0c-.5-.28-.42-.83.18-1.18l5.25-3.11c.59-.35,1.53-.41,2.03-.13Z"/>
        <path id="_矩形-2" data-name="矩形" class="cls-5" d="m22.23,14.27h0c.5.28.42.83-.18,1.18l-1.02.6c-.59.35-1.53.41-2.03.13h0c-.5-.28-.42-.83.18-1.18l1.02-.6c.64-.38,1.53-.41,2.03-.13Z"/>
      </g>
      <polygon class="cls-7" points="34.17 20.57 31.48 19.06 47.07 9.86 49.76 11.37 34.17 20.57"/>
    </g>
  </g>
</svg>