<svg xmlns="http://www.w3.org/2000/svg" xml:space="preserve" id="Слой_1" x="0" y="0" version="1.1" viewBox="0 0 290 269.62">
  <style>
    .st2,.st3,.st4{fill-rule:evenodd;clip-rule:evenodd;stroke:#000;stroke-linecap:round;stroke-linejoin:round;stroke-miterlimit:10}.st3,.st4{fill:#222846}.st4{fill:#4a5479}.st6{fill:#6d75a2}.st74{opacity:.2563;enable-background:new}.st130,.st131,.st132,.st216,.st74,.st79{fill-rule:evenodd;clip-rule:evenodd;fill:#fff}.st130,.st131,.st132,.st216{fill:#545067}.st131,.st132,.st216{fill:#aeaeb0}.st132,.st216{fill:#d2d2d2}.st216{fill:#c4c2cf;stroke:#11131f;stroke-linecap:round;stroke-linejoin:round;stroke-miterlimit:10}
  </style>
	<path fill="#111421" fill-rule="evenodd" stroke="#111422" stroke-linecap="round" stroke-linejoin="round" stroke-miterlimit="10" d="m219.66 194.59-51.89-29.96 51.93-30.74 51.89 29.96z" clip-rule="evenodd"/>
	<path d="m167.2 164.27 52.45-30.29V81.53l-52.45 30.28z" class="st3"/>
	<path d="m219.65 194.39-52.45-30.28v-52.45l52.45 30.28zM272.13 164.16l-52.46-30.29V81.42l52.46 30.29z" class="st2"/>
	<path d="m219.65 194.39 52.45-30.28v-52.45l-52.45 30.28z" class="st3"/>
	<path d="M247.3 107.26 194.71 76.9l24.85 4.24 52.6 30.36zM219.64 141.83l-52.6-30.36 9.18-31.92 52.6 30.37z" class="st4"/>
	<path d="M145.14 88.24 27.79 155.27v62.75l117.35-67.04z" class="st3"/>
	<path d="m12.42 146.57 15.37 8.32v63.13l-15.37-8.32z" class="st2"/>
	<path d="m145.14 88.24-16.52-8.74-116.2 67.07 15.37 8.32z" class="st4"/>
	<path d="m136.86 118.98-98.09 57.16v-7.68l98.09-57.16z" class="st216"/>
	<path d="m136.03 118.32-96.66 56.44-.01-6.36 96.66-56.44z" class="st3"/>
	<path d="m136.86 134.61-98.09 57.16v-7.68l98.09-57.16z" class="st216"/>
	<path d="m136.03 134.05-97.26 56.71-.01-6.36 97.26-56.71zM145.14 15.32 27.79 82.36v62.75l117.35-67.04z" class="st3"/>
	<path d="m12.42 73.66 15.37 8.32v63.13l-15.37-8.32z" class="st2"/>
	<path d="m145.14 15.32-16.52-8.73-116.2 67.07 15.37 8.32z" class="st4"/>
	<path d="m136.86 46.07-98.09 57.16v-7.68l98.09-57.17z" class="st216"/>
	<path d="m136.03 45.4-96.66 56.45-.01-6.36 96.66-56.44z" class="st3"/>
	<path d="m136.86 61.7-98.09 57.16v-7.68l98.09-57.17z" class="st216"/>
	<path d="m136.03 61.14-97.26 56.71-.01-6.36 97.26-56.71z" class="st3"/>
	<path id="矩形_00000027605606589955053680000010823205064495290552_" d="M176.68 215.12c.62 0 1.15.76 1.15 1.64v1.52c0 .88-.53 1.64-1.15 1.64-.62 0-1.15-.76-1.15-1.64v-1.52c.01-.94.54-1.64 1.15-1.64z" class="st74"/>
	<radialGradient id="SVGID_1_" cx="145.14" cy="-4927.874" r="29.158" gradientTransform="matrix(1 0 0 -.5898 0 -2657.208)" gradientUnits="userSpaceOnUse">
    <stop offset="0" stop-color="#06070c"/>
		<stop offset="1" stop-color="#0d101d" stop-opacity="0"/>
  </radialGradient>
	<path fill="url(#SVGID_1_)" d="M170.14 235.18c-13.68-7.9-35.96-8-49.77-.23s-13.91 20.48-.23 28.37c13.68 7.89 35.96 8 49.77.23 13.81-7.77 13.91-20.48.23-28.37z" opacity=".67"/>
	<path fill="#5ea6b9" d="M183.65 199.15v-49.28c0-.23.02-.45.02-.68 0-22.91-18.57-41.48-41.48-41.48s-41.48 18.57-41.48 41.48c0 .36.02.72.03 1.07v44.66h-.03v22.67a5.15 5.15 0 1 0 10.3 0v-.83c.56.36 1.13.72 1.74 1.07 1.83 1.06 3.79 1.99 5.85 2.81v8.2c0 2.84 2.3 5.15 5.15 5.15s5.15-2.31 5.15-5.15v-5.23c2.95.57 5.99.96 9.06 1.14v12.59c0 2.84 2.3 5.15 5.15 5.15s5.15-2.31 5.15-5.15v-12.7c3.39-.28 6.73-.8 9.93-1.55v6.36c0 2.84 2.3 5.15 5.15 5.15s5.15-2.31 5.15-5.15v-9.87c1-.47 1.97-.96 2.91-1.49.7-.39 1.35-.8 1.99-1.21v.71a5.15 5.15 0 1 0 10.3 0v-18.45l-.04.01z"/>
	<radialGradient id="SVGID_00000046337796163824837510000004617454571690821783_" cx="166.866" cy="-3570.538" r="106.685" gradientTransform="matrix(1 0 0 -1 0 -3445.405)" gradientUnits="userSpaceOnUse">
    <stop offset=".012" stop-color="#cf7dc9"/>
		<stop offset=".494" stop-color="#9c5c96"/>
		<stop offset=".583" stop-color="#96649a"/>
		<stop offset=".727" stop-color="#8a7aa4"/>
		<stop offset=".908" stop-color="#7a9db5"/>
		<stop offset="1" stop-color="#74b3c0"/>
  </radialGradient>
	<path fill="url(#SVGID_00000046337796163824837510000004617454571690821783_)" d="M183.65 199.15v-49.28c0-.23.02-.45.02-.68 0-22.91-18.57-41.48-41.48-41.48s-41.48 18.57-41.48 41.48c0 .36.02.72.03 1.07v44.66h-.03v22.67a5.15 5.15 0 1 0 10.3 0v-.83c.56.36 1.13.72 1.74 1.07 1.83 1.06 3.79 1.99 5.85 2.81v8.2c0 2.84 2.3 5.15 5.15 5.15s5.15-2.31 5.15-5.15v-5.23c2.95.57 5.99.96 9.06 1.14v12.59c0 2.84 2.3 5.15 5.15 5.15s5.15-2.31 5.15-5.15v-12.7c3.39-.28 6.73-.8 9.93-1.55v6.36c0 2.84 2.3 5.15 5.15 5.15s5.15-2.31 5.15-5.15v-9.87c1-.47 1.97-.96 2.91-1.49.7-.39 1.35-.8 1.99-1.21v.71a5.15 5.15 0 1 0 10.3 0v-18.45l-.04.01z"/>
	<path id="矩形_00000165922353898182472140000016367545825793668267_" d="M104.59 185.3c1.12 0 2.09 1.38 2.09 2.99v14.25c0 1.61-.96 2.99-2.09 2.99-1.12 0-2.09-1.38-2.09-2.99v-14.25c.01-1.61.97-2.99 2.09-2.99z" class="st74"/>
	<path id="矩形_00000015350207455839106150000014933927445890239139_" d="M165.89 122.22c1.37-1.02 3.68-.37 5.02 1.41l2.29 3.06c1.34 1.78 1.31 4.19-.06 5.22-1.37 1.02-3.68.37-5.02-1.41l-2.29-3.06c-1.42-1.92-1.3-4.2.06-5.22z" class="st74"/>
	<path id="矩形_00000072266465199785204410000008805085503034599574_" d="M121.99 221.89c1.12 0 2.09 1.38 2.09 2.99v2.76c0 1.61-.96 2.99-2.09 2.99-1.12 0-2.09-1.38-2.09-2.99v-2.76c.01-1.72.97-2.99 2.09-2.99z" class="st74"/>
	<path id="矩形_00000137127196978582979670000007144617148798601098_" d="M104.34 211.09c1.12 0 2.09 1.38 2.09 2.99v2.76c0 1.61-.96 2.99-2.09 2.99-1.12 0-2.09-1.38-2.09-2.99v-2.76c.01-1.72.97-2.99 2.09-2.99z" class="st74"/>
	<path id="矩形_00000108287198993447802660000018089673654641038507_" d="M142.18 230.63c1.12 0 2.09 1.38 2.09 2.99v2.76c0 1.61-.96 2.99-2.09 2.99-1.12 0-2.09-1.38-2.09-2.99v-2.76c0-1.72.97-2.99 2.09-2.99z" class="st74"/>
	<path id="矩形_00000137849482921634559410000007956612982102614952_" d="M161.88 225.29c.89 0 1.66 1.1 1.66 2.37v2.19c0 1.28-.76 2.37-1.66 2.37-.89 0-1.66-1.1-1.66-2.37v-2.19c.01-1.37.77-2.37 1.66-2.37z" class="st74"/>
	<path d="M144.48 156.32c0 5.17-4.12 9.54-9.22 9.75s-9.24-3.81-9.24-8.98 4.12-9.54 9.22-9.75c5.09-.21 9.23 3.81 9.24 8.98z" class="st79"/>
	<path id="形状结合_00000102528971460323429730000013519261267440647589_" d="M136.44 146.74c4.24-.18 7.66 3.98 7.66 9.22v1.12c0-5.33-3.33-9.59-7.48-9.42s-7.46 4.61-7.46 10.04c0 1.03.09 2.05.37 2.98-.46-1.2-.74-2.59-.74-3.99 0-5.33 3.41-9.77 7.65-9.95z" class="st131"/>
	<path id="形状结合_00000119108262131175317010000016703506592634150567_" d="M136.44 145.62c4.7-.2 8.58 4.41 8.58 10.31s-3.86 10.83-8.57 11.02c-4.7.2-8.58-4.41-8.58-10.31s3.78-10.82 8.57-11.02zm0 1.12c-4.24.18-7.65 4.62-7.64 9.86 0 5.24 3.42 9.4 7.66 9.22s7.65-4.62 7.64-9.86-3.51-9.39-7.66-9.22z" class="st132"/>
	<path d="M175.19 154.94c0 5.17-4.12 9.54-9.22 9.75s-9.24-3.81-9.24-8.98 4.12-9.54 9.22-9.75 9.24 3.81 9.24 8.98z" class="st79"/>
	<path id="形状结合_00000135682704635121062220000011280658840505365130_" d="M166.96 145.37c4.24-.18 7.66 3.98 7.66 9.22v1.12c0-5.33-3.33-9.59-7.48-9.42s-7.46 4.61-7.46 10.04c0 1.03.09 2.05.37 2.98-.46-1.2-.74-2.59-.74-3.99 0-5.33 3.4-9.78 7.65-9.95z" class="st131"/>
	<path id="形状结合_00000156560452362926423150000007622398342439343788_" d="M166.95 144.25c4.7-.2 8.58 4.41 8.58 10.31.01 5.89-3.86 10.83-8.57 11.02-4.7.2-8.58-4.41-8.58-10.31s3.78-10.83 8.57-11.02zm.01 1.12c-4.24.18-7.65 4.62-7.64 9.86 0 5.24 3.42 9.4 7.66 9.22s7.65-4.62 7.64-9.86c-.01-5.24-3.52-9.4-7.66-9.22z" class="st132"/>
	<circle cx="135.24" cy="156.71" r="3.77" class="st130"/>
	<circle cx="165.79" cy="155.58" r="3.77" class="st130"/>
	<path d="M226.06 176.04v-20.16l8.78-5.06v4.41l-5.39 3.11v3.46l4.86-2.8v4.41l-4.86 2.8v7.88l-3.39 1.95zM236.09 170.26V150.1l9-5.19v4.41l-5.61 3.24v3.46l5.15-2.97v4.41l-5.15 2.97v3.46l5.59-3.22v4.41l-8.98 5.18zM246.77 164.1v-20.16l9-5.19v4.41l-5.61 3.24v3.46l5.15-2.97v4.41l-5.15 2.97v3.46l5.59-3.22v4.41l-8.98 5.18zM264.19 140.2c-.03-.64-.18-1.06-.45-1.27-.27-.21-.68-.16-1.23.16-.35.2-.64.43-.86.7s-.38.54-.49.83-.16.58-.17.88c-.01.25.02.45.08.61s.16.27.3.35c.14.07.32.11.53.11s.47-.04.77-.11l1.02-.24c.69-.16 1.28-.19 1.78-.09.49.1.89.33 1.21.67.31.34.54.79.69 1.36.15.56.22 1.23.23 2 0 1.33-.21 2.57-.62 3.72s-.99 2.19-1.74 3.1-1.66 1.68-2.72 2.29c-1.08.62-2.03.91-2.84.86s-1.43-.49-1.88-1.31c-.45-.82-.67-2.08-.67-3.76l3.22-1.86c.02.6.12 1.07.29 1.39.17.32.41.5.72.54s.68-.07 1.11-.32c.36-.21.67-.46.91-.74s.43-.59.56-.92.19-.66.19-.99c0-.31-.07-.54-.19-.71-.12-.16-.32-.26-.59-.29s-.64.01-1.1.11l-1.25.29c-1.11.25-1.98.1-2.61-.44-.64-.54-.95-1.6-.95-3.18 0-1.28.21-2.52.64-3.73s1.02-2.3 1.79-3.28c.76-.98 1.64-1.75 2.63-2.32 1.01-.58 1.88-.81 2.62-.69s1.3.56 1.7 1.31c.4.76.6 1.79.61 3.11l-3.24 1.86z" class="st6"/>
</svg>