<svg xmlns="http://www.w3.org/2000/svg" xml:space="preserve" id="Слой_1" x="0" y="0" version="1.1" viewBox="0 0 290 269.62">
  <style>
    .st0,.st1,.st2{stroke-linecap:round;stroke-linejoin:round;stroke-miterlimit:10}.st0{fill-rule:evenodd;clip-rule:evenodd;fill:#c6c3d1;stroke:#101320}.st1,.st2{stroke:#111422}.st1{fill-rule:evenodd;clip-rule:evenodd;fill:#fff}.st2{fill:#ecf0fc}.st18,.st2,.st79,.st80,.st81,.st82{fill-rule:evenodd;clip-rule:evenodd}.st18{opacity:.2563;fill:#fff;enable-background:new}.st79,.st80,.st81,.st82{fill:#555069}.st80,.st81,.st82{fill:#fff}.st81,.st82{fill:#afafb1}.st82{fill:#d3d3d3}
  </style>
	<path fill="#101422" fill-rule="evenodd" stroke="#101423" stroke-linecap="round" stroke-linejoin="round" stroke-miterlimit="10" d="m219.66 194.13-51.89-29.96 51.93-30.74 51.89 29.96z" clip-rule="evenodd"/>
	<path d="m167.2 163.81 52.45-30.29V81.07l-52.45 30.28z" class="st1"/>
	<path d="m219.65 193.93-52.45-30.28V111.2l52.45 30.28zM272.13 163.7l-52.46-30.29V80.96l52.46 30.29z" class="st0"/>
	<path d="m219.65 193.93 52.45-30.28V111.2l-52.45 30.28z" class="st1"/>
	<path d="m247.3 106.8-52.59-30.36 24.85 4.24 52.6 30.36zM219.64 141.37l-52.6-30.36 9.18-31.92 52.6 30.37z" class="st2"/>
	<path d="M145.14 87.78 27.79 154.81v62.75l117.35-67.04z" class="st1"/>
	<path d="m12.42 146.11 15.37 8.32v63.13l-15.37-8.32z" class="st0"/>
	<path d="m145.14 87.78-16.52-8.74-116.2 67.07 15.37 8.32z" class="st2"/>
	<path d="m136.86 118.52-98.09 57.16V168l98.09-57.16z" class="st0"/>
	<path d="M136.03 117.86 39.37 174.3l-.01-6.36 96.66-56.44z" class="st2"/>
	<path d="m136.86 134.15-98.09 57.16v-7.68l98.09-57.16z" class="st0"/>
	<path d="M136.03 133.59 38.77 190.3l-.01-6.36 97.26-56.71z" class="st2"/>
	<path d="M145.14 14.86 27.79 81.9v62.75l117.35-67.04z" class="st1"/>
	<path d="m12.42 73.2 15.37 8.32v63.13l-15.37-8.32z" class="st0"/>
	<path d="m145.14 14.86-16.52-8.73L12.42 73.2l15.37 8.32z" class="st2"/>
	<path d="m136.86 45.61-98.09 57.16v-7.68l98.09-57.17z" class="st0"/>
	<path d="m136.03 44.94-96.66 56.45-.01-6.36 96.66-56.44z" class="st2"/>
	<path d="M136.86 61.24 38.77 118.4v-7.68l98.09-57.17z" class="st0"/>
	<path d="m136.03 60.68-97.26 56.71-.01-6.36 97.26-56.71z" class="st2"/>
	<path id="矩形_00000027605606589955053680000010823205064495290552_" d="M176.68 214.66c.62 0 1.15.76 1.15 1.64v1.52c0 .88-.53 1.64-1.15 1.64-.62 0-1.15-.76-1.15-1.64v-1.52c.01-.94.54-1.64 1.15-1.64z" class="st18"/>
	<radialGradient id="SVGID_1_" cx="145.143" cy="248.789" r="29.158" gradientTransform="matrix(1 0 0 .5898 0 102.055)" gradientUnits="userSpaceOnUse">
    <stop offset="0" stop-color="#b8b3d4"/>
		<stop offset=".346" stop-color="#bab6d6" stop-opacity=".654"/>
		<stop offset=".606" stop-color="#c2c0da" stop-opacity=".394"/>
		<stop offset=".838" stop-color="#d0d0e3" stop-opacity=".162"/>
		<stop offset="1" stop-color="#dde0eb" stop-opacity="0"/>
  </radialGradient>
	<path fill="url(#SVGID_1_)" d="M170.14 234.72c-13.68-7.9-35.96-8-49.77-.23s-13.91 20.48-.23 28.37 35.96 8 49.77.23c13.81-7.77 13.91-20.48.23-28.37z" opacity=".67"/>
	<path fill="#3fa9bd" d="M183.65 198.69v-49.28c0-.23.02-.45.02-.68 0-22.91-18.57-41.48-41.48-41.48-22.91 0-41.48 18.57-41.48 41.48 0 .36.02.72.03 1.07v44.66h-.03v22.67a5.15 5.15 0 1 0 10.3 0v-.83c.56.36 1.13.72 1.74 1.07 1.83 1.06 3.79 1.99 5.85 2.81v8.2c0 2.84 2.3 5.15 5.15 5.15s5.15-2.31 5.15-5.15v-5.23c2.95.57 5.99.96 9.06 1.14v12.59c0 2.84 2.3 5.15 5.15 5.15s5.15-2.31 5.15-5.15v-12.7c3.39-.28 6.73-.8 9.93-1.55v6.36c0 2.84 2.3 5.15 5.15 5.15s5.15-2.31 5.15-5.15v-9.87c1-.47 1.97-.96 2.91-1.49.7-.39 1.35-.8 1.99-1.21v.71a5.15 5.15 0 1 0 10.3 0v-18.45h-.04z"/>
	<radialGradient id="SVGID_00000061438090643001709730000013750932139362592172_" cx="166.866" cy="124.668" r="106.685" gradientUnits="userSpaceOnUse">
    <stop offset=".012" stop-color="#dd78ce"/>
		<stop offset=".494" stop-color="#a7589a"/>
		<stop offset=".583" stop-color="#a0619e"/>
		<stop offset=".727" stop-color="#8e79a8"/>
		<stop offset=".908" stop-color="#709fb9"/>
		<stop offset="1" stop-color="#5eb6c3"/>
  </radialGradient>
	<path fill="url(#SVGID_00000061438090643001709730000013750932139362592172_)" d="M183.65 198.69v-49.28c0-.23.02-.45.02-.68 0-22.91-18.57-41.48-41.48-41.48-22.91 0-41.48 18.57-41.48 41.48 0 .36.02.72.03 1.07v44.66h-.03v22.67a5.15 5.15 0 1 0 10.3 0v-.83c.56.36 1.13.72 1.74 1.07 1.83 1.06 3.79 1.99 5.85 2.81v8.2c0 2.84 2.3 5.15 5.15 5.15s5.15-2.31 5.15-5.15v-5.23c2.95.57 5.99.96 9.06 1.14v12.59c0 2.84 2.3 5.15 5.15 5.15s5.15-2.31 5.15-5.15v-12.7c3.39-.28 6.73-.8 9.93-1.55v6.36c0 2.84 2.3 5.15 5.15 5.15s5.15-2.31 5.15-5.15v-9.87c1-.47 1.97-.96 2.91-1.49.7-.39 1.35-.8 1.99-1.21v.71a5.15 5.15 0 1 0 10.3 0v-18.45h-.04z"/>
	<path id="矩形_00000165922353898182472140000016367545825793668267_" d="M104.59 184.84c1.12 0 2.09 1.38 2.09 2.99v14.25c0 1.61-.96 2.99-2.09 2.99-1.12 0-2.09-1.38-2.09-2.99v-14.25c.01-1.61.97-2.99 2.09-2.99z" class="st18"/>
	<path id="矩形_00000015350207455839106150000014933927445890239139_" d="M165.89 121.76c1.37-1.02 3.68-.37 5.02 1.41l2.29 3.06c1.34 1.78 1.31 4.19-.06 5.22-1.37 1.02-3.68.37-5.02-1.41l-2.29-3.06c-1.42-1.92-1.3-4.2.06-5.22z" class="st18"/>
	<path id="矩形_00000072266465199785204410000008805085503034599574_" d="M121.99 221.43c1.12 0 2.09 1.38 2.09 2.99v2.76c0 1.61-.96 2.99-2.09 2.99-1.12 0-2.09-1.38-2.09-2.99v-2.76c.01-1.72.97-2.99 2.09-2.99z" class="st18"/>
	<path id="矩形_00000137127196978582979670000007144617148798601098_" d="M104.34 210.63c1.12 0 2.09 1.38 2.09 2.99v2.76c0 1.61-.96 2.99-2.09 2.99-1.12 0-2.09-1.38-2.09-2.99v-2.76c.01-1.72.97-2.99 2.09-2.99z" class="st18"/>
	<path id="矩形_00000108287198993447802660000018089673654641038507_" d="M142.18 230.17c1.12 0 2.09 1.38 2.09 2.99v2.76c0 1.61-.96 2.99-2.09 2.99-1.12 0-2.09-1.38-2.09-2.99v-2.76c0-1.72.97-2.99 2.09-2.99z" class="st18"/>
	<path id="矩形_00000137849482921634559410000007956612982102614952_" d="M161.88 224.83c.89 0 1.66 1.1 1.66 2.37v2.19c0 1.28-.76 2.37-1.66 2.37-.89 0-1.66-1.1-1.66-2.37v-2.19c.01-1.37.77-2.37 1.66-2.37z" class="st18"/>
	<path d="M144.48 155.86c0 5.17-4.12 9.54-9.22 9.75-5.1.21-9.24-3.81-9.24-8.98s4.12-9.54 9.22-9.75c5.09-.21 9.23 3.81 9.24 8.98z" class="st80"/>
	<path id="形状结合_00000102528971460323429730000013519261267440647589_" d="M136.44 146.28c4.24-.18 7.66 3.98 7.66 9.22v1.12c0-5.33-3.33-9.59-7.48-9.42-4.15.17-7.46 4.61-7.46 10.04 0 1.03.09 2.05.37 2.98-.46-1.2-.74-2.59-.74-3.99 0-5.33 3.41-9.77 7.65-9.95z" class="st81"/>
	<path id="形状结合_00000119108262131175317010000016703506592634150567_" d="M136.44 145.16c4.7-.2 8.58 4.41 8.58 10.31s-3.86 10.83-8.57 11.02c-4.7.2-8.58-4.41-8.58-10.31s3.78-10.82 8.57-11.02zm0 1.12c-4.24.18-7.65 4.62-7.64 9.86 0 5.24 3.42 9.4 7.66 9.22 4.24-.18 7.65-4.62 7.64-9.86s-3.51-9.39-7.66-9.22z" class="st82"/>
	<path d="M175.19 154.48c0 5.17-4.12 9.54-9.22 9.75s-9.24-3.81-9.24-8.98 4.12-9.54 9.22-9.75 9.24 3.81 9.24 8.98z" class="st80"/>
	<path id="形状结合_00000135682704635121062220000011280658840505365130_" d="M166.96 144.91c4.24-.18 7.66 3.98 7.66 9.22v1.12c0-5.33-3.33-9.59-7.48-9.42-4.15.17-7.46 4.61-7.46 10.04 0 1.03.09 2.05.37 2.98-.46-1.2-.74-2.59-.74-3.99 0-5.33 3.4-9.78 7.65-9.95z" class="st81"/>
	<path id="形状结合_00000156560452362926423150000007622398342439343788_" d="M166.95 143.79c4.7-.2 8.58 4.41 8.58 10.31.01 5.89-3.86 10.83-8.57 11.02-4.7.2-8.58-4.41-8.58-10.31s3.78-10.83 8.57-11.02zm.01 1.12c-4.24.18-7.65 4.62-7.64 9.86 0 5.24 3.42 9.4 7.66 9.22 4.24-.18 7.65-4.62 7.64-9.86-.01-5.24-3.52-9.4-7.66-9.22z" class="st82"/>
	<circle cx="135.24" cy="156.25" r="3.77" class="st79"/>
	<circle cx="165.79" cy="155.12" r="3.77" class="st79"/>
	<path d="M226.06 175.58v-20.16l8.78-5.06v4.41l-5.39 3.11v3.46l4.86-2.8v4.41l-4.86 2.8v7.88l-3.39 1.95zM236.09 169.8v-20.16l9-5.19v4.41l-5.61 3.24v3.46l5.15-2.97V157l-5.15 2.97v3.46l5.59-3.22v4.41l-8.98 5.18zM246.77 163.64v-20.16l9-5.19v4.41l-5.61 3.24v3.46l5.15-2.97v4.41l-5.15 2.97v3.46l5.59-3.22v4.41l-8.98 5.18zM264.19 139.74c-.03-.64-.18-1.06-.45-1.27-.27-.21-.68-.16-1.23.16-.35.2-.64.43-.86.7s-.38.54-.49.83-.16.58-.17.88c-.01.25.02.45.08.61.06.16.16.27.3.35.14.07.32.11.53.11s.47-.04.77-.11l1.02-.24c.69-.16 1.28-.19 1.78-.09.49.1.89.33 1.21.67.31.34.54.79.69 1.36.15.56.22 1.23.23 2a11 11 0 0 1-.62 3.72c-.41 1.15-.99 2.19-1.74 3.1a9.9 9.9 0 0 1-2.72 2.29c-1.08.62-2.03.91-2.84.86-.81-.05-1.43-.49-1.88-1.31-.45-.82-.67-2.08-.67-3.76l3.22-1.86c.02.6.12 1.07.29 1.39.17.32.41.5.72.54.31.04.68-.07 1.11-.32.36-.21.67-.46.91-.74.24-.28.43-.59.56-.92.13-.33.19-.66.19-.99 0-.31-.07-.54-.19-.71-.12-.16-.32-.26-.59-.29-.27-.03-.64.01-1.1.11l-1.25.29c-1.11.25-1.98.1-2.61-.44-.64-.54-.95-1.6-.95-3.18 0-1.28.21-2.52.64-3.73s1.02-2.3 1.79-3.28c.76-.98 1.64-1.75 2.63-2.32 1.01-.58 1.88-.81 2.62-.69.74.12 1.3.56 1.7 1.31.4.76.6 1.79.61 3.11l-3.24 1.86z"/>
</svg>