<svg xmlns="http://www.w3.org/2000/svg" style="shape-rendering:geometricPrecision;text-rendering:geometricPrecision;image-rendering:optimizeQuality;fill-rule:evenodd;clip-rule:evenodd" viewBox="0 0 512 512"><path fill="#000" d="M266.5-.5h31c10.144 1.873 20.144 4.707 30 8.5 4.279 5.033 3.946 9.7-1 14a16.25 16.25 0 0 1-8 0c-37.674-13.199-72.008-7.199-103 18 48.562 14.227 78.062 46.06 88.5 95.5 2.432 17.169 1.598 34.169-2.5 51 17.67.167 35.336 0 53-.5 7.937-8.035 14.27-17.201 19-27.5-9.135-9.066-13.135-20.066-12-33-23.281 1.709-36.281-8.957-39-32 2.836-22.826 15.836-33.827 39-33 .498-3.72-.336-7.053-2.5-10l-18-18c-.361-9.073 3.806-12.24 12.5-9.5A119.132 119.132 0 0 1 367 35.5c14.351-16 30.517-18.167 48.5-6.5 8.921 8.594 12.588 19.094 11 31.5 30.276.428 42.776 15.428 37.5 45a72.496 72.496 0 0 1-5.5 10c10.822 11.978 17.655 25.978 20.5 42a9948.037 9948.037 0 0 1 1 280c-3.814 32.127-20.314 54.961-49.5 68.5a190.039 190.039 0 0 1-18 5.5h-336c-26.537-6.711-41.704-23.711-45.5-51a25439.228 25439.228 0 0 1 0-319c6.16-32.819 25.993-49.986 59.5-51.5 25.549-35.942 60.549-53.608 105-53 19.514-20.423 43.18-32.923 71-37.5Zm124 38c7.987-.59 14.153 2.41 18.5 9a168.945 168.945 0 0 1 2 24c.346 2.348 1.513 4.181 3.5 5.5 8.394.13 16.728.796 25 2 9.98 5.276 12.814 13.109 8.5 23.5-1.5 2.833-3.667 5-6.5 6.5a168.937 168.937 0 0 1-24 2c-2.348.346-4.181 1.513-5.5 3.5l-3 27c-6.48 9.27-14.647 11.103-24.5 5.5-2.606-1.938-4.439-4.438-5.5-7.5a194.104 194.104 0 0 1-2-25c-1.319-1.987-3.152-3.154-5.5-3.5l-22-1c-9.367-4.898-12.533-12.398-9.5-22.5 2.84-5.504 7.34-8.67 13.5-9.5l20-1a9.465 9.465 0 0 0 2.5-1.5c1.067-8.624 2.067-17.29 3-26 2.437-5.274 6.271-8.94 11.5-11Zm-213 16c48.842-1.844 83.676 19.156 104.5 63 8.871 22.714 9.704 45.714 2.5 69a434.112 434.112 0 0 1-51 .5c11.272-13.715 10.605-26.715-2-39-5.371-2.593-11.038-3.759-17-3.5a582.091 582.091 0 0 0-1.5-58c-4.322-8.229-11.156-11.729-20.5-10.5-3.374.521-6.374 1.854-9 4a5610.047 5610.047 0 0 0-43.5 56.5c-5.596 9.1-5.929 18.433-1 28 2.989 3.991 6.822 6.824 11.5 8.5 6.992.5 13.992.666 21 .5v14c-26.342.333-52.675 0-79-1-11.865-42.566-1.531-78.733 31-108.5 16.012-12.508 34.012-20.342 54-23.5Zm17 37c1.517.01 2.684.677 3.5 2l1 62a11.532 11.532 0 0 0 3.5 4.5l18 1c4.538 1.713 6.038 4.88 4.5 9.5a446.332 446.332 0 0 1-11.5 16.5c-8.66.5-17.327.666-26 .5.166-8.34 0-16.673-.5-25-.833-1.5-2-2.667-3.5-3.5l-26-1c-6.032-1.953-7.532-5.787-4.5-11.5a1334.472 1334.472 0 0 0 41.5-55Zm-118 17h4c-9.826 24.999-11.492 50.499-5 76.5-12.059-2.709-20.559-9.875-25.5-21.5-7.267-26.132 1.567-44.466 26.5-55Zm365 17a4.934 4.934 0 0 1 3 .5c11.203 11.575 17.703 25.408 19.5 41.5a702.15 702.15 0 0 1 0 53c-12.738-17.465-29.905-27.965-51.5-31.5a595.823 595.823 0 0 0-37-2 85.224 85.224 0 0 0 13-21c26.658.506 39.325-12.661 38-39.5 5.195.321 10.195-.013 15-1Zm-395 62c8.424 8.046 18.424 13.213 30 15.5l326 1c28.736 2.741 48.236 17.574 58.5 44.5a80.563 80.563 0 0 1 3 15c.667 58 .667 116 0 174-4.227 29.228-20.394 48.394-48.5 57.5a115.143 115.143 0 0 1-15 2c-25.665.5-51.331.667-77 .5-.167-27.002 0-54.002.5-81l31.5-31.5c28.911-.908 42.411-15.741 40.5-44.5-4.839-17.837-16.506-27.17-35-28-24.447 2.48-36.781 16.147-37 41l-39 39a36.16 36.16 0 0 0-4 7 1634.346 1634.346 0 0 0-1.5 98h-9c.167-46.335 0-92.668-.5-139a32.5 32.5 0 0 0-3-7l-23-23c-.011-25.004-12.344-39.004-37-42-26.272 3.516-37.939 18.516-35 45 6.317 18.915 19.483 28.082 39.5 27.5l14.5 14.5c.138 6.081.804 12.081 2 18 5.033 4.279 9.7 3.946 14-1 .667-8 .667-16 0-24a138.27 138.27 0 0 0-13.5-14.5 28.57 28.57 0 0 0 8-7.5 420.289 420.289 0 0 1 17.5 17c.5 45.332.667 90.665.5 136h-12c.167-28.002 0-56.002-.5-84-2.983-5.068-7.149-6.235-12.5-3.5a29.517 29.517 0 0 0-2.5 4.5c-.5 27.665-.667 55.331-.5 83h-9c.167-20.003 0-40.003-.5-60a22.981 22.981 0 0 0-2-5 1274.744 1274.744 0 0 0-42-43c-1.152-30.149-16.652-43.316-46.5-39.5-20.613 8.389-28.78 23.555-24.5 45.5 6.943 17.901 20.11 26.401 39.5 25.5l31.5 31.5c.5 14.996.667 29.996.5 45-31.696.438-63.362-.062-95-1.5-18.258-4.926-28.758-16.759-31.5-35.5-.5-90.999-.667-181.999-.5-273Zm158 115c17.08 1.236 24.246 10.236 21.5 27-6.453 12.598-16.286 16.098-29.5 10.5-9.277-7.462-11.444-16.628-6.5-27.5 3.6-5.21 8.434-8.543 14.5-10Zm151 26c17.99-.511 26.157 8.155 24.5 26-6.642 13.659-16.809 17.159-30.5 10.5-11.012-9.899-11.679-20.399-2-31.5 2.428-2.205 5.095-3.872 8-5Zm-223 36c17.018-.152 24.851 8.182 23.5 25-5.654 13.908-15.487 18.075-29.5 12.5-12.857-10.89-13.19-22.223-1-34l7-3.5Zm198 5a107.125 107.125 0 0 1 9 8.5 723.157 723.157 0 0 0-31.5 32.5 3782.79 3782.79 0 0 0-.5 87h-12c-.167-30.668 0-61.335.5-92a1761.528 1761.528 0 0 1 34.5-36Zm-165 37a351.461 351.461 0 0 1 35.5 35c.5 18.664.667 37.33.5 56h-12c.167-17.337 0-34.67-.5-52l-30-30c-.667-.667-.667-1.333 0-2a63.707 63.707 0 0 0 6.5-7Z"/></svg>