<svg viewBox="0 0 17 17" fill="none" xmlns="http://www.w3.org/2000/svg">
  <path d="M7.5 11.5L7.5 12.5L9.5 12.5L9.5 11.5L7.5 11.5ZM9.5 8.16667L9.5 7.16667L7.5 7.16667L7.5 8.16667L9.5 8.16667ZM8.5 6.16667C9.05229 6.16667 9.5 5.71895 9.5 5.16667C9.5 4.61438 9.05229 4.16667 8.5 4.16667L8.5 6.16667ZM8.49167 4.16667C7.93938 4.16667 7.49167 4.61438 7.49167 5.16667C7.49167 5.71895 7.93938 6.16667 8.49167 6.16667L8.49167 4.16667ZM1 8.5L6.55671e-07 8.5L1 8.5ZM8.5 16L8.5 15L8.5 16ZM9.5 11.5L9.5 8.16667L7.5 8.16667L7.5 11.5L9.5 11.5ZM8.5 4.16667L8.49167 4.16667L8.49167 6.16667L8.5 6.16667L8.5 4.16667ZM2 8.5C2 7.64641 2.16813 6.80117 2.49478 6.01256L0.647024 5.24719C0.219859 6.27846 7.53255e-07 7.38376 6.55671e-07 8.5L2 8.5ZM2.49478 6.01256C2.82144 5.22394 3.30023 4.50739 3.90381 3.90381L2.48959 2.48959C1.7003 3.27889 1.07419 4.21592 0.647024 5.24719L2.49478 6.01256ZM3.90381 3.90381C4.50739 3.30022 5.22394 2.82144 6.01256 2.49478L5.24719 0.647022C4.21592 1.07419 3.27889 1.7003 2.48959 2.48959L3.90381 3.90381ZM6.01256 2.49478C6.80117 2.16813 7.64641 2 8.5 2L8.5 -6.55671e-07C7.38377 -7.53255e-07 6.27846 0.219857 5.24719 0.647022L6.01256 2.49478ZM8.5 2C9.35359 2 10.1988 2.16813 10.9874 2.49478L11.7528 0.647023C10.7215 0.219858 9.61624 -5.58086e-07 8.5 -6.55671e-07L8.5 2ZM10.9874 2.49478C11.7761 2.82144 12.4926 3.30022 13.0962 3.90381L14.5104 2.48959C13.7211 1.7003 12.7841 1.07419 11.7528 0.647023L10.9874 2.49478ZM13.0962 3.90381C13.6998 4.50739 14.1786 5.22394 14.5052 6.01256L16.353 5.24719C15.9258 4.21592 15.2997 3.27889 14.5104 2.48959L13.0962 3.90381ZM14.5052 6.01256C14.8319 6.80117 15 7.64641 15 8.5L17 8.5C17 7.38376 16.7801 6.27846 16.353 5.24719L14.5052 6.01256ZM15 8.5C15 10.2239 14.3152 11.8772 13.0962 13.0962L14.5104 14.5104C16.1045 12.9163 17 10.7543 17 8.5L15 8.5ZM13.0962 13.0962C11.8772 14.3152 10.2239 15 8.5 15L8.5 17C10.7543 17 12.9163 16.1045 14.5104 14.5104L13.0962 13.0962ZM8.5 15C6.77609 15 5.12279 14.3152 3.90381 13.0962L2.48959 14.5104C4.08365 16.1045 6.24566 17 8.5 17L8.5 15ZM3.90381 13.0962C2.68482 11.8772 2 10.2239 2 8.5L6.55671e-07 8.5C4.5859e-07 10.7543 0.895535 12.9163 2.48959 14.5104L3.90381 13.0962Z" fill="#1B2030"/>
</svg>
