<svg width="11" height="11" viewBox="0 0 11 11" fill="none" xmlns="http://www.w3.org/2000/svg">
  <path d="M5 7.5L5 8L6 8L6 7.5L5 7.5ZM6 5.5L6 5L5 5L5 5.5L6 5.5ZM5.5 4C5.77614 4 6 3.77614 6 3.5C6 3.22386 5.77614 3 5.5 3L5.5 4ZM5.495 3C5.21886 3 4.995 3.22386 4.995 3.5C4.995 3.77614 5.21886 4 5.495 4L5.495 3ZM0.999999 5.5L0.499999 5.5L0.999999 5.5ZM5.5 10L5.5 9.5L5.5 10ZM6 7.5L6 5.5L5 5.5L5 7.5L6 7.5ZM5.5 3L5.495 3L5.495 4L5.5 4L5.5 3ZM1.5 5.5C1.5 4.97471 1.60346 4.45457 1.80448 3.96927L0.880601 3.58658C0.629327 4.19321 0.499999 4.84339 0.499999 5.5L1.5 5.5ZM1.80448 3.96927C2.0055 3.48396 2.30014 3.04301 2.67157 2.67157L1.96447 1.96447C1.50017 2.42876 1.13187 2.97995 0.880601 3.58658L1.80448 3.96927ZM2.67157 2.67157C3.04301 2.30014 3.48396 2.0055 3.96927 1.80448L3.58658 0.880602C2.97995 1.13188 2.42876 1.50017 1.96447 1.96447L2.67157 2.67157ZM3.96927 1.80448C4.45457 1.60346 4.97471 1.5 5.5 1.5L5.5 0.500001C4.84339 0.500001 4.19321 0.629328 3.58658 0.880602L3.96927 1.80448ZM5.5 1.5C6.02529 1.5 6.54543 1.60346 7.03073 1.80448L7.41342 0.880603C6.80679 0.629328 6.15661 0.500001 5.5 0.500001L5.5 1.5ZM7.03073 1.80448C7.51604 2.0055 7.95699 2.30014 8.32843 2.67157L9.03553 1.96447C8.57124 1.50017 8.02005 1.13188 7.41342 0.880603L7.03073 1.80448ZM8.32843 2.67157C8.69986 3.04301 8.9945 3.48396 9.19552 3.96927L10.1194 3.58658C9.86812 2.97996 9.49983 2.42876 9.03553 1.96447L8.32843 2.67157ZM9.19552 3.96927C9.39654 4.45457 9.5 4.97471 9.5 5.5L10.5 5.5C10.5 4.84339 10.3707 4.19321 10.1194 3.58658L9.19552 3.96927ZM9.5 5.5C9.5 6.56087 9.07857 7.57828 8.32843 8.32843L9.03553 9.03553C9.97322 8.09785 10.5 6.82608 10.5 5.5L9.5 5.5ZM8.32843 8.32843C7.57828 9.07857 6.56087 9.5 5.5 9.5L5.5 10.5C6.82608 10.5 8.09785 9.97322 9.03553 9.03553L8.32843 8.32843ZM5.5 9.5C4.43913 9.5 3.42172 9.07857 2.67157 8.32843L1.96447 9.03553C2.90215 9.97322 4.17392 10.5 5.5 10.5L5.5 9.5ZM2.67157 8.32843C1.92143 7.57828 1.5 6.56087 1.5 5.5L0.499999 5.5C0.499999 6.82608 1.02678 8.09785 1.96447 9.03553L2.67157 8.32843Z" fill="#5C6279"/>
</svg>
