<svg width="11" height="11" viewBox="0 0 11 11" fill="none" xmlns="http://www.w3.org/2000/svg">
<path d="M5.5 7.5L5.5 5.5M5.5 3.5L5.495 3.5M0.999999 5.5C0.999999 4.90905 1.11639 4.32389 1.34254 3.77792C1.56869 3.23196 1.90016 2.73588 2.31802 2.31802C2.73588 1.90016 3.23196 1.56869 3.77792 1.34254C4.32389 1.1164 4.90905 1 5.5 1C6.09095 1 6.67611 1.1164 7.22208 1.34254C7.76804 1.56869 8.26412 1.90016 8.68198 2.31802C9.09984 2.73588 9.43131 3.23196 9.65746 3.77792C9.8836 4.32389 10 4.90905 10 5.5C10 6.69347 9.52589 7.83807 8.68198 8.68198C7.83807 9.52589 6.69347 10 5.5 10C4.30653 10 3.16193 9.52589 2.31802 8.68198C1.47411 7.83807 0.999999 6.69347 0.999999 5.5Z" stroke="#5C6279" stroke-width="1.3" stroke-linecap="round" stroke-linejoin="round"/>
</svg>
