<svg width="24" height="23" viewBox="0 0 24 23" fill="none" xmlns="http://www.w3.org/2000/svg">
  <path d="M13.9589 0.818149V3.0261L14.1975 3.08655C14.9607 3.28698 15.6985 3.59241 16.3886 3.99646L16.6016 4.12053L16.7765 3.94555L18.1662 2.55524L20.9393 5.3295L19.5528 6.71663L19.3779 6.89161L19.5019 7.10477C19.9058 7.79516 20.2142 8.53326 20.4114 9.29682L20.475 9.53543H22.6788V13.4614H20.4782L20.4178 13.7C20.2174 14.4667 19.9121 15.2048 19.5082 15.8952L19.3842 16.1084L19.5591 16.2834L20.9425 17.6673L18.1694 20.4416L16.7861 19.0576L16.6112 18.8826L16.3981 19.0067C15.708 19.414 14.967 19.7194 14.2038 19.9198L13.9653 19.9803V22.1787H10.0411V19.9803L9.80254 19.9198C9.03614 19.7194 8.29835 19.414 7.60827 19.0067L7.3952 18.8826L7.22029 19.0576L5.83695 20.4416L3.06389 17.6673L4.44724 16.2834L4.62215 16.1084L4.49812 15.8952C4.09425 15.2048 3.78578 14.4667 3.58861 13.7L3.52819 13.4614H1.31801V9.53543H3.52183L3.58543 9.29682C3.78578 8.53326 4.09107 7.79516 4.49494 7.10477L4.61897 6.89161L4.44406 6.71663L3.05753 5.3295L5.83377 2.55842L7.22347 3.94873L7.39838 4.12372L7.61145 3.99964C8.30153 3.59559 9.03614 3.29017 9.80254 3.08973L10.0411 3.02928V0.818149H13.9653M12.0032 15.7839C14.3628 15.7839 16.2804 13.8654 16.2804 11.5048C16.2804 9.14411 14.3628 7.22567 12.0032 7.22567C9.64354 7.22567 7.72593 9.14411 7.72593 11.5048C7.72593 13.8654 9.64354 15.7839 12.0032 15.7839ZM14.277 0.5H9.71668V2.78113C8.90893 2.99111 8.14889 3.31244 7.44608 3.72285L5.83377 2.10983L2.60914 5.33586L4.22145 6.94888C3.80804 7.65199 3.48685 8.41555 3.27696 9.22046H1V13.7827H3.27378C3.48367 14.5908 3.80486 15.3544 4.21827 16.0575L2.60914 17.6673L5.83377 20.8933L7.4429 19.2835C8.14571 19.6971 8.90893 20.0184 9.71986 20.2284V22.5H14.2801V20.2284C15.0879 20.0184 15.8543 19.6971 16.5571 19.2835L18.1662 20.8933L21.3909 17.6673L19.7817 16.0575C20.1951 15.3544 20.5163 14.5908 20.7262 13.7827H23V9.22046H20.723C20.5132 8.41236 20.192 7.64881 19.7785 6.94888L21.3909 5.33586L18.1662 2.10983L16.5539 3.72285C15.8511 3.31244 15.0911 2.99111 14.2833 2.78113V0.5H14.277ZM11.9968 15.4657C9.8089 15.4657 8.03758 13.6936 8.03758 11.5048C8.03758 9.31591 9.8089 7.54382 11.9968 7.54382C14.1847 7.54382 15.9561 9.31591 15.9561 11.5048C15.9561 13.6936 14.1847 15.4657 11.9968 15.4657Z" stroke="#F2F0F9"/>
</svg>
