<svg width="23" height="23" viewBox="0 0 23 23" fill="none" xmlns="http://www.w3.org/2000/svg">
  <path d="M22.9934 13.8865V9.11685H20.6129C20.3935 8.27202 20.0577 7.47375 19.6255 6.74201L21.3111 5.05568L17.9399 1.68301L16.2543 3.36934C15.5195 2.94027 14.7249 2.60434 13.8805 2.38482V0H9.11289V2.38482C8.26843 2.60434 7.47384 2.94027 6.73909 3.36934L5.05348 1.68301L1.68228 5.05568L3.36788 6.74201C2.93568 7.47708 2.59988 8.27534 2.38046 9.11685H0V13.8865H2.37713C2.59656 14.7313 2.93235 15.5296 3.36456 16.2646L1.68228 17.9477L5.05348 21.3203L6.73576 19.6373C7.47051 20.0697 8.26843 20.4056 9.11622 20.6252V23H13.8838V20.6252C14.7282 20.4056 15.5295 20.0697 16.2642 19.6373L17.9465 21.3203L21.3177 17.9477L19.6354 16.2646C20.0677 15.5296 20.4034 14.7313 20.6229 13.8865H23H22.9934ZM11.4967 15.6493C9.20931 15.6493 7.35747 13.7967 7.35747 11.5083C7.35747 9.21996 9.20931 7.36732 11.4967 7.36732C13.784 7.36732 15.6359 9.21996 15.6359 11.5083C15.6359 13.7967 13.784 15.6493 11.4967 15.6493Z" fill="#F2F0F9"/>
</svg>
