<svg width="20" height="20" viewBox="0 0 20 20" fill="none" xmlns="http://www.w3.org/2000/svg">
<path d="M18.4683 4.71333C17.8321 4.99474 17.1574 5.17956 16.4666 5.26167C17.1947 4.82619 17.7397 4.14084 17.9999 3.33333C17.3166 3.74 16.5674 4.025 15.7866 4.17917C15.2621 3.61798 14.5669 3.2458 13.809 3.12049C13.0512 2.99517 12.2732 3.12374 11.596 3.48621C10.9187 3.84868 10.3802 4.42474 10.0642 5.12483C9.74812 5.82492 9.67221 6.60982 9.84825 7.3575C8.46251 7.28804 7.10686 6.92794 5.86933 6.30055C4.63179 5.67317 3.54003 4.79254 2.66492 3.71583C2.35516 4.24788 2.19238 4.85269 2.19326 5.46833C2.19326 6.67667 2.80826 7.74417 3.74326 8.36917C3.18993 8.35175 2.64878 8.20232 2.16492 7.93333V7.97667C2.16509 8.78142 2.44356 9.56135 2.95313 10.1842C3.46269 10.8071 4.17199 11.2346 4.96075 11.3942C4.4471 11.5334 3.90851 11.5539 3.38576 11.4542C3.60814 12.1469 4.04159 12.7527 4.62541 13.1868C5.20924 13.6208 5.9142 13.8615 6.64159 13.875C5.91866 14.4428 5.0909 14.8625 4.20566 15.1101C3.32041 15.3578 2.39503 15.4285 1.48242 15.3183C3.0755 16.3429 4.93 16.8868 6.82409 16.885C13.2349 16.885 16.7408 11.5742 16.7408 6.96833C16.7408 6.81833 16.7366 6.66667 16.7299 6.51833C17.4123 6.02514 18.0013 5.41418 18.4691 4.71417L18.4683 4.71333Z" fill="#ABB1C5"/>
</svg>
