<svg width="12" height="12" viewBox="0 0 12 12" fill="none" xmlns="http://www.w3.org/2000/svg">
<g clip-path="url(#clip0_2352_24675)">
<path d="M5.99963 0.00622845C9.3099 0.00622845 11.9934 2.68973 11.9934 6C11.9934 9.31027 9.3099 11.9938 5.99963 11.9938C2.68936 11.9938 0.00585938 9.31027 0.00585938 6C0.00585938 2.68973 2.68936 0.00622845 5.99963 0.00622845Z" fill="#CDC8E1"/>
<path d="M2.3081 9.47266L5.17305 5.64201L2.29004 2.52751H2.93894L5.46307 5.25436L7.50242 2.52751H9.7105L6.68429 6.57358L9.36781 9.47266H8.7189L6.39439 6.96136L4.51618 9.47266H2.3081ZM3.26233 8.99473H4.27672L8.75614 3.00544H7.74175L3.26233 8.99473Z" fill="white"/>
</g>
<defs>
<clipPath id="clip0_2352_24675">
<rect width="12" height="12" fill="white" transform="matrix(1 0 0 -1 0 12)"/>
</clipPath>
</defs>
</svg>
