<?xml version="1.0" encoding="utf-8"?>
<!-- Generator: Adobe Illustrator 27.9.0, SVG Export Plug-In . SVG Version: 6.00 Build 0)  -->
<svg version="1.1" id="Слой_1" xmlns="http://www.w3.org/2000/svg" xmlns:xlink="http://www.w3.org/1999/xlink" x="0px" y="0px"
	 viewBox="0 0 994 108.8" style="enable-background:new 0 0 994 108.8;" xml:space="preserve">
<style type="text/css">
	.st0{fill:#EAEFFC;stroke:#101423;stroke-linecap:round;stroke-linejoin:round;stroke-miterlimit:10;}
	.st1{fill:#101423;stroke:#101423;stroke-linecap:round;stroke-linejoin:round;stroke-miterlimit:10;}
	.st2{fill:#FFFFFF;stroke:#101423;stroke-linecap:round;stroke-linejoin:round;stroke-miterlimit:10;}
	
		.st3{fill-rule:evenodd;clip-rule:evenodd;fill:#C6C2D1;stroke:#0F1321;stroke-linecap:round;stroke-linejoin:round;stroke-miterlimit:10;}
	
		.st4{fill-rule:evenodd;clip-rule:evenodd;fill:#FFFFFF;stroke:#101423;stroke-linecap:round;stroke-linejoin:round;stroke-miterlimit:10;}
	
		.st5{fill-rule:evenodd;clip-rule:evenodd;fill:#EAEFFC;stroke:#101423;stroke-linecap:round;stroke-linejoin:round;stroke-miterlimit:10;}
	.st6{opacity:0.92;fill-rule:evenodd;clip-rule:evenodd;fill:#FFFFFF;enable-background:new    ;}
	.st7{fill:#0F1423;}
	.st8{fill:#EBEFFC;stroke:#1A2031;stroke-linecap:round;stroke-linejoin:round;stroke-miterlimit:10;}
	.st9{fill:#FFFFFF;stroke:#1A2031;stroke-linecap:round;stroke-linejoin:round;stroke-miterlimit:10;}
	.st10{fill:#C6C2D1;stroke:#1A2031;stroke-linecap:round;stroke-linejoin:round;stroke-miterlimit:10;}
	.st11{opacity:0.2563;fill-rule:evenodd;clip-rule:evenodd;fill:#FFFFFF;enable-background:new    ;}
	.st12{fill:#00ABBF;}
	.st13{fill:url(#SVGID_1_);}
	.st14{fill-rule:evenodd;clip-rule:evenodd;fill:#56506B;}
	.st15{fill-rule:evenodd;clip-rule:evenodd;fill:#FFFFFF;}
	.st16{fill-rule:evenodd;clip-rule:evenodd;fill:#AEAEB0;}
	.st17{fill-rule:evenodd;clip-rule:evenodd;fill:#D2D2D2;}
	
		.st18{fill-rule:evenodd;clip-rule:evenodd;fill:#0F1423;stroke:#0F1424;stroke-linecap:round;stroke-linejoin:round;stroke-miterlimit:10;}
	
		.st19{fill-rule:evenodd;clip-rule:evenodd;fill:#B6FFF0;stroke:#0F1321;stroke-linecap:round;stroke-linejoin:round;stroke-miterlimit:10;}
	.st20{fill-rule:evenodd;clip-rule:evenodd;fill:#00D7B1;}
	.st21{fill-rule:evenodd;clip-rule:evenodd;fill:#FF3981;}
	.st22{fill:#FFFFFF;}
	
		.st23{fill:url(#SVGID_00000175322250575478434050000002366308800241894296_);stroke:#1D1D1B;stroke-width:0.2115;stroke-linecap:round;stroke-linejoin:round;stroke-miterlimit:10;}
	.st24{fill:#C6C2D1;stroke:#0F1321;stroke-linecap:round;stroke-linejoin:round;stroke-miterlimit:10;}
	.st25{fill-rule:evenodd;clip-rule:evenodd;fill:#0F1423;}
	
		.st26{fill:url(#SVGID_00000000901624930796013440000000382450571715151036_);stroke:#1D1D1B;stroke-width:0.2115;stroke-linecap:round;stroke-linejoin:round;stroke-miterlimit:10;}
	
		.st27{fill:url(#SVGID_00000162340133005013044440000010386374444247783599_);stroke:#1D1D1B;stroke-width:0.2115;stroke-linecap:round;stroke-linejoin:round;stroke-miterlimit:10;}
	.st28{opacity:0.67;fill:url(#SVGID_00000142875889731669708010000000246011138489493147_);}
	.st29{fill:url(#SVGID_00000081646097127930415700000005681711597611981186_);}
	
		.st30{fill:url(#SVGID_00000023269679460785476790000010810379987037620409_);stroke:#1D1D1B;stroke-width:0.2115;stroke-linecap:round;stroke-linejoin:round;stroke-miterlimit:10;}
	
		.st31{fill:url(#SVGID_00000129899199555195438130000004063393476490654850_);stroke:#1D1D1B;stroke-width:0.2115;stroke-linecap:round;stroke-linejoin:round;stroke-miterlimit:10;}
	.st32{opacity:0.67;fill:url(#SVGID_00000161625034177049032150000007917645713153695644_);}
	.st33{fill:url(#SVGID_00000042013550912713194280000018008648739077921461_);}
	
		.st34{fill:url(#SVGID_00000130612755610724045630000012613533691598314912_);stroke:#1D1D1B;stroke-width:0.2115;stroke-linecap:round;stroke-linejoin:round;stroke-miterlimit:10;}
	.st35{fill:none;stroke:#101423;stroke-linecap:round;stroke-linejoin:round;stroke-miterlimit:10;}
	
		.st36{fill-rule:evenodd;clip-rule:evenodd;fill:#FFC6D6;stroke:#101423;stroke-linecap:round;stroke-linejoin:round;stroke-miterlimit:10;}
	
		.st37{fill:url(#SVGID_00000103243971802603197260000015875044101256039559_);stroke:#1D1D1B;stroke-width:0.2115;stroke-linecap:round;stroke-linejoin:round;stroke-miterlimit:10;}
	
		.st38{fill:url(#SVGID_00000065071443343148278920000002818164203336364939_);stroke:#1D1D1B;stroke-linecap:round;stroke-linejoin:round;stroke-miterlimit:10;}
	.st39{opacity:0.67;fill:url(#SVGID_00000017494942815550792800000018087781660384529300_);}
	
		.st40{fill-rule:evenodd;clip-rule:evenodd;fill:#FFFFFF;stroke:#111422;stroke-linecap:round;stroke-linejoin:round;stroke-miterlimit:10;}
	
		.st41{fill-rule:evenodd;clip-rule:evenodd;fill:#101422;stroke:#101423;stroke-linecap:round;stroke-linejoin:round;stroke-miterlimit:10;}
	
		.st42{fill-rule:evenodd;clip-rule:evenodd;fill:#C6C3D1;stroke:#101320;stroke-linecap:round;stroke-linejoin:round;stroke-miterlimit:10;}
	
		.st43{fill-rule:evenodd;clip-rule:evenodd;fill:#ECF0FC;stroke:#111422;stroke-linecap:round;stroke-linejoin:round;stroke-miterlimit:10;}
	.st44{opacity:0.67;fill:url(#SVGID_00000114769027154479578130000016595899695270708621_);}
	.st45{fill:url(#SVGID_00000156562576337787183330000004148780375203344274_);}
	
		.st46{fill:url(#SVGID_00000091704319555943428020000000136692753218462633_);stroke:#1D1D1B;stroke-linecap:round;stroke-linejoin:round;stroke-miterlimit:10;}
	.st47{fill-rule:evenodd;clip-rule:evenodd;fill:#101422;}
	
		.st48{fill:url(#SVGID_00000114059452123600150000000010338179327921653125_);stroke:#1D1D1B;stroke-linecap:round;stroke-linejoin:round;stroke-miterlimit:10;}
	.st49{fill:#FAF5ED;stroke:#1D1D1B;stroke-linecap:round;stroke-linejoin:round;stroke-miterlimit:10;}
	.st50{fill:#1D1D1B;}
	.st51{fill:none;stroke:#1D1D1B;stroke-width:3;stroke-linecap:round;stroke-linejoin:round;stroke-miterlimit:10;}
	
		.st52{fill-rule:evenodd;clip-rule:evenodd;fill:#101423;stroke:#101423;stroke-linecap:round;stroke-linejoin:round;stroke-miterlimit:10;}
	.st53{opacity:0.67;fill:url(#SVGID_00000173126740065687059620000013249503653183480982_);}
	.st54{opacity:0.67;fill:url(#SVGID_00000158003044712446517540000005370614371379521687_);}
	.st55{fill:#1D1D1B;stroke:#1D1D1B;stroke-width:2.0846;stroke-linecap:round;stroke-linejoin:round;stroke-miterlimit:10;}
	.st56{fill:#FFFFFF;stroke:#1D1D1B;stroke-width:2.0846;stroke-linecap:round;stroke-linejoin:round;stroke-miterlimit:10;}
	.st57{fill:#4A5479;stroke:#000000;stroke-linecap:round;stroke-linejoin:round;stroke-miterlimit:10;}
	.st58{stroke:#000000;stroke-linecap:round;stroke-linejoin:round;stroke-miterlimit:10;}
	.st59{fill-rule:evenodd;clip-rule:evenodd;stroke:#000000;stroke-linecap:round;stroke-linejoin:round;stroke-miterlimit:10;}
	
		.st60{fill-rule:evenodd;clip-rule:evenodd;fill:#6D75A2;stroke:#000000;stroke-linecap:round;stroke-linejoin:round;stroke-miterlimit:10;}
	
		.st61{fill-rule:evenodd;clip-rule:evenodd;fill:#4A5479;stroke:#000000;stroke-linecap:round;stroke-linejoin:round;stroke-miterlimit:10;}
	.st62{fill-rule:evenodd;clip-rule:evenodd;fill:#5C6A91;}
	.st63{fill:#6D75A2;stroke:#000000;stroke-linecap:round;stroke-linejoin:round;stroke-miterlimit:10;}
	
		.st64{fill-rule:evenodd;clip-rule:evenodd;fill:#9EA8D8;stroke:#000000;stroke-linecap:round;stroke-linejoin:round;stroke-miterlimit:10;}
	
		.st65{fill:url(#SVGID_00000012448491550810458550000017918089769103797636_);stroke:#1D1D1B;stroke-linecap:round;stroke-linejoin:round;stroke-miterlimit:10;}
	.st66{opacity:0.67;fill:url(#SVGID_00000038414618603311749190000008063311123932854718_);}
	
		.st67{fill:url(#SVGID_00000130622736920960241240000001367699580242970267_);stroke:#1D1D1B;stroke-linecap:round;stroke-linejoin:round;stroke-miterlimit:10;}
	
		.st68{fill:url(#SVGID_00000053536154014977554030000014285962395626042255_);stroke:#1D1D1B;stroke-linecap:round;stroke-linejoin:round;stroke-miterlimit:10;}
	
		.st69{fill-rule:evenodd;clip-rule:evenodd;fill:#4AA089;stroke:url(#SVGID_00000149354204543456829510000008396568387957805739_);stroke-linecap:round;stroke-linejoin:round;stroke-miterlimit:10;}
	
		.st70{fill-rule:evenodd;clip-rule:evenodd;fill:#CB3D61;stroke:#000000;stroke-linecap:round;stroke-linejoin:round;stroke-miterlimit:10;}
	.st71{opacity:0.67;fill:url(#SVGID_00000076566682176571673460000004404627099557038263_);}
	.st72{fill:#9EA8D8;stroke:#000000;stroke-linecap:round;stroke-linejoin:round;stroke-miterlimit:10;}
	.st73{fill:#6D75A2;}
	.st74{opacity:0.67;fill:url(#SVGID_00000081613840677153579080000017999241781296122783_);}
	.st75{opacity:0.67;fill:url(#SVGID_00000142144439964189727360000005055870728911248776_);}
	.st76{fill:url(#SVGID_00000011717032907730929570000012541776521778435727_);}
	
		.st77{fill:url(#SVGID_00000138551820617882942260000010425839455798170021_);stroke:#1D1D1B;stroke-linecap:round;stroke-linejoin:round;stroke-miterlimit:10;}
	.st78{opacity:0.67;fill:url(#SVGID_00000039827759478484822740000013433416286293219772_);}
	.st79{opacity:0.67;fill:url(#SVGID_00000122700859282248968000000009220258238569150599_);}
	.st80{fill:url(#SVGID_00000044885667147011318050000016464151369275496372_);}
	
		.st81{fill:url(#SVGID_00000018225463090443339410000001620749509922451628_);stroke:#1D1D1B;stroke-linecap:round;stroke-linejoin:round;stroke-miterlimit:10;}
	
		.st82{fill:url(#SVGID_00000108279742953501155650000002680124669100736139_);stroke:#1D1D1B;stroke-linecap:round;stroke-linejoin:round;stroke-miterlimit:10;}
	.st83{opacity:0.67;fill:url(#SVGID_00000050650561840110481610000003845636546630438307_);}
	.st84{fill:#101423;stroke:#101423;stroke-width:2;stroke-linecap:round;stroke-linejoin:round;stroke-miterlimit:10;}
	.st85{opacity:0.67;fill:url(#SVGID_00000091727417922723726440000005322181738969360274_);}
	
		.st86{fill:url(#SVGID_00000173839130287213336700000017965168833428309120_);stroke:#1D1D1B;stroke-width:0.2115;stroke-linecap:round;stroke-linejoin:round;stroke-miterlimit:10;}
	
		.st87{fill:url(#SVGID_00000121993641078300244860000005665222841431916951_);stroke:#1D1D1B;stroke-width:0.2115;stroke-linecap:round;stroke-linejoin:round;stroke-miterlimit:10;}
	.st88{stroke:#1A213A;stroke-linecap:round;stroke-linejoin:round;stroke-miterlimit:10;}
	.st89{fill:#222846;stroke:#000000;stroke-linecap:round;stroke-linejoin:round;stroke-miterlimit:10;}
	
		.st90{fill-rule:evenodd;clip-rule:evenodd;fill:#222846;stroke:#000000;stroke-linecap:round;stroke-linejoin:round;stroke-miterlimit:10;}
	
		.st91{fill:url(#SVGID_00000108297895693985761750000010206427638319193249_);stroke:#1D1D1B;stroke-width:0.2115;stroke-linecap:round;stroke-linejoin:round;stroke-miterlimit:10;}
	
		.st92{fill:url(#SVGID_00000005246066895390136840000015156596545885502357_);stroke:#1D1D1B;stroke-width:0.2115;stroke-linecap:round;stroke-linejoin:round;stroke-miterlimit:10;}
	
		.st93{fill:url(#SVGID_00000004521339488160575400000013402336870562793143_);stroke:#1D1D1B;stroke-width:0.2115;stroke-linecap:round;stroke-linejoin:round;stroke-miterlimit:10;}
	
		.st94{fill:url(#SVGID_00000165955263003527919510000017842642080551879101_);stroke:#1D1D1B;stroke-width:0.2115;stroke-linecap:round;stroke-linejoin:round;stroke-miterlimit:10;}
	.st95{opacity:0.67;fill:url(#SVGID_00000083083945908531010630000008858279189051000488_);}
	.st96{fill:#3FA9BD;}
	.st97{fill:url(#SVGID_00000060024348029492547970000010486836564505870772_);}
	.st98{fill-rule:evenodd;clip-rule:evenodd;fill:#555069;}
	.st99{fill-rule:evenodd;clip-rule:evenodd;fill:#AFAFB1;}
	.st100{fill-rule:evenodd;clip-rule:evenodd;fill:#D3D3D3;}
	.st101{opacity:0.67;fill:url(#SVGID_00000052783639851990642580000014675252151304189370_);}
	.st102{fill:url(#SVGID_00000019658525548963000130000010646827937637121164_);}
	.st103{opacity:0.67;fill:url(#SVGID_00000153684897465031293610000000881570246471029158_);}
	.st104{fill:url(#SVGID_00000075846887975872330970000013812860617494736060_);}
	.st105{opacity:0.67;fill:url(#SVGID_00000010999237752723730320000017602192776570763149_);}
	.st106{fill:url(#SVGID_00000023962383203133669490000014539305670582850707_);}
	.st107{opacity:0.67;fill:url(#SVGID_00000107560037553817679720000001673046998016515514_);}
	.st108{fill:url(#SVGID_00000129911385287419754890000008223389988194219146_);}
	.st109{opacity:0.67;fill:url(#SVGID_00000072958362656069023010000014768638332881459081_);}
	.st110{fill:url(#SVGID_00000118384125781121790380000000910249120812016816_);}
	.st111{fill-rule:evenodd;clip-rule:evenodd;fill:#6D75A2;}
	.st112{opacity:0.67;fill:url(#SVGID_00000041992959162686054930000004607534763219413377_);}
	.st113{fill:url(#SVGID_00000067213896127216920660000011654168693907597475_);}
	
		.st114{fill:none;stroke:url(#SVGID_00000047022065887192922580000005160388428397950628_);stroke-width:5;stroke-linecap:round;stroke-linejoin:round;stroke-miterlimit:10;}
	.st115{fill:url(#SVGID_00000061473107737956115600000009488115700276180619_);}
	.st116{fill-rule:evenodd;clip-rule:evenodd;fill:#1AD4B3;}
	.st117{fill-rule:evenodd;clip-rule:evenodd;fill:#FC4F83;}
	
		.st118{fill-rule:evenodd;clip-rule:evenodd;fill:#4AA089;stroke:url(#SVGID_00000003808237282687578480000000466036747303300512_);stroke-linecap:round;stroke-linejoin:round;stroke-miterlimit:10;}
	.st119{opacity:0.67;fill:url(#SVGID_00000072977678925194166100000005082572806830079422_);}
	.st120{fill:url(#SVGID_00000015350956688951645370000011192720410534038662_);}
	.st121{fill-rule:evenodd;clip-rule:evenodd;fill:#4A5479;}
	.st122{fill:#5DC29D;}
	.st123{fill:url(#SVGID_00000055665307946901132600000014741437859586991744_);}
	.st124{fill:url(#SVGID_00000024693815033671903800000012410673443726675866_);}
	.st125{fill:#E85C83;}
</style>
<path class="st10" d="M936.6,103h-32.6V18.2h32.3c8.7,0,16.3,1.7,22.6,5.1c6.4,3.4,11.3,8.2,14.7,14.6c3.5,6.3,5.2,13.9,5.2,22.8
	c0,8.8-1.7,16.4-5.2,22.8c-3.5,6.3-8.3,11.2-14.7,14.6C952.6,101.3,945.2,103,936.6,103z M927,83.5h8.8c4.2,0,7.8-0.7,10.7-2
	c3-1.4,5.2-3.7,6.8-7c1.6-3.3,2.3-7.9,2.3-13.8c0-5.9-0.8-10.5-2.4-13.8c-1.6-3.3-3.9-5.6-7-7c-3-1.4-6.8-2-11.2-2H927V83.5z"/>
<polygon class="st10" points="916.8,5.3 903.9,18.2 903.9,103 916.8,90.1 "/>
<path class="st8" d="M984.1,74.4c0,0-14.9,16.5-20.4,20.5c-3.5,2.5-8.4,8.1-27.1,8.1s-32.6,0-32.6,0l12.9-12.9h34.2
	C951.1,90.1,967,91,984.1,74.4z"/>
<path class="st9" d="M949.4,90.1h-32.6V5.3h32.3c8.7,0,16.3,1.7,22.6,5.1c6.4,3.4,11.3,8.2,14.7,14.6c3.5,6.3,5.2,13.9,5.2,22.8
	c0,8.8-1.7,16.4-5.2,22.8c-3.5,6.3-8.3,11.2-14.7,14.6C965.5,88.5,958.1,90.1,949.4,90.1z M939.8,70.6h8.8c4.2,0,7.8-0.7,10.7-2
	c3-1.4,5.2-3.7,6.8-7c1.6-3.3,2.3-7.9,2.3-13.8c0-5.9-0.8-10.5-2.4-13.8c-1.6-3.3-3.9-5.6-7-7c-3.1-1.4-6.8-2-11.2-2h-8.1V70.6z"/>
<polygon class="st10" points="870.1,62.7 869.4,62.7 832.5,5.3 819.6,18.2 819.6,103.1 842.7,103.1 842.7,58.5 843.2,58.5 
	873.9,103.1 893.1,103.1 882.9,5.3 870.1,18.2 "/>
<polygon class="st9" points="882.9,49.8 882.2,49.8 852,5.3 832.5,5.3 832.5,90.3 855.5,90.3 855.5,45.7 856,45.7 886.7,90.3 
	906,90.3 906,5.3 882.9,5.3 "/>
<polygon class="st8" points="832.5,90.3 819.6,103.1 842.7,103.1 855.5,90.3 "/>
<polygon class="st8" points="886.7,90.3 873.9,103.1 893.1,103.1 906,90.3 "/>
<path class="st9" d="M785.7,18.2h23v54.3c0,6.5-1.5,12-4.6,16.7s-7.4,8.3-12.9,10.9c-5.5,2.6-11.9,3.8-19.1,3.8
	c-7.3,0-13.7-1.3-19.2-3.8c-5.5-2.6-9.8-6.2-12.8-10.9c-3.1-4.7-4.6-10.3-4.6-16.7V18.2h23v52.3c0,2.6,0.6,5,1.7,7
	c1.2,2.1,2.8,3.7,4.8,4.8c2.1,1.2,4.4,1.7,7,1.7c2.6,0,5-0.6,7-1.7c2-1.2,3.6-2.8,4.8-4.8c1.2-2.1,1.7-4.4,1.7-7V18.2z"/>
<path class="st8" d="M804.5,82.3c-5.6,0.7-11.2,0.8-16.9,0.5c-2.8-0.2-5.7-0.5-8.5-1c-0.1,0-0.3,0-0.4-0.1c-1.8,1.3-3.9,1.9-6.2,1.9
	c-2.9,0-5.5-1-7.8-3.1c-2.2-2-3.9-5-5.1-9.1c-2.5-2.2-9.6-6.3-11.3-9.3l-12.8,12.2c0,0.1,0.4,6.3,2.1,10.2
	c3.3,7.5,6.4,10.2,12.5,14.2c6.2,4,13.9,6,22.4,6c8.5,0,15.8-2,21.9-6c6.1-4,11.9-10,18.2-17.6C811.3,81.5,805.9,82.1,804.5,82.3z"
	/>
<polygon class="st10" points="798.6,5.3 785.7,18.2 785.7,76 800.4,69.9 "/>
<polygon class="st10" points="748.4,5.3 735.5,18.2 735.5,74.4 748.4,62.2 "/>
<path class="st9" d="M798.6,5.3h23v54.3c0,6.5-1.5,12-4.6,16.7s-7.4,8.3-12.9,10.9c-5.5,2.6-11.9,3.8-19.1,3.8
	c-7.3,0-13.7-1.3-19.2-3.8c-5.5-2.6-9.8-6.2-12.8-10.9c-3.1-4.7-4.6-10.3-4.6-16.7V5.3h23v52.3c0,2.6,0.6,5,1.7,7
	c1.2,2.1,2.8,3.7,4.8,4.8c2.1,1.2,4.4,1.7,7,1.7c2.6,0,5-0.6,7-1.7c2-1.2,3.6-2.8,4.8-4.8c1.2-2.1,1.7-4.4,1.7-7V5.3z"/>
<path class="st10" d="M704.6,22c-6.3-3.3-13.2-5-20.9-5c-7.7,0-8.9-7.8-14.5-3.5c-6,4.7-17.7,16.8-21.3,23.2
	c-3.7,6.5-5.5,14.5-5.5,23.9c0,9.4,1.8,17.3,5.5,23.8c3.7,6.5,8.6,11.4,14.9,14.8c6.2,3.4,13.2,5,21,5c7.7,0,14.7-1.7,20.9-5
	c6.2-3.3,11.2-8.2,14.9-14.7c3.7-6.5,5.5-14.5,5.5-23.9s-1.8-17.4-5.5-23.9C715.9,30.3,710.9,25.4,704.6,22z M699.3,73.5
	c-1.3,3.5-3.3,6.2-5.9,8c-2.6,1.8-5.8,2.7-9.6,2.7c-3.8,0-7-0.9-9.6-2.7c-2.6-1.8-4.6-4.5-5.9-8c-1.3-3.5-2-7.8-2-12.9
	c0-5.1,0.7-9.4,2-12.9c1.3-3.5,3.3-6.2,5.9-8c2.6-1.8,5.8-2.7,9.6-2.7c3.8,0,7,0.9,9.6,2.7c2.6,1.8,4.6,4.5,5.9,8
	c1.3,3.5,2,7.8,2,12.9C701.3,65.8,700.7,70,699.3,73.5z"/>
<path class="st8" d="M716.5,82.3c-5.8,0.7-11.6,0.8-17.4,0.5c-2.9-0.2-5.8-0.5-8.7-1c-0.1,0-0.3,0-0.4-0.1c-1.9,1.3-4,1.9-6.4,1.9
	c-3,0-5.7-1-8-3.1c-2.2-2-4-5-5.3-9.1c-2.6-2.2-5.6-4.2-7.3-7.1l-16.8,16.8c0.1,0.1,0.1,0.2,0.2,0.4c3.4,7.5,8.3,13.3,14.7,17.3
	c6.3,4,13.9,6,22.6,6c8.7,0,16.2-2,22.6-6c6.3-4,12.2-10,18.7-17.6C723.6,81.5,718,82.1,716.5,82.3z"/>
<path class="st9" d="M717.5,9.2c-6.3-3.3-13.2-5-20.9-5c-7.7,0-14.7,1.7-21,5c-6.2,3.3-11.2,8.2-14.9,14.7
	c-3.7,6.5-5.5,14.5-5.5,23.9c0,9.4,1.8,17.3,5.5,23.8c3.7,6.5,8.6,11.4,14.9,14.8c6.2,3.4,13.2,5,21,5c7.7,0,14.7-1.7,20.9-5
	c6.2-3.3,11.2-8.2,14.9-14.7c3.7-6.5,5.5-14.5,5.5-23.9s-1.8-17.4-5.5-23.9C728.7,17.4,723.7,12.5,717.5,9.2z M712.1,60.7
	c-1.3,3.5-3.3,6.2-5.9,8c-2.6,1.8-5.8,2.7-9.6,2.7c-3.8,0-7-0.9-9.6-2.7c-2.6-1.8-4.6-4.5-5.9-8c-1.3-3.5-2-7.8-2-12.9
	c0-5.1,0.7-9.4,2-12.9c1.3-3.5,3.3-6.2,5.9-8c2.6-1.8,5.8-2.7,9.6-2.7c3.8,0,7,0.9,9.6,2.7c2.6,1.8,4.6,4.5,5.9,8
	c1.3,3.5,2,7.8,2,12.9C714.2,52.9,713.5,57.2,712.1,60.7z"/>
<path class="st9" d="M574.7,103V18.2h59.6v18.5h-36.6v14.6h33v18.5h-33V103H574.7z"/>
<g>
	<path class="st10" d="M517.2,45.6c-0.4-1.5-0.9-2.8-1.7-3.9c-0.8-1.1-1.8-2.1-2.9-2.9c-1.2-0.8-2.5-1.4-4-1.8
		c-1.5-0.4-3.2-0.6-5-0.6c-3.9,0-7.2,0.9-10,2.8c-2.7,1.9-4.8,4.6-6.3,8.1c-1.4,3.5-2.2,7.8-2.2,12.7c0,5,0.7,9.3,2.1,12.9
		c1.4,3.6,3.4,6.3,6.1,8.2c2.7,1.9,6.1,2.8,10.1,2.8c3.5,0,6.5-0.5,8.9-1.5c2.4-1,4.1-2.5,5.3-4.4c1.2-1.9,5.8-3.7,5.8-6.3l0,0
		h-19.6V55.1h38V67c0,7.8,6.8,9.6,2.3,14.2c-5.6,5.9-15.1,15.6-20.9,18.5c-5.8,2.9-12.4,4.4-19.9,4.4c-8.3,0-15.7-1.8-22-5.3
		c-6.3-3.5-11.2-8.6-14.8-15.2c-3.5-6.6-5.3-14.4-5.3-23.4c0-7.1,1.1-13.4,3.2-18.8c2.2-5.5,5.2-10.1,9-13.9
		c3.9-3.8,11.9-11.9,16.3-15.6c4.1-3.5,7.5,4.1,13.3,4.1c5.1,0,9.8,0.7,14.2,2.2c4.4,1.4,8.2,3.5,11.6,6.1c3.4,2.6,6.1,5.8,8.1,9.4
		c2.1,3.6,3.3,7.5,3.8,11.8H517.2z"/>
	<path class="st8" d="M503.7,55.1v16.6h19.6c0,2.5-4.4,4.3-5.7,6.2c0.8,0.1,1.6,0.2,2.3,0.3c2.7,0.4,5.4,1.1,8.1,1.6
		c3.4,0.6,6.8,1.2,10.2,1.8c1.6,0.3,3.1,0.5,4.7,0.8c0.4-0.4,0.8-0.8,1.1-1.2c4.5-4.7-2.3-6.4-2.3-14.2V55.1H503.7z"/>
	<path class="st10" d="M537.1,82c-3.3-0.6-6.6-1.1-9.9-1.7c-2.7-0.6-5.4-1.2-8.2-1.6c-0.6-0.1-1.2-0.2-1.8-0.2c-1.2,1.7-2.8,3-5,4
		c-2.4,1-5.3,1.5-8.9,1.5c-4,0-7.4-0.9-10.1-2.8c-2.7-1.9-4.7-4.6-6.1-8.2c-1.4-3.6-2.1-7.9-2.1-12.9c0-5,0.7-9.2,2.2-12.7
		c1.4-3.5,3.5-6.2,6.3-8.1c2.7-1.9,6.1-2.8,10-2.8c1.8,0,3.5,0.2,5,0.6c1.5,0.4,2.9,1,4,1.8c1.2,0.8,2.1,1.8,2.9,2.9
		c0.8,1.1,1.4,2.4,1.7,3.9h23.5c-0.4-4.3-1.7-8.2-3.8-11.8c-2.1-3.6-4.8-6.7-8.1-9.4c-3.4-2.6-7.2-4.7-11.6-6.1
		c-4.4-1.4-9.1-2.2-14.2-2.2c-5.8,0-9.2-7.6-13.3-4.1c-4.3,3.7-12.4,11.8-16.3,15.6c-3.9,3.8-6.9,8.4-9,13.9
		c-2.2,5.5-3.2,11.7-3.2,18.8c0,9,1.8,16.8,5.3,23.4c3.5,6.6,8.4,11.6,14.8,15.2c6.3,3.5,13.6,5.3,22,5.3c7.5,0,14.1-1.5,19.9-4.4
		c5.3-2.7,13.6-11,19.3-16.9C540.6,82.6,538.9,82.3,537.1,82z"/>
	<polygon class="st10" points="515.6,43.2 503.7,55.1 503.7,71.7 515.6,59.8 	"/>
	<path class="st8" d="M536.3,81.2c-5.9,0.7-11.8,0.9-17.7,0.5c-3-0.2-5.9-0.5-8.9-1c-0.1,0-0.3,0-0.4-0.1c-1.9,1.3-4.1,1.9-6.5,1.9
		c-3.1,0-5.8-1-8.1-3.1c-2.3-2-4.1-5.1-5.4-9.3c-2.6-2.3-5.7-4.2-7.5-7.2l-17.1,17.1c0.1,0.1,0.1,0.2,0.2,0.4
		c3.5,7.7,8.5,13.5,14.9,17.6c6.5,4.1,14.1,6.1,23,6.2c8.9,0,16.5-2,23-6.1c6.4-4,12.4-10.1,19.1-17.9
		C543.5,80.5,537.8,81.1,536.3,81.2z"/>
	<polygon class="st10" points="552.6,33.7 540.7,45.6 517.2,45.6 529.1,33.7 	"/>
	<path class="st9" d="M529.1,33.7c-0.4-1.5-0.9-2.8-1.7-3.9c-0.8-1.1-1.8-2.1-2.9-2.9c-1.2-0.8-2.5-1.4-4-1.8
		c-1.5-0.4-3.2-0.6-5-0.6c-3.9,0-7.2,0.9-10,2.8c-2.7,1.9-4.8,4.6-6.3,8.1c-1.4,3.5-2.2,7.8-2.2,12.7c0,5,0.7,9.3,2.1,12.9
		c1.4,3.6,3.4,6.3,6.1,8.2c2.7,1.9,6.1,2.8,10.1,2.8c3.5,0,6.5-0.5,8.9-1.5c2.4-1,4.1-2.5,5.3-4.4c1.2-1.9,1.8-3.7,1.8-6.3h0h-15.6
		V43.2h38v11.9c0,7.8-1.7,14.5-5,20c-3.3,5.5-7.9,9.8-13.6,12.7c-5.8,2.9-12.4,4.4-19.9,4.4c-8.3,0-15.7-1.8-22-5.3
		c-6.3-3.5-11.2-8.6-14.8-15.2c-3.5-6.6-5.3-14.4-5.3-23.4c0-7.1,1.1-13.4,3.2-18.8c2.2-5.5,5.2-10.1,9-13.9
		c3.9-3.8,8.3-6.6,13.4-8.6c5.1-1.9,10.5-2.9,16.2-2.9c5.1,0,9.8,0.7,14.2,2.2c4.4,1.4,8.2,3.5,11.6,6.1c3.4,2.6,6.1,5.8,8.1,9.4
		c2.1,3.6,3.3,7.5,3.8,11.8H529.1z"/>
</g>
<polygon class="st10" points="587.6,5.3 574.7,18.2 574.7,103 587.6,90.1 "/>
<polygon class="st10" points="647.2,23.9 634.3,36.8 610.6,36.8 610.6,23.9 "/>
<polygon class="st10" points="643.6,57 630.7,69.9 610.6,69.9 610.6,57 "/>
<polygon class="st8" points="610.6,90.1 597.7,103 574.7,103 587.6,90.1 "/>
<path class="st9" d="M587.6,90.1V5.3h59.6v18.5h-36.6v14.6h33V57h-33v33.1H587.6z"/>
<polygon class="st10" points="427.5,62.7 426.9,62.7 389.9,5.3 377.1,18.2 377.1,103.1 400.2,103.1 400.2,58.5 400.7,58.5 
	431.4,103.1 450.6,103.1 440.4,5.3 427.5,18.2 "/>
<polygon class="st9" points="440.4,49.8 439.7,49.8 409.5,5.3 389.9,5.3 389.9,90.3 413,90.3 413,45.7 413.5,45.7 444.2,90.3 
	463.4,90.3 463.4,5.3 440.4,5.3 "/>
<polygon class="st8" points="389.9,90.3 377.1,103.1 400.2,103.1 413,90.3 "/>
<polygon class="st8" points="444.2,90.3 431.4,103.1 450.6,103.1 463.4,90.3 "/>
<path class="st9" d="M366.2,18.2V103h-23V18.2H366.2z"/>
<polygon class="st10" points="356,5.3 343.1,18.2 343.1,103 356,90.1 "/>
<polygon class="st8" points="379.1,90.1 366.2,103 343.1,103 356,90.1 "/>
<path class="st9" d="M379.1,5.3v84.8h-23V5.3H379.1z"/>
<path class="st9" d="M255.7,103V18.2h23v33.1h30.5V18.2h23V103h-23V69.9h-30.5V103H255.7z"/>
<polygon class="st10" points="268.6,5.3 255.7,18.2 255.7,103 268.6,90.1 "/>
<polygon class="st10" points="322.1,5.3 309.2,18.2 309.2,38.5 322.1,38.5 "/>
<polygon class="st10" points="322.1,90.1 309.2,103 309.2,69.9 322.1,57 "/>
<polygon class="st10" points="291.6,57 322.1,57 309.2,69.9 291.6,69.9 "/>
<polygon class="st8" points="291.6,90.1 278.7,103 255.7,103 268.6,90.1 "/>
<polygon class="st8" points="345.1,90.1 332.2,103 309.2,103 322.1,90.1 "/>
<path class="st9" d="M268.6,90.1V5.3h23v33.1h30.5V5.3h23v84.8h-23V57h-30.5v33.1H268.6z"/>
<path class="st9" d="M173.4,36.8V18.2h73.7v18.5h-25.5V103h-22.7V36.8H173.4z"/>
<polygon class="st10" points="186.3,5.3 173.4,18.2 173.4,36.8 186.3,23.9 "/>
<polygon class="st10" points="211.8,23.9 198.9,36.8 173.4,36.8 186.3,23.9 "/>
<polygon class="st10" points="211.8,90.1 211.8,23.9 198.9,36.8 198.9,103 "/>
<polygon class="st8" points="234.5,90.1 221.6,103 198.9,103 211.8,90.1 "/>
<polygon class="st10" points="260,23.9 247.1,36.8 234.5,36.8 234.5,23.9 "/>
<path class="st9" d="M186.3,23.9V5.3H260v18.5h-25.5v66.2h-22.7V23.9H186.3z"/>
<polygon class="st10" points="53.1,62.7 52.5,62.7 15.5,5.3 2.7,18.2 2.7,103.1 25.8,103.1 25.8,58.5 26.3,58.5 57,103.1 
	76.2,103.1 66,5.3 53.1,18.2 "/>
<path class="st10" d="M149,22c-6.3-3.3-13.2-5-20.9-5c-7.7,0-8.9-7.8-14.5-3.5c-6,4.7-17.7,16.8-21.3,23.2
	c-3.7,6.5-5.5,14.5-5.5,23.9c0,9.4,1.8,17.3,5.5,23.8c3.7,6.5,8.6,11.4,14.9,14.8c6.2,3.4,13.2,5,21,5c7.7,0,14.7-1.7,20.9-5
	c6.2-3.3,11.2-8.2,14.9-14.7c3.7-6.5,5.5-14.5,5.5-23.9s-1.8-17.4-5.5-23.9C160.3,30.3,155.3,25.4,149,22z M143.7,73.5
	c-1.3,3.5-3.3,6.2-5.9,8c-2.6,1.8-5.8,2.7-9.6,2.7c-3.8,0-7-0.9-9.6-2.7c-2.6-1.8-4.6-4.5-5.9-8c-1.3-3.5-2-7.8-2-12.9
	c0-5.1,0.7-9.4,2-12.9c1.3-3.5,3.3-6.2,5.9-8c2.6-1.8,5.8-2.7,9.6-2.7c3.8,0,7,0.9,9.6,2.7c2.6,1.8,4.6,4.5,5.9,8
	c1.3,3.5,2,7.8,2,12.9C145.7,65.8,145.1,70,143.7,73.5z"/>
<path class="st8" d="M160.9,82.3c-5.8,0.7-11.6,0.8-17.4,0.5c-2.9-0.2-5.8-0.5-8.7-1c-0.1,0-0.3,0-0.4-0.1c-1.9,1.3-4,1.9-6.4,1.9
	c-3,0-5.7-1-8-3.1c-2.2-2-4-5-5.3-9.1c-2.6-2.2-5.6-4.2-7.3-7.1L90.7,81.1c0.1,0.1,0.1,0.2,0.2,0.4c3.4,7.5,8.3,13.3,14.7,17.3
	c6.3,4,13.9,6,22.6,6c8.7,0,16.2-2,22.6-6c6.3-4,12.2-10,18.7-17.6C168,81.5,162.4,82.1,160.9,82.3z"/>
<polygon class="st9" points="66,49.8 65.3,49.8 35.1,5.3 15.5,5.3 15.5,90.3 38.6,90.3 38.6,45.7 39.1,45.7 69.8,90.3 89,90.3 
	89,5.3 66,5.3 "/>
<path class="st9" d="M161.9,9.2c-6.3-3.3-13.2-5-20.9-5c-7.7,0-14.7,1.7-21,5c-6.2,3.3-11.2,8.2-14.9,14.7
	c-3.7,6.5-5.5,14.5-5.5,23.9c0,9.4,1.8,17.3,5.5,23.8c3.7,6.5,8.6,11.4,14.9,14.8c6.2,3.4,13.2,5,21,5c7.7,0,14.7-1.7,20.9-5
	c6.2-3.3,11.2-8.2,14.9-14.7c3.7-6.5,5.5-14.5,5.5-23.9s-1.8-17.4-5.5-23.9C173.1,17.4,168.1,12.5,161.9,9.2z M156.5,60.7
	c-1.3,3.5-3.3,6.2-5.9,8c-2.6,1.8-5.8,2.7-9.6,2.7c-3.8,0-7-0.9-9.6-2.7c-2.6-1.8-4.6-4.5-5.9-8c-1.3-3.5-2-7.8-2-12.9
	c0-5.1,0.7-9.4,2-12.9c1.3-3.5,3.3-6.2,5.9-8c2.6-1.8,5.8-2.7,9.6-2.7c3.8,0,7,0.9,9.6,2.7c2.6,1.8,4.6,4.5,5.9,8
	c1.3,3.5,2,7.8,2,12.9C158.6,52.9,157.9,57.2,156.5,60.7z"/>
<polygon class="st8" points="15.5,90.3 2.7,103.1 25.8,103.1 38.6,90.3 "/>
<polygon class="st8" points="69.8,90.3 57,103.1 76.2,103.1 89,90.3 "/>
</svg>
