<svg width="32" height="43" viewBox="0 0 32 43" fill="none" xmlns="http://www.w3.org/2000/svg">
<path class="black" d="M16.1135 38.7196C18.8864 38.7196 20.9693 38.0614 21.8232 37.2759L21.3188 34.9229C20.1209 35.5472 18.252 35.9426 16.1135 35.9426C13.9751 35.9426 12.1062 35.5472 10.9083 34.9229L10.4038 37.2759C11.2577 38.0614 13.3406 38.7196 16.1135 38.7196Z" fill="#101423"/>
<path class="black" d="M16.1135 35.4791C18.3691 35.4791 20.1662 35.043 21.2192 34.458L20.7438 32.2383H11.4832L11.0078 34.458C12.0608 35.043 13.8579 35.4791 16.1135 35.4791Z" fill="#101423"/>
<path class="black" d="M21.9308 37.7793C20.8277 38.621 18.6609 39.1817 16.1134 39.1817C13.566 39.1817 11.3984 38.621 10.296 37.7793L9.74756 40.3403H9.75975C9.7523 40.3883 9.74756 40.4364 9.74756 40.4852C9.74756 41.8435 12.5977 42.9453 16.1141 42.9453C19.6299 42.9453 22.4806 41.8442 22.4806 40.4852C22.4806 40.4364 22.4759 40.3883 22.4685 40.3403H22.4806L21.9322 37.7793H21.9308Z" fill="#101423"/>
<path class="black" d="M25.1597 33.7638C23.3111 33.1354 19.8637 32.7129 15.9153 32.7129C11.9425 32.7129 8.47614 33.1408 6.63633 33.7753L3.92773 32.7826C3.92773 32.7826 4.68005 34.4186 5.37615 35.1628C5.41949 35.215 5.47231 35.2664 5.53461 35.3172C5.53799 35.3199 5.5407 35.3226 5.54409 35.3253C5.65108 35.4167 5.79802 35.5048 5.97001 35.5887C6.37021 35.7899 6.92141 35.9754 7.59788 36.1406C8.2994 36.3221 8.89394 36.4304 8.89394 36.4304V36.4067C10.771 36.7297 13.227 36.9254 15.9146 36.9254C20.6973 36.9254 24.746 36.3052 26.1064 35.4506C26.2134 35.391 26.3068 35.3294 26.3806 35.2657C27.1173 34.636 27.997 32.723 27.997 32.723L25.1584 33.7638H25.1597Z" fill="#101423"/>
<path class="white_bg_black_stroke" d="M15.9151 35.008C22.5206 35.008 27.8755 33.9521 27.8755 32.6495C27.8755 31.347 22.5206 30.291 15.9151 30.291C9.30947 30.291 3.95459 31.347 3.95459 32.6495C3.95459 33.9521 9.30947 35.008 15.9151 35.008Z" fill="#F2F0F9" stroke="#1B2030" stroke-linecap="round" stroke-linejoin="round"/>
<path class="white_bg_black_stroke" d="M28.2451 21.909C28.0555 11.5202 16.2223 0.956055 16.2223 0.956055C16.2223 0.956055 4.38982 11.5209 4.19954 21.909C4.09729 27.5104 4.25168 33.0021 4.25168 33.0021C4.22392 33.8499 7.08013 34.374 7.0781 34.3733C7.0781 34.3733 11.2642 35.2482 16.2223 35.2035C21.1804 35.2489 25.3665 34.3733 25.3665 34.3733C25.3645 34.3733 28.2207 33.8499 28.1929 33.0021C28.1929 33.0021 28.3473 27.5111 28.2451 21.909Z" fill="#F2F0F9" stroke="#101423" stroke-linecap="round" stroke-linejoin="round"/>
<path class="black" d="M16.3977 0.722656H16.3761C15.9767 1.06204 10.0864 6.13413 7.49805 12.1592C7.50487 12.1618 7.50943 12.1677 7.50943 12.1747C7.50943 12.4542 10.0056 14.056 16.3869 14.056C22.7683 14.056 25.2644 12.4547 25.2644 12.1747C25.2644 12.1677 25.269 12.1618 25.2758 12.1592C22.6875 6.13359 16.7972 1.06204 16.3977 0.722656Z" fill="#101423"/>
<path class="black" d="M5.22844 23.8939L0.706447 29.8338C0.646858 29.9117 0.613001 30.0194 0.611646 30.1325L0.444391 42.4979C0.438296 42.9529 0.942094 43.1276 1.02742 42.6881C1.79124 38.7546 4.16058 34.4818 5.37267 33.9252C5.49253 33.8703 5.61509 33.7125 5.61848 33.5385L5.74578 24.2115C5.75323 23.8343 5.42617 23.6339 5.22776 23.8939H5.22844Z" fill="#101423"/>
<path class="black" d="M26.4713 23.8939L30.9933 29.8338C31.0529 29.9117 31.0867 30.0194 31.0881 30.1325L31.2546 42.4979C31.2607 42.9529 30.7569 43.1276 30.6716 42.6881C29.9078 38.7546 27.5385 34.4818 26.3264 33.9252C26.2065 33.8703 26.0839 33.7125 26.0806 33.5385L25.9533 24.2115C25.9458 23.8343 26.2729 23.6339 26.4713 23.8939Z" fill="#101423"/>
<path class="white_bg_black_stroke" d="M16.3868 26.7785C19.1176 26.7785 21.3313 24.5648 21.3313 21.8341C21.3313 19.1034 19.1176 16.8896 16.3868 16.8896C13.6561 16.8896 11.4424 19.1034 11.4424 21.8341C11.4424 24.5648 13.6561 26.7785 16.3868 26.7785Z" fill="#F2F0F9" stroke="#101423" stroke-linecap="round" stroke-linejoin="round"/>
<path class="black" d="M16.3866 25.1667C18.2275 25.1667 19.7199 23.6743 19.7199 21.8333C19.7199 19.9924 18.2275 18.5 16.3866 18.5C14.5456 18.5 13.0532 19.9924 13.0532 21.8333C13.0532 23.6743 14.5456 25.1667 16.3866 25.1667Z" fill="#29282F"/>
</svg>
