<svg width="46" height="58" viewBox="0 0 46 58" fill="none" xmlns="http://www.w3.org/2000/svg">
<path d="M15.7653 19.6115L18.2225 23.4917L11.9137 30.3388L8.12397 27.9303L10.4762 22.8717L15.7653 19.6115Z" fill="white"/>
<path d="M12.594 24.4617C10.8181 26.2377 9.89189 27.9796 9.83173 29.0132L11.6129 30.1481C11.9932 28.9941 12.9452 27.552 14.3148 26.1824C15.6843 24.8129 17.1264 23.8609 18.2804 23.4806L17.1455 21.6994C16.1119 21.7596 14.37 22.6858 12.594 24.4617Z" fill="#101423"/>
<path d="M14.6027 26.4701C13.1581 27.9148 12.2773 29.336 11.9654 30.3729L13.6453 31.4438L19.5764 25.5127L18.5055 23.8329C17.4686 24.1447 16.0473 25.0255 14.6027 26.4701Z" fill="#101423"/>
<path d="M9.44902 28.7695C9.63395 27.5415 10.6743 25.8062 12.3059 24.1747C13.9374 22.5432 15.6731 21.5023 16.9007 21.3178L15.6651 19.3797L15.6573 19.3875C15.6323 19.3529 15.6055 19.3201 15.5753 19.2899C14.7336 18.4482 12.2256 19.5909 9.9734 21.8431C7.72169 24.0948 6.5781 26.6029 7.4202 27.445C7.45041 27.4752 7.48324 27.502 7.5178 27.527L7.50999 27.5348L9.44815 28.7704L9.44902 28.7695Z" fill="#101423"/>
<path d="M9.69269 33.555C11.2547 32.7597 13.7105 30.8195 16.228 28.3021C18.761 25.769 20.71 23.2979 21.496 21.7377L23.8285 20.6164C23.8285 20.6164 22.3508 20.098 21.4529 20.0878C21.3935 20.0836 21.3284 20.0859 21.2577 20.0946C21.2539 20.0951 21.2505 20.0952 21.2467 20.0957C21.1227 20.1081 20.9754 20.1481 20.8145 20.2066C20.4366 20.339 19.972 20.5773 19.4399 20.9078C18.8819 21.2444 18.4367 21.5573 18.4367 21.5573L18.4512 21.5718C17.0573 22.5715 15.372 24.0181 13.6584 25.7316C10.609 28.781 8.40606 31.7408 8.06004 33.1295C8.02818 33.2341 8.00619 33.3313 7.99797 33.4172C7.91243 34.2711 8.51865 35.999 8.51865 35.999L9.69355 33.5542L9.69269 33.555Z" fill="#101423"/>
<path d="M14.6881 26.8207C10.4504 31.0585 7.69184 35.1707 8.52676 36.0056C9.36168 36.8406 13.4739 34.082 17.7116 29.8443C21.9494 25.6065 24.7079 21.4943 23.873 20.6594C23.0381 19.8245 18.9259 22.583 14.6881 26.8207Z" fill="white" stroke="#101423" stroke-linecap="round" stroke-linejoin="round"/>
<path d="M14.946 42.9956C16.2338 44.2355 17.8117 45.1132 19.5156 45.7233L35.5156 45.7476C35.5156 45.7476 36.6979 34.0827 30.4007 27.5409C27.005 24.0138 23.5121 20.7194 23.5121 20.7194C23.0061 20.1776 20.8482 21.6886 20.8482 21.6886C20.8482 21.6886 17.617 23.8385 14.4579 27.0528C11.2432 30.2115 9.09368 33.4431 9.09368 33.4431C9.09368 33.4431 7.58268 35.601 8.12443 36.1071C8.12443 36.1071 11.4184 39.5995 14.946 42.9956Z" fill="white" stroke="#101423" stroke-linecap="round" stroke-linejoin="round"/>
<path d="M35.5156 46.2474L36.0169 46.2475C36.0751 45.7573 36.5723 40.683 34.5146 35.072C34.5082 35.075 34.5014 35.0744 34.497 35.07C34.3191 34.8921 31.5863 35.5861 27.2062 39.9662C22.8261 44.3463 22.0156 46.2474 22.0156 46.2474C27.5156 46.2472 35.0255 46.3056 35.5156 46.2474Z" fill="#101423"/>
<path d="M28.5131 27.0662L27.8223 20.3542C27.8135 20.266 27.7689 20.1764 27.6994 20.105L20.1054 12.2883C19.8259 12.0007 19.3816 12.2272 19.5986 12.5579C21.5412 15.5176 22.6264 19.7576 22.1662 20.9114C22.1206 21.0254 22.1373 21.2053 22.2435 21.316L27.9708 27.2128C28.2009 27.4528 28.5435 27.3599 28.5136 27.0658L28.5131 27.0662Z" fill="#101423"/>
<path d="M14.9464 40.6315L8.36527 39.8098C8.2788 39.7992 8.19015 39.7537 8.11882 39.6841L0.307379 32.0848C0.0199421 31.8051 0.231908 31.3754 0.560092 31.5949C3.49766 33.5597 7.66907 34.7134 8.78781 34.2883C8.89832 34.2462 9.07469 34.2664 9.18529 34.3727L15.0784 40.1037C15.3182 40.334 15.2348 40.6672 14.9464 40.6315Z" fill="#101423"/>
<path d="M19.4711 32.2185C17.6796 34.0101 17.5985 36.8845 19.3521 38.6381C21.1057 40.3917 23.9802 40.3107 25.7718 38.5191C27.5633 36.7275 27.6444 33.8531 25.8908 32.0994C24.1372 30.3458 21.2627 30.4269 19.4711 32.2185Z" fill="white" stroke="#101423" stroke-linecap="round" stroke-linejoin="round"/>
<path d="M20.5803 33.3284C19.3938 34.515 19.3456 36.3906 20.4727 37.5178C21.5999 38.6449 23.4755 38.5968 24.6621 37.4102C25.8486 36.2236 25.8968 34.348 24.7697 33.2208C23.6425 32.0937 21.7669 32.1419 20.5803 33.3284Z" fill="#101423"/>
<path d="M9.01953 46H43.0195" stroke="#101423"/>
<circle cx="15.0195" cy="14" r="2" fill="#CDC8E1"/>
<circle cx="18.0195" cy="1" r="1" fill="#CDC8E1"/>
<circle cx="9.01953" cy="7" r="4" fill="#CDC8E1"/>
</svg>
