<?xml version="1.0" encoding="utf-8"?>
<!-- Generator: Adobe Illustrator 27.8.1, SVG Export Plug-In . SVG Version: 6.00 Build 0)  -->
<svg version="1.1" id="Слой_1" xmlns="http://www.w3.org/2000/svg" xmlns:xlink="http://www.w3.org/1999/xlink" x="0px" y="0px"
	 viewBox="0 0 290 269.62" style="enable-background:new 0 0 290 269.62;" xml:space="preserve">
<style type="text/css">
	
		.st0{fill-rule:evenodd;clip-rule:evenodd;fill:#FFFFFF;stroke:#111422;stroke-linecap:round;stroke-linejoin:round;stroke-miterlimit:10;}
	
		.st1{fill-rule:evenodd;clip-rule:evenodd;fill:#C6C3D1;stroke:#101320;stroke-linecap:round;stroke-linejoin:round;stroke-miterlimit:10;}
	
		.st2{fill-rule:evenodd;clip-rule:evenodd;fill:#ECF0FC;stroke:#111422;stroke-linecap:round;stroke-linejoin:round;stroke-miterlimit:10;}
	.st3{fill:url(#SVGID_1_);stroke:#1D1D1B;stroke-width:0.2115;stroke-linecap:round;stroke-linejoin:round;stroke-miterlimit:10;}
	.st4{fill:#C6C3D1;stroke:#101320;stroke-linecap:round;stroke-linejoin:round;stroke-miterlimit:10;}
	.st5{fill-rule:evenodd;clip-rule:evenodd;fill:#101422;}
	.st6{fill:#101422;}
	.st7{fill:#FFFFFF;stroke:#111422;stroke-linecap:round;stroke-linejoin:round;stroke-miterlimit:10;}
	.st8{opacity:0.92;fill-rule:evenodd;clip-rule:evenodd;fill:#FFFFFF;enable-background:new    ;}
	
		.st9{fill:url(#SVGID_00000116204065433297544950000007625783800116067242_);stroke:#1D1D1B;stroke-width:0.2115;stroke-linecap:round;stroke-linejoin:round;stroke-miterlimit:10;}
	.st10{fill:none;stroke:#FFFFFF;stroke-linecap:round;stroke-linejoin:round;stroke-miterlimit:10;}
	.st11{fill:url(#SVGID_00000119833591317273527670000002949028387398501519_);}
	.st12{fill:url(#SVGID_00000171719167591990933280000004374445046531606928_);}
	.st13{fill:url(#SVGID_00000141457804207402743510000012142050404109916298_);}
	.st14{opacity:0.67;fill:url(#SVGID_00000019660045126551176020000004930751938522665385_);enable-background:new    ;}
	.st15{fill:#6FA3B6;}
	.st16{fill:url(#SVGID_00000098932648846856039740000001986033070423859888_);}
	.st17{opacity:0.2563;fill-rule:evenodd;clip-rule:evenodd;fill:#FFFFFF;enable-background:new    ;}
	.st18{fill:none;stroke:#FFFFFF;stroke-width:0.7384;stroke-linecap:round;stroke-linejoin:round;stroke-miterlimit:10;}
	
		.st19{fill:none;stroke:url(#SVGID_00000124841327803924240100000004519796938354803847_);stroke-width:5;stroke-linecap:round;stroke-linejoin:round;stroke-miterlimit:10;}
	.st20{fill:url(#SVGID_00000122716802260695923610000012944631809588192659_);}
	.st21{fill-rule:evenodd;clip-rule:evenodd;fill:#1AD4B3;}
	.st22{fill-rule:evenodd;clip-rule:evenodd;fill:#FC4F83;}
	.st23{fill:#ECF0FC;stroke:#111422;stroke-linecap:round;stroke-linejoin:round;stroke-miterlimit:10;}
	
		.st24{fill:url(#SVGID_00000057133868100757432280000016465091645353877136_);stroke:#1D1D1B;stroke-width:0.2115;stroke-linecap:round;stroke-linejoin:round;stroke-miterlimit:10;}
	
		.st25{fill:url(#SVGID_00000072994215670859568030000013622592459350907265_);stroke:#1D1D1B;stroke-width:0.2115;stroke-linecap:round;stroke-linejoin:round;stroke-miterlimit:10;}
	
		.st26{fill:url(#SVGID_00000078740612510747612300000012595737355285767842_);stroke:#1D1D1B;stroke-width:0.2115;stroke-linecap:round;stroke-linejoin:round;stroke-miterlimit:10;}
	
		.st27{fill:url(#SVGID_00000099630290819528709840000014947214153628150949_);stroke:#1D1D1B;stroke-width:0.2115;stroke-linecap:round;stroke-linejoin:round;stroke-miterlimit:10;}
	
		.st28{fill-rule:evenodd;clip-rule:evenodd;fill:#101422;stroke:#101423;stroke-linecap:round;stroke-linejoin:round;stroke-miterlimit:10;}
	.st29{fill:#FFFFFF;}
	.st30{fill-rule:evenodd;clip-rule:evenodd;fill:url(#SVGID_00000112593624203137665940000014967795237443335057_);}
	.st31{fill-rule:evenodd;clip-rule:evenodd;fill:url(#SVGID_00000084529539100496647830000015047607485186309306_);}
	.st32{fill:url(#SVGID_00000091720999056571531590000009806392090027711882_);}
	.st33{fill:url(#SVGID_00000005980796572048743770000003864331671117921212_);}
	.st34{fill:url(#SVGID_00000027591527874056297850000006310061477889172867_);}
	
		.st35{fill-rule:evenodd;clip-rule:evenodd;fill:#C7FFF1;stroke:#101320;stroke-linecap:round;stroke-linejoin:round;stroke-miterlimit:10;}
	
		.st36{fill:none;stroke:url(#SVGID_00000029011714948497317480000018009311789171734163_);stroke-width:5;stroke-linecap:round;stroke-linejoin:round;stroke-miterlimit:10;}
	.st37{fill:url(#SVGID_00000120556091052848179730000008732779779989524104_);}
	
		.st38{fill:none;stroke:url(#SVGID_00000134238273751516559000000003607988246419321778_);stroke-width:5;stroke-linecap:round;stroke-linejoin:round;stroke-miterlimit:10;}
	.st39{fill:url(#SVGID_00000171708981289378095180000016285807583959274939_);}
	
		.st40{fill:none;stroke:url(#SVGID_00000150806362586916820760000005835742489327123378_);stroke-width:5;stroke-linecap:round;stroke-linejoin:round;stroke-miterlimit:10;}
	.st41{fill:url(#SVGID_00000134948887169160915750000010024007297940978576_);}
	
		.st42{fill-rule:evenodd;clip-rule:evenodd;fill:#1AD4B3;stroke:#111422;stroke-linecap:round;stroke-linejoin:round;stroke-miterlimit:10;}
	
		.st43{fill-rule:evenodd;clip-rule:evenodd;fill:#FC4F83;stroke:#111422;stroke-linecap:round;stroke-linejoin:round;stroke-miterlimit:10;}
	
		.st44{fill-rule:evenodd;clip-rule:evenodd;fill:#FFCAD7;stroke:#111422;stroke-linecap:round;stroke-linejoin:round;stroke-miterlimit:10;}
	.st45{fill:url(#SVGID_00000129198262976147210940000003586567396526143141_);}
	.st46{fill:url(#SVGID_00000018919397807506309560000014717202362525762699_);}
	.st47{fill:url(#SVGID_00000067222596424801464700000001090869357152068542_);}
	
		.st48{fill:none;stroke:url(#SVGID_00000168079164953108584250000008091816754726339712_);stroke-width:5;stroke-linecap:round;stroke-linejoin:round;stroke-miterlimit:10;}
	.st49{fill:url(#SVGID_00000029762678970257422060000005126642203870734467_);}
	
		.st50{fill:none;stroke:url(#SVGID_00000088845526037705043880000014694164376691594882_);stroke-width:5;stroke-linecap:round;stroke-linejoin:round;stroke-miterlimit:10;}
	.st51{fill:url(#SVGID_00000121271375179532196830000016589305928989845408_);}
	.st52{fill:url(#SVGID_00000139273003813018014640000016368587521761344900_);}
	.st53{fill:#101320;}
	.st54{fill:url(#SVGID_00000168836806575001555300000002135265190216295823_);}
	.st55{fill:url(#SVGID_00000151539168745110355260000001169962746190066087_);}
	.st56{fill:url(#SVGID_00000001666150997121909500000015801762021514103940_);}
	.st57{fill:url(#SVGID_00000118397920603691128230000008595423665572446866_);}
	.st58{fill:url(#SVGID_00000107568272616091032180000014255611495378843796_);}
	.st59{fill-rule:evenodd;clip-rule:evenodd;fill:url(#SVGID_00000036940182726457126270000007395092354068938368_);}
	.st60{fill:url(#SVGID_00000011031208198648284690000009609918788968684200_);}
	.st61{fill:url(#SVGID_00000059998928008709258440000016581318402993397695_);}
	.st62{fill:url(#SVGID_00000076604372186881672090000002409925872937637249_);}
	.st63{fill:url(#SVGID_00000167387065090306254430000007490414615375903894_);}
	.st64{opacity:0.29;fill:url(#SVGID_00000150081957168582270020000001517226646528237444_);enable-background:new    ;}
	
		.st65{fill:none;stroke:url(#SVGID_00000096780155474749836320000018085529389549826230_);stroke-width:5;stroke-linecap:round;stroke-linejoin:round;stroke-miterlimit:10;}
	.st66{fill:url(#SVGID_00000121989224815804264510000012449393278546357950_);}
	
		.st67{fill:none;stroke:url(#SVGID_00000163059326087359547030000014349843508802346919_);stroke-width:5;stroke-linecap:round;stroke-linejoin:round;stroke-miterlimit:10;}
	.st68{fill:url(#SVGID_00000000222246792439973080000014933907368197845690_);}
	
		.st69{fill:none;stroke:url(#SVGID_00000000188976821753452100000003246774868071825813_);stroke-width:5;stroke-linecap:round;stroke-linejoin:round;stroke-miterlimit:10;}
	.st70{fill:url(#SVGID_00000132080583386290311180000002370968074449940127_);}
	.st71{fill-rule:evenodd;clip-rule:evenodd;fill:url(#SVGID_00000156552171962681077340000016630658671733077436_);}
	.st72{fill:url(#SVGID_00000123413162444367423010000000295548965313400752_);}
	.st73{fill:url(#SVGID_00000001651422470972454620000009127425429145330315_);}
	.st74{fill:url(#SVGID_00000145050998569369220940000006599105068461894288_);}
	.st75{opacity:0.29;fill:url(#SVGID_00000140005369396646457170000005212720449041717161_);}
	.st76{opacity:0.67;fill:url(#SVGID_00000147904409414780644900000002537335695896410754_);}
	.st77{fill:#3FA9BD;}
	.st78{fill:url(#SVGID_00000016068797118395380120000011554093877462319286_);}
	.st79{fill-rule:evenodd;clip-rule:evenodd;fill:#555069;}
	.st80{fill-rule:evenodd;clip-rule:evenodd;fill:#FFFFFF;}
	.st81{fill-rule:evenodd;clip-rule:evenodd;fill:#AFAFB1;}
	.st82{fill-rule:evenodd;clip-rule:evenodd;fill:#D3D3D3;}
	.st83{opacity:0.67;fill:url(#SVGID_00000064328167251052609400000003711933155077510590_);}
	.st84{fill:url(#SVGID_00000060005901527624780090000000745674667819710094_);}
	.st85{opacity:0.67;fill:url(#SVGID_00000117643634521517865970000014651040957731380113_);}
	.st86{fill:url(#SVGID_00000069374806822798344350000006169858606185803428_);}
	.st87{opacity:0.67;fill:url(#SVGID_00000134250884978864680620000013015537375187496070_);}
	.st88{fill:url(#SVGID_00000167354100350482793090000015987764423944607921_);}
	.st89{opacity:0.67;fill:url(#SVGID_00000010292094673336063920000001236188089630745476_);}
	.st90{fill:url(#SVGID_00000037652591185791805180000005489966088439632801_);}
	.st91{opacity:0.67;fill:url(#SVGID_00000070828630695965813080000008086236803746042290_);}
	.st92{fill:url(#SVGID_00000033347801988680894350000009056607378173499302_);}
	.st93{fill:#1AD4B3;}
	.st94{opacity:0.67;fill:url(#SVGID_00000165951681749071160380000011303815160903752073_);}
	.st95{fill:url(#SVGID_00000039817790012720875390000012695227181865227177_);}
	.st96{opacity:0.67;fill:url(#SVGID_00000043417327121066149740000007458598663344106369_);}
	.st97{fill:url(#SVGID_00000162346527446765483910000010649591942655790513_);}
	.st98{opacity:0.67;fill:url(#SVGID_00000083063407435115648080000016226141721080954533_);}
	.st99{fill:url(#SVGID_00000165218698232646038650000002376274706043890107_);}
	.st100{opacity:0.67;fill:url(#SVGID_00000155859362540750516520000017570512186137657523_);}
	.st101{fill:url(#SVGID_00000076562518861348159960000012546239520824314252_);}
	
		.st102{fill-rule:evenodd;clip-rule:evenodd;fill:none;stroke:#FFFFFF;stroke-width:0.7384;stroke-linecap:round;stroke-linejoin:round;stroke-miterlimit:10;}
	.st103{opacity:0.67;fill:url(#SVGID_00000062176285975017782910000003691208080049923228_);}
	.st104{fill:url(#SVGID_00000140707343497277926300000006917006669627291026_);}
	.st105{opacity:0.67;fill:url(#SVGID_00000130606671017611297970000009459809423886124469_);}
	.st106{fill:url(#SVGID_00000179608831473697109330000007219320168113300369_);}
	.st107{opacity:0.67;fill:url(#SVGID_00000044881626917190318330000003938800287851522969_);}
	.st108{fill:url(#SVGID_00000026145207805094794250000015176642333988152198_);}
	.st109{opacity:0.67;fill:url(#SVGID_00000171686540319701987370000016899561409281790624_);}
	.st110{fill:url(#SVGID_00000177457713195718724620000011857225614574308229_);}
	.st111{opacity:0.67;fill:url(#SVGID_00000149360652678980230830000010046456999306044585_);}
	.st112{fill:url(#SVGID_00000001632555338503089970000012169122966064490935_);}
	.st113{opacity:0.67;fill:url(#SVGID_00000108293475140182231610000015660048512678419646_);}
	.st114{fill:url(#SVGID_00000096057976188140575870000004889017228453797777_);}
	.st115{opacity:0.67;fill:url(#SVGID_00000161624666876599380140000017791263617686549683_);}
	.st116{fill:url(#SVGID_00000056404266899338819260000004597132004489259454_);}
	.st117{opacity:0.67;fill:url(#SVGID_00000145047117945524320240000014283449415031081916_);}
	.st118{fill:url(#SVGID_00000103265708461422180540000006685678861539608225_);}
	.st119{opacity:0.67;fill:url(#SVGID_00000031208168302929137710000015366526160638271905_);}
	.st120{fill:url(#SVGID_00000181800602857650551910000009865592048748329874_);}
	.st121{opacity:0.67;fill:url(#SVGID_00000028287018709968863180000012956932000421561232_);}
	.st122{fill:url(#SVGID_00000169553072565624611550000002437872731496997534_);}
	.st123{opacity:0.67;fill:url(#SVGID_00000142879459992539036160000002832824654440231328_);}
	.st124{fill:url(#SVGID_00000092436284127236952870000012425585507252736137_);}
	.st125{fill:url(#SVGID_00000168815539126743274760000009567258033102685348_);}
	.st126{fill:url(#SVGID_00000129205193037161885660000010466413097195139750_);}
	.st127{fill:url(#SVGID_00000037681544009588215030000001281370333110639269_);}
	.st128{fill:url(#SVGID_00000078739298251142468540000013317696854733926074_);}
	.st129{opacity:0.29;fill:url(#SVGID_00000076577688953028243840000017417504901271831730_);enable-background:new    ;}
	.st130{opacity:0.67;fill:url(#SVGID_00000102502949830004813090000006591920533250717868_);}
	.st131{fill:#5EA6B9;}
	.st132{fill:url(#SVGID_00000178896682835280519090000003591814259169948810_);}
	.st133{fill-rule:evenodd;clip-rule:evenodd;fill:#545067;}
	.st134{fill-rule:evenodd;clip-rule:evenodd;fill:#AEAEB0;}
	.st135{fill-rule:evenodd;clip-rule:evenodd;fill:#D2D2D2;}
	.st136{opacity:0.67;fill:url(#SVGID_00000019639738897967517410000014473592130720141235_);}
	.st137{fill:url(#SVGID_00000039843659527298076300000017337565358699977108_);}
	.st138{fill-rule:evenodd;clip-rule:evenodd;fill:#63D0B3;}
	
		.st139{fill-rule:evenodd;clip-rule:evenodd;fill:none;stroke:#111422;stroke-linecap:round;stroke-linejoin:round;stroke-miterlimit:10;}
	.st140{fill-rule:evenodd;clip-rule:evenodd;fill:#E85C83;}
	.st141{fill:#5DC29D;}
	.st142{fill:url(#SVGID_00000070820739894613359470000014600417953167512500_);}
	.st143{fill:url(#SVGID_00000152964910984242572760000011465677146915692984_);}
	.st144{fill:#E85C83;}
	.st145{opacity:0.67;fill:url(#SVGID_00000039855681136810367000000002976164068422805411_);}
	.st146{fill:url(#SVGID_00000147931295219380602440000017912364009814335929_);}
	
		.st147{fill:none;stroke:url(#SVGID_00000081639031198175888860000006046073154620003499_);stroke-width:5;stroke-linecap:round;stroke-linejoin:round;stroke-miterlimit:10;}
	.st148{fill:url(#SVGID_00000180330658667168906570000009393183314799306171_);}
	.st149{opacity:0.67;fill:url(#SVGID_00000109750618799760955370000011977330612769601166_);}
	.st150{fill:url(#SVGID_00000113346325052967547830000012412066881265188785_);}
	.st151{opacity:0.67;fill:url(#SVGID_00000137112071618296492200000006669921371817949868_);}
	.st152{fill:url(#SVGID_00000106136112787922833000000015685416112322776474_);}
	.st153{opacity:0.67;fill:url(#SVGID_00000171708077071475958190000002268076098898058935_);}
	.st154{fill:url(#SVGID_00000097458064341073186270000004816316206328772232_);}
	.st155{opacity:0.67;fill:url(#SVGID_00000067940696576968929240000012333337866707595963_);}
	.st156{fill:url(#SVGID_00000145770163838552859830000006299327138054310791_);}
	.st157{opacity:0.67;fill:url(#SVGID_00000080197339930981873100000014500565507094994865_);}
	.st158{fill:url(#SVGID_00000131325465736556430850000013739723245300952966_);}
	.st159{fill:none;stroke:#000000;stroke-width:22;stroke-linecap:round;stroke-linejoin:round;stroke-miterlimit:10;}
	.st160{fill:#ECF0FC;}
	.st161{fill:url(#SVGID_00000181054603999939954120000013354019006435449253_);}
	.st162{fill:url(#SVGID_00000119087341093523219520000011976612216048669333_);}
	.st163{opacity:0.29;fill:url(#SVGID_00000127766384995916839030000018258954642532378268_);}
	.st164{opacity:0.67;fill:url(#SVGID_00000077289460512631558390000000012994068050410393_);}
	.st165{fill:url(#SVGID_00000075871361091306260540000006263304713018883720_);}
	.st166{fill:none;stroke:url(#SVGID_00000162327651492033696940000011278217178217325484_);stroke-width:5;stroke-miterlimit:10;}
	.st167{fill:#111422;}
	.st168{fill:url(#SVGID_00000057123628284487472810000003456907730638929297_);}
	.st169{fill:none;}
	.st170{opacity:0.67;fill:url(#SVGID_00000157310319058962861190000014068356399853311413_);}
	.st171{fill:url(#SVGID_00000006695321229312086350000008300161641759623055_);}
	.st172{fill:none;stroke:url(#SVGID_00000109028299346632272130000016388942887194707377_);stroke-width:5;stroke-miterlimit:10;}
	.st173{fill:url(#SVGID_00000108291546173835276010000006495586314597675921_);}
	.st174{opacity:0.67;fill:url(#SVGID_00000063632721589722332970000008118846409835385763_);}
	.st175{fill:url(#SVGID_00000017486308079921803540000006397012400308198075_);}
	.st176{opacity:0.67;fill:url(#SVGID_00000082352268411011380500000016103668450761458605_);}
	.st177{fill:url(#SVGID_00000133497379565555001520000013796528085123152275_);}
	
		.st178{fill:url(#SVGID_00000155854831268723660480000006998167131042326407_);stroke:#1D1D1B;stroke-width:0.2115;stroke-linecap:round;stroke-linejoin:round;stroke-miterlimit:10;}
	
		.st179{fill:url(#SVGID_00000182516920369953226440000016305945717040239802_);stroke:#1D1D1B;stroke-width:0.2115;stroke-linecap:round;stroke-linejoin:round;stroke-miterlimit:10;}
	
		.st180{fill-rule:evenodd;clip-rule:evenodd;fill:url(#SVGID_00000170958584237164001430000011047187697279643295_);stroke:#101320;stroke-linecap:round;stroke-linejoin:round;stroke-miterlimit:10;}
	
		.st181{fill:url(#SVGID_00000070812290378114957670000015715747239242064059_);stroke:#1D1D1B;stroke-width:0.2115;stroke-linecap:round;stroke-linejoin:round;stroke-miterlimit:10;}
	
		.st182{fill:url(#SVGID_00000095312936359087882190000009241564757489595535_);stroke:#1D1D1B;stroke-width:0.2115;stroke-linecap:round;stroke-linejoin:round;stroke-miterlimit:10;}
	
		.st183{fill:url(#SVGID_00000119084237005818067770000017421975523125933463_);stroke:#1D1D1B;stroke-width:0.2115;stroke-linecap:round;stroke-linejoin:round;stroke-miterlimit:10;}
	.st184{opacity:0.67;fill:url(#SVGID_00000116925353123950549040000015695753831402132404_);}
	.st185{fill:url(#SVGID_00000021095437530990033750000011982760610972652971_);}
	
		.st186{fill:url(#SVGID_00000114763726204178198640000009020410205009376674_);stroke:#1D1D1B;stroke-width:0.2115;stroke-linecap:round;stroke-linejoin:round;stroke-miterlimit:10;}
	
		.st187{fill:url(#SVGID_00000168091885898099434810000011460553625065614982_);stroke:#1D1D1B;stroke-width:0.2115;stroke-linecap:round;stroke-linejoin:round;stroke-miterlimit:10;}
	
		.st188{fill:url(#SVGID_00000167375774895139860400000014952045684047960734_);stroke:#1D1D1B;stroke-width:0.2115;stroke-linecap:round;stroke-linejoin:round;stroke-miterlimit:10;}
	
		.st189{fill:url(#SVGID_00000056405220824298504120000001415199764507953027_);stroke:#1D1D1B;stroke-width:0.2115;stroke-linecap:round;stroke-linejoin:round;stroke-miterlimit:10;}
	
		.st190{fill:url(#SVGID_00000173137030591995991240000017533305582722845076_);stroke:#1D1D1B;stroke-width:0.2115;stroke-linecap:round;stroke-linejoin:round;stroke-miterlimit:10;}
	.st191{opacity:0.67;fill:url(#SVGID_00000072276297705726800180000006312302656226769568_);}
	.st192{fill:url(#SVGID_00000076596371317668726680000016282233653345057967_);}
	
		.st193{fill:url(#SVGID_00000143610720207792701070000010889355660140126855_);stroke:#1D1D1B;stroke-width:0.2115;stroke-linecap:round;stroke-linejoin:round;stroke-miterlimit:10;}
	.st194{opacity:0.67;fill:url(#SVGID_00000070804556034196603250000017131552154943705498_);}
	.st195{fill:url(#SVGID_00000061438050481530563850000012094364894405084325_);}
	
		.st196{fill:url(#SVGID_00000140002600079653313130000005262472116329891730_);stroke:#1D1D1B;stroke-width:0.2115;stroke-linecap:round;stroke-linejoin:round;stroke-miterlimit:10;}
	.st197{opacity:0.67;fill:url(#SVGID_00000171701242017779492950000009548135413301720746_);}
	.st198{fill:url(#SVGID_00000047761225379454062150000009467608898879628427_);}
	
		.st199{fill:url(#SVGID_00000000939188871775283830000009356707728871320747_);stroke:#1D1D1B;stroke-width:0.2115;stroke-linecap:round;stroke-linejoin:round;stroke-miterlimit:10;}
	
		.st200{fill:url(#SVGID_00000051379190914080675900000001731958446063252866_);stroke:#1D1D1B;stroke-width:0.2115;stroke-linecap:round;stroke-linejoin:round;stroke-miterlimit:10;}
	
		.st201{fill-rule:evenodd;clip-rule:evenodd;fill:url(#SVGID_00000148655962613273545820000014111769865644323756_);stroke:#101320;stroke-linecap:round;stroke-linejoin:round;stroke-miterlimit:10;}
	
		.st202{fill:url(#SVGID_00000029046670692074656150000004338594801647203214_);stroke:#1D1D1B;stroke-width:0.2115;stroke-linecap:round;stroke-linejoin:round;stroke-miterlimit:10;}
	.st203{opacity:0.67;fill:url(#SVGID_00000163752607425840803400000013073288968039113892_);}
	.st204{fill:url(#SVGID_00000059291836319590476650000004798731614608808875_);}
	
		.st205{fill:url(#SVGID_00000076595719999821153720000009937628453485786009_);stroke:#1D1D1B;stroke-width:0.2115;stroke-linecap:round;stroke-linejoin:round;stroke-miterlimit:10;}
	.st206{opacity:0.67;fill:url(#SVGID_00000130605812750639576040000016445601874010190209_);}
	.st207{fill:url(#SVGID_00000176037915708474201270000004869454192514945471_);}
</style>
<g>
	<g>
		<g>
			<g>
				<g>
					<polygon class="st0" points="265.11,158.45 171.18,102.93 171.18,73.95 265.11,129.48 					"/>
					<polygon class="st1" points="265.11,158.45 279.65,150.84 279.65,121.86 265.11,129.48 					"/>
					<polygon class="st2" points="265.21,129.57 171.18,73.98 185.62,66.27 279.65,121.86 					"/>
				</g>
			</g>
		</g>
	</g>
	<g>
		<path d="M186.1,95.26l-2.76-1.56c-0.04-0.44-0.11-0.86-0.23-1.26c-0.11-0.4-0.26-0.77-0.45-1.12c-0.19-0.34-0.41-0.65-0.67-0.92
			c-0.26-0.27-0.54-0.5-0.85-0.67c-0.55-0.31-1.02-0.38-1.42-0.21c-0.4,0.17-0.7,0.57-0.91,1.2s-0.32,1.47-0.32,2.53
			c0,1.1,0.11,2.09,0.32,2.96c0.22,0.87,0.52,1.6,0.91,2.19c0.39,0.6,0.86,1.05,1.4,1.35c0.3,0.17,0.58,0.27,0.83,0.3
			c0.25,0.03,0.47-0.02,0.66-0.13c0.19-0.11,0.35-0.29,0.47-0.54c0.12-0.25,0.21-0.56,0.26-0.93l2.76,1.59
			c-0.05,0.71-0.19,1.35-0.43,1.93c-0.24,0.58-0.57,1.04-0.99,1.39c-0.42,0.35-0.93,0.53-1.54,0.53c-0.6,0.01-1.29-0.21-2.07-0.65
			c-1.02-0.58-1.94-1.43-2.75-2.55c-0.81-1.12-1.45-2.45-1.92-3.98c-0.47-1.54-0.7-3.21-0.7-5.04c0-1.83,0.24-3.24,0.71-4.25
			s1.12-1.61,1.93-1.81c0.81-0.2,1.72-0.02,2.73,0.55c0.69,0.39,1.32,0.88,1.9,1.49c0.58,0.61,1.09,1.3,1.54,2.09
			c0.44,0.78,0.8,1.64,1.08,2.57S186.03,94.23,186.1,95.26z"/>
		<path d="M191.62,109.22c-0.89-0.5-1.66-1.21-2.3-2.1c-0.64-0.9-1.13-1.93-1.48-3.09c-0.34-1.16-0.52-2.38-0.52-3.66
			c0-1.28,0.17-2.31,0.52-3.08c0.34-0.77,0.84-1.25,1.48-1.42c0.64-0.18,1.41-0.01,2.3,0.49c0.89,0.5,1.66,1.21,2.3,2.1
			c0.64,0.9,1.13,1.93,1.48,3.09c0.35,1.16,0.52,2.38,0.52,3.66c0,1.28-0.17,2.3-0.52,3.07c-0.34,0.77-0.84,1.25-1.48,1.42
			C193.28,109.88,192.52,109.72,191.62,109.22z M191.64,106.23c0.32,0.18,0.6,0.19,0.82,0.03c0.22-0.16,0.4-0.47,0.52-0.92
			s0.18-1.02,0.18-1.7c0-0.69-0.06-1.33-0.18-1.92c-0.12-0.59-0.29-1.09-0.52-1.51c-0.22-0.42-0.5-0.72-0.82-0.9
			c-0.33-0.19-0.62-0.2-0.85-0.04s-0.41,0.47-0.53,0.92c-0.12,0.45-0.18,1.02-0.18,1.72c0,0.68,0.06,1.32,0.18,1.9
			c0.12,0.59,0.29,1.09,0.53,1.51S191.3,106.04,191.64,106.23z"/>
		<path d="M200,106.6v7.11l-2.7-1.53V99.72l2.57,1.45v2.29l0.09,0.05c0.19-0.66,0.51-1.07,0.96-1.25s0.99-0.09,1.62,0.26
			c0.6,0.34,1.12,0.83,1.56,1.47c0.44,0.64,0.78,1.38,1.03,2.22c0.24,0.84,0.37,1.73,0.36,2.66v7.95l-2.7-1.53v-7.17
			c0-0.69-0.11-1.3-0.36-1.82c-0.24-0.53-0.58-0.91-1-1.15c-0.28-0.16-0.53-0.21-0.75-0.15c-0.22,0.06-0.38,0.22-0.5,0.49
			C200.07,105.76,200.01,106.13,200,106.6z"/>
		<path d="M210.28,119.69c-0.63-0.35-1.2-0.91-1.71-1.68c-0.51-0.77-0.92-1.71-1.23-2.84c-0.31-1.12-0.46-2.39-0.46-3.81
			c0-1.47,0.16-2.58,0.48-3.35c0.32-0.77,0.73-1.23,1.25-1.4c0.51-0.16,1.07-0.08,1.66,0.26c0.45,0.25,0.83,0.58,1.14,0.98
			c0.32,0.4,0.58,0.84,0.79,1.31c0.21,0.47,0.36,0.92,0.47,1.36l0.05,0.03v-6.29l2.7,1.53v16.62l-2.68-1.51v-2.02l-0.08-0.05
			c-0.11,0.32-0.28,0.59-0.49,0.81c-0.21,0.22-0.47,0.34-0.79,0.37C211.08,120.04,210.71,119.93,210.28,119.69z M211.22,117.13
			c0.33,0.19,0.61,0.21,0.84,0.06s0.41-0.43,0.54-0.85c0.12-0.43,0.19-0.98,0.19-1.65c0-0.68-0.06-1.3-0.19-1.87
			c-0.12-0.56-0.3-1.04-0.54-1.44s-0.51-0.69-0.84-0.87c-0.34-0.19-0.62-0.21-0.85-0.07c-0.23,0.14-0.41,0.42-0.53,0.85
			c-0.12,0.43-0.18,0.97-0.18,1.64c0,0.67,0.06,1.29,0.18,1.86c0.12,0.57,0.3,1.05,0.53,1.46
			C210.6,116.64,210.88,116.94,211.22,117.13z"/>
		<path d="M218.5,110.23c-0.38-0.22-0.71-0.59-0.98-1.11c-0.27-0.53-0.41-1.05-0.41-1.57c0-0.52,0.14-0.89,0.41-1.1
			c0.27-0.22,0.6-0.22,0.98,0c0.38,0.22,0.71,0.59,0.98,1.11c0.27,0.52,0.41,1.05,0.41,1.57c0,0.52-0.14,0.89-0.41,1.11
			C219.21,110.44,218.88,110.45,218.5,110.23z M217.14,123.38v-12.47l2.7,1.53v12.47L217.14,123.38z"/>
		<path d="M226.35,116.12v2.92l-5.36-3.03v-2.92L226.35,116.12z M222.12,110.74l2.7,1.53v11.53c0,0.24,0.03,0.45,0.08,0.63
			c0.05,0.18,0.13,0.33,0.24,0.45c0.1,0.12,0.23,0.22,0.37,0.3c0.1,0.06,0.21,0.11,0.33,0.14c0.12,0.04,0.2,0.06,0.26,0.07l0.41,3.1
			c-0.13-0.02-0.31-0.05-0.54-0.1c-0.23-0.05-0.51-0.16-0.84-0.32c-0.63-0.31-1.18-0.73-1.63-1.25c-0.45-0.52-0.8-1.12-1.03-1.81
			c-0.24-0.69-0.35-1.46-0.35-2.3V110.74z"/>
		<path d="M229.1,116.21c-0.38-0.22-0.71-0.59-0.98-1.11c-0.27-0.52-0.41-1.05-0.41-1.57c0-0.52,0.14-0.89,0.41-1.1
			c0.27-0.22,0.6-0.22,0.98,0c0.38,0.22,0.71,0.59,0.98,1.11c0.27,0.52,0.41,1.05,0.41,1.57c0,0.52-0.14,0.89-0.41,1.11
			C229.8,116.42,229.48,116.43,229.1,116.21z M227.73,129.36V116.9l2.7,1.53v12.47L227.73,129.36z"/>
		<path d="M236.12,134.33c-0.89-0.5-1.66-1.21-2.3-2.11c-0.64-0.9-1.13-1.93-1.48-3.09c-0.34-1.16-0.52-2.38-0.52-3.66
			c0-1.28,0.17-2.31,0.52-3.08c0.34-0.77,0.84-1.25,1.48-1.42s1.41-0.01,2.3,0.49c0.89,0.5,1.66,1.2,2.3,2.1
			c0.64,0.9,1.13,1.93,1.48,3.09c0.35,1.16,0.52,2.38,0.52,3.67c0,1.28-0.17,2.3-0.52,3.07c-0.34,0.77-0.84,1.25-1.48,1.42
			C237.78,135,237.01,134.83,236.12,134.33z M236.13,131.34c0.33,0.18,0.6,0.19,0.82,0.03c0.22-0.17,0.4-0.47,0.52-0.93
			c0.12-0.45,0.18-1.02,0.18-1.7c0-0.69-0.06-1.33-0.18-1.92c-0.12-0.59-0.29-1.09-0.52-1.51s-0.5-0.72-0.82-0.9
			c-0.33-0.19-0.62-0.2-0.85-0.04c-0.23,0.16-0.41,0.47-0.52,0.92c-0.12,0.45-0.18,1.02-0.18,1.72c0,0.68,0.06,1.32,0.18,1.9
			c0.12,0.59,0.29,1.09,0.52,1.51S235.8,131.16,236.13,131.34z"/>
		<path d="M244.5,131.72v7.11l-2.7-1.53v-12.47l2.57,1.45v2.29l0.09,0.05c0.19-0.66,0.51-1.08,0.96-1.25s0.99-0.09,1.62,0.26
			c0.6,0.34,1.12,0.83,1.56,1.47c0.44,0.64,0.78,1.38,1.03,2.22c0.25,0.84,0.37,1.72,0.36,2.66v7.95l-2.71-1.53v-7.17
			c0-0.69-0.11-1.3-0.36-1.82c-0.24-0.53-0.58-0.91-1-1.15c-0.28-0.16-0.53-0.21-0.75-0.15c-0.22,0.06-0.38,0.22-0.5,0.49
			S244.5,131.24,244.5,131.72z"/>
		<path d="M259.09,138.4l-2.48-1.3c-0.03-0.28-0.1-0.54-0.21-0.81s-0.26-0.51-0.45-0.73c-0.18-0.22-0.39-0.4-0.63-0.53
			c-0.31-0.18-0.58-0.24-0.8-0.18c-0.22,0.06-0.33,0.25-0.32,0.56c0,0.24,0.06,0.49,0.2,0.75s0.39,0.54,0.74,0.85l1.64,1.38
			c0.85,0.72,1.48,1.47,1.89,2.25c0.42,0.79,0.62,1.63,0.63,2.55c0,0.85-0.18,1.5-0.52,1.94s-0.81,0.67-1.4,0.68
			c-0.59,0.02-1.26-0.19-2.02-0.62c-1.21-0.69-2.17-1.59-2.87-2.72c-0.7-1.13-1.1-2.34-1.2-3.62l2.67,1.41
			c0.06,0.49,0.21,0.92,0.46,1.3c0.25,0.38,0.56,0.67,0.95,0.89c0.35,0.2,0.63,0.26,0.84,0.19c0.22-0.07,0.33-0.26,0.33-0.57
			c0-0.28-0.09-0.56-0.26-0.82c-0.17-0.26-0.42-0.54-0.78-0.84l-1.48-1.25c-0.85-0.71-1.49-1.49-1.9-2.34
			c-0.42-0.85-0.62-1.75-0.62-2.7c0-0.83,0.15-1.46,0.45-1.88s0.74-0.63,1.31-0.62c0.56,0,1.23,0.22,2,0.66
			c1.15,0.65,2.06,1.51,2.72,2.6C258.65,135.95,259.02,137.13,259.09,138.4z"/>
	</g>
</g>
<g>
	<g>
		<g>
			<g>
				<g>
					<polygon class="st0" points="223.52,93.11 161.95,57 161.95,28.02 223.52,64.14 					"/>
					<polygon class="st1" points="223.52,93.11 238.06,85.5 238.06,56.52 223.52,64.14 					"/>
					<polygon class="st2" points="223.62,64.23 161.95,28.05 176.38,20.34 238.06,56.52 					"/>
				</g>
			</g>
		</g>
	</g>
	<g>
		<path d="M165.14,40v-3.61l10.6,5.98v3.61l-3.8-2.15v14.79l-2.99-1.69V42.15L165.14,40z"/>
		<path d="M180.26,63.59c-0.98-0.56-1.83-1.32-2.54-2.29c-0.71-0.97-1.26-2.1-1.64-3.38c-0.38-1.28-0.57-2.65-0.57-4.12
			c0-1.43,0.19-2.56,0.58-3.42s0.92-1.38,1.62-1.58c0.7-0.2,1.52-0.04,2.47,0.5c0.67,0.38,1.28,0.88,1.84,1.49
			c0.55,0.62,1.04,1.34,1.44,2.17c0.41,0.83,0.72,1.74,0.94,2.75s0.34,2.07,0.34,3.21V60l-8.17-4.61v-2.55l5.39,3.04
			c0-0.47-0.08-0.93-0.23-1.38c-0.15-0.45-0.35-0.85-0.6-1.2c-0.25-0.35-0.55-0.62-0.88-0.81c-0.33-0.19-0.63-0.25-0.9-0.18
			c-0.27,0.07-0.48,0.25-0.63,0.53c-0.16,0.29-0.24,0.67-0.25,1.13v2.6c0,0.56,0.08,1.1,0.23,1.61c0.15,0.51,0.37,0.96,0.64,1.35
			c0.28,0.39,0.61,0.69,0.99,0.91c0.27,0.15,0.51,0.23,0.72,0.25c0.22,0.01,0.4-0.04,0.56-0.16s0.27-0.31,0.35-0.58l2.75,1.67
			c-0.11,0.84-0.36,1.49-0.75,1.94c-0.38,0.45-0.89,0.68-1.51,0.7S181.08,64.05,180.26,63.59z"/>
		<path d="M186.26,66.71V52.91l2.91,1.64v2.52l0.1,0.05c0.17-0.81,0.45-1.33,0.84-1.56c0.39-0.23,0.84-0.2,1.35,0.09
			c0.14,0.08,0.28,0.17,0.43,0.28c0.15,0.11,0.28,0.23,0.41,0.35v3.82c-0.14-0.15-0.33-0.32-0.56-0.49s-0.44-0.31-0.62-0.41
			c-0.35-0.2-0.67-0.27-0.96-0.19c-0.28,0.07-0.51,0.26-0.67,0.58c-0.16,0.32-0.24,0.75-0.24,1.31v7.5L186.26,66.71z"/>
		<path d="M193.52,70.81V57.01l2.85,1.61v2.54l0.1,0.06c0.2-0.73,0.53-1.2,0.99-1.43s1.02-0.15,1.67,0.21
			c0.65,0.37,1.21,0.93,1.68,1.68s0.76,1.58,0.89,2.48l0.1,0.05c0.18-0.72,0.52-1.19,1.03-1.39c0.51-0.21,1.11-0.11,1.81,0.28
			c0.89,0.5,1.61,1.33,2.17,2.48c0.55,1.15,0.83,2.45,0.83,3.91v9.29l-2.99-1.69V68.8c0-0.69-0.12-1.28-0.36-1.78
			s-0.55-0.86-0.94-1.07c-0.41-0.23-0.74-0.22-0.97,0.04c-0.23,0.26-0.35,0.72-0.35,1.38v8.24l-2.88-1.62v-8.33
			c0-0.64-0.12-1.21-0.36-1.72c-0.24-0.5-0.55-0.87-0.94-1.08c-0.26-0.15-0.49-0.19-0.69-0.12c-0.2,0.07-0.36,0.24-0.47,0.51
			s-0.17,0.64-0.17,1.09v8.17L193.52,70.81z"/>
		<path d="M217.7,74.87l-2.75-1.44c-0.03-0.3-0.11-0.6-0.23-0.9c-0.13-0.29-0.29-0.57-0.49-0.81c-0.2-0.24-0.44-0.44-0.7-0.59
			c-0.35-0.2-0.64-0.26-0.88-0.19c-0.24,0.07-0.36,0.28-0.36,0.63c0,0.27,0.07,0.54,0.22,0.83c0.15,0.28,0.43,0.6,0.82,0.94
			l1.81,1.53c0.94,0.79,1.64,1.63,2.1,2.5c0.46,0.87,0.69,1.81,0.69,2.82c0,0.94-0.2,1.66-0.57,2.15c-0.38,0.49-0.89,0.74-1.55,0.76
			s-1.4-0.21-2.24-0.69c-1.34-0.76-2.4-1.76-3.18-3.01c-0.77-1.25-1.21-2.59-1.33-4.02l2.96,1.56c0.07,0.54,0.23,1.02,0.51,1.44
			c0.27,0.42,0.62,0.75,1.05,0.99c0.38,0.22,0.7,0.29,0.94,0.21c0.24-0.07,0.36-0.28,0.37-0.63c0-0.31-0.1-0.62-0.28-0.91
			s-0.47-0.6-0.86-0.93l-1.64-1.38c-0.94-0.78-1.65-1.65-2.11-2.59c-0.46-0.94-0.69-1.94-0.69-2.99c0-0.93,0.16-1.62,0.5-2.08
			c0.34-0.47,0.82-0.7,1.45-0.69c0.62,0.01,1.36,0.25,2.21,0.73c1.27,0.72,2.28,1.68,3.01,2.87
			C217.22,72.16,217.63,73.46,217.7,74.87z"/>
	</g>
</g>
<g>
	<g>
		<g>
			<g>
				<g>
					<polygon class="st0" points="257.55,113.85 233.17,99.73 233.17,70.76 257.55,84.87 					"/>
					<polygon class="st1" points="257.55,113.85 272.09,106.23 272.09,77.25 257.55,84.87 					"/>
					<polygon class="st2" points="257.65,84.96 233.17,70.78 247.61,63.07 272.09,77.25 					"/>
				</g>
			</g>
		</g>
	</g>
	<g>
		<path d="M243.8,101.14c-0.88-0.5-1.64-1.16-2.28-1.98c-0.64-0.82-1.13-1.72-1.47-2.7c-0.34-0.97-0.51-1.94-0.51-2.9
			c0-0.71,0.09-1.28,0.29-1.71c0.19-0.43,0.45-0.79,0.79-1.05c0.34-0.27,0.73-0.5,1.18-0.69l2.63-0.98c0.3-0.11,0.51-0.28,0.63-0.51
			s0.19-0.51,0.19-0.81c0-0.33-0.09-0.68-0.26-1.04c-0.17-0.37-0.43-0.64-0.77-0.83c-0.22-0.12-0.4-0.16-0.56-0.12
			c-0.16,0.04-0.28,0.15-0.37,0.32s-0.13,0.4-0.13,0.68c0,0.37,0.07,0.78,0.21,1.25c0.14,0.46,0.34,0.98,0.58,1.55
			c0.24,0.57,0.51,1.2,0.81,1.89l6.01,13.3l-3.05-1.72l-5.03-10.85c-0.29-0.63-0.59-1.32-0.9-2.08c-0.32-0.76-0.58-1.54-0.8-2.36
			c-0.22-0.81-0.32-1.63-0.32-2.44c0-0.92,0.15-1.66,0.44-2.24c0.29-0.58,0.71-0.93,1.24-1.08c0.53-0.14,1.15-0.01,1.87,0.39
			c0.69,0.39,1.28,0.93,1.78,1.62c0.5,0.69,0.88,1.46,1.15,2.29c0.27,0.83,0.4,1.66,0.4,2.48c0,0.86-0.15,1.57-0.43,2.13
			c-0.29,0.56-0.7,0.97-1.23,1.22l-2.58,1.25c-0.27,0.13-0.49,0.32-0.64,0.56c-0.16,0.24-0.23,0.55-0.23,0.93
			c0,0.4,0.06,0.78,0.19,1.14c0.13,0.37,0.31,0.7,0.55,1c0.24,0.3,0.51,0.54,0.83,0.72c0.42,0.24,0.85,0.33,1.27,0.27
			c0.42-0.06,0.81-0.26,1.16-0.6c0.35-0.34,0.63-0.83,0.84-1.46c0.21-0.62,0.32-1.38,0.32-2.28l2.41,1.36c0,1.1-0.08,2.08-0.24,2.93
			c-0.16,0.85-0.4,1.56-0.71,2.13s-0.71,0.97-1.17,1.19c-0.15,0.04-0.29,0.07-0.43,0.1c-0.14,0.03-0.28,0.06-0.43,0.1
			c-0.48,0.24-1,0.31-1.57,0.21C244.89,101.65,244.34,101.45,243.8,101.14z"/>
	</g>
</g>
<g>
	<polygon class="st0" points="107.6,38.4 86.52,24.06 36.46,52.5 36.46,165.59 107.6,125.17 	"/>
	<polygon class="st28" points="100.45,64.01 43.6,96.26 43.6,99.46 100.45,67.21 	"/>
	<polygon class="st28" points="100.45,73.69 43.6,105.93 43.6,109.13 100.45,76.88 	"/>
	<polygon class="st28" points="100.45,84.04 43.6,116.29 43.6,119.49 100.45,87.24 	"/>
	<polygon class="st28" points="100.45,95.59 43.6,127.84 43.6,131.04 100.45,98.79 	"/>
	<polygon class="st28" points="100.45,54.77 43.6,87.02 43.6,90.22 100.45,57.97 	"/>
	<polygon class="st1" points="25.77,46.46 36.46,52.24 36.46,165.59 25.77,159.81 	"/>
	<polygon class="st2" points="86.36,23.82 74.88,17.75 25.77,46.46 36.46,52.24 	"/>
	<polygon class="st0" points="107.6,38.4 86.36,50.78 86.36,23.82 	"/>
</g>
<g>
	<polygon class="st0" points="148.51,65.31 127.43,50.97 77.37,79.41 77.37,192.49 148.51,152.08 	"/>
	<polygon class="st28" points="141.36,90.92 84.52,123.16 84.52,126.36 141.36,94.12 	"/>
	<polygon class="st28" points="141.36,100.59 84.52,132.84 84.52,136.04 141.36,103.79 	"/>
	<polygon class="st28" points="141.36,110.94 84.52,143.19 84.52,146.39 141.36,114.14 	"/>
	<polygon class="st28" points="141.36,122.5 84.52,154.75 84.52,157.95 141.36,125.7 	"/>
	<polygon class="st28" points="141.36,81.68 84.52,113.93 84.52,117.13 141.36,84.88 	"/>
	<polygon class="st1" points="66.68,73.37 77.37,79.15 77.37,192.49 66.68,186.71 	"/>
	<polygon class="st2" points="127.28,50.73 115.79,44.66 66.68,73.37 77.37,79.15 	"/>
	<polygon class="st0" points="148.51,65.31 127.28,77.69 127.28,50.73 	"/>
</g>
<g>
	<path id="矩形_00000119803564165857279140000001120790858722913201_" class="st17" d="M196.45,220.46L196.45,220.46
		c0.62,0,1.15,0.76,1.15,1.64v1.52c0,0.88-0.53,1.64-1.15,1.64l0,0c-0.62,0-1.15-0.76-1.15-1.64v-1.52
		C195.31,221.15,195.83,220.46,196.45,220.46z"/>
	
		<radialGradient id="SVGID_1_" cx="162.1673" cy="247.8394" r="29.1582" gradientTransform="matrix(1 0 0 0.5898 0 101.6654)" gradientUnits="userSpaceOnUse">
		<stop  offset="0" style="stop-color:#B8B3D4"/>
		<stop  offset="0.3457" style="stop-color:#BAB6D6;stop-opacity:0.6543"/>
		<stop  offset="0.6064" style="stop-color:#C2C0DA;stop-opacity:0.3936"/>
		<stop  offset="0.8384" style="stop-color:#D0D0E3;stop-opacity:0.1616"/>
		<stop  offset="1" style="stop-color:#DDE0EB;stop-opacity:0"/>
	</radialGradient>
	<path style="opacity:0.67;fill:url(#SVGID_1_);" d="M187.17,233.77c-13.68-7.9-35.96-8-49.77-0.23
		c-13.81,7.77-13.91,20.48-0.23,28.37c13.68,7.9,35.96,8,49.77,0.23C200.74,254.37,200.84,241.66,187.17,233.77z"/>
	<g>
		<path class="st77" d="M203.41,204.48v-49.28c0-0.23,0.02-0.45,0.02-0.68c0-22.91-18.57-41.48-41.48-41.48
			c-22.91,0-41.48,18.57-41.48,41.48c0,0.36,0.02,0.72,0.03,1.07v44.66h-0.03v22.67c0,2.84,2.3,5.15,5.15,5.15
			c2.84,0,5.15-2.31,5.15-5.15v-0.83c0.56,0.36,1.13,0.72,1.74,1.07c1.83,1.06,3.79,1.99,5.85,2.81v8.2c0,2.84,2.3,5.15,5.15,5.15
			s5.15-2.31,5.15-5.15v-5.23c2.95,0.57,5.99,0.96,9.06,1.14v12.59c0,2.84,2.3,5.15,5.15,5.15c2.84,0,5.15-2.31,5.15-5.15v-12.7
			c3.39-0.28,6.73-0.8,9.93-1.55v6.36c0,2.84,2.3,5.15,5.15,5.15c2.84,0,5.15-2.31,5.15-5.15v-9.87c1-0.47,1.97-0.96,2.91-1.49
			c0.7-0.39,1.35-0.8,1.99-1.21v0.71c0,2.84,2.3,5.15,5.15,5.15s5.15-2.31,5.15-5.15v-18.45H203.41z"/>
		
			<radialGradient id="SVGID_00000100347860151807060140000011982745839095579011_" cx="186.6329" cy="130.465" r="106.6854" gradientUnits="userSpaceOnUse">
			<stop  offset="0.0124" style="stop-color:#DD78CE"/>
			<stop  offset="0.4936" style="stop-color:#A7589A"/>
			<stop  offset="0.5829" style="stop-color:#A0619E"/>
			<stop  offset="0.7273" style="stop-color:#8E79A8"/>
			<stop  offset="0.9078" style="stop-color:#709FB9"/>
			<stop  offset="1" style="stop-color:#5EB6C3"/>
		</radialGradient>
		<path style="fill:url(#SVGID_00000100347860151807060140000011982745839095579011_);" d="M203.41,204.48v-49.28
			c0-0.23,0.02-0.45,0.02-0.68c0-22.91-18.57-41.48-41.48-41.48c-22.91,0-41.48,18.57-41.48,41.48c0,0.36,0.02,0.72,0.03,1.07v44.66
			h-0.03v22.67c0,2.84,2.3,5.15,5.15,5.15c2.84,0,5.15-2.31,5.15-5.15v-0.83c0.56,0.36,1.13,0.72,1.74,1.07
			c1.83,1.06,3.79,1.99,5.85,2.81v8.2c0,2.84,2.3,5.15,5.15,5.15s5.15-2.31,5.15-5.15v-5.23c2.95,0.57,5.99,0.96,9.06,1.14v12.59
			c0,2.84,2.3,5.15,5.15,5.15c2.84,0,5.15-2.31,5.15-5.15v-12.7c3.39-0.28,6.73-0.8,9.93-1.55v6.36c0,2.84,2.3,5.15,5.15,5.15
			c2.84,0,5.15-2.31,5.15-5.15v-9.87c1-0.47,1.97-0.96,2.91-1.49c0.7-0.39,1.35-0.8,1.99-1.21v0.71c0,2.84,2.3,5.15,5.15,5.15
			s5.15-2.31,5.15-5.15v-18.45H203.41z"/>
	</g>
	<path id="矩形_00000106857503522183961290000017955252314409016704_" class="st17" d="M124.36,190.64L124.36,190.64
		c1.12,0,2.09,1.38,2.09,2.99v14.25c0,1.61-0.96,2.99-2.09,2.99l0,0c-1.12,0-2.09-1.38-2.09-2.99v-14.25
		C122.27,192.02,123.24,190.64,124.36,190.64z"/>
	<path id="矩形_00000165233096199381314150000000242245609653006522_" class="st17" d="M185.66,127.55L185.66,127.55
		c1.37-1.02,3.68-0.37,5.02,1.41l2.29,3.06c1.34,1.78,1.31,4.19-0.06,5.22l0,0c-1.37,1.02-3.68,0.37-5.02-1.41l-2.29-3.06
		C184.17,130.85,184.29,128.58,185.66,127.55z"/>
	<path id="矩形_00000054243166969649988780000000863638246446144147_" class="st17" d="M141.76,227.23L141.76,227.23
		c1.12,0,2.09,1.38,2.09,2.99v2.76c0,1.61-0.96,2.99-2.09,2.99l0,0c-1.12,0-2.09-1.38-2.09-2.99v-2.76
		C139.67,228.49,140.63,227.23,141.76,227.23z"/>
	<path id="矩形_00000014622948229361984610000004602480407602678407_" class="st17" d="M124.36,216.09L124.36,216.09
		c1.12,0,2.09,1.38,2.09,2.99v2.76c0,1.61-0.96,2.99-2.09,2.99l0,0c-1.12,0-2.09-1.38-2.09-2.99v-2.76
		C122.27,217.35,123.24,216.09,124.36,216.09z"/>
	<path id="矩形_00000157308239557032006260000013125927156456314530_" class="st17" d="M161.95,235.97L161.95,235.97
		c1.12,0,2.09,1.38,2.09,2.99v2.76c0,1.61-0.96,2.99-2.09,2.99l0,0c-1.12,0-2.09-1.38-2.09-2.99v-2.76
		C159.86,237.23,160.82,235.97,161.95,235.97z"/>
	<path id="矩形_00000151524819886430097900000015034211649224234384_" class="st17" d="M181.65,230.62L181.65,230.62
		c0.89,0,1.66,1.1,1.66,2.37v2.19c0,1.28-0.76,2.37-1.66,2.37l0,0c-0.89,0-1.66-1.1-1.66-2.37V233
		C179.99,231.63,180.76,230.62,181.65,230.62z"/>
	<g>
		
			<ellipse transform="matrix(0.8237 -0.5671 0.5671 0.8237 -55.7199 121.5384)" class="st80" cx="167.58" cy="150.37" rx="9.1" ry="9.5"/>
		<path id="形状结合_00000181044955192059199850000010820395407988481209_" class="st81" d="M166.38,140.4
			c-4.24-0.18-7.66,3.98-7.66,9.22c0,0.19,0,0.37,0,0.56l0,0.56c0-5.33,3.33-9.59,7.48-9.42c4.15,0.17,7.46,4.61,7.46,10.04
			c0,1.03-0.09,2.05-0.37,2.98c0.46-1.2,0.74-2.59,0.74-3.99C174.03,145.02,170.62,140.58,166.38,140.4z"/>
		<path id="形状结合_00000012459959179055851800000011530978969205325980_" class="st82" d="M174.95,150.3
			c-0.01,5.89-3.88,10.5-8.58,10.31c-4.7-0.2-8.57-5.13-8.57-11.02c0.01-5.89,3.88-10.5,8.58-10.31
			C171.18,139.48,174.95,144.41,174.95,150.3z M158.72,149.63c0,5.24,3.4,9.68,7.64,9.86c4.24,0.18,7.66-3.98,7.66-9.22
			c0-5.24-3.4-9.68-7.64-9.86C162.23,140.23,158.72,144.39,158.72,149.63z"/>
	</g>
	<g>
		
			<ellipse transform="matrix(0.8237 -0.5671 0.5671 0.8237 -60.3533 103.8772)" class="st80" cx="136.86" cy="148.99" rx="9.1" ry="9.5"/>
		<path id="形状结合_00000074431319103523089600000012738350117629314731_" class="st81" d="M135.87,139.03
			c-4.24-0.18-7.66,3.98-7.66,9.22c0,0.19,0,0.37,0,0.56l0,0.56c0-5.33,3.33-9.59,7.48-9.42c4.15,0.17,7.46,4.61,7.46,10.04
			c0,1.03-0.09,2.05-0.37,2.98c0.46-1.2,0.74-2.59,0.74-3.99C143.52,143.65,140.11,139.21,135.87,139.03z"/>
		<path id="形状结合_00000070103840885014305020000007233987982169606585_" class="st82" d="M144.43,148.93
			c-0.01,5.89-3.88,10.5-8.58,10.31s-8.57-5.13-8.57-11.02s3.88-10.5,8.58-10.31C140.66,138.11,144.44,143.04,144.43,148.93z
			 M128.21,148.25c0,5.24,3.4,9.68,7.64,9.86c4.24,0.18,7.66-3.98,7.66-9.22s-3.4-9.68-7.64-9.86
			C131.72,138.86,128.21,143.02,128.21,148.25z"/>
	</g>
	<g>
		
			<ellipse transform="matrix(0.8237 -0.5671 0.5671 0.8237 -69.9229 115.956)" class="st79" cx="151.5" cy="170.42" rx="3.94" ry="4.12"/>
	</g>
	<g>
		
			<ellipse transform="matrix(0.8237 -0.5671 0.5671 0.8237 -69.2376 114.6379)" class="st80" cx="149.72" cy="168.66" rx="3.23" ry="3.37"/>
	</g>
	<circle class="st79" cx="162.17" cy="145.64" r="3.77"/>
	<circle class="st79" cx="133.27" cy="143.77" r="3.77"/>
</g>
<g>
	<polygon class="st1" points="239.21,221.24 221.58,211.06 221.58,193.43 239.21,203.61 	"/>
	<polygon class="st0" points="239.21,221.24 256.84,211.06 256.84,193.43 239.21,203.61 	"/>
	<polygon class="st2" points="239.28,203.66 221.58,193.45 239.15,183.21 256.84,193.43 	"/>
	<path id="矩形_00000078021653889901227140000016527455042895324060_" class="st8" d="M233.69,188.94L233.69,188.94
		c0.35,0.2,0.29,0.58-0.12,0.82l-3.66,2.17c-0.41,0.24-1.06,0.29-1.41,0.09l0,0c-0.35-0.2-0.29-0.58,0.12-0.82l3.66-2.17
		C232.69,188.78,233.34,188.74,233.69,188.94z"/>
	<path id="矩形_00000000215794211165899820000006305976341226888875_" class="st8" d="M227.59,192.47L227.59,192.47
		c0.35,0.2,0.29,0.58-0.12,0.82l-0.71,0.42c-0.41,0.24-1.06,0.29-1.41,0.09l0,0c-0.35-0.2-0.29-0.58,0.12-0.82l0.71-0.42
		C226.63,192.3,227.25,192.28,227.59,192.47z"/>
</g>
<g>
	<polygon class="st1" points="246.88,204.67 229.25,194.5 229.25,176.87 246.88,187.04 	"/>
	<polygon class="st0" points="246.88,204.67 264.51,194.5 264.51,176.87 246.88,187.04 	"/>
	<polygon class="st2" points="246.94,187.1 229.25,176.88 246.81,166.65 264.51,176.86 	"/>
	<path id="矩形_00000023272755045676098980000018422986779619066295_" class="st8" d="M241.35,172.37L241.35,172.37
		c0.35,0.2,0.29,0.58-0.12,0.82l-3.66,2.17c-0.41,0.24-1.06,0.29-1.41,0.09l0,0c-0.35-0.2-0.29-0.58,0.12-0.82l3.66-2.17
		C240.35,172.22,241,172.18,241.35,172.37z"/>
	<path id="矩形_00000010992775919584178130000004157247626974476206_" class="st8" d="M235.26,175.91L235.26,175.91
		c0.35,0.2,0.29,0.58-0.12,0.82l-0.71,0.42c-0.41,0.24-1.06,0.29-1.41,0.09l0,0c-0.35-0.2-0.29-0.58,0.12-0.82l0.71-0.42
		C234.29,175.74,234.91,175.71,235.26,175.91z"/>
</g>
</svg>
