<?xml version="1.0" encoding="utf-8"?>
<!-- Generator: Adobe Illustrator 27.8.1, SVG Export Plug-In . SVG Version: 6.00 Build 0)  -->
<svg version="1.1" id="Слой_1" xmlns="http://www.w3.org/2000/svg" xmlns:xlink="http://www.w3.org/1999/xlink" x="0px" y="0px"
	 viewBox="0 0 290 269.62" style="enable-background:new 0 0 290 269.62;" xml:space="preserve">
<style type="text/css">
	.st0{stroke:#000000;stroke-linecap:round;stroke-linejoin:round;stroke-miterlimit:10;}
	.st1{fill:#222846;stroke:#000000;stroke-linecap:round;stroke-linejoin:round;stroke-miterlimit:10;}
	.st2{fill-rule:evenodd;clip-rule:evenodd;stroke:#000000;stroke-linecap:round;stroke-linejoin:round;stroke-miterlimit:10;}
	
		.st3{fill-rule:evenodd;clip-rule:evenodd;fill:#222846;stroke:#000000;stroke-linecap:round;stroke-linejoin:round;stroke-miterlimit:10;}
	
		.st4{fill-rule:evenodd;clip-rule:evenodd;fill:#4A5479;stroke:#000000;stroke-linecap:round;stroke-linejoin:round;stroke-miterlimit:10;}
	.st5{fill-rule:evenodd;clip-rule:evenodd;fill:#5C6A91;}
	.st6{fill:#6D75A2;}
	.st7{stroke:#1A213A;stroke-linecap:round;stroke-linejoin:round;stroke-miterlimit:10;}
	.st8{stroke:#4A5479;stroke-linecap:round;stroke-linejoin:round;stroke-miterlimit:10;}
	.st9{fill:url(#SVGID_1_);}
	.st10{fill:url(#SVGID_00000065046612761526791550000015623274335801352856_);}
	.st11{fill:url(#SVGID_00000041294632292230366240000014699106417514158511_);}
	
		.st12{fill:none;stroke:url(#SVGID_00000098198532181568440390000000019631337409261953_);stroke-width:5;stroke-linecap:round;stroke-linejoin:round;stroke-miterlimit:10;}
	.st13{fill:url(#SVGID_00000046314010157430885790000018124243556340110237_);}
	.st14{fill-rule:evenodd;clip-rule:evenodd;fill:#1AD4B3;}
	.st15{fill-rule:evenodd;clip-rule:evenodd;fill:#FC4F83;}
	.st16{fill:#4A5479;stroke:#000000;stroke-linecap:round;stroke-linejoin:round;stroke-miterlimit:10;}
	
		.st17{fill:url(#SVGID_00000178189786254927011810000000354205770465459636_);stroke:#1D1D1B;stroke-width:0.2115;stroke-linecap:round;stroke-linejoin:round;stroke-miterlimit:10;}
	.st18{fill-rule:evenodd;clip-rule:evenodd;}
	
		.st19{fill:url(#SVGID_00000129900283038369228230000008440135806996522121_);stroke:#1D1D1B;stroke-width:0.2115;stroke-linecap:round;stroke-linejoin:round;stroke-miterlimit:10;}
	
		.st20{fill:url(#SVGID_00000002345264601646169280000008091426796516402100_);stroke:#1D1D1B;stroke-width:0.2115;stroke-linecap:round;stroke-linejoin:round;stroke-miterlimit:10;}
	
		.st21{fill:url(#SVGID_00000015340354400583511450000012071453453690109577_);stroke:#1D1D1B;stroke-width:0.2115;stroke-linecap:round;stroke-linejoin:round;stroke-miterlimit:10;}
	.st22{fill-rule:evenodd;clip-rule:evenodd;fill:url(#SVGID_00000025429075416432296080000005535331568572515221_);}
	.st23{fill-rule:evenodd;clip-rule:evenodd;fill:url(#SVGID_00000057124333957604334410000017144409374385969071_);}
	.st24{fill:url(#SVGID_00000126281780413341470580000002219452316575323551_);}
	.st25{fill:url(#SVGID_00000023962709408878778910000012550595893798063495_);}
	.st26{fill:url(#SVGID_00000116957332663736285370000001339510033125485188_);}
	
		.st27{fill-rule:evenodd;clip-rule:evenodd;fill:#4AA089;stroke:url(#SVGID_00000116228801448327009480000004810831608288602791_);stroke-linecap:round;stroke-linejoin:round;stroke-miterlimit:10;}
	
		.st28{fill-rule:evenodd;clip-rule:evenodd;fill:#4AA089;stroke:url(#SVGID_00000013887484287826086600000013406896849447861673_);stroke-linecap:round;stroke-linejoin:round;stroke-miterlimit:10;}
	
		.st29{fill:none;stroke:url(#SVGID_00000083800597251042163900000011562750306067167380_);stroke-width:5;stroke-linecap:round;stroke-linejoin:round;stroke-miterlimit:10;}
	.st30{fill:url(#SVGID_00000099627809107375109940000005174059973752718234_);}
	
		.st31{fill:none;stroke:url(#SVGID_00000145028063343590832830000004821888581141884036_);stroke-width:5;stroke-linecap:round;stroke-linejoin:round;stroke-miterlimit:10;}
	.st32{fill:url(#SVGID_00000051375023107038670250000001308402157468334774_);}
	
		.st33{fill:none;stroke:url(#SVGID_00000049192804316611727590000001655142457897876111_);stroke-width:5;stroke-linecap:round;stroke-linejoin:round;stroke-miterlimit:10;}
	.st34{fill:url(#SVGID_00000060031631141041275320000003664623807973537166_);}
	.st35{fill:#4A5479;}
	
		.st36{fill-rule:evenodd;clip-rule:evenodd;fill:#1AD4B3;stroke:#111422;stroke-linecap:round;stroke-linejoin:round;stroke-miterlimit:10;}
	
		.st37{fill-rule:evenodd;clip-rule:evenodd;fill:#4AA089;stroke:url(#SVGID_00000103977379380371659450000008104200266745819558_);stroke-linecap:round;stroke-linejoin:round;stroke-miterlimit:10;}
	.st38{fill:#FFFFFF;}
	
		.st39{fill-rule:evenodd;clip-rule:evenodd;fill:#FC4F83;stroke:#111422;stroke-linecap:round;stroke-linejoin:round;stroke-miterlimit:10;}
	
		.st40{fill-rule:evenodd;clip-rule:evenodd;fill:#CB3D61;stroke:#000000;stroke-linecap:round;stroke-linejoin:round;stroke-miterlimit:10;}
	.st41{fill:url(#SVGID_00000033327483252118808860000007031354883750268855_);}
	.st42{fill:url(#SVGID_00000160188066023611762040000016262141157448932744_);}
	.st43{fill:url(#SVGID_00000057144700219987079080000009960450599086980503_);}
	
		.st44{fill:none;stroke:url(#SVGID_00000167389895625500228660000014252376619674929820_);stroke-width:5;stroke-linecap:round;stroke-linejoin:round;stroke-miterlimit:10;}
	.st45{fill:url(#SVGID_00000129184265142219406940000000526310646938149539_);}
	
		.st46{fill:none;stroke:url(#SVGID_00000098182432384001657440000001110628618132275104_);stroke-width:5;stroke-linecap:round;stroke-linejoin:round;stroke-miterlimit:10;}
	.st47{fill:url(#SVGID_00000158718879742034919930000016138139824063004839_);}
	.st48{fill:url(#SVGID_00000101068038233471143820000007475282253128005552_);}
	.st49{fill:#222846;}
	.st50{fill:url(#SVGID_00000145043682208712838680000000706674045300190106_);}
	.st51{fill:url(#SVGID_00000001629280225958918020000017346769651821121204_);}
	.st52{fill:url(#SVGID_00000168107636793624551230000016743296816588549276_);}
	.st53{fill:url(#SVGID_00000114064087416689401140000008776132122211013003_);}
	.st54{fill:url(#SVGID_00000094603949040917524070000008141242989957448320_);}
	.st55{fill:url(#SVGID_00000075139907856708268470000016242982272214795946_);}
	.st56{fill-rule:evenodd;clip-rule:evenodd;fill:#6D75A2;}
	.st57{fill-rule:evenodd;clip-rule:evenodd;fill:#4A5479;}
	.st58{opacity:0.29;fill:url(#SVGID_00000075844095089233737910000014650343083955647167_);enable-background:new    ;}
	.st59{fill:url(#SVGID_00000099631735185298383660000014976973239764707497_);}
	.st60{fill:url(#SVGID_00000018956164506519952350000003590964674226928788_);}
	.st61{fill:url(#SVGID_00000100355628342096286080000005426196526742427017_);}
	.st62{fill-rule:evenodd;clip-rule:evenodd;fill:url(#SVGID_00000154398262424391424180000002449745671250749569_);}
	.st63{fill:url(#SVGID_00000126324966453912089410000011297300866545575317_);}
	.st64{fill:url(#SVGID_00000168087851863046645070000014878729974928890021_);}
	.st65{fill:url(#SVGID_00000173160413722773303270000010082221004119013820_);}
	.st66{fill:url(#SVGID_00000142863849509395171100000010352037886066663101_);}
	.st67{opacity:0.29;fill:url(#SVGID_00000148625927447344606820000005660513988043860910_);enable-background:new    ;}
	.st68{fill-rule:evenodd;clip-rule:evenodd;fill:#222846;}
	
		.st69{fill:none;stroke:url(#SVGID_00000013185524607595380810000006616641483624222114_);stroke-width:5;stroke-linecap:round;stroke-linejoin:round;stroke-miterlimit:10;}
	.st70{fill:url(#SVGID_00000016788375845813161160000002814578991866518436_);}
	
		.st71{fill:none;stroke:url(#SVGID_00000101101820440456473010000006676828943770900625_);stroke-width:5;stroke-linecap:round;stroke-linejoin:round;stroke-miterlimit:10;}
	.st72{fill:url(#SVGID_00000047757210575967350390000006370506693399949752_);}
	
		.st73{fill:none;stroke:url(#SVGID_00000117647673202840934290000003211571971608845756_);stroke-width:5;stroke-linecap:round;stroke-linejoin:round;stroke-miterlimit:10;}
	.st74{fill:url(#SVGID_00000026859662499051682670000018249825322961679793_);}
	
		.st75{fill-rule:evenodd;clip-rule:evenodd;fill:#4AA089;stroke:url(#SVGID_00000086684778505986493970000011768576465141460157_);stroke-linecap:round;stroke-linejoin:round;stroke-miterlimit:10;}
	.st76{fill-rule:evenodd;clip-rule:evenodd;fill:url(#SVGID_00000161608768942151974590000004562875679633335188_);}
	.st77{fill:url(#SVGID_00000140737039946814288340000009940358976996102804_);}
	.st78{fill:url(#SVGID_00000026861604299680106240000003980207151402011559_);}
	.st79{fill:url(#SVGID_00000076568472210390496710000012725383097804439215_);}
	.st80{opacity:0.29;fill:url(#SVGID_00000069368458663591076540000006871388390816656824_);}
	.st81{opacity:0.29;fill:url(#SVGID_00000098216562430959725920000002675509752732418442_);}
	.st82{opacity:0.2563;fill-rule:evenodd;clip-rule:evenodd;fill:#FFFFFF;enable-background:new    ;}
	.st83{opacity:0.67;fill:url(#SVGID_00000042018198027940729860000013607858727119036331_);}
	.st84{fill:#3FA9BD;}
	.st85{fill:url(#SVGID_00000065755462932846930300000018325196803104058800_);}
	.st86{fill-rule:evenodd;clip-rule:evenodd;fill:#555069;}
	.st87{fill-rule:evenodd;clip-rule:evenodd;fill:#FFFFFF;}
	.st88{fill-rule:evenodd;clip-rule:evenodd;fill:#AFAFB1;}
	.st89{fill-rule:evenodd;clip-rule:evenodd;fill:#D3D3D3;}
	.st90{opacity:0.67;fill:url(#SVGID_00000163782998321073633080000002584645080839896245_);}
	.st91{fill:url(#SVGID_00000034782978812403561350000000627975224576900753_);}
	.st92{opacity:0.67;fill:url(#SVGID_00000029753892232266943130000010690159972296602546_);}
	.st93{fill:url(#SVGID_00000145742348570756974590000006402757756404008892_);}
	.st94{opacity:0.67;fill:url(#SVGID_00000134953086726324006350000003665542417189782959_);}
	.st95{fill:url(#SVGID_00000028288942086219101970000015286724651023829692_);}
	.st96{opacity:0.67;fill:url(#SVGID_00000126304569142732675550000005617957716445532587_);}
	.st97{fill:url(#SVGID_00000031207804047152793660000018246126049745886346_);}
	.st98{opacity:0.67;fill:url(#SVGID_00000050620585441602176310000000739521821238697141_);}
	.st99{fill:url(#SVGID_00000168076497056851612810000016559346932773785530_);}
	.st100{fill:#1AD4B3;}
	.st101{opacity:0.67;fill:url(#SVGID_00000066495024478954629580000007129658113491788169_);}
	.st102{fill:url(#SVGID_00000036934382858798801270000016842125421618193060_);}
	.st103{opacity:0.67;fill:url(#SVGID_00000140714963692722061230000016441292029219731100_);}
	.st104{fill:url(#SVGID_00000119800953299940497120000008727310142080550022_);}
	.st105{opacity:0.67;fill:url(#SVGID_00000072248319793133554390000005902505880857721503_);}
	.st106{fill:url(#SVGID_00000172427938294028016550000008331406132811172773_);}
	.st107{opacity:0.67;fill:url(#SVGID_00000016766782092912150810000009478489581860451742_);}
	.st108{fill:url(#SVGID_00000137124532806485597750000002615584855764205750_);}
	.st109{opacity:0.67;fill:url(#SVGID_00000083772370492682087090000016207085539226989499_);}
	.st110{fill:url(#SVGID_00000163044647877307522480000002590714604911239835_);}
	.st111{opacity:0.67;fill:url(#SVGID_00000054955694155759821460000006017440925678131854_);}
	.st112{fill:url(#SVGID_00000169557664474154134650000008674489608616748462_);}
	
		.st113{fill-rule:evenodd;clip-rule:evenodd;fill:none;stroke:#FFFFFF;stroke-width:0.7384;stroke-linecap:round;stroke-linejoin:round;stroke-miterlimit:10;}
	.st114{opacity:0.67;fill:url(#SVGID_00000057832027310356929750000000199748071514875560_);}
	.st115{fill:url(#SVGID_00000087398106695640492270000014652773382423893920_);}
	.st116{opacity:0.67;fill:url(#SVGID_00000060741732751699436990000003354447189806422404_);}
	.st117{fill:url(#SVGID_00000133504927096407852150000015892856960677949845_);}
	.st118{opacity:0.67;fill:url(#SVGID_00000138531746113107013390000005779271910793956507_);}
	.st119{fill:url(#SVGID_00000132783656465423303370000017633425788982630321_);}
	.st120{opacity:0.67;fill:url(#SVGID_00000005242648941497292110000010400069628241452418_);}
	.st121{fill:url(#SVGID_00000090270869464445982510000009070238794555785145_);}
	.st122{opacity:0.67;fill:url(#SVGID_00000171709323266536168530000016843049389653923241_);}
	.st123{fill:url(#SVGID_00000176005035371942938700000010231427423682376102_);}
	.st124{opacity:0.67;fill:url(#SVGID_00000092415967533914694720000007531870209938720409_);}
	.st125{fill:url(#SVGID_00000016783835214090241330000008656143903208694460_);}
	.st126{opacity:0.67;fill:url(#SVGID_00000176004422739339186170000014566721509182108331_);}
	.st127{fill:url(#SVGID_00000058558910960769096050000003029314134573382810_);}
	.st128{opacity:0.67;fill:url(#SVGID_00000120552260794841091990000015196177575665106077_);}
	.st129{fill:url(#SVGID_00000052071336673580015810000015462269301483542957_);}
	.st130{opacity:0.67;fill:url(#SVGID_00000044883082164574785400000000863640214490411153_);enable-background:new    ;}
	.st131{fill:#5EA6B9;}
	.st132{fill:url(#SVGID_00000152250913426354631340000012503067509689870256_);}
	.st133{fill-rule:evenodd;clip-rule:evenodd;fill:#545067;}
	.st134{fill-rule:evenodd;clip-rule:evenodd;fill:#AEAEB0;}
	.st135{fill-rule:evenodd;clip-rule:evenodd;fill:#D2D2D2;}
	.st136{opacity:0.67;fill:url(#SVGID_00000137849969727894295810000006339383682840879752_);enable-background:new    ;}
	.st137{fill:url(#SVGID_00000168106651222096695240000011107601259688363159_);}
	.st138{fill-rule:evenodd;clip-rule:evenodd;fill:#63D0B3;}
	
		.st139{fill-rule:evenodd;clip-rule:evenodd;fill:none;stroke:#000000;stroke-linecap:round;stroke-linejoin:round;stroke-miterlimit:10;}
	.st140{fill-rule:evenodd;clip-rule:evenodd;fill:#E85C83;}
	
		.st141{fill-rule:evenodd;clip-rule:evenodd;fill:#4AA089;stroke:url(#SVGID_00000183961571324115116820000000563653341704300448_);stroke-linecap:round;stroke-linejoin:round;stroke-miterlimit:10;}
	.st142{fill:#5DC29D;}
	.st143{fill:url(#SVGID_00000003804823433936739860000010681242944137460145_);}
	.st144{fill:url(#SVGID_00000089557219271310301450000001092404582109556406_);}
	.st145{fill:#E85C83;}
	.st146{opacity:0.67;fill:url(#SVGID_00000134945483475781992510000005716741649932090263_);enable-background:new    ;}
	.st147{fill:url(#SVGID_00000116232463733658388280000003251953971129191601_);}
	
		.st148{fill:none;stroke:url(#SVGID_00000070100914739295990630000010562698680828354494_);stroke-width:5;stroke-linecap:round;stroke-linejoin:round;stroke-miterlimit:10;}
	.st149{fill:url(#SVGID_00000079480382252310038750000008985446575646444709_);}
	.st150{opacity:0.67;fill:url(#SVGID_00000018223451896776710810000010806053863518208428_);enable-background:new    ;}
	.st151{fill:url(#SVGID_00000103966960083722696950000007827462575503176104_);}
	.st152{opacity:0.67;fill:url(#SVGID_00000176760627200715610450000016646454940097563571_);}
	.st153{fill:url(#SVGID_00000098914066623968616540000004371707411368593825_);}
	.st154{opacity:0.67;fill:url(#SVGID_00000182495192185546606410000014919888805649414533_);}
	.st155{fill:url(#SVGID_00000088851013914674578230000004505226200659337102_);}
	.st156{opacity:0.67;fill:url(#SVGID_00000053540606755315671260000011151984761023192960_);}
	.st157{fill:url(#SVGID_00000165916513692180860630000006109997621509372851_);}
	.st158{opacity:0.67;fill:url(#SVGID_00000032641726385742333380000001292689433608661157_);}
	.st159{fill:url(#SVGID_00000026844791461674804790000013527781766769093504_);}
	.st160{opacity:0.67;fill:url(#SVGID_00000011025763998118751410000005931471715348281743_);}
	.st161{fill:url(#SVGID_00000089531640848044637830000007695424209049455805_);}
	.st162{fill:none;stroke:#000000;stroke-width:22;stroke-linecap:round;stroke-linejoin:round;stroke-miterlimit:10;}
	.st163{fill:url(#SVGID_00000047027694014119527530000006101851149497749921_);}
	.st164{fill:url(#SVGID_00000056399595862223136540000013476729079693803936_);}
	.st165{fill:none;stroke:url(#SVGID_00000091712665191507310020000015138992991994416011_);stroke-width:5;stroke-miterlimit:10;}
	.st166{fill:url(#SVGID_00000010293023844902504870000011344902451008208027_);}
	.st167{fill:none;}
	.st168{opacity:0.67;fill:url(#SVGID_00000001623924571341363270000004976135159783787701_);}
	.st169{fill:url(#SVGID_00000049206470285463058370000011298713781013363366_);}
	.st170{fill:none;stroke:url(#SVGID_00000019670931906330206630000000311167640199673258_);stroke-width:5;stroke-miterlimit:10;}
	.st171{fill:url(#SVGID_00000146461786170098797310000018298445602608458665_);}
	.st172{opacity:0.67;fill:url(#SVGID_00000097497845508551823040000006982855992709692307_);}
	.st173{fill:url(#SVGID_00000030450668953438475750000015361354760295274166_);}
	.st174{opacity:0.67;fill:url(#SVGID_00000047057347144654771790000011052543620845794199_);}
	.st175{fill:url(#SVGID_00000138571927100708986840000008052196781979108535_);}
	.st176{opacity:0.67;fill:url(#SVGID_00000129166739415812930780000006356708835908352140_);}
	.st177{fill:url(#SVGID_00000105416010096554792060000009207308062740655279_);}
</style>
<g>
	<g>
		<g>
			<polygon class="st0" points="42.14,206.92 15.68,192.52 15.68,152.52 165.34,72.91 191.6,83.72 187.87,109.5 196.08,119.53 
				187.22,124.55 178.49,119.17 170.99,133.77 165.21,130.3 145.31,148.35 134.93,141.92 126.02,159.3 115.4,153.06 107.79,169.65 
				95.96,160.28 88.85,174.79 73.09,184.03 62.46,176.79 47.69,187.76 50.28,202.3 			"/>
			<path class="st1" d="M98.29,154.12c0,4.66-0.65,8.95-1.95,12.88c-1.3,3.93-3.05,7.35-5.26,10.24s-4.67,5.11-7.39,6.65
				c-2.74,1.55-5.2,2.13-7.41,1.72c-2.2-0.4-3.95-1.83-5.25-4.29c-1.3-2.46-1.94-6-1.94-10.63c0-4.66,0.65-8.95,1.94-12.88
				c1.29-3.93,3.04-7.34,5.25-10.23c2.2-2.89,4.67-5.11,7.41-6.67c2.72-1.54,5.18-2.12,7.39-1.73s3.96,1.81,5.26,4.26
				C97.64,145.91,98.29,149.46,98.29,154.12z M89.91,158.88c0-2.51-0.24-4.49-0.71-5.94s-1.17-2.36-2.1-2.73
				c-0.92-0.37-2.06-0.17-3.41,0.6c-1.35,0.76-2.48,1.85-3.41,3.27c-0.92,1.41-1.62,3.12-2.1,5.11c-0.47,1.99-0.71,4.24-0.71,6.75
				s0.24,4.49,0.71,5.94c0.47,1.46,1.17,2.36,2.1,2.73c0.92,0.36,2.06,0.17,3.41-0.6c1.35-0.76,2.49-1.86,3.41-3.27
				c0.92-1.41,1.62-3.12,2.1-5.11C89.67,163.64,89.91,161.39,89.91,158.88z"/>
			<path class="st1" d="M107.79,169.65l-8.85-36.81l9.09-5.16l4.1,23.41l0.23-0.13l4.87-28.5l7.15-4.06l4.87,23.05l0.23-0.13
				l4.1-28.15l9.09-5.16l-8.85,46.86l-7.8,4.43l-5.1-20.47l-0.23,0.13l-5.1,26.26L107.79,169.65z"/>
			<path class="st1" d="M145.31,148.35v-41.83l21.63-12.28v9.15l-13.48,7.66v7.19l12.37-7.02v9.15l-12.37,7.02v7.19l13.43-7.62v9.15
				L145.31,148.35z"/>
			<path class="st1" d="M60.94,156.25c-1.67-0.28-3.62,0.22-5.85,1.48l-12.96,7.36v41.83l8.15-4.63v-12.42l4.51-2.56
				c2.29-1.3,4.29-3.03,6-5.18c1.72-2.16,3.05-4.6,4-7.34c0.95-2.74,1.43-5.6,1.43-8.59c0-2.97-0.47-5.3-1.39-6.99
				C63.91,157.51,62.61,156.53,60.94,156.25z M57.18,174.42c-0.37,1.08-0.89,2.05-1.57,2.9c-0.68,0.86-1.5,1.55-2.46,2.1l-2.87,1.63
				v-11.52l2.87-1.63c0.96-0.54,1.78-0.78,2.46-0.71c0.68,0.07,1.2,0.43,1.57,1.07c0.36,0.64,0.55,1.56,0.55,2.76
				C57.73,172.21,57.55,173.34,57.18,174.42z"/>
			<path class="st1" d="M187.22,124.55l8.85-5.02l-6.1-12.15c1.55-1.92,2.79-4.08,3.68-6.51c0.95-2.6,1.43-5.4,1.43-8.39
				c0-2.97-0.47-5.25-1.39-6.85c-0.93-1.6-2.23-2.48-3.9-2.67c-1.67-0.18-3.62,0.36-5.85,1.63l-12.96,7.35v41.83l8.15-4.63v-13.8
				l2.82-1.6L187.22,124.55z M179.13,96.38l2.87-1.63c0.96-0.54,1.78-0.83,2.46-0.85c0.68-0.02,1.2,0.24,1.57,0.78
				c0.36,0.55,0.55,1.42,0.55,2.62c0,1.18-0.18,2.25-0.55,3.19c-0.37,0.94-0.89,1.78-1.57,2.49c-0.68,0.72-1.5,1.35-2.46,1.9
				l-2.87,1.63V96.38z"/>
		</g>
		<polygon class="st16" points="15.68,152.52 42.14,165.09 186.58,83.39 189.79,82.96 165.34,72.91 		"/>
	</g>
	<g>
		<g>
			<polygon class="st2" points="108.52,127.3 89.6,116.38 89.6,44.06 108.52,54.98 			"/>
			<polygon class="st3" points="108.52,127.3 127.43,116.38 127.43,44.06 108.52,54.98 			"/>
			<polygon class="st4" points="108.59,55.04 89.6,44.08 108.45,33.1 127.43,44.06 			"/>
			<path id="矩形_00000168081341923676864140000018052773877421585335_" class="st5" d="M102.57,39.28L102.57,39.28
				c0.37,0.21,0.31,0.62-0.13,0.88l-3.92,2.32c-0.44,0.26-1.14,0.31-1.51,0.09l0,0c-0.37-0.21-0.31-0.62,0.13-0.88l3.92-2.32
				C101.5,39.11,102.2,39.07,102.57,39.28z"/>
			<path id="矩形_00000083071739719627040380000016538229091662453932_" class="st5" d="M96.03,43.07L96.03,43.07
				c0.37,0.21,0.31,0.62-0.13,0.88l-0.76,0.45c-0.44,0.26-1.14,0.31-1.51,0.09l0,0c-0.37-0.21-0.31-0.62,0.13-0.88l0.76-0.45
				C94.99,42.89,95.66,42.86,96.03,43.07z"/>
		</g>
	</g>
	<g>
		<g>
			<polygon class="st2" points="89.7,138.28 70.79,127.36 70.79,70.64 89.7,81.56 			"/>
			<polygon class="st3" points="89.7,138.28 108.61,127.36 108.61,70.64 89.7,81.56 			"/>
			<polygon class="st4" points="89.77,81.62 70.79,70.66 89.63,59.68 108.62,70.64 			"/>
			<path id="矩形_00000088820695350210309900000002353416271689938607_" class="st5" d="M83.75,65.86L83.75,65.86
				c0.37,0.21,0.31,0.62-0.13,0.88l-3.92,2.32c-0.44,0.26-1.14,0.31-1.51,0.09l0,0c-0.37-0.21-0.31-0.62,0.13-0.88l3.92-2.32
				C82.68,65.69,83.38,65.64,83.75,65.86z"/>
			<path id="矩形_00000150085076503232668710000012144745272101550983_" class="st5" d="M77.22,69.65L77.22,69.65
				c0.37,0.21,0.31,0.62-0.13,0.88l-0.76,0.45c-0.44,0.26-1.14,0.31-1.51,0.09l0,0c-0.37-0.21-0.31-0.62,0.13-0.88l0.76-0.45
				C76.18,69.46,76.84,69.44,77.22,69.65z"/>
		</g>
	</g>
	<g>
		<g>
			<polygon class="st2" points="70.79,149.25 51.87,138.33 51.87,98.87 70.79,109.79 			"/>
			<polygon class="st3" points="70.79,149.25 89.7,138.33 89.7,98.87 70.79,109.79 			"/>
			<polygon class="st4" points="70.86,109.85 51.87,98.89 70.72,87.91 89.7,98.87 			"/>
			<path id="矩形_00000154417972731664589820000014270576307115558540_" class="st5" d="M64.84,94.09L64.84,94.09
				c0.37,0.21,0.31,0.62-0.13,0.88l-3.92,2.32c-0.44,0.26-1.14,0.31-1.51,0.09l0,0c-0.37-0.21-0.31-0.62,0.13-0.88l3.92-2.32
				C63.77,93.92,64.47,93.88,64.84,94.09z"/>
			<path id="矩形_00000052783614208074561450000014629245936590685100_" class="st5" d="M58.3,97.88L58.3,97.88
				c0.37,0.21,0.31,0.62-0.13,0.88l-0.76,0.45c-0.44,0.26-1.14,0.31-1.51,0.09l0,0c-0.37-0.21-0.31-0.62,0.13-0.88l0.76-0.45
				C57.26,97.7,57.93,97.67,58.3,97.88z"/>
		</g>
	</g>
	<polygon class="st68" points="98.01,5.48 90.95,24.4 94.48,22.56 94.48,35.55 102.11,31.17 102.11,18.61 105.64,16.35 	"/>
	<polygon class="st68" points="77.33,33.38 70.28,52.29 73.8,50.46 73.8,63.45 81.43,59.07 81.43,46.51 84.96,44.25 	"/>
	<polygon class="st68" points="58.93,60.37 51.87,79.29 55.4,77.46 55.4,90.44 63.03,86.07 63.03,73.5 66.56,71.24 	"/>
</g>
<g>
	<g>
		
			<linearGradient id="SVGID_1_" gradientUnits="userSpaceOnUse" x1="171.4617" y1="-6852.874" x2="221.2088" y2="-6852.874" gradientTransform="matrix(0.7491 -0.4602 0 -1 85.2497 -6698.4077)">
			<stop  offset="0" style="stop-color:#A75698"/>
			<stop  offset="1" style="stop-color:#6FB5C2"/>
		</linearGradient>
		
			<polygon style="fill:none;stroke:url(#SVGID_1_);stroke-width:5;stroke-linecap:round;stroke-linejoin:round;stroke-miterlimit:10;" points="
			249.08,86.33 215.56,106.92 215.56,41.89 249.08,21.3 		"/>
	</g>
	<g>
		<polygon class="st1" points="249.08,85.96 215.56,106.55 215.56,41.52 249.08,20.93 		"/>
	</g>
	<g>
		<g>
			<path class="st6" d="M223.57,50.9l-1.6,0.98l-1.55-4.66l1.44-0.89l0.91,3.22l0.91-4.33l1.44-0.89L223.57,50.9z"/>
			<path class="st6" d="M229.06,46.82c-0.44,0.81-0.99,1.42-1.64,1.82c-0.66,0.4-1.2,0.47-1.64,0.2s-0.66-0.83-0.66-1.68
				s0.22-1.68,0.66-2.49s0.99-1.42,1.64-1.82s1.2-0.47,1.64-0.2s0.66,0.83,0.66,1.68C229.72,45.18,229.5,46.01,229.06,46.82z
				 M226.69,47.18c0.19,0.15,0.43,0.14,0.73-0.04s0.54-0.47,0.73-0.85c0.19-0.38,0.28-0.77,0.28-1.17c0-0.4-0.09-0.67-0.28-0.83
				c-0.19-0.15-0.43-0.14-0.73,0.04s-0.54,0.47-0.73,0.85c-0.19,0.38-0.28,0.77-0.28,1.17C226.41,46.75,226.51,47.03,226.69,47.18z"
				/>
			<path class="st6" d="M232.35,45.51l-1.27,0.78v-4.13l-1.13,0.69v-1.48l3.52-2.16v1.48l-1.12,0.69V45.51z"/>
			<path class="st6" d="M235.19,43.76l-1.27,0.78v-5.61l1.27-0.78V43.76z"/>
			<path class="st6" d="M239.92,40.86l-1.22,0.75l-1.55-1.89v2.84l-1.27,0.78v-5.61l1.31-0.8l1.46,1.76v-2.66l1.27-0.78V40.86z"/>
			<path class="st6" d="M242.68,39.26c-0.65,0.4-1.2,0.47-1.65,0.22c-0.44-0.26-0.66-0.82-0.66-1.7s0.22-1.71,0.66-2.51
				s0.99-1.4,1.65-1.81c0.46-0.28,0.85-0.38,1.16-0.29s0.54,0.3,0.69,0.62l-1.07,1.39c-0.07-0.15-0.17-0.25-0.31-0.3
				s-0.29-0.03-0.47,0.08c-0.3,0.19-0.55,0.47-0.74,0.86s-0.28,0.78-0.28,1.17c0,0.4,0.09,0.67,0.28,0.83
				c0.19,0.15,0.43,0.14,0.74-0.05c0.12-0.07,0.24-0.17,0.37-0.3c0.13-0.13,0.22-0.25,0.29-0.35v-0.2l-0.78,0.48v-1.48l2.05-1.26
				v2.3C244.09,38.02,243.45,38.79,242.68,39.26z"/>
			<path class="st6" d="M222.27,59.71l-1.34,0.82v-5.9l2.36-1.45c0.5-0.31,0.89-0.35,1.17-0.14s0.42,0.61,0.42,1.19
				c0,0.57-0.14,1.14-0.42,1.69c-0.28,0.56-0.67,0.99-1.17,1.3l-1.02,0.63V59.71z M223.12,55.78c0.12-0.07,0.22-0.17,0.29-0.3
				c0.08-0.13,0.11-0.26,0.11-0.41s-0.04-0.25-0.11-0.28c-0.08-0.03-0.17-0.01-0.29,0.06l-0.85,0.52v0.93L223.12,55.78z"/>
			<path class="st6" d="M229.22,54.7c-0.46,0.85-1.04,1.49-1.72,1.91c-0.69,0.42-1.26,0.49-1.72,0.21
				c-0.46-0.29-0.69-0.88-0.69-1.77c0-0.9,0.23-1.77,0.69-2.62s1.04-1.49,1.72-1.91s1.26-0.49,1.72-0.21
				c0.46,0.29,0.69,0.88,0.69,1.77C229.91,52.97,229.68,53.85,229.22,54.7z M226.73,55.08c0.2,0.16,0.45,0.15,0.76-0.05
				c0.31-0.19,0.57-0.49,0.76-0.89c0.2-0.4,0.29-0.81,0.29-1.23s-0.1-0.71-0.29-0.87c-0.2-0.16-0.45-0.15-0.76,0.05
				c-0.31,0.19-0.57,0.49-0.76,0.89c-0.2,0.4-0.29,0.81-0.29,1.23C226.44,54.63,226.53,54.92,226.73,55.08z"/>
			<path class="st6" d="M235.16,51.79l-1.4,0.86l-0.57-2.99l-0.57,3.69l-1.4,0.86l-1.26-5.12l1.5-0.92l0.57,3.26l0.67-4.02
				l1.01-0.62l0.67,3.2l0.56-3.95l1.5-0.92L235.16,51.79z"/>
			<path class="st6" d="M240.05,48.79l-3.35,2.06v-5.9l3.35-2.06v1.56l-2.01,1.24v0.58l1.97-1.21v1.56l-1.97,1.21v0.65l2.01-1.24
				V48.79z"/>
			<path class="st6" d="M244.6,45.99l-1.52,0.94l-0.61-1.48l-0.48,0.3v1.86l-1.34,0.81v-5.9l2.36-1.45c0.5-0.31,0.89-0.35,1.17-0.14
				s0.42,0.61,0.42,1.19c0,0.46-0.08,0.88-0.23,1.28c-0.16,0.39-0.34,0.72-0.56,1L244.6,45.99z M242.8,43.69
				c0.12-0.08,0.23-0.18,0.31-0.31s0.13-0.27,0.13-0.43c0-0.15-0.04-0.23-0.13-0.26c-0.08-0.03-0.19,0-0.31,0.07l-0.81,0.5v0.93
				L242.8,43.69z"/>
		</g>
	</g>
	
		<linearGradient id="SVGID_00000111190416901395855400000016020307651301803697_" gradientUnits="userSpaceOnUse" x1="222.1544" y1="74.4768" x2="242.4944" y2="74.4768">
		<stop  offset="0" style="stop-color:#B2509A"/>
		<stop  offset="1" style="stop-color:#70B7C4"/>
	</linearGradient>
	<path style="fill:url(#SVGID_00000111190416901395855400000016020307651301803697_);" d="M232.32,60.9
		c-5.61,3.45-10.17,12.33-10.17,19.82s4.55,10.78,10.17,7.33s10.17-12.32,10.17-19.82S237.93,57.45,232.32,60.9z M236.64,78.16
		c-0.11,0.23-0.26,0.4-0.46,0.52c-0.13,0.08-0.25,0.1-0.36,0.06c-0.11-0.03-0.18-0.13-0.25-0.27l-3.27-8.85l-1.2,4.73l0.58-0.36
		c0.34-0.21,0.62-0.01,0.62,0.44v0.02c0,0.45-0.28,0.99-0.62,1.2l-1.09,0.67l-1.57,6.17c-0.06,0.21-0.14,0.4-0.25,0.57
		c-0.1,0.16-0.23,0.29-0.36,0.38c-0.19,0.12-0.35,0.14-0.46,0.05s-0.17-0.26-0.17-0.51c0-0.11,0.01-0.22,0.04-0.34l1.43-5.49
		l-0.61,0.37c-0.34,0.21-0.62,0.01-0.62-0.44v-0.01c0-0.45,0.28-0.99,0.62-1.2l1.13-0.7l1.49-5.75c0.19-0.69,0.48-1.15,0.86-1.39
		l0.3-0.19c0.38-0.23,0.67-0.13,0.86,0.33l3.44,8.99c0.03,0.08,0.04,0.18,0.04,0.29C236.81,77.7,236.75,77.94,236.64,78.16z"/>
</g>
<g>
	<g>
		<polygon class="st2" points="240.74,220.12 223.89,210.39 223.89,193.54 240.74,203.27 		"/>
		<polygon class="st3" points="240.74,220.12 257.59,210.39 257.59,193.54 240.74,203.27 		"/>
		<polygon class="st4" points="240.81,203.32 223.89,193.56 240.68,183.78 257.6,193.54 		"/>
		<path id="矩形_00000156589181652389726510000009832882575107733675_" class="st5" d="M235.48,189.24L235.48,189.24
			c0.33,0.19,0.28,0.55-0.12,0.78l-3.5,2.07c-0.39,0.23-1.02,0.27-1.35,0.08l0,0c-0.33-0.19-0.28-0.55,0.12-0.78l3.5-2.07
			C234.53,189.09,235.15,189.05,235.48,189.24z"/>
		<path id="矩形_00000114753872164836107390000008318334814263333760_" class="st5" d="M229.66,192.62L229.66,192.62
			c0.33,0.19,0.28,0.55-0.12,0.78l-0.68,0.4c-0.39,0.23-1.02,0.27-1.35,0.08l0,0c-0.33-0.19-0.28-0.55,0.12-0.78l0.68-0.4
			C228.73,192.45,229.33,192.43,229.66,192.62z"/>
	</g>
</g>
<g>
	<g>
		<polygon class="st2" points="260.75,231.32 243.9,221.59 243.9,204.74 260.75,214.47 		"/>
		<polygon class="st3" points="260.75,231.32 277.6,221.59 277.6,204.74 260.75,214.47 		"/>
		<polygon class="st4" points="260.82,214.52 243.9,204.76 260.69,194.97 277.6,204.74 		"/>
		<path id="矩形_00000162332810622150213590000002441072825827850927_" class="st5" d="M255.49,200.43L255.49,200.43
			c0.33,0.19,0.28,0.55-0.12,0.78l-3.5,2.07c-0.39,0.23-1.02,0.27-1.35,0.08l0,0c-0.33-0.19-0.28-0.55,0.12-0.78l3.5-2.07
			C254.54,200.28,255.16,200.25,255.49,200.43z"/>
		<path id="矩形_00000020369642880654130900000005162499920152368524_" class="st5" d="M249.67,203.81L249.67,203.81
			c0.33,0.19,0.28,0.55-0.12,0.78l-0.68,0.4c-0.39,0.23-1.02,0.27-1.35,0.08l0,0c-0.33-0.19-0.28-0.55,0.12-0.78l0.68-0.4
			C248.74,203.65,249.34,203.63,249.67,203.81z"/>
	</g>
</g>
<g>
	<g>
		<polygon class="st2" points="255.34,205.6 238.49,195.87 238.49,179.02 255.34,188.75 		"/>
		<polygon class="st3" points="255.34,205.6 272.19,195.87 272.19,179.02 255.34,188.75 		"/>
		<polygon class="st4" points="255.41,188.8 238.49,179.04 255.28,169.26 272.2,179.02 		"/>
		<path id="矩形_00000088093028257264078920000013150392875210970030_" class="st5" d="M250.08,174.72L250.08,174.72
			c0.33,0.19,0.28,0.55-0.12,0.78l-3.5,2.07c-0.39,0.23-1.02,0.27-1.35,0.08l0,0c-0.33-0.19-0.28-0.55,0.12-0.78l3.5-2.07
			C249.13,174.57,249.75,174.53,250.08,174.72z"/>
		<path id="矩形_00000160904953415103841010000007095377889291877524_" class="st5" d="M244.26,178.1L244.26,178.1
			c0.33,0.19,0.28,0.55-0.12,0.78l-0.68,0.4c-0.39,0.23-1.02,0.27-1.35,0.08l0,0c-0.33-0.19-0.28-0.55,0.12-0.78l0.68-0.4
			C243.33,177.93,243.93,177.91,244.26,178.1z"/>
	</g>
</g>
<g>
	<g>
		<polygon class="st2" points="59.3,260.41 34.66,246.19 34.66,221.56 59.3,235.78 		"/>
		<polygon class="st3" points="59.3,260.41 83.93,246.19 83.93,221.56 59.3,235.78 		"/>
		<polygon class="st4" points="59.38,235.86 34.66,221.59 59.21,207.29 83.93,221.56 		"/>
		<path id="矩形_00000101787043259056810290000007219544091455898007_" class="st5" d="M51.45,215.45L51.45,215.45
			c0.48,0.28,0.4,0.8-0.17,1.15l-5.11,3.03c-0.58,0.34-1.49,0.4-1.97,0.12l0,0c-0.48-0.28-0.4-0.8,0.17-1.15l5.11-3.03
			C50.06,215.23,50.97,215.18,51.45,215.45z"/>
		<path id="矩形_00000018918292298868977920000004989853832169414276_" class="st5" d="M42.94,220.39L42.94,220.39
			c0.48,0.28,0.4,0.8-0.17,1.15l-0.99,0.59c-0.58,0.34-1.49,0.4-1.97,0.12l0,0c-0.48-0.28-0.4-0.8,0.17-1.15l0.99-0.59
			C41.59,220.15,42.46,220.12,42.94,220.39z"/>
	</g>
</g>
<g>
	<g>
		<polygon class="st2" points="103.38,262.91 78.75,248.69 78.75,224.06 103.38,238.28 		"/>
		<polygon class="st3" points="103.38,262.91 128.01,248.69 128.01,224.06 103.38,238.28 		"/>
		<polygon class="st4" points="103.47,238.35 78.75,224.08 103.29,209.78 128.01,224.05 		"/>
		<path id="矩形_00000109023682655146325480000014786054164984431503_" class="st5" d="M95.54,217.95L95.54,217.95
			c0.48,0.28,0.4,0.8-0.17,1.15l-5.11,3.03c-0.58,0.34-1.49,0.4-1.97,0.12l0,0c-0.48-0.28-0.4-0.8,0.17-1.15l5.11-3.03
			C94.14,217.73,95.05,217.67,95.54,217.95z"/>
		<path id="矩形_00000144331727562549907370000006413010026770162618_" class="st5" d="M87.03,222.89L87.03,222.89
			c0.48,0.28,0.4,0.8-0.17,1.15l-0.99,0.59c-0.58,0.34-1.49,0.4-1.97,0.12l0,0c-0.48-0.28-0.4-0.8,0.17-1.15l0.99-0.59
			C85.67,222.64,86.54,222.61,87.03,222.89z"/>
	</g>
</g>
<g>
	<g>
		
			<linearGradient id="SVGID_00000080184297631418553900000016864812021576152964_" gradientUnits="userSpaceOnUse" x1="203.3256" y1="-7037.0342" x2="249.492" y2="-7037.0342" gradientTransform="matrix(0.763 0.4367 0 -1 85.0595 -7011.4805)">
			<stop  offset="0" style="stop-color:#A75698"/>
			<stop  offset="1" style="stop-color:#6FB5C2"/>
		</linearGradient>
		
			<polygon style="fill:none;stroke:url(#SVGID_00000080184297631418553900000016864812021576152964_);stroke-width:5;stroke-linecap:round;stroke-linejoin:round;stroke-miterlimit:10;" points="
			273.51,163.33 242.1,145.36 242.1,85.51 273.51,103.49 		"/>
	</g>
	<g>
		<polygon class="st1" points="273.51,162.99 242.1,145.02 242.1,85.17 273.51,103.15 		"/>
	</g>
	<g>
		<g>
			<path class="st6" d="M249.61,102.63l-1.5-0.86l-1.46-5.99l1.35,0.77l0.85,3.96l0.85-2.99l1.35,0.77L249.61,102.63z"/>
			<path class="st6" d="M254.75,104.92c-0.41,0.26-0.92,0.22-1.54-0.13c-0.61-0.35-1.13-0.89-1.54-1.63
				c-0.41-0.73-0.62-1.49-0.62-2.28c0-0.78,0.21-1.31,0.62-1.57c0.41-0.26,0.92-0.22,1.54,0.13c0.61,0.35,1.13,0.89,1.54,1.63
				c0.41,0.73,0.62,1.49,0.62,2.28C255.37,104.13,255.16,104.66,254.75,104.92z M252.53,102.65c0.18,0.35,0.4,0.6,0.68,0.76
				s0.51,0.17,0.68,0.02c0.18-0.15,0.26-0.4,0.26-0.77c0-0.37-0.09-0.72-0.26-1.07c-0.18-0.35-0.4-0.6-0.68-0.76
				s-0.51-0.17-0.68-0.02c-0.18,0.15-0.26,0.4-0.26,0.77C252.27,101.94,252.36,102.3,252.53,102.65z"/>
			<path class="st6" d="M257.83,107.33l-1.19-0.68v-3.8l-1.06-0.6v-1.36l3.3,1.89v1.36l-1.05-0.6V107.33z"/>
			<path class="st6" d="M260.5,108.86l-1.19-0.68v-5.16l1.19,0.68V108.86z"/>
			<path class="st6" d="M264.93,111.4l-1.15-0.66l-1.45-3.45v2.62l-1.19-0.68v-5.16l1.23,0.7l1.37,3.23v-2.45l1.19,0.68V111.4z"/>
			<path class="st6" d="M267.52,112.97c-0.61-0.35-1.13-0.89-1.54-1.61c-0.42-0.73-0.62-1.49-0.62-2.29s0.21-1.33,0.62-1.58
				c0.42-0.25,0.93-0.2,1.54,0.15c0.43,0.25,0.79,0.58,1.08,1.01c0.29,0.42,0.5,0.87,0.65,1.33l-1,0.1
				c-0.06-0.21-0.16-0.42-0.29-0.62c-0.13-0.2-0.27-0.35-0.44-0.44c-0.28-0.16-0.51-0.17-0.69-0.02s-0.27,0.4-0.27,0.77
				c0,0.37,0.09,0.72,0.27,1.07s0.41,0.6,0.69,0.77c0.11,0.06,0.22,0.11,0.34,0.13s0.21,0.02,0.27-0.01v-0.19l-0.73-0.42v-1.36
				l1.92,1.1v2.11C268.84,113.38,268.24,113.38,267.52,112.97z"/>
			<path class="st6" d="M248.39,109.31l-1.25-0.72v-5.43l2.21,1.26c0.47,0.27,0.83,0.65,1.1,1.16c0.26,0.51,0.39,1.02,0.39,1.56
				c0,0.53-0.13,0.89-0.39,1.1c-0.26,0.2-0.63,0.17-1.1-0.09l-0.96-0.55V109.31z M249.18,106.62c0.11,0.06,0.2,0.08,0.27,0.05
				s0.11-0.12,0.11-0.25c0-0.14-0.04-0.27-0.11-0.38s-0.16-0.2-0.27-0.27l-0.79-0.45v0.85L249.18,106.62z"/>
			<path class="st6" d="M254.9,112.35c-0.43,0.28-0.97,0.23-1.62-0.14s-1.18-0.94-1.62-1.71c-0.43-0.77-0.65-1.57-0.65-2.39
				s0.22-1.37,0.65-1.65s0.97-0.23,1.62,0.14s1.18,0.94,1.62,1.71c0.43,0.77,0.65,1.57,0.65,2.39S255.33,112.07,254.9,112.35z
				 M252.57,109.96c0.18,0.37,0.42,0.63,0.72,0.8c0.29,0.17,0.53,0.17,0.72,0.02c0.18-0.16,0.28-0.42,0.28-0.81
				s-0.09-0.76-0.28-1.13c-0.18-0.37-0.42-0.63-0.72-0.8c-0.29-0.17-0.53-0.17-0.72-0.02c-0.18,0.15-0.28,0.42-0.28,0.81
				C252.29,109.22,252.38,109.59,252.57,109.96z"/>
			<path class="st6" d="M260.47,116.22l-1.32-0.75l-0.53-3.38l-0.53,2.77l-1.32-0.75l-1.19-6.1l1.4,0.8l0.53,3.62l0.63-2.96
				l0.94,0.54l0.63,3.68l0.53-3.02l1.41,0.81L260.47,116.22z"/>
			<path class="st6" d="M265.06,118.85l-3.14-1.8v-5.43l3.14,1.8v1.43l-1.89-1.08v0.54l1.84,1.05v1.43l-1.84-1.05v0.59l1.89,1.08
				V118.85z"/>
			<path class="st6" d="M269.32,121.29l-1.43-0.82l-0.57-2.03l-0.45-0.26v1.71l-1.25-0.72v-5.43l2.21,1.26
				c0.47,0.27,0.83,0.65,1.1,1.16c0.26,0.51,0.39,1.02,0.39,1.56c0,0.42-0.07,0.73-0.22,0.92c-0.15,0.19-0.32,0.29-0.52,0.3
				L269.32,121.29z M267.63,117.18c0.12,0.07,0.21,0.09,0.29,0.06c0.08-0.03,0.12-0.11,0.12-0.25s-0.04-0.26-0.12-0.38
				c-0.08-0.12-0.18-0.21-0.29-0.28l-0.76-0.44v0.85L267.63,117.18z"/>
		</g>
	</g>
	
		<linearGradient id="SVGID_00000078756812654663943460000017851772268430604209_" gradientUnits="userSpaceOnUse" x1="235.7238" y1="-7054.418" x2="217.1336" y2="-7038.7764" gradientTransform="matrix(0.763 0.4367 0 -1 85.0595 -7011.4805)">
		<stop  offset="0" style="stop-color:#B2509A"/>
		<stop  offset="1" style="stop-color:#70B7C4"/>
	</linearGradient>
	<path style="fill:url(#SVGID_00000078756812654663943460000017851772268430604209_);" d="M257.8,121.47
		c-5.26-3.01-9.53,0.14-9.53,7.04c0,6.9,4.27,14.94,9.53,17.95c5.26,3.01,9.53-0.14,9.53-7.04S263.07,124.48,257.8,121.47z
		 M261.86,142.12c-0.1,0.09-0.25,0.07-0.43-0.03c-0.12-0.07-0.23-0.19-0.33-0.34s-0.17-0.33-0.23-0.52l-3.07-11.75l-1.13,3.03
		l0.55,0.31c0.32,0.18,0.58,0.67,0.58,1.09v0.02c0,0.41-0.26,0.61-0.58,0.43l-1.02-0.58l-1.47,3.95c-0.05,0.13-0.13,0.22-0.23,0.25
		c-0.09,0.04-0.21,0.02-0.33-0.05c-0.18-0.1-0.33-0.26-0.43-0.46c-0.1-0.2-0.16-0.42-0.16-0.66c0-0.1,0.01-0.19,0.04-0.27l1.34-3.47
		l-0.57-0.33c-0.32-0.18-0.58-0.67-0.58-1.09v-0.01c0-0.41,0.26-0.61,0.58-0.43l1.06,0.61l1.4-3.65c0.18-0.43,0.45-0.53,0.81-0.33
		l0.28,0.16c0.35,0.2,0.63,0.62,0.81,1.25l3.22,12.06c0.03,0.11,0.04,0.21,0.04,0.32C262.02,141.88,261.96,142.04,261.86,142.12z"/>
</g>
<g>
	<g>
		<path id="矩形_00000146494433560331813830000010016410068586371738_" class="st82" d="M201.44,211.33L201.44,211.33
			c0.62,0,1.15,0.76,1.15,1.64v1.52c0,0.88-0.53,1.64-1.15,1.64l0,0c-0.62,0-1.15-0.76-1.15-1.64v-1.52
			C200.3,212.03,200.83,211.33,201.44,211.33z"/>
		
			<radialGradient id="SVGID_00000073722787622486396000000002078517664307891089_" cx="169.9044" cy="-9776.5977" r="29.1583" gradientTransform="matrix(1 0 0 -0.5898 0 -5520.7744)" gradientUnits="userSpaceOnUse">
			<stop  offset="0" style="stop-color:#06070C"/>
			<stop  offset="1" style="stop-color:#0D101D;stop-opacity:0"/>
		</radialGradient>
		<path style="opacity:0.67;fill:url(#SVGID_00000073722787622486396000000002078517664307891089_);enable-background:new    ;" d="
			M194.9,231.39c-13.68-7.9-35.96-8-49.77-0.23c-13.81,7.77-13.91,20.48-0.23,28.37c13.68,7.9,35.96,8,49.77,0.23
			C208.48,251.99,208.58,239.28,194.9,231.39z"/>
		<g>
			<path class="st131" d="M208.41,195.36v-49.28c0-0.23,0.02-0.45,0.02-0.68c0-22.91-18.57-41.48-41.48-41.48
				s-41.48,18.57-41.48,41.48c0,0.36,0.02,0.72,0.03,1.07v44.66h-0.03v22.67c0,2.84,2.3,5.15,5.15,5.15c2.84,0,5.15-2.31,5.15-5.15
				v-0.83c0.56,0.36,1.13,0.72,1.74,1.07c1.83,1.06,3.79,1.99,5.85,2.81v8.2c0,2.84,2.3,5.15,5.15,5.15s5.15-2.31,5.15-5.15v-5.23
				c2.95,0.57,5.99,0.96,9.06,1.14v12.59c0,2.84,2.3,5.15,5.15,5.15c2.84,0,5.15-2.31,5.15-5.15v-12.7c3.39-0.28,6.73-0.8,9.93-1.55
				v6.36c0,2.84,2.3,5.15,5.15,5.15c2.84,0,5.15-2.31,5.15-5.15v-9.87c1-0.47,1.97-0.96,2.91-1.49c0.7-0.39,1.35-0.8,1.99-1.21v0.71
				c0,2.84,2.3,5.15,5.15,5.15s5.15-2.31,5.15-5.15v-18.45L208.41,195.36L208.41,195.36z"/>
			
				<radialGradient id="SVGID_00000021111483551702344480000006050500588861480077_" cx="191.6306" cy="-6976.1138" r="106.6854" gradientTransform="matrix(1 0 0 -1 0 -6854.7715)" gradientUnits="userSpaceOnUse">
				<stop  offset="0.0124" style="stop-color:#CF7DC9"/>
				<stop  offset="0.4936" style="stop-color:#9C5C96"/>
				<stop  offset="0.5829" style="stop-color:#96649A"/>
				<stop  offset="0.7273" style="stop-color:#8A7AA4"/>
				<stop  offset="0.9078" style="stop-color:#7A9DB5"/>
				<stop  offset="1" style="stop-color:#74B3C0"/>
			</radialGradient>
			<path style="fill:url(#SVGID_00000021111483551702344480000006050500588861480077_);" d="M208.41,195.36v-49.28
				c0-0.23,0.02-0.45,0.02-0.68c0-22.91-18.57-41.48-41.48-41.48s-41.48,18.57-41.48,41.48c0,0.36,0.02,0.72,0.03,1.07v44.66h-0.03
				v22.67c0,2.84,2.3,5.15,5.15,5.15c2.84,0,5.15-2.31,5.15-5.15v-0.83c0.56,0.36,1.13,0.72,1.74,1.07
				c1.83,1.06,3.79,1.99,5.85,2.81v8.2c0,2.84,2.3,5.15,5.15,5.15s5.15-2.31,5.15-5.15v-5.23c2.95,0.57,5.99,0.96,9.06,1.14v12.59
				c0,2.84,2.3,5.15,5.15,5.15c2.84,0,5.15-2.31,5.15-5.15v-12.7c3.39-0.28,6.73-0.8,9.93-1.55v6.36c0,2.84,2.3,5.15,5.15,5.15
				c2.84,0,5.15-2.31,5.15-5.15v-9.87c1-0.47,1.97-0.96,2.91-1.49c0.7-0.39,1.35-0.8,1.99-1.21v0.71c0,2.84,2.3,5.15,5.15,5.15
				s5.15-2.31,5.15-5.15v-18.45L208.41,195.36L208.41,195.36z"/>
		</g>
		<path id="矩形_00000086686037938408433010000017432550484199396753_" class="st82" d="M129.35,181.51L129.35,181.51
			c1.12,0,2.09,1.38,2.09,2.99v14.25c0,1.61-0.96,2.99-2.09,2.99l0,0c-1.12,0-2.09-1.38-2.09-2.99V184.5
			C127.27,182.89,128.23,181.51,129.35,181.51z"/>
		<path id="矩形_00000127035227253838591450000005510751859295226771_" class="st82" d="M190.65,118.43L190.65,118.43
			c1.37-1.02,3.68-0.37,5.02,1.41l2.29,3.06c1.34,1.78,1.31,4.19-0.06,5.22l0,0c-1.37,1.02-3.68,0.37-5.02-1.41l-2.29-3.06
			C189.17,121.73,189.29,119.45,190.65,118.43z"/>
		<path id="矩形_00000085238268124758462790000000569936219520805281_" class="st82" d="M146.75,218.1L146.75,218.1
			c1.12,0,2.09,1.38,2.09,2.99v2.76c0,1.61-0.96,2.99-2.09,2.99l0,0c-1.12,0-2.09-1.38-2.09-2.99v-2.76
			C144.67,219.37,145.63,218.1,146.75,218.1z"/>
		<path id="矩形_00000131365912482201639790000005537806523322177191_" class="st82" d="M129.35,206.39L129.35,206.39
			c1.12,0,2.09,1.38,2.09,2.99v2.76c0,1.61-0.96,2.99-2.09,2.99l0,0c-1.12,0-2.09-1.38-2.09-2.99v-2.76
			C127.27,207.65,128.23,206.39,129.35,206.39z"/>
		<path id="矩形_00000111187350418448899180000007650291859217353614_" class="st82" d="M166.94,226.84L166.94,226.84
			c1.12,0,2.09,1.38,2.09,2.99v2.76c0,1.61-0.96,2.99-2.09,2.99l0,0c-1.12,0-2.09-1.38-2.09-2.99v-2.76
			C164.85,228.11,165.82,226.84,166.94,226.84z"/>
		<path id="矩形_00000043426772780075113890000012616275275566306237_" class="st82" d="M186.64,221.5L186.64,221.5
			c0.89,0,1.66,1.1,1.66,2.37v2.19c0,1.28-0.76,2.37-1.66,2.37l0,0c-0.89,0-1.66-1.1-1.66-2.37v-2.19
			C184.99,222.5,185.75,221.5,186.64,221.5z"/>
		<g>
			<path id="椭圆形_00000103961425444885171440000001165092756602449579_" class="st57" d="M169.06,160.53
				c4-0.17,6.99-3.61,6.99-5.91c0-0.92-0.55-1.73-1.36-1.79c-1.27-0.13-3.18,0.69-5.63,0.79c-2.27,0.09-3.72-0.49-5.45-0.42
				c-1.82,0.08-1.72,2.19-1.45,3.01C162.79,158.49,164.98,160.7,169.06,160.53z"/>
			<path id="椭圆形_00000142155037613046968980000013880805948223121821_" class="st87" d="M169.15,158.59
				c4.09-0.17,7.08-3.33,7.08-5.54c0-0.83-0.54-1.54-1.36-1.6c-1.27-0.13-3.27,0.69-5.72,0.79c-2.36,0.1-3.72-0.49-5.54-0.42
				c-1.82,0.07-1.73,2.1-1.45,2.82C162.79,156.73,165.06,158.76,169.15,158.59z"/>
		</g>
		<g>
			
				<ellipse transform="matrix(0.5671 -0.8237 0.8237 0.5671 -47.2238 185.0102)" class="st87" cx="152.38" cy="137.43" rx="9.36" ry="8.96"/>
			<path id="形状结合_00000141431980385799448090000000448416744059669437_" class="st134" d="M153.55,127.6
				c4.18-0.17,7.54,3.92,7.55,9.08c0,0.18,0,0.37,0,0.55v0.55c0-5.25-3.28-9.44-7.36-9.27c-4.09,0.17-7.35,4.54-7.35,9.89
				c0,1.01,0.09,2.02,0.37,2.93c-0.46-1.18-0.73-2.55-0.73-3.93C146.02,132.16,149.38,127.78,153.55,127.6z"/>
			<path id="形状结合_00000165227456102400284330000009911901164819017403_" class="st135" d="M153.55,126.5
				c4.63-0.19,8.45,4.35,8.45,10.15s-3.8,10.66-8.43,10.85s-8.45-4.35-8.45-10.15C145.11,131.55,148.83,126.7,153.55,126.5z
				 M153.55,127.6c-4.18,0.17-7.53,4.55-7.53,9.71s3.37,9.26,7.55,9.08c4.18-0.17,7.53-4.55,7.53-9.71
				C161.09,131.53,157.64,127.43,153.55,127.6z"/>
		</g>
		<g>
			
				<ellipse transform="matrix(0.5671 -0.8237 0.8237 0.5671 -33.0073 209.3376)" class="st87" cx="182.64" cy="136.07" rx="9.36" ry="8.96"/>
			<path id="形状结合_00000076595040471615015540000002760029681454701961_" class="st134" d="M183.6,126.25
				c4.18-0.17,7.54,3.92,7.55,9.08c0,0.18,0,0.37,0,0.55v0.55c0-5.25-3.28-9.44-7.36-9.27s-7.35,4.54-7.35,9.89
				c0,1.01,0.09,2.02,0.37,2.93c-0.46-1.18-0.73-2.55-0.73-3.93C176.07,130.81,179.42,126.43,183.6,126.25z"/>
			<path id="形状结合_00000062177242443019831290000003324964215811885464_" class="st135" d="M183.6,125.15
				c4.63-0.19,8.45,4.35,8.45,10.15c0.01,5.8-3.8,10.66-8.43,10.85c-4.63,0.19-8.45-4.35-8.45-10.15
				C175.16,130.2,178.88,125.35,183.6,125.15z M183.6,126.25c-4.18,0.17-7.53,4.55-7.53,9.71s3.37,9.26,7.55,9.08
				c4.18-0.17,7.53-4.55,7.53-9.71C191.14,130.18,187.69,126.08,183.6,126.25z"/>
		</g>
		<circle class="st57" cx="150.57" cy="135.02" r="3.71"/>
		<circle class="st57" cx="180.65" cy="133.91" r="3.71"/>
	</g>
</g>
</svg>
