<?xml version="1.0" encoding="utf-8"?>
<!-- Generator: Adobe Illustrator 27.8.1, SVG Export Plug-In . SVG Version: 6.00 Build 0)  -->
<svg version="1.1" id="Слой_1" xmlns="http://www.w3.org/2000/svg" xmlns:xlink="http://www.w3.org/1999/xlink" x="0px" y="0px"
	 viewBox="0 0 290 269.62" style="enable-background:new 0 0 290 269.62;" xml:space="preserve">
<style type="text/css">
	.st0{fill:#101422;}
	.st1{fill:#FFFFFF;stroke:#111422;stroke-linecap:round;stroke-linejoin:round;stroke-miterlimit:10;}
	
		.st2{fill-rule:evenodd;clip-rule:evenodd;fill:#C6C3D1;stroke:#101320;stroke-linecap:round;stroke-linejoin:round;stroke-miterlimit:10;}
	
		.st3{fill-rule:evenodd;clip-rule:evenodd;fill:#FFFFFF;stroke:#111422;stroke-linecap:round;stroke-linejoin:round;stroke-miterlimit:10;}
	
		.st4{fill-rule:evenodd;clip-rule:evenodd;fill:#ECF0FC;stroke:#111422;stroke-linecap:round;stroke-linejoin:round;stroke-miterlimit:10;}
	.st5{opacity:0.92;fill-rule:evenodd;clip-rule:evenodd;fill:#FFFFFF;enable-background:new    ;}
	.st6{fill:none;stroke:#FFFFFF;stroke-linecap:round;stroke-linejoin:round;stroke-miterlimit:10;}
	.st7{fill-rule:evenodd;clip-rule:evenodd;fill:#101422;}
	.st8{fill:url(#SVGID_1_);}
	.st9{fill:url(#SVGID_00000012448066699051937190000011533186346097554616_);}
	.st10{fill:url(#SVGID_00000113350420722412435640000002393830263637898377_);}
	.st11{opacity:0.67;fill:url(#SVGID_00000133528729496138206440000001562662432277821606_);enable-background:new    ;}
	.st12{fill:#6FA3B6;}
	.st13{fill:url(#SVGID_00000085944258461048170070000007722132351160132488_);}
	.st14{opacity:0.2563;fill-rule:evenodd;clip-rule:evenodd;fill:#FFFFFF;enable-background:new    ;}
	.st15{fill:none;stroke:#FFFFFF;stroke-width:0.7384;stroke-linecap:round;stroke-linejoin:round;stroke-miterlimit:10;}
	
		.st16{fill:none;stroke:url(#SVGID_00000114783980766530790150000005142226737067207871_);stroke-width:5;stroke-linecap:round;stroke-linejoin:round;stroke-miterlimit:10;}
	.st17{fill:url(#SVGID_00000042009429210701947090000002426934491563436171_);}
	.st18{fill-rule:evenodd;clip-rule:evenodd;fill:#1AD4B3;}
	.st19{fill-rule:evenodd;clip-rule:evenodd;fill:#FC4F83;}
	.st20{fill:#C6C3D1;stroke:#101320;stroke-linecap:round;stroke-linejoin:round;stroke-miterlimit:10;}
	.st21{fill:#ECF0FC;stroke:#111422;stroke-linecap:round;stroke-linejoin:round;stroke-miterlimit:10;}
	
		.st22{fill:url(#SVGID_00000183212314512654871740000015850576847170741403_);stroke:#1D1D1B;stroke-width:0.2115;stroke-linecap:round;stroke-linejoin:round;stroke-miterlimit:10;}
	
		.st23{fill:url(#SVGID_00000136374209147261722890000008706316725731574155_);stroke:#1D1D1B;stroke-width:0.2115;stroke-linecap:round;stroke-linejoin:round;stroke-miterlimit:10;}
	
		.st24{fill:url(#SVGID_00000122699019252022161050000000142365596534376626_);stroke:#1D1D1B;stroke-width:0.2115;stroke-linecap:round;stroke-linejoin:round;stroke-miterlimit:10;}
	
		.st25{fill:url(#SVGID_00000114071246199752134030000011843543286318173349_);stroke:#1D1D1B;stroke-width:0.2115;stroke-linecap:round;stroke-linejoin:round;stroke-miterlimit:10;}
	
		.st26{fill-rule:evenodd;clip-rule:evenodd;fill:#101422;stroke:#101423;stroke-linecap:round;stroke-linejoin:round;stroke-miterlimit:10;}
	.st27{fill:#FFFFFF;}
	.st28{fill-rule:evenodd;clip-rule:evenodd;fill:url(#SVGID_00000022541881381399080750000013910583735808081045_);}
	.st29{fill-rule:evenodd;clip-rule:evenodd;fill:url(#SVGID_00000174562033078017163470000009543477131765378459_);}
	.st30{fill:url(#SVGID_00000182509059421378288170000016507529784214438028_);}
	.st31{fill:url(#SVGID_00000092456291670002065000000017526013907986542222_);}
	.st32{fill:url(#SVGID_00000129168084068600678160000018183565443570694043_);}
	
		.st33{fill-rule:evenodd;clip-rule:evenodd;fill:#C7FFF1;stroke:#101320;stroke-linecap:round;stroke-linejoin:round;stroke-miterlimit:10;}
	
		.st34{fill:none;stroke:url(#SVGID_00000165916206843622008790000012901699999841341340_);stroke-width:5;stroke-linecap:round;stroke-linejoin:round;stroke-miterlimit:10;}
	.st35{fill:url(#SVGID_00000091724594328196334530000003469144747185860760_);}
	
		.st36{fill:none;stroke:url(#SVGID_00000029004820607723882360000000582290070852252559_);stroke-width:5;stroke-linecap:round;stroke-linejoin:round;stroke-miterlimit:10;}
	.st37{fill:url(#SVGID_00000172427712624384199300000004271074845261979834_);}
	
		.st38{fill:none;stroke:url(#SVGID_00000026145789600830964950000001683396305662268559_);stroke-width:5;stroke-linecap:round;stroke-linejoin:round;stroke-miterlimit:10;}
	.st39{fill:url(#SVGID_00000153667286273558682820000005076626939556796050_);}
	
		.st40{fill-rule:evenodd;clip-rule:evenodd;fill:#1AD4B3;stroke:#111422;stroke-linecap:round;stroke-linejoin:round;stroke-miterlimit:10;}
	
		.st41{fill-rule:evenodd;clip-rule:evenodd;fill:#FC4F83;stroke:#111422;stroke-linecap:round;stroke-linejoin:round;stroke-miterlimit:10;}
	
		.st42{fill-rule:evenodd;clip-rule:evenodd;fill:#FFCAD7;stroke:#111422;stroke-linecap:round;stroke-linejoin:round;stroke-miterlimit:10;}
	.st43{fill:url(#SVGID_00000016790450210084608580000000206976854775403686_);}
	.st44{fill:url(#SVGID_00000073689600029643124740000004666802764418669240_);}
	.st45{fill:url(#SVGID_00000136371534730615735130000004510030938880685707_);}
	
		.st46{fill:none;stroke:url(#SVGID_00000051367437672831939220000002959492112765792142_);stroke-width:5;stroke-linecap:round;stroke-linejoin:round;stroke-miterlimit:10;}
	.st47{fill:url(#SVGID_00000147182903139517596150000006473418006966883969_);}
	
		.st48{fill:none;stroke:url(#SVGID_00000080206092520611726170000013161207089298671547_);stroke-width:5;stroke-linecap:round;stroke-linejoin:round;stroke-miterlimit:10;}
	.st49{fill:url(#SVGID_00000021798261753120118230000012750340896844533915_);}
	.st50{fill:url(#SVGID_00000102535022782529829570000002278963720976732830_);}
	.st51{fill:#101320;}
	.st52{fill:url(#SVGID_00000090260220785450809290000007482067992002729092_);}
	.st53{fill:url(#SVGID_00000085237759915926186290000000944791098330895789_);}
	.st54{fill:url(#SVGID_00000030465782590797050930000003633300518104024477_);}
	.st55{fill:url(#SVGID_00000145029722555223840670000014076490530111496064_);}
	.st56{fill:url(#SVGID_00000180324740251242324960000010761920081933403793_);}
	.st57{fill:url(#SVGID_00000157298110794150628960000018034760685008626578_);}
	.st58{opacity:0.29;fill:url(#SVGID_00000040545442678019999100000006684675952629126056_);enable-background:new    ;}
	.st59{fill:url(#SVGID_00000116946747518864310750000011420368106521597877_);}
	.st60{fill:url(#SVGID_00000171690620482945537210000008237748393436178059_);}
	.st61{fill:url(#SVGID_00000070113444391406753500000017191272128543659690_);}
	.st62{fill-rule:evenodd;clip-rule:evenodd;fill:url(#SVGID_00000150076489472171320790000014439379737902231449_);}
	.st63{fill:url(#SVGID_00000070830643590371554570000002832714337950334132_);}
	.st64{fill:url(#SVGID_00000096061381031480431910000008061964301045905057_);}
	.st65{fill:url(#SVGID_00000013163095797108555010000003788936126012228492_);}
	.st66{fill:url(#SVGID_00000033365096490238809990000012794541406074321568_);}
	.st67{opacity:0.29;fill:url(#SVGID_00000029027980270202547650000012610566123546616501_);enable-background:new    ;}
	
		.st68{fill:none;stroke:url(#SVGID_00000093877338243421213260000009018329168127335854_);stroke-width:5;stroke-linecap:round;stroke-linejoin:round;stroke-miterlimit:10;}
	.st69{fill:url(#SVGID_00000183238977453500112950000008382769881807712949_);}
	
		.st70{fill:none;stroke:url(#SVGID_00000045614324869295587060000015161630501763497858_);stroke-width:5;stroke-linecap:round;stroke-linejoin:round;stroke-miterlimit:10;}
	.st71{fill:url(#SVGID_00000060024488221828701060000006792797747360221626_);}
	
		.st72{fill:none;stroke:url(#SVGID_00000073698583080270657490000005935967446834208923_);stroke-width:5;stroke-linecap:round;stroke-linejoin:round;stroke-miterlimit:10;}
	.st73{fill:url(#SVGID_00000182525065991948785720000009394231472153633421_);}
	.st74{fill-rule:evenodd;clip-rule:evenodd;fill:url(#SVGID_00000016072017600721997670000009419600821618853289_);}
	.st75{fill:url(#SVGID_00000021090058323108330230000008255284767573679259_);}
	.st76{fill:url(#SVGID_00000080187634813987443290000008083853536575203246_);}
	.st77{fill:url(#SVGID_00000037685913218993673570000004747396098220469416_);}
	.st78{opacity:0.29;fill:url(#SVGID_00000031928973171199904000000013461116830490525606_);}
	.st79{opacity:0.29;fill:url(#SVGID_00000031202262964479599870000007498798740002555531_);}
	.st80{opacity:0.67;fill:url(#SVGID_00000045587088474205775370000013610117205133805709_);}
	.st81{fill:#3FA9BD;}
	.st82{fill:url(#SVGID_00000074419594947840516260000012881102276802757515_);}
	.st83{fill-rule:evenodd;clip-rule:evenodd;fill:#555069;}
	.st84{fill-rule:evenodd;clip-rule:evenodd;fill:#FFFFFF;}
	.st85{fill-rule:evenodd;clip-rule:evenodd;fill:#AFAFB1;}
	.st86{fill-rule:evenodd;clip-rule:evenodd;fill:#D3D3D3;}
	.st87{opacity:0.67;fill:url(#SVGID_00000167364429178682695870000013608840140088603829_);}
	.st88{fill:url(#SVGID_00000072273828325424929190000000122620040302839452_);}
	.st89{opacity:0.67;fill:url(#SVGID_00000155867995262787330370000017840082388500687010_);}
	.st90{fill:url(#SVGID_00000057828591315993107220000005006813261623635596_);}
	.st91{opacity:0.67;fill:url(#SVGID_00000011019181987644051670000000027581588329674674_);}
	.st92{fill:url(#SVGID_00000096048231594869508430000017184202568301332375_);}
	.st93{opacity:0.67;fill:url(#SVGID_00000107552958641545627690000016008388825215287474_);}
	.st94{fill:url(#SVGID_00000180338221228735470450000008185961234285704858_);}
	.st95{opacity:0.67;fill:url(#SVGID_00000101079266900493130350000009095798078702094224_);}
	.st96{fill:url(#SVGID_00000000919525629416532370000007813902261218142906_);}
	.st97{fill:#1AD4B3;}
	.st98{opacity:0.67;fill:url(#SVGID_00000160899749545332643320000015302927110171977368_);}
	.st99{fill:url(#SVGID_00000163776376905985701860000015156430587022059174_);}
	.st100{opacity:0.67;fill:url(#SVGID_00000008149431402231406340000017530286801027979700_);}
	.st101{fill:url(#SVGID_00000031207641993550998340000012089743400545669539_);}
	.st102{opacity:0.67;fill:url(#SVGID_00000009589952172871279290000013147993321380834232_);}
	.st103{fill:url(#SVGID_00000121993113432560101110000008660160674600224415_);}
	
		.st104{fill-rule:evenodd;clip-rule:evenodd;fill:none;stroke:#FFFFFF;stroke-width:0.7384;stroke-linecap:round;stroke-linejoin:round;stroke-miterlimit:10;}
	.st105{opacity:0.67;fill:url(#SVGID_00000096024440051478789520000016758290575808886924_);}
	.st106{fill:url(#SVGID_00000074403273680666044360000010742117972219476150_);}
	.st107{opacity:0.67;fill:url(#SVGID_00000126299074509470298230000007404218786385517749_);}
	.st108{fill:url(#SVGID_00000040548456183921651090000013328721962904540094_);}
	.st109{opacity:0.67;fill:url(#SVGID_00000178166784963942974800000015808080281958533563_);}
	.st110{fill:url(#SVGID_00000101823928779221356300000017483683211859596196_);}
	.st111{opacity:0.67;fill:url(#SVGID_00000011005882074613362330000002183488401824355723_);}
	.st112{fill:url(#SVGID_00000176004066954979768550000013943108865465414843_);}
	.st113{opacity:0.67;fill:url(#SVGID_00000047753444132871419540000016205877141332579512_);}
	.st114{fill:url(#SVGID_00000070120553515350742590000015793196364916407724_);}
	.st115{opacity:0.67;fill:url(#SVGID_00000145040874388715552850000010490903584395914911_);}
	.st116{fill:url(#SVGID_00000101805614734727744970000009722655106991569552_);}
	.st117{opacity:0.67;fill:url(#SVGID_00000096057181320766531110000016491617751126837393_);}
	.st118{fill:url(#SVGID_00000079452239067548007320000011647881466546976185_);}
	.st119{opacity:0.67;fill:url(#SVGID_00000100349653307822836980000006119753631096236211_);}
	.st120{fill:url(#SVGID_00000096055802354568884850000005122504109646390656_);}
	.st121{opacity:0.67;fill:url(#SVGID_00000129179333499363850780000003781795112017477557_);}
	.st122{fill:url(#SVGID_00000101092760217094104940000015196464930601901477_);}
	.st123{opacity:0.67;fill:url(#SVGID_00000066477008777153834530000018065025186513682851_);}
	.st124{fill:url(#SVGID_00000121992991581990238660000011713100401820644540_);}
	.st125{opacity:0.67;fill:url(#SVGID_00000029757739768592756780000000005868356182661279_);}
	.st126{fill:url(#SVGID_00000108988619930197705370000015786324846217542031_);}
	.st127{opacity:0.67;fill:url(#SVGID_00000069356914550084984210000008399217526549113278_);}
	.st128{fill:#5EA6B9;}
	.st129{fill:url(#SVGID_00000034782400960897846600000015112550651993252001_);}
	.st130{fill-rule:evenodd;clip-rule:evenodd;fill:#545067;}
	.st131{fill-rule:evenodd;clip-rule:evenodd;fill:#AEAEB0;}
	.st132{fill-rule:evenodd;clip-rule:evenodd;fill:#D2D2D2;}
	.st133{opacity:0.67;fill:url(#SVGID_00000128455025552054613290000003993915530991416988_);}
	.st134{fill:url(#SVGID_00000079467644776113124370000014188059412825984959_);}
	.st135{fill-rule:evenodd;clip-rule:evenodd;fill:#63D0B3;}
	
		.st136{fill-rule:evenodd;clip-rule:evenodd;fill:none;stroke:#111422;stroke-linecap:round;stroke-linejoin:round;stroke-miterlimit:10;}
	.st137{fill-rule:evenodd;clip-rule:evenodd;fill:#E85C83;}
	.st138{fill:#5DC29D;}
	.st139{fill:url(#SVGID_00000076570668586594797060000011181294918260265105_);}
	.st140{fill:url(#SVGID_00000183214034679793922190000001506546416822357935_);}
	.st141{fill:#E85C83;}
	.st142{opacity:0.67;fill:url(#SVGID_00000022534971224717097130000007483859161219661235_);}
	.st143{fill:url(#SVGID_00000031916188314570541950000006460726084721721247_);}
	
		.st144{fill:none;stroke:url(#SVGID_00000129166659520322998560000007792917516205661604_);stroke-width:5;stroke-linecap:round;stroke-linejoin:round;stroke-miterlimit:10;}
	.st145{fill:url(#SVGID_00000109722348183496601510000014411107489251742604_);}
	.st146{opacity:0.67;fill:url(#SVGID_00000132774045548953832490000004131699413509266104_);}
	.st147{fill:url(#SVGID_00000088107800601507534400000013802313542297927567_);}
	.st148{opacity:0.67;fill:url(#SVGID_00000116941080020903146860000017346212948285377165_);}
	.st149{fill:url(#SVGID_00000057839108674493660300000011113418228629795982_);}
	.st150{opacity:0.67;fill:url(#SVGID_00000068663990652990073360000005839825681322722481_);}
	.st151{fill:url(#SVGID_00000043445712406876896660000001931336681248006330_);}
	.st152{opacity:0.67;fill:url(#SVGID_00000120545516506484642120000016499072348346231731_);}
	.st153{fill:url(#SVGID_00000020372635132823196750000003817433729573147801_);}
	.st154{opacity:0.67;fill:url(#SVGID_00000095329454347882849790000003407441948941115044_);}
	.st155{fill:url(#SVGID_00000075872292569928857390000013344480357729107385_);}
	.st156{opacity:0.67;fill:url(#SVGID_00000106122679284985561950000011089160122527354008_);}
	.st157{fill:url(#SVGID_00000125597534612889691470000013771489491377766286_);}
	.st158{fill:none;stroke:#000000;stroke-width:22;stroke-linecap:round;stroke-linejoin:round;stroke-miterlimit:10;}
	.st159{fill:#ECF0FC;}
	.st160{fill:url(#SVGID_00000030452257613731406600000015219242961536510902_);}
	.st161{fill:url(#SVGID_00000163769079889046684730000017237803230788877189_);}
	.st162{fill:none;stroke:url(#SVGID_00000038387202095309849500000018146439294621033365_);stroke-width:5;stroke-miterlimit:10;}
	.st163{fill:#111422;}
	.st164{fill:url(#SVGID_00000008828518524650861210000015476070456549717667_);}
	.st165{fill:none;}
	.st166{opacity:0.67;fill:url(#SVGID_00000045594334397058848710000002563425480305308558_);}
	.st167{fill:url(#SVGID_00000117669679263707533470000014771985154535107984_);}
	.st168{fill:none;stroke:url(#SVGID_00000052080060664403590560000001170911195655178894_);stroke-width:5;stroke-miterlimit:10;}
	.st169{fill:url(#SVGID_00000168814142326843220220000002864437889032585090_);}
	.st170{opacity:0.67;fill:url(#SVGID_00000137811801083490157600000007276087165862155405_);}
	.st171{fill:url(#SVGID_00000027562081603857303400000000979600772865035964_);}
	.st172{opacity:0.67;fill:url(#SVGID_00000050648057789189223460000000922285742766402954_);}
	.st173{fill:url(#SVGID_00000012468534760177896090000002610744834563051952_);}
</style>
<g>
	<g>
		
			<linearGradient id="SVGID_1_" gradientUnits="userSpaceOnUse" x1="475.5419" y1="-384.5466" x2="521.7158" y2="-384.5466" gradientTransform="matrix(0.763 0.4367 0 1 -128.224 236.2805)">
			<stop  offset="0" style="stop-color:#B4509C"/>
			<stop  offset="1" style="stop-color:#54B8C5"/>
		</linearGradient>
		
			<polygon style="fill:none;stroke:url(#SVGID_1_);stroke-width:5;stroke-linecap:round;stroke-linejoin:round;stroke-miterlimit:10;" points="
			267.96,108.37 236.54,90.39 236.54,30.55 267.96,48.53 		"/>
	</g>
	<g>
		<polygon class="st1" points="267.96,108.03 236.54,90.05 236.54,30.21 267.96,48.19 		"/>
	</g>
	<g>
		<g>
			<path class="st0" d="M244.05,47.67l-1.5-0.86l-1.45-5.99l1.35,0.77l0.85,3.96l0.85-2.99l1.35,0.77L244.05,47.67z"/>
			<path class="st0" d="M249.2,49.96c-0.41,0.26-0.92,0.22-1.54-0.13c-0.61-0.35-1.13-0.89-1.54-1.63
				c-0.41-0.73-0.62-1.49-0.62-2.28c0-0.78,0.21-1.31,0.62-1.57c0.41-0.26,0.92-0.22,1.54,0.13c0.61,0.35,1.13,0.89,1.54,1.63
				c0.41,0.73,0.62,1.49,0.62,2.28C249.81,49.17,249.61,49.69,249.2,49.96z M246.98,47.68c0.18,0.35,0.4,0.6,0.68,0.76
				c0.28,0.16,0.51,0.17,0.68,0.02c0.18-0.15,0.26-0.4,0.26-0.77c0-0.37-0.09-0.72-0.26-1.07c-0.18-0.35-0.4-0.6-0.68-0.76
				c-0.28-0.16-0.51-0.17-0.68-0.02c-0.18,0.15-0.26,0.4-0.26,0.77C246.71,46.98,246.8,47.34,246.98,47.68z"/>
			<path class="st0" d="M252.27,52.37l-1.19-0.68v-3.8l-1.06-0.6v-1.36l3.3,1.89v1.36l-1.05-0.6V52.37z"/>
			<path class="st0" d="M254.94,53.9l-1.19-0.68v-5.16l1.19,0.68V53.9z"/>
			<path class="st0" d="M259.37,56.43l-1.15-0.66l-1.45-3.45v2.62l-1.19-0.68V49.1l1.23,0.7l1.37,3.23v-2.45l1.19,0.68V56.43z"/>
			<path class="st0" d="M261.96,58.01c-0.61-0.35-1.13-0.89-1.54-1.61c-0.42-0.73-0.62-1.49-0.62-2.29s0.21-1.33,0.62-1.58
				c0.42-0.25,0.93-0.2,1.54,0.15c0.43,0.25,0.79,0.58,1.08,1.01c0.29,0.42,0.5,0.87,0.65,1.33l-1,0.1
				c-0.06-0.21-0.16-0.42-0.29-0.62c-0.13-0.2-0.27-0.35-0.44-0.44c-0.28-0.16-0.51-0.17-0.69-0.02c-0.18,0.15-0.27,0.4-0.27,0.77
				c0,0.37,0.09,0.72,0.27,1.07c0.18,0.35,0.41,0.6,0.69,0.77c0.11,0.06,0.22,0.11,0.34,0.13c0.12,0.02,0.21,0.02,0.27-0.01v-0.19
				l-0.73-0.42v-1.36l1.92,1.1V58C263.28,58.42,262.68,58.42,261.96,58.01z"/>
			<path class="st0" d="M242.83,54.34l-1.25-0.72V48.2l2.21,1.26c0.47,0.27,0.83,0.65,1.1,1.16c0.26,0.51,0.39,1.02,0.39,1.56
				c0,0.53-0.13,0.89-0.39,1.1c-0.26,0.2-0.63,0.17-1.1-0.09l-0.96-0.55V54.34z M243.62,51.66c0.11,0.06,0.2,0.08,0.27,0.05
				c0.07-0.03,0.11-0.12,0.11-0.25c0-0.14-0.04-0.27-0.11-0.38c-0.07-0.11-0.16-0.2-0.27-0.27l-0.79-0.45v0.85L243.62,51.66z"/>
			<path class="st0" d="M249.34,57.38c-0.43,0.28-0.97,0.23-1.62-0.14c-0.65-0.37-1.18-0.94-1.62-1.71
				c-0.43-0.77-0.65-1.57-0.65-2.39c0-0.82,0.22-1.37,0.65-1.65c0.43-0.28,0.97-0.23,1.62,0.14s1.18,0.94,1.62,1.71
				c0.43,0.77,0.65,1.57,0.65,2.39C249.99,56.56,249.78,57.11,249.34,57.38z M247.01,54.99c0.18,0.37,0.42,0.63,0.72,0.8
				c0.29,0.17,0.53,0.17,0.72,0.02c0.18-0.16,0.28-0.42,0.28-0.81c0-0.39-0.09-0.76-0.28-1.13c-0.18-0.37-0.42-0.63-0.72-0.8
				c-0.29-0.17-0.53-0.17-0.72-0.02c-0.18,0.15-0.28,0.42-0.28,0.81C246.73,54.25,246.83,54.63,247.01,54.99z"/>
			<path class="st0" d="M254.91,61.26l-1.32-0.75l-0.53-3.38l-0.53,2.77l-1.32-0.75l-1.19-6.1l1.4,0.8l0.53,3.62l0.63-2.96
				l0.94,0.54l0.63,3.68l0.53-3.02l1.41,0.81L254.91,61.26z"/>
			<path class="st0" d="M259.5,63.88l-3.14-1.8v-5.43l3.14,1.8v1.43l-1.89-1.08v0.54l1.84,1.05v1.43l-1.84-1.05v0.59l1.89,1.08
				V63.88z"/>
			<path class="st0" d="M263.76,66.32l-1.43-0.82l-0.57-2.03l-0.45-0.26v1.71l-1.25-0.72v-5.43l2.21,1.26
				c0.47,0.27,0.83,0.65,1.1,1.16c0.26,0.51,0.39,1.02,0.39,1.56c0,0.42-0.07,0.73-0.22,0.92c-0.15,0.19-0.32,0.29-0.52,0.3
				L263.76,66.32z M262.08,62.22c0.12,0.07,0.21,0.09,0.29,0.06c0.08-0.03,0.12-0.11,0.12-0.25c0-0.14-0.04-0.26-0.12-0.38
				c-0.08-0.12-0.18-0.21-0.29-0.28l-0.76-0.44v0.85L262.08,62.22z"/>
		</g>
	</g>
	
		<linearGradient id="SVGID_00000183955358451016545750000003347097892233037953_" gradientUnits="userSpaceOnUse" x1="507.9435" y1="-367.1674" x2="489.3534" y2="-382.8091" gradientTransform="matrix(0.763 0.4367 0 1 -128.224 236.2805)">
		<stop  offset="0" style="stop-color:#C1489F"/>
		<stop  offset="1" style="stop-color:#55BAC7"/>
	</linearGradient>
	<path style="fill:url(#SVGID_00000183955358451016545750000003347097892233037953_);" d="M252.25,66.51
		c-5.26-3.01-9.53,0.14-9.53,7.04s4.27,14.94,9.53,17.95c5.26,3.01,9.53-0.14,9.53-7.04S257.51,69.52,252.25,66.51z M256.3,87.16
		c-0.1,0.09-0.25,0.07-0.43-0.03c-0.12-0.07-0.23-0.19-0.33-0.34c-0.1-0.15-0.17-0.33-0.23-0.52l-3.07-11.75l-1.13,3.03l0.55,0.31
		c0.32,0.18,0.58,0.67,0.58,1.09v0.02c0,0.41-0.26,0.61-0.58,0.43l-1.02-0.58l-1.47,3.95c-0.05,0.13-0.13,0.22-0.23,0.25
		c-0.09,0.04-0.21,0.02-0.33-0.05c-0.18-0.1-0.33-0.26-0.43-0.46c-0.1-0.2-0.16-0.42-0.16-0.66c0-0.1,0.01-0.19,0.04-0.27l1.34-3.47
		l-0.57-0.33c-0.32-0.18-0.58-0.67-0.58-1.09v-0.01c0-0.41,0.26-0.61,0.58-0.43l1.06,0.61l1.4-3.65c0.18-0.43,0.45-0.53,0.81-0.33
		l0.28,0.16c0.35,0.2,0.63,0.62,0.81,1.25l3.22,12.06c0.03,0.11,0.04,0.21,0.04,0.32C256.46,86.92,256.4,87.07,256.3,87.16z"/>
</g>
<g>
	<g>
		<polygon class="st20" points="44.88,129.31 22.3,117.02 22.3,82.9 149.99,14.97 172.39,24.2 169.21,46.19 176.21,54.75 
			168.66,59.04 161.21,54.44 154.81,66.9 149.88,63.94 132.9,79.34 124.05,73.85 116.45,88.68 107.38,83.35 100.89,97.51 
			90.8,89.52 84.73,101.89 71.29,109.78 62.22,103.6 49.62,112.96 51.83,125.36 		"/>
		<path class="st1" d="M92.79,84.26c0,3.97-0.56,7.64-1.66,10.99c-1.11,3.35-2.61,6.27-4.49,8.74c-1.88,2.47-3.98,4.36-6.3,5.68
			c-2.33,1.32-4.44,1.82-6.32,1.47s-3.37-1.56-4.48-3.66c-1.1-2.1-1.66-5.12-1.66-9.07c0-3.97,0.55-7.63,1.66-10.99
			c1.1-3.35,2.6-6.26,4.48-8.73C75.9,76.22,78,74.32,80.34,73c2.32-1.32,4.42-1.81,6.3-1.48c1.88,0.33,3.38,1.54,4.49,3.64
			C92.24,77.25,92.79,80.29,92.79,84.26z M85.64,88.32c0-2.14-0.2-3.83-0.61-5.07c-0.4-1.24-1-2.01-1.79-2.33
			c-0.79-0.31-1.76-0.14-2.91,0.51c-1.15,0.65-2.12,1.58-2.91,2.79c-0.79,1.21-1.38,2.66-1.79,4.36c-0.4,1.7-0.61,3.62-0.61,5.76
			c0,2.14,0.2,3.83,0.61,5.07c0.4,1.24,1,2.02,1.79,2.33c0.79,0.31,1.76,0.14,2.91-0.51c1.15-0.65,2.12-1.58,2.91-2.79
			c0.79-1.21,1.38-2.66,1.79-4.36C85.44,92.38,85.64,90.46,85.64,88.32z"/>
		<path class="st1" d="M100.89,97.51l-7.55-31.4l7.75-4.4l3.5,19.97l0.2-0.11l4.15-24.32l6.1-3.46l4.15,19.67l0.2-0.11l3.5-24.01
			l7.75-4.4L123.1,84.9l-6.65,3.78l-4.35-17.47l-0.2,0.11l-4.35,22.41L100.89,97.51z"/>
		<path class="st1" d="M132.9,79.34V43.65l18.45-10.48v7.81l-11.5,6.53v6.14l10.55-5.99v7.81l-10.55,5.99v6.13l11.45-6.5v7.81
			L132.9,79.34z"/>
		<path class="st1" d="M60.92,86.08c-1.43-0.24-3.09,0.19-4.99,1.26l-11.05,6.28v35.69l6.95-3.95v-10.6l3.85-2.18
			c1.95-1.11,3.66-2.58,5.12-4.42c1.46-1.84,2.6-3.93,3.41-6.26c0.81-2.33,1.22-4.78,1.22-7.33c0-2.53-0.4-4.52-1.19-5.97
			C63.45,87.16,62.35,86.32,60.92,86.08z M57.71,101.58c-0.31,0.92-0.76,1.75-1.34,2.48c-0.58,0.73-1.28,1.33-2.09,1.79l-2.45,1.39
			v-9.83l2.45-1.39c0.82-0.46,1.52-0.67,2.09-0.6c0.58,0.06,1.03,0.36,1.34,0.91c0.31,0.55,0.47,1.33,0.47,2.36
			C58.18,99.69,58.03,100.66,57.71,101.58z"/>
		<path class="st1" d="M168.66,59.04l7.55-4.29l-5.21-10.37c1.33-1.64,2.38-3.48,3.14-5.55c0.81-2.22,1.22-4.6,1.22-7.16
			c0-2.53-0.4-4.48-1.19-5.84c-0.79-1.36-1.9-2.12-3.33-2.28c-1.43-0.16-3.09,0.31-4.99,1.39l-11.05,6.27V66.9l6.95-3.95V51.18
			l2.41-1.37L168.66,59.04z M161.76,35l2.45-1.39c0.82-0.46,1.52-0.71,2.09-0.73c0.58-0.02,1.03,0.2,1.34,0.67
			c0.31,0.47,0.47,1.21,0.47,2.24c0,1.01-0.16,1.92-0.47,2.72c-0.31,0.81-0.76,1.51-1.34,2.13c-0.58,0.61-1.28,1.16-2.09,1.62
			l-2.45,1.39V35z"/>
	</g>
	<polygon class="st21" points="22.3,82.9 44.88,93.62 168.11,23.91 170.85,23.55 149.99,14.97 	"/>
</g>
<g>
	<g>
		<polygon class="st2" points="203.34,155 168.95,135.14 168.95,100.74 203.34,120.6 		"/>
		<polygon class="st3" points="203.34,155 237.74,135.14 237.74,100.74 203.34,120.6 		"/>
		<polygon class="st4" points="203.47,120.71 168.95,100.78 203.22,80.81 237.74,100.74 		"/>
		<path id="矩形_00000071533566136864949720000017614019122046767779_" class="st5" d="M192.26,92.37L192.26,92.37
			c0.68,0.38,0.56,1.12-0.24,1.6l-7.14,4.22c-0.81,0.48-2.08,0.56-2.75,0.17l0,0c-0.68-0.38-0.56-1.12,0.24-1.6l7.14-4.22
			C190.32,92.06,191.59,91.98,192.26,92.37z"/>
		<path id="矩形_00000148655270495133407650000016292293133908033928_" class="st5" d="M180.38,99.27L180.38,99.27
			c0.68,0.38,0.56,1.12-0.24,1.6l-1.38,0.82c-0.81,0.48-2.08,0.56-2.75,0.17l0,0c-0.68-0.38-0.56-1.12,0.24-1.6l1.38-0.82
			C178.49,98.93,179.7,98.88,180.38,99.27z"/>
	</g>
</g>
<g>
	<g>
		<polygon class="st2" points="199.3,107.99 174.67,93.77 174.67,69.14 199.3,83.36 		"/>
		<polygon class="st3" points="199.3,107.99 223.93,93.77 223.93,69.14 199.3,83.36 		"/>
		<polygon class="st4" points="199.39,83.43 174.67,69.16 199.21,54.86 223.93,69.13 		"/>
		<path id="矩形_00000067237531403813401990000007161575344428374456_" class="st5" d="M191.45,63.02L191.45,63.02
			c0.48,0.28,0.4,0.8-0.17,1.15l-5.11,3.03c-0.58,0.34-1.49,0.4-1.97,0.12l0,0c-0.48-0.28-0.4-0.8,0.17-1.15l5.11-3.03
			C190.06,62.8,190.97,62.75,191.45,63.02z"/>
		<path id="矩形_00000172439455273169900730000003788602527012485021_" class="st5" d="M182.94,67.96L182.94,67.96
			c0.48,0.28,0.4,0.8-0.17,1.15l-0.99,0.59c-0.58,0.34-1.49,0.4-1.97,0.12l0,0c-0.48-0.28-0.4-0.8,0.17-1.15l0.99-0.59
			C181.59,67.72,182.46,67.69,182.94,67.96z"/>
	</g>
</g>
<g>
	<g>
		<polygon class="st2" points="245.17,159.61 220.54,145.39 220.54,120.76 245.17,134.98 		"/>
		<polygon class="st3" points="245.17,159.61 269.8,145.39 269.8,120.76 245.17,134.98 		"/>
		<polygon class="st4" points="245.26,135.05 220.54,120.78 245.08,106.48 269.8,120.75 		"/>
		<path id="矩形_00000116923982106843508210000010645689925394138284_" class="st5" d="M237.33,114.64L237.33,114.64
			c0.48,0.28,0.4,0.8-0.17,1.15l-5.11,3.03c-0.58,0.34-1.49,0.4-1.97,0.12l0,0c-0.48-0.28-0.4-0.8,0.17-1.15l5.11-3.03
			C235.93,114.42,236.84,114.37,237.33,114.64z"/>
		<path id="矩形_00000116227473572927087900000008942256424761030057_" class="st5" d="M228.81,119.58L228.81,119.58
			c0.48,0.28,0.4,0.8-0.17,1.15l-0.99,0.59c-0.58,0.34-1.49,0.4-1.97,0.12l0,0c-0.48-0.28-0.4-0.8,0.17-1.15l0.99-0.59
			C227.46,119.34,228.33,119.31,228.81,119.58z"/>
	</g>
</g>
<g>
	<g>
		<polygon class="st2" points="56.08,234.01 31.45,219.79 31.45,195.16 56.08,209.38 		"/>
		<polygon class="st3" points="56.08,234.01 80.71,219.79 80.71,195.16 56.08,209.38 		"/>
		<polygon class="st4" points="56.17,209.46 31.45,195.18 56,180.88 80.72,195.16 		"/>
		<path id="矩形_00000170982840724012628400000017603476856356239242_" class="st5" d="M48.24,189.04L48.24,189.04
			c0.48,0.28,0.4,0.8-0.17,1.15l-5.11,3.03c-0.58,0.34-1.49,0.4-1.97,0.12l0,0c-0.48-0.28-0.4-0.8,0.17-1.15l5.11-3.03
			C46.84,188.83,47.75,188.77,48.24,189.04z"/>
		<path id="矩形_00000034789922945337747170000004786810676651890076_" class="st5" d="M39.73,193.98L39.73,193.98
			c0.48,0.28,0.4,0.8-0.17,1.15l-0.99,0.59c-0.58,0.34-1.49,0.4-1.97,0.12l0,0c-0.48-0.28-0.4-0.8,0.17-1.15l0.99-0.59
			C38.37,193.74,39.24,193.71,39.73,193.98z"/>
	</g>
</g>
<g>
	<g>
		<polygon class="st2" points="58.18,202.25 33.55,188.03 33.55,163.4 58.18,177.62 		"/>
		<polygon class="st3" points="58.18,202.25 82.81,188.03 82.81,163.4 58.18,177.62 		"/>
		<polygon class="st4" points="58.27,177.7 33.55,163.43 58.09,149.13 82.81,163.4 		"/>
		<path id="矩形_00000103233851201207027030000016206408251759671182_" class="st5" d="M50.33,157.29L50.33,157.29
			c0.48,0.28,0.4,0.8-0.17,1.15l-5.11,3.03c-0.58,0.34-1.49,0.4-1.97,0.12l0,0c-0.48-0.28-0.4-0.8,0.17-1.15l5.11-3.03
			C48.94,157.07,49.85,157.01,50.33,157.29z"/>
		<path id="矩形_00000119098720750697630430000017452137009090544825_" class="st5" d="M41.82,162.23L41.82,162.23
			c0.48,0.28,0.4,0.8-0.17,1.15l-0.99,0.59c-0.58,0.34-1.49,0.4-1.97,0.12l0,0c-0.48-0.28-0.4-0.8,0.17-1.15l0.99-0.59
			C40.47,161.99,41.34,161.95,41.82,162.23z"/>
	</g>
</g>
<g>
	<path id="矩形_00000009591785655471828430000014275214618500428440_" class="st14" d="M175.9,186.22L175.9,186.22
		c0.62,0,1.15,0.76,1.15,1.64v1.52c0,0.88-0.53,1.64-1.15,1.64l0,0c-0.62,0-1.15-0.76-1.15-1.64v-1.52
		C174.75,186.92,175.28,186.22,175.9,186.22z"/>
	
		<radialGradient id="SVGID_00000065795739301370023040000003194875743571785909_" cx="144.3555" cy="220.3475" r="29.1582" gradientTransform="matrix(1 0 0 0.5898 0 90.388)" gradientUnits="userSpaceOnUse">
		<stop  offset="0" style="stop-color:#B8B3D4"/>
		<stop  offset="0.3457" style="stop-color:#BAB6D6;stop-opacity:0.6543"/>
		<stop  offset="0.6064" style="stop-color:#C2C0DA;stop-opacity:0.3936"/>
		<stop  offset="0.8384" style="stop-color:#D0D0E3;stop-opacity:0.1616"/>
		<stop  offset="1" style="stop-color:#DDE0EB;stop-opacity:0"/>
	</radialGradient>
	<path style="opacity:0.67;fill:url(#SVGID_00000065795739301370023040000003194875743571785909_);" d="M169.35,206.27
		c-13.68-7.9-35.96-8-49.77-0.23s-13.91,20.48-0.23,28.37c13.68,7.9,35.96,8,49.77,0.23C182.93,226.87,183.03,214.17,169.35,206.27z
		"/>
	<g>
		<path class="st81" d="M182.86,170.25v-49.28c0-0.23,0.02-0.45,0.02-0.68c0-22.91-18.57-41.48-41.48-41.48
			c-22.91,0-41.48,18.57-41.48,41.48c0,0.36,0.02,0.72,0.03,1.07v44.66h-0.03v22.67c0,2.84,2.3,5.15,5.15,5.15
			c2.84,0,5.15-2.31,5.15-5.15v-0.83c0.56,0.36,1.13,0.72,1.74,1.07c1.83,1.06,3.79,1.99,5.85,2.81v8.2c0,2.84,2.3,5.15,5.15,5.15
			c2.84,0,5.15-2.31,5.15-5.15v-5.23c2.95,0.57,5.99,0.96,9.06,1.14v12.59c0,2.84,2.3,5.15,5.15,5.15s5.15-2.31,5.15-5.15v-12.7
			c3.39-0.28,6.73-0.8,9.93-1.55v6.36c0,2.84,2.3,5.15,5.15,5.15s5.15-2.31,5.15-5.15v-9.87c1-0.47,1.97-0.96,2.91-1.49
			c0.7-0.39,1.35-0.8,1.99-1.21v0.71c0,2.84,2.3,5.15,5.15,5.15c2.84,0,5.15-2.31,5.15-5.15v-18.45H182.86z"/>
		
			<radialGradient id="SVGID_00000103226990307107057880000013344388527047269258_" cx="166.0782" cy="96.2268" r="106.6854" gradientUnits="userSpaceOnUse">
			<stop  offset="0.0124" style="stop-color:#DD78CE"/>
			<stop  offset="0.4936" style="stop-color:#A7589A"/>
			<stop  offset="0.5829" style="stop-color:#A0619E"/>
			<stop  offset="0.7273" style="stop-color:#8E79A8"/>
			<stop  offset="0.9078" style="stop-color:#709FB9"/>
			<stop  offset="1" style="stop-color:#5EB6C3"/>
		</radialGradient>
		<path style="fill:url(#SVGID_00000103226990307107057880000013344388527047269258_);" d="M182.86,170.25v-49.28
			c0-0.23,0.02-0.45,0.02-0.68c0-22.91-18.57-41.48-41.48-41.48c-22.91,0-41.48,18.57-41.48,41.48c0,0.36,0.02,0.72,0.03,1.07v44.66
			h-0.03v22.67c0,2.84,2.3,5.15,5.15,5.15c2.84,0,5.15-2.31,5.15-5.15v-0.83c0.56,0.36,1.13,0.72,1.74,1.07
			c1.83,1.06,3.79,1.99,5.85,2.81v8.2c0,2.84,2.3,5.15,5.15,5.15c2.84,0,5.15-2.31,5.15-5.15v-5.23c2.95,0.57,5.99,0.96,9.06,1.14
			v12.59c0,2.84,2.3,5.15,5.15,5.15s5.15-2.31,5.15-5.15v-12.7c3.39-0.28,6.73-0.8,9.93-1.55v6.36c0,2.84,2.3,5.15,5.15,5.15
			s5.15-2.31,5.15-5.15v-9.87c1-0.47,1.97-0.96,2.91-1.49c0.7-0.39,1.35-0.8,1.99-1.21v0.71c0,2.84,2.3,5.15,5.15,5.15
			c2.84,0,5.15-2.31,5.15-5.15v-18.45H182.86z"/>
	</g>
	<path id="矩形_00000087397578957614146820000003355207264758135954_" class="st14" d="M103.81,156.4L103.81,156.4
		c1.12,0,2.09,1.38,2.09,2.99v14.25c0,1.61-0.96,2.99-2.09,2.99l0,0c-1.12,0-2.09-1.38-2.09-2.99v-14.25
		C101.72,157.78,102.68,156.4,103.81,156.4z"/>
	<path id="矩形_00000047754894176421212220000012458375927516645053_" class="st14" d="M165.11,93.31L165.11,93.31
		c1.37-1.02,3.68-0.37,5.02,1.41l2.29,3.06c1.34,1.78,1.31,4.19-0.06,5.22l0,0c-1.37,1.02-3.68,0.37-5.02-1.41l-2.29-3.06
		C163.62,96.62,163.74,94.34,165.11,93.31z"/>
	<path id="矩形_00000157990403674674158700000006686390421407291574_" class="st14" d="M121.2,192.99L121.2,192.99
		c1.12,0,2.09,1.38,2.09,2.99v2.76c0,1.61-0.96,2.99-2.09,2.99l0,0c-1.12,0-2.09-1.38-2.09-2.99v-2.76
		C119.12,194.25,120.08,192.99,121.2,192.99z"/>
	<path id="矩形_00000044871261895847708770000002735913274861412226_" class="st14" d="M103.81,181.85L103.81,181.85
		c1.12,0,2.09,1.38,2.09,2.99v2.76c0,1.61-0.96,2.99-2.09,2.99l0,0c-1.12,0-2.09-1.38-2.09-2.99v-2.76
		C101.72,183.12,102.68,181.85,103.81,181.85z"/>
	<path id="矩形_00000043416485415560851790000010022625893806274693_" class="st14" d="M141.39,201.73L141.39,201.73
		c1.12,0,2.09,1.38,2.09,2.99v2.76c0,1.61-0.96,2.99-2.09,2.99l0,0c-1.12,0-2.09-1.38-2.09-2.99v-2.76
		C139.31,202.99,140.27,201.73,141.39,201.73z"/>
	<path id="矩形_00000049191009262218111110000014936761869242403253_" class="st14" d="M161.09,196.39L161.09,196.39
		c0.89,0,1.66,1.1,1.66,2.37v2.19c0,1.28-0.76,2.37-1.66,2.37l0,0c-0.89,0-1.66-1.1-1.66-2.37v-2.19
		C159.44,197.39,160.2,196.39,161.09,196.39z"/>
	
		<ellipse transform="matrix(0.4179 -0.9085 0.9085 0.4179 -35.214 213.6616)" class="st84" cx="149.12" cy="134.31" rx="11.56" ry="6.81"/>
	
		<ellipse transform="matrix(0.4179 -0.9085 0.9085 0.4179 -14.9406 229.0122)" class="st84" cx="171.23" cy="126.16" rx="11.56" ry="6.81"/>
	<g>
		<path id="形状结合_00000052800771220668392550000012347782312995224733_" class="st85" d="M152.02,123.11
			c3.6-1.88,6.46,1.24,6.4,6.88c0,0.2,0,0.4-0.01,0.6l-0.01,0.6c0.06-5.74-2.71-9-6.24-7.16s-6.4,7.94-6.46,13.78
			c-0.01,1.11,0.06,2.17,0.28,3.06c-0.38-1.1-0.6-2.49-0.58-4C145.47,131.13,148.42,124.98,152.02,123.11z"/>
		<path id="形状结合_00000167383969439905033100000013440319992287430529_" class="st86" d="M152.04,121.9
			c4-2.08,7.23,1.34,7.17,7.68c-0.07,6.34-3.41,13.2-7.41,15.28c-4,2.08-7.23-1.34-7.17-7.68
			C144.7,130.83,147.96,124.02,152.04,121.9z M152.02,123.11c-3.6,1.88-6.55,8.02-6.61,13.66c-0.06,5.64,2.79,8.76,6.4,6.88
			c3.6-1.88,6.55-8.02,6.61-13.66C158.48,124.35,155.55,121.27,152.02,123.11z"/>
		<path id="形状结合_00000091012564269628090270000016207065571347968438_" class="st85" d="M173.76,114.96
			c3.6-1.88,6.46,1.24,6.4,6.88c0,0.2,0,0.4-0.01,0.6l-0.01,0.6c0.06-5.74-2.71-9-6.24-7.16c-3.53,1.84-6.4,7.94-6.46,13.78
			c-0.01,1.11,0.06,2.17,0.28,3.06c-0.38-1.1-0.6-2.49-0.58-4C167.2,122.98,170.15,116.84,173.76,114.96z"/>
		<path id="形状结合_00000089533955622365780390000008932183258459172017_" class="st86" d="M173.77,113.75
			c4-2.08,7.23,1.34,7.17,7.68c-0.07,6.34-3.41,13.2-7.41,15.28c-4,2.08-7.23-1.34-7.17-7.68
			C166.43,122.69,169.69,115.87,173.77,113.75z M173.76,114.96c-3.6,1.88-6.55,8.02-6.61,13.66c-0.06,5.64,2.79,8.76,6.4,6.88
			c3.6-1.88,6.55-8.02,6.61-13.66C180.21,116.2,177.28,113.12,173.76,114.96z"/>
	</g>
	<path id="椭圆形_00000124162552881930764260000009442055162140381825_" class="st83" d="M162.57,152.15
		c2.56-1.41,4.5-5.07,4.5-6.88c0-0.72-0.35-1.18-0.87-0.97c-0.82,0.3-2.04,1.56-3.61,2.42c-1.46,0.8-2.39,0.81-3.5,1.42
		c-1.17,0.64-1.11,2.27-0.94,2.83C158.55,152.55,159.95,153.59,162.57,152.15z"/>
	<path id="椭圆形_00000134223282835839614540000012754417125015225990_" class="st84" d="M164.27,152.93
		c2.62-1.44,4.55-4.89,4.56-6.63c0-0.65-0.35-1.04-0.87-0.82c-0.82,0.3-2.1,1.59-3.67,2.45c-1.52,0.83-2.39,0.81-3.55,1.45
		c-1.17,0.64-1.11,2.2-0.94,2.68C160.19,153.51,161.65,154.37,164.27,152.93z"/>
	
		<ellipse transform="matrix(0.4179 -0.9085 0.9085 0.4179 -28.4949 216.2902)" class="st83" cx="154.53" cy="130.38" rx="4.69" ry="2.76"/>
	
		<ellipse transform="matrix(0.4179 -0.9085 0.9085 0.4179 -8.4002 230.788)" class="st83" cx="175.89" cy="121.95" rx="4.69" ry="2.76"/>
</g>
</svg>
