<?xml version="1.0" encoding="utf-8"?>
<!-- Generator: Adobe Illustrator 27.8.1, SVG Export Plug-In . SVG Version: 6.00 Build 0)  -->
<svg version="1.1" id="Слой_1" xmlns="http://www.w3.org/2000/svg" xmlns:xlink="http://www.w3.org/1999/xlink" x="0px" y="0px"
	 viewBox="0 0 102.49 176.47" style="enable-background:new 0 0 102.49 176.47;" xml:space="preserve">
<style type="text/css">
	.st0{fill:#101422;}
	.st1{fill:#FFFFFF;stroke:#111422;stroke-linecap:round;stroke-linejoin:round;stroke-miterlimit:10;}
	
		.st2{fill-rule:evenodd;clip-rule:evenodd;fill:#C6C3D1;stroke:#101320;stroke-linecap:round;stroke-linejoin:round;stroke-miterlimit:10;}
	
		.st3{fill-rule:evenodd;clip-rule:evenodd;fill:#FFFFFF;stroke:#111422;stroke-linecap:round;stroke-linejoin:round;stroke-miterlimit:10;}
	
		.st4{fill-rule:evenodd;clip-rule:evenodd;fill:#ECF0FC;stroke:#111422;stroke-linecap:round;stroke-linejoin:round;stroke-miterlimit:10;}
	.st5{opacity:0.92;fill-rule:evenodd;clip-rule:evenodd;fill:#FFFFFF;enable-background:new    ;}
	.st6{fill:none;stroke:#FFFFFF;stroke-linecap:round;stroke-linejoin:round;stroke-miterlimit:10;}
	.st7{fill-rule:evenodd;clip-rule:evenodd;fill:#101422;}
	.st8{fill:url(#SVGID_1_);}
	.st9{fill:url(#SVGID_00000176038702190181164520000001144901329654026667_);}
	.st10{fill:url(#SVGID_00000155835873265107603300000006668630105717878944_);}
	.st11{opacity:0.67;fill:url(#SVGID_00000172434665422221400720000013840143381093258112_);enable-background:new    ;}
	.st12{fill:#6FA3B6;}
	.st13{fill:url(#SVGID_00000171708052238934394630000007979162785583808429_);}
	.st14{opacity:0.2563;fill-rule:evenodd;clip-rule:evenodd;fill:#FFFFFF;enable-background:new    ;}
	.st15{fill:none;stroke:#FFFFFF;stroke-width:0.7384;stroke-linecap:round;stroke-linejoin:round;stroke-miterlimit:10;}
	
		.st16{fill:none;stroke:url(#SVGID_00000132086616141634272540000004412735061634882988_);stroke-width:5;stroke-linecap:round;stroke-linejoin:round;stroke-miterlimit:10;}
	.st17{fill:url(#SVGID_00000009591537965799146480000005011439006246350777_);}
	.st18{fill-rule:evenodd;clip-rule:evenodd;fill:#1AD4B3;}
	.st19{fill-rule:evenodd;clip-rule:evenodd;fill:#FC4F83;}
	.st20{fill:#C6C3D1;stroke:#101320;stroke-linecap:round;stroke-linejoin:round;stroke-miterlimit:10;}
	.st21{fill:#ECF0FC;stroke:#111422;stroke-linecap:round;stroke-linejoin:round;stroke-miterlimit:10;}
	
		.st22{fill:url(#SVGID_00000067237210652859853600000011335476185157785251_);stroke:#1D1D1B;stroke-width:0.2115;stroke-linecap:round;stroke-linejoin:round;stroke-miterlimit:10;}
	
		.st23{fill:url(#SVGID_00000047024953780176316850000013760885067172694431_);stroke:#1D1D1B;stroke-width:0.2115;stroke-linecap:round;stroke-linejoin:round;stroke-miterlimit:10;}
	
		.st24{fill:url(#SVGID_00000078752406374309273580000006646695751179713437_);stroke:#1D1D1B;stroke-width:0.2115;stroke-linecap:round;stroke-linejoin:round;stroke-miterlimit:10;}
	
		.st25{fill:url(#SVGID_00000040548856625253668380000003502227002617653141_);stroke:#1D1D1B;stroke-width:0.2115;stroke-linecap:round;stroke-linejoin:round;stroke-miterlimit:10;}
	
		.st26{fill-rule:evenodd;clip-rule:evenodd;fill:#101422;stroke:#101423;stroke-linecap:round;stroke-linejoin:round;stroke-miterlimit:10;}
	.st27{fill:#FFFFFF;}
	.st28{fill-rule:evenodd;clip-rule:evenodd;fill:url(#SVGID_00000107574372559606351520000011359617314593634438_);}
	.st29{fill-rule:evenodd;clip-rule:evenodd;fill:url(#SVGID_00000053541408487921260960000011268882761459569055_);}
	.st30{fill:url(#SVGID_00000106107101676260479530000013914043979405051806_);}
	.st31{fill:url(#SVGID_00000029758271870661412730000005110750328771207824_);}
	.st32{fill:url(#SVGID_00000074402605884458204870000005437014969857232042_);}
	
		.st33{fill-rule:evenodd;clip-rule:evenodd;fill:#C7FFF1;stroke:#101320;stroke-linecap:round;stroke-linejoin:round;stroke-miterlimit:10;}
	
		.st34{fill:none;stroke:url(#SVGID_00000052823665359187418270000015846858230964377009_);stroke-width:5;stroke-linecap:round;stroke-linejoin:round;stroke-miterlimit:10;}
	.st35{fill:url(#SVGID_00000063630904435750098470000005266186100858010041_);}
	
		.st36{fill:none;stroke:url(#SVGID_00000156588721816530367440000009597929950056972195_);stroke-width:5;stroke-linecap:round;stroke-linejoin:round;stroke-miterlimit:10;}
	.st37{fill:url(#SVGID_00000110436216422121634550000015032000806745451143_);}
	
		.st38{fill:none;stroke:url(#SVGID_00000147192265209912818130000012535195430158484621_);stroke-width:5;stroke-linecap:round;stroke-linejoin:round;stroke-miterlimit:10;}
	.st39{fill:url(#SVGID_00000121987956642039043450000006043937533415335867_);}
	
		.st40{fill-rule:evenodd;clip-rule:evenodd;fill:#1AD4B3;stroke:#111422;stroke-linecap:round;stroke-linejoin:round;stroke-miterlimit:10;}
	
		.st41{fill-rule:evenodd;clip-rule:evenodd;fill:#FC4F83;stroke:#111422;stroke-linecap:round;stroke-linejoin:round;stroke-miterlimit:10;}
	
		.st42{fill-rule:evenodd;clip-rule:evenodd;fill:#FFCAD7;stroke:#111422;stroke-linecap:round;stroke-linejoin:round;stroke-miterlimit:10;}
	.st43{fill:url(#SVGID_00000106848041275422237120000005107311389802798983_);}
	.st44{fill:url(#SVGID_00000035523885359547705470000007908905619684828321_);}
	.st45{fill:url(#SVGID_00000144296549280006966570000017363457565109226374_);}
	
		.st46{fill:none;stroke:url(#SVGID_00000163032843933300230970000007120590769043039875_);stroke-width:5;stroke-linecap:round;stroke-linejoin:round;stroke-miterlimit:10;}
	.st47{fill:url(#SVGID_00000006695511004734289500000012732279455696143280_);}
	
		.st48{fill:none;stroke:url(#SVGID_00000139973768471173593520000015384293413742552974_);stroke-width:5;stroke-linecap:round;stroke-linejoin:round;stroke-miterlimit:10;}
	.st49{fill:url(#SVGID_00000074439146083988356840000013229071646475683713_);}
	.st50{fill:url(#SVGID_00000088102307873393180470000010216205421458602368_);}
	.st51{fill:#101320;}
	.st52{fill:url(#SVGID_00000167387985712647036300000014245907306961108152_);}
	.st53{fill:url(#SVGID_00000137848585707470283170000014494025220687054769_);}
	.st54{fill:url(#SVGID_00000135658459068521084310000009067790408535295137_);}
	.st55{fill:url(#SVGID_00000021116948956406422130000017564093902814798245_);}
	.st56{fill:url(#SVGID_00000074421223588359404910000007829294667576314287_);}
	.st57{fill:url(#SVGID_00000150782551871599388910000010583779129094660763_);}
	.st58{opacity:0.29;fill:url(#SVGID_00000089566278497389586510000017809623923832794814_);enable-background:new    ;}
	.st59{fill:url(#SVGID_00000012460507345495031660000008363900328214220160_);}
	.st60{fill:url(#SVGID_00000014629086951995129100000014563735476939737269_);}
	.st61{fill:url(#SVGID_00000183969562607524662500000004491308220742039729_);}
	.st62{fill-rule:evenodd;clip-rule:evenodd;fill:url(#SVGID_00000086693811119858360080000013827468746779431853_);}
	.st63{fill:url(#SVGID_00000046312633034276719090000013220279094581440140_);}
	.st64{fill:url(#SVGID_00000170276109652109018780000017748910566596893082_);}
	.st65{fill:url(#SVGID_00000101787386354262043060000001644471798379392179_);}
	.st66{fill:url(#SVGID_00000090991609657327538220000003233785068836763819_);}
	.st67{opacity:0.29;fill:url(#SVGID_00000156578958347169002740000001107139602743290047_);enable-background:new    ;}
	
		.st68{fill:none;stroke:url(#SVGID_00000181069116463881686490000009294155847664874134_);stroke-width:5;stroke-linecap:round;stroke-linejoin:round;stroke-miterlimit:10;}
	.st69{fill:url(#SVGID_00000076595724448098635070000018366786710389200554_);}
	
		.st70{fill:none;stroke:url(#SVGID_00000117678923443502246820000002078036678970297220_);stroke-width:5;stroke-linecap:round;stroke-linejoin:round;stroke-miterlimit:10;}
	.st71{fill:url(#SVGID_00000000945182822320934570000006332667822328129460_);}
	
		.st72{fill:none;stroke:url(#SVGID_00000058583662778532668080000006171581748736135812_);stroke-width:5;stroke-linecap:round;stroke-linejoin:round;stroke-miterlimit:10;}
	.st73{fill:url(#SVGID_00000086686481944630121220000014655925461453590960_);}
	.st74{fill-rule:evenodd;clip-rule:evenodd;fill:url(#SVGID_00000093149537299020492530000003944529058054811009_);}
	.st75{fill:url(#SVGID_00000040548561411757435160000005047576923352956862_);}
	.st76{fill:url(#SVGID_00000086668765582995132290000011765301139996525189_);}
	.st77{fill:url(#SVGID_00000127763205305604730090000016768434127178274489_);}
	.st78{opacity:0.29;fill:url(#SVGID_00000132050748397857556630000009168969065092765827_);}
	.st79{opacity:0.29;fill:url(#SVGID_00000065770247969540256650000013608724519099858597_);}
	.st80{opacity:0.67;fill:url(#SVGID_00000130607236815501958180000011757177464574935441_);}
	.st81{fill:#3FA9BD;}
	.st82{fill:url(#SVGID_00000054985692578849980250000001938254429120404400_);}
	.st83{fill-rule:evenodd;clip-rule:evenodd;fill:#555069;}
	.st84{fill-rule:evenodd;clip-rule:evenodd;fill:#FFFFFF;}
	.st85{fill-rule:evenodd;clip-rule:evenodd;fill:#AFAFB1;}
	.st86{fill-rule:evenodd;clip-rule:evenodd;fill:#D3D3D3;}
	.st87{opacity:0.67;fill:url(#SVGID_00000181073013972395400080000013364328355845290890_);}
	.st88{fill:url(#SVGID_00000064329391077701749240000006720901392083156617_);}
	.st89{opacity:0.67;fill:url(#SVGID_00000166675282501050727140000005176715760812420230_);}
	.st90{fill:url(#SVGID_00000001642709071925660780000002126345894516262288_);}
	.st91{opacity:0.67;fill:url(#SVGID_00000141443563728821492000000016115597147065122434_);}
	.st92{fill:url(#SVGID_00000049206276264034850890000003590919245907424920_);}
	.st93{opacity:0.67;fill:url(#SVGID_00000163767143404051611090000015948302168371865999_);}
	.st94{fill:url(#SVGID_00000137116119022968610410000004657513420532333499_);}
	.st95{opacity:0.67;fill:url(#SVGID_00000067938093458385608060000000665110785887337897_);}
	.st96{fill:url(#SVGID_00000168106646414874587140000014809535268197432455_);}
	.st97{fill:#1AD4B3;}
	.st98{opacity:0.67;fill:url(#SVGID_00000078744577294353745860000009964472365718103982_);}
	.st99{fill:url(#SVGID_00000096744442818247255950000016090635583900818608_);}
	.st100{opacity:0.67;fill:url(#SVGID_00000134237768946550928530000016319533181773600683_);}
	.st101{fill:url(#SVGID_00000028286574476030151190000017833997138311196803_);}
	.st102{opacity:0.67;fill:url(#SVGID_00000042712525383848811300000009662580435200193706_);}
	.st103{fill:url(#SVGID_00000183241626024776940850000007334330642731353490_);}
	
		.st104{fill-rule:evenodd;clip-rule:evenodd;fill:none;stroke:#FFFFFF;stroke-width:0.7384;stroke-linecap:round;stroke-linejoin:round;stroke-miterlimit:10;}
	.st105{opacity:0.67;fill:url(#SVGID_00000176727922726441728370000000477058977873217209_);}
	.st106{fill:url(#SVGID_00000017486206178479970400000003213667271799869864_);}
	.st107{opacity:0.67;fill:url(#SVGID_00000064318511087316242200000001982544927995201712_);}
	.st108{fill:url(#SVGID_00000060721562451780742800000012375223409824352900_);}
	.st109{opacity:0.67;fill:url(#SVGID_00000105403536962170006190000013386002938536191167_);}
	.st110{fill:url(#SVGID_00000112630076213971016580000003005482813717667736_);}
	.st111{opacity:0.67;fill:url(#SVGID_00000059304042955413468740000014298769311884925875_);}
	.st112{fill:url(#SVGID_00000175325099102720345650000015011217748946742921_);}
	.st113{opacity:0.67;fill:url(#SVGID_00000077296004371137583380000002417244400561951674_);}
	.st114{fill:url(#SVGID_00000095338383385358254750000011743300355665028751_);}
	.st115{opacity:0.67;fill:url(#SVGID_00000178171412475783447540000017319993204769873303_);}
	.st116{fill:url(#SVGID_00000101064353557265146540000017211491952151425717_);}
	.st117{opacity:0.67;fill:url(#SVGID_00000127751766800473282770000015561121802148733079_);}
	.st118{fill:url(#SVGID_00000004509550077181721020000013981732844774699159_);}
	.st119{opacity:0.67;fill:url(#SVGID_00000062178573997976199960000015997839403518532276_);}
	.st120{fill:url(#SVGID_00000054266042195614518620000010863557004741821322_);}
	.st121{opacity:0.67;fill:url(#SVGID_00000169551427145928457700000012547181119496194992_);}
	.st122{fill:url(#SVGID_00000020397288802886031850000012059386091475211950_);}
	.st123{opacity:0.67;fill:url(#SVGID_00000170237463791132964230000005638678908985228196_);}
	.st124{fill:url(#SVGID_00000091716823588362238910000016285637501954220456_);}
	.st125{opacity:0.67;fill:url(#SVGID_00000159469569322165492700000009234041622276924292_);}
	.st126{fill:url(#SVGID_00000178918333186815646090000007865598313957732509_);}
	.st127{opacity:0.67;fill:url(#SVGID_00000062901874020838535540000000947598501535181440_);}
	.st128{fill:#5EA6B9;}
	.st129{fill:url(#SVGID_00000181066704382841788700000001739933594496689059_);}
	.st130{fill-rule:evenodd;clip-rule:evenodd;fill:#545067;}
	.st131{fill-rule:evenodd;clip-rule:evenodd;fill:#AEAEB0;}
	.st132{fill-rule:evenodd;clip-rule:evenodd;fill:#D2D2D2;}
	.st133{opacity:0.67;fill:url(#SVGID_00000121981235879085357830000004413774610794611340_);}
	.st134{fill:url(#SVGID_00000028290682552400355510000015794261146971195028_);}
	.st135{fill-rule:evenodd;clip-rule:evenodd;fill:#63D0B3;}
	
		.st136{fill-rule:evenodd;clip-rule:evenodd;fill:none;stroke:#111422;stroke-linecap:round;stroke-linejoin:round;stroke-miterlimit:10;}
	.st137{fill-rule:evenodd;clip-rule:evenodd;fill:#E85C83;}
	.st138{fill:#5DC29D;}
	.st139{fill:url(#SVGID_00000065775252203632199490000017236407053260401582_);}
	.st140{fill:url(#SVGID_00000092436551542719791630000013212233045895972258_);}
	.st141{fill:#E85C83;}
	.st142{opacity:0.67;fill:url(#SVGID_00000092414393571562870000000006007242277260042398_);}
	.st143{fill:url(#SVGID_00000000945153632057189560000017105368549796953269_);}
	
		.st144{fill:none;stroke:url(#SVGID_00000150065407849531602810000006812667169867850672_);stroke-width:5;stroke-linecap:round;stroke-linejoin:round;stroke-miterlimit:10;}
	.st145{fill:url(#SVGID_00000011741520588392296540000009511858857515297197_);}
	.st146{opacity:0.67;fill:url(#SVGID_00000124143282573114182980000012743908730122732467_);}
	.st147{fill:url(#SVGID_00000133510358460630701740000018354832337597750179_);}
	.st148{opacity:0.67;fill:url(#SVGID_00000158715842680221490620000009496646881217656962_);}
	.st149{fill:url(#SVGID_00000125585095074891038640000014413979158087963794_);}
	.st150{opacity:0.67;fill:url(#SVGID_00000144296278118007266540000008466886666699026315_);}
	.st151{fill:url(#SVGID_00000180366444329507272440000007098371096292464051_);}
	.st152{opacity:0.67;fill:url(#SVGID_00000067941274061891723770000003744849369395971738_);}
	.st153{fill:url(#SVGID_00000087374918309024774510000005748947834764549565_);}
	.st154{opacity:0.67;fill:url(#SVGID_00000166655408242647941010000005308576774118956186_);}
	.st155{fill:url(#SVGID_00000060713202422966076190000005150169006834390681_);}
	.st156{opacity:0.67;fill:url(#SVGID_00000100365868857478672920000003694424542631058822_);}
	.st157{fill:url(#SVGID_00000085962452640720763290000003668068024292417465_);}
	.st158{fill:none;stroke:#000000;stroke-width:22;stroke-linecap:round;stroke-linejoin:round;stroke-miterlimit:10;}
	.st159{fill:#ECF0FC;}
	.st160{fill:url(#SVGID_00000148637489501455682550000015417898777898419097_);}
	.st161{fill:url(#SVGID_00000020392416047567604650000001312821409573224111_);}
	.st162{fill:none;stroke:url(#SVGID_00000072279718063533610190000006485995308110292152_);stroke-width:5;stroke-miterlimit:10;}
	.st163{fill:#111422;}
	.st164{fill:url(#SVGID_00000096022226674092239000000009455908081018590891_);}
	.st165{fill:none;}
	.st166{opacity:0.67;fill:url(#SVGID_00000096029328195723277140000004427376282740715148_);}
	.st167{fill:url(#SVGID_00000083768838193629638580000008957728913075751586_);}
	.st168{fill:none;stroke:url(#SVGID_00000119080651551268255520000008919940696552724897_);stroke-width:5;stroke-miterlimit:10;}
	.st169{fill:url(#SVGID_00000103963387561664865200000007392899054386169751_);}
	.st170{opacity:0.67;fill:url(#SVGID_00000153705590603349765510000005673416951058538684_);}
	.st171{fill:url(#SVGID_00000124863613231566233370000004090928369234696097_);}
	.st172{opacity:0.67;fill:url(#SVGID_00000135688203925873574970000006585529707825588924_);}
	.st173{fill:url(#SVGID_00000011000439422796928420000000817195505006980746_);}
</style>
<g>
	<path id="矩形_00000045586298416418000230000017370680493783490717_" class="st14" d="M84.03,114.85L84.03,114.85
		c0.62,0,1.15,0.76,1.15,1.64V118c0,0.88-0.53,1.64-1.15,1.64l0,0c-0.62,0-1.15-0.76-1.15-1.64v-1.52
		C82.89,115.54,83.42,114.85,84.03,114.85z"/>
	
		<radialGradient id="SVGID_1_" cx="52.4923" cy="148.9734" r="29.1582" gradientTransform="matrix(1 0 0 0.5898 0 61.1099)" gradientUnits="userSpaceOnUse">
		<stop  offset="0" style="stop-color:#B8B3D4"/>
		<stop  offset="0.3457" style="stop-color:#BAB6D6;stop-opacity:0.6543"/>
		<stop  offset="0.6064" style="stop-color:#C2C0DA;stop-opacity:0.3936"/>
		<stop  offset="0.8384" style="stop-color:#D0D0E3;stop-opacity:0.1616"/>
		<stop  offset="1" style="stop-color:#DDE0EB;stop-opacity:0"/>
	</radialGradient>
	<path style="opacity:0.67;fill:url(#SVGID_1_);" d="M77.49,134.9c-13.68-7.9-35.96-8-49.77-0.23
		c-13.81,7.77-13.91,20.48-0.23,28.37s35.96,8,49.77,0.23C91.07,155.5,91.17,142.8,77.49,134.9z"/>
	<g>
		<path class="st81" d="M91,98.87V49.59c0-0.23,0.02-0.45,0.02-0.68C91.01,26,72.44,7.43,49.53,7.43C26.62,7.43,8.05,26,8.05,48.91
			c0,0.36,0.02,0.72,0.03,1.07v44.66H8.05v22.67c0,2.84,2.3,5.15,5.15,5.15s5.15-2.31,5.15-5.15v-0.83
			c0.56,0.36,1.13,0.72,1.74,1.07c1.83,1.06,3.79,1.99,5.85,2.81v8.2c0,2.84,2.3,5.15,5.15,5.15s5.15-2.31,5.15-5.15v-5.23
			c2.95,0.57,5.99,0.96,9.06,1.14v12.59c0,2.84,2.3,5.15,5.15,5.15c2.84,0,5.15-2.31,5.15-5.15v-12.7c3.39-0.28,6.73-0.8,9.93-1.55
			v6.36c0,2.84,2.3,5.15,5.15,5.15s5.15-2.31,5.15-5.15v-9.87c1-0.47,1.97-0.96,2.91-1.49c0.7-0.39,1.35-0.8,1.99-1.21v0.71
			c0,2.84,2.3,5.15,5.15,5.15s5.15-2.31,5.15-5.15V98.87H91z"/>
		
			<radialGradient id="SVGID_00000170237523347121970210000009445361208440728238_" cx="74.215" cy="24.8528" r="106.6854" gradientUnits="userSpaceOnUse">
			<stop  offset="0.0124" style="stop-color:#DD78CE"/>
			<stop  offset="0.4936" style="stop-color:#A7589A"/>
			<stop  offset="0.5829" style="stop-color:#A0619E"/>
			<stop  offset="0.7273" style="stop-color:#8E79A8"/>
			<stop  offset="0.9078" style="stop-color:#709FB9"/>
			<stop  offset="1" style="stop-color:#5EB6C3"/>
		</radialGradient>
		<path style="fill:url(#SVGID_00000170237523347121970210000009445361208440728238_);" d="M91,98.87V49.59
			c0-0.23,0.02-0.45,0.02-0.68C91.01,26,72.44,7.43,49.53,7.43C26.62,7.43,8.05,26,8.05,48.91c0,0.36,0.02,0.72,0.03,1.07v44.66
			H8.05v22.67c0,2.84,2.3,5.15,5.15,5.15s5.15-2.31,5.15-5.15v-0.83c0.56,0.36,1.13,0.72,1.74,1.07c1.83,1.06,3.79,1.99,5.85,2.81
			v8.2c0,2.84,2.3,5.15,5.15,5.15s5.15-2.31,5.15-5.15v-5.23c2.95,0.57,5.99,0.96,9.06,1.14v12.59c0,2.84,2.3,5.15,5.15,5.15
			c2.84,0,5.15-2.31,5.15-5.15v-12.7c3.39-0.28,6.73-0.8,9.93-1.55v6.36c0,2.84,2.3,5.15,5.15,5.15s5.15-2.31,5.15-5.15v-9.87
			c1-0.47,1.97-0.96,2.91-1.49c0.7-0.39,1.35-0.8,1.99-1.21v0.71c0,2.84,2.3,5.15,5.15,5.15s5.15-2.31,5.15-5.15V98.87H91z"/>
	</g>
	<path id="矩形_00000077291345030413022200000003670065480741901729_" class="st14" d="M11.94,85.03L11.94,85.03
		c1.12,0,2.09,1.38,2.09,2.99v14.25c0,1.61-0.96,2.99-2.09,2.99l0,0c-1.12,0-2.09-1.38-2.09-2.99V88.02
		C9.86,86.41,10.82,85.03,11.94,85.03z"/>
	<path id="矩形_00000074414893837899514210000013743640106675316138_" class="st14" d="M73.24,21.94L73.24,21.94
		c1.37-1.02,3.68-0.37,5.02,1.41l2.29,3.06c1.34,1.78,1.31,4.19-0.06,5.22l0,0c-1.37,1.02-3.68,0.37-5.02-1.41l-2.29-3.06
		C71.75,25.24,71.88,22.96,73.24,21.94z"/>
	<path id="矩形_00000023991752765033559500000016878784520167595906_" class="st14" d="M29.34,121.62L29.34,121.62
		c1.12,0,2.09,1.38,2.09,2.99v2.76c0,1.61-0.96,2.99-2.09,2.99l0,0c-1.12,0-2.09-1.38-2.09-2.99v-2.76
		C27.25,122.88,28.22,121.62,29.34,121.62z"/>
	<path id="矩形_00000036234826351995171350000014783520297306748325_" class="st14" d="M11.94,110.91L11.94,110.91
		c1.12,0,2.09,1.38,2.09,2.99v2.76c0,1.61-0.96,2.99-2.09,2.99l0,0c-1.12,0-2.09-1.38-2.09-2.99v-2.76
		C9.86,112.17,10.82,110.91,11.94,110.91z"/>
	<path id="矩形_00000032632707419733317290000000013315064263611071_" class="st14" d="M49.53,130.36L49.53,130.36
		c1.12,0,2.09,1.38,2.09,2.99v2.76c0,1.61-0.96,2.99-2.09,2.99l0,0c-1.12,0-2.09-1.38-2.09-2.99v-2.76
		C47.44,131.62,48.41,130.36,49.53,130.36z"/>
	<path id="矩形_00000146492750180661712700000012320554428455487410_" class="st14" d="M69.23,125.01L69.23,125.01
		c0.89,0,1.66,1.1,1.66,2.37v2.19c0,1.28-0.76,2.37-1.66,2.37l0,0c-0.89,0-1.66-1.1-1.66-2.37v-2.19
		C67.58,126.02,68.34,125.01,69.23,125.01z"/>
	<g>
		<path id="椭圆形_00000073701578692889780240000014145872759484144558_" class="st83" d="M61.4,71.4c4.06-0.17,7.1-3.66,7.09-6
			c0-0.94-0.55-1.75-1.38-1.81c-1.29-0.13-3.23,0.7-5.72,0.8c-2.31,0.1-3.78-0.5-5.53-0.42c-1.84,0.08-1.75,2.22-1.47,3.06
			C55.04,69.32,57.25,71.57,61.4,71.4z"/>
		<path id="椭圆形_00000124127355450496845530000007075517129516056214_" class="st84" d="M61.49,69.43
			c4.15-0.17,7.19-3.38,7.19-5.63c0-0.84-0.55-1.57-1.38-1.63c-1.29-0.13-3.32,0.7-5.81,0.8c-2.4,0.1-3.78-0.5-5.62-0.43
			s-1.75,2.13-1.48,2.87C55.04,67.54,57.34,69.6,61.49,69.43z"/>
	</g>
	<g>
		
			<ellipse transform="matrix(0.5671 -0.8237 0.8237 0.5671 -20.2303 57.3687)" class="st84" cx="44.46" cy="47.93" rx="9.5" ry="9.1"/>
		<path id="形状结合_00000070822868806202561940000004709966493312669365_" class="st85" d="M45.65,37.96
			c4.24-0.18,7.66,3.98,7.66,9.22c0,0.19,0,0.37,0,0.56l0,0.56c0-5.33-3.33-9.59-7.48-9.42c-4.15,0.17-7.46,4.61-7.46,10.04
			c0,1.03,0.09,2.05,0.37,2.98c-0.46-1.2-0.74-2.59-0.74-3.99C38.01,42.58,41.41,38.14,45.65,37.96z"/>
		<path id="形状结合_00000072256896100133805620000015312286573304522628_" class="st86" d="M45.65,36.84
			c4.7-0.2,8.58,4.41,8.58,10.31s-3.86,10.83-8.57,11.02c-4.7,0.2-8.58-4.41-8.58-10.31S40.86,37.04,45.65,36.84z M45.65,37.96
			c-4.24,0.18-7.65,4.62-7.64,9.86c0,5.24,3.42,9.4,7.66,9.22s7.65-4.62,7.64-9.86C53.31,41.95,49.8,37.79,45.65,37.96z"/>
	</g>
	<g>
		<ellipse transform="matrix(0.5671 -0.8237 0.8237 0.5671 -5.795 82.072)" class="st84" cx="75.17" cy="46.55" rx="9.5" ry="9.1"/>
		<path id="形状结合_00000079452856215568307050000012959924172823592081_" class="st85" d="M76.17,36.59
			c4.24-0.18,7.66,3.98,7.66,9.22c0,0.19,0,0.37,0,0.56l0,0.56c0-5.33-3.33-9.59-7.48-9.42c-4.15,0.17-7.46,4.61-7.46,10.04
			c0,1.03,0.09,2.05,0.37,2.98c-0.46-1.2-0.74-2.59-0.74-3.99C68.52,41.21,71.93,36.77,76.17,36.59z"/>
		<path id="形状结合_00000121270597695896635990000004707824152319065995_" class="st86" d="M76.17,35.47
			c4.7-0.2,8.58,4.41,8.58,10.31S80.89,56.6,76.19,56.8c-4.7,0.2-8.58-4.41-8.58-10.31S71.37,35.67,76.17,35.47z M76.17,36.59
			c-4.24,0.18-7.65,4.62-7.64,9.86c0,5.24,3.42,9.4,7.66,9.22c4.24-0.18,7.65-4.62,7.64-9.86C83.82,40.58,80.32,36.42,76.17,36.59z"
			/>
	</g>
	<circle class="st83" cx="49.43" cy="45.79" r="3.77"/>
	<circle class="st83" cx="79.97" cy="44.66" r="3.77"/>
</g>
</svg>
