<?xml version="1.0" encoding="utf-8"?>
<!-- Generator: Adobe Illustrator 27.8.1, SVG Export Plug-In . SVG Version: 6.00 Build 0)  -->
<svg version="1.1" id="Слой_1" xmlns="http://www.w3.org/2000/svg" xmlns:xlink="http://www.w3.org/1999/xlink" x="0px" y="0px"
	 viewBox="0 0 102.49 176.47" style="enable-background:new 0 0 102.49 176.47;" xml:space="preserve">
<style type="text/css">
	.st0{stroke:#000000;stroke-linecap:round;stroke-linejoin:round;stroke-miterlimit:10;}
	.st1{fill:#222846;stroke:#000000;stroke-linecap:round;stroke-linejoin:round;stroke-miterlimit:10;}
	.st2{fill-rule:evenodd;clip-rule:evenodd;stroke:#000000;stroke-linecap:round;stroke-linejoin:round;stroke-miterlimit:10;}
	
		.st3{fill-rule:evenodd;clip-rule:evenodd;fill:#222846;stroke:#000000;stroke-linecap:round;stroke-linejoin:round;stroke-miterlimit:10;}
	
		.st4{fill-rule:evenodd;clip-rule:evenodd;fill:#4A5479;stroke:#000000;stroke-linecap:round;stroke-linejoin:round;stroke-miterlimit:10;}
	.st5{fill-rule:evenodd;clip-rule:evenodd;fill:#5C6A91;}
	.st6{fill:#6D75A2;}
	.st7{stroke:#1A213A;stroke-linecap:round;stroke-linejoin:round;stroke-miterlimit:10;}
	.st8{stroke:#4A5479;stroke-linecap:round;stroke-linejoin:round;stroke-miterlimit:10;}
	.st9{fill:url(#SVGID_1_);}
	.st10{fill:url(#SVGID_00000090991338250750456130000009117671902443392182_);}
	.st11{fill:url(#SVGID_00000122697983627885024360000010591217637596740271_);}
	
		.st12{fill:none;stroke:url(#SVGID_00000165928777631182251960000003587079670755033782_);stroke-width:5;stroke-linecap:round;stroke-linejoin:round;stroke-miterlimit:10;}
	.st13{fill:url(#SVGID_00000116209578541232692350000015679747629515459460_);}
	.st14{fill-rule:evenodd;clip-rule:evenodd;fill:#1AD4B3;}
	.st15{fill-rule:evenodd;clip-rule:evenodd;fill:#FC4F83;}
	.st16{fill:#4A5479;stroke:#000000;stroke-linecap:round;stroke-linejoin:round;stroke-miterlimit:10;}
	
		.st17{fill:url(#SVGID_00000032635857602753038320000007264148710483766973_);stroke:#1D1D1B;stroke-width:0.2115;stroke-linecap:round;stroke-linejoin:round;stroke-miterlimit:10;}
	.st18{fill-rule:evenodd;clip-rule:evenodd;}
	
		.st19{fill:url(#SVGID_00000177481715915358662340000004034824946850377125_);stroke:#1D1D1B;stroke-width:0.2115;stroke-linecap:round;stroke-linejoin:round;stroke-miterlimit:10;}
	
		.st20{fill:url(#SVGID_00000075884759889440676060000007989408724371476149_);stroke:#1D1D1B;stroke-width:0.2115;stroke-linecap:round;stroke-linejoin:round;stroke-miterlimit:10;}
	
		.st21{fill:url(#SVGID_00000025401104590602631490000010538259406281827460_);stroke:#1D1D1B;stroke-width:0.2115;stroke-linecap:round;stroke-linejoin:round;stroke-miterlimit:10;}
	.st22{fill-rule:evenodd;clip-rule:evenodd;fill:url(#SVGID_00000033330263208707036770000003494257849656571049_);}
	.st23{fill-rule:evenodd;clip-rule:evenodd;fill:url(#SVGID_00000072251316086568277370000011140877411185301934_);}
	.st24{fill:url(#SVGID_00000158732339876458693650000006660892982752351421_);}
	.st25{fill:url(#SVGID_00000047054127160100453290000016051658062716123050_);}
	.st26{fill:url(#SVGID_00000041268882306461422870000013037035918707197830_);}
	
		.st27{fill-rule:evenodd;clip-rule:evenodd;fill:#4AA089;stroke:url(#SVGID_00000163756834678866962040000016152790847369249464_);stroke-linecap:round;stroke-linejoin:round;stroke-miterlimit:10;}
	
		.st28{fill-rule:evenodd;clip-rule:evenodd;fill:#4AA089;stroke:url(#SVGID_00000167373834185527567010000013199348660760252552_);stroke-linecap:round;stroke-linejoin:round;stroke-miterlimit:10;}
	
		.st29{fill:none;stroke:url(#SVGID_00000054949032099668737190000014540552387737947320_);stroke-width:5;stroke-linecap:round;stroke-linejoin:round;stroke-miterlimit:10;}
	.st30{fill:url(#SVGID_00000108269378845517428880000005923346854157972369_);}
	
		.st31{fill:none;stroke:url(#SVGID_00000176006777425653236930000011542853182109043128_);stroke-width:5;stroke-linecap:round;stroke-linejoin:round;stroke-miterlimit:10;}
	.st32{fill:url(#SVGID_00000047048350328779449190000011308940458818178221_);}
	
		.st33{fill:none;stroke:url(#SVGID_00000139973538206091196150000016344523466014322574_);stroke-width:5;stroke-linecap:round;stroke-linejoin:round;stroke-miterlimit:10;}
	.st34{fill:url(#SVGID_00000173151241424432199730000008019273336313470655_);}
	.st35{fill:#4A5479;}
	
		.st36{fill-rule:evenodd;clip-rule:evenodd;fill:#1AD4B3;stroke:#111422;stroke-linecap:round;stroke-linejoin:round;stroke-miterlimit:10;}
	
		.st37{fill-rule:evenodd;clip-rule:evenodd;fill:#4AA089;stroke:url(#SVGID_00000155850928282510264430000007566687043950819459_);stroke-linecap:round;stroke-linejoin:round;stroke-miterlimit:10;}
	.st38{fill:#FFFFFF;}
	
		.st39{fill-rule:evenodd;clip-rule:evenodd;fill:#FC4F83;stroke:#111422;stroke-linecap:round;stroke-linejoin:round;stroke-miterlimit:10;}
	
		.st40{fill-rule:evenodd;clip-rule:evenodd;fill:#CB3D61;stroke:#000000;stroke-linecap:round;stroke-linejoin:round;stroke-miterlimit:10;}
	.st41{fill:url(#SVGID_00000118363532305071838550000013709921176140790202_);}
	.st42{fill:url(#SVGID_00000122720741878725089450000002534009838856186000_);}
	.st43{fill:url(#SVGID_00000028287579635216206800000011824572779452879241_);}
	
		.st44{fill:none;stroke:url(#SVGID_00000183944470659401287520000016096163439311732888_);stroke-width:5;stroke-linecap:round;stroke-linejoin:round;stroke-miterlimit:10;}
	.st45{fill:url(#SVGID_00000036952380407671025790000012859942183790838661_);}
	
		.st46{fill:none;stroke:url(#SVGID_00000088850209972994069160000007137664116813176739_);stroke-width:5;stroke-linecap:round;stroke-linejoin:round;stroke-miterlimit:10;}
	.st47{fill:url(#SVGID_00000165205734868384909350000001350265948245112980_);}
	.st48{fill:url(#SVGID_00000002380463028378239290000013996761188763364260_);}
	.st49{fill:#222846;}
	.st50{fill:url(#SVGID_00000167375777761121734730000003075839523970175379_);}
	.st51{fill:url(#SVGID_00000153698805828874641250000013928512986140248739_);}
	.st52{fill:url(#SVGID_00000170994174202295430860000011752989159188734592_);}
	.st53{fill:url(#SVGID_00000139264005436334395830000013204618268422294929_);}
	.st54{fill:url(#SVGID_00000125586059862601696890000009141166061945225892_);}
	.st55{fill:url(#SVGID_00000011010354578376865860000015987195153998770095_);}
	.st56{fill-rule:evenodd;clip-rule:evenodd;fill:#6D75A2;}
	.st57{fill-rule:evenodd;clip-rule:evenodd;fill:#4A5479;}
	.st58{opacity:0.29;fill:url(#SVGID_00000002354371819555408310000011928810458742197673_);enable-background:new    ;}
	.st59{fill:url(#SVGID_00000001623935638939373210000002536947777850765974_);}
	.st60{fill:url(#SVGID_00000148657493180521298880000006657313210184123294_);}
	.st61{fill:url(#SVGID_00000124867686718054406770000016341855476052166023_);}
	.st62{fill-rule:evenodd;clip-rule:evenodd;fill:url(#SVGID_00000144330690016286261810000004523983705435637436_);}
	.st63{fill:url(#SVGID_00000069363585559156810330000018390126992328606389_);}
	.st64{fill:url(#SVGID_00000008119129386611296200000004834540040787638171_);}
	.st65{fill:url(#SVGID_00000075156632324189864640000001444423178800159166_);}
	.st66{fill:url(#SVGID_00000165942080451016388110000013631022909970215838_);}
	.st67{opacity:0.29;fill:url(#SVGID_00000135686581320084985270000012319634307425376163_);enable-background:new    ;}
	.st68{fill-rule:evenodd;clip-rule:evenodd;fill:#222846;}
	
		.st69{fill:none;stroke:url(#SVGID_00000045603991412757881310000016257812030971202447_);stroke-width:5;stroke-linecap:round;stroke-linejoin:round;stroke-miterlimit:10;}
	.st70{fill:url(#SVGID_00000094613382434857855330000010860458383026563257_);}
	
		.st71{fill:none;stroke:url(#SVGID_00000162326289276116225460000004864577734478196144_);stroke-width:5;stroke-linecap:round;stroke-linejoin:round;stroke-miterlimit:10;}
	.st72{fill:url(#SVGID_00000122707077896939727790000013449490473173443717_);}
	
		.st73{fill:none;stroke:url(#SVGID_00000137831832249497688240000013765216612191719332_);stroke-width:5;stroke-linecap:round;stroke-linejoin:round;stroke-miterlimit:10;}
	.st74{fill:url(#SVGID_00000109008121399906604150000005795370203195144868_);}
	
		.st75{fill-rule:evenodd;clip-rule:evenodd;fill:#4AA089;stroke:url(#SVGID_00000042003182698237590150000010248496591177224331_);stroke-linecap:round;stroke-linejoin:round;stroke-miterlimit:10;}
	.st76{fill-rule:evenodd;clip-rule:evenodd;fill:url(#SVGID_00000117649122907304785810000008054632219360607410_);}
	.st77{fill:url(#SVGID_00000125566193904359426410000008196952376341013684_);}
	.st78{fill:url(#SVGID_00000127731746315748933270000014301035573145604526_);}
	.st79{fill:url(#SVGID_00000163753775703847833070000004351167426827533214_);}
	.st80{opacity:0.29;fill:url(#SVGID_00000031899258245453751410000012504355569445217969_);}
	.st81{opacity:0.29;fill:url(#SVGID_00000072961752316542300180000001698438091634376893_);}
	.st82{opacity:0.2563;fill-rule:evenodd;clip-rule:evenodd;fill:#FFFFFF;enable-background:new    ;}
	.st83{opacity:0.67;fill:url(#SVGID_00000067218579669585272060000014212417427792766118_);}
	.st84{fill:#3FA9BD;}
	.st85{fill:url(#SVGID_00000134223557850565915480000006109659893434590902_);}
	.st86{fill-rule:evenodd;clip-rule:evenodd;fill:#555069;}
	.st87{fill-rule:evenodd;clip-rule:evenodd;fill:#FFFFFF;}
	.st88{fill-rule:evenodd;clip-rule:evenodd;fill:#AFAFB1;}
	.st89{fill-rule:evenodd;clip-rule:evenodd;fill:#D3D3D3;}
	.st90{opacity:0.67;fill:url(#SVGID_00000025401624449437562370000008264337780455862194_);}
	.st91{fill:url(#SVGID_00000035523248263806025150000005844506524802204084_);}
	.st92{opacity:0.67;fill:url(#SVGID_00000075865156620911775780000012211587475636926875_);}
	.st93{fill:url(#SVGID_00000036948276348406075190000010866053259557406642_);}
	.st94{opacity:0.67;fill:url(#SVGID_00000145019374848235501090000009230032313509061041_);}
	.st95{fill:url(#SVGID_00000000196732491145480530000006925740257754210194_);}
	.st96{opacity:0.67;fill:url(#SVGID_00000134943532720219213100000016312473250149398156_);}
	.st97{fill:url(#SVGID_00000085246264229453962330000011296955128686452631_);}
	.st98{opacity:0.67;fill:url(#SVGID_00000139261469190132015250000014973407167189049991_);}
	.st99{fill:url(#SVGID_00000134943470715091847850000009170574383720254627_);}
	.st100{fill:#1AD4B3;}
	.st101{opacity:0.67;fill:url(#SVGID_00000102529867399147397850000000728840115980217008_);}
	.st102{fill:url(#SVGID_00000055695763506563088410000009044507502910656936_);}
	.st103{opacity:0.67;fill:url(#SVGID_00000085238315429275198060000011066923677467984811_);}
	.st104{fill:url(#SVGID_00000037657290621976894970000002440877165806629265_);}
	.st105{opacity:0.67;fill:url(#SVGID_00000008149723984607512360000008096281785278815373_);}
	.st106{fill:url(#SVGID_00000083070140548406565160000010154992320201851548_);}
	.st107{opacity:0.67;fill:url(#SVGID_00000109026445222384791020000000513778651473012927_);}
	.st108{fill:url(#SVGID_00000092432313421966498720000005905237981929263789_);}
	.st109{opacity:0.67;fill:url(#SVGID_00000147900504661820225600000011095431433921292170_);}
	.st110{fill:url(#SVGID_00000111888016493508732220000009331938242912335033_);}
	.st111{opacity:0.67;fill:url(#SVGID_00000150822157203196728220000010276166213118393021_);}
	.st112{fill:url(#SVGID_00000072972841905070568590000005843734846910301102_);}
	
		.st113{fill-rule:evenodd;clip-rule:evenodd;fill:none;stroke:#FFFFFF;stroke-width:0.7384;stroke-linecap:round;stroke-linejoin:round;stroke-miterlimit:10;}
	.st114{opacity:0.67;fill:url(#SVGID_00000074417200481653015260000008358855016134231467_);}
	.st115{fill:url(#SVGID_00000011723954062702652710000009610859720085870231_);}
	.st116{opacity:0.67;fill:url(#SVGID_00000035515144863317814170000003764989847830611118_);}
	.st117{fill:url(#SVGID_00000053527456046970741680000008348740779935425693_);}
	.st118{opacity:0.67;fill:url(#SVGID_00000152245591762512725730000005056135080814586280_);}
	.st119{fill:url(#SVGID_00000014606080067860330930000013849828216992988034_);}
	.st120{opacity:0.67;fill:url(#SVGID_00000117639683284395060970000014137013292639340174_);}
	.st121{fill:url(#SVGID_00000011713847290594266710000001204231885699793551_);}
	.st122{opacity:0.67;fill:url(#SVGID_00000008837872531036224970000014184471691992407697_);}
	.st123{fill:url(#SVGID_00000037669270597756155890000005368814149051252105_);}
	.st124{opacity:0.67;fill:url(#SVGID_00000021103095114733645300000001213382147963743378_);}
	.st125{fill:url(#SVGID_00000048462723558867034630000013647066545718994821_);}
	.st126{opacity:0.67;fill:url(#SVGID_00000021120965389364572620000012842320331139909529_);}
	.st127{fill:url(#SVGID_00000017504626539928754810000009377979197595149998_);}
	.st128{opacity:0.67;fill:url(#SVGID_00000106835826731871252000000009232004643695497092_);}
	.st129{fill:url(#SVGID_00000136372334169167275080000017687224881036737444_);}
	.st130{opacity:0.67;fill:url(#SVGID_00000041987099096729888060000007470021564463559062_);enable-background:new    ;}
	.st131{fill:#5EA6B9;}
	.st132{fill:url(#SVGID_00000041991885871517356200000005773897674519976342_);}
	.st133{fill-rule:evenodd;clip-rule:evenodd;fill:#545067;}
	.st134{fill-rule:evenodd;clip-rule:evenodd;fill:#AEAEB0;}
	.st135{fill-rule:evenodd;clip-rule:evenodd;fill:#D2D2D2;}
	.st136{opacity:0.67;fill:url(#SVGID_00000114777246600369036790000002146070691140196753_);enable-background:new    ;}
	.st137{fill:url(#SVGID_00000170969285288482976190000003779694517055568540_);}
	.st138{fill-rule:evenodd;clip-rule:evenodd;fill:#63D0B3;}
	
		.st139{fill-rule:evenodd;clip-rule:evenodd;fill:none;stroke:#000000;stroke-linecap:round;stroke-linejoin:round;stroke-miterlimit:10;}
	.st140{fill-rule:evenodd;clip-rule:evenodd;fill:#E85C83;}
	
		.st141{fill-rule:evenodd;clip-rule:evenodd;fill:#4AA089;stroke:url(#SVGID_00000119111563393579842200000002442599155831266464_);stroke-linecap:round;stroke-linejoin:round;stroke-miterlimit:10;}
	.st142{fill:#5DC29D;}
	.st143{fill:url(#SVGID_00000078022730093293687140000003408251909728334783_);}
	.st144{fill:url(#SVGID_00000165913562342679522530000009411716610053721007_);}
	.st145{fill:#E85C83;}
	.st146{opacity:0.67;fill:url(#SVGID_00000136373549684973673240000014190583636553779366_);enable-background:new    ;}
	.st147{fill:url(#SVGID_00000143591126659124955180000014653926215402630066_);}
	
		.st148{fill:none;stroke:url(#SVGID_00000173125576249044376740000007288426950014295453_);stroke-width:5;stroke-linecap:round;stroke-linejoin:round;stroke-miterlimit:10;}
	.st149{fill:url(#SVGID_00000023959256354571442680000009650865520191828136_);}
	.st150{opacity:0.67;fill:url(#SVGID_00000031923945416825376540000011820697014085399459_);enable-background:new    ;}
	.st151{fill:url(#SVGID_00000142877072697739029390000003493149189252255882_);}
	.st152{opacity:0.67;fill:url(#SVGID_00000049900425402379205910000002630649705501931917_);}
	.st153{fill:url(#SVGID_00000015357249824427914670000008996479663614995116_);}
	.st154{opacity:0.67;fill:url(#SVGID_00000030481691224442853730000009722086014019369141_);}
	.st155{fill:url(#SVGID_00000067207249289045672970000017949328476456818845_);}
	.st156{opacity:0.67;fill:url(#SVGID_00000062905797722302576760000009077172685557528476_);}
	.st157{fill:url(#SVGID_00000093141335298764573090000008924642148039866789_);}
	.st158{opacity:0.67;fill:url(#SVGID_00000063598645270544261390000007966851051416712579_);}
	.st159{fill:url(#SVGID_00000005947838354543730540000015234910987102290075_);}
	.st160{opacity:0.67;fill:url(#SVGID_00000152960915980271391570000016642868918625856414_);}
	.st161{fill:url(#SVGID_00000085234207681907442300000001428119907962966929_);}
	.st162{fill:none;stroke:#000000;stroke-width:22;stroke-linecap:round;stroke-linejoin:round;stroke-miterlimit:10;}
	.st163{fill:url(#SVGID_00000101802695533819890360000000222390136269156267_);}
	.st164{fill:url(#SVGID_00000009572500434366640080000012083629979227013054_);}
	.st165{fill:none;stroke:url(#SVGID_00000064351708433754253980000003799197088951538339_);stroke-width:5;stroke-miterlimit:10;}
	.st166{fill:url(#SVGID_00000119824709457458487090000017596084290042700437_);}
	.st167{fill:none;}
	.st168{opacity:0.67;fill:url(#SVGID_00000147919091299254847020000003964061444201829566_);}
	.st169{fill:url(#SVGID_00000088849443455441504250000017195516784938729904_);}
	.st170{fill:none;stroke:url(#SVGID_00000146461051080659892790000006495815217366598308_);stroke-width:5;stroke-miterlimit:10;}
	.st171{fill:url(#SVGID_00000098222752848814889820000000683752845429819037_);}
	.st172{opacity:0.67;fill:url(#SVGID_00000085947449119479738790000018253736284990393483_);}
	.st173{fill:url(#SVGID_00000078039989921094186440000003151913518425715863_);}
	.st174{opacity:0.67;fill:url(#SVGID_00000167356831340920965770000016957397308753411239_);}
	.st175{fill:url(#SVGID_00000168802102718621266210000006602339288997361850_);}
	.st176{opacity:0.67;fill:url(#SVGID_00000173143980064153223440000018257637543623338136_);}
	.st177{fill:url(#SVGID_00000150816616632057577500000013046913321021781909_);}
</style>
<g>
	<path id="矩形_00000045586298416418000230000017370680493783490717_" class="st82" d="M84.03,114.85L84.03,114.85
		c0.62,0,1.15,0.76,1.15,1.64V118c0,0.88-0.53,1.64-1.15,1.64l0,0c-0.62,0-1.15-0.76-1.15-1.64v-1.52
		C82.89,115.54,83.42,114.85,84.03,114.85z"/>
	
		<radialGradient id="SVGID_1_" cx="52.4923" cy="148.9734" r="29.1582" gradientTransform="matrix(1 0 0 0.5898 0 61.1099)" gradientUnits="userSpaceOnUse">
		<stop  offset="0" style="stop-color:#06070C"/>
		<stop  offset="1" style="stop-color:#0D101D;stop-opacity:0"/>
	</radialGradient>
	<path style="opacity:0.67;fill:url(#SVGID_1_);" d="M77.49,134.9c-13.68-7.9-35.96-8-49.77-0.23
		c-13.81,7.77-13.91,20.48-0.23,28.37s35.96,8,49.77,0.23C91.07,155.5,91.17,142.8,77.49,134.9z"/>
	<g>
		<path class="st84" d="M91,98.87V49.59c0-0.23,0.02-0.45,0.02-0.68C91.01,26,72.44,7.43,49.53,7.43C26.62,7.43,8.05,26,8.05,48.91
			c0,0.36,0.02,0.72,0.03,1.07v44.66H8.05v22.67c0,2.84,2.3,5.15,5.15,5.15s5.15-2.31,5.15-5.15v-0.83
			c0.56,0.36,1.13,0.72,1.74,1.07c1.83,1.06,3.79,1.99,5.85,2.81v8.2c0,2.84,2.3,5.15,5.15,5.15s5.15-2.31,5.15-5.15v-5.23
			c2.95,0.57,5.99,0.96,9.06,1.14v12.59c0,2.84,2.3,5.15,5.15,5.15c2.84,0,5.15-2.31,5.15-5.15v-12.7c3.39-0.28,6.73-0.8,9.93-1.55
			v6.36c0,2.84,2.3,5.15,5.15,5.15s5.15-2.31,5.15-5.15v-9.87c1-0.47,1.97-0.96,2.91-1.49c0.7-0.39,1.35-0.8,1.99-1.21v0.71
			c0,2.84,2.3,5.15,5.15,5.15s5.15-2.31,5.15-5.15V98.87H91z"/>
		
			<radialGradient id="SVGID_00000096048768776280882040000010096541441485597355_" cx="74.215" cy="24.8528" r="106.6854" gradientUnits="userSpaceOnUse">
			<stop  offset="0.0124" style="stop-color:#DD78CE"/>
			<stop  offset="0.4936" style="stop-color:#A7589A"/>
			<stop  offset="0.5829" style="stop-color:#A0619E"/>
			<stop  offset="0.7273" style="stop-color:#8E79A8"/>
			<stop  offset="0.9078" style="stop-color:#709FB9"/>
			<stop  offset="1" style="stop-color:#5EB6C3"/>
		</radialGradient>
		<path style="fill:url(#SVGID_00000096048768776280882040000010096541441485597355_);" d="M91,98.87V49.59
			c0-0.23,0.02-0.45,0.02-0.68C91.01,26,72.44,7.43,49.53,7.43C26.62,7.43,8.05,26,8.05,48.91c0,0.36,0.02,0.72,0.03,1.07v44.66
			H8.05v22.67c0,2.84,2.3,5.15,5.15,5.15s5.15-2.31,5.15-5.15v-0.83c0.56,0.36,1.13,0.72,1.74,1.07c1.83,1.06,3.79,1.99,5.85,2.81
			v8.2c0,2.84,2.3,5.15,5.15,5.15s5.15-2.31,5.15-5.15v-5.23c2.95,0.57,5.99,0.96,9.06,1.14v12.59c0,2.84,2.3,5.15,5.15,5.15
			c2.84,0,5.15-2.31,5.15-5.15v-12.7c3.39-0.28,6.73-0.8,9.93-1.55v6.36c0,2.84,2.3,5.15,5.15,5.15s5.15-2.31,5.15-5.15v-9.87
			c1-0.47,1.97-0.96,2.91-1.49c0.7-0.39,1.35-0.8,1.99-1.21v0.71c0,2.84,2.3,5.15,5.15,5.15s5.15-2.31,5.15-5.15V98.87H91z"/>
	</g>
	<path id="矩形_00000077291345030413022200000003670065480741901729_" class="st82" d="M11.94,85.03L11.94,85.03
		c1.12,0,2.09,1.38,2.09,2.99v14.25c0,1.61-0.96,2.99-2.09,2.99l0,0c-1.12,0-2.09-1.38-2.09-2.99V88.02
		C9.86,86.41,10.82,85.03,11.94,85.03z"/>
	<path id="矩形_00000074414893837899514210000013743640106675316138_" class="st82" d="M73.24,21.94L73.24,21.94
		c1.37-1.02,3.68-0.37,5.02,1.41l2.29,3.06c1.34,1.78,1.31,4.19-0.06,5.22l0,0c-1.37,1.02-3.68,0.37-5.02-1.41l-2.29-3.06
		C71.75,25.24,71.88,22.96,73.24,21.94z"/>
	<path id="矩形_00000023991752765033559500000016878784520167595906_" class="st82" d="M29.34,121.62L29.34,121.62
		c1.12,0,2.09,1.38,2.09,2.99v2.76c0,1.61-0.96,2.99-2.09,2.99l0,0c-1.12,0-2.09-1.38-2.09-2.99v-2.76
		C27.25,122.88,28.22,121.62,29.34,121.62z"/>
	<path id="矩形_00000036234826351995171350000014783520297306748325_" class="st82" d="M11.94,110.91L11.94,110.91
		c1.12,0,2.09,1.38,2.09,2.99v2.76c0,1.61-0.96,2.99-2.09,2.99l0,0c-1.12,0-2.09-1.38-2.09-2.99v-2.76
		C9.86,112.17,10.82,110.91,11.94,110.91z"/>
	<path id="矩形_00000032632707419733317290000000013315064263611071_" class="st82" d="M49.53,130.36L49.53,130.36
		c1.12,0,2.09,1.38,2.09,2.99v2.76c0,1.61-0.96,2.99-2.09,2.99l0,0c-1.12,0-2.09-1.38-2.09-2.99v-2.76
		C47.44,131.62,48.41,130.36,49.53,130.36z"/>
	<path id="矩形_00000146492750180661712700000012320554428455487410_" class="st82" d="M69.23,125.01L69.23,125.01
		c0.89,0,1.66,1.1,1.66,2.37v2.19c0,1.28-0.76,2.37-1.66,2.37l0,0c-0.89,0-1.66-1.1-1.66-2.37v-2.19
		C67.58,126.02,68.34,125.01,69.23,125.01z"/>
	<g>
		<path id="椭圆形_00000073701578692889780240000014145872759484144558_" class="st86" d="M61.4,71.4c4.06-0.17,7.1-3.66,7.09-6
			c0-0.94-0.55-1.75-1.38-1.81c-1.29-0.13-3.23,0.7-5.72,0.8c-2.31,0.1-3.78-0.5-5.53-0.42c-1.84,0.08-1.75,2.22-1.47,3.06
			C55.04,69.32,57.25,71.57,61.4,71.4z"/>
		<path id="椭圆形_00000124127355450496845530000007075517129516056214_" class="st87" d="M61.49,69.43
			c4.15-0.17,7.19-3.38,7.19-5.63c0-0.84-0.55-1.57-1.38-1.63c-1.29-0.13-3.32,0.7-5.81,0.8c-2.4,0.1-3.78-0.5-5.62-0.43
			s-1.75,2.13-1.48,2.87C55.04,67.54,57.34,69.6,61.49,69.43z"/>
	</g>
	<g>
		
			<ellipse transform="matrix(0.5671 -0.8237 0.8237 0.5671 -20.2303 57.3687)" class="st87" cx="44.46" cy="47.93" rx="9.5" ry="9.1"/>
		<path id="形状结合_00000070822868806202561940000004709966493312669365_" class="st88" d="M45.65,37.96
			c4.24-0.18,7.66,3.98,7.66,9.22c0,0.19,0,0.37,0,0.56l0,0.56c0-5.33-3.33-9.59-7.48-9.42c-4.15,0.17-7.46,4.61-7.46,10.04
			c0,1.03,0.09,2.05,0.37,2.98c-0.46-1.2-0.74-2.59-0.74-3.99C38.01,42.58,41.41,38.14,45.65,37.96z"/>
		<path id="形状结合_00000072256896100133805620000015312286573304522628_" class="st89" d="M45.65,36.84
			c4.7-0.2,8.58,4.41,8.58,10.31s-3.86,10.83-8.57,11.02c-4.7,0.2-8.58-4.41-8.58-10.31S40.86,37.04,45.65,36.84z M45.65,37.96
			c-4.24,0.18-7.65,4.62-7.64,9.86c0,5.24,3.42,9.4,7.66,9.22s7.65-4.62,7.64-9.86C53.31,41.95,49.8,37.79,45.65,37.96z"/>
	</g>
	<g>
		<ellipse transform="matrix(0.5671 -0.8237 0.8237 0.5671 -5.795 82.072)" class="st87" cx="75.17" cy="46.55" rx="9.5" ry="9.1"/>
		<path id="形状结合_00000079452856215568307050000012959924172823592081_" class="st88" d="M76.17,36.59
			c4.24-0.18,7.66,3.98,7.66,9.22c0,0.19,0,0.37,0,0.56l0,0.56c0-5.33-3.33-9.59-7.48-9.42c-4.15,0.17-7.46,4.61-7.46,10.04
			c0,1.03,0.09,2.05,0.37,2.98c-0.46-1.2-0.74-2.59-0.74-3.99C68.52,41.21,71.93,36.77,76.17,36.59z"/>
		<path id="形状结合_00000121270597695896635990000004707824152319065995_" class="st89" d="M76.17,35.47
			c4.7-0.2,8.58,4.41,8.58,10.31S80.89,56.6,76.19,56.8c-4.7,0.2-8.58-4.41-8.58-10.31S71.37,35.67,76.17,35.47z M76.17,36.59
			c-4.24,0.18-7.65,4.62-7.64,9.86c0,5.24,3.42,9.4,7.66,9.22c4.24-0.18,7.65-4.62,7.64-9.86C83.82,40.58,80.32,36.42,76.17,36.59z"
			/>
	</g>
	<circle class="st86" cx="49.43" cy="45.79" r="3.77"/>
	<circle class="st86" cx="79.97" cy="44.66" r="3.77"/>
</g>
</svg>
