<?xml version="1.0" encoding="utf-8"?>
<!-- Generator: Adobe Illustrator 27.8.1, SVG Export Plug-In . SVG Version: 6.00 Build 0)  -->
<svg version="1.1" id="Слой_1" xmlns="http://www.w3.org/2000/svg" xmlns:xlink="http://www.w3.org/1999/xlink" x="0px" y="0px"
	 viewBox="0 0 290 269.62" style="enable-background:new 0 0 290 269.62;" xml:space="preserve">
<style type="text/css">
	.st0{fill:#101422;}
	.st1{fill:#FFFFFF;stroke:#111422;stroke-linecap:round;stroke-linejoin:round;stroke-miterlimit:10;}
	
		.st2{fill-rule:evenodd;clip-rule:evenodd;fill:#C6C3D1;stroke:#101320;stroke-linecap:round;stroke-linejoin:round;stroke-miterlimit:10;}
	
		.st3{fill-rule:evenodd;clip-rule:evenodd;fill:#FFFFFF;stroke:#111422;stroke-linecap:round;stroke-linejoin:round;stroke-miterlimit:10;}
	
		.st4{fill-rule:evenodd;clip-rule:evenodd;fill:#ECF0FC;stroke:#111422;stroke-linecap:round;stroke-linejoin:round;stroke-miterlimit:10;}
	.st5{opacity:0.92;fill-rule:evenodd;clip-rule:evenodd;fill:#FFFFFF;enable-background:new    ;}
	.st6{fill:none;stroke:#FFFFFF;stroke-linecap:round;stroke-linejoin:round;stroke-miterlimit:10;}
	.st7{fill-rule:evenodd;clip-rule:evenodd;fill:#101422;}
	.st8{fill:url(#SVGID_1_);}
	.st9{fill:url(#SVGID_00000038401294752001312320000007241957893017194368_);}
	.st10{fill:url(#SVGID_00000021109051216813908960000018081638025741794202_);}
	.st11{opacity:0.67;fill:url(#SVGID_00000014596507218820294910000002583643749180963729_);enable-background:new    ;}
	.st12{fill:#6FA3B6;}
	.st13{fill:url(#SVGID_00000096022268894410929310000008875211588230005173_);}
	.st14{opacity:0.2563;fill-rule:evenodd;clip-rule:evenodd;fill:#FFFFFF;enable-background:new    ;}
	.st15{fill:none;stroke:#FFFFFF;stroke-width:0.7384;stroke-linecap:round;stroke-linejoin:round;stroke-miterlimit:10;}
	
		.st16{fill:none;stroke:url(#SVGID_00000098207358957339915790000017225611669133689745_);stroke-width:5;stroke-linecap:round;stroke-linejoin:round;stroke-miterlimit:10;}
	.st17{fill:url(#SVGID_00000023279613181563940070000003283794804011036310_);}
	.st18{fill-rule:evenodd;clip-rule:evenodd;fill:#1AD4B3;}
	.st19{fill-rule:evenodd;clip-rule:evenodd;fill:#FC4F83;}
	.st20{fill:#C6C3D1;stroke:#101320;stroke-linecap:round;stroke-linejoin:round;stroke-miterlimit:10;}
	.st21{fill:#ECF0FC;stroke:#111422;stroke-linecap:round;stroke-linejoin:round;stroke-miterlimit:10;}
	
		.st22{fill:url(#SVGID_00000152237422294826175000000008284050538497999030_);stroke:#1D1D1B;stroke-width:0.2115;stroke-linecap:round;stroke-linejoin:round;stroke-miterlimit:10;}
	
		.st23{fill:url(#SVGID_00000137820877898682812400000008043833959618173856_);stroke:#1D1D1B;stroke-width:0.2115;stroke-linecap:round;stroke-linejoin:round;stroke-miterlimit:10;}
	
		.st24{fill:url(#SVGID_00000061471981210765903430000008671897572301729686_);stroke:#1D1D1B;stroke-width:0.2115;stroke-linecap:round;stroke-linejoin:round;stroke-miterlimit:10;}
	
		.st25{fill:url(#SVGID_00000156552284391624672200000013535834776251640713_);stroke:#1D1D1B;stroke-width:0.2115;stroke-linecap:round;stroke-linejoin:round;stroke-miterlimit:10;}
	
		.st26{fill-rule:evenodd;clip-rule:evenodd;fill:#101422;stroke:#101423;stroke-linecap:round;stroke-linejoin:round;stroke-miterlimit:10;}
	.st27{fill:#FFFFFF;}
	.st28{fill-rule:evenodd;clip-rule:evenodd;fill:url(#SVGID_00000036236902594653731710000012133334747331762330_);}
	.st29{fill-rule:evenodd;clip-rule:evenodd;fill:url(#SVGID_00000007406217298610104650000008168832193269578170_);}
	.st30{fill:url(#SVGID_00000072974584357123961610000010845845379385160104_);}
	.st31{fill:url(#SVGID_00000108289001211545646280000017499592406282603700_);}
	.st32{fill:url(#SVGID_00000017495251068292733000000005444902831588088230_);}
	
		.st33{fill-rule:evenodd;clip-rule:evenodd;fill:#C7FFF1;stroke:#101320;stroke-linecap:round;stroke-linejoin:round;stroke-miterlimit:10;}
	
		.st34{fill:none;stroke:url(#SVGID_00000081620651915419034830000003102293530429084325_);stroke-width:5;stroke-linecap:round;stroke-linejoin:round;stroke-miterlimit:10;}
	.st35{fill:url(#SVGID_00000147926189388331837130000011271661224572467860_);}
	
		.st36{fill:none;stroke:url(#SVGID_00000144299466132843660230000001598037622582056105_);stroke-width:5;stroke-linecap:round;stroke-linejoin:round;stroke-miterlimit:10;}
	.st37{fill:url(#SVGID_00000151525525250272116860000011230306768883328129_);}
	
		.st38{fill:none;stroke:url(#SVGID_00000009563169341851097390000013437415751471463608_);stroke-width:5;stroke-linecap:round;stroke-linejoin:round;stroke-miterlimit:10;}
	.st39{fill:url(#SVGID_00000010269648184526810570000017189886585474230188_);}
	
		.st40{fill-rule:evenodd;clip-rule:evenodd;fill:#1AD4B3;stroke:#111422;stroke-linecap:round;stroke-linejoin:round;stroke-miterlimit:10;}
	
		.st41{fill-rule:evenodd;clip-rule:evenodd;fill:#FC4F83;stroke:#111422;stroke-linecap:round;stroke-linejoin:round;stroke-miterlimit:10;}
	
		.st42{fill-rule:evenodd;clip-rule:evenodd;fill:#FFCAD7;stroke:#111422;stroke-linecap:round;stroke-linejoin:round;stroke-miterlimit:10;}
	.st43{fill:url(#SVGID_00000166652555802112867780000017787937259253056408_);}
	.st44{fill:url(#SVGID_00000084511924448475858060000003890376876457410975_);}
	.st45{fill:url(#SVGID_00000022553085038964721930000000258623096260908207_);}
	
		.st46{fill:none;stroke:url(#SVGID_00000183941282568505980830000008667832302118519945_);stroke-width:5;stroke-linecap:round;stroke-linejoin:round;stroke-miterlimit:10;}
	.st47{fill:url(#SVGID_00000083065170589116045870000003507479545601734799_);}
	
		.st48{fill:none;stroke:url(#SVGID_00000021078531769284803160000008836416207027666568_);stroke-width:5;stroke-linecap:round;stroke-linejoin:round;stroke-miterlimit:10;}
	.st49{fill:url(#SVGID_00000088840776298379615080000012619751882734786191_);}
	.st50{fill:url(#SVGID_00000060749315883455634450000012581316003882391993_);}
	.st51{fill:#101320;}
	.st52{fill:url(#SVGID_00000173840927297006546120000010865809016795263109_);}
	.st53{fill:url(#SVGID_00000041288671762040234650000016099828824831285931_);}
	.st54{fill:url(#SVGID_00000133500441296360000300000005125775150252546237_);}
	.st55{fill:url(#SVGID_00000029034437697520010880000013012646569309865650_);}
	.st56{fill:url(#SVGID_00000116928348138726074830000001935019345642376107_);}
	.st57{fill:url(#SVGID_00000124120866460176147340000007684471743409173394_);}
	.st58{opacity:0.29;fill:url(#SVGID_00000119096889296838852220000004025596905384549021_);enable-background:new    ;}
	.st59{fill:url(#SVGID_00000125567952942690475560000012560150098961917856_);}
	.st60{fill:url(#SVGID_00000156560362020766005340000001384489322130386577_);}
	.st61{fill:url(#SVGID_00000047753103662841693480000017155817546169744794_);}
	.st62{fill-rule:evenodd;clip-rule:evenodd;fill:url(#SVGID_00000124160690363050702770000012057904428519407276_);}
	.st63{fill:url(#SVGID_00000145776643383690949450000009582208294141381775_);}
	.st64{fill:url(#SVGID_00000086659642232621490410000010266277247132600498_);}
	.st65{fill:url(#SVGID_00000036966222076871808130000006234622265485496448_);}
	.st66{fill:url(#SVGID_00000048460386159707144760000011250510027140815490_);}
	.st67{opacity:0.29;fill:url(#SVGID_00000090266599327856580160000007536524984785798038_);enable-background:new    ;}
	
		.st68{fill:none;stroke:url(#SVGID_00000156579542309151510720000015233829477568235189_);stroke-width:5;stroke-linecap:round;stroke-linejoin:round;stroke-miterlimit:10;}
	.st69{fill:url(#SVGID_00000055708721837226475440000007976948276021649077_);}
	
		.st70{fill:none;stroke:url(#SVGID_00000049210932551796181050000004984553535981200770_);stroke-width:5;stroke-linecap:round;stroke-linejoin:round;stroke-miterlimit:10;}
	.st71{fill:url(#SVGID_00000065035550564826526120000002357960233320874420_);}
	
		.st72{fill:none;stroke:url(#SVGID_00000099645991250965809960000001979582581557281931_);stroke-width:5;stroke-linecap:round;stroke-linejoin:round;stroke-miterlimit:10;}
	.st73{fill:url(#SVGID_00000021822511485183568830000006567929253575463063_);}
	.st74{fill-rule:evenodd;clip-rule:evenodd;fill:url(#SVGID_00000018231103680860867090000014047937259035410049_);}
	.st75{fill:url(#SVGID_00000032640418355894951790000009100268194982072461_);}
	.st76{fill:url(#SVGID_00000027585725338721399000000006524857971074396339_);}
	.st77{fill:url(#SVGID_00000006682547661113680250000013297768007729515156_);}
	.st78{opacity:0.29;fill:url(#SVGID_00000039126007104574280690000008004267944231443608_);}
	.st79{opacity:0.29;fill:url(#SVGID_00000049932087729450457740000006212884495919831176_);}
	.st80{opacity:0.67;fill:url(#SVGID_00000129183178566811955640000013595972647798892191_);}
	.st81{fill:#3FA9BD;}
	.st82{fill:url(#SVGID_00000156584095352069507040000010703856040079844530_);}
	.st83{fill-rule:evenodd;clip-rule:evenodd;fill:#555069;}
	.st84{fill-rule:evenodd;clip-rule:evenodd;fill:#FFFFFF;}
	.st85{fill-rule:evenodd;clip-rule:evenodd;fill:#AFAFB1;}
	.st86{fill-rule:evenodd;clip-rule:evenodd;fill:#D3D3D3;}
	.st87{opacity:0.67;fill:url(#SVGID_00000096777940598908460610000017141319753809310343_);}
	.st88{fill:url(#SVGID_00000023258432295720096320000008437410096762369970_);}
	.st89{opacity:0.67;fill:url(#SVGID_00000149369059025888386680000014591953680313275265_);}
	.st90{fill:url(#SVGID_00000017482264374421908650000011032435593291966638_);}
	.st91{opacity:0.67;fill:url(#SVGID_00000152252551035285817490000003956420413361242033_);}
	.st92{fill:url(#SVGID_00000054963892510659056050000013161101354212738987_);}
	.st93{opacity:0.67;fill:url(#SVGID_00000025432715013740506850000006231089303141343898_);}
	.st94{fill:url(#SVGID_00000080898188516290430060000002069832673415758228_);}
	.st95{opacity:0.67;fill:url(#SVGID_00000010309741608215327950000005083730083873554109_);}
	.st96{fill:url(#SVGID_00000004540480079880513930000003183467616060913815_);}
	.st97{fill:#1AD4B3;}
	.st98{opacity:0.67;fill:url(#SVGID_00000008139597494935204980000010047505321367931811_);}
	.st99{fill:url(#SVGID_00000049934124962686710330000002016676108930172319_);}
	.st100{opacity:0.67;fill:url(#SVGID_00000078727615445237262560000007411851979346063757_);}
	.st101{fill:url(#SVGID_00000132090339961561648880000005171798433832969384_);}
	.st102{opacity:0.67;fill:url(#SVGID_00000057138373944516250290000005661168217751378848_);}
	.st103{fill:url(#SVGID_00000018928654543292978140000017949783486068111005_);}
	
		.st104{fill-rule:evenodd;clip-rule:evenodd;fill:none;stroke:#FFFFFF;stroke-width:0.7384;stroke-linecap:round;stroke-linejoin:round;stroke-miterlimit:10;}
	.st105{opacity:0.67;fill:url(#SVGID_00000007394506072620040160000014411139058811817860_);}
	.st106{fill:url(#SVGID_00000085937897991100312030000008895307131029594292_);}
	.st107{opacity:0.67;fill:url(#SVGID_00000102546336707477655580000006458679775494532520_);}
	.st108{fill:url(#SVGID_00000032628568504481937570000010298424073977600901_);}
	.st109{opacity:0.67;fill:url(#SVGID_00000065061844566706187510000014990290137132213660_);}
	.st110{fill:url(#SVGID_00000003081834443776727700000016677729534908136590_);}
	.st111{opacity:0.67;fill:url(#SVGID_00000155840092313007613890000009800119414443617690_);}
	.st112{fill:url(#SVGID_00000040534664470292325330000005843853857601390247_);}
	.st113{opacity:0.67;fill:url(#SVGID_00000057843216282441524850000008995053878305304241_);}
	.st114{fill:url(#SVGID_00000081620702991013888760000017827663521211376053_);}
	.st115{opacity:0.67;fill:url(#SVGID_00000144322610956845645570000011137131516824190367_);}
	.st116{fill:url(#SVGID_00000077284392167107023340000013312994283116670353_);}
	.st117{opacity:0.67;fill:url(#SVGID_00000058553064994971674090000013452325757126900902_);}
	.st118{fill:url(#SVGID_00000044147830823660246050000001804827862672101305_);}
	.st119{opacity:0.67;fill:url(#SVGID_00000004539246009570626780000004245669827082500799_);}
	.st120{fill:url(#SVGID_00000112628110441627696410000002696428606246628772_);}
	.st121{opacity:0.67;fill:url(#SVGID_00000007392909441471584750000004830611431164062617_);}
	.st122{fill:url(#SVGID_00000158726087677379092080000001718542877580979885_);}
	.st123{opacity:0.67;fill:url(#SVGID_00000085252226095717728670000013239371070805900972_);}
	.st124{fill:url(#SVGID_00000031185093527796850210000009930352375059804088_);}
	.st125{opacity:0.67;fill:url(#SVGID_00000147179963042553115340000015870891352845804713_);}
	.st126{fill:url(#SVGID_00000172433839803092481990000009413814863166943885_);}
	.st127{opacity:0.67;fill:url(#SVGID_00000101811794127050120070000017020631594525882006_);}
	.st128{fill:#5EA6B9;}
	.st129{fill:url(#SVGID_00000165193503862213985480000006727676908424446137_);}
	.st130{fill-rule:evenodd;clip-rule:evenodd;fill:#545067;}
	.st131{fill-rule:evenodd;clip-rule:evenodd;fill:#AEAEB0;}
	.st132{fill-rule:evenodd;clip-rule:evenodd;fill:#D2D2D2;}
	.st133{opacity:0.67;fill:url(#SVGID_00000111155213789238106350000016404609667420377994_);}
	.st134{fill:url(#SVGID_00000104703473905058946590000016300311099619020706_);}
	.st135{fill-rule:evenodd;clip-rule:evenodd;fill:#63D0B3;}
	
		.st136{fill-rule:evenodd;clip-rule:evenodd;fill:none;stroke:#111422;stroke-linecap:round;stroke-linejoin:round;stroke-miterlimit:10;}
	.st137{fill-rule:evenodd;clip-rule:evenodd;fill:#E85C83;}
	.st138{fill:#5DC29D;}
	.st139{fill:url(#SVGID_00000132776133782638787380000011521663717481387190_);}
	.st140{fill:url(#SVGID_00000092421546172488104870000015952602383417442207_);}
	.st141{fill:#E85C83;}
	.st142{opacity:0.67;fill:url(#SVGID_00000046303710992083081410000015191345900651905666_);}
	.st143{fill:url(#SVGID_00000144296347195729728660000014578654255374417796_);}
	
		.st144{fill:none;stroke:url(#SVGID_00000055676415580635732580000000265388582130119052_);stroke-width:5;stroke-linecap:round;stroke-linejoin:round;stroke-miterlimit:10;}
	.st145{fill:url(#SVGID_00000183211472645911352620000014332390521765798033_);}
	.st146{opacity:0.67;fill:url(#SVGID_00000105422753634413947850000016971247729311853219_);}
	.st147{fill:url(#SVGID_00000136383526293094506460000003495403662001393059_);}
	.st148{opacity:0.67;fill:url(#SVGID_00000050644749400300186560000001308421297484244643_);}
	.st149{fill:url(#SVGID_00000034086225129077581550000006264472870025859983_);}
	.st150{opacity:0.67;fill:url(#SVGID_00000001644643015129267470000003254642651227236284_);}
	.st151{fill:url(#SVGID_00000142168765987370667920000017514833585359609521_);}
	.st152{opacity:0.67;fill:url(#SVGID_00000039098970330150929370000017680147763492486588_);}
	.st153{fill:url(#SVGID_00000164477879394210659970000016475100639826756015_);}
	.st154{opacity:0.67;fill:url(#SVGID_00000060720440271607208070000010612539870523478965_);}
	.st155{fill:url(#SVGID_00000177446436779047747180000016999116233602266035_);}
	.st156{opacity:0.67;fill:url(#SVGID_00000026165311469273259120000013415889627889957823_);}
	.st157{fill:url(#SVGID_00000052085124514176020080000012571084379314076826_);}
	.st158{fill:none;stroke:#000000;stroke-width:22;stroke-linecap:round;stroke-linejoin:round;stroke-miterlimit:10;}
	.st159{fill:#ECF0FC;}
	.st160{fill:url(#SVGID_00000034775550485492438320000009427806034717910204_);}
	.st161{fill:url(#SVGID_00000106847568203349609550000010653054409367274410_);}
	.st162{fill:none;stroke:url(#SVGID_00000156586493540265449510000015566260333188198078_);stroke-width:5;stroke-miterlimit:10;}
	.st163{fill:#111422;}
	.st164{fill:url(#SVGID_00000149368527596787392770000009489170713542236335_);}
	.st165{fill:none;}
	.st166{opacity:0.67;fill:url(#SVGID_00000000216591657471979900000015785064253900327824_);}
	.st167{fill:url(#SVGID_00000120552684304762167250000015189335820638667930_);}
	.st168{fill:none;stroke:url(#SVGID_00000176763700016432055050000001731362168666162823_);stroke-width:5;stroke-miterlimit:10;}
	.st169{fill:url(#SVGID_00000016771859911395209210000008374397224078273963_);}
	.st170{opacity:0.67;fill:url(#SVGID_00000092434313599661309700000017073942796450216632_);}
	.st171{fill:url(#SVGID_00000110436559469084746000000010334127874371945135_);}
	.st172{opacity:0.67;fill:url(#SVGID_00000078767597445956025430000008384625992930209691_);}
	.st173{fill:url(#SVGID_00000015346097948196221260000012858533101056374941_);}
</style>
<g>
	<polygon class="st2" points="227.28,155.34 194.56,136.45 194.56,103.73 227.28,122.62 	"/>
	<polygon class="st3" points="227.28,155.34 260,136.45 260,103.73 227.28,122.62 	"/>
	<polygon class="st4" points="227.4,122.72 194.56,103.76 227.16,84.77 260,103.73 	"/>
	<path id="矩形_00000173142302042498591340000002509436359324880808_" class="st3" d="M216.43,96.15L216.43,96.15
		c0.64,0.37,0.54,1.07-0.23,1.52l-6.79,4.02c-0.77,0.45-1.98,0.53-2.62,0.16l0,0c-0.64-0.37-0.54-1.07,0.23-1.52l6.79-4.02
		C214.58,95.86,215.79,95.78,216.43,96.15z"/>
	<path id="矩形_00000011019301423703815910000010677439638491895713_" class="st3" d="M205.13,102.71L205.13,102.71
		c0.64,0.37,0.54,1.07-0.23,1.52l-1.31,0.78c-0.77,0.45-1.98,0.53-2.62,0.16l0,0c-0.64-0.37-0.54-1.07,0.23-1.52l1.31-0.78
		C203.33,102.39,204.48,102.34,205.13,102.71z"/>
	<g>
		
			<linearGradient id="SVGID_1_" gradientUnits="userSpaceOnUse" x1="148.7697" y1="722.099" x2="161.8258" y2="745.6" gradientTransform="matrix(1.0913 -0.6143 0 1 75.771 -509.8985)">
			<stop  offset="0" style="stop-color:#A85699"/>
			<stop  offset="1" style="stop-color:#5DB6C3"/>
		</linearGradient>
		<path class="st8" d="M241.64,134.64v-0.5c0-1.14,0.07-2.09,0.22-2.84c0.14-0.76,0.36-1.42,0.64-1.99c0.28-0.57,0.63-1.13,1.04-1.7
			c0.35-0.49,0.67-0.95,0.95-1.37c0.28-0.43,0.5-0.84,0.66-1.23c0.16-0.4,0.24-0.79,0.24-1.17c0-0.35-0.07-0.61-0.2-0.8
			c-0.13-0.19-0.31-0.29-0.54-0.31c-0.23-0.02-0.48,0.05-0.75,0.21c-0.3,0.17-0.57,0.41-0.82,0.72c-0.25,0.31-0.45,0.67-0.61,1.05
			c-0.15,0.39-0.23,0.78-0.23,1.18l-4.24,2.39c0.01-1.52,0.29-2.91,0.83-4.17c0.54-1.25,1.26-2.35,2.15-3.3
			c0.89-0.95,1.88-1.72,2.95-2.33c1.18-0.67,2.24-1.04,3.17-1.14c0.93-0.09,1.66,0.15,2.2,0.71c0.54,0.56,0.8,1.5,0.8,2.79
			c0,0.83-0.11,1.63-0.34,2.39c-0.23,0.76-0.55,1.49-0.95,2.2c-0.41,0.71-0.88,1.41-1.42,2.11c-0.4,0.51-0.73,1-1,1.46
			c-0.27,0.46-0.48,0.92-0.61,1.39c-0.14,0.47-0.21,0.98-0.21,1.53v0.5L241.64,134.64z M243.77,140.17
			c-0.56,0.31-1.04,0.34-1.43,0.07c-0.4-0.27-0.59-0.75-0.59-1.46c0-0.68,0.19-1.38,0.59-2.09c0.4-0.71,0.88-1.22,1.43-1.54
			c0.53-0.3,1-0.32,1.41-0.06c0.41,0.26,0.61,0.73,0.62,1.41c0,0.47-0.1,0.95-0.29,1.44c-0.19,0.49-0.44,0.93-0.74,1.33
			C244.46,139.67,244.13,139.97,243.77,140.17z"/>
	</g>
</g>
<g>
	<polygon class="st2" points="65.48,163.63 20.87,137.88 20.87,93.27 65.48,119.03 	"/>
	<polygon class="st3" points="65.48,163.63 110.08,137.88 110.08,93.27 65.48,119.03 	"/>
	<polygon class="st4" points="65.64,119.16 20.87,93.32 65.32,67.42 110.09,93.27 	"/>
	<path id="矩形_00000055686028866258400310000003571620655678377364_" class="st5" d="M51.01,82.53L51.01,82.53
		c0.88,0.5,0.73,1.46-0.31,2.08l-9.26,5.48c-1.05,0.62-2.69,0.72-3.57,0.22l0,0c-0.88-0.5-0.73-1.46,0.31-2.08l9.26-5.48
		C48.49,82.13,50.14,82.03,51.01,82.53z"/>
	<path id="矩形_00000106148848693082746100000002695710948074532005_" class="st5" d="M35.6,91.47L35.6,91.47
		c0.88,0.5,0.73,1.46-0.31,2.08l-1.79,1.06c-1.05,0.62-2.69,0.72-3.57,0.22l0,0c-0.88-0.5-0.73-1.46,0.31-2.08l1.79-1.06
		C33.15,91.03,34.72,90.98,35.6,91.47z"/>
	<g>
		
			<linearGradient id="SVGID_00000181808000917644494720000013497981364425154693_" gradientUnits="userSpaceOnUse" x1="4.1133" y1="628.9907" x2="21.9126" y2="661.0296" gradientTransform="matrix(1.0913 -0.6143 0 1 75.771 -509.8985)">
			<stop  offset="0" style="stop-color:#A85699"/>
			<stop  offset="1" style="stop-color:#5DB6C3"/>
		</linearGradient>
		<path style="fill:url(#SVGID_00000181808000917644494720000013497981364425154693_);" d="M85.06,135.41v-0.68
			c0-1.55,0.1-2.84,0.29-3.88c0.2-1.03,0.49-1.94,0.87-2.71s0.85-1.55,1.41-2.31c0.48-0.67,0.91-1.29,1.29-1.87
			c0.38-0.58,0.68-1.14,0.9-1.68c0.22-0.54,0.33-1.07,0.33-1.6c0-0.47-0.09-0.83-0.27-1.09c-0.18-0.26-0.43-0.4-0.73-0.42
			c-0.31-0.02-0.65,0.07-1.03,0.28c-0.41,0.23-0.78,0.56-1.12,0.99c-0.34,0.43-0.62,0.91-0.82,1.44c-0.21,0.53-0.31,1.07-0.31,1.61
			l-5.78,3.26c0.01-2.08,0.39-3.97,1.13-5.68c0.74-1.71,1.72-3.21,2.94-4.5c1.22-1.29,2.56-2.35,4.02-3.17
			c1.61-0.91,3.05-1.42,4.31-1.55c1.26-0.12,2.26,0.2,2.99,0.97c0.73,0.77,1.1,2.04,1.1,3.81c0,1.14-0.16,2.23-0.47,3.26
			c-0.31,1.04-0.75,2.04-1.3,3c-0.55,0.97-1.2,1.92-1.94,2.88c-0.54,0.7-1,1.36-1.37,1.99c-0.37,0.63-0.65,1.26-0.84,1.9
			c-0.19,0.64-0.28,1.33-0.28,2.08v0.68L85.06,135.41z M87.97,142.95c-0.76,0.43-1.41,0.46-1.95,0.1c-0.54-0.36-0.81-1.03-0.8-1.99
			c-0.01-0.93,0.26-1.88,0.8-2.85c0.54-0.97,1.19-1.67,1.95-2.1c0.72-0.41,1.36-0.43,1.92-0.08c0.55,0.35,0.84,0.99,0.84,1.93
			c-0.01,0.64-0.14,1.3-0.4,1.97c-0.26,0.67-0.6,1.27-1.01,1.81C88.9,142.27,88.45,142.67,87.97,142.95z"/>
	</g>
</g>
<g>
	<g>
		<polygon class="st2" points="200.15,111.33 158.78,87.45 158.78,46.08 200.15,69.96 		"/>
		<polygon class="st3" points="200.15,111.33 241.52,87.45 241.52,46.08 200.15,69.96 		"/>
		<polygon class="st4" points="200.3,70.09 158.78,46.12 200,22.1 241.52,46.07 		"/>
		<path id="矩形_00000068659436656497742720000015302935922789669523_" class="st5" d="M186.75,36.08L186.75,36.08
			c0.81,0.46,0.68,1.35-0.29,1.93l-8.59,5.08c-0.97,0.57-2.5,0.67-3.31,0.21l0,0c-0.81-0.46-0.68-1.35,0.29-1.93l8.59-5.08
			C184.41,35.71,185.94,35.62,186.75,36.08z"/>
		<path id="矩形_00000084493643815463823480000015693075378324080045_" class="st5" d="M172.46,44.38L172.46,44.38
			c0.81,0.46,0.68,1.35-0.29,1.93l-1.66,0.98c-0.97,0.57-2.5,0.67-3.31,0.21l0,0c-0.81-0.46-0.68-1.35,0.29-1.93l1.66-0.98
			C170.18,43.97,171.64,43.92,172.46,44.38z"/>
	</g>
	<g>
		
			<linearGradient id="SVGID_00000085952999129873265030000014339436443520559803_" gradientUnits="userSpaceOnUse" x1="173.7152" y1="-656.7699" x2="187.6972" y2="-631.6024" gradientTransform="matrix(1 0.5484 0 1 0 624.884)">
			<stop  offset="0" style="stop-color:#A85699"/>
			<stop  offset="1" style="stop-color:#5DB6C3"/>
		</linearGradient>
		<path style="fill:url(#SVGID_00000085952999129873265030000014339436443520559803_);" d="M176.7,81.91v-0.52
			c0-1.18,0.08-2.07,0.25-2.67c0.16-0.6,0.41-1.01,0.73-1.24c0.32-0.23,0.72-0.37,1.19-0.42c0.41-0.05,0.77-0.11,1.09-0.2
			c0.32-0.08,0.58-0.22,0.76-0.42c0.19-0.2,0.28-0.5,0.28-0.9c0-0.36-0.08-0.72-0.23-1.09s-0.36-0.7-0.62-1.02
			c-0.26-0.31-0.55-0.57-0.87-0.76c-0.34-0.21-0.66-0.32-0.95-0.32c-0.29,0-0.52,0.1-0.7,0.31c-0.17,0.21-0.26,0.52-0.26,0.93
			l-4.88-3.02c0.01-1.57,0.33-2.65,0.95-3.25c0.62-0.6,1.45-0.81,2.48-0.64c1.03,0.17,2.16,0.64,3.39,1.4
			c1.36,0.84,2.57,1.81,3.64,2.92c1.07,1.11,1.91,2.3,2.53,3.58c0.62,1.28,0.92,2.59,0.92,3.94c0,0.87-0.13,1.55-0.4,2.04
			c-0.26,0.49-0.63,0.84-1.1,1.05c-0.47,0.21-1.01,0.33-1.63,0.35c-0.46,0.02-0.84,0.09-1.15,0.22c-0.31,0.13-0.55,0.34-0.71,0.65
			c-0.16,0.31-0.24,0.75-0.24,1.32v0.52L176.7,81.91z M179.15,90.4c-0.64-0.4-1.19-0.99-1.65-1.78c-0.46-0.79-0.68-1.55-0.68-2.28
			c-0.01-0.71,0.22-1.18,0.68-1.41c0.46-0.22,1.01-0.14,1.65,0.26c0.61,0.38,1.15,0.96,1.62,1.76c0.47,0.79,0.7,1.55,0.71,2.26
			c-0.01,0.48-0.12,0.86-0.34,1.12c-0.22,0.26-0.5,0.4-0.85,0.42C179.94,90.77,179.56,90.66,179.15,90.4z"/>
	</g>
</g>
<g>
	<path id="矩形_00000173147354944887975950000002223834969705142672_" class="st14" d="M180.34,201.11L180.34,201.11
		c0.62,0,1.15,0.76,1.15,1.64v1.52c0,0.88-0.53,1.64-1.15,1.64l0,0c-0.62,0-1.15-0.76-1.15-1.64v-1.52
		C179.2,201.81,179.73,201.11,180.34,201.11z"/>
	
		<radialGradient id="SVGID_00000037666586086553533260000018140763292719227820_" cx="148.8011" cy="235.2371" r="29.1582" gradientTransform="matrix(1 0 0 0.5898 0 96.4959)" gradientUnits="userSpaceOnUse">
		<stop  offset="0" style="stop-color:#B8B3D4"/>
		<stop  offset="0.3457" style="stop-color:#BAB6D6;stop-opacity:0.6543"/>
		<stop  offset="0.6064" style="stop-color:#C2C0DA;stop-opacity:0.3936"/>
		<stop  offset="0.8384" style="stop-color:#D0D0E3;stop-opacity:0.1616"/>
		<stop  offset="1" style="stop-color:#DDE0EB;stop-opacity:0"/>
	</radialGradient>
	<path style="opacity:0.67;fill:url(#SVGID_00000037666586086553533260000018140763292719227820_);" d="M173.8,221.16
		c-13.68-7.9-35.96-8-49.77-0.23c-13.81,7.77-13.91,20.48-0.23,28.37c13.68,7.9,35.96,8,49.77,0.23
		C187.37,241.76,187.48,229.06,173.8,221.16z"/>
	<g>
		<path class="st81" d="M187.3,185.14v-49.28c0-0.23,0.02-0.45,0.02-0.68c0-22.91-18.57-41.48-41.48-41.48
			c-22.91,0-41.48,18.57-41.48,41.48c0,0.36,0.02,0.72,0.03,1.07v44.66h-0.03v22.67c0,2.84,2.3,5.15,5.15,5.15
			c2.84,0,5.15-2.31,5.15-5.15v-0.83c0.56,0.36,1.13,0.72,1.74,1.07c1.83,1.06,3.79,1.99,5.85,2.81v8.2c0,2.84,2.3,5.15,5.15,5.15
			s5.15-2.31,5.15-5.15v-5.23c2.95,0.57,5.99,0.96,9.06,1.14v12.59c0,2.84,2.3,5.15,5.15,5.15c2.84,0,5.15-2.31,5.15-5.15v-12.7
			c3.39-0.28,6.73-0.8,9.93-1.55v6.36c0,2.84,2.3,5.15,5.15,5.15c2.84,0,5.15-2.31,5.15-5.15v-9.87c1-0.47,1.97-0.96,2.91-1.49
			c0.7-0.39,1.35-0.8,1.99-1.21v0.71c0,2.84,2.3,5.15,5.15,5.15s5.15-2.31,5.15-5.15v-18.45H187.3z"/>
		
			<radialGradient id="SVGID_00000083085787438911813780000014188884852845621632_" cx="170.5238" cy="111.1164" r="106.6854" gradientUnits="userSpaceOnUse">
			<stop  offset="0.0124" style="stop-color:#DD78CE"/>
			<stop  offset="0.4936" style="stop-color:#A7589A"/>
			<stop  offset="0.5829" style="stop-color:#A0619E"/>
			<stop  offset="0.7273" style="stop-color:#8E79A8"/>
			<stop  offset="0.9078" style="stop-color:#709FB9"/>
			<stop  offset="1" style="stop-color:#5EB6C3"/>
		</radialGradient>
		<path style="fill:url(#SVGID_00000083085787438911813780000014188884852845621632_);" d="M187.3,185.14v-49.28
			c0-0.23,0.02-0.45,0.02-0.68c0-22.91-18.57-41.48-41.48-41.48c-22.91,0-41.48,18.57-41.48,41.48c0,0.36,0.02,0.72,0.03,1.07v44.66
			h-0.03v22.67c0,2.84,2.3,5.15,5.15,5.15c2.84,0,5.15-2.31,5.15-5.15v-0.83c0.56,0.36,1.13,0.72,1.74,1.07
			c1.83,1.06,3.79,1.99,5.85,2.81v8.2c0,2.84,2.3,5.15,5.15,5.15s5.15-2.31,5.15-5.15v-5.23c2.95,0.57,5.99,0.96,9.06,1.14v12.59
			c0,2.84,2.3,5.15,5.15,5.15c2.84,0,5.15-2.31,5.15-5.15v-12.7c3.39-0.28,6.73-0.8,9.93-1.55v6.36c0,2.84,2.3,5.15,5.15,5.15
			c2.84,0,5.15-2.31,5.15-5.15v-9.87c1-0.47,1.97-0.96,2.91-1.49c0.7-0.39,1.35-0.8,1.99-1.21v0.71c0,2.84,2.3,5.15,5.15,5.15
			s5.15-2.31,5.15-5.15v-18.45H187.3z"/>
	</g>
	<path id="矩形_00000136395278592949185650000008499221514747198138_" class="st14" d="M108.25,171.29L108.25,171.29
		c1.12,0,2.09,1.38,2.09,2.99v14.25c0,1.61-0.96,2.99-2.09,2.99l0,0c-1.12,0-2.09-1.38-2.09-2.99v-14.25
		C106.16,172.67,107.13,171.29,108.25,171.29z"/>
	<path id="矩形_00000156586595579281373330000005542629483788272025_" class="st14" d="M169.55,108.2L169.55,108.2
		c1.37-1.02,3.68-0.37,5.02,1.41l2.29,3.06c1.34,1.78,1.31,4.19-0.06,5.22l0,0c-1.37,1.02-3.68,0.37-5.02-1.41l-2.29-3.06
		C168.06,111.51,168.19,109.23,169.55,108.2z"/>
	<path id="矩形_00000116950538700235826320000011458775821938664091_" class="st14" d="M125.65,207.88L125.65,207.88
		c1.12,0,2.09,1.38,2.09,2.99v2.76c0,1.61-0.96,2.99-2.09,2.99l0,0c-1.12,0-2.09-1.38-2.09-2.99v-2.76
		C123.56,209.14,124.53,207.88,125.65,207.88z"/>
	<path id="矩形_00000085215862346074228140000000492155504781656454_" class="st14" d="M108,197.08L108,197.08
		c1.12,0,2.09,1.38,2.09,2.99v2.76c0,1.61-0.96,2.99-2.09,2.99l0,0c-1.12,0-2.09-1.38-2.09-2.99v-2.76
		C105.92,198.34,106.88,197.08,108,197.08z"/>
	<path id="矩形_00000123399562552534201720000017867423796698741909_" class="st14" d="M145.84,216.62L145.84,216.62
		c1.12,0,2.09,1.38,2.09,2.99v2.76c0,1.61-0.96,2.99-2.09,2.99l0,0c-1.12,0-2.09-1.38-2.09-2.99v-2.76
		C143.75,217.88,144.71,216.62,145.84,216.62z"/>
	<path id="矩形_00000073719983026583272140000000722224039571209869_" class="st14" d="M165.54,211.28L165.54,211.28
		c0.89,0,1.66,1.1,1.66,2.37v2.19c0,1.28-0.76,2.37-1.66,2.37l0,0c-0.89,0-1.66-1.1-1.66-2.37v-2.19
		C163.88,212.28,164.65,211.28,165.54,211.28z"/>
	<g>
		<path id="椭圆形_00000125590360586592859510000005436633152144954294_" class="st83" d="M155.85,166.16
			c4.06-0.17,7.1-3.66,7.09-6c0-0.94-0.55-1.75-1.38-1.81c-1.29-0.13-3.23,0.7-5.72,0.8c-2.31,0.1-3.78-0.5-5.53-0.42
			c-1.84,0.08-1.75,2.22-1.47,3.06C149.48,164.09,151.7,166.33,155.85,166.16z"/>
		<path id="椭圆形_00000156567901410790993280000007831377007008321679_" class="st84" d="M155.94,164.19
			c4.15-0.17,7.19-3.38,7.19-5.63c0-0.84-0.55-1.57-1.38-1.63c-1.29-0.13-3.32,0.7-5.81,0.8c-2.4,0.1-3.78-0.5-5.62-0.43
			c-1.84,0.08-1.75,2.13-1.48,2.87C149.48,162.3,151.79,164.36,155.94,164.19z"/>
	</g>
	<g>
		
			<ellipse transform="matrix(0.5671 -0.8237 0.8237 0.5671 -57.3966 176.1902)" class="st84" cx="138.9" cy="142.69" rx="9.5" ry="9.1"/>
		<path id="形状结合_00000078011490706883037260000007128297795283098044_" class="st85" d="M140.1,132.73
			c4.24-0.18,7.66,3.98,7.66,9.22c0,0.19,0,0.37,0,0.56l0,0.56c0-5.33-3.33-9.59-7.48-9.42s-7.46,4.61-7.46,10.04
			c0,1.03,0.09,2.05,0.37,2.98c-0.46-1.2-0.74-2.59-0.74-3.99C132.45,137.35,135.86,132.9,140.1,132.73z"/>
		<path id="形状结合_00000120533629710724120620000011986902801548415377_" class="st86" d="M140.1,131.6
			c4.7-0.2,8.58,4.41,8.58,10.31c0.01,5.89-3.86,10.83-8.57,11.02c-4.7,0.2-8.58-4.41-8.58-10.31S135.3,131.8,140.1,131.6z
			 M140.1,132.73c-4.24,0.18-7.65,4.62-7.64,9.86c0,5.24,3.42,9.4,7.66,9.22c4.24-0.18,7.65-4.62,7.64-9.86
			C147.76,136.71,144.25,132.55,140.1,132.73z"/>
	</g>
	<g>
		
			<ellipse transform="matrix(0.5671 -0.8237 0.8237 0.5671 -42.9614 200.8935)" class="st84" cx="169.62" cy="141.31" rx="9.5" ry="9.1"/>
		<path id="形状结合_00000147919871952595652860000001221443169029176504_" class="st85" d="M170.61,131.36
			c4.24-0.18,7.66,3.98,7.66,9.22c0,0.19,0,0.37,0,0.56l0,0.56c0-5.33-3.33-9.59-7.48-9.42c-4.15,0.17-7.46,4.61-7.46,10.04
			c0,1.03,0.09,2.05,0.37,2.98c-0.46-1.2-0.74-2.59-0.74-3.99C162.96,135.98,166.37,131.53,170.61,131.36z"/>
		<path id="形状结合_00000002350716088040571940000009750341150204652970_" class="st86" d="M170.61,130.23
			c4.7-0.2,8.58,4.41,8.58,10.31c0.01,5.89-3.86,10.83-8.57,11.02c-4.7,0.2-8.58-4.41-8.58-10.31
			C162.04,135.36,165.82,130.43,170.61,130.23z M170.61,131.36c-4.24,0.18-7.65,4.62-7.64,9.86c0,5.24,3.42,9.4,7.66,9.22
			c4.24-0.18,7.65-4.62,7.64-9.86C178.27,135.34,174.76,131.18,170.61,131.36z"/>
	</g>
	<circle class="st83" cx="138.9" cy="142.69" r="3.77"/>
	<circle class="st83" cx="169.45" cy="141.57" r="3.77"/>
</g>
</svg>
