<?xml version="1.0" encoding="utf-8"?>
<!-- Generator: Adobe Illustrator 27.8.1, SVG Export Plug-In . SVG Version: 6.00 Build 0)  -->
<svg version="1.1" id="Слой_1" xmlns="http://www.w3.org/2000/svg" xmlns:xlink="http://www.w3.org/1999/xlink" x="0px" y="0px"
	 viewBox="0 0 290 574.88" style="enable-background:new 0 0 290 574.88;" xml:space="preserve">
<style type="text/css">
	.st0{fill:#101422;}
	.st1{fill:#FFFFFF;stroke:#111422;stroke-linecap:round;stroke-linejoin:round;stroke-miterlimit:10;}
	
		.st2{fill-rule:evenodd;clip-rule:evenodd;fill:#C6C3D1;stroke:#101320;stroke-linecap:round;stroke-linejoin:round;stroke-miterlimit:10;}
	
		.st3{fill-rule:evenodd;clip-rule:evenodd;fill:#FFFFFF;stroke:#111422;stroke-linecap:round;stroke-linejoin:round;stroke-miterlimit:10;}
	
		.st4{fill-rule:evenodd;clip-rule:evenodd;fill:#ECF0FC;stroke:#111422;stroke-linecap:round;stroke-linejoin:round;stroke-miterlimit:10;}
	.st5{opacity:0.92;fill-rule:evenodd;clip-rule:evenodd;fill:#FFFFFF;enable-background:new    ;}
	.st6{fill:none;stroke:#FFFFFF;stroke-linecap:round;stroke-linejoin:round;stroke-miterlimit:10;}
	.st7{fill-rule:evenodd;clip-rule:evenodd;fill:#101422;}
	.st8{fill:url(#SVGID_1_);}
	.st9{fill:url(#SVGID_00000175306749702866801150000014302099864288489909_);}
	.st10{fill:url(#SVGID_00000008845544307049366740000014976826353850716564_);}
	.st11{opacity:0.67;fill:url(#SVGID_00000011007928557797368400000008757414810602674575_);enable-background:new    ;}
	.st12{fill:#6FA3B6;}
	.st13{fill:url(#SVGID_00000173125047890772262290000004732138386010399370_);}
	.st14{opacity:0.2563;fill-rule:evenodd;clip-rule:evenodd;fill:#FFFFFF;enable-background:new    ;}
	.st15{fill:none;stroke:#FFFFFF;stroke-width:0.7384;stroke-linecap:round;stroke-linejoin:round;stroke-miterlimit:10;}
	
		.st16{fill:none;stroke:url(#SVGID_00000033368630444230232610000000834928404524980358_);stroke-width:5;stroke-linecap:round;stroke-linejoin:round;stroke-miterlimit:10;}
	.st17{fill:url(#SVGID_00000024683941779777620060000005599114742200262808_);}
	.st18{fill-rule:evenodd;clip-rule:evenodd;fill:#1AD4B3;}
	.st19{fill-rule:evenodd;clip-rule:evenodd;fill:#FC4F83;}
	.st20{fill:#C6C3D1;stroke:#101320;stroke-linecap:round;stroke-linejoin:round;stroke-miterlimit:10;}
	.st21{fill:#ECF0FC;stroke:#111422;stroke-linecap:round;stroke-linejoin:round;stroke-miterlimit:10;}
	
		.st22{fill:url(#SVGID_00000081614306426615270080000006465297616445107885_);stroke:#1D1D1B;stroke-width:0.2115;stroke-linecap:round;stroke-linejoin:round;stroke-miterlimit:10;}
	
		.st23{fill:url(#SVGID_00000161624893703371661730000004478536657401594288_);stroke:#1D1D1B;stroke-width:0.2115;stroke-linecap:round;stroke-linejoin:round;stroke-miterlimit:10;}
	
		.st24{fill:url(#SVGID_00000135679732369968599990000016935198749196773026_);stroke:#1D1D1B;stroke-width:0.2115;stroke-linecap:round;stroke-linejoin:round;stroke-miterlimit:10;}
	
		.st25{fill:url(#SVGID_00000095302173708039285500000015560022395840435897_);stroke:#1D1D1B;stroke-width:0.2115;stroke-linecap:round;stroke-linejoin:round;stroke-miterlimit:10;}
	
		.st26{fill-rule:evenodd;clip-rule:evenodd;fill:#101422;stroke:#101423;stroke-linecap:round;stroke-linejoin:round;stroke-miterlimit:10;}
	.st27{fill:#FFFFFF;}
	.st28{fill-rule:evenodd;clip-rule:evenodd;fill:url(#SVGID_00000147186500759104790180000003552317743045355136_);}
	.st29{fill-rule:evenodd;clip-rule:evenodd;fill:url(#SVGID_00000076595621872343515090000004215329506591012752_);}
	.st30{fill:url(#SVGID_00000157266221268583909700000017500017063890376875_);}
	.st31{fill:url(#SVGID_00000071519177360596414810000007616113250148091549_);}
	.st32{fill:url(#SVGID_00000048467524066388888080000008311961521645892284_);}
	
		.st33{fill-rule:evenodd;clip-rule:evenodd;fill:#C7FFF1;stroke:#101320;stroke-linecap:round;stroke-linejoin:round;stroke-miterlimit:10;}
	
		.st34{fill:none;stroke:url(#SVGID_00000034781351888121830600000017212016729835626389_);stroke-width:5;stroke-linecap:round;stroke-linejoin:round;stroke-miterlimit:10;}
	.st35{fill:url(#SVGID_00000104703922714877475940000006775226328519909253_);}
	
		.st36{fill:none;stroke:url(#SVGID_00000009581296334211443100000004221532064472330889_);stroke-width:5;stroke-linecap:round;stroke-linejoin:round;stroke-miterlimit:10;}
	.st37{fill:url(#SVGID_00000168116782333550696760000015726783474669878189_);}
	
		.st38{fill:none;stroke:url(#SVGID_00000003822244621948769490000001163237139219344540_);stroke-width:5;stroke-linecap:round;stroke-linejoin:round;stroke-miterlimit:10;}
	.st39{fill:url(#SVGID_00000001642130936994099210000007896691112255755951_);}
	
		.st40{fill-rule:evenodd;clip-rule:evenodd;fill:#1AD4B3;stroke:#111422;stroke-linecap:round;stroke-linejoin:round;stroke-miterlimit:10;}
	
		.st41{fill-rule:evenodd;clip-rule:evenodd;fill:#FC4F83;stroke:#111422;stroke-linecap:round;stroke-linejoin:round;stroke-miterlimit:10;}
	
		.st42{fill-rule:evenodd;clip-rule:evenodd;fill:#FFCAD7;stroke:#111422;stroke-linecap:round;stroke-linejoin:round;stroke-miterlimit:10;}
	.st43{fill:url(#SVGID_00000092443031763766048650000005587451767729327289_);}
	.st44{fill:url(#SVGID_00000068637760016459636370000011728416061060820651_);}
	.st45{fill:url(#SVGID_00000161595234342672369380000004444374077237027259_);}
	
		.st46{fill:none;stroke:url(#SVGID_00000098934700119304032240000017803025909390388379_);stroke-width:5;stroke-linecap:round;stroke-linejoin:round;stroke-miterlimit:10;}
	.st47{fill:url(#SVGID_00000128467738521972014790000005637426881677387453_);}
	
		.st48{fill:none;stroke:url(#SVGID_00000027571784711341966310000015546965141367428497_);stroke-width:5;stroke-linecap:round;stroke-linejoin:round;stroke-miterlimit:10;}
	.st49{fill:url(#SVGID_00000005968236825932842790000003169377448486953123_);}
	.st50{fill:url(#SVGID_00000048475349253623627030000004779366340426135442_);}
	.st51{fill:#101320;}
	.st52{fill:url(#SVGID_00000085935689335121048620000011463806451062488714_);}
	.st53{fill:url(#SVGID_00000124163584360083284110000003288102164444456348_);}
	.st54{fill:url(#SVGID_00000118358796924862776810000004298147803213038468_);}
	.st55{fill:url(#SVGID_00000110446142295493318670000005414640743987936385_);}
	.st56{fill:url(#SVGID_00000123426258443506580150000007209771062276488344_);}
	.st57{fill:url(#SVGID_00000061448280292929621960000017072228374401873057_);}
	.st58{opacity:0.29;fill:url(#SVGID_00000142134108581885273670000017540766545247821211_);enable-background:new    ;}
	.st59{fill:url(#SVGID_00000153669423913576920730000011861573292241169030_);}
	.st60{fill:url(#SVGID_00000049905391504352502480000000788358576558576309_);}
	.st61{fill:url(#SVGID_00000155148040696236844480000013041390422710718347_);}
	.st62{fill-rule:evenodd;clip-rule:evenodd;fill:url(#SVGID_00000118369976541934443450000007683993125745137553_);}
	.st63{fill:url(#SVGID_00000051368602832260714970000017792472656843132582_);}
	.st64{fill:url(#SVGID_00000105391488096424958390000000441144442715304622_);}
	.st65{fill:url(#SVGID_00000064350779975191024550000001692454874917852290_);}
	.st66{fill:url(#SVGID_00000137814848848740821850000008467559956088891783_);}
	.st67{opacity:0.29;fill:url(#SVGID_00000000218428623377477950000016458238576891013557_);enable-background:new    ;}
	
		.st68{fill:none;stroke:url(#SVGID_00000176033727134395120480000000147264849974592908_);stroke-width:5;stroke-linecap:round;stroke-linejoin:round;stroke-miterlimit:10;}
	.st69{fill:url(#SVGID_00000070099372656299633710000009305308677992107194_);}
	
		.st70{fill:none;stroke:url(#SVGID_00000135673707808726982720000002789145858672365233_);stroke-width:5;stroke-linecap:round;stroke-linejoin:round;stroke-miterlimit:10;}
	.st71{fill:url(#SVGID_00000155849478803076632980000013950758891510657694_);}
	
		.st72{fill:none;stroke:url(#SVGID_00000050649065096399908560000011913713973366328192_);stroke-width:5;stroke-linecap:round;stroke-linejoin:round;stroke-miterlimit:10;}
	.st73{fill:url(#SVGID_00000137089951566088030630000017369067537982336134_);}
	.st74{fill-rule:evenodd;clip-rule:evenodd;fill:url(#SVGID_00000168076747212273675090000015925773684430433668_);}
	.st75{fill:url(#SVGID_00000154417042504114778190000008184231336030694553_);}
	.st76{fill:url(#SVGID_00000061472950589034631180000003214725119335400093_);}
	.st77{fill:url(#SVGID_00000056387853876160092790000001748894635277657239_);}
	.st78{opacity:0.29;fill:url(#SVGID_00000082364525021469486700000016396524534065829011_);}
	.st79{opacity:0.29;fill:url(#SVGID_00000181051786748798204450000011820765890393072052_);}
	.st80{opacity:0.67;fill:url(#SVGID_00000060714965514216950440000017959146685599334582_);}
	.st81{fill:#3FA9BD;}
	.st82{fill:url(#SVGID_00000139985905066066964450000002248975163384485263_);}
	.st83{fill-rule:evenodd;clip-rule:evenodd;fill:#555069;}
	.st84{fill-rule:evenodd;clip-rule:evenodd;fill:#FFFFFF;}
	.st85{fill-rule:evenodd;clip-rule:evenodd;fill:#AFAFB1;}
	.st86{fill-rule:evenodd;clip-rule:evenodd;fill:#D3D3D3;}
	.st87{opacity:0.67;fill:url(#SVGID_00000124881016970994855020000006960018895054577302_);}
	.st88{fill:url(#SVGID_00000109029349024869498920000006284590604366955438_);}
	.st89{opacity:0.67;fill:url(#SVGID_00000106147777937100340930000005948411497881485993_);}
	.st90{fill:url(#SVGID_00000128446803862361821070000006477104953010893746_);}
	.st91{opacity:0.67;fill:url(#SVGID_00000085970031070895201870000005335726088421607608_);}
	.st92{fill:url(#SVGID_00000158018582662375894150000012804008198496468925_);}
	.st93{opacity:0.67;fill:url(#SVGID_00000076575910272357109240000001858537263583521959_);}
	.st94{fill:url(#SVGID_00000121247777976302007860000013793473933324295845_);}
	.st95{opacity:0.67;fill:url(#SVGID_00000133517472619034218100000015738655580776747413_);}
	.st96{fill:url(#SVGID_00000090294492348520984040000014847758333629534879_);}
	.st97{fill:#1AD4B3;}
	.st98{opacity:0.67;fill:url(#SVGID_00000109023195336571829180000004687107184867487161_);}
	.st99{fill:url(#SVGID_00000035492307528192626800000012736755649734807477_);}
	.st100{opacity:0.67;fill:url(#SVGID_00000115500206215192505790000006324589190960170901_);}
	.st101{fill:url(#SVGID_00000173125888494159237280000008408429864791370143_);}
	.st102{opacity:0.67;fill:url(#SVGID_00000026146393022690779810000011116197276705122964_);}
	.st103{fill:url(#SVGID_00000156575803359673508510000012557522503819446715_);}
	
		.st104{fill-rule:evenodd;clip-rule:evenodd;fill:none;stroke:#FFFFFF;stroke-width:0.7384;stroke-linecap:round;stroke-linejoin:round;stroke-miterlimit:10;}
	.st105{opacity:0.67;fill:url(#SVGID_00000181057437491956482960000017823375437458008752_);}
	.st106{fill:url(#SVGID_00000070092101336390582170000014814385301285295752_);}
	.st107{opacity:0.67;fill:url(#SVGID_00000022547174595550639430000011001221980808416648_);}
	.st108{fill:url(#SVGID_00000088130431768915440290000006419031888277632916_);}
	.st109{opacity:0.67;fill:url(#SVGID_00000142153914239851838750000001705502567132171155_);}
	.st110{fill:url(#SVGID_00000044161520090662370980000017989477611914000051_);}
	.st111{opacity:0.67;fill:url(#SVGID_00000004526970740382426000000005569304961191810488_);}
	.st112{fill:url(#SVGID_00000136372579949173203770000005955008805337675914_);}
	.st113{opacity:0.67;fill:url(#SVGID_00000091736952388497816500000009426161745964051121_);}
	.st114{fill:url(#SVGID_00000088834039734350103750000010348588279322133417_);}
	.st115{opacity:0.67;fill:url(#SVGID_00000183932666652663270270000015108989236387947437_);}
	.st116{fill:url(#SVGID_00000155828055709880875810000017682456649805356685_);}
	.st117{opacity:0.67;fill:url(#SVGID_00000065755891448592981270000011136705202886387130_);}
	.st118{fill:url(#SVGID_00000083783762291397277170000010076610301160989361_);}
	.st119{opacity:0.67;fill:url(#SVGID_00000134247951864878854350000007752369093884685988_);}
	.st120{fill:url(#SVGID_00000117678754101598707310000012902823151899177094_);}
	.st121{opacity:0.67;fill:url(#SVGID_00000098919456136523612600000017936776905731756181_);}
	.st122{fill:url(#SVGID_00000021826358998694841520000006806235087891228088_);}
	.st123{opacity:0.67;fill:url(#SVGID_00000073710725500684206060000009631641065588516994_);}
	.st124{fill:url(#SVGID_00000093168339089441828690000006386735850417283490_);}
	.st125{opacity:0.67;fill:url(#SVGID_00000163787711532555871760000009806423464765703558_);}
	.st126{fill:url(#SVGID_00000102520202814045476720000006695729186597244345_);}
	.st127{opacity:0.67;fill:url(#SVGID_00000056393218184528003890000012046451094716024483_);}
	.st128{fill:#5EA6B9;}
	.st129{fill:url(#SVGID_00000062888744562573515840000005097400260085265046_);}
	.st130{fill-rule:evenodd;clip-rule:evenodd;fill:#545067;}
	.st131{fill-rule:evenodd;clip-rule:evenodd;fill:#AEAEB0;}
	.st132{fill-rule:evenodd;clip-rule:evenodd;fill:#D2D2D2;}
	.st133{opacity:0.67;fill:url(#SVGID_00000096023492677807302220000002978166517914773158_);}
	.st134{fill:url(#SVGID_00000106106453755049425400000011101553076088617617_);}
	.st135{fill-rule:evenodd;clip-rule:evenodd;fill:#63D0B3;}
	
		.st136{fill-rule:evenodd;clip-rule:evenodd;fill:none;stroke:#111422;stroke-linecap:round;stroke-linejoin:round;stroke-miterlimit:10;}
	.st137{fill-rule:evenodd;clip-rule:evenodd;fill:#E85C83;}
	.st138{fill:#5DC29D;}
	.st139{fill:url(#SVGID_00000168109345147502530890000000601392569648040600_);}
	.st140{fill:url(#SVGID_00000078758302022556903920000013778757559202125753_);}
	.st141{fill:#E85C83;}
	.st142{opacity:0.67;fill:url(#SVGID_00000105403514013149220010000015033469107317959311_);}
	.st143{fill:url(#SVGID_00000110428636560052101910000000495332691440473769_);}
	
		.st144{fill:none;stroke:url(#SVGID_00000166649577836566013620000004136184580435669633_);stroke-width:5;stroke-linecap:round;stroke-linejoin:round;stroke-miterlimit:10;}
	.st145{fill:url(#SVGID_00000108305045640856290400000007222137461101957817_);}
	.st146{opacity:0.67;fill:url(#SVGID_00000155125537478515277520000001896865032496135076_);}
	.st147{fill:url(#SVGID_00000053521680268845521490000011519802584957576869_);}
	.st148{opacity:0.67;fill:url(#SVGID_00000111893056366587554250000003045807572926385572_);}
	.st149{fill:url(#SVGID_00000025419047882540442770000012729829068317070217_);}
	.st150{opacity:0.67;fill:url(#SVGID_00000139288747136256208250000012125944989817265045_);}
	.st151{fill:url(#SVGID_00000007424713736652298350000012525512213237876367_);}
	.st152{opacity:0.67;fill:url(#SVGID_00000127760321552575560000000009802899278658703746_);}
	.st153{fill:url(#SVGID_00000124842315775205430260000005154930979792084870_);}
	.st154{opacity:0.67;fill:url(#SVGID_00000178897898975373949010000010528589682989222295_);}
	.st155{fill:url(#SVGID_00000071518674620184763620000000468955981809363111_);}
	.st156{opacity:0.67;fill:url(#SVGID_00000067929341746459914730000017906303207646645666_);}
	.st157{fill:url(#SVGID_00000018956909226073716290000002359122464177360013_);}
	.st158{fill:none;stroke:#000000;stroke-width:22;stroke-linecap:round;stroke-linejoin:round;stroke-miterlimit:10;}
	.st159{fill:#ECF0FC;}
	.st160{fill:url(#SVGID_00000174573811315379280950000009743940296205215384_);}
	.st161{fill:url(#SVGID_00000096048889775703213290000003653649461586544267_);}
	.st162{fill:none;stroke:url(#SVGID_00000140710468676874162900000004647991017905694905_);stroke-width:5;stroke-miterlimit:10;}
	.st163{fill:#111422;}
	.st164{fill:url(#SVGID_00000104696464039333779270000010418772282785296318_);}
	.st165{fill:none;}
	.st166{opacity:0.67;fill:url(#SVGID_00000083077269476451560000000018061212329288817306_);}
	.st167{fill:url(#SVGID_00000089558062559158903990000013932877755412854191_);}
	.st168{fill:none;stroke:url(#SVGID_00000075867039968611568870000000964428105966494115_);stroke-width:5;stroke-miterlimit:10;}
	.st169{fill:url(#SVGID_00000150785860548025864980000018057069175663008171_);}
	.st170{opacity:0.67;fill:url(#SVGID_00000056425270340415034980000003051690809060027325_);}
	.st171{fill:url(#SVGID_00000128456708439543623100000013572435445645154443_);}
	.st172{opacity:0.67;fill:url(#SVGID_00000011719447203213147650000008003711250122492321_);}
	.st173{fill:url(#SVGID_00000173156748235013182340000012015220867134356415_);}
</style>
<g>
	<g>
		
			<linearGradient id="SVGID_1_" gradientUnits="userSpaceOnUse" x1="1982.2153" y1="-2900.9553" x2="2028.3893" y2="-2900.9553" gradientTransform="matrix(0.763 0.4367 0 1 -1295.5995 2387.4224)">
			<stop  offset="0" style="stop-color:#B4509C"/>
			<stop  offset="1" style="stop-color:#54B8C5"/>
		</linearGradient>
		
			<polygon style="fill:none;stroke:url(#SVGID_1_);stroke-width:5;stroke-linecap:round;stroke-linejoin:round;stroke-miterlimit:10;" points="
			250.23,401 218.82,383.02 218.82,323.17 250.23,341.15 		"/>
	</g>
	<g>
		<polygon class="st1" points="250.23,400.66 218.82,382.68 218.82,322.83 250.23,340.81 		"/>
	</g>
	<g>
		<g>
			<path class="st0" d="M226.33,340.29l-1.5-0.86l-1.45-5.99l1.35,0.77l0.85,3.96l0.85-2.99l1.35,0.77L226.33,340.29z"/>
			<path class="st0" d="M231.47,342.58c-0.41,0.26-0.92,0.22-1.54-0.13c-0.61-0.35-1.13-0.89-1.54-1.63
				c-0.41-0.73-0.62-1.49-0.62-2.28c0-0.78,0.21-1.31,0.62-1.57c0.41-0.26,0.92-0.22,1.54,0.13s1.13,0.89,1.54,1.63
				c0.41,0.73,0.62,1.49,0.62,2.28C232.09,341.79,231.88,342.32,231.47,342.58z M229.25,340.31c0.18,0.35,0.4,0.6,0.68,0.76
				c0.28,0.16,0.51,0.17,0.68,0.02c0.18-0.15,0.26-0.4,0.26-0.77c0-0.37-0.09-0.72-0.26-1.07c-0.18-0.35-0.4-0.6-0.68-0.76
				c-0.28-0.16-0.51-0.17-0.68-0.02c-0.18,0.15-0.26,0.4-0.26,0.77C228.99,339.6,229.08,339.96,229.25,340.31z"/>
			<path class="st0" d="M234.55,345l-1.19-0.68v-3.8l-1.06-0.6v-1.36l3.3,1.89v1.36l-1.05-0.6V345z"/>
			<path class="st0" d="M237.22,346.52l-1.19-0.68v-5.16l1.19,0.68V346.52z"/>
			<path class="st0" d="M241.65,349.06l-1.15-0.66l-1.45-3.45v2.62l-1.19-0.68v-5.16l1.23,0.7l1.37,3.23v-2.45l1.19,0.68V349.06z"/>
			<path class="st0" d="M244.24,350.63c-0.61-0.35-1.13-0.89-1.54-1.61c-0.42-0.73-0.62-1.49-0.62-2.29c0-0.8,0.21-1.33,0.62-1.58
				c0.42-0.25,0.93-0.2,1.54,0.15c0.43,0.25,0.79,0.58,1.08,1.01c0.29,0.42,0.5,0.87,0.65,1.33l-1,0.1
				c-0.06-0.21-0.16-0.42-0.29-0.62c-0.13-0.2-0.27-0.35-0.44-0.44c-0.28-0.16-0.51-0.17-0.69-0.02c-0.18,0.15-0.27,0.4-0.27,0.77
				c0,0.37,0.09,0.72,0.27,1.07c0.18,0.35,0.41,0.6,0.69,0.77c0.11,0.06,0.22,0.11,0.34,0.13c0.12,0.02,0.21,0.02,0.27-0.01v-0.19
				l-0.73-0.42v-1.36l1.92,1.1v2.11C245.56,351.04,244.96,351.05,244.24,350.63z"/>
			<path class="st0" d="M225.11,346.97l-1.25-0.72v-5.43l2.21,1.26c0.47,0.27,0.83,0.65,1.1,1.16c0.26,0.51,0.39,1.02,0.39,1.56
				c0,0.53-0.13,0.89-0.39,1.1c-0.26,0.2-0.63,0.17-1.1-0.09l-0.96-0.55V346.97z M225.9,344.28c0.11,0.06,0.2,0.08,0.27,0.05
				c0.07-0.03,0.11-0.12,0.11-0.25c0-0.14-0.04-0.27-0.11-0.38c-0.07-0.11-0.16-0.2-0.27-0.27l-0.79-0.45v0.85L225.9,344.28z"/>
			<path class="st0" d="M231.62,350.01c-0.43,0.28-0.97,0.23-1.62-0.14c-0.65-0.37-1.18-0.94-1.62-1.71
				c-0.43-0.77-0.65-1.57-0.65-2.39c0-0.82,0.22-1.37,0.65-1.65c0.43-0.28,0.97-0.23,1.62,0.14c0.65,0.37,1.18,0.94,1.62,1.71
				c0.43,0.77,0.65,1.57,0.65,2.39C232.27,349.18,232.05,349.73,231.62,350.01z M229.29,347.62c0.18,0.37,0.42,0.63,0.72,0.8
				c0.29,0.17,0.53,0.17,0.72,0.02c0.18-0.16,0.28-0.42,0.28-0.81c0-0.39-0.09-0.76-0.28-1.13c-0.18-0.37-0.42-0.63-0.72-0.8
				c-0.29-0.17-0.53-0.17-0.72-0.02c-0.18,0.15-0.28,0.42-0.28,0.81C229.01,346.88,229.1,347.25,229.29,347.62z"/>
			<path class="st0" d="M237.19,353.88l-1.32-0.75l-0.53-3.38l-0.53,2.77l-1.32-0.75l-1.19-6.1l1.4,0.8l0.53,3.62l0.63-2.96
				l0.94,0.54l0.63,3.68l0.53-3.02l1.41,0.81L237.19,353.88z"/>
			<path class="st0" d="M241.78,356.51l-3.14-1.8v-5.43l3.14,1.8v1.43l-1.89-1.08v0.54l1.84,1.05v1.43l-1.84-1.05V354l1.89,1.08
				V356.51z"/>
			<path class="st0" d="M246.04,358.95l-1.43-0.82l-0.57-2.03l-0.45-0.26v1.71l-1.25-0.72v-5.43l2.21,1.26
				c0.47,0.27,0.83,0.65,1.1,1.16c0.26,0.51,0.39,1.02,0.39,1.56c0,0.42-0.07,0.73-0.22,0.92c-0.15,0.19-0.32,0.29-0.52,0.3
				L246.04,358.95z M244.35,354.84c0.12,0.07,0.21,0.09,0.29,0.06c0.08-0.03,0.12-0.11,0.12-0.25c0-0.14-0.04-0.26-0.12-0.38
				c-0.08-0.12-0.18-0.21-0.29-0.28l-0.76-0.44v0.85L244.35,354.84z"/>
		</g>
	</g>
	
		<linearGradient id="SVGID_00000035495363394121324040000008403813442577279159_" gradientUnits="userSpaceOnUse" x1="2014.6169" y1="-2883.5762" x2="1996.0269" y2="-2899.2178" gradientTransform="matrix(0.763 0.4367 0 1 -1295.5995 2387.4224)">
		<stop  offset="0" style="stop-color:#C1489F"/>
		<stop  offset="1" style="stop-color:#55BAC7"/>
	</linearGradient>
	<path style="fill:url(#SVGID_00000035495363394121324040000008403813442577279159_);" d="M234.53,359.13
		c-5.26-3.01-9.53,0.14-9.53,7.04s4.27,14.94,9.53,17.95c5.26,3.01,9.53-0.14,9.53-7.04C244.06,370.18,239.79,362.14,234.53,359.13z
		 M238.58,379.78c-0.1,0.09-0.25,0.07-0.43-0.03c-0.12-0.07-0.23-0.19-0.33-0.34c-0.1-0.15-0.17-0.33-0.23-0.52l-3.07-11.75
		l-1.13,3.03l0.55,0.31c0.32,0.18,0.58,0.67,0.58,1.09v0.02c0,0.41-0.26,0.61-0.58,0.43l-1.02-0.58l-1.47,3.95
		c-0.05,0.13-0.13,0.22-0.23,0.25c-0.09,0.04-0.21,0.02-0.33-0.05c-0.18-0.1-0.33-0.26-0.43-0.46c-0.1-0.2-0.16-0.42-0.16-0.66
		c0-0.1,0.01-0.19,0.04-0.27l1.34-3.47l-0.57-0.33c-0.32-0.18-0.58-0.67-0.58-1.09v-0.01c0-0.41,0.26-0.61,0.58-0.43l1.06,0.61
		l1.4-3.65c0.18-0.43,0.45-0.53,0.81-0.33l0.28,0.16c0.35,0.2,0.63,0.62,0.81,1.25l3.22,12.06c0.03,0.11,0.04,0.21,0.04,0.32
		C238.74,379.54,238.68,379.7,238.58,379.78z"/>
</g>
<g>
	<g>
		<polygon class="st3" points="154.65,145.58 37.3,212.62 37.3,275.37 154.65,208.33 		"/>
		<polygon class="st42" points="21.92,203.92 37.3,212.24 37.3,275.37 21.92,267.05 		"/>
		<polygon class="st4" points="154.65,145.58 138.12,136.85 21.92,203.92 37.3,212.24 		"/>
	</g>
	<g>
		<g>
			<polygon class="st2" points="146.36,176.33 48.27,233.49 48.27,225.81 146.36,168.65 			"/>
			<polygon class="st3" points="145.53,175.67 48.88,232.11 48.87,225.75 145.52,169.31 			"/>
			<polygon class="st18" points="118.36,190.87 48.51,231.79 48.51,226.56 118.35,185.81 			"/>
		</g>
		<g>
			<polygon class="st2" points="146.36,191.96 48.27,249.12 48.27,241.44 146.36,184.28 			"/>
			<polygon class="st3" points="145.53,191.4 48.27,248.11 48.26,241.75 145.52,185.04 			"/>
			<polygon class="st19" points="139.77,194.22 48.49,247.37 48.48,242.23 139.76,189.07 			"/>
		</g>
	</g>
</g>
<g>
	<g>
		<polygon class="st3" points="154.65,70.92 37.3,137.96 37.3,200.71 154.65,133.67 		"/>
		<polygon class="st33" points="21.92,129.26 37.3,137.58 37.3,200.71 21.92,192.39 		"/>
		<polygon class="st4" points="154.65,70.92 138.12,62.19 21.92,129.26 37.3,137.58 		"/>
	</g>
	<g>
		<g>
			<polygon class="st2" points="146.36,101.67 48.27,158.83 48.27,151.15 146.36,93.99 			"/>
			<polygon class="st3" points="145.53,101.01 48.88,157.45 48.87,151.09 145.52,94.65 			"/>
			<polygon class="st18" points="118.36,116.21 48.51,157.13 48.51,151.9 118.35,111.15 			"/>
		</g>
		<g>
			<polygon class="st2" points="146.36,117.3 48.27,174.46 48.27,166.78 146.36,109.62 			"/>
			<polygon class="st3" points="145.53,116.74 48.27,173.45 48.26,167.09 145.52,110.38 			"/>
			<polygon class="st19" points="88.19,149.49 48.49,172.71 48.48,167.57 88.18,144.34 			"/>
		</g>
	</g>
</g>
<g>
	<polygon class="st2" points="206.39,483.4 188.76,473.22 188.76,455.59 206.39,465.77 	"/>
	<polygon class="st3" points="206.39,483.4 224.02,473.22 224.02,455.59 206.39,465.77 	"/>
	<polygon class="st4" points="206.46,465.82 188.76,455.61 206.33,445.37 224.02,455.59 	"/>
	<path id="矩形_00000134223625201386197550000013592830043926214535_" class="st5" d="M200.87,451.1L200.87,451.1
		c0.35,0.2,0.29,0.58-0.12,0.82l-3.66,2.17c-0.41,0.24-1.06,0.29-1.41,0.09l0,0c-0.35-0.2-0.29-0.58,0.12-0.82l3.66-2.17
		C199.87,450.94,200.52,450.9,200.87,451.1z"/>
	<path id="矩形_00000092415190126928752520000007818981323842384034_" class="st5" d="M194.77,454.64L194.77,454.64
		c0.35,0.2,0.29,0.58-0.12,0.82l-0.71,0.42c-0.41,0.24-1.06,0.29-1.41,0.09l0,0c-0.35-0.2-0.29-0.58,0.12-0.82l0.71-0.42
		C193.81,454.46,194.43,454.44,194.77,454.64z"/>
</g>
<g>
	<polygon class="st2" points="240.35,483.4 222.72,473.22 222.72,455.59 240.35,465.77 	"/>
	<polygon class="st3" points="240.35,483.4 257.98,473.22 257.98,455.59 240.35,465.77 	"/>
	<polygon class="st4" points="240.42,465.82 222.72,455.61 240.29,445.37 257.99,455.59 	"/>
	<path id="矩形_00000151531626959249068850000013261281787584998588_" class="st5" d="M234.83,451.1L234.83,451.1
		c0.35,0.2,0.29,0.58-0.12,0.82l-3.66,2.17c-0.41,0.24-1.06,0.29-1.41,0.09l0,0c-0.35-0.2-0.29-0.58,0.12-0.82l3.66-2.17
		C233.83,450.94,234.48,450.9,234.83,451.1z"/>
	<path id="矩形_00000107574555858713476850000007010650395926493605_" class="st5" d="M228.74,454.64L228.74,454.64
		c0.35,0.2,0.29,0.58-0.12,0.82l-0.71,0.42c-0.41,0.24-1.06,0.29-1.41,0.09l0,0c-0.35-0.2-0.29-0.58,0.12-0.82l0.71-0.42
		C227.77,454.46,228.39,454.44,228.74,454.64z"/>
</g>
<g>
	<polygon class="st2" points="222.72,456.01 205.09,445.83 205.09,428.2 222.72,438.38 	"/>
	<polygon class="st3" points="222.72,456.01 240.35,445.83 240.35,428.2 222.72,438.38 	"/>
	<polygon class="st4" points="222.79,438.43 205.09,428.22 222.66,417.98 240.35,428.2 	"/>
	<path id="矩形_00000150785586514549414370000009254289365450042790_" class="st5" d="M217.2,423.71L217.2,423.71
		c0.35,0.2,0.29,0.58-0.12,0.82l-3.66,2.17c-0.41,0.24-1.06,0.29-1.41,0.09l0,0c-0.35-0.2-0.29-0.58,0.12-0.82l3.66-2.17
		C216.2,423.55,216.85,423.51,217.2,423.71z"/>
	<path id="矩形_00000043452159041316537820000009548250516351736765_" class="st5" d="M211.11,427.24L211.11,427.24
		c0.35,0.2,0.29,0.58-0.12,0.82l-0.71,0.42c-0.41,0.24-1.06,0.29-1.41,0.09l0,0c-0.35-0.2-0.29-0.58,0.12-0.82l0.71-0.42
		C210.14,427.07,210.76,427.05,211.11,427.24z"/>
</g>
<g>
	<g>
		<g>
			<g>
				<polygon class="st3" points="254.62,309.65 160.39,255.34 160.39,220.94 254.62,275.26 				"/>
				<polygon class="st2" points="254.62,309.65 271.88,300.61 271.88,266.22 254.62,275.26 				"/>
				<polygon class="st4" points="254.74,275.37 160.39,220.98 177.52,211.83 271.88,266.22 				"/>
			</g>
		</g>
	</g>
	<g>
		<g>
			<path class="st0" d="M166.92,249.4V232.1l5.4,3.05c1.04,0.59,1.92,1.34,2.65,2.25c0.73,0.91,1.29,1.92,1.68,3.02
				c0.39,1.1,0.58,2.22,0.58,3.37c0,1.15-0.2,2.05-0.59,2.71c-0.39,0.66-0.96,1.02-1.7,1.09c-0.74,0.07-1.64-0.19-2.69-0.78
				l-3.44-1.95v-2.93l2.98,1.68c0.56,0.31,1.02,0.45,1.38,0.41c0.36-0.04,0.64-0.23,0.82-0.56c0.18-0.34,0.27-0.79,0.27-1.35
				c0-0.58-0.09-1.13-0.27-1.66c-0.18-0.53-0.45-1.02-0.82-1.47c-0.37-0.45-0.83-0.83-1.39-1.15l-1.95-1.1v14.32L166.92,249.4z"/>
			<path class="st0" d="M179.06,256.27v-12.98l2.76,1.56v2.26l0.11,0.06c0.19-0.7,0.5-1.13,0.94-1.3c0.44-0.16,0.95-0.09,1.52,0.24
				c0.14,0.08,0.3,0.18,0.46,0.29c0.17,0.12,0.31,0.23,0.44,0.34v3.19c-0.13-0.13-0.32-0.28-0.56-0.45
				c-0.24-0.17-0.45-0.32-0.65-0.43c-0.42-0.24-0.79-0.33-1.12-0.29c-0.33,0.04-0.59,0.21-0.78,0.51c-0.19,0.3-0.28,0.71-0.28,1.24
				v7.34L179.06,256.27z"/>
			<path class="st0" d="M190.92,263.22c-1.04-0.59-1.94-1.37-2.69-2.36c-0.76-0.99-1.34-2.1-1.75-3.34
				c-0.41-1.24-0.61-2.52-0.61-3.85c0-1.34,0.2-2.4,0.61-3.17c0.41-0.77,0.99-1.23,1.75-1.36c0.76-0.13,1.65,0.09,2.69,0.68
				c1.04,0.59,1.94,1.38,2.69,2.36c0.76,0.99,1.34,2.1,1.75,3.34c0.41,1.24,0.62,2.53,0.62,3.87c0,1.33-0.2,2.38-0.62,3.15
				c-0.41,0.77-0.99,1.23-1.75,1.36C192.86,264.03,191.96,263.8,190.92,263.22z M190.93,260.44c0.47,0.27,0.87,0.32,1.18,0.16
				c0.32-0.16,0.56-0.49,0.72-0.99c0.16-0.5,0.24-1.13,0.24-1.88c0-0.75-0.08-1.47-0.24-2.16s-0.4-1.29-0.72-1.81
				c-0.32-0.52-0.71-0.92-1.18-1.18c-0.48-0.27-0.88-0.32-1.2-0.16c-0.32,0.16-0.57,0.49-0.73,0.99c-0.16,0.5-0.24,1.13-0.24,1.88
				s0.08,1.47,0.24,2.16c0.16,0.68,0.41,1.29,0.73,1.81C190.06,259.77,190.46,260.17,190.93,260.44z"/>
			<path class="st0" d="M197.84,271.74v-17.85l2.81,1.59v2.18l0.13,0.07c0.12-0.28,0.31-0.53,0.54-0.76
				c0.24-0.23,0.55-0.36,0.94-0.38c0.39-0.03,0.87,0.12,1.44,0.45c0.75,0.42,1.44,1.06,2.07,1.91c0.63,0.85,1.14,1.88,1.52,3.08
				c0.38,1.2,0.57,2.55,0.57,4.04c0,1.45-0.18,2.56-0.55,3.35c-0.37,0.79-0.87,1.26-1.5,1.41c-0.63,0.15-1.34,0.01-2.12-0.43
				c-0.55-0.31-1.02-0.69-1.41-1.14c-0.39-0.45-0.7-0.92-0.95-1.41c-0.24-0.49-0.43-0.95-0.56-1.39l-0.09-0.05v6.95L197.84,271.74z
				 M200.63,261.96c0,0.77,0.08,1.49,0.25,2.16c0.17,0.67,0.41,1.26,0.74,1.75c0.32,0.5,0.71,0.88,1.17,1.14
				c0.46,0.26,0.86,0.32,1.18,0.18c0.32-0.14,0.56-0.46,0.73-0.94c0.17-0.48,0.25-1.1,0.25-1.86c0-0.75-0.08-1.45-0.25-2.12
				c-0.17-0.66-0.41-1.25-0.73-1.75c-0.32-0.5-0.72-0.89-1.18-1.15c-0.46-0.26-0.86-0.33-1.17-0.2c-0.32,0.13-0.56,0.43-0.73,0.9
				C200.71,260.56,200.63,261.19,200.63,261.96z"/>
			<path class="st0" d="M214.39,276.48c-1.04-0.59-1.94-1.37-2.69-2.36c-0.76-0.99-1.34-2.1-1.75-3.34
				c-0.41-1.24-0.61-2.52-0.61-3.85c0-1.34,0.2-2.4,0.61-3.17c0.41-0.77,0.99-1.23,1.75-1.36c0.76-0.13,1.65,0.09,2.69,0.68
				c1.04,0.59,1.94,1.38,2.69,2.36c0.76,0.99,1.34,2.1,1.75,3.34c0.41,1.24,0.62,2.53,0.62,3.87c0,1.33-0.2,2.38-0.62,3.15
				c-0.41,0.77-0.99,1.23-1.75,1.36C216.33,277.29,215.43,277.06,214.39,276.48z M214.4,273.7c0.47,0.27,0.87,0.32,1.18,0.16
				c0.32-0.16,0.56-0.49,0.72-0.99c0.16-0.5,0.24-1.13,0.24-1.88c0-0.75-0.08-1.47-0.24-2.16c-0.16-0.68-0.4-1.29-0.72-1.81
				c-0.32-0.52-0.71-0.92-1.18-1.18c-0.48-0.27-0.88-0.32-1.2-0.16c-0.32,0.16-0.57,0.49-0.73,0.99c-0.16,0.5-0.24,1.13-0.24,1.88
				c0,0.76,0.08,1.47,0.24,2.16c0.16,0.68,0.41,1.29,0.73,1.81C213.53,273.03,213.93,273.43,214.4,273.7z"/>
			<path class="st0" d="M229.85,275.68l-2.61-1.27c-0.04-0.31-0.14-0.62-0.29-0.93c-0.15-0.31-0.34-0.6-0.58-0.88
				c-0.24-0.27-0.52-0.5-0.85-0.69c-0.44-0.25-0.81-0.34-1.12-0.28c-0.3,0.06-0.45,0.29-0.45,0.68c0,0.31,0.1,0.63,0.29,0.95
				c0.2,0.33,0.53,0.69,1.01,1.08l1.86,1.52c1,0.82,1.74,1.66,2.23,2.51c0.49,0.85,0.74,1.75,0.74,2.68c0,0.85-0.2,1.48-0.59,1.9
				c-0.39,0.42-0.93,0.61-1.62,0.59c-0.69-0.03-1.47-0.3-2.36-0.8c-1.36-0.77-2.44-1.74-3.25-2.91c-0.8-1.17-1.28-2.42-1.41-3.74
				l2.8,1.4c0.08,0.57,0.29,1.09,0.61,1.54c0.33,0.46,0.74,0.83,1.25,1.12c0.5,0.28,0.9,0.39,1.21,0.31c0.3-0.07,0.46-0.3,0.46-0.69
				c0-0.33-0.11-0.66-0.33-0.99c-0.21-0.33-0.54-0.68-0.99-1.04l-1.78-1.45c-1-0.82-1.75-1.68-2.24-2.58
				c-0.49-0.9-0.73-1.84-0.73-2.8c0-0.83,0.18-1.45,0.54-1.85c0.36-0.4,0.86-0.58,1.52-0.54c0.65,0.04,1.42,0.31,2.3,0.81
				c1.3,0.73,2.32,1.66,3.07,2.77C229.29,273.23,229.73,274.42,229.85,275.68z"/>
			<path class="st0" d="M234.82,288.01c-0.66-0.37-1.24-0.85-1.75-1.43c-0.51-0.58-0.92-1.24-1.21-1.98
				c-0.3-0.74-0.44-1.54-0.44-2.39c0-0.72,0.1-1.27,0.31-1.64c0.21-0.37,0.49-0.6,0.86-0.7c0.36-0.09,0.77-0.09,1.24,0.02
				c0.46,0.11,0.95,0.27,1.45,0.5c0.6,0.26,1.08,0.46,1.44,0.59c0.36,0.14,0.63,0.18,0.8,0.13c0.17-0.05,0.25-0.21,0.25-0.49v-0.05
				c0-0.53-0.13-1.02-0.4-1.47c-0.27-0.44-0.64-0.8-1.13-1.08c-0.51-0.29-0.92-0.38-1.22-0.26c-0.3,0.11-0.5,0.36-0.6,0.73
				l-2.64-1.76c0.13-0.71,0.4-1.25,0.79-1.6c0.39-0.36,0.9-0.51,1.52-0.48c0.62,0.04,1.34,0.29,2.16,0.75
				c0.57,0.32,1.12,0.72,1.64,1.18c0.52,0.46,0.99,0.99,1.4,1.57c0.41,0.59,0.73,1.22,0.97,1.91c0.24,0.69,0.35,1.42,0.35,2.19v8.75
				l-2.7-1.53v-1.8l-0.08-0.05c-0.17,0.31-0.39,0.54-0.66,0.69c-0.28,0.15-0.61,0.2-1,0.16
				C235.77,288.46,235.33,288.3,234.82,288.01z M235.63,285.98c0.42,0.24,0.79,0.34,1.11,0.31c0.32-0.03,0.57-0.17,0.76-0.43
				c0.18-0.26,0.27-0.61,0.27-1.07v-1.38c-0.09,0.02-0.21,0.02-0.36-0.01c-0.15-0.03-0.33-0.07-0.52-0.13
				c-0.19-0.06-0.38-0.13-0.58-0.2c-0.19-0.07-0.37-0.14-0.52-0.2c-0.33-0.13-0.63-0.19-0.88-0.2c-0.25-0.01-0.44,0.07-0.58,0.22
				c-0.14,0.15-0.21,0.39-0.21,0.73c0,0.49,0.14,0.94,0.43,1.36C234.84,285.41,235.2,285.74,235.63,285.98z"/>
			<path class="st0" d="M245.66,276.59v17.31l-2.85-1.61v-17.31L245.66,276.59z"/>
		</g>
	</g>
</g>
<g>
	<path id="矩形_00000065760141120277721960000007407733692327023493_" class="st14" d="M176.94,398.1L176.94,398.1
		c0.62,0,1.15,0.76,1.15,1.64v1.52c0,0.88-0.53,1.64-1.15,1.64l0,0c-0.62,0-1.15-0.76-1.15-1.64v-1.52
		C175.79,398.8,176.32,398.1,176.94,398.1z"/>
	
		<radialGradient id="SVGID_00000051374993451976895050000007878588010807576456_" cx="145.3976" cy="432.2309" r="29.1582" gradientTransform="matrix(1 0 0 0.5898 0 177.3041)" gradientUnits="userSpaceOnUse">
		<stop  offset="0" style="stop-color:#B8B3D4"/>
		<stop  offset="0.3457" style="stop-color:#BAB6D6;stop-opacity:0.6543"/>
		<stop  offset="0.6064" style="stop-color:#C2C0DA;stop-opacity:0.3936"/>
		<stop  offset="0.8384" style="stop-color:#D0D0E3;stop-opacity:0.1616"/>
		<stop  offset="1" style="stop-color:#DDE0EB;stop-opacity:0"/>
	</radialGradient>
	<path style="opacity:0.67;fill:url(#SVGID_00000051374993451976895050000007878588010807576456_);" d="M170.4,418.16
		c-13.68-7.9-35.96-8-49.77-0.23s-13.91,20.48-0.23,28.37s35.96,8,49.77,0.23C183.97,438.76,184.07,426.05,170.4,418.16z"/>
	<g>
		<path class="st81" d="M183.9,382.13v-49.28c0-0.23,0.02-0.45,0.02-0.68c0-22.91-18.57-41.48-41.48-41.48
			c-22.91,0-41.48,18.57-41.48,41.48c0,0.36,0.02,0.72,0.03,1.07v44.66h-0.03v22.67c0,2.84,2.3,5.15,5.15,5.15
			c2.84,0,5.15-2.31,5.15-5.15v-0.83c0.56,0.36,1.13,0.72,1.74,1.07c1.83,1.06,3.79,1.99,5.85,2.81v8.2c0,2.84,2.3,5.15,5.15,5.15
			s5.15-2.31,5.15-5.15v-5.23c2.95,0.57,5.99,0.96,9.06,1.14v12.59c0,2.84,2.3,5.15,5.15,5.15s5.15-2.31,5.15-5.15v-12.7
			c3.39-0.28,6.73-0.8,9.93-1.55v6.36c0,2.84,2.3,5.15,5.15,5.15s5.15-2.31,5.15-5.15v-9.87c1-0.47,1.97-0.96,2.91-1.49
			c0.7-0.39,1.35-0.8,1.99-1.21v0.71c0,2.84,2.3,5.15,5.15,5.15c2.84,0,5.15-2.31,5.15-5.15v-18.45H183.9z"/>
		
			<radialGradient id="SVGID_00000096029395704356119210000003125856655489159860_" cx="167.1203" cy="308.1102" r="106.6854" gradientUnits="userSpaceOnUse">
			<stop  offset="0.0124" style="stop-color:#DD78CE"/>
			<stop  offset="0.4936" style="stop-color:#A7589A"/>
			<stop  offset="0.5829" style="stop-color:#A0619E"/>
			<stop  offset="0.7273" style="stop-color:#8E79A8"/>
			<stop  offset="0.9078" style="stop-color:#709FB9"/>
			<stop  offset="1" style="stop-color:#5EB6C3"/>
		</radialGradient>
		<path style="fill:url(#SVGID_00000096029395704356119210000003125856655489159860_);" d="M183.9,382.13v-49.28
			c0-0.23,0.02-0.45,0.02-0.68c0-22.91-18.57-41.48-41.48-41.48c-22.91,0-41.48,18.57-41.48,41.48c0,0.36,0.02,0.72,0.03,1.07v44.66
			h-0.03v22.67c0,2.84,2.3,5.15,5.15,5.15c2.84,0,5.15-2.31,5.15-5.15v-0.83c0.56,0.36,1.13,0.72,1.74,1.07
			c1.83,1.06,3.79,1.99,5.85,2.81v8.2c0,2.84,2.3,5.15,5.15,5.15s5.15-2.31,5.15-5.15v-5.23c2.95,0.57,5.99,0.96,9.06,1.14v12.59
			c0,2.84,2.3,5.15,5.15,5.15s5.15-2.31,5.15-5.15v-12.7c3.39-0.28,6.73-0.8,9.93-1.55v6.36c0,2.84,2.3,5.15,5.15,5.15
			s5.15-2.31,5.15-5.15v-9.87c1-0.47,1.97-0.96,2.91-1.49c0.7-0.39,1.35-0.8,1.99-1.21v0.71c0,2.84,2.3,5.15,5.15,5.15
			c2.84,0,5.15-2.31,5.15-5.15v-18.45H183.9z"/>
	</g>
	<path id="矩形_00000135662615516335853820000013503481338508305056_" class="st14" d="M104.85,368.29L104.85,368.29
		c1.12,0,2.09,1.38,2.09,2.99v14.25c0,1.61-0.96,2.99-2.09,2.99l0,0c-1.12,0-2.09-1.38-2.09-2.99v-14.25
		C102.76,369.67,103.72,368.29,104.85,368.29z"/>
	<path id="矩形_00000096780912262939275280000004055985941155579037_" class="st14" d="M166.15,305.2L166.15,305.2
		c1.37-1.02,3.68-0.37,5.02,1.41l2.29,3.06c1.34,1.78,1.31,4.19-0.06,5.22l0,0c-1.37,1.02-3.68,0.37-5.02-1.41l-2.29-3.06
		C164.66,308.5,164.78,306.22,166.15,305.2z"/>
	<path id="矩形_00000176028396065896742730000011228679040670641055_" class="st14" d="M122.25,404.87L122.25,404.87
		c1.12,0,2.09,1.38,2.09,2.99v2.76c0,1.61-0.96,2.99-2.09,2.99l0,0c-1.12,0-2.09-1.38-2.09-2.99v-2.76
		C120.16,406.14,121.12,404.87,122.25,404.87z"/>
	<path id="矩形_00000149345473496445934800000010644015215004940459_" class="st14" d="M104.85,393.16L104.85,393.16
		c1.12,0,2.09,1.38,2.09,2.99v2.76c0,1.61-0.96,2.99-2.09,2.99l0,0c-1.12,0-2.09-1.38-2.09-2.99v-2.76
		C102.76,394.42,103.72,393.16,104.85,393.16z"/>
	<path id="矩形_00000045613586500521864700000003423628338764778627_" class="st14" d="M142.43,413.61L142.43,413.61
		c1.12,0,2.09,1.38,2.09,2.99v2.76c0,1.61-0.96,2.99-2.09,2.99l0,0c-1.12,0-2.09-1.38-2.09-2.99v-2.76
		C140.35,414.88,141.31,413.61,142.43,413.61z"/>
	<path id="矩形_00000109023347188982839510000005334169241393400470_" class="st14" d="M162.14,408.27L162.14,408.27
		c0.89,0,1.66,1.1,1.66,2.37v2.19c0,1.28-0.76,2.37-1.66,2.37l0,0c-0.89,0-1.66-1.1-1.66-2.37v-2.19
		C160.48,409.27,161.24,408.27,162.14,408.27z"/>
	<g>
		<path id="椭圆形_00000010998484129393030280000008043876928667707833_" class="st83" d="M144.56,347.3
			c4-0.17,6.99-3.61,6.99-5.91c0-0.92-0.55-1.73-1.36-1.79c-1.27-0.13-3.18,0.69-5.63,0.79c-2.27,0.09-3.72-0.49-5.45-0.42
			c-1.82,0.08-1.72,2.19-1.45,3.01C138.29,345.26,140.47,347.47,144.56,347.3z"/>
		<path id="椭圆形_00000169531313214462736900000011981511527900954021_" class="st84" d="M144.64,345.36
			c4.09-0.17,7.08-3.33,7.08-5.54c0-0.83-0.54-1.54-1.36-1.6c-1.27-0.13-3.27,0.69-5.72,0.79c-2.36,0.1-3.72-0.49-5.54-0.42
			c-1.82,0.07-1.73,2.1-1.45,2.82C138.28,343.5,140.55,345.53,144.64,345.36z"/>
	</g>
	<g>
		
			<ellipse transform="matrix(0.5671 -0.8237 0.8237 0.5671 -211.6703 245.6787)" class="st84" cx="127.87" cy="324.19" rx="9.36" ry="8.96"/>
		<path id="形状结合_00000096023715732755453380000018182519851205011611_" class="st85" d="M129.05,314.38
			c4.18-0.17,7.54,3.92,7.55,9.08c0,0.18,0,0.37,0,0.55l0,0.55c0-5.25-3.28-9.44-7.36-9.27c-4.09,0.17-7.35,4.54-7.35,9.89
			c0,1.01,0.09,2.02,0.37,2.93c-0.46-1.18-0.73-2.55-0.73-3.93C121.51,318.93,124.87,314.55,129.05,314.38z"/>
		<path id="形状结合_00000087373516281432697200000010851721812422429583_" class="st86" d="M129.04,313.27
			c4.63-0.19,8.45,4.35,8.45,10.15c0.01,5.8-3.8,10.66-8.43,10.85c-4.63,0.19-8.45-4.35-8.45-10.15
			C120.6,318.32,124.32,313.47,129.04,313.27z M129.05,314.38c-4.18,0.17-7.53,4.55-7.53,9.71c0,5.16,3.37,9.26,7.55,9.08
			c4.18-0.17,7.53-4.55,7.53-9.71C136.59,318.3,133.13,314.21,129.05,314.38z"/>
	</g>
	<g>
		
			<ellipse transform="matrix(0.5671 -0.8237 0.8237 0.5671 -197.4544 270.0066)" class="st84" cx="158.12" cy="322.83" rx="9.36" ry="8.96"/>
		<path id="形状结合_00000141435561444678269870000015106674988207610780_" class="st85" d="M159.1,313.03
			c4.18-0.17,7.54,3.92,7.55,9.08c0,0.18,0,0.37,0,0.55l0,0.55c0-5.25-3.28-9.44-7.36-9.27s-7.35,4.54-7.35,9.89
			c0,1.01,0.09,2.02,0.37,2.93c-0.46-1.18-0.73-2.55-0.73-3.93C151.56,317.58,154.92,313.2,159.1,313.03z"/>
		<path id="形状结合_00000018205315481854030610000017478050138725086651_" class="st86" d="M159.09,311.92
			c4.63-0.19,8.45,4.35,8.45,10.15c0.01,5.8-3.8,10.66-8.43,10.85c-4.63,0.19-8.45-4.35-8.45-10.15
			C150.65,316.97,154.37,312.12,159.09,311.92z M159.1,313.03c-4.18,0.17-7.53,4.55-7.53,9.71c0,5.16,3.37,9.26,7.55,9.08
			s7.53-4.55,7.53-9.71C166.64,316.95,163.18,312.85,159.1,313.03z"/>
	</g>
	<circle class="st83" cx="126.07" cy="321.8" r="3.71"/>
	<circle class="st83" cx="156.15" cy="320.68" r="3.71"/>
</g>
<g>
	<g>
		<path class="st1" d="M62.34,323.93c-4.1,0-7.96-1.6-10.86-4.5c-2.9-2.9-4.5-6.76-4.5-10.86s1.6-7.96,4.5-10.86l0.18-0.17l15.99-16
			c1.03-1.04,2.53-1.6,4.34-1.6c0.96,0,2.01,0.16,3.11,0.46c6.7,1.87,13.6,8.84,15.4,15.54c0.84,3.13,0.43,5.72-1.13,7.31
			l-0.26,0.26l-15.62,15.62l-0.28,0.3C70.3,322.33,66.44,323.93,62.34,323.93z"/>
		<path class="st138" d="M71.99,280.31c0.93,0,1.94,0.15,3.01,0.45c6.58,1.84,13.38,8.69,15.14,15.28c0.8,3,0.43,5.47-1.04,6.96
			l-0.19,0.2l-15.7,15.7l-0.09,0.1c-0.06,0.06-0.11,0.12-0.18,0.18c-2.83,2.83-6.6,4.39-10.6,4.39c-4.01,0-7.77-1.56-10.6-4.39
			c-2.83-2.83-4.39-6.6-4.39-10.6s1.56-7.77,4.39-10.6l0.09-0.09l0.09-0.09l15.99-15.99C68.87,280.83,70.28,280.31,71.99,280.31
			 M71.99,279.57c-1.95,0-3.52,0.61-4.6,1.7l-15.99,16c-0.06,0.06-0.12,0.11-0.18,0.18c-6.14,6.14-6.14,16.11,0,22.25
			c3.07,3.07,7.1,4.61,11.12,4.61c4.03,0,8.05-1.54,11.12-4.61c0.1-0.1,0.19-0.2,0.28-0.3l15.88-15.88l0,0
			c1.6-1.61,2.13-4.29,1.23-7.67c-1.83-6.82-8.84-13.89-15.65-15.8C74.04,279.73,72.97,279.57,71.99,279.57L71.99,279.57z"/>
	</g>
	
		<radialGradient id="SVGID_00000027586255403623977390000000378093142033512091_" cx="103.2623" cy="-5120.0137" r="36.0464" gradientTransform="matrix(1 0 0 -1 0 -4846.7568)" gradientUnits="userSpaceOnUse">
		<stop  offset="0.1705" style="stop-color:#7CC7E6"/>
		<stop  offset="0.5421" style="stop-color:#5DC29D"/>
		<stop  offset="0.6647" style="stop-color:#5CBC9D"/>
		<stop  offset="0.8626" style="stop-color:#5EAD9C"/>
		<stop  offset="0.9997" style="stop-color:#649F9B"/>
	</radialGradient>
	<path style="fill:url(#SVGID_00000027586255403623977390000000378093142033512091_);" d="M105.36,287.78
		c0.06-0.06,0.12-0.11,0.18-0.18c6.14-6.14,6.14-16.11,0-22.25c-6.14-6.14-16.11-6.14-22.25,0c-0.1,0.1-0.19,0.2-0.28,0.3
		l-15.88,15.88l0,0c-1.6,1.61-2.13,4.29-1.23,7.67c1.83,6.82,8.84,13.89,15.65,15.8c3.45,0.96,6.18,0.42,7.81-1.23L105.36,287.78z"
		/>
</g>
<g>
	
		<radialGradient id="SVGID_00000137812517477452363060000006670573096473805487_" cx="231.5157" cy="-5042.8516" r="28.4593" gradientTransform="matrix(1 0 0 -1 0 -4846.7568)" gradientUnits="userSpaceOnUse">
		<stop  offset="0" style="stop-color:#CEDAE8"/>
		<stop  offset="0.5421" style="stop-color:#E85C83"/>
		<stop  offset="0.6527" style="stop-color:#E05B82"/>
		<stop  offset="0.8312" style="stop-color:#CA5981"/>
		<stop  offset="0.9997" style="stop-color:#B05680"/>
	</radialGradient>
	<path style="fill:url(#SVGID_00000137812517477452363060000006670573096473805487_);" d="M202.93,208.64
		c0.05,0.07,0.09,0.14,0.14,0.21c4.94,7.15,14.74,8.94,21.89,4s8.94-14.74,4-21.89c-0.08-0.11-0.16-0.22-0.24-0.33l-12.76-18.48l0,0
		c-1.3-1.86-3.84-2.87-7.32-2.59c-7.04,0.57-15.25,6.19-18.36,12.56c-1.57,3.22-1.53,6-0.2,7.9L202.93,208.64z"/>
	<g>
		<path class="st1" d="M196.48,192.59c-2.68,0-4.77-0.88-5.89-2.48l-0.25-0.36l-12.51-18.11l-0.24-0.33
			c-4.81-6.97-3.06-16.56,3.91-21.37c2.58-1.78,5.59-2.72,8.72-2.72c5.06,0,9.79,2.48,12.66,6.63l0.13,0.21l12.86,18.61
			c1.31,1.87,1.23,4.55-0.23,7.53c-3.05,6.25-11.15,11.79-18.05,12.35C197.2,192.58,196.83,192.59,196.48,192.59L196.48,192.59z"/>
		<path class="st141" d="M190.21,147.58c4.93,0,9.55,2.42,12.35,6.47l0.07,0.1l0.07,0.11l12.85,18.61c1.23,1.76,1.14,4.3-0.26,7.16
			c-3,6.15-10.96,11.59-17.75,12.14c-0.36,0.03-0.72,0.04-1.07,0.04c-2.56,0-4.54-0.82-5.59-2.32l-0.16-0.23l-12.61-18.24
			l-0.08-0.11c-0.05-0.07-0.1-0.13-0.15-0.2c-2.28-3.3-3.13-7.28-2.41-11.22s2.93-7.36,6.23-9.64
			C184.22,148.5,187.16,147.58,190.21,147.58 M190.21,146.84c-3.08,0-6.2,0.9-8.93,2.79c-7.15,4.94-8.94,14.74-4,21.89
			c0.08,0.11,0.16,0.22,0.24,0.33l12.76,18.48l0,0c1.16,1.65,3.29,2.63,6.19,2.63c0.36,0,0.74-0.02,1.13-0.05
			c7.04-0.57,15.25-6.19,18.36-12.56c1.57-3.22,1.53-6,0.2-7.9l-12.85-18.61c-0.05-0.07-0.09-0.14-0.14-0.21
			C200.11,149.22,195.2,146.84,190.21,146.84L190.21,146.84z"/>
	</g>
</g>
</svg>
