<?xml version="1.0" encoding="utf-8"?>
<!-- Generator: Adobe Illustrator 27.8.1, SVG Export Plug-In . SVG Version: 6.00 Build 0)  -->
<svg version="1.1" id="Слой_1" xmlns="http://www.w3.org/2000/svg" xmlns:xlink="http://www.w3.org/1999/xlink" x="0px" y="0px"
	 viewBox="0 0 290 269.62" style="enable-background:new 0 0 290 269.62;" xml:space="preserve">
<style type="text/css">
	.st0{stroke:#000000;stroke-linecap:round;stroke-linejoin:round;stroke-miterlimit:10;}
	.st1{fill:#222846;stroke:#000000;stroke-linecap:round;stroke-linejoin:round;stroke-miterlimit:10;}
	.st2{fill-rule:evenodd;clip-rule:evenodd;stroke:#000000;stroke-linecap:round;stroke-linejoin:round;stroke-miterlimit:10;}
	
		.st3{fill-rule:evenodd;clip-rule:evenodd;fill:#222846;stroke:#000000;stroke-linecap:round;stroke-linejoin:round;stroke-miterlimit:10;}
	
		.st4{fill-rule:evenodd;clip-rule:evenodd;fill:#4A5479;stroke:#000000;stroke-linecap:round;stroke-linejoin:round;stroke-miterlimit:10;}
	.st5{fill-rule:evenodd;clip-rule:evenodd;fill:#5C6A91;}
	.st6{fill:#6D75A2;}
	.st7{stroke:#1A213A;stroke-linecap:round;stroke-linejoin:round;stroke-miterlimit:10;}
	.st8{stroke:#4A5479;stroke-linecap:round;stroke-linejoin:round;stroke-miterlimit:10;}
	.st9{fill:url(#SVGID_1_);}
	.st10{fill:url(#SVGID_00000163059394647752067760000004285544326376292224_);}
	.st11{fill:url(#SVGID_00000024718064838444556270000016883776657329757369_);}
	
		.st12{fill:none;stroke:url(#SVGID_00000183934991699039567100000010837916463528994996_);stroke-width:5;stroke-linecap:round;stroke-linejoin:round;stroke-miterlimit:10;}
	.st13{fill:url(#SVGID_00000030479556584606789750000004726028975385462960_);}
	.st14{fill-rule:evenodd;clip-rule:evenodd;fill:#1AD4B3;}
	.st15{fill-rule:evenodd;clip-rule:evenodd;fill:#FC4F83;}
	.st16{fill:#4A5479;stroke:#000000;stroke-linecap:round;stroke-linejoin:round;stroke-miterlimit:10;}
	
		.st17{fill:url(#SVGID_00000127045739904740064490000012866439723604763271_);stroke:#1D1D1B;stroke-width:0.2115;stroke-linecap:round;stroke-linejoin:round;stroke-miterlimit:10;}
	.st18{fill-rule:evenodd;clip-rule:evenodd;}
	
		.st19{fill:url(#SVGID_00000047759015310990370320000015147310495381575326_);stroke:#1D1D1B;stroke-width:0.2115;stroke-linecap:round;stroke-linejoin:round;stroke-miterlimit:10;}
	
		.st20{fill:url(#SVGID_00000028316754045879382700000000758631342271120046_);stroke:#1D1D1B;stroke-width:0.2115;stroke-linecap:round;stroke-linejoin:round;stroke-miterlimit:10;}
	
		.st21{fill:url(#SVGID_00000025405290060948040410000010251636638256587438_);stroke:#1D1D1B;stroke-width:0.2115;stroke-linecap:round;stroke-linejoin:round;stroke-miterlimit:10;}
	.st22{fill-rule:evenodd;clip-rule:evenodd;fill:url(#SVGID_00000152258860600219441660000002144008274713163928_);}
	.st23{fill-rule:evenodd;clip-rule:evenodd;fill:url(#SVGID_00000121960755703744612210000008335161011800331442_);}
	.st24{fill:url(#SVGID_00000008841376245867380330000002714738296763639197_);}
	.st25{fill:url(#SVGID_00000147192790155850585630000017021448777095833738_);}
	.st26{fill:url(#SVGID_00000178194604068044100280000007835412746526678153_);}
	
		.st27{fill-rule:evenodd;clip-rule:evenodd;fill:#4AA089;stroke:url(#SVGID_00000060011609876120227880000015688737564735191940_);stroke-linecap:round;stroke-linejoin:round;stroke-miterlimit:10;}
	
		.st28{fill-rule:evenodd;clip-rule:evenodd;fill:#4AA089;stroke:url(#SVGID_00000027593895882356165420000009868825697737484961_);stroke-linecap:round;stroke-linejoin:round;stroke-miterlimit:10;}
	
		.st29{fill:none;stroke:url(#SVGID_00000085251971271187031720000002201712485757298597_);stroke-width:5;stroke-linecap:round;stroke-linejoin:round;stroke-miterlimit:10;}
	.st30{fill:url(#SVGID_00000119117444267536766970000009435559666236124344_);}
	
		.st31{fill:none;stroke:url(#SVGID_00000090992712694317986970000003841600693817529502_);stroke-width:5;stroke-linecap:round;stroke-linejoin:round;stroke-miterlimit:10;}
	.st32{fill:url(#SVGID_00000002379199223467383150000002021332254671418791_);}
	
		.st33{fill:none;stroke:url(#SVGID_00000170968230630252044510000002829431016299990172_);stroke-width:5;stroke-linecap:round;stroke-linejoin:round;stroke-miterlimit:10;}
	.st34{fill:url(#SVGID_00000134945432853410947340000004737619614831810204_);}
	.st35{fill:#4A5479;}
	
		.st36{fill-rule:evenodd;clip-rule:evenodd;fill:#1AD4B3;stroke:#111422;stroke-linecap:round;stroke-linejoin:round;stroke-miterlimit:10;}
	
		.st37{fill-rule:evenodd;clip-rule:evenodd;fill:#4AA089;stroke:url(#SVGID_00000163757242992604229660000004396454104900489893_);stroke-linecap:round;stroke-linejoin:round;stroke-miterlimit:10;}
	.st38{fill:#FFFFFF;}
	
		.st39{fill-rule:evenodd;clip-rule:evenodd;fill:#FC4F83;stroke:#111422;stroke-linecap:round;stroke-linejoin:round;stroke-miterlimit:10;}
	
		.st40{fill-rule:evenodd;clip-rule:evenodd;fill:#CB3D61;stroke:#000000;stroke-linecap:round;stroke-linejoin:round;stroke-miterlimit:10;}
	.st41{fill:url(#SVGID_00000053537339574940368740000006146256081887058847_);}
	.st42{fill:url(#SVGID_00000082341961126723496440000005977191817612771981_);}
	.st43{fill:url(#SVGID_00000063593677505308343850000012976556977347429504_);}
	
		.st44{fill:none;stroke:url(#SVGID_00000006687362338688966970000007360612455112169635_);stroke-width:5;stroke-linecap:round;stroke-linejoin:round;stroke-miterlimit:10;}
	.st45{fill:url(#SVGID_00000021104637994804876740000001637092320156856225_);}
	
		.st46{fill:none;stroke:url(#SVGID_00000162347979348284685800000017388106379477112765_);stroke-width:5;stroke-linecap:round;stroke-linejoin:round;stroke-miterlimit:10;}
	.st47{fill:url(#SVGID_00000081647160654282439510000014260382932828109239_);}
	.st48{fill:url(#SVGID_00000033333217044676503010000009199110457511163796_);}
	.st49{fill:#222846;}
	.st50{fill:url(#SVGID_00000060004023196958437520000014181080536375142836_);}
	.st51{fill:url(#SVGID_00000032613423815604282180000003305128096868006286_);}
	.st52{fill:url(#SVGID_00000056426893749573156500000012828319751904332673_);}
	.st53{fill:url(#SVGID_00000158747735269294218440000008492686776288166793_);}
	.st54{fill:url(#SVGID_00000075859560911562154390000008277889632932836516_);}
	.st55{fill:url(#SVGID_00000005235064349015479980000006794582695030008197_);}
	.st56{fill-rule:evenodd;clip-rule:evenodd;fill:#6D75A2;}
	.st57{fill-rule:evenodd;clip-rule:evenodd;fill:#4A5479;}
	.st58{opacity:0.29;fill:url(#SVGID_00000026850853249261293860000012336736278679451534_);enable-background:new    ;}
	.st59{fill:url(#SVGID_00000136371279651429354410000016984703461172994486_);}
	.st60{fill:url(#SVGID_00000091702002112904008600000011234416123506013580_);}
	.st61{fill:url(#SVGID_00000105397576157962022300000008030763430095796622_);}
	.st62{fill-rule:evenodd;clip-rule:evenodd;fill:url(#SVGID_00000163034716296351703770000015234431864448569743_);}
	.st63{fill:url(#SVGID_00000078020984733615511770000002693223391587544767_);}
	.st64{fill:url(#SVGID_00000093166924157385830930000005729446447588293555_);}
	.st65{fill:url(#SVGID_00000113351606624622026440000006871581448319387265_);}
	.st66{fill:url(#SVGID_00000166648616884507536430000004784547431921774236_);}
	.st67{opacity:0.29;fill:url(#SVGID_00000137830649350920402920000005622466498404505515_);enable-background:new    ;}
	.st68{fill-rule:evenodd;clip-rule:evenodd;fill:#222846;}
	
		.st69{fill:none;stroke:url(#SVGID_00000065049609580072606610000007922188392054435229_);stroke-width:5;stroke-linecap:round;stroke-linejoin:round;stroke-miterlimit:10;}
	.st70{fill:url(#SVGID_00000179637381178937668000000005499473324149394620_);}
	
		.st71{fill:none;stroke:url(#SVGID_00000149367503819245129390000018082534424651467160_);stroke-width:5;stroke-linecap:round;stroke-linejoin:round;stroke-miterlimit:10;}
	.st72{fill:url(#SVGID_00000044176807494067340320000009784356522119754402_);}
	
		.st73{fill:none;stroke:url(#SVGID_00000017485264309923170430000015754363391113468072_);stroke-width:5;stroke-linecap:round;stroke-linejoin:round;stroke-miterlimit:10;}
	.st74{fill:url(#SVGID_00000130623200864848200130000003404443850784500158_);}
	
		.st75{fill-rule:evenodd;clip-rule:evenodd;fill:#4AA089;stroke:url(#SVGID_00000007413266203613205060000002514885092887052987_);stroke-linecap:round;stroke-linejoin:round;stroke-miterlimit:10;}
	.st76{fill-rule:evenodd;clip-rule:evenodd;fill:url(#SVGID_00000094580329890114090580000003152668461613861307_);}
	.st77{fill:url(#SVGID_00000154395972649306800430000012795875487380571017_);}
	.st78{fill:url(#SVGID_00000145737096023725224320000009429221590753233050_);}
	.st79{fill:url(#SVGID_00000168824029739670279830000012018449343275957922_);}
	.st80{opacity:0.29;fill:url(#SVGID_00000183952761377810937750000018250637492134664379_);}
	.st81{opacity:0.29;fill:url(#SVGID_00000101798428971525885060000017801976324262595470_);}
	.st82{opacity:0.2563;fill-rule:evenodd;clip-rule:evenodd;fill:#FFFFFF;enable-background:new    ;}
	.st83{opacity:0.67;fill:url(#SVGID_00000088117753149839169260000006131193638120569770_);}
	.st84{fill:#3FA9BD;}
	.st85{fill:url(#SVGID_00000138575502890192636510000007730226625934764416_);}
	.st86{fill-rule:evenodd;clip-rule:evenodd;fill:#555069;}
	.st87{fill-rule:evenodd;clip-rule:evenodd;fill:#FFFFFF;}
	.st88{fill-rule:evenodd;clip-rule:evenodd;fill:#AFAFB1;}
	.st89{fill-rule:evenodd;clip-rule:evenodd;fill:#D3D3D3;}
	.st90{opacity:0.67;fill:url(#SVGID_00000043433821388078729930000016576248223618183559_);}
	.st91{fill:url(#SVGID_00000137815219400262936380000006269195985039398035_);}
	.st92{opacity:0.67;fill:url(#SVGID_00000157992677108703727560000012008205838759269259_);}
	.st93{fill:url(#SVGID_00000031168234145213998140000018129462111746783897_);}
	.st94{opacity:0.67;fill:url(#SVGID_00000116210694947111053480000004525425505721966235_);}
	.st95{fill:url(#SVGID_00000073698967245830726780000007905992077553418377_);}
	.st96{opacity:0.67;fill:url(#SVGID_00000057111262910859796160000013322718453187294363_);}
	.st97{fill:url(#SVGID_00000107577532800020941700000002798683552803638684_);}
	.st98{opacity:0.67;fill:url(#SVGID_00000165920512601857315610000008434798676684713406_);}
	.st99{fill:url(#SVGID_00000140015940150118861970000000571382507539713672_);}
	.st100{fill:#1AD4B3;}
	.st101{opacity:0.67;fill:url(#SVGID_00000039099476447392939670000012675888572760477609_);}
	.st102{fill:url(#SVGID_00000029031509515245487340000001032260782288987806_);}
	.st103{opacity:0.67;fill:url(#SVGID_00000021087183557607032040000017195927090486880173_);}
	.st104{fill:url(#SVGID_00000158750002072162144090000013200760297941622440_);}
	.st105{opacity:0.67;fill:url(#SVGID_00000057826396569981414850000002683091385733812927_);}
	.st106{fill:url(#SVGID_00000037689069232898441770000002384848523636945078_);}
	.st107{opacity:0.67;fill:url(#SVGID_00000140006430385685782770000001330034462943458204_);}
	.st108{fill:url(#SVGID_00000096034998052366196960000015856671666400047756_);}
	.st109{opacity:0.67;fill:url(#SVGID_00000026842459923738561240000000729625311137072285_);}
	.st110{fill:url(#SVGID_00000028295349224979465990000011414420410882352799_);}
	.st111{opacity:0.67;fill:url(#SVGID_00000033354414729178481330000016094016393420900005_);}
	.st112{fill:url(#SVGID_00000168821687140982841860000005118518635999222964_);}
	
		.st113{fill-rule:evenodd;clip-rule:evenodd;fill:none;stroke:#FFFFFF;stroke-width:0.7384;stroke-linecap:round;stroke-linejoin:round;stroke-miterlimit:10;}
	.st114{opacity:0.67;fill:url(#SVGID_00000150073089496165393980000012302788008905395600_);}
	.st115{fill:url(#SVGID_00000062166319359472469890000008781001245403904909_);}
	.st116{opacity:0.67;fill:url(#SVGID_00000095305338735649154660000013404467620033953460_);}
	.st117{fill:url(#SVGID_00000089574411865131842210000002890900222689789575_);}
	.st118{opacity:0.67;fill:url(#SVGID_00000159462182584923272120000009096582249226531515_);}
	.st119{fill:url(#SVGID_00000004536323463409256230000002924444354616206988_);}
	.st120{opacity:0.67;fill:url(#SVGID_00000005978900917847749430000001524760761345004711_);}
	.st121{fill:url(#SVGID_00000164513773329058432480000003107657623621768380_);}
	.st122{opacity:0.67;fill:url(#SVGID_00000156562875139712650340000009549832859112478607_);}
	.st123{fill:url(#SVGID_00000003808764909603911420000015061160222172305596_);}
	.st124{opacity:0.67;fill:url(#SVGID_00000090992452145633987610000014287654635971997091_);}
	.st125{fill:url(#SVGID_00000132770429427984818570000014214531250211362985_);}
	.st126{opacity:0.67;fill:url(#SVGID_00000095335420445205270830000001353424055728057499_);}
	.st127{fill:url(#SVGID_00000083793131211347533740000002504602246979320467_);}
	.st128{opacity:0.67;fill:url(#SVGID_00000147187989626018372070000007755455263267648919_);}
	.st129{fill:url(#SVGID_00000013898409600898663040000005974024505621904550_);}
	.st130{opacity:0.67;fill:url(#SVGID_00000114063168016248030620000011817321193975036093_);enable-background:new    ;}
	.st131{fill:#5EA6B9;}
	.st132{fill:url(#SVGID_00000060014486355611822710000010276125990402496665_);}
	.st133{fill-rule:evenodd;clip-rule:evenodd;fill:#545067;}
	.st134{fill-rule:evenodd;clip-rule:evenodd;fill:#AEAEB0;}
	.st135{fill-rule:evenodd;clip-rule:evenodd;fill:#D2D2D2;}
	.st136{opacity:0.67;fill:url(#SVGID_00000035501873017269841150000010007732737878270089_);enable-background:new    ;}
	.st137{fill:url(#SVGID_00000139289207164350295710000003889740110071197854_);}
	.st138{fill-rule:evenodd;clip-rule:evenodd;fill:#63D0B3;}
	
		.st139{fill-rule:evenodd;clip-rule:evenodd;fill:none;stroke:#000000;stroke-linecap:round;stroke-linejoin:round;stroke-miterlimit:10;}
	.st140{fill-rule:evenodd;clip-rule:evenodd;fill:#E85C83;}
	
		.st141{fill-rule:evenodd;clip-rule:evenodd;fill:#4AA089;stroke:url(#SVGID_00000113347811635718017020000003897072741425549986_);stroke-linecap:round;stroke-linejoin:round;stroke-miterlimit:10;}
	.st142{fill:#5DC29D;}
	.st143{fill:url(#SVGID_00000019638767633445549320000012010339900589376426_);}
	.st144{fill:url(#SVGID_00000045577709427415617430000016787203126074151814_);}
	.st145{fill:#E85C83;}
	.st146{opacity:0.67;fill:url(#SVGID_00000052793942250840573180000016679471861803103900_);enable-background:new    ;}
	.st147{fill:url(#SVGID_00000006666909792010852320000005416860198348663727_);}
	
		.st148{fill:none;stroke:url(#SVGID_00000069357575673631391740000003470385674352204729_);stroke-width:5;stroke-linecap:round;stroke-linejoin:round;stroke-miterlimit:10;}
	.st149{fill:url(#SVGID_00000012432189888365324250000003615004160622605455_);}
	.st150{opacity:0.67;fill:url(#SVGID_00000128470400533119622520000011435499016700304787_);enable-background:new    ;}
	.st151{fill:url(#SVGID_00000046326020307857627610000009153931627155495839_);}
	.st152{opacity:0.67;fill:url(#SVGID_00000003063518083376376840000002444916463941313194_);}
	.st153{fill:url(#SVGID_00000090983422307075746750000017430460713768996267_);}
	.st154{opacity:0.67;fill:url(#SVGID_00000018232179085583799960000015133819182072770216_);}
	.st155{fill:url(#SVGID_00000129187162419640013400000015189558766865180337_);}
	.st156{opacity:0.67;fill:url(#SVGID_00000137818042711730262650000012088170589123385753_);}
	.st157{fill:url(#SVGID_00000167357478064467009230000008915604336687876246_);}
	.st158{opacity:0.67;fill:url(#SVGID_00000004531217378065968390000003784720587136933553_);}
	.st159{fill:url(#SVGID_00000000942412242354411470000003252664492139747234_);}
	.st160{opacity:0.67;fill:url(#SVGID_00000042700270651534442160000009278967438641896879_);}
	.st161{fill:url(#SVGID_00000176751640336828964840000000009598435058814637_);}
	.st162{fill:none;stroke:#000000;stroke-width:22;stroke-linecap:round;stroke-linejoin:round;stroke-miterlimit:10;}
	.st163{fill:url(#SVGID_00000176038990411484241380000009192038075535224762_);}
	.st164{fill:url(#SVGID_00000117662470225730692560000007211213836269751199_);}
	.st165{fill:none;stroke:url(#SVGID_00000097464513670436987160000005898880195852994476_);stroke-width:5;stroke-miterlimit:10;}
	.st166{fill:url(#SVGID_00000181801151274937765560000013897890437638485691_);}
	.st167{fill:none;}
	.st168{opacity:0.67;fill:url(#SVGID_00000122686522016904343450000003522041579057921208_);}
	.st169{fill:url(#SVGID_00000026135550152925560170000001507640966683200160_);}
	.st170{fill:none;stroke:url(#SVGID_00000139263052062869457840000014362332235215816579_);stroke-width:5;stroke-miterlimit:10;}
	.st171{fill:url(#SVGID_00000016784351808221524350000004483094125327069615_);}
	.st172{opacity:0.67;fill:url(#SVGID_00000081608788966147397920000001990645723862663094_);}
	.st173{fill:url(#SVGID_00000020358755456262372580000007439358167875216774_);}
	.st174{opacity:0.67;fill:url(#SVGID_00000000203099707520057120000016994667124039374471_);}
	.st175{fill:url(#SVGID_00000033346360575190861250000004335888177735264896_);}
	.st176{opacity:0.67;fill:url(#SVGID_00000090290102495476293850000008600437355973762968_);}
	.st177{fill:url(#SVGID_00000078738581784450454620000002500411850766121891_);}
</style>
<g>
	<circle class="st7" cx="144.67" cy="70.24" r="26.03"/>
	<g>
		<g>
			<path class="st1" d="M138.21,43.43l-0.01,10.81c-0.33,1.38,0.28,2.85,1.82,3.91c2.54,1.76,6.66,1.76,9.2,0
				c1.08-0.75,1.7-1.69,1.86-2.67l0.04,0l0-0.45c0-0.04,0-0.09,0-0.13l0.01-11.18L138.21,43.43z"/>
			<path class="st1" d="M138.26,51.16c0,2.45,2.87,4.43,6.41,4.43s6.41-1.98,6.41-4.43"/>
			<path class="st1" d="M138.26,47.77c0,2.45,2.87,4.43,6.41,4.43s6.41-1.98,6.41-4.43"/>
			<path class="st1" d="M138.26,44.21c0,2.45,2.87,4.43,6.41,4.43s6.41-1.98,6.41-4.43"/>
		</g>
		<g>
			<path class="st1" d="M138.21,32.75l-0.01,10.81c-0.33,1.38,0.28,2.85,1.82,3.91c2.54,1.76,6.66,1.76,9.2,0
				c1.08-0.75,1.7-1.69,1.86-2.67l0.04,0l0-0.45c0-0.04,0-0.09,0-0.13l0.01-11.18L138.21,32.75z"/>
			<path class="st1" d="M138.26,40.49c0,2.45,2.87,4.43,6.41,4.43s6.41-1.98,6.41-4.43"/>
			<path class="st1" d="M138.26,37.1c0,2.45,2.87,4.43,6.41,4.43s6.41-1.98,6.41-4.43"/>
			<path class="st1" d="M138.26,33.54c0,2.45,2.87,4.43,6.41,4.43s6.41-1.98,6.41-4.43"/>
		</g>
	</g>
	<g>
		<g>
			<g>
				<polygon class="st2" points="144.27,48.55 126.46,38.27 126.46,20.45 144.27,30.74 				"/>
				<polygon class="st3" points="144.27,48.55 162.09,38.27 162.09,20.45 144.27,30.74 				"/>
				<polygon class="st4" points="144.34,30.79 126.46,20.47 144.21,10.13 162.09,20.45 				"/>
				<line class="st4" x1="139.18" y1="24.95" x2="136.91" y2="23.67"/>
			</g>
			<path id="矩形_00000152965764248126467160000011031630007989843329_" class="st5" d="M138.69,15.45L138.69,15.45
				c0.35,0.2,0.29,0.58-0.12,0.83l-3.7,2.19c-0.42,0.25-1.08,0.29-1.43,0.09l0,0c-0.35-0.2-0.29-0.58,0.12-0.83l3.7-2.19
				C137.68,15.29,138.34,15.25,138.69,15.45z"/>
			<path id="矩形_00000002355749646748791350000001255618378847473029_" class="st5" d="M131.99,19.41L131.99,19.41
				c0.35,0.2,0.29,0.58-0.12,0.83l-0.72,0.42c-0.42,0.25-1.08,0.29-1.43,0.09l0,0c-0.35-0.2-0.29-0.58,0.12-0.83l0.72-0.42
				C131.02,19.24,131.64,19.21,131.99,19.41z"/>
		</g>
	</g>
</g>
<g>
	<circle class="st7" cx="263.33" cy="58.37" r="17.42"/>
	<g>
		<g>
			<path class="st1" d="M259,40.43l0,7.23c-0.22,0.92,0.19,1.91,1.22,2.62c1.7,1.18,4.46,1.18,6.16,0c0.72-0.5,1.14-1.13,1.25-1.79
				l0.03,0l0-0.3c0-0.03,0-0.06,0-0.09l0-7.49L259,40.43z"/>
			<path class="st1" d="M259.04,45.6c0,1.64,1.92,2.97,4.29,2.97c2.37,0,4.29-1.33,4.29-2.97"/>
			<path class="st1" d="M259.04,43.33c0,1.64,1.92,2.97,4.29,2.97c2.37,0,4.29-1.33,4.29-2.97"/>
			<path class="st1" d="M259.04,40.95c0,1.64,1.92,2.97,4.29,2.97c2.37,0,4.29-1.33,4.29-2.97"/>
		</g>
		<g>
			<path class="st1" d="M259,33.28l0,7.23c-0.22,0.92,0.19,1.91,1.22,2.62c1.7,1.18,4.46,1.18,6.16,0c0.72-0.5,1.14-1.13,1.25-1.79
				l0.03,0l0-0.3c0-0.03,0-0.06,0-0.09l0-7.49L259,33.28z"/>
			<path class="st1" d="M259.04,38.46c0,1.64,1.92,2.97,4.29,2.97c2.37,0,4.29-1.33,4.29-2.97"/>
			<path class="st1" d="M259.04,36.19c0,1.64,1.92,2.97,4.29,2.97c2.37,0,4.29-1.33,4.29-2.97"/>
			<path class="st1" d="M259.04,33.8c0,1.64,1.92,2.97,4.29,2.97c2.37,0,4.29-1.33,4.29-2.97"/>
		</g>
	</g>
	<g>
		<g>
			<g>
				<polygon class="st2" points="263.06,43.86 251.14,36.97 251.14,25.05 263.06,31.93 				"/>
				<polygon class="st3" points="263.06,43.86 274.99,36.97 274.99,25.05 263.06,31.93 				"/>
				<polygon class="st4" points="263.11,31.97 251.14,25.06 263.02,18.13 274.99,25.05 				"/>
			</g>
			<path id="矩形_00000166660472728042455160000006390938585935435430_" class="st5" d="M259.43,21.56L259.43,21.56
				c0.23,0.13,0.2,0.39-0.08,0.55l-2.47,1.46c-0.28,0.17-0.72,0.19-0.95,0.06l0,0c-0.23-0.13-0.2-0.39,0.08-0.55l2.47-1.46
				C258.75,21.46,259.19,21.43,259.43,21.56z"/>
			<path id="矩形_00000049219093032399326050000013220863242366967943_" class="st5" d="M254.95,24.22L254.95,24.22
				c0.23,0.13,0.2,0.39-0.08,0.55l-0.48,0.28c-0.28,0.17-0.72,0.19-0.95,0.06l0,0c-0.23-0.13-0.2-0.39,0.08-0.55l0.48-0.28
				C254.29,24.1,254.71,24.08,254.95,24.22z"/>
		</g>
	</g>
</g>
<g>
	<g>
		<polygon class="st3" points="263.04,134.34 209.25,165.07 209.5,185.88 263.16,155.34 		"/>
		<polygon class="st2" points="168.54,142.39 209.25,165.01 209.5,185.88 168.79,163.26 		"/>
		<polygon class="st4" points="263.1,134.4 221.86,111.39 168.54,142.39 209.25,165.21 		"/>
	</g>
	<circle class="st7" cx="213.14" cy="111.23" r="41.04"/>
	<g>
		<g>
			<path class="st1" d="M202.96,68.95l-0.01,17.04c-0.52,2.18,0.44,4.49,2.87,6.17c4.01,2.77,10.5,2.77,14.51,0
				c1.7-1.18,2.68-2.67,2.94-4.21l0.07,0l0-0.71c0-0.07,0-0.14,0-0.21l0.01-17.63L202.96,68.95z"/>
			<path class="st1" d="M203.04,81.14c0,3.86,4.52,6.99,10.11,6.99s10.11-3.13,10.11-6.99"/>
			<path class="st1" d="M203.04,75.8c0,3.86,4.52,6.99,10.11,6.99s10.11-3.13,10.11-6.99"/>
			<path class="st1" d="M203.04,70.19c0,3.86,4.52,6.99,10.11,6.99s10.11-3.13,10.11-6.99"/>
		</g>
		<g>
			<path class="st1" d="M202.96,52.12l-0.01,17.04c-0.52,2.18,0.44,4.49,2.87,6.17c4.01,2.77,10.5,2.77,14.51,0
				c1.7-1.18,2.68-2.67,2.94-4.21l0.07,0l0-0.71c0-0.07,0-0.14,0-0.21l0.01-17.63L202.96,52.12z"/>
			<path class="st1" d="M203.04,64.31c0,3.86,4.52,6.99,10.11,6.99s10.11-3.13,10.11-6.99"/>
			<path class="st1" d="M203.04,58.97c0,3.86,4.52,6.99,10.11,6.99s10.11-3.13,10.11-6.99"/>
			<path class="st1" d="M203.04,53.36c0,3.86,4.52,6.99,10.11,6.99s10.11-3.13,10.11-6.99"/>
		</g>
	</g>
	<g>
		<g>
			<g>
				<polygon class="st2" points="212.52,77.03 184.43,60.82 184.43,32.73 212.52,48.94 				"/>
				<polygon class="st3" points="212.52,77.03 240.61,60.82 240.61,32.73 212.52,48.94 				"/>
				<polygon class="st4" points="212.62,49.03 184.43,32.75 212.42,16.45 240.62,32.72 				"/>
			</g>
			<path id="矩形_00000178186072847615939980000011149566003582114227_" class="st5" d="M203.53,25.07L203.53,25.07
				c0.55,0.31,0.46,0.92-0.2,1.31l-5.83,3.45c-0.66,0.39-1.7,0.45-2.25,0.14l0,0c-0.55-0.31-0.46-0.92,0.2-1.31l5.83-3.45
				C201.94,24.82,202.98,24.76,203.53,25.07z"/>
			<path id="矩形_00000088853396447638292960000003891092818737782933_" class="st5" d="M192.98,31.32L192.98,31.32
				c0.55,0.31,0.46,0.92-0.2,1.31l-1.13,0.67c-0.66,0.39-1.7,0.45-2.25,0.14l0,0c-0.55-0.31-0.46-0.92,0.2-1.31l1.13-0.67
				C191.43,31.04,192.42,31,192.98,31.32z"/>
		</g>
	</g>
	<g>
		<g>
			<path class="st35" d="M217.3,175.33v-8.95l2.53-1.5c0.49-0.29,0.9-0.41,1.24-0.35c0.34,0.05,0.6,0.26,0.79,0.61
				c0.18,0.35,0.27,0.82,0.27,1.41s-0.09,1.17-0.28,1.74c-0.18,0.56-0.45,1.07-0.8,1.53c-0.35,0.46-0.77,0.84-1.26,1.13l-1.61,0.96
				v-1.52l1.39-0.83c0.26-0.15,0.48-0.35,0.65-0.57c0.17-0.23,0.3-0.48,0.38-0.76c0.08-0.28,0.13-0.56,0.13-0.85
				c0-0.3-0.04-0.53-0.13-0.71c-0.08-0.17-0.21-0.27-0.38-0.29c-0.17-0.02-0.39,0.04-0.65,0.2l-0.91,0.54v7.4L217.3,175.33z"/>
			<path class="st35" d="M222.99,171.96v-6.71l1.29-0.77v1.17l0.05-0.03c0.09-0.47,0.23-0.87,0.44-1.21
				c0.21-0.34,0.44-0.58,0.71-0.74c0.07-0.04,0.14-0.08,0.22-0.11c0.08-0.03,0.15-0.06,0.2-0.07v1.65
				c-0.06,0.01-0.15,0.04-0.26,0.08c-0.11,0.04-0.21,0.09-0.3,0.15c-0.2,0.12-0.37,0.28-0.53,0.49c-0.15,0.21-0.27,0.44-0.36,0.71
				c-0.09,0.26-0.13,0.53-0.13,0.8v3.8L222.99,171.96z"/>
			<path class="st35" d="M228.54,168.8c-0.49,0.29-0.91,0.39-1.26,0.31c-0.35-0.08-0.63-0.32-0.82-0.73
				c-0.19-0.41-0.29-0.95-0.29-1.64c0-0.69,0.1-1.36,0.29-1.99c0.19-0.63,0.47-1.2,0.82-1.7c0.35-0.5,0.77-0.89,1.26-1.18
				c0.49-0.29,0.91-0.39,1.26-0.31c0.35,0.08,0.63,0.32,0.82,0.73c0.19,0.41,0.29,0.96,0.29,1.65c0,0.69-0.1,1.35-0.29,1.98
				c-0.19,0.63-0.47,1.2-0.82,1.7C229.45,168.12,229.03,168.51,228.54,168.8z M228.55,167.35c0.22-0.13,0.41-0.33,0.55-0.59
				c0.15-0.26,0.26-0.57,0.34-0.92c0.08-0.35,0.11-0.72,0.11-1.11s-0.04-0.72-0.11-0.98c-0.08-0.26-0.19-0.44-0.34-0.53
				c-0.15-0.09-0.33-0.07-0.55,0.06c-0.22,0.13-0.41,0.33-0.56,0.6c-0.15,0.27-0.27,0.58-0.34,0.93c-0.08,0.35-0.11,0.72-0.11,1.11
				s0.04,0.72,0.11,0.98c0.08,0.26,0.19,0.43,0.34,0.52C228.14,167.51,228.32,167.49,228.55,167.35z"/>
			<path class="st35" d="M231.78,169.27v-9.23l1.32-0.78v1.13l0.06-0.04c0.06-0.22,0.14-0.45,0.26-0.7c0.11-0.25,0.26-0.5,0.44-0.73
				c0.18-0.23,0.41-0.43,0.68-0.59c0.35-0.21,0.67-0.27,0.97-0.19c0.3,0.08,0.53,0.32,0.71,0.73c0.18,0.41,0.27,0.99,0.27,1.76
				c0,0.75-0.09,1.43-0.26,2.05c-0.17,0.62-0.41,1.14-0.7,1.58c-0.3,0.44-0.63,0.77-0.99,0.98c-0.26,0.15-0.48,0.22-0.66,0.21
				c-0.18-0.01-0.33-0.07-0.44-0.19c-0.11-0.11-0.2-0.25-0.26-0.4l-0.04,0.02v3.59L231.78,169.27z M233.09,162.62
				c0,0.4,0.04,0.72,0.12,0.97c0.08,0.25,0.19,0.41,0.34,0.49c0.15,0.07,0.33,0.05,0.55-0.08c0.22-0.13,0.4-0.32,0.55-0.58
				c0.15-0.26,0.26-0.56,0.34-0.9c0.08-0.35,0.12-0.71,0.12-1.1c0-0.39-0.04-0.71-0.12-0.95c-0.08-0.25-0.19-0.41-0.34-0.49
				c-0.15-0.08-0.33-0.05-0.55,0.08c-0.22,0.13-0.4,0.32-0.55,0.57c-0.15,0.25-0.26,0.54-0.34,0.89
				C233.13,161.85,233.09,162.22,233.09,162.62z"/>
			<path class="st35" d="M239.53,162.29c-0.49,0.29-0.91,0.39-1.26,0.31c-0.35-0.08-0.63-0.32-0.82-0.73
				c-0.19-0.41-0.29-0.95-0.29-1.64c0-0.69,0.1-1.36,0.29-1.99s0.47-1.2,0.82-1.7c0.35-0.5,0.77-0.89,1.26-1.18
				c0.49-0.29,0.91-0.39,1.26-0.31c0.35,0.08,0.63,0.32,0.82,0.73c0.19,0.41,0.29,0.96,0.29,1.65c0,0.69-0.1,1.35-0.29,1.98
				c-0.19,0.63-0.47,1.2-0.82,1.7C240.44,161.6,240.02,162,239.53,162.29z M239.54,160.84c0.22-0.13,0.41-0.33,0.55-0.59
				c0.15-0.26,0.26-0.57,0.34-0.92s0.11-0.72,0.11-1.11s-0.04-0.72-0.11-0.98c-0.08-0.26-0.19-0.44-0.34-0.53
				c-0.15-0.09-0.33-0.07-0.55,0.06c-0.22,0.13-0.41,0.33-0.56,0.6c-0.15,0.27-0.27,0.58-0.34,0.93c-0.08,0.35-0.11,0.72-0.11,1.11
				c0,0.39,0.04,0.72,0.11,0.98c0.08,0.26,0.19,0.43,0.34,0.52C239.13,161,239.32,160.97,239.54,160.84z"/>
			<path class="st35" d="M246.78,153.06l-1.22,0.83c-0.02-0.13-0.07-0.24-0.13-0.32c-0.07-0.08-0.16-0.12-0.27-0.12
				c-0.11-0.01-0.24,0.04-0.4,0.13c-0.21,0.12-0.38,0.29-0.52,0.49c-0.14,0.21-0.21,0.41-0.21,0.61c0,0.16,0.05,0.27,0.14,0.32
				c0.09,0.06,0.25,0.05,0.47-0.01l0.87-0.27c0.47-0.14,0.82-0.13,1.05,0.03c0.23,0.16,0.34,0.48,0.34,0.97
				c0,0.44-0.09,0.88-0.28,1.32c-0.18,0.44-0.44,0.85-0.76,1.22c-0.32,0.38-0.69,0.69-1.11,0.93c-0.64,0.38-1.14,0.49-1.52,0.34
				c-0.38-0.15-0.6-0.52-0.66-1.13l1.31-0.87c0.04,0.25,0.14,0.4,0.29,0.45c0.15,0.05,0.35,0.01,0.59-0.14
				c0.23-0.14,0.42-0.31,0.57-0.53c0.14-0.21,0.22-0.42,0.22-0.62c0-0.17-0.05-0.28-0.15-0.33c-0.1-0.05-0.25-0.04-0.46,0.02
				l-0.83,0.26c-0.47,0.15-0.82,0.13-1.05-0.06c-0.23-0.19-0.34-0.53-0.34-1.03c0-0.43,0.08-0.85,0.25-1.26
				c0.17-0.41,0.4-0.79,0.71-1.14c0.31-0.35,0.66-0.65,1.08-0.89c0.61-0.36,1.09-0.46,1.44-0.31
				C246.51,152.12,246.72,152.48,246.78,153.06z"/>
			<path class="st35" d="M249.1,156.61c-0.31,0.18-0.58,0.27-0.82,0.26c-0.24-0.01-0.43-0.12-0.57-0.33
				c-0.14-0.21-0.21-0.54-0.21-0.98c0-0.37,0.05-0.72,0.15-1.03c0.1-0.31,0.23-0.59,0.4-0.85c0.17-0.25,0.36-0.49,0.58-0.69
				c0.22-0.21,0.44-0.4,0.68-0.57c0.28-0.21,0.51-0.38,0.68-0.52c0.17-0.14,0.3-0.27,0.37-0.38c0.08-0.12,0.12-0.25,0.12-0.39v-0.03
				c0-0.28-0.06-0.45-0.19-0.53c-0.12-0.08-0.3-0.05-0.53,0.09c-0.24,0.14-0.43,0.33-0.57,0.56c-0.14,0.23-0.24,0.47-0.28,0.72
				l-1.23,0.59c0.06-0.44,0.19-0.87,0.37-1.28c0.18-0.41,0.42-0.78,0.71-1.11c0.29-0.33,0.63-0.62,1.01-0.84
				c0.27-0.16,0.52-0.27,0.77-0.32c0.25-0.06,0.46-0.05,0.65,0.02c0.19,0.07,0.34,0.22,0.45,0.44c0.11,0.22,0.17,0.53,0.17,0.93
				v4.53l-1.27,0.75v-0.93l-0.04,0.02c-0.08,0.26-0.18,0.5-0.31,0.74c-0.13,0.24-0.29,0.45-0.47,0.65
				C249.55,156.3,249.34,156.47,249.1,156.61z M249.48,155.1c0.2-0.12,0.37-0.27,0.52-0.47c0.15-0.2,0.27-0.42,0.35-0.65
				c0.09-0.24,0.13-0.47,0.13-0.71v-0.71c-0.04,0.06-0.1,0.13-0.17,0.2c-0.07,0.07-0.15,0.15-0.24,0.23
				c-0.09,0.08-0.18,0.15-0.27,0.23c-0.09,0.07-0.17,0.14-0.24,0.2c-0.16,0.12-0.29,0.26-0.41,0.4c-0.12,0.14-0.21,0.29-0.27,0.44
				c-0.06,0.16-0.1,0.32-0.1,0.5c0,0.25,0.07,0.41,0.2,0.46S249.28,155.22,249.48,155.1z"/>
			<path class="st35" d="M254.18,144.53v8.95l-1.33,0.79v-8.95L254.18,144.53z"/>
		</g>
	</g>
</g>
<g>
	<polygon class="st3" points="132.63,74 22.49,136.92 22.49,195.82 132.63,132.9 	"/>
	<polygon class="st2" points="8.05,128.76 22.49,136.56 22.49,195.82 8.05,188.02 	"/>
	<polygon class="st4" points="132.63,74 117.12,65.8 8.05,128.76 22.49,136.56 	"/>
</g>
<g>
	<path class="st6" d="M46.42,148.81l-3.88,2.31c-0.03-0.5-0.1-0.93-0.22-1.28c-0.12-0.35-0.28-0.62-0.48-0.81
		c-0.2-0.18-0.45-0.27-0.74-0.27c-0.29,0-0.62,0.12-0.98,0.34c-0.64,0.38-1.18,0.96-1.63,1.72c-0.44,0.77-0.78,1.69-1,2.76
		c-0.23,1.08-0.34,2.27-0.34,3.59c0,1.39,0.12,2.49,0.35,3.28c0.23,0.8,0.57,1.3,1.01,1.51c0.44,0.21,0.97,0.13,1.59-0.24
		c0.35-0.21,0.67-0.47,0.95-0.78c0.28-0.31,0.52-0.67,0.73-1.06c0.21-0.4,0.38-0.83,0.51-1.29c0.13-0.46,0.22-0.96,0.26-1.47
		l3.88-2.27c-0.05,0.99-0.21,2.07-0.5,3.23c-0.29,1.17-0.7,2.33-1.23,3.48c-0.53,1.16-1.18,2.22-1.96,3.2
		c-0.78,0.97-1.69,1.77-2.72,2.38c-1.29,0.77-2.45,1.02-3.48,0.73c-1.02-0.28-1.83-1.12-2.43-2.5c-0.59-1.39-0.89-3.34-0.89-5.85
		c0-2.53,0.3-4.84,0.91-6.94c0.61-2.1,1.42-3.9,2.45-5.4c1.03-1.5,2.17-2.63,3.44-3.39c0.89-0.53,1.71-0.82,2.46-0.87
		c0.75-0.05,1.4,0.13,1.97,0.54c0.56,0.42,1.02,1.07,1.36,1.96C46.14,146.31,46.35,147.44,46.42,148.81z"/>
	<path class="st6" d="M48.15,161.98v-22.73l6.08-3.62c1.05-0.62,1.96-0.86,2.74-0.71c0.78,0.15,1.39,0.67,1.83,1.56
		c0.44,0.89,0.65,2.15,0.65,3.76c0,1.63-0.22,3.13-0.67,4.52c-0.45,1.38-1.07,2.6-1.88,3.65c-0.8,1.05-1.74,1.89-2.82,2.53
		l-3.63,2.16v-4.79l2.86-1.7c0.45-0.27,0.83-0.59,1.15-0.96c0.32-0.37,0.56-0.81,0.74-1.31s0.26-1.08,0.26-1.72
		c0-0.65-0.09-1.13-0.26-1.44c-0.17-0.31-0.42-0.46-0.74-0.47c-0.32,0-0.7,0.12-1.15,0.39l-1.35,0.8v17.8L48.15,161.98z
		 M56.41,146.64l3.52,8.33l-4.16,2.48l-3.44-8.38L56.41,146.64z"/>
	<path class="st6" d="M61.09,154.28v-22.73l10.15-6.05v4.97l-6.33,3.77v3.91l5.81-3.46v4.97l-5.81,3.46v3.9l6.3-3.75v4.97
		L61.09,154.28z"/>
	<path class="st6" d="M76.8,144.93l-4.13,2.46l4.65-25.5l5.23-3.11l4.65,19.96l-4.13,2.46l-3.08-14.63l-0.11,0.06L76.8,144.93z
		 M76.03,136.42l7.76-4.62v4.62l-7.76,4.62V136.42z"/>
	<path class="st6" d="M86.37,121.46v-4.97l12.24-7.29v4.97l-4.24,2.52v17.76l-3.77,2.24v-17.76L86.37,121.46z"/>
	<path class="st6" d="M100.05,131.08v-22.73l10.15-6.05v4.97l-6.33,3.77v3.91l5.81-3.46v4.97l-5.81,3.46v3.9l6.3-3.75v4.97
		L100.05,131.08z"/>
	<path class="st6" d="M117.52,120.67l-5.42,3.23v-22.73l5.37-3.2c1.45-0.86,2.7-1.16,3.76-0.88c1.06,0.28,1.87,1.09,2.45,2.45
		c0.57,1.35,0.86,3.22,0.86,5.58c0,2.37-0.29,4.57-0.86,6.61c-0.57,2.04-1.39,3.82-2.44,5.36
		C120.19,118.63,118.95,119.82,117.52,120.67z M115.93,116.38l1.46-0.87c0.7-0.42,1.29-0.95,1.79-1.61
		c0.49-0.66,0.87-1.51,1.13-2.55c0.26-1.04,0.39-2.35,0.39-3.94c0-1.58-0.13-2.74-0.4-3.47c-0.26-0.73-0.65-1.13-1.16-1.19
		c-0.51-0.06-1.13,0.13-1.86,0.57l-1.35,0.8V116.38z"/>
</g>
<polygon class="st3" points="204.48,39.6 200.91,37.58 221.67,25.33 225.25,27.34 "/>
<polygon class="st3" points="259.82,27.52 258.47,26.76 266.31,22.14 267.66,22.9 "/>
<polygon class="st3" points="139.38,24.63 137.2,23.4 149.87,15.92 152.05,17.15 "/>
<g>
	<path id="矩形_00000084504702997513236480000004359625126704803472_" class="st82" d="M172.16,217.11L172.16,217.11
		c0.62,0,1.15,0.76,1.15,1.64v1.52c0,0.88-0.53,1.64-1.15,1.64l0,0c-0.62,0-1.15-0.76-1.15-1.64v-1.52
		C171.02,217.8,171.55,217.11,172.16,217.11z"/>
	
		<radialGradient id="SVGID_1_" cx="140.6214" cy="251.2355" r="29.1582" gradientTransform="matrix(1 0 0 0.5898 0 103.0585)" gradientUnits="userSpaceOnUse">
		<stop  offset="0" style="stop-color:#06070C"/>
		<stop  offset="1" style="stop-color:#0D101D;stop-opacity:0"/>
	</radialGradient>
	<path style="opacity:0.67;fill:url(#SVGID_1_);" d="M165.62,237.16c-13.68-7.9-35.96-8-49.77-0.23s-13.91,20.48-0.23,28.37
		s35.96,8,49.77,0.23C179.19,257.76,179.3,245.06,165.62,237.16z"/>
	<g>
		<path class="st84" d="M179.12,201.13v-49.28c0-0.23,0.02-0.45,0.02-0.68c0-22.91-18.57-41.48-41.48-41.48
			c-22.91,0-41.48,18.57-41.48,41.48c0,0.36,0.02,0.72,0.03,1.07v44.66h-0.03v22.67c0,2.84,2.3,5.15,5.15,5.15
			c2.84,0,5.15-2.31,5.15-5.15v-0.83c0.56,0.36,1.13,0.72,1.74,1.07c1.83,1.06,3.79,1.99,5.85,2.81v8.2c0,2.84,2.3,5.15,5.15,5.15
			c2.84,0,5.15-2.31,5.15-5.15v-5.23c2.95,0.57,5.99,0.96,9.06,1.14v12.59c0,2.84,2.3,5.15,5.15,5.15s5.15-2.31,5.15-5.15v-12.7
			c3.39-0.28,6.73-0.8,9.93-1.55v6.36c0,2.84,2.3,5.15,5.15,5.15s5.15-2.31,5.15-5.15v-9.87c1-0.47,1.97-0.96,2.91-1.49
			c0.7-0.39,1.35-0.8,1.99-1.21v0.71c0,2.84,2.3,5.15,5.15,5.15c2.84,0,5.15-2.31,5.15-5.15v-18.45H179.12z"/>
		
			<radialGradient id="SVGID_00000086668979628929033040000012724353197689320875_" cx="162.3441" cy="127.1149" r="106.6854" gradientUnits="userSpaceOnUse">
			<stop  offset="0.0124" style="stop-color:#DD78CE"/>
			<stop  offset="0.4936" style="stop-color:#A7589A"/>
			<stop  offset="0.5829" style="stop-color:#A0619E"/>
			<stop  offset="0.7273" style="stop-color:#8E79A8"/>
			<stop  offset="0.9078" style="stop-color:#709FB9"/>
			<stop  offset="1" style="stop-color:#5EB6C3"/>
		</radialGradient>
		<path style="fill:url(#SVGID_00000086668979628929033040000012724353197689320875_);" d="M179.12,201.13v-49.28
			c0-0.23,0.02-0.45,0.02-0.68c0-22.91-18.57-41.48-41.48-41.48c-22.91,0-41.48,18.57-41.48,41.48c0,0.36,0.02,0.72,0.03,1.07v44.66
			h-0.03v22.67c0,2.84,2.3,5.15,5.15,5.15c2.84,0,5.15-2.31,5.15-5.15v-0.83c0.56,0.36,1.13,0.72,1.74,1.07
			c1.83,1.06,3.79,1.99,5.85,2.81v8.2c0,2.84,2.3,5.15,5.15,5.15c2.84,0,5.15-2.31,5.15-5.15v-5.23c2.95,0.57,5.99,0.96,9.06,1.14
			v12.59c0,2.84,2.3,5.15,5.15,5.15s5.15-2.31,5.15-5.15v-12.7c3.39-0.28,6.73-0.8,9.93-1.55v6.36c0,2.84,2.3,5.15,5.15,5.15
			s5.15-2.31,5.15-5.15v-9.87c1-0.47,1.97-0.96,2.91-1.49c0.7-0.39,1.35-0.8,1.99-1.21v0.71c0,2.84,2.3,5.15,5.15,5.15
			c2.84,0,5.15-2.31,5.15-5.15v-18.45H179.12z"/>
	</g>
	<path id="矩形_00000016043104623333237190000010570770267099354502_" class="st82" d="M100.07,187.29L100.07,187.29
		c1.12,0,2.09,1.38,2.09,2.99v14.25c0,1.61-0.96,2.99-2.09,2.99l0,0c-1.12,0-2.09-1.38-2.09-2.99v-14.25
		C97.99,188.67,98.95,187.29,100.07,187.29z"/>
	<path id="矩形_00000099658289803915729110000009044373341090548924_" class="st82" d="M161.37,124.2L161.37,124.2
		c1.37-1.02,3.68-0.37,5.02,1.41l2.29,3.06c1.34,1.78,1.31,4.19-0.06,5.22l0,0c-1.37,1.02-3.68,0.37-5.02-1.41l-2.29-3.06
		C159.88,127.5,160.01,125.23,161.37,124.2z"/>
	<path id="矩形_00000116216256615982617900000001217316259095205814_" class="st82" d="M117.47,223.88L117.47,223.88
		c1.12,0,2.09,1.38,2.09,2.99v2.76c0,1.61-0.96,2.99-2.09,2.99l0,0c-1.12,0-2.09-1.38-2.09-2.99v-2.76
		C115.38,225.14,116.35,223.88,117.47,223.88z"/>
	<path id="矩形_00000013152885558241464630000017085390915233020578_" class="st82" d="M99.82,213.08L99.82,213.08
		c1.12,0,2.09,1.38,2.09,2.99v2.76c0,1.61-0.96,2.99-2.09,2.99l0,0c-1.12,0-2.09-1.38-2.09-2.99v-2.76
		C97.74,214.34,98.7,213.08,99.82,213.08z"/>
	<path id="矩形_00000086653869636410071550000011787781494112990897_" class="st82" d="M137.66,232.62L137.66,232.62
		c1.12,0,2.09,1.38,2.09,2.99v2.76c0,1.61-0.96,2.99-2.09,2.99l0,0c-1.12,0-2.09-1.38-2.09-2.99v-2.76
		C135.57,233.88,136.54,232.62,137.66,232.62z"/>
	<path id="矩形_00000181050918601832270680000002282361696161209272_" class="st82" d="M157.36,227.27L157.36,227.27
		c0.89,0,1.66,1.1,1.66,2.37v2.19c0,1.28-0.76,2.37-1.66,2.37l0,0c-0.89,0-1.66-1.1-1.66-2.37v-2.19
		C155.7,228.28,156.47,227.27,157.36,227.27z"/>
	<g>
		<path id="椭圆形_00000033343500794054934110000001822094218464126642_" class="st86" d="M147.67,182.16
			c4.06-0.17,7.1-3.66,7.09-6c0-0.94-0.55-1.75-1.38-1.81c-1.29-0.13-3.23,0.7-5.72,0.8c-2.31,0.1-3.78-0.5-5.53-0.42
			c-1.84,0.08-1.75,2.22-1.47,3.06C141.3,180.09,143.52,182.33,147.67,182.16z"/>
		<path id="椭圆形_00000183939295864262813280000003955668878329510591_" class="st87" d="M147.76,180.19
			c4.15-0.17,7.19-3.38,7.19-5.63c0-0.84-0.55-1.57-1.38-1.63c-1.29-0.13-3.32,0.7-5.81,0.8c-2.4,0.1-3.78-0.5-5.62-0.43
			s-1.75,2.13-1.48,2.87C141.3,178.3,143.61,180.36,147.76,180.19z"/>
	</g>
	<g>
		
			<ellipse transform="matrix(0.5671 -0.8237 0.8237 0.5671 -74.1156 176.3792)" class="st87" cx="130.72" cy="158.69" rx="9.5" ry="9.1"/>
		<path id="形状结合_00000002344210047940911030000009532115132819020971_" class="st88" d="M131.92,148.73
			c4.24-0.18,7.66,3.98,7.66,9.22c0,0.19,0,0.37,0,0.56l0,0.56c0-5.33-3.33-9.59-7.48-9.42c-4.15,0.17-7.46,4.61-7.46,10.04
			c0,1.03,0.09,2.05,0.37,2.98c-0.46-1.2-0.74-2.59-0.74-3.99C124.27,153.35,127.68,148.9,131.92,148.73z"/>
		<path id="形状结合_00000165223589190249591860000001051174602746959035_" class="st89" d="M131.92,147.6
			c4.7-0.2,8.58,4.41,8.58,10.31c0.01,5.89-3.86,10.83-8.57,11.02c-4.7,0.2-8.58-4.41-8.58-10.31
			C123.35,152.73,127.12,147.8,131.92,147.6z M131.92,148.73c-4.24,0.18-7.65,4.62-7.64,9.86c0,5.24,3.42,9.4,7.66,9.22
			c4.24-0.18,7.65-4.62,7.64-9.86C139.58,152.71,136.07,148.55,131.92,148.73z"/>
	</g>
	<g>
		
			<ellipse transform="matrix(0.5671 -0.8237 0.8237 0.5671 -59.6804 201.0825)" class="st87" cx="161.44" cy="157.31" rx="9.5" ry="9.1"/>
		<path id="形状结合_00000027564243935782100600000006492101382301278908_" class="st88" d="M162.43,147.35
			c4.24-0.18,7.66,3.98,7.66,9.22c0,0.19,0,0.37,0,0.56l0,0.56c0-5.33-3.33-9.59-7.48-9.42c-4.15,0.17-7.46,4.61-7.46,10.04
			c0,1.03,0.09,2.05,0.37,2.98c-0.46-1.2-0.74-2.59-0.74-3.99C154.78,151.98,158.19,147.53,162.43,147.35z"/>
		<path id="形状结合_00000111193413202286934280000013907302264942872220_" class="st89" d="M162.43,146.23
			c4.7-0.2,8.58,4.41,8.58,10.31s-3.86,10.83-8.57,11.02s-8.58-4.41-8.58-10.31C153.86,151.36,157.64,146.43,162.43,146.23z
			 M162.43,147.35c-4.24,0.18-7.65,4.62-7.64,9.86s3.42,9.4,7.66,9.22c4.24-0.18,7.65-4.62,7.64-9.86
			C170.09,151.34,166.58,147.18,162.43,147.35z"/>
	</g>
	<circle class="st86" cx="130.72" cy="158.69" r="3.77"/>
	<circle class="st86" cx="161.27" cy="157.56" r="3.77"/>
</g>
</svg>
