<?xml version="1.0" encoding="utf-8"?>
<!-- Generator: Adobe Illustrator 27.8.1, SVG Export Plug-In . SVG Version: 6.00 Build 0)  -->
<svg version="1.1" id="Слой_1" xmlns="http://www.w3.org/2000/svg" xmlns:xlink="http://www.w3.org/1999/xlink" x="0px" y="0px"
	 viewBox="0 0 290 269.62" style="enable-background:new 0 0 290 269.62;" xml:space="preserve">
<style type="text/css">
	.st0{stroke:#000000;stroke-linecap:round;stroke-linejoin:round;stroke-miterlimit:10;}
	.st1{fill:#222846;stroke:#000000;stroke-linecap:round;stroke-linejoin:round;stroke-miterlimit:10;}
	.st2{fill-rule:evenodd;clip-rule:evenodd;stroke:#000000;stroke-linecap:round;stroke-linejoin:round;stroke-miterlimit:10;}
	
		.st3{fill-rule:evenodd;clip-rule:evenodd;fill:#222846;stroke:#000000;stroke-linecap:round;stroke-linejoin:round;stroke-miterlimit:10;}
	
		.st4{fill-rule:evenodd;clip-rule:evenodd;fill:#4A5479;stroke:#000000;stroke-linecap:round;stroke-linejoin:round;stroke-miterlimit:10;}
	.st5{fill-rule:evenodd;clip-rule:evenodd;fill:#5C6A91;}
	.st6{fill:#6D75A2;}
	.st7{stroke:#1A213A;stroke-linecap:round;stroke-linejoin:round;stroke-miterlimit:10;}
	.st8{stroke:#4A5479;stroke-linecap:round;stroke-linejoin:round;stroke-miterlimit:10;}
	.st9{fill:url(#SVGID_1_);}
	.st10{fill:url(#SVGID_00000091697038676201797130000007811468389711909555_);}
	.st11{fill:url(#SVGID_00000028299554790445583700000004093026553351680419_);}
	
		.st12{fill:none;stroke:url(#SVGID_00000168796354057211626240000010894123922580942987_);stroke-width:5;stroke-linecap:round;stroke-linejoin:round;stroke-miterlimit:10;}
	.st13{fill:url(#SVGID_00000054257189245533916730000007568587356547918511_);}
	.st14{fill-rule:evenodd;clip-rule:evenodd;fill:#1AD4B3;}
	.st15{fill-rule:evenodd;clip-rule:evenodd;fill:#FC4F83;}
	.st16{fill:#4A5479;stroke:#000000;stroke-linecap:round;stroke-linejoin:round;stroke-miterlimit:10;}
	
		.st17{fill:url(#SVGID_00000013169883364080369610000018261852033844821927_);stroke:#1D1D1B;stroke-width:0.2115;stroke-linecap:round;stroke-linejoin:round;stroke-miterlimit:10;}
	.st18{fill-rule:evenodd;clip-rule:evenodd;}
	
		.st19{fill:url(#SVGID_00000169551698037969515740000016018744495882642343_);stroke:#1D1D1B;stroke-width:0.2115;stroke-linecap:round;stroke-linejoin:round;stroke-miterlimit:10;}
	
		.st20{fill:url(#SVGID_00000179614693894134446860000012359699335646590385_);stroke:#1D1D1B;stroke-width:0.2115;stroke-linecap:round;stroke-linejoin:round;stroke-miterlimit:10;}
	
		.st21{fill:url(#SVGID_00000077292356014123922150000012595682746596555909_);stroke:#1D1D1B;stroke-width:0.2115;stroke-linecap:round;stroke-linejoin:round;stroke-miterlimit:10;}
	.st22{fill-rule:evenodd;clip-rule:evenodd;fill:url(#SVGID_00000140004772762353761270000018414490590092748943_);}
	.st23{fill-rule:evenodd;clip-rule:evenodd;fill:url(#SVGID_00000077306323689266548110000004917406030840249516_);}
	.st24{fill:url(#SVGID_00000110442685585127555570000008713433774664183214_);}
	.st25{fill:url(#SVGID_00000121985567029436459790000002744136187878604701_);}
	.st26{fill:url(#SVGID_00000073696244830276782620000010617854672381956230_);}
	
		.st27{fill-rule:evenodd;clip-rule:evenodd;fill:#4AA089;stroke:url(#SVGID_00000033335089002208140540000015982809445246200505_);stroke-linecap:round;stroke-linejoin:round;stroke-miterlimit:10;}
	
		.st28{fill-rule:evenodd;clip-rule:evenodd;fill:#4AA089;stroke:url(#SVGID_00000164477913633474021880000001710923536753920396_);stroke-linecap:round;stroke-linejoin:round;stroke-miterlimit:10;}
	
		.st29{fill:none;stroke:url(#SVGID_00000067216421399664931620000011398770124702779040_);stroke-width:5;stroke-linecap:round;stroke-linejoin:round;stroke-miterlimit:10;}
	.st30{fill:url(#SVGID_00000018922289575709481390000003074201402502825378_);}
	
		.st31{fill:none;stroke:url(#SVGID_00000013883860181064376990000014392258426372935340_);stroke-width:5;stroke-linecap:round;stroke-linejoin:round;stroke-miterlimit:10;}
	.st32{fill:url(#SVGID_00000152226665417889555470000011902211681525882282_);}
	
		.st33{fill:none;stroke:url(#SVGID_00000170265848426559664300000009396325115332446857_);stroke-width:5;stroke-linecap:round;stroke-linejoin:round;stroke-miterlimit:10;}
	.st34{fill:url(#SVGID_00000050629938870143110780000004895212331031250849_);}
	.st35{fill:#4A5479;}
	
		.st36{fill-rule:evenodd;clip-rule:evenodd;fill:#1AD4B3;stroke:#111422;stroke-linecap:round;stroke-linejoin:round;stroke-miterlimit:10;}
	
		.st37{fill-rule:evenodd;clip-rule:evenodd;fill:#4AA089;stroke:url(#SVGID_00000089532064652869980930000008480399673548176031_);stroke-linecap:round;stroke-linejoin:round;stroke-miterlimit:10;}
	.st38{fill:#FFFFFF;}
	
		.st39{fill-rule:evenodd;clip-rule:evenodd;fill:#FC4F83;stroke:#111422;stroke-linecap:round;stroke-linejoin:round;stroke-miterlimit:10;}
	
		.st40{fill-rule:evenodd;clip-rule:evenodd;fill:#CB3D61;stroke:#000000;stroke-linecap:round;stroke-linejoin:round;stroke-miterlimit:10;}
	.st41{fill:url(#SVGID_00000134941868847704655590000010868977489114937231_);}
	.st42{fill:url(#SVGID_00000149346700940410187230000010119889771319166634_);}
	.st43{fill:url(#SVGID_00000088844592973150425230000009245889317386491560_);}
	
		.st44{fill:none;stroke:url(#SVGID_00000067929411053126682250000004171235165929193089_);stroke-width:5;stroke-linecap:round;stroke-linejoin:round;stroke-miterlimit:10;}
	.st45{fill:url(#SVGID_00000141432864673125150450000009420363014288857530_);}
	
		.st46{fill:none;stroke:url(#SVGID_00000153678888289530741740000007619365089854790590_);stroke-width:5;stroke-linecap:round;stroke-linejoin:round;stroke-miterlimit:10;}
	.st47{fill:url(#SVGID_00000018238341404012988990000001851205657207829945_);}
	.st48{fill:url(#SVGID_00000180330939600238855110000000404828769585937539_);}
	.st49{fill:#222846;}
	.st50{fill:url(#SVGID_00000150082130849852128420000009020512734491230618_);}
	.st51{fill:url(#SVGID_00000152256704719129311890000004180438074551374248_);}
	.st52{fill:url(#SVGID_00000006698836497501273050000011434176857916038818_);}
	.st53{fill:url(#SVGID_00000039124925083036906700000009836118007363409080_);}
	.st54{fill:url(#SVGID_00000085219808895588744370000015193283149921933758_);}
	.st55{fill:url(#SVGID_00000036224234432907961560000012663491336475672725_);}
	.st56{fill-rule:evenodd;clip-rule:evenodd;fill:#6D75A2;}
	.st57{fill-rule:evenodd;clip-rule:evenodd;fill:#4A5479;}
	.st58{opacity:0.29;fill:url(#SVGID_00000176754651478654109840000003811711734223657884_);enable-background:new    ;}
	.st59{fill:url(#SVGID_00000106134749825473602270000011890633641787660699_);}
	.st60{fill:url(#SVGID_00000008146929234479257720000003396645597017264023_);}
	.st61{fill:url(#SVGID_00000080918139600105045850000001360883315654968724_);}
	.st62{fill-rule:evenodd;clip-rule:evenodd;fill:url(#SVGID_00000105410094126106884680000013040800705211289779_);}
	.st63{fill:url(#SVGID_00000001651578751714177190000013813466481033266574_);}
	.st64{fill:url(#SVGID_00000090975767976240871370000013418870645611707295_);}
	.st65{fill:url(#SVGID_00000150825521231004326760000014144353109869825957_);}
	.st66{fill:url(#SVGID_00000003810185786568464300000016190011301033532305_);}
	.st67{opacity:0.29;fill:url(#SVGID_00000080889802423648728530000003044239354401996930_);enable-background:new    ;}
	.st68{fill-rule:evenodd;clip-rule:evenodd;fill:#222846;}
	
		.st69{fill:none;stroke:url(#SVGID_00000153685365121538338430000010991950875368222611_);stroke-width:5;stroke-linecap:round;stroke-linejoin:round;stroke-miterlimit:10;}
	.st70{fill:url(#SVGID_00000132796346625848428160000004332285893904501930_);}
	
		.st71{fill:none;stroke:url(#SVGID_00000022532883081818374050000006272946112219959973_);stroke-width:5;stroke-linecap:round;stroke-linejoin:round;stroke-miterlimit:10;}
	.st72{fill:url(#SVGID_00000017486944739844992090000002191035969766739849_);}
	
		.st73{fill:none;stroke:url(#SVGID_00000115478972580185200990000002419111248313420446_);stroke-width:5;stroke-linecap:round;stroke-linejoin:round;stroke-miterlimit:10;}
	.st74{fill:url(#SVGID_00000155122458296236607130000005313408152355895464_);}
	
		.st75{fill-rule:evenodd;clip-rule:evenodd;fill:#4AA089;stroke:url(#SVGID_00000008857983006830601220000004980903181734148753_);stroke-linecap:round;stroke-linejoin:round;stroke-miterlimit:10;}
	.st76{fill-rule:evenodd;clip-rule:evenodd;fill:url(#SVGID_00000146460728833552470180000015899098169371472813_);}
	.st77{fill:url(#SVGID_00000110431409983466384720000012957458337765729678_);}
	.st78{fill:url(#SVGID_00000124881261633669208010000012369245898515349947_);}
	.st79{fill:url(#SVGID_00000045609609836722783640000001415518164683974065_);}
	.st80{opacity:0.29;fill:url(#SVGID_00000065790614704306858080000007455339682193883562_);}
	.st81{opacity:0.29;fill:url(#SVGID_00000042730508725198407260000001554436065834960309_);}
	.st82{opacity:0.2563;fill-rule:evenodd;clip-rule:evenodd;fill:#FFFFFF;enable-background:new    ;}
	.st83{opacity:0.67;fill:url(#SVGID_00000150781453713933364960000014435649675044567184_);}
	.st84{fill:#3FA9BD;}
	.st85{fill:url(#SVGID_00000063595979371522529740000006654426787566420141_);}
	.st86{fill-rule:evenodd;clip-rule:evenodd;fill:#555069;}
	.st87{fill-rule:evenodd;clip-rule:evenodd;fill:#FFFFFF;}
	.st88{fill-rule:evenodd;clip-rule:evenodd;fill:#AFAFB1;}
	.st89{fill-rule:evenodd;clip-rule:evenodd;fill:#D3D3D3;}
	.st90{opacity:0.67;fill:url(#SVGID_00000158714676410228122160000006271519101400995987_);}
	.st91{fill:url(#SVGID_00000061440762407419149210000005747867484003350952_);}
	.st92{opacity:0.67;fill:url(#SVGID_00000047776940853603378720000007602433613231903924_);}
	.st93{fill:url(#SVGID_00000127016177730830173040000008232633208577764994_);}
	.st94{opacity:0.67;fill:url(#SVGID_00000135652553596871450540000014693356889356262562_);}
	.st95{fill:url(#SVGID_00000106831358234427004220000013980056042763122111_);}
	.st96{opacity:0.67;fill:url(#SVGID_00000111908268167243851080000006440696134730510750_);}
	.st97{fill:url(#SVGID_00000134955172501905417090000008558532133572260529_);}
	.st98{opacity:0.67;fill:url(#SVGID_00000148656469214848714120000015932118967082639291_);}
	.st99{fill:url(#SVGID_00000051381522371902171590000000992640798091843259_);}
	.st100{fill:#1AD4B3;}
	.st101{opacity:0.67;fill:url(#SVGID_00000039849896058051955050000001728566661250653084_);}
	.st102{fill:url(#SVGID_00000046326457559924791760000011339771917393957535_);}
	.st103{opacity:0.67;fill:url(#SVGID_00000116225830668064717130000007374316071362511752_);}
	.st104{fill:url(#SVGID_00000137125459561526214860000001539111444309673398_);}
	.st105{opacity:0.67;fill:url(#SVGID_00000178176450778956115410000015356462718369283500_);}
	.st106{fill:url(#SVGID_00000022551595613386843450000000821301250934987190_);}
	.st107{opacity:0.67;fill:url(#SVGID_00000015349126960687701790000004223190125295725211_);}
	.st108{fill:url(#SVGID_00000036226842969386138030000008801536833847908017_);}
	.st109{opacity:0.67;fill:url(#SVGID_00000041283247335989114050000006940760494471171718_);}
	.st110{fill:url(#SVGID_00000070826835991423490530000018194159651166718643_);}
	.st111{opacity:0.67;fill:url(#SVGID_00000034067705111824120150000007939858998561630101_);}
	.st112{fill:url(#SVGID_00000031916373736381946060000001596645014280766608_);}
	
		.st113{fill-rule:evenodd;clip-rule:evenodd;fill:none;stroke:#FFFFFF;stroke-width:0.7384;stroke-linecap:round;stroke-linejoin:round;stroke-miterlimit:10;}
	.st114{opacity:0.67;fill:url(#SVGID_00000135652968399104985820000012233899916934916021_);}
	.st115{fill:url(#SVGID_00000086657798547590632490000015530989170192146840_);}
	.st116{opacity:0.67;fill:url(#SVGID_00000120519574297521618530000012575272950585463741_);}
	.st117{fill:url(#SVGID_00000050647335933513608120000016728513971999112074_);}
	.st118{opacity:0.67;fill:url(#SVGID_00000151528531138374691690000014162311047752037024_);}
	.st119{fill:url(#SVGID_00000099621782401604293450000010481020209737768365_);}
	.st120{opacity:0.67;fill:url(#SVGID_00000005236916252153361750000015494213935429023375_);}
	.st121{fill:url(#SVGID_00000026882854389718807030000017270339215730108301_);}
	.st122{opacity:0.67;fill:url(#SVGID_00000165941959740532272280000006140947403463699894_);}
	.st123{fill:url(#SVGID_00000032622260467265037960000008339195644595437708_);}
	.st124{opacity:0.67;fill:url(#SVGID_00000075138467433922115860000002408861976446292926_);}
	.st125{fill:url(#SVGID_00000075868776987604037560000006422284917423731591_);}
	.st126{opacity:0.67;fill:url(#SVGID_00000150069638947433496670000007392098502738855096_);}
	.st127{fill:url(#SVGID_00000080204339579579753780000013048114231204082103_);}
	.st128{opacity:0.67;fill:url(#SVGID_00000181792851841207158010000004462320435572413365_);}
	.st129{fill:url(#SVGID_00000109707947790044471550000003973712692446316673_);}
	.st130{opacity:0.67;fill:url(#SVGID_00000033338640337113416420000017050541039215853706_);enable-background:new    ;}
	.st131{fill:#5EA6B9;}
	.st132{fill:url(#SVGID_00000008131987152325090680000005887859309597186980_);}
	.st133{fill-rule:evenodd;clip-rule:evenodd;fill:#545067;}
	.st134{fill-rule:evenodd;clip-rule:evenodd;fill:#AEAEB0;}
	.st135{fill-rule:evenodd;clip-rule:evenodd;fill:#D2D2D2;}
	.st136{opacity:0.67;fill:url(#SVGID_00000038414727157198366350000005997474978269569715_);enable-background:new    ;}
	.st137{fill:url(#SVGID_00000005242046902663849540000004905904824573672072_);}
	.st138{fill-rule:evenodd;clip-rule:evenodd;fill:#63D0B3;}
	
		.st139{fill-rule:evenodd;clip-rule:evenodd;fill:none;stroke:#000000;stroke-linecap:round;stroke-linejoin:round;stroke-miterlimit:10;}
	.st140{fill-rule:evenodd;clip-rule:evenodd;fill:#E85C83;}
	
		.st141{fill-rule:evenodd;clip-rule:evenodd;fill:#4AA089;stroke:url(#SVGID_00000173127597867763878750000003259024443652095924_);stroke-linecap:round;stroke-linejoin:round;stroke-miterlimit:10;}
	.st142{fill:#5DC29D;}
	.st143{fill:url(#SVGID_00000050621327549934171760000007822462568526134975_);}
	.st144{fill:url(#SVGID_00000014609770036936185110000015240748503073244046_);}
	.st145{fill:#E85C83;}
	.st146{opacity:0.67;fill:url(#SVGID_00000041266724528926900650000016561678534907211931_);enable-background:new    ;}
	.st147{fill:url(#SVGID_00000153665841152648626730000010997572221607915427_);}
	
		.st148{fill:none;stroke:url(#SVGID_00000128475603204196389420000004180291940078889903_);stroke-width:5;stroke-linecap:round;stroke-linejoin:round;stroke-miterlimit:10;}
	.st149{fill:url(#SVGID_00000183939095269496734680000005439441753898375608_);}
	.st150{opacity:0.67;fill:url(#SVGID_00000045602694691178201700000012582490466798940852_);enable-background:new    ;}
	.st151{fill:url(#SVGID_00000173851652054585802740000010498803849866115243_);}
	.st152{opacity:0.67;fill:url(#SVGID_00000025423098047852387630000003724736112444946584_);}
	.st153{fill:url(#SVGID_00000111886381694587432410000018225028303970016943_);}
	.st154{opacity:0.67;fill:url(#SVGID_00000119834297865301012860000011834632788970179215_);}
	.st155{fill:url(#SVGID_00000080177996964961379470000001617875511693547155_);}
	.st156{opacity:0.67;fill:url(#SVGID_00000007399147825026676070000005191003650553870766_);}
	.st157{fill:url(#SVGID_00000148628383986297084170000005563493846052277401_);}
	.st158{opacity:0.67;fill:url(#SVGID_00000101091227206580406820000002766508760770254232_);}
	.st159{fill:url(#SVGID_00000020379842635302960880000001903993569151206816_);}
	.st160{opacity:0.67;fill:url(#SVGID_00000021823862826352531560000011663166177818541959_);}
	.st161{fill:url(#SVGID_00000085973463436604078080000001143830999813817477_);}
	.st162{fill:none;stroke:#000000;stroke-width:22;stroke-linecap:round;stroke-linejoin:round;stroke-miterlimit:10;}
	.st163{fill:url(#SVGID_00000178181074495278668480000010546069197818407041_);}
	.st164{fill:url(#SVGID_00000002367549896600476080000008119575136164341900_);}
	.st165{fill:none;stroke:url(#SVGID_00000003784840360256709580000009584463730116407200_);stroke-width:5;stroke-miterlimit:10;}
	.st166{fill:url(#SVGID_00000134249580087681887460000011473144357150391461_);}
	.st167{fill:none;}
	.st168{opacity:0.67;fill:url(#SVGID_00000094609467199531858450000014034731676381744812_);}
	.st169{fill:url(#SVGID_00000026159445257042486520000014260692775328367521_);}
	.st170{fill:none;stroke:url(#SVGID_00000094582351159516684930000006045112197498918028_);stroke-width:5;stroke-miterlimit:10;}
	.st171{fill:url(#SVGID_00000066477255637984049540000004619901905179265415_);}
	.st172{opacity:0.67;fill:url(#SVGID_00000178167211640275899970000007090942772785043076_);}
	.st173{fill:url(#SVGID_00000060010994425617081200000018208734452143891105_);}
	.st174{opacity:0.67;fill:url(#SVGID_00000132054033557007642670000010163130721937221290_);}
	.st175{fill:url(#SVGID_00000135651902430421379060000016086953325637730446_);}
	.st176{opacity:0.67;fill:url(#SVGID_00000178913411401361335250000011370309515147304864_);}
	.st177{fill:url(#SVGID_00000029749617636515382120000015283255594958836645_);}
</style>
<g>
	<circle class="st7" cx="144.67" cy="70.24" r="26.03"/>
	<g>
		<g>
			<path class="st1" d="M138.21,43.43l-0.01,10.81c-0.33,1.38,0.28,2.85,1.82,3.91c2.54,1.76,6.66,1.76,9.2,0
				c1.08-0.75,1.7-1.69,1.86-2.67l0.04,0l0-0.45c0-0.04,0-0.09,0-0.13l0.01-11.18L138.21,43.43z"/>
			<path class="st1" d="M138.26,51.16c0,2.45,2.87,4.43,6.41,4.43s6.41-1.98,6.41-4.43"/>
			<path class="st1" d="M138.26,47.77c0,2.45,2.87,4.43,6.41,4.43s6.41-1.98,6.41-4.43"/>
			<path class="st1" d="M138.26,44.21c0,2.45,2.87,4.43,6.41,4.43s6.41-1.98,6.41-4.43"/>
		</g>
		<g>
			<path class="st1" d="M138.21,32.75l-0.01,10.81c-0.33,1.38,0.28,2.85,1.82,3.91c2.54,1.76,6.66,1.76,9.2,0
				c1.08-0.75,1.7-1.69,1.86-2.67l0.04,0l0-0.45c0-0.04,0-0.09,0-0.13l0.01-11.18L138.21,32.75z"/>
			<path class="st1" d="M138.26,40.49c0,2.45,2.87,4.43,6.41,4.43s6.41-1.98,6.41-4.43"/>
			<path class="st1" d="M138.26,37.1c0,2.45,2.87,4.43,6.41,4.43s6.41-1.98,6.41-4.43"/>
			<path class="st1" d="M138.26,33.54c0,2.45,2.87,4.43,6.41,4.43s6.41-1.98,6.41-4.43"/>
		</g>
	</g>
	<g>
		<g>
			<g>
				<polygon class="st2" points="144.27,48.55 126.46,38.27 126.46,20.45 144.27,30.74 				"/>
				<polygon class="st3" points="144.27,48.55 162.09,38.27 162.09,20.45 144.27,30.74 				"/>
				<polygon class="st4" points="144.34,30.79 126.46,20.47 144.21,10.13 162.09,20.45 				"/>
			</g>
			<path id="矩形_00000084517944453059055510000015566031938585708951_" class="st5" d="M138.69,15.45L138.69,15.45
				c0.35,0.2,0.29,0.58-0.12,0.83l-3.7,2.19c-0.42,0.25-1.08,0.29-1.43,0.09l0,0c-0.35-0.2-0.29-0.58,0.12-0.83l3.7-2.19
				C137.68,15.29,138.34,15.25,138.69,15.45z"/>
			<path id="矩形_00000157288124635365377830000001084617626279501719_" class="st5" d="M131.99,19.41L131.99,19.41
				c0.35,0.2,0.29,0.58-0.12,0.83l-0.72,0.42c-0.42,0.25-1.08,0.29-1.43,0.09l0,0c-0.35-0.2-0.29-0.58,0.12-0.83l0.72-0.42
				C131.02,19.24,131.64,19.21,131.99,19.41z"/>
		</g>
	</g>
</g>
<g>
	<circle class="st7" cx="263.33" cy="58.37" r="17.42"/>
	<g>
		<g>
			<path class="st1" d="M259,40.43l0,7.23c-0.22,0.92,0.19,1.91,1.22,2.62c1.7,1.18,4.46,1.18,6.16,0c0.72-0.5,1.14-1.13,1.25-1.79
				l0.03,0l0-0.3c0-0.03,0-0.06,0-0.09l0-7.49L259,40.43z"/>
			<path class="st1" d="M259.04,45.6c0,1.64,1.92,2.97,4.29,2.97c2.37,0,4.29-1.33,4.29-2.97"/>
			<path class="st1" d="M259.04,43.33c0,1.64,1.92,2.97,4.29,2.97c2.37,0,4.29-1.33,4.29-2.97"/>
			<path class="st1" d="M259.04,40.95c0,1.64,1.92,2.97,4.29,2.97c2.37,0,4.29-1.33,4.29-2.97"/>
		</g>
		<g>
			<path class="st1" d="M259,33.28l0,7.23c-0.22,0.92,0.19,1.91,1.22,2.62c1.7,1.18,4.46,1.18,6.16,0c0.72-0.5,1.14-1.13,1.25-1.79
				l0.03,0l0-0.3c0-0.03,0-0.06,0-0.09l0-7.49L259,33.28z"/>
			<path class="st1" d="M259.04,38.46c0,1.64,1.92,2.97,4.29,2.97c2.37,0,4.29-1.33,4.29-2.97"/>
			<path class="st1" d="M259.04,36.19c0,1.64,1.92,2.97,4.29,2.97c2.37,0,4.29-1.33,4.29-2.97"/>
			<path class="st1" d="M259.04,33.8c0,1.64,1.92,2.97,4.29,2.97c2.37,0,4.29-1.33,4.29-2.97"/>
		</g>
	</g>
	<g>
		<g>
			<g>
				<polygon class="st2" points="263.06,43.86 251.14,36.97 251.14,25.05 263.06,31.93 				"/>
				<polygon class="st3" points="263.06,43.86 274.99,36.97 274.99,25.05 263.06,31.93 				"/>
				<polygon class="st4" points="263.11,31.97 251.14,25.06 263.02,18.13 274.99,25.05 				"/>
			</g>
			<path id="矩形_00000048460771651221645110000012887682916228189346_" class="st5" d="M259.43,21.56L259.43,21.56
				c0.23,0.13,0.2,0.39-0.08,0.55l-2.47,1.46c-0.28,0.17-0.72,0.19-0.95,0.06l0,0c-0.23-0.13-0.2-0.39,0.08-0.55l2.47-1.46
				C258.75,21.46,259.19,21.43,259.43,21.56z"/>
			<path id="矩形_00000006702334600983477650000016031321244672891297_" class="st5" d="M254.95,24.22L254.95,24.22
				c0.23,0.13,0.2,0.39-0.08,0.55l-0.48,0.28c-0.28,0.17-0.72,0.19-0.95,0.06l0,0c-0.23-0.13-0.2-0.39,0.08-0.55l0.48-0.28
				C254.29,24.1,254.71,24.08,254.95,24.22z"/>
		</g>
	</g>
</g>
<g>
	<g>
		<polygon class="st3" points="263.04,158.85 209.25,189.57 209.5,210.38 263.16,179.85 		"/>
		<polygon class="st2" points="168.54,166.9 209.25,189.52 209.5,210.38 168.79,187.76 		"/>
		<polygon class="st4" points="262.79,158.83 221.55,135.82 168.54,166.9 209.25,189.72 		"/>
	</g>
	<g>
		<polygon class="st3" points="263.04,134.31 209.25,165.03 209.5,185.84 263.16,155.31 		"/>
		<polygon class="st2" points="168.54,142.36 209.25,164.97 209.5,185.84 168.79,163.22 		"/>
		<polygon class="st4" points="263.04,134.24 221.8,111.23 168.54,141.97 209.25,164.79 		"/>
	</g>
	<circle class="st7" cx="213.14" cy="111.19" r="41.04"/>
	<g>
		<g>
			<path class="st6" d="M217.3,175.29v-8.95l2.53-1.5c0.49-0.29,0.9-0.41,1.24-0.35c0.34,0.05,0.6,0.26,0.79,0.61
				c0.18,0.35,0.27,0.82,0.27,1.41c0,0.59-0.09,1.17-0.28,1.74c-0.18,0.56-0.45,1.07-0.8,1.53c-0.35,0.46-0.77,0.84-1.26,1.13
				l-1.61,0.96v-1.52l1.39-0.83c0.26-0.15,0.48-0.35,0.65-0.57c0.17-0.23,0.3-0.48,0.38-0.76c0.08-0.28,0.13-0.56,0.13-0.85
				c0-0.3-0.04-0.53-0.13-0.71c-0.08-0.17-0.21-0.27-0.38-0.29c-0.17-0.02-0.39,0.04-0.65,0.2l-0.91,0.54v7.4L217.3,175.29z"/>
			<path class="st6" d="M222.99,171.92v-6.71l1.29-0.77v1.17l0.05-0.03c0.09-0.47,0.23-0.87,0.44-1.21
				c0.21-0.34,0.44-0.58,0.71-0.74c0.07-0.04,0.14-0.08,0.22-0.11c0.08-0.03,0.15-0.06,0.2-0.07v1.65
				c-0.06,0.01-0.15,0.04-0.26,0.08c-0.11,0.04-0.21,0.09-0.3,0.15c-0.2,0.12-0.37,0.28-0.53,0.49c-0.15,0.21-0.27,0.44-0.36,0.71
				c-0.09,0.26-0.13,0.53-0.13,0.8v3.8L222.99,171.92z"/>
			<path class="st6" d="M228.54,168.76c-0.49,0.29-0.91,0.39-1.26,0.31c-0.35-0.08-0.63-0.32-0.82-0.73
				c-0.19-0.41-0.29-0.95-0.29-1.64c0-0.69,0.1-1.36,0.29-1.99c0.19-0.63,0.47-1.2,0.82-1.7c0.35-0.5,0.77-0.89,1.26-1.18
				c0.49-0.29,0.91-0.39,1.26-0.31c0.35,0.08,0.63,0.32,0.82,0.73c0.19,0.41,0.29,0.96,0.29,1.65c0,0.69-0.1,1.35-0.29,1.98
				c-0.19,0.63-0.47,1.2-0.82,1.7C229.45,168.08,229.03,168.47,228.54,168.76z M228.55,167.32c0.22-0.13,0.41-0.33,0.55-0.59
				s0.26-0.57,0.34-0.92s0.11-0.72,0.11-1.11c0-0.39-0.04-0.72-0.11-0.98s-0.19-0.44-0.34-0.53c-0.15-0.09-0.33-0.07-0.55,0.06
				c-0.22,0.13-0.41,0.33-0.56,0.6c-0.15,0.27-0.27,0.58-0.34,0.93c-0.08,0.35-0.11,0.72-0.11,1.11c0,0.39,0.04,0.72,0.11,0.98
				c0.08,0.26,0.19,0.43,0.34,0.52C228.14,167.47,228.32,167.45,228.55,167.32z"/>
			<path class="st6" d="M231.78,169.23V160l1.32-0.78v1.13l0.06-0.04c0.06-0.22,0.14-0.45,0.26-0.7c0.11-0.25,0.26-0.5,0.44-0.73
				c0.18-0.23,0.41-0.43,0.68-0.59c0.35-0.21,0.67-0.27,0.97-0.19c0.3,0.08,0.53,0.32,0.71,0.73c0.18,0.41,0.27,0.99,0.27,1.76
				c0,0.75-0.09,1.43-0.26,2.05c-0.17,0.62-0.41,1.14-0.7,1.58c-0.3,0.44-0.63,0.77-0.99,0.98c-0.26,0.15-0.48,0.22-0.66,0.21
				c-0.18-0.01-0.33-0.07-0.44-0.19c-0.11-0.11-0.2-0.25-0.26-0.4l-0.04,0.02v3.59L231.78,169.23z M233.09,162.58
				c0,0.4,0.04,0.72,0.12,0.97c0.08,0.25,0.19,0.41,0.34,0.49c0.15,0.07,0.33,0.05,0.55-0.08c0.22-0.13,0.4-0.32,0.55-0.58
				c0.15-0.26,0.26-0.56,0.34-0.9c0.08-0.35,0.12-0.71,0.12-1.1c0-0.39-0.04-0.71-0.12-0.95c-0.08-0.25-0.19-0.41-0.34-0.49
				c-0.15-0.08-0.33-0.05-0.55,0.08c-0.22,0.13-0.4,0.32-0.55,0.57s-0.26,0.54-0.34,0.89C233.13,161.81,233.09,162.18,233.09,162.58
				z"/>
			<path class="st6" d="M239.53,162.25c-0.49,0.29-0.91,0.39-1.26,0.31c-0.35-0.08-0.63-0.32-0.82-0.73
				c-0.19-0.41-0.29-0.95-0.29-1.64c0-0.69,0.1-1.36,0.29-1.99c0.19-0.63,0.47-1.2,0.82-1.7c0.35-0.5,0.77-0.89,1.26-1.18
				c0.49-0.29,0.91-0.39,1.26-0.31c0.35,0.08,0.63,0.32,0.82,0.73c0.19,0.41,0.29,0.96,0.29,1.65c0,0.69-0.1,1.35-0.29,1.98
				c-0.19,0.63-0.47,1.2-0.82,1.7C240.44,161.57,240.02,161.96,239.53,162.25z M239.54,160.8c0.22-0.13,0.41-0.33,0.55-0.59
				s0.26-0.57,0.34-0.92c0.08-0.35,0.11-0.72,0.11-1.11s-0.04-0.72-0.11-0.98c-0.08-0.26-0.19-0.44-0.34-0.53
				c-0.15-0.09-0.33-0.07-0.55,0.06c-0.22,0.13-0.41,0.33-0.56,0.6c-0.15,0.27-0.27,0.58-0.34,0.93s-0.11,0.72-0.11,1.11
				c0,0.39,0.04,0.72,0.11,0.98c0.08,0.26,0.19,0.43,0.34,0.52C239.13,160.96,239.32,160.94,239.54,160.8z"/>
			<path class="st6" d="M246.78,153.03l-1.22,0.83c-0.02-0.13-0.07-0.24-0.13-0.32c-0.07-0.08-0.16-0.12-0.27-0.12
				c-0.11-0.01-0.24,0.04-0.4,0.13c-0.21,0.12-0.38,0.29-0.52,0.49c-0.14,0.21-0.21,0.41-0.21,0.61c0,0.16,0.05,0.27,0.14,0.32
				c0.09,0.06,0.25,0.05,0.47-0.01l0.87-0.27c0.47-0.14,0.82-0.13,1.05,0.03c0.23,0.16,0.34,0.48,0.34,0.97
				c0,0.44-0.09,0.88-0.28,1.32c-0.18,0.44-0.44,0.85-0.76,1.22c-0.32,0.38-0.69,0.69-1.11,0.93c-0.64,0.38-1.14,0.49-1.52,0.34
				c-0.38-0.15-0.6-0.52-0.66-1.13l1.31-0.87c0.04,0.25,0.14,0.4,0.29,0.45c0.15,0.05,0.35,0.01,0.59-0.14
				c0.23-0.14,0.42-0.31,0.57-0.53c0.14-0.21,0.22-0.42,0.22-0.62c0-0.17-0.05-0.28-0.15-0.33c-0.1-0.05-0.25-0.04-0.46,0.02
				l-0.83,0.26c-0.47,0.15-0.82,0.13-1.05-0.06c-0.23-0.19-0.34-0.53-0.34-1.03c0-0.43,0.08-0.85,0.25-1.26
				c0.17-0.41,0.4-0.79,0.71-1.14c0.31-0.35,0.66-0.65,1.08-0.89c0.61-0.36,1.09-0.46,1.44-0.31
				C246.51,152.08,246.72,152.45,246.78,153.03z"/>
			<path class="st6" d="M249.1,156.58c-0.31,0.18-0.58,0.27-0.82,0.26c-0.24-0.01-0.43-0.12-0.57-0.33
				c-0.14-0.21-0.21-0.54-0.21-0.98c0-0.37,0.05-0.72,0.15-1.03c0.1-0.31,0.23-0.59,0.4-0.85c0.17-0.25,0.36-0.49,0.58-0.69
				c0.22-0.21,0.44-0.4,0.68-0.57c0.28-0.21,0.51-0.38,0.68-0.52c0.17-0.14,0.3-0.27,0.37-0.38c0.08-0.12,0.12-0.25,0.12-0.39v-0.03
				c0-0.28-0.06-0.45-0.19-0.53c-0.12-0.08-0.3-0.05-0.53,0.09c-0.24,0.14-0.43,0.33-0.57,0.56c-0.14,0.23-0.24,0.47-0.28,0.72
				l-1.23,0.59c0.06-0.44,0.19-0.87,0.37-1.28c0.18-0.41,0.42-0.78,0.71-1.11c0.29-0.33,0.63-0.62,1.01-0.84
				c0.27-0.16,0.52-0.27,0.77-0.32c0.25-0.06,0.46-0.05,0.65,0.02c0.19,0.07,0.34,0.22,0.45,0.44c0.11,0.22,0.17,0.53,0.17,0.93
				v4.53l-1.27,0.75v-0.93l-0.04,0.02c-0.08,0.26-0.18,0.5-0.31,0.74c-0.13,0.24-0.29,0.45-0.47,0.65
				C249.55,156.27,249.34,156.43,249.1,156.58z M249.48,155.06c0.2-0.12,0.37-0.27,0.52-0.47c0.15-0.2,0.27-0.42,0.35-0.65
				c0.09-0.24,0.13-0.47,0.13-0.71v-0.71c-0.04,0.06-0.1,0.13-0.17,0.2c-0.07,0.07-0.15,0.15-0.24,0.23
				c-0.09,0.08-0.18,0.15-0.27,0.23c-0.09,0.07-0.17,0.14-0.24,0.2c-0.16,0.12-0.29,0.26-0.41,0.4c-0.12,0.14-0.21,0.29-0.27,0.44
				c-0.06,0.16-0.1,0.32-0.1,0.5c0,0.25,0.07,0.41,0.2,0.46C249.11,155.22,249.28,155.19,249.48,155.06z"/>
			<path class="st6" d="M254.18,144.49v8.95l-1.33,0.79v-8.95L254.18,144.49z"/>
		</g>
	</g>
</g>
<g>
	<polygon class="st3" points="132.63,74 22.49,136.92 22.49,195.82 132.63,132.9 	"/>
	<polygon class="st2" points="8.05,128.76 22.49,136.56 22.49,195.82 8.05,188.02 	"/>
	<polygon class="st4" points="132.63,74 117.12,65.8 8.05,128.76 22.49,136.56 	"/>
</g>
<g>
	<path class="st6" d="M34.88,159.72v-18.84l5.04-3c0.87-0.52,1.63-0.69,2.28-0.53c0.65,0.17,1.16,0.64,1.52,1.42
		c0.36,0.79,0.54,1.85,0.54,3.18c0,1.35-0.18,2.63-0.56,3.84c-0.37,1.21-0.89,2.28-1.56,3.21c-0.67,0.93-1.44,1.66-2.33,2.19
		l-3.01,1.79v-3.97l2.37-1.41c0.37-0.22,0.69-0.52,0.96-0.89c0.26-0.37,0.47-0.79,0.61-1.27c0.14-0.48,0.21-0.98,0.21-1.52
		c0-0.54-0.07-0.96-0.21-1.26c-0.14-0.3-0.35-0.47-0.61-0.52c-0.26-0.05-0.58,0.04-0.96,0.26l-1.12,0.66v14.75L34.88,159.72z"/>
	<path class="st6" d="M46.99,152.51l-3.42,2.04l3.85-21.13l4.33-2.58l3.85,16.54l-3.42,2.04l-2.55-12.13l-0.09,0.06L46.99,152.51z
		 M46.35,145.46l6.43-3.83v3.83l-6.43,3.83V145.46z"/>
	<path class="st6" d="M55.07,128.87l3.53-2.1l2.28,6.29l0.09-0.06l2.28-9.01l3.53-2.11l-4.29,15.47v5.92l-3.15,1.87v-5.92
		L55.07,128.87z"/>
	<path class="st6" d="M67.82,140.11v-18.84l3.17-1.89v14.72l4.72-2.81v4.12L67.82,140.11z"/>
	<path class="st6" d="M87.84,118.77c0,2.1-0.25,4.02-0.76,5.75c-0.51,1.74-1.19,3.23-2.05,4.48c-0.86,1.25-1.82,2.19-2.87,2.82
		c-1.06,0.64-2.03,0.83-2.88,0.6c-0.86-0.24-1.54-0.92-2.04-2.06c-0.5-1.14-0.76-2.75-0.76-4.83c0-2.1,0.25-4.01,0.76-5.75
		c0.5-1.74,1.18-3.23,2.04-4.48c0.86-1.25,1.82-2.19,2.88-2.82c1.06-0.63,2.01-0.83,2.87-0.6c0.86,0.23,1.54,0.91,2.05,2.05
		C87.58,115.06,87.84,116.67,87.84,118.77z M84.58,120.71c0-1.13-0.09-2.02-0.28-2.69c-0.18-0.67-0.46-1.09-0.82-1.28
		c-0.36-0.19-0.8-0.12-1.33,0.19c-0.52,0.31-0.97,0.78-1.33,1.39c-0.36,0.62-0.63,1.37-0.82,2.25c-0.18,0.89-0.28,1.89-0.28,3.02
		c0,1.13,0.09,2.03,0.28,2.69c0.18,0.67,0.46,1.09,0.82,1.28c0.36,0.19,0.8,0.13,1.33-0.19c0.52-0.31,0.97-0.78,1.33-1.39
		c0.36-0.62,0.63-1.37,0.82-2.25C84.48,122.85,84.58,121.84,84.58,120.71z"/>
	<path class="st6" d="M91.6,125.95l-3.42,2.04l3.85-21.13l4.33-2.58l3.85,16.54l-3.42,2.04l-2.55-12.13l-0.09,0.06L91.6,125.95z
		 M90.96,118.9l6.43-3.83v3.83l-6.43,3.83V118.9z"/>
	<path class="st6" d="M105.83,117.47l-4.49,2.68v-18.84l4.45-2.65c1.2-0.71,2.24-0.96,3.12-0.73c0.88,0.23,1.55,0.91,2.03,2.03
		c0.48,1.12,0.72,2.67,0.72,4.63c0,1.96-0.24,3.79-0.71,5.48c-0.47,1.69-1.15,3.17-2.02,4.44
		C108.04,115.78,107.02,116.77,105.83,117.47z M104.51,113.92l1.21-0.72c0.58-0.34,1.07-0.79,1.48-1.33
		c0.41-0.54,0.72-1.25,0.94-2.11c0.21-0.86,0.32-1.95,0.32-3.26s-0.11-2.27-0.33-2.88c-0.22-0.61-0.54-0.93-0.96-0.98
		c-0.42-0.05-0.93,0.1-1.54,0.47l-1.12,0.66V113.92z"/>
	<path class="st6" d="M119.4,96.44c-0.03-0.6-0.17-0.99-0.43-1.18c-0.25-0.19-0.64-0.14-1.15,0.17c-0.33,0.19-0.59,0.42-0.8,0.66
		c-0.21,0.25-0.36,0.51-0.46,0.78c-0.1,0.27-0.15,0.55-0.15,0.83c-0.01,0.23,0.02,0.42,0.08,0.57c0.06,0.15,0.15,0.25,0.28,0.32
		c0.13,0.07,0.29,0.1,0.5,0.1c0.2,0,0.44-0.04,0.72-0.11l0.96-0.24c0.65-0.16,1.2-0.2,1.66-0.12c0.46,0.09,0.84,0.29,1.13,0.6
		c0.29,0.31,0.51,0.73,0.65,1.26c0.14,0.53,0.21,1.14,0.21,1.86c0,1.24-0.2,2.4-0.58,3.49c-0.38,1.09-0.92,2.06-1.63,2.93
		c-0.71,0.87-1.55,1.6-2.54,2.18c-1.02,0.6-1.9,0.89-2.65,0.85c-0.75-0.03-1.34-0.43-1.76-1.19c-0.42-0.76-0.63-1.93-0.63-3.5
		l3.01-1.79c0.02,0.56,0.11,1,0.27,1.29c0.16,0.3,0.38,0.46,0.68,0.49c0.29,0.03,0.64-0.08,1.04-0.32c0.34-0.2,0.62-0.44,0.85-0.71
		c0.23-0.27,0.4-0.56,0.52-0.87c0.12-0.31,0.18-0.62,0.18-0.93c0-0.29-0.06-0.5-0.17-0.65c-0.11-0.15-0.3-0.24-0.55-0.26
		c-0.25-0.02-0.6,0.02-1.03,0.12l-1.16,0.29c-1.03,0.25-1.85,0.13-2.44-0.36c-0.6-0.49-0.89-1.48-0.89-2.95
		c0-1.19,0.19-2.36,0.6-3.5s0.96-2.17,1.67-3.1c0.71-0.93,1.53-1.67,2.45-2.22c0.94-0.56,1.76-0.79,2.45-0.69
		c0.69,0.1,1.22,0.5,1.59,1.2c0.37,0.7,0.56,1.66,0.57,2.89L119.4,96.44z"/>
	<path class="st6" d="M35.56,180.95v-17.37l7.76-4.62v3.8l-4.84,2.88v2.98l4.44-2.64v3.8l-4.44,2.64v2.99l4.82-2.87v3.8
		L35.56,180.95z"/>
	<path class="st6" d="M47.9,156.23l1.77,4l0.08-0.05l1.79-6.12l3.26-1.94l-3.22,10.6l3.34,6.69l-3.34,1.99l-1.83-4.07l-0.08,0.05
		l-1.83,6.25l-3.32,1.98l3.3-10.65l-3.2-6.78L47.9,156.23z"/>
	<path class="st6" d="M56.06,168.74v-17.37l7.76-4.62v3.8l-4.84,2.88v2.98l4.44-2.64v3.8l-4.44,2.64v2.99l4.82-2.87v3.8
		L56.06,168.74z"/>
	<path class="st6" d="M75.33,146.41l-2.97,1.77c-0.02-0.38-0.08-0.71-0.17-0.98c-0.09-0.27-0.21-0.47-0.37-0.62
		c-0.16-0.14-0.34-0.21-0.56-0.21c-0.22,0-0.47,0.09-0.75,0.26c-0.49,0.29-0.91,0.73-1.24,1.32c-0.34,0.59-0.59,1.29-0.77,2.11
		c-0.17,0.82-0.26,1.74-0.26,2.74c0,1.06,0.09,1.9,0.27,2.51c0.18,0.61,0.43,1,0.77,1.15c0.34,0.16,0.74,0.1,1.21-0.18
		c0.27-0.16,0.51-0.36,0.73-0.6c0.21-0.24,0.4-0.51,0.56-0.81s0.29-0.63,0.39-0.99c0.1-0.36,0.17-0.73,0.2-1.12l2.97-1.73
		c-0.04,0.76-0.16,1.58-0.38,2.47c-0.22,0.89-0.53,1.78-0.94,2.66c-0.41,0.88-0.91,1.7-1.5,2.44c-0.6,0.75-1.29,1.35-2.08,1.82
		c-0.99,0.59-1.87,0.78-2.66,0.56c-0.78-0.22-1.4-0.86-1.86-1.91s-0.68-2.55-0.68-4.47c0-1.93,0.23-3.7,0.69-5.3
		c0.46-1.6,1.09-2.98,1.87-4.13c0.79-1.15,1.66-2.01,2.63-2.59c0.68-0.4,1.31-0.63,1.88-0.67s1.07,0.1,1.5,0.41
		c0.43,0.32,0.78,0.82,1.04,1.5C75.12,144.5,75.28,145.36,75.33,146.41z"/>
	<path class="st6" d="M83.03,135.31l2.92-1.74v11.13c0,1.32-0.2,2.58-0.59,3.78c-0.39,1.2-0.94,2.27-1.63,3.21
		c-0.7,0.94-1.51,1.68-2.43,2.23c-0.93,0.55-1.74,0.78-2.44,0.67c-0.7-0.11-1.24-0.53-1.63-1.26c-0.39-0.73-0.58-1.76-0.58-3.08
		V139.1l2.92-1.74v10.72c0,0.54,0.07,0.97,0.22,1.31c0.15,0.33,0.35,0.54,0.61,0.62c0.26,0.08,0.56,0.02,0.89-0.17
		c0.34-0.2,0.64-0.5,0.89-0.89c0.26-0.39,0.46-0.84,0.61-1.35c0.15-0.51,0.22-1.03,0.22-1.57V135.31z"/>
	<path class="st6" d="M87.05,136.71v-3.8l9.36-5.57v3.8l-3.24,1.93v13.57l-2.88,1.71v-13.57L87.05,136.71z"/>
	<path class="st6" d="M100.43,124.95v17.37l-2.92,1.74v-17.37L100.43,124.95z"/>
	<path class="st6" d="M111.13,118.57v17.37l-2.44,1.45l-3.89-6.81l-0.06,0.04v9.13l-2.92,1.74v-17.37l2.48-1.48l3.83,6.81l0.08-0.05
		v-9.09L111.13,118.57z"/>
	<path class="st6" d="M119.51,119.31c-0.05-0.27-0.12-0.49-0.22-0.66c-0.1-0.17-0.22-0.29-0.37-0.37c-0.15-0.08-0.31-0.1-0.51-0.06
		c-0.19,0.03-0.4,0.12-0.63,0.25c-0.49,0.29-0.91,0.73-1.25,1.32c-0.35,0.58-0.61,1.29-0.79,2.11c-0.18,0.82-0.27,1.73-0.27,2.74
		c0,1.02,0.09,1.84,0.26,2.46s0.43,1.02,0.77,1.21s0.76,0.12,1.27-0.18c0.45-0.27,0.82-0.59,1.11-0.98c0.3-0.39,0.52-0.81,0.67-1.29
		c0.15-0.47,0.22-0.97,0.22-1.49l0.51-0.22l-2.46,1.47v-3.36l4.77-2.84v2.41c0,1.58-0.21,3.06-0.62,4.43
		c-0.42,1.37-0.99,2.57-1.71,3.6c-0.73,1.03-1.56,1.82-2.5,2.38c-1.05,0.62-1.97,0.81-2.76,0.57c-0.79-0.25-1.41-0.9-1.85-1.97
		c-0.44-1.06-0.67-2.51-0.67-4.35c0-1.44,0.14-2.79,0.41-4.06c0.27-1.27,0.65-2.43,1.13-3.49c0.48-1.05,1.04-1.97,1.68-2.74
		c0.63-0.77,1.31-1.37,2.04-1.8c0.64-0.38,1.23-0.59,1.78-0.62c0.55-0.03,1.03,0.09,1.46,0.37c0.42,0.28,0.76,0.71,1.02,1.29
		c0.26,0.58,0.42,1.28,0.47,2.12L119.51,119.31z"/>
</g>
<circle class="st8" cx="213.14" cy="111.19" r="28.4"/>
<circle class="st8" cx="213.14" cy="111.19" r="11.86"/>
<polygon class="st3" points="259.82,27.52 258.47,26.76 266.31,22.14 267.66,22.9 "/>
<polygon class="st3" points="139.38,24.63 137.2,23.4 149.87,15.92 152.05,17.15 "/>
<g>
	<path id="矩形_00000177475791441506383000000001490439725961011084_" class="st82" d="M172.16,217.11L172.16,217.11
		c0.62,0,1.15,0.76,1.15,1.64v1.52c0,0.88-0.53,1.64-1.15,1.64l0,0c-0.62,0-1.15-0.76-1.15-1.64v-1.52
		C171.02,217.8,171.55,217.11,172.16,217.11z"/>
	
		<radialGradient id="SVGID_1_" cx="140.6214" cy="251.2355" r="29.1582" gradientTransform="matrix(1 0 0 0.5898 0 103.0585)" gradientUnits="userSpaceOnUse">
		<stop  offset="0" style="stop-color:#06070C"/>
		<stop  offset="1" style="stop-color:#0D101D;stop-opacity:0"/>
	</radialGradient>
	<path style="opacity:0.67;fill:url(#SVGID_1_);" d="M165.62,237.16c-13.68-7.9-35.96-8-49.77-0.23s-13.91,20.48-0.23,28.37
		s35.96,8,49.77,0.23C179.19,257.76,179.3,245.06,165.62,237.16z"/>
	<g>
		<path class="st84" d="M179.12,201.13v-49.28c0-0.23,0.02-0.45,0.02-0.68c0-22.91-18.57-41.48-41.48-41.48
			c-22.91,0-41.48,18.57-41.48,41.48c0,0.36,0.02,0.72,0.03,1.07v44.66h-0.03v22.67c0,2.84,2.3,5.15,5.15,5.15
			c2.84,0,5.15-2.31,5.15-5.15v-0.83c0.56,0.36,1.13,0.72,1.74,1.07c1.83,1.06,3.79,1.99,5.85,2.81v8.2c0,2.84,2.3,5.15,5.15,5.15
			c2.84,0,5.15-2.31,5.15-5.15v-5.23c2.95,0.57,5.99,0.96,9.06,1.14v12.59c0,2.84,2.3,5.15,5.15,5.15s5.15-2.31,5.15-5.15v-12.7
			c3.39-0.28,6.73-0.8,9.93-1.55v6.36c0,2.84,2.3,5.15,5.15,5.15s5.15-2.31,5.15-5.15v-9.87c1-0.47,1.97-0.96,2.91-1.49
			c0.7-0.39,1.35-0.8,1.99-1.21v0.71c0,2.84,2.3,5.15,5.15,5.15c2.84,0,5.15-2.31,5.15-5.15v-18.45H179.12z"/>
		
			<radialGradient id="SVGID_00000078027338567982441280000011857489463119131576_" cx="162.3441" cy="127.1149" r="106.6854" gradientUnits="userSpaceOnUse">
			<stop  offset="0.0124" style="stop-color:#DD78CE"/>
			<stop  offset="0.4936" style="stop-color:#A7589A"/>
			<stop  offset="0.5829" style="stop-color:#A0619E"/>
			<stop  offset="0.7273" style="stop-color:#8E79A8"/>
			<stop  offset="0.9078" style="stop-color:#709FB9"/>
			<stop  offset="1" style="stop-color:#5EB6C3"/>
		</radialGradient>
		<path style="fill:url(#SVGID_00000078027338567982441280000011857489463119131576_);" d="M179.12,201.13v-49.28
			c0-0.23,0.02-0.45,0.02-0.68c0-22.91-18.57-41.48-41.48-41.48c-22.91,0-41.48,18.57-41.48,41.48c0,0.36,0.02,0.72,0.03,1.07v44.66
			h-0.03v22.67c0,2.84,2.3,5.15,5.15,5.15c2.84,0,5.15-2.31,5.15-5.15v-0.83c0.56,0.36,1.13,0.72,1.74,1.07
			c1.83,1.06,3.79,1.99,5.85,2.81v8.2c0,2.84,2.3,5.15,5.15,5.15c2.84,0,5.15-2.31,5.15-5.15v-5.23c2.95,0.57,5.99,0.96,9.06,1.14
			v12.59c0,2.84,2.3,5.15,5.15,5.15s5.15-2.31,5.15-5.15v-12.7c3.39-0.28,6.73-0.8,9.93-1.55v6.36c0,2.84,2.3,5.15,5.15,5.15
			s5.15-2.31,5.15-5.15v-9.87c1-0.47,1.97-0.96,2.91-1.49c0.7-0.39,1.35-0.8,1.99-1.21v0.71c0,2.84,2.3,5.15,5.15,5.15
			c2.84,0,5.15-2.31,5.15-5.15v-18.45H179.12z"/>
	</g>
	<path id="矩形_00000070106755442718185520000016237323888009081235_" class="st82" d="M100.07,187.29L100.07,187.29
		c1.12,0,2.09,1.38,2.09,2.99v14.25c0,1.61-0.96,2.99-2.09,2.99l0,0c-1.12,0-2.09-1.38-2.09-2.99v-14.25
		C97.99,188.67,98.95,187.29,100.07,187.29z"/>
	<path id="矩形_00000089541459541874871620000012990970060366502821_" class="st82" d="M161.37,124.2L161.37,124.2
		c1.37-1.02,3.68-0.37,5.02,1.41l2.29,3.06c1.34,1.78,1.31,4.19-0.06,5.22l0,0c-1.37,1.02-3.68,0.37-5.02-1.41l-2.29-3.06
		C159.88,127.5,160.01,125.23,161.37,124.2z"/>
	<path id="矩形_00000100378209881543376790000018412861955628674481_" class="st82" d="M117.47,223.88L117.47,223.88
		c1.12,0,2.09,1.38,2.09,2.99v2.76c0,1.61-0.96,2.99-2.09,2.99l0,0c-1.12,0-2.09-1.38-2.09-2.99v-2.76
		C115.38,225.14,116.35,223.88,117.47,223.88z"/>
	<path id="矩形_00000061473054331160137380000012729317109344378787_" class="st82" d="M99.82,213.08L99.82,213.08
		c1.12,0,2.09,1.38,2.09,2.99v2.76c0,1.61-0.96,2.99-2.09,2.99l0,0c-1.12,0-2.09-1.38-2.09-2.99v-2.76
		C97.74,214.34,98.7,213.08,99.82,213.08z"/>
	<path id="矩形_00000168807348715938532800000008745763656827665841_" class="st82" d="M137.66,232.62L137.66,232.62
		c1.12,0,2.09,1.38,2.09,2.99v2.76c0,1.61-0.96,2.99-2.09,2.99l0,0c-1.12,0-2.09-1.38-2.09-2.99v-2.76
		C135.57,233.88,136.54,232.62,137.66,232.62z"/>
	<path id="矩形_00000012445610517267280430000007607617594041538743_" class="st82" d="M157.36,227.27L157.36,227.27
		c0.89,0,1.66,1.1,1.66,2.37v2.19c0,1.28-0.76,2.37-1.66,2.37l0,0c-0.89,0-1.66-1.1-1.66-2.37v-2.19
		C155.7,228.28,156.47,227.27,157.36,227.27z"/>
	<g>
		<path id="椭圆形_00000007422716816904326620000014984628929913224583_" class="st86" d="M147.67,182.16
			c4.06-0.17,7.1-3.66,7.09-6c0-0.94-0.55-1.75-1.38-1.81c-1.29-0.13-3.23,0.7-5.72,0.8c-2.31,0.1-3.78-0.5-5.53-0.42
			c-1.84,0.08-1.75,2.22-1.47,3.06C141.3,180.09,143.52,182.33,147.67,182.16z"/>
		<path id="椭圆形_00000165233444825709455550000013542517233671072930_" class="st87" d="M147.76,180.19
			c4.15-0.17,7.19-3.38,7.19-5.63c0-0.84-0.55-1.57-1.38-1.63c-1.29-0.13-3.32,0.7-5.81,0.8c-2.4,0.1-3.78-0.5-5.62-0.43
			s-1.75,2.13-1.48,2.87C141.3,178.3,143.61,180.36,147.76,180.19z"/>
	</g>
	<g>
		
			<ellipse transform="matrix(0.5671 -0.8237 0.8237 0.5671 -74.1156 176.3792)" class="st87" cx="130.72" cy="158.69" rx="9.5" ry="9.1"/>
		<path id="形状结合_00000119818962879548548770000000774626233256057509_" class="st88" d="M131.92,148.73
			c4.24-0.18,7.66,3.98,7.66,9.22c0,0.19,0,0.37,0,0.56l0,0.56c0-5.33-3.33-9.59-7.48-9.42c-4.15,0.17-7.46,4.61-7.46,10.04
			c0,1.03,0.09,2.05,0.37,2.98c-0.46-1.2-0.74-2.59-0.74-3.99C124.27,153.35,127.68,148.9,131.92,148.73z"/>
		<path id="形状结合_00000121978011672479572700000012820974315623602599_" class="st89" d="M131.92,147.6
			c4.7-0.2,8.58,4.41,8.58,10.31c0.01,5.89-3.86,10.83-8.57,11.02c-4.7,0.2-8.58-4.41-8.58-10.31
			C123.35,152.73,127.12,147.8,131.92,147.6z M131.92,148.73c-4.24,0.18-7.65,4.62-7.64,9.86c0,5.24,3.42,9.4,7.66,9.22
			c4.24-0.18,7.65-4.62,7.64-9.86C139.58,152.71,136.07,148.55,131.92,148.73z"/>
	</g>
	<g>
		
			<ellipse transform="matrix(0.5671 -0.8237 0.8237 0.5671 -59.6804 201.0825)" class="st87" cx="161.44" cy="157.31" rx="9.5" ry="9.1"/>
		<path id="形状结合_00000093869785653967001150000002948921977205411206_" class="st88" d="M162.43,147.35
			c4.24-0.18,7.66,3.98,7.66,9.22c0,0.19,0,0.37,0,0.56l0,0.56c0-5.33-3.33-9.59-7.48-9.42c-4.15,0.17-7.46,4.61-7.46,10.04
			c0,1.03,0.09,2.05,0.37,2.98c-0.46-1.2-0.74-2.59-0.74-3.99C154.78,151.98,158.19,147.53,162.43,147.35z"/>
		<path id="形状结合_00000134962465265006679570000003394589694534836897_" class="st89" d="M162.43,146.23
			c4.7-0.2,8.58,4.41,8.58,10.31s-3.86,10.83-8.57,11.02s-8.58-4.41-8.58-10.31C153.86,151.36,157.64,146.43,162.43,146.23z
			 M162.43,147.35c-4.24,0.18-7.65,4.62-7.64,9.86s3.42,9.4,7.66,9.22c4.24-0.18,7.65-4.62,7.64-9.86
			C170.09,151.34,166.58,147.18,162.43,147.35z"/>
	</g>
	<circle class="st86" cx="128.04" cy="156.26" r="3.77"/>
	<circle class="st86" cx="158.59" cy="155.13" r="3.77"/>
</g>
</svg>
