<?xml version="1.0" encoding="utf-8"?>
<!-- Generator: Adobe Illustrator 27.8.1, SVG Export Plug-In . SVG Version: 6.00 Build 0)  -->
<svg version="1.1" id="Слой_1" xmlns="http://www.w3.org/2000/svg" xmlns:xlink="http://www.w3.org/1999/xlink" x="0px" y="0px"
	 viewBox="0 0 290 269.62" style="enable-background:new 0 0 290 269.62;" xml:space="preserve">
<style type="text/css">
	.st0{fill:#101422;}
	.st1{fill:#FFFFFF;stroke:#111422;stroke-linecap:round;stroke-linejoin:round;stroke-miterlimit:10;}
	
		.st2{fill-rule:evenodd;clip-rule:evenodd;fill:#C6C3D1;stroke:#101320;stroke-linecap:round;stroke-linejoin:round;stroke-miterlimit:10;}
	
		.st3{fill-rule:evenodd;clip-rule:evenodd;fill:#FFFFFF;stroke:#111422;stroke-linecap:round;stroke-linejoin:round;stroke-miterlimit:10;}
	
		.st4{fill-rule:evenodd;clip-rule:evenodd;fill:#ECF0FC;stroke:#111422;stroke-linecap:round;stroke-linejoin:round;stroke-miterlimit:10;}
	.st5{opacity:0.92;fill-rule:evenodd;clip-rule:evenodd;fill:#FFFFFF;enable-background:new    ;}
	.st6{fill:none;stroke:#FFFFFF;stroke-linecap:round;stroke-linejoin:round;stroke-miterlimit:10;}
	.st7{fill-rule:evenodd;clip-rule:evenodd;fill:#101422;}
	.st8{fill:url(#SVGID_1_);}
	.st9{fill:url(#SVGID_00000170997499124309206620000004718548983606142896_);}
	.st10{fill:url(#SVGID_00000075880981261576603870000000601604575331825309_);}
	.st11{opacity:0.67;fill:url(#SVGID_00000132794727731378703240000013323224448756180640_);enable-background:new    ;}
	.st12{fill:#6FA3B6;}
	.st13{fill:url(#SVGID_00000036942054051977545470000010722766009591586706_);}
	.st14{opacity:0.2563;fill-rule:evenodd;clip-rule:evenodd;fill:#FFFFFF;enable-background:new    ;}
	.st15{fill:none;stroke:#FFFFFF;stroke-width:0.7384;stroke-linecap:round;stroke-linejoin:round;stroke-miterlimit:10;}
	
		.st16{fill:none;stroke:url(#SVGID_00000078004682826541230490000013259966225777278895_);stroke-width:5;stroke-linecap:round;stroke-linejoin:round;stroke-miterlimit:10;}
	.st17{fill:url(#SVGID_00000011738323855209777030000013424329216597292724_);}
	.st18{fill-rule:evenodd;clip-rule:evenodd;fill:#1AD4B3;}
	.st19{fill-rule:evenodd;clip-rule:evenodd;fill:#FC4F83;}
	.st20{fill:#C6C3D1;stroke:#101320;stroke-linecap:round;stroke-linejoin:round;stroke-miterlimit:10;}
	.st21{fill:#ECF0FC;stroke:#111422;stroke-linecap:round;stroke-linejoin:round;stroke-miterlimit:10;}
	
		.st22{fill:url(#SVGID_00000059311203798654420430000000455037992783925658_);stroke:#1D1D1B;stroke-width:0.2115;stroke-linecap:round;stroke-linejoin:round;stroke-miterlimit:10;}
	
		.st23{fill:url(#SVGID_00000146463783541380220620000013112521997019240320_);stroke:#1D1D1B;stroke-width:0.2115;stroke-linecap:round;stroke-linejoin:round;stroke-miterlimit:10;}
	
		.st24{fill:url(#SVGID_00000031921080567258432260000010111265229658364583_);stroke:#1D1D1B;stroke-width:0.2115;stroke-linecap:round;stroke-linejoin:round;stroke-miterlimit:10;}
	
		.st25{fill:url(#SVGID_00000092426533070824268260000014290860373467031690_);stroke:#1D1D1B;stroke-width:0.2115;stroke-linecap:round;stroke-linejoin:round;stroke-miterlimit:10;}
	
		.st26{fill-rule:evenodd;clip-rule:evenodd;fill:#101422;stroke:#101423;stroke-linecap:round;stroke-linejoin:round;stroke-miterlimit:10;}
	.st27{fill:#FFFFFF;}
	.st28{fill-rule:evenodd;clip-rule:evenodd;fill:url(#SVGID_00000149347881162719610140000003846922990609426076_);}
	.st29{fill-rule:evenodd;clip-rule:evenodd;fill:url(#SVGID_00000173842806962156483360000003078226958575421372_);}
	.st30{fill:url(#SVGID_00000088127911764076165660000015973538827002073514_);}
	.st31{fill:url(#SVGID_00000065793909835844993560000010367762596284102815_);}
	.st32{fill:url(#SVGID_00000047049616908592336930000014280989903477581217_);}
	
		.st33{fill-rule:evenodd;clip-rule:evenodd;fill:#C7FFF1;stroke:#101320;stroke-linecap:round;stroke-linejoin:round;stroke-miterlimit:10;}
	
		.st34{fill:none;stroke:url(#SVGID_00000029009384446268302740000005216045438144829578_);stroke-width:5;stroke-linecap:round;stroke-linejoin:round;stroke-miterlimit:10;}
	.st35{fill:url(#SVGID_00000110438055957428393090000012058809044915874736_);}
	
		.st36{fill:none;stroke:url(#SVGID_00000141447535347746056940000002148321658310363287_);stroke-width:5;stroke-linecap:round;stroke-linejoin:round;stroke-miterlimit:10;}
	.st37{fill:url(#SVGID_00000062903563429076322910000017335841897299800499_);}
	
		.st38{fill:none;stroke:url(#SVGID_00000016759087819125192490000003898542574021849735_);stroke-width:5;stroke-linecap:round;stroke-linejoin:round;stroke-miterlimit:10;}
	.st39{fill:url(#SVGID_00000022546124863857528960000012262154044499050137_);}
	
		.st40{fill-rule:evenodd;clip-rule:evenodd;fill:#1AD4B3;stroke:#111422;stroke-linecap:round;stroke-linejoin:round;stroke-miterlimit:10;}
	
		.st41{fill-rule:evenodd;clip-rule:evenodd;fill:#FC4F83;stroke:#111422;stroke-linecap:round;stroke-linejoin:round;stroke-miterlimit:10;}
	
		.st42{fill-rule:evenodd;clip-rule:evenodd;fill:#FFCAD7;stroke:#111422;stroke-linecap:round;stroke-linejoin:round;stroke-miterlimit:10;}
	.st43{fill:url(#SVGID_00000032643682406756349840000013003703100777938349_);}
	.st44{fill:url(#SVGID_00000002374784316098859190000015915442642968002699_);}
	.st45{fill:url(#SVGID_00000013879639486088249840000002576595011385176991_);}
	
		.st46{fill:none;stroke:url(#SVGID_00000119113282965316013390000000052356292180775311_);stroke-width:5;stroke-linecap:round;stroke-linejoin:round;stroke-miterlimit:10;}
	.st47{fill:url(#SVGID_00000039823295730767927640000004484657708535296409_);}
	
		.st48{fill:none;stroke:url(#SVGID_00000054225053942647247490000010786196298612486809_);stroke-width:5;stroke-linecap:round;stroke-linejoin:round;stroke-miterlimit:10;}
	.st49{fill:url(#SVGID_00000170256854838971668280000013771550321428390532_);}
	.st50{fill:url(#SVGID_00000148620847249863399730000006619975841761224617_);}
	.st51{fill:#101320;}
	.st52{fill:url(#SVGID_00000156588910353600092980000012157991223916085127_);}
	.st53{fill:url(#SVGID_00000103950642958570828030000012807236447835892110_);}
	.st54{fill:url(#SVGID_00000121264572587759743100000000929354807033689279_);}
	.st55{fill:url(#SVGID_00000051360127965393376060000002984789069976486591_);}
	.st56{fill:url(#SVGID_00000080167674208043980020000006729098203118608512_);}
	.st57{fill:url(#SVGID_00000165924287017668726310000013226789487615757481_);}
	.st58{opacity:0.29;fill:url(#SVGID_00000096781791759534921130000002915124087486263446_);enable-background:new    ;}
	.st59{fill:url(#SVGID_00000115491978869400936740000004238307977718370201_);}
	.st60{fill:url(#SVGID_00000006698542188884605160000014709965987371324580_);}
	.st61{fill:url(#SVGID_00000152985948600726572340000006709130769598712201_);}
	.st62{fill-rule:evenodd;clip-rule:evenodd;fill:url(#SVGID_00000125569557035786932060000013732084386630051764_);}
	.st63{fill:url(#SVGID_00000058578083780316592360000016289895329411734456_);}
	.st64{fill:url(#SVGID_00000163045463301610359920000008665897113970491813_);}
	.st65{fill:url(#SVGID_00000175296716337089005780000014886089585389279630_);}
	.st66{fill:url(#SVGID_00000092447887591141825770000013191505578589328788_);}
	.st67{opacity:0.29;fill:url(#SVGID_00000044894113935722401600000001601190841903629470_);enable-background:new    ;}
	
		.st68{fill:none;stroke:url(#SVGID_00000095305712281055119430000010397447688661790858_);stroke-width:5;stroke-linecap:round;stroke-linejoin:round;stroke-miterlimit:10;}
	.st69{fill:url(#SVGID_00000116209866962934647290000014568476939127606401_);}
	
		.st70{fill:none;stroke:url(#SVGID_00000033369539775664619020000001755923697410224547_);stroke-width:5;stroke-linecap:round;stroke-linejoin:round;stroke-miterlimit:10;}
	.st71{fill:url(#SVGID_00000118393467508124262150000012994503503780702094_);}
	
		.st72{fill:none;stroke:url(#SVGID_00000158027346786527393880000007554454918135952280_);stroke-width:5;stroke-linecap:round;stroke-linejoin:round;stroke-miterlimit:10;}
	.st73{fill:url(#SVGID_00000068637951617640117350000017846511608415543197_);}
	.st74{fill-rule:evenodd;clip-rule:evenodd;fill:url(#SVGID_00000018236503617846940040000012603094609148367504_);}
	.st75{fill:url(#SVGID_00000148661796780909917620000011477680020120095393_);}
	.st76{fill:url(#SVGID_00000055674371882018311580000014625224594527041204_);}
	.st77{fill:url(#SVGID_00000058552283299997717520000005270221784298534039_);}
	.st78{opacity:0.29;fill:url(#SVGID_00000103956364705064942520000001142520479586170796_);}
	.st79{opacity:0.29;fill:url(#SVGID_00000086689666998549695790000009520338574322337981_);}
	.st80{opacity:0.67;fill:url(#SVGID_00000132780950640251037120000005742682353336327315_);}
	.st81{fill:#3FA9BD;}
	.st82{fill:url(#SVGID_00000060747397788548553910000014065979755436732827_);}
	.st83{fill-rule:evenodd;clip-rule:evenodd;fill:#555069;}
	.st84{fill-rule:evenodd;clip-rule:evenodd;fill:#FFFFFF;}
	.st85{fill-rule:evenodd;clip-rule:evenodd;fill:#AFAFB1;}
	.st86{fill-rule:evenodd;clip-rule:evenodd;fill:#D3D3D3;}
	.st87{opacity:0.67;fill:url(#SVGID_00000056387998978225684260000016970935086871343760_);}
	.st88{fill:url(#SVGID_00000099636796309062415500000001962909261525820343_);}
	.st89{opacity:0.67;fill:url(#SVGID_00000048485799391931654130000002000231451416990639_);}
	.st90{fill:url(#SVGID_00000000944535274528400860000004898291582102354580_);}
	.st91{opacity:0.67;fill:url(#SVGID_00000010283994834341770930000010597697663988455823_);}
	.st92{fill:url(#SVGID_00000137821318591518740130000001856338359650339457_);}
	.st93{opacity:0.67;fill:url(#SVGID_00000018928902049216448400000009082113559188404642_);}
	.st94{fill:url(#SVGID_00000057150075651970722650000011773143277099398548_);}
	.st95{opacity:0.67;fill:url(#SVGID_00000104663756205303159000000007731575574863492480_);}
	.st96{fill:url(#SVGID_00000116202203897417604070000012109826672074440620_);}
	.st97{fill:#1AD4B3;}
	.st98{opacity:0.67;fill:url(#SVGID_00000132086468067837526550000018339338233708511140_);}
	.st99{fill:url(#SVGID_00000041267599577942815910000009109323253746475927_);}
	.st100{opacity:0.67;fill:url(#SVGID_00000021802761420870969600000002714221329816362885_);}
	.st101{fill:url(#SVGID_00000057851290951548667960000010080213144125489049_);}
	.st102{opacity:0.67;fill:url(#SVGID_00000107572938137460430770000009958610222159981952_);}
	.st103{fill:url(#SVGID_00000095325523669031049110000004848862278556109201_);}
	
		.st104{fill-rule:evenodd;clip-rule:evenodd;fill:none;stroke:#FFFFFF;stroke-width:0.7384;stroke-linecap:round;stroke-linejoin:round;stroke-miterlimit:10;}
	.st105{opacity:0.67;fill:url(#SVGID_00000125567186650959807410000012046086779440226718_);}
	.st106{fill:url(#SVGID_00000174602747808424094020000002315307614280334773_);}
	.st107{opacity:0.67;fill:url(#SVGID_00000097488020947010953190000013208088006914883216_);}
	.st108{fill:url(#SVGID_00000021077380496272139080000016239005034269590952_);}
	.st109{opacity:0.67;fill:url(#SVGID_00000170251336999513506620000008196704421175367328_);}
	.st110{fill:url(#SVGID_00000086656316228518878090000012349219719067797134_);}
	.st111{opacity:0.67;fill:url(#SVGID_00000086653758721463489850000010570955953243627692_);}
	.st112{fill:url(#SVGID_00000169543442249257561960000009369346333982711947_);}
	.st113{opacity:0.67;fill:url(#SVGID_00000084516163826061218760000000433343562342032061_);}
	.st114{fill:url(#SVGID_00000013187089490134480110000011067349398691610046_);}
	.st115{opacity:0.67;fill:url(#SVGID_00000083780099468708156950000014727041256201013393_);}
	.st116{fill:url(#SVGID_00000178913249763628490530000000272241379513049015_);}
	.st117{opacity:0.67;fill:url(#SVGID_00000047020923750600060300000015672602456801171603_);}
	.st118{fill:url(#SVGID_00000112624952791540791420000002343720595128425625_);}
	.st119{opacity:0.67;fill:url(#SVGID_00000098940267023557084860000003302208185170702505_);}
	.st120{fill:url(#SVGID_00000026865096806103048060000006641977544606437538_);}
	.st121{opacity:0.67;fill:url(#SVGID_00000010305660669288704970000006347865463119203723_);}
	.st122{fill:url(#SVGID_00000158735683329682968630000008192592799644134824_);}
	.st123{opacity:0.67;fill:url(#SVGID_00000098218143981817722540000017512044971090917026_);}
	.st124{fill:url(#SVGID_00000124159250827152330820000010655568583356837563_);}
	.st125{opacity:0.67;fill:url(#SVGID_00000132084635264616308620000017840713343125979025_);}
	.st126{fill:url(#SVGID_00000163066711692545512070000012727557662605748925_);}
	.st127{opacity:0.67;fill:url(#SVGID_00000057123549984421225570000000833537324756565380_);}
	.st128{fill:#5EA6B9;}
	.st129{fill:url(#SVGID_00000181797677767879506500000004296182166578218404_);}
	.st130{fill-rule:evenodd;clip-rule:evenodd;fill:#545067;}
	.st131{fill-rule:evenodd;clip-rule:evenodd;fill:#AEAEB0;}
	.st132{fill-rule:evenodd;clip-rule:evenodd;fill:#D2D2D2;}
	.st133{opacity:0.67;fill:url(#SVGID_00000067206292589944248590000010243025270985897106_);}
	.st134{fill:url(#SVGID_00000145778002684069806120000004205539610234109871_);}
	.st135{fill-rule:evenodd;clip-rule:evenodd;fill:#63D0B3;}
	
		.st136{fill-rule:evenodd;clip-rule:evenodd;fill:none;stroke:#111422;stroke-linecap:round;stroke-linejoin:round;stroke-miterlimit:10;}
	.st137{fill-rule:evenodd;clip-rule:evenodd;fill:#E85C83;}
	.st138{fill:#5DC29D;}
	.st139{fill:url(#SVGID_00000031185853667918895890000016962569127699698616_);}
	.st140{fill:url(#SVGID_00000070839025691504198300000007834912656204234161_);}
	.st141{fill:#E85C83;}
	.st142{opacity:0.67;fill:url(#SVGID_00000034063414394305897860000000753687331171198378_);}
	.st143{fill:url(#SVGID_00000024682188432563602060000017724041119911696048_);}
	
		.st144{fill:none;stroke:url(#SVGID_00000027587859323721728030000005603409375598975140_);stroke-width:5;stroke-linecap:round;stroke-linejoin:round;stroke-miterlimit:10;}
	.st145{fill:url(#SVGID_00000004538451879474634020000009282944105980544673_);}
	.st146{opacity:0.67;fill:url(#SVGID_00000127757624971678475470000017613272833761249187_);}
	.st147{fill:url(#SVGID_00000036222653102272585780000017230737051574062726_);}
	.st148{opacity:0.67;fill:url(#SVGID_00000165194566358649586450000016107841707449963967_);}
	.st149{fill:url(#SVGID_00000092414888712078960700000011409278161933721754_);}
	.st150{opacity:0.67;fill:url(#SVGID_00000078016055333997083250000015131847488547797156_);}
	.st151{fill:url(#SVGID_00000070084652515003799550000015647462857194644147_);}
	.st152{opacity:0.67;fill:url(#SVGID_00000170988985975601594020000008365847265349207727_);}
	.st153{fill:url(#SVGID_00000111177548050282740820000004721688430926260141_);}
	.st154{opacity:0.67;fill:url(#SVGID_00000038389287403686450080000007746032671671070910_);}
	.st155{fill:url(#SVGID_00000111163259910442855670000008554316947029843902_);}
	.st156{opacity:0.67;fill:url(#SVGID_00000183220168178950015700000008573365427514068903_);}
	.st157{fill:url(#SVGID_00000066489055182114800530000018080874008546905223_);}
	.st158{fill:none;stroke:#000000;stroke-width:22;stroke-linecap:round;stroke-linejoin:round;stroke-miterlimit:10;}
	.st159{fill:#ECF0FC;}
	.st160{fill:url(#SVGID_00000063619627928261360080000014755446825226698121_);}
	.st161{fill:url(#SVGID_00000141418953346558110340000000775107930329296830_);}
	.st162{fill:none;stroke:url(#SVGID_00000015334884755730971060000010401030118309775000_);stroke-width:5;stroke-miterlimit:10;}
	.st163{fill:#111422;}
	.st164{fill:url(#SVGID_00000156570164747056194730000007909225469643979144_);}
	.st165{fill:none;}
	.st166{opacity:0.67;fill:url(#SVGID_00000074439472381620334920000014508136582166333594_);}
	.st167{fill:url(#SVGID_00000142163445052975572340000016381301251194879409_);}
	.st168{fill:none;stroke:url(#SVGID_00000041261308562886571160000006370363789915565199_);stroke-width:5;stroke-miterlimit:10;}
	.st169{fill:url(#SVGID_00000025400817921220514310000002943783294446278076_);}
	.st170{opacity:0.67;fill:url(#SVGID_00000034070782100410820400000004986863817218256803_);}
	.st171{fill:url(#SVGID_00000109724990499381918860000014817024776402412451_);}
	.st172{opacity:0.67;fill:url(#SVGID_00000070111884017762719290000008409175540924454296_);}
	.st173{fill:url(#SVGID_00000061444923317557685380000009994809052804078761_);}
</style>
<g>
	<circle class="st0" cx="144.67" cy="70.24" r="26.03"/>
	<g>
		<g>
			<path class="st1" d="M138.21,43.43l-0.01,10.81c-0.33,1.38,0.28,2.85,1.82,3.91c2.54,1.76,6.66,1.76,9.2,0
				c1.08-0.75,1.7-1.69,1.86-2.67l0.04,0l0-0.45c0-0.04,0-0.09,0-0.13l0.01-11.18L138.21,43.43z"/>
			<path class="st1" d="M138.26,51.16c0,2.45,2.87,4.43,6.41,4.43s6.41-1.98,6.41-4.43"/>
			<path class="st1" d="M138.26,47.77c0,2.45,2.87,4.43,6.41,4.43s6.41-1.98,6.41-4.43"/>
			<path class="st1" d="M138.26,44.21c0,2.45,2.87,4.43,6.41,4.43s6.41-1.98,6.41-4.43"/>
		</g>
		<g>
			<path class="st1" d="M138.21,32.75l-0.01,10.81c-0.33,1.38,0.28,2.85,1.82,3.91c2.54,1.76,6.66,1.76,9.2,0
				c1.08-0.75,1.7-1.69,1.86-2.67l0.04,0l0-0.45c0-0.04,0-0.09,0-0.13l0.01-11.18L138.21,32.75z"/>
			<path class="st1" d="M138.26,40.49c0,2.45,2.87,4.43,6.41,4.43s6.41-1.98,6.41-4.43"/>
			<path class="st1" d="M138.26,37.1c0,2.45,2.87,4.43,6.41,4.43s6.41-1.98,6.41-4.43"/>
			<path class="st1" d="M138.26,33.54c0,2.45,2.87,4.43,6.41,4.43s6.41-1.98,6.41-4.43"/>
		</g>
	</g>
	<g>
		<g>
			<g>
				<polygon class="st2" points="144.27,48.55 126.46,38.27 126.46,20.45 144.27,30.74 				"/>
				<polygon class="st3" points="144.27,48.55 162.09,38.27 162.09,20.45 144.27,30.74 				"/>
				<polygon class="st4" points="144.34,30.79 126.46,20.47 144.21,10.13 162.09,20.45 				"/>
			</g>
			<path id="矩形_00000152946892204710900010000008678036945883564417_" class="st5" d="M138.69,15.45L138.69,15.45
				c0.35,0.2,0.29,0.58-0.12,0.83l-3.7,2.19c-0.42,0.25-1.08,0.29-1.43,0.09l0,0c-0.35-0.2-0.29-0.58,0.12-0.83l3.7-2.19
				C137.68,15.29,138.34,15.25,138.69,15.45z"/>
			<path id="矩形_00000075164449594248059390000003334047783275652790_" class="st5" d="M131.99,19.41L131.99,19.41
				c0.35,0.2,0.29,0.58-0.12,0.83l-0.72,0.42c-0.42,0.25-1.08,0.29-1.43,0.09l0,0c-0.35-0.2-0.29-0.58,0.12-0.83l0.72-0.42
				C131.02,19.24,131.64,19.21,131.99,19.41z"/>
		</g>
	</g>
</g>
<g>
	<circle class="st0" cx="263.33" cy="58.37" r="17.42"/>
	<g>
		<g>
			<path class="st1" d="M259,40.43l0,7.23c-0.22,0.92,0.19,1.91,1.22,2.62c1.7,1.18,4.46,1.18,6.16,0c0.72-0.5,1.14-1.13,1.25-1.79
				l0.03,0l0-0.3c0-0.03,0-0.06,0-0.09l0-7.49L259,40.43z"/>
			<path class="st1" d="M259.04,45.6c0,1.64,1.92,2.97,4.29,2.97c2.37,0,4.29-1.33,4.29-2.97"/>
			<path class="st1" d="M259.04,43.33c0,1.64,1.92,2.97,4.29,2.97c2.37,0,4.29-1.33,4.29-2.97"/>
			<path class="st1" d="M259.04,40.95c0,1.64,1.92,2.97,4.29,2.97c2.37,0,4.29-1.33,4.29-2.97"/>
		</g>
		<g>
			<path class="st1" d="M259,33.28l0,7.23c-0.22,0.92,0.19,1.91,1.22,2.62c1.7,1.18,4.46,1.18,6.16,0c0.72-0.5,1.14-1.13,1.25-1.79
				l0.03,0l0-0.3c0-0.03,0-0.06,0-0.09l0-7.49L259,33.28z"/>
			<path class="st1" d="M259.04,38.46c0,1.64,1.92,2.97,4.29,2.97c2.37,0,4.29-1.33,4.29-2.97"/>
			<path class="st1" d="M259.04,36.19c0,1.64,1.92,2.97,4.29,2.97c2.37,0,4.29-1.33,4.29-2.97"/>
			<path class="st1" d="M259.04,33.8c0,1.64,1.92,2.97,4.29,2.97c2.37,0,4.29-1.33,4.29-2.97"/>
		</g>
	</g>
	<g>
		<g>
			<g>
				<polygon class="st2" points="263.06,43.86 251.14,36.97 251.14,25.05 263.06,31.93 				"/>
				<polygon class="st3" points="263.06,43.86 274.99,36.97 274.99,25.05 263.06,31.93 				"/>
				<polygon class="st4" points="263.11,31.97 251.14,25.06 263.02,18.13 274.99,25.05 				"/>
			</g>
			<path id="矩形_00000125574396687123683840000008921232610733703082_" class="st5" d="M259.43,21.56L259.43,21.56
				c0.23,0.13,0.2,0.39-0.08,0.55l-2.47,1.46c-0.28,0.17-0.72,0.19-0.95,0.06l0,0c-0.23-0.13-0.2-0.39,0.08-0.55l2.47-1.46
				C258.75,21.46,259.19,21.43,259.43,21.56z"/>
			<path id="矩形_00000049903413269199789150000009112278854909745828_" class="st5" d="M254.95,24.22L254.95,24.22
				c0.23,0.13,0.2,0.39-0.08,0.55l-0.48,0.28c-0.28,0.17-0.72,0.19-0.95,0.06l0,0c-0.23-0.13-0.2-0.39,0.08-0.55l0.48-0.28
				C254.29,24.1,254.71,24.08,254.95,24.22z"/>
		</g>
	</g>
</g>
<g>
	<g>
		<polygon class="st26" points="262.78,158.85 209.25,189.72 209.5,210.38 262.9,179.85 		"/>
		<polygon class="st2" points="168.54,166.9 209.25,189.72 209.5,210.38 168.79,187.76 		"/>
		<polygon class="st4" points="262.79,158.83 221.55,135.82 168.54,166.9 209.25,189.72 		"/>
	</g>
	<g>
		<polygon class="st3" points="263.03,134.24 209.25,164.79 209.5,185.84 263.16,155.24 		"/>
		<polygon class="st2" points="168.54,142.36 209.25,164.79 209.5,185.84 168.79,163.22 		"/>
		<polygon class="st4" points="263.04,134.24 221.8,111.23 168.54,142.36 209.25,164.79 		"/>
	</g>
	<circle class="st0" cx="213.14" cy="111.19" r="41.04"/>
	<g>
		<g>
			<path class="st0" d="M217.3,175.29v-8.95l2.53-1.5c0.49-0.29,0.9-0.41,1.24-0.35c0.34,0.05,0.6,0.26,0.79,0.61
				c0.18,0.35,0.27,0.82,0.27,1.41c0,0.59-0.09,1.17-0.28,1.74c-0.18,0.56-0.45,1.07-0.8,1.53c-0.35,0.46-0.77,0.84-1.26,1.13
				l-1.61,0.96v-1.52l1.39-0.83c0.26-0.15,0.48-0.35,0.65-0.57c0.17-0.23,0.3-0.48,0.38-0.76c0.08-0.28,0.13-0.56,0.13-0.85
				c0-0.3-0.04-0.53-0.13-0.71c-0.08-0.17-0.21-0.27-0.38-0.29c-0.17-0.02-0.39,0.04-0.65,0.2l-0.91,0.54v7.4L217.3,175.29z"/>
			<path class="st0" d="M222.99,171.92v-6.71l1.29-0.77v1.17l0.05-0.03c0.09-0.47,0.23-0.87,0.44-1.21
				c0.21-0.34,0.44-0.58,0.71-0.74c0.07-0.04,0.14-0.08,0.22-0.11c0.08-0.03,0.15-0.06,0.2-0.07v1.65
				c-0.06,0.01-0.15,0.04-0.26,0.08c-0.11,0.04-0.21,0.09-0.3,0.15c-0.2,0.12-0.37,0.28-0.53,0.49c-0.15,0.21-0.27,0.44-0.36,0.71
				c-0.09,0.26-0.13,0.53-0.13,0.8v3.8L222.99,171.92z"/>
			<path class="st0" d="M228.54,168.76c-0.49,0.29-0.91,0.39-1.26,0.31c-0.35-0.08-0.63-0.32-0.82-0.73
				c-0.19-0.41-0.29-0.95-0.29-1.64c0-0.69,0.1-1.36,0.29-1.99c0.19-0.63,0.47-1.2,0.82-1.7c0.35-0.5,0.77-0.89,1.26-1.18
				c0.49-0.29,0.91-0.39,1.26-0.31c0.35,0.08,0.63,0.32,0.82,0.73c0.19,0.41,0.29,0.96,0.29,1.65c0,0.69-0.1,1.35-0.29,1.98
				c-0.19,0.63-0.47,1.2-0.82,1.7C229.45,168.08,229.03,168.47,228.54,168.76z M228.55,167.32c0.22-0.13,0.41-0.33,0.55-0.59
				s0.26-0.57,0.34-0.92s0.11-0.72,0.11-1.11c0-0.39-0.04-0.72-0.11-0.98s-0.19-0.44-0.34-0.53c-0.15-0.09-0.33-0.07-0.55,0.06
				c-0.22,0.13-0.41,0.33-0.56,0.6c-0.15,0.27-0.27,0.58-0.34,0.93c-0.08,0.35-0.11,0.72-0.11,1.11c0,0.39,0.04,0.72,0.11,0.98
				c0.08,0.26,0.19,0.43,0.34,0.52C228.14,167.47,228.32,167.45,228.55,167.32z"/>
			<path class="st0" d="M231.78,169.23V160l1.32-0.78v1.13l0.06-0.04c0.06-0.22,0.14-0.45,0.26-0.7c0.11-0.25,0.26-0.5,0.44-0.73
				c0.18-0.23,0.41-0.43,0.68-0.59c0.35-0.21,0.67-0.27,0.97-0.19c0.3,0.08,0.53,0.32,0.71,0.73c0.18,0.41,0.27,0.99,0.27,1.76
				c0,0.75-0.09,1.43-0.26,2.05c-0.17,0.62-0.41,1.14-0.7,1.58c-0.3,0.44-0.63,0.77-0.99,0.98c-0.26,0.15-0.48,0.22-0.66,0.21
				c-0.18-0.01-0.33-0.07-0.44-0.19c-0.11-0.11-0.2-0.25-0.26-0.4l-0.04,0.02v3.59L231.78,169.23z M233.09,162.58
				c0,0.4,0.04,0.72,0.12,0.97c0.08,0.25,0.19,0.41,0.34,0.49c0.15,0.07,0.33,0.05,0.55-0.08c0.22-0.13,0.4-0.32,0.55-0.58
				c0.15-0.26,0.26-0.56,0.34-0.9c0.08-0.35,0.12-0.71,0.12-1.1c0-0.39-0.04-0.71-0.12-0.95c-0.08-0.25-0.19-0.41-0.34-0.49
				c-0.15-0.08-0.33-0.05-0.55,0.08c-0.22,0.13-0.4,0.32-0.55,0.57s-0.26,0.54-0.34,0.89C233.13,161.81,233.09,162.18,233.09,162.58
				z"/>
			<path class="st0" d="M239.53,162.25c-0.49,0.29-0.91,0.39-1.26,0.31c-0.35-0.08-0.63-0.32-0.82-0.73
				c-0.19-0.41-0.29-0.95-0.29-1.64c0-0.69,0.1-1.36,0.29-1.99c0.19-0.63,0.47-1.2,0.82-1.7c0.35-0.5,0.77-0.89,1.26-1.18
				c0.49-0.29,0.91-0.39,1.26-0.31c0.35,0.08,0.63,0.32,0.82,0.73c0.19,0.41,0.29,0.96,0.29,1.65c0,0.69-0.1,1.35-0.29,1.98
				c-0.19,0.63-0.47,1.2-0.82,1.7C240.44,161.57,240.02,161.96,239.53,162.25z M239.54,160.8c0.22-0.13,0.41-0.33,0.55-0.59
				s0.26-0.57,0.34-0.92c0.08-0.35,0.11-0.72,0.11-1.11s-0.04-0.72-0.11-0.98c-0.08-0.26-0.19-0.44-0.34-0.53
				c-0.15-0.09-0.33-0.07-0.55,0.06c-0.22,0.13-0.41,0.33-0.56,0.6c-0.15,0.27-0.27,0.58-0.34,0.93s-0.11,0.72-0.11,1.11
				c0,0.39,0.04,0.72,0.11,0.98c0.08,0.26,0.19,0.43,0.34,0.52C239.13,160.96,239.32,160.94,239.54,160.8z"/>
			<path class="st0" d="M246.78,153.03l-1.22,0.83c-0.02-0.13-0.07-0.24-0.13-0.32c-0.07-0.08-0.16-0.12-0.27-0.12
				c-0.11-0.01-0.24,0.04-0.4,0.13c-0.21,0.12-0.38,0.29-0.52,0.49c-0.14,0.21-0.21,0.41-0.21,0.61c0,0.16,0.05,0.27,0.14,0.32
				c0.09,0.06,0.25,0.05,0.47-0.01l0.87-0.27c0.47-0.14,0.82-0.13,1.05,0.03c0.23,0.16,0.34,0.48,0.34,0.97
				c0,0.44-0.09,0.88-0.28,1.32c-0.18,0.44-0.44,0.85-0.76,1.22c-0.32,0.38-0.69,0.69-1.11,0.93c-0.64,0.38-1.14,0.49-1.52,0.34
				c-0.38-0.15-0.6-0.52-0.66-1.13l1.31-0.87c0.04,0.25,0.14,0.4,0.29,0.45c0.15,0.05,0.35,0.01,0.59-0.14
				c0.23-0.14,0.42-0.31,0.57-0.53c0.14-0.21,0.22-0.42,0.22-0.62c0-0.17-0.05-0.28-0.15-0.33c-0.1-0.05-0.25-0.04-0.46,0.02
				l-0.83,0.26c-0.47,0.15-0.82,0.13-1.05-0.06c-0.23-0.19-0.34-0.53-0.34-1.03c0-0.43,0.08-0.85,0.25-1.26
				c0.17-0.41,0.4-0.79,0.71-1.14c0.31-0.35,0.66-0.65,1.08-0.89c0.61-0.36,1.09-0.46,1.44-0.31
				C246.51,152.08,246.72,152.45,246.78,153.03z"/>
			<path class="st0" d="M249.1,156.58c-0.31,0.18-0.58,0.27-0.82,0.26c-0.24-0.01-0.43-0.12-0.57-0.33
				c-0.14-0.21-0.21-0.54-0.21-0.98c0-0.37,0.05-0.72,0.15-1.03c0.1-0.31,0.23-0.59,0.4-0.85c0.17-0.25,0.36-0.49,0.58-0.69
				c0.22-0.21,0.44-0.4,0.68-0.57c0.28-0.21,0.51-0.38,0.68-0.52c0.17-0.14,0.3-0.27,0.37-0.38c0.08-0.12,0.12-0.25,0.12-0.39v-0.03
				c0-0.28-0.06-0.45-0.19-0.53c-0.12-0.08-0.3-0.05-0.53,0.09c-0.24,0.14-0.43,0.33-0.57,0.56c-0.14,0.23-0.24,0.47-0.28,0.72
				l-1.23,0.59c0.06-0.44,0.19-0.87,0.37-1.28c0.18-0.41,0.42-0.78,0.71-1.11c0.29-0.33,0.63-0.62,1.01-0.84
				c0.27-0.16,0.52-0.27,0.77-0.32c0.25-0.06,0.46-0.05,0.65,0.02c0.19,0.07,0.34,0.22,0.45,0.44c0.11,0.22,0.17,0.53,0.17,0.93
				v4.53l-1.27,0.75v-0.93l-0.04,0.02c-0.08,0.26-0.18,0.5-0.31,0.74c-0.13,0.24-0.29,0.45-0.47,0.65
				C249.55,156.27,249.34,156.43,249.1,156.58z M249.48,155.06c0.2-0.12,0.37-0.27,0.52-0.47c0.15-0.2,0.27-0.42,0.35-0.65
				c0.09-0.24,0.13-0.47,0.13-0.71v-0.71c-0.04,0.06-0.1,0.13-0.17,0.2c-0.07,0.07-0.15,0.15-0.24,0.23
				c-0.09,0.08-0.18,0.15-0.27,0.23c-0.09,0.07-0.17,0.14-0.24,0.2c-0.16,0.12-0.29,0.26-0.41,0.4c-0.12,0.14-0.21,0.29-0.27,0.44
				c-0.06,0.16-0.1,0.32-0.1,0.5c0,0.25,0.07,0.41,0.2,0.46C249.11,155.22,249.28,155.19,249.48,155.06z"/>
			<path class="st0" d="M254.18,144.49v8.95l-1.33,0.79v-8.95L254.18,144.49z"/>
		</g>
	</g>
</g>
<g>
	<polygon class="st3" points="132.63,74 22.49,136.92 22.49,195.82 132.63,132.9 	"/>
	<polygon class="st2" points="8.05,128.76 22.49,136.56 22.49,195.82 8.05,188.02 	"/>
	<polygon class="st4" points="132.63,74 117.12,65.8 8.05,128.76 22.49,136.56 	"/>
</g>
<g>
	<path class="st97" d="M217.34,200.29v-10.58l4.47-2.63v1.84l-3.07,1.81v2.52l2.84-1.67v1.84l-2.84,1.67v2.53l3.08-1.81v1.84
		L217.34,200.29z"/>
	<path class="st97" d="M224.06,188.4l0.91,2.24l0.94-3.33l1.42-0.83l-1.44,4.82l1.48,3.09l-1.41,0.83l-0.98-2.16l-0.96,3.31
		l-1.42,0.84l1.48-4.84l-1.43-3.13L224.06,188.4z"/>
	<path class="st97" d="M230.22,192.85c-0.51,0.3-0.95,0.39-1.32,0.28c-0.37-0.12-0.65-0.42-0.85-0.92c-0.2-0.49-0.3-1.16-0.3-2
		c0-0.82,0.1-1.59,0.3-2.32c0.2-0.73,0.48-1.38,0.84-1.94c0.36-0.56,0.79-0.98,1.27-1.27c0.33-0.19,0.63-0.29,0.92-0.29
		c0.28,0,0.53,0.1,0.75,0.31c0.21,0.21,0.38,0.53,0.5,0.96c0.12,0.43,0.18,0.99,0.18,1.66v0.61l-4.2,2.47v-1.36l2.9-1.71
		c0-0.32-0.04-0.57-0.13-0.77c-0.08-0.19-0.21-0.31-0.36-0.36s-0.33-0.02-0.53,0.1c-0.21,0.12-0.39,0.31-0.56,0.56
		c-0.16,0.25-0.29,0.53-0.38,0.84c-0.09,0.31-0.14,0.62-0.14,0.94v1.29c0,0.39,0.05,0.71,0.14,0.94c0.09,0.23,0.22,0.38,0.39,0.43
		c0.17,0.05,0.37,0.02,0.6-0.12c0.15-0.09,0.29-0.21,0.42-0.35c0.13-0.14,0.24-0.31,0.33-0.5c0.09-0.19,0.16-0.4,0.21-0.63
		l1.28-0.62c-0.06,0.53-0.2,1.03-0.4,1.51c-0.2,0.48-0.46,0.92-0.77,1.3C230.99,192.3,230.63,192.61,230.22,192.85z"/>
	<path class="st97" d="M235.65,189.66c-0.51,0.3-0.95,0.38-1.31,0.25c-0.37-0.13-0.65-0.45-0.84-0.95c-0.19-0.5-0.29-1.15-0.29-1.96
		c0-0.81,0.1-1.58,0.3-2.32c0.2-0.73,0.48-1.38,0.84-1.94c0.36-0.56,0.8-0.99,1.3-1.29c0.43-0.26,0.81-0.35,1.14-0.29
		c0.33,0.06,0.58,0.26,0.77,0.6c0.19,0.34,0.3,0.81,0.32,1.42l-1.3,0.77c-0.04-0.38-0.13-0.64-0.29-0.79
		c-0.16-0.15-0.36-0.15-0.61,0c-0.21,0.13-0.4,0.33-0.56,0.61c-0.16,0.28-0.28,0.62-0.37,1.02c-0.09,0.4-0.13,0.85-0.13,1.35
		c0,0.51,0.04,0.91,0.13,1.21s0.21,0.5,0.37,0.59c0.16,0.09,0.35,0.07,0.56-0.05c0.16-0.09,0.3-0.23,0.43-0.41
		c0.13-0.18,0.23-0.39,0.32-0.64c0.08-0.25,0.14-0.52,0.16-0.81l1.3-0.77c-0.02,0.62-0.12,1.21-0.31,1.78s-0.44,1.08-0.76,1.53
		C236.48,189.04,236.09,189.39,235.65,189.66z"/>
	<path class="st97" d="M241.95,182.41v-4.56l1.38-0.81v7.93l-1.32,0.78v-1.44l-0.05,0.03c-0.11,0.53-0.3,1.01-0.56,1.45
		c-0.26,0.44-0.58,0.76-0.95,0.98c-0.33,0.2-0.63,0.25-0.88,0.15c-0.25-0.09-0.45-0.32-0.59-0.68s-0.21-0.85-0.21-1.47v-5.05
		l1.38-0.81v4.66c0,0.47,0.08,0.79,0.24,0.97c0.16,0.18,0.36,0.19,0.62,0.04c0.17-0.1,0.32-0.25,0.47-0.46s0.26-0.46,0.35-0.75
		S241.95,182.76,241.95,182.41z"/>
	<path class="st97" d="M247.08,174.84v1.65l-3,1.77v-1.65L247.08,174.84z M244.76,174.3l1.38-0.81v7.4c0,0.2,0.02,0.35,0.06,0.44
		c0.04,0.09,0.09,0.14,0.16,0.14c0.07,0,0.15-0.02,0.24-0.08c0.07-0.04,0.13-0.09,0.19-0.14c0.07-0.06,0.11-0.1,0.15-0.13l0.22,1.51
		c-0.07,0.08-0.17,0.17-0.29,0.29c-0.12,0.12-0.28,0.24-0.46,0.35c-0.33,0.22-0.62,0.32-0.87,0.3c-0.25-0.02-0.44-0.15-0.58-0.41
		c-0.14-0.26-0.21-0.65-0.2-1.17V174.3z"/>
	<path class="st97" d="M250.19,181.09c-0.51,0.3-0.95,0.39-1.32,0.28c-0.37-0.12-0.65-0.42-0.85-0.92c-0.2-0.49-0.3-1.16-0.3-2
		c0-0.82,0.1-1.59,0.3-2.32c0.2-0.73,0.48-1.38,0.84-1.94c0.36-0.56,0.79-0.98,1.27-1.27c0.33-0.19,0.63-0.29,0.92-0.29
		s0.53,0.1,0.75,0.31c0.21,0.21,0.38,0.53,0.5,0.96s0.18,0.99,0.18,1.66v0.61l-4.2,2.47v-1.36l2.9-1.71c0-0.32-0.04-0.57-0.13-0.77
		c-0.09-0.19-0.21-0.32-0.36-0.36c-0.15-0.05-0.33-0.02-0.53,0.1c-0.21,0.12-0.39,0.31-0.56,0.56s-0.29,0.53-0.38,0.84
		c-0.09,0.31-0.14,0.62-0.14,0.94v1.3c0,0.39,0.05,0.71,0.14,0.94s0.22,0.38,0.39,0.43c0.17,0.05,0.37,0.02,0.6-0.12
		c0.15-0.09,0.29-0.21,0.42-0.35c0.13-0.14,0.24-0.31,0.33-0.5s0.16-0.4,0.21-0.63l1.28-0.62c-0.07,0.53-0.2,1.03-0.4,1.51
		c-0.2,0.48-0.46,0.92-0.77,1.3C250.96,180.54,250.6,180.85,250.19,181.09z"/>
	<path class="st97" d="M255.21,178.11c-0.38,0.22-0.72,0.27-1.02,0.14c-0.31-0.13-0.55-0.45-0.73-0.95c-0.18-0.5-0.27-1.2-0.27-2.08
		c0-0.91,0.09-1.72,0.28-2.43c0.18-0.71,0.43-1.31,0.73-1.79c0.31-0.48,0.64-0.83,1.01-1.04c0.28-0.16,0.51-0.23,0.7-0.19
		c0.19,0.04,0.34,0.14,0.45,0.29c0.12,0.15,0.2,0.32,0.26,0.5l0.04-0.02v-3.98l1.38-0.81v10.58l-1.36,0.8v-1.27l-0.06,0.04
		c-0.06,0.26-0.16,0.53-0.27,0.81s-0.27,0.55-0.46,0.8C255.71,177.75,255.48,177.95,255.21,178.11z M255.65,176.1
		c0.22-0.13,0.41-0.34,0.57-0.62s0.27-0.63,0.36-1.03c0.08-0.4,0.12-0.84,0.12-1.31c0-0.47-0.04-0.86-0.12-1.16
		c-0.08-0.3-0.2-0.5-0.36-0.6s-0.34-0.08-0.57,0.05c-0.23,0.13-0.42,0.34-0.57,0.63c-0.16,0.29-0.27,0.63-0.35,1.03
		c-0.08,0.39-0.12,0.82-0.12,1.28c0,0.46,0.04,0.84,0.12,1.15c0.08,0.3,0.2,0.51,0.35,0.62S255.42,176.23,255.65,176.1z"/>
</g>
<g>
	<path class="st0" d="M34.22,172.16v-22.62l9.86-5.87v4.95l-6.05,3.6v3.89l5.45-3.25v4.95l-5.45,3.25v8.84L34.22,172.16z"/>
	<path class="st0" d="M49.28,140.56v22.62l-3.81,2.27v-22.62L49.28,140.56z"/>
	<path class="st0" d="M63.22,132.26v22.62l-3.18,1.89l-5.07-8.87l-0.08,0.05v11.88l-3.81,2.27v-22.62l3.23-1.92l4.99,8.87l0.11-0.06
		v-11.84L63.22,132.26z"/>
	<path class="st0" d="M68.84,128.92v22.62l-3.81,2.27v-22.62L68.84,128.92z"/>
	<path class="st0" d="M78.2,130.41c-0.04-0.71-0.21-1.19-0.51-1.42c-0.3-0.23-0.76-0.16-1.38,0.2c-0.39,0.23-0.71,0.5-0.96,0.8
		c-0.25,0.3-0.43,0.61-0.55,0.94c-0.12,0.33-0.18,0.66-0.19,0.99c-0.01,0.28,0.02,0.5,0.09,0.68c0.07,0.18,0.18,0.3,0.34,0.38
		c0.16,0.08,0.35,0.12,0.6,0.11c0.24,0,0.53-0.05,0.86-0.14l1.15-0.29c0.78-0.2,1.44-0.24,1.99-0.14c0.55,0.11,1,0.35,1.36,0.72
		s0.61,0.88,0.78,1.51c0.17,0.63,0.25,1.38,0.26,2.23c0,1.49-0.24,2.89-0.69,4.19c-0.46,1.3-1.11,2.47-1.96,3.52
		c-0.85,1.04-1.86,1.92-3.05,2.62c-1.22,0.73-2.28,1.07-3.19,1.03c-0.91-0.04-1.61-0.52-2.11-1.43c-0.5-0.91-0.75-2.31-0.76-4.21
		l3.62-2.15c0.02,0.68,0.13,1.2,0.32,1.55c0.19,0.36,0.46,0.55,0.81,0.59c0.35,0.03,0.77-0.09,1.25-0.38
		c0.41-0.24,0.75-0.53,1.02-0.85c0.27-0.33,0.48-0.67,0.62-1.05c0.14-0.37,0.21-0.74,0.22-1.11c0-0.34-0.07-0.61-0.21-0.79
		c-0.13-0.18-0.35-0.29-0.66-0.31s-0.72,0.02-1.24,0.15l-1.4,0.35c-1.24,0.3-2.22,0.16-2.93-0.44c-0.71-0.59-1.07-1.78-1.06-3.55
		c0-1.43,0.23-2.83,0.72-4.2c0.48-1.37,1.15-2.61,2.01-3.72c0.86-1.11,1.84-2,2.95-2.66c1.13-0.67,2.11-0.95,2.94-0.83
		c0.83,0.12,1.46,0.6,1.91,1.44c0.45,0.84,0.68,2,0.68,3.48L78.2,130.41z"/>
	<path class="st0" d="M83.49,142.81v-22.62l3.81-2.27v8.84l5.04-3v-8.84l3.81-2.27v22.62l-3.81,2.27v-8.84l-5.04,3v8.84
		L83.49,142.81z"/>
	<path class="st0" d="M97.95,134.2v-22.62l10.11-6.02v4.95l-6.3,3.75v3.89l5.78-3.44v4.95l-5.78,3.44v3.89l6.27-3.73v4.95
		L97.95,134.2z"/>
	<path class="st0" d="M115.34,123.84l-5.4,3.21v-22.62l5.34-3.18c1.44-0.86,2.69-1.15,3.74-0.88c1.05,0.28,1.86,1.09,2.44,2.44
		s0.86,3.2,0.86,5.56s-0.29,4.55-0.86,6.58c-0.57,2.03-1.38,3.81-2.42,5.33C118,121.81,116.77,123,115.34,123.84z M113.75,119.58
		l1.45-0.86c0.69-0.41,1.29-0.95,1.78-1.6c0.49-0.65,0.87-1.5,1.12-2.54c0.26-1.04,0.39-2.34,0.39-3.92s-0.13-2.73-0.39-3.46
		c-0.26-0.73-0.65-1.12-1.15-1.18c-0.5-0.06-1.12,0.13-1.85,0.56l-1.34,0.8V119.58z"/>
</g>
<polygon class="st7" points="259.82,27.52 258.47,26.76 266.31,22.14 267.66,22.9 "/>
<polygon class="st7" points="139.38,24.63 137.2,23.4 149.87,15.92 152.05,17.15 "/>
<g>
	<path id="矩形_00000085247898192476263000000015103537706940995993_" class="st14" d="M172.16,217.11L172.16,217.11
		c0.62,0,1.15,0.76,1.15,1.64v1.52c0,0.88-0.53,1.64-1.15,1.64l0,0c-0.62,0-1.15-0.76-1.15-1.64v-1.52
		C171.02,217.8,171.55,217.11,172.16,217.11z"/>
	
		<radialGradient id="SVGID_1_" cx="140.6214" cy="251.2355" r="29.1582" gradientTransform="matrix(1 0 0 0.5898 0 103.0585)" gradientUnits="userSpaceOnUse">
		<stop  offset="0" style="stop-color:#B8B3D4"/>
		<stop  offset="0.3457" style="stop-color:#BAB6D6;stop-opacity:0.6543"/>
		<stop  offset="0.6064" style="stop-color:#C2C0DA;stop-opacity:0.3936"/>
		<stop  offset="0.8384" style="stop-color:#D0D0E3;stop-opacity:0.1616"/>
		<stop  offset="1" style="stop-color:#DDE0EB;stop-opacity:0"/>
	</radialGradient>
	<path style="opacity:0.67;fill:url(#SVGID_1_);" d="M165.62,237.16c-13.68-7.9-35.96-8-49.77-0.23s-13.91,20.48-0.23,28.37
		s35.96,8,49.77,0.23C179.19,257.76,179.3,245.06,165.62,237.16z"/>
	<g>
		<path class="st81" d="M179.12,201.13v-49.28c0-0.23,0.02-0.45,0.02-0.68c0-22.91-18.57-41.48-41.48-41.48
			c-22.91,0-41.48,18.57-41.48,41.48c0,0.36,0.02,0.72,0.03,1.07v44.66h-0.03v22.67c0,2.84,2.3,5.15,5.15,5.15
			c2.84,0,5.15-2.31,5.15-5.15v-0.83c0.56,0.36,1.13,0.72,1.74,1.07c1.83,1.06,3.79,1.99,5.85,2.81v8.2c0,2.84,2.3,5.15,5.15,5.15
			c2.84,0,5.15-2.31,5.15-5.15v-5.23c2.95,0.57,5.99,0.96,9.06,1.14v12.59c0,2.84,2.3,5.15,5.15,5.15s5.15-2.31,5.15-5.15v-12.7
			c3.39-0.28,6.73-0.8,9.93-1.55v6.36c0,2.84,2.3,5.15,5.15,5.15s5.15-2.31,5.15-5.15v-9.87c1-0.47,1.97-0.96,2.91-1.49
			c0.7-0.39,1.35-0.8,1.99-1.21v0.71c0,2.84,2.3,5.15,5.15,5.15c2.84,0,5.15-2.31,5.15-5.15v-18.45H179.12z"/>
		
			<radialGradient id="SVGID_00000075134410676998186970000003596584404661486213_" cx="162.3441" cy="127.1149" r="106.6854" gradientUnits="userSpaceOnUse">
			<stop  offset="0.0124" style="stop-color:#DD78CE"/>
			<stop  offset="0.4936" style="stop-color:#A7589A"/>
			<stop  offset="0.5829" style="stop-color:#A0619E"/>
			<stop  offset="0.7273" style="stop-color:#8E79A8"/>
			<stop  offset="0.9078" style="stop-color:#709FB9"/>
			<stop  offset="1" style="stop-color:#5EB6C3"/>
		</radialGradient>
		<path style="fill:url(#SVGID_00000075134410676998186970000003596584404661486213_);" d="M179.12,201.13v-49.28
			c0-0.23,0.02-0.45,0.02-0.68c0-22.91-18.57-41.48-41.48-41.48c-22.91,0-41.48,18.57-41.48,41.48c0,0.36,0.02,0.72,0.03,1.07v44.66
			h-0.03v22.67c0,2.84,2.3,5.15,5.15,5.15c2.84,0,5.15-2.31,5.15-5.15v-0.83c0.56,0.36,1.13,0.72,1.74,1.07
			c1.83,1.06,3.79,1.99,5.85,2.81v8.2c0,2.84,2.3,5.15,5.15,5.15c2.84,0,5.15-2.31,5.15-5.15v-5.23c2.95,0.57,5.99,0.96,9.06,1.14
			v12.59c0,2.84,2.3,5.15,5.15,5.15s5.15-2.31,5.15-5.15v-12.7c3.39-0.28,6.73-0.8,9.93-1.55v6.36c0,2.84,2.3,5.15,5.15,5.15
			s5.15-2.31,5.15-5.15v-9.87c1-0.47,1.97-0.96,2.91-1.49c0.7-0.39,1.35-0.8,1.99-1.21v0.71c0,2.84,2.3,5.15,5.15,5.15
			c2.84,0,5.15-2.31,5.15-5.15v-18.45H179.12z"/>
	</g>
	<path id="矩形_00000022527312032479013420000014843580994546168748_" class="st14" d="M100.07,187.29L100.07,187.29
		c1.12,0,2.09,1.38,2.09,2.99v14.25c0,1.61-0.96,2.99-2.09,2.99l0,0c-1.12,0-2.09-1.38-2.09-2.99v-14.25
		C97.99,188.67,98.95,187.29,100.07,187.29z"/>
	<path id="矩形_00000098207581524111565580000017524188478023427459_" class="st14" d="M161.37,124.2L161.37,124.2
		c1.37-1.02,3.68-0.37,5.02,1.41l2.29,3.06c1.34,1.78,1.31,4.19-0.06,5.22l0,0c-1.37,1.02-3.68,0.37-5.02-1.41l-2.29-3.06
		C159.88,127.5,160.01,125.23,161.37,124.2z"/>
	<path id="矩形_00000004543799746662871840000000494397277534693809_" class="st14" d="M117.47,223.88L117.47,223.88
		c1.12,0,2.09,1.38,2.09,2.99v2.76c0,1.61-0.96,2.99-2.09,2.99l0,0c-1.12,0-2.09-1.38-2.09-2.99v-2.76
		C115.38,225.14,116.35,223.88,117.47,223.88z"/>
	<path id="矩形_00000088844590955339156430000010338810625325375647_" class="st14" d="M99.82,213.08L99.82,213.08
		c1.12,0,2.09,1.38,2.09,2.99v2.76c0,1.61-0.96,2.99-2.09,2.99l0,0c-1.12,0-2.09-1.38-2.09-2.99v-2.76
		C97.74,214.34,98.7,213.08,99.82,213.08z"/>
	<path id="矩形_00000023965804936162956270000018230138148180538527_" class="st14" d="M137.66,232.62L137.66,232.62
		c1.12,0,2.09,1.38,2.09,2.99v2.76c0,1.61-0.96,2.99-2.09,2.99l0,0c-1.12,0-2.09-1.38-2.09-2.99v-2.76
		C135.57,233.88,136.54,232.62,137.66,232.62z"/>
	<path id="矩形_00000068679335564725228650000004435673639005042107_" class="st14" d="M157.36,227.27L157.36,227.27
		c0.89,0,1.66,1.1,1.66,2.37v2.19c0,1.28-0.76,2.37-1.66,2.37l0,0c-0.89,0-1.66-1.1-1.66-2.37v-2.19
		C155.7,228.28,156.47,227.27,157.36,227.27z"/>
	<g>
		<path id="椭圆形_00000086673725010356473300000010355609577961362048_" class="st83" d="M147.67,182.16
			c4.06-0.17,7.1-3.66,7.09-6c0-0.94-0.55-1.75-1.38-1.81c-1.29-0.13-3.23,0.7-5.72,0.8c-2.31,0.1-3.78-0.5-5.53-0.42
			c-1.84,0.08-1.75,2.22-1.47,3.06C141.3,180.09,143.52,182.33,147.67,182.16z"/>
		<path id="椭圆形_00000089541143251865453500000002446130538150882483_" class="st84" d="M147.76,180.19
			c4.15-0.17,7.19-3.38,7.19-5.63c0-0.84-0.55-1.57-1.38-1.63c-1.29-0.13-3.32,0.7-5.81,0.8c-2.4,0.1-3.78-0.5-5.62-0.43
			s-1.75,2.13-1.48,2.87C141.3,178.3,143.61,180.36,147.76,180.19z"/>
	</g>
	<g>
		
			<ellipse transform="matrix(0.5671 -0.8237 0.8237 0.5671 -74.1156 176.3792)" class="st84" cx="130.72" cy="158.69" rx="9.5" ry="9.1"/>
		<path id="形状结合_00000071555301590361317240000016646361989635170742_" class="st85" d="M131.92,148.73
			c4.24-0.18,7.66,3.98,7.66,9.22c0,0.19,0,0.37,0,0.56l0,0.56c0-5.33-3.33-9.59-7.48-9.42c-4.15,0.17-7.46,4.61-7.46,10.04
			c0,1.03,0.09,2.05,0.37,2.98c-0.46-1.2-0.74-2.59-0.74-3.99C124.27,153.35,127.68,148.9,131.92,148.73z"/>
		<path id="形状结合_00000163036546142026614640000010284702429076804004_" class="st86" d="M131.92,147.6
			c4.7-0.2,8.58,4.41,8.58,10.31c0.01,5.89-3.86,10.83-8.57,11.02c-4.7,0.2-8.58-4.41-8.58-10.31
			C123.35,152.73,127.12,147.8,131.92,147.6z M131.92,148.73c-4.24,0.18-7.65,4.62-7.64,9.86c0,5.24,3.42,9.4,7.66,9.22
			c4.24-0.18,7.65-4.62,7.64-9.86C139.58,152.71,136.07,148.55,131.92,148.73z"/>
	</g>
	<g>
		
			<ellipse transform="matrix(0.5671 -0.8237 0.8237 0.5671 -59.6804 201.0825)" class="st84" cx="161.44" cy="157.31" rx="9.5" ry="9.1"/>
		<path id="形状结合_00000152981298310059666020000006927620393809236901_" class="st85" d="M162.43,147.35
			c4.24-0.18,7.66,3.98,7.66,9.22c0,0.19,0,0.37,0,0.56l0,0.56c0-5.33-3.33-9.59-7.48-9.42c-4.15,0.17-7.46,4.61-7.46,10.04
			c0,1.03,0.09,2.05,0.37,2.98c-0.46-1.2-0.74-2.59-0.74-3.99C154.78,151.98,158.19,147.53,162.43,147.35z"/>
		<path id="形状结合_00000161610306240999368890000011693919920094735019_" class="st86" d="M162.43,146.23
			c4.7-0.2,8.58,4.41,8.58,10.31s-3.86,10.83-8.57,11.02s-8.58-4.41-8.58-10.31C153.86,151.36,157.64,146.43,162.43,146.23z
			 M162.43,147.35c-4.24,0.18-7.65,4.62-7.64,9.86s3.42,9.4,7.66,9.22c4.24-0.18,7.65-4.62,7.64-9.86
			C170.09,151.34,166.58,147.18,162.43,147.35z"/>
	</g>
	<circle class="st83" cx="130.72" cy="158.69" r="3.77"/>
	<circle class="st83" cx="161.27" cy="157.56" r="3.77"/>
</g>
</svg>
