<?xml version="1.0" encoding="utf-8"?>
<!-- Generator: Adobe Illustrator 27.8.1, SVG Export Plug-In . SVG Version: 6.00 Build 0)  -->
<svg version="1.1" id="Слой_1" xmlns="http://www.w3.org/2000/svg" xmlns:xlink="http://www.w3.org/1999/xlink" x="0px" y="0px"
	 viewBox="0 0 291 270.62" style="enable-background:new 0 0 291 270.62;" xml:space="preserve">
<style type="text/css">
	.st0{stroke:#000000;stroke-linecap:round;stroke-linejoin:round;stroke-miterlimit:10;}
	.st1{fill:#222846;stroke:#000000;stroke-linecap:round;stroke-linejoin:round;stroke-miterlimit:10;}
	.st2{fill-rule:evenodd;clip-rule:evenodd;stroke:#000000;stroke-linecap:round;stroke-linejoin:round;stroke-miterlimit:10;}
	
		.st3{fill-rule:evenodd;clip-rule:evenodd;fill:#222846;stroke:#000000;stroke-linecap:round;stroke-linejoin:round;stroke-miterlimit:10;}
	
		.st4{fill-rule:evenodd;clip-rule:evenodd;fill:#4A5479;stroke:#000000;stroke-linecap:round;stroke-linejoin:round;stroke-miterlimit:10;}
	.st5{fill-rule:evenodd;clip-rule:evenodd;fill:#5C6A91;}
	.st6{fill:#6D75A2;}
	.st7{stroke:#1A213A;stroke-linecap:round;stroke-linejoin:round;stroke-miterlimit:10;}
	.st8{stroke:#4A5479;stroke-linecap:round;stroke-linejoin:round;stroke-miterlimit:10;}
	.st9{fill:url(#SVGID_1_);}
	.st10{fill:url(#SVGID_00000034074290892195276700000001885044393603540148_);}
	.st11{fill:url(#SVGID_00000139258432714742619870000012804649148228576958_);}
	
		.st12{fill:none;stroke:url(#SVGID_00000086658028261361124700000015418331928390777221_);stroke-width:5;stroke-linecap:round;stroke-linejoin:round;stroke-miterlimit:10;}
	.st13{fill:url(#SVGID_00000155844829522844396110000016555669789681648769_);}
	.st14{fill-rule:evenodd;clip-rule:evenodd;fill:#1AD4B3;}
	.st15{fill-rule:evenodd;clip-rule:evenodd;fill:#FC4F83;}
	.st16{fill:#4A5479;stroke:#000000;stroke-linecap:round;stroke-linejoin:round;stroke-miterlimit:10;}
	
		.st17{fill:url(#SVGID_00000108987466758354159080000011801189299974188719_);stroke:#1D1D1B;stroke-width:0.2115;stroke-linecap:round;stroke-linejoin:round;stroke-miterlimit:10;}
	.st18{fill-rule:evenodd;clip-rule:evenodd;}
	
		.st19{fill:url(#SVGID_00000065069118692393195870000015294640586694635431_);stroke:#1D1D1B;stroke-width:0.2115;stroke-linecap:round;stroke-linejoin:round;stroke-miterlimit:10;}
	
		.st20{fill:url(#SVGID_00000131333206517725742010000003850809428888237701_);stroke:#1D1D1B;stroke-width:0.2115;stroke-linecap:round;stroke-linejoin:round;stroke-miterlimit:10;}
	
		.st21{fill:url(#SVGID_00000031913471864757649950000011678449073225890706_);stroke:#1D1D1B;stroke-width:0.2115;stroke-linecap:round;stroke-linejoin:round;stroke-miterlimit:10;}
	.st22{fill-rule:evenodd;clip-rule:evenodd;fill:url(#SVGID_00000124854614513461909130000007471774762246344612_);}
	.st23{fill-rule:evenodd;clip-rule:evenodd;fill:url(#SVGID_00000026132460648263357550000015613951316681517984_);}
	.st24{fill:url(#SVGID_00000073679871584981756950000015217034041878663555_);}
	.st25{fill:url(#SVGID_00000163055874065439249710000001373913475359893385_);}
	.st26{fill:url(#SVGID_00000026158358758639762820000011062189918490022056_);}
	
		.st27{fill-rule:evenodd;clip-rule:evenodd;fill:#4AA089;stroke:url(#SVGID_00000093880921272719092090000012598753323699194766_);stroke-linecap:round;stroke-linejoin:round;stroke-miterlimit:10;}
	
		.st28{fill-rule:evenodd;clip-rule:evenodd;fill:#4AA089;stroke:url(#SVGID_00000087380577175959072010000002511170537107170197_);stroke-linecap:round;stroke-linejoin:round;stroke-miterlimit:10;}
	
		.st29{fill:none;stroke:url(#SVGID_00000047778163449828950070000010709550928506772892_);stroke-width:5;stroke-linecap:round;stroke-linejoin:round;stroke-miterlimit:10;}
	.st30{fill:url(#SVGID_00000180353298372099477530000002478655845832749481_);}
	
		.st31{fill:none;stroke:url(#SVGID_00000040559488274249995940000013209766061195504264_);stroke-width:5;stroke-linecap:round;stroke-linejoin:round;stroke-miterlimit:10;}
	.st32{fill:url(#SVGID_00000078003740663221888360000007839718635508319647_);}
	
		.st33{fill:none;stroke:url(#SVGID_00000114060008238836151120000010397849827723610809_);stroke-width:5;stroke-linecap:round;stroke-linejoin:round;stroke-miterlimit:10;}
	.st34{fill:url(#SVGID_00000038382331029427139500000017934316482510289282_);}
	.st35{fill:#4A5479;}
	
		.st36{fill-rule:evenodd;clip-rule:evenodd;fill:#1AD4B3;stroke:#111422;stroke-linecap:round;stroke-linejoin:round;stroke-miterlimit:10;}
	
		.st37{fill-rule:evenodd;clip-rule:evenodd;fill:#4AA089;stroke:url(#SVGID_00000178189956556375563270000009579158423959762315_);stroke-linecap:round;stroke-linejoin:round;stroke-miterlimit:10;}
	.st38{fill:#FFFFFF;}
	
		.st39{fill-rule:evenodd;clip-rule:evenodd;fill:#FC4F83;stroke:#111422;stroke-linecap:round;stroke-linejoin:round;stroke-miterlimit:10;}
	
		.st40{fill-rule:evenodd;clip-rule:evenodd;fill:#CB3D61;stroke:#000000;stroke-linecap:round;stroke-linejoin:round;stroke-miterlimit:10;}
	.st41{fill:url(#SVGID_00000147192472949200187000000006127520914002342573_);}
	.st42{fill:url(#SVGID_00000037656465505272407730000014149180652435488688_);}
	.st43{fill:url(#SVGID_00000173882309485749330860000005683607754575226298_);}
	
		.st44{fill:none;stroke:url(#SVGID_00000109018618212409316960000001191765351444264608_);stroke-width:5;stroke-linecap:round;stroke-linejoin:round;stroke-miterlimit:10;}
	.st45{fill:url(#SVGID_00000117671751056839720390000016294797590677642929_);}
	
		.st46{fill:none;stroke:url(#SVGID_00000007404050199275621520000013246237021959676049_);stroke-width:5;stroke-linecap:round;stroke-linejoin:round;stroke-miterlimit:10;}
	.st47{fill:url(#SVGID_00000016780322096400513440000003384683156229696179_);}
	.st48{fill:url(#SVGID_00000116235612955840329880000004144651587407113356_);}
	.st49{fill:#222846;}
	.st50{fill:url(#SVGID_00000100371606513147593670000014862518239622107582_);}
	.st51{fill:url(#SVGID_00000130642785464914954270000000176827105399126663_);}
	.st52{fill:url(#SVGID_00000034771724669240943850000006125361756745440438_);}
	.st53{fill:url(#SVGID_00000087378349933603091850000017799598413470390151_);}
	.st54{fill:url(#SVGID_00000070080239180942356830000002954771073909230222_);}
	.st55{fill:url(#SVGID_00000034792039804241084540000007372041798385483684_);}
	.st56{fill-rule:evenodd;clip-rule:evenodd;fill:#6D75A2;}
	.st57{fill-rule:evenodd;clip-rule:evenodd;fill:#4A5479;}
	.st58{opacity:0.29;fill:url(#SVGID_00000132807903212630514630000000092058325753487033_);enable-background:new    ;}
	.st59{fill:url(#SVGID_00000016770460822558043930000004685593898194591620_);}
	.st60{fill:url(#SVGID_00000119797780960790055790000015883557980189543305_);}
	.st61{fill:url(#SVGID_00000096760337162409733220000005462943716588342408_);}
	.st62{fill-rule:evenodd;clip-rule:evenodd;fill:url(#SVGID_00000021088114095458533000000002608535861996267663_);}
	.st63{fill:url(#SVGID_00000109005019783403561870000009533719414175073188_);}
	.st64{fill:url(#SVGID_00000071523103264406929240000018151310480348438966_);}
	.st65{fill:url(#SVGID_00000155125572062550616050000002287492654132945536_);}
	.st66{fill:url(#SVGID_00000156586306373933630610000005209639935815496854_);}
	.st67{opacity:0.29;fill:url(#SVGID_00000077306072525005335210000017748555962247527319_);enable-background:new    ;}
	.st68{fill-rule:evenodd;clip-rule:evenodd;fill:#222846;}
	
		.st69{fill:none;stroke:url(#SVGID_00000092446827407781335230000007592177963594717117_);stroke-width:5;stroke-linecap:round;stroke-linejoin:round;stroke-miterlimit:10;}
	.st70{fill:url(#SVGID_00000120551009787406824030000017858375126415563400_);}
	
		.st71{fill:none;stroke:url(#SVGID_00000181777739967263762990000015496338218349695390_);stroke-width:5;stroke-linecap:round;stroke-linejoin:round;stroke-miterlimit:10;}
	.st72{fill:url(#SVGID_00000021824851959872527320000005874795536541493913_);}
	
		.st73{fill:none;stroke:url(#SVGID_00000018926579594987501820000005436408090854424961_);stroke-width:5;stroke-linecap:round;stroke-linejoin:round;stroke-miterlimit:10;}
	.st74{fill:url(#SVGID_00000111871255172310442920000002659639769531397253_);}
	
		.st75{fill-rule:evenodd;clip-rule:evenodd;fill:#4AA089;stroke:url(#SVGID_00000047032421779616941630000006746207469472362674_);stroke-linecap:round;stroke-linejoin:round;stroke-miterlimit:10;}
	.st76{fill-rule:evenodd;clip-rule:evenodd;fill:url(#SVGID_00000022525204701953917730000009677188914781581228_);}
	.st77{fill:url(#SVGID_00000179633950717239713550000003592765669450602684_);}
	.st78{fill:url(#SVGID_00000049222154992716151040000015945974858188695168_);}
	.st79{fill:url(#SVGID_00000039852959886616417240000017378340990015630490_);}
	.st80{opacity:0.29;fill:url(#SVGID_00000132061601893347023380000009554005689620710330_);}
	.st81{opacity:0.29;fill:url(#SVGID_00000044891677604609436500000009201865892780342925_);}
	.st82{opacity:0.2563;fill-rule:evenodd;clip-rule:evenodd;fill:#FFFFFF;enable-background:new    ;}
	.st83{opacity:0.67;fill:url(#SVGID_00000051382208932971443390000014110628130489527222_);}
	.st84{fill:#3FA9BD;}
	.st85{fill:url(#SVGID_00000091001524132826734210000017202540750126450342_);}
	.st86{fill-rule:evenodd;clip-rule:evenodd;fill:#555069;}
	.st87{fill-rule:evenodd;clip-rule:evenodd;fill:#FFFFFF;}
	.st88{fill-rule:evenodd;clip-rule:evenodd;fill:#AFAFB1;}
	.st89{fill-rule:evenodd;clip-rule:evenodd;fill:#D3D3D3;}
	.st90{opacity:0.67;fill:url(#SVGID_00000132772452039667607820000014930275549282158011_);}
	.st91{fill:url(#SVGID_00000060003024604149884600000014751639098455083917_);}
	.st92{opacity:0.67;fill:url(#SVGID_00000088845174555358695780000001577044056054341252_);}
	.st93{fill:url(#SVGID_00000158728669498903330990000005499441174798045062_);}
	.st94{opacity:0.67;fill:url(#SVGID_00000181768764250487494420000003509303200127485875_);}
	.st95{fill:url(#SVGID_00000088091595608135037950000001973941729527459726_);}
	.st96{opacity:0.67;fill:url(#SVGID_00000026854670724066197110000005592410178953093298_);}
	.st97{fill:url(#SVGID_00000020382825659650346600000000634039044763015353_);}
	.st98{opacity:0.67;fill:url(#SVGID_00000039106224798374429210000011208543388084259732_);}
	.st99{fill:url(#SVGID_00000064325447930073488180000011001293936352523156_);}
	.st100{fill:#1AD4B3;}
	.st101{opacity:0.67;fill:url(#SVGID_00000124129422347891046540000007311528585240329659_);}
	.st102{fill:url(#SVGID_00000109722289334017611850000008711065621365264264_);}
	.st103{opacity:0.67;fill:url(#SVGID_00000080190138116691176030000010557663168797789571_);}
	.st104{fill:url(#SVGID_00000170268624472391190580000011973845260678813351_);}
	.st105{opacity:0.67;fill:url(#SVGID_00000034806715132870457570000006894763684157852814_);}
	.st106{fill:url(#SVGID_00000059290317063365828130000015224928146679464103_);}
	.st107{opacity:0.67;fill:url(#SVGID_00000103226087790600961140000002474321463438100394_);}
	.st108{fill:url(#SVGID_00000099646072494007174010000012385971191846999168_);}
	.st109{opacity:0.67;fill:url(#SVGID_00000137091579833771972690000004712124359377254287_);}
	.st110{fill:url(#SVGID_00000060022069724351672490000003039198481838364069_);}
	.st111{opacity:0.67;fill:url(#SVGID_00000077300330774704381580000000233828770207437479_);}
	.st112{fill:url(#SVGID_00000172432227795198931910000001687872664005920190_);}
	
		.st113{fill-rule:evenodd;clip-rule:evenodd;fill:none;stroke:#FFFFFF;stroke-width:0.7384;stroke-linecap:round;stroke-linejoin:round;stroke-miterlimit:10;}
	.st114{opacity:0.67;fill:url(#SVGID_00000125580853861694362900000015912962526335942549_);}
	.st115{fill:url(#SVGID_00000178166528018870823140000014109450297262649236_);}
	.st116{opacity:0.67;fill:url(#SVGID_00000108995397613844013690000010031069610275012542_);}
	.st117{fill:url(#SVGID_00000172423310513177526980000002813314361599000477_);}
	.st118{opacity:0.67;fill:url(#SVGID_00000046312965727950708190000013312016016541982390_);}
	.st119{fill:url(#SVGID_00000028300972485144710000000017195870945070236591_);}
	.st120{opacity:0.67;fill:url(#SVGID_00000126297262776920260880000012305588443834957717_);}
	.st121{fill:url(#SVGID_00000093161497556228682990000015189807347283196299_);}
	.st122{opacity:0.67;fill:url(#SVGID_00000172402496447224778600000004165870387991052731_);}
	.st123{fill:url(#SVGID_00000135692725924879747250000004991219750595129993_);}
	.st124{opacity:0.67;fill:url(#SVGID_00000008125519019086057050000003427954183773663105_);}
	.st125{fill:url(#SVGID_00000075845219508550418000000016749064452581067674_);}
	.st126{opacity:0.67;fill:url(#SVGID_00000041262318905290382580000004531032629980262306_);}
	.st127{fill:url(#SVGID_00000134221003738630376440000008015584149212206001_);}
	.st128{opacity:0.67;fill:url(#SVGID_00000057833808397470706700000007287204903537172138_);}
	.st129{fill:url(#SVGID_00000170264521046053688490000015951974170745503898_);}
	.st130{opacity:0.67;fill:url(#SVGID_00000035494989547573184920000005172639743349158531_);enable-background:new    ;}
	.st131{fill:#5EA6B9;}
	.st132{fill:url(#SVGID_00000080182429090885303860000014486348757683210898_);}
	.st133{fill-rule:evenodd;clip-rule:evenodd;fill:#545067;}
	.st134{fill-rule:evenodd;clip-rule:evenodd;fill:#AEAEB0;}
	.st135{fill-rule:evenodd;clip-rule:evenodd;fill:#D2D2D2;}
	.st136{opacity:0.67;fill:url(#SVGID_00000032616962473101297140000005122440291968096163_);enable-background:new    ;}
	.st137{fill:url(#SVGID_00000127745317693185187760000014273639971594023593_);}
	.st138{fill-rule:evenodd;clip-rule:evenodd;fill:#63D0B3;}
	
		.st139{fill-rule:evenodd;clip-rule:evenodd;fill:none;stroke:#000000;stroke-linecap:round;stroke-linejoin:round;stroke-miterlimit:10;}
	.st140{fill-rule:evenodd;clip-rule:evenodd;fill:#E85C83;}
	
		.st141{fill-rule:evenodd;clip-rule:evenodd;fill:#4AA089;stroke:url(#SVGID_00000182515741597579917570000015041795754809930400_);stroke-linecap:round;stroke-linejoin:round;stroke-miterlimit:10;}
	.st142{fill:#5DC29D;}
	.st143{fill:url(#SVGID_00000146492316671293612750000010720027640100624533_);}
	.st144{fill:url(#SVGID_00000029736738919813140300000010316620180853048761_);}
	.st145{fill:#E85C83;}
	.st146{opacity:0.67;fill:url(#SVGID_00000080192990428463578060000015750427009290111421_);enable-background:new    ;}
	.st147{fill:url(#SVGID_00000084525693489744502020000013185550141721076403_);}
	
		.st148{fill:none;stroke:url(#SVGID_00000086692129850866257460000001069925134430631337_);stroke-width:5;stroke-linecap:round;stroke-linejoin:round;stroke-miterlimit:10;}
	.st149{fill:url(#SVGID_00000089565316855383971990000008141024398886277251_);}
	.st150{opacity:0.67;fill:url(#SVGID_00000179637189941000434290000008993275449403269811_);enable-background:new    ;}
	.st151{fill:url(#SVGID_00000170245284958588913130000016176720886793815696_);}
	.st152{opacity:0.67;fill:url(#SVGID_00000011727098100000279190000018445406477196464827_);}
	.st153{fill:url(#SVGID_00000132045562960035079310000003793394929741960857_);}
	.st154{opacity:0.67;fill:url(#SVGID_00000070103265666915055690000006629641782173812896_);}
	.st155{fill:url(#SVGID_00000102518012020126146610000011674109398876237975_);}
	.st156{opacity:0.67;fill:url(#SVGID_00000173157889631915819760000008741180291881889209_);}
	.st157{fill:url(#SVGID_00000090974854819446407900000016873282523824950451_);}
	.st158{opacity:0.67;fill:url(#SVGID_00000086690720546233837700000015951508379703118752_);}
	.st159{fill:url(#SVGID_00000118387378140586358480000017349570823110446012_);}
	.st160{opacity:0.67;fill:url(#SVGID_00000162319766607839833490000009667198230465602475_);}
	.st161{fill:url(#SVGID_00000103984819705070209540000002667546338884765075_);}
	.st162{fill:none;stroke:#000000;stroke-width:22;stroke-linecap:round;stroke-linejoin:round;stroke-miterlimit:10;}
	.st163{fill:url(#SVGID_00000163064516041538556890000001523115541476087733_);}
	.st164{fill:url(#SVGID_00000039840867890028155350000005301547744993845905_);}
	.st165{fill:none;stroke:url(#SVGID_00000118365760413413145490000007494282664873581459_);stroke-width:5;stroke-miterlimit:10;}
	.st166{fill:url(#SVGID_00000182501758544980537680000010965441783515167361_);}
	.st167{fill:none;}
	.st168{opacity:0.67;fill:url(#SVGID_00000121252540103112188160000005438002252649604998_);}
	.st169{fill:url(#SVGID_00000156559221193350635400000007830862975628872880_);}
	.st170{fill:none;stroke:url(#SVGID_00000102518868540781854720000008873617039618219955_);stroke-width:5;stroke-miterlimit:10;}
	.st171{fill:url(#SVGID_00000114786991586182547340000006981423268419438720_);}
	.st172{opacity:0.67;fill:url(#SVGID_00000110472564957893026080000013734285139188294583_);}
	.st173{fill:url(#SVGID_00000114751723591075657410000005347182719226657690_);}
	.st174{opacity:0.67;fill:url(#SVGID_00000083049716122533168410000012199662670442824094_);}
	.st175{fill:url(#SVGID_00000052793278639791829020000017619399560923109536_);}
	.st176{opacity:0.67;fill:url(#SVGID_00000021118614757543593160000003405316098678635447_);}
	.st177{fill:url(#SVGID_00000076584038682587187670000004225715511326103178_);}
</style>
<g>
	<g>
		
			<linearGradient id="SVGID_1_" gradientUnits="userSpaceOnUse" x1="979.7792" y1="-624.6769" x2="1014.9627" y2="-624.6769" gradientTransform="matrix(0.763 0.4367 0 -1 -565.8945 -1013.7042)">
			<stop  offset="0" style="stop-color:#A75698"/>
			<stop  offset="1" style="stop-color:#6FB5C2"/>
		</linearGradient>
		<polygon style="fill:none;stroke:url(#SVGID_1_);stroke-width:5;stroke-miterlimit:10;" points="206.65,75.07 183.62,61.89 
			183.62,18.02 206.65,31.2 		"/>
	</g>
	<g>
		<polygon class="st1" points="206.65,74.82 183.62,61.64 183.62,17.77 206.65,30.95 		"/>
	</g>
	<g>
		<g>
			<path class="st35" d="M189.12,30.57l-1.1-0.63l-1.06-4.39l0.99,0.57l0.62,2.9l0.62-2.19l0.99,0.57L189.12,30.57z"/>
			<path class="st35" d="M192.89,32.25c-0.3,0.19-0.68,0.16-1.13-0.1c-0.45-0.26-0.83-0.66-1.13-1.19c-0.3-0.54-0.45-1.09-0.45-1.67
				c0-0.57,0.15-0.96,0.45-1.15s0.68-0.16,1.13,0.1c0.45,0.26,0.83,0.66,1.13,1.19c0.3,0.54,0.45,1.09,0.45,1.67
				C193.35,31.67,193.2,32.06,192.89,32.25z M191.27,30.58c0.13,0.25,0.3,0.44,0.5,0.56c0.2,0.12,0.37,0.12,0.5,0.01
				s0.19-0.3,0.19-0.56c0-0.27-0.06-0.53-0.19-0.79c-0.13-0.25-0.3-0.44-0.5-0.56c-0.2-0.12-0.37-0.12-0.5-0.01s-0.19,0.3-0.19,0.56
				C191.07,30.07,191.14,30.33,191.27,30.58z"/>
			<path class="st35" d="M195.15,34.02l-0.87-0.5v-2.79l-0.78-0.44v-1l2.42,1.38v1l-0.77-0.44V34.02z"/>
			<path class="st35" d="M197.11,35.14l-0.87-0.5v-3.78l0.87,0.5V35.14z"/>
			<path class="st35" d="M200.35,37l-0.84-0.48l-1.06-2.53v1.92l-0.87-0.5v-3.78l0.9,0.52l1,2.37v-1.79l0.87,0.5V37z"/>
			<path class="st35" d="M202.25,38.15c-0.45-0.26-0.83-0.65-1.13-1.18s-0.46-1.09-0.46-1.68s0.15-0.98,0.46-1.16
				c0.3-0.18,0.68-0.15,1.13,0.11c0.32,0.18,0.58,0.43,0.79,0.74c0.21,0.31,0.37,0.64,0.47,0.97l-0.74,0.07
				c-0.05-0.15-0.12-0.31-0.21-0.45c-0.09-0.15-0.2-0.25-0.32-0.32c-0.21-0.12-0.38-0.12-0.51-0.02c-0.13,0.11-0.19,0.3-0.19,0.56
				c0,0.27,0.06,0.53,0.19,0.79c0.13,0.26,0.3,0.44,0.51,0.56c0.08,0.05,0.16,0.08,0.25,0.09c0.09,0.02,0.15,0.01,0.2-0.01v-0.14
				l-0.54-0.31v-1l1.41,0.8v1.55C203.22,38.45,202.78,38.45,202.25,38.15z"/>
			<path class="st35" d="M188.23,35.46l-0.92-0.53v-3.98l1.62,0.93c0.34,0.2,0.61,0.48,0.8,0.85s0.29,0.75,0.29,1.14
				s-0.1,0.65-0.29,0.8c-0.19,0.15-0.46,0.13-0.8-0.07l-0.7-0.4V35.46z M188.81,33.5c0.08,0.05,0.15,0.06,0.2,0.03
				c0.05-0.02,0.08-0.09,0.08-0.19s-0.03-0.2-0.08-0.28c-0.05-0.08-0.12-0.15-0.2-0.2l-0.58-0.33v0.63L188.81,33.5z"/>
			<path class="st35" d="M193,37.69c-0.32,0.2-0.71,0.17-1.19-0.1c-0.47-0.27-0.87-0.69-1.19-1.25s-0.48-1.15-0.48-1.75
				s0.16-1.01,0.48-1.21c0.32-0.2,0.71-0.17,1.19,0.1c0.47,0.27,0.87,0.69,1.19,1.25s0.48,1.15,0.48,1.75
				C193.48,37.09,193.32,37.49,193,37.69z M191.29,35.94c0.13,0.27,0.31,0.46,0.53,0.59c0.22,0.12,0.39,0.13,0.53,0.01
				c0.13-0.11,0.2-0.31,0.2-0.59s-0.07-0.56-0.2-0.83c-0.14-0.27-0.31-0.46-0.53-0.59c-0.22-0.12-0.39-0.13-0.53-0.01
				c-0.13,0.11-0.2,0.31-0.2,0.59C191.09,35.4,191.16,35.67,191.29,35.94z"/>
			<path class="st35" d="M197.09,40.53l-0.96-0.55l-0.4-2.48l-0.39,2.03l-0.96-0.55l-0.87-4.47l1.03,0.59l0.39,2.66l0.46-2.17
				l0.69,0.4l0.46,2.7l0.39-2.21l1.03,0.59L197.09,40.53z"/>
			<path class="st35" d="M200.45,42.46l-2.3-1.32v-3.98l2.3,1.32v1.05l-1.38-0.79v0.39l1.35,0.77v1.05l-1.35-0.77v0.44l1.38,0.79
				V42.46z"/>
			<path class="st35" d="M203.57,44.25l-1.05-0.6l-0.42-1.49l-0.33-0.19v1.25l-0.92-0.53v-3.98l1.62,0.93
				c0.34,0.2,0.61,0.48,0.8,0.85s0.29,0.75,0.29,1.14c0,0.31-0.05,0.53-0.16,0.67s-0.24,0.21-0.38,0.22L203.57,44.25z M202.34,41.24
				c0.08,0.05,0.16,0.06,0.21,0.04c0.06-0.02,0.09-0.08,0.09-0.19c0-0.1-0.03-0.19-0.09-0.28s-0.13-0.15-0.21-0.2l-0.56-0.32v0.63
				L202.34,41.24z"/>
		</g>
	</g>
	
		<linearGradient id="SVGID_00000086671354933839902220000006832178853259022745_" gradientUnits="userSpaceOnUse" x1="1004.2451" y1="-637.425" x2="990.6176" y2="-625.9589" gradientTransform="matrix(0.763 0.4367 0 -1 -565.8945 -1013.7042)">
		<stop  offset="0" style="stop-color:#B2509A"/>
		<stop  offset="1" style="stop-color:#70B7C4"/>
	</linearGradient>
	<path style="fill:url(#SVGID_00000086671354933839902220000006832178853259022745_);" d="M195.13,44.38
		c-3.86-2.21-6.99,0.1-6.99,5.16s3.13,10.95,6.99,13.16c3.86,2.21,6.99-0.1,6.99-5.16S198.99,46.59,195.13,44.38z M198.1,59.52
		c-0.08,0.06-0.18,0.05-0.31-0.02c-0.09-0.05-0.17-0.14-0.24-0.25c-0.08-0.11-0.13-0.24-0.17-0.38l-2.25-8.61l-0.82,2.22l0.4,0.23
		c0.23,0.13,0.42,0.49,0.42,0.8v0.02c0,0.3-0.19,0.45-0.42,0.31l-0.75-0.43l-1.08,2.9c-0.04,0.09-0.09,0.16-0.17,0.18
		c-0.07,0.03-0.16,0.01-0.24-0.03c-0.13-0.08-0.24-0.19-0.31-0.34c-0.08-0.15-0.11-0.31-0.11-0.48c0-0.07,0.01-0.14,0.03-0.2
		l0.98-2.55l-0.42-0.24c-0.23-0.13-0.42-0.49-0.42-0.8v-0.01c0-0.3,0.19-0.45,0.42-0.31l0.78,0.45l1.03-2.67
		c0.13-0.31,0.33-0.39,0.59-0.24l0.21,0.12c0.26,0.15,0.46,0.45,0.59,0.92l2.36,8.84c0.02,0.08,0.03,0.16,0.03,0.23
		C198.22,59.34,198.18,59.46,198.1,59.52z"/>
</g>
<g>
	<g>
		<g>
			<polygon class="st3" points="274.04,172.83 220.26,203.55 220.51,224.36 274.17,193.83 			"/>
			<polygon class="st2" points="179.54,180.87 220.26,203.49 220.51,224.36 179.8,201.74 			"/>
			<polygon class="st4" points="274.1,172.88 232.86,149.87 179.54,180.87 220.26,203.7 			"/>
		</g>
		<circle class="st7" cx="224.14" cy="149.71" r="41.04"/>
		<g>
			<g>
				<path class="st1" d="M213.96,107.43l-0.01,17.04c-0.52,2.18,0.44,4.49,2.87,6.17c4.01,2.77,10.5,2.77,14.51,0
					c1.7-1.18,2.68-2.67,2.94-4.21h0.07v-0.71c0-0.07,0-0.14,0-0.21l0.01-17.63L213.96,107.43z"/>
				<path class="st1" d="M214.04,119.63c0,3.86,4.52,6.99,10.11,6.99c5.58,0,10.11-3.13,10.11-6.99"/>
				<path class="st1" d="M214.04,114.28c0,3.86,4.52,6.99,10.11,6.99c5.58,0,10.11-3.13,10.11-6.99"/>
				<path class="st1" d="M214.04,108.67c0,3.86,4.52,6.99,10.11,6.99c5.58,0,10.11-3.13,10.11-6.99"/>
			</g>
			<g>
				<path class="st1" d="M213.96,90.6l-0.01,17.04c-0.52,2.18,0.44,4.49,2.87,6.17c4.01,2.77,10.5,2.77,14.51,0
					c1.7-1.18,2.68-2.67,2.94-4.21h0.07v-0.71c0-0.07,0-0.14,0-0.21l0.01-17.63L213.96,90.6z"/>
				<path class="st1" d="M214.04,102.8c0,3.86,4.52,6.99,10.11,6.99c5.58,0,10.11-3.13,10.11-6.99"/>
				<path class="st1" d="M214.04,97.45c0,3.86,4.52,6.99,10.11,6.99c5.58,0,10.11-3.13,10.11-6.99"/>
				<path class="st1" d="M214.04,91.84c0,3.86,4.52,6.99,10.11,6.99c5.58,0,10.11-3.13,10.11-6.99"/>
			</g>
		</g>
		<g>
			<g>
				<g>
					<polygon class="st2" points="223.52,115.52 195.43,99.3 195.43,71.21 223.52,87.43 					"/>
					<polygon class="st3" points="223.52,115.52 251.62,99.3 251.62,71.21 223.52,87.43 					"/>
					<polygon class="st4" points="223.63,87.51 195.43,71.24 223.43,54.93 251.62,71.2 					"/>
				</g>
				<path id="矩形_00000105399534616368890820000012537038183678104509_" class="st5" d="M214.53,63.55L214.53,63.55
					c0.55,0.31,0.46,0.92-0.2,1.31l-5.83,3.45c-0.66,0.39-1.7,0.45-2.25,0.14l0,0c-0.55-0.31-0.46-0.92,0.2-1.31l5.83-3.45
					C212.94,63.3,213.98,63.24,214.53,63.55z"/>
				<path id="矩形_00000072244347818266850170000010760876990980440758_" class="st5" d="M203.98,69.8L203.98,69.8
					c0.55,0.31,0.46,0.92-0.2,1.31l-1.13,0.67c-0.66,0.39-1.7,0.45-2.25,0.14l0,0c-0.55-0.31-0.46-0.92,0.2-1.31l1.13-0.67
					C202.44,69.52,203.43,69.48,203.98,69.8z"/>
			</g>
		</g>
		<g>
			<g>
				<path class="st6" d="M228.3,213.81v-8.95l2.53-1.5c0.49-0.29,0.9-0.41,1.24-0.35c0.34,0.05,0.6,0.26,0.79,0.61
					c0.18,0.35,0.27,0.82,0.27,1.41s-0.09,1.17-0.28,1.74c-0.18,0.56-0.45,1.07-0.8,1.53c-0.35,0.46-0.77,0.84-1.26,1.13l-1.61,0.96
					v-1.52l1.39-0.83c0.26-0.15,0.48-0.35,0.65-0.57c0.17-0.23,0.3-0.48,0.38-0.76s0.13-0.56,0.13-0.85c0-0.3-0.04-0.53-0.13-0.71
					c-0.08-0.17-0.21-0.27-0.38-0.29c-0.17-0.02-0.39,0.04-0.65,0.2l-0.91,0.54v7.4L228.3,213.81z"/>
				<path class="st6" d="M233.99,210.44v-6.71l1.29-0.77v1.17l0.05-0.03c0.09-0.47,0.23-0.87,0.44-1.21
					c0.21-0.34,0.44-0.58,0.71-0.74c0.07-0.04,0.14-0.08,0.22-0.11s0.15-0.06,0.2-0.07v1.65c-0.06,0.01-0.15,0.04-0.26,0.08
					c-0.11,0.04-0.21,0.09-0.3,0.15c-0.2,0.12-0.37,0.28-0.53,0.49c-0.15,0.21-0.27,0.44-0.36,0.71c-0.09,0.26-0.13,0.53-0.13,0.8
					v3.8L233.99,210.44z"/>
				<path class="st6" d="M239.54,207.28c-0.49,0.29-0.91,0.39-1.26,0.31c-0.35-0.08-0.63-0.32-0.82-0.73
					c-0.19-0.41-0.29-0.95-0.29-1.64s0.1-1.36,0.29-1.99c0.19-0.63,0.47-1.2,0.82-1.7s0.77-0.89,1.26-1.18
					c0.49-0.29,0.91-0.39,1.26-0.31c0.35,0.08,0.63,0.32,0.82,0.73c0.19,0.41,0.29,0.96,0.29,1.65c0,0.69-0.1,1.35-0.29,1.98
					c-0.19,0.63-0.47,1.2-0.82,1.7C240.45,206.6,240.03,206.99,239.54,207.28z M239.55,205.84c0.22-0.13,0.41-0.33,0.55-0.59
					c0.15-0.26,0.26-0.57,0.34-0.92c0.08-0.35,0.11-0.72,0.11-1.11s-0.04-0.72-0.11-0.98s-0.19-0.44-0.34-0.53s-0.33-0.07-0.55,0.06
					s-0.41,0.33-0.56,0.6s-0.27,0.58-0.34,0.93s-0.11,0.72-0.11,1.11s0.04,0.72,0.11,0.98c0.08,0.26,0.19,0.43,0.34,0.52
					C239.14,205.99,239.33,205.97,239.55,205.84z"/>
				<path class="st6" d="M242.78,207.75v-9.23l1.32-0.78v1.13l0.06-0.04c0.06-0.22,0.14-0.45,0.26-0.7c0.11-0.25,0.26-0.5,0.44-0.73
					c0.18-0.23,0.41-0.43,0.68-0.59c0.35-0.21,0.67-0.27,0.97-0.19s0.53,0.32,0.71,0.73c0.18,0.41,0.27,0.99,0.27,1.76
					c0,0.75-0.09,1.43-0.26,2.05c-0.17,0.62-0.41,1.14-0.7,1.58c-0.3,0.44-0.63,0.77-0.99,0.98c-0.26,0.15-0.48,0.22-0.66,0.21
					c-0.18-0.01-0.33-0.07-0.44-0.19c-0.11-0.11-0.2-0.25-0.26-0.4l-0.04,0.02v3.59L242.78,207.75z M244.09,201.1
					c0,0.4,0.04,0.72,0.12,0.97s0.19,0.41,0.34,0.49c0.15,0.07,0.33,0.05,0.55-0.08s0.4-0.32,0.55-0.58
					c0.15-0.26,0.26-0.56,0.34-0.9c0.08-0.35,0.12-0.71,0.12-1.1s-0.04-0.71-0.12-0.95c-0.08-0.25-0.19-0.41-0.34-0.49
					s-0.33-0.05-0.55,0.08s-0.4,0.32-0.55,0.57c-0.15,0.25-0.26,0.54-0.34,0.89C244.13,200.33,244.09,200.7,244.09,201.1z"/>
				<path class="st6" d="M250.54,200.77c-0.49,0.29-0.91,0.39-1.26,0.31c-0.35-0.08-0.63-0.32-0.82-0.73
					c-0.19-0.41-0.29-0.95-0.29-1.64s0.1-1.36,0.29-1.99c0.19-0.63,0.47-1.2,0.82-1.7s0.77-0.89,1.26-1.18
					c0.49-0.29,0.91-0.39,1.26-0.31c0.35,0.08,0.63,0.32,0.82,0.73c0.19,0.41,0.29,0.96,0.29,1.65c0,0.69-0.1,1.35-0.29,1.98
					c-0.19,0.63-0.47,1.2-0.82,1.7C251.44,200.09,251.02,200.48,250.54,200.77z M250.54,199.32c0.22-0.13,0.41-0.33,0.55-0.59
					c0.15-0.26,0.26-0.57,0.34-0.92s0.11-0.72,0.11-1.11s-0.04-0.72-0.11-0.98c-0.08-0.26-0.19-0.44-0.34-0.53s-0.33-0.07-0.55,0.06
					s-0.41,0.33-0.56,0.6s-0.27,0.58-0.34,0.93c-0.08,0.35-0.11,0.72-0.11,1.11s0.04,0.72,0.11,0.98c0.08,0.26,0.19,0.43,0.34,0.52
					C250.13,199.48,250.32,199.45,250.54,199.32z"/>
				<path class="st6" d="M257.78,191.55l-1.22,0.83c-0.02-0.13-0.07-0.24-0.13-0.32c-0.07-0.08-0.16-0.12-0.27-0.12
					c-0.11-0.01-0.24,0.04-0.4,0.13c-0.21,0.12-0.38,0.29-0.52,0.49c-0.14,0.21-0.21,0.41-0.21,0.61c0,0.16,0.05,0.27,0.14,0.32
					c0.09,0.06,0.25,0.05,0.47-0.01l0.87-0.27c0.47-0.14,0.82-0.13,1.05,0.03c0.23,0.16,0.34,0.48,0.34,0.97
					c0,0.44-0.09,0.88-0.28,1.32c-0.18,0.44-0.44,0.85-0.76,1.22c-0.32,0.38-0.69,0.69-1.11,0.93c-0.64,0.38-1.14,0.49-1.52,0.34
					c-0.38-0.15-0.6-0.52-0.66-1.13l1.31-0.87c0.04,0.25,0.14,0.4,0.29,0.45s0.35,0.01,0.59-0.14c0.23-0.14,0.42-0.31,0.57-0.53
					c0.14-0.21,0.22-0.42,0.22-0.62c0-0.17-0.05-0.28-0.15-0.33s-0.25-0.04-0.46,0.02l-0.83,0.26c-0.47,0.15-0.82,0.13-1.05-0.06
					s-0.34-0.53-0.34-1.03c0-0.43,0.08-0.85,0.25-1.26c0.17-0.41,0.4-0.79,0.71-1.14c0.31-0.35,0.66-0.65,1.08-0.89
					c0.61-0.36,1.09-0.46,1.44-0.31C257.52,190.6,257.72,190.96,257.78,191.55z"/>
				<path class="st6" d="M260.1,195.09c-0.31,0.18-0.58,0.27-0.82,0.26c-0.24-0.01-0.43-0.12-0.57-0.33s-0.21-0.54-0.21-0.98
					c0-0.37,0.05-0.72,0.15-1.03s0.23-0.59,0.4-0.85c0.17-0.25,0.36-0.49,0.58-0.69c0.22-0.21,0.44-0.4,0.68-0.57
					c0.28-0.21,0.51-0.38,0.68-0.52c0.17-0.14,0.3-0.27,0.37-0.38c0.08-0.12,0.12-0.25,0.12-0.39v-0.03c0-0.28-0.06-0.45-0.19-0.53
					c-0.12-0.08-0.3-0.05-0.53,0.09c-0.24,0.14-0.43,0.33-0.57,0.56s-0.24,0.47-0.28,0.72l-1.23,0.59c0.06-0.44,0.19-0.87,0.37-1.28
					s0.42-0.78,0.71-1.11c0.29-0.33,0.63-0.62,1.01-0.84c0.27-0.16,0.52-0.27,0.77-0.32c0.25-0.06,0.46-0.05,0.65,0.02
					s0.34,0.22,0.45,0.44c0.11,0.22,0.17,0.53,0.17,0.93v4.53l-1.27,0.75v-0.93l-0.04,0.02c-0.08,0.26-0.18,0.5-0.31,0.74
					s-0.29,0.45-0.47,0.65C260.55,194.78,260.34,194.95,260.1,195.09z M260.49,193.58c0.2-0.12,0.37-0.27,0.52-0.47
					s0.27-0.42,0.35-0.65c0.09-0.24,0.13-0.47,0.13-0.71v-0.71c-0.04,0.06-0.1,0.13-0.17,0.2c-0.07,0.07-0.15,0.15-0.24,0.23
					s-0.18,0.15-0.27,0.23c-0.09,0.07-0.17,0.14-0.24,0.2c-0.16,0.12-0.29,0.26-0.41,0.4s-0.21,0.29-0.27,0.44
					c-0.06,0.16-0.1,0.32-0.1,0.5c0,0.25,0.07,0.41,0.2,0.46C260.11,193.74,260.28,193.7,260.49,193.58z"/>
				<path class="st6" d="M265.19,183.01v8.95l-1.33,0.79v-8.95L265.19,183.01z"/>
			</g>
		</g>
	</g>
	<polygon class="st3" points="215.49,78.29 211.91,76.28 232.67,64.02 236.25,66.04 	"/>
</g>
<g>
	<g>
		<circle class="st7" cx="145.5" cy="74.92" r="24.14"/>
		<g>
			<g>
				<path class="st1" d="M139.51,50.05l-0.01,10.02c-0.3,1.28,0.26,2.64,1.69,3.63c2.36,1.63,6.18,1.63,8.54,0
					c1-0.69,1.58-1.57,1.73-2.47h0.04v-0.42c0-0.04,0-0.08,0-0.12l0-10.37L139.51,50.05z"/>
				<path class="st1" d="M139.56,57.22c0,2.27,2.66,4.11,5.94,4.11s5.94-1.84,5.94-4.11"/>
				<path class="st1" d="M139.56,54.08c0,2.27,2.66,4.11,5.94,4.11s5.94-1.84,5.94-4.11"/>
				<path class="st1" d="M139.56,50.78c0,2.27,2.66,4.11,5.94,4.11s5.94-1.84,5.94-4.11"/>
			</g>
			<g>
				<path class="st1" d="M139.51,40.15l-0.01,10.02c-0.3,1.28,0.26,2.64,1.69,3.63c2.36,1.63,6.18,1.63,8.54,0
					c1-0.69,1.58-1.57,1.73-2.47h0.04v-0.42c0-0.04,0-0.08,0-0.12l0-10.38L139.51,40.15z"/>
				<path class="st1" d="M139.56,47.32c0,2.27,2.66,4.11,5.94,4.11s5.94-1.84,5.94-4.11"/>
				<path class="st1" d="M139.56,44.18c0,2.27,2.66,4.11,5.94,4.11s5.94-1.84,5.94-4.11"/>
				<path class="st1" d="M139.56,40.87c0,2.27,2.66,4.11,5.94,4.11s5.94-1.84,5.94-4.11"/>
			</g>
		</g>
		<g>
			<g>
				<g>
					<polygon class="st2" points="145.14,54.8 128.61,45.26 128.61,28.74 145.14,38.28 					"/>
					<polygon class="st3" points="145.14,54.8 161.66,45.26 161.66,28.74 145.14,38.28 					"/>
					<polygon class="st4" points="145.2,38.33 128.61,28.75 145.08,19.16 161.66,28.74 					"/>
				</g>
				<path id="矩形_00000121280920243167405510000014637122998057134997_" class="st5" d="M139.98,24.07L139.98,24.07
					c0.32,0.18,0.27,0.54-0.12,0.77l-3.43,2.03c-0.39,0.23-1,0.27-1.32,0.08l0,0c-0.32-0.18-0.27-0.54,0.12-0.77l3.43-2.03
					C139.04,23.92,139.65,23.88,139.98,24.07z"/>
				<path id="矩形_00000142886575717361269320000000756850418061131450_" class="st5" d="M133.77,27.74L133.77,27.74
					c0.32,0.18,0.27,0.54-0.12,0.77l-0.66,0.39c-0.39,0.23-1,0.27-1.32,0.08l0,0c-0.32-0.18-0.27-0.54,0.12-0.77l0.66-0.39
					C132.86,27.58,133.45,27.56,133.77,27.74z"/>
			</g>
		</g>
	</g>
	<polygon class="st3" points="140.64,32.17 138.77,31.12 149.63,24.71 151.5,25.76 	"/>
</g>
<g>
	<g>
		<circle class="st7" cx="64.78" cy="112.15" r="35.7"/>
		<g>
			<g>
				<path class="st1" d="M55.92,75.38L55.91,90.2c-0.45,1.89,0.38,3.91,2.49,5.37c3.49,2.41,9.14,2.41,12.62,0
					c1.48-1.03,2.33-2.32,2.55-3.66h0.06V91.3c0-0.06,0-0.12,0-0.18l0.01-15.34L55.92,75.38z"/>
				<path class="st1" d="M55.99,85.99c0,3.36,3.94,6.08,8.79,6.08s8.79-2.72,8.79-6.08"/>
				<path class="st1" d="M55.99,81.34c0,3.36,3.94,6.08,8.79,6.08s8.79-2.72,8.79-6.08"/>
				<path class="st1" d="M55.99,76.45c0,3.36,3.94,6.08,8.79,6.08s8.79-2.72,8.79-6.08"/>
			</g>
			<g>
				<path class="st1" d="M55.92,60.74l-0.01,14.82c-0.45,1.89,0.38,3.91,2.49,5.37c3.49,2.41,9.14,2.41,12.62,0
					c1.48-1.03,2.33-2.32,2.55-3.66h0.06v-0.61c0-0.06,0-0.12,0-0.18l0.01-15.34L55.92,60.74z"/>
				<path class="st1" d="M55.99,71.34c0,3.36,3.94,6.08,8.79,6.08s8.79-2.72,8.79-6.08"/>
				<path class="st1" d="M55.99,66.69c0,3.36,3.94,6.08,8.79,6.08s8.79-2.72,8.79-6.08"/>
				<path class="st1" d="M55.99,61.81c0,3.36,3.94,6.08,8.79,6.08s8.79-2.72,8.79-6.08"/>
			</g>
		</g>
		<g>
			<g>
				<g>
					<polygon class="st2" points="64.24,82.41 39.8,68.3 39.8,43.87 64.24,57.97 					"/>
					<polygon class="st3" points="64.24,82.41 88.67,68.3 88.67,43.87 64.24,57.97 					"/>
					<polygon class="st4" points="64.33,58.05 39.8,43.89 64.15,29.7 88.68,43.86 					"/>
					<line class="st167" x1="57.24" y1="50.03" x2="54.13" y2="48.28"/>
				</g>
				<path id="矩形_00000127762947512148509490000006358794808855891098_" class="st5" d="M56.46,37.15L56.46,37.15
					c0.48,0.27,0.4,0.8-0.17,1.14l-5.07,3c-0.57,0.34-1.48,0.4-1.96,0.12l0,0c-0.48-0.27-0.4-0.8,0.17-1.14l5.07-3
					C55.07,36.93,55.98,36.88,56.46,37.15z"/>
				<path id="矩形_00000077311037285783396930000012152463592113117594_" class="st5" d="M47.28,42.59L47.28,42.59
					c0.48,0.27,0.4,0.8-0.17,1.14l-0.98,0.58c-0.57,0.34-1.48,0.4-1.96,0.12l0,0c-0.48-0.27-0.4-0.8,0.17-1.14l0.98-0.58
					C45.94,42.34,46.8,42.31,47.28,42.59z"/>
			</g>
		</g>
	</g>
	<polygon class="st3" points="57.52,49.6 54.53,47.91 71.91,37.65 74.91,39.34 	"/>
</g>
<g>
	<path id="矩形_00000029760177402822748010000016701842685677602180_" class="st82" d="M167.64,219.77L167.64,219.77
		c0.62,0,1.15,0.76,1.15,1.64v1.52c0,0.88-0.53,1.64-1.15,1.64l0,0c-0.62,0-1.15-0.76-1.15-1.64v-1.52
		C166.49,220.46,167.02,219.77,167.64,219.77z"/>
	
		<radialGradient id="SVGID_00000152231829444823584400000018068809643891018880_" cx="136.09" cy="-3401.4021" r="29.157" gradientTransform="matrix(1 0 0 -0.5898 0 -1752.2588)" gradientUnits="userSpaceOnUse">
		<stop  offset="0" style="stop-color:#06070C"/>
		<stop  offset="1" style="stop-color:#0D101D;stop-opacity:0"/>
	</radialGradient>
	<path style="opacity:0.67;fill:url(#SVGID_00000152231829444823584400000018068809643891018880_);" d="M161.09,239.82
		c-13.68-7.9-35.96-8-49.77-0.23s-13.91,20.48-0.23,28.37s35.96,8,49.77,0.23S174.77,247.72,161.09,239.82z"/>
	<g>
		<path class="st131" d="M174.6,203.79v-49.28c0-0.23,0.02-0.45,0.02-0.68c0-22.91-18.57-41.48-41.48-41.48
			s-41.48,18.57-41.48,41.48c0,0.36,0.02,0.72,0.03,1.07v44.66h-0.03v22.67c0,2.84,2.3,5.15,5.15,5.15c2.84,0,5.15-2.31,5.15-5.15
			v-0.83c0.56,0.36,1.13,0.72,1.74,1.07c1.83,1.06,3.79,1.99,5.85,2.81v8.2c0,2.84,2.3,5.15,5.15,5.15c2.84,0,5.15-2.31,5.15-5.15
			v-5.23c2.95,0.57,5.99,0.96,9.06,1.14v12.59c0,2.84,2.3,5.15,5.15,5.15c2.84,0,5.15-2.31,5.15-5.15v-12.7
			c3.39-0.28,6.73-0.8,9.93-1.55v6.36c0,2.84,2.3,5.15,5.15,5.15c2.84,0,5.15-2.31,5.15-5.15v-9.87c1-0.47,1.97-0.96,2.91-1.49
			c0.7-0.39,1.35-0.8,1.99-1.21v0.71c0,2.84,2.3,5.15,5.15,5.15s5.15-2.31,5.15-5.15v-18.45L174.6,203.79L174.6,203.79z"/>
		
			<radialGradient id="SVGID_00000073723697634554570690000006647854345561369505_" cx="157.8192" cy="-2186.249" r="106.6854" gradientTransform="matrix(1 0 0 -1 0 -2056.4775)" gradientUnits="userSpaceOnUse">
			<stop  offset="0.0124" style="stop-color:#CF7DC9"/>
			<stop  offset="0.4936" style="stop-color:#9C5C96"/>
			<stop  offset="0.5829" style="stop-color:#96649A"/>
			<stop  offset="0.7273" style="stop-color:#8A7AA4"/>
			<stop  offset="0.9078" style="stop-color:#7A9DB5"/>
			<stop  offset="1" style="stop-color:#74B3C0"/>
		</radialGradient>
		<path style="fill:url(#SVGID_00000073723697634554570690000006647854345561369505_);" d="M174.6,203.79v-49.28
			c0-0.23,0.02-0.45,0.02-0.68c0-22.91-18.57-41.48-41.48-41.48s-41.48,18.57-41.48,41.48c0,0.36,0.02,0.72,0.03,1.07v44.66h-0.03
			v22.67c0,2.84,2.3,5.15,5.15,5.15c2.84,0,5.15-2.31,5.15-5.15v-0.83c0.56,0.36,1.13,0.72,1.74,1.07c1.83,1.06,3.79,1.99,5.85,2.81
			v8.2c0,2.84,2.3,5.15,5.15,5.15c2.84,0,5.15-2.31,5.15-5.15v-5.23c2.95,0.57,5.99,0.96,9.06,1.14v12.59c0,2.84,2.3,5.15,5.15,5.15
			c2.84,0,5.15-2.31,5.15-5.15v-12.7c3.39-0.28,6.73-0.8,9.93-1.55v6.36c0,2.84,2.3,5.15,5.15,5.15c2.84,0,5.15-2.31,5.15-5.15
			v-9.87c1-0.47,1.97-0.96,2.91-1.49c0.7-0.39,1.35-0.8,1.99-1.21v0.71c0,2.84,2.3,5.15,5.15,5.15s5.15-2.31,5.15-5.15v-18.45
			L174.6,203.79L174.6,203.79z"/>
	</g>
	<path id="矩形_00000172439045185845096630000015986626213521213575_" class="st82" d="M95.55,189.95L95.55,189.95
		c1.12,0,2.09,1.38,2.09,2.99v14.25c0,1.61-0.96,2.99-2.09,2.99l0,0c-1.12,0-2.09-1.38-2.09-2.99v-14.25
		C93.46,191.33,94.42,189.95,95.55,189.95z"/>
	<path id="矩形_00000091708287274608320270000007166124395555909518_" class="st82" d="M156.85,126.86L156.85,126.86
		c1.37-1.02,3.68-0.37,5.02,1.41l2.29,3.06c1.34,1.78,1.31,4.19-0.06,5.22l0,0c-1.37,1.02-3.68,0.37-5.02-1.41l-2.29-3.06
		C155.36,130.16,155.48,127.88,156.85,126.86z"/>
	<path id="矩形_00000124867408391973099130000010603902022586181249_" class="st82" d="M112.94,226.53L112.94,226.53
		c1.12,0,2.09,1.38,2.09,2.99v2.76c0,1.61-0.96,2.99-2.09,2.99l0,0c-1.12,0-2.09-1.38-2.09-2.99v-2.76
		C110.86,227.8,111.82,226.53,112.94,226.53z"/>
	<path id="矩形_00000103235603360186728380000008491014721623735959_" class="st82" d="M95.3,215.73L95.3,215.73
		c1.12,0,2.09,1.38,2.09,2.99v2.76c0,1.61-0.96,2.99-2.09,2.99l0,0c-1.12,0-2.09-1.38-2.09-2.99v-2.76
		C93.21,217,94.17,215.73,95.3,215.73z"/>
	<path id="矩形_00000084503058220601631600000015378275770670108595_" class="st82" d="M133.13,235.27L133.13,235.27
		c1.12,0,2.09,1.38,2.09,2.99v2.76c0,1.61-0.96,2.99-2.09,2.99l0,0c-1.12,0-2.09-1.38-2.09-2.99v-2.76
		C131.05,236.54,132.01,235.27,133.13,235.27z"/>
	<path id="矩形_00000136372189182740420850000018394598594520865936_" class="st82" d="M152.84,229.93L152.84,229.93
		c0.89,0,1.66,1.1,1.66,2.37v2.2c0,1.28-0.76,2.37-1.66,2.37l0,0c-0.89,0-1.66-1.1-1.66-2.37v-2.19
		C151.18,230.94,151.94,229.93,152.84,229.93z"/>
	<g>
		<path id="椭圆形_00000037679551824548507100000016856976446065091469_" class="st133" d="M143.14,184.82
			c4.06-0.17,7.1-3.66,7.09-6c0-0.94-0.55-1.75-1.38-1.81c-1.29-0.13-3.23,0.7-5.72,0.8c-2.31,0.1-3.78-0.5-5.53-0.42
			c-1.84,0.08-1.75,2.22-1.47,3.06C136.78,182.74,139,184.99,143.14,184.82z"/>
		<path id="椭圆形_00000001626628225400718280000000833291186562045113_" class="st87" d="M143.23,182.85
			c4.15-0.17,7.19-3.38,7.19-5.63c0-0.84-0.55-1.57-1.38-1.63c-1.29-0.13-3.32,0.7-5.81,0.8c-2.4,0.1-3.78-0.5-5.62-0.43
			c-1.84,0.08-1.75,2.13-1.48,2.87C136.78,180.96,139.08,183.02,143.23,182.85z"/>
	</g>
	<g>
		
			<ellipse transform="matrix(0.5671 -0.8237 0.8237 0.5671 -78.2619 173.8076)" class="st87" cx="126.21" cy="161.35" rx="9.5" ry="9.1"/>
		<path id="形状结合_00000049938655783401298380000008977217073964099461_" class="st134" d="M127.4,151.38
			c4.24-0.18,7.66,3.98,7.66,9.22c0,0.19,0,0.37,0,0.56v0.56c0-5.33-3.33-9.59-7.48-9.42s-7.46,4.61-7.46,10.04
			c0,1.03,0.09,2.05,0.37,2.98c-0.46-1.2-0.74-2.59-0.74-3.99C119.75,156,123.15,151.56,127.4,151.38z"/>
		<path id="形状结合_00000003790506499963279170000007187114705817175457_" class="st135" d="M127.39,150.26
			c4.7-0.2,8.58,4.41,8.58,10.31s-3.86,10.83-8.57,11.02s-8.58-4.41-8.58-10.31C118.82,155.39,122.6,150.46,127.39,150.26z
			 M127.4,151.38c-4.24,0.18-7.65,4.62-7.64,9.86c0,5.24,3.42,9.4,7.66,9.22c4.24-0.18,7.65-4.62,7.64-9.86
			C135.05,155.37,131.54,151.21,127.4,151.38z"/>
	</g>
	<g>
		
			<ellipse transform="matrix(0.5671 -0.8237 0.8237 0.5671 -63.8322 198.5105)" class="st87" cx="156.92" cy="159.98" rx="9.5" ry="9.1"/>
		<path id="形状结合_00000030479494909370561170000008982472373032112813_" class="st134" d="M157.91,150.01
			c4.24-0.18,7.66,3.98,7.66,9.22c0,0.19,0,0.37,0,0.56v0.56c0-5.33-3.33-9.59-7.48-9.42s-7.46,4.61-7.46,10.04
			c0,1.03,0.09,2.05,0.37,2.98c-0.46-1.2-0.74-2.59-0.74-3.99C150.26,154.63,153.67,150.19,157.91,150.01z"/>
		<path id="形状结合_00000071529288923375543090000003862351366146472594_" class="st135" d="M157.91,148.89
			c4.7-0.2,8.58,4.41,8.58,10.31c0.01,5.89-3.86,10.83-8.57,11.02c-4.7,0.2-8.58-4.41-8.58-10.31S153.11,149.09,157.91,148.89z
			 M157.91,150.01c-4.24,0.18-7.65,4.62-7.64,9.86c0,5.24,3.42,9.4,7.66,9.22s7.65-4.62,7.64-9.86
			C165.57,154,162.06,149.84,157.91,150.01z"/>
	</g>
	<circle class="st133" cx="131.17" cy="158.92" r="3.77"/>
	<circle class="st133" cx="161.71" cy="157.79" r="3.77"/>
</g>
<g>
	<g>
		
			<linearGradient id="SVGID_00000152943783460506386760000014997713079611408563_" gradientUnits="userSpaceOnUse" x1="846.2574" y1="-3736.0354" x2="896.2313" y2="-3736.0354" gradientTransform="matrix(0.7491 -0.4602 0 -1 -603.9342 -3164.2136)">
			<stop  offset="0" style="stop-color:#A75698"/>
			<stop  offset="1" style="stop-color:#6FB5C2"/>
		</linearGradient>
		
			<polygon style="fill:none;stroke:url(#SVGID_00000152943783460506386760000014997713079611408563_);stroke-width:5;stroke-miterlimit:10;" points="
			65.56,193.21 31.87,213.91 31.87,148.54 65.56,127.84 		"/>
	</g>
	<g>
		<polygon class="st1" points="65.56,192.84 31.87,213.54 31.87,148.17 65.56,127.47 		"/>
	</g>
	<g>
		<g>
			<path class="st35" d="M39.92,157.6l-1.61,0.99l-1.56-4.68l1.45-0.89l0.91,3.23l0.91-4.36l1.45-0.89L39.92,157.6z"/>
			<path class="st35" d="M45.44,153.49c-0.44,0.81-0.99,1.42-1.65,1.83c-0.66,0.4-1.21,0.47-1.65,0.2
				c-0.44-0.27-0.66-0.84-0.66-1.69c0-0.86,0.22-1.69,0.66-2.51c0.44-0.81,0.99-1.42,1.65-1.83c0.66-0.4,1.21-0.47,1.65-0.2
				c0.44,0.27,0.66,0.84,0.66,1.69C46.1,151.84,45.88,152.68,45.44,153.49z M43.06,153.86c0.19,0.16,0.43,0.14,0.73-0.04
				s0.54-0.47,0.73-0.85c0.19-0.39,0.28-0.78,0.28-1.18s-0.09-0.68-0.28-0.83c-0.19-0.15-0.43-0.14-0.73,0.04s-0.54,0.47-0.73,0.85
				c-0.19,0.39-0.28,0.78-0.28,1.18C42.78,153.43,42.87,153.7,43.06,153.86z"/>
			<path class="st35" d="M48.74,152.18l-1.28,0.79v-4.15l-1.13,0.7v-1.49l3.54-2.17v1.49l-1.13,0.69V152.18z"/>
			<path class="st35" d="M51.6,150.42l-1.28,0.79v-5.64l1.28-0.79V150.42z"/>
			<path class="st35" d="M56.35,147.5l-1.23,0.75l-1.56-1.9v2.86L52.28,150v-5.64l1.32-0.81l1.47,1.77v-2.67l1.28-0.79V147.5z"/>
			<path class="st35" d="M59.13,145.9c-0.66,0.4-1.21,0.48-1.66,0.22s-0.67-0.83-0.67-1.71s0.22-1.72,0.67-2.53
				c0.45-0.81,1-1.41,1.66-1.82c0.46-0.29,0.85-0.38,1.16-0.29c0.31,0.09,0.54,0.3,0.69,0.62l-1.08,1.4
				c-0.07-0.15-0.17-0.25-0.31-0.31c-0.14-0.05-0.29-0.03-0.47,0.08c-0.3,0.19-0.55,0.47-0.74,0.86c-0.19,0.39-0.28,0.78-0.28,1.18
				s0.1,0.68,0.28,0.83c0.19,0.15,0.44,0.14,0.74-0.05c0.12-0.07,0.24-0.17,0.37-0.3c0.13-0.13,0.22-0.25,0.29-0.36v-0.2L58.99,144
				v-1.49l2.06-1.26v2.31C60.55,144.65,59.9,145.42,59.13,145.9z"/>
			<path class="st35" d="M38.61,166.46l-1.34,0.83v-5.93l2.37-1.46c0.5-0.31,0.89-0.35,1.17-0.14s0.42,0.61,0.42,1.19
				c0,0.57-0.14,1.14-0.42,1.7s-0.67,1-1.17,1.3l-1.02,0.63L38.61,166.46L38.61,166.46z M39.46,162.5c0.12-0.07,0.22-0.17,0.29-0.3
				c0.08-0.13,0.11-0.26,0.11-0.41c0-0.15-0.04-0.25-0.11-0.28c-0.08-0.03-0.17-0.01-0.29,0.06l-0.85,0.52v0.93L39.46,162.5z"/>
			<path class="st35" d="M45.6,161.42c-0.46,0.86-1.04,1.5-1.73,1.92c-0.69,0.43-1.27,0.49-1.73,0.21c-0.46-0.29-0.7-0.88-0.7-1.78
				s0.23-1.78,0.7-2.64c0.46-0.86,1.04-1.5,1.73-1.92s1.27-0.49,1.73-0.21c0.46,0.29,0.7,0.88,0.7,1.78
				C46.29,159.68,46.06,160.56,45.6,161.42z M43.09,161.8c0.2,0.16,0.45,0.15,0.77-0.05c0.31-0.19,0.57-0.49,0.77-0.9
				c0.2-0.41,0.3-0.82,0.3-1.24s-0.1-0.71-0.3-0.88c-0.2-0.16-0.45-0.15-0.77,0.05c-0.32,0.19-0.57,0.49-0.77,0.9
				c-0.2,0.41-0.3,0.82-0.3,1.24C42.8,161.35,42.9,161.64,43.09,161.8z"/>
			<path class="st35" d="M51.57,158.5l-1.41,0.87l-0.57-3.01l-0.57,3.71l-1.41,0.87l-1.27-5.15l1.5-0.92l0.57,3.27l0.67-4.04
				l1.01-0.62l0.67,3.21l0.57-3.97l1.51-0.93L51.57,158.5z"/>
			<path class="st35" d="M56.49,155.47l-3.37,2.07v-5.93l3.37-2.07v1.56l-2.02,1.24v0.59l1.98-1.21v1.56l-1.98,1.22v0.65l2.02-1.24
				V155.47z"/>
			<path class="st35" d="M61.06,152.67l-1.53,0.94l-0.61-1.49l-0.49,0.3v1.87l-1.34,0.83v-5.93l2.37-1.46
				c0.5-0.31,0.89-0.35,1.17-0.14s0.42,0.61,0.42,1.19c0,0.46-0.08,0.89-0.24,1.28s-0.35,0.73-0.56,1L61.06,152.67z M59.25,150.35
				c0.12-0.08,0.23-0.18,0.31-0.31s0.13-0.27,0.13-0.43c0-0.15-0.04-0.24-0.13-0.26c-0.08-0.03-0.19,0-0.31,0.07l-0.82,0.5v0.93
				L59.25,150.35z"/>
		</g>
	</g>
	
		<linearGradient id="SVGID_00000125573835745559424970000003371945149745537970_" gradientUnits="userSpaceOnUse" x1="881.4307" y1="-3755.0281" x2="861.1246" y2="-3737.9426" gradientTransform="matrix(0.7491 -0.4602 0 -1 -603.9342 -3164.2136)">
		<stop  offset="0" style="stop-color:#B2509A"/>
		<stop  offset="1" style="stop-color:#70B7C4"/>
	</linearGradient>
	<path style="fill:url(#SVGID_00000125573835745559424970000003371945149745537970_);" d="M48.71,167.65
		c-5.64,3.47-10.22,12.39-10.22,19.93c0,7.53,4.58,10.83,10.22,7.37s10.22-12.39,10.22-19.93
		C58.94,167.48,54.36,164.18,48.71,167.65z M53.06,185c-0.11,0.23-0.27,0.4-0.46,0.52c-0.13,0.08-0.25,0.1-0.36,0.06
		c-0.11-0.03-0.19-0.13-0.25-0.27l-3.29-8.9l-1.2,4.76l0.59-0.36c0.34-0.21,0.62-0.01,0.62,0.45v0.02c0,0.46-0.28,1-0.62,1.21
		l-1.1,0.67l-1.58,6.2c-0.06,0.21-0.14,0.4-0.25,0.57c-0.1,0.16-0.23,0.29-0.36,0.38c-0.19,0.12-0.35,0.14-0.46,0.05
		s-0.17-0.26-0.17-0.52c0-0.11,0.01-0.22,0.04-0.35l1.44-5.51l-0.61,0.37c-0.34,0.21-0.62,0.01-0.62-0.45v-0.01
		c0-0.46,0.28-1,0.62-1.21l1.14-0.7l1.5-5.79c0.19-0.7,0.49-1.16,0.87-1.39l0.3-0.19c0.38-0.23,0.67-0.13,0.87,0.33l3.46,9.03
		c0.03,0.08,0.04,0.18,0.04,0.29C53.23,184.54,53.17,184.78,53.06,185z"/>
</g>
</svg>
