<?xml version="1.0" encoding="utf-8"?>
<!-- Generator: Adobe Illustrator 27.8.1, SVG Export Plug-In . SVG Version: 6.00 Build 0)  -->
<svg version="1.1" id="Слой_1" xmlns="http://www.w3.org/2000/svg" xmlns:xlink="http://www.w3.org/1999/xlink" x="0px" y="0px"
	 viewBox="0 0 290 269.62" style="enable-background:new 0 0 290 269.62;" xml:space="preserve">
<style type="text/css">
	.st0{fill:#101422;}
	.st1{fill:#FFFFFF;stroke:#111422;stroke-linecap:round;stroke-linejoin:round;stroke-miterlimit:10;}
	
		.st2{fill-rule:evenodd;clip-rule:evenodd;fill:#C6C3D1;stroke:#101320;stroke-linecap:round;stroke-linejoin:round;stroke-miterlimit:10;}
	
		.st3{fill-rule:evenodd;clip-rule:evenodd;fill:#FFFFFF;stroke:#111422;stroke-linecap:round;stroke-linejoin:round;stroke-miterlimit:10;}
	
		.st4{fill-rule:evenodd;clip-rule:evenodd;fill:#ECF0FC;stroke:#111422;stroke-linecap:round;stroke-linejoin:round;stroke-miterlimit:10;}
	.st5{opacity:0.92;fill-rule:evenodd;clip-rule:evenodd;fill:#FFFFFF;enable-background:new    ;}
	.st6{fill:none;stroke:#FFFFFF;stroke-linecap:round;stroke-linejoin:round;stroke-miterlimit:10;}
	.st7{fill-rule:evenodd;clip-rule:evenodd;fill:#101422;}
	.st8{fill:url(#SVGID_1_);}
	.st9{fill:url(#SVGID_00000129198539861253467970000009145980082610474677_);}
	.st10{fill:url(#SVGID_00000034077653918193057390000010848826056453974206_);}
	.st11{opacity:0.67;fill:url(#SVGID_00000025440268529186393050000001840137869092047754_);enable-background:new    ;}
	.st12{fill:#6FA3B6;}
	.st13{fill:url(#SVGID_00000134965561498542876870000001236864732693016718_);}
	.st14{opacity:0.2563;fill-rule:evenodd;clip-rule:evenodd;fill:#FFFFFF;enable-background:new    ;}
	.st15{fill:none;stroke:#FFFFFF;stroke-width:0.7384;stroke-linecap:round;stroke-linejoin:round;stroke-miterlimit:10;}
	
		.st16{fill:none;stroke:url(#SVGID_00000158745381407851164630000009575129349335404954_);stroke-width:5;stroke-linecap:round;stroke-linejoin:round;stroke-miterlimit:10;}
	.st17{fill:url(#SVGID_00000087400362209110899360000013485841969804438656_);}
	.st18{fill-rule:evenodd;clip-rule:evenodd;fill:#1AD4B3;}
	.st19{fill-rule:evenodd;clip-rule:evenodd;fill:#FC4F83;}
	.st20{fill:#C6C3D1;stroke:#101320;stroke-linecap:round;stroke-linejoin:round;stroke-miterlimit:10;}
	.st21{fill:#ECF0FC;stroke:#111422;stroke-linecap:round;stroke-linejoin:round;stroke-miterlimit:10;}
	
		.st22{fill:url(#SVGID_00000180325648781064142430000017737831999665671558_);stroke:#1D1D1B;stroke-width:0.2115;stroke-linecap:round;stroke-linejoin:round;stroke-miterlimit:10;}
	
		.st23{fill:url(#SVGID_00000140719954886699767080000008130536907850118528_);stroke:#1D1D1B;stroke-width:0.2115;stroke-linecap:round;stroke-linejoin:round;stroke-miterlimit:10;}
	
		.st24{fill:url(#SVGID_00000008120033764613584730000014296627536350631842_);stroke:#1D1D1B;stroke-width:0.2115;stroke-linecap:round;stroke-linejoin:round;stroke-miterlimit:10;}
	
		.st25{fill:url(#SVGID_00000158008476430783604200000015731381313471009181_);stroke:#1D1D1B;stroke-width:0.2115;stroke-linecap:round;stroke-linejoin:round;stroke-miterlimit:10;}
	
		.st26{fill-rule:evenodd;clip-rule:evenodd;fill:#101422;stroke:#101423;stroke-linecap:round;stroke-linejoin:round;stroke-miterlimit:10;}
	.st27{fill:#FFFFFF;}
	.st28{fill-rule:evenodd;clip-rule:evenodd;fill:url(#SVGID_00000072961686183339126630000006760531297634011801_);}
	.st29{fill-rule:evenodd;clip-rule:evenodd;fill:url(#SVGID_00000003080286478635555300000017380899831219058607_);}
	.st30{fill:url(#SVGID_00000009551533484899181160000015236924957098073227_);}
	.st31{fill:url(#SVGID_00000087411619406326745170000011696501415341898141_);}
	.st32{fill:url(#SVGID_00000079455459285135459660000010463182661910035386_);}
	
		.st33{fill-rule:evenodd;clip-rule:evenodd;fill:#C7FFF1;stroke:#101320;stroke-linecap:round;stroke-linejoin:round;stroke-miterlimit:10;}
	
		.st34{fill:none;stroke:url(#SVGID_00000091693731717629255790000014933634447830735787_);stroke-width:5;stroke-linecap:round;stroke-linejoin:round;stroke-miterlimit:10;}
	.st35{fill:url(#SVGID_00000049181221826589758940000000115560563456525237_);}
	
		.st36{fill:none;stroke:url(#SVGID_00000111913146137642287800000015849855481624439956_);stroke-width:5;stroke-linecap:round;stroke-linejoin:round;stroke-miterlimit:10;}
	.st37{fill:url(#SVGID_00000022554589116368978140000006725497907639930007_);}
	
		.st38{fill:none;stroke:url(#SVGID_00000020399090530356060980000004364609394253837203_);stroke-width:5;stroke-linecap:round;stroke-linejoin:round;stroke-miterlimit:10;}
	.st39{fill:url(#SVGID_00000167390683989748849310000006793630776447332000_);}
	
		.st40{fill-rule:evenodd;clip-rule:evenodd;fill:#1AD4B3;stroke:#111422;stroke-linecap:round;stroke-linejoin:round;stroke-miterlimit:10;}
	
		.st41{fill-rule:evenodd;clip-rule:evenodd;fill:#FC4F83;stroke:#111422;stroke-linecap:round;stroke-linejoin:round;stroke-miterlimit:10;}
	
		.st42{fill-rule:evenodd;clip-rule:evenodd;fill:#FFCAD7;stroke:#111422;stroke-linecap:round;stroke-linejoin:round;stroke-miterlimit:10;}
	.st43{fill:url(#SVGID_00000052072601064017988540000010376547066797195930_);}
	.st44{fill:url(#SVGID_00000022549521393332781720000017605985605338384552_);}
	.st45{fill:url(#SVGID_00000068639770424664123720000001095908411909760700_);}
	
		.st46{fill:none;stroke:url(#SVGID_00000180364939165220536200000017344979035303034257_);stroke-width:5;stroke-linecap:round;stroke-linejoin:round;stroke-miterlimit:10;}
	.st47{fill:url(#SVGID_00000181058376104030919320000009187254848406188931_);}
	
		.st48{fill:none;stroke:url(#SVGID_00000101105362021326260860000002428057208227107240_);stroke-width:5;stroke-linecap:round;stroke-linejoin:round;stroke-miterlimit:10;}
	.st49{fill:url(#SVGID_00000090979975409397498680000013229688726731432869_);}
	.st50{fill:url(#SVGID_00000026873446948773928480000009425326281036855185_);}
	.st51{fill:#101320;}
	.st52{fill:url(#SVGID_00000157996694223500490660000003455259183180103084_);}
	.st53{fill:url(#SVGID_00000053544902024393767560000003369943410060302770_);}
	.st54{fill:url(#SVGID_00000132798489004950530240000002837626876570620857_);}
	.st55{fill:url(#SVGID_00000125600560388311809050000005819868522909509520_);}
	.st56{fill:url(#SVGID_00000127729597153980211710000010505255744953367198_);}
	.st57{fill:url(#SVGID_00000106844195064581141130000004894018495357908636_);}
	.st58{opacity:0.29;fill:url(#SVGID_00000126304765014201660440000009294351497997548416_);enable-background:new    ;}
	.st59{fill:url(#SVGID_00000017518006093663832290000003750460964538650026_);}
	.st60{fill:url(#SVGID_00000128461811815322119230000015918653980554070424_);}
	.st61{fill:url(#SVGID_00000011013417825467368400000012513243716671253686_);}
	.st62{fill-rule:evenodd;clip-rule:evenodd;fill:url(#SVGID_00000042722353010812101240000003264322451528568241_);}
	.st63{fill:url(#SVGID_00000066511667054433208620000008924742991146229910_);}
	.st64{fill:url(#SVGID_00000137133972710424309430000006454340553787853441_);}
	.st65{fill:url(#SVGID_00000034795615009840116460000001241762630565527427_);}
	.st66{fill:url(#SVGID_00000111156885199221665270000011976691493787650235_);}
	.st67{opacity:0.29;fill:url(#SVGID_00000165949865466905334210000016461790643351799197_);enable-background:new    ;}
	
		.st68{fill:none;stroke:url(#SVGID_00000175280568287667147500000014408857586397107379_);stroke-width:5;stroke-linecap:round;stroke-linejoin:round;stroke-miterlimit:10;}
	.st69{fill:url(#SVGID_00000025445068394354276490000016161253201145642377_);}
	
		.st70{fill:none;stroke:url(#SVGID_00000007395057539993351890000017513575586797171607_);stroke-width:5;stroke-linecap:round;stroke-linejoin:round;stroke-miterlimit:10;}
	.st71{fill:url(#SVGID_00000152952959177816310120000014820902719226221455_);}
	
		.st72{fill:none;stroke:url(#SVGID_00000110450316468546465440000010794710656402903467_);stroke-width:5;stroke-linecap:round;stroke-linejoin:round;stroke-miterlimit:10;}
	.st73{fill:url(#SVGID_00000094586519467728925750000007123383969956646319_);}
	.st74{fill-rule:evenodd;clip-rule:evenodd;fill:url(#SVGID_00000020390932336447035470000010635372911260547456_);}
	.st75{fill:url(#SVGID_00000095323459255410211620000011179020824053577640_);}
	.st76{fill:url(#SVGID_00000115474430930516997490000012631118668047614864_);}
	.st77{fill:url(#SVGID_00000072959875137177059350000002245283256222689975_);}
	.st78{opacity:0.29;fill:url(#SVGID_00000132085140527527134240000005771629373576049058_);}
	.st79{opacity:0.29;fill:url(#SVGID_00000057143909634396502030000018352910559794184623_);}
	.st80{opacity:0.67;fill:url(#SVGID_00000097470863912250842230000013253134382736554658_);}
	.st81{fill:#3FA9BD;}
	.st82{fill:url(#SVGID_00000114772228803311848640000016378011068664024249_);}
	.st83{fill-rule:evenodd;clip-rule:evenodd;fill:#555069;}
	.st84{fill-rule:evenodd;clip-rule:evenodd;fill:#FFFFFF;}
	.st85{fill-rule:evenodd;clip-rule:evenodd;fill:#AFAFB1;}
	.st86{fill-rule:evenodd;clip-rule:evenodd;fill:#D3D3D3;}
	.st87{opacity:0.67;fill:url(#SVGID_00000005970906164766143000000003784408966263361163_);}
	.st88{fill:url(#SVGID_00000159472237916040388550000007916014415088578709_);}
	.st89{opacity:0.67;fill:url(#SVGID_00000181774195482668210300000009551352288070272420_);}
	.st90{fill:url(#SVGID_00000011716973166257675340000015369019016271440819_);}
	.st91{opacity:0.67;fill:url(#SVGID_00000162310299200359304130000015321977735346834331_);}
	.st92{fill:url(#SVGID_00000174589130365203802470000011559863186354701455_);}
	.st93{opacity:0.67;fill:url(#SVGID_00000160888254751023231040000014135166661723021193_);}
	.st94{fill:url(#SVGID_00000016075506925756533070000017963414105768832178_);}
	.st95{opacity:0.67;fill:url(#SVGID_00000156581056070207597100000011885357705485363340_);}
	.st96{fill:url(#SVGID_00000113327479999987040860000018203333802295616429_);}
	.st97{fill:#1AD4B3;}
	.st98{opacity:0.67;fill:url(#SVGID_00000104685073925579764200000002686936620149519499_);}
	.st99{fill:url(#SVGID_00000155851717174053653340000016574031732050866859_);}
	.st100{opacity:0.67;fill:url(#SVGID_00000044883525716411240650000004507356941007500178_);}
	.st101{fill:url(#SVGID_00000106846053082671594410000013325728503387035314_);}
	.st102{opacity:0.67;fill:url(#SVGID_00000003068697572768599440000015926727664841769649_);}
	.st103{fill:url(#SVGID_00000021080542810811497580000009762439315341968796_);}
	
		.st104{fill-rule:evenodd;clip-rule:evenodd;fill:none;stroke:#FFFFFF;stroke-width:0.7384;stroke-linecap:round;stroke-linejoin:round;stroke-miterlimit:10;}
	.st105{opacity:0.67;fill:url(#SVGID_00000061447408306564000480000013772525992925043840_);}
	.st106{fill:url(#SVGID_00000093143391670664624830000013455691822479597213_);}
	.st107{opacity:0.67;fill:url(#SVGID_00000155852104924847826880000001744305641153204895_);}
	.st108{fill:url(#SVGID_00000142135050848380064460000002430782688839052429_);}
	.st109{opacity:0.67;fill:url(#SVGID_00000114034465016866012200000017994489215823935363_);}
	.st110{fill:url(#SVGID_00000156560088117550436480000015290408239999131575_);}
	.st111{opacity:0.67;fill:url(#SVGID_00000013911755763247229520000015181315970543322261_);}
	.st112{fill:url(#SVGID_00000021116757475080416370000006972563716907762048_);}
	.st113{opacity:0.67;fill:url(#SVGID_00000146475686601935425680000009904136458396367533_);}
	.st114{fill:url(#SVGID_00000053536534383411647360000010349570026107918225_);}
	.st115{opacity:0.67;fill:url(#SVGID_00000128482135917652529220000012437658863071870098_);}
	.st116{fill:url(#SVGID_00000157270591213542726020000015285707519670248081_);}
	.st117{opacity:0.67;fill:url(#SVGID_00000130606622605038172940000016885355798596849805_);}
	.st118{fill:url(#SVGID_00000044898464584818116770000000599705597631722138_);}
	.st119{opacity:0.67;fill:url(#SVGID_00000134249858054963370770000008081450389648335793_);}
	.st120{fill:url(#SVGID_00000014631988698386481370000002519312621352109757_);}
	.st121{opacity:0.67;fill:url(#SVGID_00000017494470892850898040000014415196070937345440_);}
	.st122{fill:url(#SVGID_00000051342412411014796470000005916989391033379754_);}
	.st123{opacity:0.67;fill:url(#SVGID_00000010989680723116388190000009132132626259280535_);}
	.st124{fill:url(#SVGID_00000069399091837691878870000017791945308882115227_);}
	.st125{opacity:0.67;fill:url(#SVGID_00000124146041494245570160000013733716874746979210_);}
	.st126{fill:url(#SVGID_00000023273434006093551400000015147392256313100453_);}
	.st127{opacity:0.67;fill:url(#SVGID_00000110464184533885214950000005918250246851670433_);}
	.st128{fill:#5EA6B9;}
	.st129{fill:url(#SVGID_00000163038674895961393470000002007836931539774597_);}
	.st130{fill-rule:evenodd;clip-rule:evenodd;fill:#545067;}
	.st131{fill-rule:evenodd;clip-rule:evenodd;fill:#AEAEB0;}
	.st132{fill-rule:evenodd;clip-rule:evenodd;fill:#D2D2D2;}
	.st133{opacity:0.67;fill:url(#SVGID_00000000208754497769236570000007762548909707882633_);}
	.st134{fill:url(#SVGID_00000028299158659500308030000016715179214267446940_);}
	.st135{fill-rule:evenodd;clip-rule:evenodd;fill:#63D0B3;}
	
		.st136{fill-rule:evenodd;clip-rule:evenodd;fill:none;stroke:#111422;stroke-linecap:round;stroke-linejoin:round;stroke-miterlimit:10;}
	.st137{fill-rule:evenodd;clip-rule:evenodd;fill:#E85C83;}
	.st138{fill:#5DC29D;}
	.st139{fill:url(#SVGID_00000046330036146431163370000007909560157864197002_);}
	.st140{fill:url(#SVGID_00000133494741103727861550000011932977567450033035_);}
	.st141{fill:#E85C83;}
	.st142{opacity:0.67;fill:url(#SVGID_00000013190398103027884950000015069564372039225523_);}
	.st143{fill:url(#SVGID_00000132810852934526608170000007005672398403298994_);}
	
		.st144{fill:none;stroke:url(#SVGID_00000113350167882803956830000013920018695468861857_);stroke-width:5;stroke-linecap:round;stroke-linejoin:round;stroke-miterlimit:10;}
	.st145{fill:url(#SVGID_00000175306064477177260720000006081579826436138892_);}
	.st146{opacity:0.67;fill:url(#SVGID_00000160906693799831728650000014714002066229237425_);}
	.st147{fill:url(#SVGID_00000023992483162970743020000015519492819564076430_);}
	.st148{opacity:0.67;fill:url(#SVGID_00000075125917003954411650000004460187104564180105_);}
	.st149{fill:url(#SVGID_00000024683502278053717460000006759066553927392680_);}
	.st150{opacity:0.67;fill:url(#SVGID_00000053514331014383880090000010536353490714410131_);}
	.st151{fill:url(#SVGID_00000170991936389723600410000006481055056895638178_);}
	.st152{opacity:0.67;fill:url(#SVGID_00000131363958636975883490000000922619144938765747_);}
	.st153{fill:url(#SVGID_00000021084733915153431960000000845852228596129154_);}
	.st154{opacity:0.67;fill:url(#SVGID_00000024697745829121599690000006341115247749489331_);}
	.st155{fill:url(#SVGID_00000015352923988379265140000011992008243463553961_);}
	.st156{opacity:0.67;fill:url(#SVGID_00000141439343634345021200000005796678194760088504_);}
	.st157{fill:url(#SVGID_00000007428690677728995060000017182485877062170025_);}
	.st158{fill:none;stroke:#000000;stroke-width:22;stroke-linecap:round;stroke-linejoin:round;stroke-miterlimit:10;}
	.st159{fill:#ECF0FC;}
	.st160{fill:url(#SVGID_00000065038736235586695650000011260402798552675497_);}
	.st161{fill:url(#SVGID_00000120539764950267419830000012860862628587789745_);}
	.st162{fill:none;stroke:url(#SVGID_00000012473189575699229590000003189894088971524995_);stroke-width:5;stroke-miterlimit:10;}
	.st163{fill:#111422;}
	.st164{fill:url(#SVGID_00000182497549454076202210000016090211292666282420_);}
	.st165{fill:none;}
	.st166{opacity:0.67;fill:url(#SVGID_00000169531472845080698810000004999071750660633216_);}
	.st167{fill:url(#SVGID_00000084523508690253609140000003316098015732690071_);}
	.st168{fill:none;stroke:url(#SVGID_00000025442779689469899290000008683678547841555384_);stroke-width:5;stroke-miterlimit:10;}
	.st169{fill:url(#SVGID_00000031184375997696057570000003440860330371605666_);}
	.st170{opacity:0.67;fill:url(#SVGID_00000059291147838067848410000008849991562951831719_);}
	.st171{fill:url(#SVGID_00000030451912901423249220000013808318691123103643_);}
	.st172{opacity:0.67;fill:url(#SVGID_00000047779363722232662710000004326687074470078337_);}
	.st173{fill:url(#SVGID_00000165199580775015900340000004961347083110637247_);}
</style>
<g>
	<circle class="st0" cx="144.67" cy="70.24" r="26.03"/>
	<g>
		<g>
			<path class="st1" d="M138.21,43.43l-0.01,10.81c-0.33,1.38,0.28,2.85,1.82,3.91c2.54,1.76,6.66,1.76,9.2,0
				c1.08-0.75,1.7-1.69,1.86-2.67l0.04,0l0-0.45c0-0.04,0-0.09,0-0.13l0.01-11.18L138.21,43.43z"/>
			<path class="st1" d="M138.26,51.16c0,2.45,2.87,4.43,6.41,4.43s6.41-1.98,6.41-4.43"/>
			<path class="st1" d="M138.26,47.77c0,2.45,2.87,4.43,6.41,4.43s6.41-1.98,6.41-4.43"/>
			<path class="st1" d="M138.26,44.21c0,2.45,2.87,4.43,6.41,4.43s6.41-1.98,6.41-4.43"/>
		</g>
		<g>
			<path class="st1" d="M138.21,32.75l-0.01,10.81c-0.33,1.38,0.28,2.85,1.82,3.91c2.54,1.76,6.66,1.76,9.2,0
				c1.08-0.75,1.7-1.69,1.86-2.67l0.04,0l0-0.45c0-0.04,0-0.09,0-0.13l0.01-11.18L138.21,32.75z"/>
			<path class="st1" d="M138.26,40.49c0,2.45,2.87,4.43,6.41,4.43s6.41-1.98,6.41-4.43"/>
			<path class="st1" d="M138.26,37.1c0,2.45,2.87,4.43,6.41,4.43s6.41-1.98,6.41-4.43"/>
			<path class="st1" d="M138.26,33.54c0,2.45,2.87,4.43,6.41,4.43s6.41-1.98,6.41-4.43"/>
		</g>
	</g>
	<g>
		<g>
			<g>
				<polygon class="st2" points="144.27,48.55 126.46,38.27 126.46,20.45 144.27,30.74 				"/>
				<polygon class="st3" points="144.27,48.55 162.09,38.27 162.09,20.45 144.27,30.74 				"/>
				<polygon class="st4" points="144.34,30.79 126.46,20.47 144.21,10.13 162.09,20.45 				"/>
			</g>
			<path id="矩形_00000079443592894900880680000006652819142888995477_" class="st5" d="M138.69,15.45L138.69,15.45
				c0.35,0.2,0.29,0.58-0.12,0.83l-3.7,2.19c-0.42,0.25-1.08,0.29-1.43,0.09l0,0c-0.35-0.2-0.29-0.58,0.12-0.83l3.7-2.19
				C137.68,15.29,138.34,15.25,138.69,15.45z"/>
			<path id="矩形_00000114755741022696549230000009597631825070058393_" class="st5" d="M131.99,19.41L131.99,19.41
				c0.35,0.2,0.29,0.58-0.12,0.83l-0.72,0.42c-0.42,0.25-1.08,0.29-1.43,0.09l0,0c-0.35-0.2-0.29-0.58,0.12-0.83l0.72-0.42
				C131.02,19.24,131.64,19.21,131.99,19.41z"/>
		</g>
	</g>
</g>
<g>
	<circle class="st0" cx="263.33" cy="58.37" r="17.42"/>
	<g>
		<g>
			<path class="st1" d="M259,40.43l0,7.23c-0.22,0.92,0.19,1.91,1.22,2.62c1.7,1.18,4.46,1.18,6.16,0c0.72-0.5,1.14-1.13,1.25-1.79
				l0.03,0l0-0.3c0-0.03,0-0.06,0-0.09l0-7.49L259,40.43z"/>
			<path class="st1" d="M259.04,45.6c0,1.64,1.92,2.97,4.29,2.97c2.37,0,4.29-1.33,4.29-2.97"/>
			<path class="st1" d="M259.04,43.33c0,1.64,1.92,2.97,4.29,2.97c2.37,0,4.29-1.33,4.29-2.97"/>
			<path class="st1" d="M259.04,40.95c0,1.64,1.92,2.97,4.29,2.97c2.37,0,4.29-1.33,4.29-2.97"/>
		</g>
		<g>
			<path class="st1" d="M259,33.28l0,7.23c-0.22,0.92,0.19,1.91,1.22,2.62c1.7,1.18,4.46,1.18,6.16,0c0.72-0.5,1.14-1.13,1.25-1.79
				l0.03,0l0-0.3c0-0.03,0-0.06,0-0.09l0-7.49L259,33.28z"/>
			<path class="st1" d="M259.04,38.46c0,1.64,1.92,2.97,4.29,2.97c2.37,0,4.29-1.33,4.29-2.97"/>
			<path class="st1" d="M259.04,36.19c0,1.64,1.92,2.97,4.29,2.97c2.37,0,4.29-1.33,4.29-2.97"/>
			<path class="st1" d="M259.04,33.8c0,1.64,1.92,2.97,4.29,2.97c2.37,0,4.29-1.33,4.29-2.97"/>
		</g>
	</g>
	<g>
		<g>
			<g>
				<polygon class="st2" points="263.06,43.86 251.14,36.97 251.14,25.05 263.06,31.93 				"/>
				<polygon class="st3" points="263.06,43.86 274.99,36.97 274.99,25.05 263.06,31.93 				"/>
				<polygon class="st4" points="263.11,31.97 251.14,25.06 263.02,18.13 274.99,25.05 				"/>
			</g>
			<path id="矩形_00000051345786366756252190000006540976897904845215_" class="st5" d="M259.43,21.56L259.43,21.56
				c0.23,0.13,0.2,0.39-0.08,0.55l-2.47,1.46c-0.28,0.17-0.72,0.19-0.95,0.06l0,0c-0.23-0.13-0.2-0.39,0.08-0.55l2.47-1.46
				C258.75,21.46,259.19,21.43,259.43,21.56z"/>
			<path id="矩形_00000155113696485370069590000008057874936706924938_" class="st5" d="M254.95,24.22L254.95,24.22
				c0.23,0.13,0.2,0.39-0.08,0.55l-0.48,0.28c-0.28,0.17-0.72,0.19-0.95,0.06l0,0c-0.23-0.13-0.2-0.39,0.08-0.55l0.48-0.28
				C254.29,24.1,254.71,24.08,254.95,24.22z"/>
		</g>
	</g>
</g>
<g>
	<g>
		<polygon class="st3" points="263.04,158.85 209.25,189.58 209.5,210.38 263.16,179.85 		"/>
		<polygon class="st2" points="168.54,166.9 209.25,189.52 209.5,210.38 168.79,187.77 		"/>
		<polygon class="st4" points="263.04,159.17 221.8,136.16 168.54,166.9 209.25,189.72 		"/>
	</g>
	<g>
		<polygon class="st3" points="263.04,134.31 209.25,165.04 209.5,185.84 263.16,155.31 		"/>
		<polygon class="st2" points="168.54,142.36 209.25,164.98 209.5,185.84 168.79,163.23 		"/>
		<polygon class="st4" points="263.05,134.27 221.81,111.25 168.54,142.36 209.25,165.18 		"/>
	</g>
	<circle class="st0" cx="213.14" cy="111.2" r="41.04"/>
	<g>
		<g>
			<path class="st1" d="M202.96,68.92l-0.01,17.04c-0.52,2.18,0.44,4.49,2.87,6.17c4.01,2.77,10.5,2.77,14.51,0
				c1.7-1.18,2.68-2.67,2.94-4.21l0.07,0l0-0.71c0-0.07,0-0.14,0-0.21l0.01-17.63L202.96,68.92z"/>
			<path class="st1" d="M203.04,81.11c0,3.86,4.52,6.99,10.11,6.99s10.11-3.13,10.11-6.99"/>
			<path class="st1" d="M203.04,75.77c0,3.86,4.52,6.99,10.11,6.99s10.11-3.13,10.11-6.99"/>
			<path class="st1" d="M203.04,70.15c0,3.86,4.52,6.99,10.11,6.99s10.11-3.13,10.11-6.99"/>
		</g>
		<g>
			<path class="st1" d="M202.96,52.09l-0.01,17.04c-0.52,2.18,0.44,4.49,2.87,6.17c4.01,2.77,10.5,2.77,14.51,0
				c1.7-1.18,2.68-2.67,2.94-4.21l0.07,0l0-0.71c0-0.07,0-0.14,0-0.21l0.01-17.63L202.96,52.09z"/>
			<path class="st1" d="M203.04,64.28c0,3.86,4.52,6.99,10.11,6.99s10.11-3.13,10.11-6.99"/>
			<path class="st1" d="M203.04,58.94c0,3.86,4.52,6.99,10.11,6.99s10.11-3.13,10.11-6.99"/>
			<path class="st1" d="M203.04,53.32c0,3.86,4.52,6.99,10.11,6.99s10.11-3.13,10.11-6.99"/>
		</g>
	</g>
	<g>
		<g>
			<g>
				<polygon class="st2" points="212.52,77 184.43,60.78 184.43,32.69 212.52,48.91 				"/>
				<polygon class="st3" points="212.52,77 240.61,60.78 240.61,32.69 212.52,48.91 				"/>
				<polygon class="st4" points="212.62,49 184.43,32.72 212.42,16.41 240.62,32.69 				"/>
				<polygon class="st7" points="204.48,39.78 200.91,37.76 221.67,25.51 225.25,27.53 				"/>
			</g>
			<path id="矩形_00000170266666954363694930000004065331233235621794_" class="st5" d="M203.53,25.04L203.53,25.04
				c0.55,0.31,0.46,0.92-0.2,1.31l-5.83,3.45c-0.66,0.39-1.7,0.45-2.25,0.14l0,0c-0.55-0.31-0.46-0.92,0.2-1.31l5.83-3.45
				C201.94,24.79,202.98,24.73,203.53,25.04z"/>
			<path id="矩形_00000089539658386455953200000014543093902128682381_" class="st5" d="M192.98,31.29L192.98,31.29
				c0.55,0.31,0.46,0.92-0.2,1.31l-1.13,0.67c-0.66,0.39-1.7,0.45-2.25,0.14l0,0c-0.55-0.31-0.46-0.92,0.2-1.31l1.13-0.67
				C191.43,31.01,192.42,30.97,192.98,31.29z"/>
		</g>
	</g>
	<g>
		<g>
			<path class="st0" d="M217.3,175.3v-8.95l2.53-1.5c0.49-0.29,0.9-0.41,1.24-0.35c0.34,0.05,0.6,0.26,0.79,0.61
				c0.18,0.35,0.27,0.82,0.27,1.41c0,0.59-0.09,1.17-0.28,1.74c-0.18,0.56-0.45,1.07-0.8,1.53c-0.35,0.46-0.77,0.84-1.26,1.13
				l-1.61,0.96v-1.52l1.39-0.83c0.26-0.15,0.48-0.35,0.65-0.57c0.17-0.23,0.3-0.48,0.38-0.76c0.08-0.28,0.13-0.56,0.13-0.85
				c0-0.3-0.04-0.53-0.13-0.71c-0.08-0.17-0.21-0.27-0.38-0.29c-0.17-0.02-0.39,0.04-0.65,0.2l-0.91,0.54v7.4L217.3,175.3z"/>
			<path class="st0" d="M222.99,171.93v-6.71l1.29-0.77v1.17l0.05-0.03c0.09-0.47,0.23-0.87,0.44-1.21
				c0.21-0.34,0.44-0.58,0.71-0.74c0.07-0.04,0.14-0.08,0.22-0.11c0.08-0.03,0.15-0.06,0.2-0.07v1.65
				c-0.06,0.01-0.15,0.04-0.26,0.08c-0.11,0.04-0.21,0.09-0.3,0.15c-0.2,0.12-0.37,0.28-0.53,0.49c-0.15,0.21-0.27,0.44-0.36,0.71
				c-0.09,0.26-0.13,0.53-0.13,0.8v3.8L222.99,171.93z"/>
			<path class="st0" d="M228.54,168.77c-0.49,0.29-0.91,0.39-1.26,0.31c-0.35-0.08-0.63-0.32-0.82-0.73
				c-0.19-0.41-0.29-0.95-0.29-1.64c0-0.69,0.1-1.36,0.29-1.99c0.19-0.63,0.47-1.2,0.82-1.7c0.35-0.5,0.77-0.89,1.26-1.18
				c0.49-0.29,0.91-0.39,1.26-0.31c0.35,0.08,0.63,0.32,0.82,0.73c0.19,0.41,0.29,0.96,0.29,1.65c0,0.69-0.1,1.35-0.29,1.98
				c-0.19,0.63-0.47,1.2-0.82,1.7C229.45,168.09,229.03,168.48,228.54,168.77z M228.55,167.32c0.22-0.13,0.41-0.33,0.55-0.59
				c0.15-0.26,0.26-0.57,0.34-0.92s0.11-0.72,0.11-1.11s-0.04-0.72-0.11-0.98s-0.19-0.44-0.34-0.53c-0.15-0.09-0.33-0.07-0.55,0.06
				c-0.22,0.13-0.41,0.33-0.56,0.6c-0.15,0.27-0.27,0.58-0.34,0.93c-0.08,0.35-0.11,0.72-0.11,1.11c0,0.39,0.04,0.72,0.11,0.98
				c0.08,0.26,0.19,0.43,0.34,0.52C228.14,167.48,228.32,167.45,228.55,167.32z"/>
			<path class="st0" d="M231.78,169.23v-9.23l1.32-0.78v1.13l0.06-0.04c0.06-0.22,0.14-0.45,0.26-0.7c0.11-0.25,0.26-0.5,0.44-0.73
				c0.18-0.23,0.41-0.43,0.68-0.59c0.35-0.21,0.67-0.27,0.97-0.19c0.3,0.08,0.53,0.32,0.71,0.73c0.18,0.41,0.27,0.99,0.27,1.76
				c0,0.75-0.09,1.43-0.26,2.05c-0.17,0.62-0.41,1.14-0.7,1.58c-0.3,0.44-0.63,0.77-0.99,0.98c-0.26,0.15-0.48,0.22-0.66,0.21
				c-0.18-0.01-0.33-0.07-0.44-0.19c-0.11-0.11-0.2-0.25-0.26-0.4l-0.04,0.02v3.59L231.78,169.23z M233.09,162.59
				c0,0.4,0.04,0.72,0.12,0.97c0.08,0.25,0.19,0.41,0.34,0.49c0.15,0.07,0.33,0.05,0.55-0.08c0.22-0.13,0.4-0.32,0.55-0.58
				c0.15-0.26,0.26-0.56,0.34-0.9c0.08-0.35,0.12-0.71,0.12-1.1c0-0.39-0.04-0.71-0.12-0.95c-0.08-0.25-0.19-0.41-0.34-0.49
				c-0.15-0.08-0.33-0.05-0.55,0.08c-0.22,0.13-0.4,0.32-0.55,0.57c-0.15,0.25-0.26,0.54-0.34,0.89
				C233.13,161.82,233.09,162.19,233.09,162.59z"/>
			<path class="st0" d="M239.53,162.25c-0.49,0.29-0.91,0.39-1.26,0.31c-0.35-0.08-0.63-0.32-0.82-0.73
				c-0.19-0.41-0.29-0.95-0.29-1.64c0-0.69,0.1-1.36,0.29-1.99c0.19-0.63,0.47-1.2,0.82-1.7c0.35-0.5,0.77-0.89,1.26-1.18
				c0.49-0.29,0.91-0.39,1.26-0.31c0.35,0.08,0.63,0.32,0.82,0.73c0.19,0.41,0.29,0.96,0.29,1.65c0,0.69-0.1,1.35-0.29,1.98
				c-0.19,0.63-0.47,1.2-0.82,1.7C240.44,161.57,240.02,161.97,239.53,162.25z M239.54,160.81c0.22-0.13,0.41-0.33,0.55-0.59
				c0.15-0.26,0.26-0.57,0.34-0.92c0.08-0.35,0.11-0.72,0.11-1.11c0-0.39-0.04-0.72-0.11-0.98c-0.08-0.26-0.19-0.44-0.34-0.53
				c-0.15-0.09-0.33-0.07-0.55,0.06c-0.22,0.13-0.41,0.33-0.56,0.6c-0.15,0.27-0.27,0.58-0.34,0.93c-0.08,0.35-0.11,0.72-0.11,1.11
				c0,0.39,0.04,0.72,0.11,0.98c0.08,0.26,0.19,0.43,0.34,0.52C239.13,160.96,239.32,160.94,239.54,160.81z"/>
			<path class="st0" d="M246.78,153.03l-1.22,0.83c-0.02-0.13-0.07-0.24-0.13-0.32c-0.07-0.08-0.16-0.12-0.27-0.12
				c-0.11-0.01-0.24,0.04-0.4,0.13c-0.21,0.12-0.38,0.29-0.52,0.49c-0.14,0.21-0.21,0.41-0.21,0.61c0,0.16,0.05,0.27,0.14,0.32
				c0.09,0.06,0.25,0.05,0.47-0.01l0.87-0.27c0.47-0.14,0.82-0.13,1.05,0.03c0.23,0.16,0.34,0.48,0.34,0.97
				c0,0.44-0.09,0.88-0.28,1.32c-0.18,0.44-0.44,0.85-0.76,1.22c-0.32,0.38-0.69,0.69-1.11,0.93c-0.64,0.38-1.14,0.49-1.52,0.34
				c-0.38-0.15-0.6-0.52-0.66-1.13l1.31-0.87c0.04,0.25,0.14,0.4,0.29,0.45c0.15,0.05,0.35,0.01,0.59-0.14
				c0.23-0.14,0.42-0.31,0.57-0.53c0.14-0.21,0.22-0.42,0.22-0.62c0-0.17-0.05-0.28-0.15-0.33c-0.1-0.05-0.25-0.04-0.46,0.02
				l-0.83,0.26c-0.47,0.15-0.82,0.13-1.05-0.06c-0.23-0.19-0.34-0.53-0.34-1.03c0-0.43,0.08-0.85,0.25-1.26
				c0.17-0.41,0.4-0.79,0.71-1.14c0.31-0.35,0.66-0.65,1.08-0.89c0.61-0.36,1.09-0.46,1.44-0.31
				C246.51,152.08,246.72,152.45,246.78,153.03z"/>
			<path class="st0" d="M249.1,156.58c-0.31,0.18-0.58,0.27-0.82,0.26c-0.24-0.01-0.43-0.12-0.57-0.33
				c-0.14-0.21-0.21-0.54-0.21-0.98c0-0.37,0.05-0.72,0.15-1.03c0.1-0.31,0.23-0.59,0.4-0.85c0.17-0.25,0.36-0.49,0.58-0.69
				c0.22-0.21,0.44-0.4,0.68-0.57c0.28-0.21,0.51-0.38,0.68-0.52c0.17-0.14,0.3-0.27,0.37-0.38c0.08-0.12,0.12-0.25,0.12-0.39v-0.03
				c0-0.28-0.06-0.45-0.19-0.53c-0.12-0.08-0.3-0.05-0.53,0.09c-0.24,0.14-0.43,0.33-0.57,0.56c-0.14,0.23-0.24,0.47-0.28,0.72
				l-1.23,0.59c0.06-0.44,0.19-0.87,0.37-1.28c0.18-0.41,0.42-0.78,0.71-1.11c0.29-0.33,0.63-0.62,1.01-0.84
				c0.27-0.16,0.52-0.27,0.77-0.32c0.25-0.06,0.46-0.05,0.65,0.02c0.19,0.07,0.34,0.22,0.45,0.44c0.11,0.22,0.17,0.53,0.17,0.93
				v4.53l-1.27,0.75v-0.93l-0.04,0.02c-0.08,0.26-0.18,0.5-0.31,0.74c-0.13,0.24-0.29,0.45-0.47,0.65
				C249.55,156.27,249.34,156.44,249.1,156.58z M249.48,155.07c0.2-0.12,0.37-0.27,0.52-0.47c0.15-0.2,0.27-0.42,0.35-0.65
				c0.09-0.24,0.13-0.47,0.13-0.71v-0.71c-0.04,0.06-0.1,0.13-0.17,0.2c-0.07,0.07-0.15,0.15-0.24,0.23
				c-0.09,0.08-0.18,0.15-0.27,0.23c-0.09,0.07-0.17,0.14-0.24,0.2c-0.16,0.12-0.29,0.26-0.41,0.4c-0.12,0.14-0.21,0.29-0.27,0.44
				c-0.06,0.16-0.1,0.32-0.1,0.5c0,0.25,0.07,0.41,0.2,0.46S249.28,155.19,249.48,155.07z"/>
			<path class="st0" d="M254.18,144.49v8.95l-1.33,0.79v-8.95L254.18,144.49z"/>
		</g>
	</g>
</g>
<g>
	<polygon class="st3" points="132.63,74 22.49,136.92 22.49,195.82 132.63,132.9 	"/>
	<polygon class="st2" points="8.05,128.76 22.49,136.56 22.49,195.82 8.05,188.02 	"/>
	<polygon class="st4" points="132.63,74 117.12,65.8 8.05,128.76 22.49,136.56 	"/>
</g>
<g>
	<path class="st0" d="M37.79,156.45c0,1.76-0.21,3.37-0.64,4.83c-0.42,1.46-1,2.72-1.72,3.77c-0.72,1.05-1.52,1.84-2.41,2.37
		c-0.89,0.53-1.7,0.7-2.42,0.5c-0.72-0.2-1.29-0.77-1.71-1.73c-0.42-0.96-0.63-2.31-0.63-4.06c0-1.76,0.21-3.37,0.63-4.83
		s0.99-2.71,1.71-3.76c0.72-1.05,1.53-1.84,2.42-2.37c0.89-0.53,1.69-0.7,2.41-0.51c0.72,0.19,1.3,0.76,1.72,1.72
		C37.58,153.33,37.79,154.69,37.79,156.45z M35.05,158.08c0-0.95-0.08-1.7-0.23-2.26c-0.16-0.56-0.38-0.92-0.69-1.08
		c-0.3-0.16-0.67-0.1-1.11,0.16c-0.44,0.26-0.81,0.65-1.11,1.17c-0.3,0.52-0.53,1.15-0.68,1.89s-0.23,1.59-0.23,2.54
		s0.08,1.7,0.23,2.26s0.38,0.92,0.68,1.07c0.3,0.16,0.67,0.11,1.11-0.16c0.44-0.26,0.81-0.65,1.11-1.17
		c0.3-0.52,0.53-1.15,0.69-1.89C34.98,159.87,35.05,159.03,35.05,158.08z"/>
	<path class="st0" d="M39.02,163.63v-15.82l4.23-2.52c0.73-0.43,1.36-0.58,1.91-0.44c0.55,0.14,0.97,0.54,1.27,1.2
		c0.3,0.66,0.45,1.55,0.45,2.67c0,1.13-0.16,2.21-0.47,3.22c-0.31,1.02-0.75,1.91-1.31,2.69c-0.56,0.78-1.21,1.39-1.96,1.84
		l-2.53,1.51v-3.34l1.99-1.19c0.31-0.19,0.58-0.43,0.8-0.74c0.22-0.31,0.39-0.67,0.51-1.07c0.12-0.4,0.18-0.83,0.18-1.27
		c0-0.45-0.06-0.8-0.18-1.06c-0.12-0.25-0.29-0.4-0.51-0.44c-0.22-0.04-0.49,0.03-0.8,0.22l-0.94,0.56v12.39L39.02,163.63z"/>
	<path class="st0" d="M47.86,158.36v-15.82l7.07-4.21v3.46l-4.4,2.62v2.72l4.04-2.41v3.46l-4.04,2.41v2.72l4.39-2.61v3.46
		L47.86,158.36z"/>
	<path class="st0" d="M64.74,132.49v15.82l-2.22,1.32l-3.54-6.2l-0.06,0.04v8.31l-2.66,1.58v-15.82l2.26-1.35L62,142.4l0.08-0.04
		v-8.28L64.74,132.49z"/>
	<path class="st0" d="M68.41,133.76v-3.46l8.52-5.07v3.46l-2.95,1.76v12.36l-2.62,1.56v-12.36L68.41,133.76z"/>
	<path class="st0" d="M86.97,127.16c0,1.76-0.21,3.37-0.64,4.83c-0.42,1.46-1,2.72-1.72,3.77c-0.72,1.05-1.53,1.84-2.41,2.37
		c-0.89,0.53-1.7,0.7-2.42,0.5c-0.72-0.2-1.29-0.77-1.71-1.73c-0.42-0.96-0.63-2.31-0.63-4.06c0-1.76,0.21-3.37,0.63-4.83
		c0.42-1.46,0.99-2.71,1.71-3.76c0.72-1.05,1.53-1.84,2.42-2.37c0.89-0.53,1.69-0.7,2.41-0.51c0.72,0.19,1.29,0.76,1.72,1.72
		C86.76,124.04,86.97,125.4,86.97,127.16z M84.23,128.79c0-0.95-0.08-1.7-0.23-2.26c-0.16-0.56-0.38-0.92-0.68-1.07
		c-0.3-0.16-0.67-0.11-1.11,0.16c-0.44,0.26-0.81,0.65-1.11,1.17c-0.3,0.52-0.53,1.15-0.69,1.89c-0.15,0.74-0.23,1.59-0.23,2.54
		s0.08,1.7,0.23,2.26c0.16,0.56,0.38,0.92,0.69,1.08c0.3,0.16,0.67,0.11,1.11-0.16c0.44-0.26,0.81-0.65,1.11-1.17
		c0.3-0.52,0.53-1.15,0.68-1.89C84.15,130.59,84.23,129.74,84.23,128.79z"/>
	<path class="st0" d="M93.56,115.33l2.01,9.96l0.08-0.05l2.01-12.35l3.01-1.79l-3.24,17.75l-3.64,2.17l-3.24-13.89L93.56,115.33z"/>
	<path class="st0" d="M110.49,113.15c0,1.76-0.21,3.37-0.64,4.83c-0.42,1.46-1,2.72-1.72,3.76c-0.72,1.05-1.53,1.84-2.41,2.37
		c-0.89,0.53-1.7,0.7-2.42,0.5c-0.72-0.2-1.29-0.77-1.71-1.73c-0.42-0.96-0.63-2.31-0.63-4.06c0-1.76,0.21-3.37,0.63-4.83
		c0.42-1.46,0.99-2.71,1.71-3.76c0.72-1.05,1.53-1.84,2.42-2.37c0.89-0.53,1.69-0.7,2.41-0.51c0.72,0.19,1.29,0.76,1.72,1.72
		C110.28,110.04,110.49,111.4,110.49,113.15z M107.75,114.79c0-0.95-0.08-1.7-0.23-2.26c-0.16-0.56-0.38-0.92-0.68-1.07
		c-0.3-0.16-0.67-0.11-1.11,0.16c-0.44,0.26-0.81,0.65-1.11,1.17c-0.3,0.52-0.53,1.15-0.68,1.89c-0.15,0.74-0.23,1.59-0.23,2.54
		s0.08,1.7,0.23,2.26c0.16,0.56,0.38,0.92,0.68,1.07c0.3,0.16,0.67,0.11,1.11-0.16c0.44-0.26,0.81-0.65,1.11-1.17
		c0.3-0.52,0.53-1.15,0.68-1.89C107.67,116.58,107.75,115.73,107.75,114.79z"/>
	<path class="st0" d="M110.99,108.41v-3.46l8.52-5.08v3.46l-2.95,1.76v12.36l-2.62,1.56v-12.36L110.99,108.41z"/>
	<path class="st0" d="M120.5,115.1V99.28l7.07-4.21v3.46l-4.4,2.62v2.72l4.04-2.41v3.46l-4.04,2.41v2.72l4.39-2.61v3.46L120.5,115.1
		z"/>
</g>
<g>
	<g>
		<polygon class="st2" points="259.56,170 215.5,195.67 215.5,192.22 259.56,166.54 		"/>
		<polygon class="st3" points="259.18,169.7 215.77,195.05 215.77,192.2 259.18,166.84 		"/>
		<polygon class="st18" points="246.98,176.53 215.6,194.91 215.6,192.56 246.98,174.25 		"/>
	</g>
	<g>
		<polygon class="st2" points="259.56,177.02 215.5,202.69 215.5,199.24 259.56,173.57 		"/>
		<polygon class="st3" points="259.19,176.77 215.5,202.24 215.49,199.38 259.18,173.91 		"/>
		<polygon class="st19" points="233.43,191.48 215.6,201.91 215.59,199.6 233.42,189.16 		"/>
	</g>
</g>
<g>
	<g>
		
			<linearGradient id="SVGID_1_" gradientUnits="userSpaceOnUse" x1="890.9293" y1="1551.9294" x2="928.5181" y2="1551.9294" gradientTransform="matrix(0.7491 -0.4602 0 1 -594.4943 -1090.4218)">
			<stop  offset="0" style="stop-color:#B4509C"/>
			<stop  offset="1" style="stop-color:#54B8C5"/>
		</linearGradient>
		
			<polygon style="fill:none;stroke:url(#SVGID_1_);stroke-width:5;stroke-linecap:round;stroke-linejoin:round;stroke-miterlimit:10;" points="
			99.18,59.02 74.77,74.02 74.77,26.65 99.18,11.65 		"/>
	</g>
	<g>
		<polygon class="st1" points="99.18,58.75 74.77,73.75 74.77,26.38 99.18,11.39 		"/>
	</g>
	<g>
		<g>
			<path class="st0" d="M80.6,33.21l-1.17,0.72l-1.13-3.39l1.05-0.65l0.66,2.34l0.66-3.16l1.05-0.65L80.6,33.21z"/>
			<path class="st0" d="M84.6,30.24c-0.32,0.59-0.72,1.03-1.2,1.33s-0.88,0.34-1.2,0.14c-0.32-0.2-0.48-0.61-0.48-1.23
				c0-0.62,0.16-1.23,0.48-1.82c0.32-0.59,0.72-1.03,1.2-1.33c0.48-0.29,0.88-0.34,1.2-0.14c0.32,0.2,0.48,0.61,0.48,1.23
				C85.08,29.04,84.92,29.65,84.6,30.24z M82.87,30.51c0.14,0.11,0.31,0.1,0.53-0.03c0.22-0.13,0.39-0.34,0.53-0.62
				c0.14-0.28,0.2-0.56,0.2-0.85c0-0.29-0.07-0.49-0.2-0.6c-0.14-0.11-0.31-0.1-0.53,0.03c-0.22,0.13-0.39,0.34-0.53,0.62
				c-0.14,0.28-0.2,0.56-0.2,0.85C82.67,30.19,82.74,30.39,82.87,30.51z"/>
			<path class="st0" d="M86.99,29.29l-0.93,0.57v-3.01l-0.82,0.5v-1.08l2.56-1.58v1.08l-0.82,0.5V29.29z"/>
			<path class="st0" d="M89.06,28.01l-0.93,0.57V24.5l0.93-0.57V28.01z"/>
			<path class="st0" d="M92.51,25.9l-0.89,0.55l-1.13-1.38v2.07l-0.93,0.57v-4.09l0.95-0.59l1.06,1.28v-1.94l0.93-0.57V25.9z"/>
			<path class="st0" d="M94.52,24.74c-0.48,0.29-0.88,0.35-1.2,0.16c-0.32-0.19-0.48-0.6-0.48-1.24c0-0.64,0.16-1.25,0.48-1.83
				c0.32-0.58,0.72-1.02,1.2-1.32c0.34-0.21,0.62-0.28,0.84-0.21c0.22,0.07,0.39,0.22,0.5,0.45l-0.78,1.01
				c-0.05-0.11-0.12-0.18-0.22-0.22c-0.1-0.04-0.21-0.02-0.34,0.06c-0.22,0.14-0.4,0.34-0.54,0.62c-0.14,0.28-0.21,0.57-0.21,0.86
				c0,0.29,0.07,0.49,0.21,0.6c0.14,0.11,0.32,0.1,0.54-0.04c0.09-0.05,0.17-0.13,0.27-0.22c0.09-0.09,0.16-0.18,0.21-0.26v-0.15
				l-0.57,0.35v-1.08l1.49-0.92v1.67C95.55,23.83,95.08,24.39,94.52,24.74z"/>
			<path class="st0" d="M79.65,39.64l-0.97,0.6v-4.29l1.72-1.05c0.36-0.22,0.65-0.26,0.85-0.1c0.2,0.16,0.31,0.44,0.31,0.86
				c0,0.42-0.1,0.83-0.31,1.23c-0.2,0.41-0.49,0.72-0.85,0.94l-0.74,0.46V39.64z M80.27,36.77c0.09-0.05,0.16-0.13,0.21-0.22
				c0.05-0.09,0.08-0.19,0.08-0.3c0-0.11-0.03-0.18-0.08-0.2c-0.05-0.02-0.13-0.01-0.21,0.04l-0.62,0.38v0.68L80.27,36.77z"/>
			<path class="st0" d="M84.71,35.98c-0.34,0.62-0.75,1.08-1.26,1.39s-0.92,0.36-1.26,0.15c-0.34-0.21-0.5-0.64-0.5-1.29
				c0-0.65,0.17-1.29,0.5-1.91c0.34-0.62,0.75-1.08,1.26-1.39c0.5-0.31,0.92-0.36,1.26-0.15c0.34,0.21,0.5,0.64,0.5,1.29
				C85.22,34.72,85.05,35.36,84.71,35.98z M82.9,36.26c0.14,0.12,0.33,0.11,0.56-0.03c0.23-0.14,0.41-0.36,0.56-0.65
				c0.14-0.29,0.21-0.59,0.21-0.9c0-0.3-0.07-0.52-0.21-0.63c-0.14-0.12-0.33-0.11-0.56,0.03c-0.23,0.14-0.41,0.36-0.56,0.65
				c-0.14,0.29-0.21,0.59-0.21,0.9C82.69,35.93,82.76,36.14,82.9,36.26z"/>
			<path class="st0" d="M89.04,33.87l-1.02,0.63l-0.41-2.18L87.19,35l-1.02,0.63l-0.92-3.73l1.09-0.67l0.41,2.37l0.49-2.93
				l0.73-0.45l0.49,2.33l0.41-2.88l1.09-0.67L89.04,33.87z"/>
			<path class="st0" d="M92.61,31.68l-2.44,1.5v-4.29l2.44-1.5v1.13l-1.47,0.9v0.42l1.43-0.88v1.13l-1.43,0.88v0.47l1.47-0.9V31.68z
				"/>
			<path class="st0" d="M95.92,29.64l-1.11,0.68l-0.44-1.08l-0.35,0.22v1.35l-0.97,0.6v-4.29l1.72-1.05
				c0.36-0.22,0.65-0.26,0.85-0.1c0.2,0.16,0.31,0.44,0.31,0.86c0,0.33-0.06,0.64-0.17,0.93c-0.11,0.28-0.25,0.53-0.41,0.73
				L95.92,29.64z M94.61,27.96c0.09-0.06,0.17-0.13,0.23-0.23c0.06-0.1,0.09-0.2,0.09-0.31c0-0.11-0.03-0.17-0.09-0.19
				c-0.06-0.02-0.14,0-0.23,0.05l-0.59,0.36v0.68L94.61,27.96z"/>
		</g>
	</g>
	
		<linearGradient id="SVGID_00000140707942446550672140000008066660669345195658_" gradientUnits="userSpaceOnUse" x1="917.0962" y1="1565.6849" x2="902.3823" y2="1553.3047" gradientTransform="matrix(0.7491 -0.4602 0 1 -594.4943 -1090.4218)">
		<stop  offset="0" style="stop-color:#C1489F"/>
		<stop  offset="1" style="stop-color:#55BAC7"/>
	</linearGradient>
	<path style="fill:url(#SVGID_00000140707942446550672140000008066660669345195658_);" d="M86.97,40.5
		c-4.09,2.51-7.41,8.98-7.41,14.44s3.32,7.85,7.41,5.34c4.09-2.51,7.41-8.98,7.41-14.44S91.06,37.99,86.97,40.5z M90.12,53.07
		c-0.08,0.16-0.19,0.29-0.33,0.38c-0.09,0.06-0.18,0.07-0.26,0.04c-0.08-0.02-0.13-0.1-0.18-0.19l-2.38-6.45l-0.87,3.44l0.43-0.26
		c0.25-0.15,0.45-0.01,0.45,0.32v0.02c0,0.33-0.2,0.72-0.45,0.87l-0.79,0.49l-1.14,4.49c-0.04,0.15-0.1,0.29-0.18,0.41
		c-0.07,0.12-0.17,0.21-0.26,0.27c-0.14,0.09-0.25,0.1-0.33,0.03c-0.08-0.07-0.12-0.19-0.12-0.37c0-0.08,0.01-0.16,0.03-0.25l1.04-4
		l-0.44,0.27c-0.25,0.15-0.45,0.01-0.45-0.32v-0.01c0-0.33,0.2-0.72,0.45-0.87l0.83-0.51l1.09-4.19c0.14-0.51,0.35-0.84,0.63-1.01
		l0.22-0.14c0.28-0.17,0.49-0.09,0.63,0.24l2.5,6.55c0.02,0.06,0.03,0.13,0.03,0.21C90.24,52.74,90.2,52.91,90.12,53.07z"/>
</g>
<g>
	<g>
		
			<linearGradient id="SVGID_00000136376886302260208420000004406281422906418613_" gradientUnits="userSpaceOnUse" x1="846.7343" y1="1689.6556" x2="896.709" y2="1689.6556" gradientTransform="matrix(0.7491 -0.4602 0 1 -594.4943 -1090.4218)">
			<stop  offset="0" style="stop-color:#B4509C"/>
			<stop  offset="1" style="stop-color:#54B8C5"/>
		</linearGradient>
		
			<polygon style="fill:none;stroke:url(#SVGID_00000136376886302260208420000004406281422906418613_);stroke-width:5;stroke-linecap:round;stroke-linejoin:round;stroke-miterlimit:10;" points="
			75.35,220.39 41.66,241.09 41.66,175.72 75.35,155.02 		"/>
	</g>
	<g>
		<polygon class="st1" points="75.35,220.02 41.66,240.72 41.66,175.34 75.35,154.65 		"/>
	</g>
	<g>
		<g>
			<path class="st0" d="M49.71,184.77l-1.61,0.99l-1.56-4.68l1.45-0.89l0.91,3.23l0.91-4.36l1.45-0.89L49.71,184.77z"/>
			<path class="st0" d="M55.23,180.67c-0.44,0.81-0.99,1.42-1.65,1.83c-0.66,0.4-1.21,0.47-1.65,0.2c-0.44-0.27-0.66-0.84-0.66-1.69
				c0-0.86,0.22-1.69,0.66-2.51c0.44-0.81,0.99-1.42,1.65-1.83c0.66-0.4,1.21-0.47,1.65-0.2c0.44,0.27,0.66,0.84,0.66,1.69
				C55.89,179.02,55.67,179.85,55.23,180.67z M52.85,181.04c0.19,0.16,0.43,0.14,0.73-0.04c0.3-0.18,0.54-0.47,0.73-0.85
				c0.19-0.39,0.28-0.78,0.28-1.18c0-0.4-0.09-0.68-0.28-0.83c-0.19-0.15-0.43-0.14-0.73,0.04c-0.3,0.18-0.54,0.47-0.73,0.85
				c-0.19,0.39-0.28,0.78-0.28,1.18C52.57,180.6,52.66,180.88,52.85,181.04z"/>
			<path class="st0" d="M58.53,179.35l-1.28,0.79v-4.15l-1.13,0.7v-1.49l3.54-2.17v1.49l-1.13,0.69V179.35z"/>
			<path class="st0" d="M61.39,177.6l-1.28,0.79v-5.64l1.28-0.79V177.6z"/>
			<path class="st0" d="M66.14,174.68l-1.23,0.75l-1.56-1.9v2.86l-1.28,0.79v-5.64l1.32-0.81l1.47,1.77v-2.67l1.28-0.79V174.68z"/>
			<path class="st0" d="M68.92,173.07c-0.66,0.4-1.21,0.48-1.66,0.22c-0.45-0.26-0.67-0.83-0.67-1.71c0-0.88,0.22-1.72,0.67-2.53
				c0.45-0.81,1-1.41,1.66-1.82c0.46-0.29,0.85-0.38,1.16-0.29c0.31,0.09,0.54,0.3,0.69,0.62l-1.08,1.4
				c-0.07-0.15-0.17-0.25-0.31-0.31c-0.14-0.05-0.29-0.03-0.47,0.08c-0.3,0.19-0.55,0.47-0.74,0.86c-0.19,0.39-0.28,0.78-0.28,1.18
				c0,0.4,0.1,0.68,0.28,0.83c0.19,0.15,0.44,0.14,0.74-0.05c0.12-0.07,0.24-0.17,0.37-0.3c0.13-0.13,0.22-0.25,0.29-0.36v-0.2
				l-0.79,0.48v-1.49l2.06-1.26v2.31C70.34,171.82,69.69,172.6,68.92,173.07z"/>
			<path class="st0" d="M48.4,193.63l-1.34,0.83v-5.93l2.37-1.46c0.5-0.31,0.89-0.35,1.17-0.14c0.28,0.21,0.42,0.61,0.42,1.19
				c0,0.57-0.14,1.14-0.42,1.7c-0.28,0.56-0.67,1-1.17,1.3l-1.02,0.63V193.63z M49.26,189.68c0.12-0.07,0.22-0.17,0.29-0.3
				c0.08-0.13,0.11-0.26,0.11-0.41c0-0.15-0.04-0.25-0.11-0.28c-0.08-0.03-0.17-0.01-0.29,0.06l-0.85,0.52v0.93L49.26,189.68z"/>
			<path class="st0" d="M55.39,188.59c-0.46,0.86-1.04,1.5-1.73,1.92s-1.27,0.49-1.73,0.21c-0.46-0.29-0.7-0.88-0.7-1.78
				c0-0.9,0.23-1.78,0.7-2.64c0.46-0.86,1.04-1.5,1.73-1.92s1.27-0.49,1.73-0.21c0.46,0.29,0.7,0.88,0.7,1.78
				C56.08,186.86,55.85,187.74,55.39,188.59z M52.89,188.98c0.2,0.16,0.45,0.15,0.77-0.05c0.31-0.19,0.57-0.49,0.77-0.9
				c0.2-0.41,0.3-0.82,0.3-1.24c0-0.42-0.1-0.71-0.3-0.88c-0.2-0.16-0.45-0.15-0.77,0.05c-0.32,0.19-0.57,0.49-0.77,0.9
				c-0.2,0.41-0.3,0.82-0.3,1.24C52.59,188.52,52.69,188.82,52.89,188.98z"/>
			<path class="st0" d="M61.36,185.67l-1.41,0.87l-0.57-3.01l-0.57,3.71l-1.41,0.87l-1.27-5.15l1.5-0.92l0.57,3.27l0.67-4.04
				l1.01-0.62l0.67,3.21l0.57-3.97l1.51-0.93L61.36,185.67z"/>
			<path class="st0" d="M66.28,182.65l-3.37,2.07v-5.93l3.37-2.07v1.56l-2.02,1.24v0.59l1.98-1.21v1.56l-1.98,1.21v0.65l2.02-1.24
				V182.65z"/>
			<path class="st0" d="M70.85,179.84l-1.53,0.94l-0.61-1.49l-0.49,0.3v1.87l-1.34,0.83v-5.93l2.37-1.46
				c0.5-0.31,0.89-0.35,1.17-0.14c0.28,0.21,0.42,0.61,0.42,1.19c0,0.46-0.08,0.89-0.24,1.28c-0.16,0.39-0.35,0.73-0.56,1
				L70.85,179.84z M69.04,177.52c0.12-0.08,0.23-0.18,0.31-0.31c0.08-0.13,0.13-0.27,0.13-0.43c0-0.15-0.04-0.24-0.13-0.26
				c-0.08-0.03-0.19,0-0.31,0.07l-0.82,0.5v0.93L69.04,177.52z"/>
		</g>
	</g>
	
		<linearGradient id="SVGID_00000095316798128477951730000003479874412592131770_" gradientUnits="userSpaceOnUse" x1="881.8962" y1="1708.6392" x2="861.59" y2="1691.5535" gradientTransform="matrix(0.7491 -0.4602 0 1 -594.4943 -1090.4218)">
		<stop  offset="0" style="stop-color:#C1489F"/>
		<stop  offset="1" style="stop-color:#55BAC7"/>
	</linearGradient>
	<path style="fill:url(#SVGID_00000095316798128477951730000003479874412592131770_);" d="M58.5,194.83
		c-5.64,3.47-10.22,12.39-10.22,19.93s4.58,10.83,10.22,7.37s10.22-12.39,10.22-19.93C68.73,194.65,64.15,191.36,58.5,194.83z
		 M62.85,212.18c-0.11,0.23-0.27,0.4-0.46,0.52c-0.13,0.08-0.25,0.1-0.36,0.06c-0.11-0.03-0.19-0.13-0.25-0.27l-3.29-8.9l-1.21,4.75
		l0.59-0.36c0.34-0.21,0.62-0.01,0.62,0.45v0.02c0,0.46-0.28,1-0.62,1.21l-1.1,0.67l-1.58,6.2c-0.06,0.21-0.14,0.4-0.25,0.57
		c-0.1,0.16-0.23,0.29-0.36,0.38c-0.19,0.12-0.35,0.14-0.46,0.05c-0.11-0.09-0.17-0.26-0.17-0.52c0-0.11,0.01-0.22,0.04-0.35
		l1.44-5.51l-0.61,0.37c-0.34,0.21-0.62,0.01-0.62-0.45v-0.01c0-0.46,0.28-1,0.62-1.21l1.14-0.7l1.5-5.79
		c0.19-0.7,0.49-1.16,0.87-1.39l0.3-0.19c0.38-0.23,0.67-0.13,0.87,0.33l3.46,9.03c0.03,0.08,0.04,0.18,0.04,0.29
		C63.02,211.71,62.96,211.96,62.85,212.18z"/>
</g>
<g>
	
		<linearGradient id="SVGID_00000124140288996257693130000013798735692660261310_" gradientUnits="userSpaceOnUse" x1="203.5193" y1="21.7325" x2="223.3187" y2="21.7325">
		<stop  offset="0" style="stop-color:#B4509C"/>
		<stop  offset="1" style="stop-color:#54B8C5"/>
	</linearGradient>
	<path style="fill:url(#SVGID_00000124140288996257693130000013798735692660261310_);" d="M223.32,26.98V6.79
		c0-1.45-1.59-2.34-2.83-1.58l-16.08,9.88c-0.55,0.34-0.89,0.94-0.89,1.58v21.88L223.32,26.98z M208.25,18.27l10.33-6.35v16.66
		c-0.71,0.48-1.42,0.96-2.13,1.44c-2.68,1.81-5.42,3.66-8.2,5.41V18.27z"/>
	<polygon class="st27" points="220.95,28.36 220.95,7.53 205.89,16.78 205.89,37.16 	"/>
	<g>
		<g>
			<path class="st0" d="M209.49,21l-0.72,0.44l-0.7-2.09l0.65-0.4l0.41,1.45l0.41-1.95l0.65-0.4L209.49,21z"/>
			<path class="st0" d="M211.95,19.16c-0.2,0.36-0.44,0.64-0.74,0.82c-0.29,0.18-0.54,0.21-0.74,0.09c-0.2-0.12-0.3-0.37-0.3-0.76
				c0-0.38,0.1-0.76,0.3-1.12c0.2-0.36,0.44-0.64,0.74-0.82s0.54-0.21,0.74-0.09c0.2,0.12,0.3,0.37,0.3,0.76
				C212.25,18.43,212.15,18.8,211.95,19.16z M210.89,19.33c0.08,0.07,0.19,0.06,0.33-0.02c0.13-0.08,0.24-0.21,0.33-0.38
				c0.08-0.17,0.13-0.35,0.13-0.53c0-0.18-0.04-0.3-0.13-0.37c-0.08-0.07-0.19-0.06-0.33,0.02c-0.13,0.08-0.24,0.21-0.33,0.38
				c-0.08,0.17-0.13,0.35-0.13,0.53C210.76,19.14,210.81,19.26,210.89,19.33z"/>
			<path class="st0" d="M213.43,18.58l-0.57,0.35v-1.86l-0.51,0.31v-0.67l1.58-0.97v0.67l-0.5,0.31V18.58z"/>
			<path class="st0" d="M214.71,17.79l-0.57,0.35v-2.52l0.57-0.35V17.79z"/>
			<path class="st0" d="M216.83,16.49l-0.55,0.34l-0.7-0.85v1.28l-0.57,0.35v-2.52l0.59-0.36l0.66,0.79v-1.19l0.57-0.35V16.49z"/>
			<path class="st0" d="M218.08,15.77c-0.29,0.18-0.54,0.21-0.74,0.1c-0.2-0.12-0.3-0.37-0.3-0.76c0-0.39,0.1-0.77,0.3-1.13
				c0.2-0.36,0.45-0.63,0.74-0.81c0.21-0.13,0.38-0.17,0.52-0.13c0.14,0.04,0.24,0.13,0.31,0.28l-0.48,0.62
				c-0.03-0.07-0.08-0.11-0.14-0.14c-0.06-0.02-0.13-0.01-0.21,0.04c-0.14,0.08-0.25,0.21-0.33,0.38c-0.08,0.17-0.13,0.35-0.13,0.53
				c0,0.18,0.04,0.3,0.13,0.37c0.08,0.07,0.2,0.06,0.33-0.02c0.05-0.03,0.11-0.08,0.16-0.13c0.06-0.06,0.1-0.11,0.13-0.16v-0.09
				l-0.35,0.22v-0.67l0.92-0.57v1.03C218.71,15.21,218.42,15.56,218.08,15.77z"/>
			<path class="st0" d="M208.9,24.96l-0.6,0.37v-2.65l1.06-0.65c0.22-0.14,0.4-0.16,0.53-0.06c0.13,0.1,0.19,0.27,0.19,0.53
				c0,0.26-0.06,0.51-0.19,0.76c-0.13,0.25-0.3,0.45-0.53,0.58l-0.46,0.28V24.96z M209.28,23.19c0.05-0.03,0.1-0.08,0.13-0.13
				c0.03-0.06,0.05-0.12,0.05-0.18c0-0.07-0.02-0.11-0.05-0.13c-0.03-0.02-0.08-0.01-0.13,0.03l-0.38,0.23v0.42L209.28,23.19z"/>
			<path class="st0" d="M212.03,22.71c-0.21,0.38-0.47,0.67-0.78,0.86c-0.31,0.19-0.57,0.22-0.78,0.09
				c-0.21-0.13-0.31-0.39-0.31-0.8c0-0.4,0.1-0.8,0.31-1.18c0.21-0.38,0.47-0.67,0.78-0.86c0.31-0.19,0.57-0.22,0.78-0.09
				c0.21,0.13,0.31,0.39,0.31,0.8C212.34,21.93,212.23,22.32,212.03,22.71z M210.91,22.88c0.09,0.07,0.2,0.07,0.34-0.02
				c0.14-0.09,0.26-0.22,0.34-0.4c0.09-0.18,0.13-0.37,0.13-0.55c0-0.19-0.04-0.32-0.13-0.39c-0.09-0.07-0.2-0.07-0.34,0.02
				c-0.14,0.09-0.26,0.22-0.34,0.4c-0.09,0.18-0.13,0.37-0.13,0.55C210.77,22.68,210.82,22.81,210.91,22.88z"/>
			<path class="st0" d="M214.7,21.4l-0.63,0.39l-0.26-1.34l-0.26,1.66l-0.63,0.39l-0.57-2.3l0.67-0.41l0.26,1.46l0.3-1.81l0.45-0.28
				l0.3,1.44l0.25-1.78l0.68-0.42L214.7,21.4z"/>
			<path class="st0" d="M216.9,20.05l-1.51,0.93v-2.65l1.51-0.93v0.7l-0.9,0.56v0.26l0.88-0.54v0.7l-0.88,0.54v0.29l0.9-0.56V20.05z
				"/>
			<path class="st0" d="M218.94,18.8l-0.68,0.42l-0.27-0.67l-0.22,0.13v0.83l-0.6,0.37v-2.65l1.06-0.65
				c0.22-0.14,0.4-0.16,0.53-0.06c0.13,0.1,0.19,0.27,0.19,0.53c0,0.21-0.04,0.4-0.11,0.57c-0.07,0.18-0.15,0.33-0.25,0.45
				L218.94,18.8z M218.13,17.76c0.06-0.03,0.1-0.08,0.14-0.14c0.04-0.06,0.06-0.12,0.06-0.19c0-0.07-0.02-0.11-0.06-0.12
				c-0.04-0.01-0.08,0-0.14,0.03l-0.37,0.22v0.42L218.13,17.76z"/>
		</g>
	</g>
	<path class="st51" d="M206.36,36.88V17.05l14.12-8.67v20.27l0.95-0.55V7.53c0-0.17-0.09-0.33-0.24-0.41
		c-0.15-0.08-0.33-0.08-0.48,0.01l-15.06,9.26c-0.14,0.09-0.23,0.24-0.23,0.4v20.65L206.36,36.88z"/>
	<g>
		
			<linearGradient id="SVGID_00000166660595772042590870000007645652139211011491_" gradientUnits="userSpaceOnUse" x1="215.6483" y1="32.7499" x2="210.5804" y2="28.4859">
			<stop  offset="0" style="stop-color:#C1489F"/>
			<stop  offset="1" style="stop-color:#55BAC7"/>
		</linearGradient>
		<path style="fill:url(#SVGID_00000166660595772042590870000007645652139211011491_);" d="M211.82,33.7l0.23-0.9l-0.27,0.17
			c-0.15,0.09-0.28,0-0.28-0.2v-0.01c0-0.2,0.12-0.45,0.28-0.54l0.51-0.31l0.67-2.59c0.09-0.31,0.22-0.52,0.39-0.62l0.14-0.08
			c0.17-0.1,0.3-0.06,0.39,0.15l1.17,3.05l2.83-1.65c0.07-0.46,0.12-0.92,0.12-1.37c0-3.37-2.05-4.84-4.57-3.29
			c-2.52,1.55-4.57,5.54-4.57,8.91c0,0.35,0.03,0.67,0.07,0.98L211.82,33.7z"/>
		
			<linearGradient id="SVGID_00000036961680726795211730000015439346424531091897_" gradientUnits="userSpaceOnUse" x1="214.181" y1="32.4478" x2="212.2689" y2="30.8389">
			<stop  offset="0" style="stop-color:#C1489F"/>
			<stop  offset="1" style="stop-color:#55BAC7"/>
		</linearGradient>
		<path style="fill:url(#SVGID_00000036961680726795211730000015439346424531091897_);" d="M213.14,32.13l-0.49,0.3l-0.23,0.92
			l2.02-1.18l-1.02-2.75l-0.54,2.13l0.26-0.16c0.15-0.09,0.28,0,0.28,0.2v0.01C213.41,31.8,213.29,32.04,213.14,32.13z"/>
	</g>
</g>
<polygon class="st7" points="259.82,27.52 258.47,26.76 266.31,22.14 267.66,22.9 "/>
<polygon class="st7" points="139.38,24.63 137.2,23.4 149.87,15.92 152.05,17.15 "/>
<g>
	<path id="矩形_00000023265548685974492650000012939252271848885664_" class="st14" d="M172.16,217.11L172.16,217.11
		c0.62,0,1.15,0.76,1.15,1.64v1.52c0,0.88-0.53,1.64-1.15,1.64l0,0c-0.62,0-1.15-0.76-1.15-1.64v-1.52
		C171.02,217.8,171.55,217.11,172.16,217.11z"/>
	
		<radialGradient id="SVGID_00000127751223011549271340000001003878877432864949_" cx="140.6214" cy="251.2355" r="29.1582" gradientTransform="matrix(1 0 0 0.5898 0 103.0585)" gradientUnits="userSpaceOnUse">
		<stop  offset="0" style="stop-color:#B8B3D4"/>
		<stop  offset="0.3457" style="stop-color:#BAB6D6;stop-opacity:0.6543"/>
		<stop  offset="0.6064" style="stop-color:#C2C0DA;stop-opacity:0.3936"/>
		<stop  offset="0.8384" style="stop-color:#D0D0E3;stop-opacity:0.1616"/>
		<stop  offset="1" style="stop-color:#DDE0EB;stop-opacity:0"/>
	</radialGradient>
	<path style="opacity:0.67;fill:url(#SVGID_00000127751223011549271340000001003878877432864949_);" d="M165.62,237.16
		c-13.68-7.9-35.96-8-49.77-0.23s-13.91,20.48-0.23,28.37s35.96,8,49.77,0.23C179.19,257.76,179.3,245.06,165.62,237.16z"/>
	<g>
		<path class="st81" d="M179.12,201.13v-49.28c0-0.23,0.02-0.45,0.02-0.68c0-22.91-18.57-41.48-41.48-41.48
			c-22.91,0-41.48,18.57-41.48,41.48c0,0.36,0.02,0.72,0.03,1.07v44.66h-0.03v22.67c0,2.84,2.3,5.15,5.15,5.15
			c2.84,0,5.15-2.31,5.15-5.15v-0.83c0.56,0.36,1.13,0.72,1.74,1.07c1.83,1.06,3.79,1.99,5.85,2.81v8.2c0,2.84,2.3,5.15,5.15,5.15
			c2.84,0,5.15-2.31,5.15-5.15v-5.23c2.95,0.57,5.99,0.96,9.06,1.14v12.59c0,2.84,2.3,5.15,5.15,5.15s5.15-2.31,5.15-5.15v-12.7
			c3.39-0.28,6.73-0.8,9.93-1.55v6.36c0,2.84,2.3,5.15,5.15,5.15s5.15-2.31,5.15-5.15v-9.87c1-0.47,1.97-0.96,2.91-1.49
			c0.7-0.39,1.35-0.8,1.99-1.21v0.71c0,2.84,2.3,5.15,5.15,5.15c2.84,0,5.15-2.31,5.15-5.15v-18.45H179.12z"/>
		
			<radialGradient id="SVGID_00000096744707471695068800000004757201917410375063_" cx="162.3441" cy="127.1149" r="106.6854" gradientUnits="userSpaceOnUse">
			<stop  offset="0.0124" style="stop-color:#DD78CE"/>
			<stop  offset="0.4936" style="stop-color:#A7589A"/>
			<stop  offset="0.5829" style="stop-color:#A0619E"/>
			<stop  offset="0.7273" style="stop-color:#8E79A8"/>
			<stop  offset="0.9078" style="stop-color:#709FB9"/>
			<stop  offset="1" style="stop-color:#5EB6C3"/>
		</radialGradient>
		<path style="fill:url(#SVGID_00000096744707471695068800000004757201917410375063_);" d="M179.12,201.13v-49.28
			c0-0.23,0.02-0.45,0.02-0.68c0-22.91-18.57-41.48-41.48-41.48c-22.91,0-41.48,18.57-41.48,41.48c0,0.36,0.02,0.72,0.03,1.07v44.66
			h-0.03v22.67c0,2.84,2.3,5.15,5.15,5.15c2.84,0,5.15-2.31,5.15-5.15v-0.83c0.56,0.36,1.13,0.72,1.74,1.07
			c1.83,1.06,3.79,1.99,5.85,2.81v8.2c0,2.84,2.3,5.15,5.15,5.15c2.84,0,5.15-2.31,5.15-5.15v-5.23c2.95,0.57,5.99,0.96,9.06,1.14
			v12.59c0,2.84,2.3,5.15,5.15,5.15s5.15-2.31,5.15-5.15v-12.7c3.39-0.28,6.73-0.8,9.93-1.55v6.36c0,2.84,2.3,5.15,5.15,5.15
			s5.15-2.31,5.15-5.15v-9.87c1-0.47,1.97-0.96,2.91-1.49c0.7-0.39,1.35-0.8,1.99-1.21v0.71c0,2.84,2.3,5.15,5.15,5.15
			c2.84,0,5.15-2.31,5.15-5.15v-18.45H179.12z"/>
	</g>
	<path id="矩形_00000157274327544546760850000005986341179244808861_" class="st14" d="M100.07,187.29L100.07,187.29
		c1.12,0,2.09,1.38,2.09,2.99v14.25c0,1.61-0.96,2.99-2.09,2.99l0,0c-1.12,0-2.09-1.38-2.09-2.99v-14.25
		C97.99,188.67,98.95,187.29,100.07,187.29z"/>
	<path id="矩形_00000023269522807934098110000015755908045546535095_" class="st14" d="M161.37,124.2L161.37,124.2
		c1.37-1.02,3.68-0.37,5.02,1.41l2.29,3.06c1.34,1.78,1.31,4.19-0.06,5.22l0,0c-1.37,1.02-3.68,0.37-5.02-1.41l-2.29-3.06
		C159.88,127.5,160.01,125.23,161.37,124.2z"/>
	<path id="矩形_00000121994917870820220140000009013383381852214175_" class="st14" d="M117.47,223.88L117.47,223.88
		c1.12,0,2.09,1.38,2.09,2.99v2.76c0,1.61-0.96,2.99-2.09,2.99l0,0c-1.12,0-2.09-1.38-2.09-2.99v-2.76
		C115.38,225.14,116.35,223.88,117.47,223.88z"/>
	<path id="矩形_00000142874391440305036330000006669835717772360067_" class="st14" d="M99.82,213.08L99.82,213.08
		c1.12,0,2.09,1.38,2.09,2.99v2.76c0,1.61-0.96,2.99-2.09,2.99l0,0c-1.12,0-2.09-1.38-2.09-2.99v-2.76
		C97.74,214.34,98.7,213.08,99.82,213.08z"/>
	<path id="矩形_00000034803884158828925040000006312913904657730977_" class="st14" d="M137.66,232.62L137.66,232.62
		c1.12,0,2.09,1.38,2.09,2.99v2.76c0,1.61-0.96,2.99-2.09,2.99l0,0c-1.12,0-2.09-1.38-2.09-2.99v-2.76
		C135.57,233.88,136.54,232.62,137.66,232.62z"/>
	<path id="矩形_00000183962904679116055400000014016392506755116982_" class="st14" d="M157.36,227.27L157.36,227.27
		c0.89,0,1.66,1.1,1.66,2.37v2.19c0,1.28-0.76,2.37-1.66,2.37l0,0c-0.89,0-1.66-1.1-1.66-2.37v-2.19
		C155.7,228.28,156.47,227.27,157.36,227.27z"/>
	<g>
		<path id="椭圆形_00000137837967559389343030000015358377626584497803_" class="st83" d="M147.67,182.16
			c4.06-0.17,7.1-3.66,7.09-6c0-0.94-0.55-1.75-1.38-1.81c-1.29-0.13-3.23,0.7-5.72,0.8c-2.31,0.1-3.78-0.5-5.53-0.42
			c-1.84,0.08-1.75,2.22-1.47,3.06C141.3,180.09,143.52,182.33,147.67,182.16z"/>
		<path id="椭圆形_00000095337929613898024040000008905464957124237232_" class="st84" d="M147.76,180.19
			c4.15-0.17,7.19-3.38,7.19-5.63c0-0.84-0.55-1.57-1.38-1.63c-1.29-0.13-3.32,0.7-5.81,0.8c-2.4,0.1-3.78-0.5-5.62-0.43
			s-1.75,2.13-1.48,2.87C141.3,178.3,143.61,180.36,147.76,180.19z"/>
	</g>
	<g>
		
			<ellipse transform="matrix(0.5671 -0.8237 0.8237 0.5671 -74.1156 176.3792)" class="st84" cx="130.72" cy="158.69" rx="9.5" ry="9.1"/>
		<path id="形状结合_00000153672998867488876740000017650498821324272023_" class="st85" d="M131.92,148.73
			c4.24-0.18,7.66,3.98,7.66,9.22c0,0.19,0,0.37,0,0.56l0,0.56c0-5.33-3.33-9.59-7.48-9.42c-4.15,0.17-7.46,4.61-7.46,10.04
			c0,1.03,0.09,2.05,0.37,2.98c-0.46-1.2-0.74-2.59-0.74-3.99C124.27,153.35,127.68,148.9,131.92,148.73z"/>
		<path id="形状结合_00000085955223974186114990000002304969850617821353_" class="st86" d="M131.92,147.6
			c4.7-0.2,8.58,4.41,8.58,10.31c0.01,5.89-3.86,10.83-8.57,11.02c-4.7,0.2-8.58-4.41-8.58-10.31
			C123.35,152.73,127.12,147.8,131.92,147.6z M131.92,148.73c-4.24,0.18-7.65,4.62-7.64,9.86c0,5.24,3.42,9.4,7.66,9.22
			c4.24-0.18,7.65-4.62,7.64-9.86C139.58,152.71,136.07,148.55,131.92,148.73z"/>
	</g>
	<g>
		
			<ellipse transform="matrix(0.5671 -0.8237 0.8237 0.5671 -59.6804 201.0825)" class="st84" cx="161.44" cy="157.31" rx="9.5" ry="9.1"/>
		<path id="形状结合_00000150817725586915542540000007765414565157247658_" class="st85" d="M162.43,147.35
			c4.24-0.18,7.66,3.98,7.66,9.22c0,0.19,0,0.37,0,0.56l0,0.56c0-5.33-3.33-9.59-7.48-9.42c-4.15,0.17-7.46,4.61-7.46,10.04
			c0,1.03,0.09,2.05,0.37,2.98c-0.46-1.2-0.74-2.59-0.74-3.99C154.78,151.98,158.19,147.53,162.43,147.35z"/>
		<path id="形状结合_00000126317089401196512530000008566344633865675666_" class="st86" d="M162.43,146.23
			c4.7-0.2,8.58,4.41,8.58,10.31s-3.86,10.83-8.57,11.02s-8.58-4.41-8.58-10.31C153.86,151.36,157.64,146.43,162.43,146.23z
			 M162.43,147.35c-4.24,0.18-7.65,4.62-7.64,9.86s3.42,9.4,7.66,9.22c4.24-0.18,7.65-4.62,7.64-9.86
			C170.09,151.34,166.58,147.18,162.43,147.35z"/>
	</g>
	<circle class="st83" cx="134.31" cy="153.78" r="3.77"/>
	<circle class="st83" cx="164.85" cy="152.66" r="3.77"/>
</g>
</svg>
