<?xml version="1.0" encoding="utf-8"?>
<!-- Generator: Adobe Illustrator 27.8.1, SVG Export Plug-In . SVG Version: 6.00 Build 0)  -->
<svg version="1.1" id="Слой_1" xmlns="http://www.w3.org/2000/svg" xmlns:xlink="http://www.w3.org/1999/xlink" x="0px" y="0px"
	 viewBox="0 0 290 269.62" style="enable-background:new 0 0 290 269.62;" xml:space="preserve">
<style type="text/css">
	.st0{fill:#101422;}
	.st1{fill:#FFFFFF;stroke:#111422;stroke-linecap:round;stroke-linejoin:round;stroke-miterlimit:10;}
	
		.st2{fill-rule:evenodd;clip-rule:evenodd;fill:#C6C3D1;stroke:#101320;stroke-linecap:round;stroke-linejoin:round;stroke-miterlimit:10;}
	
		.st3{fill-rule:evenodd;clip-rule:evenodd;fill:#FFFFFF;stroke:#111422;stroke-linecap:round;stroke-linejoin:round;stroke-miterlimit:10;}
	
		.st4{fill-rule:evenodd;clip-rule:evenodd;fill:#ECF0FC;stroke:#111422;stroke-linecap:round;stroke-linejoin:round;stroke-miterlimit:10;}
	.st5{opacity:0.92;fill-rule:evenodd;clip-rule:evenodd;fill:#FFFFFF;enable-background:new    ;}
	.st6{fill:none;stroke:#FFFFFF;stroke-linecap:round;stroke-linejoin:round;stroke-miterlimit:10;}
	.st7{fill-rule:evenodd;clip-rule:evenodd;fill:#101422;}
	.st8{fill:url(#SVGID_1_);}
	.st9{fill:url(#SVGID_00000121988619003700904710000007319955312716257923_);}
	.st10{fill:url(#SVGID_00000011001789515685555280000009513971873632156350_);}
	.st11{opacity:0.67;fill:url(#SVGID_00000076577735835928457410000005998691377315353220_);enable-background:new    ;}
	.st12{fill:#6FA3B6;}
	.st13{fill:url(#SVGID_00000058590266479302731700000013910496191605075329_);}
	.st14{opacity:0.2563;fill-rule:evenodd;clip-rule:evenodd;fill:#FFFFFF;enable-background:new    ;}
	.st15{fill:none;stroke:#FFFFFF;stroke-width:0.7384;stroke-linecap:round;stroke-linejoin:round;stroke-miterlimit:10;}
	
		.st16{fill:none;stroke:url(#SVGID_00000003799160602135142180000001181833270305681578_);stroke-width:5;stroke-linecap:round;stroke-linejoin:round;stroke-miterlimit:10;}
	.st17{fill:url(#SVGID_00000023273403406270566690000001496864306809384585_);}
	.st18{fill-rule:evenodd;clip-rule:evenodd;fill:#1AD4B3;}
	.st19{fill-rule:evenodd;clip-rule:evenodd;fill:#FC4F83;}
	.st20{fill:#C6C3D1;stroke:#101320;stroke-linecap:round;stroke-linejoin:round;stroke-miterlimit:10;}
	.st21{fill:#ECF0FC;stroke:#111422;stroke-linecap:round;stroke-linejoin:round;stroke-miterlimit:10;}
	
		.st22{fill:url(#SVGID_00000025441188063190618520000014195087781558413210_);stroke:#1D1D1B;stroke-width:0.2115;stroke-linecap:round;stroke-linejoin:round;stroke-miterlimit:10;}
	
		.st23{fill:url(#SVGID_00000036949939734298560320000000288524915420007850_);stroke:#1D1D1B;stroke-width:0.2115;stroke-linecap:round;stroke-linejoin:round;stroke-miterlimit:10;}
	
		.st24{fill:url(#SVGID_00000178911370432648381000000014373049264953439106_);stroke:#1D1D1B;stroke-width:0.2115;stroke-linecap:round;stroke-linejoin:round;stroke-miterlimit:10;}
	
		.st25{fill:url(#SVGID_00000002342798639886460930000004463087114829671561_);stroke:#1D1D1B;stroke-width:0.2115;stroke-linecap:round;stroke-linejoin:round;stroke-miterlimit:10;}
	
		.st26{fill-rule:evenodd;clip-rule:evenodd;fill:#101422;stroke:#101423;stroke-linecap:round;stroke-linejoin:round;stroke-miterlimit:10;}
	.st27{fill:#FFFFFF;}
	.st28{fill-rule:evenodd;clip-rule:evenodd;fill:url(#SVGID_00000173138230179969793360000009061989994879140743_);}
	.st29{fill-rule:evenodd;clip-rule:evenodd;fill:url(#SVGID_00000144312895827377610530000016686317399559562900_);}
	.st30{fill:url(#SVGID_00000047757625231597441620000002728450588098455216_);}
	.st31{fill:url(#SVGID_00000168105184472781883270000003982001416508043661_);}
	.st32{fill:url(#SVGID_00000074430594366229016960000006976829332594213550_);}
	
		.st33{fill-rule:evenodd;clip-rule:evenodd;fill:#C7FFF1;stroke:#101320;stroke-linecap:round;stroke-linejoin:round;stroke-miterlimit:10;}
	
		.st34{fill:none;stroke:url(#SVGID_00000114771659774065450740000013073165519965353872_);stroke-width:5;stroke-linecap:round;stroke-linejoin:round;stroke-miterlimit:10;}
	.st35{fill:url(#SVGID_00000132799166478000581920000007783493822483660674_);}
	
		.st36{fill:none;stroke:url(#SVGID_00000075847743570153970900000005055654242366027160_);stroke-width:5;stroke-linecap:round;stroke-linejoin:round;stroke-miterlimit:10;}
	.st37{fill:url(#SVGID_00000133518901667948628630000016240642767209487802_);}
	
		.st38{fill:none;stroke:url(#SVGID_00000129890436944055760430000017345834947454462634_);stroke-width:5;stroke-linecap:round;stroke-linejoin:round;stroke-miterlimit:10;}
	.st39{fill:url(#SVGID_00000127747342693391828730000000684601005757485967_);}
	
		.st40{fill-rule:evenodd;clip-rule:evenodd;fill:#1AD4B3;stroke:#111422;stroke-linecap:round;stroke-linejoin:round;stroke-miterlimit:10;}
	
		.st41{fill-rule:evenodd;clip-rule:evenodd;fill:#FC4F83;stroke:#111422;stroke-linecap:round;stroke-linejoin:round;stroke-miterlimit:10;}
	
		.st42{fill-rule:evenodd;clip-rule:evenodd;fill:#FFCAD7;stroke:#111422;stroke-linecap:round;stroke-linejoin:round;stroke-miterlimit:10;}
	.st43{fill:url(#SVGID_00000041293516806082119740000008968824106318699397_);}
	.st44{fill:url(#SVGID_00000014603766218664853380000018098533259426924989_);}
	.st45{fill:url(#SVGID_00000150811730100366063770000007607201579193006775_);}
	
		.st46{fill:none;stroke:url(#SVGID_00000103967941587536364670000013168161426945125789_);stroke-width:5;stroke-linecap:round;stroke-linejoin:round;stroke-miterlimit:10;}
	.st47{fill:url(#SVGID_00000156551907270877693330000011602658888398973059_);}
	
		.st48{fill:none;stroke:url(#SVGID_00000026868122080789382280000005169989984009071514_);stroke-width:5;stroke-linecap:round;stroke-linejoin:round;stroke-miterlimit:10;}
	.st49{fill:url(#SVGID_00000008145861142369709070000001889701787079938717_);}
	.st50{fill:url(#SVGID_00000003801199017101057260000006500798121130142899_);}
	.st51{fill:#101320;}
	.st52{fill:url(#SVGID_00000074443109606318226070000010425011462751699105_);}
	.st53{fill:url(#SVGID_00000110430314589516835680000011864716762320098950_);}
	.st54{fill:url(#SVGID_00000022534347320288436330000015335178715076109744_);}
	.st55{fill:url(#SVGID_00000075884633570434764580000010359695786096054176_);}
	.st56{fill:url(#SVGID_00000051370827402206231530000010520690398303923591_);}
	.st57{fill:url(#SVGID_00000058568255597716585470000003183762814082993295_);}
	.st58{opacity:0.29;fill:url(#SVGID_00000096032427668517788220000001096799180338388113_);enable-background:new    ;}
	.st59{fill:url(#SVGID_00000148652343636971227110000010736340843398550700_);}
	.st60{fill:url(#SVGID_00000179645539854089530850000012754426676101915836_);}
	.st61{fill:url(#SVGID_00000170279298979736250440000011086477594547144581_);}
	.st62{fill-rule:evenodd;clip-rule:evenodd;fill:url(#SVGID_00000029027104406725228770000015217480776929650849_);}
	.st63{fill:url(#SVGID_00000183939737035384528170000016058733554744595599_);}
	.st64{fill:url(#SVGID_00000098221161073830820800000004952045337970556057_);}
	.st65{fill:url(#SVGID_00000054953661992084132580000001170984060664032911_);}
	.st66{fill:url(#SVGID_00000152973526109111326180000014612051820305673638_);}
	.st67{opacity:0.29;fill:url(#SVGID_00000103229676105022382470000014746173594699772601_);enable-background:new    ;}
	
		.st68{fill:none;stroke:url(#SVGID_00000065783731798092424470000000110957649952987780_);stroke-width:5;stroke-linecap:round;stroke-linejoin:round;stroke-miterlimit:10;}
	.st69{fill:url(#SVGID_00000179631129261620054980000010543846205630889127_);}
	
		.st70{fill:none;stroke:url(#SVGID_00000084529093071345313030000013597641856833878919_);stroke-width:5;stroke-linecap:round;stroke-linejoin:round;stroke-miterlimit:10;}
	.st71{fill:url(#SVGID_00000102537786518167367850000015804313811288081073_);}
	
		.st72{fill:none;stroke:url(#SVGID_00000081636492985460395310000014454671960287873699_);stroke-width:5;stroke-linecap:round;stroke-linejoin:round;stroke-miterlimit:10;}
	.st73{fill:url(#SVGID_00000066482691510132898700000009939208191034568874_);}
	.st74{fill-rule:evenodd;clip-rule:evenodd;fill:url(#SVGID_00000146480858332845959870000009857123016029674126_);}
	.st75{fill:url(#SVGID_00000136380375433196781800000007914853871521813658_);}
	.st76{fill:url(#SVGID_00000024708745380478432110000016480058296329067141_);}
	.st77{fill:url(#SVGID_00000096030008235165096510000007262170019439704203_);}
	.st78{opacity:0.29;fill:url(#SVGID_00000007395524241858955120000014534522089050641322_);}
	.st79{opacity:0.29;fill:url(#SVGID_00000173127345693955172200000013006086475297474696_);}
	.st80{opacity:0.67;fill:url(#SVGID_00000075127039635825071790000017071678020399040432_);}
	.st81{fill:#3FA9BD;}
	.st82{fill:url(#SVGID_00000000201170157367967640000009419542248821685635_);}
	.st83{fill-rule:evenodd;clip-rule:evenodd;fill:#555069;}
	.st84{fill-rule:evenodd;clip-rule:evenodd;fill:#FFFFFF;}
	.st85{fill-rule:evenodd;clip-rule:evenodd;fill:#AFAFB1;}
	.st86{fill-rule:evenodd;clip-rule:evenodd;fill:#D3D3D3;}
	.st87{opacity:0.67;fill:url(#SVGID_00000142884775131995359640000001990263781252892051_);}
	.st88{fill:url(#SVGID_00000174561242544705700390000008257332996593779362_);}
	.st89{opacity:0.67;fill:url(#SVGID_00000131350517947444863580000014955944979394007461_);}
	.st90{fill:url(#SVGID_00000122685015776446160930000008615058038588868249_);}
	.st91{opacity:0.67;fill:url(#SVGID_00000071551495018524510380000006880526219340929946_);}
	.st92{fill:url(#SVGID_00000113332949447486353340000002639773540135651226_);}
	.st93{opacity:0.67;fill:url(#SVGID_00000124141666523669860590000014282943688412293536_);}
	.st94{fill:url(#SVGID_00000034067356954205103370000006500417460343806083_);}
	.st95{opacity:0.67;fill:url(#SVGID_00000158744305535065819080000005144319914628287391_);}
	.st96{fill:url(#SVGID_00000169517980743411911410000014823856467032154281_);}
	.st97{fill:#1AD4B3;}
	.st98{opacity:0.67;fill:url(#SVGID_00000118377279066117533740000014651021049567199659_);}
	.st99{fill:url(#SVGID_00000070837087946785802090000010381430077057311137_);}
	.st100{opacity:0.67;fill:url(#SVGID_00000122715135210360851900000018304786882456479381_);}
	.st101{fill:url(#SVGID_00000020372421088341032970000016317406145427180687_);}
	.st102{opacity:0.67;fill:url(#SVGID_00000061455243385212239840000009296069696726660541_);}
	.st103{fill:url(#SVGID_00000179608184896472873260000009621951188292646048_);}
	
		.st104{fill-rule:evenodd;clip-rule:evenodd;fill:none;stroke:#FFFFFF;stroke-width:0.7384;stroke-linecap:round;stroke-linejoin:round;stroke-miterlimit:10;}
	.st105{opacity:0.67;fill:url(#SVGID_00000138546868203491378530000005906822560278556037_);}
	.st106{fill:url(#SVGID_00000111189405724296118460000007607072178946721923_);}
	.st107{opacity:0.67;fill:url(#SVGID_00000127033684235821027340000009198150338028199064_);}
	.st108{fill:url(#SVGID_00000163759087409633270850000010411102100003216316_);}
	.st109{opacity:0.67;fill:url(#SVGID_00000084492845059371576030000001755085695921636232_);}
	.st110{fill:url(#SVGID_00000020384795591592963980000008220016235706325132_);}
	.st111{opacity:0.67;fill:url(#SVGID_00000096751353907357179980000003801426398650455204_);}
	.st112{fill:url(#SVGID_00000122692445369632382370000008183267708020741561_);}
	.st113{opacity:0.67;fill:url(#SVGID_00000019679779379778642420000003849072430437679499_);}
	.st114{fill:url(#SVGID_00000062155768404807846880000017887384348538859912_);}
	.st115{opacity:0.67;fill:url(#SVGID_00000015325645712037831250000018361977104329565332_);}
	.st116{fill:url(#SVGID_00000038408028774394383770000009539932828627485610_);}
	.st117{opacity:0.67;fill:url(#SVGID_00000129906846977729921380000008177410927848911807_);}
	.st118{fill:url(#SVGID_00000145770090431499996930000005942360097515787161_);}
	.st119{opacity:0.67;fill:url(#SVGID_00000019670160782243737590000005942430984669521797_);}
	.st120{fill:url(#SVGID_00000008116081044566137570000012506964833969024648_);}
	.st121{opacity:0.67;fill:url(#SVGID_00000163041151586067074540000013388235980298120630_);}
	.st122{fill:url(#SVGID_00000058587774637269134550000017778300639564206221_);}
	.st123{opacity:0.67;fill:url(#SVGID_00000163779552250527261990000015398246989155613592_);}
	.st124{fill:url(#SVGID_00000011726473451551205750000017054172770385523898_);}
	.st125{opacity:0.67;fill:url(#SVGID_00000082361262239733813560000002658997527075349660_);}
	.st126{fill:url(#SVGID_00000005259696839602332830000001455395918192951434_);}
	.st127{opacity:0.67;fill:url(#SVGID_00000061444609194212405470000012800590559680506297_);}
	.st128{fill:#5EA6B9;}
	.st129{fill:url(#SVGID_00000031207210957451415440000006158499425243540639_);}
	.st130{fill-rule:evenodd;clip-rule:evenodd;fill:#545067;}
	.st131{fill-rule:evenodd;clip-rule:evenodd;fill:#AEAEB0;}
	.st132{fill-rule:evenodd;clip-rule:evenodd;fill:#D2D2D2;}
	.st133{opacity:0.67;fill:url(#SVGID_00000026153537265469389830000008474993202822339200_);}
	.st134{fill:url(#SVGID_00000044142363909924819000000005827710688316305820_);}
	.st135{fill-rule:evenodd;clip-rule:evenodd;fill:#63D0B3;}
	
		.st136{fill-rule:evenodd;clip-rule:evenodd;fill:none;stroke:#111422;stroke-linecap:round;stroke-linejoin:round;stroke-miterlimit:10;}
	.st137{fill-rule:evenodd;clip-rule:evenodd;fill:#E85C83;}
	.st138{fill:#5DC29D;}
	.st139{fill:url(#SVGID_00000089544146607411427780000017624871038383235002_);}
	.st140{fill:url(#SVGID_00000112602753828800521620000014011111644212709033_);}
	.st141{fill:#E85C83;}
	.st142{opacity:0.67;fill:url(#SVGID_00000116234670755064562140000015761034205266765481_);}
	.st143{fill:url(#SVGID_00000037655466313075395170000005685189411008892826_);}
	
		.st144{fill:none;stroke:url(#SVGID_00000113350182811566873160000003542802812234705291_);stroke-width:5;stroke-linecap:round;stroke-linejoin:round;stroke-miterlimit:10;}
	.st145{fill:url(#SVGID_00000076586830124897534000000000086789067329348024_);}
	.st146{opacity:0.67;fill:url(#SVGID_00000076592894107264821420000013534090474795299969_);}
	.st147{fill:url(#SVGID_00000030457046603733595670000000634785997185425069_);}
	.st148{opacity:0.67;fill:url(#SVGID_00000049914705585825882700000004644746045883380391_);}
	.st149{fill:url(#SVGID_00000183213230006641094800000016395153771753285803_);}
	.st150{opacity:0.67;fill:url(#SVGID_00000030461474071326686160000004899006665243518134_);}
	.st151{fill:url(#SVGID_00000036234565874538960270000018032642491760923264_);}
	.st152{opacity:0.67;fill:url(#SVGID_00000087388034086334487070000016415329698392720038_);}
	.st153{fill:url(#SVGID_00000018929663081162144330000007039946931826727610_);}
	.st154{opacity:0.67;fill:url(#SVGID_00000040532839253465909790000015253080333578683290_);}
	.st155{fill:url(#SVGID_00000135659933136956683170000012195362043543477922_);}
	.st156{opacity:0.67;fill:url(#SVGID_00000018236060893522272360000015849999199661595267_);}
	.st157{fill:url(#SVGID_00000028294998393934164720000015899567266368442267_);}
	.st158{fill:none;stroke:#000000;stroke-width:22;stroke-linecap:round;stroke-linejoin:round;stroke-miterlimit:10;}
	.st159{fill:#ECF0FC;}
	.st160{fill:url(#SVGID_00000031928101940147968500000008127313058958396824_);}
	.st161{fill:url(#SVGID_00000170977849256859422230000004829549979695867557_);}
	.st162{fill:none;stroke:url(#SVGID_00000165949435578655680940000000869986679157182357_);stroke-width:5;stroke-miterlimit:10;}
	.st163{fill:#111422;}
	.st164{fill:url(#SVGID_00000143584497315688953880000004116179943704879007_);}
	.st165{fill:none;}
	.st166{opacity:0.67;fill:url(#SVGID_00000010280886660642085300000014215607137993400971_);}
	.st167{fill:url(#SVGID_00000008863508506751641550000007920640023332730268_);}
	.st168{fill:none;stroke:url(#SVGID_00000017494255003537278150000007545661674224548018_);stroke-width:5;stroke-miterlimit:10;}
	.st169{fill:url(#SVGID_00000150100207596056773610000008288403878925020347_);}
	.st170{opacity:0.67;fill:url(#SVGID_00000175294447336133350080000010387853290072495775_);}
	.st171{fill:url(#SVGID_00000119802540712192792930000011359873173730986627_);}
	.st172{opacity:0.67;fill:url(#SVGID_00000131330966596042505630000003827069303401710013_);}
	.st173{fill:url(#SVGID_00000034069450402072217050000006438200271726436004_);}
</style>
<g>
	<circle class="st0" cx="144.67" cy="70.24" r="26.03"/>
	<g>
		<g>
			<path class="st1" d="M138.21,43.43l-0.01,10.81c-0.33,1.38,0.28,2.85,1.82,3.91c2.54,1.76,6.66,1.76,9.2,0
				c1.08-0.75,1.7-1.69,1.86-2.67l0.04,0l0-0.45c0-0.04,0-0.09,0-0.13l0.01-11.18L138.21,43.43z"/>
			<path class="st1" d="M138.26,51.16c0,2.45,2.87,4.43,6.41,4.43s6.41-1.98,6.41-4.43"/>
			<path class="st1" d="M138.26,47.77c0,2.45,2.87,4.43,6.41,4.43s6.41-1.98,6.41-4.43"/>
			<path class="st1" d="M138.26,44.21c0,2.45,2.87,4.43,6.41,4.43s6.41-1.98,6.41-4.43"/>
		</g>
		<g>
			<path class="st1" d="M138.21,32.75l-0.01,10.81c-0.33,1.38,0.28,2.85,1.82,3.91c2.54,1.76,6.66,1.76,9.2,0
				c1.08-0.75,1.7-1.69,1.86-2.67l0.04,0l0-0.45c0-0.04,0-0.09,0-0.13l0.01-11.18L138.21,32.75z"/>
			<path class="st1" d="M138.26,40.49c0,2.45,2.87,4.43,6.41,4.43s6.41-1.98,6.41-4.43"/>
			<path class="st1" d="M138.26,37.1c0,2.45,2.87,4.43,6.41,4.43s6.41-1.98,6.41-4.43"/>
			<path class="st1" d="M138.26,33.54c0,2.45,2.87,4.43,6.41,4.43s6.41-1.98,6.41-4.43"/>
		</g>
	</g>
	<g>
		<g>
			<g>
				<polygon class="st2" points="144.27,48.55 126.46,38.27 126.46,20.45 144.27,30.74 				"/>
				<polygon class="st3" points="144.27,48.55 162.09,38.27 162.09,20.45 144.27,30.74 				"/>
				<polygon class="st4" points="144.34,30.79 126.46,20.47 144.21,10.13 162.09,20.45 				"/>
			</g>
			<path id="矩形_00000000224764980878004580000002438337549762957469_" class="st5" d="M138.69,15.45L138.69,15.45
				c0.35,0.2,0.29,0.58-0.12,0.83l-3.7,2.19c-0.42,0.25-1.08,0.29-1.43,0.09l0,0c-0.35-0.2-0.29-0.58,0.12-0.83l3.7-2.19
				C137.68,15.29,138.34,15.25,138.69,15.45z"/>
			<path id="矩形_00000101785510630771024770000017250878021637304757_" class="st5" d="M131.99,19.41L131.99,19.41
				c0.35,0.2,0.29,0.58-0.12,0.83l-0.72,0.42c-0.42,0.25-1.08,0.29-1.43,0.09l0,0c-0.35-0.2-0.29-0.58,0.12-0.83l0.72-0.42
				C131.02,19.24,131.64,19.21,131.99,19.41z"/>
		</g>
	</g>
</g>
<g>
	<circle class="st0" cx="263.33" cy="58.37" r="17.42"/>
	<g>
		<g>
			<path class="st1" d="M259,40.43l0,7.23c-0.22,0.92,0.19,1.91,1.22,2.62c1.7,1.18,4.46,1.18,6.16,0c0.72-0.5,1.14-1.13,1.25-1.79
				l0.03,0l0-0.3c0-0.03,0-0.06,0-0.09l0-7.49L259,40.43z"/>
			<path class="st1" d="M259.04,45.6c0,1.64,1.92,2.97,4.29,2.97c2.37,0,4.29-1.33,4.29-2.97"/>
			<path class="st1" d="M259.04,43.33c0,1.64,1.92,2.97,4.29,2.97c2.37,0,4.29-1.33,4.29-2.97"/>
			<path class="st1" d="M259.04,40.95c0,1.64,1.92,2.97,4.29,2.97c2.37,0,4.29-1.33,4.29-2.97"/>
		</g>
		<g>
			<path class="st1" d="M259,33.28l0,7.23c-0.22,0.92,0.19,1.91,1.22,2.62c1.7,1.18,4.46,1.18,6.16,0c0.72-0.5,1.14-1.13,1.25-1.79
				l0.03,0l0-0.3c0-0.03,0-0.06,0-0.09l0-7.49L259,33.28z"/>
			<path class="st1" d="M259.04,38.46c0,1.64,1.92,2.97,4.29,2.97c2.37,0,4.29-1.33,4.29-2.97"/>
			<path class="st1" d="M259.04,36.19c0,1.64,1.92,2.97,4.29,2.97c2.37,0,4.29-1.33,4.29-2.97"/>
			<path class="st1" d="M259.04,33.8c0,1.64,1.92,2.97,4.29,2.97c2.37,0,4.29-1.33,4.29-2.97"/>
		</g>
	</g>
	<g>
		<g>
			<g>
				<polygon class="st2" points="263.06,43.86 251.14,36.97 251.14,25.05 263.06,31.93 				"/>
				<polygon class="st3" points="263.06,43.86 274.99,36.97 274.99,25.05 263.06,31.93 				"/>
				<polygon class="st4" points="263.11,31.97 251.14,25.06 263.02,18.13 274.99,25.05 				"/>
			</g>
			<path id="矩形_00000027575597677809274660000015259226105719874449_" class="st5" d="M259.43,21.56L259.43,21.56
				c0.23,0.13,0.2,0.39-0.08,0.55l-2.47,1.46c-0.28,0.17-0.72,0.19-0.95,0.06l0,0c-0.23-0.13-0.2-0.39,0.08-0.55l2.47-1.46
				C258.75,21.46,259.19,21.43,259.43,21.56z"/>
			<path id="矩形_00000078037141163023317750000013133239570109931177_" class="st5" d="M254.95,24.22L254.95,24.22
				c0.23,0.13,0.2,0.39-0.08,0.55l-0.48,0.28c-0.28,0.17-0.72,0.19-0.95,0.06l0,0c-0.23-0.13-0.2-0.39,0.08-0.55l0.48-0.28
				C254.29,24.1,254.71,24.08,254.95,24.22z"/>
		</g>
	</g>
</g>
<g>
	<g>
		<polygon class="st26" points="263.04,158.85 209.25,189.57 209.5,210.38 263.16,179.85 		"/>
		<polygon class="st2" points="168.54,166.9 209.25,189.52 209.5,210.38 168.79,187.76 		"/>
		<polygon class="st4" points="262.79,158.83 221.55,135.82 168.54,166.9 209.25,189.72 		"/>
	</g>
	<g>
		<polygon class="st3" points="263.04,134.31 209.25,165.03 209.5,185.84 263.16,155.31 		"/>
		<polygon class="st2" points="168.54,142.36 209.25,164.97 209.5,185.84 168.79,163.22 		"/>
		<polygon class="st4" points="263.04,134.24 221.8,111.23 168.54,141.97 209.25,164.79 		"/>
	</g>
	<circle class="st0" cx="213.14" cy="111.19" r="41.04"/>
	<g>
		<g>
			<path class="st0" d="M217.3,175.29v-8.95l2.53-1.5c0.49-0.29,0.9-0.41,1.24-0.35c0.34,0.05,0.6,0.26,0.79,0.61
				c0.18,0.35,0.27,0.82,0.27,1.41c0,0.59-0.09,1.17-0.28,1.74c-0.18,0.56-0.45,1.07-0.8,1.53c-0.35,0.46-0.77,0.84-1.26,1.13
				l-1.61,0.96v-1.52l1.39-0.83c0.26-0.15,0.48-0.35,0.65-0.57c0.17-0.23,0.3-0.48,0.38-0.76c0.08-0.28,0.13-0.56,0.13-0.85
				c0-0.3-0.04-0.53-0.13-0.71c-0.08-0.17-0.21-0.27-0.38-0.29c-0.17-0.02-0.39,0.04-0.65,0.2l-0.91,0.54v7.4L217.3,175.29z"/>
			<path class="st0" d="M222.99,171.92v-6.71l1.29-0.77v1.17l0.05-0.03c0.09-0.47,0.23-0.87,0.44-1.21
				c0.21-0.34,0.44-0.58,0.71-0.74c0.07-0.04,0.14-0.08,0.22-0.11c0.08-0.03,0.15-0.06,0.2-0.07v1.65
				c-0.06,0.01-0.15,0.04-0.26,0.08c-0.11,0.04-0.21,0.09-0.3,0.15c-0.2,0.12-0.37,0.28-0.53,0.49c-0.15,0.21-0.27,0.44-0.36,0.71
				c-0.09,0.26-0.13,0.53-0.13,0.8v3.8L222.99,171.92z"/>
			<path class="st0" d="M228.54,168.76c-0.49,0.29-0.91,0.39-1.26,0.31c-0.35-0.08-0.63-0.32-0.82-0.73
				c-0.19-0.41-0.29-0.95-0.29-1.64c0-0.69,0.1-1.36,0.29-1.99c0.19-0.63,0.47-1.2,0.82-1.7c0.35-0.5,0.77-0.89,1.26-1.18
				c0.49-0.29,0.91-0.39,1.26-0.31c0.35,0.08,0.63,0.32,0.82,0.73c0.19,0.41,0.29,0.96,0.29,1.65c0,0.69-0.1,1.35-0.29,1.98
				c-0.19,0.63-0.47,1.2-0.82,1.7C229.45,168.08,229.03,168.47,228.54,168.76z M228.55,167.32c0.22-0.13,0.41-0.33,0.55-0.59
				s0.26-0.57,0.34-0.92s0.11-0.72,0.11-1.11c0-0.39-0.04-0.72-0.11-0.98s-0.19-0.44-0.34-0.53c-0.15-0.09-0.33-0.07-0.55,0.06
				c-0.22,0.13-0.41,0.33-0.56,0.6c-0.15,0.27-0.27,0.58-0.34,0.93c-0.08,0.35-0.11,0.72-0.11,1.11c0,0.39,0.04,0.72,0.11,0.98
				c0.08,0.26,0.19,0.43,0.34,0.52C228.14,167.47,228.32,167.45,228.55,167.32z"/>
			<path class="st0" d="M231.78,169.23V160l1.32-0.78v1.13l0.06-0.04c0.06-0.22,0.14-0.45,0.26-0.7c0.11-0.25,0.26-0.5,0.44-0.73
				c0.18-0.23,0.41-0.43,0.68-0.59c0.35-0.21,0.67-0.27,0.97-0.19c0.3,0.08,0.53,0.32,0.71,0.73c0.18,0.41,0.27,0.99,0.27,1.76
				c0,0.75-0.09,1.43-0.26,2.05c-0.17,0.62-0.41,1.14-0.7,1.58c-0.3,0.44-0.63,0.77-0.99,0.98c-0.26,0.15-0.48,0.22-0.66,0.21
				c-0.18-0.01-0.33-0.07-0.44-0.19c-0.11-0.11-0.2-0.25-0.26-0.4l-0.04,0.02v3.59L231.78,169.23z M233.09,162.58
				c0,0.4,0.04,0.72,0.12,0.97c0.08,0.25,0.19,0.41,0.34,0.49c0.15,0.07,0.33,0.05,0.55-0.08c0.22-0.13,0.4-0.32,0.55-0.58
				c0.15-0.26,0.26-0.56,0.34-0.9c0.08-0.35,0.12-0.71,0.12-1.1c0-0.39-0.04-0.71-0.12-0.95c-0.08-0.25-0.19-0.41-0.34-0.49
				c-0.15-0.08-0.33-0.05-0.55,0.08c-0.22,0.13-0.4,0.32-0.55,0.57s-0.26,0.54-0.34,0.89C233.13,161.81,233.09,162.18,233.09,162.58
				z"/>
			<path class="st0" d="M239.53,162.25c-0.49,0.29-0.91,0.39-1.26,0.31c-0.35-0.08-0.63-0.32-0.82-0.73
				c-0.19-0.41-0.29-0.95-0.29-1.64c0-0.69,0.1-1.36,0.29-1.99c0.19-0.63,0.47-1.2,0.82-1.7c0.35-0.5,0.77-0.89,1.26-1.18
				c0.49-0.29,0.91-0.39,1.26-0.31c0.35,0.08,0.63,0.32,0.82,0.73c0.19,0.41,0.29,0.96,0.29,1.65c0,0.69-0.1,1.35-0.29,1.98
				c-0.19,0.63-0.47,1.2-0.82,1.7C240.44,161.57,240.02,161.96,239.53,162.25z M239.54,160.8c0.22-0.13,0.41-0.33,0.55-0.59
				s0.26-0.57,0.34-0.92c0.08-0.35,0.11-0.72,0.11-1.11s-0.04-0.72-0.11-0.98c-0.08-0.26-0.19-0.44-0.34-0.53
				c-0.15-0.09-0.33-0.07-0.55,0.06c-0.22,0.13-0.41,0.33-0.56,0.6c-0.15,0.27-0.27,0.58-0.34,0.93s-0.11,0.72-0.11,1.11
				c0,0.39,0.04,0.72,0.11,0.98c0.08,0.26,0.19,0.43,0.34,0.52C239.13,160.96,239.32,160.94,239.54,160.8z"/>
			<path class="st0" d="M246.78,153.03l-1.22,0.83c-0.02-0.13-0.07-0.24-0.13-0.32c-0.07-0.08-0.16-0.12-0.27-0.12
				c-0.11-0.01-0.24,0.04-0.4,0.13c-0.21,0.12-0.38,0.29-0.52,0.49c-0.14,0.21-0.21,0.41-0.21,0.61c0,0.16,0.05,0.27,0.14,0.32
				c0.09,0.06,0.25,0.05,0.47-0.01l0.87-0.27c0.47-0.14,0.82-0.13,1.05,0.03c0.23,0.16,0.34,0.48,0.34,0.97
				c0,0.44-0.09,0.88-0.28,1.32c-0.18,0.44-0.44,0.85-0.76,1.22c-0.32,0.38-0.69,0.69-1.11,0.93c-0.64,0.38-1.14,0.49-1.52,0.34
				c-0.38-0.15-0.6-0.52-0.66-1.13l1.31-0.87c0.04,0.25,0.14,0.4,0.29,0.45c0.15,0.05,0.35,0.01,0.59-0.14
				c0.23-0.14,0.42-0.31,0.57-0.53c0.14-0.21,0.22-0.42,0.22-0.62c0-0.17-0.05-0.28-0.15-0.33c-0.1-0.05-0.25-0.04-0.46,0.02
				l-0.83,0.26c-0.47,0.15-0.82,0.13-1.05-0.06c-0.23-0.19-0.34-0.53-0.34-1.03c0-0.43,0.08-0.85,0.25-1.26
				c0.17-0.41,0.4-0.79,0.71-1.14c0.31-0.35,0.66-0.65,1.08-0.89c0.61-0.36,1.09-0.46,1.44-0.31
				C246.51,152.08,246.72,152.45,246.78,153.03z"/>
			<path class="st0" d="M249.1,156.58c-0.31,0.18-0.58,0.27-0.82,0.26c-0.24-0.01-0.43-0.12-0.57-0.33
				c-0.14-0.21-0.21-0.54-0.21-0.98c0-0.37,0.05-0.72,0.15-1.03c0.1-0.31,0.23-0.59,0.4-0.85c0.17-0.25,0.36-0.49,0.58-0.69
				c0.22-0.21,0.44-0.4,0.68-0.57c0.28-0.21,0.51-0.38,0.68-0.52c0.17-0.14,0.3-0.27,0.37-0.38c0.08-0.12,0.12-0.25,0.12-0.39v-0.03
				c0-0.28-0.06-0.45-0.19-0.53c-0.12-0.08-0.3-0.05-0.53,0.09c-0.24,0.14-0.43,0.33-0.57,0.56c-0.14,0.23-0.24,0.47-0.28,0.72
				l-1.23,0.59c0.06-0.44,0.19-0.87,0.37-1.28c0.18-0.41,0.42-0.78,0.71-1.11c0.29-0.33,0.63-0.62,1.01-0.84
				c0.27-0.16,0.52-0.27,0.77-0.32c0.25-0.06,0.46-0.05,0.65,0.02c0.19,0.07,0.34,0.22,0.45,0.44c0.11,0.22,0.17,0.53,0.17,0.93
				v4.53l-1.27,0.75v-0.93l-0.04,0.02c-0.08,0.26-0.18,0.5-0.31,0.74c-0.13,0.24-0.29,0.45-0.47,0.65
				C249.55,156.27,249.34,156.43,249.1,156.58z M249.48,155.06c0.2-0.12,0.37-0.27,0.52-0.47c0.15-0.2,0.27-0.42,0.35-0.65
				c0.09-0.24,0.13-0.47,0.13-0.71v-0.71c-0.04,0.06-0.1,0.13-0.17,0.2c-0.07,0.07-0.15,0.15-0.24,0.23
				c-0.09,0.08-0.18,0.15-0.27,0.23c-0.09,0.07-0.17,0.14-0.24,0.2c-0.16,0.12-0.29,0.26-0.41,0.4c-0.12,0.14-0.21,0.29-0.27,0.44
				c-0.06,0.16-0.1,0.32-0.1,0.5c0,0.25,0.07,0.41,0.2,0.46C249.11,155.22,249.28,155.19,249.48,155.06z"/>
			<path class="st0" d="M254.18,144.49v8.95l-1.33,0.79v-8.95L254.18,144.49z"/>
		</g>
	</g>
</g>
<g>
	<polygon class="st3" points="132.63,74 22.49,136.92 22.49,195.82 132.63,132.9 	"/>
	<polygon class="st2" points="8.05,128.76 22.49,136.56 22.49,195.82 8.05,188.02 	"/>
	<polygon class="st4" points="132.63,74 117.12,65.8 8.05,128.76 22.49,136.56 	"/>
</g>
<g>
	<path class="st0" d="M34.22,172.16v-22.62l9.86-5.87v4.95l-6.05,3.6v3.89l5.45-3.25v4.95l-5.45,3.25v8.84L34.22,172.16z"/>
	<path class="st0" d="M49.28,140.56v22.62l-3.81,2.27v-22.62L49.28,140.56z"/>
	<path class="st0" d="M63.22,132.26v22.62l-3.18,1.89l-5.07-8.87l-0.08,0.05v11.88l-3.81,2.27v-22.62l3.23-1.92l4.99,8.87l0.11-0.06
		v-11.84L63.22,132.26z"/>
	<path class="st0" d="M68.84,128.92v22.62l-3.81,2.27v-22.62L68.84,128.92z"/>
	<path class="st0" d="M78.2,130.41c-0.04-0.71-0.21-1.19-0.51-1.42c-0.3-0.23-0.76-0.16-1.38,0.2c-0.39,0.23-0.71,0.5-0.96,0.8
		c-0.25,0.3-0.43,0.61-0.55,0.94c-0.12,0.33-0.18,0.66-0.19,0.99c-0.01,0.28,0.02,0.5,0.09,0.68c0.07,0.18,0.18,0.3,0.34,0.38
		c0.16,0.08,0.35,0.12,0.6,0.11c0.24,0,0.53-0.05,0.86-0.14l1.15-0.29c0.78-0.2,1.44-0.24,1.99-0.14c0.55,0.11,1,0.35,1.36,0.72
		s0.61,0.88,0.78,1.51c0.17,0.63,0.25,1.38,0.26,2.23c0,1.49-0.24,2.89-0.69,4.19c-0.46,1.3-1.11,2.47-1.96,3.52
		c-0.85,1.04-1.86,1.92-3.05,2.62c-1.22,0.73-2.28,1.07-3.19,1.03c-0.91-0.04-1.61-0.52-2.11-1.43c-0.5-0.91-0.75-2.31-0.76-4.21
		l3.62-2.15c0.02,0.68,0.13,1.2,0.32,1.55c0.19,0.36,0.46,0.55,0.81,0.59c0.35,0.03,0.77-0.09,1.25-0.38
		c0.41-0.24,0.75-0.53,1.02-0.85c0.27-0.33,0.48-0.67,0.62-1.05c0.14-0.37,0.21-0.74,0.22-1.11c0-0.34-0.07-0.61-0.21-0.79
		c-0.13-0.18-0.35-0.29-0.66-0.31s-0.72,0.02-1.24,0.15l-1.4,0.35c-1.24,0.3-2.22,0.16-2.93-0.44c-0.71-0.59-1.07-1.78-1.06-3.55
		c0-1.43,0.23-2.83,0.72-4.2c0.48-1.37,1.15-2.61,2.01-3.72c0.86-1.11,1.84-2,2.95-2.66c1.13-0.67,2.11-0.95,2.94-0.83
		c0.83,0.12,1.46,0.6,1.91,1.44c0.45,0.84,0.68,2,0.68,3.48L78.2,130.41z"/>
	<path class="st0" d="M83.49,142.81v-22.62l3.81-2.27v8.84l5.04-3v-8.84l3.81-2.27v22.62l-3.81,2.27v-8.84l-5.04,3v8.84
		L83.49,142.81z"/>
	<path class="st0" d="M97.95,134.2v-22.62l10.11-6.02v4.95l-6.3,3.75v3.89l5.78-3.44v4.95l-5.78,3.44v3.89l6.27-3.73v4.95
		L97.95,134.2z"/>
	<path class="st0" d="M115.34,123.84l-5.4,3.21v-22.62l5.34-3.18c1.44-0.86,2.69-1.15,3.74-0.88c1.05,0.28,1.86,1.09,2.44,2.44
		s0.86,3.2,0.86,5.56s-0.29,4.55-0.86,6.58c-0.57,2.03-1.38,3.81-2.42,5.33C118,121.81,116.77,123,115.34,123.84z M113.75,119.58
		l1.45-0.86c0.69-0.41,1.29-0.95,1.78-1.6c0.49-0.65,0.87-1.5,1.12-2.54c0.26-1.04,0.39-2.34,0.39-3.92s-0.13-2.73-0.39-3.46
		c-0.26-0.73-0.65-1.12-1.15-1.18c-0.5-0.06-1.12,0.13-1.85,0.56l-1.34,0.8V119.58z"/>
</g>
<polygon class="st7" points="259.82,27.52 258.47,26.76 266.31,22.14 267.66,22.9 "/>
<polygon class="st7" points="139.38,24.63 137.2,23.4 149.87,15.92 152.05,17.15 "/>
<g>
	<path id="矩形_00000024703854023646690300000012677562358289520830_" class="st14" d="M172.16,217.11L172.16,217.11
		c0.62,0,1.15,0.76,1.15,1.64v1.52c0,0.88-0.53,1.64-1.15,1.64l0,0c-0.62,0-1.15-0.76-1.15-1.64v-1.52
		C171.02,217.8,171.55,217.11,172.16,217.11z"/>
	
		<radialGradient id="SVGID_1_" cx="140.6214" cy="251.2355" r="29.1582" gradientTransform="matrix(1 0 0 0.5898 0 103.0585)" gradientUnits="userSpaceOnUse">
		<stop  offset="0" style="stop-color:#B8B3D4"/>
		<stop  offset="0.3457" style="stop-color:#BAB6D6;stop-opacity:0.6543"/>
		<stop  offset="0.6064" style="stop-color:#C2C0DA;stop-opacity:0.3936"/>
		<stop  offset="0.8384" style="stop-color:#D0D0E3;stop-opacity:0.1616"/>
		<stop  offset="1" style="stop-color:#DDE0EB;stop-opacity:0"/>
	</radialGradient>
	<path style="opacity:0.67;fill:url(#SVGID_1_);" d="M165.62,237.16c-13.68-7.9-35.96-8-49.77-0.23s-13.91,20.48-0.23,28.37
		s35.96,8,49.77,0.23C179.19,257.76,179.3,245.06,165.62,237.16z"/>
	<g>
		<path class="st81" d="M179.12,201.13v-49.28c0-0.23,0.02-0.45,0.02-0.68c0-22.91-18.57-41.48-41.48-41.48
			c-22.91,0-41.48,18.57-41.48,41.48c0,0.36,0.02,0.72,0.03,1.07v44.66h-0.03v22.67c0,2.84,2.3,5.15,5.15,5.15
			c2.84,0,5.15-2.31,5.15-5.15v-0.83c0.56,0.36,1.13,0.72,1.74,1.07c1.83,1.06,3.79,1.99,5.85,2.81v8.2c0,2.84,2.3,5.15,5.15,5.15
			c2.84,0,5.15-2.31,5.15-5.15v-5.23c2.95,0.57,5.99,0.96,9.06,1.14v12.59c0,2.84,2.3,5.15,5.15,5.15s5.15-2.31,5.15-5.15v-12.7
			c3.39-0.28,6.73-0.8,9.93-1.55v6.36c0,2.84,2.3,5.15,5.15,5.15s5.15-2.31,5.15-5.15v-9.87c1-0.47,1.97-0.96,2.91-1.49
			c0.7-0.39,1.35-0.8,1.99-1.21v0.71c0,2.84,2.3,5.15,5.15,5.15c2.84,0,5.15-2.31,5.15-5.15v-18.45H179.12z"/>
		
			<radialGradient id="SVGID_00000173147061058436865580000016618202235888293521_" cx="162.3441" cy="127.1149" r="106.6854" gradientUnits="userSpaceOnUse">
			<stop  offset="0.0124" style="stop-color:#DD78CE"/>
			<stop  offset="0.4936" style="stop-color:#A7589A"/>
			<stop  offset="0.5829" style="stop-color:#A0619E"/>
			<stop  offset="0.7273" style="stop-color:#8E79A8"/>
			<stop  offset="0.9078" style="stop-color:#709FB9"/>
			<stop  offset="1" style="stop-color:#5EB6C3"/>
		</radialGradient>
		<path style="fill:url(#SVGID_00000173147061058436865580000016618202235888293521_);" d="M179.12,201.13v-49.28
			c0-0.23,0.02-0.45,0.02-0.68c0-22.91-18.57-41.48-41.48-41.48c-22.91,0-41.48,18.57-41.48,41.48c0,0.36,0.02,0.72,0.03,1.07v44.66
			h-0.03v22.67c0,2.84,2.3,5.15,5.15,5.15c2.84,0,5.15-2.31,5.15-5.15v-0.83c0.56,0.36,1.13,0.72,1.74,1.07
			c1.83,1.06,3.79,1.99,5.85,2.81v8.2c0,2.84,2.3,5.15,5.15,5.15c2.84,0,5.15-2.31,5.15-5.15v-5.23c2.95,0.57,5.99,0.96,9.06,1.14
			v12.59c0,2.84,2.3,5.15,5.15,5.15s5.15-2.31,5.15-5.15v-12.7c3.39-0.28,6.73-0.8,9.93-1.55v6.36c0,2.84,2.3,5.15,5.15,5.15
			s5.15-2.31,5.15-5.15v-9.87c1-0.47,1.97-0.96,2.91-1.49c0.7-0.39,1.35-0.8,1.99-1.21v0.71c0,2.84,2.3,5.15,5.15,5.15
			c2.84,0,5.15-2.31,5.15-5.15v-18.45H179.12z"/>
	</g>
	<path id="矩形_00000134971819117523338690000003314516938573499019_" class="st14" d="M100.07,187.29L100.07,187.29
		c1.12,0,2.09,1.38,2.09,2.99v14.25c0,1.61-0.96,2.99-2.09,2.99l0,0c-1.12,0-2.09-1.38-2.09-2.99v-14.25
		C97.99,188.67,98.95,187.29,100.07,187.29z"/>
	<path id="矩形_00000016786952690830994910000007673867573021379772_" class="st14" d="M161.37,124.2L161.37,124.2
		c1.37-1.02,3.68-0.37,5.02,1.41l2.29,3.06c1.34,1.78,1.31,4.19-0.06,5.22l0,0c-1.37,1.02-3.68,0.37-5.02-1.41l-2.29-3.06
		C159.88,127.5,160.01,125.23,161.37,124.2z"/>
	<path id="矩形_00000016037404438546543750000004128679377714758586_" class="st14" d="M117.47,223.88L117.47,223.88
		c1.12,0,2.09,1.38,2.09,2.99v2.76c0,1.61-0.96,2.99-2.09,2.99l0,0c-1.12,0-2.09-1.38-2.09-2.99v-2.76
		C115.38,225.14,116.35,223.88,117.47,223.88z"/>
	<path id="矩形_00000049211971020570787660000004142694036165122715_" class="st14" d="M99.82,213.08L99.82,213.08
		c1.12,0,2.09,1.38,2.09,2.99v2.76c0,1.61-0.96,2.99-2.09,2.99l0,0c-1.12,0-2.09-1.38-2.09-2.99v-2.76
		C97.74,214.34,98.7,213.08,99.82,213.08z"/>
	<path id="矩形_00000183212687341775444680000004693421372622191536_" class="st14" d="M137.66,232.62L137.66,232.62
		c1.12,0,2.09,1.38,2.09,2.99v2.76c0,1.61-0.96,2.99-2.09,2.99l0,0c-1.12,0-2.09-1.38-2.09-2.99v-2.76
		C135.57,233.88,136.54,232.62,137.66,232.62z"/>
	<path id="矩形_00000000208582830512665980000004898204465111846832_" class="st14" d="M157.36,227.27L157.36,227.27
		c0.89,0,1.66,1.1,1.66,2.37v2.19c0,1.28-0.76,2.37-1.66,2.37l0,0c-0.89,0-1.66-1.1-1.66-2.37v-2.19
		C155.7,228.28,156.47,227.27,157.36,227.27z"/>
	<g>
		<path id="椭圆形_00000057827183013361048990000017536548608983754112_" class="st83" d="M147.67,182.16
			c4.06-0.17,7.1-3.66,7.09-6c0-0.94-0.55-1.75-1.38-1.81c-1.29-0.13-3.23,0.7-5.72,0.8c-2.31,0.1-3.78-0.5-5.53-0.42
			c-1.84,0.08-1.75,2.22-1.47,3.06C141.3,180.09,143.52,182.33,147.67,182.16z"/>
		<path id="椭圆形_00000059996181127319048810000016770775713000346046_" class="st84" d="M147.76,180.19
			c4.15-0.17,7.19-3.38,7.19-5.63c0-0.84-0.55-1.57-1.38-1.63c-1.29-0.13-3.32,0.7-5.81,0.8c-2.4,0.1-3.78-0.5-5.62-0.43
			s-1.75,2.13-1.48,2.87C141.3,178.3,143.61,180.36,147.76,180.19z"/>
	</g>
	<g>
		
			<ellipse transform="matrix(0.5671 -0.8237 0.8237 0.5671 -74.1156 176.3792)" class="st84" cx="130.72" cy="158.69" rx="9.5" ry="9.1"/>
		<path id="形状结合_00000123431693218551320190000010876492663566010557_" class="st85" d="M131.92,148.73
			c4.24-0.18,7.66,3.98,7.66,9.22c0,0.19,0,0.37,0,0.56l0,0.56c0-5.33-3.33-9.59-7.48-9.42c-4.15,0.17-7.46,4.61-7.46,10.04
			c0,1.03,0.09,2.05,0.37,2.98c-0.46-1.2-0.74-2.59-0.74-3.99C124.27,153.35,127.68,148.9,131.92,148.73z"/>
		<path id="形状结合_00000054236538853804836920000018001985831818270650_" class="st86" d="M131.92,147.6
			c4.7-0.2,8.58,4.41,8.58,10.31c0.01,5.89-3.86,10.83-8.57,11.02c-4.7,0.2-8.58-4.41-8.58-10.31
			C123.35,152.73,127.12,147.8,131.92,147.6z M131.92,148.73c-4.24,0.18-7.65,4.62-7.64,9.86c0,5.24,3.42,9.4,7.66,9.22
			c4.24-0.18,7.65-4.62,7.64-9.86C139.58,152.71,136.07,148.55,131.92,148.73z"/>
	</g>
	<g>
		
			<ellipse transform="matrix(0.5671 -0.8237 0.8237 0.5671 -59.6804 201.0825)" class="st84" cx="161.44" cy="157.31" rx="9.5" ry="9.1"/>
		<path id="形状结合_00000136402270081866476450000016361291766658487455_" class="st85" d="M162.43,147.35
			c4.24-0.18,7.66,3.98,7.66,9.22c0,0.19,0,0.37,0,0.56l0,0.56c0-5.33-3.33-9.59-7.48-9.42c-4.15,0.17-7.46,4.61-7.46,10.04
			c0,1.03,0.09,2.05,0.37,2.98c-0.46-1.2-0.74-2.59-0.74-3.99C154.78,151.98,158.19,147.53,162.43,147.35z"/>
		<path id="形状结合_00000096045822234194048230000004358181268902644157_" class="st86" d="M162.43,146.23
			c4.7-0.2,8.58,4.41,8.58,10.31s-3.86,10.83-8.57,11.02s-8.58-4.41-8.58-10.31C153.86,151.36,157.64,146.43,162.43,146.23z
			 M162.43,147.35c-4.24,0.18-7.65,4.62-7.64,9.86s3.42,9.4,7.66,9.22c4.24-0.18,7.65-4.62,7.64-9.86
			C170.09,151.34,166.58,147.18,162.43,147.35z"/>
	</g>
	<circle class="st83" cx="130.72" cy="158.69" r="3.77"/>
	<circle class="st83" cx="161.27" cy="157.56" r="3.77"/>
</g>
<g>
	<g>
		<path class="st141" d="M225.69,196.34v-10.58l4.39-2.59v1.84l-2.99,1.76v2.52l2.7-1.59v1.84l-2.7,1.59v4.37L225.69,196.34z"/>
		<path class="st141" d="M232.42,192.53c-0.32,0.19-0.6,0.27-0.85,0.23s-0.44-0.18-0.59-0.44c-0.14-0.27-0.22-0.66-0.22-1.18
			c0-0.44,0.05-0.84,0.15-1.2c0.1-0.36,0.24-0.68,0.42-0.97c0.17-0.29,0.37-0.54,0.6-0.76c0.22-0.22,0.46-0.43,0.7-0.61
			c0.29-0.22,0.52-0.4,0.7-0.55c0.18-0.15,0.3-0.29,0.38-0.42s0.12-0.28,0.12-0.45v-0.03c0-0.33-0.06-0.54-0.19-0.65
			c-0.13-0.1-0.31-0.08-0.54,0.05c-0.25,0.15-0.45,0.35-0.59,0.61s-0.24,0.54-0.29,0.83l-1.28,0.58c0.07-0.52,0.19-1.01,0.38-1.48
			s0.44-0.88,0.74-1.25s0.65-0.67,1.05-0.9c0.28-0.16,0.54-0.27,0.8-0.31c0.25-0.05,0.48-0.02,0.68,0.08s0.35,0.29,0.47,0.56
			c0.11,0.27,0.17,0.64,0.17,1.12v5.35l-1.31,0.77v-1.1l-0.04,0.02c-0.08,0.3-0.19,0.58-0.32,0.84c-0.13,0.27-0.29,0.51-0.48,0.72
			C232.88,192.2,232.67,192.38,232.42,192.53z M232.81,190.78c0.2-0.12,0.38-0.29,0.54-0.51c0.16-0.22,0.28-0.47,0.37-0.74
			s0.13-0.55,0.13-0.83v-0.84c-0.04,0.07-0.1,0.14-0.18,0.22c-0.07,0.08-0.16,0.16-0.25,0.25c-0.09,0.08-0.19,0.16-0.28,0.24
			s-0.18,0.15-0.25,0.21c-0.16,0.13-0.3,0.28-0.43,0.43c-0.12,0.15-0.21,0.32-0.28,0.5c-0.07,0.18-0.1,0.37-0.1,0.58
			c0,0.3,0.07,0.49,0.21,0.56C232.43,190.93,232.6,190.9,232.81,190.78z"/>
		<path class="st141" d="M236.99,180.73c-0.21,0.12-0.38,0.12-0.53-0.02c-0.15-0.13-0.22-0.35-0.22-0.66s0.07-0.61,0.22-0.92
			s0.32-0.52,0.52-0.64c0.21-0.12,0.38-0.12,0.53,0.01s0.22,0.35,0.22,0.66s-0.07,0.61-0.22,0.92
			C237.37,180.4,237.19,180.61,236.99,180.73z M236.29,190.1v-7.93l1.38-0.81v7.93L236.29,190.1z"/>
		<path class="st141" d="M240.15,177.24v10.58l-1.38,0.81v-10.57L240.15,177.24z"/>
		<path class="st141" d="M243.52,185.99c-0.51,0.3-0.95,0.39-1.32,0.28c-0.37-0.12-0.65-0.42-0.85-0.91c-0.2-0.49-0.3-1.16-0.3-2
			c0-0.82,0.1-1.59,0.3-2.32c0.2-0.73,0.48-1.38,0.84-1.94s0.79-0.98,1.28-1.27c0.33-0.19,0.63-0.29,0.92-0.29
			c0.28,0,0.53,0.1,0.74,0.31c0.21,0.21,0.38,0.53,0.5,0.96c0.12,0.43,0.18,0.99,0.18,1.66v0.6l-4.2,2.47v-1.36l2.9-1.71
			c0-0.32-0.04-0.57-0.13-0.77c-0.09-0.19-0.21-0.32-0.36-0.37s-0.33-0.02-0.53,0.1c-0.21,0.12-0.39,0.31-0.56,0.56
			s-0.29,0.53-0.38,0.84c-0.09,0.31-0.14,0.62-0.14,0.94v1.3c0,0.39,0.05,0.71,0.14,0.94s0.22,0.38,0.39,0.43
			c0.17,0.06,0.37,0.02,0.6-0.12c0.15-0.09,0.29-0.21,0.42-0.35s0.24-0.31,0.33-0.5s0.16-0.4,0.21-0.63l1.28-0.62
			c-0.06,0.53-0.2,1.03-0.4,1.51s-0.46,0.91-0.77,1.3C244.3,185.44,243.93,185.75,243.52,185.99z"/>
		<path class="st141" d="M248.54,183.01c-0.38,0.22-0.72,0.27-1.03,0.14c-0.3-0.13-0.55-0.45-0.72-0.95
			c-0.18-0.5-0.27-1.2-0.27-2.08c0-0.91,0.09-1.72,0.27-2.43c0.18-0.71,0.43-1.31,0.73-1.79c0.31-0.48,0.64-0.83,1-1.04
			c0.28-0.16,0.51-0.23,0.7-0.19s0.34,0.14,0.45,0.29s0.2,0.32,0.26,0.5l0.04-0.03v-3.98l1.38-0.81v10.58l-1.36,0.8v-1.27
			l-0.06,0.03c-0.07,0.26-0.16,0.53-0.27,0.82c-0.12,0.28-0.27,0.55-0.46,0.8C249.04,182.65,248.81,182.86,248.54,183.01z
			 M248.98,181c0.22-0.13,0.41-0.34,0.57-0.62c0.15-0.28,0.27-0.63,0.36-1.03c0.08-0.4,0.12-0.84,0.12-1.31s-0.04-0.86-0.12-1.16
			s-0.2-0.5-0.36-0.6s-0.35-0.08-0.57,0.05c-0.23,0.13-0.42,0.34-0.57,0.63s-0.27,0.63-0.35,1.02s-0.12,0.82-0.12,1.28
			c0,0.46,0.04,0.84,0.12,1.15s0.2,0.51,0.35,0.62C248.56,181.15,248.75,181.14,248.98,181z"/>
	</g>
</g>
</svg>
