<?xml version="1.0" encoding="utf-8"?>
<!-- Generator: Adobe Illustrator 27.8.1, SVG Export Plug-In . SVG Version: 6.00 Build 0)  -->
<svg version="1.1" id="Слой_1" xmlns="http://www.w3.org/2000/svg" xmlns:xlink="http://www.w3.org/1999/xlink" x="0px" y="0px"
	 viewBox="0 0 290 574.88" style="enable-background:new 0 0 290 574.88;" xml:space="preserve">
<style type="text/css">
	.st0{fill:#101422;}
	.st1{fill:#FFFFFF;stroke:#111422;stroke-linecap:round;stroke-linejoin:round;stroke-miterlimit:10;}
	
		.st2{fill-rule:evenodd;clip-rule:evenodd;fill:#C6C3D1;stroke:#101320;stroke-linecap:round;stroke-linejoin:round;stroke-miterlimit:10;}
	
		.st3{fill-rule:evenodd;clip-rule:evenodd;fill:#FFFFFF;stroke:#111422;stroke-linecap:round;stroke-linejoin:round;stroke-miterlimit:10;}
	
		.st4{fill-rule:evenodd;clip-rule:evenodd;fill:#ECF0FC;stroke:#111422;stroke-linecap:round;stroke-linejoin:round;stroke-miterlimit:10;}
	.st5{opacity:0.92;fill-rule:evenodd;clip-rule:evenodd;fill:#FFFFFF;enable-background:new    ;}
	.st6{fill:none;stroke:#FFFFFF;stroke-linecap:round;stroke-linejoin:round;stroke-miterlimit:10;}
	.st7{fill-rule:evenodd;clip-rule:evenodd;fill:#101422;}
	.st8{fill:url(#SVGID_1_);}
	.st9{fill:url(#SVGID_00000108987118818203231550000014963106196632763539_);}
	.st10{fill:url(#SVGID_00000041983134165096817980000001435438198141975733_);}
	.st11{opacity:0.67;fill:url(#SVGID_00000082365118950390260070000014021815695372282039_);enable-background:new    ;}
	.st12{fill:#6FA3B6;}
	.st13{fill:url(#SVGID_00000080171846901461838200000005398624918297439369_);}
	.st14{opacity:0.2563;fill-rule:evenodd;clip-rule:evenodd;fill:#FFFFFF;enable-background:new    ;}
	.st15{fill:none;stroke:#FFFFFF;stroke-width:0.7384;stroke-linecap:round;stroke-linejoin:round;stroke-miterlimit:10;}
	
		.st16{fill:none;stroke:url(#SVGID_00000046327206325819636140000000141071972642560932_);stroke-width:5;stroke-linecap:round;stroke-linejoin:round;stroke-miterlimit:10;}
	.st17{fill:url(#SVGID_00000065075488719071004300000001823094896728227713_);}
	.st18{fill-rule:evenodd;clip-rule:evenodd;fill:#1AD4B3;}
	.st19{fill-rule:evenodd;clip-rule:evenodd;fill:#FC4F83;}
	.st20{fill:#C6C3D1;stroke:#101320;stroke-linecap:round;stroke-linejoin:round;stroke-miterlimit:10;}
	.st21{fill:#ECF0FC;stroke:#111422;stroke-linecap:round;stroke-linejoin:round;stroke-miterlimit:10;}
	
		.st22{fill:url(#SVGID_00000062165691826898826660000017788497284355834815_);stroke:#1D1D1B;stroke-width:0.2115;stroke-linecap:round;stroke-linejoin:round;stroke-miterlimit:10;}
	
		.st23{fill:url(#SVGID_00000003816701161990392400000011098695295214388377_);stroke:#1D1D1B;stroke-width:0.2115;stroke-linecap:round;stroke-linejoin:round;stroke-miterlimit:10;}
	
		.st24{fill:url(#SVGID_00000116194343065244895690000011276465342269369524_);stroke:#1D1D1B;stroke-width:0.2115;stroke-linecap:round;stroke-linejoin:round;stroke-miterlimit:10;}
	
		.st25{fill:url(#SVGID_00000047029441412977271050000000311802624983920306_);stroke:#1D1D1B;stroke-width:0.2115;stroke-linecap:round;stroke-linejoin:round;stroke-miterlimit:10;}
	
		.st26{fill-rule:evenodd;clip-rule:evenodd;fill:#101422;stroke:#101423;stroke-linecap:round;stroke-linejoin:round;stroke-miterlimit:10;}
	.st27{fill:#FFFFFF;}
	.st28{fill-rule:evenodd;clip-rule:evenodd;fill:url(#SVGID_00000079464380001503515420000013891483502752935594_);}
	.st29{fill-rule:evenodd;clip-rule:evenodd;fill:url(#SVGID_00000171697805300404397500000000986815352783447206_);}
	.st30{fill:url(#SVGID_00000040561240284342479720000014679601328065138057_);}
	.st31{fill:url(#SVGID_00000035492626643125469990000004277834166423456179_);}
	.st32{fill:url(#SVGID_00000158749122723117086900000005693865837354104503_);}
	
		.st33{fill-rule:evenodd;clip-rule:evenodd;fill:#C7FFF1;stroke:#101320;stroke-linecap:round;stroke-linejoin:round;stroke-miterlimit:10;}
	
		.st34{fill:none;stroke:url(#SVGID_00000116216766495582186520000018351457685362892436_);stroke-width:5;stroke-linecap:round;stroke-linejoin:round;stroke-miterlimit:10;}
	.st35{fill:url(#SVGID_00000051386059441262304200000000056998294647467935_);}
	
		.st36{fill:none;stroke:url(#SVGID_00000165206651710141820180000006418577953401724298_);stroke-width:5;stroke-linecap:round;stroke-linejoin:round;stroke-miterlimit:10;}
	.st37{fill:url(#SVGID_00000165204727123876203170000002841662013162589116_);}
	
		.st38{fill:none;stroke:url(#SVGID_00000014608494165156902170000012460618611749470111_);stroke-width:5;stroke-linecap:round;stroke-linejoin:round;stroke-miterlimit:10;}
	.st39{fill:url(#SVGID_00000179640454622441721710000001344286633131784094_);}
	
		.st40{fill-rule:evenodd;clip-rule:evenodd;fill:#1AD4B3;stroke:#111422;stroke-linecap:round;stroke-linejoin:round;stroke-miterlimit:10;}
	
		.st41{fill-rule:evenodd;clip-rule:evenodd;fill:#FC4F83;stroke:#111422;stroke-linecap:round;stroke-linejoin:round;stroke-miterlimit:10;}
	
		.st42{fill-rule:evenodd;clip-rule:evenodd;fill:#FFCAD7;stroke:#111422;stroke-linecap:round;stroke-linejoin:round;stroke-miterlimit:10;}
	.st43{fill:url(#SVGID_00000145026274972875614120000000240746956700214402_);}
	.st44{fill:url(#SVGID_00000019674596082810286770000010610096637084042132_);}
	.st45{fill:url(#SVGID_00000148650985271568087300000009451542320440659584_);}
	
		.st46{fill:none;stroke:url(#SVGID_00000000901415535159897810000009746579671255093946_);stroke-width:5;stroke-linecap:round;stroke-linejoin:round;stroke-miterlimit:10;}
	.st47{fill:url(#SVGID_00000171709857782208097110000003553335881660555409_);}
	
		.st48{fill:none;stroke:url(#SVGID_00000068645409929837283320000013151875218688097186_);stroke-width:5;stroke-linecap:round;stroke-linejoin:round;stroke-miterlimit:10;}
	.st49{fill:url(#SVGID_00000160869279184548750830000000059968706514684321_);}
	.st50{fill:url(#SVGID_00000169521920148052281430000006613799250401818796_);}
	.st51{fill:#101320;}
	.st52{fill:url(#SVGID_00000181064401796986394220000015092526350351092616_);}
	.st53{fill:url(#SVGID_00000153671444332114304010000006361949770260509625_);}
	.st54{fill:url(#SVGID_00000086654379935466218610000007751177890121287601_);}
	.st55{fill:url(#SVGID_00000052096059255988683820000002938420818170327448_);}
	.st56{fill:url(#SVGID_00000166650826499757812120000010826243870357051546_);}
	.st57{fill:url(#SVGID_00000143619517151069446440000018104341305094319501_);}
	.st58{opacity:0.29;fill:url(#SVGID_00000039111576647147806520000003726657717009090177_);enable-background:new    ;}
	.st59{fill:url(#SVGID_00000130647467526479315240000016294492415119809938_);}
	.st60{fill:url(#SVGID_00000043425246803050447770000017573193292290527360_);}
	.st61{fill:url(#SVGID_00000155854747884423301520000000321054075262332311_);}
	.st62{fill-rule:evenodd;clip-rule:evenodd;fill:url(#SVGID_00000048492824503690462770000000744636316220615586_);}
	.st63{fill:url(#SVGID_00000025436886796542649940000015505629945288025778_);}
	.st64{fill:url(#SVGID_00000124882203370502804840000013207296900919526803_);}
	.st65{fill:url(#SVGID_00000080205497187126499000000007098422598633309319_);}
	.st66{fill:url(#SVGID_00000032626716119091952880000008612398509868848042_);}
	.st67{opacity:0.29;fill:url(#SVGID_00000073719959534078672570000003618183440303958403_);enable-background:new    ;}
	
		.st68{fill:none;stroke:url(#SVGID_00000006665653037545107320000008340900312936302487_);stroke-width:5;stroke-linecap:round;stroke-linejoin:round;stroke-miterlimit:10;}
	.st69{fill:url(#SVGID_00000169556692822111943920000017833443079166691990_);}
	
		.st70{fill:none;stroke:url(#SVGID_00000114061879729445812600000007359047865892342174_);stroke-width:5;stroke-linecap:round;stroke-linejoin:round;stroke-miterlimit:10;}
	.st71{fill:url(#SVGID_00000145033984732618518920000002819952763967319686_);}
	
		.st72{fill:none;stroke:url(#SVGID_00000132800559762255080550000007680221737041694086_);stroke-width:5;stroke-linecap:round;stroke-linejoin:round;stroke-miterlimit:10;}
	.st73{fill:url(#SVGID_00000043456935245503603550000004251177781000974233_);}
	.st74{fill-rule:evenodd;clip-rule:evenodd;fill:url(#SVGID_00000159462683052616275910000008300219889447862203_);}
	.st75{fill:url(#SVGID_00000016774156378815082900000011636210722373301427_);}
	.st76{fill:url(#SVGID_00000052805568177614145000000008989491473422568598_);}
	.st77{fill:url(#SVGID_00000021824688858019142210000012858801994291638463_);}
	.st78{opacity:0.29;fill:url(#SVGID_00000112606546562331746500000004825858410394256812_);}
	.st79{opacity:0.29;fill:url(#SVGID_00000142171354819907441930000010020291583111809675_);}
	.st80{opacity:0.67;fill:url(#SVGID_00000049182963087129806660000006078257701804901803_);}
	.st81{fill:#3FA9BD;}
	.st82{fill:url(#SVGID_00000144334457980148490320000013648674428296507068_);}
	.st83{fill-rule:evenodd;clip-rule:evenodd;fill:#555069;}
	.st84{fill-rule:evenodd;clip-rule:evenodd;fill:#FFFFFF;}
	.st85{fill-rule:evenodd;clip-rule:evenodd;fill:#AFAFB1;}
	.st86{fill-rule:evenodd;clip-rule:evenodd;fill:#D3D3D3;}
	.st87{opacity:0.67;fill:url(#SVGID_00000040541283087154277310000001249852988628324249_);}
	.st88{fill:url(#SVGID_00000095329906074300153110000003968236777654731190_);}
	.st89{opacity:0.67;fill:url(#SVGID_00000106855109353406234820000013463792121462990494_);}
	.st90{fill:url(#SVGID_00000166656999786618399910000008947839290485799576_);}
	.st91{opacity:0.67;fill:url(#SVGID_00000023975566842280847360000011324399454696742288_);}
	.st92{fill:url(#SVGID_00000100360374749774657580000005378337674013400997_);}
	.st93{opacity:0.67;fill:url(#SVGID_00000057846996124243074230000017568352536040760732_);}
	.st94{fill:url(#SVGID_00000182504642327144833710000012771123357280187523_);}
	.st95{opacity:0.67;fill:url(#SVGID_00000016035006374170290770000013312149752022405266_);}
	.st96{fill:url(#SVGID_00000171712918108120238850000006479066744155796371_);}
	.st97{fill:#1AD4B3;}
	.st98{opacity:0.67;fill:url(#SVGID_00000097481927723349455890000015147423311449673649_);}
	.st99{fill:url(#SVGID_00000133518744847466589200000011202995963838322569_);}
	.st100{opacity:0.67;fill:url(#SVGID_00000067209854081471928990000002592503902954974119_);}
	.st101{fill:url(#SVGID_00000041292739831918258390000001220268066059068834_);}
	.st102{opacity:0.67;fill:url(#SVGID_00000125567829861464911600000008003350476238117267_);}
	.st103{fill:url(#SVGID_00000048469689017857699830000010146814412102843785_);}
	
		.st104{fill-rule:evenodd;clip-rule:evenodd;fill:none;stroke:#FFFFFF;stroke-width:0.7384;stroke-linecap:round;stroke-linejoin:round;stroke-miterlimit:10;}
	.st105{opacity:0.67;fill:url(#SVGID_00000134220499665976461050000000616905885676504454_);}
	.st106{fill:url(#SVGID_00000148629998181230137870000004839168140667093378_);}
	.st107{opacity:0.67;fill:url(#SVGID_00000026884107265662635610000005780592125351133599_);}
	.st108{fill:url(#SVGID_00000016787584448971515730000006278957951069923754_);}
	.st109{opacity:0.67;fill:url(#SVGID_00000095324447425634004560000004990087890666558616_);}
	.st110{fill:url(#SVGID_00000133502176802770834840000018424901020908178866_);}
	.st111{opacity:0.67;fill:url(#SVGID_00000075132659491216582510000008753224338526367378_);}
	.st112{fill:url(#SVGID_00000116947590432173085010000000507750855738092988_);}
	.st113{opacity:0.67;fill:url(#SVGID_00000178164610680445880170000002910068980882831016_);}
	.st114{fill:url(#SVGID_00000078022579268162044240000017062946242587025037_);}
	.st115{opacity:0.67;fill:url(#SVGID_00000000902403004889159290000011736371996086436799_);}
	.st116{fill:url(#SVGID_00000166648490535912105340000016794258234485874594_);}
	.st117{opacity:0.67;fill:url(#SVGID_00000123432324118224369930000008640058123737727406_);}
	.st118{fill:url(#SVGID_00000012451664339761040820000015686555697067918781_);}
	.st119{opacity:0.67;fill:url(#SVGID_00000129892131621575482460000005528373174684125838_);}
	.st120{fill:url(#SVGID_00000008138933936756353230000018002711864540738734_);}
	.st121{opacity:0.67;fill:url(#SVGID_00000075135300102054896470000015833332105069737389_);}
	.st122{fill:url(#SVGID_00000172411093896280121490000015016028038942166697_);}
	.st123{opacity:0.67;fill:url(#SVGID_00000135657870175473894900000001936041045095527048_);}
	.st124{fill:url(#SVGID_00000011025012811589458570000002086110621138082964_);}
	.st125{opacity:0.67;fill:url(#SVGID_00000004539183097151277120000013000216830050834352_);}
	.st126{fill:url(#SVGID_00000018205579563965504660000002189284686550874515_);}
	.st127{opacity:0.67;fill:url(#SVGID_00000041983751084890388880000003178135622766935695_);}
	.st128{fill:#5EA6B9;}
	.st129{fill:url(#SVGID_00000014627850883231195330000005595670711399438775_);}
	.st130{fill-rule:evenodd;clip-rule:evenodd;fill:#545067;}
	.st131{fill-rule:evenodd;clip-rule:evenodd;fill:#AEAEB0;}
	.st132{fill-rule:evenodd;clip-rule:evenodd;fill:#D2D2D2;}
	.st133{opacity:0.67;fill:url(#SVGID_00000004513108340947611900000016198677235479601581_);}
	.st134{fill:url(#SVGID_00000052786198211907142170000011727911713783090060_);}
	.st135{fill-rule:evenodd;clip-rule:evenodd;fill:#63D0B3;}
	
		.st136{fill-rule:evenodd;clip-rule:evenodd;fill:none;stroke:#111422;stroke-linecap:round;stroke-linejoin:round;stroke-miterlimit:10;}
	.st137{fill-rule:evenodd;clip-rule:evenodd;fill:#E85C83;}
	.st138{fill:#5DC29D;}
	.st139{fill:url(#SVGID_00000137841054268427575280000003145364790107934621_);}
	.st140{fill:url(#SVGID_00000039128690732689385990000009415214382054545037_);}
	.st141{fill:#E85C83;}
	.st142{opacity:0.67;fill:url(#SVGID_00000160870202359290513410000006329261663819666056_);}
	.st143{fill:url(#SVGID_00000056426712736422152600000016194292691690379943_);}
	
		.st144{fill:none;stroke:url(#SVGID_00000043446034790699577210000011530439921015671968_);stroke-width:5;stroke-linecap:round;stroke-linejoin:round;stroke-miterlimit:10;}
	.st145{fill:url(#SVGID_00000050642989715125670970000018266045115104092575_);}
	.st146{opacity:0.67;fill:url(#SVGID_00000093158044526337125360000014393876687954902148_);}
	.st147{fill:url(#SVGID_00000057866812149959729010000017137433613261790850_);}
	.st148{opacity:0.67;fill:url(#SVGID_00000067237270424227539220000009980359124869005494_);}
	.st149{fill:url(#SVGID_00000142879972039506205280000013358814205479967623_);}
	.st150{opacity:0.67;fill:url(#SVGID_00000025428812184739406550000008537333650795645865_);}
	.st151{fill:url(#SVGID_00000152231675784462123420000010781509813363218868_);}
	.st152{opacity:0.67;fill:url(#SVGID_00000092426860221552872150000005351349996243355579_);}
	.st153{fill:url(#SVGID_00000183220532761202030600000007180251419011529377_);}
	.st154{opacity:0.67;fill:url(#SVGID_00000090279820617075791820000000542773178109307060_);}
	.st155{fill:url(#SVGID_00000106112815398022879790000001262300487976009641_);}
	.st156{opacity:0.67;fill:url(#SVGID_00000111908860478909041560000018010212416193926814_);}
	.st157{fill:url(#SVGID_00000009572529561599980200000014121757276139354546_);}
	.st158{fill:none;stroke:#000000;stroke-width:22;stroke-linecap:round;stroke-linejoin:round;stroke-miterlimit:10;}
	.st159{fill:#ECF0FC;}
	.st160{fill:url(#SVGID_00000040572191298365435670000018011746071563559099_);}
	.st161{fill:url(#SVGID_00000129890379698520524340000010157461350841440142_);}
	.st162{fill:none;stroke:url(#SVGID_00000056400948573161038910000018398250531948576172_);stroke-width:5;stroke-miterlimit:10;}
	.st163{fill:#111422;}
	.st164{fill:url(#SVGID_00000168084493602432574750000003944538261165919116_);}
	.st165{fill:none;}
	.st166{opacity:0.67;fill:url(#SVGID_00000063600643775271304060000011480506087053929886_);}
	.st167{fill:url(#SVGID_00000131332217397553304280000012650054137062974637_);}
	.st168{fill:none;stroke:url(#SVGID_00000126296292103821536430000007148055148658659246_);stroke-width:5;stroke-miterlimit:10;}
	.st169{fill:url(#SVGID_00000080918916554634061160000009491303069318881461_);}
	.st170{opacity:0.67;fill:url(#SVGID_00000010306727843614316010000015623268108338319765_);}
	.st171{fill:url(#SVGID_00000145017013054916044290000003868059495743302565_);}
	.st172{opacity:0.67;fill:url(#SVGID_00000163046074010040361860000004528306516706960554_);}
	.st173{fill:url(#SVGID_00000093880815881168545850000006170462153079791496_);}
</style>
<g>
	<polygon class="st2" points="211.62,351.97 181.12,334.36 181.12,303.86 211.62,321.47 	"/>
	<polygon class="st3" points="211.62,351.97 242.12,334.36 242.12,303.86 211.62,321.47 	"/>
	<polygon class="st4" points="211.73,321.56 181.12,303.89 211.51,286.18 242.13,303.86 	"/>
	<path id="矩形_00000097470792861218074540000014695661980223527827_" class="st5" d="M201.83,296.38L201.83,296.38
		c0.6,0.34,0.5,1-0.21,1.42l-6.33,3.75c-0.71,0.42-1.84,0.49-2.44,0.15l0,0c-0.6-0.34-0.5-1,0.21-1.42l6.33-3.75
		C200.1,296.11,201.23,296.04,201.83,296.38z"/>
	<path id="矩形_00000170970761544490986820000012691897215981872783_" class="st5" d="M191.29,302.5L191.29,302.5
		c0.6,0.34,0.5,1-0.21,1.42l-1.23,0.73c-0.71,0.42-1.84,0.49-2.44,0.15l0,0c-0.6-0.34-0.5-1,0.21-1.42l1.23-0.73
		C189.61,302.2,190.69,302.16,191.29,302.5z"/>
</g>
<g>
	<linearGradient id="SVGID_1_" gradientUnits="userSpaceOnUse" x1="168.2829" y1="222.2906" x2="178.1248" y2="222.2906">
		<stop  offset="0" style="stop-color:#A85699"/>
		<stop  offset="1" style="stop-color:#5DB6C3"/>
	</linearGradient>
	<path class="st8" d="M168.28,228.57v-1.47l7.13-9.15v-0.13h-6.9v-1.8h9.38v1.54l-6.93,9.09v0.13h7.16v1.8H168.28z"/>
</g>
<g>
	
		<linearGradient id="SVGID_00000119106454938401070450000013430308459555702958_" gradientUnits="userSpaceOnUse" x1="199.3513" y1="227.1961" x2="215.8591" y2="227.1961">
		<stop  offset="0" style="stop-color:#A85699"/>
		<stop  offset="1" style="stop-color:#5DB6C3"/>
	</linearGradient>
	<path style="fill:url(#SVGID_00000119106454938401070450000013430308459555702958_);" d="M199.35,237.73v-2.47l11.96-15.36v-0.22
		h-11.57v-3.02h15.74v2.58l-11.63,15.25v0.22h12.01v3.02H199.35z"/>
</g>
<g>
	
		<linearGradient id="SVGID_00000093892424347543176530000011491374677631328928_" gradientUnits="userSpaceOnUse" x1="211.1853" y1="186.9052" x2="233.1217" y2="186.9052">
		<stop  offset="0" style="stop-color:#A85699"/>
		<stop  offset="1" style="stop-color:#5DB6C3"/>
	</linearGradient>
	<path style="fill:url(#SVGID_00000093892424347543176530000011491374677631328928_);" d="M211.19,200.9v-3.28l15.89-20.41v-0.29
		h-15.38v-4.01h20.92v3.43l-15.45,20.26v0.29h15.96v4.01H211.19z"/>
</g>
<g>
	
		<radialGradient id="SVGID_00000181796266838798665790000013316061355776982922_" cx="154.907" cy="387.5575" r="29.1415" gradientTransform="matrix(1 0 0 0.5898 0 158.9787)" gradientUnits="userSpaceOnUse">
		<stop  offset="0" style="stop-color:#B8B3D4"/>
		<stop  offset="0.3457" style="stop-color:#BAB6D6;stop-opacity:0.6543"/>
		<stop  offset="0.6064" style="stop-color:#C2C0DA;stop-opacity:0.3936"/>
		<stop  offset="0.8384" style="stop-color:#D0D0E3;stop-opacity:0.1616"/>
		<stop  offset="1" style="stop-color:#DDE0EB;stop-opacity:0"/>
	</radialGradient>
	<path style="opacity:0.67;fill:url(#SVGID_00000181796266838798665790000013316061355776982922_);" d="M179.89,373.49
		c-13.67-7.89-35.94-7.99-49.74-0.23c-13.8,7.77-13.9,20.46-0.23,28.36s35.94,7.99,49.74,0.23
		C193.46,394.08,193.56,381.38,179.89,373.49z"/>
	<g>
		<path class="st81" d="M190.86,337.78V288.5c0-0.23,0.02-0.45,0.02-0.68c0-22.91-18.57-41.48-41.48-41.48
			c-22.91,0-41.48,18.57-41.48,41.48c0,0.36,0.02,0.72,0.03,1.07v44.66h-0.03v22.67c0,2.84,2.3,5.15,5.15,5.15
			c2.84,0,5.15-2.31,5.15-5.15v-0.83c0.56,0.36,1.13,0.72,1.74,1.07c1.83,1.06,3.79,1.99,5.85,2.81v8.2c0,2.84,2.3,5.15,5.15,5.15
			c2.84,0,5.15-2.31,5.15-5.15v-5.23c2.95,0.57,5.99,0.96,9.06,1.14v12.59c0,2.84,2.3,5.15,5.15,5.15s5.15-2.31,5.15-5.15v-12.7
			c3.39-0.28,6.73-0.8,9.93-1.55v6.36c0,2.84,2.3,5.15,5.15,5.15s5.15-2.31,5.15-5.15v-9.87c1-0.47,1.97-0.96,2.91-1.49
			c0.7-0.39,1.35-0.8,1.99-1.21v0.71c0,2.84,2.3,5.15,5.15,5.15c2.84,0,5.15-2.31,5.15-5.15v-18.45H190.86z"/>
		
			<radialGradient id="SVGID_00000061472712264018964540000017780870265822187662_" cx="174.083" cy="263.7644" r="106.6854" gradientUnits="userSpaceOnUse">
			<stop  offset="0.0124" style="stop-color:#DD78CE"/>
			<stop  offset="0.4936" style="stop-color:#A7589A"/>
			<stop  offset="0.5829" style="stop-color:#A0619E"/>
			<stop  offset="0.7273" style="stop-color:#8E79A8"/>
			<stop  offset="0.9078" style="stop-color:#709FB9"/>
			<stop  offset="1" style="stop-color:#5EB6C3"/>
		</radialGradient>
		<path style="fill:url(#SVGID_00000061472712264018964540000017780870265822187662_);" d="M190.86,337.78V288.5
			c0-0.23,0.02-0.45,0.02-0.68c0-22.91-18.57-41.48-41.48-41.48c-22.91,0-41.48,18.57-41.48,41.48c0,0.36,0.02,0.72,0.03,1.07v44.66
			h-0.03v22.67c0,2.84,2.3,5.15,5.15,5.15c2.84,0,5.15-2.31,5.15-5.15v-0.83c0.56,0.36,1.13,0.72,1.74,1.07
			c1.83,1.06,3.79,1.99,5.85,2.81v8.2c0,2.84,2.3,5.15,5.15,5.15c2.84,0,5.15-2.31,5.15-5.15v-5.23c2.95,0.57,5.99,0.96,9.06,1.14
			v12.59c0,2.84,2.3,5.15,5.15,5.15s5.15-2.31,5.15-5.15v-12.7c3.39-0.28,6.73-0.8,9.93-1.55v6.36c0,2.84,2.3,5.15,5.15,5.15
			s5.15-2.31,5.15-5.15v-9.87c1-0.47,1.97-0.96,2.91-1.49c0.7-0.39,1.35-0.8,1.99-1.21v0.71c0,2.84,2.3,5.15,5.15,5.15
			c2.84,0,5.15-2.31,5.15-5.15v-18.45H190.86z"/>
	</g>
	<path id="矩形_00000175296417502330949940000010648230615984238256_" class="st14" d="M111.83,323.64L111.83,323.64
		c1.12,0,2.08,1.38,2.08,2.99v14.25c0,1.61-0.96,2.99-2.08,2.99l0,0c-1.12,0-2.08-1.38-2.08-2.99v-14.25
		C109.75,325.02,110.71,323.64,111.83,323.64z"/>
	<path id="矩形_00000051354776684380542120000004367625321949349027_" class="st14" d="M111.83,349.43L111.83,349.43
		c1.12,0,2.08,1.38,2.08,2.99v2.76c0,1.61-0.96,2.99-2.08,2.99l0,0c-1.12,0-2.08-1.38-2.08-2.99v-2.76
		C109.75,350.7,110.71,349.43,111.83,349.43z"/>
	<path id="矩形_00000110434975425298067340000000398397039854040205_" class="st14" d="M129.22,360.21L129.22,360.21
		c1.12,0,2.08,1.38,2.08,2.99v2.76c0,1.61-0.96,2.99-2.08,2.99l0,0c-1.12,0-2.08-1.38-2.08-2.99v-2.76
		C127.14,361.47,128.1,360.21,129.22,360.21z"/>
	<path id="矩形_00000123403041713965501730000014715364816607452845_" class="st14" d="M149.4,368.94L149.4,368.94
		c1.12,0,2.08,1.38,2.08,2.99v2.76c0,1.61-0.96,2.99-2.08,2.99l0,0c-1.12,0-2.08-1.38-2.08-2.99v-2.76
		C147.31,370.21,148.27,368.94,149.4,368.94z"/>
	<path id="矩形_00000101803568991221213380000010953932042352268430_" class="st14" d="M169.09,363.6L169.09,363.6
		c0.89,0,1.66,1.1,1.66,2.37v2.19c0,1.28-0.76,2.37-1.66,2.37l0,0c-0.89,0-1.66-1.1-1.66-2.37v-2.19
		C167.43,364.61,168.2,363.6,169.09,363.6z"/>
	<path id="矩形_00000142866738084241984220000014359196539886064777_" class="st14" d="M183.88,353.44L183.88,353.44
		c0.62,0,1.14,0.76,1.14,1.64v1.51c0,0.88-0.53,1.64-1.14,1.64l0,0c-0.62,0-1.14-0.76-1.14-1.64v-1.51
		C182.74,354.14,183.27,353.44,183.88,353.44z"/>
	<line class="st104" x1="149.97" y1="304.48" x2="161.66" y2="300.16"/>
	<line class="st104" x1="173.2" y1="296.75" x2="184.89" y2="292.43"/>
</g>
<path id="矩形_00000094615620647633312080000002656045730005282233_" class="st14" d="M171.86,259.14L171.86,259.14
	c1.37-1.02,3.68-0.37,5.02,1.41l2.29,3.06c1.34,1.79,1.31,4.19-0.06,5.22l0,0c-1.37,1.02-3.68,0.37-5.02-1.41l-2.29-3.06
	C170.37,262.44,170.49,260.16,171.86,259.14z"/>
<g>
	<g>
		<g>
			<g>
				<polygon class="st2" points="158.6,481.88 44.09,415.87 44.09,374.08 158.6,440.09 				"/>
				<polygon class="st3" points="158.6,481.88 179.57,470.89 179.57,429.1 158.6,440.09 				"/>
				<polygon class="st4" points="158.75,440.21 44.09,374.12 64.91,363 179.57,429.09 				"/>
			</g>
		</g>
	</g>
	<g>
		<polygon class="st2" points="151.94,452.05 53.05,395.2 53.05,388.41 151.94,445.27 		"/>
		<polygon class="st4" points="151.79,450.92 54.13,394.62 54.12,389 151.78,445.3 		"/>
		<polygon class="st18" points="123.71,434.03 54.72,394.42 54.71,390.03 123.7,429.77 		"/>
	</g>
	<g>
		<polygon class="st2" points="151.94,465.85 53.05,409 53.05,402.21 151.94,459.07 		"/>
		<polygon class="st4" points="151.79,464.72 54.13,408.42 54.12,402.8 151.78,459.1 		"/>
		<polygon class="st19" points="93.29,430.33 54.72,408.22 54.71,403.83 93.28,426.07 		"/>
	</g>
</g>
<g>
	<polygon class="st2" points="222.15,308.93 204.52,298.75 204.52,281.12 222.15,291.3 	"/>
	<polygon class="st3" points="222.15,308.93 239.78,298.75 239.78,281.12 222.15,291.3 	"/>
	<polygon class="st4" points="222.22,291.35 204.52,281.14 222.09,270.9 239.78,281.12 	"/>
	<path id="矩形_00000008835325966006391610000016989482223732770233_" class="st5" d="M216.63,276.63L216.63,276.63
		c0.35,0.2,0.29,0.58-0.12,0.82l-3.66,2.17c-0.41,0.24-1.06,0.29-1.41,0.09l0,0c-0.35-0.2-0.29-0.58,0.12-0.82l3.66-2.17
		C215.63,276.47,216.28,276.43,216.63,276.63z"/>
	<path id="矩形_00000107590920430511317350000009376957701646319021_" class="st5" d="M210.54,280.16L210.54,280.16
		c0.35,0.2,0.29,0.58-0.12,0.82l-0.71,0.42c-0.41,0.24-1.06,0.29-1.41,0.09l0,0c-0.35-0.2-0.29-0.58,0.12-0.82l0.71-0.42
		C209.57,279.99,210.19,279.97,210.54,280.16z"/>
</g>
<g>
	<polygon class="st2" points="225.03,372.81 207.4,362.63 207.4,345 225.03,355.18 	"/>
	<polygon class="st3" points="225.03,372.81 242.66,362.63 242.66,345 225.03,355.18 	"/>
	<polygon class="st4" points="225.09,355.24 207.4,345.02 224.97,334.79 242.66,345 	"/>
	<path id="矩形_00000001651599796411897920000018387228726600695711_" class="st5" d="M219.5,340.51L219.5,340.51
		c0.35,0.2,0.29,0.58-0.12,0.82l-3.66,2.17c-0.41,0.24-1.06,0.29-1.41,0.09l0,0c-0.35-0.2-0.29-0.58,0.12-0.82l3.66-2.17
		C218.51,340.36,219.16,340.31,219.5,340.51z"/>
	<path id="矩形_00000180346422524111650200000018427739023138151866_" class="st5" d="M213.41,344.05L213.41,344.05
		c0.35,0.2,0.29,0.58-0.12,0.82l-0.71,0.42c-0.41,0.24-1.06,0.29-1.41,0.09l0,0c-0.35-0.2-0.29-0.58,0.12-0.82l0.71-0.42
		C212.44,343.87,213.06,343.85,213.41,344.05z"/>
</g>
<g>
	<g>
		<path class="st21" d="M101.78,259.33l-6.15-19.81c1.01-0.41,1.96-0.87,2.9-1.42c15.99-9.27,29.5-37.22,29.5-61.03
			c0-13.15-3.96-20.12-7.67-22.25c-3.46-1.99-7.94-0.23-11.1,1.6c-15.98,9.27-29.49,37.22-29.49,61.03c0,2.81,0.19,5.49,0.57,7.97
			l-21.12,3.23c-0.54-3.54-0.82-7.31-0.82-11.19c0-31.54,17.63-66.46,40.14-79.51c11.35-6.58,22.88-7.16,32.48-1.63
			c11.68,6.73,18.37,21.59,18.37,40.77c0,31.54-17.63,66.46-40.14,79.51C107.46,257.62,103.71,258.55,101.78,259.33z"/>
	</g>
	<path class="st158" d="M108.16,144.77c-1.4,0.57-2.82,1.25-4.26,2.09C84.67,158,69.08,189.46,69.08,217.13s15.59,41.05,34.81,29.9
		c19.23-11.15,34.81-42.61,34.81-70.27c0-3.42-0.24-6.62-0.69-9.58"/>
	<path class="st159" d="M147.08,160.92c0.82,3.81-1.4,6.65-7,8.86c-5.6,2.2-12.12-0.84-12.86-4.6c-0.74-3.8-2.37-11.02,5.03-13.27
		C141.37,149.13,146.26,157.13,147.08,160.92z"/>
</g>
</svg>
