<?xml version="1.0" encoding="utf-8"?>
<!-- Generator: Adobe Illustrator 27.8.1, SVG Export Plug-In . SVG Version: 6.00 Build 0)  -->
<svg version="1.1" id="Слой_1" xmlns="http://www.w3.org/2000/svg" xmlns:xlink="http://www.w3.org/1999/xlink" x="0px" y="0px"
	 viewBox="0 0 290 269.62" style="enable-background:new 0 0 290 269.62;" xml:space="preserve">
<style type="text/css">
	.st0{fill:#101422;}
	.st1{fill:#FFFFFF;stroke:#111422;stroke-linecap:round;stroke-linejoin:round;stroke-miterlimit:10;}
	
		.st2{fill-rule:evenodd;clip-rule:evenodd;fill:#C6C3D1;stroke:#101320;stroke-linecap:round;stroke-linejoin:round;stroke-miterlimit:10;}
	
		.st3{fill-rule:evenodd;clip-rule:evenodd;fill:#FFFFFF;stroke:#111422;stroke-linecap:round;stroke-linejoin:round;stroke-miterlimit:10;}
	
		.st4{fill-rule:evenodd;clip-rule:evenodd;fill:#ECF0FC;stroke:#111422;stroke-linecap:round;stroke-linejoin:round;stroke-miterlimit:10;}
	.st5{opacity:0.92;fill-rule:evenodd;clip-rule:evenodd;fill:#FFFFFF;enable-background:new    ;}
	.st6{fill:none;stroke:#FFFFFF;stroke-linecap:round;stroke-linejoin:round;stroke-miterlimit:10;}
	.st7{fill-rule:evenodd;clip-rule:evenodd;fill:#101422;}
	.st8{fill:url(#SVGID_1_);}
	.st9{fill:url(#SVGID_00000025406718692007601860000009667562766885284534_);}
	.st10{fill:url(#SVGID_00000017474140826923875770000003777239575889964989_);}
	.st11{opacity:0.67;fill:url(#SVGID_00000155142331562560098070000008403315276456828548_);enable-background:new    ;}
	.st12{fill:#6FA3B6;}
	.st13{fill:url(#SVGID_00000100362455384729461640000012780728193239812520_);}
	.st14{opacity:0.2563;fill-rule:evenodd;clip-rule:evenodd;fill:#FFFFFF;enable-background:new    ;}
	.st15{fill:none;stroke:#FFFFFF;stroke-width:0.7384;stroke-linecap:round;stroke-linejoin:round;stroke-miterlimit:10;}
	
		.st16{fill:none;stroke:url(#SVGID_00000048481829997438478860000014041883396030086563_);stroke-width:5;stroke-linecap:round;stroke-linejoin:round;stroke-miterlimit:10;}
	.st17{fill:url(#SVGID_00000132045640543018769160000011988045191645317296_);}
	.st18{fill-rule:evenodd;clip-rule:evenodd;fill:#1AD4B3;}
	.st19{fill-rule:evenodd;clip-rule:evenodd;fill:#FC4F83;}
	.st20{fill:#C6C3D1;stroke:#101320;stroke-linecap:round;stroke-linejoin:round;stroke-miterlimit:10;}
	.st21{fill:#ECF0FC;stroke:#111422;stroke-linecap:round;stroke-linejoin:round;stroke-miterlimit:10;}
	
		.st22{fill:url(#SVGID_00000123432824163026458890000003168874736241524399_);stroke:#1D1D1B;stroke-width:0.2115;stroke-linecap:round;stroke-linejoin:round;stroke-miterlimit:10;}
	
		.st23{fill:url(#SVGID_00000034063284713800501610000010555606422875243962_);stroke:#1D1D1B;stroke-width:0.2115;stroke-linecap:round;stroke-linejoin:round;stroke-miterlimit:10;}
	
		.st24{fill:url(#SVGID_00000057846330206096911630000003745790743150780561_);stroke:#1D1D1B;stroke-width:0.2115;stroke-linecap:round;stroke-linejoin:round;stroke-miterlimit:10;}
	
		.st25{fill:url(#SVGID_00000121961789674464033350000002084523152970463679_);stroke:#1D1D1B;stroke-width:0.2115;stroke-linecap:round;stroke-linejoin:round;stroke-miterlimit:10;}
	
		.st26{fill-rule:evenodd;clip-rule:evenodd;fill:#101422;stroke:#101423;stroke-linecap:round;stroke-linejoin:round;stroke-miterlimit:10;}
	.st27{fill:#FFFFFF;}
	.st28{fill-rule:evenodd;clip-rule:evenodd;fill:url(#SVGID_00000031906557017204228080000003379297628191416234_);}
	.st29{fill-rule:evenodd;clip-rule:evenodd;fill:url(#SVGID_00000104691586534277400460000011117074710094003334_);}
	.st30{fill:url(#SVGID_00000111176970788231699400000001208764043155731840_);}
	.st31{fill:url(#SVGID_00000006668911468590263640000005742687863742534531_);}
	.st32{fill:url(#SVGID_00000018949465165775505460000000492849543475957653_);}
	
		.st33{fill-rule:evenodd;clip-rule:evenodd;fill:#C7FFF1;stroke:#101320;stroke-linecap:round;stroke-linejoin:round;stroke-miterlimit:10;}
	
		.st34{fill:none;stroke:url(#SVGID_00000126288031139704364420000000524477538375030425_);stroke-width:5;stroke-linecap:round;stroke-linejoin:round;stroke-miterlimit:10;}
	.st35{fill:url(#SVGID_00000148632613406871774170000004489234343054695304_);}
	
		.st36{fill:none;stroke:url(#SVGID_00000176752614036585958340000003198269102898455980_);stroke-width:5;stroke-linecap:round;stroke-linejoin:round;stroke-miterlimit:10;}
	.st37{fill:url(#SVGID_00000181796132562897161220000014777120638727764644_);}
	
		.st38{fill:none;stroke:url(#SVGID_00000013184566401804047120000016801769260354403489_);stroke-width:5;stroke-linecap:round;stroke-linejoin:round;stroke-miterlimit:10;}
	.st39{fill:url(#SVGID_00000181080310564375006490000002190119402018862219_);}
	
		.st40{fill-rule:evenodd;clip-rule:evenodd;fill:#1AD4B3;stroke:#111422;stroke-linecap:round;stroke-linejoin:round;stroke-miterlimit:10;}
	
		.st41{fill-rule:evenodd;clip-rule:evenodd;fill:#FC4F83;stroke:#111422;stroke-linecap:round;stroke-linejoin:round;stroke-miterlimit:10;}
	
		.st42{fill-rule:evenodd;clip-rule:evenodd;fill:#FFCAD7;stroke:#111422;stroke-linecap:round;stroke-linejoin:round;stroke-miterlimit:10;}
	.st43{fill:url(#SVGID_00000023264689745173829780000009614919275501825422_);}
	.st44{fill:url(#SVGID_00000163061800269154682480000009578477445107186335_);}
	.st45{fill:url(#SVGID_00000132798324020064616290000002047850938585435289_);}
	
		.st46{fill:none;stroke:url(#SVGID_00000161625416154984922570000003638711617618356373_);stroke-width:5;stroke-linecap:round;stroke-linejoin:round;stroke-miterlimit:10;}
	.st47{fill:url(#SVGID_00000164508596240352755910000017280013598142266004_);}
	
		.st48{fill:none;stroke:url(#SVGID_00000083078293409107421020000013154236120617849985_);stroke-width:5;stroke-linecap:round;stroke-linejoin:round;stroke-miterlimit:10;}
	.st49{fill:url(#SVGID_00000065043788263615135940000006293987204942328766_);}
	.st50{fill:url(#SVGID_00000046333637406659682510000010057623916730108050_);}
	.st51{fill:#101320;}
	.st52{fill:url(#SVGID_00000121995842405756301350000011447140744421005247_);}
	.st53{fill:url(#SVGID_00000013892754326288771270000012261815746519546283_);}
	.st54{fill:url(#SVGID_00000026848905410415974900000003829746073177959092_);}
	.st55{fill:url(#SVGID_00000017502861194781622310000014452727368916822672_);}
	.st56{fill:url(#SVGID_00000064345832198277540290000017890352489813717661_);}
	.st57{fill:url(#SVGID_00000178898168368258889450000016914795806053948577_);}
	.st58{opacity:0.29;fill:url(#SVGID_00000141444378629735776150000016703778800014414009_);enable-background:new    ;}
	.st59{fill:url(#SVGID_00000031167105090993398640000009136264147087978167_);}
	.st60{fill:url(#SVGID_00000135655609256792634970000010362000618248249221_);}
	.st61{fill:url(#SVGID_00000067935959240675542140000004636331813967696281_);}
	.st62{fill-rule:evenodd;clip-rule:evenodd;fill:url(#SVGID_00000113331081550505924680000015464140194163986589_);}
	.st63{fill:url(#SVGID_00000038385224535613480880000010214211266449702074_);}
	.st64{fill:url(#SVGID_00000027564210579783800850000011440471494039693960_);}
	.st65{fill:url(#SVGID_00000013892519157916757520000016503784155727513736_);}
	.st66{fill:url(#SVGID_00000173155341436720137570000001797267467700328089_);}
	.st67{opacity:0.29;fill:url(#SVGID_00000122693804293073210590000013265535886371459712_);enable-background:new    ;}
	
		.st68{fill:none;stroke:url(#SVGID_00000079463736900361393100000014772940017369859508_);stroke-width:5;stroke-linecap:round;stroke-linejoin:round;stroke-miterlimit:10;}
	.st69{fill:url(#SVGID_00000013166821156196122060000001789576225271258019_);}
	
		.st70{fill:none;stroke:url(#SVGID_00000141413213636036990940000017799768623264951427_);stroke-width:5;stroke-linecap:round;stroke-linejoin:round;stroke-miterlimit:10;}
	.st71{fill:url(#SVGID_00000005964220329283857150000014297456192145922731_);}
	
		.st72{fill:none;stroke:url(#SVGID_00000003077418628161735150000011210085702939205762_);stroke-width:5;stroke-linecap:round;stroke-linejoin:round;stroke-miterlimit:10;}
	.st73{fill:url(#SVGID_00000081609185526621942780000003984471363700421816_);}
	.st74{fill-rule:evenodd;clip-rule:evenodd;fill:url(#SVGID_00000074440225861261208690000014417451227268733570_);}
	.st75{fill:url(#SVGID_00000044168405817221761570000017920010047012664995_);}
	.st76{fill:url(#SVGID_00000013180226777807129130000007360796771622589057_);}
	.st77{fill:url(#SVGID_00000182491925345683768810000014053264567453279393_);}
	.st78{opacity:0.29;fill:url(#SVGID_00000105398634500488333530000000810276657851475595_);}
	.st79{opacity:0.29;fill:url(#SVGID_00000090997315444828521100000001322157709200870824_);}
	.st80{opacity:0.67;fill:url(#SVGID_00000098939007223732051160000015707648789224543393_);}
	.st81{fill:#3FA9BD;}
	.st82{fill:url(#SVGID_00000064319172247626321300000000771762946518996134_);}
	.st83{fill-rule:evenodd;clip-rule:evenodd;fill:#555069;}
	.st84{fill-rule:evenodd;clip-rule:evenodd;fill:#FFFFFF;}
	.st85{fill-rule:evenodd;clip-rule:evenodd;fill:#AFAFB1;}
	.st86{fill-rule:evenodd;clip-rule:evenodd;fill:#D3D3D3;}
	.st87{opacity:0.67;fill:url(#SVGID_00000178183354345236296510000008113170648862329521_);}
	.st88{fill:url(#SVGID_00000090289240170812874610000002232250103593185159_);}
	.st89{opacity:0.67;fill:url(#SVGID_00000023242893518747367880000008267753460695298955_);}
	.st90{fill:url(#SVGID_00000163764976109601716220000009047717249478662281_);}
	.st91{opacity:0.67;fill:url(#SVGID_00000171713105061210961960000001786861941320515255_);}
	.st92{fill:url(#SVGID_00000111182184665371795000000007142132570474792859_);}
	.st93{opacity:0.67;fill:url(#SVGID_00000140715054319022877270000017650004475527470496_);}
	.st94{fill:url(#SVGID_00000133514682805389076120000010374760114138280372_);}
	.st95{opacity:0.67;fill:url(#SVGID_00000075150755920595074750000005850040353774511766_);}
	.st96{fill:url(#SVGID_00000052816995520411038680000007718923235437269934_);}
	.st97{fill:#1AD4B3;}
	.st98{opacity:0.67;fill:url(#SVGID_00000158713719730463510290000009787522175634714289_);}
	.st99{fill:url(#SVGID_00000035493143929578752960000013643644774378746537_);}
	.st100{opacity:0.67;fill:url(#SVGID_00000065037552848218487500000003240424795754960812_);}
	.st101{fill:url(#SVGID_00000065035983182902919120000018235851305994805916_);}
	.st102{opacity:0.67;fill:url(#SVGID_00000074422374611489251740000012921749101118247609_);}
	.st103{fill:url(#SVGID_00000067931406482281759060000005177725224062915210_);}
	
		.st104{fill-rule:evenodd;clip-rule:evenodd;fill:none;stroke:#FFFFFF;stroke-width:0.7384;stroke-linecap:round;stroke-linejoin:round;stroke-miterlimit:10;}
	.st105{opacity:0.67;fill:url(#SVGID_00000003792532821589324800000009954123038415879590_);}
	.st106{fill:url(#SVGID_00000116205593763424026810000013259685921709523610_);}
	.st107{opacity:0.67;fill:url(#SVGID_00000146486709700109222650000001515910741274911153_);}
	.st108{fill:url(#SVGID_00000132082737330732401740000008008569659967548342_);}
	.st109{opacity:0.67;fill:url(#SVGID_00000078725535089229093020000009280921533752500354_);}
	.st110{fill:url(#SVGID_00000181073267173653729840000009865006836603904919_);}
	.st111{opacity:0.67;fill:url(#SVGID_00000000221481558438915640000010723812147127735186_);}
	.st112{fill:url(#SVGID_00000012440503986064751950000011718489414465361830_);}
	.st113{opacity:0.67;fill:url(#SVGID_00000144326586507528217470000013612475047665519027_);}
	.st114{fill:url(#SVGID_00000005976520933894714080000003551279446615657133_);}
	.st115{opacity:0.67;fill:url(#SVGID_00000114042455130078454390000000324647088690129061_);}
	.st116{fill:url(#SVGID_00000156583363505001668360000012120593737527944079_);}
	.st117{opacity:0.67;fill:url(#SVGID_00000059283396459935669040000010322781351421306515_);}
	.st118{fill:url(#SVGID_00000155837334928635884160000017259593874277516421_);}
	.st119{opacity:0.67;fill:url(#SVGID_00000111883753238570741330000017016577522623326141_);}
	.st120{fill:url(#SVGID_00000026865299095166230660000005284585527771338907_);}
	.st121{opacity:0.67;fill:url(#SVGID_00000059307567287002572440000009205520923386792840_);}
	.st122{fill:url(#SVGID_00000062897124922281444360000017132736622964347548_);}
	.st123{opacity:0.67;fill:url(#SVGID_00000114043265548163747000000002296827409385960382_);}
	.st124{fill:url(#SVGID_00000114784195965957977890000014272940903380443787_);}
	.st125{opacity:0.67;fill:url(#SVGID_00000054256595930080525840000002689086481953817259_);}
	.st126{fill:url(#SVGID_00000083062475048136136960000012196517046459784325_);}
	.st127{opacity:0.67;fill:url(#SVGID_00000140003154938244109560000017284175392302601121_);}
	.st128{fill:#5EA6B9;}
	.st129{fill:url(#SVGID_00000036229045457191128760000013475516825394288270_);}
	.st130{fill-rule:evenodd;clip-rule:evenodd;fill:#545067;}
	.st131{fill-rule:evenodd;clip-rule:evenodd;fill:#AEAEB0;}
	.st132{fill-rule:evenodd;clip-rule:evenodd;fill:#D2D2D2;}
	.st133{opacity:0.67;fill:url(#SVGID_00000088127399941043124030000006613883623759373216_);}
	.st134{fill:url(#SVGID_00000099621318387389269730000005825592770457917314_);}
	.st135{fill-rule:evenodd;clip-rule:evenodd;fill:#63D0B3;}
	
		.st136{fill-rule:evenodd;clip-rule:evenodd;fill:none;stroke:#111422;stroke-linecap:round;stroke-linejoin:round;stroke-miterlimit:10;}
	.st137{fill-rule:evenodd;clip-rule:evenodd;fill:#E85C83;}
	.st138{fill:#5DC29D;}
	.st139{fill:url(#SVGID_00000165236230588605589600000013760707310533892742_);}
	.st140{fill:url(#SVGID_00000061432064117470854880000000036140699158384817_);}
	.st141{fill:#E85C83;}
	.st142{opacity:0.67;fill:url(#SVGID_00000122697324807902540800000006585307423916242620_);}
	.st143{fill:url(#SVGID_00000053536563747012225920000001674280895199217598_);}
	
		.st144{fill:none;stroke:url(#SVGID_00000004547819189606179980000004790856377185888959_);stroke-width:5;stroke-linecap:round;stroke-linejoin:round;stroke-miterlimit:10;}
	.st145{fill:url(#SVGID_00000049185985749779918910000016339824337422892200_);}
	.st146{opacity:0.67;fill:url(#SVGID_00000047765073566454234200000000004515761686184598_);}
	.st147{fill:url(#SVGID_00000111165716484220056610000010441431928052062357_);}
	.st148{opacity:0.67;fill:url(#SVGID_00000140735349182446082600000006631764928623719060_);}
	.st149{fill:url(#SVGID_00000112619243580188070490000001600709850470506427_);}
	.st150{opacity:0.67;fill:url(#SVGID_00000044148188988558777570000005444488447606335416_);}
	.st151{fill:url(#SVGID_00000168119073226501711110000012013004724897648829_);}
	.st152{opacity:0.67;fill:url(#SVGID_00000132071239458212680780000003067578605313745281_);}
	.st153{fill:url(#SVGID_00000173861805773091568320000001146593426218864804_);}
	.st154{opacity:0.67;fill:url(#SVGID_00000038408631825852622270000017842195055641740688_);}
	.st155{fill:url(#SVGID_00000086670298990921762170000005098521748810370176_);}
	.st156{opacity:0.67;fill:url(#SVGID_00000011011010509013862970000012418032939646317740_);}
	.st157{fill:url(#SVGID_00000013903134065155712220000009059371953731023541_);}
	.st158{fill:none;stroke:#000000;stroke-width:22;stroke-linecap:round;stroke-linejoin:round;stroke-miterlimit:10;}
	.st159{fill:#ECF0FC;}
	.st160{fill:url(#SVGID_00000180363405752236739370000016511858107363166621_);}
	.st161{fill:url(#SVGID_00000033328731152290919370000018341800581860173219_);}
	.st162{fill:none;stroke:url(#SVGID_00000165955580717909029950000008315917511712091523_);stroke-width:5;stroke-miterlimit:10;}
	.st163{fill:#111422;}
	.st164{fill:url(#SVGID_00000055665319976508865320000003990784387300259728_);}
	.st165{fill:none;}
	.st166{opacity:0.67;fill:url(#SVGID_00000171678760735548590900000012380181518643073932_);}
	.st167{fill:url(#SVGID_00000132075271900126626230000004750649988887686326_);}
	.st168{fill:none;stroke:url(#SVGID_00000101093801486257088650000004639614203301555337_);stroke-width:5;stroke-miterlimit:10;}
	.st169{fill:url(#SVGID_00000057868586948335203710000004130813976579782330_);}
	.st170{opacity:0.67;fill:url(#SVGID_00000163767678495818874080000012516660221019130513_);}
	.st171{fill:url(#SVGID_00000024718078958677767740000003722123798223522947_);}
	.st172{opacity:0.67;fill:url(#SVGID_00000121970937147934573260000016244915125009257116_);}
	.st173{fill:url(#SVGID_00000119101379128174630530000011347105719203316120_);}
</style>
<g>
	<polygon class="st3" points="150.63,31.27 33.28,98.3 33.28,161.05 150.63,94.01 	"/>
	<polygon class="st2" points="17.9,89.6 33.28,97.92 33.28,161.05 17.9,152.73 	"/>
	<polygon class="st4" points="150.63,31.27 134.1,22.53 17.9,89.6 33.28,97.92 	"/>
</g>
<g>
	<g>
		<polygon class="st2" points="142.34,62.01 44.25,119.17 44.25,111.49 142.34,54.33 		"/>
		<polygon class="st3" points="141.51,61.35 44.86,117.79 44.85,111.43 141.5,54.99 		"/>
		<polygon class="st18" points="114.34,76.55 44.49,117.47 44.49,112.24 114.33,71.49 		"/>
	</g>
	<g>
		<polygon class="st2" points="142.34,77.64 44.25,134.8 44.25,127.12 142.34,69.96 		"/>
		<polygon class="st3" points="141.51,77.08 44.25,133.79 44.24,127.43 141.5,70.72 		"/>
		<polygon class="st19" points="84.17,109.83 44.47,133.05 44.46,127.91 84.16,104.68 		"/>
	</g>
</g>
<g>
	<path class="st1" d="M177.37,73.82c0-16.69-5.94-22.53,2.49-27.94c12.9-8.28,26.89-12.64,39.52-8.14
		c27.31,9.73,52.1,50.32,52.16,83.71c0.05,28.15-4.78,32.1-28.51,45.5c-4.69,2.65-17.34-4.66-23.65-8.32
		C196.18,145.17,177.37,107.2,177.37,73.82z"/>
	
		<ellipse transform="matrix(0.8947 -0.4466 0.4466 0.8947 -24.3037 106.4445)" class="st0" cx="213.63" cy="104.77" rx="40.13" ry="68.8"/>
	<path class="st21" d="M213.63,104.77l5.95-54.11c-1.87-1.35-3.77-2.59-5.71-3.69c-25.73-14.63-46.7-0.61-46.84,31.31
		s20.62,69.66,46.35,84.29c25.73,14.63,46.7,0.61,46.84-31.31c0.02-3.94-0.29-7.98-0.88-12.05L213.63,104.77z"/>
</g>
<g>
	<path id="矩形_00000174576588283323481590000011612067494284038837_" class="st14" d="M177.82,200.04L177.82,200.04
		c0.62,0,1.15,0.76,1.15,1.64v1.52c0,0.88-0.53,1.64-1.15,1.64l0,0c-0.62,0-1.15-0.76-1.15-1.64v-1.52
		C176.68,200.74,177.2,200.04,177.82,200.04z"/>
	
		<radialGradient id="SVGID_1_" cx="146.2793" cy="234.1682" r="29.1582" gradientTransform="matrix(1 0 0 0.5898 0 96.0574)" gradientUnits="userSpaceOnUse">
		<stop  offset="0" style="stop-color:#B8B3D4"/>
		<stop  offset="0.3457" style="stop-color:#BAB6D6;stop-opacity:0.6543"/>
		<stop  offset="0.6064" style="stop-color:#C2C0DA;stop-opacity:0.3936"/>
		<stop  offset="0.8384" style="stop-color:#D0D0E3;stop-opacity:0.1616"/>
		<stop  offset="1" style="stop-color:#DDE0EB;stop-opacity:0"/>
	</radialGradient>
	<path style="opacity:0.67;fill:url(#SVGID_1_);" d="M171.28,220.09c-13.68-7.9-35.96-8-49.77-0.23s-13.91,20.48-0.23,28.37
		c13.68,7.9,35.96,8,49.77,0.23C184.85,240.69,184.96,227.99,171.28,220.09z"/>
	<g>
		<path class="st81" d="M184.78,184.07v-49.28c0-0.23,0.02-0.45,0.02-0.68c0-22.91-18.57-41.48-41.48-41.48
			c-22.91,0-41.48,18.57-41.48,41.48c0,0.36,0.02,0.72,0.03,1.07v44.66h-0.03v22.67c0,2.84,2.3,5.15,5.15,5.15
			c2.84,0,5.15-2.31,5.15-5.15v-0.83c0.56,0.36,1.13,0.72,1.74,1.07c1.83,1.06,3.79,1.99,5.85,2.81v8.2c0,2.84,2.3,5.15,5.15,5.15
			c2.84,0,5.15-2.31,5.15-5.15v-5.23c2.95,0.57,5.99,0.96,9.06,1.14v12.59c0,2.84,2.3,5.15,5.15,5.15c2.84,0,5.15-2.31,5.15-5.15
			v-12.7c3.39-0.28,6.73-0.8,9.93-1.55v6.36c0,2.84,2.3,5.15,5.15,5.15c2.84,0,5.15-2.31,5.15-5.15v-9.87
			c1-0.47,1.97-0.96,2.91-1.49c0.7-0.39,1.35-0.8,1.99-1.21v0.71c0,2.84,2.3,5.15,5.15,5.15s5.15-2.31,5.15-5.15v-18.45H184.78z"/>
		
			<radialGradient id="SVGID_00000132083135147662406670000006561726243791285923_" cx="168.002" cy="110.0475" r="106.6854" gradientUnits="userSpaceOnUse">
			<stop  offset="0.0124" style="stop-color:#DD78CE"/>
			<stop  offset="0.4936" style="stop-color:#A7589A"/>
			<stop  offset="0.5829" style="stop-color:#A0619E"/>
			<stop  offset="0.7273" style="stop-color:#8E79A8"/>
			<stop  offset="0.9078" style="stop-color:#709FB9"/>
			<stop  offset="1" style="stop-color:#5EB6C3"/>
		</radialGradient>
		<path style="fill:url(#SVGID_00000132083135147662406670000006561726243791285923_);" d="M184.78,184.07v-49.28
			c0-0.23,0.02-0.45,0.02-0.68c0-22.91-18.57-41.48-41.48-41.48c-22.91,0-41.48,18.57-41.48,41.48c0,0.36,0.02,0.72,0.03,1.07v44.66
			h-0.03v22.67c0,2.84,2.3,5.15,5.15,5.15c2.84,0,5.15-2.31,5.15-5.15v-0.83c0.56,0.36,1.13,0.72,1.74,1.07
			c1.83,1.06,3.79,1.99,5.85,2.81v8.2c0,2.84,2.3,5.15,5.15,5.15c2.84,0,5.15-2.31,5.15-5.15v-5.23c2.95,0.57,5.99,0.96,9.06,1.14
			v12.59c0,2.84,2.3,5.15,5.15,5.15c2.84,0,5.15-2.31,5.15-5.15v-12.7c3.39-0.28,6.73-0.8,9.93-1.55v6.36c0,2.84,2.3,5.15,5.15,5.15
			c2.84,0,5.15-2.31,5.15-5.15v-9.87c1-0.47,1.97-0.96,2.91-1.49c0.7-0.39,1.35-0.8,1.99-1.21v0.71c0,2.84,2.3,5.15,5.15,5.15
			s5.15-2.31,5.15-5.15v-18.45H184.78z"/>
	</g>
	<path id="矩形_00000007417107686637507580000014205103695477996929_" class="st14" d="M105.73,170.22L105.73,170.22
		c1.12,0,2.09,1.38,2.09,2.99v14.25c0,1.61-0.96,2.99-2.09,2.99l0,0c-1.12,0-2.09-1.38-2.09-2.99v-14.25
		C103.64,171.6,104.61,170.22,105.73,170.22z"/>
	<path id="矩形_00000101809494190856234910000002345618731239334571_" class="st14" d="M167.03,107.13L167.03,107.13
		c1.37-1.02,3.68-0.37,5.02,1.41l2.29,3.06c1.34,1.78,1.31,4.19-0.06,5.22l0,0c-1.37,1.02-3.68,0.37-5.02-1.41l-2.29-3.06
		C165.54,110.44,165.66,108.16,167.03,107.13z"/>
	<path id="矩形_00000161604928908795527600000008605890212235698820_" class="st14" d="M123.13,206.81L123.13,206.81
		c1.12,0,2.09,1.38,2.09,2.99v2.76c0,1.61-0.96,2.99-2.09,2.99l0,0c-1.12,0-2.09-1.38-2.09-2.99v-2.76
		C121.04,208.08,122,206.81,123.13,206.81z"/>
	<path id="矩形_00000175321853410306879980000001170281700059483016_" class="st14" d="M105.73,196.1L105.73,196.1
		c1.12,0,2.09,1.38,2.09,2.99v2.76c0,1.61-0.96,2.99-2.09,2.99l0,0c-1.12,0-2.09-1.38-2.09-2.99v-2.76
		C103.64,197.37,104.61,196.1,105.73,196.1z"/>
	<path id="矩形_00000145768048235864275040000012115126387051226515_" class="st14" d="M143.32,215.55L143.32,215.55
		c1.12,0,2.09,1.38,2.09,2.99v2.76c0,1.61-0.96,2.99-2.09,2.99l0,0c-1.12,0-2.09-1.38-2.09-2.99v-2.76
		C141.23,216.82,142.19,215.55,143.32,215.55z"/>
	<path id="矩形_00000076565711984352682370000003144567158406498946_" class="st14" d="M163.02,210.21L163.02,210.21
		c0.89,0,1.66,1.1,1.66,2.37v2.19c0,1.28-0.76,2.37-1.66,2.37l0,0c-0.89,0-1.66-1.1-1.66-2.37v-2.19
		C161.36,211.21,162.13,210.21,163.02,210.21z"/>
	<g>
		<path id="椭圆形_00000155129080565217219960000011225319890852127894_" class="st83" d="M155.19,156.59
			c4.06-0.17,7.1-3.66,7.09-6c0-0.94-0.55-1.75-1.38-1.81c-1.29-0.13-3.23,0.7-5.72,0.8c-2.31,0.1-3.78-0.5-5.53-0.42
			c-1.84,0.08-1.75,2.22-1.47,3.06C148.83,154.52,151.04,156.76,155.19,156.59z"/>
		<path id="椭圆形_00000078025562520743858880000008416374861513232017_" class="st84" d="M155.28,154.62
			c4.15-0.17,7.19-3.38,7.19-5.63c0-0.84-0.55-1.57-1.38-1.63c-1.29-0.13-3.32,0.7-5.81,0.8c-2.4,0.1-3.78-0.5-5.62-0.43
			c-1.84,0.08-1.75,2.13-1.48,2.87C148.82,152.73,151.13,154.79,155.28,154.62z"/>
	</g>
	<g>
		
			<ellipse transform="matrix(0.5671 -0.8237 0.8237 0.5671 -49.7988 171.5042)" class="st84" cx="138.24" cy="133.12" rx="9.5" ry="9.1"/>
		<path id="形状结合_00000067234309611863648520000001352696298397152951_" class="st85" d="M139.44,123.16
			c4.24-0.18,7.66,3.98,7.66,9.22c0,0.19,0,0.37,0,0.56l0,0.56c0-5.33-3.33-9.59-7.48-9.42c-4.15,0.17-7.46,4.61-7.46,10.04
			c0,1.03,0.09,2.05,0.37,2.98c-0.46-1.2-0.74-2.59-0.74-3.99C131.79,127.78,135.2,123.33,139.44,123.16z"/>
		<path id="形状结合_00000162341696767027055490000002275206768602789016_" class="st86" d="M139.44,122.03
			c4.7-0.2,8.58,4.41,8.58,10.31c0.01,5.89-3.86,10.83-8.57,11.02c-4.7,0.2-8.58-4.41-8.58-10.31
			C130.87,127.16,134.65,122.23,139.44,122.03z M139.44,123.16c-4.24,0.18-7.65,4.62-7.64,9.86c0,5.24,3.42,9.4,7.66,9.22
			c4.24-0.18,7.65-4.62,7.64-9.86C147.1,127.14,143.59,122.98,139.44,123.16z"/>
	</g>
	<g>
		
			<ellipse transform="matrix(0.5671 -0.8237 0.8237 0.5671 -35.3635 196.2075)" class="st84" cx="168.96" cy="131.74" rx="9.5" ry="9.1"/>
		<path id="形状结合_00000017505610530539898230000015726695416026389156_" class="st85" d="M169.95,121.79
			c4.24-0.18,7.66,3.98,7.66,9.22c0,0.19,0,0.37,0,0.56l0,0.56c0-5.33-3.33-9.59-7.48-9.42s-7.46,4.61-7.46,10.04
			c0,1.03,0.09,2.05,0.37,2.98c-0.46-1.2-0.74-2.59-0.74-3.99C162.31,126.41,165.71,121.96,169.95,121.79z"/>
		<path id="形状结合_00000021101072276550753200000011519581052717660332_" class="st86" d="M169.95,120.66
			c4.7-0.2,8.58,4.41,8.58,10.31c0.01,5.89-3.86,10.83-8.57,11.02s-8.58-4.41-8.58-10.31C161.38,125.79,165.16,120.86,169.95,120.66
			z M169.95,121.79c-4.24,0.18-7.65,4.62-7.64,9.86c0,5.24,3.42,9.4,7.66,9.22c4.24-0.18,7.65-4.62,7.64-9.86
			C177.61,125.77,174.1,121.61,169.95,121.79z"/>
	</g>
	<circle class="st83" cx="143.22" cy="130.98" r="3.77"/>
	<circle class="st83" cx="173.76" cy="129.86" r="3.77"/>
</g>
</svg>
