<?xml version="1.0" encoding="utf-8"?>
<!-- Generator: Adobe Illustrator 27.8.1, SVG Export Plug-In . SVG Version: 6.00 Build 0)  -->
<svg version="1.1" id="Слой_1" xmlns="http://www.w3.org/2000/svg" xmlns:xlink="http://www.w3.org/1999/xlink" x="0px" y="0px"
	 viewBox="0 0 290 574.88" style="enable-background:new 0 0 290 574.88;" xml:space="preserve">
<style type="text/css">
	.st0{stroke:#000000;stroke-linecap:round;stroke-linejoin:round;stroke-miterlimit:10;}
	.st1{fill:#222846;stroke:#000000;stroke-linecap:round;stroke-linejoin:round;stroke-miterlimit:10;}
	.st2{fill-rule:evenodd;clip-rule:evenodd;stroke:#000000;stroke-linecap:round;stroke-linejoin:round;stroke-miterlimit:10;}
	
		.st3{fill-rule:evenodd;clip-rule:evenodd;fill:#222846;stroke:#000000;stroke-linecap:round;stroke-linejoin:round;stroke-miterlimit:10;}
	
		.st4{fill-rule:evenodd;clip-rule:evenodd;fill:#4A5479;stroke:#000000;stroke-linecap:round;stroke-linejoin:round;stroke-miterlimit:10;}
	.st5{fill-rule:evenodd;clip-rule:evenodd;fill:#5C6A91;}
	.st6{fill:#6D75A2;}
	.st7{stroke:#1A213A;stroke-linecap:round;stroke-linejoin:round;stroke-miterlimit:10;}
	.st8{stroke:#4A5479;stroke-linecap:round;stroke-linejoin:round;stroke-miterlimit:10;}
	.st9{fill:url(#SVGID_1_);}
	.st10{fill:url(#SVGID_00000101083817968867415520000012333293804065646748_);}
	.st11{fill:url(#SVGID_00000102537842868860684340000015958007470678462395_);}
	
		.st12{fill:none;stroke:url(#SVGID_00000036223527339333202810000010287953587422831758_);stroke-width:5;stroke-linecap:round;stroke-linejoin:round;stroke-miterlimit:10;}
	.st13{fill:url(#SVGID_00000046303704045422937990000007202069569248464796_);}
	.st14{fill-rule:evenodd;clip-rule:evenodd;fill:#1AD4B3;}
	.st15{fill-rule:evenodd;clip-rule:evenodd;fill:#FC4F83;}
	.st16{fill:#4A5479;stroke:#000000;stroke-linecap:round;stroke-linejoin:round;stroke-miterlimit:10;}
	
		.st17{fill:url(#SVGID_00000133502898033399368650000017885661493948909998_);stroke:#1D1D1B;stroke-width:0.2115;stroke-linecap:round;stroke-linejoin:round;stroke-miterlimit:10;}
	.st18{fill-rule:evenodd;clip-rule:evenodd;}
	
		.st19{fill:url(#SVGID_00000119820287971243387760000008106508443262488975_);stroke:#1D1D1B;stroke-width:0.2115;stroke-linecap:round;stroke-linejoin:round;stroke-miterlimit:10;}
	
		.st20{fill:url(#SVGID_00000036223097525228212160000014229301790975207050_);stroke:#1D1D1B;stroke-width:0.2115;stroke-linecap:round;stroke-linejoin:round;stroke-miterlimit:10;}
	
		.st21{fill:url(#SVGID_00000089559435566252350940000004014256848493850282_);stroke:#1D1D1B;stroke-width:0.2115;stroke-linecap:round;stroke-linejoin:round;stroke-miterlimit:10;}
	.st22{fill-rule:evenodd;clip-rule:evenodd;fill:url(#SVGID_00000105391766224271967470000014204802854977931925_);}
	.st23{fill-rule:evenodd;clip-rule:evenodd;fill:url(#SVGID_00000140714736177502643590000014992057686960130436_);}
	.st24{fill:url(#SVGID_00000083058931421917206960000015480978570650315965_);}
	.st25{fill:url(#SVGID_00000063615530008616029710000002322778685064710787_);}
	.st26{fill:url(#SVGID_00000017511797240512808460000009217148894198199447_);}
	
		.st27{fill-rule:evenodd;clip-rule:evenodd;fill:#4AA089;stroke:url(#SVGID_00000181776079866870488090000007890835905587540629_);stroke-linecap:round;stroke-linejoin:round;stroke-miterlimit:10;}
	
		.st28{fill-rule:evenodd;clip-rule:evenodd;fill:#4AA089;stroke:url(#SVGID_00000090283961579302404710000003278901494885937316_);stroke-linecap:round;stroke-linejoin:round;stroke-miterlimit:10;}
	
		.st29{fill:none;stroke:url(#SVGID_00000145046605462135844920000011629255812636719294_);stroke-width:5;stroke-linecap:round;stroke-linejoin:round;stroke-miterlimit:10;}
	.st30{fill:url(#SVGID_00000008143661502339760500000010240271426653598366_);}
	
		.st31{fill:none;stroke:url(#SVGID_00000004532752323431890480000014541480302558989224_);stroke-width:5;stroke-linecap:round;stroke-linejoin:round;stroke-miterlimit:10;}
	.st32{fill:url(#SVGID_00000114789939698100760180000003991764533021033350_);}
	
		.st33{fill:none;stroke:url(#SVGID_00000097502672820019996750000015574910105203334815_);stroke-width:5;stroke-linecap:round;stroke-linejoin:round;stroke-miterlimit:10;}
	.st34{fill:url(#SVGID_00000129172890280600213240000011124339968202832046_);}
	.st35{fill:#4A5479;}
	
		.st36{fill-rule:evenodd;clip-rule:evenodd;fill:#1AD4B3;stroke:#111422;stroke-linecap:round;stroke-linejoin:round;stroke-miterlimit:10;}
	
		.st37{fill-rule:evenodd;clip-rule:evenodd;fill:#4AA089;stroke:url(#SVGID_00000075870621636136126350000015097610072793606046_);stroke-linecap:round;stroke-linejoin:round;stroke-miterlimit:10;}
	.st38{fill:#FFFFFF;}
	
		.st39{fill-rule:evenodd;clip-rule:evenodd;fill:#FC4F83;stroke:#111422;stroke-linecap:round;stroke-linejoin:round;stroke-miterlimit:10;}
	
		.st40{fill-rule:evenodd;clip-rule:evenodd;fill:#CB3D61;stroke:#000000;stroke-linecap:round;stroke-linejoin:round;stroke-miterlimit:10;}
	.st41{fill:url(#SVGID_00000074410773780267713400000013792347568778778005_);}
	.st42{fill:url(#SVGID_00000149376132973324056030000000536513567312271549_);}
	.st43{fill:url(#SVGID_00000046325846298990357480000013850905430484907918_);}
	
		.st44{fill:none;stroke:url(#SVGID_00000080196826255535050760000007034239046898820493_);stroke-width:5;stroke-linecap:round;stroke-linejoin:round;stroke-miterlimit:10;}
	.st45{fill:url(#SVGID_00000001658298297656262560000014808162579990015642_);}
	
		.st46{fill:none;stroke:url(#SVGID_00000101803256337912192330000004917322519238687656_);stroke-width:5;stroke-linecap:round;stroke-linejoin:round;stroke-miterlimit:10;}
	.st47{fill:url(#SVGID_00000173159380540513437560000015436325092455477892_);}
	.st48{fill:url(#SVGID_00000111169483914850649040000006317017210988797344_);}
	.st49{fill:#222846;}
	.st50{fill:url(#SVGID_00000152252688030698112840000015702039144486473661_);}
	.st51{fill:url(#SVGID_00000168827101317045950740000017612402481335591318_);}
	.st52{fill:url(#SVGID_00000139991871919048360750000016255172971334485121_);}
	.st53{fill:url(#SVGID_00000166672379159292420020000001737838223800553151_);}
	.st54{fill:url(#SVGID_00000027599550261411716800000015431519002461975219_);}
	.st55{fill:url(#SVGID_00000064325421474764977690000015844338120337586076_);}
	.st56{fill-rule:evenodd;clip-rule:evenodd;fill:#6D75A2;}
	.st57{fill-rule:evenodd;clip-rule:evenodd;fill:#4A5479;}
	.st58{opacity:0.29;fill:url(#SVGID_00000168076673237537178770000011568476368845409454_);enable-background:new    ;}
	.st59{fill:url(#SVGID_00000121279291158665491740000008244930289949179012_);}
	.st60{fill:url(#SVGID_00000069390898820903457220000010177845208438270348_);}
	.st61{fill:url(#SVGID_00000085931255880057157800000003449823881784572311_);}
	.st62{fill-rule:evenodd;clip-rule:evenodd;fill:url(#SVGID_00000152236172187193205060000014889900465444785545_);}
	.st63{fill:url(#SVGID_00000111159987489018363680000013025398806522977196_);}
	.st64{fill:url(#SVGID_00000087378992214516554730000000070446192565642401_);}
	.st65{fill:url(#SVGID_00000088812848658498800420000006136317930309740193_);}
	.st66{fill:url(#SVGID_00000163752173949938644830000002141162185176740524_);}
	.st67{opacity:0.29;fill:url(#SVGID_00000008856270811864428910000003546337202790658202_);enable-background:new    ;}
	.st68{fill-rule:evenodd;clip-rule:evenodd;fill:#222846;}
	
		.st69{fill:none;stroke:url(#SVGID_00000039093104058954897210000006646860437133423256_);stroke-width:5;stroke-linecap:round;stroke-linejoin:round;stroke-miterlimit:10;}
	.st70{fill:url(#SVGID_00000080177199714080987690000010785877694776970388_);}
	
		.st71{fill:none;stroke:url(#SVGID_00000173160227212845145990000004727600897436866486_);stroke-width:5;stroke-linecap:round;stroke-linejoin:round;stroke-miterlimit:10;}
	.st72{fill:url(#SVGID_00000096026316541585845200000001190536317752729532_);}
	
		.st73{fill:none;stroke:url(#SVGID_00000147936170625884080560000002800535403686795948_);stroke-width:5;stroke-linecap:round;stroke-linejoin:round;stroke-miterlimit:10;}
	.st74{fill:url(#SVGID_00000044869981184546614580000008752583820863700154_);}
	
		.st75{fill-rule:evenodd;clip-rule:evenodd;fill:#4AA089;stroke:url(#SVGID_00000075848575769672665780000014272377637021270964_);stroke-linecap:round;stroke-linejoin:round;stroke-miterlimit:10;}
	.st76{fill-rule:evenodd;clip-rule:evenodd;fill:url(#SVGID_00000178903960755173556140000013550953889930645932_);}
	.st77{fill:url(#SVGID_00000170257573301979324770000005320683226792759973_);}
	.st78{fill:url(#SVGID_00000009559990174272790370000006314915472747496095_);}
	.st79{fill:url(#SVGID_00000111171522566858884460000002539536657571916203_);}
	.st80{opacity:0.29;fill:url(#SVGID_00000105395099949542615790000012619304273351659424_);}
	.st81{opacity:0.29;fill:url(#SVGID_00000001641375487349152200000018383175670390153651_);}
	.st82{opacity:0.2563;fill-rule:evenodd;clip-rule:evenodd;fill:#FFFFFF;enable-background:new    ;}
	.st83{opacity:0.67;fill:url(#SVGID_00000025412156925930092300000001383316684742467500_);}
	.st84{fill:#3FA9BD;}
	.st85{fill:url(#SVGID_00000066477026054369687730000018166477451674902450_);}
	.st86{fill-rule:evenodd;clip-rule:evenodd;fill:#555069;}
	.st87{fill-rule:evenodd;clip-rule:evenodd;fill:#FFFFFF;}
	.st88{fill-rule:evenodd;clip-rule:evenodd;fill:#AFAFB1;}
	.st89{fill-rule:evenodd;clip-rule:evenodd;fill:#D3D3D3;}
	.st90{opacity:0.67;fill:url(#SVGID_00000058571509050621410060000010981021668790378682_);}
	.st91{fill:url(#SVGID_00000065780654772210306040000000033653806138716039_);}
	.st92{opacity:0.67;fill:url(#SVGID_00000093139880796642391110000005514932294026390916_);}
	.st93{fill:url(#SVGID_00000163040696778955300630000017838387797912517815_);}
	.st94{opacity:0.67;fill:url(#SVGID_00000099645279409121467830000015866534984609483695_);}
	.st95{fill:url(#SVGID_00000086659738109640776600000018154136795828099207_);}
	.st96{opacity:0.67;fill:url(#SVGID_00000159470932288074237850000012459951304728302724_);}
	.st97{fill:url(#SVGID_00000119110174162100709690000003411658079804751790_);}
	.st98{opacity:0.67;fill:url(#SVGID_00000173851388777178298010000005757079290415527066_);}
	.st99{fill:url(#SVGID_00000116213849527030555030000000375165184510329791_);}
	.st100{fill:#1AD4B3;}
	.st101{opacity:0.67;fill:url(#SVGID_00000063606360189257680310000016945133286017858994_);}
	.st102{fill:url(#SVGID_00000162314575049082612740000008859065365876404868_);}
	.st103{opacity:0.67;fill:url(#SVGID_00000139290479743155429470000016488163051751360143_);}
	.st104{fill:url(#SVGID_00000152247378718889879830000004263046127814991511_);}
	.st105{opacity:0.67;fill:url(#SVGID_00000057849527188265634060000003324947983681657234_);}
	.st106{fill:url(#SVGID_00000118383872626569124510000009838280675558200245_);}
	.st107{opacity:0.67;fill:url(#SVGID_00000083049028189285735090000016634094856471124365_);}
	.st108{fill:url(#SVGID_00000172424198615241288390000010322054282237651891_);}
	.st109{opacity:0.67;fill:url(#SVGID_00000163775431898891503380000000965512370976146822_);}
	.st110{fill:url(#SVGID_00000116214888426488354100000010665796895778041483_);}
	.st111{opacity:0.67;fill:url(#SVGID_00000020394692206342220660000013836304735795541386_);}
	.st112{fill:url(#SVGID_00000165936432260529662320000013714599812414540472_);}
	
		.st113{fill-rule:evenodd;clip-rule:evenodd;fill:none;stroke:#FFFFFF;stroke-width:0.7384;stroke-linecap:round;stroke-linejoin:round;stroke-miterlimit:10;}
	.st114{opacity:0.67;fill:url(#SVGID_00000139278979554927246700000017964094464372453802_);}
	.st115{fill:url(#SVGID_00000073712628725823861830000014217120696474606261_);}
	.st116{opacity:0.67;fill:url(#SVGID_00000141442215124860448380000014833912699911906700_);}
	.st117{fill:url(#SVGID_00000174573362392495298740000014931531403541161394_);}
	.st118{opacity:0.67;fill:url(#SVGID_00000167381853034493762770000017104726209545220285_);}
	.st119{fill:url(#SVGID_00000106844172143101461480000017731215458609597313_);}
	.st120{opacity:0.67;fill:url(#SVGID_00000113342837758802793040000017886412411513215141_);}
	.st121{fill:url(#SVGID_00000105397144572719278180000015010003186452659899_);}
	.st122{opacity:0.67;fill:url(#SVGID_00000019670713651594137890000013153594867132345477_);}
	.st123{fill:url(#SVGID_00000134220901680712429930000000024505454644347827_);}
	.st124{opacity:0.67;fill:url(#SVGID_00000016042631371579027850000015280818303081442991_);}
	.st125{fill:url(#SVGID_00000116950956077605715680000008973533083596566425_);}
	.st126{opacity:0.67;fill:url(#SVGID_00000021818646740432378470000006079873996273130665_);}
	.st127{fill:url(#SVGID_00000166669784770438317000000001687024497480124298_);}
	.st128{opacity:0.67;fill:url(#SVGID_00000113341705306678953670000012057939314734738092_);}
	.st129{fill:url(#SVGID_00000002385535944478060810000011433171515924340415_);}
	.st130{opacity:0.67;fill:url(#SVGID_00000009582327526395476310000002186465105860363710_);enable-background:new    ;}
	.st131{fill:#5EA6B9;}
	.st132{fill:url(#SVGID_00000006707299888383825110000015276133967290696605_);}
	.st133{fill-rule:evenodd;clip-rule:evenodd;fill:#545067;}
	.st134{fill-rule:evenodd;clip-rule:evenodd;fill:#AEAEB0;}
	.st135{fill-rule:evenodd;clip-rule:evenodd;fill:#D2D2D2;}
	.st136{opacity:0.67;fill:url(#SVGID_00000068661917992421091720000010655948896437569965_);enable-background:new    ;}
	.st137{fill:url(#SVGID_00000000943586665207637000000004307476331939701424_);}
	.st138{fill-rule:evenodd;clip-rule:evenodd;fill:#63D0B3;}
	
		.st139{fill-rule:evenodd;clip-rule:evenodd;fill:none;stroke:#000000;stroke-linecap:round;stroke-linejoin:round;stroke-miterlimit:10;}
	.st140{fill-rule:evenodd;clip-rule:evenodd;fill:#E85C83;}
	
		.st141{fill-rule:evenodd;clip-rule:evenodd;fill:#4AA089;stroke:url(#SVGID_00000035497155102957927120000017302507567870156471_);stroke-linecap:round;stroke-linejoin:round;stroke-miterlimit:10;}
	.st142{fill:#5DC29D;}
	.st143{fill:url(#SVGID_00000154387337302824600000000009116299625989458335_);}
	.st144{fill:url(#SVGID_00000091736057063101056220000012888039741295548327_);}
	.st145{fill:#E85C83;}
	.st146{opacity:0.67;fill:url(#SVGID_00000098919946851820999430000011480516202731802787_);enable-background:new    ;}
	.st147{fill:url(#SVGID_00000057829655536101804850000009302345435944871078_);}
	
		.st148{fill:none;stroke:url(#SVGID_00000017511176505868740990000001488875995250672563_);stroke-width:5;stroke-linecap:round;stroke-linejoin:round;stroke-miterlimit:10;}
	.st149{fill:url(#SVGID_00000140734325545798088760000005466907442698687921_);}
	.st150{opacity:0.67;fill:url(#SVGID_00000055701171257496222350000005385707128066854578_);enable-background:new    ;}
	.st151{fill:url(#SVGID_00000104694109286047189470000018363058180771845299_);}
	.st152{opacity:0.67;fill:url(#SVGID_00000106834840277855012430000011816119108021793712_);}
	.st153{fill:url(#SVGID_00000048480067148158411730000017896577447798767292_);}
	.st154{opacity:0.67;fill:url(#SVGID_00000157997718574467112790000009020155241147592619_);}
	.st155{fill:url(#SVGID_00000142885986917542238350000000628227121833261702_);}
	.st156{opacity:0.67;fill:url(#SVGID_00000177455321091826158060000007084766033699636371_);}
	.st157{fill:url(#SVGID_00000116916123666673036300000017914189006187238816_);}
	.st158{opacity:0.67;fill:url(#SVGID_00000141455487366586127780000003217451082243920300_);}
	.st159{fill:url(#SVGID_00000052802239634697979940000008650305094498913156_);}
	.st160{opacity:0.67;fill:url(#SVGID_00000009563944348099837890000015033055920100525458_);}
	.st161{fill:url(#SVGID_00000008134802537943936370000003386598304799076796_);}
	.st162{fill:none;stroke:#000000;stroke-width:22;stroke-linecap:round;stroke-linejoin:round;stroke-miterlimit:10;}
	.st163{fill:url(#SVGID_00000152955667360357572520000010377873723872836794_);}
	.st164{fill:url(#SVGID_00000067944990790349444030000002828531141030405533_);}
	.st165{fill:none;stroke:url(#SVGID_00000065067641012669776790000013950065545491444147_);stroke-width:5;stroke-miterlimit:10;}
	.st166{fill:url(#SVGID_00000183239756662742842020000016420751972302168993_);}
	.st167{fill:none;}
	.st168{opacity:0.67;fill:url(#SVGID_00000059276165334390410240000008366381530407102626_);}
	.st169{fill:url(#SVGID_00000126318170248324924450000016058084236716360321_);}
	.st170{fill:none;stroke:url(#SVGID_00000019679636044043272080000010636195112704070048_);stroke-width:5;stroke-miterlimit:10;}
	.st171{fill:url(#SVGID_00000045576740012499963070000002421756227875012743_);}
	.st172{opacity:0.67;fill:url(#SVGID_00000120541522892327066050000006807042501315396504_);}
	.st173{fill:url(#SVGID_00000033329997815566847460000012081690786871172483_);}
	.st174{opacity:0.67;fill:url(#SVGID_00000127747679946035221030000003415385276591072151_);}
	.st175{fill:url(#SVGID_00000070083342617663370520000018434523148151798664_);}
	.st176{opacity:0.67;fill:url(#SVGID_00000071527586229753733920000012483817227234316694_);}
	.st177{fill:url(#SVGID_00000029736460313550865440000013747556197535365259_);}
</style>
<g>
	<g>
		<polygon class="st2" points="152.38,279.55 130.48,266.91 130.48,245.01 152.38,257.65 		"/>
		<polygon class="st3" points="152.38,279.55 174.28,266.91 174.28,245.01 152.38,257.65 		"/>
		<polygon class="st4" points="152.46,257.72 130.48,245.03 152.3,232.32 174.28,245.01 		"/>
		<path id="矩形_00000074429809742084874480000002671092822813040037_" class="st5" d="M145.44,239.53L145.44,239.53
			c0.43,0.24,0.36,0.72-0.15,1.02l-4.54,2.69c-0.51,0.3-1.32,0.35-1.75,0.11l0,0c-0.43-0.24-0.36-0.72,0.15-1.02l4.54-2.69
			C144.2,239.33,145.01,239.28,145.44,239.53z"/>
		<path id="矩形_00000057861844136131035390000008842370943227631542_" class="st5" d="M137.87,243.92L137.87,243.92
			c0.43,0.24,0.36,0.72-0.15,1.02l-0.88,0.52c-0.51,0.3-1.32,0.35-1.75,0.11l0,0c-0.43-0.24-0.36-0.72,0.15-1.02l0.88-0.52
			C136.67,243.7,137.44,243.67,137.87,243.92z"/>
	</g>
	<path id="矩形_00000171709193285721527400000014622135407749553332_" class="st3" d="M199.43,231.56L199.43,231.56
		c0.58-0.42,1.59-0.06,2.19,0.78l1.02,1.43c0.6,0.84,0.61,1.91,0.03,2.33l0,0c-0.58,0.42-1.59,0.06-2.19-0.78l-1.02-1.43
		C198.82,232.99,198.85,231.97,199.43,231.56z"/>
	<g>
		<g>
			<polygon class="st3" points="223.67,295.5 201.77,282.86 201.77,260.96 223.67,273.6 			"/>
			<polygon class="st3" points="223.67,295.5 245.57,282.86 245.57,260.96 223.67,273.6 			"/>
			<polygon class="st4" points="223.75,273.67 201.77,260.98 223.59,248.27 245.57,260.96 			"/>
		</g>
		<path id="矩形_00000119837517589275667280000004500461190526882237_" class="st3" d="M216.41,255.31L216.41,255.31
			c0.43,0.24,0.36,0.72-0.15,1.02l-4.54,2.69c-0.51,0.3-1.32,0.35-1.75,0.11l0,0c-0.43-0.24-0.36-0.72,0.15-1.02l4.54-2.69
			C215.17,255.12,215.98,255.07,216.41,255.31z"/>
		<path id="矩形_00000113313367439791237100000007586929020423460020_" class="st3" d="M208.18,260.18L208.18,260.18
			c0.43,0.24,0.36,0.72-0.15,1.02l-0.88,0.52c-0.51,0.3-1.32,0.35-1.75,0.11l0,0c-0.43-0.24-0.36-0.72,0.15-1.02l0.88-0.52
			C206.98,259.96,207.75,259.94,208.18,260.18z"/>
	</g>
	<g>
		<polygon class="st2" points="151.2,308.1 129.3,295.46 129.3,273.56 151.2,286.2 		"/>
		<polygon class="st3" points="151.2,308.1 173.1,295.46 173.1,273.56 151.2,286.2 		"/>
		<polygon class="st4" points="151.28,286.27 129.3,273.58 151.12,260.87 173.1,273.56 		"/>
		<path id="矩形_00000108291993854735191880000009220003679593272758_" class="st5" d="M144.26,268.08L144.26,268.08
			c0.43,0.24,0.36,0.72-0.15,1.02l-4.54,2.69c-0.51,0.3-1.32,0.35-1.75,0.11l0,0c-0.43-0.24-0.36-0.72,0.15-1.02l4.54-2.69
			C143.02,267.88,143.83,267.83,144.26,268.08z"/>
		<path id="矩形_00000152975957861064394030000018433102099329114029_" class="st5" d="M136.69,272.47L136.69,272.47
			c0.43,0.24,0.36,0.72-0.15,1.02l-0.88,0.52c-0.51,0.3-1.32,0.35-1.75,0.11l0,0c-0.43-0.24-0.36-0.72,0.15-1.02l0.88-0.52
			C135.49,272.25,136.26,272.22,136.69,272.47z"/>
	</g>
	<g>
		<polygon class="st3" points="215.97,265.13 194.07,252.48 194.07,230.58 215.97,243.23 		"/>
		<polygon class="st3" points="215.97,265.13 237.87,252.48 237.87,230.58 215.97,243.23 		"/>
		<polygon class="st4" points="216.05,243.3 194.07,230.61 215.89,217.89 237.87,230.58 		"/>
		<path id="矩形_00000058553323764223514830000003490145920871739526_" class="st3" d="M208.71,225.51L208.71,225.51
			c0.43,0.24,0.36,0.72-0.15,1.02l-4.54,2.69c-0.51,0.3-1.32,0.35-1.75,0.11l0,0c-0.43-0.24-0.36-0.72,0.15-1.02l4.54-2.69
			C207.47,225.31,208.28,225.26,208.71,225.51z"/>
		<path id="矩形_00000007402712855919275420000002244523683204023717_" class="st3" d="M201.14,229.9L201.14,229.9
			c0.43,0.24,0.36,0.72-0.15,1.02l-0.88,0.52c-0.51,0.3-1.32,0.35-1.75,0.11l0,0c-0.43-0.24-0.36-0.72,0.15-1.02l0.88-0.52
			C199.94,229.68,200.71,229.66,201.14,229.9z"/>
	</g>
	<g>
		<polygon class="st2" points="234.62,321.53 212.72,308.88 212.72,286.98 234.62,299.63 		"/>
		<polygon class="st3" points="234.62,321.53 256.52,308.88 256.52,286.98 234.62,299.63 		"/>
		<polygon class="st4" points="234.7,299.69 212.72,287 234.54,274.29 256.52,286.98 		"/>
		<path id="矩形_00000150803874836512844570000016570232933959825062_" class="st3" d="M227.36,281.91L227.36,281.91
			c0.43,0.24,0.36,0.72-0.15,1.02l-4.54,2.69c-0.51,0.3-1.32,0.35-1.75,0.11l0,0c-0.43-0.24-0.36-0.72,0.15-1.02l4.54-2.69
			C226.12,281.71,226.93,281.66,227.36,281.91z"/>
		<path id="矩形_00000019657312735284439320000001155125854875381134_" class="st3" d="M219.79,286.3L219.79,286.3
			c0.43,0.24,0.36,0.72-0.15,1.02l-0.88,0.52c-0.51,0.3-1.32,0.35-1.75,0.11l0,0c-0.43-0.24-0.36-0.72,0.15-1.02l0.88-0.52
			C218.59,286.08,219.36,286.05,219.79,286.3z"/>
	</g>
	<g>
		<polygon class="st2" points="209.68,296.07 187.78,283.43 187.78,261.53 209.68,274.17 		"/>
		<polygon class="st3" points="209.68,296.07 231.58,283.43 231.58,261.53 209.68,274.17 		"/>
		<polygon class="st4" points="209.76,274.24 187.78,261.55 209.6,248.84 231.58,261.53 		"/>
		<path id="矩形_00000094592435499019916790000005185546963400270748_" class="st3" d="M202.42,256.46L202.42,256.46
			c0.43,0.24,0.36,0.72-0.15,1.02l-4.54,2.69c-0.51,0.3-1.32,0.35-1.75,0.11l0,0c-0.43-0.24-0.36-0.72,0.15-1.02l4.54-2.69
			C201.18,256.26,201.99,256.21,202.42,256.46z"/>
		<path id="矩形_00000044874006084009637080000017368748485768580746_" class="st3" d="M194.85,260.85L194.85,260.85
			c0.43,0.24,0.36,0.72-0.15,1.02l-0.88,0.52c-0.51,0.3-1.32,0.35-1.75,0.11l0,0c-0.43-0.24-0.36-0.72,0.15-1.02l0.88-0.52
			C193.65,260.63,194.42,260.6,194.85,260.85z"/>
	</g>
	<g>
		<polygon class="st2" points="194.44,251.04 172.54,238.39 172.54,216.49 194.44,229.14 		"/>
		<polygon class="st3" points="194.44,251.04 216.34,238.39 216.34,216.49 194.44,229.14 		"/>
		<polygon class="st4" points="194.52,229.2 172.54,216.51 194.37,203.8 216.35,216.49 		"/>
		<path id="矩形_00000143588426642419264260000002873791457091888271_" class="st3" d="M187.19,211.42L187.19,211.42
			c0.43,0.24,0.36,0.72-0.15,1.02l-4.54,2.69c-0.51,0.3-1.32,0.35-1.75,0.11l0,0c-0.43-0.24-0.36-0.72,0.15-1.02l4.54-2.69
			C185.95,211.22,186.76,211.17,187.19,211.42z"/>
		<path id="矩形_00000103230515038816527500000008410248749794766240_" class="st3" d="M179.62,215.81L179.62,215.81
			c0.43,0.24,0.36,0.72-0.15,1.02l-0.88,0.52c-0.51,0.3-1.32,0.35-1.75,0.11l0,0c-0.43-0.24-0.36-0.72,0.15-1.02l0.88-0.52
			C178.42,215.59,179.19,215.56,179.62,215.81z"/>
	</g>
	<g>
		<polygon class="st2" points="187.43,225.35 165.53,212.71 165.53,190.81 187.43,203.45 		"/>
		<polygon class="st3" points="187.43,225.35 209.33,212.71 209.33,190.81 187.43,203.45 		"/>
		<polygon class="st4" points="187.51,203.52 165.53,190.83 187.35,178.12 209.33,190.81 		"/>
		<path id="矩形_00000019662155001817463070000018337255576784740516_" class="st5" d="M180.49,185.33L180.49,185.33
			c0.43,0.24,0.36,0.72-0.15,1.02l-4.54,2.69c-0.51,0.3-1.32,0.35-1.75,0.11l0,0c-0.43-0.24-0.36-0.72,0.15-1.02l4.54-2.69
			C179.25,185.13,180.06,185.08,180.49,185.33z"/>
		<path id="矩形_00000071530797266799779220000009289015623535716244_" class="st5" d="M172.92,189.72L172.92,189.72
			c0.43,0.24,0.36,0.72-0.15,1.02l-0.88,0.52c-0.51,0.3-1.32,0.35-1.75,0.11l0,0c-0.43-0.24-0.36-0.72,0.15-1.02l0.88-0.52
			C171.72,189.5,172.49,189.48,172.92,189.72z"/>
	</g>
</g>
<path id="矩形_00000000933548998852903250000016169523102504339119_" class="st3" d="M182.91,255.84L182.91,255.84
	c0.92-0.65,2.5-0.09,3.44,1.22l1.61,2.25c0.94,1.31,0.96,3,0.04,3.65l0,0c-0.92,0.65-2.5,0.09-3.44-1.22l-1.61-2.25
	C181.95,258.09,181.99,256.5,182.91,255.84z"/>
<g>
	<g>
		<g>
			<polygon class="st2" points="167.93,339.2 133.54,319.34 133.54,284.95 167.93,304.81 			"/>
			<polygon class="st3" points="167.93,339.2 202.33,319.34 202.33,284.95 167.93,304.81 			"/>
			<polygon class="st4" points="168.06,304.91 133.54,284.98 167.81,265.02 202.33,284.95 			"/>
		</g>
		<path id="矩形_00000128460044982284752560000011374711108577257887_" class="st5" d="M156.85,275.67L156.85,275.67
			c0.68,0.38,0.56,1.12-0.24,1.6l-7.14,4.22c-0.81,0.48-2.08,0.56-2.75,0.17l0,0c-0.68-0.38-0.56-1.12,0.24-1.6l7.14-4.22
			C154.9,275.37,156.17,275.29,156.85,275.67z"/>
		<path id="矩形_00000013164963560768695520000003392376985704708264_" class="st5" d="M143.93,283.32L143.93,283.32
			c0.68,0.38,0.56,1.12-0.24,1.6l-1.38,0.82c-0.81,0.48-2.08,0.56-2.75,0.17l0,0c-0.68-0.38-0.56-1.12,0.24-1.6l1.38-0.82
			C142.04,282.98,143.25,282.93,143.93,283.32z"/>
	</g>
	<g>
		<path class="st56" d="M187.61,310.02v1.71c-0.06,0.04-0.36,0.24-0.97,0.59c-0.51,0.29-0.88,0.47-1.01,0.53v-1.71
			c-1.97,1.23-3.43,2.49-3.43,3.02c0,0.52,1.47,0.13,3.43-0.87c0.13-0.06,0.49-0.25,1-0.54c0.64-0.36,0.93-0.55,0.98-0.58l0,0
			c1.96-1.22,3.43-2.49,3.43-3.01S189.57,309.02,187.61,310.02z"/>
		<path class="st56" d="M194.46,307.5l-2.86-6.06c-0.02-0.04-0.06-0.05-0.11-0.03l-9.74,5.51c-0.05,0.03-0.09,0.08-0.11,0.15
			l-2.86,9.3c-0.02,0.07-0.01,0.14,0.02,0.16l7.73,5.08c0.05,0.03,0.12-0.01,0.16-0.09l7.73-13.84
			C194.47,307.62,194.48,307.55,194.46,307.5z M187.61,312.58v4.9l-1.98,1.12v-4.9c-2.23,1.13-3.9,1.51-3.9,0.84
			c0-0.67,1.67-2.19,3.9-3.58v-1.53l-2.74,1.55v-2.33l7.46-4.22v2.33l-2.74,1.55v1.53c2.22-1.13,3.89-1.51,3.89-0.84
			C191.51,309.68,189.83,311.19,187.61,312.58z"/>
		<polygon class="st56" points="187.61,309.85 187.61,309.85 187.61,309.85 		"/>
	</g>
</g>
<g>
	<g>
		<polygon class="st2" points="181.37,295.38 146.98,275.52 146.98,241.12 181.37,260.98 		"/>
		<polygon class="st3" points="181.37,295.38 215.77,275.52 215.77,241.12 181.37,260.98 		"/>
		<polygon class="st4" points="181.5,261.09 146.98,241.16 181.25,221.19 215.77,241.12 		"/>
		<path id="矩形_00000043448541530548057740000016906345255289543814_" class="st5" d="M170.29,232.75L170.29,232.75
			c0.68,0.38,0.56,1.12-0.24,1.6l-7.14,4.22c-0.81,0.48-2.08,0.56-2.75,0.17l0,0c-0.68-0.38-0.56-1.12,0.24-1.6l7.14-4.22
			C168.34,232.44,169.61,232.36,170.29,232.75z"/>
		<path id="矩形_00000132079447353184840480000002607363019218575530_" class="st5" d="M158.41,239.65L158.41,239.65
			c0.68,0.38,0.56,1.12-0.24,1.6l-1.38,0.82c-0.81,0.48-2.08,0.56-2.75,0.17l0,0c-0.68-0.38-0.56-1.12,0.24-1.6l1.38-0.82
			C156.52,239.31,157.73,239.26,158.41,239.65z"/>
	</g>
	<g id="Layer_2_00000149351348720023517500000012722676176538792853_">
		<g id="Layer_1-2_00000169524706651652865790000004092240227012539312_">
			<g id="Page-1_00000127020736293781695140000017177698553006155396_">
				<g id="wbtc_colour_00000169522097119543132590000016956421464544675478_">
					<path id="Shape_00000065058781101431473860000000187611922769663932_" class="st6" d="M204.52,258.48l-0.44,0.84
						c2.19,1.98,2.19,6.88,0,11.29l0.44,0.34c2.43-4.88,2.43-10.32,0-12.49V258.48z"/>
					<path id="Shape-2_00000170257485063290297980000006068556312757078931_" class="st6" d="M195.23,263.71
						c2.39-4.26,6.06-6.3,8.45-4.71l0.44-0.84c-2.64-1.78-6.7,0.48-9.34,5.2L195.23,263.71z"/>
					<path id="Shape-3_00000039830430749088632610000017895205124637603519_" class="st6" d="M194.81,275.78
						c-2.18-1.98-2.18-6.87,0-11.29l-0.44-0.34c-2.43,4.88-2.43,10.32,0,12.49L194.81,275.78z"/>
					<path id="Shape-4_00000052797169200412410770000011303173657676585362_" class="st6" d="M203.67,271.39
						c-2.39,4.26-6.06,6.3-8.45,4.71l-0.44,0.84c2.64,1.78,6.7-0.48,9.34-5.2L203.67,271.39z"/>
					<path id="Shape-5_00000117649112825934216230000004876335251495434161_" class="st6" d="M202.24,264.02
						c-0.09-1.18-0.88-1.15-1.89-0.72v-1.7l-0.78,0.43v1.67c-0.2,0.11-0.41,0.23-0.62,0.35v-1.67l-0.77,0.43v1.71l-1.58,0.88v1.11
						c0,0,0.57-0.33,0.57-0.32c0.22-0.15,0.41-0.06,0.44,0.21v4.68c0,0.1-0.04,0.21-0.09,0.31c-0.05,0.1-0.13,0.17-0.2,0.2
						c0.01,0.01-0.57,0.32-0.57,0.32l-0.15,1.33l1.56-0.87v1.74l0.78-0.43v-1.71l0.62-0.35v1.7l0.78-0.43v-1.72
						c1.31-0.84,2.23-1.78,2.35-3.49c0.09-1.38-0.37-1.71-1.12-1.53C202.02,265.6,202.3,264.89,202.24,264.02z M201.15,268.33
						c0,1.29-1.66,2.07-2.18,2.36v-2.29C199.49,268.11,201.15,266.98,201.15,268.33z M200.79,265.3c0,1.18-1.38,1.81-1.82,2.05
						v-2.08C199.4,265.03,200.79,264.07,200.79,265.3z"/>
					<path id="Shape-6_00000163050873124574717280000007081311254416894095_" class="st6" d="M199.44,278.31
						c-4.45,2.48-8.05-0.33-8.05-6.28c0-5.94,3.61-12.77,8.05-15.25c4.45-2.48,8.05,0.33,8.05,6.27
						C207.5,269.01,203.89,275.83,199.44,278.31C199.45,278.31,199.45,278.31,199.44,278.31z M199.44,257.63
						c-4.1,2.29-7.42,8.58-7.41,14.05c0,5.47,3.33,8.06,7.42,5.77c4.09-2.29,7.41-8.57,7.41-14.04
						C206.87,257.94,203.55,255.34,199.44,257.63C199.45,257.63,199.45,257.63,199.44,257.63z"/>
				</g>
			</g>
		</g>
	</g>
</g>
<g>
	<path class="st2" d="M135.89,208.57l-93.07,54.22v-98.82l84.75-49.37c8.54-4.32,12.42-1.6,12.42,7.14v79.69
		C140,204.37,138.43,207.09,135.89,208.57z"/>
	<path class="st4" d="M149.44,216.82l-93.07,54.22v-98.82l84.75-49.37c8.54-4.32,12.42-1.6,12.42,7.14v79.69
		C153.54,212.62,151.98,215.34,149.44,216.82z"/>
	<polygon class="st2" points="56.37,271.04 42.82,262.91 42.82,164.13 56.37,172.25 	"/>
	
		<ellipse transform="matrix(0.4157 -0.9095 0.9095 0.4157 -83.6859 230.3878)" class="st68" cx="137.47" cy="180.33" rx="9.38" ry="5.12"/>
</g>
<radialGradient id="SVGID_1_" cx="-4106.6128" cy="2403.8682" r="37.8577" gradientTransform="matrix(-1.0502 0.5314 -0.0751 0.3464 -4027.7351 1688.4534)" gradientUnits="userSpaceOnUse">
	<stop  offset="0" style="stop-color:#B8B3D4"/>
	<stop  offset="0.3457" style="stop-color:#BAB6D6;stop-opacity:0.6543"/>
	<stop  offset="0.6064" style="stop-color:#C2C0DA;stop-opacity:0.3936"/>
	<stop  offset="0.8384" style="stop-color:#D0D0E3;stop-opacity:0.1616"/>
	<stop  offset="1" style="stop-color:#DDE0EB;stop-opacity:0"/>
</radialGradient>
<path style="opacity:0.29;fill:url(#SVGID_1_);" d="M72.65,345.39c19.96-15.46,50.35-30.91,67.89-34.51s15.58,6.02-4.38,21.48
	c-19.96,15.46-50.35,30.91-67.89,34.51S52.7,360.85,72.65,345.39z"/>
<g>
	<g>
		<path id="矩形_00000003815607589243554020000013261222974872552117_" class="st82" d="M148.57,390.03L148.57,390.03
			c0.62,0,1.15,0.76,1.15,1.64v1.52c0,0.88-0.53,1.64-1.15,1.64l0,0c-0.62,0-1.15-0.76-1.15-1.64v-1.52
			C147.42,390.72,147.95,390.03,148.57,390.03z"/>
		
			<radialGradient id="SVGID_00000075152414129823618110000013437357374843211432_" cx="117.025" cy="424.1551" r="29.1582" gradientTransform="matrix(1 0 0 0.5898 0 173.9913)" gradientUnits="userSpaceOnUse">
			<stop  offset="0" style="stop-color:#06070C"/>
			<stop  offset="1" style="stop-color:#0D101D;stop-opacity:0"/>
		</radialGradient>
		<path style="opacity:0.67;fill:url(#SVGID_00000075152414129823618110000013437357374843211432_);" d="M142.02,410.08
			c-13.68-7.9-35.96-8-49.77-0.23s-13.91,20.48-0.23,28.37c13.68,7.9,35.96,8,49.77,0.23S155.7,417.98,142.02,410.08z"/>
		<g>
			<path class="st84" d="M155.53,374.05v-49.28c0-0.23,0.02-0.45,0.02-0.68c0-22.91-18.57-41.48-41.48-41.48
				c-22.91,0-41.48,18.57-41.48,41.48c0,0.36,0.02,0.72,0.03,1.07v44.66h-0.03v22.67c0,2.84,2.3,5.15,5.15,5.15
				c2.84,0,5.15-2.31,5.15-5.15v-0.83c0.56,0.36,1.13,0.72,1.74,1.07c1.83,1.06,3.79,1.99,5.85,2.81v8.2c0,2.84,2.3,5.15,5.15,5.15
				s5.15-2.31,5.15-5.15v-5.23c2.95,0.57,5.99,0.96,9.06,1.14v12.59c0,2.84,2.3,5.15,5.15,5.15c2.84,0,5.15-2.31,5.15-5.15v-12.7
				c3.39-0.28,6.73-0.8,9.93-1.55v6.36c0,2.84,2.3,5.15,5.15,5.15s5.15-2.31,5.15-5.15v-9.87c1-0.47,1.97-0.96,2.91-1.49
				c0.7-0.39,1.35-0.8,1.99-1.21v0.71c0,2.84,2.3,5.15,5.15,5.15c2.84,0,5.15-2.31,5.15-5.15v-18.45H155.53z"/>
			
				<radialGradient id="SVGID_00000094614623375826647380000010604001621330562726_" cx="138.7477" cy="300.0344" r="106.6854" gradientUnits="userSpaceOnUse">
				<stop  offset="0.0124" style="stop-color:#DD78CE"/>
				<stop  offset="0.4936" style="stop-color:#A7589A"/>
				<stop  offset="0.5829" style="stop-color:#A0619E"/>
				<stop  offset="0.7273" style="stop-color:#8E79A8"/>
				<stop  offset="0.9078" style="stop-color:#709FB9"/>
				<stop  offset="1" style="stop-color:#5EB6C3"/>
			</radialGradient>
			<path style="fill:url(#SVGID_00000094614623375826647380000010604001621330562726_);" d="M155.53,374.05v-49.28
				c0-0.23,0.02-0.45,0.02-0.68c0-22.91-18.57-41.48-41.48-41.48c-22.91,0-41.48,18.57-41.48,41.48c0,0.36,0.02,0.72,0.03,1.07
				v44.66h-0.03v22.67c0,2.84,2.3,5.15,5.15,5.15c2.84,0,5.15-2.31,5.15-5.15v-0.83c0.56,0.36,1.13,0.72,1.74,1.07
				c1.83,1.06,3.79,1.99,5.85,2.81v8.2c0,2.84,2.3,5.15,5.15,5.15s5.15-2.31,5.15-5.15v-5.23c2.95,0.57,5.99,0.96,9.06,1.14v12.59
				c0,2.84,2.3,5.15,5.15,5.15c2.84,0,5.15-2.31,5.15-5.15v-12.7c3.39-0.28,6.73-0.8,9.93-1.55v6.36c0,2.84,2.3,5.15,5.15,5.15
				s5.15-2.31,5.15-5.15v-9.87c1-0.47,1.97-0.96,2.91-1.49c0.7-0.39,1.35-0.8,1.99-1.21v0.71c0,2.84,2.3,5.15,5.15,5.15
				c2.84,0,5.15-2.31,5.15-5.15v-18.45H155.53z"/>
		</g>
		<path id="矩形_00000171694894255067399250000009034742014192140694_" class="st82" d="M76.47,360.21L76.47,360.21
			c1.12,0,2.09,1.38,2.09,2.99v14.25c0,1.61-0.96,2.99-2.09,2.99l0,0c-1.12,0-2.09-1.38-2.09-2.99V363.2
			C74.39,361.59,75.35,360.21,76.47,360.21z"/>
		<path id="矩形_00000183247816928767321900000015061808167135862162_" class="st82" d="M137.78,297.12L137.78,297.12
			c1.37-1.02,3.68-0.37,5.02,1.41l2.29,3.06c1.34,1.78,1.31,4.19-0.06,5.22l0,0c-1.37,1.02-3.68,0.37-5.02-1.41l-2.29-3.06
			C136.29,300.42,136.41,298.14,137.78,297.12z"/>
		<path id="矩形_00000136396410385586090130000002114204814497997240_" class="st82" d="M93.87,396.8L93.87,396.8
			c1.12,0,2.09,1.38,2.09,2.99v2.76c0,1.61-0.96,2.99-2.09,2.99l0,0c-1.12,0-2.09-1.38-2.09-2.99v-2.76
			C91.79,398.06,92.75,396.8,93.87,396.8z"/>
		<path id="矩形_00000135650782189384123610000017236745639232838303_" class="st82" d="M76.23,386L76.23,386
			c1.12,0,2.09,1.38,2.09,2.99v2.76c0,1.61-0.96,2.99-2.09,2.99l0,0c-1.12,0-2.09-1.38-2.09-2.99v-2.76
			C74.14,387.26,75.1,386,76.23,386z"/>
		<path id="矩形_00000039092368458992106780000000645833254274049464_" class="st82" d="M114.06,405.54L114.06,405.54
			c1.12,0,2.09,1.38,2.09,2.99v2.76c0,1.61-0.96,2.99-2.09,2.99l0,0c-1.12,0-2.09-1.38-2.09-2.99v-2.76
			C111.98,406.8,112.94,405.54,114.06,405.54z"/>
		<path id="矩形_00000044138994540286054770000008343922041797945495_" class="st82" d="M133.76,400.19L133.76,400.19
			c0.89,0,1.66,1.1,1.66,2.37v2.19c0,1.28-0.76,2.37-1.66,2.37l0,0c-0.89,0-1.66-1.1-1.66-2.37v-2.19
			C132.11,401.2,132.87,400.19,133.76,400.19z"/>
		<g>
			<path id="椭圆形_00000131361704513822836830000016022114457789136031_" class="st86" d="M124.07,355.08
				c4.06-0.17,7.1-3.66,7.09-6c0-0.94-0.55-1.75-1.38-1.81c-1.29-0.13-3.23,0.7-5.72,0.8c-2.31,0.1-3.78-0.5-5.53-0.42
				c-1.84,0.08-1.75,2.22-1.47,3.05C117.71,353.01,119.92,355.25,124.07,355.08z"/>
			<path id="椭圆形_00000128456352546275628570000013909899437292470701_" class="st87" d="M124.16,353.11
				c4.15-0.17,7.19-3.38,7.19-5.63c0-0.84-0.55-1.57-1.38-1.63c-1.29-0.13-3.32,0.7-5.81,0.8c-2.4,0.1-3.78-0.5-5.62-0.43
				c-1.84,0.08-1.75,2.13-1.48,2.87C117.71,351.22,120.01,353.28,124.16,353.11z"/>
		</g>
		<g>
			
				<ellipse transform="matrix(0.5671 -0.8237 0.8237 0.5671 -226.7623 231.8084)" class="st87" cx="107.13" cy="331.61" rx="9.5" ry="9.1"/>
			<path id="形状结合_00000155122769449738814970000007459829606100747163_" class="st88" d="M108.32,321.65
				c4.24-0.18,7.66,3.98,7.66,9.22c0,0.19,0,0.37,0,0.56l0,0.56c0-5.33-3.33-9.59-7.48-9.42c-4.15,0.17-7.46,4.61-7.46,10.04
				c0,1.03,0.09,2.05,0.37,2.98c-0.46-1.2-0.74-2.59-0.74-3.99C100.68,326.27,104.08,321.82,108.32,321.65z"/>
			<path id="形状结合_00000088827138005424475060000017637778482518230936_" class="st89" d="M108.32,320.52
				c4.7-0.2,8.58,4.41,8.58,10.31s-3.86,10.83-8.57,11.02c-4.7,0.2-8.58-4.41-8.58-10.31C99.75,325.65,103.53,320.72,108.32,320.52z
				 M108.32,321.65c-4.24,0.18-7.65,4.62-7.64,9.86c0,5.24,3.42,9.4,7.66,9.22c4.24-0.18,7.65-4.62,7.64-9.86
				C115.98,325.63,112.47,321.47,108.32,321.65z"/>
		</g>
		<g>
			
				<ellipse transform="matrix(0.5671 -0.8237 0.8237 0.5671 -212.3271 256.5117)" class="st87" cx="137.84" cy="330.23" rx="9.5" ry="9.1"/>
			<path id="形状结合_00000041268273137469590620000004765197014587934901_" class="st88" d="M138.84,320.27
				c4.24-0.18,7.66,3.98,7.66,9.22c0,0.19,0,0.37,0,0.56l0,0.56c0-5.33-3.33-9.59-7.48-9.42c-4.15,0.17-7.46,4.61-7.46,10.04
				c0,1.03,0.09,2.05,0.37,2.98c-0.46-1.2-0.74-2.59-0.74-3.99C131.19,324.9,134.6,320.45,138.84,320.27z"/>
			<path id="形状结合_00000008860574950884165590000011753648654087837860_" class="st89" d="M138.84,319.15
				c4.7-0.2,8.58,4.41,8.58,10.31c0.01,5.89-3.86,10.83-8.57,11.02c-4.7,0.2-8.58-4.41-8.58-10.31S134.04,319.35,138.84,319.15z
				 M138.84,320.27c-4.24,0.18-7.65,4.62-7.64,9.86c0,5.24,3.42,9.4,7.66,9.22c4.24-0.18,7.65-4.62,7.64-9.86
				C146.49,324.26,142.99,320.1,138.84,320.27z"/>
		</g>
		<circle class="st86" cx="107.13" cy="331.61" r="3.77"/>
		<circle class="st86" cx="137.67" cy="330.48" r="3.77"/>
	</g>
</g>
<polygon class="st3" points="47.44,166.9 132.24,116.9 141.12,122.84 56.37,172.25 "/>
<g>
	<g>
		<polygon class="st2" points="220.3,371.74 185.9,351.89 185.9,317.49 220.3,337.35 		"/>
		<polygon class="st3" points="220.3,371.74 254.69,351.89 254.69,317.49 220.3,337.35 		"/>
		<polygon class="st4" points="220.42,337.46 185.9,317.53 220.18,297.56 254.69,317.49 		"/>
	</g>
	<path id="矩形_00000062176820489208126420000014446796841423610791_" class="st5" d="M209.22,308.21L209.22,308.21
		c0.68,0.38,0.56,1.12-0.24,1.6l-7.14,4.22c-0.81,0.48-2.08,0.56-2.75,0.17l0,0c-0.68-0.38-0.56-1.12,0.24-1.6l7.14-4.22
		C207.27,307.91,208.54,307.83,209.22,308.21z"/>
	<path id="矩形_00000013162173754037115520000006499575845244856974_" class="st5" d="M196.29,315.86L196.29,315.86
		c0.68,0.38,0.56,1.12-0.24,1.6l-1.38,0.82c-0.81,0.48-2.08,0.56-2.75,0.17l0,0c-0.68-0.38-0.56-1.12,0.24-1.6l1.38-0.82
		C194.41,315.52,195.62,315.48,196.29,315.86z"/>
</g>
<g id="Layer_x0020_1_00000025414759159716597830000013848664676837709234_">
	<g id="_1421394342400_00000024693168387509389740000011353865409224278668_">
		<g>
			<polygon class="st35" points="202.19,333.94 202.07,334.33 202.07,347.64 202.19,347.85 207.61,347.39 			"/>
			<polygon class="st35" points="202.19,333.94 196.77,341 202.19,347.85 202.19,341.39 			"/>
			<polygon class="st35" points="202.19,349.02 202.12,349.07 202.12,353.81 202.19,354.07 207.61,348.56 			"/>
			<polygon class="st35" points="202.19,354.07 202.19,349.02 196.77,342.17 			"/>
			<polygon class="st35" points="202.19,347.85 207.61,347.39 202.19,341.39 			"/>
			<polygon class="st35" points="196.77,341 202.19,347.85 202.19,341.39 			"/>
		</g>
	</g>
</g>
</svg>
