<?xml version="1.0" encoding="utf-8"?>
<!-- Generator: Adobe Illustrator 27.8.1, SVG Export Plug-In . SVG Version: 6.00 Build 0)  -->
<svg version="1.1" id="Слой_1" xmlns="http://www.w3.org/2000/svg" xmlns:xlink="http://www.w3.org/1999/xlink" x="0px" y="0px"
	 viewBox="0 0 290 269.62" style="enable-background:new 0 0 290 269.62;" xml:space="preserve">
<style type="text/css">
	.st0{fill:#101422;}
	.st1{fill:#FFFFFF;stroke:#111422;stroke-linecap:round;stroke-linejoin:round;stroke-miterlimit:10;}
	
		.st2{fill-rule:evenodd;clip-rule:evenodd;fill:#C6C3D1;stroke:#101320;stroke-linecap:round;stroke-linejoin:round;stroke-miterlimit:10;}
	
		.st3{fill-rule:evenodd;clip-rule:evenodd;fill:#FFFFFF;stroke:#111422;stroke-linecap:round;stroke-linejoin:round;stroke-miterlimit:10;}
	
		.st4{fill-rule:evenodd;clip-rule:evenodd;fill:#ECF0FC;stroke:#111422;stroke-linecap:round;stroke-linejoin:round;stroke-miterlimit:10;}
	.st5{opacity:0.92;fill-rule:evenodd;clip-rule:evenodd;fill:#FFFFFF;enable-background:new    ;}
	.st6{fill:none;stroke:#FFFFFF;stroke-linecap:round;stroke-linejoin:round;stroke-miterlimit:10;}
	.st7{fill-rule:evenodd;clip-rule:evenodd;fill:#101422;}
	.st8{fill:url(#SVGID_1_);}
	.st9{fill:url(#SVGID_00000088820208102048865170000006509204659231437735_);}
	.st10{fill:url(#SVGID_00000137090673162440109750000002336626996780194478_);}
	.st11{opacity:0.67;fill:url(#SVGID_00000173139544699880284100000009855536717383542455_);enable-background:new    ;}
	.st12{fill:#6FA3B6;}
	.st13{fill:url(#SVGID_00000134211790093706532380000016268862623208246192_);}
	.st14{opacity:0.2563;fill-rule:evenodd;clip-rule:evenodd;fill:#FFFFFF;enable-background:new    ;}
	.st15{fill:none;stroke:#FFFFFF;stroke-width:0.7384;stroke-linecap:round;stroke-linejoin:round;stroke-miterlimit:10;}
	
		.st16{fill:none;stroke:url(#SVGID_00000019637239887267402080000002975455370370918846_);stroke-width:5;stroke-linecap:round;stroke-linejoin:round;stroke-miterlimit:10;}
	.st17{fill:url(#SVGID_00000180327627770939561250000016135864849264723083_);}
	.st18{fill-rule:evenodd;clip-rule:evenodd;fill:#1AD4B3;}
	.st19{fill-rule:evenodd;clip-rule:evenodd;fill:#FC4F83;}
	.st20{fill:#C6C3D1;stroke:#101320;stroke-linecap:round;stroke-linejoin:round;stroke-miterlimit:10;}
	.st21{fill:#ECF0FC;stroke:#111422;stroke-linecap:round;stroke-linejoin:round;stroke-miterlimit:10;}
	
		.st22{fill:url(#SVGID_00000152961841480608196580000014057441945208384407_);stroke:#1D1D1B;stroke-width:0.2115;stroke-linecap:round;stroke-linejoin:round;stroke-miterlimit:10;}
	
		.st23{fill:url(#SVGID_00000067923506637894799670000008795244760931907203_);stroke:#1D1D1B;stroke-width:0.2115;stroke-linecap:round;stroke-linejoin:round;stroke-miterlimit:10;}
	
		.st24{fill:url(#SVGID_00000106147752873843884980000017958268130272136105_);stroke:#1D1D1B;stroke-width:0.2115;stroke-linecap:round;stroke-linejoin:round;stroke-miterlimit:10;}
	
		.st25{fill:url(#SVGID_00000041989518393718126340000002183904701924536478_);stroke:#1D1D1B;stroke-width:0.2115;stroke-linecap:round;stroke-linejoin:round;stroke-miterlimit:10;}
	
		.st26{fill-rule:evenodd;clip-rule:evenodd;fill:#101422;stroke:#101423;stroke-linecap:round;stroke-linejoin:round;stroke-miterlimit:10;}
	.st27{fill:#FFFFFF;}
	.st28{fill-rule:evenodd;clip-rule:evenodd;fill:url(#SVGID_00000023283579015951719580000010704159640727178383_);}
	.st29{fill-rule:evenodd;clip-rule:evenodd;fill:url(#SVGID_00000126310632698510024140000015301962685297420195_);}
	.st30{fill:url(#SVGID_00000127726143940688352440000017053032193497327780_);}
	.st31{fill:url(#SVGID_00000081647189499400076710000015273898296142942382_);}
	.st32{fill:url(#SVGID_00000183959387842347858130000004663061102407152528_);}
	
		.st33{fill-rule:evenodd;clip-rule:evenodd;fill:#C7FFF1;stroke:#101320;stroke-linecap:round;stroke-linejoin:round;stroke-miterlimit:10;}
	
		.st34{fill:none;stroke:url(#SVGID_00000067210988061256579470000002973709831438675895_);stroke-width:5;stroke-linecap:round;stroke-linejoin:round;stroke-miterlimit:10;}
	.st35{fill:url(#SVGID_00000054946832585761437740000006734940295593781155_);}
	
		.st36{fill:none;stroke:url(#SVGID_00000073693118011599360310000003418121243523305601_);stroke-width:5;stroke-linecap:round;stroke-linejoin:round;stroke-miterlimit:10;}
	.st37{fill:url(#SVGID_00000133521222502460660460000007059042918684083346_);}
	
		.st38{fill:none;stroke:url(#SVGID_00000104673040292229964870000008202614298307858581_);stroke-width:5;stroke-linecap:round;stroke-linejoin:round;stroke-miterlimit:10;}
	.st39{fill:url(#SVGID_00000151513749372899266420000017643695679988212617_);}
	
		.st40{fill-rule:evenodd;clip-rule:evenodd;fill:#1AD4B3;stroke:#111422;stroke-linecap:round;stroke-linejoin:round;stroke-miterlimit:10;}
	
		.st41{fill-rule:evenodd;clip-rule:evenodd;fill:#FC4F83;stroke:#111422;stroke-linecap:round;stroke-linejoin:round;stroke-miterlimit:10;}
	
		.st42{fill-rule:evenodd;clip-rule:evenodd;fill:#FFCAD7;stroke:#111422;stroke-linecap:round;stroke-linejoin:round;stroke-miterlimit:10;}
	.st43{fill:url(#SVGID_00000086664903890442293780000000610778576109869475_);}
	.st44{fill:url(#SVGID_00000183963349288369411490000017335470452830072711_);}
	.st45{fill:url(#SVGID_00000106869763411402609660000010519037325939572875_);}
	
		.st46{fill:none;stroke:url(#SVGID_00000080186605609662635480000003852900112888182915_);stroke-width:5;stroke-linecap:round;stroke-linejoin:round;stroke-miterlimit:10;}
	.st47{fill:url(#SVGID_00000162341306368858417590000006987004403039065752_);}
	
		.st48{fill:none;stroke:url(#SVGID_00000053513716340183927710000011092405557840013444_);stroke-width:5;stroke-linecap:round;stroke-linejoin:round;stroke-miterlimit:10;}
	.st49{fill:url(#SVGID_00000151528975567068176290000013518075114234739638_);}
	.st50{fill:url(#SVGID_00000003821817251140441640000016291526086609920406_);}
	.st51{fill:#101320;}
	.st52{fill:url(#SVGID_00000034072353296354872880000005461790031667215002_);}
	.st53{fill:url(#SVGID_00000031188717752059250980000002499889744595793331_);}
	.st54{fill:url(#SVGID_00000104693704725538296770000007874947713469454496_);}
	.st55{fill:url(#SVGID_00000160882601197389415070000009802415727574853527_);}
	.st56{fill:url(#SVGID_00000074421665850796682800000006681876167492672415_);}
	.st57{fill:url(#SVGID_00000083797801791053301920000018082940919374309775_);}
	.st58{opacity:0.29;fill:url(#SVGID_00000047027418717706655000000015553761057539849875_);enable-background:new    ;}
	.st59{fill:url(#SVGID_00000050621964046892715330000001919900715436435337_);}
	.st60{fill:url(#SVGID_00000104699444412775067710000010765074001518269064_);}
	.st61{fill:url(#SVGID_00000006674246415749233250000002067305179223255447_);}
	.st62{fill-rule:evenodd;clip-rule:evenodd;fill:url(#SVGID_00000006707710132277219190000013281842533142210987_);}
	.st63{fill:url(#SVGID_00000047779578820904281840000017630655054934835355_);}
	.st64{fill:url(#SVGID_00000147937566397870976490000004193474395991680441_);}
	.st65{fill:url(#SVGID_00000128484403471994014870000005424511518082826668_);}
	.st66{fill:url(#SVGID_00000033353763452260264460000017364193905931936908_);}
	.st67{opacity:0.29;fill:url(#SVGID_00000061442545077585657680000015890683054034749572_);enable-background:new    ;}
	
		.st68{fill:none;stroke:url(#SVGID_00000021809705168065474680000013688121061824629141_);stroke-width:5;stroke-linecap:round;stroke-linejoin:round;stroke-miterlimit:10;}
	.st69{fill:url(#SVGID_00000024691343188086275860000013513413687760666506_);}
	
		.st70{fill:none;stroke:url(#SVGID_00000088829288244529049020000013120548856437013915_);stroke-width:5;stroke-linecap:round;stroke-linejoin:round;stroke-miterlimit:10;}
	.st71{fill:url(#SVGID_00000134249491950930151700000007611181196908196777_);}
	
		.st72{fill:none;stroke:url(#SVGID_00000040534083496384643680000014258893987589198477_);stroke-width:5;stroke-linecap:round;stroke-linejoin:round;stroke-miterlimit:10;}
	.st73{fill:url(#SVGID_00000125605128457571517670000007914777658803694983_);}
	.st74{fill-rule:evenodd;clip-rule:evenodd;fill:url(#SVGID_00000097493329921128659440000010539123172747003577_);}
	.st75{fill:url(#SVGID_00000052826315675984121840000014185384837819200896_);}
	.st76{fill:url(#SVGID_00000011741994797334366580000005806823610703088551_);}
	.st77{fill:url(#SVGID_00000119796066259605340450000008459358555852884125_);}
	.st78{opacity:0.29;fill:url(#SVGID_00000096767738247301545900000013556264236077764246_);}
	.st79{opacity:0.29;fill:url(#SVGID_00000054966901778483087880000010073839430310630329_);}
	.st80{opacity:0.67;fill:url(#SVGID_00000116193338623549136490000005585322204310586025_);}
	.st81{fill:#3FA9BD;}
	.st82{fill:url(#SVGID_00000129178169206987043020000006702567722820211843_);}
	.st83{fill-rule:evenodd;clip-rule:evenodd;fill:#555069;}
	.st84{fill-rule:evenodd;clip-rule:evenodd;fill:#FFFFFF;}
	.st85{fill-rule:evenodd;clip-rule:evenodd;fill:#AFAFB1;}
	.st86{fill-rule:evenodd;clip-rule:evenodd;fill:#D3D3D3;}
	.st87{opacity:0.67;fill:url(#SVGID_00000157996296250388044840000017994093499189269950_);}
	.st88{fill:url(#SVGID_00000161612228304905220040000013086902417560849087_);}
	.st89{opacity:0.67;fill:url(#SVGID_00000128458702104361617230000002598746329528374460_);}
	.st90{fill:url(#SVGID_00000096044914761996572090000009114044615061709720_);}
	.st91{opacity:0.67;fill:url(#SVGID_00000143578416836670060900000006057847689690176653_);}
	.st92{fill:url(#SVGID_00000024702010013811761050000011328527010658782355_);}
	.st93{opacity:0.67;fill:url(#SVGID_00000092439444710931422890000005765798305030327733_);}
	.st94{fill:url(#SVGID_00000124127258794646235540000000613624037949901962_);}
	.st95{opacity:0.67;fill:url(#SVGID_00000004533446348173939770000002354218157371134136_);}
	.st96{fill:url(#SVGID_00000149354905101239622770000011397403899619599032_);}
	.st97{fill:#1AD4B3;}
	.st98{opacity:0.67;fill:url(#SVGID_00000115489439639160215970000011448540478353041544_);}
	.st99{fill:url(#SVGID_00000041269947073267638860000014023623667337860017_);}
	.st100{opacity:0.67;fill:url(#SVGID_00000095337293520469315750000001516328090316944061_);}
	.st101{fill:url(#SVGID_00000026851211274806615220000009047942155390685879_);}
	.st102{opacity:0.67;fill:url(#SVGID_00000109744318982941699250000003524611454736294304_);}
	.st103{fill:url(#SVGID_00000120516917690439144320000013339451641939331473_);}
	
		.st104{fill-rule:evenodd;clip-rule:evenodd;fill:none;stroke:#FFFFFF;stroke-width:0.7384;stroke-linecap:round;stroke-linejoin:round;stroke-miterlimit:10;}
	.st105{opacity:0.67;fill:url(#SVGID_00000049220080761125368850000016221602087957564548_);}
	.st106{fill:url(#SVGID_00000098217970035732270480000015999018726210111645_);}
	.st107{opacity:0.67;fill:url(#SVGID_00000181802994907029494060000010612850112403307682_);}
	.st108{fill:url(#SVGID_00000021801296445909638140000008411732534319594114_);}
	.st109{opacity:0.67;fill:url(#SVGID_00000096041607040539446040000017653653625948236676_);}
	.st110{fill:url(#SVGID_00000062150601746772952210000003831848558630126509_);}
	.st111{opacity:0.67;fill:url(#SVGID_00000096021795264975845650000014401096566217151910_);}
	.st112{fill:url(#SVGID_00000150790336440945891620000001497508162038370998_);}
	.st113{opacity:0.67;fill:url(#SVGID_00000089532870235791359350000013853318527694955188_);}
	.st114{fill:url(#SVGID_00000163051964617447013730000017569279982378193548_);}
	.st115{opacity:0.67;fill:url(#SVGID_00000040561572159266396240000006110791990800817833_);}
	.st116{fill:url(#SVGID_00000114790427697035349940000001739995907335581835_);}
	.st117{opacity:0.67;fill:url(#SVGID_00000134213233396446026920000014289170662275123094_);}
	.st118{fill:url(#SVGID_00000168829087675203491950000000898619868761685172_);}
	.st119{opacity:0.67;fill:url(#SVGID_00000074408552101654689190000015810704294879059853_);}
	.st120{fill:url(#SVGID_00000103970694007757194120000008403935649162090934_);}
	.st121{opacity:0.67;fill:url(#SVGID_00000129899069741190524840000005923848468961463199_);}
	.st122{fill:url(#SVGID_00000174584924890094676630000007617441289866245544_);}
	.st123{opacity:0.67;fill:url(#SVGID_00000130607276834575841850000009624938218047161023_);}
	.st124{fill:url(#SVGID_00000102520931225360409130000009670810726320064411_);}
	.st125{opacity:0.67;fill:url(#SVGID_00000072263081606966229850000008356467357111052712_);}
	.st126{fill:url(#SVGID_00000163064193285161817420000001287335539822037680_);}
	.st127{opacity:0.67;fill:url(#SVGID_00000073686524269638583730000018400691849427855258_);}
	.st128{fill:#5EA6B9;}
	.st129{fill:url(#SVGID_00000094576948668547037330000013661701956678417817_);}
	.st130{fill-rule:evenodd;clip-rule:evenodd;fill:#545067;}
	.st131{fill-rule:evenodd;clip-rule:evenodd;fill:#AEAEB0;}
	.st132{fill-rule:evenodd;clip-rule:evenodd;fill:#D2D2D2;}
	.st133{opacity:0.67;fill:url(#SVGID_00000161633243451686520550000009178243469697331355_);}
	.st134{fill:url(#SVGID_00000101782214492551851760000002744936795665507496_);}
	.st135{fill-rule:evenodd;clip-rule:evenodd;fill:#63D0B3;}
	
		.st136{fill-rule:evenodd;clip-rule:evenodd;fill:none;stroke:#111422;stroke-linecap:round;stroke-linejoin:round;stroke-miterlimit:10;}
	.st137{fill-rule:evenodd;clip-rule:evenodd;fill:#E85C83;}
	.st138{fill:#5DC29D;}
	.st139{fill:url(#SVGID_00000018223480455619179560000011704928273367638405_);}
	.st140{fill:url(#SVGID_00000135677062746740982860000015951042090349070987_);}
	.st141{fill:#E85C83;}
	.st142{opacity:0.67;fill:url(#SVGID_00000093164675635196688400000017371881707198656651_);}
	.st143{fill:url(#SVGID_00000011747595326859226930000017122268490318796971_);}
	
		.st144{fill:none;stroke:url(#SVGID_00000010282547911995512660000014602244474496296081_);stroke-width:5;stroke-linecap:round;stroke-linejoin:round;stroke-miterlimit:10;}
	.st145{fill:url(#SVGID_00000113326198591708044070000000933914078000479934_);}
	.st146{opacity:0.67;fill:url(#SVGID_00000070076984855547667940000009530290568143832965_);}
	.st147{fill:url(#SVGID_00000119115279336125033750000011078770102025831065_);}
	.st148{opacity:0.67;fill:url(#SVGID_00000098906124349900177520000003892862402769880511_);}
	.st149{fill:url(#SVGID_00000159454657218794504230000000212494822120604846_);}
	.st150{opacity:0.67;fill:url(#SVGID_00000041261570295089420200000000274855792326749070_);}
	.st151{fill:url(#SVGID_00000115476094832385496680000017946805954957900175_);}
	.st152{opacity:0.67;fill:url(#SVGID_00000018936542336123786020000010441115646899808653_);}
	.st153{fill:url(#SVGID_00000002360881236310760010000014637261300412946309_);}
	.st154{opacity:0.67;fill:url(#SVGID_00000168086266489225702780000010986114998276078481_);}
	.st155{fill:url(#SVGID_00000173860670387578408860000016191018865349848723_);}
	.st156{opacity:0.67;fill:url(#SVGID_00000030458231614976737200000000188641635120243351_);}
	.st157{fill:url(#SVGID_00000038405018963080524990000015296591932402650497_);}
	.st158{fill:none;stroke:#000000;stroke-width:22;stroke-linecap:round;stroke-linejoin:round;stroke-miterlimit:10;}
	.st159{fill:#ECF0FC;}
	.st160{fill:url(#SVGID_00000104680387515560666180000006397580857716793735_);}
	.st161{fill:url(#SVGID_00000106118590081669121770000005721525316496476309_);}
	.st162{fill:none;stroke:url(#SVGID_00000031196711488264487030000004017737549168474269_);stroke-width:5;stroke-miterlimit:10;}
	.st163{fill:#111422;}
	.st164{fill:url(#SVGID_00000137108431321712635760000017399410521295407278_);}
	.st165{fill:none;}
	.st166{opacity:0.67;fill:url(#SVGID_00000015331488442483646110000012655852783791069064_);}
	.st167{fill:url(#SVGID_00000031197613767617164570000003814258120057115291_);}
	.st168{fill:none;stroke:url(#SVGID_00000084499068266550678710000015715707697430517673_);stroke-width:5;stroke-miterlimit:10;}
	.st169{fill:url(#SVGID_00000059990135975097620850000009500571091760158359_);}
	.st170{opacity:0.67;fill:url(#SVGID_00000123441627874509864890000001690713609711160743_);}
	.st171{fill:url(#SVGID_00000085223649607564704230000010021742311763726774_);}
	.st172{opacity:0.67;fill:url(#SVGID_00000075162395000146523800000003326841395307281810_);}
	.st173{fill:url(#SVGID_00000053527050301754581490000016435155758852983223_);}
</style>
<g>
	<g>
		<polygon class="st2" points="175.36,128.21 153.46,115.56 153.46,93.66 175.36,106.31 		"/>
		<g>
			<polygon class="st3" points="175.36,128.21 197.26,115.56 197.26,93.66 175.36,106.31 			"/>
			
				<linearGradient id="SVGID_1_" gradientUnits="userSpaceOnUse" x1="175.3582" y1="-4972.5552" x2="197.2582" y2="-4972.5552" gradientTransform="matrix(1 0 0 -1 0 -4861.6294)">
				<stop  offset="0" style="stop-color:#DE40CB"/>
				<stop  offset="1" style="stop-color:#3137E4"/>
			</linearGradient>
			<path class="st8" d="M196.52,94.94v20.19l-20.42,11.8v-20.2L196.52,94.94 M197.26,93.66l-21.9,12.64v21.9l21.9-12.64V93.66
				L197.26,93.66z"/>
		</g>
		<polygon class="st4" points="175.44,106.37 153.46,93.68 175.28,80.97 197.26,93.66 		"/>
		<path id="矩形_00000148623313805129071540000007807996957795660682_" class="st5" d="M168.42,88.18L168.42,88.18
			c0.43,0.24,0.36,0.72-0.15,1.02l-4.54,2.69c-0.51,0.3-1.32,0.35-1.75,0.11l0,0c-0.43-0.24-0.36-0.72,0.15-1.02l4.54-2.69
			C167.18,87.98,167.99,87.93,168.42,88.18z"/>
		<path id="矩形_00000118383254599036983700000000543607972685688218_" class="st5" d="M160.85,92.57L160.85,92.57
			c0.43,0.24,0.36,0.72-0.15,1.02l-0.88,0.52c-0.51,0.3-1.32,0.35-1.75,0.11l0,0c-0.43-0.24-0.36-0.72,0.15-1.02l0.88-0.52
			C159.65,92.35,160.42,92.32,160.85,92.57z"/>
	</g>
	<path id="矩形_00000172426292579953570200000006099085767994963896_" class="st3" d="M222.41,80.21L222.41,80.21
		c0.58-0.42,1.59-0.06,2.19,0.78l1.02,1.43c0.6,0.84,0.61,1.91,0.03,2.33l0,0c-0.58,0.42-1.59,0.06-2.19-0.78l-1.02-1.43
		C221.79,81.64,221.82,80.63,222.41,80.21z"/>
	<g>
		<g>
			<g>
				<polygon class="st3" points="246.65,144.16 224.75,131.52 224.75,109.62 246.65,122.26 				"/>
				
					<linearGradient id="SVGID_00000033364562074323796550000011119776588197226938_" gradientUnits="userSpaceOnUse" x1="224.7482" y1="-4988.5151" x2="246.6482" y2="-4988.5151" gradientTransform="matrix(1 0 0 -1 0 -4861.6294)">
					<stop  offset="0" style="stop-color:#DE40CB"/>
					<stop  offset="1" style="stop-color:#3137E4"/>
				</linearGradient>
				<path style="fill:url(#SVGID_00000033364562074323796550000011119776588197226938_);" d="M225.48,110.89l20.42,11.79v20.19
					l-20.42-11.79V110.89 M224.75,109.62v21.9l21.9,12.64v-21.9L224.75,109.62L224.75,109.62z"/>
			</g>
			<polygon class="st3" points="246.65,144.16 268.54,131.52 268.54,109.62 246.65,122.26 			"/>
			<polygon class="st4" points="246.73,122.33 224.75,109.64 246.57,96.92 268.55,109.61 			"/>
		</g>
		<path id="矩形_00000078746474933635943310000006488400228940387215_" class="st3" d="M239.39,103.97L239.39,103.97
			c0.43,0.24,0.36,0.72-0.15,1.02l-4.54,2.69c-0.51,0.3-1.32,0.35-1.75,0.11l0,0c-0.43-0.24-0.36-0.72,0.15-1.02l4.54-2.69
			C238.15,103.77,238.96,103.72,239.39,103.97z"/>
		<path id="矩形_00000034052103442070673650000000955420715301935273_" class="st3" d="M231.16,108.84L231.16,108.84
			c0.43,0.24,0.36,0.72-0.15,1.02l-0.88,0.52c-0.51,0.3-1.32,0.35-1.75,0.11l0,0c-0.43-0.24-0.36-0.72,0.15-1.02l0.88-0.52
			C229.96,108.62,230.73,108.59,231.16,108.84z"/>
	</g>
	<g>
		<polygon class="st3" points="174.18,156.76 152.28,144.11 152.28,122.21 174.18,134.86 		"/>
		<g>
			<polygon class="st3" points="174.18,156.76 196.08,144.11 196.08,122.21 174.18,134.86 			"/>
			
				<linearGradient id="SVGID_00000061465063955044959110000003870767203622440334_" gradientUnits="userSpaceOnUse" x1="174.1782" y1="-5001.105" x2="196.0782" y2="-5001.105" gradientTransform="matrix(1 0 0 -1 0 -4861.6294)">
				<stop  offset="0" style="stop-color:#DE40CB"/>
				<stop  offset="1" style="stop-color:#3137E4"/>
			</linearGradient>
			<path style="fill:url(#SVGID_00000061465063955044959110000003870767203622440334_);" d="M195.34,123.49v20.19l-20.42,11.79
				v-20.19L195.34,123.49 M196.08,122.21l-21.9,12.64v21.9l21.9-12.64V122.21L196.08,122.21z"/>
		</g>
		<polygon class="st4" points="174.26,134.92 152.28,122.24 174.1,109.52 196.08,122.21 		"/>
		<path id="矩形_00000037650785007930572000000012779279190776651199_" class="st3" d="M166.92,117.14L166.92,117.14
			c0.43,0.24,0.36,0.72-0.15,1.02l-4.54,2.69c-0.51,0.3-1.32,0.35-1.75,0.11l0,0c-0.43-0.24-0.36-0.72,0.15-1.02l4.54-2.69
			C165.68,116.94,166.49,116.89,166.92,117.14z"/>
		<path id="矩形_00000078761642528680542380000001461960331606722719_" class="st3" d="M159.35,121.53L159.35,121.53
			c0.43,0.24,0.36,0.72-0.15,1.02l-0.88,0.52c-0.51,0.3-1.32,0.35-1.75,0.11l0,0c-0.43-0.24-0.36-0.72,0.15-1.02l0.88-0.52
			C158.15,121.31,158.92,121.29,159.35,121.53z"/>
	</g>
	<g>
		<g>
			<polygon class="st3" points="238.94,113.78 217.04,101.14 217.04,79.24 238.94,91.88 			"/>
			
				<linearGradient id="SVGID_00000182525511574785688040000017097804043035697322_" gradientUnits="userSpaceOnUse" x1="217.0382" y1="-4958.1353" x2="238.9382" y2="-4958.1353" gradientTransform="matrix(1 0 0 -1 0 -4861.6294)">
				<stop  offset="0" style="stop-color:#DE40CB"/>
				<stop  offset="1" style="stop-color:#3137E4"/>
			</linearGradient>
			<path style="fill:url(#SVGID_00000182525511574785688040000017097804043035697322_);" d="M217.78,80.52l20.42,11.79v20.19
				l-20.42-11.79V80.52 M217.04,79.24v21.9l21.9,12.64v-21.9L217.04,79.24L217.04,79.24z"/>
		</g>
		<polygon class="st3" points="238.94,113.78 260.84,101.14 260.84,79.24 238.94,91.88 		"/>
		<polygon class="st4" points="239.02,91.95 217.04,79.26 238.86,66.55 260.84,79.24 		"/>
		<path id="矩形_00000069361033736915773900000005031093674425097095_" class="st3" d="M231.68,74.16L231.68,74.16
			c0.43,0.24,0.36,0.72-0.15,1.02l-4.54,2.69c-0.51,0.3-1.32,0.35-1.75,0.11l0,0c-0.43-0.24-0.36-0.72,0.15-1.02l4.54-2.69
			C230.44,73.97,231.25,73.92,231.68,74.16z"/>
		<path id="矩形_00000006683367174722169930000014713480140337575829_" class="st3" d="M224.12,78.56L224.12,78.56
			c0.43,0.24,0.36,0.72-0.15,1.02l-0.88,0.52c-0.51,0.3-1.32,0.35-1.75,0.11l0,0c-0.43-0.24-0.36-0.72,0.15-1.02l0.88-0.52
			C222.91,78.34,223.69,78.31,224.12,78.56z"/>
	</g>
	<g>
		<polygon class="st2" points="257.59,170.18 235.69,157.54 235.69,135.64 257.59,148.28 		"/>
		<polygon class="st3" points="257.59,170.18 279.49,157.54 279.49,135.64 257.59,148.28 		"/>
		<polygon class="st4" points="257.67,148.35 235.69,135.66 257.52,122.95 279.5,135.63 		"/>
		<path id="矩形_00000031888461265566228590000014095895372491705246_" class="st3" d="M250.34,130.56L250.34,130.56
			c0.43,0.24,0.36,0.72-0.15,1.02l-4.54,2.69c-0.51,0.3-1.32,0.35-1.75,0.11l0,0c-0.43-0.24-0.36-0.72,0.15-1.02l4.54-2.69
			C249.1,130.37,249.91,130.32,250.34,130.56z"/>
		<path id="矩形_00000146482413366987904990000016930185588983010990_" class="st3" d="M242.77,134.95L242.77,134.95
			c0.43,0.24,0.36,0.72-0.15,1.02l-0.88,0.52c-0.51,0.3-1.32,0.35-1.75,0.11l0,0c-0.43-0.24-0.36-0.72,0.15-1.02l0.88-0.52
			C241.57,134.74,242.34,134.71,242.77,134.95z"/>
	</g>
	<g>
		<polygon class="st2" points="232.65,144.73 210.75,132.09 210.75,110.19 232.65,122.83 		"/>
		<polygon class="st3" points="232.65,144.73 254.55,132.09 254.55,110.19 232.65,122.83 		"/>
		<polygon class="st4" points="232.73,122.9 210.75,110.21 232.58,97.49 254.55,110.18 		"/>
		<path id="矩形_00000026867665860181870300000012061862892588957628_" class="st3" d="M225.39,105.11L225.39,105.11
			c0.43,0.24,0.36,0.72-0.15,1.02l-4.54,2.69c-0.51,0.3-1.32,0.35-1.75,0.11l0,0c-0.43-0.24-0.36-0.72,0.15-1.02l4.54-2.69
			C224.16,104.92,224.96,104.87,225.39,105.11z"/>
		<path id="矩形_00000093886902960681685480000002336860987494706051_" class="st3" d="M217.83,109.5L217.83,109.5
			c0.43,0.24,0.36,0.72-0.15,1.02l-0.88,0.52c-0.51,0.3-1.32,0.35-1.75,0.11l0,0c-0.43-0.24-0.36-0.72,0.15-1.02l0.88-0.52
			C216.62,109.29,217.4,109.26,217.83,109.5z"/>
	</g>
	<g>
		<polygon class="st2" points="217.42,99.69 195.52,87.05 195.52,65.15 217.42,77.79 		"/>
		<polygon class="st3" points="217.42,99.69 239.32,87.05 239.32,65.15 217.42,77.79 		"/>
		<polygon class="st4" points="217.5,77.86 195.52,65.17 217.34,52.46 239.32,65.14 		"/>
		<path id="矩形_00000180356288007304960820000004729412807136236699_" class="st3" d="M210.16,60.07L210.16,60.07
			c0.43,0.24,0.36,0.72-0.15,1.02l-4.54,2.69c-0.51,0.3-1.32,0.35-1.75,0.11l0,0c-0.43-0.24-0.36-0.72,0.15-1.02l4.54-2.69
			C208.92,59.88,209.73,59.83,210.16,60.07z"/>
		<path id="矩形_00000142887255132434147450000006931573802100280970_" class="st3" d="M202.59,64.46L202.59,64.46
			c0.43,0.24,0.36,0.72-0.15,1.02L201.56,66c-0.51,0.3-1.32,0.35-1.75,0.11l0,0c-0.43-0.24-0.36-0.72,0.15-1.02l0.88-0.52
			C201.39,64.25,202.16,64.22,202.59,64.46z"/>
	</g>
	<g>
		<polygon class="st2" points="210.41,74.01 188.51,61.36 188.51,39.47 210.41,52.11 		"/>
		<polygon class="st3" points="210.41,74.01 232.3,61.36 232.3,39.47 210.41,52.11 		"/>
		<polygon class="st4" points="210.49,52.18 188.51,39.49 210.33,26.77 232.31,39.46 		"/>
		<path id="矩形_00000049932566688582992770000008406498107719781800_" class="st5" d="M203.47,33.98L203.47,33.98
			c0.43,0.24,0.36,0.72-0.15,1.02l-4.54,2.69c-0.51,0.3-1.32,0.35-1.75,0.11l0,0c-0.43-0.24-0.36-0.72,0.15-1.02l4.54-2.69
			C202.23,33.79,203.04,33.73,203.47,33.98z"/>
		<path id="矩形_00000072251151674518024490000005423164561701977242_" class="st5" d="M195.9,38.37L195.9,38.37
			c0.43,0.24,0.36,0.72-0.15,1.02l-0.88,0.52c-0.51,0.3-1.32,0.35-1.75,0.11l0,0c-0.43-0.24-0.36-0.72,0.15-1.02l0.88-0.52
			C194.7,38.16,195.47,38.13,195.9,38.37z"/>
	</g>
</g>
<path id="矩形_00000092444985759491655410000001619075072154429838_" class="st3" d="M205.89,104.5L205.89,104.5
	c0.92-0.65,2.5-0.09,3.44,1.22l1.61,2.25c0.94,1.31,0.96,3,0.04,3.65l0,0c-0.92,0.65-2.5,0.09-3.44-1.22l-1.61-2.25
	C204.92,106.74,204.97,105.15,205.89,104.5z"/>
<g>
	<g>
		<g>
			<polygon class="st2" points="190.91,187.86 156.52,168 156.52,133.6 190.91,153.46 			"/>
			<polygon class="st3" points="190.91,187.86 225.3,168 225.3,133.6 190.91,153.46 			"/>
			<polygon class="st4" points="191.03,153.57 156.52,133.64 190.79,113.67 225.31,133.6 			"/>
		</g>
		<path id="矩形_00000005947241955890264000000015274529504360588419_" class="st3" d="M179.51,124.73L179.51,124.73
			c0.68,0.38,0.56,1.12-0.24,1.6l-7.14,4.22c-0.81,0.48-2.08,0.56-2.75,0.17l0,0c-0.68-0.38-0.56-1.12,0.24-1.6l7.14-4.22
			C177.56,124.43,178.83,124.35,179.51,124.73z"/>
		<path id="矩形_00000165932070018221714440000010251829299095301546_" class="st3" d="M166.59,132.38L166.59,132.38
			c0.68,0.38,0.56,1.12-0.24,1.6l-1.38,0.82c-0.81,0.48-2.08,0.56-2.75,0.17l0,0c-0.68-0.38-0.56-1.12,0.24-1.6l1.38-0.82
			C164.7,132.04,165.91,132,166.59,132.38z"/>
	</g>
	<g>
		<path class="st7" d="M210.59,158.68v1.71c-0.06,0.04-0.36,0.24-0.97,0.59c-0.51,0.29-0.88,0.47-1.01,0.53v-1.71
			c-1.97,1.23-3.43,2.49-3.43,3.02s1.47,0.13,3.43-0.87c0.13-0.06,0.49-0.25,1-0.54c0.64-0.36,0.93-0.55,0.98-0.58l0,0
			c1.96-1.22,3.43-2.49,3.43-3.01S212.55,157.68,210.59,158.68z"/>
		<path class="st7" d="M217.44,156.16l-2.86-6.06c-0.02-0.04-0.06-0.05-0.11-0.03l-9.74,5.51c-0.05,0.03-0.09,0.08-0.11,0.15
			l-2.86,9.3c-0.02,0.07-0.01,0.14,0.02,0.16l7.73,5.08c0.05,0.03,0.12-0.01,0.16-0.09l7.73-13.84
			C217.45,156.28,217.46,156.2,217.44,156.16z M210.59,161.24v4.9l-1.98,1.12v-4.9c-2.23,1.13-3.9,1.51-3.9,0.84s1.67-2.19,3.9-3.58
			v-1.53l-2.74,1.55v-2.33l7.46-4.22v2.33l-2.74,1.55v1.53c2.22-1.13,3.89-1.51,3.89-0.84
			C214.48,158.34,212.81,159.85,210.59,161.24z"/>
	</g>
</g>
<g>
	<g>
		<polygon class="st2" points="204.35,144.03 169.96,124.17 169.96,89.78 204.35,109.64 		"/>
		<polygon class="st3" points="204.35,144.03 238.74,124.17 238.74,89.78 204.35,109.64 		"/>
		<polygon class="st4" points="204.47,109.74 169.96,89.81 204.23,69.85 238.75,89.78 		"/>
		<path id="矩形_00000026161721441682241300000018248590518573428102_" class="st5" d="M193.27,81.4L193.27,81.4
			c0.68,0.38,0.56,1.12-0.24,1.6l-7.14,4.22c-0.81,0.48-2.08,0.56-2.75,0.17l0,0c-0.68-0.38-0.56-1.12,0.24-1.6l7.14-4.22
			C191.32,81.09,192.59,81.01,193.27,81.4z"/>
		<path id="矩形_00000176023803833714054170000008867858770629861815_" class="st5" d="M181.38,88.3L181.38,88.3
			c0.68,0.38,0.56,1.12-0.24,1.6l-1.38,0.82c-0.81,0.48-2.08,0.56-2.75,0.17l0,0c-0.68-0.38-0.56-1.12,0.24-1.6l1.38-0.82
			C179.5,87.96,180.71,87.91,181.38,88.3z"/>
	</g>
	<g id="Layer_2_00000084496246384721177180000002169298202784089479_">
		<g id="Layer_1-2_00000021841144106814293420000008240498963940336544_">
			<g id="Page-1_00000137091898446777023290000000336784721674663586_">
				<g id="wbtc_colour_00000159435701711634348250000002008622591444957576_">
					<path id="Shape_00000103980657995546986290000005810453347689381520_" class="st0" d="M227.5,107.13l-0.44,0.84
						c2.19,1.98,2.19,6.88,0,11.29l0.44,0.34c2.43-4.88,2.43-10.32,0-12.49V107.13z"/>
					<path id="Shape-2_00000129903232723516385670000010187999523497584315_" class="st0" d="M218.2,112.36
						c2.39-4.26,6.06-6.3,8.45-4.71l0.44-0.84c-2.64-1.78-6.7,0.48-9.34,5.2L218.2,112.36z"/>
					<path id="Shape-3_00000000194945493035371980000000525141177645470375_" class="st0" d="M217.79,124.43
						c-2.18-1.98-2.18-6.87,0-11.29l-0.44-0.34c-2.43,4.88-2.43,10.32,0,12.49L217.79,124.43z"/>
					<path id="Shape-4_00000116917652406591591370000009775842508424926597_" class="st0" d="M226.65,120.04
						c-2.39,4.26-6.06,6.3-8.45,4.71l-0.44,0.84c2.64,1.78,6.7-0.48,9.34-5.2L226.65,120.04z"/>
					<path id="Shape-5_00000137823128162404731280000013171361786358305169_" class="st0" d="M225.21,112.68
						c-0.09-1.18-0.88-1.15-1.89-0.72v-1.7l-0.78,0.43v1.67c-0.2,0.11-0.41,0.23-0.62,0.35v-1.67l-0.77,0.43v1.71l-1.58,0.88v1.11
						c0,0,0.57-0.33,0.57-0.32c0.22-0.15,0.41-0.06,0.44,0.21v4.68c0,0.1-0.04,0.21-0.09,0.31s-0.13,0.17-0.2,0.2
						c0.01,0.01-0.57,0.32-0.57,0.32l-0.15,1.33l1.56-0.87v1.74l0.78-0.43v-1.71l0.62-0.35v1.7l0.78-0.43v-1.72
						c1.31-0.84,2.23-1.78,2.35-3.49c0.09-1.38-0.37-1.71-1.12-1.53C225,114.25,225.28,113.55,225.21,112.68z M224.12,116.99
						c0,1.29-1.66,2.07-2.18,2.36v-2.29C222.47,116.76,224.12,115.64,224.12,116.99z M223.76,113.96c0,1.18-1.38,1.81-1.82,2.05
						v-2.08C222.38,113.68,223.76,112.73,223.76,113.96z"/>
					<path id="Shape-6_00000136389258416826123460000017857293604995505054_" class="st0" d="M222.42,126.97
						c-4.45,2.48-8.05-0.33-8.05-6.28c0-5.94,3.61-12.77,8.05-15.25c4.45-2.48,8.05,0.33,8.05,6.27
						C230.47,117.66,226.87,124.49,222.42,126.97L222.42,126.97z M222.42,106.28c-4.1,2.29-7.42,8.58-7.41,14.05
						c0,5.47,3.33,8.06,7.42,5.77s7.41-8.57,7.41-14.04C229.85,106.59,226.53,104,222.42,106.28
						C222.43,106.28,222.42,106.28,222.42,106.28z"/>
				</g>
			</g>
		</g>
	</g>
</g>
<g>
	<path class="st2" d="M108.13,112.4l-93.07,54.22V67.8l84.75-49.37c8.54-4.32,12.42-1.6,12.42,7.14v79.69
		C112.23,108.2,110.67,110.92,108.13,112.4z"/>
	<path class="st4" d="M121.67,120.65L28.6,174.87V76.05l84.75-49.37c8.54-4.32,12.42-1.6,12.42,7.14v79.69
		C125.78,116.45,124.21,119.17,121.67,120.65z"/>
	<polygon class="st2" points="28.6,174.87 15.06,166.75 15.06,67.96 28.6,76.09 	"/>
	
		<ellipse transform="matrix(0.4157 -0.9095 0.9095 0.4157 -12.4383 148.9435)" class="st7" cx="109.7" cy="84.15" rx="9.38" ry="5.12"/>
</g>
<radialGradient id="SVGID_00000112605084121133346160000016822325582934682756_" cx="1299.3306" cy="-10381.4229" r="37.8577" gradientTransform="matrix(-1.0502 0.5314 0.0751 -0.3464 2271.4868 -4130.5088)" gradientUnits="userSpaceOnUse">
	<stop  offset="0" style="stop-color:#B6B2D0"/>
	<stop  offset="0.3457" style="stop-color:#B8B5D2;stop-opacity:0.6543"/>
	<stop  offset="0.6064" style="stop-color:#C1BFD7;stop-opacity:0.3936"/>
	<stop  offset="0.8384" style="stop-color:#CFCFE0;stop-opacity:0.1616"/>
	<stop  offset="1" style="stop-color:#DDDFE9;stop-opacity:0"/>
</radialGradient>
<path style="opacity:0.29;fill:url(#SVGID_00000112605084121133346160000016822325582934682756_);enable-background:new    ;" d="
	M95.63,162.63c19.96-15.46,50.35-30.91,67.89-34.51c17.54-3.6,15.58,6.02-4.38,21.48s-50.35,30.91-67.89,34.51
	S75.67,178.09,95.63,162.63z"/>
<polygon class="st3" points="19.68,70.73 104.48,20.74 113.35,26.68 28.6,76.09 "/>
<g>
	<path id="矩形_00000183238061735208863580000003521296721235984821_" class="st14" d="M171.54,207.27L171.54,207.27
		c0.62,0,1.15,0.76,1.15,1.64v1.52c0,0.88-0.53,1.64-1.15,1.64l0,0c-0.62,0-1.15-0.76-1.15-1.64v-1.52
		C170.4,207.96,170.93,207.27,171.54,207.27z"/>
	
		<radialGradient id="SVGID_00000062168227610154867930000000017203609075840132_" cx="139.9982" cy="-7091.9624" r="29.1554" gradientTransform="matrix(1 0 0 -0.5898 0 -3941.4534)" gradientUnits="userSpaceOnUse">
		<stop  offset="0" style="stop-color:#B8B3D4"/>
		<stop  offset="0.3457" style="stop-color:#BAB6D6;stop-opacity:0.6543"/>
		<stop  offset="0.6064" style="stop-color:#C2C0DA;stop-opacity:0.3936"/>
		<stop  offset="0.8384" style="stop-color:#D0D0E3;stop-opacity:0.1616"/>
		<stop  offset="1" style="stop-color:#DDE0EB;stop-opacity:0"/>
	</radialGradient>
	<path style="opacity:0.67;fill:url(#SVGID_00000062168227610154867930000000017203609075840132_);" d="M165,227.32
		c-13.68-7.9-35.96-8-49.77-0.23s-13.91,20.48-0.23,28.37c13.68,7.9,35.96,8,49.77,0.23C178.58,247.92,178.68,235.22,165,227.32z"/>
	<g>
		<path class="st128" d="M178.5,191.29v-49.28c0-0.23,0.02-0.45,0.02-0.68c0-22.91-18.57-41.48-41.48-41.48
			s-41.48,18.57-41.48,41.48c0,0.36,0.02,0.72,0.03,1.07v44.66h-0.03v22.67c0,2.84,2.3,5.15,5.15,5.15c2.84,0,5.15-2.31,5.15-5.15
			v-0.83c0.56,0.36,1.13,0.72,1.74,1.07c1.83,1.06,3.79,1.99,5.85,2.81v8.2c0,2.84,2.3,5.15,5.15,5.15s5.15-2.31,5.15-5.15v-5.23
			c2.95,0.57,5.99,0.96,9.06,1.14v12.59c0,2.84,2.3,5.15,5.15,5.15c2.84,0,5.15-2.31,5.15-5.15v-12.7c3.39-0.28,6.73-0.8,9.93-1.55
			v6.36c0,2.84,2.3,5.15,5.15,5.15c2.84,0,5.15-2.31,5.15-5.15v-9.87c1-0.47,1.97-0.96,2.91-1.49c0.7-0.39,1.35-0.8,1.99-1.21v0.71
			c0,2.84,2.3,5.15,5.15,5.15s5.15-2.31,5.15-5.15v-18.45L178.5,191.29L178.5,191.29z"/>
		
			<radialGradient id="SVGID_00000105409235689581373470000006051742387725430932_" cx="161.7228" cy="-4978.8979" r="106.6854" gradientTransform="matrix(1 0 0 -1 0 -4861.6294)" gradientUnits="userSpaceOnUse">
			<stop  offset="0.0124" style="stop-color:#CF7DC9"/>
			<stop  offset="0.4936" style="stop-color:#9C5C96"/>
			<stop  offset="0.5829" style="stop-color:#96649A"/>
			<stop  offset="0.7273" style="stop-color:#8A7AA4"/>
			<stop  offset="0.9078" style="stop-color:#7A9DB5"/>
			<stop  offset="1" style="stop-color:#74B3C0"/>
		</radialGradient>
		<path style="fill:url(#SVGID_00000105409235689581373470000006051742387725430932_);" d="M178.5,191.29v-49.28
			c0-0.23,0.02-0.45,0.02-0.68c0-22.91-18.57-41.48-41.48-41.48s-41.48,18.57-41.48,41.48c0,0.36,0.02,0.72,0.03,1.07v44.66h-0.03
			v22.67c0,2.84,2.3,5.15,5.15,5.15c2.84,0,5.15-2.31,5.15-5.15v-0.83c0.56,0.36,1.13,0.72,1.74,1.07c1.83,1.06,3.79,1.99,5.85,2.81
			v8.2c0,2.84,2.3,5.15,5.15,5.15s5.15-2.31,5.15-5.15v-5.23c2.95,0.57,5.99,0.96,9.06,1.14v12.59c0,2.84,2.3,5.15,5.15,5.15
			c2.84,0,5.15-2.31,5.15-5.15v-12.7c3.39-0.28,6.73-0.8,9.93-1.55v6.36c0,2.84,2.3,5.15,5.15,5.15c2.84,0,5.15-2.31,5.15-5.15
			v-9.87c1-0.47,1.97-0.96,2.91-1.49c0.7-0.39,1.35-0.8,1.99-1.21v0.71c0,2.84,2.3,5.15,5.15,5.15s5.15-2.31,5.15-5.15v-18.45
			L178.5,191.29L178.5,191.29z"/>
	</g>
	<path id="矩形_00000010996289430403931590000016246259695407211442_" class="st14" d="M99.45,177.45L99.45,177.45
		c1.12,0,2.09,1.38,2.09,2.99v14.25c0,1.61-0.96,2.99-2.09,2.99l0,0c-1.12,0-2.09-1.38-2.09-2.99v-14.25
		C97.37,178.83,98.33,177.45,99.45,177.45z"/>
	<path id="矩形_00000179635957371172241150000018433802154186715531_" class="st14" d="M160.75,114.36L160.75,114.36
		c1.37-1.02,3.68-0.37,5.02,1.41l2.29,3.06c1.34,1.78,1.31,4.19-0.06,5.22l0,0c-1.37,1.02-3.68,0.37-5.02-1.41l-2.29-3.06
		C159.26,117.66,159.39,115.38,160.75,114.36z"/>
	<path id="矩形_00000014635436879287004890000002883993650454765727_" class="st14" d="M116.85,214.04L116.85,214.04
		c1.12,0,2.09,1.38,2.09,2.99v2.76c0,1.61-0.96,2.99-2.09,2.99l0,0c-1.12,0-2.09-1.38-2.09-2.99v-2.76
		C114.76,215.3,115.73,214.04,116.85,214.04z"/>
	<path id="矩形_00000012461150525925807440000013666773816624626874_" class="st14" d="M99.2,203.24L99.2,203.24
		c1.12,0,2.09,1.38,2.09,2.99v2.76c0,1.61-0.96,2.99-2.09,2.99l0,0c-1.12,0-2.09-1.38-2.09-2.99v-2.76
		C97.12,204.5,98.08,203.24,99.2,203.24z"/>
	<path id="矩形_00000058591326225360406320000015420240568444972417_" class="st14" d="M137.04,222.78L137.04,222.78
		c1.12,0,2.09,1.38,2.09,2.99v2.76c0,1.61-0.96,2.99-2.09,2.99l0,0c-1.12,0-2.09-1.38-2.09-2.99v-2.76
		C134.95,224.04,135.92,222.78,137.04,222.78z"/>
	<path id="矩形_00000023977176486743112070000003382371161999630489_" class="st14" d="M156.74,217.43L156.74,217.43
		c0.89,0,1.66,1.1,1.66,2.37v2.19c0,1.28-0.76,2.37-1.66,2.37l0,0c-0.89,0-1.66-1.1-1.66-2.37v-2.19
		C155.08,218.44,155.85,217.43,156.74,217.43z"/>
	<g>
		<path id="椭圆形_00000171697560968318489470000006466776752005700011_" class="st130" d="M147.05,172.32
			c4.06-0.17,7.1-3.66,7.09-6c0-0.94-0.55-1.75-1.38-1.81c-1.29-0.13-3.23,0.7-5.72,0.8c-2.31,0.1-3.78-0.5-5.53-0.42
			c-1.84,0.08-1.75,2.22-1.47,3.06C140.69,170.24,142.9,172.49,147.05,172.32z"/>
		<path id="椭圆形_00000124130033010786155540000010180999742264841856_" class="st84" d="M147.14,170.35
			c4.15-0.17,7.19-3.38,7.19-5.63c0-0.84-0.55-1.57-1.38-1.63c-1.29-0.13-3.32,0.7-5.81,0.8c-2.4,0.1-3.78-0.5-5.62-0.43
			s-1.75,2.13-1.48,2.87C140.68,168.46,142.99,170.52,147.14,170.35z"/>
	</g>
	<g>
		
			<ellipse transform="matrix(0.5671 -0.8237 0.8237 0.5671 -66.2777 171.6079)" class="st84" cx="130.11" cy="148.85" rx="9.5" ry="9.1"/>
		<path id="形状结合_00000179634114676343657300000006906802966940264338_" class="st131" d="M131.3,138.88
			c4.24-0.18,7.66,3.98,7.66,9.22c0,0.19,0,0.37,0,0.56v0.56c0-5.33-3.33-9.59-7.48-9.42s-7.46,4.61-7.46,10.04
			c0,1.03,0.09,2.05,0.37,2.98c-0.46-1.2-0.74-2.59-0.74-3.99C123.65,143.51,127.06,139.06,131.3,138.88z"/>
		<path id="形状结合_00000008846327353721607020000015805202501947049892_" class="st132" d="M131.3,137.76
			c4.7-0.2,8.58,4.41,8.58,10.31s-3.86,10.83-8.57,11.02c-4.7,0.2-8.58-4.41-8.58-10.31C122.73,142.89,126.51,137.96,131.3,137.76z
			 M131.3,138.88c-4.24,0.18-7.65,4.62-7.64,9.86c0,5.24,3.42,9.4,7.66,9.22s7.65-4.62,7.64-9.86
			C138.96,142.87,135.45,138.71,131.3,138.88z"/>
	</g>
	<g>
		
			<ellipse transform="matrix(0.5671 -0.8237 0.8237 0.5671 -51.839 196.3119)" class="st84" cx="160.83" cy="147.47" rx="9.5" ry="9.1"/>
		<path id="形状结合_00000041294428208011629170000002338251994008067510_" class="st131" d="M161.81,137.51
			c4.24-0.18,7.66,3.98,7.66,9.22c0,0.19,0,0.37,0,0.56v0.56c0-5.33-3.33-9.59-7.48-9.42s-7.46,4.61-7.46,10.04
			c0,1.03,0.09,2.05,0.37,2.98c-0.46-1.2-0.74-2.59-0.74-3.99C154.16,142.13,157.57,137.69,161.81,137.51z"/>
		<path id="形状结合_00000069372544864055136930000001284274576715800752_" class="st132" d="M161.81,136.39
			c4.7-0.2,8.58,4.41,8.58,10.31c0.01,5.89-3.86,10.83-8.57,11.02c-4.7,0.2-8.58-4.41-8.58-10.31S157.02,136.59,161.81,136.39z
			 M161.81,137.51c-4.24,0.18-7.65,4.62-7.64,9.86c0,5.24,3.42,9.4,7.66,9.22s7.65-4.62,7.64-9.86
			C169.47,141.5,165.96,137.34,161.81,137.51z"/>
	</g>
	<circle class="st130" cx="130.49" cy="148.85" r="3.77"/>
	<circle class="st130" cx="161.03" cy="147.72" r="3.77"/>
</g>
</svg>
